<?xml version="1.0" standalone="no"?>
<!DOCTYPE svg PUBLIC "-//W3C//DTD SVG 20010904//EN"
 "http://www.w3.org/TR/2001/REC-SVG-20010904/DTD/svg10.dtd">
<svg version="1.0" xmlns="http://www.w3.org/2000/svg"
 width="1200.000000pt" height="1200.000000pt" viewBox="0 0 1200.000000 1200.000000"
 preserveAspectRatio="xMidYMid meet">
<metadata>
Created by potrace 1.11, written by Peter Selinger 2001-2013
</metadata>
<g transform="translate(0.000000,1200.000000) scale(0.100000,-0.100000)"
fill="#000000" stroke="none">
<path d="M585 9461 c-11 -5 -26 -19 -33 -32 -10 -19 -12 -723 -10 -3442 l3
-3418 25 -19 c25 -19 114 -20 5400 -20 2956 0 5384 3 5396 6 11 3 28 17 36 32
15 24 16 346 16 3432 0 3093 -1 3407 -16 3432 -8 14 -25 29 -36 32 -34 9
-10759 6 -10781 -3z m10745 -3461 l0 -3380 -5350 0 -5350 0 0 3380 0 3380
5350 0 5350 0 0 -3380z"/>
<path d="M656 9342 c-3 -6 -1 -14 5 -17 15 -10 25 3 12 16 -7 7 -13 7 -17 1z"/>
<path d="M1703 8866 c-97 -54 -102 -197 -10 -251 106 -63 235 16 223 136 -10
105 -122 166 -213 115z m128 -94 c0 -4 2 -17 5 -29 9 -49 -64 -89 -103 -56
-61 53 -2 143 70 106 15 -7 27 -17 28 -21z"/>
<path d="M3371 8856 c-92 -71 -75 -206 32 -254 120 -53 248 89 183 205 -26 46
-71 73 -130 77 -37 2 -52 -3 -85 -28z m114 -59 c31 -10 45 -58 28 -91 -27 -52
-123 -29 -123 29 0 12 9 33 19 47 20 24 37 28 76 15z"/>
<path d="M5097 8876 c-46 -17 -64 -31 -82 -66 -30 -58 -23 -122 19 -168 30
-34 55 -45 105 -47 49 -2 81 11 112 46 99 113 -13 284 -154 235z m71 -80 c52
-17 53 -97 2 -114 -39 -14 -68 -5 -84 26 -16 30 -3 82 20 82 8 0 14 4 14 9 0
10 12 9 48 -3z"/>
<path d="M6786 8879 c-60 -17 -112 -93 -102 -150 3 -13 5 -31 5 -39 2 -23 52
-74 86 -88 38 -16 102 -8 134 16 65 48 83 115 48 183 -33 66 -102 98 -171 78z
m103 -116 c29 -64 -64 -123 -108 -69 -29 35 -12 100 27 108 28 6 70 -14 81
-39z"/>
<path d="M8451 8868 c-52 -25 -81 -72 -81 -129 0 -80 51 -136 131 -144 83 -9
152 50 157 134 7 114 -106 189 -207 139z m118 -92 c20 -24 6 -81 -23 -94 -47
-21 -96 8 -96 56 0 63 78 88 119 38z"/>
<path d="M10155 8877 c-87 -28 -125 -119 -85 -202 38 -78 136 -106 208 -59 32
21 56 44 46 44 -3 0 -2 6 4 13 6 7 14 28 17 46 18 103 -89 192 -190 158z m73
-81 c45 -15 49 -91 5 -114 -23 -12 -64 -6 -82 13 -23 23 -18 75 9 95 24 18 30
19 68 6z"/>
<path d="M3685 7218 c-66 -23 -113 -88 -119 -164 -12 -152 154 -247 287 -165
55 34 80 84 80 159 0 54 -3 67 -29 100 -55 69 -142 97 -219 70z m82 -159 c15
-15 5 -39 -17 -39 -22 0 -32 24 -17 39 6 6 14 11 17 11 3 0 11 -5 17 -11z"/>
<path d="M8562 7209 c-127 -63 -142 -239 -28 -317 30 -20 49 -27 106 -36 55
-10 143 46 171 108 73 161 -92 323 -249 245z m101 -151 c7 -20 -12 -48 -28
-42 -15 6 -20 35 -8 47 11 11 31 8 36 -5z"/>
<path d="M1197 6078 c-13 -8 -17 -147 -4 -155 6 -4 9423 -8 9610 -4 l27 1 0
80 0 80 -27 1 c-238 4 -9598 2 -9606 -3z"/>
</g>
</svg>
