<?xml version="1.0" standalone="no"?>
<!DOCTYPE svg PUBLIC "-//W3C//DTD SVG 20010904//EN"
 "http://www.w3.org/TR/2001/REC-SVG-20010904/DTD/svg10.dtd">
<svg version="1.0" xmlns="http://www.w3.org/2000/svg"
 width="16.000000pt" height="16.000000pt" viewBox="0 0 16.000000 16.000000"
 preserveAspectRatio="xMidYMid meet">
<metadata>
Created by potrace 1.11, written by Peter Selinger 2001-2013
</metadata>
<g transform="translate(0.000000,16.000000) scale(0.002286,-0.002286)"
fill="#000000" stroke="none">
<path d="M3780 6964 c-19 -8 -49 -26 -67 -39 -27 -22 -209 -261 -345 -455 -63
-91 -67 -96 -272 -380 -248 -345 -268 -376 -331 -505 -105 -217 -144 -380
-140 -585 1 -74 5 -144 8 -155 3 -11 12 -47 20 -80 8 -33 31 -103 50 -155 20
-51 35 -95 33 -97 -1 -1 -34 43 -72 99 -165 244 -372 391 -664 472 -30 8 -66
17 -80 20 -203 38 -195 38 -965 40 -570 1 -719 -2 -756 -13 -112 -32 -192
-159 -175 -276 11 -68 47 -124 384 -580 33 -44 142 -192 243 -330 101 -137
189 -256 196 -263 7 -7 13 -17 13 -22 0 -10 231 -245 271 -275 92 -71 220
-147 319 -188 131 -55 249 -74 440 -71 142 2 169 -5 82 -21 -97 -17 -337 -117
-394 -164 -216 -177 -303 -284 -428 -531 -35 -69 -65 -150 -162 -445 -326
-993 -315 -956 -322 -1001 -19 -114 -2 -170 74 -243 45 -43 104 -71 155 -71
60 0 132 22 807 245 660 218 736 249 920 371 168 111 332 296 405 454 24 53
93 266 93 289 0 9 4 21 8 28 4 6 6 -66 5 -160 -1 -116 4 -194 13 -241 48 -230
159 -426 350 -621 106 -108 119 -118 354 -291 893 -655 863 -634 935 -672 131
-69 303 0 351 140 17 49 18 102 16 743 -1 380 -4 710 -7 735 -2 25 -7 70 -11
100 -15 142 -64 318 -123 440 -89 187 -175 290 -356 428 -14 11 -116 77 -140
91 -17 10 -16 10 10 5 17 -4 37 -10 45 -14 24 -12 161 -58 208 -70 69 -18 100
-21 212 -25 169 -6 307 21 495 96 152 60 254 122 490 293 11 8 202 146 425
307 532 383 538 388 566 467 27 75 10 181 -39 245 -45 59 -97 81 -527 217
-124 40 -367 117 -540 172 -173 56 -349 109 -390 120 -228 56 -455 61 -680 14
-154 -32 -370 -152 -508 -283 -20 -19 -27 -16 -11 4 8 10 21 26 29 36 8 11 20
25 27 32 25 27 125 180 152 233 30 59 77 195 86 247 3 17 8 50 12 75 10 61 10
300 0 380 -9 71 -39 210 -62 280 -55 177 -168 528 -172 540 -4 8 -7 17 -8 20
0 3 -5 16 -9 30 -4 14 -39 124 -78 245 -158 498 -178 535 -297 569 -71 20
-125 20 -171 0z m-197 -2336 c27 -19 59 -78 78 -148 19 -68 16 -289 -5 -388
-52 -248 -154 -412 -255 -412 -69 0 -124 97 -140 248 -27 258 72 599 201 692
43 31 81 33 121 8z m-1090 -663 c214 -62 460 -232 521 -358 44 -95 7 -159 -99
-172 -253 -32 -720 231 -765 431 -28 125 115 166 343 99z m1987 -305 c105 -25
170 -75 170 -132 0 -163 -488 -322 -789 -257 -31 7 -59 12 -63 11 -3 -1 -28
13 -54 31 -73 49 -82 103 -27 168 70 83 271 167 443 186 30 3 56 6 58 8 9 7
217 -4 262 -15z m-1390 -576 c98 -94 -92 -423 -350 -606 -89 -63 -173 -99
-247 -105 -59 -5 -63 -4 -92 25 -37 37 -40 72 -11 165 77 249 455 574 640 549
19 -2 46 -15 60 -28z m555 -94 c239 -164 438 -669 321 -815 -19 -24 -30 -28
-67 -28 -149 0 -371 290 -445 582 -49 195 -3 324 107 300 23 -5 60 -23 84 -39z"/>
</g>
</svg>
