<svg xmlns="http://www.w3.org/2000/svg" viewBox="0 0 77 47" fill-rule="evenodd" clip-rule="evenodd" stroke-linecap="round" id="svg4631">
  <path d="M72 44.6H6.5l-2.2-2.2v-9.3L0 28.8V8.6l5-5V1.4h67c2 0 3.6 1.6 3.6 3.6v10l-1 1.2v13.6l1 1.1V41c0 2-1.6 3.6-3.6 3.6m-8.6-17c-1.4 0-1.4 2 0 2 1.3 0 1.3-2 0-2zm0-11.1c-1.4 0-1.4 2 0 2 1.3 0 1.3-2 0-2zM57.2 2.6c-4.1 0-4.1 6.2 0 6.2 4.2 0 4.2-6.2 0-6.2zm0 34.6c-4.1 0-4.1 6.2 0 6.2 4.2 0 4.2-6.2 0-6.2zM50.4 3.7c-1.9 0-1.9 2.8 0 2.8s1.9-2.8 0-2.8zm-7.2 0c-1.9 0-1.9 2.8 0 2.8s1.9-2.8 0-2.8zm-7.2 0c-1.9 0-1.9 2.8 0 2.8s1.9-2.8 0-2.8zm-7.2 0c-1.9 0-1.9 2.8 0 2.8s1.9-2.8 0-2.8zm-7.2 0c-1.9 0-1.9 2.8 0 2.8s1.9-2.8 0-2.8zm0 35.9c-1.9 0-1.9 2.8 0 2.8s1.9-2.8 0-2.8zm7.2 0c-1.9 0-1.9 2.8 0 2.8s1.9-2.8 0-2.8zm7.2 0c-1.9 0-1.9 2.8 0 2.8s1.9-2.8 0-2.8zm7.2 0c-1.9 0-1.9 2.8 0 2.8s1.9-2.8 0-2.8zm7.2 0c-1.9 0-1.9 2.8 0 2.8s1.9-2.8 0-2.8zm-39.6-36c-4.2 0-4.2 6.3 0 6.3s4.2-6.2 0-6.2zm0 32.5c-4.2 0-4.2 6.2 0 6.2s4.2-6.2 0-6.2z" id="path4485" fill="none" fill-rule="nonzero" stroke="#3e3b2b"/>
  <path d="M19.3 30.2v-2.9m24-13.2v-2.3m8.7 0V14M9.5 32v-2.8" fill="none" stroke="#fff" stroke-width=".9" id="path4487"/>
  <path d="M60.2 30v-2.2m0-9.6v-2.3M73 33.8h2.5m0 0V12.2m0 0H73" fill="none" stroke="#fff" stroke-width=".4" id="path4489"/>
  <path d="M26.5 28l1 2.8m0 0h-2.2m0 0l1.2-2.9" fill="none" stroke="#fff" stroke-width=".4" id="path4491"/>
  <path d="M28.8 25.5v7.7m0 0h-4.7m0 0v-7.7m0 0h4.7" fill="none" stroke="#fff" stroke-width=".4" id="path4493"/>
  <path d="M26.5 18.3l-1.2-2.8m0 0h2.3m0 0l-1.1 2.8" fill="none" stroke="#fff" stroke-width=".4" id="path4495"/>
  <path d="M24.1 20.7v-7.6m0 0h4.7m0 0v7.6m0 0h-4.7m18.1-2.3h-1.7m0 0V20m13.6-1.7h1.7m0 0V20M40.5 32v1.7m0 0h1.7M55.8 32v1.7m0 0h-1.7" fill="none" stroke="#fff" stroke-width=".4" id="path4497"/>
  <path d="M37.9 21.9h-5.7m5.7-6.3h-5.7M32 23h.9m0 0h.3m0 0l-.6-.6m0 0l-.6.6m0 0h.3m0 0l.3-.3" fill="none" stroke="#fff" stroke-width=".4" id="path4503"/>
  <path d="M68.4 7.3l.9-.7v1.5l-1-.8zm.8.7V6.7 8z" fill="none" stroke="#fff" stroke-width=".4" id="path4505"/>
  <path d="M68 8.4V6.3h.4v2.1H68z" fill="#fff" fill-rule="nonzero" id="path4507"/>
  <path d="M13.3 14.5v12m-8.6 0v-12" fill="none" stroke="#fff" stroke-width=".6" id="path4509"/>
  <path d="M68.3 43.2V41m.1-36V2.9" fill="none" stroke="#fff" stroke-width=".9" id="path4511"/>
  <path d="M10.8 12a5.1 5.1 0 1 1 0-10.3 5.1 5.1 0 0 1 0 10.2zm0 32.3a5.1 5.1 0 1 1 0-10.2 5.1 5.1 0 0 1 0 10.2z" fill="none" stroke="#fff" stroke-width=".6" stroke-linecap="butt" id="path4513"/>
  <path d="M23.4 20.8v-4.6M14 20.8v-4.6m5.9 5.3h-2.3" fill="none" stroke="#fff" stroke-width=".6" id="path4515"/>
  <path d="M43.2 21.6c0-.3.3-.5.5-.5h9c.2 0 .5.2.5.5v9a.5.5 0 0 1-.5.4h-9a.5.5 0 0 1-.5-.5v-9z" fill="#9a916c" id="path4535"/>
  <path d="M50.4 7.2a2 2 0 1 1 0-4.2 2 2 0 0 1 0 4.2zm-7.2 0a2 2 0 1 1 0-4.2 2 2 0 0 1 0 4.2zm-7.2 0A2 2 0 1 1 36 3a2 2 0 0 1 0 4.2zm-7.2 0a2 2 0 1 1 0-4.2 2 2 0 0 1 0 4.2zm-7.2 0a2 2 0 1 1 0-4.2 2 2 0 0 1 0 4.2zm0 35.9a2 2 0 1 1 0-4.2 2 2 0 0 1 0 4.2zm7.2 0a2 2 0 1 1 0-4.2 2 2 0 0 1 0 4.2zm7.2 0a2 2 0 1 1 0-4.2 2 2 0 0 1 0 4.2zm7.2 0a2 2 0 1 1 0-4.2 2 2 0 0 1 0 4.2zm7.2 0a2 2 0 1 1 0-4.2 2 2 0 0 1 0 4.2z" fill="none" stroke="#9a916c" stroke-width="1.3" stroke-linecap="butt" id="path4537"/>
  <path d="M10.8 10.6a3.8 3.8 0 1 1 0-7.6 3.8 3.8 0 0 1 0 7.6zm0 32.4a3.8 3.8 0 1 1 0-7.6 3.8 3.8 0 0 1 0 7.6z" fill="none" stroke="#9a916c" stroke-width="1.4" stroke-linecap="butt" id="path4543"/>
  <path d="M60.8 30V16h.7v14h-.7z" fill="#b4b4b4" fill-rule="nonzero" id="path4567"/>
  <path d="M60.7 33.8h13.6V12.2H60.7z" id="path4571" fill="#dcdcdc" fill-rule="nonzero"/>
  <path d="M74.3 33.2V12.8l1.7.6v19.2l-1.7.6z" fill="#f0f0f0" fill-rule="nonzero" id="path4575"/>
  <path d="M74.3 33.8v-.6l1.7.6v.5l-1.7-.5zm0-21v-.6l1.7-.5v.5l-1.7.6z" fill="#b4b4b4" fill-rule="nonzero" id="path4577"/>
  <path d="M41.1 19.6c0-.4.3-.6.6-.6h13c.3 0 .6.2.6.6v12.9a.6.6 0 0 1-.7.6H41.7a.6.6 0 0 1-.6-.6V19.6z" fill="#333" id="path4591"/>
  <path d="M43.4 20.6a.7.7 0 1 1-1.4 0 .7.7 0 0 1 1.4 0z" fill="#666" id="path4593"/>
  <path d="M34.4 29.9c-.1-.3-.2-.7 0-.7.1-.1.3.1.5.4.2.4.2.7 0 .8l-.5-.5zm-1.6.1s0-.4.3-.6c.3-.3.6-.4.7-.3.1 0 0 .4-.3.7-.3.2-.6.4-.7.2m1.8-1.4c0-.1.3-.3.7-.3.3-.1.7 0 .7.1 0 .2-.3.4-.7.4-.3 0-.7 0-.7-.2m-1.6-.2c-.4-.1-.6-.4-.5-.5 0-.2.4-.1.7 0 .4.2.6.5.5.6H33m1-1c.1-.4.3-.6.4-.6.2 0 .3.3.2.7 0 .4-.2.7-.4.6-.1 0-.2-.3-.2-.7m2.7 5.3v-1.6s0-1-.7-1.5l-.3-.2.4.2c.8.2 1.6-.4 1.6-.4l1.3-1c.2-.1.3-.2.3-.4s-.2-.2-.5-.3l-1.5-.5s-1-.4-1.6.1l-.3.2.2-.2c.5-.7.2-1.7.2-1.7l-.5-1.5c-.1-.3-.2-.4-.4-.4s-.2 0-.4.3l-1 1.3s-.6.8-.3 1.6l.1.3-.2-.3c-.5-.7-1.5-.6-1.5-.6H30c-.3 0-.4 0-.5.2l.1.5 1 1.3s.5.8 1.4.8h.4l-.4.1c-.8.3-1 1.2-1 1.2l-.6 1.6v.5h.6l1.5-.5s1-.2 1.3-1v-.4.4c0 .8.9 1.4.9 1.4l1.3 1h.5c.2 0 .2-.2.2-.5" id="path4625" fill-rule="nonzero"/>
</svg>
