<svg xmlns="http://www.w3.org/2000/svg" viewBox="0 0 190.79 163.039" stroke-miterlimit="1.414" version="1.1" id="svg5232" width="190.79" height="163.039" clip-rule="evenodd" fill-rule="evenodd" stroke-linejoin="round">
  <path d="M182.569 0a8.19 8.19 0 0 1 8.221 8.152v146.735a8.19 8.19 0 0 1-8.221 8.152H8.22A8.19 8.19 0 0 1 0 154.887V8.152A8.19 8.19 0 0 1 8.221 0zm-41.704 146.808c2.307 0 4.18 1.918 4.18 4.28 0 2.363-1.873 4.281-4.18 4.281-2.31 0-4.183-1.918-4.183-4.28 0-2.363 1.873-4.281 4.183-4.281zm-23.53 0c2.311 0 4.184 1.918 4.184 4.28 0 2.363-1.873 4.281-4.183 4.281-2.307 0-4.18-1.918-4.18-4.28 0-2.363 1.873-4.281 4.18-4.281zm-23.525 0c2.307 0 4.183 1.918 4.183 4.28 0 2.363-1.876 4.281-4.183 4.281-2.31 0-4.184-1.918-4.184-4.28 0-2.363 1.873-4.281 4.184-4.281zm-23.53 0c2.31 0 4.184 1.918 4.184 4.28 0 2.363-1.874 4.281-4.184 4.281-2.307 0-4.18-1.918-4.18-4.28 0-2.363 1.873-4.281 4.18-4.281zm-23.526 0c2.307 0 4.183 1.918 4.183 4.28 0 2.363-1.876 4.281-4.183 4.281s-4.184-1.918-4.184-4.28c0-2.363 1.877-4.281 4.184-4.281zm117.638-.27c2.31 0 4.183 1.917 4.183 4.283 0 2.363-1.873 4.28-4.183 4.28-2.307 0-4.18-1.917-4.18-4.28 0-2.366 1.873-4.284 4.18-4.284zM141.272 7.232c2.306 0 4.18 1.918 4.18 4.28 0 2.363-1.874 4.281-4.18 4.281-2.311 0-4.184-1.918-4.184-4.28 0-2.363 1.873-4.281 4.183-4.281zm-23.53 0c2.31 0 4.183 1.918 4.183 4.28 0 2.363-1.873 4.281-4.183 4.281-2.307 0-4.18-1.918-4.18-4.28 0-2.363 1.873-4.281 4.18-4.281zm-23.526 0c2.306 0 4.18 1.918 4.18 4.28 0 2.363-1.874 4.281-4.18 4.281-2.31 0-4.184-1.918-4.184-4.28 0-2.363 1.873-4.281 4.184-4.281zm-23.53 0c2.31 0 4.183 1.918 4.183 4.28 0 2.363-1.873 4.281-4.183 4.281-2.307 0-4.18-1.918-4.18-4.28 0-2.363 1.873-4.281 4.18-4.281zm-23.526 0c2.307 0 4.183 1.918 4.183 4.28 0 2.363-1.876 4.281-4.183 4.281s-4.184-1.918-4.184-4.28c0-2.363 1.877-4.281 4.184-4.281zm117.637-.27c2.31 0 4.184 1.917 4.184 4.28 0 2.366-1.873 4.284-4.184 4.284-2.306 0-4.18-1.918-4.18-4.284 0-2.363 1.874-4.28 4.18-4.28z" id="path5198" fill="#e52824" stroke-width="3.469"/>
  <path d="M0 35.154h166.823v92.734H0z" id="path5200" fill="#c11a12" stroke-width="3.469"/>
  <path d="M23.52 43.264h135.14v77.125H23.519zM4.803 53.554h14.494v65.988H4.804z" id="path5202" fill="#fdfdfd" stroke-width="3.469"/>
  <path d="M4.804 58.52h14.494v15.958H4.804z" id="path5204" fill="#ffcfae" stroke-width="3.469"/>
  <g id="g5208" transform="scale(3.4689)" fill="#fdfdfd">
    <path d="M40.721 9.348h1.239v1.381h-1.239zm-1.825 0h1.239v1.381h-1.239zm-1.826 0h1.239v1.381H37.07zm-1.826 0h1.239v1.381h-1.239zm-1.825 0h1.239v1.381h-1.239zm-1.826 0h1.239v1.381h-1.239zm-1.825 0h1.239v1.381h-1.239zm-1.826 0h1.239v1.381h-1.239zm-1.826 0h1.239v1.381h-1.239zm-1.825 0h1.239v1.381h-1.239zm-1.826 0h1.239v1.381h-1.239zm-1.825 0h1.239v1.381H20.64zm-1.826 0h1.239v1.381h-1.239zm-1.825 0h1.239v1.381h-1.239zm-1.826 0h1.239v1.381h-1.239zm-1.826 0h1.239v1.381h-1.239zm-1.825 0h1.239v1.381h-1.239zm32.86 0h1.239v1.381h-1.239zm-1.825 0h1.239v1.381h-1.239z" id="path5206"/>
  </g>
  <g id="g5212" transform="scale(3.4689)" fill="#fdfdfd">
    <path d="M40.721 36.105h1.239v1.381h-1.239zm-1.825 0h1.239v1.381h-1.239zm-1.826 0h1.239v1.381H37.07zm-1.826 0h1.239v1.381h-1.239zm-1.825 0h1.239v1.381h-1.239zm-1.826 0h1.239v1.381h-1.239zm-1.825 0h1.239v1.381h-1.239zm-1.826 0h1.239v1.381h-1.239zm-1.826 0h1.239v1.381h-1.239zm-1.825 0h1.239v1.381h-1.239zm-1.826 0h1.239v1.381h-1.239zm-1.825 0h1.239v1.381H20.64zm-1.826 0h1.239v1.381h-1.239zm-1.825 0h1.239v1.381h-1.239zm-1.826 0h1.239v1.381h-1.239zm-1.826 0h1.239v1.381h-1.239zm-1.825 0h1.239v1.381h-1.239zm32.86 0h1.239v1.381h-1.239zm-1.825 0h1.239v1.381h-1.239z" id="path5210"/>
  </g>
  <g id="g5216" transform="scale(3.4689)" fill="#fdfdfd">
    <path d="M47.304 15.586v1.239h1.382v-1.239zm0 1.825v1.239h1.382v-1.239zm0 1.826v1.239h1.382v-1.239zm0 1.826v1.239h1.382v-1.239zm0 1.825v1.239h1.382v-1.239zm0 1.826v1.239h1.382v-1.239zm0 1.825v1.239h1.382v-1.239zm0 1.826v1.239h1.382v-1.239zm0 1.825v1.239h1.382V30.19zm0 1.826v1.239h1.382v-1.239zm0 1.826v1.239h1.382v-1.239zm0-21.907v1.239h1.382v-1.239zm0 1.825v1.239h1.382V13.76z" id="path5214"/>
  </g>
  <path d="M175.697 21.965h5.373v13.352h-5.373z" id="path5218" fill="#c11a12" stroke-width="3.469"/>
  <path d="M180.706 24.588v8.103a.593.593 0 0 1-.593.597h-3.459a.597.597 0 0 1-.593-.597v-8.103c0-.326.267-.593.593-.593h3.459c.326 0 .593.267.593.593z" id="LED" fill="#dcdcdc" fill-rule="nonzero" stroke-width="3.469"/>
  <path d="M70.506 3.746a7.5 7.5 0 1 1-.004 14.997 7.5 7.5 0 0 1 .004-14.997z" id="D2_A2_SDA_SS" fill="#d0d0d0" stroke-width="3.469"/>
  <path d="M162.792 3.746a7.5 7.5 0 1 1-.003 14.997 7.5 7.5 0 0 1 .003-14.997z" id="GND2" fill="#d0d0d0" stroke-width="3.469"/>
  <path d="M139.72 3.746a7.5 7.5 0 1 1-.002 14.997 7.5 7.5 0 0 1 .003-14.997z" id="D3_A3_SCL_SCK" fill="#d0d0d0" stroke-width="3.469"/>
  <path d="M116.649 3.746a7.5 7.5 0 1 1-.003 14.997 7.5 7.5 0 0 1 .003-14.997z" id="D0_A0_RX_MISO" fill="#d0d0d0" stroke-width="3.469"/>
  <path d="M93.577 3.746a7.5 7.5 0 1 1-.003 14.997 7.5 7.5 0 0 1 .003-14.997z" id="D1_A1_MOSI_TX" fill="#d0d0d0" stroke-width="3.469"/>
  <path d="M47.434 3.746a7.5 7.5 0 1 1-.004 14.997 7.5 7.5 0 0 1 .004-14.997z" id="VDD" fill="#d0d0d0" stroke-width="3.469"/>
  <path d="M70.506 143.627a7.502 7.502 0 1 1-.01 15.003 7.502 7.502 0 0 1 .01-15.003z" id="SWDIO" fill="#d0d0d0" stroke-width="3.469"/>
  <path d="M162.792 143.627a7.502 7.502 0 1 1-.01 15.003 7.502 7.502 0 0 1 .01-15.003z" id="VIN" fill="#d0d0d0" stroke-width="3.469"/>
  <path d="M139.72 143.627a7.502 7.502 0 1 1-.01 15.003 7.502 7.502 0 0 1 .01-15.003z" id="GND" fill="#d0d0d0" stroke-width="3.469"/>
  <path d="M116.649 143.627a7.502 7.502 0 1 1-.01 15.003 7.502 7.502 0 0 1 .01-15.003z" id="A5_D5" fill="#d0d0d0" stroke-width="3.469"/>
  <path d="M93.577 143.627a7.502 7.502 0 1 1-.01 15.003 7.502 7.502 0 0 1 .01-15.003z" id="A4_D4" fill="#d0d0d0" stroke-width="3.469"/>
  <path d="M47.434 143.627a7.502 7.502 0 1 1-.01 15.003 7.502 7.502 0 0 1 .01-15.003z" id="SWCLK" fill="#d0d0d0" stroke-width="3.469"/>
  <path d="M9.009 10.601a4.607 4.607 0 0 1-2.74-4.229c0-2.539 2.025-4.6 4.52-4.6 2.133 0 3.923 1.51 4.394 3.535a15.083 15.083 0 0 1 6.189-1.318c7.975 0 14.451 6.144 14.451 13.71 0 7.565-6.476 13.709-14.451 13.709a15.065 15.065 0 0 1-6.16-1.305 4.523 4.523 0 0 1-4.18 2.852 4.558 4.558 0 0 1-4.517-4.6c0-1.693.898-3.174 2.237-3.972a13.112 13.112 0 0 1 .257-13.782zm13.952 1.686c.093-.007.187-.01.284-.01 2.359 0 4.274 2.188 4.274 4.884 0 2.695-1.915 4.884-4.274 4.884-.097 0-.19-.004-.284-.01z" id="path5230" fill="#feffff" stroke-width="3.469"/>
</svg>
