<svg viewBox="0 0 55 47" xmlns="http://www.w3.org/2000/svg" fill-rule="evenodd" clip-rule="evenodd" stroke-linejoin="round" stroke-miterlimit="1.414"><path d="M52.294 46.537H2.706a2.337 2.337 0 0 1-2.338-2.311V2.622A2.337 2.337 0 0 1 2.706.311h49.588a2.337 2.337 0 0 1 2.338 2.311v41.604a2.337 2.337 0 0 1-2.338 2.311z" fill="none" stroke="#000" stroke-width=".53"/><path d="M20.421 41.033a2.14 2.14 0 0 1 2.132 2.127 2.14 2.14 0 0 1-2.134 2.127h-.001a2.14 2.14 0 0 1-2.132-2.127 2.14 2.14 0 0 1 2.133-2.127h.002zm26.248 0a2.14 2.14 0 0 1 2.132 2.127 2.14 2.14 0 0 1-2.133 2.127h-.002a2.14 2.14 0 0 1-2.132-2.127c0-1.166.963-2.127 2.134-2.127h.001zm-6.562 0a2.14 2.14 0 0 1 2.132 2.127 2.14 2.14 0 0 1-2.133 2.127h-.002a2.14 2.14 0 0 1-2.132-2.127c0-1.166.963-2.127 2.134-2.127h.001zm-6.562 0a2.14 2.14 0 0 1 2.132 2.127 2.14 2.14 0 0 1-2.133 2.127h-.002a2.14 2.14 0 0 1-2.132-2.127c0-1.166.963-2.127 2.134-2.127h.001zm-6.562 0a2.14 2.14 0 0 1 2.132 2.127 2.14 2.14 0 0 1-2.133 2.127h-.002a2.14 2.14 0 0 1-2.132-2.127c0-1.166.963-2.127 2.134-2.127h.001zm-13.124 0a2.14 2.14 0 0 1 2.132 2.127 2.14 2.14 0 0 1-2.134 2.127h-.001a2.14 2.14 0 0 1-2.132-2.127 2.14 2.14 0 0 1 2.133-2.127h.002zm6.562 1.511h-.001a.622.622 0 0 0-.619.617c0 .338.279.616.618.617h.001a.622.622 0 0 0 .619-.617.621.621 0 0 0-.618-.617zm6.562 0a.621.621 0 0 1 .618.617c0 .338-.28.617-.619.617h-.001a.621.621 0 0 1-.618-.617c0-.338.28-.617.619-.617h.001zm-13.124 0a.62.62 0 0 1 .617.617.62.62 0 0 1-.618.617h-.001a.621.621 0 0 1-.618-.617c0-.338.279-.617.619-.617h.001zm32.81 0a.621.621 0 0 1 .618.617.621.621 0 0 1-.619.617h-.001a.62.62 0 0 1-.617-.617.62.62 0 0 1 .618-.617h.001zm-6.562 0a.621.621 0 0 1 .618.617.621.621 0 0 1-.619.617h-.001a.62.62 0 0 1-.617-.617.62.62 0 0 1 .618-.617h.001zm-6.562 0a.621.621 0 0 1 .618.617c0 .338-.28.617-.619.617h-.001a.621.621 0 0 1-.618-.617c0-.338.28-.617.619-.617h.001zM20.421 1.373h.045c1.17 0 2.133.96 2.133 2.126a2.14 2.14 0 0 1-2.133 2.127l-.046-.001a2.14 2.14 0 0 1-2.087-2.126 2.14 2.14 0 0 1 2.088-2.126zm26.248 0h.046c1.17 0 2.133.96 2.133 2.126a2.14 2.14 0 0 1-2.133 2.127l-.047-.001a2.14 2.14 0 0 1-2.086-2.126 2.14 2.14 0 0 1 2.087-2.126zm-6.562 0h.046c1.17 0 2.133.96 2.133 2.126a2.14 2.14 0 0 1-2.133 2.127l-.047-.001a2.14 2.14 0 0 1-2.087-2.126 2.14 2.14 0 0 1 2.088-2.126zm-6.562 0h.045a2.14 2.14 0 0 1 2.134 2.126 2.14 2.14 0 0 1-2.134 2.127l-.046-.001a2.14 2.14 0 0 1-2.087-2.126 2.14 2.14 0 0 1 2.088-2.126zm-6.562 0h.045a2.14 2.14 0 0 1 2.133 2.126 2.14 2.14 0 0 1-2.133 2.127l-.046-.001a2.14 2.14 0 0 1-2.087-2.126 2.14 2.14 0 0 1 2.088-2.126zm-13.124 0h.045c1.17 0 2.133.96 2.133 2.126a2.14 2.14 0 0 1-2.133 2.127l-.046-.001a2.14 2.14 0 0 1-2.087-2.126 2.14 2.14 0 0 1 2.088-2.126zm6.562 1.511a.62.62 0 0 1 .618.616.62.62 0 0 1-.618.615.62.62 0 0 1-.618-.615.62.62 0 0 1 .618-.616zm26.248 0a.62.62 0 0 1 .618.616.62.62 0 0 1-.618.615.619.619 0 0 1-.617-.615.62.62 0 0 1 .617-.616zm-6.562 0a.62.62 0 0 1 .618.616.62.62 0 0 1-.618.615.619.619 0 0 1-.617-.615.62.62 0 0 1 .617-.616zm-6.562 0a.62.62 0 0 1 .618.616.62.62 0 0 1-.618.615.62.62 0 0 1-.618-.615.62.62 0 0 1 .618-.616zm-6.562 0a.62.62 0 0 1 .618.616.62.62 0 0 1-.618.615.62.62 0 0 1-.618-.615.62.62 0 0 1 .618-.616zm-13.124 0a.62.62 0 0 1 .617.616.619.619 0 0 1-.617.615.62.62 0 0 1-.618-.615.62.62 0 0 1 .618-.616z" fill="none" stroke="#000" stroke-width=".28"/><path d="M7.057 12.578h38.437v21.867H7.057V12.578zm-5.323 2.917h4.122v18.71H1.734v-18.71z" fill="none" stroke="#000" stroke-width=".48"/><path d="M2.93 3.317a1.31 1.31 0 0 1-.78-1.199c0-.72.577-1.304 1.286-1.304.607 0 1.116.427 1.25 1.002a4.306 4.306 0 0 1 1.76-.374c2.269 0 4.111 1.742 4.111 3.887S8.715 9.216 6.446 9.216a4.298 4.298 0 0 1-1.752-.37 1.289 1.289 0 0 1-1.189.809A1.301 1.301 0 0 1 2.22 8.362l.001-.011c0-.48.255-.9.636-1.127a3.712 3.712 0 0 1 .073-3.907zm3.968.478c.027-.002.053-.003.081-.003.671 0 1.216.62 1.216 1.385 0 .764-.545 1.384-1.216 1.384l-.081-.002V3.795z"/></svg>