<?xml version="1.0" encoding="UTF-8" standalone="no"?><!DOCTYPE svg PUBLIC "-//W3C//DTD SVG 1.1//EN" "http://www.w3.org/Graphics/SVG/1.1/DTD/svg11.dtd"><svg width="100%" height="100%" viewBox="0 0 77 47" version="1.1" xmlns="http://www.w3.org/2000/svg" xmlns:xlink="http://www.w3.org/1999/xlink" xml:space="preserve" xmlns:serif="http://www.serif.com/" style="fill-rule:evenodd;clip-rule:evenodd;stroke-linecap:round;"><path d="M72,44.607l-65.52,0l-2.16,-2.16l0,-9.36l-4.32,-4.32l0,-20.16l5.04,-5.04l0,-2.16l66.96,0c1.975,0 3.6,1.625 3.6,3.6l0,10.08l-1.08,1.08l0,13.68l1.08,1.08l0,10.08c0,1.975 -1.625,3.6 -3.6,3.6m-8.64,-17.065c-0.544,0 -0.992,0.448 -0.992,0.992c0,0.544 0.448,0.992 0.992,0.992c0.544,0 0.992,-0.448 0.992,-0.992c0,-0.544 -0.448,-0.992 -0.992,-0.992Zm0,-11.055c-0.544,0 -0.992,0.448 -0.992,0.992c0,0.544 0.448,0.992 0.992,0.992c0.544,0 0.992,-0.448 0.992,-0.992c0,-0.544 -0.448,-0.992 -0.992,-0.992Zm-6.12,-13.878c-1.71,0 -3.118,1.408 -3.118,3.118c0,1.71 1.408,3.118 3.118,3.118c1.71,0 3.118,-1.408 3.118,-3.118c0,-1.71 -1.408,-3.118 -3.118,-3.118Zm0,34.56c-1.71,0 -3.118,1.408 -3.118,3.118c0,1.71 1.408,3.118 3.118,3.118c1.71,0 3.118,-1.408 3.118,-3.118c0,-1.71 -1.408,-3.118 -3.118,-3.118Zm3.569,-5.942c-0.011,0 -0.022,-0.001 -0.034,-0.001c-0.622,0 -1.134,0.512 -1.134,1.134c0,0.623 0.512,1.135 1.134,1.135c0.012,0 0.023,-0.001 0.034,-0.001c0.609,-0.018 1.1,-0.524 1.1,-1.133c0,-0.61 -0.491,-1.116 -1.1,-1.134Zm0,-18.708c0,0 -0.001,0 -0.001,0c-0.622,0 -1.133,0.511 -1.133,1.133c0,0.621 0.511,1.132 1.132,1.133c0,0 0.001,0 0.001,0c0.622,0 1.133,-0.511 1.133,-1.133c0,-0.621 -0.511,-1.132 -1.132,-1.133Zm7.937,19.417c-0.012,0 -0.024,0 -0.036,0c-0.7,0 -1.276,0.576 -1.276,1.276c0,0.699 0.576,1.276 1.276,1.276c0.012,0 0.024,-0.001 0.036,-0.001c0.686,-0.019 1.24,-0.589 1.24,-1.275c0,-0.687 -0.554,-1.257 -1.24,-1.276Zm0,-20.41c-0.7,0 -1.277,0.576 -1.277,1.277c0,0.7 0.577,1.276 1.277,1.276c0.7,0 1.276,-0.576 1.276,-1.276c0,-0.701 -0.576,-1.277 -1.276,-1.277Zm-18.346,-7.865c-0.778,0 -1.418,0.64 -1.418,1.418c0,0.778 0.64,1.418 1.418,1.418c0.778,0 1.418,-0.64 1.418,-1.418c0,-0.778 -0.64,-1.418 -1.418,-1.418Zm-7.2,0c-0.778,0 -1.418,0.64 -1.418,1.418c0,0.778 0.64,1.418 1.418,1.418c0.778,0 1.418,-0.64 1.418,-1.418c0,-0.778 -0.64,-1.418 -1.418,-1.418Zm-7.2,0c-0.778,0 -1.418,0.64 -1.418,1.418c0,0.778 0.64,1.418 1.418,1.418c0.778,0 1.418,-0.64 1.418,-1.418c0,-0.778 -0.64,-1.418 -1.418,-1.418Zm-7.2,0c-0.778,0 -1.418,0.64 -1.418,1.418c0,0.778 0.64,1.418 1.418,1.418c0.778,0 1.418,-0.64 1.418,-1.418c0,-0.778 -0.64,-1.418 -1.418,-1.418Zm-7.2,0c-0.778,0 -1.418,0.64 -1.418,1.418c0,0.778 0.64,1.418 1.418,1.418c0.778,0 1.418,-0.64 1.418,-1.418c0,-0.778 -0.64,-1.418 -1.418,-1.418Zm0,35.928c-0.778,0 -1.418,0.64 -1.418,1.418c0,0.778 0.64,1.418 1.418,1.418c0.778,0 1.418,-0.64 1.418,-1.418c0,-0.778 -0.64,-1.418 -1.418,-1.418Zm7.2,0c-0.778,0 -1.418,0.64 -1.418,1.418c0,0.778 0.64,1.418 1.418,1.418c0.778,0 1.418,-0.64 1.418,-1.418c0,-0.778 -0.64,-1.418 -1.418,-1.418Zm7.2,0c-0.778,0 -1.418,0.64 -1.418,1.418c0,0.778 0.64,1.418 1.418,1.418c0.778,0 1.418,-0.64 1.418,-1.418c0,-0.778 -0.64,-1.418 -1.418,-1.418Zm7.2,0c-0.778,0 -1.418,0.64 -1.418,1.418c0,0.778 0.64,1.418 1.418,1.418c0.778,0 1.418,-0.64 1.418,-1.418c0,-0.778 -0.64,-1.418 -1.418,-1.418Zm7.2,0c-0.778,0 -1.418,0.64 -1.418,1.418c0,0.778 0.64,1.418 1.418,1.418c0.778,0 1.418,-0.64 1.418,-1.418c0,-0.778 -0.64,-1.418 -1.418,-1.418Zm-39.6,-35.9c-1.71,0 -3.118,1.408 -3.118,3.118c0,1.71 1.408,3.118 3.118,3.118c1.71,0 3.118,-1.408 3.118,-3.118c0,-1.71 -1.408,-3.118 -3.118,-3.118Zm0,32.4c-1.71,0 -3.118,1.408 -3.118,3.118c0,1.71 1.408,3.118 3.118,3.118c1.71,0 3.118,-1.408 3.118,-3.118c0,-1.71 -1.408,-3.118 -3.118,-3.118Z" style="fill:#f00;fill-rule:nonzero;"/><path d="M19.26,30.207l0,-2.88m24.12,-13.266l0,-2.268m8.64,0l0,2.268m-42.48,18.126l0,-2.88" style="fill:none;stroke:#fff;stroke-width:0.86px;"/><path d="M60.242,30.093l0,-2.267m0,-9.638l0,-2.268m12.756,17.858l2.551,0m0,0l0,-21.543m0,0l-2.551,0" style="fill:none;stroke:#fff;stroke-width:0.36px;"/><path d="M26.46,27.925l1.134,2.835m0,0l-2.268,0m0,0l1.134,-2.835" style="fill:none;stroke:#fff;stroke-width:0.43px;"/><path d="M28.798,25.516l0,7.654m0,0l-4.677,0m0,0l0,-7.654m0,0l4.677,0" style="fill:none;stroke:#fff;stroke-width:0.36px;"/><path d="M26.46,18.304l-1.134,-2.835m0,0l2.268,0m0,0l-1.134,2.835" style="fill:none;stroke:#fff;stroke-width:0.43px;"/><path d="M24.121,20.714l0,-7.654m0,0l4.677,0m0,0l0,7.654m0,0l-4.677,0m18.123,-2.322l-1.701,0m0,0l0,1.7m13.606,-1.7l1.701,0m0,0l0,1.7m-15.307,11.906l0,1.701m0,0l1.701,0m13.606,-1.701l0,1.701m0,0l-1.701,0" style="fill:none;stroke:#fff;stroke-width:0.36px;"/><path d="M68.364,38.667l0.9,-0.72l0,1.44l-0.9,-0.72Zm0.828,0.662l0,-1.325l0,1.325Z" style="fill:none;stroke:#fff;stroke-width:0.43px;"/><rect x="68.004" y="37.587" width="0.36" height="2.16" style="fill:#fff;fill-rule:nonzero;"/><path d="M37.898,21.862l-5.669,0m5.669,-6.236l-5.669,0m-0.283,7.37l0.85,0m0,0l0.284,0m0,0l-0.567,-0.567m0,0l-0.567,0.567m0,0l0.283,0m0,0l0.284,-0.283" style="fill:none;stroke:#fff;stroke-width:0.36px;"/><path d="M68.364,7.347l0.9,-0.72l0,1.44l-0.9,-0.72Zm0.828,0.662l0,-1.325l0,1.325Z" style="fill:none;stroke:#fff;stroke-width:0.43px;"/><rect x="68.004" y="6.267" width="0.36" height="2.16" style="fill:#fff;fill-rule:nonzero;"/><path d="M13.309,14.534l0,11.905m-8.648,0l0,-11.905" style="fill:none;stroke:#fff;stroke-width:0.58px;"/><path d="M68.328,43.221l0,-2.268m0.072,-35.892l0,-2.268" style="fill:none;stroke:#fff;stroke-width:0.86px;"/><path d="M10.8,11.909c-0.024,0 -0.048,0.001 -0.071,0.001c-2.8,0 -5.103,-2.304 -5.103,-5.103c0,-2.8 2.303,-5.103 5.103,-5.103c0.023,0 0.047,0 0.071,0c2.772,0.039 5.032,2.33 5.032,5.102c0,2.773 -2.26,5.064 -5.032,5.103Zm0,32.4c-0.024,0 -0.048,0.001 -0.071,0.001c-2.8,0 -5.103,-2.304 -5.103,-5.103c0,-2.8 2.303,-5.103 5.103,-5.103c0.023,0 0.047,0 0.071,0c2.772,0.039 5.032,2.33 5.032,5.103c0,2.772 -2.26,5.063 -5.032,5.102Z" style="fill:none;stroke:#fff;stroke-width:0.58px;stroke-linecap:butt;"/><path d="M23.397,20.774l0,-4.535m-9.354,4.535l0,-4.535m5.811,5.244l-2.268,0" style="fill:none;stroke:#fff;stroke-width:0.58px;"/><path d="M23.71,30.893l-3.515,0l0,-4.252l3.515,0l0,4.252Zm-5.386,-0.001l-3.515,0l0,-4.252l3.515,0l0,4.252Zm28.989,-16.548l-3.047,0l0,-2.835l3.047,0l0,2.835Zm-4.819,0l-3.047,0l0,-2.835l3.047,0l0,2.835Zm5.593,-2.835l3.047,0l0,2.835l-3.047,0l0,-2.835Zm4.819,0l3.047,0l0,2.835l-3.047,0l0,-2.835Zm-38.916,21.364l-3.515,0l0,-4.252l3.515,0l0,4.252Zm-5.386,-0.001l-3.515,0l0,-4.252l3.515,0l0,4.252Zm63.26,-6.322l-5.67,0l0,-2.835l5.67,0l0,2.835Zm0,-4.252l-5.67,0l0,-2.835l5.67,0l0,2.835Zm-12.614,1.276l0,-1.134l3.826,0l0,1.134l-3.826,0Zm0,1.842l0,-1.134l3.826,0l0,1.134l-3.826,0Zm0,-5.527l0,-1.134l3.826,0l0,1.134l-3.826,0Zm0,1.842l0,-1.134l3.826,0l0,1.134l-3.826,0Z" style="fill:#9a916c;fill-rule:nonzero;"/><path d="M60.809,33.855c-0.82,0 -1.494,-0.674 -1.494,-1.494c0,-0.82 0.674,-1.494 1.494,-1.494c0.82,0 1.494,0.674 1.494,1.494c0,0.82 -0.674,1.494 -1.494,1.494Z" style="fill:none;stroke:#9a916c;stroke-width:0.72px;stroke-linecap:butt;"/><path d="M62.302,30.867l0,4.482l-2.987,0l0,-4.482l2.987,0m-1.493,0c-0.82,0 -1.494,0.674 -1.494,1.494c0,0.82 0.674,1.494 1.494,1.494c0.82,0 1.494,-0.674 1.494,-1.494c0,-0.82 -0.674,-1.494 -1.494,-1.494Z" style="fill:#9a916c;fill-rule:nonzero;"/><path d="M60.809,15.146c-0.82,0 -1.494,-0.674 -1.494,-1.494c0,-0.82 0.674,-1.494 1.494,-1.494c0.82,0 1.494,0.674 1.494,1.494c0,0.82 -0.674,1.494 -1.494,1.494Z" style="fill:none;stroke:#9a916c;stroke-width:0.72px;stroke-linecap:butt;"/><path d="M62.302,10.665l0,4.481l-2.987,0l0,-4.481l2.987,0m-1.493,1.494c0,0 0,0 -0.001,0c-0.819,0 -1.493,0.674 -1.493,1.493c0,0.82 0.674,1.494 1.493,1.494c0,0 0,0 0,0c0.82,0 1.494,-0.674 1.494,-1.494c0,-0.819 -0.674,-1.493 -1.493,-1.493Z" style="fill:#9a916c;fill-rule:nonzero;"/><path d="M68.746,35.559c-0.016,0 -0.032,0.001 -0.048,0.001c-1.289,0 -2.348,-1.06 -2.348,-2.348c0,-1.289 1.059,-2.348 2.348,-2.348c0.016,0 0.032,0 0.048,0c1.27,0.026 2.3,1.078 2.3,2.348c0,1.269 -1.03,2.321 -2.3,2.347Z" style="fill:none;stroke:#9a916c;stroke-width:2.14px;stroke-linecap:butt;"/><path d="M71.093,30.864l0,4.695l-4.695,0l0,-4.695l4.695,0Zm-2.347,-15.714c-0.016,0 -0.032,0.001 -0.048,0.001c-1.289,0 -2.348,-1.06 -2.348,-2.348c0,-1.289 1.059,-2.348 2.348,-2.348c0.016,0 0.032,0 0.048,0c1.27,0.026 2.3,1.078 2.3,2.348c0,1.269 -1.03,2.321 -2.3,2.347Z" style="fill:none;stroke:#9a916c;stroke-width:2.14px;stroke-linecap:butt;"/><rect x="66.398" y="10.454" width="4.695" height="4.696" style="fill:none;stroke:#9a916c;stroke-width:2.14px;stroke-linecap:butt;"/><path d="M59.25,27.259l0,-1.134l3.826,0l0,1.134l-3.826,0Zm-31.061,5.436l0,2.579l-3.458,0l0,-2.579l3.458,0Zm0,-9.284l0,2.58l-3.458,0l0,-2.58l3.458,0Zm-3.459,-9.876l0,-2.58l3.458,0l0,2.58l-3.458,0Zm0,9.283l0,-2.579l3.458,0l0,2.579l-3.458,0Zm15.246,-1.379l0,-0.709l2.268,0l0,0.709l-2.268,0Zm0,1.417l0,-0.709l2.268,0l0,0.709l-2.268,0Zm0,1.417l0,-0.708l2.268,0l0,0.708l-2.268,0Zm0,1.418l0,-0.709l2.268,0l0,0.709l-2.268,0Zm0,1.417l0,-0.709l2.268,0l0,0.709l-2.268,0Zm0,1.418l0,-0.709l2.268,0l0,0.709l-2.268,0Zm0,1.417l0,-0.709l2.268,0l0,0.709l-2.268,0Zm0,1.417l0,-0.709l2.268,0l0,0.709l-2.268,0Zm3.614,2.906l-0.708,0l0,-2.268l0.708,0l0,2.268Zm1.418,0l-0.709,0l0,-2.268l0.709,0l0,2.268Zm1.417,0l-0.709,0l0,-2.268l0.709,0l0,2.268Zm1.417,0l-0.708,0l0,-2.268l0.708,0l0,2.268Zm1.418,0l-0.709,0l0,-2.268l0.709,0l0,2.268Zm1.417,0l-0.709,0l0,-2.268l0.709,0l0,2.268Zm1.417,0l-0.708,0l0,-2.268l0.708,0l0,2.268Zm1.417,0l-0.708,0l0,-2.268l0.708,0l0,2.268Zm2.906,-3.615l0,0.709l-2.268,0l0,-0.709l2.268,0Zm0,-1.417l0,0.709l-2.268,0l0,-0.709l2.268,0Zm0,-1.417l0,0.708l-2.268,0l0,-0.708l2.268,0Zm0,-1.418l0,0.709l-2.268,0l0,-0.709l2.268,0Zm0,-1.417l0,0.709l-2.268,0l0,-0.709l2.268,0Zm0,-1.417l0,0.709l-2.268,0l0,-0.709l2.268,0Zm0,-1.417l0,0.708l-2.268,0l0,-0.708l2.268,0Zm0,-1.418l0,0.709l-2.268,0l0,-0.709l2.268,0Zm-3.614,-2.905l0.708,0l0,2.267l-0.708,0l0,-2.267Zm-1.417,0l0.708,0l0,2.267l-0.708,0l0,-2.267Zm-1.418,0l0.709,0l0,2.267l-0.709,0l0,-2.267Zm-1.417,0l0.709,0l0,2.267l-0.709,0l0,-2.267Zm-1.417,0l0.708,0l0,2.267l-0.708,0l0,-2.267Zm-1.418,0l0.709,0l0,2.267l-0.709,0l0,-2.267Zm-1.417,0l0.709,0l0,2.267l-0.709,0l0,-2.267Zm-1.417,0l0.708,0l0,2.267l-0.708,0l0,-2.267Z" style="fill:#9a916c;fill-rule:nonzero;"/><path d="M43.236,21.581c0,-0.274 0.222,-0.496 0.496,-0.496l8.929,0c0.274,0 0.496,0.222 0.496,0.496l0,8.929c0,0.272 -0.224,0.496 -0.496,0.496l-8.929,0c-0.272,0 -0.496,-0.224 -0.496,-0.496l0,-8.929Z" style="fill:#9a916c;"/><path d="M50.4,7.155c0,0 0,0 -0.001,0c-1.139,0 -2.076,-0.937 -2.076,-2.076c0,-1.139 0.937,-2.077 2.076,-2.077c0,0 0,0 0,0c1.14,0 2.077,0.937 2.077,2.077c0,1.138 -0.937,2.076 -2.076,2.076Zm-7.2,0c0,0 0,0 -0.001,0c-1.139,0 -2.076,-0.937 -2.076,-2.076c0,-1.139 0.937,-2.077 2.076,-2.077c0,0 0,0 0,0c1.14,0 2.077,0.937 2.077,2.077c0,1.138 -0.937,2.076 -2.076,2.076Zm-7.2,0c0,0 0,0 -0.001,0c-1.139,0 -2.076,-0.937 -2.076,-2.076c0,-1.139 0.937,-2.077 2.076,-2.077c0,0 0,0 0,0c1.14,0 2.077,0.937 2.077,2.077c0,1.138 -0.937,2.076 -2.076,2.076Zm-7.2,0c0,0 0,0 -0.001,0c-1.139,0 -2.076,-0.937 -2.076,-2.076c0,-1.139 0.937,-2.077 2.076,-2.077c0,0 0,0 0,0c1.14,0 2.077,0.937 2.077,2.077c0,1.138 -0.937,2.076 -2.076,2.076Zm-7.2,0c0,0 0,0 -0.001,0c-1.139,0 -2.076,-0.937 -2.076,-2.076c0,-1.139 0.937,-2.077 2.076,-2.077c0,0 0,0 0,0c1.14,0 2.077,0.937 2.077,2.077c0,1.138 -0.937,2.076 -2.076,2.076Zm0,35.928c0,0 0,0 -0.001,0c-1.139,0 -2.076,-0.937 -2.076,-2.076c0,-1.139 0.937,-2.077 2.076,-2.077c0,0 0,0 0,0c1.14,0 2.077,0.937 2.077,2.077c0,1.138 -0.937,2.076 -2.076,2.076Zm7.2,0c0,0 0,0 -0.001,0c-1.139,0 -2.076,-0.937 -2.076,-2.076c0,-1.139 0.937,-2.077 2.076,-2.077c0,0 0,0 0,0c1.14,0 2.077,0.937 2.077,2.077c0,1.138 -0.937,2.076 -2.076,2.076Zm7.2,0c0,0 0,0 -0.001,0c-1.139,0 -2.076,-0.937 -2.076,-2.076c0,-1.139 0.937,-2.077 2.076,-2.077c0,0 0,0 0,0c1.14,0 2.077,0.937 2.077,2.077c0,1.138 -0.937,2.076 -2.076,2.076Zm7.2,0c0,0 0,0 -0.001,0c-1.139,0 -2.076,-0.937 -2.076,-2.076c0,-1.139 0.937,-2.077 2.076,-2.077c0,0 0,0 0,0c1.14,0 2.077,0.937 2.077,2.077c0,1.138 -0.937,2.076 -2.076,2.076Zm7.2,0c0,0 0,0 -0.001,0c-1.139,0 -2.076,-0.937 -2.076,-2.076c0,-1.139 0.937,-2.077 2.076,-2.077c0,0 0,0 0,0c1.14,0 2.077,0.937 2.077,2.077c0,1.138 -0.937,2.076 -2.076,2.076Z" style="fill:none;stroke:#9a916c;stroke-width:1.32px;stroke-linecap:butt;"/><path d="M69.752,39.801l0,-2.268l2.268,0l0,2.268l-2.268,0Zm-4.252,0l0,-2.268l2.268,0l0,2.268l-2.268,0Zm-32.137,-18.435l-1.984,0l0,-0.992l1.984,0l0,0.992Zm0,-2.126l-1.984,0l0,-0.992l1.984,0l0,0.992Zm0,-2.126l-1.984,0l0,-0.992l1.984,0l0,0.992Zm5.386,0l-1.984,0l0,-0.992l1.984,0l0,0.992Zm0,2.126l-1.984,0l0,-0.992l1.984,0l0,0.992Zm0,2.126l-1.984,0l0,-0.992l1.984,0l0,0.992Zm31.003,-12.885l0,-2.268l2.268,0l0,2.268l-2.268,0Zm-4.252,0l0,-2.268l2.268,0l0,2.268l-2.268,0Zm-52.971,16.541l0,2.551l-2.552,0l0,-2.551l2.552,0Zm0,-11.622l0,2.551l-2.552,0l0,-2.551l2.552,0Zm-4.536,11.622l0,2.551l-2.551,0l0,-2.551l2.551,0Zm0,-11.622l0,2.551l-2.551,0l0,-2.551l2.551,0Zm64.268,30.104l-3.047,0l0,-2.835l3.047,0l0,2.835Zm-4.819,0l-3.047,0l0,-2.835l3.047,0l0,2.835Zm4.891,-38.16l-3.047,0l0,-2.835l3.047,0l0,2.835Zm-4.819,0l-3.047,0l0,-2.835l3.047,0l0,2.835Z" style="fill:#9a916c;fill-rule:nonzero;"/><path d="M8.654,18.169c0.775,0 1.403,0.629 1.403,1.404l0,0.028c0,0.775 -0.628,1.403 -1.403,1.403l-0.028,0c-0.77,0 -1.403,-0.633 -1.404,-1.403l0,-0.028c0,-0.775 0.629,-1.404 1.404,-1.404l0.028,0Z" style="fill:#9a916c;"/><path d="M10.8,10.645c-2.105,0 -3.838,-1.733 -3.838,-3.838c0,-2.105 1.733,-3.838 3.838,-3.838c2.105,0 3.838,1.733 3.838,3.838c0,2.105 -1.733,3.838 -3.838,3.838Zm0,32.4c-2.105,0 -3.838,-1.733 -3.838,-3.838c0,-2.105 1.733,-3.838 3.838,-3.838c2.105,0 3.838,1.733 3.838,3.838c0,2.105 -1.733,3.838 -3.838,3.838Z" style="fill:none;stroke:#9a916c;stroke-width:1.44px;stroke-linecap:butt;"/><path d="M22.192,16.522l-1.559,0l0,-3.401l1.559,0l0,3.401Zm-2.693,0l-1.559,0l0,-3.401l1.559,0l0,3.401Zm-2.693,0l-1.559,0l0,-3.401l1.559,0l0,3.401Zm0,7.371l-1.559,0l0,-3.402l1.559,0l0,3.402Zm5.386,0l-1.559,0l0,-3.402l1.559,0l0,3.402Z" style="fill:#9a916c;fill-rule:nonzero;"/><path d="M16.708,26.995l5.103,0c0.156,0 0.283,0.127 0.283,0.283l0,2.977c0,0.155 -0.128,0.283 -0.283,0.283l-5.102,0c-0.155,0 -0.283,-0.128 -0.283,-0.283l0,-2.977c0,0 0,-0.001 0,-0.001c0,-0.155 0.127,-0.282 0.282,-0.282c0,0 0,0 0,0Z" style="fill:#dcdcdc;fill-rule:nonzero;"/><rect x="17.488" y="26.995" width="3.543" height="3.543" style="fill:#6e554b;fill-rule:nonzero;"/><path d="M41.402,11.793l3.955,0c0.16,0 0.29,0.13 0.29,0.291l0,1.687c0,0.16 -0.13,0.29 -0.29,0.29l-3.955,0c-0.159,0 -0.29,-0.131 -0.29,-0.29l0,-1.687c0,0 0,-0.001 0,-0.001c0,-0.159 0.131,-0.29 0.29,-0.29c0,0 0,0 0,0Z" style="fill:#dcdcdc;fill-rule:nonzero;"/><rect x="42.245" y="11.793" width="2.268" height="2.268" style="fill:#6e554b;fill-rule:nonzero;"/><path d="M53.997,14.061l-3.955,0c0,0 0,0 0,0c-0.159,0 -0.29,-0.131 -0.29,-0.29c0,0 0,-0.001 0,-0.001l0,-1.687c0,-0.16 0.13,-0.29 0.29,-0.29l3.955,0c0.16,0 0.29,0.13 0.29,0.29l0,1.687c0,0 0,0.001 0,0.001c0,0.159 -0.131,0.29 -0.29,0.29c0,0 0,0 0,0Z" style="fill:#dcdcdc;fill-rule:nonzero;"/><rect x="50.886" y="11.793" width="2.268" height="2.268" style="fill:#6e554b;fill-rule:nonzero;"/><path d="M6.988,28.975l5.103,0c0.156,0 0.283,0.127 0.283,0.283l0,2.977c0,0.155 -0.128,0.283 -0.283,0.283l-5.102,0c-0.155,0 -0.283,-0.128 -0.283,-0.283l0,-2.977c0,0 0,-0.001 0,-0.001c0,-0.155 0.127,-0.282 0.282,-0.282c0,0 0,0 0,0Z" style="fill:#dcdcdc;fill-rule:nonzero;"/><rect x="7.768" y="28.975" width="3.543" height="3.543" style="fill:#6e554b;fill-rule:nonzero;"/><rect x="66.491" y="11.668" width="3.969" height="22.677" style="fill:#b4b4b4;fill-rule:nonzero;"/><path d="M59.334,23.29l0,-0.567l3.402,0l0,0.567l-3.402,0Zm0,-1.843l0,-0.567l3.402,0l0,0.567l-3.402,0Zm0,-1.842l0,-0.567l3.402,0l0,0.567l-3.402,0Zm0,5.527l0,-0.567l3.402,0l0,0.567l-3.402,0Zm0,1.843l0,-0.567l3.402,0l0,0.567l-3.402,0Z" style="fill:#dcdcdc;fill-rule:nonzero;"/><rect x="60.823" y="15.92" width="0.709" height="14.173" style="fill:#b4b4b4;fill-rule:nonzero;"/><rect x="61.105" y="15.92" width="2.976" height="14.173" style="fill-rule:nonzero;"/><path d="M67.201,30.235l0,-1.417l4.252,-0.284l0,1.984l-4.252,-0.283Zm0,-13.039l0,-1.418l4.252,-0.283l0,1.984l-4.252,-0.283Z" style="fill-rule:nonzero;"/><path d="M74.287,33.211l0,-20.409l1.701,0.567l-0.001,19.275l-1.7,0.567Z" style="fill:#f0f0f0;fill-rule:nonzero;"/><path d="M74.287,33.778l0,-0.567l1.7,0.567l0,0.567l-1.7,-0.567Zm0,-20.976l0,-0.567l1.701,-0.567l0,0.567l-1.701,0.567Z" style="fill:#b4b4b4;fill-rule:nonzero;"/><rect x="25.255" y="24.24" width="2.409" height="10.205" style="fill:#dcdcdc;fill-rule:nonzero;"/><rect x="24.121" y="25.516" width="4.677" height="7.654" style="fill:#303030;fill-rule:nonzero;"/><rect x="24.124" y="26.296" width="4.667" height="1.352" style="fill:#4d4d4d;fill-rule:nonzero;"/><rect x="25.255" y="11.784" width="2.409" height="10.205" style="fill:#dcdcdc;fill-rule:nonzero;"/><rect x="24.121" y="13.059" width="4.677" height="7.654" style="fill:#303030;fill-rule:nonzero;"/><rect x="24.128" y="18.582" width="4.667" height="1.352" style="fill:#4d4d4d;fill-rule:nonzero;"/><path d="M41.11,19.596c0,-0.352 0.286,-0.637 0.638,-0.637l12.897,0c0.353,0 0.638,0.285 0.638,0.637l0,12.898c0,0.35 -0.288,0.638 -0.638,0.638l-12.897,0c-0.35,0 -0.638,-0.288 -0.638,-0.638l0,-12.898Z" style="fill:#333;"/><path d="M43.368,20.61c0,0.369 -0.303,0.672 -0.672,0.672c-0.369,0 -0.672,-0.303 -0.672,-0.672c0,-0.369 0.303,-0.672 0.672,-0.672c0.369,0 0.672,0.303 0.672,0.672Z" style="fill:#666;"/><path d="M66.782,37.533l3.955,0c0.16,0 0.29,0.13 0.29,0.29l0,1.688c0,0.16 -0.13,0.29 -0.29,0.29l-3.955,0c-0.159,0 -0.29,-0.131 -0.29,-0.29l0,-1.687c0,0 0,-0.001 0,-0.001c0,-0.159 0.131,-0.29 0.29,-0.29c0,0 0,0 0,0Z" style="fill:#dcdcdc;fill-rule:nonzero;"/><rect x="32.229" y="15.782" width="5.669" height="5.669" style="fill:#9c8f6d;fill-rule:nonzero;"/><rect x="32.654" y="16.619" width="4.754" height="4.147" style="fill-rule:nonzero;"/><path d="M66.782,6.213l3.955,0c0.16,0 0.29,0.13 0.29,0.29l0,1.688c0,0.16 -0.13,0.29 -0.29,0.29l-3.955,0c-0.159,0 -0.29,-0.131 -0.29,-0.29l0,-1.687c0,0 0,-0.001 0,-0.001c0,-0.159 0.131,-0.29 0.29,-0.29c0,0 0,0 0,0Z" style="fill:#dcdcdc;fill-rule:nonzero;"/><rect x="67.626" y="6.213" width="2.268" height="2.268" style="fill:#0f0;fill-rule:nonzero;"/><path d="M68.76,6.993c0,0 0,0 0.001,0c0.193,0 0.353,0.16 0.353,0.353c0,0.194 -0.159,0.354 -0.353,0.354c0,0 0,0 0,0c-0.194,0 -0.354,-0.16 -0.354,-0.354c0,-0.193 0.159,-0.353 0.353,-0.353Z" style="fill:#00b400;"/><path d="M11.962,25.448l1.275,0l0,-9.922l-1.275,0l0,-1.417l-1.417,0l0,1.417l-3.119,0l0,-1.417l-1.417,0l0,1.417l-1.276,0l0,9.922l1.276,0l0,1.417l1.417,0l0,-1.417l3.119,0l0,1.417l1.417,0l0,-1.417Z" style="fill:#dcdcdc;fill-rule:nonzero;"/><path d="M8.985,22.967c-1.361,-0.001 -2.48,-1.12 -2.48,-2.481c0,-1.361 1.12,-2.481 2.481,-2.481c0,0 0.001,0 0.001,0c1.361,0.001 2.48,1.12 2.48,2.481c0,1.361 -1.12,2.481 -2.481,2.481c0,0 -0.001,0 -0.001,0Z" style="fill:#1e1e1e;"/><path d="M13.237,15.101l0,0.567l-8.504,0l0,-0.567l8.504,0Zm0,10.205l0,0.567l-8.504,0l0,-0.567l8.504,0Z" style="fill:#b4b4b4;fill-rule:nonzero;"/><path d="M66.35,40.953l3.955,0c0.16,0 0.29,0.13 0.29,0.291l0,1.687c0,0.16 -0.13,0.29 -0.29,0.29l-3.955,0c-0.159,0 -0.29,-0.131 -0.29,-0.29l0,-1.687c0,0 0,-0.001 0,-0.001c0,-0.159 0.131,-0.29 0.29,-0.29c0,0 0,0 0,0Z" style="fill:#dcdcdc;fill-rule:nonzero;"/><rect x="67.193" y="40.953" width="2.268" height="2.268" style="fill:#333;fill-rule:nonzero;"/><path d="M66.422,2.793l3.955,0c0.16,0 0.29,0.13 0.29,0.291l0,1.687c0,0.16 -0.13,0.29 -0.29,0.29l-3.955,0c-0.159,0 -0.29,-0.131 -0.29,-0.29l0,-1.687c0,0 0,-0.001 0,-0.001c0,-0.159 0.131,-0.29 0.29,-0.29c0,0 0,0 0,0Z" style="fill:#dcdcdc;fill-rule:nonzero;"/><rect x="67.265" y="2.793" width="2.268" height="2.268" style="fill:#333;fill-rule:nonzero;"/><path d="M21.98,22.334l-1.134,0l0,-7.654l1.134,0l0,7.654Zm-5.386,0l-1.134,0l0,-7.654l1.134,0l0,7.654Zm2.693,-4.535l-1.134,0l0,-3.118l1.134,0l0,3.118Z" style="fill:#dcdcdc;fill-rule:nonzero;"/><rect x="14.61" y="16.24" width="8.22" height="4.535" style="fill:#303030;fill-rule:nonzero;"/></svg>