<?xml version="1.0" encoding="UTF-8" standalone="no"?>
<svg
   xmlns:dc="http://purl.org/dc/elements/1.1/"
   xmlns:cc="http://creativecommons.org/ns#"
   xmlns:rdf="http://www.w3.org/1999/02/22-rdf-syntax-ns#"
   xmlns:svg="http://www.w3.org/2000/svg"
   xmlns="http://www.w3.org/2000/svg"
   xmlns:sodipodi="http://sodipodi.sourceforge.net/DTD/sodipodi-0.dtd"
   xmlns:inkscape="http://www.inkscape.org/namespaces/inkscape"
   viewBox="0 0 190.78999 163.03885"
   stroke-miterlimit="1.414"
   version="1.1"
   id="svg5232"
   sodipodi:docname="boardhd.svg"
   inkscape:version="0.92.1 r15371"
   width="190.78999"
   height="163.03885"
   style="clip-rule:evenodd;fill-rule:evenodd;stroke-linejoin:round;stroke-miterlimit:1.41400003">
  <metadata
     id="metadata5238">
    <rdf:RDF>
      <cc:Work
         rdf:about="">
        <dc:format>image/svg+xml</dc:format>
        <dc:type
           rdf:resource="http://purl.org/dc/dcmitype/StillImage" />
        <dc:title></dc:title>
      </cc:Work>
    </rdf:RDF>
  </metadata>
  <defs
     id="defs5236" />
  <sodipodi:namedview
     pagecolor="#ffffff"
     bordercolor="#666666"
     borderopacity="1"
     objecttolerance="10"
     gridtolerance="10"
     guidetolerance="10"
     inkscape:pageopacity="0"
     inkscape:pageshadow="2"
     inkscape:window-width="955"
     inkscape:window-height="828"
     id="namedview5234"
     showgrid="false"
     inkscape:zoom="3.0829161"
     inkscape:cx="82.975066"
     inkscape:cy="5.0794531"
     inkscape:window-x="-7"
     inkscape:window-y="0"
     inkscape:window-maximized="0"
     inkscape:current-layer="svg5232"
     fit-margin-top="0"
     fit-margin-left="0"
     fit-margin-right="0"
     fit-margin-bottom="0" />
  <path
     d="M 182.56869,5.9843076e-5 A 8.1900944,8.1900944 0 0 1 190.79,8.1519898 V 154.88685 a 8.1900944,8.1900944 0 0 1 -8.22131,8.15193 H 8.2213145 A 8.1900944,8.1900944 0 0 1 0,154.88685 V 8.1519898 A 8.1900944,8.1900944 0 0 1 8.2213145,5.9843076e-5 Z M 140.86546,146.80776 c 2.30682,0 4.18004,1.9183 4.18004,4.28063 0,2.36233 -1.87322,4.28064 -4.18004,4.28064 -2.31029,0 -4.1835,-1.91831 -4.1835,-4.28064 0,-2.36233 1.87321,-4.28063 4.1835,-4.28063 z m -23.52961,0 c 2.31029,0 4.1835,1.9183 4.1835,4.28063 0,2.36233 -1.87321,4.28064 -4.1835,4.28064 -2.30682,0 -4.18004,-1.91831 -4.18004,-4.28064 0,-2.36233 1.87322,-4.28063 4.18004,-4.28063 z m -23.526141,0 c 2.306824,0 4.183504,1.9183 4.183504,4.28063 0,2.36233 -1.87668,4.28064 -4.183504,4.28064 -2.310294,0 -4.183505,-1.91831 -4.183505,-4.28064 0,-2.36233 1.873211,-4.28063 4.183505,-4.28063 z m -23.529611,0 c 2.310294,0 4.183505,1.9183 4.183505,4.28063 0,2.36233 -1.873211,4.28064 -4.183505,4.28064 -2.306824,0 -4.180035,-1.91831 -4.180035,-4.28064 0,-2.36233 1.873211,-4.28063 4.180035,-4.28063 z m -23.526141,0 c 2.306824,0 4.183504,1.9183 4.183504,4.28063 0,2.36233 -1.87668,4.28064 -4.183504,4.28064 -2.306825,0 -4.183505,-1.91831 -4.183505,-4.28064 0,-2.36233 1.87668,-4.28063 4.183505,-4.28063 z M 164.3916,146.53718 c 2.3103,0 4.18351,1.91831 4.18351,4.28411 0,2.36232 -1.87321,4.28063 -4.18351,4.28063 -2.30682,0 -4.18003,-1.91831 -4.18003,-4.28063 0,-2.3658 1.87321,-4.28411 4.18003,-4.28411 z M 141.27132,7.2327298 c 2.30683,0 4.18004,1.91831 4.18004,4.2806402 0,2.36232 -1.87321,4.28063 -4.18004,4.28063 -2.31029,0 -4.1835,-1.91831 -4.1835,-4.28063 0,-2.3623302 1.87321,-4.2806402 4.1835,-4.2806402 z m -23.52961,0 c 2.3103,0 4.18351,1.91831 4.18351,4.2806402 0,2.36232 -1.87321,4.28063 -4.18351,4.28063 -2.30682,0 -4.18003,-1.91831 -4.18003,-4.28063 0,-2.3623302 1.87321,-4.2806402 4.18003,-4.2806402 z m -23.526139,0 c 2.306824,0 4.180035,1.91831 4.180035,4.2806402 0,2.36232 -1.873211,4.28063 -4.180035,4.28063 -2.310294,0 -4.183504,-1.91831 -4.183504,-4.28063 0,-2.3623302 1.87321,-4.2806402 4.183504,-4.2806402 z m -23.52961,0 c 2.310293,0 4.183504,1.91831 4.183504,4.2806402 0,2.36232 -1.873211,4.28063 -4.183504,4.28063 -2.306825,0 -4.180036,-1.91831 -4.180036,-4.28063 0,-2.3623302 1.873211,-4.2806402 4.180036,-4.2806402 z m -23.526142,0 c 2.306825,0 4.183504,1.91831 4.183504,4.2806402 0,2.36232 -1.876679,4.28063 -4.183504,4.28063 -2.306824,0 -4.183504,-1.91831 -4.183504,-4.28063 0,-2.3623302 1.87668,-4.2806402 4.183504,-4.2806402 z m 117.637641,-0.27057 c 2.3103,0 4.18351,1.91831 4.18351,4.2806302 0,2.3658 -1.87321,4.28411 -4.18351,4.28411 -2.30682,0 -4.18003,-1.91831 -4.18003,-4.28411 0,-2.3623202 1.87321,-4.2806302 4.18003,-4.2806302 z"
     id="path5198"
     inkscape:connector-curvature="0"
     style="fill:#e52824;stroke-width:3.46890903" />
  <path
     d="M 0,35.153982 H 166.82331 V 127.88833 H 0 Z"
     id="path5200"
     inkscape:connector-curvature="0"
     style="fill:#c11a12;stroke-width:3.46890903" />
  <path
     d="M 23.519204,43.264291 H 158.66096 V 120.38855 H 23.519204 Z M 4.8044391,53.553076 H 19.297541 V 119.54213 H 4.8044391 Z"
     id="path5202"
     inkscape:connector-curvature="0"
     style="fill:#fdfdfd;stroke-width:3.46890903" />
  <path
     d="M 4.8044391,58.520553 H 19.297541 V 74.477535 H 4.8044391 Z"
     id="path5204"
     inkscape:connector-curvature="0"
     style="fill:#ffcfae;stroke-width:3.46890903" />
  <g
     id="g5208"
     style="fill:#fdfdfd"
     transform="matrix(3.4689091,0,0,3.4689091,0,5.9843076e-5)">
    <path
       d="m 40.721,9.348 h 1.239 v 1.381 h -1.239 z m -1.825,0 h 1.239 v 1.381 h -1.239 z m -1.826,0 h 1.239 v 1.381 H 37.07 Z m -1.826,0 h 1.239 v 1.381 h -1.239 z m -1.825,0 h 1.239 v 1.381 h -1.239 z m -1.826,0 h 1.239 v 1.381 h -1.239 z m -1.825,0 h 1.239 v 1.381 h -1.239 z m -1.826,0 h 1.239 v 1.381 h -1.239 z m -1.826,0 h 1.239 v 1.381 h -1.239 z m -1.825,0 h 1.239 v 1.381 h -1.239 z m -1.826,0 h 1.239 v 1.381 h -1.239 z m -1.825,0 h 1.239 v 1.381 H 20.64 Z m -1.826,0 h 1.239 v 1.381 h -1.239 z m -1.825,0 h 1.239 v 1.381 h -1.239 z m -1.826,0 h 1.239 v 1.381 h -1.239 z m -1.826,0 h 1.239 v 1.381 h -1.239 z m -1.825,0 h 1.239 v 1.381 h -1.239 z m 32.86,0 h 1.239 v 1.381 h -1.239 z m -1.825,0 h 1.239 v 1.381 h -1.239 z"
       id="path5206"
       inkscape:connector-curvature="0" />
  </g>
  <g
     id="g5212"
     style="fill:#fdfdfd"
     transform="matrix(3.4689091,0,0,3.4689091,0,5.9843076e-5)">
    <path
       d="m 40.721,36.105 h 1.239 v 1.381 h -1.239 z m -1.825,0 h 1.239 v 1.381 h -1.239 z m -1.826,0 h 1.239 v 1.381 H 37.07 Z m -1.826,0 h 1.239 v 1.381 h -1.239 z m -1.825,0 h 1.239 v 1.381 h -1.239 z m -1.826,0 h 1.239 v 1.381 h -1.239 z m -1.825,0 h 1.239 v 1.381 h -1.239 z m -1.826,0 h 1.239 v 1.381 h -1.239 z m -1.826,0 h 1.239 v 1.381 h -1.239 z m -1.825,0 h 1.239 v 1.381 h -1.239 z m -1.826,0 h 1.239 v 1.381 h -1.239 z m -1.825,0 h 1.239 v 1.381 H 20.64 Z m -1.826,0 h 1.239 v 1.381 h -1.239 z m -1.825,0 h 1.239 v 1.381 h -1.239 z m -1.826,0 h 1.239 v 1.381 h -1.239 z m -1.826,0 h 1.239 v 1.381 h -1.239 z m -1.825,0 h 1.239 v 1.381 h -1.239 z m 32.86,0 h 1.239 v 1.381 h -1.239 z m -1.825,0 h 1.239 v 1.381 h -1.239 z"
       id="path5210"
       inkscape:connector-curvature="0" />
  </g>
  <g
     id="g5216"
     style="fill:#fdfdfd"
     transform="matrix(3.4689091,0,0,3.4689091,0,5.9843076e-5)">
    <path
       d="m 47.304,15.586 v 1.239 h 1.382 v -1.239 z m 0,1.825 v 1.239 h 1.382 v -1.239 z m 0,1.826 v 1.239 h 1.382 v -1.239 z m 0,1.826 v 1.239 h 1.382 v -1.239 z m 0,1.825 v 1.239 h 1.382 v -1.239 z m 0,1.826 v 1.239 h 1.382 v -1.239 z m 0,1.825 v 1.239 h 1.382 v -1.239 z m 0,1.826 v 1.239 h 1.382 v -1.239 z m 0,1.825 v 1.239 h 1.382 V 30.19 Z m 0,1.826 v 1.239 h 1.382 v -1.239 z m 0,1.826 v 1.239 h 1.382 v -1.239 z m 0,-21.907 v 1.239 h 1.382 v -1.239 z m 0,1.825 v 1.239 h 1.382 V 13.76 Z"
       id="path5214"
       inkscape:connector-curvature="0" />
  </g>
  <path
     d="m 175.69678,21.965191 h 5.37334 v 13.35183 h -5.37334 z"
     id="path5218"
     inkscape:connector-curvature="0"
     style="fill:#c11a12;stroke-width:3.46890903" />
  <path
     d="m 180.70588,24.587686 v 8.103371 a 0.59318345,0.59318345 0 0 1 -0.59318,0.596653 h -3.4585 a 0.59665236,0.59665236 0 0 1 -0.59319,-0.596653 v -8.103371 c 0,-0.326078 0.26711,-0.593184 0.59319,-0.593184 h 3.4585 c 0.32608,0 0.59318,0.267106 0.59318,0.593184 z"
     id="LED"
     inkscape:label="#path5220"
     inkscape:connector-curvature="0"
     style="fill:#dcdcdc;fill-rule:nonzero;stroke-width:3.46890903" />
  <path
     style="fill:#d0d0d0;stroke-width:3.46890903"
     d="m 70.505577,3.7464798 a 7.4997815,7.4997815 0 1 1 -0.0035,14.9960942 7.4997815,7.4997815 0 0 1 0.0035,-14.9960942 z"
     id="D2_A2_SDA_SS"
     inkscape:label="#path5806"
     inkscape:connector-curvature="0" />
  <path
     style="fill:#d0d0d0;stroke-width:3.46890903"
     d="m 162.79243,3.7464798 a 7.4997815,7.4997815 0 1 1 -0.003,14.9960942 7.4997815,7.4997815 0 0 1 0.003,-14.9960942 z"
     id="GND2"
     inkscape:label="#path5802"
     inkscape:connector-curvature="0" />
  <path
     style="fill:#d0d0d0;stroke-width:3.46890903"
     d="m 139.72072,3.7464798 a 7.4997815,7.4997815 0 1 1 -0.003,14.9960942 7.4997815,7.4997815 0 0 1 0.003,-14.9960942 z"
     id="D3_A3_SCL_SCK"
     inkscape:label="#path5798"
     inkscape:connector-curvature="0" />
  <path
     style="fill:#d0d0d0;stroke-width:3.46890903"
     d="m 116.64901,3.7464798 a 7.4997815,7.4997815 0 1 1 -0.003,14.9960942 7.4997815,7.4997815 0 0 1 0.003,-14.9960942 z"
     id="D0_A0_RX_MISO"
     inkscape:label="#path5794"
     inkscape:connector-curvature="0" />
  <path
     style="fill:#d0d0d0;stroke-width:3.46890903"
     d="m 93.577292,3.7464798 a 7.4997815,7.4997815 0 1 1 -0.0035,14.9960942 7.4997815,7.4997815 0 0 1 0.0035,-14.9960942 z"
     id="D1_A1_MOSI_TX"
     inkscape:label="JACK_TX"
     inkscape:connector-curvature="0" />
  <path
     style="fill:#d0d0d0;stroke-width:3.46890903"
     d="m 47.433863,3.7464798 a 7.4997815,7.4997815 0 1 1 -0.0035,14.9960942 7.4997815,7.4997815 0 0 1 0.0035,-14.9960942 z"
     id="VDD"
     inkscape:label="#path5786"
     inkscape:connector-curvature="0" />
  <path
     style="fill:#d0d0d0;stroke-width:3.46890903"
     d="m 70.505577,143.62677 a 7.5015178,7.5015178 0 1 1 -0.01041,15.00303 7.5015178,7.5015178 0 0 1 0.01041,-15.00303 z"
     id="SWDIO"
     inkscape:label="#path5831"
     inkscape:connector-curvature="0" />
  <path
     style="fill:#d0d0d0;stroke-width:3.46890903"
     d="m 162.79243,143.62677 a 7.5015178,7.5015178 0 1 1 -0.0104,15.00303 7.5015178,7.5015178 0 0 1 0.0104,-15.00303 z"
     id="VIN"
     inkscape:label="#path5827"
     inkscape:connector-curvature="0" />
  <path
     style="fill:#d0d0d0;stroke-width:3.46890903"
     d="m 139.72072,143.62677 a 7.5015178,7.5015178 0 1 1 -0.0104,15.00303 7.5015178,7.5015178 0 0 1 0.0104,-15.00303 z"
     id="GND"
     inkscape:label="#path5823"
     inkscape:connector-curvature="0" />
  <path
     style="fill:#d0d0d0;stroke-width:3.46890903"
     d="m 116.64901,143.62677 a 7.5015178,7.5015178 0 1 1 -0.0104,15.00303 7.5015178,7.5015178 0 0 1 0.0104,-15.00303 z"
     id="A5_D5"
     inkscape:label="#path5819"
     inkscape:connector-curvature="0" />
  <path
     style="fill:#d0d0d0;stroke-width:3.46890903"
     d="m 93.577292,143.62677 a 7.5015178,7.5015178 0 1 1 -0.01041,15.00303 7.5015178,7.5015178 0 0 1 0.01041,-15.00303 z"
     id="A4_D4"
     inkscape:label="#path5815"
     inkscape:connector-curvature="0" />
  <path
     style="fill:#d0d0d0;stroke-width:3.46890903"
     d="m 47.433863,143.62677 a 7.5015178,7.5015178 0 1 1 -0.01041,15.00303 7.5015178,7.5015178 0 0 1 0.01041,-15.00303 z"
     id="SWCLK"
     inkscape:label="#path5811"
     inkscape:connector-curvature="0" />
  <path
     d="M 9.0087569,10.60104 A 4.6067113,4.6067113 0 0 1 6.2683187,6.3724398 c 0,-2.53924 2.0258429,-4.59977 4.5199883,-4.59977 2.133379,0 3.923336,1.50898 4.395108,3.53482 a 15.082817,15.082817 0 0 1 6.188534,-1.31819 c 7.975022,0 14.451475,6.1434402 14.451475,13.7091322 0,7.565691 -6.476453,13.709129 -14.451475,13.709129 a 15.065472,15.065472 0 0 1 -6.160783,-1.30431 4.5234575,4.5234575 0 0 1 -4.180035,2.851444 4.5581465,4.5581465 0 0 1 -4.5165197,-4.599774 c 0,-1.692828 0.8984474,-3.174052 2.2374463,-3.971901 A 13.112476,13.112476 0 0 1 9.0087569,10.60104 Z m 13.9519521,1.68589 c 0.09366,-0.007 0.187321,-0.0104 0.284451,-0.0104 2.358858,0 4.273696,2.18888 4.273696,4.884221 0,2.695343 -1.914838,4.884224 -4.273696,4.884224 -0.09713,0 -0.19079,-0.0035 -0.284451,-0.01041 z"
     id="path5230"
     inkscape:connector-curvature="0"
     style="fill:#feffff;stroke-width:3.46890903" />
</svg>
