<svg viewBox="0 0 250 250" xmlns="http://www.w3.org/2000/svg" xmlns:serif="http://www.serif.com/" fill-rule="evenodd" clip-rule="evenodd" stroke-linecap="round"><path d="M246.715 124.307a7.861 7.861 0 0 1-7.88 7.848c-4.342-.005-7.855-3.534-7.848-7.878v-.024a7.863 7.863 0 0 1 7.877-7.852 7.863 7.863 0 0 1 7.851 7.876v.03zm-6.704 38.932a7.868 7.868 0 0 1-7.878 7.853 7.863 7.863 0 0 1-7.852-7.878v-.027a7.865 7.865 0 0 1 15.73.027v.025zm-19.786-112.33a7.863 7.863 0 0 1-7.878 7.852 7.866 7.866 0 0 1-7.854-7.878v-.027a7.866 7.866 0 0 1 15.732.027v.026zm0 146.791a7.865 7.865 0 0 1-7.878 7.854 7.868 7.868 0 0 1-7.854-7.878v-.028a7.865 7.865 0 0 1 7.88-7.85 7.865 7.865 0 0 1 7.852 7.878v.024zM189.596 25.382a7.867 7.867 0 0 1-15.732-.026v-.03a7.867 7.867 0 0 1 15.732.03v.026zm0 197.849a7.864 7.864 0 0 1-7.878 7.85 7.868 7.868 0 0 1-7.854-7.879v-.025a7.867 7.867 0 0 1 15.732.025v.029zM144.828 12.565a2.213 2.213 0 0 1-4.423-.005v-.005a2.212 2.212 0 1 1 4.423.005v.005zm-3.686 15.723a1.966 1.966 0 1 1-.003-3.931 1.966 1.966 0 0 1 .003 3.931m-6.637-4.668a1.722 1.722 0 0 1 0-3.442 1.72 1.72 0 1 1 0 3.442m.246 144.989a2.456 2.456 0 0 1-2.46 2.454 2.46 2.46 0 0 1-2.456-2.461v-.005a2.458 2.458 0 0 1 4.916.005v.007zm89.53-83.292a7.864 7.864 0 0 1 7.878-7.85 7.865 7.865 0 0 1 7.852 7.878v.028c-.009 4.342-3.536 7.859-7.878 7.85a7.862 7.862 0 0 1-7.852-7.878v-.028zm-104.276 83.292a2.458 2.458 0 0 1-4.916-.007v-.005a2.458 2.458 0 1 1 4.916.005v.007zm-6.39-146.713a1.721 1.721 0 1 1 1.72 1.724c-.95 0-1.72-.772-1.72-1.724m-2.95 4.431a1.96 1.96 0 0 1-1.967 1.961 1.964 1.964 0 0 1-1.966-1.965v-.003a1.967 1.967 0 0 1 3.933.003v.004zm-5.651-13.767v-.005a2.211 2.211 0 1 1 4.423.005v.005a2.213 2.213 0 0 1-2.214 2.209 2.21 2.21 0 0 1-2.209-2.214M75.976 223.228a7.863 7.863 0 0 1-7.876 7.852 7.868 7.868 0 0 1-7.854-7.878v-.019a7.87 7.87 0 0 1 7.876-7.858 7.866 7.866 0 0 1 7.854 7.877v.026zM59.934 25.644a7.868 7.868 0 0 1 7.878-7.854 7.864 7.864 0 0 1 7.852 7.876v.025a7.866 7.866 0 0 1-7.876 7.853 7.868 7.868 0 0 1-7.854-7.878v-.022zM46.595 198.947a7.86 7.86 0 0 1-7.876 7.85 7.863 7.863 0 0 1-7.853-7.876v-.019a7.865 7.865 0 0 1 15.729.019v.026zM29.617 51.173a7.866 7.866 0 0 1 15.73.021v.024a7.863 7.863 0 0 1-7.876 7.854 7.867 7.867 0 0 1-7.854-7.878v-.021zm-3.744 113.312a7.862 7.862 0 0 1-7.876 7.852 7.866 7.866 0 0 1-7.854-7.878v-.019a7.865 7.865 0 0 1 15.73.019v.026zM3.125 124.277v-.021a7.868 7.868 0 0 1 7.877-7.855c4.343.009 7.86 3.534 7.853 7.876v.026a7.86 7.86 0 0 1-7.876 7.85 7.863 7.863 0 0 1-7.854-7.876m6.706-38.955a7.866 7.866 0 0 1 15.73.023v.023a7.866 7.866 0 0 1-15.73-.023v-.023zm238.809 21.902C240.959 51.872 197.442 8.355 142.088.675h-34.335C39.425 10.153-8.28 73.231 1.2 141.557c9.482 68.332 72.56 116.033 140.888 106.555 68.327-9.48 116.032-72.558 106.552-140.888" fill="#001bae" fill-rule="nonzero"/><path d="M227.636 129.453a3.257 3.257 0 0 0-.721-1.087c-.293-.286-.6-.52-.916-.694l-2.755 1.169.957 2.256.895-.381-.546-1.29 1.357-.578c.158.096.306.22.444.385.139.163.253.349.345.565.111.266.165.529.158.788a1.73 1.73 0 0 1-.194.754c-.125.238-.304.46-.541.669a3.233 3.233 0 0 1-.876.531l-.052.024a3.021 3.021 0 0 1-.931.24 2.413 2.413 0 0 1-.846-.071 1.842 1.842 0 0 1-.687-.361 1.636 1.636 0 0 1-.459-.63c-.134-.314-.193-.6-.176-.851.016-.253.068-.5.151-.746l-1.066-.26c-.109.373-.16.734-.151 1.086.012.348.107.737.288 1.158.175.413.416.758.719 1.035.302.276.647.481 1.03.612.387.134.8.189 1.242.165a3.99 3.99 0 0 0 1.339-.328l.071-.027a4.08 4.08 0 0 0 1.196-.755c.326-.3.573-.629.741-.99.166-.362.25-.747.25-1.153a3.12 3.12 0 0 0-.266-1.235M219.907 127.031l6.678-.037-.007-1.075-4.588.025 4.573-3.056-.005-.938-6.676.036.005 1.077 4.454-.022-4.439 2.96.005 1.03zM224.094 116.113c.303.014.62.09.958.224l.052.022c.332.132.613.297.84.494.229.198.404.415.522.651.118.234.178.489.184.761.003.272-.052.55-.165.832l-.344.86-4.338-1.735.343-.859c.113-.284.265-.523.456-.716.191-.196.411-.336.661-.425.251-.087.529-.123.83-.109m-2.171-.248a3.388 3.388 0 0 0-.702 1.117l-.759 1.895 6.199 2.478.758-1.894a3.31 3.31 0 0 0 .255-1.295 2.858 2.858 0 0 0-.257-1.177 3.002 3.002 0 0 0-.732-.985 3.759 3.759 0 0 0-1.163-.713l-.071-.028a3.763 3.763 0 0 0-1.329-.284 3.045 3.045 0 0 0-1.205.211c-.371.15-.702.375-.994.675M21.895 116.234a2.974 2.974 0 0 0-.243 1.093c-.012.39.077.801.269 1.231.127.291.293.538.491.742.203.203.425.357.674.46.247.102.508.152.789.147.28-.005.559-.069.845-.196l.028-.01c.265-.12.478-.267.638-.444a1.714 1.714 0 0 0 .439-1.242 3.202 3.202 0 0 0-.101-.685l2.454.765.794-.35-1.578-3.579-.914.404 1.016 2.313-2.422-.706-.578.413.137.305c.187.423.252.799.191 1.124-.056.324-.243.555-.555.693l-.028.012c-.294.131-.574.137-.83.023a1.115 1.115 0 0 1-.578-.6c-.132-.298-.182-.576-.152-.834.027-.26.095-.515.209-.765l-.995-.314zM23.043 121.77l1.235-.281-.267-1.19-1.238.279.27 1.192zM29.948 122.479l-1.004-.007-.015 2.526-1.92-1.631-.699.138-.002.333c-.003.465-.098.833-.284 1.103-.186.272-.447.408-.793.406h-.026c-.324-.003-.58-.109-.771-.319a1.122 1.122 0 0 1-.278-.786c.002-.326.07-.6.2-.825.133-.224.3-.428.504-.612l-.775-.69a2.873 2.873 0 0 0-.671.898c-.172.35-.256.759-.26 1.231-.002.319.045.61.147.878.099.27.241.499.424.697.183.192.404.345.66.454.255.109.541.168.852.17h.027a1.79 1.79 0 0 0 .763-.144c.217-.097.403-.224.554-.387a1.82 1.82 0 0 0 .357-.563c.085-.215.151-.437.191-.666l1.921 1.697.869.007.029-3.908zM29.721 128.442l-7.105-.012-.332.968 5.587 4.377.381-1.1-4.229-3.199 5.304.1.394-1.134zM69.713 207.193l-.12.965 1.389.172-.182 1.467a1.592 1.592 0 0 1-.553.189c-.21.042-.43.047-.664.016a1.868 1.868 0 0 1-.76-.257 1.693 1.693 0 0 1-.553-.548 2.277 2.277 0 0 1-.307-.806 3.17 3.17 0 0 1-.021-1.022l.005-.058c.044-.34.13-.649.262-.923.13-.276.291-.51.486-.695.192-.189.411-.328.657-.417a1.69 1.69 0 0 1 .775-.078c.34.042.616.136.825.276.209.142.398.307.566.505l.761-.791a3.386 3.386 0 0 0-.862-.675c-.308-.169-.69-.279-1.144-.334a2.907 2.907 0 0 0-1.259.099 3.053 3.053 0 0 0-1.048.584c-.31.269-.563.598-.763.992a4 4 0 0 0-.39 1.321l-.01.075c-.064.513-.049.985.05 1.417.095.431.258.808.486 1.137.229.324.518.591.872.796.352.205.753.331 1.2.389.475.062.909.036 1.304-.077a4.425 4.425 0 0 0 1.058-.442l.371-2.972-2.431-.305zM78.647 207.366l-2.166 3.893-.401-5.32-.9-.5-3.246 5.832.94.526 2.232-4.011.419 5.483.817.456 3.246-5.835-.941-.524zM82.607 214.425a3.002 3.002 0 0 1-.666.725l-.045.032a3.047 3.047 0 0 1-.842.492 2.14 2.14 0 0 1-.822.134 1.757 1.757 0 0 1-.753-.214 2.235 2.235 0 0 1-.649-.555l-.579-.721 3.644-2.925.581.721c.192.239.324.485.398.747.075.264.091.522.045.786a2.2 2.2 0 0 1-.312.778m.656-2.932l-1.278-1.592-5.206 4.185 1.278 1.592a3.36 3.36 0 0 0 1.002.856c.37.201.755.316 1.152.354.4.031.806-.019 1.219-.153.413-.135.81-.357 1.191-.666l.059-.045a3.75 3.75 0 0 0 .902-1.019c.218-.371.355-.758.406-1.152.052-.4.02-.796-.101-1.2-.118-.4-.328-.79-.624-1.16M44.003 181.45l.229-1.002-4.498-1.032-.229 1.002 1.71.394-1.263 5.506 1.079.242 1.262-5.502 1.71.392zM49.755 183.3l-1.075-.598-2.367 1.432-.016-2.759-1.099-.61.116 3.808-3.437 1.984 1.075.596 2.504-1.519.028 2.931 1.108.616-.139-3.987 3.302-1.894zM55.195 192.675l-2.098 1.916-.741-1.753 2.839-.163zm-3.659 4.801l5.237-4.864-.416-.986-7.138.348.432 1.025 1.665-.099 1.007 2.393-1.236 1.117.449 1.066zM57.021 197.154l.152 2.905-5.8-2.269.061 1.202 5.974 2.253.828-.04-.215-4.105-1 .054zM23.901 149.513l1.148-2.013 1.053.598c.364.208.597.451.702.73.106.281.063.585-.125.916l-.01.019c-.175.302-.413.489-.714.558-.304.068-.644-.003-1.018-.218l-1.036-.59zm9.73 4.056l-.806-.929-2.716.537.925-2.597-.826-.949-1.186 3.619-3.466.618-.073-2.567c.425.075.831.038 1.212-.113.383-.152.704-.45.957-.9l.019-.031c.153-.267.247-.53.286-.791.04-.265.026-.516-.039-.759a2.054 2.054 0 0 0-.427-.784 3.076 3.076 0 0 0-.81-.647l-2.096-1.194-3.307 5.797.96.549 1.167-2.044.928.529a.167.167 0 0 0 .063.022l.062 2.759.867.494.597.687 2.871-.577-.973 2.766.835.955 1.224-3.794 3.752-.656zM32.91 164.329l2.677.963-2.682.947.005-1.91zm-2.554-.903l1.574.558-.008 2.594-1.577.547-.001 1.153 6.721-2.43.002-1.066-6.706-2.471-.005 1.115zM32.582 171.326c-.121.326-.321.55-.601.672-.276.121-.587.117-.926-.007l-.02-.007c-.338-.127-.582-.325-.73-.593-.147-.267-.159-.569-.036-.904.127-.34.333-.567.623-.683.291-.116.608-.109.945.016l.02.005c.333.123.569.324.703.598.137.274.142.576.022.903m1.994-1.538a6.14 6.14 0 0 0-1.359-.688l-.064-.024a6.784 6.784 0 0 0-.888-.273 3.95 3.95 0 0 0-.711-.104 2.346 2.346 0 0 0-1.094.201 2.15 2.15 0 0 0-.651.476 2.46 2.46 0 0 0-.456.78 2.277 2.277 0 0 0-.145.877c.008.293.073.567.19.826.118.256.287.487.505.69.219.205.484.364.801.48l.018.006c.319.121.624.171.907.157.279-.014.534-.076.761-.189.225-.112.419-.268.589-.468.169-.199.299-.426.396-.681.106-.285.145-.557.121-.81a1.935 1.935 0 0 0-.201-.716c.262.104.505.23.727.378.222.147.402.308.544.485.144.179.234.37.284.576.047.203.028.418-.057.643a1.469 1.469 0 0 1-.357.566 2.77 2.77 0 0 1-.505.386l.632.815c.27-.171.504-.364.695-.581.189-.216.345-.489.466-.811.144-.387.191-.761.146-1.12a2.275 2.275 0 0 0-.394-1.01 3.464 3.464 0 0 0-.9-.867M218.942 156.233l-.772 1.744-2.064-1.963 2.836.219zm-4.393-.35l5.136 4.97.45-1.018-1.211-1.147 1.058-2.368 1.661.133.47-1.052-7.13-.495-.434.977zM217.748 150.131l-.601 1.513.848.474.437-1.006 4.257 3.593.706-.841-5.142-4.333-.505.6zM203.371 185.745l-1.424 1.265-1.064-2.638 2.488 1.373zm-3.855-2.138l2.617 6.65.839-.738-.631-1.547 1.942-1.719 1.455.812.865-.768-6.287-3.401-.8.711zM208.494 184.769a1.03 1.03 0 0 1-.599.043 1.43 1.43 0 0 1-.589-.293 2.537 2.537 0 0 1-.531-.607 4.784 4.784 0 0 1-.449-.912l-.026-.071c-.264-.706-.349-1.3-.258-1.786.092-.482.334-.798.726-.943a1 1 0 0 1 .597-.042c.199.042.393.141.582.293.188.149.366.354.533.611.17.26.315.561.445.908l.026.071c.264.706.352 1.299.264 1.783-.087.48-.326.796-.721.945m1.484-3.224a4.99 4.99 0 0 0-.652-1.236 3.387 3.387 0 0 0-.855-.822 2.321 2.321 0 0 0-.98-.368 2.17 2.17 0 0 0-1.054.136 2.215 2.215 0 0 0-.897.6 2.288 2.288 0 0 0-.504.924 3.4 3.4 0 0 0-.104 1.184c.034.437.139.89.315 1.36l.035.099c.18.477.394.888.652 1.24.257.348.539.622.848.822.307.199.635.322.982.365.345.044.698 0 1.063-.137.36-.135.66-.334.893-.6.237-.263.404-.574.506-.926.104-.353.137-.747.108-1.179a5.137 5.137 0 0 0-.32-1.364l-.036-.098zM28.179 77.727c.156.271.339.496.548.68.212.184.439.317.678.404.241.088.491.118.751.092.26-.024.517-.109.772-.255l.017-.009c.208-.121.378-.262.508-.42.127-.156.224-.341.285-.546.06-.208.09-.44.088-.701a6.297 6.297 0 0 0-.078-.884 6.9 6.9 0 0 1-.087-.753c-.008-.199 0-.365.023-.497a.715.715 0 0 1 .376-.524l.009-.002a.698.698 0 0 1 .609-.054c.211.075.393.247.544.51.134.233.21.486.234.765.023.274.011.558-.034.848l1.049.123c.08-.397.086-.78.022-1.148a3.305 3.305 0 0 0-.388-1.061 2.498 2.498 0 0 0-.543-.67 2.069 2.069 0 0 0-.668-.388 1.74 1.74 0 0 0-.731-.085 1.739 1.739 0 0 0-.732.238l-.016.01a1.775 1.775 0 0 0-.543.452 1.623 1.623 0 0 0-.275.581 2.53 2.53 0 0 0-.066.73c.01.269.041.573.095.907.051.28.082.514.089.699.007.186-.004.34-.033.465a.7.7 0 0 1-.137.297.773.773 0 0 1-.226.19l-.007.003a.754.754 0 0 1-.669.059c-.232-.081-.428-.263-.59-.544a2.045 2.045 0 0 1-.279-.947 4.214 4.214 0 0 1 .092-.969l-1.051-.169a3.59 3.59 0 0 0-.064 1.367c.071.428.213.83.428 1.205M35.234 79.864l.164.91a2.2 2.2 0 0 1-.012.85 1.653 1.653 0 0 1-.34.709 2.185 2.185 0 0 1-.645.531 2.996 2.996 0 0 1-.933.315l-.055.011a2.945 2.945 0 0 1-.973.022 2.098 2.098 0 0 1-.789-.277 1.755 1.755 0 0 1-.555-.55 2.157 2.157 0 0 1-.302-.794l-.159-.911 4.599-.816zm-5.425 1.912c.084.47.243.879.467 1.233a2.9 2.9 0 0 0 .839.865c.335.221.715.37 1.143.45.425.079.881.076 1.363-.009l.076-.012c.481-.087.909-.24 1.278-.462.371-.22.677-.492.912-.815.238-.322.399-.688.489-1.099.089-.409.089-.848.007-1.318l-.357-2.01-6.574 1.165.357 2.012zM32.128 88.935l.387-1.868 2.429 1.474-2.816.394zm4.37-.597l-6.078-3.761-.229 1.094 1.431.86-.526 2.541-1.652.223-.236 1.131 7.071-1.042.219-1.046zM24.944 98.746l1.553-1.108.782 2.733-2.335-1.625zm3.615 2.527l-1.914-6.885-.909.649.468 1.602-2.11 1.511-1.365-.959-.938.672 5.899 4.032.869-.622zM22.351 101.117l-.739-.248a2.477 2.477 0 0 1-.395.291 1.915 1.915 0 0 1-.517.211c-.341.094-.652.075-.926-.053-.277-.13-.461-.368-.553-.71l-.005-.02c-.095-.349-.066-.659.087-.921.152-.267.404-.446.754-.539.264-.072.52-.082.768-.032.246.052.505.144.77.278l.395-.956a3.146 3.146 0 0 0-1.054-.352 2.825 2.825 0 0 0-1.155.078c-.319.085-.6.215-.843.39a2.042 2.042 0 0 0-.853 1.436c-.034.295-.007.607.082.942l.005.019c.092.342.225.623.402.848.175.224.377.388.604.505.229.111.475.173.738.19.264.014.536-.019.81-.092.181-.046.328-.102.456-.164.123-.065.243-.134.363-.212l.312 1.566-2.504.675.26.965 3.407-.917-.669-3.178zM49.783 46.389c.171.222.364.397.584.534.217.132.454.211.716.239.26.026.531-.003.807-.095l.019-.007a1.83 1.83 0 0 0 .582-.309 1.58 1.58 0 0 0 .389-.477c.099-.191.175-.416.227-.669.049-.253.081-.55.099-.883.012-.305.036-.555.067-.756a2.32 2.32 0 0 1 .122-.48.712.712 0 0 1 .192-.285.854.854 0 0 1 .281-.152l.009-.003a.694.694 0 0 1 .607.071c.192.118.336.317.433.61.082.255.108.519.075.791a3.566 3.566 0 0 1-.203.825l1.002.335a3.06 3.06 0 0 0 .252-1.124 3.237 3.237 0 0 0-.167-1.113 2.493 2.493 0 0 0-.4-.77 1.97 1.97 0 0 0-.574-.51 1.75 1.75 0 0 0-1.466-.145l-.017.003a1.837 1.837 0 0 0-.622.338c-.163.139-.292.31-.389.515a2.534 2.534 0 0 0-.208.7 7.998 7.998 0 0 0-.088.907 5.531 5.531 0 0 1-.054.704c-.03.184-.071.333-.125.446a.71.71 0 0 1-.194.267.808.808 0 0 1-.259.139l-.008.005a.77.77 0 0 1-.67-.078c-.208-.125-.364-.344-.466-.654a1.987 1.987 0 0 1-.083-.98c.057-.319.151-.629.286-.934l-.999-.373a3.516 3.516 0 0 0-.335 1.326 3.54 3.54 0 0 0 .179 1.268c.095.295.229.553.399.773M54.928 47.814a4.12 4.12 0 0 0-1.384-.229h-.066a4.2 4.2 0 0 0-1.394.215c-.42.146-.777.345-1.074.604a2.635 2.635 0 0 0-.69.922 2.786 2.786 0 0 0-.246 1.178c-.002.464.078.87.239 1.222.162.349.392.67.697.963l.784-.645a3.344 3.344 0 0 1-.497-.659 1.644 1.644 0 0 1-.195-.822c.002-.26.059-.505.176-.729.114-.225.275-.419.483-.586.207-.165.458-.291.755-.383.296-.09.626-.135.988-.134h.037c.357.002.681.047.972.143.292.092.541.222.748.385.206.166.366.362.48.589.115.226.17.47.168.73 0 .307-.062.572-.187.796a3.061 3.061 0 0 1-.466.631l.849.671c.248-.272.448-.572.602-.9.154-.326.231-.724.232-1.194a2.823 2.823 0 0 0-.242-1.197 2.747 2.747 0 0 0-.694-.945 3.225 3.225 0 0 0-1.075-.626M50.596 54.267l5.353 1.826.356-1.046-6.318-2.157-1.281 3.754.966.331.924-2.708zM43.698 64.846l1.645-.967.536 2.793-2.181-1.826zm3.374 2.841l-1.288-7.03-.964.565.322 1.637-2.237 1.314-1.274-1.076-.996.586 5.517 4.545.92-.541zM38.901 68.963l-.478-2.637 1.857-.337-1.379 2.974zm2.265-4.075l-2.91.527-.258-1.427-1.034.187.26 1.427-.815.148.163.91.819-.147.773 4.269.964-.175 2.331-4.96-.293-.759zM168.174 210.024l2.725 4.556-4.88-2.085-.789.906 6.582 2.667.671-.765-3.542-6.154-.767.875zM175.27 211.871a1.373 1.373 0 0 1-.452.458 1.4 1.4 0 0 1-.609.205 1.461 1.461 0 0 1-.645-.096 2.046 2.046 0 0 1-.628-.38 2.744 2.744 0 0 1-.546-.653l-.031-.051a2.908 2.908 0 0 1-.354-.778 2.064 2.064 0 0 1-.07-.718 1.53 1.53 0 0 1 .202-.616c.112-.184.263-.338.452-.454.196-.127.403-.194.619-.21.215-.021.43.011.644.09.215.08.423.207.622.384.2.178.383.397.543.655l.029.047c.169.269.285.529.352.784.07.255.094.494.072.719-.021.224-.089.43-.2.614m.618-2.637l-.046-.071a3.592 3.592 0 0 0-.776-.899 2.738 2.738 0 0 0-.933-.508 2.441 2.441 0 0 0-1.006-.088 2.484 2.484 0 0 0-.99.359 2.459 2.459 0 0 0-.763.737 2.333 2.333 0 0 0-.363.945c-.054.336-.04.693.044 1.066.081.373.235.741.464 1.105l.044.069c.225.364.489.666.782.902.291.236.601.406.931.505.326.1.662.131 1.006.086.341-.04.671-.161.988-.36a2.367 2.367 0 0 0 1.127-1.676c.054-.341.04-.697-.045-1.069a3.533 3.533 0 0 0-.465-1.103M180.018 205.136l-.919.229.871 3.484c.111.447.09.808-.061 1.085-.151.276-.404.456-.754.545-.363.09-.677.045-.94-.136-.262-.18-.451-.496-.562-.948l-.864-3.453-.927.231.865 3.461c.09.368.22.677.39.931.166.25.364.45.593.59.227.14.479.225.754.255.278.031.574.005.888-.073a2.63 2.63 0 0 0 .824-.352c.236-.159.421-.354.551-.591.136-.234.217-.503.245-.808a3.009 3.009 0 0 0-.099-1.022l-.855-3.428zM184.823 205.051l-3.986.038.009.89 1.515-.018.051 4.878.955-.008-.047-4.878 1.514-.014-.011-.888zM79.925 35.391l-.675-.574-.825.971-1.022-.869a1.59 1.59 0 0 1 .129-.516c.076-.179.185-.349.322-.512.168-.198.361-.348.578-.449.216-.101.444-.149.688-.146.245.002.499.057.765.165.265.109.529.272.789.494l.04.035c.237.203.428.423.574.659.144.236.239.477.286.716.047.241.041.477-.016.706-.054.23-.161.44-.322.629-.203.238-.41.401-.623.491a2.672 2.672 0 0 1-.664.18l.22.971c.347-.06.661-.166.942-.319.284-.15.556-.386.827-.704.264-.312.449-.646.55-1.005a2.71 2.71 0 0 0 .076-1.089 2.863 2.863 0 0 0-.371-1.074 3.631 3.631 0 0 0-.808-.955l-.054-.045a3.706 3.706 0 0 0-1.099-.67 2.858 2.858 0 0 0-1.108-.196 2.448 2.448 0 0 0-1.039.266 2.915 2.915 0 0 0-.897.716 2.941 2.941 0 0 0-.589 1.03 3.848 3.848 0 0 0-.189 1.026l2.07 1.764 1.445-1.696zM75.125 42.286l-1.887-3.583 4.249 2.338.828-.436-2.826-5.37-.867.454 1.942 3.692-4.38-2.407-.755.397 2.829 5.371.867-.456zM67.646 40.096c.057-.271.152-.505.287-.701a1.56 1.56 0 0 1 .528-.482 1.85 1.85 0 0 1 .733-.234l.834-.106.529 4.216-.836.104c-.274.033-.53.021-.77-.047a1.565 1.565 0 0 1-.627-.34 1.996 1.996 0 0 1-.453-.612 2.71 2.71 0 0 1-.243-.862l-.008-.05a2.67 2.67 0 0 1 .026-.886m.008 3.14c.283.229.607.394.975.493.369.098.77.123 1.198.067l1.84-.23-.754-6.023-1.842.232c-.43.054-.812.176-1.143.366a2.636 2.636 0 0 0-1.285 1.738c-.09.385-.109.799-.053 1.24l.008.069c.057.442.175.836.359 1.183a2.8 2.8 0 0 0 .697.865M219.743 93.551l1.099 1.557-2.74.768 1.641-2.325zm-2.553 3.598l6.902-1.868-.645-.914-1.603.458-1.498-2.121.966-1.359-.666-.942-4.07 5.874.614.872zM215.581 90.575a3.173 3.173 0 0 1-.774-.463 1.15 1.15 0 0 1-.374-.629 1.007 1.007 0 0 1 .076-.732c.116-.22.321-.366.619-.441.13-.031.262-.043.392-.036.132.007.272.031.422.078.15.045.313.114.492.203.18.092.388.206.624.343l2.607 1.465.853-.209-1.004-4.103-.975.239.654 2.677-1.722-.955a15.414 15.414 0 0 0-.789-.449 3.996 3.996 0 0 0-.666-.286 2.352 2.352 0 0 0-.605-.111 2.241 2.241 0 0 0-.626.071l-.017.005c-.28.066-.519.177-.72.328a1.655 1.655 0 0 0-.477.542c-.114.21-.187.446-.215.704a2.36 2.36 0 0 0 .062.815c.115.47.316.847.6 1.126.285.281.646.511 1.083.694l.48-.876zM201.882 61.425l1.359 1.335-2.556 1.247 1.197-2.582zm-1.863 3.997l6.449-3.08-.796-.78-1.498.737-1.849-1.816.705-1.512-.826-.808-2.951 6.51.766.749zM196.896 60.608l-1.16-2.244 2.461.552.551-.444-.154-.298c-.214-.413-.299-.783-.262-1.11a.898.898 0 0 1 .513-.727l.028-.014c.288-.149.563-.173.825-.074.269.098.474.286.618.563.149.288.216.562.204.824a2.49 2.49 0 0 1-.165.773l1.011.253c.129-.345.188-.714.177-1.104-.014-.392-.13-.796-.346-1.214a2.5 2.5 0 0 0-.536-.711 2.045 2.045 0 0 0-.697-.414 1.918 1.918 0 0 0-.798-.099 2.197 2.197 0 0 0-.836.248l-.026.012a1.842 1.842 0 0 0-.607.484 1.694 1.694 0 0 0-.31.598 1.826 1.826 0 0 0-.051.666c.025.232.072.458.143.68l-2.497-.611-.772.399 1.796 3.473.89-.461zM178.234 39.288c-.044.289-.035.548.031.776.062.229.163.43.3.602.139.174.305.319.506.437s.413.213.633.286l-1.968 1.653-.133.858 3.863.604.153-.99-2.494-.391 1.897-1.659-.033-.708-.331-.052c-.458-.072-.808-.22-1.047-.442-.245-.225-.337-.504-.285-.844l.003-.028c.049-.321.191-.558.43-.715a1.13 1.13 0 0 1 .817-.161c.319.051.583.158.786.321.202.163.378.359.527.59l.801-.668a2.873 2.873 0 0 0-.791-.794c-.321-.22-.714-.368-1.177-.441a2.535 2.535 0 0 0-.893.016 2.031 2.031 0 0 0-.748.319 1.883 1.883 0 0 0-.549.584 2.169 2.169 0 0 0-.293.819l-.005.028zM178.414 37.103l-1.141-.432-.449 1.188 1.141.431.449-1.187zM172.23 36.012a1.974 1.974 0 0 0-.301.718 1.78 1.78 0 0 0 .024.673c.05.215.146.418.274.608.135.193.283.366.454.526l-2.478.674-.48.722 3.251 2.169.553-.834-2.101-1.401 2.424-.708.265-.657-.277-.186c-.387-.258-.642-.539-.768-.842a.906.906 0 0 1 .095-.886l.017-.025c.179-.268.408-.425.689-.466.282-.042.551.022.81.198.27.178.464.386.577.62.118.233.196.486.236.756l1.006-.268a2.832 2.832 0 0 0-.384-1.053c-.201-.335-.496-.633-.886-.895a2.449 2.449 0 0 0-.815-.359 2.045 2.045 0 0 0-.815-.027 1.889 1.889 0 0 0-.742.3 2.17 2.17 0 0 0-.61.619l-.018.024zM166.003 35.995l4.897-2.038-2.762 4.528.784.914 3.588-6.13-.665-.777-6.6 2.62.758.883zM160.87 10.24h4.67v.926c0 .305-.052.582-.156.834a1.734 1.734 0 0 1-.458.642 2.219 2.219 0 0 1-.728.407 2.943 2.943 0 0 1-.976.147h-.057c-.356 0-.675-.046-.961-.147a2.154 2.154 0 0 1-.725-.407 1.747 1.747 0 0 1-.454-.642 2.126 2.126 0 0 1-.155-.834v-.926zm-.083 3.23c.288.274.637.491 1.044.642.406.154.855.231 1.344.231h.08c.485 0 .933-.077 1.335-.231a3.008 3.008 0 0 0 1.04-.642c.292-.279.517-.608.675-.998a3.38 3.38 0 0 0 .236-1.298V9.135h-6.675v2.039c0 .477.082.909.245 1.298.161.39.385.719.676.998M166.589 16.469l-.515-1.545-.953.182.315 1.047h-5.571v1.098h6.724v-.782zM160.343 22.009c.182.194.404.347.664.456.255.106.54.158.852.158h.029c.292 0 .546-.047.761-.146a1.62 1.62 0 0 0 .548-.392c.15-.161.271-.348.356-.565.085-.217.147-.439.184-.669l1.937 1.69h.867v-3.912h-1.001v2.529l-1.93-1.623-.697.143v.335c0 .463-.088.833-.277 1.103-.181.276-.448.414-.789.414h-.026c-.326 0-.583-.107-.774-.317a1.133 1.133 0 0 1-.284-.78c0-.328.064-.6.194-.826.134-.229.297-.431.501-.615l-.784-.687c-.272.248-.494.55-.659.902-.168.352-.254.765-.254 1.236 0 .316.05.609.154.876.1.265.243.498.428.69M83.705 18.72c.114-.222.277-.415.487-.576.21-.163.462-.288.758-.378.295-.089.621-.134.978-.134h.066c.362 0 .69.045.983.134.292.09.541.213.748.373.208.159.367.348.482.572.114.222.171.465.171.725 0 .26-.057.501-.171.725a1.718 1.718 0 0 1-.488.577 2.36 2.36 0 0 1-.757.381 3.273 3.273 0 0 1-.978.139h-.066a3.49 3.49 0 0 1-.984-.133 2.366 2.366 0 0 1-.747-.373 1.702 1.702 0 0 1-.482-.572 1.568 1.568 0 0 1-.172-.725c0-.267.058-.512.172-.735m-.234 2.852c.303.26.662.465 1.079.61.416.146.872.219 1.368.219h.095c.496 0 .95-.071 1.365-.213.413-.144.77-.345 1.068-.607a2.79 2.79 0 0 0 .701-.935c.168-.362.253-.759.253-1.191 0-.439-.085-.841-.253-1.204a2.773 2.773 0 0 0-.706-.933 3.321 3.321 0 0 0-1.079-.61 4.106 4.106 0 0 0-1.368-.219h-.095c-.496 0-.951.072-1.363.214-.415.144-.77.345-1.069.607-.3.26-.532.572-.702.934-.168.363-.251.76-.251 1.192 0 .438.083.837.251 1.2.17.362.404.676.706.936M84.983 14.428h-.744v1.078h5.055v-1.078h-3.061c-.35 0-.624-.085-.82-.262a.874.874 0 0 1-.296-.69c0-.288.093-.508.28-.67.188-.158.46-.236.815-.236h3.082v-1.08h-3.385c-.541 0-.971.139-1.288.411-.319.274-.477.656-.477 1.143 0 .345.083.626.253.844.168.219.364.403.586.54M86.07 92.835l.954-2.68.954 2.68H86.07zm.439-4.159l-2.452 6.715h1.115l.555-1.575h2.594l.552 1.575h1.154l-2.452-6.715h-1.066zM91.058 93.493c0-.157.029-.305.09-.438a.903.903 0 0 1 .251-.333 1.17 1.17 0 0 1 .378-.21c.142-.052.3-.076.472-.076.165 0 .321.024.468.076.146.05.271.118.376.21a.918.918 0 0 1 .248.333c.061.133.091.281.091.438v.02a.981.981 0 0 1-.32.754c-.213.198-.501.295-.863.295-.361 0-.65-.097-.867-.295a.974.974 0 0 1-.324-.754v-.02zm.171-2.989c0-.284.094-.515.286-.694.191-.178.436-.265.734-.265s.544.087.733.265c.193.179.287.41.287.694v.019c0 .302-.096.548-.29.73a1.022 1.022 0 0 1-.73.276c-.291 0-.536-.094-.728-.279a.96.96 0 0 1-.292-.727v-.019zm-.607 4.463c.2.169.439.297.718.387.279.089.581.134.905.134.323 0 .623-.045.899-.134.275-.09.515-.217.718-.381.202-.167.362-.366.476-.602.115-.234.17-.499.17-.791v-.038c0-.408-.098-.739-.301-.997a2.152 2.152 0 0 0-.786-.616c.269-.145.486-.34.649-.581.166-.241.249-.544.249-.907v-.038a1.645 1.645 0 0 0-.591-1.281 2.062 2.062 0 0 0-.654-.368 2.432 2.432 0 0 0-.825-.135c-.298 0-.576.045-.829.135a2.045 2.045 0 0 0-.659.371c-.184.16-.328.349-.434.569a1.634 1.634 0 0 0-.157.709v.038c0 .363.085.666.253.907.168.241.381.436.643.581a2.001 2.001 0 0 0-.785.616c-.201.263-.302.602-.302 1.016v.028c0 .286.057.546.172.775.114.234.272.433.471.603M159.509 71.729l.954-2.679.954 2.679h-1.908zm.439-4.158l-2.452 6.714h1.115l.555-1.575h2.594l.551 1.575h1.155l-2.452-6.714h-1.066zM166.775 69.769c0 .363-.104.663-.312.895-.207.233-.489.349-.847.349-.348 0-.629-.11-.841-.33-.211-.22-.317-.522-.317-.905v-.019c0-.369.101-.676.304-.919.199-.243.478-.364.835-.364.365 0 .651.119.862.355.21.236.316.545.316.928v.01zm-.34 4.377c.314-.161.588-.397.812-.706.225-.308.4-.688.515-1.139.121-.451.178-.966.178-1.545v-.067c0-.342-.021-.647-.057-.916a4.608 4.608 0 0 0-.156-.709 2.518 2.518 0 0 0-.246-.545 2.153 2.153 0 0 0-.314-.406 2.043 2.043 0 0 0-.682-.456 2.363 2.363 0 0 0-.893-.154 2.28 2.28 0 0 0-.881.172 2.106 2.106 0 0 0-.702.477 2.2 2.2 0 0 0-.461.73 2.459 2.459 0 0 0-.168.92v.03c0 .336.052.636.159.9a1.8 1.8 0 0 0 1.079 1.068c.248.094.518.139.806.139.297 0 .564-.056.796-.165.231-.111.43-.26.593-.449-.005.267-.04.525-.097.773a2.26 2.26 0 0 1-.274.661 1.525 1.525 0 0 1-.446.458 1.147 1.147 0 0 1-.624.172 1.54 1.54 0 0 1-.666-.144 2.83 2.83 0 0 1-.61-.391l-.552.874c.266.208.543.371.833.486.289.118.615.177.978.177.4 0 .759-.082 1.08-.245M77.121 100.31c0 .324-.044.616-.134.876-.09.26-.213.48-.373.659a1.63 1.63 0 0 1-.581.413 1.99 1.99 0 0 1-.757.142h-.843v-4.249h.843c.277 0 .528.049.757.142.228.098.422.236.581.418.16.182.283.403.373.663.09.26.134.555.134.884v.052zm-.659-2.852a3.054 3.054 0 0 0-1.179-.217h-1.856v6.069h1.856c.433 0 .827-.074 1.179-.22.352-.147.655-.354.907-.616.251-.263.445-.579.584-.95.14-.369.21-.779.21-1.222v-.07c0-.446-.07-.851-.21-1.219a2.762 2.762 0 0 0-.584-.943 2.597 2.597 0 0 0-.907-.612M79.384 101.151l1.716-2.436v2.436h-1.716zm2.67 2.159v-1.318h.754v-.841h-.754v-3.945h-.893l-2.887 4.058.139.728H81.1v1.318h.954zM171.764 100.308c0 .325-.045.616-.134.876-.092.26-.213.481-.374.659-.16.179-.352.316-.581.413-.229.093-.48.142-.758.142h-.843V98.15h.843c.278 0 .529.048.758.142.229.097.421.236.581.418.161.182.282.402.374.662.089.26.134.555.134.884v.052zm.83 1.214c.141-.367.21-.778.21-1.222v-.07a3.38 3.38 0 0 0-.21-1.219 2.731 2.731 0 0 0-.584-.943 2.588 2.588 0 0 0-.907-.612 3.043 3.043 0 0 0-1.179-.217h-1.855v6.069h1.855c.434 0 .829-.074 1.179-.22.352-.147.656-.354.907-.615.252-.264.446-.58.584-.951M175.509 102.181c-.195.198-.461.295-.789.295-.251 0-.476-.052-.683-.156a2.936 2.936 0 0 1-.608-.425l-.573.746c.247.239.527.425.84.558a2.55 2.55 0 0 0 1.033.205c.302 0 .579-.047.831-.142.256-.097.477-.233.659-.411.187-.179.331-.396.428-.647.104-.253.153-.534.153-.846v-.018c0-.324-.049-.603-.153-.839a1.577 1.577 0 0 0-.409-.588 1.72 1.72 0 0 0-.605-.341 2.32 2.32 0 0 0-.732-.113c-.165 0-.311.014-.439.04-.123.026-.244.06-.366.1l.094-1.448h2.362v-.912h-3.21l-.167 2.948.59.39c.127-.064.265-.116.416-.161.151-.042.319-.062.503-.062.326 0 .591.088.801.267.212.178.319.43.319.754v.017c0 .332-.1.595-.295.789" fill="#fff" fill-rule="nonzero"/><g fill="#fff" fill-rule="nonzero"><path d="M173.73 86.576a3.073 3.073 0 0 1-3.072-3.071c0-.87.362-1.678 1.024-2.273l.205-.184V68.021c0-1.016.825-1.843 1.843-1.843 1.016 0 1.84.827 1.84 1.843v13.027l.205.184a3.027 3.027 0 0 1 1.025 2.273 3.073 3.073 0 0 1-3.07 3.071m0-21.627a3.074 3.074 0 0 0-3.072 3.072v12.491a4.29 4.29 0 0 0-1.23 2.993 4.307 4.307 0 0 0 4.302 4.301 4.306 4.306 0 0 0 4.299-4.301 4.293 4.293 0 0 0-1.229-2.993V68.021a3.074 3.074 0 0 0-3.07-3.072"/><path d="M174.835 81.487v-8.879h-2.211v8.879c-.72.397-1.228 1.137-1.228 2.018a2.334 2.334 0 0 0 4.668 0c0-.881-.508-1.621-1.229-2.018"/></g><g fill="#fff" fill-rule="nonzero"><path d="M89.363 86.753a9.251 9.251 0 0 1-7.787-4.3 9.245 9.245 0 0 1 7.787-4.301 9.243 9.243 0 0 1 7.788 4.301 9.252 9.252 0 0 1-7.788 4.3m9.037-3.994l.178-.306-.178-.309a10.474 10.474 0 0 0-9.037-5.221 10.474 10.474 0 0 0-9.036 5.221l-.179.309.179.306a10.48 10.48 0 0 0 9.036 5.224c3.71 0 7.169-2.002 9.037-5.224"/><path d="M89.363 84.294a1.841 1.841 0 0 1-1.841-1.843 1.842 1.842 0 1 1 3.685 0 1.844 1.844 0 0 1-1.844 1.843m0-5.53a3.686 3.686 0 1 0 0 7.373 3.686 3.686 0 1 0 0-7.373"/></g><g fill="#fff" fill-rule="nonzero"><path d="M171.153 174.351a.614.614 0 0 0-.612.614 3.074 3.074 0 0 0 3.071 3.072 3.073 3.073 0 0 0 3.071-3.072c0-.493.193-.954.543-1.303l2.464-2.464a5.5 5.5 0 0 0 1.618-3.91 5.498 5.498 0 0 0-1.619-3.912c-2.09-2.087-5.733-2.087-7.823 0a5.506 5.506 0 0 0-1.618 3.912c0 .34.276.614.612.614.34 0 .618-.274.618-.614a4.27 4.27 0 0 1 1.259-3.042c1.625-1.626 4.456-1.625 6.083-.002a4.282 4.282 0 0 1 1.259 3.044 4.267 4.267 0 0 1-1.259 3.04l-2.466 2.464a3.056 3.056 0 0 0-.9 2.173 1.844 1.844 0 0 1-1.842 1.843 1.844 1.844 0 0 1-1.843-1.843.615.615 0 0 0-.616-.614"/><path d="M172.707 169.866a.613.613 0 0 0-.615.612v.907a.614.614 0 0 0 1.227 0v-.379a2.213 2.213 0 0 0 1.596-2.123c0-.961-.742-1.772-1.545-2.081a2.457 2.457 0 0 1 4.864.486.615.615 0 0 0 1.229 0 3.691 3.691 0 0 0-3.686-3.687 3.69 3.69 0 0 0-3.685 3.687c0 .34.275.614.615.614.37 0 .978.475.978.981a.98.98 0 0 1-.978.983"/></g><path d="M94.186 176.633v8.887a3.206 3.206 0 0 0-1.299-.146c-1.432.123-2.596 1.062-2.596 2.097 0 1.032 1.164 1.765 2.596 1.639 1.436-.124 2.598-1.062 2.598-2.097v-7.765l6.371-1.583v5.625a3.162 3.162 0 0 0-1.299-.146c-1.431.123-2.593 1.062-2.593 2.097 0 1.03 1.162 1.763 2.593 1.638 1.434-.123 2.596-1.061 2.596-2.094v-10.382l-.002.001-8.965 2.229zM60.997 127.591V110.98l-10.37 8.305 10.37 8.306zM116.153 99.398h.99c.346 0 .609.078.796.236.189.154.281.388.281.7v.018c0 .284-.092.515-.281.686-.187.17-.456.259-.811.259h-.975v-1.899zm0 2.716h.874a.136.136 0 0 0 .054-.007l1.164 1.937h1.045l-1.288-2.118a1.77 1.77 0 0 0 .815-.574c.211-.262.317-.601.317-1.025v-.031c0-.249-.04-.477-.118-.679a1.472 1.472 0 0 0-.334-.521 1.684 1.684 0 0 0-.621-.385 2.548 2.548 0 0 0-.839-.13h-1.974v5.463h.905v-1.93zM123.097 103.222h-2.582v-1.521h2.256v-.82h-2.256v-1.483h2.543v-.817h-3.442v5.463h3.481v-.822zM125.98 103.099c-.152.13-.362.194-.627.194-.292 0-.554-.061-.784-.187a3.293 3.293 0 0 1-.652-.46l-.546.676c.296.28.612.479.943.604.333.125.678.187 1.032.187.253 0 .489-.038.705-.113a1.71 1.71 0 0 0 .561-.317c.157-.135.282-.3.371-.494.09-.196.133-.413.133-.652v-.016c0-.198-.029-.374-.088-.53a1.255 1.255 0 0 0-.276-.425 1.946 1.946 0 0 0-.458-.347 4.792 4.792 0 0 0-.66-.305 5.197 5.197 0 0 1-.569-.247 1.772 1.772 0 0 1-.345-.218.555.555 0 0 1-.17-.222.652.652 0 0 1-.049-.258v-.007a.57.57 0 0 1 .212-.453c.14-.12.336-.179.584-.179.219 0 .43.047.638.144.205.094.401.221.586.371l.517-.695a2.576 2.576 0 0 0-.806-.486 2.723 2.723 0 0 0-.911-.154c-.254 0-.487.037-.698.113-.21.076-.394.18-.547.317a1.442 1.442 0 0 0-.359.481 1.49 1.49 0 0 0-.128.619v.015c0 .219.035.408.102.569.068.163.167.307.3.434.132.128.295.242.491.343.196.102.423.203.683.298.219.08.396.154.531.226.135.069.241.14.317.208a.59.59 0 0 1 .198.459v.007c0 .203-.076.37-.231.5M128.318 101.701h2.256v-.819h-2.256v-1.484h2.544v-.818h-3.442v5.462h3.478v-.82h-2.58v-1.521zM131.15 99.422h1.434v4.62h.907v-4.62h1.437v-.842h-3.778v.842zM112.144 148.228a4.304 4.304 0 0 1-4.3-4.3 4.303 4.303 0 0 1 4.3-4.301 4.303 4.303 0 0 1 4.301 4.301c0 2.372-1.927 4.3-4.301 4.3m10.814-4.3l-3.184-1.838v1.222h-2.162a5.5 5.5 0 0 0-4.854-4.854v-2.162h1.224l-1.838-3.185-1.838 3.185h1.224v2.162c-2.757.313-4.916 2.631-4.916 5.47a5.539 5.539 0 0 0 5.53 5.53c2.841 0 5.159-2.159 5.468-4.916h2.162v1.224l3.184-1.838z" fill="#fff" fill-rule="nonzero"/><path d="M110.249 141.939h2.597l-2.684 3.973v.671h3.817v-.821h-2.685l2.685-3.972v-.673h-3.73v.822zM111.721 132.294h.905v-2.187l1.835-3.277h-1.008l-1.271 2.365-1.264-2.365h-1.039l1.842 3.284v2.18zM125.911 141.256l-1.124 1.966-1.108-1.966h-1.03l1.599 2.675-1.67 2.785h1.008l1.186-2.082 1.186 2.082h1.037l-1.686-2.792 1.606-2.668h-1.004zM124.019 189.869c0 .323-.043.612-.133.876a1.985 1.985 0 0 1-.373.657c-.16.179-.354.316-.581.413-.229.093-.48.144-.758.144h-.843v-4.249h.843c.278 0 .529.045.758.142.227.096.421.234.581.416.159.183.282.403.373.665.09.256.133.551.133.882v.054zm.248-2.242a2.62 2.62 0 0 0-.907-.614 3.088 3.088 0 0 0-1.179-.217h-1.855v6.07h1.855a3.05 3.05 0 0 0 1.179-.219c.352-.147.656-.354.907-.616.252-.263.446-.579.584-.95.141-.371.21-.777.21-1.221v-.069c0-.447-.069-.851-.21-1.219a2.74 2.74 0 0 0-.584-.945M125.398 187.71h2.644l-2.33 5.157h1.092l2.331-5.315v-.754h-3.737v.912zM93.921 45.745v-4.246h.841c.277 0 .53.046.757.142.229.093.423.234.581.416.16.182.285.402.375.662.088.262.133.557.133.886v.051c0 .322-.045.615-.133.877-.09.26-.215.481-.375.659a1.534 1.534 0 0 1-.581.409 1.91 1.91 0 0 1-.757.144h-.841zm2.028.689c.354-.148.654-.351.906-.616a2.76 2.76 0 0 0 .586-.948c.138-.368.208-.779.208-1.223v-.069c0-.444-.07-.85-.208-1.219a2.804 2.804 0 0 0-.586-.945 2.599 2.599 0 0 0-.906-.611 3.05 3.05 0 0 0-1.179-.217h-1.855v6.07h1.855c.434 0 .827-.075 1.179-.222M98.915 44.93c0-.144.027-.277.081-.399a.839.839 0 0 1 .231-.303 1.218 1.218 0 0 1 .772-.26c.149 0 .291.022.424.071.132.045.247.107.342.189a.813.813 0 0 1 .225.303.945.945 0 0 1 .084.399v.018a.89.89 0 0 1-.292.685c-.192.178-.454.268-.784.268-.329 0-.593-.09-.789-.268a.891.891 0 0 1-.294-.685v-.018zm.156-2.717c0-.258.086-.468.26-.631a.945.945 0 0 1 .668-.241c.272 0 .494.081.667.241.174.163.26.373.26.631v.016c0 .277-.088.497-.265.665a.914.914 0 0 1-.662.25.922.922 0 0 1-.665-.255.874.874 0 0 1-.263-.66v-.016zm-.553 4.056c.182.154.4.272.653.352.255.082.529.121.824.121.293 0 .565-.039.817-.121.251-.08.468-.196.654-.347.183-.151.327-.333.431-.546.104-.213.156-.454.156-.72v-.034c0-.37-.091-.671-.275-.907a1.98 1.98 0 0 0-.713-.559c.243-.131.439-.308.59-.529.15-.218.225-.494.225-.823v-.033a1.51 1.51 0 0 0-.538-1.167 1.9 1.9 0 0 0-.594-.335 2.22 2.22 0 0 0-.749-.121c-.273 0-.524.04-.755.121-.23.082-.432.194-.598.338-.168.144-.3.318-.395.517a1.495 1.495 0 0 0-.143.647v.033c0 .329.077.605.229.823.155.221.349.398.586.529a1.832 1.832 0 0 0-.716.559c-.182.241-.272.549-.272.924v.026c0 .26.052.496.154.707.104.21.248.394.429.545M88.006 41.955c0 .272.22.492.492.492h3.062a.49.49 0 0 0 .491-.492.49.49 0 0 0-.491-.493h-3.062a.492.492 0 0 0-.492.493M188.843 110.98v16.611l10.37-8.305-10.37-8.306zM198.393 191.147c-.552-.39-1.436-1.009-1.672-1.335.392-.037 1.441.256 2.093.432a.37.37 0 0 0 .454-.257.372.372 0 0 0-.26-.454c-1.571-.427-2.705-.734-3.021-.065-.31.673.651 1.348 1.991 2.288.55.383 1.432 1.006 1.667 1.325-.377.043-1.441-.252-2.095-.432-1.57-.425-2.709-.734-3.021-.063-.312.671.65 1.343 1.992 2.284.55.389 1.429 1.008 1.662 1.328-.352.044-1.44-.253-2.093-.431a.372.372 0 0 0-.455.258.367.367 0 0 0 .262.451c.911.25 1.674.458 2.218.458.392 0 .671-.113.805-.396.308-.666-.649-1.338-1.988-2.275-.551-.39-1.437-1.009-1.669-1.335.395-.033 1.439.257 2.093.432 1.571.426 2.706.738 3.022.066.312-.668-.647-1.343-1.985-2.279" fill="#fff" fill-rule="nonzero"/><path d="M57.661 119.246l-.867-2.436-.867 2.436h1.734zm-1.336-3.78h.972l2.228 6.104h-1.049l-.501-1.43h-2.361l-.502 1.43h-1.015l2.228-6.104zM194.434 120.524a.744.744 0 0 0-.3-.624c-.2-.152-.491-.23-.876-.23h-1.226v1.725h1.273c.347 0 .621-.073.823-.22.203-.146.306-.357.306-.631v-.02zm-.259-2.569c0-.261-.088-.462-.267-.6-.175-.137-.432-.207-.759-.207h-1.117v1.681h1.056c.328 0 .591-.073.792-.217.196-.144.295-.357.295-.642v-.015zm-3.121-1.719h2.167c.328 0 .626.047.895.135.273.092.491.219.656.389.274.27.409.614.409 1.023v.028c0 .183-.026.35-.073.494a1.412 1.412 0 0 1-.489.664 2.327 2.327 0 0 1-.333.205c.335.116.614.284.831.506.217.224.322.536.322.94v.035c0 .263-.05.501-.156.704a1.432 1.432 0 0 1-.438.52 1.98 1.98 0 0 1-.678.319 3.451 3.451 0 0 1-.885.107h-2.228v-6.069z" fill-rule="nonzero"/><path d="M135.979 245.152h-22.118M105.258 227.95v-19.665M109.435 208.287v12.288M109.435 220.575h6.885M133.524 220.575h6.882M140.406 220.575v-12.288M140.406 208.287h4.176M144.584 208.287v19.663" fill="none" stroke="#fff"/><path d="M137.209 27.305h-3.933M116.564 27.305h-3.933" fill="none" stroke="#fff" stroke-width=".62"/><g fill="none" stroke="#fff" stroke-width=".62"><path d="M143.6 5.185V.761M143.6.761h-37.359M106.241.761v4.424"/></g><path d="M146.762 234.073v-8.582M153.646 225.491v8.58M150.204 231.257l-1.968-2.95M148.237 228.307h3.933M152.17 228.307l-1.968 2.948M150.204 230.273l-.982-1.475h1.965l-.983 1.475v-1.475 1.475M129.346 139.504h3.931M133.276 139.504v-1.722M129.346 122.789h3.931M133.276 122.789v1.72M116.564 124.509v-1.72M116.564 122.789h3.933M120.495 139.504h-3.932M116.564 139.504v-1.722" fill="none" stroke="#fff"/><path d="M154.572 15.655h1.873-1.873m-.562.75h2.997-2.997m1.498-1.998l1.873 2.497h-3.744l1.871-2.497" fill="none" stroke="#fff" stroke-width=".75"/><path d="M187.728 168.389l-1.276-.741M186.452 167.65l9.338-16.175M195.79 151.475l1.278.738M201.351 176.255l1.276.737M202.627 176.992l9.34-16.178M211.967 160.814l-1.276-.738M187.497 168.285l1.251-2.164-1.251 2.164m.543.312l.938-1.621-.938 1.621m-1.623-.936l1.871-3.245.69 2.56-.938 1.621-1.623-.936M155.351 195.179l-.739-1.278M154.614 193.901l16.174-9.34M170.789 184.563l.739 1.274M163.217 208.802l.737 1.274M163.954 210.078l16.173-9.341M180.127 200.738l-.737-1.278M155.205 194.974l2.161-1.252-2.161 1.252m.312.54l1.62-.937-1.62.937m-.936-1.622l3.243-1.873-.687 2.558-1.62.937-.936-1.622M201.334 134.869h-1.478M199.858 134.869v-18.681M199.858 116.188h1.477M217.064 134.869h1.473M218.536 134.869v-18.681M218.536 116.188h-1.474M201.08 134.893v-2.499 2.499m.625 0v-1.874 1.874m-1.873 0v-3.747l1.873 1.873v1.874h-1.873M196.442 95.722l-1.277.737M195.164 96.459l-9.338-16.176M185.827 80.283l1.275-.737M210.068 87.858l1.273-.737M211.341 87.119l-9.34-16.177M202.003 70.943l-1.276.737M196.239 95.869l-1.25-2.162 1.25 2.162m.541-.312l-.937-1.621.937 1.621m-1.623.936l-1.873-3.244 2.559.687.937 1.621-1.623.936M170.904 62.72l-.741 1.277M170.163 63.997l-16.174-9.338M153.989 54.659l.739-1.277M178.768 49.097l.739-1.276M179.507 47.821l-16.178-9.34M163.329 38.481l-.738 1.276M170.798 62.949l-2.162-1.247 2.162 1.247m.314-.541l-1.625-.936 1.625.936m-.937 1.623l-3.244-1.874 2.556-.685 1.625.936-.937 1.623M93.867 52.756l.737 1.277M94.604 54.033l-16.176 9.339M78.428 63.372l-.737-1.276M85.264 37.857l-16.177 9.34M69.087 47.197l.737 1.276M94.012 52.961l-2.162 1.248 2.162-1.248m-.312-.541l-1.619.936 1.619-.936m.937 1.623l-3.243 1.873.687-2.56 1.619-.936.937 1.623M63.362 78.296l1.275.739M64.639 79.035l-9.34 16.177M55.299 95.21l-1.276-.737M49.739 70.432l-1.276-.737M48.461 69.695l-9.339 16.177M39.123 85.872l1.275.737M63.591 78.4l-1.248 2.162 1.248-2.162m-.541-.31l-.936 1.621.936-1.621m1.623.936l-1.874 3.241-.685-2.556.936-1.621 1.623.936M48.508 114.939h1.476M49.984 114.939v18.678M49.984 133.619h-1.476M32.778 114.939h-1.475M31.304 114.939v18.678M31.304 133.619h1.476M48.76 114.915v2.497-2.497m-.625 0v1.873-1.873m1.873 0v3.745l-1.873-1.872v-1.873h1.873M54.023 155.959l1.276-.741M55.299 155.22l9.34 16.176M64.639 171.396l-1.277.738M40.4 163.823l-1.277.737M39.123 164.56l9.34 16.177M48.461 180.737l1.277-.74M54.227 155.812l1.249 2.162-1.249-2.162m-.543.312l.94 1.619-.94-1.619m1.625-.937l1.873 3.245-2.558-.689-.94-1.619 1.625-.937M80.811 187.088l.737-1.277M81.548 185.811l16.177 9.338M97.725 195.149l-.737 1.277M72.947 200.709l-.737 1.276M72.21 201.987l16.177 9.34M88.385 211.327l.739-1.278M80.915 186.857l2.162 1.25-2.162-1.25m-.312.541l1.621.936-1.621-.936m.936-1.623l3.243 1.873-2.558.686-1.621-.936.936-1.623" fill="none" stroke="#fff" stroke-width=".62"/><path d="M92.771 16.904h1.873-1.873m-.562.749h2.995-2.995m1.498-1.998l1.873 2.497h-3.746l1.873-2.497" fill="none" stroke="#fff" stroke-width=".75"/><path d="M135.242 120.54h-20.646M114.598 105.544h20.646" fill="none" stroke="#fff"/><path d="M88.852 159.16h3.933M90.82 157.195v3.931M67.47 146.134v17.942M76.072 172.679h17.696M104.335 162.11v-15.73M78.038 135.812H93.77M88.852 149.329h3.933" fill="none" stroke="#fff" stroke-width=".62"/><path d="M90.82 155.685a3.477 3.477 0 0 1 0 6.952 3.477 3.477 0 0 1 0-6.952zM90.82 145.853a3.476 3.476 0 0 1 0 6.952 3.477 3.477 0 0 1 0-6.952z" fill="none" stroke="#fff" stroke-width=".62" stroke-linecap="butt"/><path d="M92.448 134.031H60.007M60.007 104.538h32.441M92.448 113.387v11.797M60.007 125.184v-11.797" fill="none" stroke="#fff"/><path d="M76.228 111.896a7.389 7.389 0 1 1 0 14.778 7.39 7.39 0 1 1 0-14.778z" fill="none" stroke="#fff" stroke-linecap="butt"/><path d="M76.228 114.368a4.917 4.917 0 0 1 4.914 4.917 4.914 4.914 0 1 1-9.829 0 4.917 4.917 0 0 1 4.915-4.917z" fill="none" stroke="#fff" stroke-linecap="butt"/><path d="M189.835 134.031h-32.442M157.393 104.538h32.442M189.835 113.387v11.797M157.393 125.184v-11.797" fill="none" stroke="#fff"/><path d="M173.614 111.896a7.39 7.39 0 1 1 0 14.778 7.39 7.39 0 1 1 0-14.778z" fill="none" stroke="#fff" stroke-linecap="butt"/><path d="M173.614 114.368a4.915 4.915 0 1 1 0 9.831 4.917 4.917 0 0 1-4.918-4.914 4.92 4.92 0 0 1 4.918-4.917z" fill="none" stroke="#fff" stroke-linecap="butt"/><path d="M107.224 160.001h35.393M142.617 160.001v17.204M142.617 177.205h-35.393M107.224 177.205v-17.204" fill="none" stroke="#fff" stroke-width=".62"/><path d="M152.155 212.303h-3.902" fill="none" stroke="#fff" stroke-width="1.5"/><path d="M150.204 208.46a3.842 3.842 0 1 1 0 7.686 3.843 3.843 0 0 1 0-7.686z" fill="none" stroke="#fff" stroke-linecap="butt"/><path d="M109.928 60.074h-2.704M107.224 60.074v2.704M139.912 60.074h2.705M142.617 60.074v2.704M142.617 92.763v2.704M142.617 95.467h-2.705M106.692 94.002h1.124-1.124m0 .624h1.748-1.748m0 .624h2.372-2.372m0 .624h2.997-2.997m3.246.25h-3.246v-3.246l3.246 3.246" fill="none" stroke="#fff" stroke-width=".62"/><path d="M101.901 212.927h-3.902M99.95 210.976v3.902" fill="none" stroke="#fff" stroke-width="1.5"/><path d="M99.95 209.084a3.842 3.842 0 1 1 .001 7.685 3.842 3.842 0 0 1-.001-7.685z" fill="none" stroke="#fff" stroke-linecap="butt"/><path d="M10.991 115.164c5.032 0 9.113 4.081 9.113 9.115 0 5.032-4.081 9.112-9.113 9.112a9.112 9.112 0 0 1-9.113-9.112 9.113 9.113 0 0 1 9.113-9.115zM181.73 16.241c5.03 0 9.114 4.081 9.114 9.113a9.116 9.116 0 0 1-18.229 0c0-5.032 4.082-9.113 9.115-9.113z" fill="none" stroke="#9a916c" stroke-width="2.5" stroke-linecap="butt"/><path fill="#9a916c" fill-rule="nonzero" d="M127.38 200.913h4.916v22.611h-4.916zM117.549 200.913h4.914v22.611h-4.914zM137.703 229.422h7.864v16.713h-7.864zM104.275 229.422h7.864v16.713h-7.864zM126.15 7.153h4.914v9.831h-4.914zM118.777 7.153h4.914v9.831h-4.914zM123.938 22.389h1.966v6.636h-1.966zM127.132 22.389h1.966v6.636h-1.966zM117.546 22.389h1.966v6.636h-1.966zM120.742 22.389h1.966v6.636h-1.966z"/><path d="M141.143 23.733a2.59 2.59 0 1 1-.003 5.179 2.59 2.59 0 0 1 .003-5.179z" fill="none" stroke="#9a916c" stroke-width="1.25" stroke-linecap="butt"/><path d="M138.551 26.322a2.59 2.59 0 0 0 2.587 2.594 2.589 2.589 0 0 0 2.594-2.587v-.007a2.59 2.59 0 0 0-5.181-.007v.007zm0-2.591h7.77v5.181h-7.77v-5.181z" fill="#9a916c" fill-rule="nonzero"/><path d="M108.7 23.733a2.59 2.59 0 1 1 0 5.179 2.59 2.59 0 1 1 0-5.179z" fill="none" stroke="#9a916c" stroke-width="1.25" stroke-linecap="butt"/><path d="M106.108 26.322a2.591 2.591 0 0 0 5.183.007v-.007a2.592 2.592 0 0 0-5.183 0m-2.591-2.591h7.77v5.181h-7.77v-5.181z" fill="#9a916c" fill-rule="nonzero"/><path d="M142.617 8.488a4.072 4.072 0 1 1 0 8.144 4.072 4.072 0 0 1 0-8.144z" fill="none" stroke="#9a916c" stroke-width="3.72" stroke-linecap="butt"/><path fill="none" stroke="#9a916c" stroke-width="3.72" stroke-linecap="butt" d="M138.546 8.488h8.142v8.142h-8.142zM107.224 8.488a4.07 4.07 0 1 1 0 8.142 4.071 4.071 0 0 1 0-8.142z"/><path fill="none" stroke="#9a916c" stroke-width="3.72" stroke-linecap="butt" d="M103.153 8.488h8.142v8.142h-8.142z"/><path fill="#9a916c" fill-rule="nonzero" d="M130.328 22.389h1.966v6.636h-1.966zM146.762 217.249h6.883v6.881h-6.883zM146.762 235.432h6.883v6.883h-6.883z"/><path d="M232.145 154.102c5.03 0 9.114 4.078 9.114 9.112 0 5.031-4.084 9.113-9.114 9.113-5.032 0-9.114-4.082-9.114-9.113 0-5.034 4.082-9.112 9.114-9.112z" fill="none" stroke="#9a916c" stroke-width="2.5" stroke-linecap="butt"/><path fill="#9a916c" fill-rule="nonzero" d="M93.334 233.464h8.863v7.864h-8.863zM93.333 219.482h8.863v7.866h-8.863z"/><path d="M67.8 16.552a9.114 9.114 0 0 1 9.113 9.114c0 5.034-4.081 9.115-9.113 9.115-5.032 0-9.113-4.081-9.113-9.115a9.114 9.114 0 0 1 9.113-9.114zM238.851 115.164c5.032 0 9.112 4.081 9.112 9.115a9.113 9.113 0 0 1-9.112 9.112c-5.033 0-9.116-4.08-9.116-9.112 0-5.034 4.083-9.115 9.116-9.115zM68.112 214.091a9.114 9.114 0 1 1-.002 18.226 9.114 9.114 0 0 1 .002-18.226z" fill="none" stroke="#9a916c" stroke-width="2.5" stroke-linecap="butt"/><path fill="#9a916c" fill-rule="nonzero" d="M130.329 135.448h2.457v1.229h-2.457zM130.329 132.989h2.457v1.229h-2.457zM130.329 130.534h2.457v1.229h-2.457zM130.329 128.075h2.457v1.229h-2.457zM130.329 125.618h2.457v1.228h-2.457zM126.762 123.282h1.229v2.457h-1.229zM124.307 123.282h1.228v2.457h-1.228zM121.85 123.282h1.228v2.457h-1.228zM117.055 125.616h2.457v1.228h-2.457zM117.055 128.075h2.457v1.229h-2.457zM117.055 130.532h2.457v1.229h-2.457zM117.055 132.991h2.457v1.229h-2.457zM117.055 135.448h2.457v1.228h-2.457zM121.848 136.553h1.228v2.457h-1.228zM124.305 136.553h1.229v2.459h-1.229zM126.762 136.553h1.229v2.457h-1.229z"/><path d="M232.145 76.231c5.03 0 9.114 4.08 9.114 9.114 0 5.032-4.084 9.113-9.114 9.113a9.115 9.115 0 0 1 0-18.227zM212.359 41.769c5.031 0 9.114 4.08 9.114 9.113a9.115 9.115 0 1 1-9.114-9.113zM212.359 188.563c5.031 0 9.114 4.079 9.114 9.113 0 5.031-4.083 9.114-9.114 9.114-5.032 0-9.114-4.083-9.114-9.114 0-5.034 4.082-9.113 9.114-9.113z" fill="none" stroke="#9a916c" stroke-width="2.5" stroke-linecap="butt"/><path fill="#9a916c" fill-rule="nonzero" d="M152.561 17.868h5.898v5.898h-5.898zM152.561 7.545h5.898v5.898h-5.898zM191.763 172.705l-3.619-2.088 2.457-4.257 3.621 2.09-2.459 4.255zM199.215 177.006l-3.62-2.088 2.458-4.257 3.62 2.089-2.458 4.256zM207.816 162.106l-3.619-2.088 2.458-4.257 3.618 2.088-2.457 4.257zM200.364 157.804l-3.617-2.088 2.457-4.257 3.621 2.09-2.461 4.255zM156.686 200.936l-2.09-3.619 4.258-2.457 2.089 3.617-4.257 2.459zM160.986 208.382l-2.086-3.615 4.258-2.459 2.086 3.617-4.258 2.457zM175.889 199.781l-2.089-3.615 4.257-2.461 2.086 3.621-4.254 2.455zM171.585 192.333l-2.088-3.619 4.256-2.457 2.089 3.619-4.257 2.457zM202.809 131.673h4.177v4.914h-4.177zM211.409 131.673h4.177v4.914h-4.177zM211.409 114.467h4.177v4.916h-4.177zM202.809 114.467h4.177v4.916h-4.177zM202.201 94.387l-3.621 2.089-2.457-4.257 3.619-2.09 2.459 4.258zM209.649 90.084l-3.618 2.09-2.459-4.257 3.618-2.09 2.459 4.257zM201.046 75.185l-3.619 2.09-2.458-4.258 3.619-2.089 2.458 4.257zM193.596 79.486l-3.619 2.089-2.457-4.257 3.619-2.09 2.457 4.258zM175.218 58.683l-2.088 3.619-4.257-2.459 2.09-3.617 4.255 2.457zM179.519 51.234l-2.088 3.617-4.257-2.457 2.089-3.618 4.256 2.458zM164.621 42.633l-2.089 3.619-4.259-2.459 2.091-3.618 4.257 2.458zM160.319 50.082l-2.09 3.618-4.255-2.458 2.088-3.617 4.257 2.457zM92.53 47.001l2.089 3.617-4.257 2.457-2.089-3.617 4.257-2.457zM88.229 39.551l2.09 3.619-4.257 2.457-2.09-3.619 4.257-2.457zM73.33 48.154l2.09 3.616-4.258 2.458-2.089-3.617 4.257-2.457zM77.63 55.602l2.09 3.617-4.257 2.459-2.09-3.619 4.257-2.457zM59.325 73.982l3.618 2.089-2.457 4.257-3.618-2.089 2.457-4.257zM51.878 69.679l3.615 2.09-2.457 4.257-3.616-2.09 2.458-4.257zM43.275 84.579l3.619 2.089-2.459 4.257-3.618-2.089 2.458-4.257zM50.724 88.879l3.618 2.09-2.458 4.259-3.617-2.092 2.457-4.257zM42.855 113.219h4.177v4.914h-4.177zM34.252 113.219h4.179v4.914h-4.179zM34.252 130.424h4.179v4.914h-4.179zM48.265 157.296l3.618-2.091 2.459 4.258-3.619 2.09-2.458-4.257zM40.817 161.596l3.618-2.089 2.459 4.257-3.619 2.09-2.458-4.258zM49.419 176.496l3.619-2.088 2.457 4.255-3.619 2.09-2.457-4.257zM56.868 172.193l3.619-2.089 2.457 4.257-3.619 2.09-2.457-4.258zM76.495 191.123l2.089-3.619 4.256 2.457-2.088 3.619-4.257-2.457zM72.194 198.572l2.09-3.619 4.255 2.458-2.088 3.619-4.257-2.458zM87.093 207.174l2.09-3.62 4.257 2.459-2.089 3.619-4.258-2.458zM91.394 199.724l2.09-3.619 4.257 2.457-2.09 3.619-4.257-2.457zM90.758 19.117h5.898v5.899h-5.898zM90.758 8.794h5.898v5.899h-5.898zM112.631 114.764h4.424v4.424h-4.424zM132.785 114.764h4.424v4.424h-4.424zM112.631 106.898h4.424v4.424h-4.424zM132.785 106.898h4.424v4.424h-4.424z"/><path d="M18.009 155.349c5.032 0 9.113 4.08 9.113 9.112a9.114 9.114 0 1 1-9.113-9.112zM37.483 42.081a9.113 9.113 0 0 1 9.112 9.113 9.113 9.113 0 0 1-18.225 0 9.113 9.113 0 0 1 9.113-9.113zM17.697 76.231c5.03 0 9.111 4.08 9.111 9.114 0 5.032-4.081 9.113-9.111 9.113a9.114 9.114 0 0 1 0-18.227z" fill="none" stroke="#9a916c" stroke-width="2.5" stroke-linecap="butt"/><path fill="#9a916c" fill-rule="nonzero" d="M94.751 163.093h9.831v9.831h-9.831zM94.751 135.566h9.831v9.831h-9.831zM72.895 174.203l-6.952-6.952 3.477-3.475 6.95 6.952-3.475 3.475zM67.224 135.566h9.831v9.831h-9.831zM86.551 106.504h9.831v5.899h-9.831zM56.074 106.504h9.831v5.899h-9.831zM86.551 126.167h9.831v5.898h-9.831zM56.074 126.167h9.831v5.898h-9.831zM183.937 106.504h9.831v5.899h-9.831zM153.459 106.504h9.832v5.899h-9.832zM183.937 126.167h9.831v5.898h-9.831zM153.459 126.167h9.832v5.898h-9.832zM110.174 151.152h4.916v7.375h-4.916zM110.174 178.679h4.916v7.373h-4.916zM122.464 151.152h4.914v7.375h-4.914zM122.464 178.679h4.914v7.373h-4.914zM134.751 151.152h4.916v7.375h-4.916zM134.751 178.679h4.916v7.373h-4.916z"/><path d="M38.73 189.81a9.113 9.113 0 0 1 9.114 9.113 9.113 9.113 0 1 1-9.114-9.113z" fill="none" stroke="#9a916c" stroke-width="2.5" stroke-linecap="butt"/><path d="M200.46 31.926a2.46 2.46 0 0 1 2.457 2.458 2.459 2.459 0 0 1-2.457 2.457 2.457 2.457 0 1 1 0-4.915M48.76 213.59a2.458 2.458 0 1 1-.002 4.916 2.458 2.458 0 0 1 .002-4.916M110.788 93.008h1.228v3.687h-1.228zM113.245 93.01h1.229v3.687h-1.229zM115.704 93.01h1.228v3.687h-1.228zM118.161 93.01h1.228v3.687h-1.228zM120.62 93.008h1.228v3.687h-1.228zM123.078 93.01h1.228v3.687h-1.228zM125.535 93.01h1.228v3.687h-1.228zM127.992 93.01h1.229v3.687h-1.229zM130.451 93.008h1.228v3.687h-1.228zM132.908 93.008h1.229v3.687h-1.229zM135.365 93.008h1.229v3.687h-1.229zM137.824 93.01h1.228v3.687h-1.228zM140.16 90.676h3.687v1.228h-3.687zM140.16 88.215h3.687v1.229h-3.687zM140.16 85.759h3.687v1.228h-3.687zM140.16 83.301h3.687v1.229h-3.687zM140.16 80.843h3.687v1.228h-3.687zM140.16 78.386h3.687v1.228h-3.687zM140.16 75.929h3.687v1.228h-3.687zM140.16 73.47h3.687v1.228h-3.687zM140.16 71.013h3.687v1.228h-3.687zM140.16 68.556h3.687v1.228h-3.687zM140.16 66.097h3.687v1.228h-3.687zM140.16 63.638h3.687v1.229h-3.687zM137.823 58.846h1.229v3.687h-1.229zM135.365 58.846h1.229v3.687h-1.229zM132.908 58.846h1.229v3.687h-1.229zM130.451 58.846h1.229v3.687h-1.229zM127.992 58.846h1.229v3.687h-1.229zM125.536 58.846h1.228v3.687h-1.228zM123.079 58.846h1.228v3.687h-1.228zM120.622 58.846h1.228v3.687h-1.228zM118.163 58.846h1.228v3.687h-1.228zM115.706 58.846h1.228v3.687h-1.228zM113.247 58.846h1.228v3.687h-1.228zM110.79 58.846h1.228v3.687h-1.228zM105.997 63.638h3.687v1.229h-3.687zM105.997 66.097h3.687v1.228h-3.687zM105.997 68.554h3.687v1.228h-3.687zM105.997 71.013h3.687v1.228h-3.687zM105.997 73.47h3.687v1.229h-3.687zM105.997 75.927h3.687v1.228h-3.687zM105.997 78.384h3.687v1.229h-3.687zM105.997 80.843h3.687v1.228h-3.687zM105.997 83.301h3.687v1.228h-3.687zM105.997 85.759h3.687v1.228h-3.687zM105.997 88.217h3.687v1.229h-3.687zM105.997 90.674h3.687v1.228h-3.687zM113.368 66.22h23.102v23.103h-23.102zM201.08 213.59a2.46 2.46 0 0 1 2.461 2.459 2.46 2.46 0 0 1-4.918 0 2.46 2.46 0 0 1 2.457-2.459" fill="#9a916c" fill-rule="nonzero"/><path d="M181.73 214.091c5.03 0 9.114 4.08 9.114 9.112a9.115 9.115 0 0 1-18.229 0c0-5.032 4.082-9.112 9.115-9.112z" fill="none" stroke="#9a916c" stroke-width="2.5" stroke-linecap="butt"/><path d="M22.62 124.279c0-7.464-6.052-13.516-13.516-13.516H1.24a126.25 126.25 0 0 0-.738 13.516c0 4.569.26 9.076.738 13.517h7.864c7.464 0 13.516-6.052 13.516-13.517m-11.553 8.11a8.108 8.108 0 0 1-8.108-8.11 8.107 8.107 0 0 1 8.108-8.109 8.11 8.11 0 1 1 0 16.219M175.914 35.426c6.466 3.731 14.731 1.517 18.464-4.948l3.931-6.809a126.181 126.181 0 0 0-11.335-7.4 126.145 126.145 0 0 0-12.078-6.118l-3.93 6.81c-3.733 6.465-1.519 14.733 4.948 18.465m-1.249-14.06a8.114 8.114 0 0 1 11.081-2.969 8.114 8.114 0 0 1 2.969 11.079 8.111 8.111 0 1 1-14.05-8.11" fill="#9a916c" fill-rule="nonzero"/><path d="M139.666 241.958h4.918v-25.809H105.26v25.809h4.914v3.686h29.492v-3.686z" fill="#666" fill-rule="nonzero"/><path d="M134.751 235.812v-14.747M115.089 235.812v-14.747" fill="none" stroke="#000" stroke-width="4.92" stroke-linecap="butt"/><path fill="#333" fill-rule="nonzero" d="M132.294 216.151h4.916v4.916h-4.916zM112.63 216.151h4.916v4.916h-4.916zM140.647 208.778h3.935v7.373h-3.935zM105.258 208.778h3.933v7.373h-3.933z"/><path fill="#dcdcdc" fill-rule="nonzero" d="M128.117 203.861h3.439v12.289h-3.439zM118.285 203.861h3.44v12.289h-3.44z"/><path fill="#b4b4b4" fill-rule="nonzero" d="M105.258 9.586h39.324v6.883h-39.324z"/><path fill="#dcdcdc" fill-rule="nonzero" d="M124.428 22.98h.983v5.899h-.983zM121.232 22.98h.983v5.899h-.983zM118.038 22.98h.983v5.899h-.983zM127.624 22.98h.983v5.899h-.983zM130.82 22.98h.981v5.899h-.981z"/><path fill="#b4b4b4" fill-rule="nonzero" d="M112.633 25.068h24.577v1.229h-24.577z"/><path d="M112.633 23.228h24.577" fill="none" stroke="#000" stroke-width="5.16" stroke-linecap="butt"/><path d="M119.021 22.857v-1.229h2.458v4.425h6.882v-4.425h2.458v1.229h3.932v3.687h8.849V2.95h-37.359v23.594h8.848v-3.687h3.932z" fill="#dcdcdc" fill-rule="nonzero"/><path d="M137.455 15.237h-2.457l-.493-7.373h3.441l-.491 7.373zM114.844 15.237h-2.459l-.491-7.373h3.441l-.491 7.373z" fill-rule="nonzero"/><path d="M142.616 2.95h-35.392l.985-2.95 33.425.002.982 2.948z" fill="#f0f0f0" fill-rule="nonzero"/><path d="M143.6 2.95h-.984L143.6.002h.982L143.6 2.95zM107.224 2.95h-.983L105.258 0h.983l.983 2.95z" fill="#b4b4b4" fill-rule="nonzero"/><path fill="#dcdcdc" fill-rule="nonzero" d="M148.116 220.932h4.177v17.696h-4.177z"/><path fill="#303030" fill-rule="nonzero" d="M146.15 223.145h8.11v13.271h-8.11z"/><path fill="#4d4d4d" fill-rule="nonzero" d="M146.162 232.72h8.093v2.346h-8.093z"/><path d="M221.217 159.236c-2.555 7.016 1.063 14.771 8.077 17.324l7.389 2.691a125.617 125.617 0 0 0 5.318-12.451 125.02 125.02 0 0 0 3.928-12.955l-7.389-2.688c-7.014-2.554-14.771 1.065-17.323 8.079m13.628-3.671a8.111 8.111 0 1 1-5.547 15.242 8.111 8.111 0 0 1 5.547-15.242" fill="#9a916c" fill-rule="nonzero"/><path d="M101.511 223.372v14.056c0 .26-.21.47-.469.47h-6.554a.468.468 0 0 1-.469-.47v-14.056c0-.259.208-.469.469-.469h6.554a.468.468 0 0 1 .469.469" fill="#dcdcdc" fill-rule="nonzero"/><path fill="#333" fill-rule="nonzero" d="M94.019 225.246h7.491v10.309h-7.491z"/><path d="M73.614 35.738c6.465-3.732 8.679-12 4.948-18.465l-3.931-6.808a125.781 125.781 0 0 0-12.077 6.118 126.415 126.415 0 0 0-11.337 7.399l3.933 6.809c3.731 6.464 11.998 8.68 18.464 4.947M60.813 29.79a8.11 8.11 0 0 1 2.969-11.079 8.111 8.111 0 1 1-2.969 11.079M227.222 124.277c0 7.465 6.05 13.517 13.517 13.517h7.861c.478-4.441.742-8.948.742-13.517 0-4.568-.264-9.073-.742-13.515h-7.861c-7.467 0-13.517 6.052-13.517 13.515m11.551-8.109a8.11 8.11 0 0 1 8.112 8.109 8.112 8.112 0 0 1-16.221 0 8.107 8.107 0 0 1 8.109-8.109M73.926 213.134c-6.464-3.734-14.732-1.518-18.464 4.945l-3.931 6.808a125.698 125.698 0 0 0 11.335 7.403 126.683 126.683 0 0 0 12.077 6.115l3.931-6.809c3.733-6.462 1.519-14.732-4.948-18.462m1.249 14.056a8.109 8.109 0 0 1-11.079 2.969 8.109 8.109 0 0 1-2.969-11.077 8.109 8.109 0 0 1 11.078-2.969c3.88 2.24 5.21 7.2 2.97 11.077" fill="#9a916c" fill-rule="nonzero"/><path fill="#333" fill-rule="nonzero" d="M117.548 123.772h14.745v14.747h-14.745z"/><path d="M221.215 89.321c2.554 7.015 10.311 10.632 17.325 8.079l7.389-2.689a125.601 125.601 0 0 0-3.928-12.956 125.784 125.784 0 0 0-5.318-12.449l-7.389 2.69c-7.014 2.553-10.632 10.311-8.079 17.325m8.083-11.571a8.109 8.109 0 1 1 5.547 15.242 8.11 8.11 0 1 1-5.547-15.242M203.449 58.357c4.8 5.719 13.327 6.465 19.044 1.667l6.021-5.055a125.03 125.03 0 0 0-8.121-10.829 126.448 126.448 0 0 0-9.253-9.88l-6.024 5.054c-5.721 4.8-6.465 13.324-1.667 19.043m3.638-13.638a8.11 8.11 0 0 1 10.424 12.426 8.108 8.108 0 0 1-11.424-1 8.105 8.105 0 0 1 1-11.426M203.449 190.2c-4.798 5.719-4.052 14.246 1.668 19.042l6.023 5.055a126.485 126.485 0 0 0 9.255-9.881 124.611 124.611 0 0 0 8.12-10.829l-6.022-5.053c-5.717-4.8-14.244-4.053-19.044 1.666m14.064 1.211c3.431 2.88 3.881 7.997 1 11.427a8.107 8.107 0 0 1-11.426.999c-3.433-2.878-3.879-7.992-.999-11.426a8.11 8.11 0 0 1 11.425-1" fill="#9a916c" fill-rule="nonzero"/><path d="M158.581 11.23v8.849a.49.49 0 0 1-.489.491h-5.166a.492.492 0 0 1-.489-.491v-8.847a.49.49 0 0 1 .489-.491h5.166a.488.488 0 0 1 .489.489" fill="#dcdcdc" fill-rule="nonzero"/><path fill="red" fill-rule="nonzero" d="M152.439 12.583h6.144v6.144h-6.144z"/><path d="M187.447 167.376l2.457-4.257 4.257 2.457-2.457 4.257-4.257-2.457z" fill="#fff" fill-rule="nonzero"/><path d="M210.947 161.078l-8.601 14.899-12.771-7.373-.9-3.359 7.373-12.768 14.899 8.601z" fill-rule="nonzero"/><path d="M192.814 160.54a7.374 7.374 0 1 1 2.698 10.072 7.371 7.371 0 0 1-2.698-10.072" fill="#c8c8c8" fill-rule="nonzero"/><path d="M196.017 165.803l-4.143-2.391a7.582 7.582 0 0 0 .137 2.348l3.024 1.743-1.077 1.866c.457.466.958.898 1.552 1.241l4.18-7.234 6.301 3.634c.262-.641.456-1.299.531-1.964l-5.847-3.375 2.211-3.831c-.595-.341-1.219-.56-1.851-.724l-5.018 8.687z" fill="#fff" fill-rule="nonzero"/><path d="M193.284 163.657l1.968-3.406 2.551 1.475-1.963 3.406-2.556-1.475z" fill="#1e1432" fill-rule="nonzero"/><path d="M155.614 194.159l4.256-2.457 2.459 4.257-4.256 2.457-2.459-4.257z" fill="#fff" fill-rule="nonzero"/><path d="M179.115 200.457l-14.9 8.601-7.373-12.769c.35-1.311.551-2.048.902-3.359l12.768-7.374 8.603 14.901z" fill-rule="nonzero"/><path d="M163.681 190.923a7.373 7.373 0 0 1 7.374 12.768 7.372 7.372 0 1 1-7.374-12.768" fill="#c8c8c8" fill-rule="nonzero"/><path d="M163.825 197.085l-2.393-4.145a7.36 7.36 0 0 0-1.056 2.102l1.745 3.021-1.866 1.078c.163.637.381 1.261.725 1.856l7.238-4.179 3.638 6.298c.548-.425 1.042-.895 1.441-1.438l-3.376-5.845 3.832-2.21c-.345-.594-.777-1.097-1.243-1.557l-8.685 5.019z" fill="#fff" fill-rule="nonzero"/><path d="M162.528 193.857l3.408-1.966 1.472 2.554-3.404 1.968-1.476-2.556z" fill="#1e1432" fill-rule="nonzero"/><path d="M203.042 134.13v-4.916" fill="none" stroke="#fff" stroke-width="4.92" stroke-linecap="butt"/><path d="M217.787 116.925v17.203H203.04c-.959-.957-1.495-1.496-2.457-2.457v-14.746h17.204z" fill-rule="nonzero"/><path d="M201.814 125.527c0-4.073 3.3-7.373 7.373-7.373a7.373 7.373 0 1 1 0 14.747 7.373 7.373 0 0 1-7.373-7.374" fill="#c8c8c8" fill-rule="nonzero"/><path d="M207.221 128.482h-4.785c.321.729.77 1.384 1.292 1.967h3.491v2.153c.63.176 1.28.299 1.968.299v-8.357h7.273c-.092-.688-.253-1.352-.524-1.966h-6.749v-4.424c-.686 0-1.338.123-1.966.298v10.03z" fill="#fff" fill-rule="nonzero"/><path fill="#1e1432" fill-rule="nonzero" d="M203.78 124.059h2.948v3.933h-2.948z"/><path d="M195.424 95.458l-2.459-4.257 4.257-2.459 2.459 4.259-4.257 2.457z" fill="#fff" fill-rule="nonzero"/><path d="M201.722 71.958l8.603 14.899-12.772 7.373c-1.309-.352-2.046-.551-3.359-.9l-7.373-12.771 14.901-8.601z" fill-rule="nonzero"/><path d="M192.186 87.393a7.375 7.375 0 0 1 2.702-10.073 7.371 7.371 0 0 1 10.07 2.7 7.371 7.371 0 0 1-2.697 10.071 7.377 7.377 0 0 1-10.075-2.698" fill="#c8c8c8" fill-rule="nonzero"/><path d="M198.349 87.247l-4.144 2.392c.64.471 1.358.816 2.101 1.059l3.023-1.746 1.077 1.866c.636-.163 1.259-.383 1.855-.725l-4.177-7.238 6.296-3.637c-.423-.549-.894-1.043-1.435-1.441l-5.848 3.373-2.209-3.83c-.595.345-1.098.777-1.556 1.243l5.017 8.684z" fill="#fff" fill-rule="nonzero"/><path d="M195.124 88.544l-1.968-3.405 2.556-1.474 1.966 3.402-2.554 1.477z" fill="#1e1432" fill-rule="nonzero"/><path d="M169.889 63.001l-4.255-2.457 2.457-4.259 4.256 2.457-2.458 4.259z" fill="#fff" fill-rule="nonzero"/><path d="M163.593 39.499l14.899 8.603-7.373 12.77c-1.309.352-2.048.549-3.359.9l-12.77-7.374 8.603-14.899z" fill-rule="nonzero"/><path d="M163.052 57.634a7.374 7.374 0 1 1 7.378-12.77 7.374 7.374 0 0 1-7.378 12.77" fill="#c8c8c8" fill-rule="nonzero"/><path d="M168.316 54.43l-2.391 4.141a7.325 7.325 0 0 0 2.35-.136l1.743-3.02 1.866 1.076c.466-.459.898-.96 1.241-1.555l-7.236-4.179 3.636-6.298a7.27 7.27 0 0 0-1.965-.531l-3.374 5.846-3.831-2.211c-.343.593-.562 1.219-.725 1.852l8.686 5.015z" fill="#fff" fill-rule="nonzero"/><path d="M166.171 57.163l-3.407-1.965 1.477-2.556 3.406 1.968-1.476 2.553z" fill="#1e1432" fill-rule="nonzero"/><path d="M93.603 53.774l-4.259 2.457-2.459-4.257 4.261-2.457 2.457 4.257z" fill="#fff" fill-rule="nonzero"/><path d="M70.101 47.476L85 38.875l7.375 12.771c-.353 1.311-.551 2.045-.901 3.356l-12.772 7.375-8.601-14.901z" fill-rule="nonzero"/><path d="M85.538 57.01a7.372 7.372 0 0 1-10.073-2.698 7.375 7.375 0 0 1 12.771-7.375c2.036 3.529.829 8.039-2.698 10.073" fill="#c8c8c8" fill-rule="nonzero"/><path d="M85.392 50.85l2.392 4.141a7.358 7.358 0 0 0 1.057-2.101l-1.744-3.021 1.864-1.077c-.163-.635-.381-1.259-.725-1.854l-7.238 4.178-3.636-6.298a7.285 7.285 0 0 0-1.441 1.435l3.374 5.846-3.83 2.213c.343.593.775 1.096 1.241 1.553l8.686-5.015z" fill="#fff" fill-rule="nonzero"/><path d="M86.688 54.076l-3.406 1.966-1.474-2.554 3.404-1.968 1.476 2.556z" fill="#1e1432" fill-rule="nonzero"/><path d="M63.642 79.31l-2.458 4.258-4.259-2.458 2.459-4.257 4.258 2.457z" fill="#fff" fill-rule="nonzero"/><path d="M40.141 85.607l8.601-14.899 12.772 7.373c.35 1.311.548 2.048.9 3.357l-7.374 12.77-14.899-8.601z" fill-rule="nonzero"/><path d="M58.275 86.146a7.372 7.372 0 0 1-10.072 2.698 7.371 7.371 0 0 1-2.698-10.071 7.372 7.372 0 0 1 10.071-2.698 7.372 7.372 0 0 1 2.699 10.071" fill="#c8c8c8" fill-rule="nonzero"/><path d="M55.07 80.883l4.143 2.391a7.404 7.404 0 0 0-.137-2.349l-3.021-1.743 1.077-1.866c-.46-.468-.961-.9-1.556-1.241l-4.179 7.236-6.298-3.638a7.303 7.303 0 0 0-.531 1.966l5.846 3.375-2.211 3.83c.593.344 1.219.562 1.852.725l5.015-8.686z" fill="#fff" fill-rule="nonzero"/><path d="M57.805 83.028l-1.967 3.408-2.554-1.476 1.966-3.407 2.555 1.475z" fill="#1e1432" fill-rule="nonzero"/><path d="M46.798 120.594v-4.916" fill="none" stroke="#fff" stroke-width="4.92" stroke-linecap="butt"/><path d="M32.053 132.882v-17.204H46.8c.961.957 1.5 1.496 2.457 2.457v14.747H32.053z" fill-rule="nonzero"/><path d="M48.028 124.279a7.374 7.374 0 0 1-14.747 0 7.374 7.374 0 0 1 14.747 0" fill="#c8c8c8" fill-rule="nonzero"/><path d="M42.621 121.324h4.783a7.393 7.393 0 0 0-1.292-1.965h-3.489v-2.155c-.632-.175-1.282-.297-1.969-.297v8.355H33.38c.092.688.255 1.354.524 1.968h6.75v4.424c.685 0 1.337-.125 1.967-.298v-10.032z" fill="#fff" fill-rule="nonzero"/><path fill="#1e1432" fill-rule="nonzero" d="M43.113 121.816h2.95v3.933h-2.95z"/><path d="M55.04 156.222l2.458 4.258-4.258 2.457-2.458-4.257 4.258-2.458z" fill="#fff" fill-rule="nonzero"/><path d="M48.742 179.723l-8.601-14.901 12.77-7.374c1.311.353 2.046.552 3.357.902l7.374 12.772-14.9 8.601z" fill-rule="nonzero"/><path d="M58.276 164.288a7.372 7.372 0 0 1-2.698 10.071 7.376 7.376 0 0 1-10.073-2.698 7.377 7.377 0 0 1 2.7-10.075 7.374 7.374 0 0 1 10.071 2.702" fill="#c8c8c8" fill-rule="nonzero"/><path d="M52.117 164.432l4.143-2.392a7.347 7.347 0 0 0-2.106-1.057l-3.019 1.744-1.077-1.866c-.636.167-1.259.385-1.853.725l4.177 7.238-6.298 3.64c.423.548.896 1.04 1.436 1.441l5.847-3.378 2.211 3.832c.593-.343 1.096-.777 1.554-1.24l-5.015-8.687z" fill="#fff" fill-rule="nonzero"/><path d="M55.342 163.136l1.965 3.408-2.553 1.472-1.968-3.406 2.556-1.474z" fill="#1e1432" fill-rule="nonzero"/><path d="M81.825 186.807l4.257 2.459-2.457 4.257-4.257-2.459 2.457-4.257z" fill="#fff" fill-rule="nonzero"/><path d="M88.122 210.309l-14.9-8.603 7.374-12.77c1.311-.354 2.046-.551 3.357-.902l12.77 7.374-8.601 14.901z" fill-rule="nonzero"/><path d="M88.659 192.174a7.371 7.371 0 0 1 2.7 10.071 7.37 7.37 0 0 1-10.073 2.697 7.374 7.374 0 0 1-2.698-10.072 7.367 7.367 0 0 1 10.071-2.696" fill="#c8c8c8" fill-rule="nonzero"/><path d="M83.398 195.377l2.391-4.141a7.403 7.403 0 0 0-2.349.135l-1.743 3.022-1.866-1.077c-.468.458-.9.959-1.242 1.554l7.237 4.179-3.638 6.3a7.346 7.346 0 0 0 1.964.531l3.377-5.847 3.83 2.212c.344-.595.562-1.221.725-1.852l-8.686-5.016z" fill="#fff" fill-rule="nonzero"/><path d="M85.543 192.644l3.406 1.966-1.476 2.554-3.406-1.966 1.476-2.554z" fill="#1e1432" fill-rule="nonzero"/><path d="M96.778 12.479v8.849c0 .27-.22.49-.49.49h-5.163a.492.492 0 0 1-.491-.49V12.48c0-.272.221-.491.491-.491h5.163c.27-.002.49.219.49.49" fill="#dcdcdc" fill-rule="nonzero"/><path fill="#0f0" fill-rule="nonzero" d="M90.634 13.831h6.144v6.144h-6.144z"/><path d="M93.707 15.919a.983.983 0 1 1 0 1.966.983.983 0 0 1 0-1.966" fill="#00b400" fill-rule="nonzero"/><path d="M116.318 118.204v2.211h17.206v-2.211h2.457v-2.457h-2.457v-5.409h2.457v-2.457h-2.457v-2.212h-17.206v2.212h-2.457v2.457h2.457v5.409h-2.457v2.457h2.457z" fill="#dcdcdc" fill-rule="nonzero"/><path d="M124.921 117.342a4.298 4.298 0 0 1-4.301-4.3 4.3 4.3 0 1 1 4.301 4.3" fill="#1e1e1e" fill-rule="nonzero"/><path fill="#b4b4b4" fill-rule="nonzero" d="M133.279 105.669h.98v14.747h-.98zM115.581 105.669h.983v14.747h-.983z"/><path d="M28.937 160.485c-2.554-7.015-10.311-10.632-17.325-8.078l-7.387 2.69a125.553 125.553 0 0 0 3.926 12.954 126.068 126.068 0 0 0 5.32 12.449l7.387-2.69c7.014-2.552 10.632-10.309 8.079-17.325m-8.082 11.573a8.11 8.11 0 1 1-5.547-15.242 8.11 8.11 0 0 1 5.547 15.242" fill="#9a916c" fill-rule="nonzero"/><path serif:id="touch" d="M46.391 58.669c4.798-5.717 4.052-14.242-1.667-19.04l-6.022-5.055a126.276 126.276 0 0 0-9.257 9.879 126.608 126.608 0 0 0-8.12 10.828l6.022 5.055c5.719 4.8 14.246 4.053 19.044-1.667m-14.064-1.21a8.11 8.11 0 1 1 10.427-12.426 8.11 8.11 0 0 1 .999 11.426 8.11 8.11 0 0 1-11.426 1M28.623 89.323c2.555-7.014-1.061-14.773-8.079-17.325l-7.387-2.69a125.784 125.784 0 0 0-5.318 12.449 125.849 125.849 0 0 0-3.928 12.956l7.389 2.689c7.016 2.553 14.771-1.065 17.323-8.079m-13.63 3.669a8.107 8.107 0 0 1-4.845-10.394 8.108 8.108 0 0 1 10.393-4.847 8.113 8.113 0 0 1 4.85 10.395 8.112 8.112 0 0 1-10.398 4.846" fill="#9a916c" fill-rule="nonzero"/><path d="M104.022 172.993H74.528l-7.373-7.373v-29.494h36.867v36.867z" fill="#dcdcdc" fill-rule="nonzero"/><path fill="#dcdcdc" fill-rule="nonzero" d="M100.299 152.052h3.723v1.966h-3.723z"/><path d="M73.299 136.126h24.577l6.146 6.144v24.579l-6.146 6.144H73.299l-6.144-6.144V142.27l6.144-6.144z" fill="#333" fill-rule="nonzero"/><path d="M68.114 155.123l3.088-1.868 3.089-1.865.071 3.606.073 3.607-3.162-1.741-3.159-1.739z" fill="#4d4d4d" fill-rule="nonzero"/><path d="M97.278 169.339a3.416 3.416 0 0 1 0-6.832 3.415 3.415 0 1 1 0 6.832" fill="#666" fill-rule="nonzero"/><path d="M97.597 163.832v1.886h1.886v.576h-1.886v1.887h-.569v-1.887h-1.887v-.576h1.887v-1.886h.569z" fill-rule="nonzero"/><path d="M60.498 130.591v3.439h31.458v-3.439h2.949v-2.948h-2.949v-16.715h2.949v-2.95h-2.949v-3.438H60.498v3.438h-2.95v2.95h2.95v16.715h-2.95v2.948h2.95z" fill="#dcdcdc" fill-rule="nonzero"/><path d="M76.226 126.658a7.374 7.374 0 1 1 .001-14.747 7.374 7.374 0 0 1-.001 14.747" fill="#1e1e1e" fill-rule="nonzero"/><path fill="#b4b4b4" fill-rule="nonzero" d="M91.382 104.538h.983v29.493h-.983zM60.005 104.538h.983v29.493h-.983z"/><path d="M157.886 130.591v3.439h31.456v-3.439h2.952v-2.948h-2.952v-16.715h2.952v-2.95h-2.952v-3.438h-31.456v3.438h-2.95v2.95h2.95v16.715h-2.95v2.948h2.95z" fill="#dcdcdc" fill-rule="nonzero"/><path d="M173.614 126.658a7.375 7.375 0 1 1 0-14.75 7.375 7.375 0 0 1 0 14.75" fill="#1e1e1e" fill-rule="nonzero"/><path fill="#b4b4b4" fill-rule="nonzero" d="M188.77 104.538h.982v29.493h-.982zM157.393 104.538h.983v29.493h-.983z"/><path fill="#dcdcdc" fill-rule="nonzero" d="M135.325 153.864h3.988v29.48h-3.988zM123.013 153.864h3.988v29.48h-3.988zM110.701 153.864h3.988v29.48h-3.988z"/><path fill="#b4b4b4" fill-rule="nonzero" d="M135.325 158.718h3.988v19.595h-3.988zM123.013 158.718h3.988v19.595h-3.988zM110.701 158.718h3.988v19.595h-3.988z"/><path fill-rule="nonzero" d="M107.753 159.933h34.335v17.166h-34.335z"/><path d="M139.659 177.274v-5.029h2.429v-7.286h-2.429v-5.026h-7.282v5.026h-14.741v-5.026h-7.455v5.026h-2.428v7.286h2.428v5.029h29.478z" fill="#dcdcdc" fill-rule="nonzero"/><path fill="#333" fill-rule="nonzero" d="M124.921 159.933h7.457v4.855h-7.457z"/><path d="M121.279 166.176a2.427 2.427 0 1 1-.002 4.854 2.427 2.427 0 0 1 .002-4.854M128.561 166.176a2.427 2.427 0 1 1 0 4.855 2.427 2.427 0 0 1 0-4.855" fill="#b4b4b4" fill-rule="nonzero"/><path serif:id="touch JACK_TX" d="M47.641 191.451c-4.8-5.719-13.325-6.467-19.044-1.667l-6.022 5.053a125.712 125.712 0 0 0 8.121 10.83 125.897 125.897 0 0 0 9.256 9.879l6.023-5.055c5.719-4.795 6.464-13.321 1.666-19.04m-3.638 13.636a8.11 8.11 0 1 1-10.425-12.426 8.113 8.113 0 0 1 11.426 1 8.109 8.109 0 0 1-1.001 11.426" fill="#9a916c" fill-rule="nonzero"/><path fill="#333" fill-rule="nonzero" d="M107.282 60.492h34.41v34.41h-34.41z"/><path serif:id="#asdda" d="M175.914 213.132c-6.465 3.73-8.681 12-4.948 18.463l3.931 6.81a126.018 126.018 0 0 0 12.078-6.117 125.814 125.814 0 0 0 11.334-7.401l-3.929-6.808c-3.734-6.464-11.998-8.681-18.466-4.947m12.802 5.95a8.11 8.11 0 1 1-11.081-2.969 8.108 8.108 0 0 1 11.081 2.969" fill="#9a916c" fill-rule="nonzero"/><circle cx="67.762" cy="25.68" r="7.84" fill="#fff"/><circle serif:id="touch" cx="37.371" cy="51.145" r="7.84" fill="#fff"/><circle serif:id="touch" cx="17.724" cy="85.368" r="7.84" fill="#fff"/><circle cx="10.961" cy="124.314" r="7.84" fill="#fff"/><circle serif:id="touch" cx="18.073" cy="164.367" r="7.84" fill="#fff"/><circle serif:id="touch JACK_TX" cx="38.712" cy="198.823" r="7.84" fill="#fff"/><circle cx="68.038" cy="223.193" r="7.84" fill="#fff"/><circle cx="181.609" cy="223.193" r="7.84" fill="#fff"/><circle cx="212.334" cy="197.774" r="7.84" fill="#fff"/><circle serif:id="touch croc" cx="232.098" cy="163.142" r="7.84" fill="#fff"/><circle cx="238.861" cy="124.255" r="7.84" fill="#fff"/><circle serif:id="touch croc" cx="232.098" cy="85.193" r="7.84" fill="#fff"/><circle serif:id="touch croc" cx="212.334" cy="50.854" r="7.84" fill="#fff"/><circle cx="181.667" cy="25.318" r="7.84" fill="#fff"/><path d="M154.513 154.776a7.374 7.374 0 1 1 0-14.748 7.374 7.374 0 0 1 0 14.748" fill="#1e1e1e" fill-rule="nonzero"/><text x="165.561" y="152.185" font-family="'LucidaGrande','Lucida Grande',sans-serif" font-weight="500" font-size="13.333" fill="#fff">AB</text></svg>