<svg xmlns="http://www.w3.org/2000/svg" viewBox="0 0 200 152" fill-rule="evenodd" clip-rule="evenodd" id="svg8280">
  <path d="M133.3 144c0 1.6 2.4 1.6 2.4 0s-2.4-1.6-2.4 0zm-7.2 0a1.2 1.2 0 0 0 2.4 0c0-1.6-2.3-1.6-2.4 0zm-7.2 0c0 1.6 2.4 1.6 2.4 0s-2.4-1.6-2.4 0zm-7.2 0a1.2 1.2 0 0 0 2.4 0c0-1.6-2.4-1.6-2.4 0zm-7.2 0c0 1.6 2.4 1.6 2.4 0s-2.4-1.6-2.4 0zm-7.2 0c0 1.6 2.4 1.6 2.4 0s-2.4-1.6-2.4 0zM83 144a1.2 1.2 0 0 0 2.4 0c0-1.6-2.4-1.6-2.4 0zm7.2 0c0 1.6 2.4 1.6 2.4 0s-2.4-1.6-2.4 0zM133.3 7.2c0 1.6 2.4 1.6 2.4 0s-2.4-1.6-2.4 0zm7.2 0c0 1.6 2.4 1.6 2.4 0s-2.4-1.6-2.4 0zm7.2 0c0 1.6 2.4 1.6 2.4 0s-2.4-1.6-2.4 0zm7.2 0c0 1.5 2.4 1.5 2.4 0 0-1.6-2.4-1.6-2.4 0zm7.2 0c0 1.6 2.4 1.6 2.4 0s-2.4-1.6-2.4 0zm7.2 0c0 1.6 2.4 1.6 2.4 0s-2.4-1.6-2.4 0zm7.2 0c0 1.6 2.4 1.6 2.4 0s-2.4-1.6-2.4 0zm7.2 0c0 1.6 2.4 1.6 2.4 0s-2.4-1.6-2.4 0zM57 7.2c0 1.6 2.4 1.6 2.4 0S57 5.6 57 7.2zm7.2 0c0 1.6 2.4 1.6 2.4 0s-2.4-1.6-2.4 0zm7.2 0c0 1.6 2.4 1.6 2.4 0 0-1.7-2.4-1.7-2.4 0zm7.2 0c0 1.6 2.4 1.6 2.4 0s-2.4-1.6-2.4 0zm7.2 0c0 1.6 2.4 1.6 2.4 0s-2.4-1.6-2.4 0zm7.2 0a1.2 1.2 0 1 0 2.4 0c0-1.5-2.3-1.5-2.4 0zm7.2 0c0 1.6 2.4 1.6 2.4 0s-2.4-1.6-2.4 0zm7.2 0c0 1.5 2.4 1.5 2.4 0 0-1.6-2.4-1.6-2.4 0zm7.2 0c0 1.6 2.4 1.6 2.4 0 0-1.5-2.3-1.5-2.4 0zm7.2 0c0 1.6 2.4 1.6 2.4 0s-2.4-1.6-2.4 0zm62 136.8c-.1 1.7 2.4 1.7 2.3 0 0-1.6-2.4-1.6-2.4 0zm-7.3 0c0 1.5 2.4 1.5 2.4 0a1.2 1.2 0 0 0-2.4 0zm-7.2 0c0 1.6 2.4 1.6 2.4 0s-2.4-1.6-2.4 0zm-7.2 0c0 1.6 2.4 1.6 2.4 0 .1-1.7-2.4-1.7-2.4 0zm-7.2 0c0 1.6 2.4 1.6 2.4 0s-2.4-1.6-2.4 0zm-7.2 0c0 1.6 2.4 1.6 2.4 0s-2.3-1.6-2.4 0zM40 144a4.5 4.5 0 0 0 9 0c0-6-8.9-6-9 0zM43.6 7.2c0 6 9 6 9 0s-8.9-6-9 0zm144 122.4c0 6 9 6 9 0a4.5 4.5 0 0 0-9 0zm0-79.2a4.5 4.5 0 1 0 9 0 4.5 4.5 0 0 0-9 0zm.2-50.4l4.3 4.3v32.4l7.2 7.2v92.9l-7.2 7.2v4.4c0 1.5-1.2 2.8-2.8 2.8H7.8a2.8 2.8 0 0 1-2.9-2.8V2.8A3 3 0 0 1 7.8 0h180" id="path6330" fill="none" stroke="#000"/>
  <path fill="#232323" fill-rule="nonzero" d="M4.5 117.2h33v23.7h-33z" id="path6334"/>
  <path fill="#494949" fill-rule="nonzero" d="M5 117.8h32v1.6H5z" id="path6336"/>
  <path fill-rule="nonzero" d="M4 138.8h33v1.6H4z" id="path6340"/>
  <path fill-opacity=".5" fill-rule="nonzero" d="M34.5 117.2h.3v23.7h-.3z" id="path6346"/>
  <path fill-opacity=".3" d="M6.7 117.2H8V141H6.7z" id="path6348"/>
  <path fill="#232323" fill-rule="nonzero" d="M0 116.3h7.7v25.5H0z" id="path6356"/>
  <path fill="#6d6d6d" fill-rule="nonzero" d="M37.4 126.2h1.7v5.7h-1.7zM26 141h5.7v1.7H26z" id="path6358"/>
  <path fill="#494949" fill-rule="nonzero" d="M37.4 123.4h1v11.3h-1zM23.2 141h11.3v1H23.2zM.7 116.7H7v1H.7z" id="path6360"/>
  <path fill-rule="nonzero" d="M.7 140.4H7v1H.7z" id="path6362"/>
  <path d="M18.2 52.7V33.8H1v18.9h17.2z" fill="#c2c2c3" fill-rule="nonzero" id="path6492"/>
  <path fill="#7c7c7d" fill-rule="nonzero" d="M8.5 31.8h3v1.9h-3zm0 21.1h3v1.9h-3z" id="path6494"/>
  <path fill="#d7d7d7" fill-rule="nonzero" d="M18 33.9h.2v18.8H18z" id="path6496"/>
  <path fill="#454545" fill-rule="nonzero" d="M1.3 38.1h16.9v10.3H1.3z" id="path6498"/>
  <path fill="#c2c2c3" fill-rule="nonzero" d="M1 53h.6v1H1z" id="path6500"/>
  <path fill="#d7d7d7" fill-rule="nonzero" d="M1 53h.6v.6H1z" id="path6502"/>
  <path fill="#c2c2c3" fill-rule="nonzero" d="M1 32.7h.6v1H1z" id="path6504"/>
  <path fill="#d7d7d7" fill-rule="nonzero" d="M1 33h.6v.7H1zm16.6 20l.6-.3v-2.5s-.1 2.3-.3 2.3h-.3v.4zm0-19.3l.6.2v2.5s-.1-2.3-.3-2.4l-.3.1v-.4z" id="path6506"/>
  <path d="M17.6 37h-1v1.6h1.6v.5h-.6v8.4h.6v.5h-1.7v1.6h1.1v3.3H1.2V33.7h16.4V37zM4.3 48h-.8v1.6h.9c.3.4.7.7 1.3.7.6 0 1-.2 1.4-.7h4.4V48H7.1a1.6 1.6 0 0 0-1.4-.8c-.6 0-1.1.3-1.4.8zm0-10.9h-.8v1.6h.9c.3.4.7.7 1.3.7.6 0 1-.2 1.4-.7h4.4v-1.6H7.1a1.6 1.6 0 0 0-1.4-.8c-.6 0-1.1.3-1.4.8z" fill="#ececec" fill-rule="nonzero" id="path6508"/>
  <path d="M17.6 53v-1.6L1.2 52.5v.4h16.4z" fill="#f5f6f6" fill-rule="nonzero" id="path6510"/>
  <path d="M17.6 34.8v-1.1H1.2l11 .5 5.4.6z" fill="#acacac" fill-rule="nonzero" id="path6512"/>
  <path fill="#d7d7d7" fill-rule="nonzero" d="M11.4 48h.1v1.6zm0-10.9h.1v1.6z" id="path6514"/>
  <path fill="#c2c2c3" fill-rule="nonzero" d="M1.4 34.6H2V52h-.6z" id="path6516"/>
  <path fill="#d7d7d7" fill-rule="nonzero" d="M1.2 34.6h.3V52h-.3z" id="path6518"/>
  <path fill-rule="nonzero" d="M34.3 56.3h7.3-7.3z" id="path7438"/>
  <path d="M150.4 144a1.6 1.6 0 1 1-3.2 0 1.6 1.6 0 0 1 3.2 0z" fill="none" stroke="#9a916c" stroke-width=".8" id="path7634"/>
  <path d="M147.2 140.3h3.2v7.4h-3.2v-7.4m0 3.7c0 .9.7 1.6 1.6 1.6a1.6 1.6 0 1 0 0-3.2c-.9 0-1.6.7-1.6 1.6z" fill="#9a916c" id="path7636"/>
  <path d="M157.6 144a1.6 1.6 0 1 1-3.2 0 1.6 1.6 0 0 1 3.2 0z" fill="none" stroke="#9a916c" stroke-width=".8" id="path7638"/>
  <path d="M154.4 140.3h3.2v7.4h-3.2v-7.4m0 3.7c0 .9.7 1.6 1.6 1.6a1.6 1.6 0 1 0-1.6-1.6z" fill="#9a916c" id="path7640"/>
  <path d="M164.8 144a1.6 1.6 0 1 1-3.2 0 1.6 1.6 0 0 1 3.2 0z" fill="none" stroke="#9a916c" stroke-width=".8" id="path7642"/>
  <path d="M161.6 140.3h3.2v7.4h-3.2v-7.4m0 3.7a1.6 1.6 0 0 0 3.2 0 1.6 1.6 0 0 0-1.6-1.6c-.9 0-1.6.7-1.6 1.6z" fill="#9a916c" id="path7644"/>
  <path d="M172 144a1.6 1.6 0 1 1-3.2 0 1.6 1.6 0 0 1 3.2 0z" fill="none" stroke="#9a916c" stroke-width=".8" id="path7646"/>
  <path d="M168.8 140.3h3.2v7.4h-3.2v-7.4m0 3.7a1.6 1.6 0 1 0 3.2 0 1.6 1.6 0 0 0-1.6-1.6 1.6 1.6 0 0 0-1.6 1.6z" fill="#9a916c" id="path7648"/>
  <path d="M179.2 144a1.6 1.6 0 1 1-3.2 0 1.6 1.6 0 0 1 3.2 0z" fill="none" stroke="#9a916c" stroke-width=".8" id="path7650"/>
  <path d="M176 140.3h3.2v7.4H176v-7.4m0 3.7c0 .9.7 1.6 1.6 1.6a1.6 1.6 0 0 0 0-3.2c-.9 0-1.6.7-1.6 1.6z" fill="#9a916c" id="path7652"/>
  <path d="M186.4 144a1.6 1.6 0 1 1-3.2 0 1.6 1.6 0 0 1 3.2 0z" fill="none" stroke="#9a916c" stroke-width=".8" id="path7654"/>
  <path d="M183.2 140.3h3.2v7.4h-3.2v-7.4m0 3.7c0 .9.7 1.6 1.6 1.6a1.6 1.6 0 1 0 0-3.2c-.9 0-1.6.7-1.6 1.6z" fill="#9a916c" id="path7656"/>
  <path d="M124.5 7.2a1.6 1.6 0 1 1-3.2 0 1.6 1.6 0 0 1 3.2 0z" fill="none" stroke="#9a916c" stroke-width=".8" id="path7658"/>
  <path d="M121.3 3.5h3.2v7.4h-3.2V3.5zm0 3.7a1.6 1.6 0 1 0 3.2 0c0-.9-.7-1.6-1.6-1.6a1.6 1.6 0 0 0-1.6 1.6z" fill="#9a916c" id="path7660"/>
  <path d="M117.3 7.2a1.6 1.6 0 1 1-3.2 0 1.6 1.6 0 0 1 3.2 0z" fill="none" stroke="#9a916c" stroke-width=".8" id="path7662"/>
  <path d="M114 3.5h3.3v7.4h-3.2V3.5zm0 3.7a1.6 1.6 0 0 0 3.3 0 1.6 1.6 0 0 0-3.2 0z" fill="#9a916c" id="path7664"/>
  <path d="M110.1 7.2a1.6 1.6 0 1 1-3.2 0 1.6 1.6 0 0 1 3.2 0z" fill="none" stroke="#9a916c" stroke-width=".8" id="path7666"/>
  <path d="M106.9 3.5h3.2v7.4H107V3.5zm0 3.7a1.6 1.6 0 1 0 3.2 0 1.6 1.6 0 0 0-3.2 0z" fill="#9a916c" id="path7668"/>
  <path d="M102.9 7.2a1.6 1.6 0 1 1-3.2 0 1.6 1.6 0 0 1 3.2 0z" fill="none" stroke="#9a916c" stroke-width=".8" id="path7670"/>
  <path d="M99.7 3.5h3.2v7.4h-3.2V3.5zm0 3.7a1.6 1.6 0 1 0 3.2 0 1.6 1.6 0 0 0-3.2 0z" fill="#9a916c" id="path7672"/>
  <path d="M95.7 7.2a1.6 1.6 0 1 1-3.2 0 1.6 1.6 0 0 1 3.2 0z" fill="none" stroke="#9a916c" stroke-width=".8" id="path7674"/>
  <path d="M92.5 3.5h3.2v7.4h-3.2V3.5zm0 3.7a1.6 1.6 0 1 0 3.2 0 1.6 1.6 0 1 0-3.2 0z" fill="#9a916c" id="path7676"/>
  <path d="M88.5 7.2a1.6 1.6 0 1 1-3.2 0 1.6 1.6 0 0 1 3.2 0z" fill="none" stroke="#9a916c" stroke-width=".8" id="path7678"/>
  <path d="M85.3 3.5h3.2v7.4h-3.2V3.5zm0 3.7a1.6 1.6 0 1 0 3.2 0 1.6 1.6 0 0 0-3.2 0z" fill="#9a916c" id="path7680"/>
  <path d="M81.3 7.2a1.6 1.6 0 1 1-3.2 0 1.6 1.6 0 0 1 3.2 0z" fill="none" stroke="#9a916c" stroke-width=".8" id="path7682"/>
  <path d="M78 3.5h3.3v7.4h-3.2V3.5zm0 3.7a1.6 1.6 0 1 0 3.3 0 1.6 1.6 0 0 0-3.2 0z" fill="#9a916c" id="path7684"/>
  <path d="M74.1 7.2a1.6 1.6 0 1 1-3.2 0 1.6 1.6 0 0 1 3.2 0z" fill="none" stroke="#9a916c" stroke-width=".8" id="path7686"/>
  <path d="M70.9 3.5H74v7.4h-3.2V3.5zm0 3.7a1.6 1.6 0 1 0 3.2 0 1.6 1.6 0 0 0-3.2 0z" fill="#9a916c" id="path7688"/>
  <path d="M66.9 7.2a1.6 1.6 0 1 1-3.2 0 1.6 1.6 0 0 1 3.2 0z" fill="none" stroke="#9a916c" stroke-width=".8" id="path7690"/>
  <path d="M63.7 3.5h3.2v7.4h-3.2V3.5zm0 3.7a1.6 1.6 0 1 0 3.2 0 1.6 1.6 0 0 0-3.2 0z" fill="#9a916c" id="path7692"/>
  <path d="M59.7 7.2a1.6 1.6 0 1 1-3.2 0 1.6 1.6 0 0 1 3.2 0z" fill="none" stroke="#9a916c" stroke-width=".8" id="path7694"/>
  <path d="M56.5 3.5h3.2v7.4h-3.2V3.5zm0 3.7a1.6 1.6 0 1 0 3.2 0 1.6 1.6 0 0 0-3.2 0z" fill="#9a916c" id="path7696"/>
  <path d="M186.4 7.2a1.6 1.6 0 1 1-3.2 0 1.6 1.6 0 0 1 3.2 0z" fill="none" stroke="#9a916c" stroke-width=".8" id="path7698"/>
  <path d="M183.2 3.5h3.2v7.4h-3.2V3.5zm0 3.7a1.6 1.6 0 1 0 3.2 0c0-.9-.7-1.6-1.6-1.6a1.6 1.6 0 0 0-1.6 1.6z" fill="#9a916c" id="path7700"/>
  <path d="M179.2 7.2a1.6 1.6 0 1 1-3.2 0 1.6 1.6 0 0 1 3.2 0z" fill="none" stroke="#9a916c" stroke-width=".8" id="path7702"/>
  <path d="M176 3.5h3.2v7.4H176V3.5zm0 3.7a1.6 1.6 0 1 0 3.2 0 1.6 1.6 0 0 0-3.2 0z" fill="#9a916c" id="path7704"/>
  <path d="M172 7.2a1.6 1.6 0 1 1-3.2 0 1.6 1.6 0 0 1 3.2 0z" fill="none" stroke="#9a916c" stroke-width=".8" id="path7706"/>
  <path d="M168.8 3.5h3.2v7.4h-3.2V3.5zm0 3.7a1.6 1.6 0 1 0 3.2 0 1.6 1.6 0 0 0-3.2 0z" fill="#9a916c" id="path7708"/>
  <path d="M164.8 7.2a1.6 1.6 0 1 1-3.2 0 1.6 1.6 0 0 1 3.2 0z" fill="none" stroke="#9a916c" stroke-width=".8" id="path7710"/>
  <path d="M161.6 3.5h3.2v7.4h-3.2V3.5zm0 3.7a1.6 1.6 0 1 0 3.2 0 1.6 1.6 0 0 0-3.2 0z" fill="#9a916c" id="path7712"/>
  <path d="M157.6 7.2a1.6 1.6 0 1 1-3.2 0 1.6 1.6 0 0 1 3.2 0z" fill="none" stroke="#9a916c" stroke-width=".8" id="path7714"/>
  <path d="M154.4 3.5h3.2v7.4h-3.2V3.5zm0 3.7c0 .9.7 1.6 1.6 1.6a1.6 1.6 0 1 0 0-3.2 1.6 1.6 0 0 0-1.6 1.6z" fill="#9a916c" id="path7716"/>
  <path d="M150.4 7.2a1.6 1.6 0 1 1-3.2 0 1.6 1.6 0 0 1 3.2 0z" fill="none" stroke="#9a916c" stroke-width=".8" id="path7718"/>
  <path d="M147.2 3.5h3.2v7.4h-3.2V3.5zm0 3.7a1.6 1.6 0 1 0 3.2 0c0-.9-.7-1.6-1.6-1.6a1.6 1.6 0 0 0-1.6 1.6z" fill="#9a916c" id="path7720"/>
  <path d="M143.2 7.2a1.6 1.6 0 1 1-3.2 0 1.6 1.6 0 0 1 3.2 0z" fill="none" stroke="#9a916c" stroke-width=".8" id="path7722"/>
  <path d="M140 3.5h3.2v7.4H140V3.5zm0 3.7a1.6 1.6 0 0 0 3.2 0 1.6 1.6 0 0 0-3.2 0z" fill="#9a916c" id="path7724"/>
  <path d="M136 7.2a1.6 1.6 0 1 1-3.2 0 1.6 1.6 0 0 1 3.2 0z" fill="none" stroke="#9a916c" stroke-width=".8" id="path7726"/>
  <path d="M132.8 3.5h3.2v7.4h-3.2V3.5zm0 3.7a1.6 1.6 0 1 0 3.2 0c0-.9-.7-1.6-1.6-1.6a1.6 1.6 0 0 0-1.6 1.6z" fill="#9a916c" id="path7728"/>
  <path d="M92.8 144a1.6 1.6 0 1 1-3.2 0 1.6 1.6 0 0 1 3.2 0z" fill="none" stroke="#9a916c" stroke-width=".8" id="path7730"/>
  <path d="M89.6 140.3h3.2v7.4h-3.2v-7.4m0 3.7c0 .9.7 1.6 1.6 1.6a1.6 1.6 0 1 0 0-3.2c-.9 0-1.6.7-1.6 1.6z" fill="#9a916c" id="path7732"/>
  <path d="M100 144a1.6 1.6 0 1 1-3.2 0 1.6 1.6 0 0 1 3.2 0z" fill="none" stroke="#9a916c" stroke-width=".8" id="path7734"/>
  <path d="M96.8 140.3h3.2v7.4h-3.2v-7.4m0 3.7c0 .9.7 1.6 1.6 1.6a1.6 1.6 0 1 0 0-3.2 1.6 1.6 0 0 0-1.6 1.6z" fill="#9a916c" id="path7736"/>
  <path d="M107.2 144a1.6 1.6 0 1 1-3.2 0 1.6 1.6 0 0 1 3.2 0z" fill="none" stroke="#9a916c" stroke-width=".8" id="path7738"/>
  <path d="M104 140.3h3.2v7.4H104v-7.4m0 3.7c0 .9.7 1.6 1.6 1.6a1.6 1.6 0 0 0 0-3.2c-.9 0-1.6.7-1.6 1.6z" fill="#9a916c" id="path7740"/>
  <path d="M114.4 144a1.6 1.6 0 1 1-3.2 0 1.6 1.6 0 0 1 3.2 0z" fill="none" stroke="#9a916c" stroke-width=".8" id="path7742"/>
  <path d="M111.2 140.3h3.2v7.4h-3.2v-7.4m0 3.7c0 .9.7 1.6 1.6 1.6a1.6 1.6 0 1 0 0-3.2c-.9 0-1.6.7-1.6 1.6z" fill="#9a916c" id="path7744"/>
  <path d="M121.6 144a1.6 1.6 0 1 1-3.2 0 1.6 1.6 0 0 1 3.2 0z" fill="none" stroke="#9a916c" stroke-width=".8" id="path7746"/>
  <path d="M118.4 140.3h3.2v7.4h-3.2v-7.4m0 3.7c0 .9.7 1.6 1.6 1.6a1.6 1.6 0 1 0 0-3.2c-.9 0-1.6.7-1.6 1.6z" fill="#9a916c" id="path7748"/>
  <path d="M128.8 144a1.6 1.6 0 1 1-3.2 0 1.6 1.6 0 0 1 3.2 0z" fill="none" stroke="#9a916c" stroke-width=".8" id="path7750"/>
  <path d="M125.6 140.3h3.2v7.4h-3.2v-7.4m0 3.7a1.6 1.6 0 0 0 3.2 0 1.6 1.6 0 0 0-1.6-1.6c-.9 0-1.6.7-1.6 1.6z" fill="#9a916c" id="path7752"/>
  <path d="M136 144a1.6 1.6 0 1 1-3.2 0 1.6 1.6 0 0 1 3.2 0z" fill="none" stroke="#9a916c" stroke-width=".8" id="path7754"/>
  <path d="M132.8 140.3h3.2v7.4h-3.2v-7.4m0 3.7a1.6 1.6 0 0 0 3.2 0 1.6 1.6 0 0 0-1.6-1.6c-.9 0-1.6.7-1.6 1.6z" fill="#9a916c" id="path7756"/>
  <path d="M85.6 144a1.6 1.6 0 1 1-3.2 0 1.6 1.6 0 0 1 3.2 0z" fill="none" stroke="#9a916c" stroke-width=".8" id="path7758"/>
  <path d="M82.4 140.3h3.2v7.4h-3.2v-7.4m0 3.7c0 .9.7 1.6 1.6 1.6a1.6 1.6 0 0 0 0-3.2c-.9 0-1.6.7-1.6 1.6z" fill="#9a916c" id="path7760"/>
  <path d="M132.4 32.3h21a6.1 6.1 0 0 1 0 12.2h-21a6 6 0 0 1-6-6 6 6 0 0 1 6-6.2zm-2.2 9.3V41l3.3-4.2.7-.7h-3.6v-.8h4.6v.8l-3.6 4.4-.4.5h4.1v.7h-5zm6.4 0v-6.4h4.6v.8h-3.8v2h3.6v.7h-3.6v2.2h4v.7h-4.8zm6.3 0v-6.4h2.8c.6 0 1 0 1.3.2.3 0 .6.3.8.6l.2 1c0 .4-.1.8-.4 1.1-.3.3-.8.5-1.4.6l.5.3.7.9 1.1 1.7h-1l-.9-1.3a11.8 11.8 0 0 0-.6-.9 2 2 0 0 0-.4-.4 1.3 1.3 0 0 0-.4-.2 2.7 2.7 0 0 0-.5 0h-1v2.8h-.8zm.8-3.6h2.8a1 1 0 0 0 .5-.5l.1-.5a1 1 0 0 0-.3-.8c-.2-.2-.6-.3-1-.3h-2V38zm5.7.5c0-1 .3-1.9.9-2.5a3 3 0 0 1 2.2-1 3 3 0 0 1 1.6.5c.5.3.8.7 1.1 1.2.3.5.4 1 .4 1.7s-.2 1.3-.4 1.8a2.7 2.7 0 0 1-1.1 1.2 3.2 3.2 0 0 1-1.6.3 3 3 0 0 1-1.6-.4 2.8 2.8 0 0 1-1.1-1.2 3.6 3.6 0 0 1-.4-1.6zm.9 0c0 .8.2 1.4.6 1.9.4.4 1 .6 1.6.6a2 2 0 0 0 1.6-.7c.4-.4.6-1 .6-1.9 0-.5 0-1-.3-1.3a2 2 0 0 0-.7-1 2.1 2.1 0 0 0-1.2-.3 2.2 2.2 0 0 0-1.6.6c-.4.5-.6 1.2-.6 2.1z" fill="#8e8e8e" id="path7840"/>
  <path d="M111.5 36.3l1.8-2c2.2-2 4.8-2.7 7.7-1.5 2.8 1.2 4.3 4 3.7 7a6.4 6.4 0 0 1-6 5 8.1 8.1 0 0 1-6.3-3l-.8-1-.6.6a7.8 7.8 0 0 1-7 3.3 6.4 6.4 0 0 1-5.7-5.7 6.3 6.3 0 0 1 6.5-6.7c2.6 0 4.6 1.3 6.1 3.3l.6.7z" fill="#fff" id="path7842"/>
  <path d="M105.2 34.3c-2.7 0-4.7 1.7-4.9 4-.2 1.9 1.4 3.9 3.5 4.3 2.1.5 3.8-.4 5.1-2 2-2.3 1.9-1.9 0-4.2-1-1.3-2.4-2-3.7-2.1zm13.2 0h-.8c-2.3.5-3.7 2-4.7 4v.5c1 1.7 2.1 3.1 4 3.7 2 .6 3.5.1 4.8-1.3a3.7 3.7 0 0 0 .7-4.4c-.8-1.7-2.3-2.4-4-2.5z" fill="#8e8e8e" id="path7844"/>
  <path d="M107 39h-4a.1.1 0 0 1-.1 0v-1.2a.1.1 0 0 1 .1-.1h4V39zm13.1-1.2a.1.1 0 0 0 0-.1h-1.2a.1.1 0 0 1-.2-.1v-1.2a.1.1 0 0 0 0-.1h-1.3a.1.1 0 0 0 0 .1v1.2a.1.1 0 0 1-.2 0h-1.1a.1.1 0 0 0-.2.2V39a.1.1 0 0 0 .2 0h1.1l.1.2v1.2h1.3a.1.1 0 0 0 .1 0v-1.2l.2-.1h1.1l.1-.1v-1.2z" fill="#fff" id="path7846"/>
  <path d="M101.6 50.4l-.2-.9h-1.3l-.3 1h-.9l1.3-4h1l1.4 4h-1zm0 0h1-.1l-1.3-3.9h-1l-1.2 4h.8l.2-1h1.4l.3 1zm-.4-1.6l-.3-.8a9.8 9.8 0 0 1-.2-.7 2.9 2.9 0 0 1 0-.2 4 4 0 0 1 0 .3v.1l-.1.2a4.9 4.9 0 0 1 0 .2l-.3 1v-.1h1-.1zm0 0h-1l.3-.9v-.4l.1-.1v-.2l.1-.2.1.3a11.5 11.5 0 0 0 .2.6l.3 1zm2.6-.6h.3l.4-.1.2-.4c0-.2 0-.3-.2-.4h-.7v-.1 1zm0 0v-1h.8l.1.5-.1.4-.5.2h-.3zm0 .7v1.6h-.8v-4h1c.6 0 1 0 1.2.3.3.2.4.5.4.9v.4a1.1 1.1 0 0 1-.4.5 1.4 1.4 0 0 1-.3.2l.6.8.2.3.1.3.2.1v.2h-1l-.8-1.6h-.4zm0 0h.4l.9 1.5h.9a62.6 62.6 0 0 1-.4-.5l-.2-.3-.5-.9s.2 0 .2-.2a1 1 0 0 0 .4-.8c0-.4 0-.7-.3-.9-.3-.2-.6-.3-1.1-.3h-1v4h.7v-1.6zm5.7-.5l-.1 1a1.7 1.7 0 0 1-.4.6l-.6.3a2.7 2.7 0 0 1-.9.2h-1v-4h1.1l.8.1c.2 0 .5.2.6.4.2.1.3.4.4.6l.1.8zm0 0l-.1-.8a1.6 1.6 0 0 0-.4-.6 1.6 1.6 0 0 0-.6-.3 2.3 2.3 0 0 0-.8-.2h-1.1v4h1l.8-.2.7-.4a1.6 1.6 0 0 0 .3-.6 2.5 2.5 0 0 0 .2-.9zm-.9 0a2 2 0 0 0 0-.5 1 1 0 0 0-.2-.4.7.7 0 0 0-.3-.2 1 1 0 0 0-.4 0h-.4v-.1 2.6h.3c.4 0 .6-.2.8-.4.2-.2.2-.5.2-1zm0 0c0 .5 0 .8-.2 1-.2.3-.4.4-.8.4h-.3v-2.6h.8a.8.8 0 0 1 .3.3l.2.4v.6zm4.7-1.9v3.1a1.3 1.3 0 0 1-.8.8l-.7.1h-.7a1.3 1.3 0 0 1-.4-.4 1.3 1.3 0 0 1-.3-.5 1.8 1.8 0 0 1-.1-.6v-2.5h.9v2.8l.1.3a.5.5 0 0 0 .2.1h.3l.5-.1.1-.6v-2.5h1zm0 0h-.8V49c0 .3 0 .5-.2.6l-.5.2a.9.9 0 0 1-.3 0 .5.5 0 0 1-.2-.2.7.7 0 0 1-.2-.2 1.4 1.4 0 0 1 0-.4v-2.5h-.8V49l.1.6c0 .2.2.4.3.5l.5.3h1.2a1.2 1.2 0 0 0 .8-.8v-3.1h.1zm2.4 4H114v-.6l.5-.2v-2.5l-.5-.2v-.5h1.9v.5l-.5.2v2.5l.5.2v.6zm0 0V50l-.5-.2v-2.6l.5-.2v-.5H114v.5l.5.2v2.6l-.4.2v.4h1.7zm4 0h-1l-1.6-3v.4a12.7 12.7 0 0 1 0 .7v1.9h-.7v-4h1l1.6 3v-3.1h.7v4zm0 0v-4h-.7v3l-1.6-3h-1v4h.7v-2a11.4 11.4 0 0 0 0-.6 30.2 30.2 0 0 0 0-.4l1.6 3h1zm4.4-2l-.1.8-.4.7-.5.4a2 2 0 0 1-.8.1 2 2 0 0 1-.8-.1 1.5 1.5 0 0 1-.6-.4 1.8 1.8 0 0 1-.3-.7 3 3 0 0 1 0-.8v-.9l.3-.6.6-.4.8-.2c.3 0 .6 0 .8.2.2 0 .4.2.5.4l.4.6v.9zm0 0a3 3 0 0 0-.2-.9 1.7 1.7 0 0 0-.3-.6 1.4 1.4 0 0 0-.5-.4 2 2 0 0 0-.8-.1 2 2 0 0 0-.8.1 1.4 1.4 0 0 0-.5.4l-.3.6-.1.9v.8l.4.6.5.4.8.2c.3 0 .5 0 .8-.2.2 0 .4-.2.5-.4l.3-.6.1-.8zm-2.7 0v.5l.2.4a.7.7 0 0 0 .3.3h.4a.8.8 0 0 0 .4 0 .7.7 0 0 0 .3-.3l.1-.4a2.6 2.6 0 0 0 0-.5v-.6a1.2 1.2 0 0 0-.1-.4.7.7 0 0 0-.3-.2.8.8 0 0 0-.4-.1.8.8 0 0 0-.4 0 .7.7 0 0 0-.3.3 1.2 1.2 0 0 0-.1.4 2.6 2.6 0 0 0 0 .6zm0 0v-.6l.2-.4a.8.8 0 0 1 .3-.3.9.9 0 0 1 .4 0h.4a.8.8 0 0 1 .3.3l.2.4a2.7 2.7 0 0 1 0 1.1 1.3 1.3 0 0 1-.2.5.8.8 0 0 1-.3.2.9.9 0 0 1-.4.1.9.9 0 0 1-.4 0 .8.8 0 0 1-.3-.3 1.3 1.3 0 0 1-.2-.5 2.6 2.6 0 0 1 0-.5z" fill="#8e8e8e" fill-rule="nonzero" id="path7876" stroke="#8e8e8e" stroke-width=".4"/>
  <path fill="#404040" fill-rule="nonzero" d="M145.2 140.4h43.2v7.2h-43.2z" id="path7884"/>
  <path fill-rule="nonzero" d="M147.4 142.6h2.8v2.8h-2.8z" id="path7886"/>
  <path d="M146.4 141.6l1 1h2.8l1-1h-4.8z" fill="#2a2a29" id="path7888"/>
  <path d="M151.2 141.6l-1 1v2.8l1 1v-4.8z" fill="#474747" id="path7890"/>
  <path d="M151.2 146.4l-1-1h-2.8l-1 1h4.8z" fill="#595959" id="path7892"/>
  <path d="M146.4 146.4l1-1v-2.8l-1-1v4.8z" fill="#373737" id="path7894"/>
  <path fill-rule="nonzero" d="M154.6 142.6h2.8v2.8h-2.8z" id="path7896"/>
  <path d="M153.6 141.6l1 1h2.8l1-1h-4.8z" fill="#2a2a29" id="path7898"/>
  <path d="M158.4 141.6l-1 1v2.8l1 1v-4.8z" fill="#474747" id="path7900"/>
  <path d="M158.4 146.4l-1-1h-2.8l-1 1h4.8z" fill="#595959" id="path7902"/>
  <path d="M153.6 146.4l1-1v-2.8l-1-1v4.8z" fill="#373737" id="path7904"/>
  <path fill-rule="nonzero" d="M161.8 142.6h2.8v2.8h-2.8z" id="path7906"/>
  <path d="M160.8 141.6l1 1h2.8l1-1h-4.8z" fill="#2a2a29" id="path7908"/>
  <path d="M165.6 141.6l-1 1v2.8l1 1v-4.8z" fill="#474747" id="path7910"/>
  <path d="M165.6 146.4l-1-1h-2.8l-1 1h4.8z" fill="#595959" id="path7912"/>
  <path d="M160.8 146.4l1-1v-2.8l-1-1v4.8z" fill="#373737" id="path7914"/>
  <path fill-rule="nonzero" d="M169 142.6h2.8v2.8H169z" id="path7916"/>
  <path d="M168 141.6l1 1h2.8l1-1H168z" fill="#2a2a29" id="path7918"/>
  <path d="M172.8 141.6l-1 1v2.8l1 1v-4.8z" fill="#474747" id="path7920"/>
  <path d="M172.8 146.4l-1-1H169l-1 1h4.8z" fill="#595959" id="path7922"/>
  <path d="M168 146.4l1-1v-2.8l-1-1v4.8z" fill="#373737" id="path7924"/>
  <path fill-rule="nonzero" d="M176.2 142.6h2.8v2.8h-2.8z" id="path7926"/>
  <path d="M175.2 141.6l1 1h2.8l1-1h-4.8z" fill="#2a2a29" id="path7928"/>
  <path d="M180 141.6l-1 1v2.8l1 1v-4.8z" fill="#474747" id="path7930"/>
  <path d="M180 146.4l-1-1h-2.8l-1 1h4.8z" fill="#595959" id="path7932"/>
  <path d="M175.2 146.4l1-1v-2.8l-1-1v4.8z" fill="#373737" id="path7934"/>
  <path fill-rule="nonzero" d="M183.4 142.6h2.8v2.8h-2.8z" id="path7936"/>
  <path d="M182.4 141.6l1 1h2.8l1-1h-4.8z" fill="#2a2a29" id="path7938"/>
  <path d="M187.2 141.6l-1 1v2.8l1 1v-4.8z" fill="#474747" id="path7940"/>
  <path d="M187.2 146.4l-1-1h-2.8l-1 1h4.8z" fill="#595959" id="path7942"/>
  <path d="M182.4 146.4l1-1v-2.8l-1-1v4.8z" fill="#373737" id="path7944"/>
  <path fill="#404040" fill-rule="nonzero" d="M130.8 3.6h57.6v7.2h-57.6z" id="path7946"/>
  <path fill-rule="nonzero" d="M133 5.8h2.8v2.8H133z" id="path7948"/>
  <path d="M132 4.8l1 1h2.8l1-1H132z" fill="#2a2a29" id="path7950"/>
  <path d="M136.8 4.8l-1 1v2.8l1 1V4.8z" fill="#474747" id="path7952"/>
  <path d="M136.8 9.6l-1-1H133l-1 1h4.8z" fill="#595959" id="path7954"/>
  <path d="M132 9.6l1-1V5.8l-1-1v4.8z" fill="#373737" id="path7956"/>
  <path fill-rule="nonzero" d="M140.2 5.8h2.8v2.8h-2.8z" id="path7958"/>
  <path d="M139.2 4.8l1 1h2.8l1-1h-4.8z" fill="#2a2a29" id="path7960"/>
  <path d="M144 4.8l-1 1v2.8l1 1V4.8z" fill="#474747" id="path7962"/>
  <path d="M144 9.6l-1-1h-2.8l-1 1h4.8z" fill="#595959" id="path7964"/>
  <path d="M139.2 9.6l1-1V5.8l-1-1v4.8z" fill="#373737" id="path7966"/>
  <path fill-rule="nonzero" d="M147.4 5.8h2.8v2.8h-2.8z" id="path7968"/>
  <path d="M146.4 4.8l1 1h2.8l1-1h-4.8z" fill="#2a2a29" id="path7970"/>
  <path d="M151.2 4.8l-1 1v2.8l1 1V4.8z" fill="#474747" id="path7972"/>
  <path d="M151.2 9.6l-1-1h-2.8l-1 1h4.8z" fill="#595959" id="path7974"/>
  <path d="M146.4 9.6l1-1V5.8l-1-1v4.8z" fill="#373737" id="path7976"/>
  <path fill-rule="nonzero" d="M154.6 5.8h2.8v2.8h-2.8z" id="path7978"/>
  <path d="M153.6 4.8l1 1h2.8l1-1h-4.8z" fill="#2a2a29" id="path7980"/>
  <path d="M158.4 4.8l-1 1v2.8l1 1V4.8z" fill="#474747" id="path7982"/>
  <path d="M158.4 9.6l-1-1h-2.8l-1 1h4.8z" fill="#595959" id="path7984"/>
  <path d="M153.6 9.6l1-1V5.8l-1-1v4.8z" fill="#373737" id="path7986"/>
  <path fill-rule="nonzero" d="M161.8 5.8h2.8v2.8h-2.8z" id="path7988"/>
  <path d="M160.8 4.8l1 1h2.8l1-1h-4.8z" fill="#2a2a29" id="path7990"/>
  <path d="M165.6 4.8l-1 1v2.8l1 1V4.8z" fill="#474747" id="path7992"/>
  <path d="M165.6 9.6l-1-1h-2.8l-1 1h4.8z" fill="#595959" id="path7994"/>
  <path d="M160.8 9.6l1-1V5.8l-1-1v4.8z" fill="#373737" id="path7996"/>
  <path fill-rule="nonzero" d="M169 5.8h2.8v2.8H169z" id="path7998"/>
  <path d="M168 4.8l1 1h2.8l1-1H168z" fill="#2a2a29" id="path8000"/>
  <path d="M172.8 4.8l-1 1v2.8l1 1V4.8z" fill="#474747" id="path8002"/>
  <path d="M172.8 9.6l-1-1H169l-1 1h4.8z" fill="#595959" id="path8004"/>
  <path d="M168 9.6l1-1V5.8l-1-1v4.8z" fill="#373737" id="path8006"/>
  <path fill-rule="nonzero" d="M176.2 5.8h2.8v2.8h-2.8z" id="path8008"/>
  <path d="M175.2 4.8l1 1h2.8l1-1h-4.8z" fill="#2a2a29" id="path8010"/>
  <path d="M180 4.8l-1 1v2.8l1 1V4.8z" fill="#474747" id="path8012"/>
  <path d="M180 9.6l-1-1h-2.8l-1 1h4.8z" fill="#595959" id="path8014"/>
  <path d="M175.2 9.6l1-1V5.8l-1-1v4.8z" fill="#373737" id="path8016"/>
  <path fill-rule="nonzero" d="M183.4 5.8h2.8v2.8h-2.8z" id="path8018"/>
  <path d="M182.4 4.8l1 1h2.8l1-1h-4.8z" fill="#2a2a29" id="path8020"/>
  <path d="M187.2 4.8l-1 1v2.8l1 1V4.8z" fill="#474747" id="path8022"/>
  <path d="M187.2 9.6l-1-1h-2.8l-1 1h4.8z" fill="#595959" id="path8024"/>
  <path d="M182.4 9.6l1-1V5.8l-1-1v4.8z" fill="#373737" id="path8026"/>
  <path fill="#404040" fill-rule="nonzero" d="M54.4 3.6h72v7.2h-72z" id="path8028"/>
  <path fill-rule="nonzero" d="M56.6 5.8h2.8v2.8h-2.8z" id="path8030"/>
  <path d="M55.6 4.8l1 1h2.8l1-1h-4.8z" fill="#2a2a29" id="path8032"/>
  <path d="M60.4 4.8l-1 1v2.8l1 1V4.8z" fill="#474747" id="path8034"/>
  <path d="M60.4 9.6l-1-1h-2.8l-1 1h4.8z" fill="#595959" id="path8036"/>
  <path d="M55.6 9.6l1-1V5.8l-1-1v4.8z" fill="#373737" id="path8038"/>
  <path fill-rule="nonzero" d="M63.8 5.8h2.8v2.8h-2.8z" id="path8040"/>
  <path d="M62.8 4.8l1 1h2.8l1-1h-4.8z" fill="#2a2a29" id="path8042"/>
  <path d="M67.6 4.8l-1 1v2.8l1 1V4.8z" fill="#474747" id="path8044"/>
  <path d="M67.6 9.6l-1-1h-2.8l-1 1h4.8z" fill="#595959" id="path8046"/>
  <path d="M62.8 9.6l1-1V5.8l-1-1v4.8z" fill="#373737" id="path8048"/>
  <path fill-rule="nonzero" d="M71 5.8h2.8v2.8H71z" id="path8050"/>
  <path d="M70 4.8l1 1h2.8l1-1H70z" fill="#2a2a29" id="path8052"/>
  <path d="M74.8 4.8l-1 1v2.8l1 1V4.8z" fill="#474747" id="path8054"/>
  <path d="M74.8 9.6l-1-1H71l-1 1h4.8z" fill="#595959" id="path8056"/>
  <path d="M70 9.6l1-1V5.8l-1-1v4.8z" fill="#373737" id="path8058"/>
  <path fill-rule="nonzero" d="M78.2 5.8H81v2.8h-2.8z" id="path8060"/>
  <path d="M77.2 4.8l1 1H81l1-1h-4.8z" fill="#2a2a29" id="path8062"/>
  <path d="M82 4.8l-1 1v2.8l1 1V4.8z" fill="#474747" id="path8064"/>
  <path d="M82 9.6l-1-1h-2.8l-1 1H82z" fill="#595959" id="path8066"/>
  <path d="M77.2 9.6l1-1V5.8l-1-1v4.8z" fill="#373737" id="path8068"/>
  <path fill-rule="nonzero" d="M85.4 5.8h2.8v2.8h-2.8z" id="path8070"/>
  <path d="M84.4 4.8l1 1h2.8l1-1h-4.8z" fill="#2a2a29" id="path8072"/>
  <path d="M89.2 4.8l-1 1v2.8l1 1V4.8z" fill="#474747" id="path8074"/>
  <path d="M89.2 9.6l-1-1h-2.8l-1 1h4.8z" fill="#595959" id="path8076"/>
  <path d="M84.4 9.6l1-1V5.8l-1-1v4.8z" fill="#373737" id="path8078"/>
  <path fill-rule="nonzero" d="M92.6 5.8h2.8v2.8h-2.8z" id="path8080"/>
  <path d="M91.6 4.8l1 1h2.8l1-1h-4.8z" fill="#2a2a29" id="path8082"/>
  <path d="M96.5 4.8l-1 1v2.8l1 1V4.8z" fill="#474747" id="path8084"/>
  <path d="M96.5 9.6l-1-1h-2.9l-1 1h4.9z" fill="#595959" id="path8086"/>
  <path d="M91.6 9.6l1-1V5.8l-1-1v4.8z" fill="#373737" id="path8088"/>
  <path fill-rule="nonzero" d="M99.8 5.8h2.8v2.8h-2.8z" id="path8090"/>
  <path d="M98.8 4.8l1 1h2.8l1-1h-4.8z" fill="#2a2a29" id="path8092"/>
  <path d="M103.7 4.8l-1 1v2.8l1 1V4.8z" fill="#474747" id="path8094"/>
  <path d="M103.6 9.6l-1-1h-2.8l-1 1h4.8z" fill="#595959" id="path8096"/>
  <path d="M98.8 9.6l1-1V5.8l-1-1v4.8z" fill="#373737" id="path8098"/>
  <path fill-rule="nonzero" d="M107 5.8h2.8v2.8H107z" id="path8100"/>
  <path d="M106 4.8l1 1h2.8l1-1H106z" fill="#2a2a29" id="path8102"/>
  <path d="M110.8 4.8l-1 1v2.8l1 1V4.8z" fill="#474747" id="path8104"/>
  <path d="M110.8 9.6l-1-1H107l-1 1h4.8z" fill="#595959" id="path8106"/>
  <path d="M106 9.6l1-1V5.8l-1-1v4.8z" fill="#373737" id="path8108"/>
  <path fill-rule="nonzero" d="M114.2 5.8h2.8v2.8h-2.8z" id="path8110"/>
  <path d="M113.2 4.8l1 1h2.8l1-1h-4.8z" fill="#2a2a29" id="path8112"/>
  <path d="M118 4.8l-1 1v2.8l1 1V4.8z" fill="#474747" id="path8114"/>
  <path d="M118 9.6l-1-1h-2.8l-1 1h4.8z" fill="#595959" id="path8116"/>
  <path d="M113.2 9.6l1-1V5.8l-1-1v4.8z" fill="#373737" id="path8118"/>
  <path fill-rule="nonzero" d="M121.4 5.8h2.8v2.8h-2.8z" id="path8120"/>
  <path d="M120.4 4.8l1 1h2.8l1-1h-4.8z" fill="#2a2a29" id="path8122"/>
  <path d="M125.2 4.8l-1 1v2.8l1 1V4.8z" fill="#474747" id="path8124"/>
  <path d="M125.2 9.6l-1-1h-2.8l-1 1h4.8z" fill="#595959" id="path8126"/>
  <path d="M120.4 9.6l1-1V5.8l-1-1v4.8z" fill="#373737" id="path8128"/>
  <path fill="#404040" fill-rule="nonzero" d="M80.4 140.4H138v7.2H80.4z" id="path8130"/>
  <path fill-rule="nonzero" d="M82.6 142.6h2.8v2.8h-2.8z" id="path8132"/>
  <path d="M81.6 141.6l1 1h2.8l1-1h-4.8z" fill="#2a2a29" id="path8134"/>
  <path d="M86.4 141.6l-1 1v2.8l1 1v-4.8z" fill="#474747" id="path8136"/>
  <path d="M86.4 146.4l-1-1h-2.8l-1 1h4.8z" fill="#595959" id="path8138"/>
  <path d="M81.6 146.4l1-1v-2.8l-1-1v4.8z" fill="#373737" id="path8140"/>
  <path fill-rule="nonzero" d="M89.8 142.6h2.8v2.8h-2.8z" id="path8142"/>
  <path d="M88.8 141.6l1 1h2.8l1-1h-4.8z" fill="#2a2a29" id="path8144"/>
  <path d="M93.6 141.6l-1 1v2.8l1 1v-4.8z" fill="#474747" id="path8146"/>
  <path d="M93.6 146.4l-1-1h-2.8l-1 1h4.8z" fill="#595959" id="path8148"/>
  <path d="M88.8 146.4l1-1v-2.8l-1-1v4.8z" fill="#373737" id="path8150"/>
  <path fill-rule="nonzero" d="M97 142.6h2.8v2.8H97z" id="path8152"/>
  <path d="M96 141.6l1 1h2.8l1-1H96z" fill="#2a2a29" id="path8154"/>
  <path d="M100.8 141.6l-1 1v2.8l1 1v-4.8z" fill="#474747" id="path8156"/>
  <path d="M100.8 146.4l-1-1H97l-1 1h4.8z" fill="#595959" id="path8158"/>
  <path d="M96 146.4l1-1v-2.8l-1-1v4.8z" fill="#373737" id="path8160"/>
  <path fill-rule="nonzero" d="M104.2 142.6h2.8v2.8h-2.8z" id="path8162"/>
  <path d="M103.2 141.6l1 1h2.8l1-1h-4.8z" fill="#2a2a29" id="path8164"/>
  <path d="M108 141.6l-1 1v2.8l1 1v-4.8z" fill="#474747" id="path8166"/>
  <path d="M108 146.4l-1-1h-2.8l-1 1h4.8z" fill="#595959" id="path8168"/>
  <path d="M103.2 146.4l1-1v-2.8l-1-1v4.8z" fill="#373737" id="path8170"/>
  <path fill-rule="nonzero" d="M111.4 142.6h2.8v2.8h-2.8z" id="path8172"/>
  <path d="M110.4 141.6l1 1h2.8l1-1h-4.8z" fill="#2a2a29" id="path8174"/>
  <path d="M115.2 141.6l-1 1v2.8l1 1v-4.8z" fill="#474747" id="path8176"/>
  <path d="M115.2 146.4l-1-1h-2.8l-1 1h4.8z" fill="#595959" id="path8178"/>
  <path d="M110.4 146.4l1-1v-2.8l-1-1v4.8z" fill="#373737" id="path8180"/>
  <path fill-rule="nonzero" d="M118.6 142.6h2.8v2.8h-2.8z" id="path8182"/>
  <path d="M117.6 141.6l1 1h2.8l1-1h-4.8z" fill="#2a2a29" id="path8184"/>
  <path d="M122.4 141.6l-1 1v2.8l1 1v-4.8z" fill="#474747" id="path8186"/>
  <path d="M122.4 146.4l-1-1h-2.8l-1 1h4.8z" fill="#595959" id="path8188"/>
  <path d="M117.6 146.4l1-1v-2.8l-1-1v4.8z" fill="#373737" id="path8190"/>
  <path fill-rule="nonzero" d="M125.8 142.6h2.8v2.8h-2.8z" id="path8192"/>
  <path d="M124.8 141.6l1 1h2.8l1-1h-4.8z" fill="#2a2a29" id="path8194"/>
  <path d="M129.6 141.6l-1 1v2.8l1 1v-4.8z" fill="#474747" id="path8196"/>
  <path d="M129.6 146.4l-1-1h-2.8l-1 1h4.8z" fill="#595959" id="path8198"/>
  <path d="M124.8 146.4l1-1v-2.8l-1-1v4.8z" fill="#373737" id="path8200"/>
  <path fill-rule="nonzero" d="M133 142.6h2.8v2.8H133z" id="path8202"/>
  <path d="M132 141.6l1 1h2.8l1-1H132z" fill="#2a2a29" id="path8204"/>
  <path d="M136.8 141.6l-1 1v2.8l1 1v-4.8z" fill="#474747" id="path8206"/>
  <path d="M136.8 146.4l-1-1H133l-1 1h4.8z" fill="#595959" id="path8208"/>
  <path d="M132 146.4l1-1v-2.8l-1-1v4.8z" fill="#373737" id="path8210"/>
</svg>
