<svg xmlns="http://www.w3.org/2000/svg" width="59" height="59" viewBox="0 0 59 59">
  <path fill="#373535" d="M35.36553 31.44094c-2.26.36125-4.20875-.09125-4.355-1.0075-.14625-.91625 1.5675-1.95125 3.8275-2.31 2.25875-.35875 4.2075.09125 4.35375 1.00625.14625.91625-1.56625 1.9525-3.82625 2.31125m-2.14625 9.4375c-.8275.42125-2.34125-.8875-3.38-2.92375-1.04-2.03875-1.21375-4.035-.385-4.45625.825-.42 2.33625.88875 3.3775 2.92625 1.04 2.03625 1.215 4.03125.3875 4.45375m-8.9025-3.79375c-1.61625 1.61875-3.4575 2.39875-4.11375 1.7425-.6575-.655.12125-2.49875 1.7375-4.1175 1.615-1.62125 3.45625-2.40125 4.115-1.745.65625.655-.12125 2.5-1.73875 4.12m-6.18625-11.2725c.41875-.8275 2.41375-.655 4.45.38125 2.04 1.03625 3.35375 2.54875 2.9325 3.375-.42125.825-2.41375.65625-4.4525-.38s-3.35125-2.54875-2.93-3.37625m11.735-5.99125c.9175.1425 1.37125 2.09375 1.0125 4.35375-.35375 2.26-1.38375 3.97375-2.3025 3.83-.915-.145-1.37-2.09375-1.015-4.3525.35625-2.26 1.3875-3.975 2.305-3.83125m28.93625 6.185c-.19-1.20125-.8425-1.545-2.41625-2.0475-1.195-.38375-9.2-2.93375-9.2-2.93375s-5.58-2.10875-9.715.8725c-.5575.4025-1.135.86-1.71375 1.3475.48625-.58.94375-1.15625 1.345-1.71375 2.9725-4.14125.855-9.71875.855-9.71875s-2.56375-7.99875-2.95-9.19625c-.50625-1.57-.85-2.2225-2.0525-2.40875-1.205-.19125-1.73.3225-2.695 1.6625-.735 1.0175-5.635 7.84375-5.635 7.84375s-3.725 4.655-2.17125 9.51125c.21125.65125.4675 1.3425.75375 2.045-.4025-.6425-.81-1.25625-1.21625-1.80875-3.02125-4.105-8.97625-3.81875-8.97625-3.81875s-8.40125-.0325-9.65625-.03375c-1.6525-.00625-2.3775.1225-2.93 1.20625-.5525 1.08375-.22625 1.74625.75 3.07625.74125 1.01375 5.72125 7.78125 5.72125 7.78125s3.275 4.985 8.37125 5.005c.685.00375 1.41875-.0275 2.1725-.0825-.7325.1825-1.44.3825-2.09125.59625-4.83875 1.605-6.4025 7.36-6.4025 7.36s-2.6275 7.98-3.02 9.175c-.5125 1.5675-.61625 2.29625.24375 3.155.86125.8625 1.59125.75625 3.15875.23875 1.19375-.39125 9.17-3.035 9.17-3.035s5.74875-1.57625 7.3425-6.4175c.21625-.65.4125-1.3575.595-2.0875-.05375.7525-.0825 1.485-.07625 2.17.02625 5.0975 5.0175 8.36375 5.0175 8.36375s6.775 4.9625 7.79 5.705c1.335.97125 1.995 1.2975 3.08.74375 1.0825-.5525 1.20875-1.2775 1.20125-2.93-.005-1.255-.055-9.65625-.055-9.65625s.28-5.95625-3.83125-8.97c-.5525-.405-1.16375-.81125-1.80625-1.21125.70125.2825 1.38875.53875 2.04375.74375 4.85625 1.54875 9.50625-2.18625 9.50625-2.18625s6.815-4.91125 7.83375-5.64625c1.3375-.9675 1.84875-1.49875 1.65875-2.7"/>
</svg>