<?xml version="1.0" encoding="UTF-8" standalone="no"?>
<svg
   xmlns:dc="http://purl.org/dc/elements/1.1/"
   xmlns:cc="http://creativecommons.org/ns#"
   xmlns:rdf="http://www.w3.org/1999/02/22-rdf-syntax-ns#"
   xmlns:svg="http://www.w3.org/2000/svg"
   xmlns="http://www.w3.org/2000/svg"
   xmlns:sodipodi="http://sodipodi.sourceforge.net/DTD/sodipodi-0.dtd"
   xmlns:inkscape="http://www.inkscape.org/namespaces/inkscape"
   width="600"
   height="400"
   viewBox="0 0 158.75 105.83334"
   id="svg8"
   version="1.1"
   sodipodi:docname="loader.svg"
   inkscape:version="0.92.1 r15371">
  <metadata
     id="metadata4517">
    <rdf:RDF>
      <cc:Work
         rdf:about="">
        <dc:format>image/svg+xml</dc:format>
        <dc:type
           rdf:resource="http://purl.org/dc/dcmitype/StillImage" />
      </cc:Work>
    </rdf:RDF>
  </metadata>
  <defs
     id="defs4515" />
  <sodipodi:namedview
     pagecolor="#ffffff"
     bordercolor="#666666"
     borderopacity="1"
     objecttolerance="10"
     gridtolerance="10"
     guidetolerance="10"
     inkscape:pageopacity="0"
     inkscape:pageshadow="2"
     inkscape:window-width="1600"
     inkscape:window-height="837"
     id="namedview4513"
     showgrid="false"
     inkscape:zoom="0.47333333"
     inkscape:cx="300"
     inkscape:cy="200"
     inkscape:window-x="-8"
     inkscape:window-y="-8"
     inkscape:window-maximized="1"
     inkscape:current-layer="svg8" />
  <path
     style="line-height:normal;font-variant-ligatures:normal;font-variant-position:normal;font-variant-caps:normal;font-variant-numeric:normal;font-variant-alternates:normal;font-feature-settings:normal;text-indent:0;text-align:start;text-decoration-line:none;text-decoration-style:solid;text-decoration-color:#000;text-transform:none;text-orientation:mixed;shape-padding:0;isolation:auto;mix-blend-mode:normal;stroke:#ffffff;stroke-opacity:1"
     d="M8.21289 7.550781c-.2911-.000834-.530131.23612-.529296.527344v89.675781c-.000835.291226.238071.530133.529297.529297H149.99414c.29038-.000363.52818-.238904.52734-.529297V8.078125c.00084-.290392-.23708-.52698-.52734-.527344zm0 .107422h141.78125c.23315.000292.41864.186775.41797.419922v89.675781c.00067.233147-.18496.421583-.41797.421875H8.21289c-.233685.00067-.420592-.188051-.419921-.421875V8.078125c-.00067-.233824.186098-.420591.419922-.419922zm.472657.839844L8.683594 8.5c-.00234-.000156-.00352-.000156-.00586 0a.026461.026461 0 0 0-.00195 0 .026461.026461 0 0 0-.00391 0 .026461.026461 0 0 0-.00195 0 .026461.026461 0 0 0 0 .00195.026461.026461 0 0 0-.00195 0 .026461.026461 0 0 0-.00586.00195.026461.026461 0 0 0-.00195.00195c-.0033.00183-.00689.00332-.00977.00586a.05759.05759 0 0 0-.00391.00391c-.000316.000316.000294.00164 0 .00195-.000294.00031-.00168-.0003-.00195 0a.026461.026461 0 0 0 0 .00195.026461.026461 0 0 0-.00195 0 .026461.026461 0 0 0 0 .00195.026461.026461 0 0 0-.00195 0 .026461.026461 0 0 0 0 .00195.026461.026461 0 0 0-.00195.00195.026461.026461 0 0 0-.00195.00195.026461.026461 0 0 0 0 .00195.026461.026461 0 0 0-.00195.00195.026461.026461 0 0 0 0 .00391.026461.026461 0 0 0 0 .00195.026461.026461 0 0 0-.00195.00195.026461.026461 0 0 0 0 .00586.026461.026461 0 0 0-.00195.00195.053046.053046 0 0 0 0 .00391v88.7305a.026461.026461 0 0 0 .00195.002.026461.026461 0 0 0 0 .0039.05333.05333 0 0 0 0 .0039.026461.026461 0 0 0 .00195.002.026461.026461 0 0 0 0 .002c.000496.0013.00134.0026.00195.0039.00074.0025.000812.0053.00195.0078a.026461.026461 0 0 0 0 .002.026461.026461 0 0 0 .00195.002.026461.026461 0 0 0 .00195.002c.00051.000581.00124.0012.00195.002l.00195.002c.000709.000735.000954.0011.00195.002l.00195.002c.000709.000735.000954.0011.00195.002.000354.000367.00153-.000405.00195 0 .000421.000404-.0005.0015 0 .002a.026461.026461 0 0 0 .00195.002c.000421.000404.00145-.000441.00195 0a.026461.026461 0 0 0 0 .002.026461.026461 0 0 0 .00195 0 .026461.026461 0 0 0 0 .002.026461.026461 0 0 0 .00195 0 .026461.026461 0 0 0 .00195 0 .026461.026461 0 0 0 0 .002.026461.026461 0 0 0 .00391 0c.000989.000423.00284-.000378.00391 0a.026461.026461 0 0 0 0 .002c.000543.000183.00139-.000167.00195 0 .00141.000419.00237.0016.00391.002a.026461.026461 0 0 0 .00391 0 .053102.053102 0 0 0 .00391 0H149.52148c.00065.000001.001.000014.002 0a.026461.026461 0 0 0 .006-.002l.0117-.002a.026461.026461 0 0 0 .004-.002c.00072-.000238.001-.0017.002-.002.001-.00045.003.000511.004 0a.026461.026461 0 0 0 .002-.002.026461.026461 0 0 0 0-.002.026461.026461 0 0 0 .002 0 .026461.026461 0 0 0 .002-.002.026461.026461 0 0 0 .002-.002.026461.026461 0 0 0 .002-.002c.00048-.000421-.00041-.0016 0-.002a.026461.026461 0 0 0 .002 0 .026461.026461 0 0 0 .002-.002.026461.026461 0 0 0 .002-.002.026461.026461 0 0 0 0-.002.026461.026461 0 0 0 .002-.002.026461.026461 0 0 0 0-.002c.00074-.0013.004-.0032.004-.0039a.026461.026461 0 0 0 0-.002.026461.026461 0 0 0 0-.002v-.002c.00012-.0016.002-.03263.002-.07422.00001-.04268-.00002-.105478 0-.189453.00003-.167951-.00003-.41718 0-.742187.00006-.650016-.00006-1.603149 0-2.816407.00011-2.426515-.00012-5.893172 0-10.052734.00023-8.319124.002-19.411979.002-30.503906.00039-22.183855 0-44.367188 0-44.367188a.026461.026461 0 0 0 0-.00195.026461.026461 0 0 0-.002-.00586.026461.026461 0 0 0 0-.00195.026461.026461 0 0 0-.002 0v-.00195a.026461.026461 0 0 0 0-.00195c-.00015-.000528.00018-.00139 0-.00195a.026461.026461 0 0 0-.002-.00195c-.00024-.000615.00029-.00131 0-.00195a.026461.026461 0 0 0-.002-.00586.026461.026461 0 0 0-.002-.00195.026461.026461 0 0 0-.002-.00195v-.00195c-.00004-.000052-.002.000258-.002 0l-.002-.00195v-.00195c-.00043-.00036-.001.000428-.002 0-.0009-.000749-.001-.00133-.002-.00195-.00033-.000269.00024-.00176 0-.00195-.00075-.00063-.001-.00121-.002-.00195h-.004v-.00195c-.00021-.000234-.004-.00229-.006-.00391a.026461.026461 0 0 0-.002-.00195.026461.026461 0 0 0-.002 0 .026461.026461 0 0 0-.002 0 .026461.026461 0 0 0 0-.00195.026461.026461 0 0 0-.004 0c-.0005-.000019-.001.000002-.002 0h-.002c-.003-.000276-.008-.000387-.0117 0l.006-.00195c-.00067-.000025-140.833984 0-140.83789 0-.00065-.000024-.0013 0-.00195 0zM149.57227 97.296875a.026461.026461 0 0 0 .002-.002.026461.026461 0 0 0 0-.002zM8.685547 8.552735s140.831363-.000026 140.835933 0a.026461.026461 0 0 0 .002.00586.026461.026461 0 0 0 0 .00195c0 .00976-.002 22.17845-.002 44.357422-.00019 11.091927.00023 22.184783 0 30.503906-.00011 4.159562.00012 7.62622 0 10.052734-.00005 1.213258.00006 2.166392 0 2.816407-.00002.325007.00003.574239 0 .742187-.00001.08397.00002.146777 0 .189453-.00001.0388.00001.05501 0 .05859v.002c-.00041.000383-.002-.000308-.002 0H8.689453a.026461.026461 0 0 0-.00195 0 .026461.026461 0 0 0 0-.002.026461.026461 0 0 0-.00195 0 .026461.026461 0 0 0 0-.0039V8.554688a.026461.026461 0 0 0 0-.00195z"
     id="rect4485"
     color="#000"
     font-weight="400"
     font-family="sans-serif"
     white-space="normal"
     overflow="visible"
     fill="#f0f0f0"
     stroke="#000"
     stroke-width="1.058333"
     stroke-linejoin="round" />
  <path
     id="path4492"
     d="M15.686012 52.91667H143.25297"
     fill="none"
     stroke="#000"
     stroke-width="2.116667"
     style="stroke:#ffffff;stroke-opacity:1" />
  <circle
     r="1.417411"
     cy="39.120537"
     cx="49.609375"
     id="path4494"
     fill="none"
     stroke="#000"
     stroke-width="2.116667"
     stroke-linecap="round"
     stroke-linejoin="round"
     style="stroke:#ffffff;stroke-opacity:1" />
  <circle
     r="1.417411"
     cy="39.120537"
     cx="114.3378"
     id="path4494-6-4"
     fill="none"
     stroke="#000"
     stroke-width="2.116667"
     stroke-linecap="round"
     stroke-linejoin="round"
     style="stroke:#ffffff;stroke-opacity:1" />
  <circle
     r="1.417411"
     cy="16.687643"
     cx="23.434528"
     id="path4494-4"
     fill="none"
     stroke="#cacaca"
     stroke-width="1.058333"
     stroke-linecap="round"
     stroke-linejoin="round" />
  <circle
     r="1.417411"
     cy="16.687643"
     cx="45.735126"
     id="path4494-4-1"
     fill="none"
     stroke="#cacaca"
     stroke-width="1.058333"
     stroke-linecap="round"
     stroke-linejoin="round" />
  <circle
     r="1.417411"
     cy="16.687643"
     cx="68.035713"
     id="path4494-4-4"
     fill="none"
     stroke="#cacaca"
     stroke-width="1.058333"
     stroke-linecap="round"
     stroke-linejoin="round" />
  <circle
     r="1.417411"
     cy="16.687643"
     cx="134.9375"
     id="path4494-4-0"
     fill="none"
     stroke="#cacaca"
     stroke-width="1.058333"
     stroke-linecap="round"
     stroke-linejoin="round" />
  <circle
     r="1.417411"
     cy="16.687643"
     cx="112.63691"
     id="path4494-4-6"
     fill="none"
     stroke="#cacaca"
     stroke-width="1.058333"
     stroke-linecap="round"
     stroke-linejoin="round" />
  <circle
     r="1.417411"
     cy="16.687643"
     cx="90.336319"
     id="path4494-4-3"
     fill="none"
     stroke="#cacaca"
     stroke-width="1.058333"
     stroke-linecap="round"
     stroke-linejoin="round" />
</svg>
