<svg xmlns="http://www.w3.org/2000/svg" width="171.84901" height="58.676" viewBox="0 0 171.84901 58.676">
  <path fill="#fff" d="M60.396114 53.54161v-3.32625h-3.65125c-2.10125 0-2.60625.14375-2.96875.5025-.35875.365-.4325.79875-.4325 1.70375 0 1.01375.07375 1.555.36125 1.845.29.28625.68625.3225 1.41.3225h1.555c1.15875 0 1.9175-.10625 3.72625-1.0475m-10.4175-13.81375c.79875-.79625 1.73875-1.12125 3.54375-1.12125h7.27c2.025 0 3.21875.35875 3.94375 1.12125.905.9 1.195 1.9525 1.195 5.31375v13.455h-5.535v-2.275c-2.3875 1.95125-3.255 2.31125-5.02625 2.31125h-2.715c-1.77125 0-2.7125-.21625-3.5075-1.0075-.68875-.69125-1.155-1.84875-1.155-4.45 0-2.46.35875-3.98125 1.23125-4.84875.9-.90375 2.0575-1.33875 5.63625-1.33875 1.91875 0 3.9075.22 5.53625.57875v-1.7725c0-1.95375-.11-2.35125-.3625-2.64125-.255-.21875-.615-.2925-1.44625-.2925h-2.78375c-.76 0-1.16.07375-1.37625.2925-.28875.29-.32625.6875-.39875 1.88125h-5.24c.0325-3.32375.35875-4.415 1.19-5.20625m30.88138 13.5245v-9.47375c-1.16-.5425-1.99125-.795-2.895-.795h-1.98625c-1.015 0-1.49.1425-1.8125.46875-.50625.46875-.64875 1.30375-.64875 5.0975 0 3.7975.1425 4.59625.64875 5.10375.3225.3225.7975.43375 1.8125.43375h1.805c.94125 0 1.84375-.25625 3.07625-.835m0 5.24375v-2.56625c-2.49625 2.17125-3.36375 2.60375-4.99375 2.60375h-2.09625c-2.10125 0-3.21875-.36-4.085-1.22875-1.1925-1.1925-1.66375-2.9325-1.66375-8.755 0-5.85875.57375-7.51875 1.80625-8.7525.87-.865 2.025-1.22625 4.01375-1.22625h2.17c1.66375 0 2.56875.36125 4.84875 2.2775v-9.04125h5.535v26.68875h-5.535zm20.028-4.9545v-3.32625h-3.65c-2.1 0-2.6075.14375-2.9675.5025-.36125.365-.435.79875-.435 1.70375 0 1.01375.07375 1.555.3625 1.845.28875.28625.685.3225 1.41.3225h1.55375c1.15875 0 1.91875-.10625 3.72625-1.0475m-10.415-13.81375c.795-.79625 1.73625-1.12125 3.5425-1.12125h7.27125c2.025 0 3.2175.35875 3.945 1.12125.90125.9 1.19125 1.9525 1.19125 5.31375v13.455h-5.535v-2.275c-2.38625 1.95125-3.255 2.31125-5.02625 2.31125h-2.71c-1.77375 0-2.7175-.21625-3.51-1.0075-.68875-.69125-1.16-1.84875-1.16-4.45 0-2.46.36125-3.98125 1.23125-4.84875.90375-.90375 2.06125-1.33875 5.64125-1.33875 1.91875 0 3.905.22 5.53375.57875v-1.7725c0-1.95375-.10875-2.35125-.36125-2.64125-.25-.21875-.61625-.2925-1.44625-.2925h-2.785c-.76 0-1.1575.07375-1.3725.2925-.2925.29-.32625.6875-.4025 1.88125h-5.24125c.03625-3.32375.3625-4.415 1.19375-5.20625m18.03712 18.76863V37.66524c0-2.49625.32875-3.8 1.16-4.62875.8325-.83125 1.7725-1.23 3.905-1.23h4.5575v4.19375h-2.68c-.72 0-.9375.07375-1.15375.2525-.18375.22-.2525.61125-.2525 1.5925v.7975h4.08625v4.305h-4.0525v15.54875h-5.57zm11.71138 0v-19.89h5.53v3.0375c2.06375-2.135 3.11125-3.0725 4.7025-3.0725h2.13375v5.46h-2.5675c-1.5175 0-2.675.1425-4.26875.79375v13.67125h-5.53zm32.35725-19.89013v19.89h-5.57v-2.63625c-2.53 2.27625-3.3625 2.6725-5.1725 2.6725h-2.4225c-1.73625 0-2.82125-.36-3.57875-1.12-.7975-.83125-1.1575-1.87875-1.1575-4.775V38.60636h5.57v13.4175c0 .82875.10625 1.30125.43125 1.63.32625.3225.6525.43375 1.6275.43375h1.59625c.9375 0 1.7725-.22 3.10625-.79875v-14.6825h5.57zm7.5225 19.88975h-5.46v-19.89h5.46v19.89zm0-22.6425h-5.46v-4.046247h5.46v4.046247zm11.74749 18.26912h-2.385c-.90875 0-1.27-.07625-1.44625-.21875-.18375-.2175-.25625-.505-.25625-1.37375v-9.5825h4.0875v-4.34125h-4.0875v-2.7525h-5.57v18.16c0 2.025.25375 2.93.905 3.58.6875.68875 1.6975 1.0825 3.58125 1.0825 1.4825 0 2.96625-.21625 3.83375-.4325l1.3375-.3475v-3.77375z"/>
  <path fill="#fff" d="M35.205614 31.272363c-2.26.36125-4.20875-.09125-4.355-1.0075-.14625-.91625 1.5675-1.95125 3.8275-2.31 2.25875-.35875 4.2075.09125 4.35375 1.00625.14625.91625-1.56625 1.9525-3.82625 2.31125m-2.14625 9.4375c-.8275.42125-2.34125-.8875-3.38-2.92375-1.04-2.03875-1.21375-4.035-.385-4.45625.825-.42 2.33625.88875 3.3775 2.92625 1.04 2.03625 1.215 4.03125.3875 4.45375m-8.9025-3.79375c-1.61625 1.61875-3.4575 2.39875-4.11375 1.7425-.6575-.655.12125-2.49875 1.7375-4.1175 1.615-1.62125 3.45625-2.40125 4.115-1.745.65625.655-.12125 2.5-1.73875 4.12m-6.18625-11.2725c.41875-.8275 2.41375-.655 4.45.38125 2.04 1.03625 3.35375 2.54875 2.9325 3.375-.42125.825-2.41375.65625-4.4525-.38s-3.35125-2.54875-2.93-3.37625m11.735-5.99125c.9175.1425 1.37125 2.09375 1.0125 4.35375-.35375 2.26-1.38375 3.97375-2.3025 3.83-.915-.145-1.37-2.09375-1.015-4.3525.35625-2.26 1.3875-3.975 2.305-3.83125m28.93625 6.185c-.19-1.20125-.8425-1.545-2.41625-2.0475-1.195-.38375-9.2-2.93375-9.2-2.93375s-5.58-2.10875-9.715.8725c-.5575.4025-1.135.86-1.71375 1.3475.48625-.58.94375-1.15625 1.345-1.71375 2.9725-4.14125.855-9.71875.855-9.71875s-2.56375-7.99875-2.95-9.19625c-.50625-1.57-.85-2.2225-2.0525-2.40875-1.205-.19125-1.73.3225-2.695 1.6625-.735 1.0175-5.635 7.84375-5.635 7.84375s-3.725 4.655-2.17125 9.51125c.21125.65125.4675 1.3425.75375 2.045-.4025-.6425-.81-1.25625-1.21625-1.80875-3.02125-4.105-8.97625-3.81875-8.97625-3.81875s-8.40125-.0325-9.65625-.03375c-1.6525-.00625-2.3775.1225-2.93 1.20625-.5525 1.08375-.22625 1.74625.75 3.07625.74125 1.01375 5.72125 7.78125 5.72125 7.78125s3.275 4.985 8.37125 5.005c.685.00375 1.41875-.0275 2.1725-.0825-.7325.1825-1.44.3825-2.09125.59625-4.83875 1.605-6.4025 7.36-6.4025 7.36s-2.6275 7.98-3.02 9.175c-.5125 1.5675-.61625 2.29625.24375 3.155.86125.8625 1.59125.75625 3.15875.23875 1.19375-.39125 9.17-3.035 9.17-3.035s5.74875-1.57625 7.3425-6.4175c.21625-.65.4125-1.3575.595-2.0875-.05375.7525-.0825 1.485-.07625 2.17.02625 5.0975 5.0175 8.36375 5.0175 8.36375s6.775 4.9625 7.79 5.705c1.335.97125 1.995 1.2975 3.08.74375 1.0825-.5525 1.20875-1.2775 1.20125-2.93-.005-1.255-.055-9.65625-.055-9.65625s.28-5.95625-3.83125-8.97c-.5525-.405-1.16375-.81125-1.80625-1.21125.70125.2825 1.38875.53875 2.04375.74375 4.85625 1.54875 9.50625-2.18625 9.50625-2.18625s6.815-4.91125 7.83375-5.64625c1.3375-.9675 1.84875-1.49875 1.65875-2.7"/>
</svg>