<svg xmlns="http://www.w3.org/2000/svg" width="600" height="400" viewBox="0 0 158.75 105.83334" id="svg8">
  <g id="layer1" transform="translate(0 -191.16665)">
    <path style="line-height:normal;font-variant-ligatures:normal;font-variant-position:normal;font-variant-caps:normal;font-variant-numeric:normal;font-variant-alternates:normal;font-feature-settings:normal;text-indent:0;text-align:start;text-decoration-line:none;text-decoration-style:solid;text-decoration-color:#000;text-transform:none;text-orientation:mixed;shape-padding:0;isolation:auto;mix-blend-mode:normal" d="M8.21289 198.77082c-.26243-.00075-.475362.21218-.474609.47461v89.67578c-.000753.26243.212179.47536.47461.47461H149.99414c.26167-.00033.47341-.21294.47266-.47461v-89.67578c.00075-.26167-.21099-.47428-.47266-.47461zm141.30859 89.67773H8.685547z" id="rect4485" color="#000" font-weight="400" font-family="sans-serif" white-space="normal" overflow="visible" stroke-width=".052917" stroke-linejoin="round"/>
    <path d="M15.686012 244.08332H143.25297" id="path4492" fill="none" stroke="#fff" stroke-width="2.116667"/>
    <circle id="path4494" cx="49.609375" cy="230.28719" r="1.417411" fill="none" stroke="#fff" stroke-width="2.116667" stroke-linecap="round" stroke-linejoin="round"/>
    <circle id="path4494-6-4" cx="114.3378" cy="230.28719" r="1.417411" fill="none" stroke="#fff" stroke-width="2.116667" stroke-linecap="round" stroke-linejoin="round"/>
    <circle id="path4494-4" cx="23.434528" cy="207.85429" r="1.417411" fill="none" stroke="#cacaca" stroke-width="1.058333" stroke-linecap="round" stroke-linejoin="round"/>
    <circle id="path4494-4-1" cx="45.735126" cy="207.85429" r="1.417411" fill="none" stroke="#cacaca" stroke-width="1.058333" stroke-linecap="round" stroke-linejoin="round"/>
    <circle id="path4494-4-4" cx="68.035713" cy="207.85429" r="1.417411" fill="none" stroke="#cacaca" stroke-width="1.058333" stroke-linecap="round" stroke-linejoin="round"/>
    <circle id="path4494-4-0" cx="134.9375" cy="207.85429" r="1.417411" fill="none" stroke="#cacaca" stroke-width="1.058333" stroke-linecap="round" stroke-linejoin="round"/>
    <circle id="path4494-4-6" cx="112.63691" cy="207.85429" r="1.417411" fill="none" stroke="#cacaca" stroke-width="1.058333" stroke-linecap="round" stroke-linejoin="round"/>
    <circle id="path4494-4-3" cx="90.336319" cy="207.85429" r="1.417411" fill="none" stroke="#cacaca" stroke-width="1.058333" stroke-linecap="round" stroke-linejoin="round"/>
  </g>
</svg>
