<?xml version="1.0" encoding="utf-8"?>
<svg id="Layer_1" x="0px" y="0px" width="2.75278in" height="2.1in" viewBox="0 0 198.2 151.2" xmlns="http://www.w3.org/2000/svg">
  <desc>
    <referencefile xmlns="http://www.w3.org/1999/xhtml">sparkfun-photon_p1_breadboard.svg</referencefile>
  </desc>
  <desc>Fritzing breadboard generated by brd2svg</desc>
  <g id="breadboard" gorn="0.2">
    <g id="icon" gorn="0.2.0">
      <path d="M 3.8 151.2 L 3.8 0 L 186.7 0 L 191 4.3 L 191 36.7 L 198.2 43.9 L 198.2 136.8 L 191 144 L 191 151.2 L 3.8 151.2 M 42.5 7.2 C 42.5 9.7 44.5 11.7 47 11.7 C 49.5 11.7 51.5 9.7 51.5 7.2 L 51.5 7.2 C 51.5 4.7 49.5 2.7 47 2.7 C 44.5 2.7 42.5 4.7 42.5 7.2 Z M 186.5 50.4 C 186.5 52.9 188.5 54.9 191 54.9 C 193.5 54.9 195.5 52.9 195.5 50.4 C 195.5 47.9 193.5 45.9 191 45.9 C 188.5 45.9 186.5 47.9 186.5 50.4 Z M 186.5 129.6 C 186.5 132.1 188.5 134.1 191 134.1 C 193.5 134.1 195.5 132.1 195.5 129.6 C 195.5 127.1 193.5 125.1 191 125.1 C 188.5 125.1 186.5 127.1 186.5 129.6 Z" style="fill: none; stroke: rgb(0, 0, 0);"/>
    </g>
  </g>
</svg>