<svg xmlns="http://www.w3.org/2000/svg" width="142" height="180" viewBox="0 0 142 180"><rect ry=".3" rx="1" y="58.615" x="-8.878" height="23.571" width="17.143" transform="rotate(-45)" fill="#b3b3b3"/><rect ry=".3" rx="1" y="32.043" x="-8.878" height="23.571" width="17.143" transform="rotate(-45)" fill="#b3b3b3"/><path d="M.346 7.296c-.394.39-.31 4.797-.18 4.898l13.404 10.18c.117.12.337 4.76.73 4.368l5.506-5.56.01.01 6.51-6.444c.39-.392-4.25-.614-4.366-.73L11.777.612c-.1-.132-4.51-.215-4.898.18L4.087 3.636l-.01-.01-3.73 3.67z" fill="#b3b3b3"/><rect ry="6.85" rx="4.571" y="84.758" x="-20.128" height="75.571" width="39.643" transform="rotate(-45)"/><rect ry=".374" rx="1.038" y="29.442" x="-8.925" height="2.228" width="17.238" transform="rotate(-45)" fill="#fff"/><rect ry=".374" rx="1.038" y="55.939" x="-8.925" height="2.228" width="17.238" transform="rotate(-45)" fill="#fff"/><rect ry=".374" rx="1.038" y="82.392" x="-8.925" height="2.228" width="17.238" transform="rotate(-45)" fill="#fff"/><rect ry="2.317" rx="2.183" y="158.876" x="-9.774" height="25.568" width="18.935" transform="rotate(-45)"/><path d="M128.588 128.82s14.97 11.165 7.547 26.35c-8.426 17.24-25.57 20.653-25.57 20.653" fill="none" stroke="#000" stroke-width="6.6" stroke-linecap="round" stroke-linejoin="round"/></svg>