<?xml version="1.0" encoding="UTF-8" standalone="no"?>
<svg
   xmlns:dc="http://purl.org/dc/elements/1.1/"
   xmlns:cc="http://creativecommons.org/ns#"
   xmlns:rdf="http://www.w3.org/1999/02/22-rdf-syntax-ns#"
   xmlns:svg="http://www.w3.org/2000/svg"
   xmlns="http://www.w3.org/2000/svg"
   xmlns:sodipodi="http://sodipodi.sourceforge.net/DTD/sodipodi-0.dtd"
   xmlns:inkscape="http://www.inkscape.org/namespaces/inkscape"
   height="184.8763"
   id="svg10142"
   viewBox="0 0 187.49988 184.8763"
   width="187.49988"
   version="1.2"
   sodipodi:docname="board.svg"
   inkscape:version="0.92.1 r15371">
  <metadata
     id="metadata5076">
    <rdf:RDF>
      <cc:Work
         rdf:about="">
        <dc:format>image/svg+xml</dc:format>
        <dc:type
           rdf:resource="http://purl.org/dc/dcmitype/StillImage" />
        <dc:title></dc:title>
      </cc:Work>
    </rdf:RDF>
  </metadata>
  <defs
     id="defs5074" />
  <sodipodi:namedview
     pagecolor="#ffffff"
     bordercolor="#666666"
     borderopacity="1"
     objecttolerance="10"
     gridtolerance="10"
     guidetolerance="10"
     inkscape:pageopacity="0"
     inkscape:pageshadow="2"
     inkscape:window-width="1600"
     inkscape:window-height="837"
     id="namedview5072"
     showgrid="false"
     fit-margin-top="0"
     fit-margin-left="0"
     fit-margin-right="0"
     fit-margin-bottom="0"
     inkscape:zoom="4.4571412"
     inkscape:cx="68.728565"
     inkscape:cy="91.534526"
     inkscape:window-x="-8"
     inkscape:window-y="-8"
     inkscape:window-maximized="1"
     inkscape:current-layer="svg10142" />
  <g
     transform="matrix(1.8908326,0,0,1.8908326,-0.00132358,-2.981369)"
     id="g4486">
    <path
       id="path10148"
       d="m 36.082,2.0625 a 49.5813,49.5813 0 1 0 27,0 z M 19.959,13.5703 a 6.5693,6.5693 0 0 1 6.5683,6.5684 6.5693,6.5693 0 0 1 -6.5683,6.5703 6.5693,6.5693 0 0 1 -6.5703,-6.5703 6.5693,6.5693 0 0 1 6.5703,-6.5684 z m 59.2441,0 a 6.5693,6.5693 0 0 1 6.5703,6.5684 6.5693,6.5693 0 0 1 -6.5703,6.5703 6.5693,6.5693 0 0 1 -6.5683,-6.5703 6.5693,6.5693 0 0 1 6.5683,-6.5684 z M 7.7305,43.1933 a 6.5693,6.5693 0 0 1 6.5703,6.5684 6.5693,6.5693 0 0 1 -6.5703,6.5703 6.5693,6.5693 0 0 1 -6.5684,-6.5703 6.5693,6.5693 0 0 1 6.5684,-6.5683 z m 83.7011,0 A 6.5693,6.5693 0 0 1 98,49.7618 6.5693,6.5693 0 0 1 91.4316,56.3321 6.5693,6.5693 0 0 1 84.8613,49.7618 6.5693,6.5693 0 0 1 91.4316,43.1935 Z M 19.959,72.8165 a 6.5693,6.5693 0 0 1 6.5683,6.5684 6.5693,6.5693 0 0 1 -6.5683,6.5703 6.5693,6.5693 0 0 1 -6.5703,-6.5703 6.5693,6.5693 0 0 1 6.5703,-6.5684 z m 59.2441,0 a 6.5693,6.5693 0 0 1 6.5703,6.5684 6.5693,6.5693 0 0 1 -6.5703,6.5703 6.5693,6.5693 0 0 1 -6.5683,-6.5703 6.5693,6.5693 0 0 1 6.5683,-6.5684 z"
       inkscape:connector-curvature="0"
       style="stroke-width:0" />
  </g>
  <g
     transform="matrix(2.3635406,0,0,-2.3635406,-0.00132358,184.87663)"
     id="g4618">
    <g
       id="g27055">
      <g
         id="g27057"
         clip-path="url(#clipPath27059)">
        <g
           transform="translate(7.7366,59.1838)"
           id="g4490">
          <g
             id="g27063">
            <path
               id="path27065"
               d="m 0,0 -1.802,-1.802 0.357,-0.356 c 0.117,-0.117 0.245,-0.205 0.382,-0.262 0.137,-0.056 0.278,-0.08 0.421,-0.07 0.143,0.008 0.289,0.049 0.437,0.121 0.149,0.072 0.291,0.176 0.429,0.314 l 0.022,0.022 c 0.14,0.139 0.246,0.283 0.318,0.431 0.072,0.149 0.113,0.295 0.123,0.44 0.01,0.144 -0.013,0.286 -0.069,0.424 -0.057,0.136 -0.144,0.263 -0.262,0.382 z M -0.041,0.812 0.746,0.026 C 0.93,-0.158 1.066,-0.355 1.154,-0.566 1.243,-0.777 1.284,-0.991 1.279,-1.21 1.274,-1.428 1.223,-1.645 1.126,-1.859 1.03,-2.073 0.887,-2.275 0.699,-2.463 l -0.03,-0.03 C 0.48,-2.682 0.278,-2.826 0.062,-2.924 c -0.216,-0.097 -0.433,-0.148 -0.65,-0.154 -0.219,-0.004 -0.434,0.037 -0.646,0.123 -0.212,0.088 -0.41,0.223 -0.594,0.407 l -0.787,0.786 z"
               inkscape:connector-curvature="0"
               style="fill:#ffffff" />
          </g>
        </g>
        <g
           transform="translate(7.4934,55.7277)"
           id="g4494">
          <g
             id="g27067">
            <path
               id="path27069"
               d="M 0,0 1.629,0.056 C 1.778,0.058 1.908,0.063 2.017,0.071 2.125,0.081 2.221,0.095 2.303,0.116 2.386,0.137 2.459,0.164 2.522,0.198 2.586,0.232 2.644,0.276 2.695,0.327 2.813,0.444 2.867,0.571 2.859,0.708 2.85,0.844 2.793,0.965 2.688,1.069 2.585,1.173 2.467,1.235 2.334,1.257 2.202,1.279 2.038,1.278 1.842,1.254 L 1.82,1.798 C 2.075,1.837 2.308,1.831 2.521,1.781 2.732,1.731 2.932,1.612 3.118,1.427 3.231,1.313 3.317,1.192 3.377,1.064 3.437,0.937 3.471,0.806 3.476,0.675 A 0.9268,0.9268 0 0 0 3.409,0.286 C 3.357,0.159 3.276,0.04 3.166,-0.069 L 3.158,-0.077 C 3.07,-0.165 2.979,-0.235 2.886,-0.286 2.793,-0.339 2.688,-0.378 2.572,-0.406 2.456,-0.435 2.326,-0.452 2.182,-0.462 A 8.8925,8.8925 0 0 0 1.687,-0.475 L 0.614,-0.519 1.677,-1.581 1.291,-1.968 -0.338,-0.339 Z"
               inkscape:connector-curvature="0"
               style="fill:#ffffff" />
          </g>
        </g>
        <g
           transform="translate(4.1453,49.2258)"
           id="g4498">
          <g
             id="g27071">
            <path
               id="path27073"
               d="M 0,0 -0.52,1.461 -1.04,0 Z m -0.801,2.267 h 0.582 L 1.118,-1.394 H 0.489 l -0.302,0.858 h -1.415 l -0.301,-0.858 h -0.608 z"
               inkscape:connector-curvature="0"
               style="fill:#ffffff" />
          </g>
        </g>
        <g
           transform="translate(5.5804,48.3107)"
           id="g4502">
          <g
             id="g27075">
            <path
               id="path27077"
               d="M 0,0 1.113,1.191 C 1.217,1.298 1.304,1.394 1.375,1.477 1.446,1.56 1.503,1.638 1.547,1.71 1.59,1.784 1.623,1.854 1.643,1.924 1.664,1.993 1.674,2.064 1.674,2.137 1.674,2.304 1.623,2.432 1.521,2.522 1.418,2.612 1.293,2.657 1.144,2.657 0.999,2.657 0.871,2.618 0.762,2.54 0.652,2.462 0.537,2.345 0.416,2.189 l -0.4,0.369 C 0.168,2.766 0.337,2.927 0.522,3.042 0.708,3.156 0.933,3.213 1.196,3.213 1.355,3.213 1.502,3.189 1.635,3.141 1.769,3.092 1.884,3.024 1.981,2.935 A 0.9176,0.9176 0 0 0 2.208,2.613 C 2.261,2.486 2.288,2.345 2.288,2.189 V 2.179 C 2.288,2.054 2.273,1.94 2.244,1.838 2.214,1.736 2.168,1.633 2.106,1.531 A 2.2113,2.2113 0 0 0 1.869,1.217 7.8341,7.8341 0 0 0 1.529,0.858 L 0.801,0.067 H 2.304 V -0.479 H 0 Z"
               inkscape:connector-curvature="0"
               style="fill:#ffffff" />
          </g>
        </g>
        <g
           transform="translate(3.2976,30.926)"
           id="g4506">
          <g
             id="g27079">
            <path
               id="path27081"
               d="m 0,0 v -2.548 h 0.504 c 0.167,0 0.318,0.028 0.455,0.086 0.137,0.058 0.253,0.14 0.349,0.247 0.095,0.108 0.17,0.239 0.223,0.396 0.054,0.155 0.081,0.331 0.081,0.524 v 0.031 c 0,0.199 -0.027,0.375 -0.081,0.531 -0.053,0.156 -0.128,0.289 -0.223,0.398 A 0.9387,0.9387 0 0 1 0.959,-0.086 C 0.822,-0.028 0.671,0 0.504,0 Z M -0.604,0.546 H 0.509 C 0.77,0.546 1.005,0.503 1.217,0.416 1.428,0.329 1.609,0.207 1.76,0.05 1.911,-0.108 2.028,-0.297 2.111,-0.518 2.194,-0.737 2.236,-0.98 2.236,-1.248 V -1.289 C 2.236,-1.557 2.194,-1.801 2.111,-2.022 2.028,-2.244 1.911,-2.435 1.76,-2.592 1.609,-2.75 1.428,-2.873 1.217,-2.961 1.005,-3.05 0.77,-3.094 0.509,-3.094 h -1.113 z"
               inkscape:connector-curvature="0"
               style="fill:#ffffff" />
          </g>
        </g>
        <g
           transform="translate(7.114,28.3215)"
           id="g4510">
          <g
             id="g27083">
            <path
               id="path27085"
               d="m 0,0 c 0.229,0 0.412,0.114 0.548,0.344 0.138,0.23 0.206,0.55 0.206,0.961 V 1.347 C 0.754,1.548 0.736,1.73 0.699,1.895 0.663,2.058 0.611,2.196 0.543,2.31 0.476,2.423 0.395,2.51 0.301,2.57 0.208,2.632 0.104,2.662 -0.011,2.662 -0.239,2.662 -0.423,2.547 -0.562,2.317 -0.701,2.088 -0.77,1.768 -0.77,1.356 V 1.315 c 0,-0.206 0.019,-0.389 0.055,-0.55 0.036,-0.162 0.088,-0.3 0.156,-0.413 0.067,-0.113 0.149,-0.201 0.244,-0.261 A 0.573,0.573 0 0 1 0,0 m -0.011,-0.547 c -0.211,0 -0.401,0.045 -0.569,0.133 -0.168,0.089 -0.312,0.214 -0.432,0.375 C -1.131,0.122 -1.223,0.315 -1.287,0.543 -1.352,0.77 -1.383,1.022 -1.383,1.3 v 0.056 c 0,0.275 0.032,0.526 0.098,0.754 0.066,0.23 0.159,0.424 0.279,0.585 0.119,0.162 0.264,0.287 0.434,0.377 0.17,0.091 0.36,0.136 0.572,0.136 0.208,0 0.396,-0.044 0.564,-0.133 C 0.732,2.987 0.876,2.862 0.996,2.701 1.115,2.54 1.208,2.346 1.274,2.118 1.34,1.892 1.373,1.64 1.373,1.362 V 1.305 C 1.373,1.027 1.34,0.775 1.274,0.548 1.208,0.321 1.115,0.127 0.996,-0.034 0.876,-0.195 0.731,-0.321 0.562,-0.411 0.392,-0.501 0.201,-0.547 -0.011,-0.547"
               inkscape:connector-curvature="0"
               style="fill:#ffffff" />
          </g>
        </g>
        <g
           transform="translate(62.0345,42.4387)"
           id="g4514">
          <g
             id="g27087">
            <path
               id="path27089"
               d="M 0,0 C 0.123,0 0.237,0.027 0.342,0.081 0.447,0.136 0.537,0.211 0.612,0.309 0.687,0.406 0.746,0.523 0.788,0.662 0.83,0.8 0.851,0.954 0.851,1.125 V 1.157 C 0.851,1.325 0.83,1.479 0.788,1.618 0.746,1.758 0.687,1.877 0.61,1.976 A 0.8228,0.8228 0 0 1 0.338,2.205 C 0.232,2.26 0.117,2.286 -0.009,2.286 -0.132,2.286 -0.246,2.26 -0.351,2.205 A 0.8126,0.8126 0 0 1 -0.621,1.979 C -0.695,1.881 -0.754,1.763 -0.796,1.625 -0.838,1.487 -0.859,1.332 -0.859,1.161 V 1.13 c 0,-0.168 0.021,-0.321 0.065,-0.461 0.043,-0.14 0.104,-0.259 0.18,-0.358 0.077,-0.099 0.167,-0.175 0.272,-0.23 A 0.7398,0.7398 0 0 1 0,0 m -0.009,-0.481 c -0.204,0 -0.391,0.04 -0.562,0.119 -0.171,0.08 -0.319,0.19 -0.442,0.331 -0.123,0.14 -0.217,0.308 -0.285,0.504 -0.067,0.195 -0.101,0.41 -0.101,0.643 v 0.045 c 0,0.235 0.034,0.449 0.103,0.646 0.069,0.197 0.165,0.366 0.288,0.508 0.123,0.143 0.271,0.254 0.442,0.333 0.17,0.081 0.359,0.12 0.566,0.12 0.204,0 0.392,-0.039 0.562,-0.12 C 0.733,2.569 0.881,2.459 1.004,2.317 1.127,2.177 1.222,2.009 1.289,1.813 1.357,1.619 1.391,1.404 1.391,1.17 V 1.125 C 1.391,0.892 1.356,0.676 1.287,0.479 1.218,0.283 1.122,0.113 0.999,-0.029 A 1.306,1.306 0 0 0 0.559,-0.362 C 0.388,-0.441 0.198,-0.481 -0.009,-0.481"
               inkscape:connector-curvature="0"
               style="fill:#ffffff" />
          </g>
        </g>
        <g
           transform="translate(65.2786,43.9553)"
           id="g4518">
          <g
             id="g27091">
            <path
               id="path27093"
               d="M 0,0 H -0.256 V 0.423 H 0 V 0.607 C 0,0.854 0.062,1.035 0.183,1.152 0.296,1.267 0.46,1.323 0.675,1.323 0.753,1.323 0.82,1.318 0.875,1.31 0.931,1.301 0.984,1.289 1.035,1.273 V 0.847 A 2.598,2.598 0 0 1 0.914,0.876 0.7121,0.7121 0 0 1 0.788,0.887 C 0.599,0.887 0.504,0.777 0.504,0.559 V 0.423 H 1.03 V 0 H 0.509 V -1.948 H 0 Z m -1.476,0 h -0.265 v 0.423 h 0.265 v 0.184 c 0,0.247 0.059,0.428 0.175,0.545 0.12,0.115 0.286,0.171 0.498,0.171 0.078,0 0.145,-0.005 0.2,-0.013 0.056,-0.009 0.109,-0.021 0.16,-0.037 V 0.847 c -0.042,0.011 -0.082,0.021 -0.121,0.029 a 0.7091,0.7091 0 0 1 -0.125,0.011 c -0.189,0 -0.283,-0.11 -0.283,-0.328 V 0.423 H -0.45 V 0 h -0.518 v -1.948 h -0.508 z"
               inkscape:connector-curvature="0"
               style="fill:#ffffff" />
          </g>
        </g>
        <g
           transform="translate(62.0345,35.4387)"
           id="g4522">
          <g
             id="g27095">
            <path
               id="path27097"
               d="M 0,0 C 0.123,0 0.237,0.027 0.342,0.081 0.447,0.136 0.537,0.211 0.612,0.309 0.687,0.406 0.746,0.523 0.788,0.662 0.83,0.8 0.851,0.954 0.851,1.125 V 1.157 C 0.851,1.325 0.83,1.479 0.788,1.618 0.746,1.758 0.687,1.877 0.61,1.976 A 0.8228,0.8228 0 0 1 0.338,2.205 C 0.232,2.26 0.117,2.286 -0.009,2.286 -0.132,2.286 -0.246,2.26 -0.351,2.205 A 0.8126,0.8126 0 0 1 -0.621,1.979 C -0.695,1.881 -0.754,1.763 -0.796,1.625 -0.838,1.487 -0.859,1.332 -0.859,1.161 V 1.13 c 0,-0.168 0.021,-0.321 0.065,-0.461 0.043,-0.14 0.104,-0.259 0.18,-0.358 0.077,-0.099 0.167,-0.175 0.272,-0.23 A 0.7398,0.7398 0 0 1 0,0 m -0.009,-0.481 c -0.204,0 -0.391,0.04 -0.562,0.119 -0.171,0.08 -0.319,0.19 -0.442,0.331 -0.123,0.14 -0.217,0.308 -0.285,0.504 -0.067,0.195 -0.101,0.41 -0.101,0.643 v 0.045 c 0,0.235 0.034,0.449 0.103,0.646 0.069,0.197 0.165,0.366 0.288,0.508 0.123,0.143 0.271,0.254 0.442,0.333 0.17,0.081 0.359,0.12 0.566,0.12 0.204,0 0.392,-0.039 0.562,-0.12 C 0.733,2.569 0.881,2.459 1.004,2.317 1.127,2.177 1.222,2.009 1.289,1.813 1.357,1.619 1.391,1.404 1.391,1.17 V 1.125 C 1.391,0.892 1.356,0.676 1.287,0.479 1.218,0.283 1.122,0.113 0.999,-0.029 A 1.306,1.306 0 0 0 0.559,-0.362 C 0.388,-0.441 0.198,-0.481 -0.009,-0.481"
               inkscape:connector-curvature="0"
               style="fill:#ffffff" />
          </g>
        </g>
        <g
           transform="translate(63.7757,37.3918)"
           id="g4526">
          <g
             id="g27099">
            <path
               id="path27101"
               d="m 0,0 h 0.509 v -0.351 c 0.065,0.105 0.15,0.198 0.254,0.277 0.103,0.08 0.236,0.119 0.398,0.119 0.232,0 0.411,-0.075 0.54,-0.225 0.129,-0.15 0.194,-0.352 0.194,-0.607 V -2.385 H 1.386 v 1.453 c 0,0.168 -0.037,0.297 -0.113,0.385 -0.075,0.089 -0.179,0.133 -0.314,0.133 -0.136,0 -0.244,-0.046 -0.326,-0.14 C 0.55,-0.646 0.509,-0.775 0.509,-0.94 V -2.385 H 0 Z"
               inkscape:connector-curvature="0"
               style="fill:#ffffff" />
          </g>
        </g>
        <g
           transform="translate(60.7522,53.9382)"
           id="g4530">
          <g
             id="g27103">
            <path
               id="path27105"
               d="M 0,0 H 0.521 V -2.669 H 1.872 V -3.15 H 0 Z"
               inkscape:connector-curvature="0"
               style="fill:#ffffff" />
          </g>
        </g>
        <g
           transform="translate(22.7024,5.8156)"
           id="g4534">
          <g
             id="g27107">
            <path
               id="path27109"
               d="m 0,0 c -0.182,-0.181 -0.373,-0.307 -0.574,-0.378 -0.201,-0.07 -0.403,-0.101 -0.604,-0.092 l -0.036,0.566 c 0.15,-0.007 0.294,0.007 0.431,0.044 0.137,0.037 0.267,0.118 0.392,0.243 0.121,0.12 0.184,0.257 0.192,0.411 0.008,0.154 -0.051,0.295 -0.175,0.419 L -0.385,1.224 C -0.518,1.356 -0.672,1.405 -0.848,1.37 -1.024,1.336 -1.202,1.229 -1.381,1.051 L -1.51,0.922 -1.832,1.134 -1.953,2.505 -2.927,1.53 -3.313,1.916 -1.805,3.423 -1.471,3.089 -1.375,1.692 c 0.103,0.074 0.212,0.135 0.328,0.186 0.117,0.05 0.235,0.077 0.356,0.082 0.119,0.006 0.241,-0.016 0.362,-0.061 0.122,-0.045 0.239,-0.125 0.35,-0.236 L 0.033,1.651 C 0.153,1.531 0.242,1.4 0.3,1.26 0.356,1.119 0.385,0.976 0.381,0.829 0.377,0.684 0.344,0.54 0.279,0.397 0.215,0.255 0.123,0.122 0,0"
               inkscape:connector-curvature="0"
               style="fill:#ffffff" />
          </g>
        </g>
        <g
           transform="translate(21.0032,9.3459)"
           id="g4538">
          <g
             id="g27111">
            <path
               id="path27113"
               d="M 0,0 0.464,0.463 3.041,-0.85 1.729,1.729 2.178,2.176 3.875,-1.301 3.482,-1.695 Z"
               inkscape:connector-curvature="0"
               style="fill:#ffffff" />
          </g>
        </g>
        <g
           transform="translate(26.1145,9.9572)"
           id="g4542">
          <g
             id="g27115">
            <path
               id="path27117"
               d="M 0,0 C 0.073,0.073 0.123,0.154 0.15,0.245 0.178,0.336 0.184,0.432 0.167,0.53 A 0.9623,0.9623 0 0 1 0.061,0.828 c -0.055,0.1 -0.127,0.193 -0.219,0.285 L -0.18,1.135 C -0.271,1.227 -0.367,1.298 -0.469,1.35 -0.57,1.402 -0.672,1.437 -0.771,1.451 -0.873,1.467 -0.969,1.461 -1.059,1.434 A 0.594,0.594 0 0 1 -1.302,1.286 C -1.375,1.213 -1.426,1.131 -1.453,1.039 A 0.6537,0.6537 0 0 1 -1.471,0.756 c 0.015,-0.098 0.049,-0.195 0.105,-0.295 0.055,-0.1 0.128,-0.195 0.22,-0.285 l 0.021,-0.023 c 0.09,-0.091 0.188,-0.163 0.29,-0.216 0.104,-0.054 0.204,-0.089 0.304,-0.101 a 0.6904,0.6904 0 0 1 0.287,0.018 C -0.153,-0.12 -0.072,-0.072 0,0 m 0.357,-0.373 c -0.13,-0.13 -0.275,-0.225 -0.432,-0.284 -0.158,-0.06 -0.321,-0.085 -0.487,-0.075 -0.167,0.009 -0.334,0.052 -0.5,0.128 -0.167,0.077 -0.323,0.186 -0.467,0.331 l -0.033,0.033 c -0.143,0.142 -0.252,0.298 -0.331,0.465 -0.076,0.168 -0.12,0.337 -0.13,0.505 -0.008,0.17 0.016,0.334 0.076,0.495 0.06,0.161 0.156,0.306 0.285,0.435 0.128,0.128 0.271,0.223 0.432,0.281 0.162,0.061 0.325,0.086 0.492,0.077 0.166,-0.01 0.332,-0.053 0.5,-0.129 C -0.072,1.812 0.084,1.703 0.229,1.558 L 0.262,1.525 C 0.406,1.381 0.516,1.225 0.592,1.059 0.668,0.892 0.71,0.724 0.719,0.557 0.727,0.389 0.702,0.224 0.642,0.063 0.582,-0.098 0.486,-0.242 0.357,-0.373"
               inkscape:connector-curvature="0"
               style="fill:#ffffff" />
          </g>
        </g>
        <g
           transform="translate(53.7884,13.9035)"
           id="g4546">
          <g
             id="g27119">
            <path
               id="path27121"
               d="M 0,0 0.463,-0.463 -0.85,-3.04 1.729,-1.728 2.176,-2.177 -1.301,-3.874 -1.695,-3.481 Z"
               inkscape:connector-curvature="0"
               style="fill:#ffffff" />
          </g>
        </g>
        <g
           transform="translate(54.2522,8.9406)"
           id="g4550">
          <g
             id="g27123">
            <path
               id="path27125"
               d="M 0,0 C 0.073,-0.073 0.155,-0.124 0.245,-0.151 A 0.6085,0.6085 0 0 1 0.53,-0.167 c 0.1,0.016 0.199,0.051 0.299,0.105 0.099,0.056 0.193,0.128 0.285,0.219 L 1.136,0.18 C 1.227,0.271 1.298,0.366 1.351,0.468 1.403,0.57 1.437,0.671 1.451,0.771 1.467,0.872 1.461,0.968 1.434,1.059 1.407,1.149 1.358,1.229 1.286,1.302 1.213,1.375 1.131,1.425 1.04,1.452 A 0.6558,0.6558 0 0 1 0.757,1.471 C 0.659,1.456 0.561,1.421 0.461,1.366 0.361,1.311 0.267,1.237 0.176,1.146 L 0.153,1.124 C 0.063,1.034 -0.009,0.937 -0.063,0.835 -0.117,0.731 -0.151,0.63 -0.164,0.531 A 0.6963,0.6963 0 0 1 -0.146,0.243 C -0.12,0.153 -0.071,0.071 0,0 m -0.372,-0.357 c -0.131,0.129 -0.225,0.274 -0.285,0.432 -0.06,0.158 -0.085,0.321 -0.074,0.487 0.009,0.167 0.052,0.334 0.127,0.5 0.077,0.167 0.187,0.323 0.332,0.467 l 0.033,0.033 c 0.142,0.142 0.297,0.251 0.465,0.33 0.168,0.077 0.336,0.121 0.505,0.13 C 0.9,2.031 1.065,2.007 1.226,1.946 1.386,1.886 1.531,1.791 1.661,1.661 1.788,1.534 1.883,1.39 1.942,1.229 2.003,1.069 2.028,0.905 2.018,0.738 2.009,0.572 1.966,0.405 1.89,0.239 1.813,0.071 1.703,-0.084 1.558,-0.229 L 1.525,-0.262 C 1.381,-0.406 1.225,-0.517 1.059,-0.592 A 1.3894,1.3894 0 0 0 0.557,-0.72 c -0.168,-0.008 -0.333,0.018 -0.494,0.078 -0.16,0.06 -0.305,0.155 -0.435,0.285"
               inkscape:connector-curvature="0"
               style="fill:#ffffff" />
          </g>
        </g>
        <g
           transform="translate(55.4505,7.0217)"
           id="g4554">
          <g
             id="g27127">
            <path
               id="path27129"
               d="M 0,0 C -0.191,0.19 -0.277,0.398 -0.262,0.624 -0.244,0.85 -0.131,1.068 0.08,1.279 L 1.386,2.584 1.801,2.168 0.613,0.98 C 0.477,0.844 0.402,0.709 0.39,0.576 0.377,0.443 0.426,0.322 0.537,0.213 0.646,0.102 0.773,0.051 0.918,0.061 1.061,0.068 1.2,0.141 1.334,0.275 L 2.515,1.455 2.93,1.039 0.981,-0.909 0.566,-0.494 0.85,-0.211 A 1.2248,1.2248 0 0 0 0.635,-0.242 C 0.562,-0.244 0.489,-0.24 0.417,-0.227 A 0.8306,0.8306 0 0 0 0.204,-0.153 C 0.134,-0.118 0.066,-0.066 0,0"
               inkscape:connector-curvature="0"
               style="fill:#ffffff" />
          </g>
        </g>
        <g
           transform="translate(57.2298,5.2561)"
           id="g4558">
          <g
             id="g27131">
            <path
               id="path27133"
               d="M 0,0 C -0.07,0.07 -0.129,0.146 -0.172,0.225 A 0.5883,0.5883 0 0 0 -0.25,0.467 c -0.008,0.083 0.008,0.17 0.046,0.259 0.038,0.09 0.104,0.182 0.201,0.278 L 1.119,2.125 0.905,2.339 1.262,2.695 1.475,2.481 2.001,3.008 2.416,2.592 1.891,2.066 2.328,1.629 1.972,1.272 1.534,1.71 0.496,0.672 C 0.421,0.597 0.385,0.523 0.389,0.453 0.392,0.384 0.427,0.315 0.492,0.25 A 0.7033,0.7033 0 0 1 0.771,0.08 L 0.43,-0.262 C 0.354,-0.239 0.281,-0.207 0.211,-0.168 0.143,-0.127 0.071,-0.071 0,0"
               inkscape:connector-curvature="0"
               style="fill:#ffffff" />
          </g>
        </g>
        <g
           transform="translate(69.2845,52.405)"
           id="g4562">
          <g
             id="g27135">
            <path
               id="path27137"
               d="m 0,0 c -0.174,-0.174 -0.365,-0.302 -0.57,-0.386 -0.207,-0.083 -0.418,-0.119 -0.635,-0.108 -0.217,0.011 -0.434,0.067 -0.652,0.171 -0.217,0.102 -0.428,0.253 -0.625,0.451 l -0.03,0.03 c -0.189,0.189 -0.334,0.393 -0.437,0.611 -0.104,0.218 -0.16,0.438 -0.17,0.66 -0.012,0.221 0.021,0.437 0.098,0.647 0.076,0.21 0.203,0.402 0.376,0.575 0.176,0.177 0.352,0.304 0.528,0.381 0.176,0.077 0.369,0.125 0.58,0.145 L -1.453,2.585 A 1.5262,1.5262 0 0 1 -1.859,2.51 C -1.99,2.467 -2.123,2.379 -2.254,2.247 -2.359,2.142 -2.436,2.021 -2.479,1.886 A 0.9769,0.9769 0 0 1 -2.52,1.465 c 0.016,-0.146 0.061,-0.293 0.135,-0.442 0.076,-0.148 0.18,-0.29 0.313,-0.422 l 0.021,-0.022 c 0.145,-0.145 0.295,-0.256 0.447,-0.333 0.155,-0.078 0.303,-0.123 0.45,-0.137 0.146,-0.013 0.287,0.005 0.42,0.056 0.134,0.049 0.255,0.129 0.365,0.24 0.092,0.091 0.164,0.187 0.217,0.29 0.054,0.104 0.09,0.204 0.103,0.303 L -0.617,1.566 -1.158,1.026 -1.533,1.401 -0.588,2.346 0.566,1.192 C 0.541,0.995 0.486,0.794 0.402,0.587 0.316,0.379 0.184,0.184 0,0"
               inkscape:connector-curvature="0"
               style="fill:#ffffff" />
          </g>
        </g>
        <g
           transform="translate(67.8606,56.2033)"
           id="g4566">
          <g
             id="g27139">
            <path
               id="path27141"
               d="M 0,0 0.398,0.397 3.248,-0.187 1.531,1.53 1.945,1.945 4.52,-0.628 4.158,-0.99 1.221,-0.39 2.99,-2.158 2.574,-2.574 Z"
               inkscape:connector-curvature="0"
               style="fill:#ffffff" />
          </g>
        </g>
        <g
           transform="translate(70.9016,58.4724)"
           id="g4570">
          <g
             id="g27143">
            <path
               id="path27145"
               d="m 0,0 1.803,-1.802 0.355,0.357 c 0.117,0.117 0.205,0.244 0.262,0.382 0.055,0.138 0.08,0.278 0.07,0.421 C 2.482,-0.499 2.441,-0.353 2.369,-0.204 2.297,-0.056 2.193,0.087 2.057,0.224 L 2.033,0.246 C 1.893,0.386 1.75,0.492 1.602,0.563 1.453,0.636 1.307,0.677 1.162,0.687 A 0.9197,0.9197 0 0 1 0.74,0.617 C 0.602,0.561 0.475,0.474 0.357,0.356 Z m -0.812,-0.041 0.787,0.787 C 0.158,0.93 0.355,1.066 0.566,1.154 0.777,1.242 0.992,1.284 1.209,1.28 1.428,1.274 1.645,1.224 1.859,1.126 2.072,1.03 2.275,0.888 2.465,0.698 L 2.492,0.669 C 2.682,0.48 2.824,0.278 2.922,0.062 3.021,-0.153 3.072,-0.371 3.078,-0.588 3.082,-0.807 3.041,-1.022 2.955,-1.233 2.867,-1.446 2.732,-1.644 2.549,-1.828 L 1.762,-2.615 Z"
               inkscape:connector-curvature="0"
               style="fill:#ffffff" />
          </g>
        </g>
        <g
           transform="translate(73.0364,50.926)"
           id="g4574">
          <g
             id="g27147">
            <path
               id="path27149"
               d="m 0,0 v -2.548 h 0.505 c 0.166,0 0.317,0.028 0.455,0.086 0.137,0.057 0.253,0.139 0.348,0.247 0.095,0.107 0.17,0.239 0.223,0.395 0.054,0.156 0.081,0.331 0.081,0.525 v 0.031 c 0,0.198 -0.027,0.374 -0.081,0.531 -0.053,0.155 -0.128,0.288 -0.223,0.398 A 0.9383,0.9383 0 0 1 0.96,-0.086 C 0.822,-0.029 0.671,0 0.505,0 Z M -0.604,0.546 H 0.51 c 0.26,0 0.496,-0.044 0.707,-0.13 0.212,-0.087 0.392,-0.209 0.544,-0.367 0.15,-0.157 0.267,-0.346 0.35,-0.567 0.083,-0.22 0.125,-0.463 0.125,-0.73 V -1.29 C 2.236,-1.557 2.194,-1.801 2.111,-2.023 2.028,-2.245 1.911,-2.435 1.761,-2.592 1.609,-2.75 1.429,-2.873 1.217,-2.961 1.006,-3.05 0.77,-3.094 0.51,-3.094 h -1.114 z"
               inkscape:connector-curvature="0"
               style="fill:#ffffff" />
          </g>
        </g>
        <g
           transform="translate(76.1302,50.8684)"
           id="g4578">
          <g
             id="g27151">
            <path
               id="path27153"
               d="m 0,0 -0.572,-0.171 -0.099,0.52 0.843,0.28 H 0.598 V -3.037 H 0 Z"
               inkscape:connector-curvature="0"
               style="fill:#ffffff" />
          </g>
        </g>
        <g
           transform="translate(73.2034,29.2248)"
           id="g4582">
          <g
             id="g27155">
            <path
               id="path27157"
               d="M 0,0 -0.521,1.462 -1.04,0 Z m -0.801,2.268 h 0.582 L 1.117,-1.394 H 0.488 l -0.301,0.859 h -1.415 l -0.301,-0.859 h -0.609 z"
               inkscape:connector-curvature="0"
               style="fill:#ffffff" />
          </g>
        </g>
        <g
           transform="translate(75.637,28.3205)"
           id="g4586">
          <g
             id="g27159">
            <path
               id="path27161"
               d="m 0,0 c 0.229,0 0.411,0.114 0.548,0.344 0.138,0.23 0.206,0.55 0.206,0.961 V 1.347 C 0.754,1.549 0.735,1.73 0.699,1.895 0.662,2.059 0.61,2.196 0.543,2.31 0.476,2.423 0.395,2.51 0.301,2.57 0.208,2.632 0.104,2.662 -0.011,2.662 -0.239,2.662 -0.424,2.547 -0.562,2.317 -0.701,2.088 -0.771,1.768 -0.771,1.356 V 1.315 c 0,-0.206 0.019,-0.389 0.055,-0.55 0.037,-0.162 0.089,-0.3 0.156,-0.413 C -0.492,0.239 -0.41,0.151 -0.315,0.091 -0.22,0.03 -0.115,0 0,0 m -0.011,-0.547 c -0.212,0 -0.401,0.045 -0.569,0.133 -0.168,0.089 -0.313,0.214 -0.432,0.375 -0.12,0.161 -0.212,0.354 -0.275,0.582 C -1.352,0.77 -1.384,1.022 -1.384,1.3 v 0.056 c 0,0.275 0.033,0.526 0.099,0.755 0.066,0.229 0.159,0.424 0.278,0.585 0.12,0.161 0.265,0.286 0.435,0.377 0.17,0.09 0.36,0.135 0.572,0.135 0.208,0 0.396,-0.044 0.563,-0.133 C 0.731,2.987 0.876,2.862 0.995,2.701 1.115,2.54 1.208,2.346 1.273,2.119 1.34,1.892 1.372,1.639 1.372,1.362 V 1.305 C 1.372,1.027 1.34,0.775 1.273,0.548 1.208,0.321 1.115,0.127 0.995,-0.034 0.876,-0.195 0.731,-0.321 0.562,-0.411 0.392,-0.501 0.2,-0.547 -0.011,-0.547"
               inkscape:connector-curvature="0"
               style="fill:#ffffff" />
          </g>
        </g>
        <g
           transform="translate(62.2854,27.9582)"
           id="g4590">
          <g
             id="g27163">
            <path
               id="path27165"
               d="M 0,0 C 0.048,-0.305 -0.013,-0.568 -0.136,-0.59 -0.261,-0.608 -0.4,-0.377 -0.449,-0.071 -0.498,0.233 -0.437,0.498 -0.313,0.518 -0.188,0.538 -0.049,0.306 0,0 M 1.276,-0.29 C 1.334,-0.402 1.157,-0.606 0.881,-0.747 0.604,-0.888 0.335,-0.912 0.277,-0.8 c -0.056,0.113 0.12,0.317 0.396,0.457 0.277,0.141 0.547,0.165 0.603,0.053 M 0.764,-1.495 C 0.981,-1.713 1.088,-1.962 0.999,-2.052 0.91,-2.14 0.661,-2.034 0.442,-1.816 0.223,-1.598 0.116,-1.349 0.206,-1.259 0.295,-1.17 0.544,-1.275 0.764,-1.495 m -1.526,-0.836 c -0.111,0.057 -0.089,0.326 0.052,0.602 0.141,0.276 0.346,0.454 0.456,0.397 0.112,-0.058 0.089,-0.327 -0.052,-0.603 -0.14,-0.277 -0.343,-0.454 -0.456,-0.396 m -0.81,1.587 c 0.019,0.124 0.284,0.185 0.589,0.138 0.305,-0.048 0.537,-0.188 0.518,-0.313 -0.019,-0.123 -0.284,-0.185 -0.589,-0.137 -0.306,0.048 -0.539,0.188 -0.518,0.312 m 0.837,3.916 C -0.897,3.146 -0.944,3.058 -1.013,2.845 -1.064,2.683 -1.409,1.6 -1.409,1.6 c 0,0 -0.285,-0.754 0.117,-1.315 0.055,-0.075 0.117,-0.153 0.184,-0.232 -0.079,0.066 -0.158,0.128 -0.233,0.181 -0.56,0.404 -1.314,0.117 -1.314,0.117 0,0 -1.083,-0.347 -1.245,-0.4 -0.213,-0.068 -0.301,-0.114 -0.327,-0.277 -0.026,-0.163 0.044,-0.234 0.226,-0.364 0.137,-0.099 1.061,-0.762 1.061,-0.762 0,0 0.629,-0.504 1.287,-0.294 0.088,0.028 0.181,0.062 0.277,0.101 a 3.5927,3.5927 0 0 1 -0.245,-0.164 c -0.556,-0.41 -0.517,-1.214 -0.517,-1.214 0,0 -0.005,-1.137 -0.005,-1.307 0,-0.223 0.017,-0.32 0.164,-0.397 0.147,-0.074 0.236,-0.03 0.417,0.102 0.136,0.101 1.052,0.774 1.052,0.774 0,0 0.675,0.444 0.677,1.133 0,0.093 -0.004,0.193 -0.012,0.294 0.026,-0.099 0.053,-0.195 0.081,-0.284 0.218,-0.654 0.996,-0.866 0.996,-0.866 l 1.241,-0.408 c 0.213,-0.07 0.31,-0.083 0.427,0.033 0.117,0.117 0.103,0.215 0.032,0.428 -0.052,0.161 -0.411,1.24 -0.411,1.24 0,0 -0.213,0.778 -0.868,0.993 -0.089,0.029 -0.183,0.057 -0.283,0.08 0.104,-0.007 0.201,-0.01 0.294,-0.01 0.69,0.004 1.132,0.679 1.132,0.679 0,0 0.672,0.917 0.771,1.054 C 3.7,0.695 3.744,0.784 3.669,0.933 3.594,1.078 3.496,1.096 3.272,1.095 L 1.966,1.088 c 0,0 -0.806,0.037 -1.214,-0.52 A 3.5632,3.5632 0 0 1 0.589,0.324 c 0.039,0.095 0.073,0.189 0.1,0.277 0.209,0.657 -0.295,1.286 -0.295,1.286 0,0 -0.665,0.923 -0.764,1.059 -0.132,0.182 -0.202,0.25 -0.365,0.226"
               inkscape:connector-curvature="0"
               style="fill:#ffffff" />
          </g>
        </g>
        <g
           transform="translate(68.4407,28.0168)"
           id="g4594">
          <g
             id="g27167">
            <path
               id="path27169"
               d="m 0,0 c -0.594,0 -0.823,0.765 -1.066,1.574 -0.037,0.12 0.031,0.249 0.151,0.285 0.125,0.037 0.246,-0.03 0.281,-0.149 0.16,-0.533 0.378,-1.257 0.634,-1.257 0.256,0 0.474,0.724 0.632,1.252 0.235,0.781 0.476,1.583 1.069,1.583 0.595,0 0.835,-0.803 1.067,-1.578 A 0.2267,0.2267 0 0 0 2.616,1.428 0.2236,0.2236 0 0 0 2.334,1.579 C 2.175,2.109 1.958,2.835 1.701,2.835 1.445,2.835 1.228,2.11 1.068,1.581 0.823,0.765 0.594,0 0,0"
               inkscape:connector-curvature="0"
               style="fill:#ffffff" />
          </g>
        </g>
        <g
           transform="translate(24.6634,42.3596)"
           id="g4598">
          <g
             id="g27171">
            <path
               id="path27173"
               d="m 0,0 c 0,-0.163 0.039,-0.288 0.118,-0.375 0.079,-0.086 0.185,-0.129 0.318,-0.129 h 0.006 c 0.144,0 0.252,0.043 0.325,0.129 0.072,0.087 0.107,0.209 0.107,0.368 V 0.45 H 0 Z M 1.252,0.868 V -0.043 C 1.252,-0.187 1.232,-0.316 1.191,-0.43 1.15,-0.544 1.092,-0.64 1.015,-0.716 A 0.6795,0.6795 0 0 0 0.773,-0.871 C 0.68,-0.907 0.575,-0.925 0.46,-0.925 H 0.446 c -0.194,0 -0.352,0.049 -0.473,0.146 -0.121,0.097 -0.209,0.222 -0.265,0.376 l -0.976,-0.594 v 0.482 l 0.893,0.536 A 0.0794,0.0794 0 0 0 -0.378,0.047 V 0.45 h -0.89 v 0.418 z"
               inkscape:connector-curvature="0"
               style="fill:#ffffff" />
          </g>
        </g>
        <g
           transform="translate(25.9153,41.1154)"
           id="g4602">
          <g
             id="g27175">
            <path
               id="path27177"
               d="m 0,0 v -1.588 h -0.378 v 1.174 h -0.684 v -1.041 h -0.377 v 1.041 H -2.142 V -1.606 H -2.52 V 0 Z"
               inkscape:connector-curvature="0"
               style="fill:#ffffff" />
          </g>
        </g>
        <g
           transform="translate(23.3636,38.4445)"
           id="g4606">
          <g
             id="g27179">
            <path
               id="path27181"
               d="m 0,0 c 0,0.163 0.028,0.321 0.086,0.476 0.058,0.153 0.15,0.298 0.277,0.435 L 0.677,0.659 A 1.5392,1.5392 0 0 1 0.464,0.358 C 0.406,0.251 0.378,0.131 0.378,-0.003 c 0,-0.123 0.03,-0.22 0.09,-0.291 0.059,-0.07 0.136,-0.105 0.23,-0.105 h 0.004 c 0.038,0 0.074,0.005 0.11,0.019 0.035,0.014 0.068,0.037 0.1,0.072 0.033,0.036 0.066,0.083 0.098,0.146 0.032,0.062 0.066,0.143 0.102,0.245 0.046,0.119 0.092,0.225 0.139,0.314 0.047,0.09 0.1,0.166 0.158,0.228 0.059,0.061 0.125,0.107 0.2,0.138 0.075,0.031 0.162,0.047 0.263,0.047 h 0.007 c 0.103,0 0.198,-0.02 0.284,-0.06 A 0.6525,0.6525 0 0 0 2.387,0.585 C 2.449,0.515 2.498,0.431 2.532,0.333 2.567,0.235 2.585,0.128 2.585,0.011 2.585,-0.136 2.561,-0.275 2.513,-0.409 2.465,-0.542 2.391,-0.666 2.289,-0.781 l -0.32,0.237 c 0.07,0.087 0.127,0.178 0.171,0.272 0.045,0.095 0.067,0.193 0.067,0.293 0,0.116 -0.028,0.206 -0.083,0.271 C 2.068,0.356 1.999,0.389 1.915,0.389 H 1.911 A 0.3024,0.3024 0 0 1 1.793,0.367 C 1.757,0.353 1.723,0.326 1.69,0.288 1.657,0.249 1.624,0.196 1.589,0.13 A 2.8046,2.8046 0 0 1 1.476,-0.134 C 1.431,-0.251 1.384,-0.353 1.335,-0.437 1.287,-0.522 1.234,-0.593 1.175,-0.649 A 0.5847,0.5847 0 0 0 0.979,-0.776 C 0.907,-0.804 0.825,-0.817 0.734,-0.817 H 0.727 c -0.111,0 -0.21,0.02 -0.3,0.061 -0.09,0.04 -0.167,0.098 -0.229,0.171 -0.062,0.073 -0.111,0.16 -0.146,0.26 A 0.9932,0.9932 0 0 0 0,0"
               inkscape:connector-curvature="0"
               style="fill:#ffffff" />
          </g>
        </g>
        <g
           transform="translate(25.9153,37.4045)"
           id="g4610">
          <g
             id="g27183">
            <path
               id="path27185"
               d="m 0,0 v -1.588 h -0.378 v 1.174 h -0.684 v -1.041 h -0.377 v 1.041 H -2.142 V -1.605 H -2.52 V 0 Z"
               inkscape:connector-curvature="0"
               style="fill:#ffffff" />
          </g>
        </g>
        <g
           transform="translate(25.5266,34.9777)"
           id="g4614">
          <g
             id="g27187">
            <path
               id="path27189"
               d="M 0,0 V 0.663 H 0.389 V -1.079 H 0 v 0.662 H -2.131 V 0 Z"
               inkscape:connector-curvature="0"
               style="fill:#ffffff" />
          </g>
        </g>
      </g>
    </g>
  </g>
  <g
     transform="matrix(2.3635406,0,0,2.3635406,-0.84558034,-6.921388)"
     id="g4622">
    <g
       id="g10154">
      <text
         id="text10158"
         x="31.385"
         font-size="5.5123"
         y="62.1297"
         style="font-size:5.51230001px;font-family:OCRA;fill:#ffffff;stroke-width:0">+</text>
    </g>
  </g>
  <g
     transform="matrix(2.3635406,0,0,2.3635406,-0.84558034,-6.921388)"
     id="g4626">
    <g
       id="g10160">
      <text
         id="text10164"
         x="44.705002"
         font-size="5.5123"
         y="62.1297"
         style="font-size:5.51230001px;font-family:OCRA;fill:#ffffff;stroke-width:0">-</text>
    </g>
  </g>
  <g
     id="g10198"
     transform="matrix(2.3635406,0,0,2.3635406,-0.00132358,-2.981369)">
    <g
       id="g10202">
      <path
         id="line10206"
         d="m 29.6119,54.0297 v -2.88"
         inkscape:connector-curvature="0"
         style="stroke:#ffffff;stroke-width:0.86400002;stroke-linecap:round" />
    </g>
  </g>
  <g
     id="g10208"
     transform="matrix(2.3635406,0,0,2.3635406,-0.00132358,-2.981369)">
    <g
       id="g10212">
      <path
         id="line10216"
         d="M 22.8432,56.9915 24.4468,55.388"
         inkscape:connector-curvature="0"
         style="stroke:#ffffff;stroke-width:0.86400002;stroke-linecap:round" />
    </g>
  </g>
  <g
     id="g10218"
     transform="matrix(2.3635406,0,0,2.3635406,-0.00132358,-2.981369)">
    <g
       id="g10222">
      <path
         id="line10226"
         d="M 20.5941,51.2691 V 49.0014"
         inkscape:connector-curvature="0"
         style="stroke:#ffffff;stroke-width:0.86400002;stroke-linecap:round" />
    </g>
  </g>
  <g
     id="g10228"
     transform="matrix(2.3635406,0,0,2.3635406,-0.00132358,-2.981369)">
    <g
       id="g10232">
      <path
         id="line10236"
         d="m 29.765,45.2097 h -2.88"
         inkscape:connector-curvature="0"
         style="stroke:#ffffff;stroke-width:0.86400002;stroke-linecap:round" />
    </g>
  </g>
  <g
     id="g10238"
     transform="matrix(2.3635406,0,0,2.3635406,-0.00132358,-2.981369)">
    <g
       id="g10242"
       style="stroke:#ffffff;stroke-width:0.57599998;stroke-linecap:round">
      <path
         id="line10246"
         d="M 46.043,76.7534 H 33.287"
         inkscape:connector-curvature="0" />
      <path
         id="line10248"
         d="M 28.3265,66.8324 V 55.4939"
         inkscape:connector-curvature="0" />
      <path
         id="line10250"
         d="m 28.3265,55.4939 h 2.4094"
         inkscape:connector-curvature="0" />
      <path
         id="line10252"
         d="m 30.7359,55.4939 v 7.0866"
         inkscape:connector-curvature="0" />
      <path
         id="line10254"
         d="m 30.7359,62.5805 h 3.9685"
         inkscape:connector-curvature="0" />
      <path
         id="line10256"
         d="m 44.6257,62.5805 h 3.9685"
         inkscape:connector-curvature="0" />
      <path
         id="line10258"
         d="M 48.5942,62.5805 V 55.4939"
         inkscape:connector-curvature="0" />
      <path
         id="line10260"
         d="m 48.5942,55.4939 h 2.4094"
         inkscape:connector-curvature="0" />
      <path
         id="line10262"
         d="M 51.0036,55.4939 V 66.8324"
         inkscape:connector-curvature="0" />
    </g>
  </g>
  <g
     id="g10264"
     transform="matrix(2.3635406,0,0,2.3635406,-0.00132358,-2.981369)">
    <g
       id="g10268"
       style="stroke:#ffffff;stroke-linecap:round">
      <path
         id="line10272"
         d="m 52.7554,52.5628 -2.8346,1.1339"
         inkscape:connector-curvature="0"
         style="stroke-width:0.43200001" />
      <path
         id="line10274"
         d="M 49.9208,53.6967 V 51.429"
         inkscape:connector-curvature="0"
         style="stroke-width:0.43200001" />
      <path
         id="line10276"
         d="m 49.9208,51.429 2.8346,1.1338"
         inkscape:connector-curvature="0"
         style="stroke-width:0.43200001" />
      <path
         id="line10278"
         d="M 55.1649,54.9014 H 47.5113"
         inkscape:connector-curvature="0"
         style="stroke-width:0.36000001" />
      <path
         id="line10280"
         d="M 47.5113,54.9014 V 50.2242"
         inkscape:connector-curvature="0"
         style="stroke-width:0.36000001" />
      <path
         id="line10282"
         d="m 47.5113,50.2242 h 7.6536"
         inkscape:connector-curvature="0"
         style="stroke-width:0.36000001" />
      <path
         id="line10284"
         d="m 55.1649,50.2242 v 4.6772"
         inkscape:connector-curvature="0"
         style="stroke-width:0.36000001" />
    </g>
  </g>
  <g
     id="g10286"
     transform="matrix(2.3635406,0,0,2.3635406,-0.00132358,-2.981369)">
    <g
       id="g10290"
       style="stroke:#ffffff;stroke-linecap:round">
      <path
         id="line10294"
         d="m 51.3423,21.8097 -2.8346,1.1339"
         inkscape:connector-curvature="0"
         style="stroke-width:0.43200001" />
      <path
         id="line10296"
         d="M 48.5077,22.9436 V 20.6759"
         inkscape:connector-curvature="0"
         style="stroke-width:0.43200001" />
      <path
         id="line10298"
         d="m 48.5077,20.6759 2.8346,1.1338"
         inkscape:connector-curvature="0"
         style="stroke-width:0.43200001" />
      <path
         id="line10300"
         d="M 53.7518,24.1484 H 46.0982"
         inkscape:connector-curvature="0"
         style="stroke-width:0.36000001" />
      <path
         id="line10302"
         d="M 46.0982,24.1484 V 19.4712"
         inkscape:connector-curvature="0"
         style="stroke-width:0.36000001" />
      <path
         id="line10304"
         d="m 46.0982,19.4712 h 7.6536"
         inkscape:connector-curvature="0"
         style="stroke-width:0.36000001" />
      <path
         id="line10306"
         d="m 53.7518,19.4712 v 4.6772"
         inkscape:connector-curvature="0"
         style="stroke-width:0.36000001" />
    </g>
  </g>
  <g
     id="g10316"
     transform="matrix(2.3635406,0,0,2.3635406,-0.00132358,-2.981369)">
    <g
       id="g10320"
       style="stroke:#ffffff;stroke-width:0.36000001;stroke-linecap:round">
      <path
         id="line10324"
         d="M 28.6903,23.8017 H 26.9896"
         inkscape:connector-curvature="0" />
      <path
         id="line10326"
         d="m 26.9896,23.8017 v 1.7008"
         inkscape:connector-curvature="0" />
      <path
         id="line10328"
         d="m 40.5958,23.8017 h 1.7008"
         inkscape:connector-curvature="0" />
      <path
         id="line10330"
         d="m 42.2966,23.8017 v 1.7008"
         inkscape:connector-curvature="0" />
      <path
         id="line10332"
         d="m 26.9896,37.408 v 1.7007"
         inkscape:connector-curvature="0" />
      <path
         id="line10334"
         d="m 26.9896,39.1087 h 1.7007"
         inkscape:connector-curvature="0" />
      <path
         id="line10336"
         d="m 42.2966,37.408 v 1.7007"
         inkscape:connector-curvature="0" />
      <path
         id="line10338"
         d="M 42.2966,39.1087 H 40.5958"
         inkscape:connector-curvature="0" />
    </g>
  </g>
  <g
     id="g10340"
     transform="matrix(2.3635406,0,0,2.3635406,-0.00132358,-2.981369)">
    <g
       id="g10344"
       style="stroke:#ffffff;stroke-width:0.36000001;stroke-linecap:round">
      <path
         id="line10348"
         d="m 24.7831,25.0951 v 5.6693"
         inkscape:connector-curvature="0" />
      <path
         id="line10350"
         d="m 18.5469,25.0951 v 5.6693"
         inkscape:connector-curvature="0" />
      <path
         id="line10352"
         d="M 25.917,31.0478 V 30.1974"
         inkscape:connector-curvature="0" />
      <path
         id="line10354"
         d="M 25.917,30.1974 V 29.914"
         inkscape:connector-curvature="0" />
      <path
         id="line10356"
         d="M 25.917,29.914 25.35,30.4809"
         inkscape:connector-curvature="0" />
      <path
         id="line10358"
         d="m 25.35,30.4809 0.567,0.5669"
         inkscape:connector-curvature="0" />
      <path
         id="line10360"
         d="M 25.917,31.0478 V 30.7644"
         inkscape:connector-curvature="0" />
      <path
         id="line10362"
         d="M 25.917,30.7644 25.6335,30.4809"
         inkscape:connector-curvature="0" />
    </g>
  </g>
  <g
     id="g10364"
     transform="matrix(2.3635406,0,0,2.3635406,-0.00132358,-2.981369)">
    <g
       id="g10368">
      <g
         id="g10372">
        <path
           id="path10376"
           d="m 56.981,26.8497 -0.9,0.72 v -1.44 l 0.9,0.72 m -0.828,-0.6624 v 1.3248 -1.3248"
           inkscape:connector-curvature="0"
           style="fill:none;stroke:#ffffff;stroke-width:0.43200001;stroke-linecap:round" />
      </g>
      <g
         transform="rotate(90,15.1557,42.0053)"
         id="g4693">
        <g
           id="g10378">
          <path
             id="rect10380"
             d="M -1.08,-0.18 H 1.08 V 0.18 H -1.08 Z"
             inkscape:connector-curvature="0"
             style="fill:#ffffff;stroke-width:0" />
        </g>
      </g>
    </g>
  </g>
  <g
     id="g10382"
     transform="matrix(2.3635406,0,0,2.3635406,-0.00132358,-2.981369)">
    <g
       id="g10386"
       style="stroke:#ffffff;stroke-width:0.57599998;stroke-linecap:round">
      <path
         id="line10390"
         d="M 22.929,34.757 V 46.6626"
         inkscape:connector-curvature="0" />
      <path
         id="line10392"
         d="M 14.2811,46.6626 V 34.757"
         inkscape:connector-curvature="0" />
    </g>
  </g>
  <g
     id="g10394"
     transform="matrix(2.3635406,0,0,2.3635406,-0.00132358,-2.981369)">
    <g
       id="g10398">
      <path
         id="line10402"
         d="M 48.8232,28.08 V 25.8123"
         inkscape:connector-curvature="0"
         style="stroke:#ffffff;stroke-width:0.86400002;stroke-linecap:round" />
    </g>
  </g>
  <g
     id="g10404"
     transform="matrix(2.3635406,0,0,2.3635406,-0.00132358,-2.981369)">
    <g
       id="g10408"
       style="stroke:#ffffff;stroke-width:0.36000001;stroke-linecap:round">
      <path
         id="line10412"
         d="M 49.8244,49.6545 V 29.245"
         inkscape:connector-curvature="0" />
      <path
         id="line10414"
         d="m 49.8244,29.245 h 9.9213"
         inkscape:connector-curvature="0" />
      <path
         id="line10416"
         d="M 59.7457,29.245 V 49.6545"
         inkscape:connector-curvature="0" />
      <path
         id="line10418"
         d="M 59.7457,49.6545 H 49.8244"
         inkscape:connector-curvature="0" />
    </g>
  </g>
  <g
     id="g16438"
     transform="matrix(2.3635406,0,0,2.3635406,-0.00132358,-2.981369)">
    <g
       id="g16442"
       style="stroke:#ffffff;stroke-width:0.57599998;stroke-linecap:round">
      <path
         id="line16446"
         d="M 40.8527,40.7126 H 36.3173"
         inkscape:connector-curvature="0" />
      <path
         id="line16448"
         d="M 40.8527,50.0669 H 36.3173"
         inkscape:connector-curvature="0" />
      <path
         id="line16450"
         d="m 41.5614,44.2559 v 2.2677"
         inkscape:connector-curvature="0" />
    </g>
  </g>
  <g
     id="g16460"
     transform="matrix(2.3635406,0,0,2.3635406,-0.00132358,-2.981369)">
    <g
       id="g16464"
       style="stroke:#ffffff;stroke-width:0.36000001;stroke-linecap:round">
      <path
         id="line16468"
         d="M 46.7516,17.0078 H 44.4839"
         inkscape:connector-curvature="0" />
      <path
         id="line16470"
         d="M 34.8461,17.0078 H 32.5784"
         inkscape:connector-curvature="0" />
      <path
         id="line16472"
         d="M 50.4366,4.252 V 1.7008"
         inkscape:connector-curvature="0" />
      <path
         id="line16474"
         d="M 50.4366,1.7008 H 28.8934"
         inkscape:connector-curvature="0" />
      <path
         id="line16476"
         d="M 28.8934,1.7008 V 4.252"
         inkscape:connector-curvature="0" />
    </g>
  </g>
  <g
     transform="matrix(-2.3635406,0,0,-2.3635406,152.70657,245.61584)"
     id="g4724">
    <g
       id="g16482">
      <path
         id="connector4pin"
         d="m 30.5474,50.4638 h 3.515 v 4.252 h -3.515 z"
         inkscape:connector-curvature="0"
         style="fill:#9a916c;stroke-width:0" />
    </g>
  </g>
  <g
     transform="matrix(-2.3635406,0,0,-2.3635406,127.24698,245.61584)"
     id="g4728">
    <g
       id="g16485">
      <path
         id="connector5pin"
         d="m 25.1616,50.4638 h 3.515 v 4.252 h -3.515 z"
         inkscape:connector-curvature="0"
         style="fill:#9a916c;stroke-width:0" />
    </g>
  </g>
  <g
     transform="matrix(-1.6712757,-1.6712757,1.6712757,-1.6712757,5.5201266,272.97154)"
     id="g4732">
    <g
       id="g16488">
      <path
         id="connector6pin"
         d="m 23.8252,56.4762 h 3.0472 v 2.8346 h -3.0472 z"
         inkscape:connector-curvature="0"
         style="fill:#9a916c;stroke-width:0" />
    </g>
  </g>
  <g
     transform="matrix(-1.6712757,-1.6712757,1.6712757,-1.6712757,-2.5335693,253.52903)"
     id="g4736">
    <g
       id="g16491">
      <path
         id="connector7pin"
         d="m 20.4176,53.0687 h 3.0472 v 2.8346 h -3.0472 z"
         inkscape:connector-curvature="0"
         style="fill:#9a916c;stroke-width:0" />
    </g>
  </g>
  <g
     transform="matrix(-2.3635406,0,0,-2.3635406,108.7381,234.01321)"
     id="g4740">
    <g
       id="g16494">
      <path
         id="connector8pin"
         d="m 21.4799,48.7179 h 3.0472 v 2.8346 h -3.0472 z"
         inkscape:connector-curvature="0"
         style="fill:#9a916c;stroke-width:0" />
    </g>
  </g>
  <g
     transform="matrix(-2.3635406,0,0,-2.3635406,85.958761,234.01321)"
     id="g4744">
    <g
       id="g16497">
      <path
         id="connector9pin"
         d="m 16.661,48.7179 h 3.0472 v 2.8346 H 16.661 Z"
         inkscape:connector-curvature="0"
         style="fill:#9a916c;stroke-width:0" />
    </g>
  </g>
  <g
     transform="matrix(0,2.3635406,-2.3635406,0,167.43616,30.561529)"
     id="g4748">
    <g
       id="g16500">
      <path
         id="connector10pin"
         d="m 26.5675,40.3908 h 3.515 v 4.252 h -3.515 z"
         inkscape:connector-curvature="0"
         style="fill:#9a916c;stroke-width:0" />
    </g>
  </g>
  <g
     transform="matrix(0,2.3635406,-2.3635406,0,180.16595,43.291323)"
     id="g4752">
    <g
       id="g16503">
      <path
         id="connector11pin"
         d="m 26.5675,45.7767 h 3.515 v 4.252 h -3.515 z"
         inkscape:connector-curvature="0"
         style="fill:#9a916c;stroke-width:0" />
    </g>
  </g>
  <g
     transform="matrix(-2.3635406,0,0,-2.3635406,200.89869,270.06194)"
     id="g4756">
    <g
       id="g16506">
      <path
         id="connector12pin"
         d="m 41.0823,51.2419 h 2.8346 v 13.0393 h -2.8346 z"
         inkscape:connector-curvature="0"
         style="fill:#9a916c;stroke-width:0" />
    </g>
  </g>
  <g
     transform="matrix(-2.3635406,0,0,-2.3635406,174.09945,270.06194)"
     id="g4760">
    <g
       id="g16509">
      <path
         id="connector13pin"
         d="m 35.4131,51.2419 h 2.8346 v 13.0393 h -2.8346 z"
         inkscape:connector-curvature="0"
         style="fill:#9a916c;stroke-width:0" />
    </g>
  </g>
  <g
     transform="matrix(0,2.3635406,-2.3635406,0,287.88975,51.850412)"
     id="g4764">
    <g
       id="g16512">
      <path
         id="connector14pin"
         d="m 44.4839,70.234 h 9.6378 v 4.5354 h -9.6378 z"
         inkscape:connector-curvature="0"
         style="fill:#9a916c;stroke-width:0" />
    </g>
  </g>
  <g
     transform="matrix(0,2.3635406,-2.3635406,0,242.33014,97.409079)"
     id="g4768">
    <g
       id="g16515">
      <path
         id="connector15pin"
         d="m 25.2084,70.234 h 9.6378 v 4.5354 h -9.6378 z"
         inkscape:connector-curvature="0"
         style="fill:#9a916c;stroke-width:0" />
    </g>
  </g>
  <g
     transform="matrix(-2.3635406,0,0,-2.3635406,220.73589,245.4882)"
     id="g4772">
    <g
       id="g16518">
      <path
         id="connector16pin"
         d="m 45.4066,50.8337 h 2.5795 v 3.4583 h -2.5795 z"
         inkscape:connector-curvature="0"
         style="fill:#9a916c;stroke-width:0" />
    </g>
  </g>
  <g
     transform="matrix(-2.3635406,0,0,-2.3635406,264.61834,245.4882)"
     id="g4776">
    <g
       id="g16521">
      <path
         id="connector17pin"
         d="m 54.69,50.8337 h 2.5795 V 54.292 H 54.69 Z"
         inkscape:connector-curvature="0"
         style="fill:#9a916c;stroke-width:0" />
    </g>
  </g>
  <g
     transform="matrix(-2.3635406,0,0,-2.3635406,214.05652,100.11533)"
     id="g4780">
    <g
       id="g16524">
      <path
         id="connector18pin"
         d="M 43.9935,20.0807 H 46.573 V 23.539 H 43.9935 Z"
         inkscape:connector-curvature="0"
         style="fill:#9a916c;stroke-width:0" />
    </g>
  </g>
  <g
     transform="matrix(-2.3635406,0,0,-2.3635406,257.93897,100.11533)"
     id="g4784">
    <g
       id="g16527">
      <path
         id="connector19pin"
         d="m 53.277,20.0807 h 2.5795 V 23.539 H 53.277 Z"
         inkscape:connector-curvature="0"
         style="fill:#9a916c;stroke-width:0" />
    </g>
  </g>
  <g
     transform="matrix(0,-2.3635406,2.3635406,0,2.5087568,124.77037)"
     id="g4788">
    <g
       id="g16531">
      <path
         id="connector21pin"
         d="m 27.2022,25.3607 h 0.7087 v 2.2677 h -0.7087 z"
         inkscape:connector-curvature="0"
         style="fill:#9a916c;stroke-width:0" />
    </g>
  </g>
  <g
     transform="matrix(0,-2.3635406,2.3635406,0,-0.84156231,128.12069)"
     id="g4792">
    <g
       id="g16534">
      <path
         id="connector22pin"
         d="m 27.2022,26.778 h 0.7087 v 2.2677 h -0.7087 z"
         inkscape:connector-curvature="0"
         style="fill:#9a916c;stroke-width:0" />
    </g>
  </g>
  <g
     transform="matrix(0,-2.3635406,2.3635406,0,-4.1911721,131.4703)"
     id="g4796">
    <g
       id="g16537">
      <path
         id="connector23pin"
         d="m 27.2022,28.1953 h 0.7087 v 2.2677 h -0.7087 z"
         inkscape:connector-curvature="0"
         style="fill:#9a916c;stroke-width:0" />
    </g>
  </g>
  <g
     transform="matrix(0,-2.3635406,2.3635406,0,-7.5412549,134.82038)"
     id="g4800">
    <g
       id="g16540">
      <path
         id="connector24pin"
         d="m 27.2022,29.6127 h 0.7087 v 2.2677 h -0.7087 z"
         inkscape:connector-curvature="0"
         style="fill:#9a916c;stroke-width:0" />
    </g>
  </g>
  <g
     transform="matrix(0,-2.3635406,2.3635406,0,-10.891101,138.17023)"
     id="g4804">
    <g
       id="g16543">
      <path
         id="connector25pin"
         d="m 27.2022,31.03 h 0.7087 v 2.2677 h -0.7087 z"
         inkscape:connector-curvature="0"
         style="fill:#9a916c;stroke-width:0" />
    </g>
  </g>
  <g
     transform="matrix(0,-2.3635406,2.3635406,0,-14.240947,141.52008)"
     id="g4808">
    <g
       id="g16546">
      <path
         id="connector26pin"
         d="m 27.2022,32.4473 h 0.7087 v 2.2677 h -0.7087 z"
         inkscape:connector-curvature="0"
         style="fill:#9a916c;stroke-width:0" />
    </g>
  </g>
  <g
     transform="matrix(0,-2.3635406,2.3635406,0,-17.590794,144.86992)"
     id="g4812">
    <g
       id="g16549">
      <path
         id="connector27pin"
         d="m 27.2022,33.8647 h 0.7087 v 2.2677 h -0.7087 z"
         inkscape:connector-curvature="0"
         style="fill:#9a916c;stroke-width:0" />
    </g>
  </g>
  <g
     transform="matrix(0,-2.3635406,2.3635406,0,-20.940876,148.22)"
     id="g4816">
    <g
       id="g16552">
      <path
         id="connector28pin"
         d="m 27.2022,35.282 h 0.7087 v 2.2677 h -0.7087 z"
         inkscape:connector-curvature="0"
         style="fill:#9a916c;stroke-width:0" />
    </g>
  </g>
  <g
     transform="matrix(-2.3635406,0,0,-2.3635406,140.3098,179.20981)"
     id="g4820">
    <g
       id="g16555">
      <path
         id="connector29pin"
         d="m 29.3281,37.408 h 0.7087 v 2.2677 h -0.7087 z"
         inkscape:connector-curvature="0"
         style="fill:#9a916c;stroke-width:0" />
    </g>
  </g>
  <g
     transform="matrix(-2.3635406,0,0,-2.3635406,147.00997,179.20981)"
     id="g4824">
    <g
       id="g16558">
      <path
         id="connector30pin"
         d="m 30.7454,37.408 h 0.7087 v 2.2677 h -0.7087 z"
         inkscape:connector-curvature="0"
         style="fill:#9a916c;stroke-width:0" />
    </g>
  </g>
  <g
     transform="matrix(-2.3635406,0,0,-2.3635406,153.70966,179.20981)"
     id="g4828">
    <g
       id="g16561">
      <path
         id="connector31pin"
         d="m 32.1628,37.408 h 0.7087 v 2.2677 h -0.7087 z"
         inkscape:connector-curvature="0"
         style="fill:#9a916c;stroke-width:0" />
    </g>
  </g>
  <g
     transform="matrix(-2.3635406,0,0,-2.3635406,160.40935,179.20981)"
     id="g4832">
    <g
       id="g16564">
      <path
         id="connector32pin"
         d="m 33.5802,37.408 h 0.7087 v 2.2677 h -0.7087 z"
         inkscape:connector-curvature="0"
         style="fill:#9a916c;stroke-width:0" />
    </g>
  </g>
  <g
     transform="matrix(-2.3635406,0,0,-2.3635406,167.10952,179.20981)"
     id="g4836">
    <g
       id="g16567">
      <path
         id="connector33pin"
         d="m 34.9975,37.408 h 0.7087 v 2.2677 h -0.7087 z"
         inkscape:connector-curvature="0"
         style="fill:#9a916c;stroke-width:0" />
    </g>
  </g>
  <g
     transform="matrix(-2.3635406,0,0,-2.3635406,173.80873,179.20981)"
     id="g4840">
    <g
       id="g16570">
      <path
         id="connector34pin"
         d="m 36.4148,37.408 h 0.7087 v 2.2677 h -0.7087 z"
         inkscape:connector-curvature="0"
         style="fill:#9a916c;stroke-width:0" />
    </g>
  </g>
  <g
     transform="matrix(-2.3635406,0,0,-2.3635406,180.50843,179.20981)"
     id="g4844">
    <g
       id="g16573">
      <path
         id="connector35pin"
         d="m 37.8321,37.408 h 0.7087 v 2.2677 h -0.7087 z"
         inkscape:connector-curvature="0"
         style="fill:#9a916c;stroke-width:0" />
    </g>
  </g>
  <g
     transform="matrix(-2.3635406,0,0,-2.3635406,187.20812,179.20981)"
     id="g4848">
    <g
       id="g16576">
      <path
         id="connector36pin"
         d="m 39.2494,37.408 h 0.7087 v 2.2677 h -0.7087 z"
         inkscape:connector-curvature="0"
         style="fill:#9a916c;stroke-width:0" />
    </g>
  </g>
  <g
     transform="matrix(0,2.3635406,-2.3635406,0,184.69969,-15.540988)"
     id="g4852">
    <g
       id="g16579">
      <path
         id="connector37pin"
         d="m 41.3754,35.282 h 0.7087 v 2.2677 h -0.7087 z"
         inkscape:connector-curvature="0"
         style="fill:#9a916c;stroke-width:0" />
    </g>
  </g>
  <g
     transform="matrix(0,2.3635406,-2.3635406,0,181.3489,-18.890838)"
     id="g4856">
    <g
       id="g16582">
      <path
         id="connector38pin"
         d="m 41.3754,33.8647 h 0.7087 v 2.2677 h -0.7087 z"
         inkscape:connector-curvature="0"
         style="fill:#9a916c;stroke-width:0" />
    </g>
  </g>
  <g
     transform="matrix(0,2.3635406,-2.3635406,0,177.99835,-22.240918)"
     id="g4860">
    <g
       id="g16585">
      <path
         id="connector39pin"
         d="m 41.3754,32.4473 h 0.7087 v 2.2677 h -0.7087 z"
         inkscape:connector-curvature="0"
         style="fill:#9a916c;stroke-width:0" />
    </g>
  </g>
  <g
     transform="matrix(0,2.3635406,-2.3635406,0,174.64921,-25.590528)"
     id="g4864">
    <g
       id="g16588">
      <path
         id="connector40pin"
         d="m 41.3754,31.03 h 0.7087 v 2.2677 h -0.7087 z"
         inkscape:connector-curvature="0"
         style="fill:#9a916c;stroke-width:0" />
    </g>
  </g>
  <g
     transform="matrix(0,2.3635406,-2.3635406,0,171.29818,-28.940608)"
     id="g4868">
    <g
       id="g16591">
      <path
         id="connector41pin"
         d="m 41.3754,29.6127 h 0.7087 v 2.2677 h -0.7087 z"
         inkscape:connector-curvature="0"
         style="fill:#9a916c;stroke-width:0" />
    </g>
  </g>
  <g
     transform="matrix(0,2.3635406,-2.3635406,0,167.94928,-32.290458)"
     id="g4872">
    <g
       id="g16594">
      <path
         id="connector42pin"
         d="m 41.3754,28.1953 h 0.7087 v 2.2677 h -0.7087 z"
         inkscape:connector-curvature="0"
         style="fill:#9a916c;stroke-width:0" />
    </g>
  </g>
  <g
     transform="matrix(0,2.3635406,-2.3635406,0,164.59943,-35.640298)"
     id="g4876">
    <g
       id="g16597">
      <path
         id="connector43pin"
         d="m 41.3754,26.778 h 0.7087 v 2.2677 h -0.7087 z"
         inkscape:connector-curvature="0"
         style="fill:#9a916c;stroke-width:0" />
    </g>
  </g>
  <g
     transform="matrix(0,2.3635406,-2.3635406,0,161.24959,-38.990148)"
     id="g4880">
    <g
       id="g16600">
      <path
         id="connector44pin"
         d="m 41.3754,25.3607 h 0.7087 v 2.2677 h -0.7087 z"
         inkscape:connector-curvature="0"
         style="fill:#9a916c;stroke-width:0" />
    </g>
  </g>
  <path
     id="connector45pin"
     d="m 92.766232,51.935028 h 1.675041 v 5.3598 h -1.675041 z"
     inkscape:connector-curvature="0"
     style="fill:#9a916c;stroke-width:0" />
  <path
     id="connector46pin"
     d="m 89.416386,51.935028 h 1.675041 v 5.3598 h -1.675041 z"
     inkscape:connector-curvature="0"
     style="fill:#9a916c;stroke-width:0" />
  <path
     id="connector47pin"
     d="m 86.06654,51.935028 h 1.67504 v 5.3598 h -1.67504 z"
     inkscape:connector-curvature="0"
     style="fill:#9a916c;stroke-width:0" />
  <path
     id="connector48pin"
     d="m 82.716693,51.935028 h 1.675041 v 5.3598 h -1.675041 z"
     inkscape:connector-curvature="0"
     style="fill:#9a916c;stroke-width:0" />
  <path
     id="connector49pin"
     d="m 79.366847,51.935028 h 1.675041 v 5.3598 h -1.675041 z"
     inkscape:connector-curvature="0"
     style="fill:#9a916c;stroke-width:0" />
  <path
     id="connector50pin"
     d="m 76.016765,51.935028 h 1.675041 v 5.3598 h -1.675041 z"
     inkscape:connector-curvature="0"
     style="fill:#9a916c;stroke-width:0" />
  <path
     id="connector51pin"
     d="m 72.666681,51.935028 h 1.675043 v 5.3598 h -1.675043 z"
     inkscape:connector-curvature="0"
     style="fill:#9a916c;stroke-width:0" />
  <path
     id="connector52pin"
     d="m 69.316835,51.935028 h 1.675043 v 5.3598 h -1.675043 z"
     inkscape:connector-curvature="0"
     style="fill:#9a916c;stroke-width:0" />
  <rect
     rx="1.1725526"
     height="23.449162"
     id="connector53pin"
     ry="1.1725526"
     x="70.154472"
     y="59.639698"
     width="23.449162"
     style="fill:#9a916c;stroke-width:0" />
  <g
     transform="matrix(0,2.3635406,-2.3635406,0,128.60744,13.165396)"
     id="g4893">
    <g
       id="g16612">
      <path
         id="connector54pin"
         d="m 22.7989,30.1266 h 1.9843 v 0.9921 h -1.9843 z"
         inkscape:connector-curvature="0"
         style="fill:#9a916c;stroke-width:0" />
    </g>
  </g>
  <g
     transform="matrix(0,2.3635406,-2.3635406,0,123.58279,18.19052)"
     id="g4897">
    <g
       id="g16615">
      <path
         id="connector55pin"
         d="m 20.6729,30.1266 h 1.9843 v 0.9921 h -1.9843 z"
         inkscape:connector-curvature="0"
         style="fill:#9a916c;stroke-width:0" />
    </g>
  </g>
  <g
     transform="matrix(0,2.3635406,-2.3635406,0,118.5579,23.215407)"
     id="g4901">
    <g
       id="g16618">
      <path
         id="connector56pin"
         d="m 18.5469,30.1266 h 1.9843 v 0.9921 h -1.9843 z"
         inkscape:connector-curvature="0"
         style="fill:#9a916c;stroke-width:0" />
    </g>
  </g>
  <g
     transform="matrix(0,2.3635406,-2.3635406,0,105.82834,10.48585)"
     id="g4905">
    <g
       id="g16621">
      <path
         id="connector57pin"
         d="m 18.5469,24.7408 h 1.9843 v 0.9921 h -1.9843 z"
         inkscape:connector-curvature="0"
         style="fill:#9a916c;stroke-width:0" />
    </g>
  </g>
  <g
     transform="matrix(0,2.3635406,-2.3635406,0,110.85323,5.460962)"
     id="g4909">
    <g
       id="g16624">
      <path
         id="connector58pin"
         d="m 20.6729,24.7408 h 1.9843 v 0.9921 h -1.9843 z"
         inkscape:connector-curvature="0"
         style="fill:#9a916c;stroke-width:0" />
    </g>
  </g>
  <g
     transform="matrix(0,2.3635406,-2.3635406,0,115.87788,0.435839)"
     id="g4913">
    <g
       id="g16627">
      <path
         id="connector59pin"
         d="m 22.7989,24.7408 h 1.9843 v 0.9921 h -1.9843 z"
         inkscape:connector-curvature="0"
         style="fill:#9a916c;stroke-width:0" />
    </g>
  </g>
  <g
     transform="matrix(0,2.3635406,-2.3635406,0,192.17557,-68.237078)"
     id="g4917">
    <g
       id="g16630">
      <path
         id="connector60pin"
         d="m 53.3251,25.7159 h 2.2677 v 2.2677 h -2.2677 z"
         inkscape:connector-curvature="0"
         style="fill:#9a916c;stroke-width:0" />
    </g>
  </g>
  <g
     transform="matrix(0,2.3635406,-2.3635406,0,202.22464,-78.286608)"
     id="g4921">
    <g
       id="g16633">
      <path
         id="connector61pin"
         d="m 57.5771,25.7159 h 2.2677 v 2.2677 h -2.2677 z"
         inkscape:connector-curvature="0"
         style="fill:#9a916c;stroke-width:0" />
    </g>
  </g>
  <g
     transform="matrix(0,2.3635406,-2.3635406,0,159.28596,57.638961)"
     id="g4925">
    <g
       id="g16636">
      <path
         id="connector62pin"
         d="m 19.5971,45.2452 h 2.5512 v 2.5512 h -2.5512 z"
         inkscape:connector-curvature="0"
         style="fill:#9a916c;stroke-width:0" />
    </g>
  </g>
  <g
     transform="matrix(0,2.3635406,-2.3635406,0,131.81689,30.169418)"
     id="g4929">
    <g
       id="g16639">
      <path
         id="connector63pin"
         d="m 19.5971,33.6231 h 2.5512 v 2.5512 h -2.5512 z"
         inkscape:connector-curvature="0"
         style="fill:#9a916c;stroke-width:0" />
    </g>
  </g>
  <g
     transform="matrix(0,2.3635406,-2.3635406,0,148.56636,68.358563)"
     id="g4933">
    <g
       id="g16642">
      <path
         id="connector64pin"
         d="m 15.0617,45.2452 h 2.5512 v 2.5512 h -2.5512 z"
         inkscape:connector-curvature="0"
         style="fill:#9a916c;stroke-width:0" />
    </g>
  </g>
  <g
     transform="matrix(0,2.3635406,-2.3635406,0,121.09729,40.889491)"
     id="g4937">
    <g
       id="g16645">
      <path
         id="connector65pin"
         d="m 15.0617,33.6231 h 2.5512 v 2.5512 h -2.5512 z"
         inkscape:connector-curvature="0"
         style="fill:#9a916c;stroke-width:0" />
    </g>
  </g>
  <g
     transform="matrix(-2.3635406,0,0,-2.3635406,242.17888,124.39551)"
     id="g4941">
    <g
       id="g16648">
      <path
         id="connector66pin"
         d="m 49.709,25.5288 h 3.0472 v 2.8346 H 49.709 Z"
         inkscape:connector-curvature="0"
         style="fill:#9a916c;stroke-width:0" />
    </g>
  </g>
  <g
     transform="matrix(-2.3635406,0,0,-2.3635406,219.40001,124.39551)"
     id="g4945">
    <g
       id="g16651">
      <path
         id="connector67pin"
         d="m 44.8901,25.5288 h 3.0472 v 2.8346 h -3.0472 z"
         inkscape:connector-curvature="0"
         style="fill:#9a916c;stroke-width:0" />
    </g>
  </g>
  <g
     transform="matrix(0,-2.3635406,2.3635406,0,0.73539206,217.73717)"
     id="g4949">
    <g
       id="g16654">
      <path
         id="connector68pin"
         d="m 45.4307,44.4104 h 2.8346 v 4.252 h -2.8346 z"
         inkscape:connector-curvature="0"
         style="fill:#9a916c;stroke-width:0" />
    </g>
  </g>
  <g
     transform="matrix(0,-2.3635406,2.3635406,0,38.254001,255.25672)"
     id="g4953">
    <g
       id="g16657">
      <path
         id="connector69pin"
         d="m 61.3047,44.4104 h 2.8346 v 4.252 h -2.8346 z"
         inkscape:connector-curvature="0"
         style="fill:#9a916c;stroke-width:0" />
    </g>
  </g>
  <g
     transform="matrix(0,-2.3635406,2.3635406,0,17.484623,200.98699)"
     id="g4957">
    <g
       id="g16660">
      <path
         id="connector70pin"
         d="m 45.4307,37.3238 h 2.8346 v 4.252 h -2.8346 z"
         inkscape:connector-curvature="0"
         style="fill:#9a916c;stroke-width:0" />
    </g>
  </g>
  <g
     transform="matrix(0,-2.3635406,2.3635406,0,55.003706,238.50606)"
     id="g4961">
    <g
       id="g16663">
      <path
         id="connector71pin"
         d="m 61.3047,37.3238 h 2.8346 v 4.252 h -2.8346 z"
         inkscape:connector-curvature="0"
         style="fill:#9a916c;stroke-width:0" />
    </g>
  </g>
  <g
     transform="matrix(0,-2.3635406,2.3635406,0,34.234327,184.23682)"
     id="g4965">
    <g
       id="g16666">
      <path
         id="connector72pin"
         d="m 45.4307,30.2372 h 2.8346 v 4.252 h -2.8346 z"
         inkscape:connector-curvature="0"
         style="fill:#9a916c;stroke-width:0" />
    </g>
  </g>
  <g
     transform="matrix(0,-2.3635406,2.3635406,0,71.752937,221.75684)"
     id="g4969">
    <g
       id="g16669">
      <path
         id="connector73pin"
         d="m 61.3047,30.2372 h 2.8346 v 4.252 h -2.8346 z"
         inkscape:connector-curvature="0"
         style="fill:#9a916c;stroke-width:0" />
    </g>
  </g>
  <g
     transform="matrix(0,-2.3635406,2.3635406,0,-41.121733,94.751514)"
     id="g4973">
    <g
       id="g16672">
      <rect
         rx="1.4173"
         height="2.8346"
         id="connector74pin"
         ry="1.4173"
         x="10.5589"
         y="27.956699"
         width="2.8346"
         style="fill:#9a916c;stroke-width:0" />
    </g>
  </g>
  <rect
     rx="3.3498461"
     height="6.6996922"
     id="connector75pin"
     ry="3.3498461"
     x="89.547798"
     y="166.48662"
     width="6.6996922"
     style="fill:#9a916c;stroke-width:0" />
  <g
     transform="matrix(0,2.3635406,-2.3635406,0,183.4014,15.447631)"
     id="g4978">
    <g
       id="g16676">
      <path
         id="connector76pin"
         d="m 34.1202,40.9961 h 1.5591 v 3.4016 h -1.5591 z"
         inkscape:connector-curvature="0"
         style="fill:#9a916c;stroke-width:0" />
    </g>
  </g>
  <g
     transform="matrix(0,2.3635406,-2.3635406,0,189.76594,21.812172)"
     id="g4982">
    <g
       id="g16679">
      <path
         id="connector77pin"
         d="m 34.1202,43.689 h 1.5591 v 3.4016 h -1.5591 z"
         inkscape:connector-curvature="0"
         style="fill:#9a916c;stroke-width:0" />
    </g>
  </g>
  <g
     transform="matrix(0,2.3635406,-2.3635406,0,196.13049,28.177188)"
     id="g4986">
    <g
       id="g16682">
      <path
         id="connector78pin"
         d="m 34.1202,46.3819 h 1.5591 v 3.4016 h -1.5591 z"
         inkscape:connector-curvature="0"
         style="fill:#9a916c;stroke-width:0" />
    </g>
  </g>
  <g
     transform="matrix(0,2.3635406,-2.3635406,0,213.55119,10.756475)"
     id="g4990">
    <g
       id="g16685">
      <path
         id="connector79pin"
         d="m 41.4908,46.3819 h 1.5591 v 3.4016 h -1.5591 z"
         inkscape:connector-curvature="0"
         style="fill:#9a916c;stroke-width:0" />
    </g>
  </g>
  <g
     transform="matrix(0,2.3635406,-2.3635406,0,200.82212,-1.973082)"
     id="g4994">
    <g
       id="g16688">
      <path
         id="connector80pin"
         d="m 41.4908,40.9961 h 1.5591 v 3.4016 h -1.5591 z"
         inkscape:connector-curvature="0"
         style="fill:#9a916c;stroke-width:0" />
    </g>
  </g>
  <g
     transform="matrix(0,2.3635406,-2.3635406,0,118.20289,-82.326618)"
     id="g4998">
    <g
       id="g16692">
      <path
         id="connector82pin"
         d="m 38.9563,6.8032 h 5.6693 v 2.8346 h -5.6693 z"
         inkscape:connector-curvature="0"
         style="fill:#9a916c;stroke-width:0" />
    </g>
  </g>
  <g
     transform="matrix(0,2.3635406,-2.3635406,0,108.15312,-72.276838)"
     id="g5002">
    <g
       id="g16695">
      <path
         id="connector83pin"
         d="m 34.7044,6.8032 h 5.6693 v 2.8346 h -5.6693 z"
         inkscape:connector-curvature="0"
         style="fill:#9a916c;stroke-width:0" />
    </g>
  </g>
  <g
     transform="matrix(-2.3635406,0,0,-2.3635406,187.49884,73.0613)"
     id="g5006">
    <g
       id="g16698">
      <path
         id="connector84pin"
         d="M 39.0981,14.1732 H 40.232 V 18 h -1.1339 z"
         inkscape:connector-curvature="0"
         style="fill:#9a916c;stroke-width:0" />
    </g>
  </g>
  <g
     transform="matrix(-2.3635406,0,0,-2.3635406,196.20848,73.0613)"
     id="g5010">
    <g
       id="g16701">
      <path
         id="connector85pin"
         d="m 40.9406,14.1732 h 1.1339 V 18 h -1.1339 z"
         inkscape:connector-curvature="0"
         style="fill:#9a916c;stroke-width:0" />
    </g>
  </g>
  <g
     transform="matrix(-2.3635406,0,0,-2.3635406,170.07907,73.0613)"
     id="g5014">
    <g
       id="g16704">
      <path
         id="connector86pin"
         d="M 35.4131,14.1732 H 36.547 V 18 h -1.1339 z"
         inkscape:connector-curvature="0"
         style="fill:#9a916c;stroke-width:0" />
    </g>
  </g>
  <g
     transform="matrix(-2.3635406,0,0,-2.3635406,178.78777,73.0613)"
     id="g5018">
    <g
       id="g16707">
      <path
         id="connector87pin"
         d="m 37.2555,14.1732 h 1.1339 V 18 h -1.1339 z"
         inkscape:connector-curvature="0"
         style="fill:#9a916c;stroke-width:0" />
    </g>
  </g>
  <circle
     r="3.5308933"
     id="connector88pin"
     cx="115.85779"
     cy="35.877373"
     style="fill:none;stroke:#9a916c;stroke-width:1.70174932" />
  <path
     id="path16711"
     d="m 112.32713,32.34671 h 10.59245 v 7.061552 H 112.32713 V 32.34671 m 0,3.530658 a 3.5308936,3.5308936 0 0 0 7.06155,0 3.5308936,3.5308936 0 1 0 -7.06155,0 z"
     inkscape:connector-curvature="0"
     style="fill:#9a916c;stroke-width:0" />
  <circle
     r="3.5308933"
     id="connector89pin"
     cx="71.639252"
     cy="35.877373"
     style="fill:none;stroke:#9a916c;stroke-width:1.70174932" />
  <path
     id="path16714"
     d="m 64.5777,32.34671 h 10.592445 v 7.061552 H 64.5777 V 32.34671 m 3.530658,3.530658 a 3.5308936,3.5308936 0 1 0 7.061549,0 3.5308936,3.5308936 0 1 0 -7.061549,0 z"
     inkscape:connector-curvature="0"
     style="fill:#9a916c;stroke-width:0" />
  <circle
     r="5.5491209"
     id="connector90pin"
     cx="117.86774"
     cy="17.117943"
     style="fill:none;stroke:#9a916c;stroke-width:5.06837606" />
  <path
     id="rect16717"
     d="m 112.31862,11.568824 h 11.09825 v 11.098242 h -11.09825 z"
     inkscape:connector-curvature="0"
     style="fill:none;stroke:#9a916c;stroke-width:5.06837606" />
  <circle
     r="5.5491209"
     id="connector91pin"
     cx="69.629295"
     cy="17.117943"
     style="fill:none;stroke:#9a916c;stroke-width:5.06837606" />
  <path
     id="rect16720"
     d="M 64.080174,11.568824 H 75.178417 V 22.667066 H 64.080174 Z"
     inkscape:connector-curvature="0"
     style="fill:none;stroke:#9a916c;stroke-width:5.06837606" />
  <g
     transform="matrix(-2.3635406,0,0,-2.3635406,204.91814,73.0613)"
     id="g5030">
    <g
       id="g16722">
      <path
         id="connector92pin"
         d="M 42.7831,14.1732 H 43.917 V 18 h -1.1339 z"
         inkscape:connector-curvature="0"
         style="fill:#9a916c;stroke-width:0" />
    </g>
  </g>
  <g
     transform="matrix(2.3635406,0,0,2.3635406,63.288151,117.12952)"
     id="g5036">
    <g
       transform="rotate(180,2.8345,1.7715)"
       id="0805-cap">
      <g
         id="g16749">
        <path
           id="path16751"
           d="M 5.386,3.543 H 0.283 A 0.2834,0.2834 0 0 1 0,3.26 V 0.283 C 0,0.127 0.127,0 0.283,0 H 5.385 C 5.542,0 5.668,0.127 5.668,0.283 V 3.26 A 0.2819,0.2819 0 0 1 5.386,3.543 Z"
           inkscape:connector-curvature="0"
           style="fill:#dcdcdc" />
        <path
           id="rect16753"
           d="M 1.063,0 H 4.606 V 3.543 H 1.063 Z"
           inkscape:connector-curvature="0"
           style="fill:#6e554b" />
      </g>
    </g>
  </g>
  <g
     transform="matrix(2.3635406,0,0,2.3635406,50.525268,127.14502)"
     id="g5042">
    <g
       transform="rotate(-135,2.2675,1.134)"
       id="0603-cap">
      <g
         id="g16756">
        <path
           id="path16758"
           d="M 4.245,2.268 H 0.29 C 0.13,2.268 0,2.138 0,1.977 V 0.29 C 0,0.13 0.13,0 0.29,0 h 3.955 c 0.16,0 0.29,0.13 0.29,0.29 v 1.687 c 0,0.161 -0.13,0.291 -0.29,0.291 z"
           inkscape:connector-curvature="0"
           style="fill:#dcdcdc" />
        <path
           id="rect16760"
           d="M 1.134,0 H 3.402 V 2.268 H 1.134 Z"
           inkscape:connector-curvature="0"
           style="fill:#6e554b" />
      </g>
    </g>
  </g>
  <g
     transform="matrix(2.3635406,0,0,2.3635406,43.314342,112.8352)"
     id="g5048">
    <g
       transform="rotate(180,2.2675,1.134)"
       id="g16762">
      <g
         id="g16764">
        <path
           id="path16766"
           d="M 4.245,2.268 H 0.29 C 0.13,2.268 0,2.138 0,1.977 V 0.29 C 0,0.13 0.13,0 0.29,0 h 3.955 c 0.16,0 0.29,0.13 0.29,0.29 v 1.687 c 0,0.161 -0.13,0.291 -0.29,0.291 z"
           inkscape:connector-curvature="0"
           style="fill:#dcdcdc" />
        <path
           id="rect16768"
           d="M 1.134,0 H 3.402 V 2.268 H 1.134 Z"
           inkscape:connector-curvature="0"
           style="fill:#6e554b" />
      </g>
    </g>
  </g>
  <g
     transform="matrix(2.3635406,0,0,2.3635406,60.246511,99.686586)"
     id="g5054">
    <g
       transform="rotate(90,2.8345,1.7715)"
       id="g16770">
      <g
         id="g16772">
        <path
           id="path16774"
           d="M 5.386,3.543 H 0.283 A 0.2834,0.2834 0 0 1 0,3.26 V 0.283 C 0,0.127 0.127,0 0.283,0 H 5.385 C 5.542,0 5.668,0.127 5.668,0.283 V 3.26 A 0.2819,0.2819 0 0 1 5.386,3.543 Z"
           inkscape:connector-curvature="0"
           style="fill:#dcdcdc" />
        <path
           id="rect16776"
           d="M 1.063,0 H 4.606 V 3.543 H 1.063 Z"
           inkscape:connector-curvature="0"
           style="fill:#6e554b" />
      </g>
    </g>
  </g>
  <g
     transform="matrix(2.3635406,0,0,2.3635406,66.949512,118.80078)"
     id="g5068">
    <g
       transform="rotate(180,11.3385,12.756)"
       id="jstph2">
      <g
         id="g16779">
        <g
           id="g16781">
          <path
             id="polygon16783"
             d="M 2.835,2.126 H 0 V 17.008 H 22.677 V 2.126 H 19.843 V 0 H 2.835 Z"
             inkscape:connector-curvature="0"
             style="fill:#666666" />
          <path
             id="rect16785"
             d="m 4.252,5.669 h 2.835 v 8.504 H 4.252 Z"
             inkscape:connector-curvature="0" />
          <path
             id="rect16787"
             d="m 15.591,5.669 h 2.835 v 8.504 h -2.835 z"
             inkscape:connector-curvature="0" />
          <path
             id="rect16789"
             d="m 4.252,14.173 h 2.835 v 2.835 H 4.252 Z"
             inkscape:connector-curvature="0"
             style="fill:#333333" />
          <path
             id="rect16791"
             d="m 15.591,14.173 h 2.835 v 2.835 h -2.835 z"
             inkscape:connector-curvature="0"
             style="fill:#333333" />
          <path
             id="rect16793"
             d="M 0,17.008 H 2.268 V 21.26 H 0 Z"
             inkscape:connector-curvature="0"
             style="fill:#333333" />
          <path
             id="rect16795"
             d="m 20.409,17.008 h 2.268 v 4.252 h -2.268 z"
             inkscape:connector-curvature="0"
             style="fill:#333333" />
          <path
             id="rect16797"
             d="m 7.512,17.008 h 1.984 v 7.087 H 7.512 Z"
             inkscape:connector-curvature="0"
             style="fill:#dcdcdc" />
          <path
             id="rect16799"
             d="m 13.181,17.008 h 1.984 v 7.087 h -1.984 z"
             inkscape:connector-curvature="0"
             style="fill:#dcdcdc" />
        </g>
      </g>
    </g>
  </g>
  <g
     transform="matrix(2.3635406,0,0,2.3635406,109.2784,115.72581)"
     id="g5075">
    <g
       transform="rotate(180,5.1025,2.3385)"
       id="sod-123fl">
      <g
         id="g16802">
        <path
           id="rect3"
           d="M 0,1.134 H 10.205 V 3.543 H 0 Z"
           inkscape:connector-curvature="0"
           style="fill:#dcdcdc" />
        <path
           id="rect5"
           d="M 1.276,0 H 8.93 V 4.677 H 1.276 Z"
           inkscape:connector-curvature="0"
           style="fill:#303030" />
        <path
           id="rect3341"
           d="m 2.0554,0.0069 h 1.3519 v 4.667 H 2.0554 Z"
           inkscape:connector-curvature="0"
           style="fill:#4d4d4d" />
      </g>
    </g>
  </g>
  <g
     transform="matrix(2.3635406,0,0,2.3635406,105.93848,43.039606)"
     id="g5082">
    <g
       transform="rotate(180,5.1025,2.3385)"
       id="g16810">
      <g
         id="g16812">
        <path
           id="rect16820"
           d="M 0,1.134 H 10.205 V 3.543 H 0 Z"
           inkscape:connector-curvature="0"
           style="fill:#dcdcdc" />
        <path
           id="rect16822"
           d="M 1.276,0 H 8.93 V 4.677 H 1.276 Z"
           inkscape:connector-curvature="0"
           style="fill:#303030" />
        <path
           id="rect16824"
           d="m 2.0554,0.0069 h 1.3519 v 4.667 H 2.0554 Z"
           inkscape:connector-curvature="0"
           style="fill:#4d4d4d" />
      </g>
    </g>
  </g>
  <g
     transform="matrix(2.3635406,0,0,2.3635406,65.129586,54.614809)"
     id="g5088">
    <g
       transform="scale(1.25)"
       id="qfn32_5mm">
      <g
         id="g3335">
        <rect
           height="11.3386"
           rx="0.56690001"
           id="rect16837"
           ry="0.56690001"
           width="11.3386"
           x="0"
           y="0"
           style="fill:#333333" />
        <circle
           r="0.5381"
           id="path3333"
           cx="1.2684"
           cy="1.3207999"
           style="fill:#666666" />
      </g>
    </g>
  </g>
  <g
     transform="matrix(2.3635406,0,0,2.3635406,44.156709,56.332158)"
     id="NEOPIXEL"
     inkscape:label="">
    <g
       transform="rotate(-90,2.8345,2.8345)"
       id="apa102_2020">
      <g
         id="g16841">
        <style
           id="style16843">
          .st0{fill:#9c8f6d}.st1{fill:#807c73}
        </style>
        <g
           id="g16845">
          <path
             id="rect16847"
             class="st0"
             d="M 0,0 H 5.669 V 5.669 H 0 Z"
             inkscape:connector-curvature="0"
             style="fill:#9c8f6d" />
          <path
             id="rect16849"
             class="st1"
             d="M 0.425,1.134 H 3.827 V 4.536 H 0.425 Z"
             inkscape:connector-curvature="0"
             style="fill:#807c73" />
        </g>
      </g>
    </g>
  </g>
  <path
     style="fill:#dcdcdc;stroke-width:2.36354041"
     inkscape:connector-curvature="0"
     d="m 138.41353,63.159245 h -9.3478 c -0.37817,0 -0.68543,-0.307262 -0.68543,-0.685427 v -3.989657 c 0,-0.378167 0.30726,-0.685427 0.68543,-0.685427 h 9.3478 c 0.37817,0 0.68543,0.30726 0.68543,0.685427 v 3.987293 c 0,0.380529 -0.30726,0.687791 -0.68543,0.687791 z"
     id="path16854" />
  <g
     id="LED"
     transform="matrix(2.3635406,0,0,2.3635406,131.05914,55.118951)"
     inkscape:label="">
    <path
       style="fill:#ff0000"
       inkscape:connector-curvature="0"
       d="M 0,1.134 H 2.268 V 3.402 H 0 Z"
       id="rect16856" />
  </g>
  <circle
     style="fill:#a00000;stroke-width:2.36354041"
     cy="-133.73845"
     cx="60.478992"
     id="circle16858"
     r="0.83669335"
     transform="rotate(90)" />
  <path
     id="polygon16865"
     d="m 51.008612,104.96343 h 3.013514 V 81.512377 H 51.008612 V 78.16324 h -3.349138 v 3.349137 H 40.287592 V 78.16324 h -3.349137 v 3.349137 h -3.015878 v 23.451053 h 3.015878 v 3.34913 h 3.349137 v -3.34913 h 7.371882 v 3.34913 h 3.349138 z"
     inkscape:connector-curvature="0"
     style="fill:#dcdcdc;stroke-width:2.36354041" />
  <circle
     r="5.8615808"
     id="RESET"
     cx="93.2379"
     cy="-43.972351"
     style="fill:#1e1e1e;stroke-width:2.36354041"
     transform="rotate(90)"
     inkscape:label="" />
  <path
     id="rect16869"
     d="m 54.022126,80.507872 v 1.340127 H 33.922577 v -1.340127 z"
     inkscape:connector-curvature="0"
     style="fill:#b4b4b4;stroke-width:2.36354041" />
  <path
     id="rect16871"
     d="m 54.022126,104.6278 v 1.34013 H 33.922577 v -1.34013 z"
     inkscape:connector-curvature="0"
     style="fill:#b4b4b4;stroke-width:2.36354041" />
  <g
     transform="matrix(2.3635406,0,0,2.3635406,110.03473,58.026582)"
     id="g5120">
    <g
       transform="rotate(180,2.2675,1.134)"
       id="0603-res">
      <g
         id="g16874">
        <path
           id="path16876"
           d="M 4.245,2.268 H 0.29 C 0.13,2.268 0,2.138 0,1.977 V 0.29 C 0,0.13 0.13,0 0.29,0 h 3.955 c 0.16,0 0.29,0.13 0.29,0.29 v 1.687 c 0,0.161 -0.13,0.291 -0.29,0.291 z"
           inkscape:connector-curvature="0"
           style="fill:#dcdcdc" />
        <path
           id="rect16878"
           d="M 1.134,0 H 3.402 V 2.268 H 1.134 Z"
           inkscape:connector-curvature="0"
           style="fill:#333333" />
      </g>
    </g>
  </g>
  <g
     id="eg1390"
     transform="matrix(0,2.3635406,-2.3635406,0,149.57535,66.86079)">
    <g
       id="g16881">
      <style
         id="style16883">
          .st0{fill:#dcdcdc}.st1{fill:#b4b4b4}
        </style>
      <g
         id="g16885">
        <path
           style="fill:#dcdcdc"
           inkscape:connector-curvature="0"
           d="m 15.9,0 h 2.3 v 17 h -2.3 z"
           class="st0"
           id="rect16887" />
        <path
           style="fill:#dcdcdc"
           inkscape:connector-curvature="0"
           d="m 8.8,0 h 2.3 V 17 H 8.8 Z"
           class="st0"
           id="rect16889" />
        <path
           style="fill:#dcdcdc"
           inkscape:connector-curvature="0"
           d="M 1.7,0 H 4 V 17 H 1.7 Z"
           class="st0"
           id="rect16891" />
        <path
           style="fill:#b4b4b4"
           inkscape:connector-curvature="0"
           d="m 15.9,2.8 h 2.3 v 11.3 h -2.3 z"
           class="st1"
           id="rect16893" />
        <path
           style="fill:#b4b4b4"
           inkscape:connector-curvature="0"
           d="m 8.8,2.8 h 2.3 V 14.1 H 8.8 Z"
           class="st1"
           id="rect16895" />
        <path
           style="fill:#b4b4b4"
           inkscape:connector-curvature="0"
           d="M 1.7,2.8 H 4 V 14.1 H 1.7 Z"
           class="st1"
           id="rect16897" />
        <path
           inkscape:connector-curvature="0"
           d="m 0,3.5 h 19.8 v 9.9 H 0 Z"
           id="rect16899" />
        <path
           style="fill:#dcdcdc"
           inkscape:connector-curvature="0"
           d="M 19.8,10.6 V 6.4 H 18.4 V 3.5 H 14.2 V 6.4 H 5.7 V 3.5 H 1.4 V 6.4 H 0 v 4.2 h 1.4 v 2.9 h 17 v -2.9 z"
           class="st0"
           id="polygon16901" />
        <path
           style="fill:#333333"
           inkscape:connector-curvature="0"
           d="m 9.9,3.5 h 4.3 V 6.3 H 9.9 Z"
           id="rect16903" />
        <circle
           style="fill:#b4b4b4"
           cy="8.5"
           cx="7.8000002"
           class="st1"
           id="circle16905"
           r="1.4" />
        <circle
           style="fill:#b4b4b4"
           cy="8.5"
           cx="12"
           class="st1"
           id="circle16907"
           r="1.4" />
      </g>
    </g>
  </g>
  <g
     transform="matrix(2.3635406,0,0,2.3635406,81.481744,95.253765)"
     id="g5146">
    <g
       transform="rotate(90,4.11,3.827)"
       id="sot23-5">
      <g
         id="g16910">
        <g
           id="g16912">
          <path
             id="rect16914"
             d="M 0.85,0 H 1.984 V 7.654 H 0.85 Z"
             inkscape:connector-curvature="0"
             style="fill:#dcdcdc" />
          <path
             id="rect16916"
             d="M 6.236,0 H 7.37 V 7.654 H 6.236 Z"
             inkscape:connector-curvature="0"
             style="fill:#dcdcdc" />
          <path
             id="rect16918"
             d="M 3.543,4.535 H 4.677 V 7.653 H 3.543 Z"
             inkscape:connector-curvature="0"
             style="fill:#dcdcdc" />
          <path
             id="rect16920"
             d="M 0,1.559 H 8.22 V 6.094 H 0 Z"
             inkscape:connector-curvature="0"
             style="fill:#303030" />
        </g>
      </g>
    </g>
  </g>
  <g
     id="g5151"
     transform="matrix(2.3635406,0,0,2.3635406,19.387037,131.30225)">
    <g
       id="sewalli"
       transform="rotate(-135,7.7955,6.6615)">
      <g
         id="g16726">
        <path
           d="m 3.118,6.661 c 0,-2.583 2.094,-4.677 4.677,-4.677 2.583,0 4.677,2.094 4.677,4.677 0,2.583 -2.094,4.677 -4.677,4.677 -2.583,0 -4.677,-2.093 -4.677,-4.677 z m 4.677,6.662 c 4.305,0 7.795,-3.49 7.795,-7.795 V 0.994 C 13.028,0.718 10.43,0.567 7.795,0.567 5.16,0.567 2.562,0.718 0,0.994 v 4.534 c 0,4.305 3.49,7.795 7.795,7.795 z"
           id="connector0pin"
           inkscape:connector-curvature="0"
           style="fill:#9a916c" />
      </g>
    </g>
  </g>
  <g
     id="g5156"
     transform="matrix(2.3635406,0,0,2.3635406,-3.7014467,75.365751)">
    <g
       id="g16730"
       transform="rotate(-90,7.7955,6.6615)">
      <g
         id="g16732">
        <path
           d="m 3.118,6.661 c 0,-2.583 2.094,-4.677 4.677,-4.677 2.583,0 4.677,2.094 4.677,4.677 0,2.583 -2.094,4.677 -4.677,4.677 -2.583,0 -4.677,-2.093 -4.677,-4.677 z m 4.677,6.662 c 4.305,0 7.795,-3.49 7.795,-7.795 V 0.994 C 13.028,0.718 10.43,0.567 7.795,0.567 5.16,0.567 2.562,0.718 0,0.994 v 4.534 c 0,4.305 3.49,7.795 7.795,7.795 z"
           id="connector1pin"
           inkscape:connector-curvature="0"
           style="fill:#9a916c" />
      </g>
    </g>
  </g>
  <g
     id="g5161"
     transform="matrix(2.3635406,0,0,2.3635406,154.34829,75.365751)">
    <g
       id="g16736"
       transform="rotate(90,7.7955,6.6615)">
      <g
         id="g16738">
        <path
           d="m 3.118,6.661 c 0,-2.583 2.094,-4.677 4.677,-4.677 2.583,0 4.677,2.094 4.677,4.677 0,2.583 -2.094,4.677 -4.677,4.677 -2.583,0 -4.677,-2.093 -4.677,-4.677 z m 4.677,6.662 c 4.305,0 7.795,-3.49 7.795,-7.795 V 0.994 C 13.028,0.718 10.43,0.567 7.795,0.567 5.16,0.567 2.562,0.718 0,0.994 v 4.534 c 0,4.305 3.49,7.795 7.795,7.795 z"
           id="connector2pin"
           inkscape:connector-curvature="0"
           style="fill:#9a916c" />
      </g>
    </g>
  </g>
  <g
     id="g5166"
     transform="matrix(2.3635406,0,0,2.3635406,19.387037,19.429488)">
    <g
       id="g16742"
       transform="rotate(-45,7.7955,6.6615)">
      <g
         id="g16744">
        <path
           d="m 3.118,6.661 c 0,-2.583 2.094,-4.677 4.677,-4.677 2.583,0 4.677,2.094 4.677,4.677 0,2.583 -2.094,4.677 -4.677,4.677 -2.583,0 -4.677,-2.093 -4.677,-4.677 z m 4.677,6.662 c 4.305,0 7.795,-3.49 7.795,-7.795 V 0.994 C 13.028,0.718 10.43,0.567 7.795,0.567 5.16,0.567 2.562,0.718 0,0.994 v 4.534 c 0,4.305 3.49,7.795 7.795,7.795 z"
           id="connector3pin"
           inkscape:connector-curvature="0"
           style="fill:#9a916c" />
      </g>
    </g>
  </g>
  <g
     id="g5171"
     transform="matrix(2.3635406,0,0,2.3635406,131.26004,19.429488)">
    <g
       id="g16826"
       transform="rotate(45,7.7955,6.6615)">
      <g
         id="g16828">
        <path
           d="m 3.118,6.661 c 0,-2.583 2.094,-4.677 4.677,-4.677 2.583,0 4.677,2.094 4.677,4.677 0,2.583 -2.094,4.677 -4.677,4.677 -2.583,0 -4.677,-2.093 -4.677,-4.677 z m 4.677,6.662 c 4.305,0 7.795,-3.49 7.795,-7.795 V 0.994 C 13.028,0.718 10.43,0.567 7.795,0.567 5.16,0.567 2.562,0.718 0,0.994 v 4.534 c 0,4.305 3.49,7.795 7.795,7.795 z"
           id="connector20pin"
           inkscape:connector-curvature="0"
           style="fill:#9a916c" />
      </g>
    </g>
  </g>
  <g
     id="g5176"
     transform="matrix(2.3635406,0,0,2.3635406,131.26004,131.30225)">
    <g
       id="g16922"
       transform="rotate(135,7.7955,6.6615)">
      <g
         id="g16924">
        <path
           d="m 3.118,6.661 c 0,-2.583 2.094,-4.677 4.677,-4.677 2.583,0 4.677,2.094 4.677,4.677 0,2.583 -2.094,4.677 -4.677,4.677 -2.583,0 -4.677,-2.093 -4.677,-4.677 z m 4.677,6.662 c 4.305,0 7.795,-3.49 7.795,-7.795 V 0.994 C 13.028,0.718 10.43,0.567 7.795,0.567 5.16,0.567 2.562,0.718 0,0.994 v 4.534 c 0,4.305 3.49,7.795 7.795,7.795 z"
           id="connector81pin"
           inkscape:connector-curvature="0"
           style="fill:#9a916c" />
      </g>
    </g>
  </g>
  <g
     transform="matrix(2.3635406,0,0,2.3635406,66.949512,0)"
     id="g5196">
    <g
       transform="rotate(180,11.3385,8.327)"
       id="4uconn_20329_v2">
      <g
         id="g16929">
        <g
           id="g16931">
          <path
             id="rect16933"
             d="m 0,7.157 h 22.677 v 3.969 H 0 Z"
             inkscape:connector-curvature="0"
             style="fill:#b4b4b4" />
          <path
             id="rect16935"
             d="m 11.055,0 h 0.567 v 3.402 h -0.567 z"
             inkscape:connector-curvature="0"
             style="fill:#dcdcdc" />
          <path
             id="rect16937"
             d="m 12.898,0 h 0.567 v 3.402 h -0.567 z"
             inkscape:connector-curvature="0"
             style="fill:#dcdcdc" />
          <path
             id="rect16939"
             d="m 14.74,0 h 0.567 V 3.402 H 14.74 Z"
             inkscape:connector-curvature="0"
             style="fill:#dcdcdc" />
          <path
             id="rect16941"
             d="M 9.213,0 H 9.78 V 3.402 H 9.213 Z"
             inkscape:connector-curvature="0"
             style="fill:#dcdcdc" />
          <path
             id="rect16943"
             d="M 7.37,0 H 7.937 V 3.402 H 7.37 Z"
             inkscape:connector-curvature="0"
             style="fill:#dcdcdc" />
          <path
             id="rect16945"
             d="M 4.252,1.489 H 18.425 V 2.198 H 4.252 Z"
             inkscape:connector-curvature="0"
             style="fill:#b4b4b4" />
          <path
             id="rect16947"
             d="M 4.252,1.771 H 18.425 V 4.747 H 4.252 Z"
             inkscape:connector-curvature="0" />
          <path
             id="polygon16949"
             d="M 14.74,3.473 V 4.182 H 13.323 V 1.63 H 9.354 V 4.182 H 7.937 V 3.473 H 5.669 V 1.347 H 0.567 V 14.953 H 22.11 V 1.347 h -5.102 v 2.126 z"
             inkscape:connector-curvature="0"
             style="fill:#dcdcdc" />
          <path
             id="polygon16951"
             d="m 4.11,7.867 h 1.417 l 0.284,4.252 H 3.827 Z"
             inkscape:connector-curvature="0" />
          <path
             id="polygon16953"
             d="m 17.149,7.867 h 1.418 l 0.283,4.252 h -1.984 z"
             inkscape:connector-curvature="0" />
          <path
             id="polygon16955"
             d="M 1.134,14.953 H 21.543 L 20.976,16.654 1.701,16.653 Z"
             inkscape:connector-curvature="0"
             style="fill:#f0f0f0" />
          <path
             id="polygon16957"
             d="m 0.567,14.953 h 0.567 l -0.567,1.7 H 0 Z"
             inkscape:connector-curvature="0"
             style="fill:#b4b4b4" />
          <path
             id="polygon16959"
             d="m 21.543,14.953 h 0.567 l 0.567,1.701 H 22.11 Z"
             inkscape:connector-curvature="0"
             style="fill:#b4b4b4" />
        </g>
      </g>
    </g>
  </g>
  <g
     transform="matrix(2.3635406,0,0,-2.3635406,50.11023,15.652077)"
     id="g5200">
    <g
       id="g27047">
      <path
         id="path27049"
         d="M 0,0 0.666,1.4 -0.735,0.734 Z m 1.037,2.169 0.411,-0.411 -1.643,-3.533 -0.445,0.444 0.394,0.819 -1.001,1.001 -0.819,-0.393 -0.431,0.429 z"
         inkscape:connector-curvature="0"
         style="fill:#ffffff" />
    </g>
  </g>
  <g
     transform="matrix(2.3635406,0,0,-2.3635406,55.602626,15.652077)"
     id="g5204">
    <g
       id="g27051">
      <path
         id="path27053"
         d="M 0,0 -0.526,0.283 -0.228,0.721 0.566,0.324 0.868,0.021 -1.725,-2.57 -2.147,-2.147 Z"
         inkscape:connector-curvature="0"
         style="fill:#ffffff" />
    </g>
  </g>
  <circle
     style="fill:#ffffff;fill-opacity:1;fill-rule:nonzero;stroke:none;stroke-width:25.21305656;stroke-linecap:round;stroke-linejoin:round;stroke-miterlimit:4;stroke-dasharray:none;stroke-dashoffset:0;stroke-opacity:1"
     id="D2_A1_SDA"
     cx="37.845402"
     cy="35.24305"
     r="11.522253"
     inkscape:label="touch croc" />
  <circle
     style="fill:#ffffff;fill-opacity:1;fill-rule:nonzero;stroke:none;stroke-width:1.53638053;stroke-linecap:round;stroke-linejoin:round;stroke-miterlimit:4;stroke-dasharray:none;stroke-dashoffset:0;stroke-opacity:1"
     id="D0_A2_SCL"
     cx="14.62442"
     cy="90.914391"
     r="11.522253"
     inkscape:label="touch croc" />
  <circle
     style="fill:#ffffff;fill-opacity:1;fill-rule:nonzero;stroke:none;stroke-width:25.21305656;stroke-linecap:round;stroke-linejoin:round;stroke-miterlimit:4;stroke-dasharray:none;stroke-dashoffset:0;stroke-opacity:1"
     id="3V"
     cx="37.657883"
     cy="147.21841"
     r="11.522253"
     inkscape:label="" />
  <circle
     style="fill:#ffffff;fill-opacity:1;fill-rule:nonzero;stroke:none;stroke-width:25.21305656;stroke-linecap:round;stroke-linejoin:round;stroke-miterlimit:4;stroke-dasharray:none;stroke-dashoffset:0;stroke-opacity:1"
     id="VOUT"
     cx="149.65657"
     cy="146.97467"
     r="11.522253"
     inkscape:label="" />
  <circle
     style="fill:#ffffff;fill-opacity:1;fill-rule:nonzero;stroke:none;stroke-width:25.21305656;stroke-linecap:round;stroke-linejoin:round;stroke-miterlimit:4;stroke-dasharray:none;stroke-dashoffset:0;stroke-opacity:1"
     id="D1_A0"
     cx="173.29938"
     cy="90.670654"
     r="11.522253"
     inkscape:label="touch croc" />
  <circle
     style="fill:#ffffff;fill-opacity:1;fill-rule:nonzero;stroke:none;stroke-width:25.21305656;stroke-linecap:round;stroke-linejoin:round;stroke-miterlimit:4;stroke-dasharray:none;stroke-dashoffset:0;stroke-opacity:1"
     id="GND"
     cx="149.77843"
     cy="35.097858"
     r="11.522253"
     inkscape:label="" />
</svg>
