<svg xmlns="http://www.w3.org/2000/svg" height="105.975" viewBox="0 0 79.33 79.481" width="105.774" version="1.2"><path d="M28.866 1.65a39.665 39.665 0 1 0 21.6 0zm-12.899 9.206a5.255 5.255 0 0 1 5.255 5.255 5.255 5.255 0 0 1-5.255 5.256 5.255 5.255 0 0 1-5.256-5.256 5.255 5.255 0 0 1 5.256-5.255zm47.395 0a5.255 5.255 0 0 1 5.257 5.255 5.255 5.255 0 0 1-5.257 5.256 5.255 5.255 0 0 1-5.254-5.256 5.255 5.255 0 0 1 5.254-5.255zM6.184 34.555a5.255 5.255 0 0 1 5.257 5.254 5.255 5.255 0 0 1-5.257 5.257A5.255 5.255 0 0 1 .93 39.809a5.255 5.255 0 0 1 5.254-5.254zm66.961 0a5.255 5.255 0 0 1 5.255 5.254 5.255 5.255 0 0 1-5.255 5.257 5.255 5.255 0 0 1-5.256-5.257 5.255 5.255 0 0 1 5.256-5.254zM15.967 58.253a5.255 5.255 0 0 1 5.255 5.255 5.255 5.255 0 0 1-5.255 5.256 5.255 5.255 0 0 1-5.256-5.256 5.255 5.255 0 0 1 5.256-5.255zm47.395 0a5.255 5.255 0 0 1 5.257 5.255 5.255 5.255 0 0 1-5.257 5.256 5.255 5.255 0 0 1-5.254-5.256 5.255 5.255 0 0 1 5.254-5.255z" stroke-width="1.5" stroke="#000" fill="none"/><g clip-path="url(#clipPath27059)" transform="matrix(1 0 0 -1 0 79.482)"><path d="M7.737 59.184l-1.802-1.802.357-.356c.117-.117.245-.205.382-.262a.931.931 0 0 1 .42-.07c.144.008.29.049.438.12.149.073.29.177.429.315l.022.022a1.6 1.6 0 0 1 .318.43c.072.15.113.296.123.44a.943.943 0 0 1-.07.425 1.204 1.204 0 0 1-.261.382zm-.041.812l.787-.786c.184-.184.32-.381.408-.592.089-.211.13-.425.125-.644a1.655 1.655 0 0 0-.153-.65 2.038 2.038 0 0 0-.427-.603l-.03-.03a2.071 2.071 0 0 0-.607-.431 1.691 1.691 0 0 0-.65-.154 1.623 1.623 0 0 0-.646.123c-.212.088-.41.223-.594.407l-.787.786zM7.493 55.728l1.63.056c.148.002.278.007.387.015.108.01.204.024.286.045a.952.952 0 0 1 .22.082.73.73 0 0 1 .172.129.486.486 0 0 1 .164.38.548.548 0 0 1-.17.362.635.635 0 0 1-.355.188 1.76 1.76 0 0 1-.492-.003l-.022.544c.255.039.488.033.701-.017.211-.05.411-.17.597-.354.113-.114.2-.235.26-.363a1 1 0 0 0 .098-.39.927.927 0 0 0-.067-.388 1.073 1.073 0 0 0-.243-.355l-.008-.008a1.198 1.198 0 0 0-.586-.329 2.27 2.27 0 0 0-.39-.056 8.893 8.893 0 0 0-.495-.013l-1.073-.044 1.063-1.062-.386-.387-1.629 1.629zM4.145 49.226l-.52 1.46-.52-1.46zm-.8 2.267h.581l1.337-3.661h-.629l-.302.858H2.917l-.3-.858h-.609zM5.58 48.31l1.113 1.192c.104.107.191.203.262.286.071.083.128.16.172.233a.95.95 0 0 1 .096.214c.021.069.031.14.031.213 0 .167-.05.295-.153.385a.552.552 0 0 1-.377.135.64.64 0 0 1-.382-.117 1.719 1.719 0 0 1-.346-.351l-.4.369c.152.208.321.369.506.484.186.114.411.17.674.17.16 0 .306-.023.44-.071.133-.05.248-.117.345-.206a.918.918 0 0 0 .227-.322 1.09 1.09 0 0 0 .08-.424v-.01c0-.125-.015-.24-.044-.341a1.298 1.298 0 0 0-.138-.307 2.211 2.211 0 0 0-.237-.314 7.834 7.834 0 0 0-.34-.36l-.728-.79h1.503v-.546H5.58zM3.298 30.926v-2.548h.504c.167 0 .318.028.455.086.137.058.253.14.349.247.095.108.17.239.223.396.054.155.08.331.08.524v.031c0 .199-.026.375-.08.531a1.174 1.174 0 0 1-.223.398.939.939 0 0 1-.35.249 1.153 1.153 0 0 1-.454.086zm-.604.546h1.113c.26 0 .496-.043.708-.13.21-.087.392-.209.543-.366a1.65 1.65 0 0 0 .35-.568c.084-.219.126-.462.126-.73v-.041c0-.268-.042-.512-.125-.733a1.585 1.585 0 0 0-.894-.939 1.808 1.808 0 0 0-.708-.133H2.694zM7.114 28.322c.229 0 .412.114.548.344.138.23.206.55.206.96v.042c0 .202-.018.384-.055.549a1.392 1.392 0 0 1-.156.415.762.762 0 0 1-.242.26.55.55 0 0 1-.312.092c-.228 0-.412-.115-.551-.345-.139-.23-.208-.55-.208-.961v-.041c0-.206.019-.39.055-.55.036-.162.088-.3.156-.413a.76.76 0 0 1 .244-.261.573.573 0 0 1 .315-.091m-.011-.547a1.21 1.21 0 0 0-.569.133 1.287 1.287 0 0 0-.432.375 1.774 1.774 0 0 0-.275.582 2.746 2.746 0 0 0-.096.757v.056c0 .275.032.526.098.754.066.23.159.424.279.585.119.162.264.287.434.377.17.09.36.136.572.136.208 0 .396-.044.564-.133.168-.088.312-.213.432-.374.119-.161.212-.355.278-.583.066-.226.099-.478.099-.756v-.057c0-.278-.033-.53-.099-.757a1.83 1.83 0 0 0-.278-.582 1.3 1.3 0 0 0-.434-.377 1.206 1.206 0 0 0-.573-.136M62.035 42.439c.123 0 .237.027.342.08.104.056.194.13.27.229.075.097.134.214.176.353.042.138.063.292.063.463v.032c0 .168-.021.322-.063.46-.042.14-.101.26-.178.359a.823.823 0 0 1-.272.229.74.74 0 0 1-.347.08.725.725 0 0 1-.342-.08.813.813 0 0 1-.27-.226 1.127 1.127 0 0 1-.175-.354 1.593 1.593 0 0 1-.063-.464v-.031c0-.168.02-.321.065-.461.043-.14.104-.26.18-.358a.828.828 0 0 1 .272-.23.74.74 0 0 1 .342-.081m-.01-.481c-.203 0-.39.04-.561.119-.171.08-.32.19-.442.33-.123.14-.217.309-.285.505a1.97 1.97 0 0 0-.101.643v.045c0 .235.034.449.103.646.069.197.165.366.288.508a1.3 1.3 0 0 0 1.008.453c.204 0 .392-.04.562-.12.17-.08.319-.19.442-.331.123-.14.218-.308.285-.504.068-.194.102-.41.102-.643v-.045c0-.233-.036-.45-.105-.646a1.557 1.557 0 0 0-.287-.508 1.306 1.306 0 0 0-.44-.333 1.34 1.34 0 0 0-.568-.12M65.279 43.955h-.256v.423h.256v.184c0 .247.062.428.183.545.113.115.277.171.492.171a1.133 1.133 0 0 0 .36-.05v-.426a2.598 2.598 0 0 1-.121.03.712.712 0 0 1-.126.01c-.19 0-.284-.11-.284-.328v-.136h.526v-.423h-.521v-1.948h-.51zm-1.476 0h-.265v.423h.265v.184c0 .247.059.428.175.545.12.115.286.171.498.171a1.133 1.133 0 0 0 .36-.05v-.426a2.326 2.326 0 0 1-.121.03.71.71 0 0 1-.125.01c-.19 0-.283-.11-.283-.328v-.136h.522v-.423h-.518v-1.948h-.508zM62.035 35.439c.123 0 .237.027.342.08.104.056.194.13.27.229.075.097.134.214.176.353.042.138.063.292.063.463v.032c0 .168-.021.322-.063.46-.042.14-.101.26-.178.359a.823.823 0 0 1-.272.229.74.74 0 0 1-.347.08.725.725 0 0 1-.342-.08.813.813 0 0 1-.27-.226 1.127 1.127 0 0 1-.175-.354 1.593 1.593 0 0 1-.063-.464v-.031c0-.168.02-.321.065-.461.043-.14.104-.26.18-.358a.828.828 0 0 1 .272-.23.74.74 0 0 1 .342-.081m-.01-.481c-.203 0-.39.04-.561.119-.171.08-.32.19-.442.33-.123.14-.217.309-.285.505a1.97 1.97 0 0 0-.101.643v.045c0 .235.034.449.103.646.069.197.165.366.288.508a1.3 1.3 0 0 0 1.008.453c.204 0 .392-.04.562-.12.17-.08.319-.19.442-.331.123-.14.218-.308.285-.504.068-.194.102-.41.102-.643v-.045c0-.233-.036-.45-.105-.646a1.557 1.557 0 0 0-.287-.508 1.306 1.306 0 0 0-.44-.333 1.34 1.34 0 0 0-.568-.12M63.776 37.392h.509v-.351c.065.105.15.198.254.277a.63.63 0 0 0 .398.119c.232 0 .41-.075.54-.225.129-.15.194-.352.194-.607v-1.598h-.51v1.453c0 .168-.036.297-.112.385a.387.387 0 0 1-.314.133.41.41 0 0 1-.326-.14c-.083-.092-.124-.221-.124-.386v-1.445h-.51zM60.752 53.938h.521V51.27h1.351v-.48h-1.872zM22.702 5.816a1.554 1.554 0 0 0-.574-.378 1.607 1.607 0 0 0-.604-.092l-.036.566c.15-.007.294.007.431.044s.267.118.392.243c.121.12.184.257.192.41a.54.54 0 0 1-.175.42l-.01.01a.488.488 0 0 1-.464.147c-.176-.034-.354-.141-.533-.32l-.129-.128-.322.212-.12 1.37-.975-.974-.386.386 1.508 1.507.334-.334.096-1.397c.103.074.212.135.328.186.117.05.235.077.356.082a.908.908 0 0 0 .362-.061.985.985 0 0 0 .35-.236l.012-.012c.12-.12.21-.251.267-.391.056-.141.085-.284.081-.431a1.109 1.109 0 0 0-.102-.432 1.323 1.323 0 0 0-.279-.397M21.003 9.346l.464.463 2.577-1.313-1.312 2.579.45.447 1.696-3.477-.393-.394zM26.114 9.957a.575.575 0 0 1 .15.245.608.608 0 0 1 .017.285.962.962 0 0 1-.106.298c-.055.1-.127.193-.219.285l-.022.022a1.125 1.125 0 0 1-.289.215.96.96 0 0 1-.302.101.644.644 0 0 1-.288-.017.594.594 0 0 1-.243-.148.577.577 0 0 1-.15-.247.654.654 0 0 1-.019-.283.867.867 0 0 1 .105-.295c.055-.1.128-.195.22-.285l.021-.023c.09-.09.188-.163.29-.216a.892.892 0 0 1 .304-.1.69.69 0 0 1 .287.017.556.556 0 0 1 .244.146m.357-.373a1.215 1.215 0 0 0-.432-.284 1.163 1.163 0 0 0-.487-.075 1.374 1.374 0 0 0-.5.128 1.6 1.6 0 0 0-.467.331l-.033.033a1.641 1.641 0 0 0-.33.465 1.43 1.43 0 0 0-.13.505c-.009.17.015.334.075.495.06.161.156.306.285.435.128.128.271.223.432.281.162.061.325.086.492.077.166-.01.332-.053.5-.129.166-.077.322-.186.467-.33l.033-.034c.144-.144.254-.3.33-.466.076-.167.118-.335.127-.502a1.233 1.233 0 0 0-.077-.494 1.233 1.233 0 0 0-.285-.436M53.788 13.903l.463-.463-1.313-2.576 2.58 1.311.446-.449-3.477-1.697-.394.393zM54.252 8.94a.583.583 0 0 1 .245-.15.609.609 0 0 1 .285-.016.94.94 0 0 1 .3.105c.098.056.192.128.284.219l.022.023c.091.09.162.186.215.288a.963.963 0 0 1 .1.303.646.646 0 0 1-.017.288.58.58 0 0 1-.148.243.578.578 0 0 1-.246.15.656.656 0 0 1-.283.019.894.894 0 0 1-.296-.105 1.276 1.276 0 0 1-.285-.22l-.023-.022a1.21 1.21 0 0 1-.216-.29.922.922 0 0 1-.1-.303.696.696 0 0 1 .017-.288.563.563 0 0 1 .146-.243m-.372-.357a1.2 1.2 0 0 0-.285.432c-.06.158-.085.32-.074.487.01.167.052.334.127.5.077.167.187.323.332.467l.033.033c.142.142.297.25.465.33.168.077.336.12.505.13a1.2 1.2 0 0 0 .93-.361c.127-.127.222-.271.281-.432.061-.16.086-.324.076-.491a1.374 1.374 0 0 0-.128-.5 1.608 1.608 0 0 0-.332-.467l-.033-.033a1.586 1.586 0 0 0-.466-.33 1.39 1.39 0 0 0-.502-.128 1.216 1.216 0 0 0-.929.363M55.45 7.022c-.19.19-.277.398-.262.624.018.226.131.444.342.655l1.306 1.305.415-.416-1.188-1.188c-.136-.136-.21-.271-.223-.404a.435.435 0 0 1 .147-.363.47.47 0 0 1 .381-.152c.143.007.282.08.416.214l1.181 1.18.415-.416-1.949-1.948-.415.415.284.283a1.225 1.225 0 0 0-.215-.031 1.062 1.062 0 0 0-.218.015.83.83 0 0 0-.213.074.8.8 0 0 0-.204.153M57.23 5.256a.998.998 0 0 0-.172.225.588.588 0 0 0-.078.242.529.529 0 0 0 .046.26c.038.09.104.181.2.277l1.123 1.121-.214.214.357.356.213-.214.526.527.415-.416-.525-.526.437-.437-.356-.357-.438.438-1.038-1.038c-.075-.075-.111-.149-.107-.219a.311.311 0 0 1 .103-.203.703.703 0 0 1 .279-.17l-.341-.342a1.112 1.112 0 0 0-.22.094c-.067.041-.14.097-.21.168M69.284 52.405a1.735 1.735 0 0 0-.57-.386 1.483 1.483 0 0 0-.634-.108 1.704 1.704 0 0 0-.653.171 2.225 2.225 0 0 0-.625.451l-.03.03a2.181 2.181 0 0 0-.437.611c-.103.218-.16.438-.17.66a1.57 1.57 0 0 0 .474 1.222c.176.177.352.304.528.381.177.077.37.125.58.145l.085-.592a1.526 1.526 0 0 1-.406-.075 1.021 1.021 0 0 1-.396-.263.893.893 0 0 1-.224-.361.977.977 0 0 1-.041-.421c.016-.146.06-.293.135-.442.076-.148.18-.29.313-.422l.02-.022c.146-.145.296-.256.448-.333.155-.078.303-.123.45-.137a.93.93 0 0 1 .42.056.99.99 0 0 1 .365.24c.092.091.164.187.217.29.054.104.09.204.103.303l-.568.568-.541-.54-.375.375.945.945 1.154-1.154a2.419 2.419 0 0 0-.164-.605 1.802 1.802 0 0 0-.402-.587M67.86 56.203l.399.397 2.85-.584-1.717 1.717.414.415 2.575-2.573-.362-.362-2.937.6 1.769-1.768-.416-.416zM70.902 58.472l1.803-1.802.355.357c.117.117.205.244.262.382.055.138.08.278.07.421a1.155 1.155 0 0 1-.121.438 1.615 1.615 0 0 1-.312.428l-.024.022a1.59 1.59 0 0 1-.431.317 1.18 1.18 0 0 1-.44.124.92.92 0 0 1-.422-.07 1.156 1.156 0 0 1-.383-.26zm-.812-.04l.787.786c.183.184.38.32.59.408.212.088.427.13.644.126.219-.006.436-.056.65-.154.213-.096.416-.238.606-.428l.027-.029a2.05 2.05 0 0 0 .43-.607c.099-.215.15-.433.156-.65a1.615 1.615 0 0 0-.123-.645 1.84 1.84 0 0 0-.406-.595l-.787-.787zM73.036 50.926v-2.548h.505c.166 0 .317.028.455.086a.933.933 0 0 1 .348.247c.095.107.17.239.223.395.054.156.081.331.081.525v.031c0 .198-.027.374-.08.531a1.193 1.193 0 0 1-.224.398.938.938 0 0 1-.348.249 1.178 1.178 0 0 1-.455.086zm-.604.546h1.114c.26 0 .496-.044.707-.13a1.57 1.57 0 0 0 .894-.934c.083-.22.125-.463.125-.73v-.042c0-.267-.042-.511-.125-.733a1.649 1.649 0 0 0-.35-.569 1.59 1.59 0 0 0-.544-.369 1.803 1.803 0 0 0-.707-.133h-1.114zM76.13 50.868l-.572-.17-.099.52.843.28h.426V47.83h-.598zM73.203 29.225l-.52 1.462-.52-1.462zm-.8 2.268h.581l1.336-3.662h-.629l-.3.859h-1.416l-.3-.86h-.61zM75.637 28.32c.229 0 .411.114.548.344.138.23.206.55.206.961v.042c0 .202-.019.383-.055.548a1.438 1.438 0 0 1-.156.415.762.762 0 0 1-.242.26.55.55 0 0 1-.312.092c-.228 0-.413-.115-.551-.345-.139-.229-.209-.549-.209-.96v-.041c0-.206.019-.39.055-.55.037-.162.089-.3.156-.413a.772.772 0 0 1 .245-.261.57.57 0 0 1 .315-.091m-.011-.548a1.206 1.206 0 0 0-1.001.508c-.12.161-.212.354-.275.582a2.745 2.745 0 0 0-.097.757v.056c0 .276.033.527.099.756.066.229.159.424.278.585.12.16.265.286.435.377.17.09.36.135.572.135.208 0 .396-.044.563-.133.168-.088.313-.213.432-.374.12-.161.213-.355.278-.582.067-.227.099-.48.099-.757v-.057c0-.278-.032-.53-.099-.757a1.788 1.788 0 0 0-.278-.582 1.209 1.209 0 0 0-1.006-.513M62.285 27.958c.048-.305-.013-.568-.136-.59-.125-.018-.264.213-.313.52-.049.303.012.568.136.588.125.02.264-.212.313-.518m1.276-.29c.058-.112-.119-.316-.395-.457-.277-.14-.546-.165-.604-.053-.056.113.12.317.396.457.277.141.547.165.603.053m-.512-1.205c.217-.218.324-.467.235-.557-.089-.088-.338.018-.557.236-.219.218-.326.467-.236.557.09.09.338-.016.558-.236m-1.526-.836c-.11.057-.089.326.052.602.141.276.346.454.456.397.112-.058.09-.327-.052-.603-.14-.277-.343-.454-.456-.396m-.81 1.587c.02.124.284.185.59.138.304-.048.536-.188.517-.313-.019-.123-.284-.185-.589-.137-.306.048-.539.188-.518.312m.837 3.916c-.162-.026-.209-.114-.278-.327-.05-.162-.396-1.245-.396-1.245s-.285-.754.117-1.315c.055-.075.117-.153.184-.232a3.713 3.713 0 0 1-.233.181c-.56.404-1.314.117-1.314.117l-1.245-.4c-.213-.068-.3-.114-.327-.277-.026-.163.044-.234.226-.364l1.061-.762s.63-.504 1.287-.294c.088.028.181.062.277.101a3.593 3.593 0 0 1-.245-.164c-.556-.41-.517-1.214-.517-1.214l-.005-1.307c0-.223.017-.32.164-.397.147-.074.236-.03.417.102l1.052.774s.675.444.677 1.133c0 .093-.004.193-.012.294.026-.099.053-.195.081-.284.218-.654.996-.866.996-.866l1.241-.408c.213-.07.31-.083.427.033.117.117.103.215.032.428-.052.161-.41 1.24-.41 1.24s-.214.778-.869.993a3.289 3.289 0 0 1-.283.08c.104-.007.201-.01.294-.01.69.004 1.132.68 1.132.68l.771 1.053c.133.18.177.27.102.418-.075.145-.173.163-.397.162l-1.306-.007s-.806.037-1.214-.52a3.563 3.563 0 0 1-.163-.244c.04.095.073.19.1.277.21.657-.295 1.286-.295 1.286l-.764 1.06c-.132.181-.202.25-.365.225M68.44 28.017c-.593 0-.822.765-1.065 1.574a.228.228 0 0 0 .15.285.221.221 0 0 0 .282-.15c.16-.532.378-1.256.634-1.256s.474.724.632 1.252c.235.78.476 1.583 1.069 1.583.595 0 .835-.803 1.067-1.578a.227.227 0 0 0-.152-.282.224.224 0 0 0-.282.15c-.16.53-.376 1.257-.633 1.257-.256 0-.473-.725-.633-1.254-.245-.816-.474-1.581-1.068-1.581M24.663 42.36c0-.163.04-.288.118-.375a.41.41 0 0 1 .318-.13h.006c.144 0 .252.044.325.13.072.087.107.209.107.368v.457h-.874zm1.252.868v-.911c0-.144-.02-.273-.06-.387a.752.752 0 0 0-.177-.286.68.68 0 0 0-.242-.155.864.864 0 0 0-.313-.054h-.014a.734.734 0 0 0-.473.146.836.836 0 0 0-.265.376l-.976-.594v.482l.893.536a.08.08 0 0 0-.003.026v.403h-.89v.418zM25.915 41.115v-1.588h-.378v1.174h-.684v-1.04h-.377v1.04h-.703V39.51h-.378v1.606zM23.364 38.444c0 .163.028.321.086.476.058.153.15.298.277.435l.314-.251a1.54 1.54 0 0 1-.213-.302.744.744 0 0 1-.086-.36c0-.124.03-.22.09-.292a.287.287 0 0 1 .23-.104h.004c.038 0 .074.005.11.019a.272.272 0 0 1 .1.072.647.647 0 0 1 .098.146c.032.062.066.143.102.245.046.119.092.225.139.314.047.09.1.166.158.228a.589.589 0 0 0 .463.184h.007c.103 0 .198-.02.284-.06a.652.652 0 0 0 .224-.165.744.744 0 0 0 .145-.252.95.95 0 0 0 .053-.322c0-.147-.024-.286-.072-.42a1.141 1.141 0 0 0-.224-.372l-.32.237c.07.087.127.178.17.272a.678.678 0 0 1 .068.293.406.406 0 0 1-.083.271.266.266 0 0 1-.21.097h-.003a.302.302 0 0 1-.118-.022.272.272 0 0 1-.103-.079.906.906 0 0 1-.101-.158 2.805 2.805 0 0 1-.113-.264 2.116 2.116 0 0 0-.141-.303.899.899 0 0 0-.16-.212.585.585 0 0 0-.196-.127.673.673 0 0 0-.245-.04h-.007c-.111 0-.21.02-.3.06a.638.638 0 0 0-.23.171.813.813 0 0 0-.145.26.993.993 0 0 0-.052.325M25.915 37.404v-1.588h-.378v1.174h-.684v-1.04h-.377v1.04h-.703V35.8h-.378v1.604zM25.527 34.978v.663h.389v-1.742h-.39v.662h-2.13v.417z" fill="#fff"/></g><text x="31.385" font-size="5.512" y="62.13" font-family="OCRA" fill="#fff" stroke-width="0" transform="translate(-.357 -1.667)">+</text><text x="44.705" font-size="5.512" y="62.13" font-family="OCRA" fill="#fff" stroke-width="0" transform="translate(-.357 -1.667)">-</text><g stroke="#fff" stroke-width=".576" stroke-linecap="round"><path d="M46.043 76.753H33.287M28.326 66.832V55.494M28.326 55.494h2.41M30.736 55.494v7.086M30.736 62.58h3.968M44.626 62.58h3.968M48.594 62.58v-7.086M48.594 55.494h2.41M51.004 55.494v11.338"/></g><g stroke="#fff" stroke-width=".36" stroke-linecap="round"><path d="M46.752 17.008h-2.268M34.846 17.008h-2.268M50.437 4.252V1.701M50.437 1.7H28.893M28.893 1.7v2.552"/></g><path d="M43.917 64.281h-2.834v-13.04h2.834zM38.248 64.281h-2.835v-13.04h2.835zM51.571 67.683v9.638h-4.535v-9.638zM32.295 67.683v9.638H27.76v-9.638z" fill="#9a916c"/><rect rx="1.417" height="2.835" ry="1.417" x="37.888" y="71.701" width="2.835" fill="#9a916c"/><path fill="#666" d="M48.169 74.911h2.835V60.03H28.327v14.882h2.834v2.126h17.008z"/><path d="M46.752 71.368h-2.836v-8.504h2.836zM35.413 71.368h-2.835v-8.504h2.834z"/><path fill="#333" d="M46.752 62.864h-2.836V60.03h2.836zM35.413 62.864h-2.835V60.03h2.834zM51.004 60.03h-2.268v-4.253h2.268zM30.595 60.03h-2.268v-4.253h2.267z"/><path fill="#dcdcdc" d="M43.492 60.03h-1.984v-7.088h1.983zM37.823 60.03h-1.984v-7.088h1.984z"/><g><path d="M19.306 66.784a4.677 4.677 0 1 1-6.615-6.614 4.677 4.677 0 0 1 6.615 6.614zm1.403-8.018a7.795 7.795 0 0 0-11.023 0L6.48 61.972c1.616 2.007 3.346 3.95 5.21 5.814s3.807 3.593 5.813 5.21l3.206-3.206a7.795 7.795 0 0 0 0-11.024z"/></g><g><path d="M6.23 44.487a4.677 4.677 0 1 1 0-9.354 4.677 4.677 0 0 1 0 9.354zm6.661-4.677a7.795 7.795 0 0 0-7.795-7.795H.562a72.712 72.712 0 0 0-.427 7.795c0 2.635.151 5.233.427 7.795h4.534a7.795 7.795 0 0 0 7.795-7.795z"/></g><g><path d="M73.1 35.132a4.677 4.677 0 1 1 0 9.354 4.677 4.677 0 0 1 0-9.354zm-6.662 4.677a7.795 7.795 0 0 0 7.795 7.795h4.534c.276-2.562.427-5.16.427-7.795s-.15-5.233-.427-7.795h-4.534a7.795 7.795 0 0 0-7.795 7.795z"/></g><g><path d="M12.69 19.45a4.677 4.677 0 1 1 6.615-6.614 4.677 4.677 0 0 1-6.614 6.615zm8.019 1.404a7.795 7.795 0 0 0 0-11.024l-3.206-3.206c-2.007 1.617-3.951 3.347-5.814 5.21s-3.594 3.807-5.21 5.814l3.206 3.206a7.795 7.795 0 0 0 11.024 0z"/></g><g><path d="M60.024 12.836a4.677 4.677 0 1 1 6.615 6.614 4.677 4.677 0 0 1-6.615-6.614zm-1.403 8.017a7.795 7.795 0 0 0 11.023 0l3.206-3.206c-1.616-2.006-3.346-3.95-5.21-5.813s-3.807-3.594-5.813-5.21L58.62 9.83a7.795 7.795 0 0 0 0 11.023z"/></g><g fill="#0c0c0c"><path d="M66.64 60.169a4.677 4.677 0 1 1-6.615 6.614 4.677 4.677 0 0 1 6.614-6.614zm-8.019-1.404a7.795 7.795 0 0 0 0 11.024l3.206 3.206c2.007-1.616 3.951-3.347 5.814-5.21s3.594-3.807 5.21-5.814l-3.206-3.206a7.795 7.795 0 0 0-11.024 0z"/></g><g><path fill="#b4b4b4" d="M51.004 10.758H28.327V6.79h22.677z"/><path fill="#dcdcdc" d="M39.949 17.915h-.567v-3.402h.567zM38.106 17.915h-.567v-3.402h.567zM36.264 17.915h-.568v-3.402h.568zM41.79 17.915h-.566v-3.402h.567zM43.634 17.915h-.567v-3.402h.567z"/><path fill="#b4b4b4" d="M46.752 16.426H32.578v-.709h14.173z"/><path d="M46.752 16.144H32.578v-2.976h14.173z"/><path fill="#dcdcdc" d="M36.264 14.442v-.709h1.416v2.552h3.97v-2.552h1.417v.71h2.268v2.125h5.102V2.962H28.894v13.606h5.102v-2.126z"/><path d="M46.894 10.048h-1.417l-.284-4.252h1.984zM33.855 10.048h-1.418l-.283-4.252h1.983z"/><path fill="#f0f0f0" d="M49.87 2.962H29.46l.568-1.7h19.275z"/><path fill="#b4b4b4" d="M50.437 2.962h-.567l.567-1.7h.567zM29.46 2.962h-.567l-.567-1.7h.567z"/></g></svg>