<svg xmlns="http://www.w3.org/2000/svg" height="105.9754" id="svg10142" viewBox="0 0 79.3303 79.4815" width="105.7738" version="1.2">
  <g transform="scale(.8)">
    <path id="path10148" d="M36.082 2.0625a49.5813 49.5813 0 1 0 27 0h-27zM19.959 13.5703a6.5693 6.5693 0 0 1 6.5683 6.5684 6.5693 6.5693 0 0 1-6.5683 6.5703 6.5693 6.5693 0 0 1-6.5703-6.5703 6.5693 6.5693 0 0 1 6.5703-6.5684zm59.2441 0a6.5693 6.5693 0 0 1 6.5703 6.5684 6.5693 6.5693 0 0 1-6.5703 6.5703 6.5693 6.5693 0 0 1-6.5683-6.5703 6.5693 6.5693 0 0 1 6.5683-6.5684zM7.7305 43.1933a6.5693 6.5693 0 0 1 6.5703 6.5684 6.5693 6.5693 0 0 1-6.5703 6.5703 6.5693 6.5693 0 0 1-6.5684-6.5703 6.5693 6.5693 0 0 1 6.5684-6.5683zm83.7011 0A6.5693 6.5693 0 0 1 98 49.7618a6.5693 6.5693 0 0 1-6.5684 6.5703 6.5693 6.5693 0 0 1-6.5703-6.5703 6.5693 6.5693 0 0 1 6.5703-6.5683zM19.959 72.8165a6.5693 6.5693 0 0 1 6.5683 6.5684 6.5693 6.5693 0 0 1-6.5683 6.5703 6.5693 6.5693 0 0 1-6.5703-6.5703 6.5693 6.5693 0 0 1 6.5703-6.5684zm59.2441 0a6.5693 6.5693 0 0 1 6.5703 6.5684 6.5693 6.5693 0 0 1-6.5703 6.5703 6.5693 6.5693 0 0 1-6.5683-6.5703 6.5693 6.5693 0 0 1 6.5683-6.5684z" stroke-width="0"/>
  </g>
  <g transform="matrix(1 0 0 -1 0 79.4816)">
    <g id="g27055">
      <g id="g27057" clip-path="url(#clipPath27059)">
        <g transform="translate(7.7366 59.1838)">
          <g id="g27063">
            <path id="path27065" d="M0 0l-1.802-1.802.357-.356c.117-.117.245-.205.382-.262.137-.056.278-.08.421-.07.143.008.289.049.437.121.149.072.291.176.429.314l.022.022c.14.139.246.283.318.431.072.149.113.295.123.44.01.144-.013.286-.069.424-.057.136-.144.263-.262.382L0 0zm-.041.812L.746.026c.184-.184.32-.381.408-.592.089-.211.13-.425.125-.644-.005-.218-.056-.435-.153-.649-.096-.214-.239-.416-.427-.604l-.03-.03C.48-2.682.278-2.826.062-2.924c-.216-.097-.433-.148-.65-.154-.219-.004-.434.037-.646.123-.212.088-.41.223-.594.407l-.787.786L-.041.812z" fill="#fff"/>
          </g>
        </g>
        <g transform="translate(7.4934 55.7277)">
          <g id="g27067">
            <path id="path27069" d="M0 0l1.629.056c.149.002.279.007.388.015.108.01.204.024.286.045.083.021.156.048.219.082.064.034.122.078.173.129.118.117.172.244.164.381-.009.136-.066.257-.171.361-.103.104-.221.166-.354.188-.132.022-.296.021-.492-.003l-.022.544c.255.039.488.033.701-.017.211-.05.411-.169.597-.354.113-.114.199-.235.259-.363.06-.127.094-.258.099-.389a.9268.9268 0 0 0-.067-.389C3.357.159 3.276.04 3.166-.069l-.008-.008c-.088-.088-.179-.158-.272-.209-.093-.053-.198-.092-.314-.12-.116-.029-.246-.046-.39-.056a8.8925 8.8925 0 0 0-.495-.013L.614-.519l1.063-1.062-.386-.387L-.338-.339 0 0z" fill="#fff"/>
          </g>
        </g>
        <g transform="translate(4.1453 49.2258)">
          <g id="g27071">
            <path id="path27073" d="M0 0l-.52 1.461L-1.04 0H0zm-.801 2.267h.582l1.337-3.661H.489l-.302.858h-1.415l-.301-.858h-.608l1.336 3.661z" fill="#fff"/>
          </g>
        </g>
        <g transform="translate(5.5804 48.3107)">
          <g id="g27075">
            <path id="path27077" d="M0 0l1.113 1.191c.104.107.191.203.262.286.071.083.128.161.172.233.043.074.076.144.096.214.021.069.031.14.031.213 0 .167-.051.295-.153.385-.103.09-.228.135-.377.135-.145 0-.273-.039-.382-.117-.11-.078-.225-.195-.346-.351l-.4.369c.152.208.321.369.506.484.186.114.411.171.674.171.159 0 .306-.024.439-.072.134-.049.249-.117.346-.206a.9176.9176 0 0 0 .227-.322c.053-.127.08-.268.08-.424v-.01c0-.125-.015-.239-.044-.341-.03-.102-.076-.205-.138-.307a2.2113 2.2113 0 0 0-.237-.314 7.8341 7.8341 0 0 0-.34-.359L.801.067h1.503v-.546H0V0z" fill="#fff"/>
          </g>
        </g>
        <g transform="translate(3.2976 30.926)">
          <g id="g27079">
            <path id="path27081" d="M0 0v-2.548h.504c.167 0 .318.028.455.086.137.058.253.14.349.247.095.108.17.239.223.396.054.155.081.331.081.524v.031c0 .199-.027.375-.081.531-.053.156-.128.289-.223.398a.9387.9387 0 0 1-.349.249C.822-.028.671 0 .504 0H0zm-.604.546H.509c.261 0 .496-.043.708-.13.211-.087.392-.209.543-.366.151-.158.268-.347.351-.568.083-.219.125-.462.125-.73v-.041c0-.268-.042-.512-.125-.733-.083-.222-.2-.413-.351-.57-.151-.158-.332-.281-.543-.369-.212-.089-.447-.133-.708-.133H-.604v3.64z" fill="#fff"/>
          </g>
        </g>
        <g transform="translate(7.114 28.3215)">
          <g id="g27083">
            <path id="path27085" d="M0 0c.229 0 .412.114.548.344.138.23.206.55.206.961v.042c0 .201-.018.383-.055.548-.036.163-.088.301-.156.415-.067.113-.148.2-.242.26-.093.062-.197.092-.312.092-.228 0-.412-.115-.551-.345-.139-.229-.208-.549-.208-.961v-.041c0-.206.019-.389.055-.55.036-.162.088-.3.156-.413.067-.113.149-.201.244-.261A.573.573 0 0 1 0 0m-.011-.547c-.211 0-.401.045-.569.133-.168.089-.312.214-.432.375-.119.161-.211.354-.275.582-.065.227-.096.479-.096.757v.056c0 .275.032.526.098.754.066.23.159.424.279.585.119.162.264.287.434.377.17.091.36.136.572.136.208 0 .396-.044.564-.133.168-.088.312-.213.432-.374.119-.161.212-.355.278-.583.066-.226.099-.478.099-.756v-.057c0-.278-.033-.53-.099-.757C1.208.321 1.115.127.996-.034.876-.195.731-.321.562-.411c-.17-.09-.361-.136-.573-.136" fill="#fff"/>
          </g>
        </g>
        <g transform="translate(62.0345 42.4387)">
          <g id="g27087">
            <path id="path27089" d="M0 0c.123 0 .237.027.342.081.105.055.195.13.27.228.075.097.134.214.176.353.042.138.063.292.063.463v.032c0 .168-.021.322-.063.461-.042.14-.101.259-.178.358a.8228.8228 0 0 1-.272.229c-.106.055-.221.081-.347.081-.123 0-.237-.026-.342-.081a.8126.8126 0 0 1-.27-.226c-.074-.098-.133-.216-.175-.354-.042-.138-.063-.293-.063-.464V1.13c0-.168.021-.321.065-.461.043-.14.104-.259.18-.358.077-.099.167-.175.272-.23A.7398.7398 0 0 1 0 0m-.009-.481c-.204 0-.391.04-.562.119-.171.08-.319.19-.442.331-.123.14-.217.308-.285.504-.067.195-.101.41-.101.643v.045c0 .235.034.449.103.646.069.197.165.366.288.508.123.143.271.254.442.333.17.081.359.12.566.12.204 0 .392-.039.562-.12.171-.079.319-.189.442-.331.123-.14.218-.308.285-.504.068-.194.102-.409.102-.643v-.045c0-.233-.035-.449-.104-.646C1.218.283 1.122.113.999-.029a1.306 1.306 0 0 0-.44-.333C.388-.441.198-.481-.009-.481" fill="#fff"/>
          </g>
        </g>
        <g transform="translate(65.2786 43.9553)">
          <g id="g27091">
            <path id="path27093" d="M0 0h-.256v.423H0v.184c0 .247.062.428.183.545.113.115.277.171.492.171.078 0 .145-.005.2-.013.056-.009.109-.021.16-.037V.847a2.598 2.598 0 0 1-.121.029.7121.7121 0 0 1-.126.011C.599.887.504.777.504.559V.423h.526V0H.509v-1.948H0V0zm-1.476 0h-.265v.423h.265v.184c0 .247.059.428.175.545.12.115.286.171.498.171.078 0 .145-.005.2-.013.056-.009.109-.021.16-.037V.847c-.042.011-.082.021-.121.029a.7091.7091 0 0 1-.125.011c-.189 0-.283-.11-.283-.328V.423h.522V0h-.518v-1.948h-.508V0z" fill="#fff"/>
          </g>
        </g>
        <g transform="translate(62.0345 35.4387)">
          <g id="g27095">
            <path id="path27097" d="M0 0c.123 0 .237.027.342.081.105.055.195.13.27.228.075.097.134.214.176.353.042.138.063.292.063.463v.032c0 .168-.021.322-.063.461-.042.14-.101.259-.178.358a.8228.8228 0 0 1-.272.229c-.106.055-.221.081-.347.081-.123 0-.237-.026-.342-.081a.8126.8126 0 0 1-.27-.226c-.074-.098-.133-.216-.175-.354-.042-.138-.063-.293-.063-.464V1.13c0-.168.021-.321.065-.461.043-.14.104-.259.18-.358.077-.099.167-.175.272-.23A.7398.7398 0 0 1 0 0m-.009-.481c-.204 0-.391.04-.562.119-.171.08-.319.19-.442.331-.123.14-.217.308-.285.504-.067.195-.101.41-.101.643v.045c0 .235.034.449.103.646.069.197.165.366.288.508.123.143.271.254.442.333.17.081.359.12.566.12.204 0 .392-.039.562-.12.171-.079.319-.189.442-.331.123-.14.218-.308.285-.504.068-.194.102-.409.102-.643v-.045c0-.233-.035-.449-.104-.646C1.218.283 1.122.113.999-.029a1.306 1.306 0 0 0-.44-.333C.388-.441.198-.481-.009-.481" fill="#fff"/>
          </g>
        </g>
        <g transform="translate(63.7757 37.3918)">
          <g id="g27099">
            <path id="path27101" d="M0 0h.509v-.351c.065.105.15.198.254.277.103.08.236.119.398.119.232 0 .411-.075.54-.225.129-.15.194-.352.194-.607v-1.598h-.509v1.453c0 .168-.037.297-.113.385-.075.089-.179.133-.314.133-.136 0-.244-.046-.326-.14C.55-.646.509-.775.509-.94v-1.445H0V0z" fill="#fff"/>
          </g>
        </g>
        <g transform="translate(60.7522 53.9382)">
          <g id="g27103">
            <path id="path27105" d="M0 0h.521v-2.669h1.351v-.481H0V0z" fill="#fff"/>
          </g>
        </g>
        <g transform="translate(22.7024 5.8156)">
          <g id="g27107">
            <path id="path27109" d="M0 0c-.182-.181-.373-.307-.574-.378-.201-.07-.403-.101-.604-.092l-.036.566c.15-.007.294.007.431.044s.267.118.392.243c.121.12.184.257.192.411.008.154-.051.295-.175.419l-.011.011c-.133.132-.287.181-.463.146-.176-.034-.354-.141-.533-.319L-1.51.922l-.322.212-.121 1.371-.974-.975-.386.386 1.508 1.507.334-.334.096-1.397c.103.074.212.135.328.186.117.05.235.077.356.082.119.006.241-.016.362-.061.122-.045.239-.125.35-.236l.012-.012c.12-.12.209-.251.267-.391.056-.141.085-.284.081-.431C.377.684.344.54.279.397.215.255.123.122 0 0" fill="#fff"/>
          </g>
        </g>
        <g transform="translate(21.0032 9.3459)">
          <g id="g27111">
            <path id="path27113" d="M0 0l.464.463L3.041-.85 1.729 1.729l.449.447 1.697-3.477-.393-.394L0 0z" fill="#fff"/>
          </g>
        </g>
        <g transform="translate(26.1145 9.9572)">
          <g id="g27115">
            <path id="path27117" d="M0 0c.073.073.123.154.15.245.028.091.034.187.017.285a.9623.9623 0 0 1-.106.298c-.055.1-.127.193-.219.285l-.022.022c-.091.092-.187.163-.289.215-.101.052-.203.087-.302.101-.102.016-.198.01-.288-.017a.594.594 0 0 1-.243-.148c-.073-.073-.124-.155-.151-.247a.6537.6537 0 0 1-.018-.283c.015-.098.049-.195.105-.295.055-.1.128-.195.22-.285l.021-.023c.09-.091.188-.163.29-.216.104-.054.204-.089.304-.101a.6904.6904 0 0 1 .287.018C-.153-.12-.072-.072 0 0m.357-.373c-.13-.13-.275-.225-.432-.284-.158-.06-.321-.085-.487-.075-.167.009-.334.052-.5.128-.167.077-.323.186-.467.331l-.033.033c-.143.142-.252.298-.331.465-.076.168-.12.337-.13.505-.008.17.016.334.076.495.06.161.156.306.285.435.128.128.271.223.432.281.162.061.325.086.492.077.166-.01.332-.053.5-.129.166-.077.322-.186.467-.331l.033-.033c.144-.144.254-.3.33-.466C.668.892.71.724.719.557.727.389.702.224.642.063.582-.098.486-.242.357-.373" fill="#fff"/>
          </g>
        </g>
        <g transform="translate(53.7884 13.9035)">
          <g id="g27119">
            <path id="path27121" d="M0 0l.463-.463L-.85-3.04l2.579 1.312.447-.449-3.477-1.697-.394.393L0 0z" fill="#fff"/>
          </g>
        </g>
        <g transform="translate(54.2522 8.9406)">
          <g id="g27123">
            <path id="path27125" d="M0 0c.073-.073.155-.124.245-.151A.6085.6085 0 0 1 .53-.167c.1.016.199.051.299.105.099.056.193.128.285.219l.022.023c.091.091.162.186.215.288.052.102.086.203.1.303.016.101.01.197-.017.288-.027.09-.076.17-.148.243-.073.073-.155.123-.246.15a.6558.6558 0 0 1-.283.019c-.098-.015-.196-.05-.296-.105-.1-.055-.194-.129-.285-.22l-.023-.022c-.09-.09-.162-.187-.216-.289C-.117.731-.151.63-.164.531A.6963.6963 0 0 1-.146.243C-.12.153-.071.071 0 0m-.372-.357c-.131.129-.225.274-.285.432-.06.158-.085.321-.074.487.009.167.052.334.127.5.077.167.187.323.332.467l.033.033c.142.142.297.251.465.33.168.077.336.121.505.13.169.009.334-.015.495-.076.16-.06.305-.155.435-.285.127-.127.222-.271.281-.432.061-.16.086-.324.076-.491C2.009.572 1.966.405 1.89.239c-.077-.168-.187-.323-.332-.468l-.033-.033c-.144-.144-.3-.255-.466-.33A1.3894 1.3894 0 0 0 .557-.72C.389-.728.224-.702.063-.642c-.16.06-.305.155-.435.285" fill="#fff"/>
          </g>
        </g>
        <g transform="translate(55.4505 7.0217)">
          <g id="g27127">
            <path id="path27129" d="M0 0c-.191.19-.277.398-.262.624.018.226.131.444.342.655l1.306 1.305.415-.416L.613.98C.477.844.402.709.39.576.377.443.426.322.537.213.646.102.773.051.918.061c.143.007.282.08.416.214l1.181 1.18.415-.416L.981-.909l-.415.415.284.283a1.2248 1.2248 0 0 0-.215-.031C.562-.244.489-.24.417-.227a.8306.8306 0 0 0-.213.074C.134-.118.066-.066 0 0" fill="#fff"/>
          </g>
        </g>
        <g transform="translate(57.2298 5.2561)">
          <g id="g27131">
            <path id="path27133" d="M0 0c-.07.07-.129.146-.172.225A.5883.5883 0 0 0-.25.467c-.008.083.008.17.046.259.038.09.104.182.201.278l1.122 1.121-.214.214.357.356.213-.214.526.527.415-.416-.525-.526.437-.437-.356-.357-.438.438L.496.672C.421.597.385.523.389.453.392.384.427.315.492.25A.7033.7033 0 0 1 .771.08L.43-.262c-.076.023-.149.055-.219.094C.143-.127.071-.071 0 0" fill="#fff"/>
          </g>
        </g>
        <g transform="translate(69.2845 52.405)">
          <g id="g27135">
            <path id="path27137" d="M0 0c-.174-.174-.365-.302-.57-.386-.207-.083-.418-.119-.635-.108-.217.011-.434.067-.652.171-.217.102-.428.253-.625.451l-.03.03c-.189.189-.334.393-.437.611-.104.218-.16.438-.17.66-.012.221.021.437.098.647.076.21.203.402.376.575.176.177.352.304.528.381.176.077.369.125.58.145l.084-.592a1.5262 1.5262 0 0 1-.406-.075c-.131-.043-.264-.131-.395-.263-.105-.105-.182-.226-.225-.361a.9769.9769 0 0 1-.041-.421c.016-.146.061-.293.135-.442.076-.148.18-.29.313-.422l.021-.022c.145-.145.295-.256.447-.333.155-.078.303-.123.45-.137.146-.013.287.005.42.056.134.049.255.129.365.24.092.091.164.187.217.29.054.104.09.204.103.303l-.568.568-.541-.54-.375.375.945.945L.566 1.192C.541.995.486.794.402.587.316.379.184.184 0 0" fill="#fff"/>
          </g>
        </g>
        <g transform="translate(67.8606 56.2033)">
          <g id="g27139">
            <path id="path27141" d="M0 0l.398.397 2.85-.584L1.531 1.53l.414.415L4.52-.628 4.158-.99l-2.937.6L2.99-2.158l-.416-.416L0 0z" fill="#fff"/>
          </g>
        </g>
        <g transform="translate(70.9016 58.4724)">
          <g id="g27143">
            <path id="path27145" d="M0 0l1.803-1.802.355.357c.117.117.205.244.262.382.055.138.08.278.07.421-.008.143-.049.289-.121.438-.072.148-.176.291-.312.428l-.024.022c-.14.14-.283.246-.431.317-.149.073-.295.114-.44.124A.9197.9197 0 0 1 .74.617C.602.561.475.474.357.356L0 0zm-.812-.041l.787.787c.183.184.38.32.591.408.211.088.426.13.643.126.219-.006.436-.056.65-.154.213-.096.416-.238.606-.428l.027-.029c.19-.189.332-.391.43-.607.099-.215.15-.433.156-.65.004-.219-.037-.434-.123-.645-.088-.213-.223-.411-.406-.595l-.787-.787L-.812-.041z" fill="#fff"/>
          </g>
        </g>
        <g transform="translate(73.0364 50.926)">
          <g id="g27147">
            <path id="path27149" d="M0 0v-2.548h.505c.166 0 .317.028.455.086.137.057.253.139.348.247.095.107.17.239.223.395.054.156.081.331.081.525v.031c0 .198-.027.374-.081.531-.053.155-.128.288-.223.398a.9383.9383 0 0 1-.348.249C.822-.029.671 0 .505 0H0zm-.604.546H.51c.26 0 .496-.044.707-.13.212-.087.392-.209.544-.367.15-.157.267-.346.35-.567.083-.22.125-.463.125-.73v-.042c0-.267-.042-.511-.125-.733-.083-.222-.2-.412-.35-.569-.152-.158-.332-.281-.544-.369C1.006-3.05.77-3.094.51-3.094H-.604v3.64z" fill="#fff"/>
          </g>
        </g>
        <g transform="translate(76.1302 50.8684)">
          <g id="g27151">
            <path id="path27153" d="M0 0l-.572-.171-.099.52.843.28h.426v-3.666H0V0z" fill="#fff"/>
          </g>
        </g>
        <g transform="translate(73.2034 29.2248)">
          <g id="g27155">
            <path id="path27157" d="M0 0l-.521 1.462L-1.04 0H0zm-.801 2.268h.582l1.336-3.662H.488l-.301.859h-1.415l-.301-.859h-.609l1.337 3.662z" fill="#fff"/>
          </g>
        </g>
        <g transform="translate(75.637 28.3205)">
          <g id="g27159">
            <path id="path27161" d="M0 0c.229 0 .411.114.548.344.138.23.206.55.206.961v.042c0 .202-.019.383-.055.548-.037.164-.089.301-.156.415-.067.113-.148.2-.242.26-.093.062-.197.092-.312.092-.228 0-.413-.115-.551-.345-.139-.229-.209-.549-.209-.961v-.041c0-.206.019-.389.055-.55.037-.162.089-.3.156-.413.068-.113.15-.201.245-.261C-.22.03-.115 0 0 0m-.011-.547c-.212 0-.401.045-.569.133-.168.089-.313.214-.432.375-.12.161-.212.354-.275.582-.065.227-.097.479-.097.757v.056c0 .275.033.526.099.755.066.229.159.424.278.585.12.161.265.286.435.377.17.09.36.135.572.135.208 0 .396-.044.563-.133.168-.088.313-.213.432-.374.12-.161.213-.355.278-.582.067-.227.099-.48.099-.757v-.057c0-.278-.032-.53-.099-.757C1.208.321 1.115.127.995-.034.876-.195.731-.321.562-.411.392-.501.2-.547-.011-.547" fill="#fff"/>
          </g>
        </g>
        <g transform="translate(62.2854 27.9582)">
          <g id="g27163">
            <path id="path27165" d="M0 0c.048-.305-.013-.568-.136-.59-.125-.018-.264.213-.313.519-.049.304.012.569.136.589C-.188.538-.049.306 0 0m1.276-.29c.058-.112-.119-.316-.395-.457C.604-.888.335-.912.277-.8c-.056.113.12.317.396.457.277.141.547.165.603.053M.764-1.495c.217-.218.324-.467.235-.557-.089-.088-.338.018-.557.236-.219.218-.326.467-.236.557.089.089.338-.016.558-.236m-1.526-.836c-.111.057-.089.326.052.602.141.276.346.454.456.397.112-.058.089-.327-.052-.603-.14-.277-.343-.454-.456-.396m-.81 1.587c.019.124.284.185.589.138.305-.048.537-.188.518-.313-.019-.123-.284-.185-.589-.137-.306.048-.539.188-.518.312m.837 3.916c-.162-.026-.209-.114-.278-.327-.051-.162-.396-1.245-.396-1.245s-.285-.754.117-1.315c.055-.075.117-.153.184-.232-.079.066-.158.128-.233.181-.56.404-1.314.117-1.314.117S-3.738.004-3.9-.049c-.213-.068-.301-.114-.327-.277-.026-.163.044-.234.226-.364.137-.099 1.061-.762 1.061-.762s.629-.504 1.287-.294c.088.028.181.062.277.101a3.5927 3.5927 0 0 1-.245-.164c-.556-.41-.517-1.214-.517-1.214s-.005-1.137-.005-1.307c0-.223.017-.32.164-.397.147-.074.236-.03.417.102.136.101 1.052.774 1.052.774s.675.444.677 1.133c0 .093-.004.193-.012.294.026-.099.053-.195.081-.284.218-.654.996-.866.996-.866l1.241-.408c.213-.07.31-.083.427.033.117.117.103.215.032.428-.052.161-.411 1.24-.411 1.24s-.213.778-.868.993c-.089.029-.183.057-.283.08.104-.007.201-.01.294-.01.69.004 1.132.679 1.132.679s.672.917.771 1.054c.133.18.177.269.102.418-.075.145-.173.163-.397.162l-1.306-.007S1.16 1.125.752.568A3.5632 3.5632 0 0 1 .589.324c.039.095.073.189.1.277.209.657-.295 1.286-.295 1.286s-.665.923-.764 1.059c-.132.182-.202.25-.365.226" fill="#fff"/>
          </g>
        </g>
        <g transform="translate(68.4407 28.0168)">
          <g id="g27167">
            <path id="path27169" d="M0 0c-.594 0-.823.765-1.066 1.574-.037.12.031.249.151.285.125.037.246-.03.281-.149.16-.533.378-1.257.634-1.257s.474.724.632 1.252c.235.781.476 1.583 1.069 1.583.595 0 .835-.803 1.067-1.578a.2267.2267 0 0 0-.152-.282.2236.2236 0 0 0-.282.151c-.159.53-.376 1.256-.633 1.256-.256 0-.473-.725-.633-1.254C.823.765.594 0 0 0" fill="#fff"/>
          </g>
        </g>
        <g transform="translate(24.6634 42.3596)">
          <g id="g27171">
            <path id="path27173" d="M0 0c0-.163.039-.288.118-.375.079-.086.185-.129.318-.129h.006c.144 0 .252.043.325.129.072.087.107.209.107.368V.45H0V0zm1.252.868v-.911c0-.144-.02-.273-.061-.387-.041-.114-.099-.21-.176-.286a.6795.6795 0 0 0-.242-.155C.68-.907.575-.925.46-.925H.446c-.194 0-.352.049-.473.146-.121.097-.209.222-.265.376l-.976-.594v.482l.893.536a.0794.0794 0 0 0-.003.026V.45h-.89v.418h2.52z" fill="#fff"/>
          </g>
        </g>
        <g transform="translate(25.9153 41.1154)">
          <g id="g27175">
            <path id="path27177" d="M0 0v-1.588h-.378v1.174h-.684v-1.041h-.377v1.041h-.703v-1.192h-.378V0H0z" fill="#fff"/>
          </g>
        </g>
        <g transform="translate(23.3636 38.4445)">
          <g id="g27179">
            <path id="path27181" d="M0 0c0 .163.028.321.086.476.058.153.15.298.277.435L.677.659A1.5392 1.5392 0 0 1 .464.358C.406.251.378.131.378-.003c0-.123.03-.22.09-.291.059-.07.136-.105.23-.105h.004c.038 0 .074.005.11.019.035.014.068.037.1.072.033.036.066.083.098.146.032.062.066.143.102.245.046.119.092.225.139.314.047.09.1.166.158.228.059.061.125.107.2.138.075.031.162.047.263.047h.007c.103 0 .198-.02.284-.06a.6525.6525 0 0 0 .224-.165c.062-.07.111-.154.145-.252.035-.098.053-.205.053-.322 0-.147-.024-.286-.072-.42-.048-.133-.122-.257-.224-.372l-.32.237c.07.087.127.178.171.272.045.095.067.193.067.293 0 .116-.028.206-.083.271-.056.064-.125.097-.209.097h-.004a.3024.3024 0 0 1-.118-.022C1.757.353 1.723.326 1.69.288 1.657.249 1.624.196 1.589.13a2.8046 2.8046 0 0 1-.113-.264c-.045-.117-.092-.219-.141-.303-.048-.085-.101-.156-.16-.212a.5847.5847 0 0 0-.196-.127C.907-.804.825-.817.734-.817H.727c-.111 0-.21.02-.3.061-.09.04-.167.098-.229.171-.062.073-.111.16-.146.26A.9932.9932 0 0 0 0 0" fill="#fff"/>
          </g>
        </g>
        <g transform="translate(25.9153 37.4045)">
          <g id="g27183">
            <path id="path27185" d="M0 0v-1.588h-.378v1.174h-.684v-1.041h-.377v1.041h-.703v-1.191h-.378V0H0z" fill="#fff"/>
          </g>
        </g>
        <g transform="translate(25.5266 34.9777)">
          <g id="g27187">
            <path id="path27189" d="M0 0v.663h.389v-1.742H0v.662h-2.131V0H0z" fill="#fff"/>
          </g>
        </g>
      </g>
    </g>
  </g>
  <g transform="translate(-.3572 -1.667)">
    <g id="g10154">
      <text id="text10158" x="31.385" font-size="5.5123" y="62.1297" font-family="OCRA" fill="#fff" stroke-width="0">
        +
      </text>
    </g>
  </g>
  <g transform="translate(-.3572 -1.667)">
    <g id="g10160">
      <text id="text10164" x="44.705" font-size="5.5123" y="62.1297" font-family="OCRA" fill="#fff" stroke-width="0">
        -
      </text>
    </g>
  </g>
  <g id="g10198">
    <g id="g10202">
      <path id="line10206" stroke="#fff" stroke-width=".864" stroke-linecap="round" d="M29.6119 54.0297v-2.88"/>
    </g>
  </g>
  <g id="g10208">
    <g id="g10212">
      <path id="line10216" stroke="#fff" stroke-width=".864" stroke-linecap="round" d="M22.8432 56.9915l1.6036-1.6035"/>
    </g>
  </g>
  <g id="g10218">
    <g id="g10222">
      <path id="line10226" stroke="#fff" stroke-width=".864" stroke-linecap="round" d="M20.5941 51.2691v-2.2677"/>
    </g>
  </g>
  <g id="g10228">
    <g id="g10232">
      <path id="line10236" stroke="#fff" stroke-width=".864" stroke-linecap="round" d="M29.765 45.2097h-2.88"/>
    </g>
  </g>
  <g id="g10238">
    <g id="g10242" stroke="#fff" stroke-width=".576" stroke-linecap="round">
      <path id="line10246" d="M46.043 76.7534H33.287"/>
      <path id="line10248" d="M28.3265 66.8324V55.4939"/>
      <path id="line10250" d="M28.3265 55.4939h2.4094"/>
      <path id="line10252" d="M30.7359 55.4939v7.0866"/>
      <path id="line10254" d="M30.7359 62.5805h3.9685"/>
      <path id="line10256" d="M44.6257 62.5805h3.9685"/>
      <path id="line10258" d="M48.5942 62.5805v-7.0866"/>
      <path id="line10260" d="M48.5942 55.4939h2.4094"/>
      <path id="line10262" d="M51.0036 55.4939v11.3385"/>
    </g>
  </g>
  <g id="g10264">
    <g id="g10268" stroke="#fff" stroke-linecap="round">
      <path id="line10272" stroke-width=".432" d="M52.7554 52.5628l-2.8346 1.1339"/>
      <path id="line10274" stroke-width=".432" d="M49.9208 53.6967V51.429"/>
      <path id="line10276" stroke-width=".432" d="M49.9208 51.429l2.8346 1.1338"/>
      <path id="line10278" stroke-width=".36" d="M55.1649 54.9014h-7.6536"/>
      <path id="line10280" stroke-width=".36" d="M47.5113 54.9014v-4.6772"/>
      <path id="line10282" stroke-width=".36" d="M47.5113 50.2242h7.6536"/>
      <path id="line10284" stroke-width=".36" d="M55.1649 50.2242v4.6772"/>
    </g>
  </g>
  <g id="g10286">
    <g id="g10290" stroke="#fff" stroke-linecap="round">
      <path id="line10294" stroke-width=".432" d="M51.3423 21.8097l-2.8346 1.1339"/>
      <path id="line10296" stroke-width=".432" d="M48.5077 22.9436v-2.2677"/>
      <path id="line10298" stroke-width=".432" d="M48.5077 20.6759l2.8346 1.1338"/>
      <path id="line10300" stroke-width=".36" d="M53.7518 24.1484h-7.6536"/>
      <path id="line10302" stroke-width=".36" d="M46.0982 24.1484v-4.6772"/>
      <path id="line10304" stroke-width=".36" d="M46.0982 19.4712h7.6536"/>
      <path id="line10306" stroke-width=".36" d="M53.7518 19.4712v4.6772"/>
    </g>
  </g>
  <g id="g10316">
    <g id="g10320" stroke="#fff" stroke-width=".36" stroke-linecap="round">
      <path id="line10324" d="M28.6903 23.8017h-1.7007"/>
      <path id="line10326" d="M26.9896 23.8017v1.7008"/>
      <path id="line10328" d="M40.5958 23.8017h1.7008"/>
      <path id="line10330" d="M42.2966 23.8017v1.7008"/>
      <path id="line10332" d="M26.9896 37.408v1.7007"/>
      <path id="line10334" d="M26.9896 39.1087h1.7007"/>
      <path id="line10336" d="M42.2966 37.408v1.7007"/>
      <path id="line10338" d="M42.2966 39.1087h-1.7008"/>
    </g>
  </g>
  <g id="g10340">
    <g id="g10344" stroke="#fff" stroke-width=".36" stroke-linecap="round">
      <path id="line10348" d="M24.7831 25.0951v5.6693"/>
      <path id="line10350" d="M18.5469 25.0951v5.6693"/>
      <path id="line10352" d="M25.917 31.0478v-.8504"/>
      <path id="line10354" d="M25.917 30.1974v-.2834"/>
      <path id="line10356" d="M25.917 29.914l-.567.5669"/>
      <path id="line10358" d="M25.35 30.4809l.567.5669"/>
      <path id="line10360" d="M25.917 31.0478v-.2834"/>
      <path id="line10362" d="M25.917 30.7644l-.2835-.2835"/>
    </g>
  </g>
  <g id="g10364">
    <g id="g10368">
      <g id="g10372">
        <path id="path10376" d="M56.981 26.8497l-.9.72v-1.44l.9.72m-.828-.6624v1.3248-1.3248" fill="none" stroke="#fff" stroke-width=".432" stroke-linecap="round"/>
      </g>
      <g transform="rotate(90 15.1557 42.0053)">
        <g id="g10378">
          <path id="rect10380" fill="#fff" stroke-width="0" d="M-1.08-.18h2.16v.36h-2.16z"/>
        </g>
      </g>
    </g>
  </g>
  <g id="g10382">
    <g id="g10386" stroke="#fff" stroke-width=".576" stroke-linecap="round">
      <path id="line10390" d="M22.929 34.757v11.9056"/>
      <path id="line10392" d="M14.2811 46.6626V34.757"/>
    </g>
  </g>
  <g id="g10394">
    <g id="g10398">
      <path id="line10402" stroke="#fff" stroke-width=".864" stroke-linecap="round" d="M48.8232 28.08v-2.2677"/>
    </g>
  </g>
  <g id="g10404">
    <g id="g10408" stroke="#fff" stroke-width=".36" stroke-linecap="round">
      <path id="line10412" d="M49.8244 49.6545V29.245"/>
      <path id="line10414" d="M49.8244 29.245h9.9213"/>
      <path id="line10416" d="M59.7457 29.245v20.4095"/>
      <path id="line10418" d="M59.7457 49.6545h-9.9213"/>
    </g>
  </g>
  <g id="g16438">
    <g id="g16442" stroke="#fff" stroke-width=".576" stroke-linecap="round">
      <path id="line16446" d="M40.8527 40.7126h-4.5354"/>
      <path id="line16448" d="M40.8527 50.0669h-4.5354"/>
      <path id="line16450" d="M41.5614 44.2559v2.2677"/>
    </g>
  </g>
  <g id="g16460">
    <g id="g16464" stroke="#fff" stroke-width=".36" stroke-linecap="round">
      <path id="line16468" d="M46.7516 17.0078h-2.2677"/>
      <path id="line16470" d="M34.8461 17.0078h-2.2677"/>
      <path id="line16472" d="M50.4366 4.252V1.7008"/>
      <path id="line16474" d="M50.4366 1.7008H28.8934"/>
      <path id="line16476" d="M28.8934 1.7008V4.252"/>
    </g>
  </g>
  <g transform="rotate(180 32.3049 52.59)">
    <g id="g16482">
      <path id="connector4pin" fill="#9a916c" stroke-width="0" d="M30.5474 50.4638h3.515v4.252h-3.515z"/>
    </g>
  </g>
  <g transform="rotate(180 26.919 52.59)">
    <g id="g16485">
      <path id="connector5pin" fill="#9a916c" stroke-width="0" d="M25.1616 50.4638h3.515v4.252h-3.515z"/>
    </g>
  </g>
  <g transform="rotate(-135 25.3486 57.8932)">
    <g id="g16488">
      <path id="connector6pin" fill="#9a916c" stroke-width="0" d="M23.8252 56.4762h3.0472v2.8346h-3.0472z"/>
    </g>
  </g>
  <g transform="rotate(-135 21.9412 54.4859)">
    <g id="g16491">
      <path id="connector7pin" fill="#9a916c" stroke-width="0" d="M20.4176 53.0687h3.0472v2.8346h-3.0472z"/>
    </g>
  </g>
  <g transform="rotate(180 23.0035 50.1355)">
    <g id="g16494">
      <path id="connector8pin" fill="#9a916c" stroke-width="0" d="M21.4799 48.7179h3.0472v2.8346h-3.0472z"/>
    </g>
  </g>
  <g transform="rotate(180 18.1846 50.1355)">
    <g id="g16497">
      <path id="connector9pin" fill="#9a916c" stroke-width="0" d="M16.661 48.7179h3.0472v2.8346H16.661z"/>
    </g>
  </g>
  <g transform="rotate(90 28.325 42.5168)">
    <g id="g16500">
      <path id="connector10pin" fill="#9a916c" stroke-width="0" d="M26.5675 40.3908h3.515v4.252h-3.515z"/>
    </g>
  </g>
  <g transform="rotate(90 28.325 47.9027)">
    <g id="g16503">
      <path id="connector11pin" fill="#9a916c" stroke-width="0" d="M26.5675 45.7767h3.515v4.252h-3.515z"/>
    </g>
  </g>
  <g transform="rotate(180 42.4998 57.7615)">
    <g id="g16506">
      <path id="connector12pin" fill="#9a916c" stroke-width="0" d="M41.0823 51.2419h2.8346v13.0393h-2.8346z"/>
    </g>
  </g>
  <g transform="rotate(180 36.8305 57.7615)">
    <g id="g16509">
      <path id="connector13pin" fill="#9a916c" stroke-width="0" d="M35.4131 51.2419h2.8346v13.0393h-2.8346z"/>
    </g>
  </g>
  <g transform="rotate(90 49.303 72.502)">
    <g id="g16512">
      <path id="connector14pin" fill="#9a916c" stroke-width="0" d="M44.4839 70.234h9.6378v4.5354h-9.6378z"/>
    </g>
  </g>
  <g transform="rotate(90 30.0272 72.5018)">
    <g id="g16515">
      <path id="connector15pin" fill="#9a916c" stroke-width="0" d="M25.2084 70.234h9.6378v4.5354h-9.6378z"/>
    </g>
  </g>
  <g transform="rotate(180 46.6963 52.563)">
    <g id="g16518">
      <path id="connector16pin" fill="#9a916c" stroke-width="0" d="M45.4066 50.8337h2.5795v3.4583h-2.5795z"/>
    </g>
  </g>
  <g transform="rotate(180 55.9795 52.563)">
    <g id="g16521">
      <path id="connector17pin" fill="#9a916c" stroke-width="0" d="M54.69 50.8337h2.5795v3.4583H54.69z"/>
    </g>
  </g>
  <g transform="rotate(180 45.2833 21.8098)">
    <g id="g16524">
      <path id="connector18pin" fill="#9a916c" stroke-width="0" d="M43.9935 20.0807h2.5795v3.4583h-2.5795z"/>
    </g>
  </g>
  <g transform="rotate(180 54.5665 21.8098)">
    <g id="g16527">
      <path id="connector19pin" fill="#9a916c" stroke-width="0" d="M53.277 20.0807h2.5795v3.4583H53.277z"/>
    </g>
  </g>
  <g transform="rotate(-90 27.5565 26.4945)">
    <g id="g16531">
      <path id="connector21pin" fill="#9a916c" stroke-width="0" d="M27.2022 25.3607h.7087v2.2677h-.7087z"/>
    </g>
  </g>
  <g transform="rotate(-90 27.5565 27.912)">
    <g id="g16534">
      <path id="connector22pin" fill="#9a916c" stroke-width="0" d="M27.2022 26.778h.7087v2.2677h-.7087z"/>
    </g>
  </g>
  <g transform="rotate(-90 27.5565 29.3292)">
    <g id="g16537">
      <path id="connector23pin" fill="#9a916c" stroke-width="0" d="M27.2022 28.1953h.7087v2.2677h-.7087z"/>
    </g>
  </g>
  <g transform="rotate(-90 27.5565 30.7466)">
    <g id="g16540">
      <path id="connector24pin" fill="#9a916c" stroke-width="0" d="M27.2022 29.6127h.7087v2.2677h-.7087z"/>
    </g>
  </g>
  <g transform="rotate(-90 27.5565 32.1639)">
    <g id="g16543">
      <path id="connector25pin" fill="#9a916c" stroke-width="0" d="M27.2022 31.03h.7087v2.2677h-.7087z"/>
    </g>
  </g>
  <g transform="rotate(-90 27.5565 33.5812)">
    <g id="g16546">
      <path id="connector26pin" fill="#9a916c" stroke-width="0" d="M27.2022 32.4473h.7087v2.2677h-.7087z"/>
    </g>
  </g>
  <g transform="rotate(-90 27.5565 34.9985)">
    <g id="g16549">
      <path id="connector27pin" fill="#9a916c" stroke-width="0" d="M27.2022 33.8647h.7087v2.2677h-.7087z"/>
    </g>
  </g>
  <g transform="rotate(-90 27.5565 36.4159)">
    <g id="g16552">
      <path id="connector28pin" fill="#9a916c" stroke-width="0" d="M27.2022 35.282h.7087v2.2677h-.7087z"/>
    </g>
  </g>
  <g transform="rotate(180 29.6824 38.542)">
    <g id="g16555">
      <path id="connector29pin" fill="#9a916c" stroke-width="0" d="M29.3281 37.408h.7087v2.2677h-.7087z"/>
    </g>
  </g>
  <g transform="rotate(180 31.0998 38.542)">
    <g id="g16558">
      <path id="connector30pin" fill="#9a916c" stroke-width="0" d="M30.7454 37.408h.7087v2.2677h-.7087z"/>
    </g>
  </g>
  <g transform="rotate(180 32.5171 38.542)">
    <g id="g16561">
      <path id="connector31pin" fill="#9a916c" stroke-width="0" d="M32.1628 37.408h.7087v2.2677h-.7087z"/>
    </g>
  </g>
  <g transform="rotate(180 33.9344 38.542)">
    <g id="g16564">
      <path id="connector32pin" fill="#9a916c" stroke-width="0" d="M33.5802 37.408h.7087v2.2677h-.7087z"/>
    </g>
  </g>
  <g transform="rotate(180 35.3518 38.542)">
    <g id="g16567">
      <path id="connector33pin" fill="#9a916c" stroke-width="0" d="M34.9975 37.408h.7087v2.2677h-.7087z"/>
    </g>
  </g>
  <g transform="rotate(180 36.769 38.542)">
    <g id="g16570">
      <path id="connector34pin" fill="#9a916c" stroke-width="0" d="M36.4148 37.408h.7087v2.2677h-.7087z"/>
    </g>
  </g>
  <g transform="rotate(180 38.1863 38.542)">
    <g id="g16573">
      <path id="connector35pin" fill="#9a916c" stroke-width="0" d="M37.8321 37.408h.7087v2.2677h-.7087z"/>
    </g>
  </g>
  <g transform="rotate(180 39.6036 38.542)">
    <g id="g16576">
      <path id="connector36pin" fill="#9a916c" stroke-width="0" d="M39.2494 37.408h.7087v2.2677h-.7087z"/>
    </g>
  </g>
  <g transform="rotate(90 41.7299 36.416)">
    <g id="g16579">
      <path id="connector37pin" fill="#9a916c" stroke-width="0" d="M41.3754 35.282h.7087v2.2677h-.7087z"/>
    </g>
  </g>
  <g transform="rotate(90 41.7297 34.9985)">
    <g id="g16582">
      <path id="connector38pin" fill="#9a916c" stroke-width="0" d="M41.3754 33.8647h.7087v2.2677h-.7087z"/>
    </g>
  </g>
  <g transform="rotate(90 41.7296 33.581)">
    <g id="g16585">
      <path id="connector39pin" fill="#9a916c" stroke-width="0" d="M41.3754 32.4473h.7087v2.2677h-.7087z"/>
    </g>
  </g>
  <g transform="rotate(90 41.7297 32.1639)">
    <g id="g16588">
      <path id="connector40pin" fill="#9a916c" stroke-width="0" d="M41.3754 31.03h.7087v2.2677h-.7087z"/>
    </g>
  </g>
  <g transform="rotate(90 41.7295 30.7463)">
    <g id="g16591">
      <path id="connector41pin" fill="#9a916c" stroke-width="0" d="M41.3754 29.6127h.7087v2.2677h-.7087z"/>
    </g>
  </g>
  <g transform="rotate(90 41.7297 29.3292)">
    <g id="g16594">
      <path id="connector42pin" fill="#9a916c" stroke-width="0" d="M41.3754 28.1953h.7087v2.2677h-.7087z"/>
    </g>
  </g>
  <g transform="rotate(90 41.7297 27.9119)">
    <g id="g16597">
      <path id="connector43pin" fill="#9a916c" stroke-width="0" d="M41.3754 26.778h.7087v2.2677h-.7087z"/>
    </g>
  </g>
  <g transform="rotate(90 41.7297 26.4946)">
    <g id="g16600">
      <path id="connector44pin" fill="#9a916c" stroke-width="0" d="M41.3754 25.3607h.7087v2.2677h-.7087z"/>
    </g>
  </g>
  <path id="connector45pin" fill="#9a916c" stroke-width="0" d="M39.2494 23.2348h.7087v2.2677h-.7087z"/>
  <path id="connector46pin" fill="#9a916c" stroke-width="0" d="M37.8321 23.2348h.7087v2.2677h-.7087z"/>
  <path id="connector47pin" fill="#9a916c" stroke-width="0" d="M36.4148 23.2348h.7087v2.2677h-.7087z"/>
  <path id="connector48pin" fill="#9a916c" stroke-width="0" d="M34.9975 23.2348h.7087v2.2677h-.7087z"/>
  <path id="connector49pin" fill="#9a916c" stroke-width="0" d="M33.5802 23.2348h.7087v2.2677h-.7087z"/>
  <path id="connector50pin" fill="#9a916c" stroke-width="0" d="M32.1628 23.2348h.7087v2.2677h-.7087z"/>
  <path id="connector51pin" fill="#9a916c" stroke-width="0" d="M30.7454 23.2348h.7087v2.2677h-.7087z"/>
  <path id="connector52pin" fill="#9a916c" stroke-width="0" d="M29.3281 23.2348h.7087v2.2677h-.7087z"/>
  <rect rx=".4961" height="9.9212" id="connector53pin" ry=".4961" x="29.6825" y="26.4946" width="9.9212" fill="#9a916c" stroke-width="0"/>
  <g transform="rotate(90 23.791 30.6226)">
    <g id="g16612">
      <path id="connector54pin" fill="#9a916c" stroke-width="0" d="M22.7989 30.1266h1.9843v.9921h-1.9843z"/>
    </g>
  </g>
  <g transform="rotate(90 21.665 30.6227)">
    <g id="g16615">
      <path id="connector55pin" fill="#9a916c" stroke-width="0" d="M20.6729 30.1266h1.9843v.9921h-1.9843z"/>
    </g>
  </g>
  <g transform="rotate(90 19.539 30.6227)">
    <g id="g16618">
      <path id="connector56pin" fill="#9a916c" stroke-width="0" d="M18.5469 30.1266h1.9843v.9921h-1.9843z"/>
    </g>
  </g>
  <g transform="rotate(90 19.539 25.2369)">
    <g id="g16621">
      <path id="connector57pin" fill="#9a916c" stroke-width="0" d="M18.5469 24.7408h1.9843v.9921h-1.9843z"/>
    </g>
  </g>
  <g transform="rotate(90 21.665 25.2369)">
    <g id="g16624">
      <path id="connector58pin" fill="#9a916c" stroke-width="0" d="M20.6729 24.7408h1.9843v.9921h-1.9843z"/>
    </g>
  </g>
  <g transform="rotate(90 23.791 25.2368)">
    <g id="g16627">
      <path id="connector59pin" fill="#9a916c" stroke-width="0" d="M22.7989 24.7408h1.9843v.9921h-1.9843z"/>
    </g>
  </g>
  <g transform="rotate(90 54.4591 26.8498)">
    <g id="g16630">
      <path id="connector60pin" fill="#9a916c" stroke-width="0" d="M53.3251 25.7159h2.2677v2.2677h-2.2677z"/>
    </g>
  </g>
  <g transform="rotate(90 58.7109 26.8497)">
    <g id="g16633">
      <path id="connector61pin" fill="#9a916c" stroke-width="0" d="M57.5771 25.7159h2.2677v2.2677h-2.2677z"/>
    </g>
  </g>
  <g transform="rotate(90 20.8727 46.5208)">
    <g id="g16636">
      <path id="connector62pin" fill="#9a916c" stroke-width="0" d="M19.5971 45.2452h2.5512v2.5512h-2.5512z"/>
    </g>
  </g>
  <g transform="rotate(90 20.8728 34.8987)">
    <g id="g16639">
      <path id="connector63pin" fill="#9a916c" stroke-width="0" d="M19.5971 33.6231h2.5512v2.5512h-2.5512z"/>
    </g>
  </g>
  <g transform="rotate(90 16.3373 46.5208)">
    <g id="g16642">
      <path id="connector64pin" fill="#9a916c" stroke-width="0" d="M15.0617 45.2452h2.5512v2.5512h-2.5512z"/>
    </g>
  </g>
  <g transform="rotate(90 16.3373 34.8988)">
    <g id="g16645">
      <path id="connector65pin" fill="#9a916c" stroke-width="0" d="M15.0617 33.6231h2.5512v2.5512h-2.5512z"/>
    </g>
  </g>
  <g transform="rotate(180 51.2325 26.9462)">
    <g id="g16648">
      <path id="connector66pin" fill="#9a916c" stroke-width="0" d="M49.709 25.5288h3.0472v2.8346H49.709z"/>
    </g>
  </g>
  <g transform="rotate(180 46.4137 26.9462)">
    <g id="g16651">
      <path id="connector67pin" fill="#9a916c" stroke-width="0" d="M44.8901 25.5288h3.0472v2.8346h-3.0472z"/>
    </g>
  </g>
  <g transform="rotate(-90 46.8482 46.5365)">
    <g id="g16654">
      <path id="connector68pin" fill="#9a916c" stroke-width="0" d="M45.4307 44.4104h2.8346v4.252h-2.8346z"/>
    </g>
  </g>
  <g transform="rotate(-90 62.7223 46.5367)">
    <g id="g16657">
      <path id="connector69pin" fill="#9a916c" stroke-width="0" d="M61.3047 44.4104h2.8346v4.252h-2.8346z"/>
    </g>
  </g>
  <g transform="rotate(-90 46.848 39.4498)">
    <g id="g16660">
      <path id="connector70pin" fill="#9a916c" stroke-width="0" d="M45.4307 37.3238h2.8346v4.252h-2.8346z"/>
    </g>
  </g>
  <g transform="rotate(-90 62.7221 39.4498)">
    <g id="g16663">
      <path id="connector71pin" fill="#9a916c" stroke-width="0" d="M61.3047 37.3238h2.8346v4.252h-2.8346z"/>
    </g>
  </g>
  <g transform="rotate(-90 46.8479 32.363)">
    <g id="g16666">
      <path id="connector72pin" fill="#9a916c" stroke-width="0" d="M45.4307 30.2372h2.8346v4.252h-2.8346z"/>
    </g>
  </g>
  <g transform="rotate(-90 62.7221 32.3633)">
    <g id="g16669">
      <path id="connector73pin" fill="#9a916c" stroke-width="0" d="M61.3047 30.2372h2.8346v4.252h-2.8346z"/>
    </g>
  </g>
  <g transform="rotate(-90 11.9762 29.374)">
    <g id="g16672">
      <rect rx="1.4173" height="2.8346" id="connector74pin" ry="1.4173" x="10.5589" y="27.9567" width="2.8346" fill="#9a916c" stroke-width="0"/>
    </g>
  </g>
  <rect rx="1.4173" height="2.8346" id="connector75pin" ry="1.4173" x="37.8877" y="71.7009" width="2.8346" fill="#9a916c" stroke-width="0"/>
  <g transform="rotate(90 34.8997 42.6969)">
    <g id="g16676">
      <path id="connector76pin" fill="#9a916c" stroke-width="0" d="M34.1202 40.9961h1.5591v3.4016h-1.5591z"/>
    </g>
  </g>
  <g transform="rotate(90 34.8997 45.3897)">
    <g id="g16679">
      <path id="connector77pin" fill="#9a916c" stroke-width="0" d="M34.1202 43.689h1.5591v3.4016h-1.5591z"/>
    </g>
  </g>
  <g transform="rotate(90 34.8996 48.0826)">
    <g id="g16682">
      <path id="connector78pin" fill="#9a916c" stroke-width="0" d="M34.1202 46.3819h1.5591v3.4016h-1.5591z"/>
    </g>
  </g>
  <g transform="rotate(90 42.2702 48.0826)">
    <g id="g16685">
      <path id="connector79pin" fill="#9a916c" stroke-width="0" d="M41.4908 46.3819h1.5591v3.4016h-1.5591z"/>
    </g>
  </g>
  <g transform="rotate(90 42.2703 42.6969)">
    <g id="g16688">
      <path id="connector80pin" fill="#9a916c" stroke-width="0" d="M41.4908 40.9961h1.5591v3.4016h-1.5591z"/>
    </g>
  </g>
  <g transform="rotate(90 41.791 8.2205)">
    <g id="g16692">
      <path id="connector82pin" fill="#9a916c" stroke-width="0" d="M38.9563 6.8032h5.6693v2.8346h-5.6693z"/>
    </g>
  </g>
  <g transform="rotate(90 37.539 8.2205)">
    <g id="g16695">
      <path id="connector83pin" fill="#9a916c" stroke-width="0" d="M34.7044 6.8032h5.6693v2.8346h-5.6693z"/>
    </g>
  </g>
  <g transform="rotate(180 39.6651 16.0866)">
    <g id="g16698">
      <path id="connector84pin" fill="#9a916c" stroke-width="0" d="M39.0981 14.1732h1.1339V18h-1.1339z"/>
    </g>
  </g>
  <g transform="rotate(180 41.5076 16.0866)">
    <g id="g16701">
      <path id="connector85pin" fill="#9a916c" stroke-width="0" d="M40.9406 14.1732h1.1339V18h-1.1339z"/>
    </g>
  </g>
  <g transform="rotate(180 35.98 16.0866)">
    <g id="g16704">
      <path id="connector86pin" fill="#9a916c" stroke-width="0" d="M35.4131 14.1732h1.1339V18h-1.1339z"/>
    </g>
  </g>
  <g transform="rotate(180 37.8223 16.0866)">
    <g id="g16707">
      <path id="connector87pin" fill="#9a916c" stroke-width="0" d="M37.2555 14.1732h1.1339V18h-1.1339z"/>
    </g>
  </g>
  <circle r="1.4939" id="connector88pin" cx="49.0193" cy="16.4409" fill="none" stroke="#9a916c" stroke-width=".72"/>
  <path id="path16711" d="M47.5255 14.9471h4.4816v2.9877h-4.4816v-2.9877m0 1.4938a1.4939 1.4939 0 0 0 2.9877 0 1.4939 1.4939 0 1 0-2.9877 0z" fill="#9a916c" stroke-width="0"/>
  <circle r="1.4939" id="connector89pin" cx="30.3107" cy="16.4409" fill="none" stroke="#9a916c" stroke-width=".72"/>
  <path id="path16714" d="M27.323 14.9471h4.4816v2.9877H27.323v-2.9877m1.4938 1.4938a1.4939 1.4939 0 1 0 2.9877 0 1.4939 1.4939 0 1 0-2.9877 0z" fill="#9a916c" stroke-width="0"/>
  <circle r="2.3478" id="connector90pin" cx="49.8697" cy="8.5039" fill="none" stroke="#9a916c" stroke-width="2.1444"/>
  <path id="rect16717" fill="none" stroke="#9a916c" stroke-width="2.1444" d="M47.5219 6.1561h4.6956v4.6956h-4.6956z"/>
  <circle r="2.3478" id="connector91pin" cx="29.4603" cy="8.5039" fill="none" stroke="#9a916c" stroke-width="2.1444"/>
  <path id="rect16720" fill="none" stroke="#9a916c" stroke-width="2.1444" d="M27.1125 6.1561h4.6956v4.6956h-4.6956z"/>
  <g transform="rotate(180 43.3501 16.0866)">
    <g id="g16722">
      <path id="connector92pin" fill="#9a916c" stroke-width="0" d="M42.7831 14.1732h1.1339V18h-1.1339z"/>
    </g>
  </g>
  <g transform="translate(26.7774 50.8182)">
    <g transform="rotate(180 2.8345 1.7715)" id="0805-cap">
      <g id="g16749">
        <path id="path16751" d="M5.386 3.543H.283A.2834.2834 0 0 1 0 3.26V.283C0 .127.127 0 .283 0h5.102c.157 0 .283.127.283.283V3.26a.2819.2819 0 0 1-.282.283z" fill="#dcdcdc"/>
        <path id="rect16753" fill="#6e554b" d="M1.063 0h3.543v3.543H1.063z"/>
      </g>
    </g>
  </g>
  <g transform="translate(21.3775 55.0557)">
    <g transform="rotate(-135 2.2675 1.134)" id="0603-cap">
      <g id="g16756">
        <path id="path16758" d="M4.245 2.268H.29c-.16 0-.29-.13-.29-.291V.29C0 .13.13 0 .29 0h3.955c.16 0 .29.13.29.29v1.687c0 .161-.13.291-.29.291z" fill="#dcdcdc"/>
        <path id="rect16760" fill="#6e554b" d="M1.134 0h2.268v2.268H1.134z"/>
      </g>
    </g>
  </g>
  <g transform="translate(18.3266 49.0013)">
    <g transform="rotate(180 2.2675 1.134)" id="g16762">
      <g id="g16764">
        <path id="path16766" d="M4.245 2.268H.29c-.16 0-.29-.13-.29-.291V.29C0 .13.13 0 .29 0h3.955c.16 0 .29.13.29.29v1.687c0 .161-.13.291-.29.291z" fill="#dcdcdc"/>
        <path id="rect16768" fill="#6e554b" d="M1.134 0h2.268v2.268H1.134z"/>
      </g>
    </g>
  </g>
  <g transform="translate(25.4905 43.4382)">
    <g transform="rotate(90 2.8345 1.7715)" id="g16770">
      <g id="g16772">
        <path id="path16774" d="M5.386 3.543H.283A.2834.2834 0 0 1 0 3.26V.283C0 .127.127 0 .283 0h5.102c.157 0 .283.127.283.283V3.26a.2819.2819 0 0 1-.282.283z" fill="#dcdcdc"/>
        <path id="rect16776" fill="#6e554b" d="M1.063 0h3.543v3.543H1.063z"/>
      </g>
    </g>
  </g>
  <g transform="translate(28.3265 51.5253)">
    <g transform="rotate(180 11.3385 12.756)" id="jstph2">
      <g id="g16779">
        <g id="g16781">
          <path id="polygon16783" fill="#666" d="M2.835 2.126H0v14.882h22.677V2.126h-2.834V0H2.835z"/>
          <path id="rect16785" d="M4.252 5.669h2.835v8.504H4.252z"/>
          <path id="rect16787" d="M15.591 5.669h2.835v8.504h-2.835z"/>
          <path id="rect16789" fill="#333" d="M4.252 14.173h2.835v2.835H4.252z"/>
          <path id="rect16791" fill="#333" d="M15.591 14.173h2.835v2.835h-2.835z"/>
          <path id="rect16793" fill="#333" d="M0 17.008h2.268v4.252H0z"/>
          <path id="rect16795" fill="#333" d="M20.409 17.008h2.268v4.252h-2.268z"/>
          <path id="rect16797" fill="#dcdcdc" d="M7.512 17.008h1.984v7.087H7.512z"/>
          <path id="rect16799" fill="#dcdcdc" d="M13.181 17.008h1.984v7.087h-1.984z"/>
        </g>
      </g>
    </g>
  </g>
  <g transform="translate(46.2356 50.2243)">
    <g transform="rotate(180 5.1025 2.3385)" id="sod-123fl">
      <g id="g16802">
        <path id="rect3" fill="#dcdcdc" d="M0 1.134h10.205v2.409H0z"/>
        <path id="rect5" fill="#303030" d="M1.276 0H8.93v4.677H1.276z"/>
        <path id="rect3341" fill="#4d4d4d" d="M2.0554.0069h1.3519v4.667H2.0554z"/>
      </g>
    </g>
  </g>
  <g transform="translate(44.8225 19.4712)">
    <g transform="rotate(180 5.1025 2.3385)" id="g16810">
      <g id="g16812">
        <path id="rect16820" fill="#dcdcdc" d="M0 1.134h10.205v2.409H0z"/>
        <path id="rect16822" fill="#303030" d="M1.276 0H8.93v4.677H1.276z"/>
        <path id="rect16824" fill="#4d4d4d" d="M2.0554.0069h1.3519v4.667H2.0554z"/>
      </g>
    </g>
  </g>
  <g transform="translate(27.5565 24.3686)">
    <g transform="scale(1.25)" id="qfn32_5mm">
      <g id="g3335">
        <rect height="11.3386" rx=".5669" id="rect16837" ry=".5669" width="11.3386" fill="#333"/>
        <circle r=".5381" id="path3333" cx="1.2684" cy="1.3208" fill="#666"/>
      </g>
    </g>
  </g>
  <g transform="translate(18.683 25.0952)">
    <g transform="matrix(0 -1 1 0 0 5.669)" id="apa102_2020">
      <g id="g16841">
        <style id="style16843">
          .st0{fill:#9c8f6d}.st1{fill:#807c73}
        </style>
        <g id="g16845">
          <path id="rect16847" class="st0" fill="#dcdcdc" d="M0 0h5.669v5.669H0z"/>
          <path id="rect16849" class="st1" fill="#b4b4b4" d="M.425 1.134h3.402v3.402H.425z"/>
        </g>
      </g>
    </g>
  </g>
  <g transform="translate(55.451 24.5822)">
    <g transform="rotate(90 1.134 2.2675)" id="0603-led-red">
      <g id="g16852">
        <path id="path16854" d="M2.268.29v3.955c0 .16-.13.29-.29.29H.29c-.16 0-.29-.13-.29-.29V.29C0 .13.13 0 .29 0h1.687c.161 0 .291.13.291.29z" fill="#dcdcdc"/>
        <g transform="rotate(-90 1.1339 2.2677)">
          <path id="rect16856" fill="red" d="M0 1.134h2.268v2.268H0z"/>
        </g>
        <circle r=".354" id="circle16858" cx="1.134" cy="2.268" fill="#a00000"/>
      </g>
    </g>
  </g>
  <g transform="translate(12.227 36.4578)">
    <g transform="rotate(90 6.378 4.252)" id="btn_kmr2_4.6x2.8">
      <g id="g16861">
        <g id="g16863">
          <path id="polygon16865" fill="#dcdcdc" d="M11.339 1.275V0H1.417v1.275H0v1.417h1.417v3.119H0v1.417h1.417v1.276h9.922V7.228h1.417V5.811h-1.417V2.692h1.417V1.275z"/>
          <circle r="2.48" id="circle16867" cx="6.378" cy="4.252" fill="#1e1e1e"/>
          <path id="rect16869" fill="#b4b4b4" d="M.992 0h.567v8.504H.992z"/>
          <path id="rect16871" fill="#b4b4b4" d="M11.197 0h.567v8.504h-.567z"/>
        </g>
      </g>
    </g>
  </g>
  <g transform="translate(46.5556 25.8121)">
    <g transform="rotate(180 2.2675 1.134)" id="0603-res">
      <g id="g16874">
        <path id="path16876" d="M4.245 2.268H.29c-.16 0-.29-.13-.29-.291V.29C0 .13.13 0 .29 0h3.955c.16 0 .29.13.29.29v1.687c0 .161-.13.291-.29.291z" fill="#dcdcdc"/>
        <path id="rect16878" fill="#333" d="M1.134 0h2.268v2.268H1.134z"/>
      </g>
    </g>
  </g>
  <g transform="rotate(180 32.3425 23.9749)">
    <g transform="rotate(-90 9.9 8.5)" id="eg1390">
      <g id="g16881">
        <style id="style16883">
          .st0{fill:#dcdcdc}.st1{fill:#b4b4b4}
        </style>
        <g id="g16885">
          <path id="rect16887" class="st0" fill="#dcdcdc" d="M15.9 0h2.3v17h-2.3z"/>
          <path id="rect16889" class="st0" fill="#dcdcdc" d="M8.8 0h2.3v17H8.8z"/>
          <path id="rect16891" class="st0" fill="#dcdcdc" d="M1.7 0H4v17H1.7z"/>
          <path id="rect16893" class="st1" fill="#b4b4b4" d="M15.9 2.8h2.3v11.3h-2.3z"/>
          <path id="rect16895" class="st1" fill="#b4b4b4" d="M8.8 2.8h2.3v11.3H8.8z"/>
          <path id="rect16897" class="st1" fill="#b4b4b4" d="M1.7 2.8H4v11.3H1.7z"/>
          <path id="rect16899" d="M0 3.5h19.8v9.9H0z"/>
          <path id="polygon16901" class="st0" fill="#dcdcdc" d="M19.8 10.6V6.4h-1.4V3.5h-4.2v2.9H5.7V3.5H1.4v2.9H0v4.2h1.4v2.9h17v-2.9z"/>
          <path id="rect16903" fill="#333" d="M9.9 3.5h4.3v2.8H9.9z"/>
          <circle r="1.4" id="circle16905" class="st1" cx="7.8" cy="8.5" fill="#b4b4b4"/>
          <circle r="1.4" id="circle16907" class="st1" cx="12" cy="8.5" fill="#b4b4b4"/>
        </g>
      </g>
    </g>
  </g>
  <g transform="translate(34.475 41.5627)">
    <g transform="rotate(90 4.11 3.827)" id="sot23-5">
      <g id="g16910">
        <g id="g16912">
          <path id="rect16914" fill="#dcdcdc" d="M.85 0h1.134v7.654H.85z"/>
          <path id="rect16916" fill="#dcdcdc" d="M6.236 0H7.37v7.654H6.236z"/>
          <path id="rect16918" fill="#dcdcdc" d="M3.543 4.535h1.134v3.118H3.543z"/>
          <path id="rect16920" fill="#303030" d="M0 1.559h8.22v4.535H0z"/>
        </g>
      </g>
    </g>
  </g>
  <g id="g23768">
    <g transform="translate(8.2031 56.8146)">
      <g transform="rotate(-135 7.7955 6.6615)" id="sewalli">
        <g id="g16726">
          <path id="connector0pin" d="M3.118 6.661c0-2.583 2.094-4.677 4.677-4.677 2.583 0 4.677 2.094 4.677 4.677 0 2.583-2.094 4.677-4.677 4.677-2.583 0-4.677-2.093-4.677-4.677zm4.677 6.662c4.305 0 7.795-3.49 7.795-7.795V.994C13.028.718 10.43.567 7.795.567S2.562.718 0 .994v4.534c0 4.305 3.49 7.795 7.795 7.795z" fill="#9a916c"/>
        </g>
      </g>
    </g>
    <g transform="translate(-1.5655 33.1482)">
      <g transform="rotate(-90 7.7955 6.6615)" id="g16730">
        <g id="g16732">
          <path id="connector1pin" d="M3.118 6.661c0-2.583 2.094-4.677 4.677-4.677 2.583 0 4.677 2.094 4.677 4.677 0 2.583-2.094 4.677-4.677 4.677-2.583 0-4.677-2.093-4.677-4.677zm4.677 6.662c4.305 0 7.795-3.49 7.795-7.795V.994C13.028.718 10.43.567 7.795.567S2.562.718 0 .994v4.534c0 4.305 3.49 7.795 7.795 7.795z" fill="#9a916c"/>
        </g>
      </g>
    </g>
    <g transform="translate(65.3044 33.1482)">
      <g transform="rotate(90 7.7955 6.6615)" id="g16736">
        <g id="g16738">
          <path id="connector2pin" d="M3.118 6.661c0-2.583 2.094-4.677 4.677-4.677 2.583 0 4.677 2.094 4.677 4.677 0 2.583-2.094 4.677-4.677 4.677-2.583 0-4.677-2.093-4.677-4.677zm4.677 6.662c4.305 0 7.795-3.49 7.795-7.795V.994C13.028.718 10.43.567 7.795.567S2.562.718 0 .994v4.534c0 4.305 3.49 7.795 7.795 7.795z" fill="#9a916c"/>
        </g>
      </g>
    </g>
    <g transform="translate(8.2031 9.4819)">
      <g transform="rotate(-45 7.7955 6.6615)" id="g16742">
        <g id="g16744">
          <path id="connector3pin" d="M3.118 6.661c0-2.583 2.094-4.677 4.677-4.677 2.583 0 4.677 2.094 4.677 4.677 0 2.583-2.094 4.677-4.677 4.677-2.583 0-4.677-2.093-4.677-4.677zm4.677 6.662c4.305 0 7.795-3.49 7.795-7.795V.994C13.028.718 10.43.567 7.795.567S2.562.718 0 .994v4.534c0 4.305 3.49 7.795 7.795 7.795z" fill="#9a916c"/>
        </g>
      </g>
    </g>
    <g transform="translate(55.5359 9.4819)">
      <g transform="rotate(45 7.7955 6.6615)" id="g16826">
        <g id="g16828">
          <path id="connector20pin" d="M3.118 6.661c0-2.583 2.094-4.677 4.677-4.677 2.583 0 4.677 2.094 4.677 4.677 0 2.583-2.094 4.677-4.677 4.677-2.583 0-4.677-2.093-4.677-4.677zm4.677 6.662c4.305 0 7.795-3.49 7.795-7.795V.994C13.028.718 10.43.567 7.795.567S2.562.718 0 .994v4.534c0 4.305 3.49 7.795 7.795 7.795z" fill="#9a916c"/>
        </g>
      </g>
    </g>
    <g transform="translate(55.5359 56.8146)">
      <g transform="rotate(135 7.7955 6.6615)" id="g16922">
        <g id="g16924">
          <path id="connector81pin" d="M3.118 6.661c0-2.583 2.094-4.677 4.677-4.677 2.583 0 4.677 2.094 4.677 4.677 0 2.583-2.094 4.677-4.677 4.677-2.583 0-4.677-2.093-4.677-4.677zm4.677 6.662c4.305 0 7.795-3.49 7.795-7.795V.994C13.028.718 10.43.567 7.795.567S2.562.718 0 .994v4.534c0 4.305 3.49 7.795 7.795 7.795z" fill="#9a916c"/>
        </g>
      </g>
    </g>
  </g>
  <g transform="translate(28.3265 1.2614)">
    <g transform="rotate(180 11.3385 8.327)" id="4uconn_20329_v2">
      <g id="g16929">
        <g id="g16931">
          <path id="rect16933" fill="#b4b4b4" d="M0 7.157h22.677v3.969H0z"/>
          <path id="rect16935" fill="#dcdcdc" d="M11.055 0h.567v3.402h-.567z"/>
          <path id="rect16937" fill="#dcdcdc" d="M12.898 0h.567v3.402h-.567z"/>
          <path id="rect16939" fill="#dcdcdc" d="M14.74 0h.567v3.402h-.567z"/>
          <path id="rect16941" fill="#dcdcdc" d="M9.213 0h.567v3.402h-.567z"/>
          <path id="rect16943" fill="#dcdcdc" d="M7.37 0h.567v3.402H7.37z"/>
          <path id="rect16945" fill="#b4b4b4" d="M4.252 1.489h14.173v.709H4.252z"/>
          <path id="rect16947" d="M4.252 1.771h14.173v2.976H4.252z"/>
          <path id="polygon16949" fill="#dcdcdc" d="M14.74 3.473v.709h-1.417V1.63H9.354v2.552H7.937v-.709H5.669V1.347H.567v13.606H22.11V1.347h-5.102v2.126z"/>
          <path id="polygon16951" d="M4.11 7.867h1.417l.284 4.252H3.827z"/>
          <path id="polygon16953" d="M17.149 7.867h1.418l.283 4.252h-1.984z"/>
          <path id="polygon16955" fill="#f0f0f0" d="M1.134 14.953h20.409l-.567 1.701-19.275-.001z"/>
          <path id="polygon16957" fill="#b4b4b4" d="M.567 14.953h.567l-.567 1.7H0z"/>
          <path id="polygon16959" fill="#b4b4b4" d="M21.543 14.953h.567l.567 1.701h-.567z"/>
        </g>
      </g>
    </g>
  </g>
  <g transform="matrix(1 0 0 -1 21.2019 7.8837)">
    <g id="g27047">
      <path id="path27049" d="M0 0l.666 1.4L-.735.734 0 0zm1.037 2.169l.411-.411-1.643-3.533-.445.444.394.819L-1.247.489l-.819-.393-.431.429 3.534 1.644z" fill="#fff"/>
    </g>
  </g>
  <g transform="matrix(1 0 0 -1 23.5257 7.8837)">
    <g id="g27051">
      <path id="path27053" d="M0 0l-.526.283.298.438.794-.397.302-.303-2.593-2.591-.422.423L0 0z" fill="#fff"/>
    </g>
  </g>
</svg>
