<svg xmlns="http://www.w3.org/2000/svg" height="184.876" id="svg10142" viewBox="0 0 187.5 184.876" width="187.5" version="1.2">
  <g transform="translate(-.001 -2.981) scale(1.89083)" id="g4486">
    <path id="path10148" d="M36.082 2.063a49.581 49.581 0 1 0 27 0zM19.959 13.57a6.57 6.57 0 0 1 6.568 6.569 6.57 6.57 0 0 1-6.568 6.57 6.57 6.57 0 0 1-6.57-6.57 6.57 6.57 0 0 1 6.57-6.569zm59.244 0a6.57 6.57 0 0 1 6.57 6.569 6.57 6.57 0 0 1-6.57 6.57 6.57 6.57 0 0 1-6.568-6.57 6.57 6.57 0 0 1 6.568-6.569zM7.731 43.193a6.57 6.57 0 0 1 6.57 6.569 6.57 6.57 0 0 1-6.57 6.57 6.57 6.57 0 0 1-6.569-6.57 6.57 6.57 0 0 1 6.569-6.569zm83.7 0A6.57 6.57 0 0 1 98 49.762a6.57 6.57 0 0 1-6.568 6.57 6.57 6.57 0 0 1-6.57-6.57 6.57 6.57 0 0 1 6.57-6.569zM19.96 72.817a6.57 6.57 0 0 1 6.568 6.568 6.57 6.57 0 0 1-6.568 6.57 6.57 6.57 0 0 1-6.57-6.57 6.57 6.57 0 0 1 6.57-6.569zm59.244 0a6.57 6.57 0 0 1 6.57 6.568 6.57 6.57 0 0 1-6.57 6.57 6.57 6.57 0 0 1-6.568-6.57 6.57 6.57 0 0 1 6.568-6.569z" stroke-width="0"/>
  </g>
  <g transform="matrix(2.36354 0 0 -2.36354 -.001 184.877)" id="g4618">
    <g id="g27055">
      <g id="g27057" clip-path="url(#clipPath27059)">
        <g transform="translate(7.737 59.184)" id="g4490">
          <g id="g27063">
            <path id="path27065" d="M0 0l-1.802-1.802.357-.356c.117-.117.245-.205.382-.262a.931.931 0 0 1 .421-.07c.143.008.289.049.437.121.149.072.291.176.429.314l.022.022a1.6 1.6 0 0 1 .318.431c.072.149.113.295.123.44a.943.943 0 0 1-.069.424 1.204 1.204 0 0 1-.262.382zm-.041.812L.746.026c.184-.184.32-.381.408-.592.089-.211.13-.425.125-.644a1.655 1.655 0 0 0-.153-.649 2.038 2.038 0 0 0-.427-.604l-.03-.03a2.071 2.071 0 0 0-.607-.431 1.691 1.691 0 0 0-.65-.154 1.623 1.623 0 0 0-.646.123c-.212.088-.41.223-.594.407l-.787.786z" fill="#fff"/>
          </g>
        </g>
        <g transform="translate(7.493 55.728)" id="g4494">
          <g id="g27067">
            <path id="path27069" d="M0 0l1.629.056c.149.002.279.007.388.015.108.01.204.024.286.045a.952.952 0 0 1 .219.082.73.73 0 0 1 .173.129.486.486 0 0 1 .164.381.548.548 0 0 1-.171.361.635.635 0 0 1-.354.188 1.76 1.76 0 0 1-.492-.003l-.022.544c.255.039.488.033.701-.017.211-.05.411-.169.597-.354.113-.114.199-.235.259-.363a1 1 0 0 0 .099-.389.927.927 0 0 0-.067-.389 1.073 1.073 0 0 0-.243-.355l-.008-.008a1.198 1.198 0 0 0-.586-.329 2.27 2.27 0 0 0-.39-.056 8.893 8.893 0 0 0-.495-.013L.614-.519l1.063-1.062-.386-.387L-.338-.339z" fill="#fff"/>
          </g>
        </g>
        <g transform="translate(4.145 49.226)" id="g4498">
          <g id="g27071">
            <path id="path27073" d="M0 0l-.52 1.461L-1.04 0zm-.801 2.267h.582l1.337-3.661H.489l-.302.858h-1.415l-.301-.858h-.608z" fill="#fff"/>
          </g>
        </g>
        <g transform="translate(5.58 48.31)" id="g4502">
          <g id="g27075">
            <path id="path27077" d="M0 0l1.113 1.191c.104.107.191.203.262.286.071.083.128.161.172.233a.95.95 0 0 1 .096.214c.021.069.031.14.031.213 0 .167-.051.295-.153.385a.552.552 0 0 1-.377.135.64.64 0 0 1-.382-.117 1.719 1.719 0 0 1-.346-.351l-.4.369c.152.208.321.369.506.484.186.114.411.171.674.171.159 0 .306-.024.439-.072.134-.049.249-.117.346-.206a.918.918 0 0 0 .227-.322 1.09 1.09 0 0 0 .08-.424v-.01c0-.125-.015-.239-.044-.341a1.298 1.298 0 0 0-.138-.307 2.211 2.211 0 0 0-.237-.314 7.834 7.834 0 0 0-.34-.359L.801.067h1.503v-.546H0z" fill="#fff"/>
          </g>
        </g>
        <g transform="translate(3.298 30.926)" id="g4506">
          <g id="g27079">
            <path id="path27081" d="M0 0v-2.548h.504c.167 0 .318.028.455.086.137.058.253.14.349.247.095.108.17.239.223.396.054.155.081.331.081.524v.031c0 .199-.027.375-.081.531a1.174 1.174 0 0 1-.223.398.939.939 0 0 1-.349.249A1.153 1.153 0 0 1 .504 0zm-.604.546H.509c.261 0 .496-.043.708-.13.211-.087.392-.209.543-.366a1.65 1.65 0 0 0 .351-.568c.083-.219.125-.462.125-.73v-.041c0-.268-.042-.512-.125-.733a1.585 1.585 0 0 0-.894-.939 1.808 1.808 0 0 0-.708-.133H-.604z" fill="#fff"/>
          </g>
        </g>
        <g transform="translate(7.114 28.322)" id="g4510">
          <g id="g27083">
            <path id="path27085" d="M0 0c.229 0 .412.114.548.344.138.23.206.55.206.961v.042c0 .201-.018.383-.055.548a1.392 1.392 0 0 1-.156.415.762.762 0 0 1-.242.26.55.55 0 0 1-.312.092c-.228 0-.412-.115-.551-.345-.139-.229-.208-.549-.208-.961v-.041c0-.206.019-.389.055-.55.036-.162.088-.3.156-.413A.76.76 0 0 1-.315.091.573.573 0 0 1 0 0m-.011-.547a1.21 1.21 0 0 0-.569.133 1.287 1.287 0 0 0-.432.375 1.774 1.774 0 0 0-.275.582 2.746 2.746 0 0 0-.096.757v.056c0 .275.032.526.098.754.066.23.159.424.279.585.119.162.264.287.434.377.17.091.36.136.572.136.208 0 .396-.044.564-.133.168-.088.312-.213.432-.374.119-.161.212-.355.278-.583.066-.226.099-.478.099-.756v-.057c0-.278-.033-.53-.099-.757a1.83 1.83 0 0 0-.278-.582 1.3 1.3 0 0 0-.434-.377 1.206 1.206 0 0 0-.573-.136" fill="#fff"/>
          </g>
        </g>
        <g transform="translate(62.035 42.439)" id="g4514">
          <g id="g27087">
            <path id="path27089" d="M0 0c.123 0 .237.027.342.081.105.055.195.13.27.228.075.097.134.214.176.353.042.138.063.292.063.463v.032c0 .168-.021.322-.063.461-.042.14-.101.259-.178.358a.823.823 0 0 1-.272.229.74.74 0 0 1-.347.081.725.725 0 0 1-.342-.081.813.813 0 0 1-.27-.226 1.127 1.127 0 0 1-.175-.354 1.593 1.593 0 0 1-.063-.464V1.13c0-.168.021-.321.065-.461.043-.14.104-.259.18-.358a.828.828 0 0 1 .272-.23A.74.74 0 0 1 0 0m-.009-.481c-.204 0-.391.04-.562.119-.171.08-.319.19-.442.331-.123.14-.217.308-.285.504a1.97 1.97 0 0 0-.101.643v.045c0 .235.034.449.103.646.069.197.165.366.288.508A1.3 1.3 0 0 0 0 2.768c.204 0 .392-.039.562-.12.171-.079.319-.189.442-.331.123-.14.218-.308.285-.504.068-.194.102-.409.102-.643v-.045c0-.233-.035-.449-.104-.646a1.557 1.557 0 0 0-.288-.508 1.306 1.306 0 0 0-.44-.333 1.34 1.34 0 0 0-.568-.119" fill="#fff"/>
          </g>
        </g>
        <g transform="translate(65.279 43.955)" id="g4518">
          <g id="g27091">
            <path id="path27093" d="M0 0h-.256v.423H0v.184c0 .247.062.428.183.545.113.115.277.171.492.171a1.133 1.133 0 0 0 .36-.05V.847a2.598 2.598 0 0 1-.121.029.712.712 0 0 1-.126.011C.599.887.504.777.504.559V.423h.526V0H.509v-1.948H0zm-1.476 0h-.265v.423h.265v.184c0 .247.059.428.175.545.12.115.286.171.498.171a1.133 1.133 0 0 0 .36-.05V.847a2.326 2.326 0 0 1-.121.029.71.71 0 0 1-.125.011c-.189 0-.283-.11-.283-.328V.423h.522V0h-.518v-1.948h-.508z" fill="#fff"/>
          </g>
        </g>
        <g transform="translate(62.035 35.439)" id="g4522">
          <g id="g27095">
            <path id="path27097" d="M0 0c.123 0 .237.027.342.081.105.055.195.13.27.228.075.097.134.214.176.353.042.138.063.292.063.463v.032c0 .168-.021.322-.063.461-.042.14-.101.259-.178.358a.823.823 0 0 1-.272.229.74.74 0 0 1-.347.081.725.725 0 0 1-.342-.081.813.813 0 0 1-.27-.226 1.127 1.127 0 0 1-.175-.354 1.593 1.593 0 0 1-.063-.464V1.13c0-.168.021-.321.065-.461.043-.14.104-.259.18-.358a.828.828 0 0 1 .272-.23A.74.74 0 0 1 0 0m-.009-.481c-.204 0-.391.04-.562.119-.171.08-.319.19-.442.331-.123.14-.217.308-.285.504a1.97 1.97 0 0 0-.101.643v.045c0 .235.034.449.103.646.069.197.165.366.288.508A1.3 1.3 0 0 0 0 2.768c.204 0 .392-.039.562-.12.171-.079.319-.189.442-.331.123-.14.218-.308.285-.504.068-.194.102-.409.102-.643v-.045c0-.233-.035-.449-.104-.646a1.557 1.557 0 0 0-.288-.508 1.306 1.306 0 0 0-.44-.333 1.34 1.34 0 0 0-.568-.119" fill="#fff"/>
          </g>
        </g>
        <g transform="translate(63.776 37.392)" id="g4526">
          <g id="g27099">
            <path id="path27101" d="M0 0h.509v-.351c.065.105.15.198.254.277a.63.63 0 0 0 .398.119c.232 0 .411-.075.54-.225.129-.15.194-.352.194-.607v-1.598h-.509v1.453c0 .168-.037.297-.113.385a.387.387 0 0 1-.314.133.41.41 0 0 1-.326-.14C.55-.646.509-.775.509-.94v-1.445H0z" fill="#fff"/>
          </g>
        </g>
        <g transform="translate(60.752 53.938)" id="g4530">
          <g id="g27103">
            <path id="path27105" d="M0 0h.521v-2.669h1.351v-.481H0z" fill="#fff"/>
          </g>
        </g>
        <g transform="translate(22.702 5.816)" id="g4534">
          <g id="g27107">
            <path id="path27109" d="M0 0a1.554 1.554 0 0 0-.574-.378 1.607 1.607 0 0 0-.604-.092l-.036.566c.15-.007.294.007.431.044a.886.886 0 0 1 .392.243c.121.12.184.257.192.411a.54.54 0 0 1-.175.419l-.011.011a.488.488 0 0 1-.463.146c-.176-.034-.354-.141-.533-.319L-1.51.922l-.322.212-.121 1.371-.974-.975-.386.386 1.508 1.507.334-.334.096-1.397c.103.074.212.135.328.186.117.05.235.077.356.082a.908.908 0 0 0 .362-.061.985.985 0 0 0 .35-.236l.012-.012c.12-.12.209-.251.267-.391.056-.141.085-.284.081-.431A1.109 1.109 0 0 0 .279.397 1.323 1.323 0 0 0 0 0" fill="#fff"/>
          </g>
        </g>
        <g transform="translate(21.003 9.346)" id="g4538">
          <g id="g27111">
            <path id="path27113" d="M0 0l.464.463L3.041-.85 1.729 1.729l.449.447 1.697-3.477-.393-.394z" fill="#fff"/>
          </g>
        </g>
        <g transform="translate(26.114 9.957)" id="g4542">
          <g id="g27115">
            <path id="path27117" d="M0 0a.575.575 0 0 1 .15.245.608.608 0 0 1 .017.285.962.962 0 0 1-.106.298c-.055.1-.127.193-.219.285l-.022.022a1.125 1.125 0 0 1-.289.215.96.96 0 0 1-.302.101.644.644 0 0 1-.288-.017.594.594 0 0 1-.243-.148.577.577 0 0 1-.151-.247.654.654 0 0 1-.018-.283.867.867 0 0 1 .105-.295c.055-.1.128-.195.22-.285l.021-.023c.09-.091.188-.163.29-.216a.892.892 0 0 1 .304-.101.69.69 0 0 1 .287.018A.556.556 0 0 1 0 0m.357-.373a1.215 1.215 0 0 0-.432-.284 1.163 1.163 0 0 0-.487-.075 1.374 1.374 0 0 0-.5.128 1.6 1.6 0 0 0-.467.331l-.033.033a1.641 1.641 0 0 0-.331.465 1.43 1.43 0 0 0-.13.505 1.212 1.212 0 0 0 .361.93c.128.128.271.223.432.281.162.061.325.086.492.077.166-.01.332-.053.5-.129.166-.077.322-.186.467-.331l.033-.033c.144-.144.254-.3.33-.466C.668.892.71.724.719.557A1.233 1.233 0 0 0 .642.063a1.233 1.233 0 0 0-.285-.436" fill="#fff"/>
          </g>
        </g>
        <g transform="translate(53.788 13.903)" id="g4546">
          <g id="g27119">
            <path id="path27121" d="M0 0l.463-.463L-.85-3.04l2.579 1.312.447-.449-3.477-1.697-.394.393z" fill="#fff"/>
          </g>
        </g>
        <g transform="translate(54.252 8.94)" id="g4550">
          <g id="g27123">
            <path id="path27125" d="M0 0a.583.583 0 0 1 .245-.151.609.609 0 0 1 .285-.016.94.94 0 0 1 .299.105c.099.056.193.128.285.219l.022.023c.091.091.162.186.215.288a.963.963 0 0 1 .1.303.646.646 0 0 1-.017.288.58.58 0 0 1-.148.243.578.578 0 0 1-.246.15.656.656 0 0 1-.283.019.894.894 0 0 1-.296-.105 1.276 1.276 0 0 1-.285-.22l-.023-.022A1.21 1.21 0 0 1-.063.835.922.922 0 0 1-.164.531.696.696 0 0 1-.146.243.563.563 0 0 1 0 0m-.372-.357a1.2 1.2 0 0 0-.285.432c-.06.158-.085.321-.074.487.009.167.052.334.127.5.077.167.187.323.332.467l.033.033c.142.142.297.251.465.33.168.077.336.121.505.13a1.2 1.2 0 0 0 .93-.361c.127-.127.222-.271.281-.432.061-.16.086-.324.076-.491A1.374 1.374 0 0 0 1.89.239a1.608 1.608 0 0 0-.332-.468l-.033-.033a1.586 1.586 0 0 0-.466-.33A1.39 1.39 0 0 0 .557-.72a1.216 1.216 0 0 0-.929.363" fill="#fff"/>
          </g>
        </g>
        <g transform="translate(55.45 7.022)" id="g4554">
          <g id="g27127">
            <path id="path27129" d="M0 0c-.191.19-.277.398-.262.624.018.226.131.444.342.655l1.306 1.305.415-.416L.613.98C.477.844.402.709.39.576A.435.435 0 0 1 .537.213.47.47 0 0 1 .918.061c.143.007.282.08.416.214l1.181 1.18.415-.416L.981-.909l-.415.415.284.283a1.225 1.225 0 0 0-.215-.031 1.062 1.062 0 0 0-.218.015.83.83 0 0 0-.213.074A.8.8 0 0 0 0 0" fill="#fff"/>
          </g>
        </g>
        <g transform="translate(57.23 5.256)" id="g4558">
          <g id="g27131">
            <path id="path27133" d="M0 0a.998.998 0 0 0-.172.225.588.588 0 0 0-.078.242.529.529 0 0 0 .046.259c.038.09.104.182.201.278l1.122 1.121-.214.214.357.356.213-.214.526.527.415-.416-.525-.526.437-.437-.356-.357-.438.438L.496.672C.421.597.385.523.389.453A.311.311 0 0 1 .492.25.703.703 0 0 1 .771.08L.43-.262a1.112 1.112 0 0 0-.219.094C.143-.127.071-.071 0 0" fill="#fff"/>
          </g>
        </g>
        <g transform="translate(69.284 52.405)" id="g4562">
          <g id="g27135">
            <path id="path27137" d="M0 0a1.735 1.735 0 0 0-.57-.386 1.483 1.483 0 0 0-.635-.108 1.704 1.704 0 0 0-.652.171 2.225 2.225 0 0 0-.625.451l-.03.03a2.181 2.181 0 0 0-.437.611c-.104.218-.16.438-.17.66a1.57 1.57 0 0 0 .474 1.222c.176.177.352.304.528.381.176.077.369.125.58.145l.084-.592a1.526 1.526 0 0 1-.406-.075 1.021 1.021 0 0 1-.395-.263.893.893 0 0 1-.225-.361.977.977 0 0 1-.041-.421c.016-.146.061-.293.135-.442.076-.148.18-.29.313-.422l.021-.022c.145-.145.295-.256.447-.333.155-.078.303-.123.45-.137a.93.93 0 0 1 .42.056.99.99 0 0 1 .365.24c.092.091.164.187.217.29.054.104.09.204.103.303l-.568.568-.541-.54-.375.375.945.945L.566 1.192A2.419 2.419 0 0 0 .402.587 1.802 1.802 0 0 0 0 0" fill="#fff"/>
          </g>
        </g>
        <g transform="translate(67.86 56.203)" id="g4566">
          <g id="g27139">
            <path id="path27141" d="M0 0l.398.397 2.85-.584L1.531 1.53l.414.415L4.52-.628 4.158-.99l-2.937.6L2.99-2.158l-.416-.416z" fill="#fff"/>
          </g>
        </g>
        <g transform="translate(70.902 58.472)" id="g4570">
          <g id="g27143">
            <path id="path27145" d="M0 0l1.803-1.802.355.357c.117.117.205.244.262.382.055.138.08.278.07.421a1.155 1.155 0 0 1-.121.438 1.615 1.615 0 0 1-.312.428l-.024.022a1.59 1.59 0 0 1-.431.317 1.18 1.18 0 0 1-.44.124.92.92 0 0 1-.422-.07A1.156 1.156 0 0 1 .357.356zm-.812-.041l.787.787c.183.184.38.32.591.408.211.088.426.13.643.126.219-.006.436-.056.65-.154.213-.096.416-.238.606-.428l.027-.029a2.05 2.05 0 0 0 .43-.607c.099-.215.15-.433.156-.65a1.615 1.615 0 0 0-.123-.645 1.84 1.84 0 0 0-.406-.595l-.787-.787z" fill="#fff"/>
          </g>
        </g>
        <g transform="translate(73.036 50.926)" id="g4574">
          <g id="g27147">
            <path id="path27149" d="M0 0v-2.548h.505c.166 0 .317.028.455.086a.933.933 0 0 1 .348.247c.095.107.17.239.223.395.054.156.081.331.081.525v.031c0 .198-.027.374-.081.531a1.193 1.193 0 0 1-.223.398.938.938 0 0 1-.348.249A1.178 1.178 0 0 1 .505 0zm-.604.546H.51c.26 0 .496-.044.707-.13a1.57 1.57 0 0 0 .894-.934c.083-.22.125-.463.125-.73v-.042c0-.267-.042-.511-.125-.733a1.649 1.649 0 0 0-.35-.569 1.59 1.59 0 0 0-.544-.369 1.803 1.803 0 0 0-.707-.133H-.604z" fill="#fff"/>
          </g>
        </g>
        <g transform="translate(76.13 50.868)" id="g4578">
          <g id="g27151">
            <path id="path27153" d="M0 0l-.572-.171-.099.52.843.28h.426v-3.666H0z" fill="#fff"/>
          </g>
        </g>
        <g transform="translate(73.203 29.225)" id="g4582">
          <g id="g27155">
            <path id="path27157" d="M0 0l-.521 1.462L-1.04 0zm-.801 2.268h.582l1.336-3.662H.488l-.301.859h-1.415l-.301-.859h-.609z" fill="#fff"/>
          </g>
        </g>
        <g transform="translate(75.637 28.32)" id="g4586">
          <g id="g27159">
            <path id="path27161" d="M0 0c.229 0 .411.114.548.344.138.23.206.55.206.961v.042c0 .202-.019.383-.055.548a1.438 1.438 0 0 1-.156.415.762.762 0 0 1-.242.26.55.55 0 0 1-.312.092c-.228 0-.413-.115-.551-.345-.139-.229-.209-.549-.209-.961v-.041c0-.206.019-.389.055-.55.037-.162.089-.3.156-.413A.772.772 0 0 1-.315.091.57.57 0 0 1 0 0m-.011-.547a1.206 1.206 0 0 0-1.001.508c-.12.161-.212.354-.275.582a2.745 2.745 0 0 0-.097.757v.056c0 .275.033.526.099.755.066.229.159.424.278.585.12.161.265.286.435.377.17.09.36.135.572.135.208 0 .396-.044.563-.133.168-.088.313-.213.432-.374.12-.161.213-.355.278-.582.067-.227.099-.48.099-.757v-.057c0-.278-.032-.53-.099-.757a1.788 1.788 0 0 0-.278-.582A1.209 1.209 0 0 0-.011-.547" fill="#fff"/>
          </g>
        </g>
        <g transform="translate(62.285 27.958)" id="g4590">
          <g id="g27163">
            <path id="path27165" d="M0 0c.048-.305-.013-.568-.136-.59-.125-.018-.264.213-.313.519-.049.304.012.569.136.589C-.188.538-.049.306 0 0m1.276-.29c.058-.112-.119-.316-.395-.457C.604-.888.335-.912.277-.8c-.056.113.12.317.396.457.277.141.547.165.603.053M.764-1.495c.217-.218.324-.467.235-.557-.089-.088-.338.018-.557.236-.219.218-.326.467-.236.557.089.089.338-.016.558-.236m-1.526-.836c-.111.057-.089.326.052.602.141.276.346.454.456.397.112-.058.089-.327-.052-.603-.14-.277-.343-.454-.456-.396m-.81 1.587c.019.124.284.185.589.138.305-.048.537-.188.518-.313-.019-.123-.284-.185-.589-.137-.306.048-.539.188-.518.312m.837 3.916c-.162-.026-.209-.114-.278-.327L-1.409 1.6s-.285-.754.117-1.315c.055-.075.117-.153.184-.232a3.713 3.713 0 0 1-.233.181c-.56.404-1.314.117-1.314.117l-1.245-.4c-.213-.068-.301-.114-.327-.277-.026-.163.044-.234.226-.364l1.061-.762s.629-.504 1.287-.294c.088.028.181.062.277.101a3.593 3.593 0 0 1-.245-.164c-.556-.41-.517-1.214-.517-1.214l-.005-1.307c0-.223.017-.32.164-.397.147-.074.236-.03.417.102l1.052.774s.675.444.677 1.133c0 .093-.004.193-.012.294.026-.099.053-.195.081-.284.218-.654.996-.866.996-.866l1.241-.408c.213-.07.31-.083.427.033.117.117.103.215.032.428-.052.161-.411 1.24-.411 1.24s-.213.778-.868.993a3.289 3.289 0 0 1-.283.08c.104-.007.201-.01.294-.01.69.004 1.132.679 1.132.679L3.567.515c.133.18.177.269.102.418-.075.145-.173.163-.397.162l-1.306-.007S1.16 1.125.752.568A3.563 3.563 0 0 1 .589.324c.039.095.073.189.1.277.209.657-.295 1.286-.295 1.286L-.37 2.946c-.132.182-.202.25-.365.226" fill="#fff"/>
          </g>
        </g>
        <g transform="translate(68.44 28.017)" id="g4594">
          <g id="g27167">
            <path id="path27169" d="M0 0c-.594 0-.823.765-1.066 1.574a.228.228 0 0 0 .151.285.221.221 0 0 0 .281-.149C-.474 1.177-.256.453 0 .453s.474.724.632 1.252c.235.781.476 1.583 1.069 1.583.595 0 .835-.803 1.067-1.578a.227.227 0 0 0-.152-.282.224.224 0 0 0-.282.151c-.159.53-.376 1.256-.633 1.256-.256 0-.473-.725-.633-1.254C.823.765.594 0 0 0" fill="#fff"/>
          </g>
        </g>
        <g transform="translate(24.663 42.36)" id="g4598">
          <g id="g27171">
            <path id="path27173" d="M0 0c0-.163.039-.288.118-.375a.41.41 0 0 1 .318-.129h.006c.144 0 .252.043.325.129.072.087.107.209.107.368V.45H0zm1.252.868v-.911c0-.144-.02-.273-.061-.387a.752.752 0 0 0-.176-.286.68.68 0 0 0-.242-.155.864.864 0 0 0-.313-.054H.446a.734.734 0 0 0-.473.146.836.836 0 0 0-.265.376l-.976-.594v.482l.893.536a.08.08 0 0 0-.003.026V.45h-.89v.418z" fill="#fff"/>
          </g>
        </g>
        <g transform="translate(25.915 41.115)" id="g4602">
          <g id="g27175">
            <path id="path27177" d="M0 0v-1.588h-.378v1.174h-.684v-1.041h-.377v1.041h-.703v-1.192h-.378V0z" fill="#fff"/>
          </g>
        </g>
        <g transform="translate(23.364 38.444)" id="g4606">
          <g id="g27179">
            <path id="path27181" d="M0 0c0 .163.028.321.086.476.058.153.15.298.277.435L.677.659A1.54 1.54 0 0 1 .464.358a.744.744 0 0 1-.086-.361c0-.123.03-.22.09-.291a.287.287 0 0 1 .23-.105h.004c.038 0 .074.005.11.019a.272.272 0 0 1 .1.072.647.647 0 0 1 .098.146c.032.062.066.143.102.245.046.119.092.225.139.314.047.09.1.166.158.228a.589.589 0 0 0 .463.185h.007c.103 0 .198-.02.284-.06a.652.652 0 0 0 .224-.165.744.744 0 0 0 .145-.252.95.95 0 0 0 .053-.322c0-.147-.024-.286-.072-.42a1.141 1.141 0 0 0-.224-.372l-.32.237c.07.087.127.178.171.272a.678.678 0 0 1 .067.293.406.406 0 0 1-.083.271.266.266 0 0 1-.209.097h-.004a.302.302 0 0 1-.118-.022.272.272 0 0 1-.103-.079.906.906 0 0 1-.101-.158 2.805 2.805 0 0 1-.113-.264 2.116 2.116 0 0 0-.141-.303.899.899 0 0 0-.16-.212.585.585 0 0 0-.196-.127.673.673 0 0 0-.245-.041H.727c-.111 0-.21.02-.3.061a.638.638 0 0 0-.229.171.813.813 0 0 0-.146.26A.993.993 0 0 0 0 0" fill="#fff"/>
          </g>
        </g>
        <g transform="translate(25.915 37.404)" id="g4610">
          <g id="g27183">
            <path id="path27185" d="M0 0v-1.588h-.378v1.174h-.684v-1.041h-.377v1.041h-.703v-1.191h-.378V0z" fill="#fff"/>
          </g>
        </g>
        <g transform="translate(25.527 34.978)" id="g4614">
          <g id="g27187">
            <path id="path27189" d="M0 0v.663h.389v-1.742H0v.662h-2.131V0z" fill="#fff"/>
          </g>
        </g>
      </g>
    </g>
  </g>
  <g transform="translate(-.846 -6.921) scale(2.36354)" id="g4622">
    <g id="g10154">
      <text id="text10158" x="31.385" font-size="5.512" y="62.13" font-family="OCRA" fill="#fff" stroke-width="0">
        +
      </text>
    </g>
  </g>
  <g transform="translate(-.846 -6.921) scale(2.36354)" id="g4626">
    <g id="g10160">
      <text id="text10164" x="44.705" font-size="5.512" y="62.13" font-family="OCRA" fill="#fff" stroke-width="0">
        -
      </text>
    </g>
  </g>
  <g id="g10238" transform="translate(-.001 -2.981) scale(2.36354)">
    <g id="g10242" stroke="#fff" stroke-width=".576" stroke-linecap="round">
      <path id="line10246" d="M46.043 76.753H33.287"/>
      <path id="line10248" d="M28.326 66.832V55.494"/>
      <path id="line10250" d="M28.326 55.494h2.41"/>
      <path id="line10252" d="M30.736 55.494v7.086"/>
      <path id="line10254" d="M30.736 62.58h3.968"/>
      <path id="line10256" d="M44.626 62.58h3.968"/>
      <path id="line10258" d="M48.594 62.58v-7.086"/>
      <path id="line10260" d="M48.594 55.494h2.41"/>
      <path id="line10262" d="M51.004 55.494v11.338"/>
    </g>
  </g>
  <g id="g10316" transform="translate(-.001 -2.981) scale(2.36354)">
    <g id="g10320" stroke="#fff" stroke-width=".36" stroke-linecap="round">
      <path id="line10324" d="M28.69 23.802h-1.7"/>
      <path id="line10326" d="M26.99 23.802v1.7"/>
      <path id="line10328" d="M40.596 23.802h1.7"/>
      <path id="line10330" d="M42.297 23.802v1.7"/>
      <path id="line10332" d="M26.99 37.408v1.7"/>
      <path id="line10334" d="M26.99 39.109h1.7"/>
      <path id="line10336" d="M42.297 37.408v1.7"/>
      <path id="line10338" d="M42.297 39.109h-1.701"/>
    </g>
  </g>
  <g id="g10340" transform="translate(-.001 -2.981) scale(2.36354)">
    <g id="g10344" stroke="#fff" stroke-width=".36" stroke-linecap="round">
      <path id="line10348" d="M24.783 25.095v5.67"/>
      <path id="line10350" d="M18.547 25.095v5.67"/>
      <path id="line10352" d="M25.917 31.048v-.85"/>
      <path id="line10354" d="M25.917 30.197v-.283"/>
      <path id="line10356" d="M25.917 29.914l-.567.567"/>
      <path id="line10358" d="M25.35 30.48l.567.568"/>
      <path id="line10360" d="M25.917 31.048v-.284"/>
      <path id="line10362" d="M25.917 30.764l-.284-.283"/>
    </g>
  </g>
  <g id="g10364" transform="translate(-.001 -2.981) scale(2.36354)">
    <g id="g10368">
      <g id="g10372">
        <path id="path10376" d="M56.981 26.85l-.9.72v-1.44l.9.72m-.828-.663v1.325-1.325" fill="none" stroke="#fff" stroke-width=".432" stroke-linecap="round"/>
      </g>
      <g transform="rotate(90 15.156 42.005)" id="g4693">
        <g id="g10378">
          <path id="rect10380" d="M-1.08-.18h2.16v.36h-2.16z" fill="#fff" stroke-width="0"/>
        </g>
      </g>
    </g>
  </g>
  <g id="g10382" transform="translate(-.001 -2.981) scale(2.36354)">
    <g id="g10386" stroke="#fff" stroke-width=".576" stroke-linecap="round">
      <path id="line10390" d="M22.929 34.757v11.906"/>
      <path id="line10392" d="M14.281 46.663V34.757"/>
    </g>
  </g>
  <g id="g10404" transform="translate(-.001 -2.981) scale(2.36354)">
    <g id="g10408" stroke="#fff" stroke-width=".36" stroke-linecap="round">
      <path id="line10412" d="M49.824 49.654V29.245"/>
      <path id="line10414" d="M49.824 29.245h9.922"/>
      <path id="line10416" d="M59.746 29.245v20.41"/>
      <path id="line10418" d="M59.746 49.654h-9.922"/>
    </g>
  </g>
  <g id="g16460" transform="translate(-.001 -2.981) scale(2.36354)">
    <g id="g16464" stroke="#fff" stroke-width=".36" stroke-linecap="round">
      <path id="line16468" d="M46.752 17.008h-2.268"/>
      <path id="line16470" d="M34.846 17.008h-2.268"/>
      <path id="line16472" d="M50.437 4.252V1.701"/>
      <path id="line16474" d="M50.437 1.7H28.893"/>
      <path id="line16476" d="M28.893 1.7v2.552"/>
    </g>
  </g>
  <g transform="translate(200.899 270.062) scale(2.36354)" id="g4756">
    <g id="g16506">
      <path id="connector12pin" d="M41.082 51.242h2.835v13.04h-2.835z" fill="#9a916c" stroke-width="0"/>
    </g>
  </g>
  <g transform="translate(174.1 270.062) scale(2.36354)" id="g4760">
    <g id="g16509">
      <path id="connector13pin" d="M35.413 51.242h2.835v13.04h-2.835z" fill="#9a916c" stroke-width="0"/>
    </g>
  </g>
  <g transform="rotate(90 118.02 169.87) scale(2.36354)" id="g4764">
    <g id="g16512">
      <path id="connector14pin" d="M44.484 70.234h9.638v4.535h-9.638z" fill="#9a916c" stroke-width="0"/>
    </g>
  </g>
  <g transform="rotate(90 72.46 169.87) scale(2.36354)" id="g4768">
    <g id="g16515">
      <path id="connector15pin" d="M25.208 70.234h9.638v4.535h-9.638z" fill="#9a916c" stroke-width="0"/>
    </g>
  </g>
  <g transform="rotate(-90 63.64 61.13) scale(2.36354)" id="g4788">
    <g id="g16531">
      <path id="connector21pin" d="M27.202 25.36h.709v2.268h-.709z" fill="#9a916c" stroke-width="0"/>
    </g>
  </g>
  <g transform="rotate(-90 63.64 64.481) scale(2.36354)" id="g4792">
    <g id="g16534">
      <path id="connector22pin" d="M27.202 26.778h.709v2.268h-.709z" fill="#9a916c" stroke-width="0"/>
    </g>
  </g>
  <g transform="rotate(-90 63.64 67.83) scale(2.36354)" id="g4796">
    <g id="g16537">
      <path id="connector23pin" d="M27.202 28.195h.709v2.268h-.709z" fill="#9a916c" stroke-width="0"/>
    </g>
  </g>
  <g transform="rotate(-90 63.64 71.18) scale(2.36354)" id="g4800">
    <g id="g16540">
      <path id="connector24pin" d="M27.202 29.613h.709v2.267h-.709z" fill="#9a916c" stroke-width="0"/>
    </g>
  </g>
  <g transform="rotate(-90 63.64 74.53) scale(2.36354)" id="g4804">
    <g id="g16543">
      <path id="connector25pin" d="M27.202 31.03h.709v2.268h-.709z" fill="#9a916c" stroke-width="0"/>
    </g>
  </g>
  <g transform="rotate(-90 63.64 77.88) scale(2.36354)" id="g4808">
    <g id="g16546">
      <path id="connector26pin" d="M27.202 32.447h.709v2.268h-.709z" fill="#9a916c" stroke-width="0"/>
    </g>
  </g>
  <g transform="rotate(-90 63.64 81.23) scale(2.36354)" id="g4812">
    <g id="g16549">
      <path id="connector27pin" d="M27.202 33.865h.709v2.267h-.709z" fill="#9a916c" stroke-width="0"/>
    </g>
  </g>
  <g transform="rotate(-90 63.64 84.58) scale(2.36354)" id="g4816">
    <g id="g16552">
      <path id="connector28pin" d="M27.202 35.282h.709v2.268h-.709z" fill="#9a916c" stroke-width="0"/>
    </g>
  </g>
  <g transform="translate(140.31 179.21) scale(2.36354)" id="g4820">
    <g id="g16555">
      <path id="connector29pin" d="M29.328 37.408h.709v2.268h-.709z" fill="#9a916c" stroke-width="0"/>
    </g>
  </g>
  <g transform="translate(147.01 179.21) scale(2.36354)" id="g4824">
    <g id="g16558">
      <path id="connector30pin" d="M30.745 37.408h.71v2.268h-.71z" fill="#9a916c" stroke-width="0"/>
    </g>
  </g>
  <g transform="translate(153.71 179.21) scale(2.36354)" id="g4828">
    <g id="g16561">
      <path id="connector31pin" d="M32.163 37.408h.709v2.268h-.71z" fill="#9a916c" stroke-width="0"/>
    </g>
  </g>
  <g transform="translate(160.41 179.21) scale(2.36354)" id="g4832">
    <g id="g16564">
      <path id="connector32pin" d="M33.58 37.408h.709v2.268h-.709z" fill="#9a916c" stroke-width="0"/>
    </g>
  </g>
  <g transform="translate(167.11 179.21) scale(2.36354)" id="g4836">
    <g id="g16567">
      <path id="connector33pin" d="M34.998 37.408h.708v2.268h-.709z" fill="#9a916c" stroke-width="0"/>
    </g>
  </g>
  <g transform="translate(173.809 179.21) scale(2.36354)" id="g4840">
    <g id="g16570">
      <path id="connector34pin" d="M36.415 37.408h.709v2.268h-.71z" fill="#9a916c" stroke-width="0"/>
    </g>
  </g>
  <g transform="translate(180.508 179.21) scale(2.36354)" id="g4844">
    <g id="g16573">
      <path id="connector35pin" d="M37.832 37.408h.709v2.268h-.709z" fill="#9a916c" stroke-width="0"/>
    </g>
  </g>
  <g transform="translate(187.208 179.21) scale(2.36354)" id="g4848">
    <g id="g16576">
      <path id="connector36pin" d="M39.25 37.408h.708v2.268h-.709z" fill="#9a916c" stroke-width="0"/>
    </g>
  </g>
  <g transform="rotate(90 100.12 84.58) scale(2.36354)" id="g4852">
    <g id="g16579">
      <path id="connector37pin" d="M41.375 35.282h.71v2.268h-.71z" fill="#9a916c" stroke-width="0"/>
    </g>
  </g>
  <g transform="rotate(90 100.12 81.229) scale(2.36354)" id="g4856">
    <g id="g16582">
      <path id="connector38pin" d="M41.375 33.865h.71v2.267h-.71z" fill="#9a916c" stroke-width="0"/>
    </g>
  </g>
  <g transform="rotate(90 100.12 77.879) scale(2.36354)" id="g4860">
    <g id="g16585">
      <path id="connector39pin" d="M41.375 32.447h.71v2.268h-.71z" fill="#9a916c" stroke-width="0"/>
    </g>
  </g>
  <g transform="rotate(90 100.12 74.53) scale(2.36354)" id="g4864">
    <g id="g16588">
      <path id="connector40pin" d="M41.375 31.03h.71v2.268h-.71z" fill="#9a916c" stroke-width="0"/>
    </g>
  </g>
  <g transform="rotate(90 100.12 71.179) scale(2.36354)" id="g4868">
    <g id="g16591">
      <path id="connector41pin" d="M41.375 29.613h.71v2.267h-.71z" fill="#9a916c" stroke-width="0"/>
    </g>
  </g>
  <g transform="rotate(90 100.12 67.83) scale(2.36354)" id="g4872">
    <g id="g16594">
      <path id="connector42pin" d="M41.375 28.195h.71v2.268h-.71z" fill="#9a916c" stroke-width="0"/>
    </g>
  </g>
  <g transform="rotate(90 100.12 64.48) scale(2.36354)" id="g4876">
    <g id="g16597">
      <path id="connector43pin" d="M41.375 26.778h.71v2.268h-.71z" fill="#9a916c" stroke-width="0"/>
    </g>
  </g>
  <g transform="rotate(90 100.12 61.13) scale(2.36354)" id="g4880">
    <g id="g16600">
      <path id="connector44pin" d="M41.375 25.36h.71v2.268h-.71z" fill="#9a916c" stroke-width="0"/>
    </g>
  </g>
  <path id="connector45pin" d="M92.766 51.935h1.675v5.36h-1.675z" fill="#9a916c" stroke-width="0"/>
  <path id="connector46pin" d="M89.416 51.935h1.675v5.36h-1.675z" fill="#9a916c" stroke-width="0"/>
  <path id="connector47pin" d="M86.067 51.935h1.675v5.36h-1.675z" fill="#9a916c" stroke-width="0"/>
  <path id="connector48pin" d="M82.717 51.935h1.675v5.36h-1.675z" fill="#9a916c" stroke-width="0"/>
  <path id="connector49pin" d="M79.367 51.935h1.675v5.36h-1.675z" fill="#9a916c" stroke-width="0"/>
  <path id="connector50pin" d="M76.017 51.935h1.675v5.36h-1.675z" fill="#9a916c" stroke-width="0"/>
  <path id="connector51pin" d="M72.667 51.935h1.675v5.36h-1.675z" fill="#9a916c" stroke-width="0"/>
  <path id="connector52pin" d="M69.317 51.935h1.675v5.36h-1.675z" fill="#9a916c" stroke-width="0"/>
  <rect rx="1.173" height="23.449" id="connector53pin" ry="1.173" x="70.154" y="59.64" width="23.449" fill="#9a916c" stroke-width="0"/>
  <g transform="rotate(90 57.721 70.886) scale(2.36354)" id="g4893">
    <g id="g16612">
      <path id="connector54pin" d="M22.799 30.127h1.984v.992H22.8z" fill="#9a916c" stroke-width="0"/>
    </g>
  </g>
  <g transform="rotate(90 52.696 70.887) scale(2.36354)" id="g4897">
    <g id="g16615">
      <path id="connector55pin" d="M20.673 30.127h1.984v.992h-1.984z" fill="#9a916c" stroke-width="0"/>
    </g>
  </g>
  <g transform="rotate(90 47.671 70.887) scale(2.36354)" id="g4901">
    <g id="g16618">
      <path id="connector56pin" d="M18.547 30.127h1.984v.992h-1.984z" fill="#9a916c" stroke-width="0"/>
    </g>
  </g>
  <g transform="rotate(90 47.671 58.157) scale(2.36354)" id="g4905">
    <g id="g16621">
      <path id="connector57pin" d="M18.547 24.74h1.984v.993h-1.984z" fill="#9a916c" stroke-width="0"/>
    </g>
  </g>
  <g transform="rotate(90 52.696 58.157) scale(2.36354)" id="g4909">
    <g id="g16624">
      <path id="connector58pin" d="M20.673 24.74h1.984v.993h-1.984z" fill="#9a916c" stroke-width="0"/>
    </g>
  </g>
  <g transform="rotate(90 57.721 58.157) scale(2.36354)" id="g4913">
    <g id="g16627">
      <path id="connector59pin" d="M22.799 24.74h1.984v.993H22.8z" fill="#9a916c" stroke-width="0"/>
    </g>
  </g>
  <g transform="rotate(90 130.206 61.97) scale(2.36354)" id="g4917">
    <g id="g16630">
      <path id="connector60pin" d="M53.325 25.716h2.268v2.268h-2.268z" fill="#9a916c" stroke-width="0"/>
    </g>
  </g>
  <g transform="rotate(90 140.256 61.969) scale(2.36354)" id="g4921">
    <g id="g16633">
      <path id="connector61pin" d="M57.577 25.716h2.268v2.268h-2.268z" fill="#9a916c" stroke-width="0"/>
    </g>
  </g>
  <g transform="rotate(90 50.823 108.462) scale(2.36354)" id="g4925">
    <g id="g16636">
      <path id="connector62pin" d="M19.597 45.245h2.551v2.551h-2.55z" fill="#9a916c" stroke-width="0"/>
    </g>
  </g>
  <g transform="rotate(90 50.824 80.993) scale(2.36354)" id="g4929">
    <g id="g16639">
      <path id="connector63pin" d="M19.597 33.623h2.551v2.551h-2.55z" fill="#9a916c" stroke-width="0"/>
    </g>
  </g>
  <g transform="rotate(90 40.104 108.462) scale(2.36354)" id="g4933">
    <g id="g16642">
      <path id="connector64pin" d="M15.062 45.245h2.55v2.551h-2.55z" fill="#9a916c" stroke-width="0"/>
    </g>
  </g>
  <g transform="rotate(90 40.104 80.993) scale(2.36354)" id="g4937">
    <g id="g16645">
      <path id="connector65pin" d="M15.062 33.623h2.55v2.551h-2.55z" fill="#9a916c" stroke-width="0"/>
    </g>
  </g>
  <g transform="rotate(-90 109.236 108.5) scale(2.36354)" id="g4949">
    <g id="g16654">
      <path id="connector68pin" d="M45.43 44.41h2.835v4.252h-2.834z" fill="#9a916c" stroke-width="0"/>
    </g>
  </g>
  <g transform="rotate(-90 146.755 108.501) scale(2.36354)" id="g4953">
    <g id="g16657">
      <path id="connector69pin" d="M61.305 44.41h2.834v4.252h-2.834z" fill="#9a916c" stroke-width="0"/>
    </g>
  </g>
  <g transform="rotate(-90 109.236 91.751) scale(2.36354)" id="g4957">
    <g id="g16660">
      <path id="connector70pin" d="M45.43 37.324h2.835v4.252h-2.834z" fill="#9a916c" stroke-width="0"/>
    </g>
  </g>
  <g transform="rotate(-90 146.755 91.751) scale(2.36354)" id="g4961">
    <g id="g16663">
      <path id="connector71pin" d="M61.305 37.324h2.834v4.252h-2.834z" fill="#9a916c" stroke-width="0"/>
    </g>
  </g>
  <g transform="rotate(-90 109.236 75.001) scale(2.36354)" id="g4965">
    <g id="g16666">
      <path id="connector72pin" d="M45.43 30.237h2.835v4.252h-2.834z" fill="#9a916c" stroke-width="0"/>
    </g>
  </g>
  <g transform="rotate(-90 146.755 75.002) scale(2.36354)" id="g4969">
    <g id="g16669">
      <path id="connector73pin" d="M61.305 30.237h2.834v4.252h-2.834z" fill="#9a916c" stroke-width="0"/>
    </g>
  </g>
  <rect rx="3.35" height="6.7" id="connector75pin" ry="3.35" x="89.548" y="166.487" width="6.7" fill="#9a916c" stroke-width="0"/>
  <g transform="rotate(90 100.265 17.938) scale(2.36354)" id="g4998">
    <g id="g16692">
      <path id="connector82pin" d="M38.956 6.803h5.67v2.835h-5.67z" fill="#9a916c" stroke-width="0"/>
    </g>
  </g>
  <g transform="rotate(90 90.215 17.938) scale(2.36354)" id="g5002">
    <g id="g16695">
      <path id="connector83pin" d="M34.704 6.803h5.67v2.835h-5.67z" fill="#9a916c" stroke-width="0"/>
    </g>
  </g>
  <g transform="translate(187.499 73.061) scale(2.36354)" id="g5006">
    <g id="g16698">
      <path id="connector84pin" d="M39.098 14.173h1.134V18h-1.134z" fill="#9a916c" stroke-width="0"/>
    </g>
  </g>
  <g transform="translate(196.208 73.061) scale(2.36354)" id="g5010">
    <g id="g16701">
      <path id="connector85pin" d="M40.94 14.173h1.135V18H40.94z" fill="#9a916c" stroke-width="0"/>
    </g>
  </g>
  <g transform="translate(170.08 73.061) scale(2.36354)" id="g5014">
    <g id="g16704">
      <path id="connector86pin" d="M35.413 14.173h1.134V18h-1.134z" fill="#9a916c" stroke-width="0"/>
    </g>
  </g>
  <g transform="translate(178.788 73.061) scale(2.36354)" id="g5018">
    <g id="g16707">
      <path id="connector87pin" d="M37.255 14.173h1.134V18h-1.134z" fill="#9a916c" stroke-width="0"/>
    </g>
  </g>
  <circle r="3.531" id="connector88pin" cx="115.858" cy="35.877" fill="none" stroke="#9a916c" stroke-width="1.702"/>
  <path id="path16711" d="M112.327 32.347h10.593v7.061h-10.593v-7.061m0 3.53a3.53 3.53 0 0 0 7.062 0 3.53 3.53 0 1 0-7.062 0z" fill="#9a916c" stroke-width="0"/>
  <circle r="3.531" id="connector89pin" cx="71.639" cy="35.877" fill="none" stroke="#9a916c" stroke-width="1.702"/>
  <path id="path16714" d="M64.578 32.347H75.17v7.061H64.578v-7.061m3.53 3.53a3.53 3.53 0 1 0 7.062 0 3.53 3.53 0 1 0-7.062 0z" fill="#9a916c" stroke-width="0"/>
  <circle r="5.549" id="connector90pin" cx="117.868" cy="17.118" fill="none" stroke="#9a916c" stroke-width="5.068"/>
  <path id="rect16717" d="M112.319 11.569h11.098v11.098h-11.098z" fill="none" stroke="#9a916c" stroke-width="5.068"/>
  <circle r="5.549" id="connector91pin" cx="69.629" cy="17.118" fill="none" stroke="#9a916c" stroke-width="5.068"/>
  <path id="rect16720" d="M64.08 11.569h11.098v11.098H64.08z" fill="none" stroke="#9a916c" stroke-width="5.068"/>
  <g transform="translate(204.918 73.061) scale(2.36354)" id="g5030">
    <g id="g16722">
      <path id="connector92pin" d="M42.783 14.173h1.134V18h-1.134z" fill="#9a916c" stroke-width="0"/>
    </g>
  </g>
  <g transform="translate(66.95 118.8) scale(2.36354)" id="g5068">
    <g transform="rotate(180 11.338 12.756)" id="jstph2">
      <g id="g16779">
        <g id="g16781">
          <path id="polygon16783" d="M2.835 2.126H0v14.882h22.677V2.126h-2.834V0H2.835z" fill="#666"/>
          <path id="rect16785" d="M4.252 5.669h2.835v8.504H4.252z"/>
          <path id="rect16787" d="M15.591 5.669h2.835v8.504h-2.835z"/>
          <path id="rect16789" d="M4.252 14.173h2.835v2.835H4.252z" fill="#333"/>
          <path id="rect16791" d="M15.591 14.173h2.835v2.835h-2.835z" fill="#333"/>
          <path id="rect16793" d="M0 17.008h2.268v4.252H0z" fill="#333"/>
          <path id="rect16795" d="M20.409 17.008h2.268v4.252h-2.268z" fill="#333"/>
          <path id="rect16797" d="M7.512 17.008h1.984v7.087H7.512z" fill="#dcdcdc"/>
          <path id="rect16799" d="M13.181 17.008h1.984v7.087h-1.984z" fill="#dcdcdc"/>
        </g>
      </g>
    </g>
  </g>
  <g transform="translate(65.13 54.615) scale(2.36354)" id="g5088">
    <g transform="scale(1.25)" id="qfn32_5mm">
      <g id="g3335">
        <rect height="11.339" rx=".567" id="rect16837" ry=".567" width="11.339" x="0" y="0" fill="#333"/>
        <circle r=".538" id="path3333" cx="1.268" cy="1.321" fill="#666"/>
      </g>
    </g>
  </g>
  <g transform="translate(44.157 56.332) scale(2.36354)" id="NEOPIXEL">
    <g transform="rotate(-90 2.834 2.834)" id="apa102_2020">
      <g id="g16841">
        <style id="style16843">
          .st0{fill:#9c8f6d}.st1{fill:#807c73}
        </style>
        <g id="g16845">
          <path id="rect16847" class="st0" d="M0 0h5.669v5.669H0z" fill="#9c8f6d"/>
          <path id="rect16849" class="st1" d="M.425 1.134h3.402v3.402H.425z" fill="#807c73"/>
        </g>
      </g>
    </g>
  </g>
  <path d="M138.414 63.16h-9.348a.686.686 0 0 1-.686-.686v-3.99c0-.378.308-.685.686-.685h9.348c.378 0 .685.307.685.685v3.987a.686.686 0 0 1-.685.688z" id="path16854" fill="#dcdcdc" stroke-width="2.364"/>
  <g id="LED" transform="translate(131.06 55.119) scale(2.36354)">
    <path d="M0 1.134h2.268v2.268H0z" id="rect16856" fill="red"/>
  </g>
  <path id="polygon16865" d="M51.009 104.963h3.013v-23.45H51.01v-3.35h-3.35v3.35h-7.371v-3.35h-3.35v3.35h-3.015v23.45h3.015v3.35h3.35v-3.35h7.371v3.35h3.35z" fill="#dcdcdc" stroke-width="2.364"/>
  <circle r="5.862" id="RESETBTN" cx="93.238" cy="-43.972" transform="rotate(90)" fill="#1e1e1e" stroke-width="2.364"/>
  <path id="rect16869" d="M54.022 80.508v1.34h-20.1v-1.34z" fill="#b4b4b4" stroke-width="2.364"/>
  <path id="rect16871" d="M54.022 104.628v1.34h-20.1v-1.34z" fill="#b4b4b4" stroke-width="2.364"/>
  <g id="eg1390" transform="rotate(90 41.357 108.218) scale(2.36354)">
    <g id="g16881">
      <style id="style16883">
        .st0{fill:#dcdcdc}.st1{fill:#b4b4b4}
      </style>
      <g id="g16885">
        <path d="M15.9 0h2.3v17h-2.3z" class="st0" id="rect16887" fill="#dcdcdc"/>
        <path d="M8.8 0h2.3v17H8.8z" class="st0" id="rect16889" fill="#dcdcdc"/>
        <path d="M1.7 0H4v17H1.7z" class="st0" id="rect16891" fill="#dcdcdc"/>
        <path d="M15.9 2.8h2.3v11.3h-2.3z" class="st1" id="rect16893" fill="#b4b4b4"/>
        <path d="M8.8 2.8h2.3v11.3H8.8z" class="st1" id="rect16895" fill="#b4b4b4"/>
        <path d="M1.7 2.8H4v11.3H1.7z" class="st1" id="rect16897" fill="#b4b4b4"/>
        <path d="M0 3.5h19.8v9.9H0z" id="rect16899"/>
        <path d="M19.8 10.6V6.4h-1.4V3.5h-4.2v2.9H5.7V3.5H1.4v2.9H0v4.2h1.4v2.9h17v-2.9z" class="st0" id="polygon16901" fill="#dcdcdc"/>
        <path d="M9.9 3.5h4.3v2.8H9.9z" id="rect16903" fill="#333"/>
        <circle cy="8.5" cx="7.8" class="st1" id="circle16905" r="1.4" fill="#b4b4b4"/>
        <circle cy="8.5" cx="12" class="st1" id="circle16907" r="1.4" fill="#b4b4b4"/>
      </g>
    </g>
  </g>
  <g id="g5151" transform="translate(19.387 131.302) scale(2.36354)">
    <g id="sewalli" transform="rotate(-135 7.795 6.662)">
      <g id="g16726">
        <path d="M3.118 6.661a4.677 4.677 0 1 1 9.354 0 4.677 4.677 0 0 1-9.354 0zm4.677 6.662a7.795 7.795 0 0 0 7.795-7.795V.994A72.712 72.712 0 0 0 7.795.567C5.16.567 2.562.718 0 .994v4.534a7.795 7.795 0 0 0 7.795 7.795z" id="connector0pin" fill="#9a916c"/>
      </g>
    </g>
  </g>
  <g id="g5156" transform="translate(-3.701 75.366) scale(2.36354)">
    <g id="g16730" transform="rotate(-90 7.795 6.662)">
      <g id="g16732">
        <path d="M3.118 6.661a4.677 4.677 0 1 1 9.354 0 4.677 4.677 0 0 1-9.354 0zm4.677 6.662a7.795 7.795 0 0 0 7.795-7.795V.994A72.712 72.712 0 0 0 7.795.567C5.16.567 2.562.718 0 .994v4.534a7.795 7.795 0 0 0 7.795 7.795z" id="connector1pin" fill="#9a916c"/>
      </g>
    </g>
  </g>
  <g id="g5161" transform="translate(154.348 75.366) scale(2.36354)">
    <g id="g16736" transform="rotate(90 7.795 6.662)">
      <g id="g16738">
        <path d="M3.118 6.661a4.677 4.677 0 1 1 9.354 0 4.677 4.677 0 0 1-9.354 0zm4.677 6.662a7.795 7.795 0 0 0 7.795-7.795V.994A72.712 72.712 0 0 0 7.795.567C5.16.567 2.562.718 0 .994v4.534a7.795 7.795 0 0 0 7.795 7.795z" id="connector2pin" fill="#9a916c"/>
      </g>
    </g>
  </g>
  <g id="g5166" transform="translate(19.387 19.43) scale(2.36354)">
    <g id="g16742" transform="rotate(-45 7.795 6.662)">
      <g id="g16744">
        <path d="M3.118 6.661a4.677 4.677 0 1 1 9.354 0 4.677 4.677 0 0 1-9.354 0zm4.677 6.662a7.795 7.795 0 0 0 7.795-7.795V.994A72.712 72.712 0 0 0 7.795.567C5.16.567 2.562.718 0 .994v4.534a7.795 7.795 0 0 0 7.795 7.795z" id="connector3pin" fill="#9a916c"/>
      </g>
    </g>
  </g>
  <g id="g5171" transform="translate(131.26 19.43) scale(2.36354)">
    <g id="g16826" transform="rotate(45 7.795 6.662)">
      <g id="g16828">
        <path d="M3.118 6.661a4.677 4.677 0 1 1 9.354 0 4.677 4.677 0 0 1-9.354 0zm4.677 6.662a7.795 7.795 0 0 0 7.795-7.795V.994A72.712 72.712 0 0 0 7.795.567C5.16.567 2.562.718 0 .994v4.534a7.795 7.795 0 0 0 7.795 7.795z" id="connector20pin" fill="#9a916c"/>
      </g>
    </g>
  </g>
  <g id="g5176" transform="translate(131.26 131.302) scale(2.36354)">
    <g id="g16922" transform="rotate(135 7.795 6.662)">
      <g id="g16924">
        <path d="M3.118 6.661a4.677 4.677 0 1 1 9.354 0 4.677 4.677 0 0 1-9.354 0zm4.677 6.662a7.795 7.795 0 0 0 7.795-7.795V.994A72.712 72.712 0 0 0 7.795.567C5.16.567 2.562.718 0 .994v4.534a7.795 7.795 0 0 0 7.795 7.795z" id="connector81pin" fill="#9a916c"/>
      </g>
    </g>
  </g>
  <g transform="translate(66.95) scale(2.36354)" id="g5196">
    <g transform="rotate(180 11.338 8.327)" id="4uconn_20329_v2">
      <g id="g16929">
        <g id="g16931">
          <path id="rect16933" d="M0 7.157h22.677v3.969H0z" fill="#b4b4b4"/>
          <path id="rect16935" d="M11.055 0h.567v3.402h-.567z" fill="#dcdcdc"/>
          <path id="rect16937" d="M12.898 0h.567v3.402h-.567z" fill="#dcdcdc"/>
          <path id="rect16939" d="M14.74 0h.567v3.402h-.567z" fill="#dcdcdc"/>
          <path id="rect16941" d="M9.213 0h.567v3.402h-.567z" fill="#dcdcdc"/>
          <path id="rect16943" d="M7.37 0h.567v3.402H7.37z" fill="#dcdcdc"/>
          <path id="rect16945" d="M4.252 1.489h14.173v.709H4.252z" fill="#b4b4b4"/>
          <path id="rect16947" d="M4.252 1.771h14.173v2.976H4.252z"/>
          <path id="polygon16949" d="M14.74 3.473v.709h-1.417V1.63H9.354v2.552H7.937v-.709H5.669V1.347H.567v13.606H22.11V1.347h-5.102v2.126z" fill="#dcdcdc"/>
          <path id="polygon16951" d="M4.11 7.867h1.417l.284 4.252H3.827z"/>
          <path id="polygon16953" d="M17.149 7.867h1.418l.283 4.252h-1.984z"/>
          <path id="polygon16955" d="M1.134 14.953h20.409l-.567 1.701-19.275-.001z" fill="#f0f0f0"/>
          <path id="polygon16957" d="M.567 14.953h.567l-.567 1.7H0z" fill="#b4b4b4"/>
          <path id="polygon16959" d="M21.543 14.953h.567l.567 1.701h-.567z" fill="#b4b4b4"/>
        </g>
      </g>
    </g>
  </g>
  <g transform="matrix(2.36354 0 0 -2.36354 50.11 15.652)" id="g5200">
    <g id="g27047">
      <path id="path27049" d="M0 0l.666 1.4L-.735.734zm1.037 2.169l.411-.411-1.643-3.533-.445.444.394.819L-1.247.489l-.819-.393-.431.429z" fill="#fff"/>
    </g>
  </g>
  <g transform="matrix(2.36354 0 0 -2.36354 55.603 15.652)" id="g5204">
    <g id="g27051">
      <path id="path27053" d="M0 0l-.526.283.298.438.794-.397.302-.303-2.593-2.591-.422.423z" fill="#fff"/>
    </g>
  </g>
  <circle id="D2_A1_SDA_MOSI" cx="37.845" cy="35.243" r="11.522" fill="#fff" fill-opacity="1" fill-rule="nonzero" stroke="none" stroke-width="25.213" stroke-linecap="round" stroke-linejoin="round" stroke-miterlimit="4" stroke-dasharray="none" stroke-dashoffset="0" stroke-opacity="1"/>
  <circle id="D0_A2_SCL_SCK" cx="14.624" cy="90.914" r="11.522" fill="#fff" fill-opacity="1" fill-rule="nonzero" stroke="none" stroke-width="1.536" stroke-linecap="round" stroke-linejoin="round" stroke-miterlimit="4" stroke-dasharray="none" stroke-dashoffset="0" stroke-opacity="1"/>
  <circle id="3V" cx="37.658" cy="147.218" r="11.522" fill="#fff" fill-opacity="1" fill-rule="nonzero" stroke="none" stroke-width="25.213" stroke-linecap="round" stroke-linejoin="round" stroke-miterlimit="4" stroke-dasharray="none" stroke-dashoffset="0" stroke-opacity="1"/>
  <circle id="VOUT" cx="149.657" cy="146.975" r="11.522" fill="#fff" fill-opacity="1" fill-rule="nonzero" stroke="none" stroke-width="25.213" stroke-linecap="round" stroke-linejoin="round" stroke-miterlimit="4" stroke-dasharray="none" stroke-dashoffset="0" stroke-opacity="1"/>
  <circle id="D1_A0" cx="173.299" cy="90.671" r="11.522" fill="#fff" fill-opacity="1" fill-rule="nonzero" stroke="none" stroke-width="25.213" stroke-linecap="round" stroke-linejoin="round" stroke-miterlimit="4" stroke-dasharray="none" stroke-dashoffset="0" stroke-opacity="1"/>
  <circle id="GND" cx="149.778" cy="35.098" r="11.522" fill="#fff" fill-opacity="1" fill-rule="nonzero" stroke="none" stroke-width="25.213" stroke-linecap="round" stroke-linejoin="round" stroke-miterlimit="4" stroke-dasharray="none" stroke-dashoffset="0" stroke-opacity="1"/>
</svg>
