<svg xmlns="http://www.w3.org/2000/svg" version="1.2" height="86.4" width="193.719" viewBox="0 0 145.29 64.8"><path d="M8.49 64.8a7.2 7.2 0 0 1-7.2-7.2v-18l1.44-1.44V26.64L1.29 25.2v-18A7.2 7.2 0 0 1 8.49 0h129.6a7.2 7.2 0 0 1 7.2 7.2v50.4a7.2 7.2 0 0 1-7.2 7.2H8.49m4.408-37.928a.992.992 0 1 0 1.984 0 .992.992 0 1 0-1.984 0zm0 11.056a.992.992 0 1 0 1.984 0 .992.992 0 1 0-1.984 0zM134.49 7.2a3.6 3.6 0 1 0 7.2 0 3.6 3.6 0 1 0-7.2 0zm0 50.4a3.6 3.6 0 1 0 7.2 0 3.6 3.6 0 1 0-7.2 0zm-8.617 3.6a1.417 1.417 0 1 0 2.835 0 1.417 1.417 0 1 0-2.835 0zm-7.2 0a1.417 1.417 0 1 0 2.835 0 1.417 1.417 0 1 0-2.835 0zm-7.2 0a1.417 1.417 0 1 0 2.835 0 1.417 1.417 0 1 0-2.835 0zm-7.2 0a1.417 1.417 0 1 0 2.835 0 1.417 1.417 0 1 0-2.835 0zm-7.2 0a1.417 1.417 0 1 0 2.834 0 1.417 1.417 0 1 0-2.834 0zm-7.2 0a1.417 1.417 0 1 0 2.834 0 1.417 1.417 0 1 0-2.834 0zm-7.2 0a1.417 1.417 0 1 0 2.834 0 1.417 1.417 0 1 0-2.834 0zm-7.2 0a1.417 1.417 0 1 0 2.834 0 1.417 1.417 0 1 0-2.834 0zm-7.2 0a1.417 1.417 0 1 0 2.834 0 1.417 1.417 0 1 0-2.835 0zm-7.2 0a1.417 1.417 0 1 0 2.834 0 1.417 1.417 0 1 0-2.835 0zm-7.2 0a1.417 1.417 0 1 0 2.834 0 1.417 1.417 0 1 0-2.835 0zm-7.2 0a1.417 1.417 0 1 0 2.834 0 1.417 1.417 0 1 0-2.835 0zm-7.2 0a1.417 1.417 0 1 0 2.834 0 1.417 1.417 0 1 0-2.835 0zm-7.2 0a1.417 1.417 0 1 0 2.834 0 1.417 1.417 0 1 0-2.835 0zm-7.2 0a1.417 1.417 0 0 0 2.834 0 1.417 1.417 0 1 0-2.835 0zm-7.2 0a1.417 1.417 0 0 0 2.834 0 1.417 1.417 0 1 0-2.835 0zm28.8-57.6a1.417 1.417 0 1 0 2.834 0 1.417 1.417 0 1 0-2.835 0zm7.2 0a1.417 1.417 0 1 0 2.834 0 1.417 1.417 0 1 0-2.835 0zm7.2 0a1.417 1.417 0 1 0 2.834 0 1.417 1.417 0 1 0-2.835 0zm7.2 0a1.417 1.417 0 1 0 2.834 0 1.417 1.417 0 1 0-2.835 0zm7.2 0a1.417 1.417 0 1 0 2.834 0 1.417 1.417 0 1 0-2.834 0zm7.2 0a1.417 1.417 0 1 0 2.834 0 1.417 1.417 0 1 0-2.834 0zm7.2 0a1.417 1.417 0 1 0 2.834 0 1.417 1.417 0 1 0-2.834 0zm7.2 0a1.417 1.417 0 1 0 2.834 0 1.417 1.417 0 1 0-2.834 0zm7.2 0a1.417 1.417 0 1 0 2.835 0 1.417 1.417 0 1 0-2.835 0zm7.2 0a1.417 1.417 0 1 0 2.835 0 1.417 1.417 0 1 0-2.835 0zm7.2 0a1.417 1.417 0 1 0 2.835 0 1.417 1.417 0 1 0-2.835 0zm7.2 0a1.417 1.417 0 1 0 2.835 0 1.417 1.417 0 1 0-2.835 0zM4.946 7.2a3.543 3.543 0 1 0 7.087 0 3.543 3.543 0 1 0-7.087 0zm0 50.4a3.543 3.543 0 1 0 7.087 0 3.543 3.543 0 1 0-7.087 0zm10.361-34.554a1.134 1.134 0 1 0 2.268 0 1.134 1.134 0 1 0-2.268 0zm0 18.708a1.134 1.134 0 1 0 2.268 0 1.134 1.134 0 1 0-2.268 0zM7.228 22.195a1.276 1.276 0 0 0 2.552 0 1.276 1.276 0 1 0-2.552 0zm0 20.41a1.276 1.276 0 0 0 2.552 0 1.276 1.276 0 1 0-2.552 0zM107.731 12.6a1.56 1.56 0 0 0 3.118 0 1.56 1.56 0 1 0-3.118 0zm7.2 0a1.56 1.56 0 0 0 3.118 0 1.56 1.56 0 1 0-3.118 0zm7.2 0a1.56 1.56 0 0 0 3.118 0 1.56 1.56 0 1 0-3.118 0zm7.2 0a1.56 1.56 0 0 0 3.118 0 1.56 1.56 0 1 0-3.118 0zm-21.6 39.6a1.56 1.56 0 0 0 3.118 0 1.56 1.56 0 1 0-3.118 0zm7.2 0a1.56 1.56 0 0 0 3.118 0 1.56 1.56 0 1 0-3.118 0zm7.2 0a1.56 1.56 0 0 0 3.118 0 1.56 1.56 0 1 0-3.118 0zm7.2 0a1.56 1.56 0 0 0 3.118 0 1.56 1.56 0 1 0-3.118 0zm10.8-34.2a1.56 1.56 0 0 0 3.118 0 1.56 1.56 0 1 0-3.118 0zm0 7.2a1.56 1.56 0 0 0 3.118 0 1.56 1.56 0 1 0-3.118 0zm0 7.2a1.56 1.56 0 0 0 3.118 0 1.56 1.56 0 1 0-3.118 0zm0 7.2a1.56 1.56 0 0 0 3.118 0 1.56 1.56 0 1 0-3.118 0zm0 7.2a1.56 1.56 0 0 0 3.118 0 1.56 1.56 0 1 0-3.118 0zm-7.2 0a1.56 1.56 0 0 0 3.118 0 1.56 1.56 0 1 0-3.118 0zm-7.2 0a1.56 1.56 0 1 0 3.118 0 1.56 1.56 0 1 0-3.118 0zm-7.2 0a1.56 1.56 0 0 0 3.118 0 1.56 1.56 0 1 0-3.118 0zm-7.2 0a1.56 1.56 0 0 0 3.118 0 1.56 1.56 0 1 0-3.118 0zm0-28.8a1.56 1.56 0 0 0 3.118 0 1.56 1.56 0 1 0-3.118 0zm7.2 0a1.56 1.56 0 0 0 3.118 0 1.56 1.56 0 1 0-3.118 0zm7.2 0a1.56 1.56 0 1 0 3.118 0 1.56 1.56 0 1 0-3.118 0zm7.2 0a1.56 1.56 0 0 0 3.118 0 1.56 1.56 0 1 0-3.118 0zm0 7.2a1.56 1.56 0 0 0 3.118 0 1.56 1.56 0 1 0-3.118 0zm0 7.2a1.56 1.56 0 0 0 3.118 0 1.56 1.56 0 1 0-3.118 0zm-7.2 0a1.56 1.56 0 1 0 3.118 0 1.56 1.56 0 1 0-3.118 0zm-14.4 0a1.56 1.56 0 0 0 3.118 0 1.56 1.56 0 1 0-3.118 0zm7.2 0a1.56 1.56 0 0 0 3.118 0 1.56 1.56 0 1 0-3.118 0zm0 7.2a1.56 1.56 0 0 0 3.118 0 1.56 1.56 0 1 0-3.118 0zm-7.2 0a1.56 1.56 0 0 0 3.118 0 1.56 1.56 0 1 0-3.118 0zm14.4 0a1.56 1.56 0 1 0 3.118 0 1.56 1.56 0 1 0-3.118 0zm7.2 0a1.56 1.56 0 0 0 3.118 0 1.56 1.56 0 1 0-3.118 0zm-7.2-14.4a1.56 1.56 0 1 0 3.118 0 1.56 1.56 0 1 0-3.118 0zm-7.2 0a1.56 1.56 0 0 0 3.118 0 1.56 1.56 0 1 0-3.118 0zm-7.2 0a1.56 1.56 0 0 0 3.118 0 1.56 1.56 0 1 0-3.118 0z"/><path stroke="#fff" stroke-width="2.88" stroke-linecap="round" d="M112.17 12.6h1.44M119.37 12.6h1.44M126.57 12.6h1.44M112.17 52.2h1.44M119.37 52.2h1.44M126.57 52.2h1.44"/><g transform="translate(0 -.453)"><text font-size="3.341" x="62.85" y="10.31" font-family="OCRA" text-anchor="middle" fill="#fff" stroke-width="0">USB</text></g><text font-size="3.341" x="19.65" y="57.83" font-family="OCRA" text-anchor="middle" fill="#fff" stroke-width="0">RST</text><text font-size="3.341" x="33.69" y="57.83" font-family="OCRA" text-anchor="middle" fill="#fff" stroke-width="0">ARf</text><text font-size="3.341" x="26.85" y="57.83" font-family="OCRA" text-anchor="middle" fill="#fff" stroke-width="0">3V</text><text font-size="3.341" x="84.09" y="57.83" font-family="OCRA" text-anchor="middle" fill="#fff" stroke-width="0">A5</text><text font-size="3.341" x="76.89" y="57.83" font-family="OCRA" text-anchor="middle" fill="#fff" stroke-width="0">A4</text><text font-size="3.341" x="69.69" y="57.83" font-family="OCRA" text-anchor="middle" fill="#fff" stroke-width="0">A3</text><text font-size="3.341" x="62.49" y="57.83" font-family="OCRA" text-anchor="middle" fill="#fff" stroke-width="0">A2</text><text font-size="3.341" x="56.01" y="57.83" font-family="OCRA" text-anchor="middle" fill="#fff" stroke-width="0">A1</text><text font-size="3.341" x="48.81" y="57.83" font-family="OCRA" text-anchor="middle" fill="#fff" stroke-width="0">A0</text><g transform="translate(0 -.453)"><text font-size="3.341" x="69.69" y="10.31" font-family="OCRA" text-anchor="middle" fill="#fff" stroke-width="0">13</text></g><text font-size="3.341" x="112.489" y="10.31" font-family="OCRA" text-anchor="middle" fill="#fff" stroke-width="0">5</text><text font-size="3.341" x="84.45" y="10.31" font-family="OCRA" text-anchor="middle" fill="#fff" stroke-width="0">11</text><text font-size="3.341" x="91.289" y="10.31" font-family="OCRA" text-anchor="middle" fill="#fff" stroke-width="0">10</text><text font-size="3.341" x="98.49" y="10.31" font-family="OCRA" text-anchor="middle" fill="#fff" stroke-width="0">9</text><text font-size="3.341" x="91.289" y="57.83" font-family="OCRA" text-anchor="middle" fill="#fff" stroke-width="0">SCK</text><text font-size="2.923" x="98.49" y="57.622" font-family="OCRA" text-anchor="middle" fill="#fff" stroke-width="0">MO</text><text font-size="2.923" x="106.05" y="57.622" font-family="OCRA" text-anchor="middle" fill="#fff" stroke-width="0">MI</text><text font-size="3.341" x="120.45" y="9.95" font-family="OCRA" text-anchor="middle" fill="#fff" stroke-width="0">SCL</text><text font-size="3.341" x="128.01" y="9.95" font-family="OCRA" text-anchor="middle" fill="#fff" stroke-width="0">SDA</text><text font-size="3.341" x="113.25" y="57.83" font-family="OCRA" text-anchor="middle" fill="#fff" stroke-width="0">RX</text><text font-size="3.341" x="120.45" y="57.83" font-family="OCRA" text-anchor="middle" fill="#fff" stroke-width="0">TX</text><text font-size="3.341" x="48.81" y="9.59" font-family="OCRA" text-anchor="middle" fill="#fff" stroke-width="0">BAT</text><text font-size="3.341" x="76.89" y="10.31" font-family="OCRA" text-anchor="middle" fill="#fff" stroke-width="0">12</text><text font-size="3.341" x="105.69" y="10.31" font-family="OCRA" text-anchor="middle" fill="#fff" stroke-width="0">6</text><text font-size="3.341" x="41.61" y="57.83" font-family="OCRA" text-anchor="middle" fill="#fff" stroke-width="0">GND</text><text font-size="3.341" font-family="OCRA" text-anchor="middle" fill="#fff" stroke-width="0" transform="rotate(-90 15.7 -2.38)">#13</text><text font-size="3.341" x="55.65" y="9.59" font-family="OCRA" text-anchor="middle" fill="#fff" stroke-width="0">En</text><text font-size="3.341" x="128.01" y="58.19" font-family="OCRA" text-anchor="middle" fill="#fff" stroke-width="0">GND</text><g transform="translate(-3.338 -1.98)"><text font-size="3.341" x="94.53" y="9.95" font-family="OCRA" text-anchor="middle" fill="#fff" stroke-width="0">~</text></g><g transform="translate(-2.15 -2.376)"><text font-size="3.341" x="100.65" y="10.31" font-family="OCRA" text-anchor="middle" fill="#fff" stroke-width="0">~</text></g><g transform="translate(-.24 -.56)"><text font-size="3.341" x="27.93" y="41.99" font-family="OCRA" text-anchor="middle" fill="#fff" stroke-width="0">Reset</text></g><g transform="translate(-.24 -.96)"><text font-size="3.341" x="17.13" y="50.99" font-family="OCRA" text-anchor="middle" fill="#fff" stroke-width="0">CHG</text></g><g transform="translate(-3.168 -2.037)"><text font-size="3.341" x="87.329" y="9.95" font-family="OCRA" text-anchor="middle" fill="#fff" stroke-width="0">~</text></g><text font-size="3.341" font-family="OCRA" text-anchor="middle" fill="#fff" stroke-width="0" transform="rotate(-90 63.04 -23.08)">Feather M0</text><text font-size="3.341" font-family="OCRA" text-anchor="middle" fill="#fff" stroke-width="0" transform="rotate(-90 64.84 -24.88)">Express</text><text font-size="3.341" x="78.689" y="14.99" font-family="OCRA" text-anchor="middle" fill="#fff" stroke-width="0">adafruit!</text><text font-size="3.341" x="137.01" y="14.63" font-family="OCRA" text-anchor="middle" fill="#fff" stroke-width="0">3V</text><text font-size="3.341" x="138.45" y="53.51" font-family="OCRA" text-anchor="middle" fill="#fff" stroke-width="0">GND</text><path stroke="#fff" stroke-width=".864" stroke-linecap="round" d="M50.556 31.32h2.268"/><path stroke="#fff" stroke-width=".864" stroke-linecap="round" d="M50.196 43.56h2.268"/><path stroke="#fff" stroke-width=".864" stroke-linecap="round" d="M35.13 33.12h-2.88"/><path stroke="#fff" stroke-width=".864" stroke-linecap="round" d="M46.596 43.56h2.268"/><path stroke="#fff" stroke-width=".864" stroke-linecap="round" d="M85.53 20.88h-2.881"/><path stroke="#fff" stroke-width=".864" stroke-linecap="round" d="M22.776 28.066h2.88"/><path stroke="#fff" stroke-width=".864" stroke-linecap="round" d="M46.644 31.175h2.268"/><path stroke="#fff" stroke-width=".864" stroke-linecap="round" d="M42.012 31.85h-2.88"/><path stroke="#fff" stroke-width=".864" stroke-linecap="round" d="M31.674 51.351v2.267"/><path d="M8.85 48.96l-1.44 1.08v-2.16l1.44 1.08m-1.152-.864v1.728-1.728m.432.324v1.08-1.08" fill="none" stroke="#fff" stroke-width=".432" stroke-linecap="round"/><path stroke="#fff" stroke-width=".576" stroke-linecap="round" d="M54.164 13.864h-4.949M49.215 9.896h4.949M52.54 11.88l-1.701 1.134M50.839 13.014v-2.268M50.839 10.746l1.701 1.134"/><path d="M51.973 11.88l-.85.567v-1.134l.85.567h-.85.85" fill="none" stroke="#fff" stroke-width=".576" stroke-linecap="round"/><path d="M8.067 15.593l1.44-1.08v2.16l-1.44-1.08m1.152.864V14.73v1.728m-.432-.324v-1.08 1.08" fill="none" stroke="#fff" stroke-width=".432" stroke-linecap="round"/><path stroke="#fff" stroke-width=".36" stroke-linecap="round" d="M91.664 12.745v-.851M91.664 11.894h10.772M102.436 11.894v.851M91.664 21.815v.851M91.664 22.666h10.772M102.436 22.666v-.851"/><path d="M91.65 11.88h2.16l-1.08 1.08h-1.08v-1.08m0 1.08h1.08-1.08m0-.36h1.44-1.44" fill="none" stroke="#fff" stroke-width=".36" stroke-linecap="round"/><path stroke="#fff" stroke-width=".864" stroke-linecap="round" d="M44.436 19.08h2.268"/><path stroke="#fff" stroke-width=".864" stroke-linecap="round" d="M18.57 51.426v2.268"/><path stroke="#fff" stroke-width=".864" stroke-linecap="round" d="M63.93 10.746v2.268"/><path stroke="#fff" stroke-width=".864" stroke-linecap="round" d="M98.85 26.694v-2.268"/><path stroke="#fff" stroke-width=".864" stroke-linecap="round" d="M65.01 16.614v-2.268"/><path stroke="#fff" stroke-width=".864" stroke-linecap="round" d="M18.624 5.4h-2.268"/><path stroke="#fff" stroke-width=".864" stroke-linecap="round" d="M40.53 53.694v-2.268"/><path stroke="#fff" stroke-width=".36" stroke-linecap="round" d="M33.883 50.409H21.977M21.977 50.409v-7.938M21.977 42.471h11.906M33.883 42.471v7.938"/><path d="M31.048 45.873a1.7 1.7 0 0 0-1.7-1.7" fill="none" stroke="#fff" stroke-width=".36"/><path stroke="#fff" stroke-width=".36" stroke-linecap="round" d="M31.048 45.873v1.134"/><path d="M29.347 48.708a1.7 1.7 0 0 0 1.7-1.701" fill="none" stroke="#fff" stroke-width=".36"/><path stroke="#fff" stroke-width=".36" stroke-linecap="round" d="M29.347 48.708h-2.835"/><path d="M24.812 47.007a1.7 1.7 0 0 0 1.7 1.7" fill="none" stroke="#fff" stroke-width=".36"/><path stroke="#fff" stroke-width=".36" stroke-linecap="round" d="M24.812 47.007v-1.134"/><path d="M26.512 44.172a1.7 1.7 0 0 0-1.7 1.701" fill="none" stroke="#fff" stroke-width=".36"/><path stroke="#fff" stroke-width=".36" stroke-linecap="round" d="M26.512 44.172h2.835"/><path stroke="#fff" stroke-width=".36" stroke-linecap="round" d="M61.044 27.235h-1.559M59.485 27.235v1.559M78.335 27.235h1.56M79.895 27.235v1.559M59.485 46.086v1.559M59.485 47.645h1.559M79.895 46.086v1.559M79.895 47.645h-1.56"/><circle cx="58.697" r=".36" cy="48.586" fill="none" stroke="#fff" stroke-width="1.152"/><circle cx="8.49" r="5.669" cy="7.2" fill="none" stroke="#fff" stroke-width=".576"/><circle cx="8.49" r="5.669" cy="57.6" fill="none" stroke="#fff" stroke-width=".576"/><path stroke="#fff" stroke-width=".576" stroke-linecap="round" d="M104.213 35.654v10.772M90.607 46.426V35.654"/><circle cx="102.882" r=".72" cy="38.52" fill="none" stroke="#fff" stroke-width=".576"/><path stroke="#fff" stroke-width=".576" stroke-linecap="round" d="M57.447 23.148v-4.536M48.093 23.148v-4.536M53.904 23.856h-2.268"/><path stroke="#fff" stroke-width=".576" stroke-linecap="round" d="M45.207 45.108v-4.536M35.853 45.108v-4.536M41.664 45.816h-2.268"/><path stroke="#fff" stroke-width=".576" stroke-linecap="round" d="M25.512 1.576h12.756M43.228 11.497v11.339M43.228 22.836h-2.409M40.819 22.836v-7.087M40.819 15.749H36.85M26.929 15.749h-3.968M22.961 15.749v7.087M22.961 22.836h-2.41M20.551 22.836V11.497"/><path d="M55.424 53.104a.802.802 0 0 0 .801-.801" fill="none" stroke="#fff" stroke-width=".36"/><path stroke="#fff" stroke-width=".36" stroke-linecap="round" d="M55.424 53.104h-7.468"/><path d="M47.154 52.303a.802.802 0 0 0 .802.801" fill="none" stroke="#fff" stroke-width=".36"/><path stroke="#fff" stroke-width=".36" stroke-linecap="round" d="M47.154 52.303V49.77"/><path d="M47.788 49.136a.634.634 0 0 0-.634.634" fill="none" stroke="#fff" stroke-width=".36"/><path stroke="#fff" stroke-width=".36" stroke-linecap="round" d="M47.788 49.136h7.541"/><path d="M56.225 50.032a.896.896 0 0 0-.896-.896" fill="none" stroke="#fff" stroke-width=".36"/><path stroke="#fff" stroke-width=".36" stroke-linecap="round" d="M56.225 50.032v2.271M48.572 49.986h5.952"/><path d="M55.375 50.837a.85.85 0 0 0-.85-.85" fill="none" stroke="#fff" stroke-width=".36"/><path stroke="#fff" stroke-width=".36" stroke-linecap="round" d="M55.375 50.836v.568"/><path d="M54.524 52.254a.85.85 0 0 0 .85-.85" fill="none" stroke="#fff" stroke-width=".36"/><path stroke="#fff" stroke-width=".36" stroke-linecap="round" d="M54.524 52.254h-5.669"/><path d="M48.005 51.687a.723.723 0 0 0 .85.567" fill="none" stroke="#fff" stroke-width=".36"/><path stroke="#fff" stroke-width=".36" stroke-linecap="round" d="M48.005 51.687v-.851"/><path d="M48.572 49.986a.722.722 0 0 0-.567.85" fill="none" stroke="#fff" stroke-width=".36"/><path stroke="#fff" stroke-width=".36" stroke-linecap="round" d="M17.008 25.313v2.268M17.008 37.219v2.268M4.252 21.628H1.701M1.701 21.628v21.544M1.701 43.172h2.551"/><path fill="#9a916c" d="M50.272 35.253v-3.047h2.835v3.047zM50.272 30.434v-3.047h2.835v3.047zM49.912 47.493v-3.047h2.835v3.047zM49.912 42.674v-3.047h2.835v3.047zM35.816 28.67v3.514h-4.252V28.67zM35.816 34.055v3.515h-4.252v-3.515zM46.312 47.493v-3.047h2.835v3.047zM46.312 42.674v-3.047h2.835v3.047zM86.216 16.43v3.514h-4.252V16.43zM86.215 21.815v3.515h-4.252v-3.515zM22.09 32.516v-3.515h4.253v3.515zM22.09 27.13v-3.515h4.252v3.515zM46.361 35.109v-3.047h2.835v3.047zM46.361 30.29v-3.047h2.835v3.047zM42.699 27.4v3.515h-4.252V27.4zM42.698 32.786V36.3h-4.252v-3.515zM27.741 51.067h3.047v2.835h-3.047zM32.56 51.067h3.047v2.835H32.56zM6.854 47.26v3.402H3.452V47.26zM12.807 47.259v3.402H9.405v-3.402zM48.43 9.895v3.968h-3.968V9.895zM58.918 9.896v3.968H54.95V9.896z"/><circle r="1.897" cx="127.29" cy="61.2" fill="none" stroke="#9a916c" stroke-width=".959"/><circle r="1.897" cx="120.09" cy="61.2" fill="none" stroke="#9a916c" stroke-width=".959"/><circle r="1.897" cx="112.89" cy="61.2" fill="none" stroke="#9a916c" stroke-width=".959"/><circle r="1.897" cx="105.69" cy="61.2" fill="none" stroke="#9a916c" stroke-width=".959"/><circle r="1.897" cx="98.49" cy="61.2" fill="none" stroke="#9a916c" stroke-width=".959"/><circle r="1.897" cx="91.289" cy="61.2" fill="none" stroke="#9a916c" stroke-width=".959"/><circle r="1.897" cx="84.09" cy="61.2" fill="none" stroke="#9a916c" stroke-width=".959"/><circle r="1.897" cx="76.89" cy="61.2" fill="none" stroke="#9a916c" stroke-width=".959"/><circle r="1.897" cx="69.69" cy="61.2" fill="none" stroke="#9a916c" stroke-width=".959"/><circle r="1.897" cx="62.49" cy="61.2" fill="none" stroke="#9a916c" stroke-width=".959"/><circle r="1.897" cx="55.29" cy="61.2" fill="none" stroke="#9a916c" stroke-width=".959"/><circle r="1.897" cx="48.09" cy="61.2" fill="none" stroke="#9a916c" stroke-width=".959"/><circle r="1.897" cx="40.89" cy="61.2" fill="none" stroke="#9a916c" stroke-width=".959"/><circle r="1.897" cx="33.69" cy="61.2" fill="none" stroke="#9a916c" stroke-width=".959"/><circle r="1.897" cx="26.49" cy="61.2" fill="none" stroke="#9a916c" stroke-width=".959"/><circle r="1.897" cx="19.29" cy="61.2" fill="none" stroke="#9a916c" stroke-width=".959"/><circle r="1.897" cx="48.09" cy="3.6" fill="none" stroke="#9a916c" stroke-width=".959"/><circle r="1.897" cx="55.29" cy="3.6" fill="none" stroke="#9a916c" stroke-width=".959"/><path fill="none" d="M55.784 3.429h.01v.01h-.01z"/><circle r="1.897" cx="62.49" cy="3.6" fill="none" stroke="#9a916c" stroke-width=".959"/><circle r="1.897" cx="69.69" cy="3.6" fill="none" stroke="#9a916c" stroke-width=".959"/><circle r="1.897" cx="76.89" cy="3.6" fill="none" stroke="#9a916c" stroke-width=".959"/><circle r="1.897" cx="84.09" cy="3.6" fill="none" stroke="#9a916c" stroke-width=".959"/><circle r="1.897" cx="91.289" cy="3.6" fill="none" stroke="#9a916c" stroke-width=".959"/><path fill="none" d="M91.784 3.595h.01v.01h-.01z"/><circle r="1.897" cx="98.49" cy="3.6" fill="none" stroke="#9a916c" stroke-width=".959"/><circle r="1.897" cx="105.69" cy="3.6" fill="none" stroke="#9a916c" stroke-width=".959"/><path fill="none" d="M106.185 3.595h.01v.01h-.01z"/><circle r="1.897" cx="112.89" cy="3.6" fill="none" stroke="#9a916c" stroke-width=".959"/><circle r="1.897" cx="120.09" cy="3.6" fill="none" stroke="#9a916c" stroke-width=".959"/><path fill="none" d="M120.751 3.262h.01v.01h-.01z"/><circle r="1.897" cx="127.29" cy="3.6" fill="none" stroke="#9a916c" stroke-width=".959"/><path fill="#9a916c" d="M10.063 17.294v-3.402h3.402v3.402zM4.11 17.294v-3.402h3.403v3.402zM90.671 16.005v-2.409h2.835v2.409zM90.672 20.965v-2.409h2.835v2.409zM100.593 20.965v-2.409h2.835v2.409zM100.593 16.004v-2.409h2.835v2.409zM44.152 23.013v-3.047h2.835v3.047zM44.152 18.194v-3.047h2.835v3.047zM14.637 51.143h3.047v2.835h-3.047zM19.456 51.143h3.047v2.835h-3.047zM59.997 10.463h3.047v2.835h-3.047zM64.816 10.463h3.047v2.835h-3.047z"/><g><path fill="#9a916c" d="M102.783 26.977h-3.047v-2.835h3.047z"/></g><g><path fill="#9a916c" d="M97.964 26.977h-3.047v-2.835h3.047z"/></g><g><path fill="#9a916c" d="M68.943 16.897h-3.047v-2.835h3.047z"/></g><g><path fill="#9a916c" d="M64.124 16.897h-3.047v-2.835h3.047z"/></g><g><path fill="#9a916c" d="M18.907 1.467v3.047h-2.835V1.467z"/></g><g><path fill="#9a916c" d="M18.907 6.286v3.047h-2.835V6.286z"/></g><g><path fill="#9a916c" d="M44.463 53.977h-3.047v-2.835h3.047z"/></g><g><path fill="#9a916c" d="M39.644 53.977h-3.047v-2.835h3.047z"/></g><g><path fill="#9a916c" d="M23.678 50.125h-2.835V47.29h2.835z"/></g><g><path fill="#9a916c" d="M23.678 45.59h-2.835v-2.835h2.835z"/></g><g><path fill="#9a916c" d="M35.016 50.125h-2.835V47.29h2.835z"/></g><g><path fill="#9a916c" d="M35.016 45.59h-2.835v-2.835h2.835z"/></g><g><path fill="#9a916c" d="M61.54 48.353v-2.126h.71v2.126z"/></g><g><path fill="#9a916c" d="M62.957 48.353v-2.126h.71v2.126z"/></g><g><path fill="#9a916c" d="M64.375 48.354v-2.126h.709v2.126z"/></g><g><path fill="#9a916c" d="M65.792 48.353v-2.126h.71v2.126z"/></g><g><path fill="#9a916c" d="M67.21 48.353v-2.126h.708v2.126z"/></g><g><path fill="#9a916c" d="M68.627 48.353v-2.126h.709v2.126z"/></g><g><path fill="#9a916c" d="M70.044 48.354v-2.126h.709v2.126z"/></g><g><path fill="#9a916c" d="M71.461 48.353v-2.126h.71v2.126z"/></g><g><path fill="#9a916c" d="M72.879 48.354v-2.126h.709v2.126z"/></g><g><path fill="#9a916c" d="M74.296 48.353v-2.126h.709v2.126z"/></g><g><path fill="#9a916c" d="M75.713 48.353v-2.126h.71v2.126z"/></g><g><path fill="#9a916c" d="M77.13 48.353v-2.126h.71v2.126z"/></g><g><path fill="#9a916c" d="M80.603 45.59h-2.126v-.71h2.126z"/></g><g><path fill="#9a916c" d="M80.603 44.172h-2.126v-.709h2.126z"/></g><g><path fill="#9a916c" d="M80.603 42.756h-2.126v-.71h2.126z"/></g><g><path fill="#9a916c" d="M80.603 41.338h-2.126v-.709h2.126z"/></g><g><path fill="#9a916c" d="M80.603 39.92h-2.126v-.709h2.126z"/></g><g><path fill="#9a916c" d="M80.603 38.504h-2.126v-.71h2.126z"/></g><g><path fill="#9a916c" d="M80.603 37.085h-2.126v-.709h2.126z"/></g><g><path fill="#9a916c" d="M80.603 35.668h-2.126v-.709h2.126z"/></g><g><path fill="#9a916c" d="M80.603 34.251h-2.126v-.709h2.126z"/></g><g><path fill="#9a916c" d="M80.603 32.834h-2.126v-.71h2.126z"/></g><g><path fill="#9a916c" d="M80.603 31.416h-2.126v-.709h2.126z"/></g><g><path fill="#9a916c" d="M80.603 30h-2.126v-.71h2.126z"/></g><g><path fill="#9a916c" d="M77.84 26.527v2.126h-.709v-2.126z"/></g><g><path fill="#9a916c" d="M76.423 26.527v2.126h-.709v-2.126z"/></g><g><path fill="#9a916c" d="M75.005 26.527v2.126h-.709v-2.126z"/></g><g><path fill="#9a916c" d="M73.587 26.526v2.127h-.709v-2.127z"/></g><g><path fill="#9a916c" d="M72.17 26.527v2.126h-.709v-2.126z"/></g><g><path fill="#9a916c" d="M70.753 26.526v2.126h-.71v-2.126z"/></g><g><path fill="#9a916c" d="M69.336 26.527v2.126h-.71v-2.126z"/></g><g><path fill="#9a916c" d="M67.918 26.527v2.126h-.709v-2.126z"/></g><g><path fill="#9a916c" d="M66.501 26.527v2.126h-.709v-2.126z"/></g><g><path fill="#9a916c" d="M65.083 26.526v2.127h-.709v-2.127z"/></g><g><path fill="#9a916c" d="M63.666 26.527v2.126h-.709v-2.126z"/></g><g><path fill="#9a916c" d="M62.249 26.527v2.126h-.71v-2.126z"/></g><path fill="#9a916c" d="M58.776 29.29h2.126v.709h-2.126zM58.776 30.708h2.126v.709h-2.126zM58.776 32.125h2.126v.709h-2.126zM58.776 33.542h2.126v.709h-2.126zM58.776 34.96h2.126v.709h-2.126zM58.776 36.377h2.126v.709h-2.126zM58.776 37.794h2.126v.709h-2.126zM58.776 39.212h2.126v.709h-2.126zM58.776 40.629h2.126v.709h-2.126zM58.776 42.046h2.126v.709h-2.126zM58.776 43.464h2.126v.709h-2.126zM58.776 44.881h2.126v.709h-2.126zM63.028 30.779h13.323v13.323H63.028z"/><circle r="4.263" cx="8.49" cy="7.2" fill="none" stroke="#9a916c" stroke-width="1.44"/><circle r="4.263" cx="8.49" cy="57.6" fill="none" stroke="#9a916c" stroke-width="1.44"/><g><rect height="2.835" width="2.835" x="30.472" rx="1.417" y="6.503" ry="1.417" fill="#9a916c" transform="rotate(90 31.89 7.92)"/></g><g><rect height="2.835" width="2.835" x="131.406" rx="1.417" y="61.203" ry="1.417" fill="#9a916c" transform="rotate(90 132.824 62.62)"/></g><g><path fill="#9a916c" d="M103.661 34.761h-1.701v-6.236h1.701z"/></g><g><path fill="#9a916c" d="M100.061 34.761H98.36v-6.236h1.701z"/></g><g><path fill="#9a916c" d="M96.461 34.761H94.76v-6.236h1.701z"/></g><g><path fill="#9a916c" d="M92.861 34.761H91.16v-6.236h1.701z"/></g><g><path fill="#9a916c" d="M92.861 53.554H91.16v-6.236h1.701z"/></g><g><path fill="#9a916c" d="M96.461 53.554H94.76v-6.236h1.701z"/></g><g><path fill="#9a916c" d="M100.061 53.554H98.36v-6.236h1.701z"/></g><g><path fill="#9a916c" d="M103.661 53.554h-1.701v-6.236h1.701z"/></g><g><path fill="#9a916c" d="M56.242 18.895h-1.559v-3.402h1.559z"/></g><g><path fill="#9a916c" d="M53.55 18.895h-1.559v-3.402h1.559z"/></g><g><path fill="#9a916c" d="M50.856 18.895h-1.559v-3.402h1.559z"/></g><g><path fill="#9a916c" d="M50.856 26.267h-1.559v-3.402h1.559z"/></g><g><path fill="#9a916c" d="M56.242 26.267h-1.559v-3.402h1.559z"/></g><g><path fill="#9a916c" d="M44.002 40.855h-1.559v-3.402h1.56z"/></g><g><path fill="#9a916c" d="M41.31 40.855h-1.56v-3.402h1.56z"/></g><g><path fill="#9a916c" d="M38.616 40.855h-1.559v-3.402h1.56z"/></g><g><path fill="#9a916c" d="M38.616 48.226h-1.559v-3.402h1.56z"/></g><g><path fill="#9a916c" d="M44.002 48.226h-1.559v-3.402h1.56z"/></g><path fill="#9a916c" d="M27.638 14.049h2.835v13.039h-2.835zM33.307 14.049h2.835v13.039h-2.835z"/><g><path fill="#9a916c" d="M19.984 10.647V1.009h4.535v9.638z"/></g><g><path fill="#9a916c" d="M39.26 10.647V1.009h4.535v9.638z"/></g><path fill="#9a916c" d="M53.532 48.427h3.118v5.386h-3.118z"/><g><path fill="#9a916c" d="M49.847 53.813H46.73v-5.386h3.118z"/></g><path fill="#9a916c" d="M5.386 28.857h5.669v2.835H5.386zM5.386 33.109h5.669v2.835H5.386z"/><g><path fill="#9a916c" d="M18 31.833v1.134h-3.827v-1.134z"/></g><g><path fill="#9a916c" d="M18 29.99v1.135h-3.827V29.99z"/></g><g><path fill="#9a916c" d="M18 35.518v1.134h-3.827v-1.134z"/></g><g><path fill="#9a916c" d="M18 33.676v1.134h-3.827v-1.134z"/></g><circle r="1.494" cx="16.441" cy="23.046" fill="none" stroke="#9a916c" stroke-width=".72"/><path d="M14.947 20.058h2.988v4.482h-2.988v-4.482m0 2.988a1.494 1.494 0 1 0 2.988 0 1.494 1.494 0 1 0-2.988 0z" fill="#9a916c"/><circle r="1.494" cx="16.441" cy="41.754" fill="none" stroke="#9a916c" stroke-width=".72"/><path d="M14.947 40.26h2.988v4.482h-2.988v-4.481m0 1.493a1.494 1.494 0 1 0 2.988 0 1.494 1.494 0 1 0-2.988 0z" fill="#9a916c"/><circle r="2.409" cx="8.504" cy="22.195" fill="none" stroke="#9a916c" stroke-width="2.268"/><path fill="none" stroke="#9a916c" stroke-width="2.268" d="M6.094 19.786h4.819v4.819H6.094z"/><circle r="2.409" cx="8.504" cy="42.605" fill="none" stroke="#9a916c" stroke-width="2.268"/><path fill="none" stroke="#9a916c" stroke-width="2.268" d="M6.094 40.195h4.819v4.819H6.094z"/><g><path fill="#9a916c" d="M18 28.148v1.134h-3.827v-1.134z"/></g><circle r="2.148" cx="109.29" cy="12.6" fill="none" stroke="#9a916c" stroke-width="1.177"/><path fill="none" d="M109.451 12.428h.011v.011h-.011z"/><circle r="2.148" cx="116.49" cy="12.6" fill="none" stroke="#9a916c" stroke-width="1.177"/><circle r="2.148" cx="123.69" cy="12.6" fill="none" stroke="#9a916c" stroke-width="1.177"/><circle r="2.148" cx="130.89" cy="12.6" fill="none" stroke="#9a916c" stroke-width="1.177"/><circle r="2.148" cx="109.29" cy="52.2" fill="none" stroke="#9a916c" stroke-width="1.177"/><circle r="2.148" cx="116.49" cy="52.2" fill="none" stroke="#9a916c" stroke-width="1.177"/><circle r="2.148" cx="123.69" cy="52.2" fill="none" stroke="#9a916c" stroke-width="1.177"/><circle r="2.148" cx="130.89" cy="52.2" fill="none" stroke="#9a916c" stroke-width="1.177"/><circle r="2.04" cx="141.69" cy="18" fill="none" stroke="#9a916c" stroke-width=".961"/><circle r="2.04" cx="141.69" cy="25.2" fill="none" stroke="#9a916c" stroke-width=".961"/><circle r="2.04" cx="141.69" cy="32.4" fill="none" stroke="#9a916c" stroke-width=".961"/><circle r="2.04" cx="141.69" cy="39.6" fill="none" stroke="#9a916c" stroke-width=".961"/><circle r="2.04" cx="141.69" cy="46.8" fill="none" stroke="#9a916c" stroke-width=".961"/><circle r="2.04" cx="134.49" cy="46.8" fill="none" stroke="#9a916c" stroke-width=".961"/><circle r="2.04" cx="127.29" cy="46.8" fill="none" stroke="#9a916c" stroke-width=".961"/><circle r="2.04" cx="120.09" cy="46.8" fill="none" stroke="#9a916c" stroke-width=".961"/><circle r="2.04" cx="112.89" cy="46.8" fill="none" stroke="#9a916c" stroke-width=".961"/><circle r="2.04" cx="112.89" cy="18" fill="none" stroke="#9a916c" stroke-width=".961"/><circle r="2.04" cx="120.09" cy="18" fill="none" stroke="#9a916c" stroke-width=".961"/><circle r="2.04" cx="127.29" cy="18" fill="none" stroke="#9a916c" stroke-width=".961"/><circle r="2.04" cx="134.49" cy="18" fill="none" stroke="#9a916c" stroke-width=".961"/><circle r="2.04" cx="134.49" cy="25.2" fill="none" stroke="#9a916c" stroke-width=".961"/><circle r="2.04" cx="134.49" cy="32.4" fill="none" stroke="#9a916c" stroke-width=".961"/><circle r="2.04" cx="127.29" cy="32.4" fill="none" stroke="#9a916c" stroke-width=".961"/><circle r="2.04" cx="112.89" cy="32.4" fill="none" stroke="#9a916c" stroke-width=".961"/><circle r="2.04" cx="120.09" cy="32.4" fill="none" stroke="#9a916c" stroke-width=".961"/><circle r="2.04" cx="120.09" cy="39.6" fill="none" stroke="#9a916c" stroke-width=".961"/><circle r="2.04" cx="112.89" cy="39.6" fill="none" stroke="#9a916c" stroke-width=".961"/><circle r="2.04" cx="127.29" cy="39.6" fill="none" stroke="#9a916c" stroke-width=".961"/><circle r="2.04" cx="134.49" cy="39.6" fill="none" stroke="#9a916c" stroke-width=".961"/><circle r="2.04" cx="127.29" cy="25.2" fill="none" stroke="#9a916c" stroke-width=".961"/><circle r="2.04" cx="120.09" cy="25.2" fill="none" stroke="#9a916c" stroke-width=".961"/><circle r="2.04" cx="112.89" cy="25.2" fill="none" stroke="#9a916c" stroke-width=".961"/><g><path d="M52.824 29.342v3.955c0 .16-.13.29-.291.29h-1.687a.29.29 0 0 1-.29-.29v-3.954c0-.16.13-.29.29-.29h1.687a.29.29 0 0 1 .29.29z" fill="#dcdcdc"/><path fill="#6e554b" d="M50.556 32.453v-2.268h2.268v2.268z"/></g><g><path d="M52.464 41.583v3.955c0 .16-.13.29-.291.29h-1.687a.29.29 0 0 1-.29-.29v-3.955c0-.16.13-.29.29-.29h1.687a.29.29 0 0 1 .29.29z" fill="#dcdcdc"/><path fill="#6e554b" d="M50.196 44.694v-2.269h2.268v2.269z"/></g><g><path d="M31.918 35.672v-5.103c0-.156.127-.283.283-.283h2.977c.156 0 .283.126.283.282v5.102a.283.283 0 0 1-.283.284h-2.977a.282.282 0 0 1-.283-.282z" fill="#dcdcdc"/><path fill="#6e554b" d="M35.461 31.349v3.543h-3.543v-3.544z"/></g><g><path d="M48.864 41.583v3.955c0 .16-.13.29-.291.29h-1.687a.29.29 0 0 1-.29-.29v-3.955c0-.16.13-.29.29-.29h1.687a.29.29 0 0 1 .29.29z" fill="#dcdcdc"/><path fill="#6e554b" d="M46.596 44.694v-2.269h2.268v2.269z"/></g><g><path d="M82.319 23.431v-5.103c0-.156.127-.283.283-.283h2.977c.156 0 .283.127.283.283v5.102a.283.283 0 0 1-.283.283h-2.977a.282.282 0 0 1-.283-.282z" fill="#dcdcdc"/><path fill="#6e554b" d="M85.862 19.108v3.543h-3.543v-3.543z"/></g><g><path d="M25.988 25.514v5.103a.283.283 0 0 1-.283.283h-2.977a.283.283 0 0 1-.283-.283v-5.102c0-.157.127-.283.283-.283h2.977a.282.282 0 0 1 .283.282z" fill="#dcdcdc"/><path fill="#6e554b" d="M22.445 29.837v-3.543h3.543v3.543z"/></g><g><path d="M48.912 29.198v3.955c0 .16-.13.29-.291.29h-1.687a.29.29 0 0 1-.29-.29v-3.955c0-.16.13-.29.29-.29h1.687a.29.29 0 0 1 .291.29z" fill="#dcdcdc"/><path fill="#6e554b" d="M46.644 32.309V30.04h2.268v2.268z"/></g><g><path d="M38.8 34.402v-5.103c0-.156.128-.283.284-.283h2.977c.156 0 .283.127.283.283V34.4a.283.283 0 0 1-.283.283h-2.977a.282.282 0 0 1-.283-.282z" fill="#dcdcdc"/><path fill="#6e554b" d="M42.344 30.079v3.543H38.8v-3.543z"/></g><g><path d="M33.651 53.619h-3.955a.29.29 0 0 1-.29-.291V51.64c0-.16.13-.29.29-.29h3.955c.16 0 .29.13.29.29v1.687a.29.29 0 0 1-.29.29z" fill="#dcdcdc"/><path fill="#6e554b" d="M30.54 51.35h2.268v2.269H30.54z"/></g><g><g transform="rotate(90 -18.112 29.076)"><path d="M3.543.282v5.103a.283.283 0 0 1-.283.283H.283A.283.283 0 0 1 0 5.385V.283C0 .126.127 0 .283 0H3.26a.282.282 0 0 1 .283.282z" fill="#dcdcdc"/><path fill="#ff0" d="M0 1.062h3.543v3.543H0z"/><circle cx="1.772" r=".567" cy="2.833" fill="#b4b400"/></g></g><g><path fill="#dcdcdc" d="M56.792 13.085H46.587v-2.41h10.205z"/><path fill="#303030" d="M55.516 14.219h-7.654V9.542h7.654z"/><path fill="#4d4d4d" d="M54.737 14.212h-1.352V9.545h1.352z"/></g><g><g transform="rotate(-90 11.66 5.706)"><path d="M3.543.282v5.103a.283.283 0 0 1-.283.283H.283A.283.283 0 0 1 0 5.385V.283C0 .126.127 0 .283 0H3.26a.282.282 0 0 1 .283.282z" fill="#dcdcdc"/><path fill="red" d="M0 1.062h3.543v3.543H0z"/><circle cx="1.772" r=".567" cy="2.833" fill="#a00000"/></g></g><g><g transform="translate(92.09 12.312)"><path fill="#fff" d="M0 0h2.835v2.835H0z"/><path d="M9.921 9.921H0V1.417L1.417 0h8.504v9.921z"/><circle cx="4.961" r="4.252" cy="4.961" fill="#c8c8c8"/><path d="M3.257 3.827V1.069c-.42.184-.798.442-1.134.745v2.012H.881a4.216 4.216 0 0 0-.172 1.135h4.819v4.195c.397-.053.78-.147 1.134-.302V4.961h2.551a4.21 4.21 0 0 0-.172-1.134H3.257z" fill="#fff"/><path fill="#1e1432" d="M3.54 1.843h2.268v1.701H3.54z"/></g></g><g><path d="M46.704 17.102v3.955c0 .16-.13.29-.291.29h-1.687a.29.29 0 0 1-.29-.29v-3.955c0-.16.13-.29.29-.29h1.687a.29.29 0 0 1 .29.29z" fill="#dcdcdc"/><path fill="#333" d="M44.436 20.213v-2.268h2.268v2.268z"/></g><g><path d="M20.547 53.694h-3.955a.29.29 0 0 1-.29-.291v-1.687c0-.16.13-.29.29-.29h3.955c.16 0 .29.13.29.29v1.687a.29.29 0 0 1-.29.291z" fill="#dcdcdc"/><path fill="#333" d="M17.436 51.426h2.268v2.268h-2.268z"/></g><g><path d="M65.907 13.014h-3.955a.29.29 0 0 1-.29-.291v-1.687c0-.16.13-.29.29-.29h3.955c.16 0 .29.13.29.29v1.687a.29.29 0 0 1-.29.291z" fill="#dcdcdc"/><path fill="#333" d="M62.796 10.746h2.268v2.268h-2.268z"/></g><g><path d="M96.872 24.426h3.955c.16 0 .29.13.29.291v1.687c0 .16-.13.29-.29.29h-3.955a.29.29 0 0 1-.29-.29v-1.687a.29.29 0 0 1 .29-.291z" fill="#dcdcdc"/><path fill="#333" d="M99.983 26.694h-2.268v-2.268h2.268z"/></g><g><path d="M63.032 14.346h3.955c.16 0 .29.13.29.291v1.687c0 .16-.13.29-.29.29h-3.955a.29.29 0 0 1-.29-.29v-1.687a.29.29 0 0 1 .29-.291z" fill="#dcdcdc"/><path fill="#333" d="M66.143 16.614h-2.268v-2.268h2.268z"/></g><g><path d="M16.356 7.378V3.423c0-.16.13-.29.29-.29h1.688c.16 0 .29.13.29.29v3.955c0 .16-.13.29-.29.29h-1.687a.29.29 0 0 1-.291-.29z" fill="#dcdcdc"/><path fill="#333" d="M18.624 4.267v2.268h-2.268V4.267z"/></g><g><path d="M38.552 51.426h3.955c.16 0 .29.13.29.291v1.687c0 .16-.13.29-.29.29h-3.955a.29.29 0 0 1-.29-.29v-1.687a.29.29 0 0 1 .29-.291z" fill="#dcdcdc"/><path fill="#333" d="M41.663 53.694h-2.268v-2.268h2.268z"/></g><g><g transform="rotate(180 17.154 25.346)"><path fill="#dcdcdc" d="M11.339 1.275V0H1.417v1.275H0v1.417h1.417v3.119H0v1.417h1.417v1.276h9.922V7.228h1.417V5.811h-1.417V2.692h1.417V1.275z"/><circle cx="6.378" r="2.48" cy="4.252" fill="#1e1e1e"/><path fill="#b4b4b4" d="M.992 0h.567v8.504H.992zM11.197 0h.567v8.504h-.567z"/></g></g><g><path fill="#333" d="M59.734 27.554h19.843v19.843H59.734z"/></g><g><path d="M75.293 19.938c-.032-.2-.141-.257-.403-.341-.2-.065-1.533-.49-1.533-.49s-.93-.35-1.62.146a4.713 4.713 0 0 0-.285.224c.082-.097.158-.193.224-.286.495-.69.143-1.619.143-1.619s-.427-1.334-.492-1.533c-.085-.262-.142-.37-.342-.402-.2-.032-.288.054-.45.277l-.938 1.307s-.621.777-.361 1.586c.034.11.077.224.125.341a4.797 4.797 0 0 0-.203-.302c-.503-.684-1.496-.636-1.496-.636l-1.61-.006c-.275 0-.396.02-.488.201-.091.181-.037.291.126.513l.953 1.297s.546.83 1.395.834c.114 0 .236-.005.362-.014-.122.03-.24.064-.348.1-.806.267-1.067 1.226-1.067 1.226l-.503 1.53c-.086.26-.103.383.04.526.144.143.265.126.526.04a992.46 992.46 0 0 0 1.528-.506s.958-.263 1.224-1.07c.036-.108.069-.225.1-.348a4.572 4.572 0 0 0-.013.361c.005.85.836 1.394.836 1.394l1.298.951c.223.162.333.216.514.125.18-.092.2-.213.2-.488l-.01-1.61s.048-.993-.638-1.495a5.228 5.228 0 0 0-.301-.203c.117.047.232.09.34.124.81.258 1.584-.364 1.584-.364s1.136-.819 1.306-.94c.223-.162.309-.25.277-.45zm-4.822-1.031c.152.024.228.349.169.726-.06.377-.231.662-.384.638-.153-.025-.23-.35-.17-.726.06-.377.232-.663.385-.639zm-1.956.999c.07-.138.402-.11.742.063.34.172.558.424.488.562-.07.139-.402.11-.742-.062-.34-.174-.558-.426-.488-.564zm1.03 1.878c-.268.27-.576.4-.685.29-.11-.109.02-.416.29-.686.269-.27.576-.4.686-.29.109.109-.021.416-.29.686zm1.485.633c-.138.07-.39-.149-.563-.488-.174-.34-.203-.673-.065-.742.138-.07.39.148.563.487.173.34.202.671.065.742zm.357-1.574c-.377.06-.701-.015-.726-.168-.024-.153.262-.325.638-.385.377-.06.7.016.726.169.024.153-.261.325-.638.385z" fill="#dcdcdc"/></g><g><g fill="#b3b3b3"><path d="M92.529 33.542h-1.134v-3.118h1.134zM96.129 33.542h-1.134v-3.118h1.134zM99.729 33.542h-1.134v-3.118h1.134zM103.329 33.542h-1.134v-3.118h1.134z"/></g><g fill="#b3b3b3"><path d="M92.535 51.66H91.4V48.54h1.134zM96.135 51.66H95V48.54h1.134zM99.735 51.66H98.6V48.54h1.134zM103.335 51.66H102.2V48.54h1.134z"/></g><g transform="rotate(180 201.283 231.5)"><path fill="#303030" d="M298.069 414.439h14.173v15.024h-14.173z"/><ellipse cx="300.355" rx=".762" ry=".759" cy="427.186" fill="#1f1f1f"/><path d="M298.074 414.439h.74v15.024h-.74z"/><path fill="#4d4d4d" d="M311.473 414.457h.749v15.006h-.749z"/><path fill="#1f1f1f" d="M298.831 428.703l-.762.76h14.173l-.762-.76zM298.07 414.449h14.172l-.762.758h-12.649z"/></g></g><g><path fill="#dcdcdc" d="M56.03 24.707h-1.134v-7.654h1.134zM50.644 24.707H49.51v-7.654h1.134zM53.337 20.172h-1.134v-3.118h1.134z"/><path fill="#303030" d="M56.88 23.148h-8.22v-4.535h8.22z"/></g><g><path fill="#dcdcdc" d="M43.79 46.667h-1.134v-7.654h1.134zM38.404 46.667H37.27v-7.654h1.134zM41.097 42.132h-1.134v-3.118h1.134z"/><path fill="#303030" d="M44.64 45.108h-8.22v-4.535h8.22z"/></g><g><path fill="#666" d="M23.386 3.419h-2.835V18.3h22.677V3.419h-2.834V1.293H23.386z"/><path d="M24.803 6.962h2.835v8.504h-2.835zM36.142 6.962h2.835v8.504h-2.835z"/><path fill="#333" d="M24.803 15.466h2.835V18.3h-2.835zM36.142 15.466h2.835V18.3h-2.835zM20.551 18.3h2.268v4.253h-2.268zM40.96 18.3h2.268v4.253H40.96z"/><path fill="#dcdcdc" d="M28.063 18.3h1.984v7.088h-1.984zM33.732 18.3h1.984v7.088h-1.984z"/></g><g><path d="M47.323 53.215a.144.144 0 0 1-.144-.143v-3.903c0-.079.064-.143.144-.143h8.733c.08 0 .145.064.145.143v3.903a.144.144 0 0 1-.145.143h-8.733z" fill="#d2d2d4"/><path d="M47.154 53.072v-3.903c0-.096.076-.175.169-.175h8.733c.094 0 .17.078.17.175v3.903a.172.172 0 0 1-.17.174h-8.733a.171.171 0 0 1-.169-.174zm9.022-3.903c0-.061-.054-.112-.12-.112h-8.734c-.065 0-.12.05-.12.112v3.903c0 .061.055.112.12.112h8.734c.066 0 .12-.05.12-.112V49.17z" fill="#808184"/><g><g opacity=".8"><path d="M48.242 52.761c-.32 0-.577-.318-.577-.71v-1.86c0-.393.258-.711.577-.711h6.895c.318 0 .577.318.577.71v1.86c0 .394-.259.711-.577.711h-6.895z" fill="#d2d2d4"/><path d="M47.64 52.05v-1.86c0-.41.27-.742.602-.742h6.895c.331 0 .601.332.601.742v1.86c0 .41-.27.743-.601.743h-6.895c-.332 0-.601-.333-.601-.742zm8.05-1.86c0-.374-.249-.68-.553-.68h-6.895c-.305 0-.553.305-.553.68v1.86c0 .376.248.68.553.68h6.895c.304 0 .553-.304.553-.68v-1.86z" fill="#808184"/></g><path d="M48.51 51.764c0 .052-.023.082-.082.082-.06 0-.083-.03-.083-.082V50.57h.548c.077 0 .131.012.19.068.071.065.078.126.078.214v.223c0 .084-.007.143-.068.21-.064.072-.132.078-.221.078h-.362v.4zm0-.564h.367c.098 0 .12-.024.12-.118v-.23c0-.093-.022-.117-.12-.117h-.367v.465zM50.184 50.915v-.262c0-.052.023-.082.083-.082.06 0 .083.03.083.082v.26a.162.162 0 0 1-.01.063l-.316.797c-.017.042-.031.073-.083.073-.05 0-.066-.031-.083-.073l-.315-.797a.169.169 0 0 1-.01-.064v-.259c0-.052.023-.082.082-.082.06 0 .083.03.083.082v.262l.243.626.243-.626z" fill="#e5e6e7"/></g></g><g><path fill="#b4b4b4" d="M10.758 21.062v22.677H6.79V21.062z"/><path fill="#dcdcdc" d="M17.915 32.117v.567h-3.402v-.567zM17.915 33.96v.567h-3.402v-.567zM17.915 35.802v.567h-3.402v-.567zM17.915 30.275v.567h-3.402v-.567zM17.915 28.432v.567h-3.402v-.567z"/><path fill="#b4b4b4" d="M16.426 25.314v14.173h-.709V25.314z"/><path d="M16.144 25.314v14.173h-2.976V25.314z"/><path fill="#dcdcdc" d="M14.442 35.802h-.709v-1.417h2.552v-3.97h-2.552V29h.71V26.73h2.125v-5.102H2.962v21.543h13.606V38.07h-2.126z"/><path d="M10.048 25.172v1.417l-4.252.284v-1.984zM10.048 38.21v1.419l-4.252.283v-1.984z"/><path fill="#f0f0f0" d="M2.962 22.196v20.409l-1.7-.567V22.763z"/><path fill="#b4b4b4" d="M2.962 21.629v.567l-1.7-.567v-.567zM2.962 42.605v.567l-1.7.567v-.567z"/></g><g><g transform="translate(12.153 -2.603)"><text font-size="3.341" x="100.65" y="10.31" font-family="OCRA" text-anchor="middle" fill="#fff" stroke-width="0">~</text></g></g></svg>