<svg xmlns="http://www.w3.org/2000/svg" version="1.2" width="270.8" id="svg2" height="203" viewBox="0 0 203.1 152.2">
  <path d="M195.9 37.2l7.2 7.2v93l-7.2 7.1v4.4c0 1.5-1.3 2.8-2.8 2.8H11.5a2.8 2.8 0 0 1-2.8-2.8V3.4C8.7 1.8 9.9.5 11.5.5h180l4.4 4.3v32.4m-184 92.6a2.3 2.3 0 1 0 4.5 0c.6-2.7-5-2.7-4.5 0zm12.5 0zm167-78.8c0 6 9 6 9 0s-9-6-9 0zm0 79.2c0 6 9 6 9 0s-9-6-9 0zM47.4 7.7c0 6 9 6 9 0s-9-6-9 0zm-3.6 136.8c0 6 9 6 9 0s-9-6-9 0z" id="path8" stroke-width=".7" stroke="#000" fill="#fff"/>
  <g transform="translate(149.1 138)" id="g5103">
    <g transform="scale(1.25)" id="1x06_smt_4ucon_20609_micro">
      <g id="g4211">
        <g id="g3">
          <path id="rect17" fill="#404040" d="M0 2.3h34.6V8H0z"/>
          <path id="connector0pin" d="M1.8 4H4v2.3H1.8z"/>
          <path id="polygon21" fill="#2a2a29" d="M4 4l.8-.8H1l.9.8z"/>
          <path id="polygon23" fill="#474747" d="M4 6.3l.8.8V3.2L4 4z"/>
          <path id="polygon25" fill="#595959" d="M1.8 6.3L.9 7h4l-1-.8z"/>
          <path id="polygon27" fill="#373737" d="M1.8 4l-.9-.8v3.9l.9-.8z"/>
          <path id="connector1pin" d="M7.5 4h2.3v2.3H7.5z"/>
          <path id="polygon31" fill="#2a2a29" d="M9.8 4l.8-.8H6.7l.8.8z"/>
          <path id="polygon33" fill="#474747" d="M9.8 6.3l.8.8V3.2l-.8.8z"/>
          <path id="polygon35" fill="#595959" d="M7.5 6.3l-.8.8h3.9l-.8-.8z"/>
          <path id="polygon37" fill="#373737" d="M7.5 4l-.8-.8v3.9l.8-.8z"/>
          <path id="connector2pin" d="M13.3 4h2.2v2.3h-2.2z"/>
          <path id="polygon41" fill="#2a2a29" d="M15.5 4l.8-.8h-3.8l.8.8z"/>
          <path id="polygon43" fill="#474747" d="M15.5 6.3l.8.8V3.2l-.8.8z"/>
          <path id="polygon45" fill="#595959" d="M13.3 6.3l-.8.8h3.8l-.8-.8z"/>
          <path id="polygon47" fill="#373737" d="M13.3 4l-.8-.8v3.9l.8-.8z"/>
          <path id="connector3pin" d="M19 4h2.3v2.3H19z"/>
          <path id="polygon51" fill="#2a2a29" d="M21.3 4l.8-.8h-3.9l.8.8z"/>
          <path id="polygon53" fill="#474747" d="M21.3 6.3l.8.8V3.2l-.8.8z"/>
          <path id="polygon55" fill="#595959" d="M19 6.3l-.8.8h3.9l-.8-.8z"/>
          <path id="polygon57" fill="#373737" d="M19 4l-.8-.8v3.9l.8-.8z"/>
          <path id="connector4pin" d="M24.8 4H27v2.3h-2.2z"/>
          <path id="polygon61" fill="#2a2a29" d="M27 4l.9-.8h-4l1 .8z"/>
          <path id="polygon63" fill="#474747" d="M27 6.3l.9.8V3.2L27 4z"/>
          <path id="polygon65" fill="#595959" d="M24.8 6.3L24 7h3.9l-.9-.8z"/>
          <path id="polygon67" fill="#373737" d="M24.8 4l-.8-.8v3.9l.8-.8z"/>
          <path id="connector5pin" d="M30.6 4h2.2v2.3h-2.2z"/>
          <path id="polygon71" fill="#2a2a29" d="M32.8 4l.8-.8h-3.9l.9.8z"/>
          <path id="polygon73" fill="#474747" d="M32.8 6.3l.8.8V3.2l-.8.8z"/>
          <path id="polygon75" fill="#595959" d="M30.6 6.3l-.9.8h4l-1-.8z"/>
          <path id="polygon77" fill="#373737" d="M30.6 4l-.9-.8v3.9l.9-.8z"/>
        </g>
      </g>
    </g>
  </g>
  <g transform="translate(58.4 1.3)" id="g5168">
    <g transform="scale(1.25)" id="1x10_smt_4ucon_20611_micro">
      <g id="g1640">
        <path id="rect25" fill="#404040" d="M0 2.3h57.6V8H0z"/>
        <path id="connector54pin" d="M1.8 4H4v2.3H1.8z"/>
        <path id="polygon29" fill="#2a2a29" d="M4 4l.8-.8H1l.9.8z"/>
        <path id="polygon1663" fill="#474747" d="M4 6.3l.8.8V3.2L4 4z"/>
        <path id="polygon1665" fill="#595959" d="M1.8 6.3L.9 7h4l-1-.8z"/>
        <path id="polygon1667" fill="#373737" d="M1.8 4l-.9-.8v3.9l.9-.8z"/>
        <path id="connector55pin" d="M7.5 4h2.3v2.3H7.5z"/>
        <path id="polygon39" fill="#2a2a29" d="M9.8 4l.8-.8H6.7l.8.8z"/>
        <path id="polygon1671" fill="#474747" d="M9.8 6.3l.8.8V3.2l-.8.8z"/>
        <path id="polygon1673" fill="#595959" d="M7.5 6.3l-.8.8h3.9l-.8-.8z"/>
        <path id="polygon1675" fill="#373737" d="M7.5 4l-.8-.8v3.9l.8-.8z"/>
        <path id="connector56pin" d="M13.3 4h2.2v2.3h-2.2z"/>
        <path id="polygon49" fill="#2a2a29" d="M15.5 4l.8-.8h-3.8l.8.8z"/>
        <path id="polygon1679" fill="#474747" d="M15.5 6.3l.8.8V3.2l-.8.8z"/>
        <path id="polygon1681" fill="#595959" d="M13.3 6.3l-.8.8h3.8l-.8-.8z"/>
        <path id="polygon1683" fill="#373737" d="M13.3 4l-.8-.8v3.9l.8-.8z"/>
        <path id="connector57pin" d="M19 4h2.3v2.3H19z"/>
        <path id="polygon59" fill="#2a2a29" d="M21.3 4l.8-.8h-3.9l.8.8z"/>
        <path id="polygon1687" fill="#474747" d="M21.3 6.3l.8.8V3.2l-.8.8z"/>
        <path id="polygon1689" fill="#595959" d="M19 6.3l-.8.8h3.9l-.8-.8z"/>
        <path id="polygon1691" fill="#373737" d="M19 4l-.8-.8v3.9l.8-.8z"/>
        <path id="connector58pin" d="M24.8 4H27v2.3h-2.2z"/>
        <path id="polygon69" fill="#2a2a29" d="M27 4l.9-.8h-4l1 .8z"/>
        <path id="polygon1695" fill="#474747" d="M27 6.3l.9.8V3.2L27 4z"/>
        <path id="polygon1697" fill="#595959" d="M24.8 6.3L24 7h3.9l-.9-.8z"/>
        <path id="polygon1699" fill="#373737" d="M24.8 4l-.8-.8v3.9l.8-.8z"/>
        <path id="connector59pin" d="M30.6 4h2.2v2.3h-2.2z"/>
        <path id="polygon79" fill="#2a2a29" d="M32.8 4l.8-.8h-3.9l.9.8z"/>
        <path id="polygon81" fill="#474747" d="M32.8 6.3l.8.8V3.2l-.8.8z"/>
        <path id="polygon83" fill="#595959" d="M30.6 6.3l-.9.8h4l-1-.8z"/>
        <path id="polygon85" fill="#373737" d="M30.6 4l-.9-.8v3.9l.9-.8z"/>
        <path id="connector60pin" d="M36.3 4h2.3v2.3h-2.3z"/>
        <path id="polygon89" fill="#2a2a29" d="M38.6 4l.8-.8h-3.9l.8.8z"/>
        <path id="polygon91" fill="#474747" d="M38.6 6.3l.8.8V3.2l-.8.8z"/>
        <path id="polygon93" fill="#595959" d="M36.3 6.3l-.8.8h3.9l-.8-.8z"/>
        <path id="polygon95" fill="#373737" d="M36.3 4l-.8-.8v3.9l.8-.8z"/>
        <path id="connector61pin" d="M42 4h2.3v2.3h-2.2z"/>
        <path id="polygon99" fill="#2a2a29" d="M44.3 4l.8-.8h-3.8l.8.8z"/>
        <path id="polygon101" fill="#474747" d="M44.3 6.3l.8.8V3.2l-.8.8z"/>
        <path id="polygon103" fill="#595959" d="M42 6.3l-.7.8H45l-.8-.8z"/>
        <path id="polygon105" fill="#373737" d="M42 4l-.7-.8v3.9l.8-.8z"/>
        <path id="connector62pin" d="M47.8 4h2.3v2.3h-2.3z"/>
        <path id="polygon109" fill="#2a2a29" d="M50 4l.9-.8H47l.8.8z"/>
        <path id="polygon111" fill="#474747" d="M50 6.3l.9.8V3.2L50 4z"/>
        <path id="polygon113" fill="#595959" d="M47.8 6.3L47 7h4l-.8-.8z"/>
        <path id="polygon115" fill="#373737" d="M47.8 4l-.8-.8v3.9l.8-.8z"/>
        <path id="connector63pin" d="M53.6 4h2.2v2.3h-2.2z"/>
        <path id="polygon119" fill="#2a2a29" d="M55.8 4l.9-.8h-4l1 .8z"/>
        <path id="polygon121" fill="#474747" d="M55.8 6.3l.9.8V3.2l-.9.8z"/>
        <path id="polygon123" fill="#595959" d="M53.6 6.3l-.8.8h3.9l-.9-.8z"/>
        <path id="polygon125" fill="#373737" d="M53.6 4l-.8-.8v3.9l.8-.8z"/>
      </g>
    </g>
  </g>
  <g transform="translate(134.7 1.3)" id="g5222">
    <g transform="scale(1.25)" id="1x08_smt_4ucon_20610_micro">
      <g id="g4351">
        <g id="g1731">
          <path id="rect1749" fill="#404040" d="M0 2.3h46V8H0z"/>
          <path id="connector64pin" d="M1.8 4H4v2.3H1.8z"/>
          <path id="polygon1753" fill="#2a2a29" d="M4 4l.8-.8H1l.9.8z"/>
          <path id="polygon1755" fill="#474747" d="M4 6.3l.8.8V3.2L4 4z"/>
          <path id="polygon1757" fill="#595959" d="M1.8 6.3L.9 7h4l-1-.8z"/>
          <path id="polygon1759" fill="#373737" d="M1.8 4l-.9-.8v3.9l.9-.8z"/>
          <path id="connector65pin" d="M7.5 4h2.3v2.3H7.5z"/>
          <path id="polygon1762" fill="#2a2a29" d="M9.8 4l.8-.8H6.7l.8.8z"/>
          <path id="polygon1764" fill="#474747" d="M9.8 6.3l.8.8V3.2l-.8.8z"/>
          <path id="polygon1766" fill="#595959" d="M7.5 6.3l-.8.8h3.9l-.8-.8z"/>
          <path id="polygon1768" fill="#373737" d="M7.5 4l-.8-.8v3.9l.8-.8z"/>
          <path id="connector66pin" d="M13.3 4h2.2v2.3h-2.2z"/>
          <path id="polygon1771" fill="#2a2a29" d="M15.5 4l.8-.8h-3.8l.8.8z"/>
          <path id="polygon1773" fill="#474747" d="M15.5 6.3l.8.8V3.2l-.8.8z"/>
          <path id="polygon1775" fill="#595959" d="M13.3 6.3l-.8.8h3.8l-.8-.8z"/>
          <path id="polygon1777" fill="#373737" d="M13.3 4l-.8-.8v3.9l.8-.8z"/>
          <path id="connector67pin" d="M19 4h2.3v2.3H19z"/>
          <path id="polygon1780" fill="#2a2a29" d="M21.3 4l.8-.8h-3.9l.8.8z"/>
          <path id="polygon1782" fill="#474747" d="M21.3 6.3l.8.8V3.2l-.8.8z"/>
          <path id="polygon1784" fill="#595959" d="M19 6.3l-.8.8h3.9l-.8-.8z"/>
          <path id="polygon1786" fill="#373737" d="M19 4l-.8-.8v3.9l.8-.8z"/>
          <path id="connector68pin" d="M24.8 4H27v2.3h-2.2z"/>
          <path id="polygon1789" fill="#2a2a29" d="M27 4l.9-.8h-4l1 .8z"/>
          <path id="polygon1791" fill="#474747" d="M27 6.3l.9.8V3.2L27 4z"/>
          <path id="polygon1793" fill="#595959" d="M24.8 6.3L24 7h3.9l-.9-.8z"/>
          <path id="polygon1795" fill="#373737" d="M24.8 4l-.8-.8v3.9l.8-.8z"/>
          <path id="connector69pin" d="M30.6 4h2.2v2.3h-2.2z"/>
          <path id="polygon1798" fill="#2a2a29" d="M32.8 4l.8-.8h-3.9l.9.8z"/>
          <path id="polygon1800" fill="#474747" d="M32.8 6.3l.8.8V3.2l-.8.8z"/>
          <path id="polygon1802" fill="#595959" d="M30.6 6.3l-.9.8h4l-1-.8z"/>
          <path id="polygon1804" fill="#373737" d="M30.6 4l-.9-.8v3.9l.9-.8z"/>
          <path id="connector70pin" d="M36.3 4h2.3v2.3h-2.3z"/>
          <path id="polygon1807" fill="#2a2a29" d="M38.6 4l.8-.8h-3.9l.8.8z"/>
          <path id="polygon87" fill="#474747" d="M38.6 6.3l.8.8V3.2l-.8.8z"/>
          <path id="polygon1810" fill="#595959" d="M36.3 6.3l-.8.8h3.9l-.8-.8z"/>
          <path id="polygon1812" fill="#373737" d="M36.3 4l-.8-.8v3.9l.8-.8z"/>
          <path id="connector71pin" d="M42 4h2.3v2.3h-2.2z"/>
          <path id="polygon1815" fill="#2a2a29" d="M44.3 4l.8-.8h-3.8l.8.8z"/>
          <path id="polygon97" fill="#474747" d="M44.3 6.3l.8.8V3.2l-.8.8z"/>
          <path id="polygon1818" fill="#595959" d="M42 6.3l-.7.8H45l-.8-.8z"/>
          <path id="polygon1820" fill="#373737" d="M42 4l-.7-.8v3.9l.8-.8z"/>
        </g>
      </g>
    </g>
  </g>
  <g transform="translate(84.3 138)" id="g5315">
    <g transform="scale(1.25)" id="g1957">
      <g id="g1965">
        <g id="g1967">
          <path id="rect1985" fill="#404040" d="M0 2.3h46V8H0z"/>
          <path id="rect1987" d="M1.8 4H4v2.3H1.8z"/>
          <path id="polygon1989" fill="#2a2a29" d="M4 4l.8-.8H1l.9.8z"/>
          <path id="polygon1991" fill="#474747" d="M4 6.3l.8.8V3.2L4 4z"/>
          <path id="polygon1993" fill="#595959" d="M1.8 6.3L.9 7h4l-1-.8z"/>
          <path id="polygon1995" fill="#373737" d="M1.8 4l-.9-.8v3.9l.9-.8z"/>
          <path id="connector92pin" d="M7.5 4h2.3v2.3H7.5z"/>
          <path id="polygon1999" fill="#2a2a29" d="M9.8 4l.8-.8H6.7l.8.8z"/>
          <path id="polygon2001" fill="#474747" d="M9.8 6.3l.8.8V3.2l-.8.8z"/>
          <path id="polygon2003" fill="#595959" d="M7.5 6.3l-.8.8h3.9l-.8-.8z"/>
          <path id="polygon2005" fill="#373737" d="M7.5 4l-.8-.8v3.9l.8-.8z"/>
          <path id="connector93pin" d="M13.3 4h2.2v2.3h-2.2z"/>
          <path id="polygon2009" fill="#2a2a29" d="M15.5 4l.8-.8h-3.8l.8.8z"/>
          <path id="polygon2011" fill="#474747" d="M15.5 6.3l.8.8V3.2l-.8.8z"/>
          <path id="polygon2013" fill="#595959" d="M13.3 6.3l-.8.8h3.8l-.8-.8z"/>
          <path id="polygon2015" fill="#373737" d="M13.3 4l-.8-.8v3.9l.8-.8z"/>
          <path id="connector94pin" d="M19 4h2.3v2.3H19z"/>
          <path id="polygon2019" fill="#2a2a29" d="M21.3 4l.8-.8h-3.9l.8.8z"/>
          <path id="polygon2021" fill="#474747" d="M21.3 6.3l.8.8V3.2l-.8.8z"/>
          <path id="polygon2023" fill="#595959" d="M19 6.3l-.8.8h3.9l-.8-.8z"/>
          <path id="polygon2025" fill="#373737" d="M19 4l-.8-.8v3.9l.8-.8z"/>
          <path id="connector95pin" d="M24.8 4H27v2.3h-2.2z"/>
          <path id="polygon2029" fill="#2a2a29" d="M27 4l.9-.8h-4l1 .8z"/>
          <path id="polygon2031" fill="#474747" d="M27 6.3l.9.8V3.2L27 4z"/>
          <path id="polygon2033" fill="#595959" d="M24.8 6.3L24 7h3.9l-.9-.8z"/>
          <path id="polygon2035" fill="#373737" d="M24.8 4l-.8-.8v3.9l.8-.8z"/>
          <path id="connector96pin" d="M30.6 4h2.2v2.3h-2.2z"/>
          <path id="polygon2039" fill="#2a2a29" d="M32.8 4l.8-.8h-3.9l.9.8z"/>
          <path id="polygon2041" fill="#474747" d="M32.8 6.3l.8.8V3.2l-.8.8z"/>
          <path id="polygon2043" fill="#595959" d="M30.6 6.3l-.9.8h4l-1-.8z"/>
          <path id="polygon2045" fill="#373737" d="M30.6 4l-.9-.8v3.9l.9-.8z"/>
          <path id="connector97pin" d="M36.3 4h2.3v2.3h-2.3z"/>
          <path id="polygon2049" fill="#2a2a29" d="M38.6 4l.8-.8h-3.9l.8.8z"/>
          <path id="polygon2051" fill="#474747" d="M38.6 6.3l.8.8V3.2l-.8.8z"/>
          <path id="polygon2053" fill="#595959" d="M36.3 6.3l-.8.8h3.9l-.8-.8z"/>
          <path id="polygon2055" fill="#373737" d="M36.3 4l-.8-.8v3.9l.8-.8z"/>
          <path id="connector98pin" d="M42 4h2.3v2.3h-2.2z"/>
          <path id="polygon2059" fill="#2a2a29" d="M44.3 4l.8-.8h-3.8l.8.8z"/>
          <path id="polygon2061" fill="#474747" d="M44.3 6.3l.8.8V3.2l-.8.8z"/>
          <path id="polygon2063" fill="#595959" d="M42 6.3l-.7.8H45l-.8-.8z"/>
          <path id="polygon2065" fill="#373737" d="M42 4l-.7-.8v3.9l.8-.8z"/>
        </g>
      </g>
    </g>
  </g>
  <g id="dcjack_2mm_smt" transform="translate(.2 111.8)">
    <g id="g5345" transform="rotate(90)">
      <path d="M0-16.9h35.7v5.7H0z" id="rect2247" fill="#dcdcdc"/>
    </g>
    <g id="g5348" transform="rotate(90)">
      <path d="M0-34.5h35.7v5.7H0z" id="rect2249" fill="#dcdcdc"/>
    </g>
    <rect height="6.2" id="rect2251" width="9.6" x="32" rx=".4" y="23.4"/>
    <path d="M4.5 6h33v23.7h-33z" id="rect2253" fill="#232323"/>
    <path d="M5 6.5h32v1.7H5z" id="rect2255" fill="#494949"/>
    <path d="M5 8.2h32v5.4H5z" id="rect2257" fill="#3d3d3d" fill-opacity=".3"/>
    <path d="M4 27.6h33v1.6H4z" id="rect2259"/>
    <path d="M4 21.8h33v5.8H4z" id="rect2261" fill="#0f0f0f" fill-opacity=".4"/>
    <path d="M34.6 29.7V6" id="line23" stroke-miterlimit="10" fill="none" stroke="#000" stroke-width=".3"/>
    <path d="M6.7 6H8v23.7H6.7z" id="rect2266"/>
    <path d="M0 5h7.7v25.6H0z" id="rect2269" fill="#232323"/>
    <path d="M.7 5.5H7v1H.7z" id="rect35" fill="#494949"/>
    <path d="M.7 29.2H7v1H.7z" id="rect2275"/>
  </g>
  <path d="M151.9 34.7V34h-1l-.7.1v.9h.7l1-.2m-2.6-3.5c.2-.2.4-.2.9-.2h1.8c.5 0 .8 0 1 .2.2.3.3.5.3 1.4V36h-1.4v-.6c-.6.5-.8.6-1.3.6h-.7c-.4 0-.6 0-.8-.3-.2-.2-.3-.5-.3-1.1 0-.6 0-1 .3-1.2.2-.3.5-.4 1.4-.4.5 0 1 0 1.4.2v-.5l-.1-.6-.4-.1h-1l-.1.5H149c0-.8 0-1 .3-1.3" id="path9995" fill="#6c6c6c"/>
  <path d="M157 34.6v-2.3c-.3-.2-.5-.2-.7-.2h-1l-.1 1.4.1 1.2.5.1h.5c.2 0 .4 0 .7-.2m0 1.4v-.7c-.6.6-.8.7-1.2.7h-.6c-.5 0-.8-.1-1-.3-.3-.3-.4-.8-.4-2.2 0-1.5.1-2 .5-2.2.2-.3.5-.4 1-.4h.5c.4 0 .7.1 1.2.6v-2.3h1.4V36z" id="path9997" fill="#6c6c6c"/>
  <path d="M162 34.7V34h-.9l-.7.1-.1.4v.5h.8l1-.2m-2.7-3.5c.2-.2.5-.2 1-.2h1.8c.5 0 .8 0 1 .2.2.3.3.5.3 1.4V36H162v-.6c-.6.5-.9.6-1.3.6h-.7c-.4 0-.7 0-.9-.3-.1-.2-.3-.5-.3-1.1 0-.6.1-1 .4-1.2.2-.3.5-.4 1.4-.4.5 0 1 0 1.4.2v-.5l-.1-.6-.4-.1h-1l-.1.5H159c0-.8.1-1 .3-1.3" id="path9999" fill="#6c6c6c"/>
  <path d="M164 36v-5.3c0-.6 0-1 .3-1.1.2-.3.4-.4 1-.4h1.1v1.1h-1v.7h1v1h-1v4z" id="path10001" fill="#6c6c6c"/>
  <path d="M167 36v-5h1.3v.7c.5-.5.8-.8 1.2-.8h.5v1.4h-.6c-.4 0-.7 0-1 .2V36z" id="path10003" fill="#6c6c6c"/>
  <path d="M175 31v5h-1.3v-.7c-.7.6-.9.7-1.3.7h-.7c-.4 0-.7-.1-.9-.3-.2-.2-.2-.5-.2-1.2V31h1.4v3.7l.5.1h.4l.8-.2V31z" id="path10005" fill="#6c6c6c"/>
  <path d="M177 36h-1.4v-5h1.3zm0-5.7h-1.4v-1h1.3z" id="path10007" fill="#6c6c6c"/>
  <path d="M179.9 34.9h-.6l-.4-.1V32h1v-1h-1v-.7h-1.4v4.5c0 .5 0 .8.2 1 .2.1.4.2.9.2l1-.1h.3z" id="path10009" fill="#6c6c6c"/>
  <path d="M145.6 29.1c-.6.1-1.1 0-1.1-.2 0-.3.4-.5 1-.6.5-.1 1 0 1 .2 0 .3-.4.5-1 .6m-.5 2.4c-.2 0-.6-.2-.8-.7-.3-.6-.3-1-.1-1.2.2 0 .6.3.8.8.3.5.3 1 .1 1m-2.2-.9c-.4.4-.9.6-1 .5-.2-.2 0-.7.4-1 .4-.5.8-.7 1-.5.2.2 0 .6-.4 1m-1.6-2.8c.1-.2.6-.2 1.1 0 .6.4.9.7.8 1-.1.2-.6.1-1.1-.2-.6-.2-.9-.6-.8-.8m3-1.5c.2 0 .3.5.2 1 0 .7-.3 1-.6 1-.2 0-.3-.5-.2-1 0-.6.3-1 .6-1m7.2 1.5c0-.3-.2-.3-.6-.5l-2.3-.7s-1.4-.5-2.4.2a8.4 8.4 0 0 0-.4.4c0-.2.2-.3.3-.5.7-1 .2-2.4.2-2.4l-.7-2.3c-.2-.4-.3-.6-.6-.6s-.4 0-.6.4l-1.4 2s-1 1.1-.6 2.3l.2.6a6.8 6.8 0 0 0-.3-.5c-.8-1-2.3-1-2.3-1h-2.4c-.4 0-.6 0-.7.3-.2.3 0 .5.2.8l1.4 2s.8 1.2 2.1 1.2h.5a8 8 0 0 0-.5.2c-1.2.4-1.6 1.8-1.6 1.8l-.7 2.3c-.2.4-.2.6 0 .8.2.2.4.2.8 0l2.3-.7s1.5-.4 1.9-1.6a5.9 5.9 0 0 0 .1-.5 6.9 6.9 0 0 0 0 .5c0 1.3 1.3 2.1 1.3 2.1l2 1.4c.2.3.4.4.7.2.3-.1.3-.3.3-.7v-2.4s0-1.5-1-2.3a9 9 0 0 0-.4-.3l.5.2c1.2.4 2.4-.6 2.4-.6l2-1.4c.3-.2.4-.3.3-.7" id="path10011" fill="#6c6c6c"/>
  <path d="M110.2 36.1c-1.2 1.3-3.1 1-4.3 0V36c-1.2-1.2-1.4-3-.1-4.3 1.2-1.2 3.1-1 4.3.2 1.2 1.2 1.4 3 .1 4.2m-6.3-6.3a6 6 0 0 0-.2 8.4c2.3 2.4 6 2.4 8.4-.1a6 6 0 0 0 .2-8.5 5.9 5.9 0 0 0-8.4.2" id="path10065" fill="#6c6c6c"/>
  <path d="M106.7 50a1.2 1.2 0 1 1 0-2.5 1.2 1.2 0 0 1 0 2.5M86 38.8a1.2 1.2 0 1 1 0-2.5 1.2 1.2 0 0 1 0 2.5M89.5 17v1.4h7v6.2l-9.9 10a3 3 0 0 0-3.5 3.5l-18 18-1.2 1.1 2.3 2.3 1.2-1.2 18-18 .6.1a3 3 0 0 0 3-3.6L99.7 26v-7.5h19v16l-11.4 11.3a3 3 0 0 0-.7 0 3 3 0 0 0-.6 0l-4.4-4.4c-1.5-1.7-1.4-3.4 0-4.8h.1l-2.3-2.4c-1.4 1.2-1.4 2.6-.8 4.2L97 36.8l-2.3 2.3 8 8 1 1a3 3 0 0 0 3 3.6 3 3 0 0 0 3-3l-.1-.6 12.2-12.3V18.5h72.7v-1.4z" id="path10067" fill="#6c6c6c"/>
  <path d="M90.3 66.4c-.6 0-1.2-.6-1.2-1.3a1.2 1.2 0 1 1 2.5 0 1.2 1.2 0 0 1-1.3 1.3m3-.6v-1.3c-.2-.7-.7-1.4-1.4-1.8-.8-.6-1.5-.6-2.2-.5l-1-1-10.4-10.4-2.5 2.5 1.7 7-7.2-1.6-2.4 2.5 10.4 10.4 2.2-2.2-6.7-6.8 7.3 1.5-1.5-7.4 7.8 7.8a3 3 0 0 0 0 .7 3 3 0 0 0 1 2c1 1 1.8 1 2.6.9l33.8 33.8h-31v1.4h50.4V102h-14.8z" id="path10069" fill="#6c6c6c"/>
  <path d="M94.2 39.7l-1.9 1.9-2.4-2.4-2.3 2.3 2.4 2.4-.9.9 2 2 .9-1 6 6 2.3-2.2-6-6 1.8-2z" id="path10071" fill="#6c6c6c"/>
  <path d="M86.8 53.8c-.8-1.2-.9-2.4 0-3.4 1-1 2.3-.8 3.4 0zm6.4-4.8c-2.2-2.2-5.5-3-8.2-.4-2.3 2.3-2 5.8.2 8v.1a5.6 5.6 0 0 0 8.4 0 5.8 5.8 0 0 0 1.7-4.8l-2.4.2c0 1.2-.4 2-1.1 2.7-1 1-2.3 1.2-3.5.4l5.5-5.5a12 12 0 0 0-.6-.7" id="path10073" fill="#6c6c6c"/>
  <path d="M89 72.4l1.4 1.4c.7-.4.8-.6.8-.7l-.2-.4-.5-.5c-.3-.3-.4-.3-.5-.3-.1 0-.3 0-1 .5m-2.8 2c-.4-.4-.5-.7-.5-1 0-.6.4-1 1.8-2 1.4-.8 1.8-.9 2.3-.9.5 0 .9.3 1.3.7l1.2 1.1c.4.4.5.7.5 1 0 .6-.5 1-1.9 2l-.4-.1-2.3-2.4c-.8.5-1 .7-1 .8l.3.4.5.5.5.4c.1 0 .3 0 .6-.3l1 1c-.7.5-1.1.6-1.4.6-.5 0-.9-.2-1.3-.6z" id="path10075" fill="#6c6c6c"/>
  <path d="M88.5 76.7l4-.2 1-2.9 1.2 1.2-.6 1.7 2.2-.1 1.3 1.3-4 .2-1 3-1.2-1.3.7-1.7v-.1l-2.3.2z" id="path10077" fill="#6c6c6c"/>
  <path d="M97.8 80.1l-2.3 1.4c0 .4.2.6.4.8l.3.3c.2.2.3.3.5.3s.5-.1 1.4-.7c1-.6 1.2-.7 1.2-1l-.3-.4-.2-.2-1-.5m-2.6 3.3c-.3-.3-.4-.6-.5-1.5l-2 1.3-1.2-1.1 6.6-4 1 1.1-.6.4c1.1.2 1.4.3 1.8.7l.2.3c.4.4.5.6.5 1s-.4 1-1.8 1.8-1.9 1-2.4 1-1-.3-1.3-.7z" id="path10079" fill="#6c6c6c"/>
  <path d="M97.2 85.4l5-3 1.2 1-.7.5c.8 0 1.3.1 1.6.4l.4.4-1.4.9-.4-.5-1.1-.7-3.5 2.1z" id="path10081" fill="#6c6c6c"/>
  <path d="M104.1 87.5l1.4 1.5c.7-.5.9-.6.9-.8 0 0 0-.2-.3-.4l-.5-.5c-.2-.2-.3-.3-.5-.3 0 0-.3 0-1 .5m-2.7 2c-.4-.3-.6-.6-.6-1 0-.5.5-1 1.9-1.9 1.3-.8 1.8-1 2.3-1 .5 0 .8.3 1.3.7l1.1 1.2c.4.4.5.7.5 1 0 .5-.4 1-1.8 1.9h-.4l-2.4-2.4c-.8.5-1 .6-1 .8l.3.4.6.5c.2.3.3.3.5.3l.6-.2 1 1c-.8.5-1.1.6-1.5.6-.5 0-.8-.2-1.2-.6z" id="path10083" fill="#6c6c6c"/>
  <path d="M106.6 92.2l-.4.4c0 .1 0 .2.2.3l.8.9c.2.1.2.2.3.1l.5-.1c.2-.1.2-.2.2-.3v-.3l-1-1.3-.3-.8c0-.4.3-.7.9-1 .6-.4 1-.5 1.3-.5.3 0 .6.2 1 .5l1.4 1.5c.3.3.4.5.4.8 0 .3-.2.7-1 1.1l-1-1 .4-.3-.2-.4-.7-.7-.3-.1-.4.1c-.2.1-.2.2-.2.3v.3l1 1.3.3.8c0 .3-.3.7-.9 1-.6.4-1 .5-1.3.5-.4 0-.7-.2-1-.5l-1.6-1.6c-.3-.3-.4-.6-.4-.8 0-.3.3-.7 1-1.1z" id="path10085" fill="#6c6c6c"/>
  <path d="M110.5 96.1l-.5.4.2.3.9.8c.1.2.2.2.3.2l.4-.2c.2 0 .3-.2.3-.3l-.1-.2-.9-1.3c-.3-.4-.3-.6-.3-.9 0-.3.3-.6.8-1 .6-.4 1-.4 1.3-.4.4 0 .7.1 1 .4l1.5 1.5c.3.3.4.6.4.8 0 .4-.3.7-1 1.2l-1-1 .4-.4-.2-.3-.7-.7-.3-.2-.4.2c-.2 0-.3.2-.3.3l.1.2 1 1.3.3.9c0 .3-.3.6-1 1-.5.4-1 .5-1.2.5-.4 0-.7-.2-1-.5l-1.6-1.6c-.3-.3-.5-.6-.5-.9 0-.3.3-.6 1.1-1z" id="path10087" fill="#6c6c6c"/>
</svg>
