<svg xmlns="http://www.w3.org/2000/svg" id="svg10886" width="423.5" height="314.7" version="1.2" viewBox="0 0 423.5 314.7">
  <defs id="defs13512">
    <clipPath id="clipPath16540">
      <path id="path16542" d="M0 151.2h194.4V0H0z"/>
    </clipPath>
    <clipPath id="clipPath16576">
      <path id="path16578" d="M0 151.2h194.4V0H0z"/>
    </clipPath>
  </defs>
  <path id="path10892" fill="#bf3ba9" stroke-width="0" d="M408.5 76.4l15 15v193.4l-15 15v9a5.9 5.9 0 0 1-6 6H24.8a5.9 5.9 0 0 1-5.9-6v-82.5l7.5-7.5v-29.2l-7.5-7.5V5.9a5.9 5.9 0 0 1 6-5.9h374.7l9 9v67.4M33.5 195a2.7 2.7 0 1 0 5.2 0 2.7 2.7 0 1 0-5.3 0zm0 17.7a2.7 2.7 0 1 0 5.2 0 2.7 2.7 0 1 0-5.3 0zM389 200.8a3 3 0 0 0 5.9 0 3 3 0 1 0-6 0zm-22.5 0a3 3 0 0 0 5.9 0 3 3 0 1 0-6 0zM42.2 78.4a2 2 0 1 0 4.2 0 2 2 0 1 0-4.2 0zm0 23a2 2 0 1 0 4.2 0 2 2 0 1 0-4.2 0zm356.9 3.5a9.4 9.4 0 1 0 18.8 0 9.4 9.4 0 1 0-18.8 0zm0 164.9a9.4 9.4 0 1 0 18.8 0 9.4 9.4 0 1 0-18.8 0zM99.3 15a9.4 9.4 0 1 0 18.9 0 9.4 9.4 0 1 0-18.9 0zm-7.5 284.7a9.4 9.4 0 1 0 18.9 0 9.4 9.4 0 1 0-18.9 0zm224.4 0a2.4 2.4 0 1 0 4.7 0 2.4 2.4 0 1 0-4.7 0zm15 0a2.4 2.4 0 1 0 4.7 0 2.4 2.4 0 1 0-4.7 0zm15 0a2.4 2.4 0 1 0 4.7 0 2.4 2.4 0 1 0-4.7 0zm15 0a2.4 2.4 0 1 0 4.7 0 2.4 2.4 0 1 0-4.7 0zm15 0a2.4 2.4 0 1 0 4.7 0 2.4 2.4 0 1 0-4.7 0zm15 0a2.4 2.4 0 1 0 4.7 0 2.4 2.4 0 1 0-4.8 0zM390 135a2.7 2.7 0 1 0 5.3 0 2.7 2.7 0 1 0-5.3 0zm15 0a2.7 2.7 0 1 0 5.3 0 2.7 2.7 0 1 0-5.3 0zm-15 15a2.7 2.7 0 1 0 5.3 0 2.7 2.7 0 1 0-5.3 0zm15 0a2.7 2.7 0 1 0 5.3 0 2.7 2.7 0 1 0-5.3 0zm-15 15a2.7 2.7 0 1 0 5.3 0 2.7 2.7 0 1 0-5.3 0zm15 0a2.7 2.7 0 1 0 5.3 0 2.7 2.7 0 1 0-5.3 0zM127.3 15a2.4 2.4 0 1 0 4.7 0 2.4 2.4 0 1 0-4.7 0zm15 0a2.4 2.4 0 1 0 4.7 0 2.4 2.4 0 1 0-4.7 0zm15 0a2.4 2.4 0 1 0 4.7 0 2.4 2.4 0 1 0-4.8 0zm15 0a2.4 2.4 0 1 0 4.7 0 2.4 2.4 0 1 0-4.8 0zm15 0a2.4 2.4 0 1 0 4.6 0 2.4 2.4 0 1 0-4.7 0zm15 0a2.4 2.4 0 1 0 4.6 0 2.4 2.4 0 1 0-4.7 0zm14.9 0a2.4 2.4 0 1 0 4.7 0 2.4 2.4 0 1 0-4.7 0zm15 0a2.4 2.4 0 1 0 4.7 0 2.4 2.4 0 1 0-4.7 0zm15 0a2.4 2.4 0 1 0 4.7 0 2.4 2.4 0 1 0-4.7 0zm15 0a2.4 2.4 0 0 0 4.7 0 2.4 2.4 0 1 0-4.7 0zm24 0a2.4 2.4 0 1 0 4.7 0 2.4 2.4 0 1 0-4.8 0zm15 0a2.4 2.4 0 1 0 4.6 0 2.4 2.4 0 1 0-4.7 0zm15 0a2.4 2.4 0 1 0 4.6 0 2.4 2.4 0 1 0-4.7 0zm14.9 0a2.4 2.4 0 1 0 4.7 0 2.4 2.4 0 1 0-4.7 0zm15 0a2.4 2.4 0 1 0 4.7 0 2.4 2.4 0 1 0-4.7 0zm15 0a2.4 2.4 0 1 0 4.7 0 2.4 2.4 0 1 0-4.7 0zm15 0a2.4 2.4 0 1 0 4.7 0 2.4 2.4 0 1 0-4.7 0zm15 0a2.4 2.4 0 1 0 4.7 0 2.4 2.4 0 1 0-4.8 0zM48 233.9a3 3 0 0 0 5.9 0 3 3 0 1 0-5.9 0zm133.2 66a2.4 2.4 0 1 0 4.7 0 2.4 2.4 0 1 0-4.7 0zm15 0a2.4 2.4 0 1 0 4.7 0 2.4 2.4 0 1 0-4.7 0zm15 0a2.4 2.4 0 1 0 4.7 0 2.4 2.4 0 1 0-4.7 0zm15 0a2.4 2.4 0 1 0 4.7 0 2.4 2.4 0 1 0-4.7 0zm15 0a2.4 2.4 0 1 0 4.7 0 2.4 2.4 0 1 0-4.7 0zm15 0a2.4 2.4 0 1 0 4.7 0 2.4 2.4 0 1 0-4.7 0zm15 0a2.4 2.4 0 1 0 4.7 0 2.4 2.4 0 1 0-4.8 0zm15 0a2.4 2.4 0 1 0 4.7 0 2.4 2.4 0 1 0-4.8 0zM47.2 70.4a2.4 2.4 0 0 0 4.7 0 2.4 2.4 0 1 0-4.7 0zm0 38.9a2.4 2.4 0 0 0 4.7 0 2.4 2.4 0 1 0-4.7 0zM30.4 68.7a2.7 2.7 0 0 0 5.4 0 2.7 2.7 0 1 0-5.4 0zm0 42.5a2.7 2.7 0 0 0 5.4 0 2.7 2.7 0 1 0-5.4 0zM39.8 269a3 3 0 0 0 5.9 0 3 3 0 1 0-6 0zm20 28.3a3 3 0 0 0 6 0 3 3 0 1 0-6 0zM76.6 269a3 3 0 1 0 6 0 3 3 0 1 0-6 0z"/>
  <g id="g4499" transform="matrix(2.08152 0 0 -2.08152 399.1 270)">
    <g id="g19538">
      <path id="path19540" fill="#fff" d="M0 0v.9a3.4 3.4 0 0 1-6-2v-2.8A3.4 3.4 0 1 1 .6-4v1.4C.3-1.8 0-.9 0 0"/>
    </g>
  </g>
  <g id="g4503" transform="matrix(2.08152 0 0 -2.08152 270.7 58.2)">
    <g id="g19542">
      <path id="path19544" fill="#fff" d="M0 0a1 1 0 0 0-.2-.3l-.3-.2a1 1 0 0 0-.3 0h-.7v2.2h1l.3-.3L0 1a2.1 2.1 0 0 0 0-1m-.1 2.3h-2.2v-3.6h1.5c.3 0 .5 0 .8.2a1.5 1.5 0 0 1 .8 1v1.5l-.4.5-.5.4"/>
    </g>
  </g>
  <path id="path19546" fill="#fff" stroke-width="2.1" d="M274.9 55.4h-1.5v5.4h1.5z"/>
  <path id="path19548" fill="#fff" stroke-width="2.1" d="M274.9 53.3h-1.5v1.2h1.5z"/>
  <g id="g4509" transform="matrix(2.08152 0 0 -2.08152 277.3 57.3)">
    <g id="g19550">
      <path id="path19552" fill="#fff" d="M0 0l.1.2.2.2h.6L1 .2l.1-.2v-.9A.6.6 0 0 0 .5-1H.3L0-.8v.2A1.5 1.5 0 0 0 0 0m-.5-1.2c.1-.2.2-.2.4-.3l.5-.1h.4l.4.4v-.4c0-.1 0-.3-.2-.4l-.4-.2H.2l-.2.4h-.7c0-.2 0-.3.2-.4l.2-.3.4-.1h1.1l.4.3.2.4V1h-.6V.6C1 .7 1 .9.8.9a1 1 0 0 1-.4.1A1 1 0 0 1-.5.6L-.7.2v-1l.2-.4"/>
    </g>
  </g>
  <path id="path19554" fill="#fff" stroke-width="2.1" d="M282.2 60.8h1.5v-5.4h-1.5z"/>
  <path id="path19556" fill="#fff" stroke-width="2.1" d="M283.7 53.3h-1.5v1.2h1.5z"/>
  <g id="g4515" transform="matrix(2.08152 0 0 -2.08152 287.7 56.4)">
    <g id="g19558">
      <path id="path19560" fill="#fff" d="M0 0v.5h-.5v.8h-.8V.5h-.4V0h.4v-1.6l.1-.3.2-.2h.3a2.1 2.1 0 0 1 .5 0H0v.5h-.5V0z"/>
    </g>
  </g>
  <g id="g4519" transform="matrix(2.08152 0 0 -2.08152 289.7 59)">
    <g id="g19562">
      <path id="path19564" fill="#fff" d="M0 0v.1h.2a1.5 1.5 0 0 0 .4.1 1.6 1.6 0 0 1 .3.1H1v-.5L.6-.4.4-.5H.1L0-.2V0m-.5-.8l.3-.1h.8l.4.2a1 1 0 0 1 0-.2h.8V1l-.2.4-.3.3H1a3 3 0 0 1-.9 0l-.4-.1a.9.9 0 0 1-.3-.3V1H0c0 .2.1.3.2.3l.3.1H1V.8L.7.7H.5A5.3 5.3 0 0 1-.2.4a1 1 0 0 1-.3 0L-.7.2v-.8l.2-.2"/>
    </g>
  </g>
  <path id="path19566" fill="#fff" stroke-width="2.1" d="M294.3 60.8h1.6v-7.5h-1.6z"/>
  <g id="g4524" transform="matrix(2.08152 0 0 -2.08152 381 57)">
    <g id="g19568">
      <path id="path19570" fill="#fff" d="M0 0h-2v.7h-.4v-2h.4v.8h2z"/>
    </g>
  </g>
  <g id="g4528" transform="matrix(2.08152 0 0 -2.08152 381 50.6)">
    <g id="g19572">
      <path id="path19574" fill="#fff" d="M0 0l-1.3-.8-1.1.7v-.6l.7-.4-.7-.5v-.6l1.1.7L0-2.3v.6l-.8.5.8.6z"/>
    </g>
  </g>
  <g id="g4532" transform="matrix(2.08152 0 0 -2.08152 378.5 46.5)">
    <g id="g19576">
      <path id="path19578" fill="#fff" d="M0 0l-1-1.6h2z"/>
    </g>
  </g>
  <g id="g4536" transform="matrix(2.08152 0 0 -2.08152 393.3 58.1)">
    <g id="g19580">
      <path id="path19582" fill="#fff" d="M0 0h-.7v.6l.1.3h.5L0 .6zm.5.8l.2.1h.4l.2.1v.5H.6l-.2-.1-.1-.1L.2 1l-.3.3h-.3a.7.7 0 0 1-.5-.1L-1 1l-.1-.3V-.5h2.4V0h-1v.5c0 .2.1.3.2.3"/>
    </g>
  </g>
  <g id="g4540" transform="matrix(2.08152 0 0 -2.08152 396 49.9)">
    <g id="g19584">
      <path id="path19586" fill="#fff" d="M0 0l-1.3-.8-1.1.7v-.6l.7-.4-.7-.5v-.6l1.1.7L0-2.3v.6l-.8.5.8.6z"/>
    </g>
  </g>
  <g id="g4544" transform="matrix(2.08152 0 0 -2.08152 395.4 46.5)">
    <g id="g19588">
      <path id="path19590" fill="#fff" d="M0 0h-1.9l1-1.6z"/>
    </g>
  </g>
  <g id="g4548" transform="matrix(2.08152 0 0 -2.08152 288.7 45)">
    <g id="g19592">
      <path id="path19594" fill="#fff" d="M0 0a3.4 3.4 0 0 1 3.4 3.4c0 .9-.4 1.8-1 2.4a3.5 3.5 0 0 1-4.8 0 3.4 3.4 0 0 1 0-4.8C-1.8.4-1 0 0 0"/>
    </g>
  </g>
  <g id="g4552" transform="matrix(2.08152 0 0 -2.08152 264.7 45.2)">
    <g id="g19596">
      <path id="path19598" fill="#fff" d="M0 0a3.5 3.5 0 0 1 3.4 3.4c0 1-.3 1.8-1 2.4a3.5 3.5 0 0 1-4.8 0 3.4 3.4 0 0 1 0-4.8C-1.8.4-1 0 0 0"/>
    </g>
  </g>
  <g id="g4556" transform="matrix(2.08152 0 0 -2.08152 249.7 45.1)">
    <g id="g19600">
      <path id="path19602" fill="#fff" d="M0 0a3.4 3.4 0 0 1 2.4 5.8 3.4 3.4 0 0 1-4.8 0 3.4 3.4 0 0 1 0-4.8C-1.8.4-1 0 0 0"/>
    </g>
  </g>
  <g id="g4560" transform="matrix(2.08152 0 0 -2.08152 234.7 48)">
    <g id="g19604">
      <path id="path19606" fill="#fff" d="M0 0c1.9 0 3.4 1.5 3.4 3.4v1.4a3.4 3.4 0 1 1-6.8 0V3.4C-3.4 1.5-1.9 0 0 0"/>
    </g>
  </g>
  <g id="g4564" transform="matrix(2.08152 0 0 -2.08152 219.7 48)">
    <g id="g19608">
      <path id="path19610" fill="#fff" d="M0 0c1.9 0 3.4 1.5 3.4 3.4v1.4a3.4 3.4 0 1 1-6.8 0V3.4C-3.4 1.5-1.9 0 0 0"/>
    </g>
  </g>
  <g id="g4568" transform="matrix(2.08152 0 0 -2.08152 204.7 48)">
    <g id="g19612">
      <path id="path19614" fill="#fff" d="M0 0c1.9 0 3.4 1.5 3.4 3.4v1.4a3.4 3.4 0 1 1-6.8 0V3.4C-3.4 1.5-1.9 0 0 0"/>
    </g>
  </g>
  <g id="g4572" transform="matrix(2.08152 0 0 -2.08152 189.7 48)">
    <g id="g19616">
      <path id="path19618" fill="#fff" d="M0 0c1.9 0 3.4 1.5 3.4 3.4v1.4a3.4 3.4 0 0 1-6.8 0V3.4C-3.4 1.5-1.9 0 0 0"/>
    </g>
  </g>
  <g id="g4576" transform="matrix(2.08152 0 0 -2.08152 174.8 53.6)">
    <g id="g19620">
      <path id="path19622" fill="#fff" d="M0 0c1.9 0 3.4 1.5 3.4 3.4v4a3.4 3.4 0 1 1-6.8 0v-4C-3.4 1.5-1.9 0 0 0"/>
    </g>
  </g>
  <g id="g4580" transform="matrix(2.08152 0 0 -2.08152 159.8 53.6)">
    <g id="g19624">
      <path id="path19626" fill="#fff" d="M0 0c1.9 0 3.4 1.5 3.4 3.4v4a3.4 3.4 0 1 1-6.8 0v-4C-3.4 1.5-1.9 0 0 0"/>
    </g>
  </g>
  <g id="g4584" transform="matrix(2.08152 0 0 -2.08152 144.8 53.6)">
    <g id="g19628">
      <path id="path19630" fill="#fff" d="M0 0c1.9 0 3.4 1.5 3.4 3.4v4a3.4 3.4 0 1 1-6.8 0v-4C-3.4 1.5-1.9 0 0 0"/>
    </g>
  </g>
  <g id="g4588" transform="matrix(2.08152 0 0 -2.08152 129.8 53.6)">
    <g id="g19632">
      <path id="path19634" fill="#fff" d="M0 0c1.9 0 3.4 1.5 3.4 3.4v4a3.4 3.4 0 1 1-6.8 0v-4C-3.4 1.5-1.9 0 0 0"/>
    </g>
  </g>
  <g id="g4592" transform="matrix(2.08152 0 0 -2.08152 303.7 45)">
    <g id="g19636">
      <path id="path19638" fill="#fff" d="M0 0a3.4 3.4 0 0 1 3.4 3.4c0 .9-.4 1.8-1 2.4a3.5 3.5 0 0 1-4.8 0 3.4 3.4 0 0 1 0-4.8C-1.8.4-1 0 0 0"/>
    </g>
  </g>
  <g id="g4596" transform="matrix(2.08152 0 0 -2.08152 318.6 45)">
    <g id="g19640">
      <path id="path19642" fill="#fff" d="M0 0a3.4 3.4 0 0 1 3.4 3.4c0 .9-.4 1.8-1 2.4a3.5 3.5 0 0 1-4.8 0 3.4 3.4 0 0 1 0-4.8C-1.8.4-1 0 0 0"/>
    </g>
  </g>
  <g id="g4600" transform="matrix(2.08152 0 0 -2.08152 333.6 45)">
    <g id="g19644">
      <path id="path19646" fill="#fff" d="M0 0a3.4 3.4 0 0 1 2.4 5.8 3.4 3.4 0 0 1-4.8 0 3.4 3.4 0 0 1 0-4.8C-1.8.4-1 0 0 0"/>
    </g>
  </g>
  <g id="g4604" transform="matrix(2.08152 0 0 -2.08152 348.6 45)">
    <g id="g19648">
      <path id="path19650" fill="#fff" d="M0 0a3.4 3.4 0 0 1 2.4 5.8 3.5 3.5 0 0 1-4.8 0c-.6-.6-1-1.5-1-2.4A3.4 3.4 0 0 1 0 0"/>
    </g>
  </g>
  <g id="g4608" transform="matrix(2.08152 0 0 -2.08152 363.6 45)">
    <g id="g19652">
      <path id="path19654" fill="#fff" d="M0 0a3.4 3.4 0 0 1 3.4 3.4c0 .9-.4 1.8-1 2.4a3.5 3.5 0 0 1-4.8 0 3.4 3.4 0 0 1 0-4.8C-1.8.4-.9 0 0 0"/>
    </g>
  </g>
  <g id="g4612" transform="matrix(2.08152 0 0 -2.08152 378.6 45)">
    <g id="g19656">
      <path id="path19658" fill="#fff" d="M0 0a3.4 3.4 0 0 1 2.4 5.8 3.4 3.4 0 0 1-5.8-2.4A3.4 3.4 0 0 1 0 0"/>
    </g>
  </g>
  <g id="g4616" transform="matrix(2.08152 0 0 -2.08152 393.6 45)">
    <g id="g19660">
      <path id="path19662" fill="#fff" d="M0 0a3.4 3.4 0 0 1 3.4 3.4c0 .9-.4 1.8-1 2.4a3.5 3.5 0 0 1-4.8 0 3.4 3.4 0 0 1 0-4.8C-1.8.4-1 0 0 0"/>
    </g>
  </g>
  <g id="g4620" transform="matrix(2.08152 0 0 -2.08152 210.2 119.5)">
    <g id="g19664">
      <path id="path19666" fill="#fff" d="M0 0a1 1 0 1 0 0 2 1 1 0 0 0 0-2m-17.5 9.4a1 1 0 1 0 0 2 1 1 0 0 0 0-2m4.1 16.6v-1.4h4.8v-3.3l-8.3-8.4h-.6a2.5 2.5 0 0 1-2.4-3L-36-6l1.9-2 1 1 15 15.1a2.5 2.5 0 0 1 3 3l9.3 9.2v4.4H9.4V12.4L.5 3.5a2.6 2.6 0 0 1-1 0l-3.7 3.7c-1.3 1.5-1.2 2.9 0 4v.1l-2 2c-1-1-1.1-2.2-.6-3.5L-8.1 11l-2-2 6.8-6.7.8-.8V1a2.5 2.5 0 1 1 5 .6l9.6 9.6v13.4h79.6V26z"/>
    </g>
  </g>
  <g id="g4624" transform="matrix(2.08152 0 0 -2.08152 267.1 248.6)">
    <g id="g19668">
      <path id="path19670" fill="#fff" d="M0 0h.9L1-.1l.2-.2v-.5L1-1H0zm0-1.7h1.4l.4.3.2.4a1.4 1.4 0 0 1 0 1 1 1 0 0 1-.6.6H-.8V-3H0z"/>
    </g>
  </g>
  <g id="g4628" transform="matrix(2.08152 0 0 -2.08152 273.4 251.5)">
    <g id="g19672">
      <path id="path19674" fill="#fff" d="M0 0l.1.3.2.2h.6l.2-.2.1-.3a1.6 1.6 0 0 0 0-.6V-1H.3l-.2.2-.1.3A1.5 1.5 0 0 0 0 0m0-1.6h1.2a1.2 1.2 0 0 1 .7.7V.3l-.3.4-.4.3H0A1.2 1.2 0 0 1-.7.3V-.9a1.2 1.2 0 0 1 .7-.7"/>
    </g>
  </g>
  <g id="g4632" transform="matrix(2.08152 0 0 -2.08152 281.9 251.2)">
    <g id="g19676">
      <path id="path19678" fill="#fff" d="M0 0l.5-1.8h.7L2 1h-.7L.8-1 .4.9h-.7L-.8-1-1.3.9H-2l.8-2.7h.7L0 0z"/>
    </g>
  </g>
  <g id="g4636" transform="matrix(2.08152 0 0 -2.08152 287.7 251.5)">
    <g id="g19680">
      <path id="path19682" fill="#fff" d="M0 0v.2a.5.5 0 0 0 .3.3H1l.2-.5zm1.9.1c0 .2-.2.4-.3.5a1.2 1.2 0 0 1-1 .5L.1 1A1.3 1.3 0 0 1-.6.3l-.1-.6v-.5l.3-.5.5-.3h.5l.8.1.5.7h-.7L1-1a.6.6 0 0 0-.4-.1L.2-1 0-.5h1.9v.6"/>
    </g>
  </g>
  <g id="g4640" transform="matrix(2.08152 0 0 -2.08152 295 249.3)">
    <g id="g19684">
      <path id="path19686" fill="#fff" d="M0 0a1 1 0 0 1-.4-.3l-.2-.2V0h-.7v-2.7h.7V-1l.2.2.2.2h.4a1.3 1.3 0 0 0 .2 0V0H0"/>
    </g>
  </g>
  <g id="g4644" transform="matrix(2.08152 0 0 -2.08152 359 249.2)">
    <g id="g19688">
      <path id="path19690" fill="#fff" d="M0 0l.5-1.3h-1zm-.7-2H.7l.3-.7h.8L.4.9h-.8l-1.4-3.6h.8z"/>
    </g>
  </g>
  <g id="g4648" transform="matrix(2.08152 0 0 -2.08152 363 249.4)">
    <g id="g19692">
      <path id="path19694" fill="#fff" d="M0 0v-2.6h.7v1.3c0 .3 0 .5.2.6l.4.2c.2 0 .3 0 .3-.2l.2-.4v-1.5h.7v2l-.2.4L2 0a1.2 1.2 0 0 1-1 0 .8.8 0 0 1-.3-.4V0z"/>
    </g>
  </g>
  <g id="g4652" transform="matrix(2.08152 0 0 -2.08152 371 254)">
    <g id="g19696">
      <path id="path19698" fill="#fff" d="M0 0h-.1l-.1.2v.1a.3.3 0 0 0 0 .3H0l.2.1h.1a2.5 2.5 0 0 1 .3.1h.2V.4L.6.2.5.1.2 0H0m.8-.2a1 1 0 0 1 0-.2h.8l-.1.2v1.7l-.1.4-.3.2-.4.2a3 3 0 0 1-.8 0L-.5 2a.9.9 0 0 1-.3-.3l-.1-.4h.7l.1.3.4.1h.3l.1-.2v-.3l-.2-.1H.2A7.4 7.4 0 0 1-.4 1a1 1 0 0 1-.3 0L-1 .7v-.8l.3-.2.2-.1h.9l.4.2"/>
    </g>
  </g>
  <path id="path19700" fill="#fff" stroke-width="2.1" d="M375 254.9h1.6v-7.6H375z"/>
  <g id="g4657" transform="matrix(2.08152 0 0 -2.08152 379 251.5)">
    <g id="g19702">
      <path id="path19704" fill="#fff" d="M0 0l.1.3.2.2h.6l.2-.2.1-.3a1.7 1.7 0 0 0 0-.6V-1a.5.5 0 0 0-.6-.3L.3-1l-.2.2-.1.3A1.5 1.5 0 0 0 0 0m0-1.6h1.2a1.2 1.2 0 0 1 .7.7V.3l-.3.4-.4.3H0A1.2 1.2 0 0 1-.7.3V-.9a1.2 1.2 0 0 1 .7-.7"/>
    </g>
  </g>
  <g id="g4661" transform="matrix(2.08152 0 0 -2.08152 387.5 252.6)">
    <g id="g19706">
      <path id="path19708" fill="#fff" d="M0 0l-.1-.2-.2-.2h-.3a.5.5 0 0 0-.4.2l-.1.3a1.5 1.5 0 0 0 0 .5V1l.3.1h.5C-.2 1 0 1 0 .8V0m.5-1.7l.2.4v2.9H0v-.4c0 .2-.2.3-.3.3a1 1 0 0 1-.5.1 1 1 0 0 1-.8-.4l-.2-.4v-1c0-.2 0-.3.2-.4l.3-.3.5-.1.5.1.3.3v-.8l-.4-.2H-1l-.2.4h-.7l.1-.4.3-.3.4-.1H0l.4.3"/>
    </g>
  </g>
  <path id="path19710" fill="#fff" stroke-width="2.1" d="M394 247.3h-1.7v7.6h1.7z"/>
  <g id="g4666" transform="matrix(2.08152 0 0 -2.08152 395 249.4)">
    <g id="g19712">
      <path id="path19714" fill="#fff" d="M0 0v-2.6h.7v1.3c0 .3 0 .5.2.6l.4.2c.2 0 .3 0 .3-.2l.2-.4v-1.5h.7v2l-.2.4L2 0a1.2 1.2 0 0 1-1 0 .8.8 0 0 1-.3-.4V0z"/>
    </g>
  </g>
  <g id="g4670" transform="matrix(2.08152 0 0 -2.08152 378.6 265)">
    <g id="g19716">
      <path id="path19718" fill="#fff" d="M0 0a3.4 3.4 0 0 1-3.4-3.4v-2.8a3.4 3.4 0 1 1 6.8 0v2.8C3.4-1.5 1.9 0 0 0"/>
    </g>
  </g>
  <g id="g4674" transform="matrix(2.08152 0 0 -2.08152 363.6 265)">
    <g id="g19720">
      <path id="path19722" fill="#fff" d="M0 0a3.4 3.4 0 0 1-3.4-3.4v-2.8a3.4 3.4 0 1 1 6.8 0v2.8C3.4-1.5 1.9 0 0 0"/>
    </g>
  </g>
  <g id="g4678" transform="matrix(2.08152 0 0 -2.08152 348.6 265)">
    <g id="g19724">
      <path id="path19726" fill="#fff" d="M0 0a3.4 3.4 0 0 1-3.4-3.4v-2.8a3.4 3.4 0 1 1 6.8 0v2.8C3.4-1.5 1.9 0 0 0"/>
    </g>
  </g>
  <g id="g4682" transform="matrix(2.08152 0 0 -2.08152 333.6 265)">
    <g id="g19728">
      <path id="path19730" fill="#fff" d="M0 0a3.4 3.4 0 0 1-3.4-3.4v-2.8a3.4 3.4 0 1 1 6.8 0v2.8C3.4-1.5 1.9 0 0 0"/>
    </g>
  </g>
  <g id="g4686" transform="matrix(2.08152 0 0 -2.08152 318.6 265)">
    <g id="g19732">
      <path id="path19734" fill="#fff" d="M0 0a3.4 3.4 0 0 1-3.4-3.4v-2.8a3.4 3.4 0 1 1 6.8 0v2.8C3.4-1.5 1.9 0 0 0"/>
    </g>
  </g>
  <g id="g4690" transform="matrix(2.08152 0 0 -2.08152 288.7 259.4)">
    <g id="g19736">
      <path id="path19738" fill="#fff" d="M0 0a3.4 3.4 0 0 1-3.4-3.4V-9a3.4 3.4 0 1 1 6.8 0v5.6C3.4-1.5 1.9 0 0 0"/>
    </g>
  </g>
  <g id="g4694" transform="matrix(2.08152 0 0 -2.08152 273.7 259.4)">
    <g id="g19740">
      <path id="path19742" fill="#fff" d="M0 0a3.4 3.4 0 0 1-3.4-3.4V-9a3.4 3.4 0 1 1 6.8 0v5.6C3.4-1.5 1.9 0 0 0"/>
    </g>
  </g>
  <g id="g4698" transform="matrix(2.08152 0 0 -2.08152 258.7 259.4)">
    <g id="g19744">
      <path id="path19746" fill="#fff" d="M0 0a3.4 3.4 0 0 1-3.4-3.4V-9a3.4 3.4 0 1 1 6.8 0v5.6C3.4-1.5 1.9 0 0 0"/>
    </g>
  </g>
  <g id="g4702" transform="matrix(2.08152 0 0 -2.08152 243.7 259.4)">
    <g id="g19748">
      <path id="path19750" fill="#fff" d="M0 0a3.4 3.4 0 0 1-3.4-3.4V-9a3.4 3.4 0 1 1 6.8 0v5.6C3.4-1.5 1.9 0 0 0"/>
    </g>
  </g>
  <g id="g4706" transform="matrix(2.08152 0 0 -2.08152 228.7 259.4)">
    <g id="g19752">
      <path id="path19754" fill="#fff" d="M0 0a3.4 3.4 0 0 1-3.4-3.4V-9a3.4 3.4 0 1 1 6.8 0v5.6C3.4-1.5 1.9 0 0 0"/>
    </g>
  </g>
  <g id="g4710" transform="matrix(2.08152 0 0 -2.08152 213.7 259.4)">
    <g id="g19756">
      <path id="path19758" fill="#fff" d="M0 0a3.4 3.4 0 0 1-3.4-3.4V-9a3.4 3.4 0 1 1 6.8 0v5.6C3.4-1.5 1.9 0 0 0"/>
    </g>
  </g>
  <g id="g4714" transform="matrix(2.08152 0 0 -2.08152 198.7 259.4)">
    <g id="g19760">
      <path id="path19762" fill="#fff" d="M0 0a3.4 3.4 0 0 1-3.4-3.4V-9a3.4 3.4 0 1 1 6.8 0v5.6C3.4-1.5 1.9 0 0 0"/>
    </g>
  </g>
  <path id="path19764" fill="#fff" stroke-width="2.1" d="M311.1 244.8h90v-3h-90z"/>
  <g id="g4719" transform="matrix(2.08152 0 0 -2.08152 325.5 97.8)">
    <g id="g19766">
      <path id="path19768" fill="#fff" d="M0 0c-.5-.2-.6-.3-1-.3h-.3l-.4.1v.9l.8.1H0zm1.4 2.1c0 .9 0 1.1-.3 1.4-.2.2-.5.3-1 .3h-1.8c-.5 0-.7-.1-1-.3-.1-.2-.2-.5-.2-1.3h1.3l.1.4.3.1H0V1.5l-1.4.2c-.9 0-1.2-.1-1.4-.4-.2-.2-.3-.6-.3-1.2s.1-1 .3-1.1c.2-.2.4-.3.9-.3h.6c.5 0 .7.1 1.3.6v-.5h1.4z"/>
    </g>
  </g>
  <g id="g4723" transform="matrix(2.08152 0 0 -2.08152 336.2 97.6)">
    <g id="g19770">
      <path id="path19772" fill="#fff" d="M0 0l-.8-.2h-.4l-.5.1-.1 1.3.1 1.3h1l.7-.1zm0 3.1c-.6.5-.8.6-1.2.6h-.6c-.5 0-.8-.1-1-.3-.3-.3-.4-.7-.4-2.2 0-1.5 0-2 .4-2.2.2-.2.5-.3 1-.3h.5c.5 0 .7 0 1.3.6v-.6h1.4v6.7H0z"/>
    </g>
  </g>
  <g id="g4727" transform="matrix(2.08152 0 0 -2.08152 346.7 97.8)">
    <g id="g19774">
      <path id="path19776" fill="#fff" d="M0 0c-.5-.2-.6-.3-1-.3h-.3l-.4.1v.9l.8.1H0zm-1.4 1.7c-.9 0-1.2-.1-1.4-.4-.2-.2-.3-.6-.3-1.2s.1-1 .3-1.1c.2-.2.4-.3.9-.3h.6c.5 0 .7.1 1.3.6v-.5h1.4V2c0 .9 0 1.1-.3 1.4-.2.2-.5.3-1 .3h-1.8c-.5 0-.7-.1-1-.3-.1-.2-.2-.5-.2-1.3h1.3l.1.4.3.1H0V1.5l-1.4.2"/>
    </g>
  </g>
  <g id="g4731" transform="matrix(2.08152 0 0 -2.08152 353.7 88.7)">
    <g id="g19778">
      <path id="path19780" fill="#fff" d="M0 0h1v1.1H-.2c-.5 0-.8 0-1-.3-.2-.2-.3-.5-.3-1.2v-5.2H0v4h1v1H0V0"/>
    </g>
  </g>
  <g id="g4735" transform="matrix(2.08152 0 0 -2.08152 356.8 90)">
    <g id="g19782">
      <path id="path19784" fill="#fff" d="M0 0v-5h1.4v3.4c.4.2.7.2 1 .2h.7V0h-.5c-.4 0-.7-.2-1.2-.8V0z"/>
    </g>
  </g>
  <g id="g4739" transform="matrix(2.08152 0 0 -2.08152 364.4 90)">
    <g id="g19786">
      <path id="path19788" fill="#fff" d="M0 0v-3.5c0-.8 0-1 .3-1.2.2-.2.5-.3.9-.3h.6c.5 0 .7 0 1.3.7V-5h1.4v5H3.1v-3.7l-.8-.2H2l-.4.1-.1.4V0z"/>
    </g>
  </g>
  <path id="path19790" fill="#fff" stroke-width="2.1" d="M374.8 100.4h2.9V89.9h-2.9z"/>
  <path id="path19792" fill="#fff" stroke-width="2.1" d="M377.7 86.4h-2.9v2.1h2.9z"/>
  <g id="g4745" transform="matrix(2.08152 0 0 -2.08152 378.8 88.5)">
    <g id="g19794">
      <path id="path19796" fill="#fff" d="M0 0v-4.6c0-.5 0-.7.2-.9l1-.2H2l.3.2v1h-.8l-.1.3v2.4h1v1.1h-1V0z"/>
    </g>
  </g>
  <g id="g4749" transform="matrix(2.08152 0 0 -2.08152 307.2 85.1)">
    <g id="g19798">
      <path id="path19800" fill="#fff" d="M0 0c-.1-.2-.6-.2-1.1.1-.5.3-.9.6-.8.8.1.2.6.2 1.2 0C-.2.5 0 .1 0 0m-.3-1.9c-.4-.4-.9-.6-1-.4-.2.1 0 .6.4 1s.9.6 1 .4c.2-.1 0-.6-.4-1m.8 3.4c.1.6.4 1 .6 1 .2 0 .3-.6.2-1.1 0-.6-.3-1-.5-1-.3 0-.4.5-.3 1m1.8-1C3 .4 3.4.4 3.4 0c0-.2-.4-.5-1-.6-.5 0-1 0-1 .3 0 .2.4.5 1 .6m-.5-3.2c-.2-.1-.6.2-.8.7-.3.5-.3 1-.1 1.1.2.1.6-.2.8-.7.3-.5.3-1 .1-1.1m-5 6.3h-2.5c-.4 0-.6 0-.7-.3-.1-.3 0-.4.2-.8l1.4-2s.8-1.2 2.1-1.2h.6l-.6-.1c-1.2-.4-1.6-1.9-1.6-1.9L-4.9-5c-.2-.4-.2-.5 0-.8.3-.2.4-.2.8 0l2.3.7s1.5.4 1.9 1.7l.1.5v-.6c0-1.2 1.3-2 1.3-2l2-1.5c.3-.2.4-.3.7-.2.3.2.3.3.3.7V-4s0 1.5-1 2.2l-.4.3.5-.2C4.8-2 6-1.2 6-1.2L8 .2c.3.3.4.4.4.7 0 .3-.2.4-.6.5l-2.4.7S4 2.7 3 2l-.4-.3.3.4c.8 1 .2 2.5.2 2.5l-.7 2.3c-.1.4-.2.5-.5.6-.3 0-.5-.1-.7-.4L-.2 5s-1-1.2-.6-2.4l.2-.5-.3.4c-.7 1-2.2 1-2.2 1"/>
    </g>
  </g>
  <g id="g4773" transform="matrix(2.08152 0 0 -2.08152 28.7 126)">
    <g id="g19822">
      <path id="path19824" fill="#fff" d="M0 0h-.5v-1.4H-3V-2h3z"/>
    </g>
  </g>
  <g id="g4777" transform="matrix(2.08152 0 0 -2.08152 25.3 144.8)">
    <g id="g19826">
      <path id="path19828" fill="#fff" d="M0 0h-.8v.9c.1.2.3.2.4.2.2 0 .3 0 .4-.2V.6zm1.6 0H.5v.9L1 1h.3a1.4 1.4 0 0 1 .4 0v.8l-.2-.2H.9a1 1 0 0 1-.4 0 .5.5 0 0 1-.3-.3l-.3.3a.9.9 0 0 1-.7 0H-1l-.2-.4V-.6h2.8z"/>
    </g>
  </g>
  <g id="g4781" transform="matrix(2.08152 0 0 -2.08152 28.7 140.8)">
    <g id="g19830">
      <path id="path19832" fill="#fff" d="M0 0v.7l-1 .6 1 .5v.8l-1.5-1-1.4.9v-.7l1-.5-1-.5V0l1.4 1z"/>
    </g>
  </g>
  <g id="g4797" transform="matrix(2.08152 0 0 -2.08152 23.7 159.5)">
    <g id="g19846">
      <path id="path19848" fill="#fff" d="M0 0h2.4v.6H0v.9h-.5V-1H0z"/>
    </g>
  </g>
  <g id="g4801" transform="matrix(2.08152 0 0 -2.08152 28.7 156.2)">
    <g id="g19850">
      <path id="path19852" fill="#fff" d="M0 0v.7l-1 .6 1 .5v.8l-1.5-1-1.4.9v-.7l1-.5-1-.5V0l1.4 1z"/>
    </g>
  </g>
  <g id="g4805" transform="matrix(2.08152 0 0 -2.08152 27.2 173)">
    <g id="g19854">
      <path id="path19856" fill="#fff" d="M0 0l-.8-.2c-.3 0-.5 0-.7.2-.2.1-.3.3-.3.6 0 .2.1.4.3.5.2.2.4.2.7.2.4 0 .6 0 .8-.2C.2 1 .3.8.3.6.3.3.2 0 0 0m-.8 2c-.5 0-.9-.2-1.1-.5-.3-.2-.4-.5-.4-1 0-.3.1-.7.4-.9.2-.3.6-.4 1.1-.4.6 0 1 .1 1.2.4.3.2.4.6.4 1s-.1.7-.4 1c-.2.2-.6.3-1.1.3"/>
    </g>
  </g>
  <g id="g4809" transform="matrix(2.08152 0 0 -2.08152 25.4 165.7)">
    <g id="g19858">
      <path id="path19860" fill="#fff" d="M0 0h1.6v.6H0S-.3.6-.5.4A.8.8 0 0 1-.6 0l.1-.5.2-.2h-.3v-.5h2.2v.6H0c-.2 0-.3.2-.3.4 0 .1 0 .2.2.3"/>
    </g>
  </g>
  <g id="g4857" transform="matrix(2.08152 0 0 -2.08152 277.9 214.3)">
    <g id="g19906">
      <path id="path19908" fill="#fff" d="M0 0l-.5 1 .3.4.5.4.3.3c.2 0 .3-.2.7-.8zm2.6 1.8C1.8 3 1.4 3.5.9 3.5c-.3 0-.6-.2-1-.5l-1-1c-.4-.4-.6-.7-.6-1.2 0-.4.1-.9.9-2.1C0-2.6.4-2.9.9-2.9c.3 0 .6 0 1 .4l1 1.1c.4.4.6.7.6 1.1 0 .3-.1.7-.5 1.4l-1-1 .3-.5c0-.1 0-.2-.3-.4l-.5-.5-.4-.2s-.2 0-.7.8l2.1 2.1c.2.1.2.2 0 .4"/>
    </g>
  </g>
  <g id="g4861" transform="matrix(2.08152 0 0 -2.08152 291.5 209.6)">
    <g id="g19910">
      <path id="path19912" fill="#fff" d="M0 0l1 1-2.6 1-.2 3.6-1.1-1.2.1-2-1.6.5-1-1 2.5-1 .2-3.6 1.2 1.2-.2 2v.1z"/>
    </g>
  </g>
  <g id="g4865" transform="matrix(2.08152 0 0 -2.08152 297 200.8)">
    <g id="g19914">
      <path id="path19916" fill="#fff" d="M0 0l-.3-.3-.7-.3-1.2 2c.2.5.2.7.5 1l.1.2.4.2c.2 0 .4-.2.9-1L.3.5C.3.3.2.2 0 0m-1 4.4c-.2 0-.5-.1-.8-.5l-.2-.2c-.4-.3-.5-.6-.6-1.6l-.4.6-1-1 3.5-6 1 1.1-1 2c.7 0 1 0 1.3.3l.2.2c.3.4.6.8.6 1.3 0 .4-.1 1-.9 2.1C0 4-.5 4.4-1 4.4"/>
    </g>
  </g>
  <g id="g4869" transform="matrix(2.08152 0 0 -2.08152 301.8 188.2)">
    <g id="g19918">
      <path id="path19920" fill="#fff" d="M0 0l.4.4-.8 1.2-.3-.3C-1 1-1.1.6-1.2-.2l-.3.6-1-1L.1-5l1 1-1.8 3c.2.5.4.7.7 1"/>
    </g>
  </g>
  <g id="g4873" transform="matrix(2.08152 0 0 -2.08152 306.3 185.9)">
    <g id="g19922">
      <path id="path19924" fill="#fff" d="M0 0l-.5 1 .3.4.5.4.3.3c.2 0 .3-.2.7-.8zm3.5-.3c0 .3-.1.7-.5 1.4l-1-1 .3-.5c0-.1 0-.2-.3-.4l-.5-.5-.4-.2s-.2 0-.7.8l2.1 2.1c.2.1.2.2 0 .4C1.9 3 1.5 3.5 1 3.5c-.3 0-.6-.2-1-.5l-1-1c-.4-.4-.6-.7-.6-1.2 0-.4.1-.9.9-2.1C0-2.6.4-2.9.9-2.9c.3 0 .6 0 1 .4l1 1.1c.4.4.6.7.6 1.1"/>
    </g>
  </g>
  <g id="g4877" transform="matrix(2.08152 0 0 -2.08152 316.4 181.6)">
    <g id="g19926">
      <path id="path19928" fill="#fff" d="M0 0l-.3-.2-.3.4-.9-.8c.4-.8.7-1 1-1 .2 0 .5.1.8.4L1.7.2c.3.3.5.6.5.9 0 .3-.1.6-.5 1.2-.3.5-.6.8-1 .8-.1 0-.3 0-.7-.3L-1.2 2l-.2-.1-.2.2-.2.4.2.3.6.6.3.2.3-.4 1 1c-.5.6-.8.8-1 .8-.3 0-.6-.1-.8-.4l-1.4-1.3c-.2-.3-.4-.6-.4-.9 0-.3 0-.6.4-1.1.3-.6.6-.8 1-.8.1 0 .3 0 .7.3l1.2.8h.2s.2 0 .3-.2L.9 1 .8.8z"/>
    </g>
  </g>
  <g id="g4881" transform="matrix(2.08152 0 0 -2.08152 322.7 177.8)">
    <g id="g19930">
      <path id="path19932" fill="#fff" d="M0 0c.2 0 .5.1.7.4l1.5 1.5c.3.2.4.5.4.8 0 .3 0 .7-.4 1.2-.3.5-.6.8-1 .8-.1 0-.3 0-.7-.3l-1.2-.8-.2-.1s-.2 0-.3.2l-.1.4s0 .2.2.3l.6.6.3.2.3-.4 1 1c-.5.6-.8.8-1.1.8-.2 0-.5 0-.8-.4L-2 5c-.3-.3-.4-.6-.4-.9 0-.3 0-.6.4-1.1.3-.5.6-.8 1-.8.1 0 .3 0 .7.3l1.2.8H1l.2-.2.2-.4-.2-.2-.7-.8-.3-.2L0 2l-1-1c.5-.6.8-1 1-1"/>
    </g>
  </g>
  <g id="g4885" transform="matrix(2.08152 0 0 -2.08152 107.7 81)">
    <g id="g19934">
      <path id="path19936" fill="#fff" d="M0 0c2 0 3.5 1.6 3.5 3.5V5a3.5 3.5 0 1 1-7 0V3.5C-3.5 1.5-2 0 0 0"/>
    </g>
  </g>
  <g id="g4889" transform="matrix(2.08152 0 0 -2.08152 318.6 255.2)">
    <g id="g19938">
      <path id="path19940" fill="#fff" d="M0 0v.2z"/>
    </g>
  </g>
  <g id="g4893" transform="matrix(2.08152 0 0 -2.08152 318.5 258.3)">
    <g id="g19942">
      <path id="path19944" fill="#fff" d="M0 0c-.8-.2-1.6-.5-1.6-1 0-.7.8-.9 1.6-1.1l.3.1c0 .1 0 .3-.2.3-.5.2-1.2.4-1.2.6 0 .3.7.5 1.2.7.8.2 1.6.4 1.6 1S1 1.5.1 1.7v-.4C.4 1 1.2.9 1.2.6 1.3.4.5.2 0 0"/>
    </g>
  </g>
  <g id="g4897" transform="matrix(2.08152 0 0 -2.08152 333.5 258.3)">
    <g id="g19946">
      <path id="path19948" fill="#fff" d="M0 0c-.8-.2-1.6-.5-1.6-1 0-.7.8-.9 1.6-1.1l.1.4c-.5.2-1.2.4-1.2.6 0 .3.7.5 1.2.7.8.2 1.6.4 1.6 1S1 1.5.1 1.7v-.4C.4 1 1.2.9 1.2.6 1.3.4.5.2 0 0"/>
    </g>
  </g>
  <g id="g4901" transform="matrix(2.08152 0 0 -2.08152 333.6 255.2)">
    <g id="g19950">
      <path id="path19952" fill="#fff" d="M0 0v.2z"/>
    </g>
  </g>
  <g id="g4905" transform="matrix(2.08152 0 0 -2.08152 347.1 48.2)">
    <g id="g19954">
      <path id="path19956" fill="#fff" d="M0 0a.7.7 0 1 1 1.4 0A.7.7 0 0 1 0 0"/>
    </g>
  </g>
  <g id="g4909" transform="matrix(2.08152 0 0 -2.08152 362.1 48.2)">
    <g id="g19958">
      <path id="path19960" fill="#fff" d="M0 0a.7.7 0 1 1 1.4 0A.7.7 0 0 1 0 0"/>
    </g>
  </g>
  <g id="g4913" transform="matrix(2.08152 0 0 -2.08152 377.1 62.3)">
    <g id="g19962">
      <path id="path19964" fill="#fff" d="M0 0a.7.7 0 1 1 1.4 0A.7.7 0 0 1 0 0"/>
    </g>
  </g>
  <g id="g4917" transform="matrix(2.08152 0 0 -2.08152 392 62.3)">
    <g id="g19966">
      <path id="path19968" fill="#fff" d="M0 0a.7.7 0 1 1 1.4 0A.7.7 0 0 1 0 0"/>
    </g>
  </g>
  <g id="g4921" transform="matrix(2.08152 0 0 -2.08152 317.2 48.2)">
    <g id="g19970">
      <path id="path19972" fill="#fff" d="M0 0a.7.7 0 1 1 1.4 0A.7.7 0 0 1 0 0"/>
    </g>
  </g>
  <g id="g4925" transform="matrix(2.08152 0 0 -2.08152 302.2 48.2)">
    <g id="g19974">
      <path id="path19976" fill="#fff" d="M0 0a.7.7 0 1 1 1.4 0A.7.7 0 0 1 0 0"/>
    </g>
  </g>
  <g id="g4929" transform="matrix(2.08152 0 0 -2.08152 290.1 48.2)">
    <g id="g19978">
      <path id="path19980" fill="#fff" d="M0 0a.7.7 0 1 1-1.4 0A.7.7 0 0 1 0 0"/>
    </g>
  </g>
  <g id="g4933" transform="matrix(2.08152 0 0 -2.08152 248.2 48.4)">
    <g id="g19982">
      <path id="path19984" fill="#fff" d="M0 0a.7.7 0 1 1 1.4 0A.7.7 0 0 1 0 0"/>
    </g>
  </g>
  <g id="g4937" transform="matrix(2.08152 0 0 -2.08152 332.1 48.2)">
    <g id="g19986">
      <path id="path19988" fill="#fff" d="M0 0a.7.7 0 1 1 1.4 0A.7.7 0 0 1 0 0"/>
    </g>
  </g>
  <g id="g4941" transform="matrix(2.08152 0 0 -2.08152 264.7 46.9)">
    <g id="g19990">
      <path id="path19992" fill="#fff" d="M0 0a.7.7 0 1 1 0-1.4A.7.7 0 0 1 0 0"/>
    </g>
  </g>
  <g id="g4945" transform="matrix(2.08152 0 0 -2.08152 233.2 51.3)">
    <g id="g19994">
      <path id="path19996" fill="#fff" d="M0 0a.7.7 0 1 1 1.4 0A.7.7 0 0 1 0 0"/>
    </g>
  </g>
  <g id="g4949" transform="matrix(2.08152 0 0 -2.08152 218.2 51.3)">
    <g id="g19998">
      <path id="path20000" fill="#fff" d="M0 0a.7.7 0 1 1 1.4 0A.7.7 0 0 1 0 0"/>
    </g>
  </g>
  <g id="g4953" transform="matrix(2.08152 0 0 -2.08152 203.3 51.3)">
    <g id="g20002">
      <path id="path20004" fill="#fff" d="M0 0a.7.7 0 1 1 1.4 0A.7.7 0 0 1 0 0"/>
    </g>
  </g>
  <g id="g4957" transform="matrix(2.08152 0 0 -2.08152 188.3 51.3)">
    <g id="g20006">
      <path id="path20008" fill="#fff" d="M0 0a.7.7 0 1 1 1.4 0A.7.7 0 0 1 0 0"/>
    </g>
  </g>
  <g id="g4961" transform="matrix(2.08152 0 0 -2.08152 303.3 162)">
    <g id="g20010">
      <path id="path20012" fill="#fff" d="M0 0l-1.2 5.3 3.3-3.2zm5.3 5.3L4 4l-5.3 5.4L-3.8 7l1.7-9 1.8-1.7 4 4.1 1.8-1.7 2 2-1.8 1.7L7 3.6z"/>
    </g>
  </g>
  <g id="g4965" transform="matrix(2.08152 0 0 -2.08152 267.2 175.7)">
    <g id="g20014">
      <path id="path20016" fill="#fff" d="M0 0l8.8-8.8 1.9 2L5-1.3l6-1.2v.1l-1 6.2L15.6-2l2 2-8.8 8.8-2.1-2.1L8 .7 2 2z"/>
    </g>
  </g>
  <g id="g4969" transform="matrix(2.08152 0 0 -2.08152 208.5 87.5)">
    <g id="g20018">
      <path id="path20020" fill="#fff" d="M0 0c1 1 2.6.9 3.6 0v-.1c1-1 1.2-2.5.1-3.6-1-1-2.6-.9-3.6.1S-1.1-1 0 0m5.3-5.3c2.1 2 2.1 5.2.2 7v.1c-2 2-5 2-7.1-.1a5 5 0 0 1-.2-7.2c2-2 5-2 7.1.2"/>
    </g>
  </g>
  <g id="g4973" transform="matrix(2.08152 0 0 -2.08152 181.4 148.2)">
    <g id="g20022">
      <path id="path20024" fill="#fff" d="M0 0a1 1 0 1 0 0 2 1 1 0 0 0 0-2m2.5.5v1c-.2.7-.6 1.3-1.2 1.6-.6.5-1.3.5-1.8.4l-.9.9-8.8 8.7-2-2 1.4-6-6 1.3-2.1-2 8.7-8.8 2 1.9-5.8 5.7 6.2-1.3L-9 8.2l6.5-6.5V1c0-.7.4-1.3.8-1.7.9-.8 1.6-.9 2.2-.7L44.1-45H4.7v-1.4h50.4v1.4H48z"/>
    </g>
  </g>
  <g id="g4977" transform="matrix(2.08152 0 0 -2.08152 188.2 101.5)">
    <g id="g20026">
      <path id="path20028" fill="#fff" d="M0 0l-1.6-1.6-2 2-2-1.9 2-2-.7-.8 1.7-1.6.7.8 5.1-5.1 2 1.9-5.1 5 1.5 1.7z"/>
    </g>
  </g>
  <g id="g4981" transform="matrix(2.08152 0 0 -2.08152 175.3 120.3)">
    <g id="g20030">
      <path id="path20032" fill="#fff" d="M0 0c.8.8 1.9.7 2.8 0L0-3C-.7-1.9-.8-.8 0 0m-1.4-5.3c2.1-2 5-2 7 0a4.7 4.7 0 0 1 1.5 4l-2-.1c0-1-.3-1.7-1-2.3-.8-.9-1.9-1-3-.3L6 .6l-.5.6c-2 1.9-4.7 2.6-7 .3-1.9-2-1.7-4.9.2-6.8"/>
    </g>
  </g>
  <g id="g4989" transform="matrix(2.08152 0 0 -2.08152 286.9 36)">
    <g id="g20038">
      <path id="path20040" d="M0 0a5.2 5.2 0 0 1 2-.7l.9-.1v-1A6.7 6.7 0 0 0-.6-.3v-2h-.9v3h.8L0 0"/>
    </g>
  </g>
  <g id="g4993" transform="matrix(2.08152 0 0 -2.08152 303.3 38.4)">
    <g id="g20042">
      <path id="path20044" d="M0 0l.2-.2.2-.2a1 1 0 0 1 .6 0l.3.2.2.2v.6l-.2.2-.2.1a1 1 0 0 1-.6 0H.2A.6.6 0 0 1-.1.2L0 0m-1.4.7a.5.5 0 0 1-.2-.3c0-.2 0-.3.2-.4l.3-.3.4-.1h.4a1 1 0 0 0-.3.4l-.1.5v.6l.4.4.5.3h1.1a1.5 1.5 0 0 0 .9-.8V.3l-.1-.8-.5-.5-.8-.3a4.6 4.6 0 0 0-1.6 0l-.7.3-.5.6c-.2.2-.3.5-.3.8l.1.5c0 .2.2.3.3.4l.3.3.6.2V.9c-.2 0-.3 0-.4-.2"/>
    </g>
  </g>
  <g id="g4997" transform="matrix(2.08152 0 0 -2.08152 315.3 38.7)">
    <g id="g20046">
      <path id="path20048" d="M0 0l1-.2a1 1 0 0 0-.3.4v1.1a1.3 1.3 0 0 0 .9.6l.6.1h.6a1.6 1.6 0 0 0 1-1.6l-.2-.6-.2-.5a1.3 1.3 0 0 0-1-.5v.9c.1 0 .3 0 .4.2l.2.5v.3l-.3.3-.2.1a1 1 0 0 1-1-.1.7.7 0 0 1-.2-.6l.1-.4.3-.3V-1l-2.4.5v2.4H0z"/>
    </g>
  </g>
  <g id="g5001" transform="matrix(2.08152 0 0 -2.08152 331 37.5)">
    <g id="g20050">
      <path id="path20052" d="M0 0l1.5-1.1V0H0zm2.2-1.8h-.8L-1 0v.8h2.6v.5h.7V1h1V0h-1z"/>
    </g>
  </g>
  <g id="g5005" transform="matrix(2.08152 0 0 -2.08152 347.4 37.9)">
    <g id="g20054">
      <path id="path20056" d="M0 0v.3l-.2.2-.3.1C-.7.6-1 .6-1 .4A.7.7 0 0 1-1 0c0-.2 0-.4.2-.5l.6-.2v-.8l-.7.1-.4.3c-.2.1-.3.3-.3.5L-2 0l.1.5c0 .2.2.4.3.5l.3.3.6.2c.2 0 .4 0 .5-.2.2 0 .3-.2.3-.4a1 1 0 0 0 1 .7 1.3 1.3 0 0 0 1.1-.5l.3-.5a2 2 0 0 0 0-1.3l-.3-.5-.5-.3-.7-.1v.8h.3l.3.2A.7.7 0 0 1 2 0l-.2.5-.5.2H.9C.9.4.7.4.7.3v-.6H0V0"/>
    </g>
  </g>
  <g id="g5009" transform="matrix(2.08152 0 0 -2.08152 360.7 40.8)">
    <g id="g20058">
      <path id="path20060" d="M0 0l-.6.3-.3.5-.2.7.1.6.3.4a1.3 1.3 0 0 0 1 .5 1.4 1.4 0 0 0 1-.4l.3-.4a34.5 34.5 0 0 0 1-1.2v2h.8V-.2l-.7.1-.5.3-.4.5a19.8 19.8 0 0 0-.8 1C1 2 .8 2 .7 2l-.3.1c-.2 0-.4 0-.5-.2a.6.6 0 0 1-.2-.4V1H0L.3.8h.4v-.9A2 2 0 0 0 0 0"/>
    </g>
  </g>
  <g id="g5013" transform="matrix(2.08152 0 0 -2.08152 382.8 38.2)">
    <g id="g20062">
      <path id="path20064" d="M0 0h-2.8v-1.1h-.7v.4l-.2.4-.2.3a1 1 0 0 1-.5.2v.7H0z"/>
    </g>
  </g>
  <g id="g5017" transform="matrix(2.08152 0 0 -2.08152 394.1 39.3)">
    <g id="g20066">
      <path id="path20068" d="M0 0h.5l.4.3.2.4c0 .2 0 .3-.2.4a1 1 0 0 1-.4.2l-.5.1a10.3 10.3 0 0 1-1 0h-.4a1 1 0 0 1-.3-.2l-.2-.2V.4l.2-.2.3-.1A2.3 2.3 0 0 1-.7 0 14.9 14.9 0 0 1 0 0m-1.5-.8a2 2 0 0 0-.7.4l-.4.5a1.7 1.7 0 0 0 0 1.2c0 .2.2.4.4.5l.7.4 1 .1 1.1-.1c.3-.1.6-.2.7-.4l.4-.5a1.7 1.7 0 0 0 0-1.2c0-.2-.2-.4-.4-.5a2 2 0 0 0-.7-.4 4 4 0 0 0-1-.1l-1.1.1"/>
    </g>
  </g>
  <g id="g5021" transform="matrix(2.08152 0 0 -2.08152 131.5 49.9)">
    <g id="g20070">
      <path id="path20072" d="M0 0l.2.2.1.2a1.2 1.2 0 0 1 0 .6v.2l-.2.2h-.3L-.5 1V.8A11.4 11.4 0 0 0-.9 0L-1-.4a1 1 0 0 0-.3-.2l-.4-.1a1 1 0 0 0-.5.1 1 1 0 0 0-.4.3l-.2.5v1l.2.5.4.3.5.1v-.8h-.2l-.2-.2V.9a1.4 1.4 0 0 1 0-.5V.2h.1l.2-.1h.2l.1.2.1.3A76.3 76.3 0 0 1-1 1.8l.3.3.5.1h.5l.4-.4.2-.4V.1L.7-.4a1.1 1.1 0 0 0-1-.4v.7L0 0"/>
    </g>
  </g>
  <g id="g5025" transform="matrix(2.08152 0 0 -2.08152 127.8 40.2)">
    <g id="g20074">
      <path id="path20076" d="M0 0a.8.8 0 0 1-.3-.4v-.8l.3-.3.4-.1a2 2 0 0 1 1 0l.3.1.3.3v1.1a1 1 0 0 1-.6.2V1c.2 0 .4 0 .6-.2a1.5 1.5 0 0 0 .8-.8v-1.4a1.6 1.6 0 0 0-1-.9L1-2.4l-.8.1-.6.4-.4.5-.2.8.1.6.3.4a1.4 1.4 0 0 0 1 .6V0H0"/>
    </g>
  </g>
  <g id="g5029" transform="matrix(2.08152 0 0 -2.08152 125.8 36.3)">
    <g id="g20078">
      <path id="path20080" d="M0 0h3v1.8h.6V-.8H0z"/>
    </g>
  </g>
  <g id="g5033" transform="matrix(2.08152 0 0 -2.08152 146.5 50.6)">
    <g id="g20082">
      <path id="path20084" d="M0 0l.2.2.1.2a1.2 1.2 0 0 1 0 .6v.2l-.2.2h-.3L-.5 1V.8A11.4 11.4 0 0 0-.9 0L-1-.4a1 1 0 0 0-.3-.2l-.4-.1a1 1 0 0 0-.5.1 1 1 0 0 0-.4.3l-.2.5v1l.2.5.4.3.5.1v-.8h-.2l-.2-.2V.9a1.4 1.4 0 0 1 0-.5V.2h.1l.2-.1h.2l.1.2.1.3A76.3 76.3 0 0 1-1 1.8l.3.3.5.1h.5l.4-.4.2-.4V.1L.7-.4a1.1 1.1 0 0 0-1-.4v.7L0 0"/>
    </g>
  </g>
  <g id="g5037" transform="matrix(2.08152 0 0 -2.08152 147 42.5)">
    <g id="g20086">
      <path id="path20088" d="M0 0v.3l-.2.3-.4.2-.5.1h-.5A1 1 0 0 1-2 .7a.8.8 0 0 1-.2-.3l-.1-.5v-.6H0zm-3 0l.1.7a1.4 1.4 0 0 0 1 .9l.7.1h.8l.5-.4.4-.5.2-.7v-1.6H-3z"/>
    </g>
  </g>
  <g id="g5041" transform="matrix(2.08152 0 0 -2.08152 145.4 35)">
    <g id="g20090">
      <path id="path20092" d="M0 0l-1.3-.5L0-.9zm-2.2 0l3.6 1.3V.5L.6.2v-1.4l.8-.2v-.8L-2.2-1z"/>
    </g>
  </g>
  <g id="g5045" transform="matrix(2.08152 0 0 -2.08152 160.4 48.9)">
    <g id="g20094">
      <path id="path20096" d="M0 0l-1.3-.4L0-.7zm-2.2 0l3.6 1V.4L.6.2V-1l.8-.2v-.7L-2.2-.7z"/>
    </g>
  </g>
  <g id="g5049" transform="matrix(2.08152 0 0 -2.08152 159.2 44)">
    <g id="g20098">
      <path id="path20100" d="M0 0l-.1.3-.4.1H-1V-.7h1zm-1.6.2v.4l.2.2.4.2h.9L.3.5l.1.2.2.1h.3L1 1h.2a4 4 0 0 1 .5 0l.2.1V.5H1L.7.2.6-.1v-.6H2v-.6h-3.6z"/>
    </g>
  </g>
  <g id="g5053" transform="matrix(2.08152 0 0 -2.08152 155.8 37)">
    <g id="g20102">
      <path id="path20104" d="M0 0h.7v-1.5h.8v1.4H2v-1.4h1V0h.6v-2H0z"/>
    </g>
  </g>
  <g id="g5057" transform="matrix(2.08152 0 0 -2.08152 155.8 32.4)">
    <g id="g20106">
      <path id="path20108" d="M0 0h.7v-1.4h.8v1.2h.6v-1.2h1.5V-2H0z"/>
    </g>
  </g>
  <g id="g5061" transform="matrix(2.08152 0 0 -2.08152 178.3 48.2)">
    <g id="g20110">
      <path id="path20112" d="M0 0l.1-.5-.1-.8-.4-.5-.6-.4-.8-.1-.7.1c-.3 0-.5.2-.6.4l-.5.5A1.8 1.8 0 0 0-3.4.5a1.4 1.4 0 0 0 1 .5V.2A.8.8 0 0 1-3 0a.8.8 0 0 1 0-.5V-1l.4-.3.4-.2a2 2 0 0 1 .9 0l.4.2.2.3.1.5c0 .2 0 .4-.2.6l-.5.2v-.8H-2v1.6h2V.6L-.5.5 0 0"/>
    </g>
  </g>
  <g id="g5065" transform="matrix(2.08152 0 0 -2.08152 170.8 43.7)">
    <g id="g20114">
      <path id="path20116" d="M0 0l2.4 1.5H0v.8h3.6v-.8L1.2 0h2.4v-.8H0z"/>
    </g>
  </g>
  <g id="g5069" transform="matrix(2.08152 0 0 -2.08152 177 35.1)">
    <g id="g20118">
      <path id="path20120" d="M0 0v.3l-.2.3-.4.2-.5.1h-.5A1 1 0 0 1-2 .7a.8.8 0 0 1-.2-.3l-.1-.5v-.6H0zm-3 0l.1.7a1.4 1.4 0 0 0 1 .9l.7.1h.8l.5-.4.4-.5.2-.7v-1.6H-3z"/>
    </g>
  </g>
  <g id="g5073" transform="matrix(2.08152 0 0 -2.08152 194 43.1)">
    <g id="g20122">
      <path id="path20124" d="M0 0h-2.8v-1.1h-.7v.4l-.2.4-.2.3a1 1 0 0 1-.5.2v.7H0z"/>
    </g>
  </g>
  <g id="g5077" transform="matrix(2.08152 0 0 -2.08152 188.5 37)">
    <g id="g20126">
      <path id="path20128" d="M0 0v.3l-.2.2-.3.1C-.7.6-1 .6-1 .4A.7.7 0 0 1-1 0c0-.2 0-.4.2-.5l.6-.2v-.8l-.7.1-.4.3c-.2.1-.3.3-.3.5L-2 0a1.8 1.8 0 0 0 .4 1l.3.3.6.2c.2 0 .4 0 .5-.2.2 0 .3-.2.3-.4a1 1 0 0 0 1 .7l.7-.1.4-.4.3-.5a2 2 0 0 0 0-1.3l-.3-.5-.5-.3-.7-.1v.8h.3l.3.2A.7.7 0 0 1 2 0l-.2.5-.5.2H.9C.9.4.7.4.7.3v-.6H0V0"/>
    </g>
  </g>
  <g id="g5081" transform="matrix(2.08152 0 0 -2.08152 209 43.1)">
    <g id="g20130">
      <path id="path20132" d="M0 0h-2.8v-1.1h-.7v.4l-.2.4-.2.3a1 1 0 0 1-.5.2v.7H0z"/>
    </g>
  </g>
  <g id="g5085" transform="matrix(2.08152 0 0 -2.08152 201.9 40)">
    <g id="g20134">
      <path id="path20136" d="M0 0l-.6.3-.3.5-.2.7.1.6.3.4a1.3 1.3 0 0 0 1 .5 1.4 1.4 0 0 0 1-.4l.3-.4a49.3 49.3 0 0 0 1-1.2v2h.8V-.2l-.7.1-.5.3-.4.5a19.8 19.8 0 0 0-.8 1C1 2 .8 2 .7 2l-.3.1c-.2 0-.4 0-.5-.2a.6.6 0 0 1-.2-.4V1H0L.3.8h.4v-.9A2 2 0 0 0 0 0"/>
    </g>
  </g>
  <g id="g5089" transform="matrix(2.08152 0 0 -2.08152 223.9 42.8)">
    <g id="g20138">
      <path id="path20140" d="M0 0h-2.8v-1.1h-.7v.4l-.2.4-.2.3a1 1 0 0 1-.5.2v.7H0z"/>
    </g>
  </g>
  <g id="g5093" transform="matrix(2.08152 0 0 -2.08152 223.9 37.5)">
    <g id="g20142">
      <path id="path20144" d="M0 0h-2.8v-1.1h-.7v.4l-.2.4-.2.3a1 1 0 0 1-.5.2v.7H0z"/>
    </g>
  </g>
  <g id="g5097" transform="matrix(2.08152 0 0 -2.08152 238.9 43.3)">
    <g id="g20146">
      <path id="path20148" d="M0 0h-2.8v-1.1h-.7v.4l-.2.4-.2.3a1 1 0 0 1-.5.2v.7H0z"/>
    </g>
  </g>
  <g id="g5101" transform="matrix(2.08152 0 0 -2.08152 235.2 38.6)">
    <g id="g20150">
      <path id="path20152" d="M0 0h.5l.4.3.2.4c0 .2 0 .3-.2.4a1 1 0 0 1-.4.2l-.5.1a10.2 10.2 0 0 1-1 0h-.4a1 1 0 0 1-.3-.2l-.2-.2V.7a.5.5 0 0 1 .2-.5l.3-.1A2.3 2.3 0 0 1-.7 0 14.9 14.9 0 0 1 0 0m-1.5-.8a2 2 0 0 0-.7.4l-.4.5-.1.6.1.6c0 .2.2.4.4.5l.7.4 1 .1 1.1-.1c.3-.1.6-.2.7-.4l.4-.5a1.7 1.7 0 0 0 0-1.2c0-.2-.2-.4-.4-.5a2 2 0 0 0-.7-.4 4 4 0 0 0-1-.1l-1.1.1"/>
    </g>
  </g>
  <g id="g5105" transform="matrix(2.08152 0 0 -2.08152 249.4 37.3)">
    <g id="g20154">
      <path id="path20156" d="M0 0l-.2.2-.2.1a1 1 0 0 1-.6 0h-.3c0-.2-.1-.2-.2-.3v-.6l.2-.2.2-.1a1 1 0 0 1 1 0v.3l.2.3L0 0m1.4-.7l.2.3c0 .2 0 .3-.2.4l-.3.3-.4.1H.3L.5 0l.1-.5v-.6l-.4-.4-.5-.3a1.7 1.7 0 0 0-1.1 0 1.5 1.5 0 0 0-1 1.5c0 .3 0 .6.2.8l.5.5.8.3a4.5 4.5 0 0 0 1.6 0l.7-.4c.2 0 .4-.3.5-.5.2-.2.2-.5.2-.8v-.5a1.3 1.3 0 0 0-.6-.7L1-1.8v.9c.2 0 .3 0 .4.2"/>
    </g>
  </g>
  <g id="g5109" transform="matrix(2.08152 0 0 -2.08152 266.7 39.3)">
    <g id="g20158">
      <path id="path20160" d="M0 0a.7.7 0 0 1 .4.4.9.9 0 0 1 0 .6l-.2.2-.2.2a.8.8 0 0 1-.6 0A.7.7 0 0 1-.9 1L-1 .7c0-.2 0-.4.2-.5.1-.2.3-.3.5-.3L0 0m-1.7.2l.1.5-.1.5-.5.2h-.2a.5.5 0 0 1-.3-.4V.2a.5.5 0 0 1 .5-.2l.5.2m-1-.8c-.2 0-.3.2-.4.3l-.3.5a2 2 0 0 0 0 1.2l.4.4a1 1 0 0 0 1.3.2l.4-.5c0 .3.1.5.3.6.2.2.5.2.7.2h.6l.5-.5.2-.5A2.2 2.2 0 0 0 .8-.4L.3-.8-.3-1c-.2 0-.5 0-.7.2a1 1 0 0 0-.3.6l-.4-.5a1 1 0 0 0-.5-.2 1 1 0 0 0-.6.2"/>
    </g>
  </g>
  <path id="path20162" stroke-width="2.1" d="M194.8 282h7.5v1.4h-7.5z"/>
  <g id="g5114" transform="matrix(2.08152 0 0 -2.08152 199.5 280.4)">
    <g id="g20164">
      <path id="path20166" d="M0 0l.4.1.3.3V1l-.3.3-.4.1a2.3 2.3 0 0 1-1 0l-.3-.1a.8.8 0 0 1-.3-.3l-.1-.4.1-.3.3-.3.4-.1A2.5 2.5 0 0 1 0 0m-1.2-.6a2 2 0 0 0-.6.3l-.4.4-.2.6a1.2 1.2 0 0 0 .6 1.1l.6.3A2.8 2.8 0 0 0 .3 2l.6-.3.4-.4.1-.7a1.2 1.2 0 0 0-.5-1L.3-.6h-1.5"/>
    </g>
  </g>
  <g id="g5118" transform="matrix(2.08152 0 0 -2.08152 198.2 272.8)">
    <g id="g20168">
      <path id="path20170" d="M0 0l-.1.3-.4.1H-1V-.7h1zm-1.6.2a.8.8 0 0 0 .2.7l.4.1h.9L.3.6l.1.2.2.1.3.1h.4a7 7 0 0 1 .5.1H2V.6h-.9L.7.2.6-.1v-.6H2v-.6h-3.6z"/>
    </g>
  </g>
  <g id="g5122" transform="matrix(2.08152 0 0 -2.08152 194.8 265.5)">
    <g id="g20172">
      <path id="path20174" d="M0 0h.7v-1.5h.8v1.4H2v-1.4h1V0h.6v-2.2H0z"/>
    </g>
  </g>
  <g id="g5126" transform="matrix(2.08152 0 0 -2.08152 194.8 260.9)">
    <g id="g20176">
      <path id="path20178" d="M0 0h.7v-1.4h.8v1.2h.6v-1.2h1.5V-2H0z"/>
    </g>
  </g>
  <g id="g5130" transform="matrix(2.08152 0 0 -2.08152 213.2 277.9)">
    <g id="g20180">
      <path id="path20182" d="M0 0l-.1.4-.4.2C-.7.6-.8.6-1 .4V-.9h1zm-1.6.3v.4l.2.4.4.2h.9L.3.7a.6.6 0 0 0 .3.4h.3a2.4 2.4 0 0 0 .4.1 4.1 4.1 0 0 1 .5 0l.2.2V.7L1.6.6H1L.7.3.6-.1v-.8H2v-.8h-3.6z"/>
    </g>
  </g>
  <g id="g5134" transform="matrix(2.08152 0 0 -2.08152 215.5 273.2)">
    <g id="g20184">
      <path id="path20186" d="M0 0l.2.2.1.2v.8l-.2.2h-.3L-.5 1V.8A11.4 11.4 0 0 0-.9 0L-1-.4l-.3-.2-.4-.1a1 1 0 0 0-.5.1 1 1 0 0 0-.4.3l-.2.5v1l.2.5a1 1 0 0 0 1 .4v-.8H-2l-.2-.2V.9l-.1-.3V.2h.2l.2-.1h.2l.1.2.1.3A56.3 56.3 0 0 1-1 1.8l.3.3.5.1h.5l.4-.4.2-.4V.1L.7-.4a1.1 1.1 0 0 0-1-.4v.7L0 0"/>
    </g>
  </g>
  <g id="g5138" transform="matrix(2.08152 0 0 -2.08152 211.1 269)">
    <g id="g20188">
      <path id="path20190" d="M0 0h-.7v3H0V1.9h3V1H0z"/>
    </g>
  </g>
  <g id="g5142" transform="matrix(2.08152 0 0 -2.08152 227.5 277)">
    <g id="g20192">
      <path id="path20194" d="M0 0v.3l-.2.2-.3.1C-.7.6-1 .6-1 .4A.7.7 0 0 1-1 0c0-.2 0-.4.2-.5l.6-.2v-.8l-.7.1-.4.3c-.2.1-.3.3-.3.5L-2 0a1.8 1.8 0 0 0 .4 1l.3.3.6.2c.2 0 .4 0 .5-.2.2 0 .3-.2.3-.4l.4.5c.2.2.4.2.7.2a1.3 1.3 0 0 0 1-.5l.3-.5a2 2 0 0 0 0-1.3l-.3-.5-.5-.3-.7-.1v.8h.3l.3.2.2.3V0l-.1.5-.5.2H.9C.9.4.7.4.7.3v-.6H0V0"/>
    </g>
  </g>
  <path id="path20196" stroke-width="2.1" d="M230.9 271.3h2v2h-2z"/>
  <g id="g5147" transform="matrix(2.08152 0 0 -2.08152 227.5 267.8)">
    <g id="g20198">
      <path id="path20200" d="M0 0v.3l-.2.2-.3.1C-.7.6-1 .6-1 .4A.7.7 0 0 1-1 0c0-.2 0-.4.2-.5l.6-.2v-.8l-.7.1-.4.3c-.2.1-.3.3-.3.5L-2 0a1.8 1.8 0 0 0 .4 1l.3.3.6.2c.2 0 .4 0 .5-.2.2 0 .3-.2.3-.4l.4.5c.2.2.4.2.7.2a1.3 1.3 0 0 0 1-.5l.3-.5a2 2 0 0 0 0-1.3l-.3-.5-.5-.3-.7-.1v.8h.3l.3.2.2.3V0l-.1.5-.5.2H.9C.9.4.7.4.7.3v-.6H0V0"/>
    </g>
  </g>
  <g id="g5151" transform="matrix(2.08152 0 0 -2.08152 240.3 276.9)">
    <g id="g20202">
      <path id="path20204" d="M0 0l1-.2-.3.4v1.1l.4.4.5.2.6.1h.6a1.6 1.6 0 0 0 1-1.6l-.2-.6-.2-.5a1.3 1.3 0 0 0-1-.5v.9c.1 0 .3 0 .4.2l.2.5v.3l-.3.3-.2.1a1 1 0 0 1-.7 0 .7.7 0 0 1-.4-.4V0l.3-.3V-1l-2.4.5v2.4H0z"/>
    </g>
  </g>
  <g id="g5155" transform="matrix(2.08152 0 0 -2.08152 247.9 270)">
    <g id="g20206">
      <path id="path20208" d="M0 0l-4.5-1.4v1l3.2 1-3.2 1v1L0 1z"/>
    </g>
  </g>
  <g id="g5159" transform="matrix(2.08152 0 0 -2.08152 262.2 278.3)">
    <g id="g20210">
      <path id="path20212" d="M0 0l.1-.5-.1-.8a1.6 1.6 0 0 0-1-.9l-.8-.1-.7.1c-.3 0-.5.2-.6.4l-.5.5A1.8 1.8 0 0 0-3.4.5a1.4 1.4 0 0 0 1 .5V.2A.8.8 0 0 1-3 0a.8.8 0 0 1 0-.5V-1l.4-.3.4-.2a2 2 0 0 1 .9 0l.4.2.2.3.1.5c0 .2 0 .4-.2.6l-.5.2v-.8H-2v1.6h2V.6L-.5.5 0 0"/>
    </g>
  </g>
  <g id="g5163" transform="matrix(2.08152 0 0 -2.08152 254.7 273.8)">
    <g id="g20214">
      <path id="path20216" d="M0 0l2.4 1.5H0v.8h3.6v-.8L1.2 0h2.4v-.8H0z"/>
    </g>
  </g>
  <g id="g5167" transform="matrix(2.08152 0 0 -2.08152 260.9 265.2)">
    <g id="g20218">
      <path id="path20220" d="M0 0v.3l-.2.3-.4.2-.5.1a2 2 0 0 1-.5 0A1 1 0 0 1-2 .7a.8.8 0 0 1-.2-.3l-.1-.5v-.6H0zm-3 0l.1.7a1.4 1.4 0 0 0 1 .9l.7.1h.8l.5-.4.4-.5.2-.7v-1.6H-3z"/>
    </g>
  </g>
  <g id="g5171" transform="matrix(2.08152 0 0 -2.08152 277.2 278.3)">
    <g id="g20222">
      <path id="path20224" d="M0 0l.1-.5-.1-.8a1.6 1.6 0 0 0-1-.9l-.8-.1-.7.1c-.3 0-.5.2-.6.4l-.5.5A1.8 1.8 0 0 0-3.4.5a1.4 1.4 0 0 0 1 .5V.2A.8.8 0 0 1-3 0a.8.8 0 0 1 0-.5V-1l.4-.3.4-.2a2 2 0 0 1 .9 0l.4.2.2.3.1.5c0 .2 0 .4-.2.6l-.5.2v-.8H-2v1.6h2V.6L-.5.5 0 0"/>
    </g>
  </g>
  <g id="g5175" transform="matrix(2.08152 0 0 -2.08152 269.7 273.8)">
    <g id="g20226">
      <path id="path20228" d="M0 0l2.4 1.5H0v.8h3.6v-.8L1.2 0h2.4v-.8H0z"/>
    </g>
  </g>
  <g id="g5179" transform="matrix(2.08152 0 0 -2.08152 275.9 265.2)">
    <g id="g20230">
      <path id="path20232" d="M0 0v.3l-.2.3-.4.2-.5.1a2 2 0 0 1-.5 0A1 1 0 0 1-2 .7a.8.8 0 0 1-.2-.3l-.1-.5v-.6H0zm-3 0l.1.7a1.4 1.4 0 0 0 1 .9l.7.1h.8l.5-.4.4-.5.2-.7v-1.6H-3z"/>
    </g>
  </g>
  <g id="g5183" transform="matrix(2.08152 0 0 -2.08152 292.3 278)">
    <g id="g20234">
      <path id="path20236" d="M0 0l-3.6-1.2v.8l2.5.9-2.5.8V2L0 1z"/>
    </g>
  </g>
  <path id="path20238" stroke-width="2.1" d="M284.7 272h7.6v1.7h-7.6z"/>
  <g id="g5188" transform="matrix(2.08152 0 0 -2.08152 284.7 269.7)">
    <g id="g20240">
      <path id="path20242" d="M0 0l2.4 1.5H0v.8h3.6v-.8L1.2 0h2.4v-.8H0z"/>
    </g>
  </g>
  <g id="g5192" transform="matrix(2.08152 0 0 -2.08152 319.2 277)">
    <g id="g20244">
      <path id="path20246" d="M0 0l-1.6-.6L0-1.2zm-2.7 0l4.4 1.6v-1L.7.3v-1.7l1-.4v-1L-2.7-1z"/>
    </g>
  </g>
  <g id="g5196" transform="matrix(2.08152 0 0 -2.08152 319.2 272.7)">
    <g id="g20248">
      <path id="path20250" d="M0 0h.5l.4.3.2.4c0 .2 0 .3-.2.4a1 1 0 0 1-.4.2l-.5.1a10.4 10.4 0 0 1-1 0h-.4a1 1 0 0 1-.3-.2l-.2-.2V.4l.2-.2.3-.1A2.3 2.3 0 0 1-.7 0 14.8 14.8 0 0 1 0 0m-1.5-.8a2 2 0 0 0-.7.4l-.4.5a1.7 1.7 0 0 0 0 1.2c0 .2.2.4.4.5l.7.4 1 .1 1.1-.1c.3-.1.6-.2.7-.4l.4-.5a1.7 1.7 0 0 0 0-1.2c0-.2-.2-.4-.4-.5a2 2 0 0 0-.7-.4 4 4 0 0 0-1-.1l-1.1.1"/>
    </g>
  </g>
  <g id="g5200" transform="matrix(2.08152 0 0 -2.08152 334.2 276.7)">
    <g id="g20252">
      <path id="path20254" d="M0 0l-1.6-.6L0-1.2zm-2.7 0l4.4 1.6v-1L.7.3v-1.7l1-.4v-1L-2.7-1z"/>
    </g>
  </g>
  <g id="g5204" transform="matrix(2.08152 0 0 -2.08152 337.8 272)">
    <g id="g20256">
      <path id="path20258" d="M0 0h-2.8v-1.1h-.7v.4l-.2.4a1 1 0 0 1-.7.5v.7H0z"/>
    </g>
  </g>
  <g id="g5208" transform="matrix(2.08152 0 0 -2.08152 349.2 277.3)">
    <g id="g20260">
      <path id="path20262" d="M0 0l-1.6-.6L0-1.2zm-2.7 0l4.4 1.6v-1L.7.3v-1.7l1-.4v-1L-2.7-1z"/>
    </g>
  </g>
  <g id="g5212" transform="matrix(2.08152 0 0 -2.08152 345.8 274)">
    <g id="g20264">
      <path id="path20266" d="M0 0l-.6.3-.3.5-.2.7.1.6.3.4a1.3 1.3 0 0 0 1 .5 1.4 1.4 0 0 0 1-.4l.3-.4a34.3 34.3 0 0 0 1-1.2v2h.8V-.2l-.7.1c-.2 0-.3.2-.5.3l-.4.5a21.6 21.6 0 0 0-.8 1C1 2 .8 2 .7 2l-.3.1c-.2 0-.4 0-.5-.2a.6.6 0 0 1-.2-.4V1H0L.3.8h.4v-.9L0 0"/>
    </g>
  </g>
  <g id="g5216" transform="matrix(2.08152 0 0 -2.08152 364.2 277.1)">
    <g id="g20268">
      <path id="path20270" d="M0 0l-1.6-.6L0-1.2zm-2.7 0l4.4 1.6v-1L.7.3v-1.7l1-.4v-1L-2.7-1z"/>
    </g>
  </g>
  <g id="g5220" transform="matrix(2.08152 0 0 -2.08152 362.4 271.2)">
    <g id="g20272">
      <path id="path20274" d="M0 0v.3l-.2.2-.3.1C-.7.6-1 .6-1 .4A.7.7 0 0 1-1 0c0-.2 0-.4.2-.5l.6-.2v-.8l-.7.1-.4.3c-.2.1-.3.3-.3.5L-2 0l.1.5c0 .2.2.4.3.5l.3.3.6.2c.2 0 .4 0 .5-.2.2 0 .3-.2.3-.4l.4.5c.2.2.4.2.7.2a1.3 1.3 0 0 0 1-.5l.3-.5a2 2 0 0 0 0-1.3l-.3-.5-.5-.3-.7-.1v.8h.3l.3.2A.7.7 0 0 1 2 0l-.2.5-.5.2H.9C.9.4.7.4.7.3v-.6H0V0"/>
    </g>
  </g>
  <g id="g5224" transform="matrix(2.08152 0 0 -2.08152 379.2 277.1)">
    <g id="g20276">
      <path id="path20278" d="M0 0l-1.6-.6L0-1.2zm-2.7 0l4.4 1.6v-1L.7.3v-1.7l1-.4v-1L-2.7-1z"/>
    </g>
  </g>
  <g id="g5228" transform="matrix(2.08152 0 0 -2.08152 376 270.8)">
    <g id="g20280">
      <path id="path20282" d="M0 0l1.5-1.1V0H0zm2.2-1.8h-.8L-1 0v.8h2.6v.5h.7V1h1V0h-1z"/>
    </g>
  </g>
  <g id="g5232" transform="matrix(2.08152 0 0 -2.08152 394.2 277.1)">
    <g id="g20284">
      <path id="path20286" d="M0 0l-1.6-.6L0-1.2zm-2.7 0l4.4 1.6v-1L.7.3v-1.7l1-.4v-1L-2.7-1z"/>
    </g>
  </g>
  <g id="g5236" transform="matrix(2.08152 0 0 -2.08152 390.2 272)">
    <g id="g20288">
      <path id="path20290" d="M0 0l1-.2a1.1 1.1 0 0 0-.3.9v.6l.4.4.5.2.6.1h.6a1.6 1.6 0 0 0 .8-1l.1-.6v-.6l-.3-.5a1.3 1.3 0 0 0-1-.5v.9c.1 0 .3 0 .4.2l.2.5a.7.7 0 0 1-.3.6l-.2.1a1 1 0 0 1-.7 0 .7.7 0 0 1-.4-.4V0l.3-.3V-1l-2.4.5v2.4H0z"/>
    </g>
  </g>
  <g id="g5240" transform="matrix(2.08152 0 0 -2.08152 105.1 75.3)">
    <g id="g20292">
      <path id="path20294" d="M0 0l1.5-1.1V0H0zm2.3-1.8h-.9L-1 0v.8h2.6v.5h.8V1h1V0h-1z"/>
    </g>
  </g>
  <g id="g5244" transform="matrix(2.08152 0 0 -2.08152 108.3 70.3)">
    <g id="g20296">
      <path id="path20298" d="M0 0h.5l.4.3c.2 0 .2.2.2.4s0 .3-.2.4a1 1 0 0 1-.4.2l-.5.1a10.3 10.3 0 0 1-1 0h-.4a1 1 0 0 1-.3-.2l-.2-.2V.4l.2-.2.3-.1A2.3 2.3 0 0 1-.7 0 9.6 9.6 0 0 1 0 0m-1.5-.8a2 2 0 0 0-.7.4l-.4.5-.1.6.1.6c0 .2.2.4.4.5l.7.4 1 .1 1.1-.1c.3-.1.6-.2.7-.4l.4-.5a1.7 1.7 0 0 0 0-1.2c0-.2-.2-.4-.4-.5a2 2 0 0 0-.7-.4 4 4 0 0 0-1-.1l-1.1.1"/>
    </g>
  </g>
  <g id="g11204" transform="translate(-.7) scale(2.08152)">
    <g id="g11208">
      <g id="g11212">
        <path id="path11216" fill="none" stroke="#fff" stroke-linecap="round" stroke-width=".4" d="M19 61.6l1.5-1.1v2.1l-1.4-1m1.1.8v-1.7 1.7m-.4-.3v-1 1"/>
      </g>
    </g>
  </g>
  <g id="g11260" transform="translate(-.7) scale(2.08152)">
    <g id="g11264">
      <g id="g11268">
        <path id="path11272" fill="none" stroke="#fff" stroke-linecap="round" stroke-width=".4" d="M20.2 81.4l-1.5 1v-2.1l1.5 1m-1.2-.8v1.7-1.7m.4.3V82v-1"/>
      </g>
    </g>
  </g>
  <g id="g11404" transform="translate(-.7) scale(2.08152)">
    <g id="g11408" stroke="#fff" stroke-width=".6">
      <path id="line11412" stroke-linecap="round" d="M36.7 19.7H18"/>
      <path id="line11414" stroke-linecap="round" d="M18 2.7h18.7"/>
      <path id="line11416" stroke-linecap="round" d="M36.7 7.8v6.8"/>
      <path id="line11418" stroke-linecap="round" d="M18 14.6V7.8"/>
      <circle id="circle11420" cx="27.4" cy="11.2" r="4.3" fill="none"/>
      <circle id="circle11422" cx="27.4" cy="11.2" r="2.8" fill="none"/>
    </g>
  </g>
  <g id="g11424" transform="translate(-.7) scale(2.08152)">
    <g id="g11428">
      <g id="g11432">
        <path id="path11436" fill="none" stroke="#fff" stroke-linecap="round" stroke-width=".4" d="M20.2 67.7l-1.5 1v-2.1l1.5 1m-1.2-.8v1.7-1.7m.4.3v1.1-1"/>
      </g>
    </g>
  </g>
  <g id="g11494" transform="translate(-.7) scale(2.08152)">
    <g id="g11498">
      <g id="g11502">
        <path id="path11506" fill="none" stroke="#fff" stroke-linecap="round" stroke-width=".4" d="M20.2 74.9l-1.5 1v-2.1l1.5 1M19 74v1.7V74m.4.3v1.1-1"/>
      </g>
    </g>
  </g>
  <g id="g11508" transform="translate(-.7) scale(2.08152)">
    <g id="g11512">
      <circle id="circle11516" cx="117.9" cy="91.2" r=".9" fill="none" stroke="#fff" stroke-width=".4"/>
    </g>
  </g>
  <g id="g11676" transform="translate(-.7) scale(2.08152)">
    <g id="g11680" stroke="#fff" stroke-linecap="round" stroke-width=".6">
      <path id="line11684" d="M40.3 142v-6"/>
      <path id="line11686" d="M9.4 142h14.4"/>
      <path id="line11688" d="M40.3 142h-3.2"/>
      <path id="line11690" d="M9.4 116.5h30.9"/>
      <path id="line11692" d="M40.3 116.5v5.4"/>
      <path id="line11694" d="M9.4 116.5V142"/>
    </g>
  </g>
  <path id="rect12750" fill="#404040" stroke-width="2.1" d="M122.2 7.5h149.9v15H122.2z"/>
  <g id="SCL" transform="scale(.67113)">
    <path id="connector65pin" stroke-width="3.1" d="M188.9 18h8.6v8.6h-8.6z"/>
    <path id="polygon12754" fill="#2a2a29" d="M5 2.2l1-1H1.2l1 1z" transform="translate(182 11.2) scale(3.10154)"/>
    <path id="polygon12756" fill="#474747" d="M5 5l1 1V1.2l-1 1z" transform="translate(182 11.2) scale(3.10154)"/>
    <path id="polygon12758" fill="#595959" d="M2.2 5l-1 1H6L5 5z" transform="translate(182 11.2) scale(3.10154)"/>
    <path id="polygon12760" fill="#373737" d="M2.2 2.2l-1-1V6l1-1z" transform="translate(182 11.2) scale(3.10154)"/>
  </g>
  <g id="SDA" transform="scale(.67113)">
    <path id="connector66pin" stroke-width="3.1" d="M211.3 18h8.6v8.6h-8.6z"/>
    <path id="polygon12764" fill="#2a2a29" d="M12.2 2.2l1-1H8.4l1 1z" transform="translate(182 11.2) scale(3.10154)"/>
    <path id="polygon12766" fill="#474747" d="M12.2 5l1 1V1.2l-1 1z" transform="translate(182 11.2) scale(3.10154)"/>
    <path id="polygon12768" fill="#595959" d="M9.4 5l-1 1h4.8l-1-1z" transform="translate(182 11.2) scale(3.10154)"/>
    <path id="polygon12770" fill="#373737" d="M9.4 2.2l-1-1V6l1-1z" transform="translate(182 11.2) scale(3.10154)"/>
  </g>
  <g id="AREF" transform="scale(.67113)">
    <path id="connector67pin" stroke-width="3.1" d="M233.6 18h8.6v8.6h-8.6z"/>
    <path id="polygon12774" fill="#2a2a29" d="M19.4 2.2l1-1h-4.8l1 1z" transform="translate(182 11.2) scale(3.10154)"/>
    <path id="polygon12776" fill="#474747" d="M19.4 5l1 1V1.2l-1 1z" transform="translate(182 11.2) scale(3.10154)"/>
    <path id="polygon12778" fill="#595959" d="M16.6 5l-1 1h4.8l-1-1z" transform="translate(182 11.2) scale(3.10154)"/>
    <path id="polygon12780" fill="#373737" d="M16.6 2.2l-1-1V6l1-1z" transform="translate(182 11.2) scale(3.10154)"/>
  </g>
  <g id="GND2" transform="scale(.67113)">
    <path id="connector68pin" stroke-width="3.1" d="M255.9 18h8.6v8.6h-8.6z"/>
    <path id="polygon12784" fill="#2a2a29" d="M26.6 2.2l1-1h-4.8l1 1z" transform="translate(182 11.2) scale(3.10154)"/>
    <path id="polygon12786" fill="#474747" d="M26.6 5l1 1V1.2l-1 1z" transform="translate(182 11.2) scale(3.10154)"/>
    <path id="polygon12788" fill="#595959" d="M23.8 5l-1 1h4.8l-1-1z" transform="translate(182 11.2) scale(3.10154)"/>
    <path id="polygon12790" fill="#373737" d="M23.8 2.2l-1-1V6l1-1z" transform="translate(182 11.2) scale(3.10154)"/>
  </g>
  <g id="D13" transform="scale(.67113)">
    <path id="connector69pin" stroke-width="3.1" d="M278.3 18h8.6v8.6h-8.6z"/>
    <path id="polygon12794" fill="#2a2a29" d="M33.8 2.2l1-1H30l1 1z" transform="translate(182 11.2) scale(3.10154)"/>
    <path id="polygon12796" fill="#474747" d="M33.8 5l1 1V1.2l-1 1z" transform="translate(182 11.2) scale(3.10154)"/>
    <path id="polygon12798" fill="#595959" d="M31 5l-1 1h4.8l-1-1z" transform="translate(182 11.2) scale(3.10154)"/>
    <path id="polygon12800" fill="#373737" d="M31 2.2l-1-1V6l1-1z" transform="translate(182 11.2) scale(3.10154)"/>
  </g>
  <g id="D12" transform="scale(.67113)">
    <path id="connector70pin" stroke-width="3.1" d="M300.6 18h8.6v8.6h-8.6z"/>
    <path id="polygon12804" fill="#2a2a29" d="M41 2.2l1-1h-4.8l1 1z" transform="translate(182 11.2) scale(3.10154)"/>
    <path id="polygon12806" fill="#474747" d="M41 5l1 1V1.2l-1 1z" transform="translate(182 11.2) scale(3.10154)"/>
    <path id="polygon12808" fill="#595959" d="M38.2 5l-1 1H42l-1-1z" transform="translate(182 11.2) scale(3.10154)"/>
    <path id="polygon12810" fill="#373737" d="M38.2 2.2l-1-1V6l1-1z" transform="translate(182 11.2) scale(3.10154)"/>
  </g>
  <g id="D11" transform="scale(.67113)">
    <path id="connector71pin" stroke-width="3.1" d="M322.9 18h8.6v8.6h-8.6z"/>
    <path id="polygon12814" fill="#2a2a29" d="M48.2 2.2l1-1h-4.8l1 1z" transform="translate(182 11.2) scale(3.10154)"/>
    <path id="polygon12816" fill="#474747" d="M48.2 5l1 1V1.2l-1 1z" transform="translate(182 11.2) scale(3.10154)"/>
    <path id="polygon12818" fill="#595959" d="M45.4 5l-1 1h4.8l-1-1z" transform="translate(182 11.2) scale(3.10154)"/>
    <path id="polygon12820" fill="#373737" d="M45.4 2.2l-1-1V6l1-1z" transform="translate(182 11.2) scale(3.10154)"/>
  </g>
  <g id="D10" transform="scale(.67113)">
    <path id="connector72pin" stroke-width="3.1" d="M345.3 18h8.6v8.6h-8.6z"/>
    <path id="polygon12824" fill="#2a2a29" d="M55.4 2.2l1-1h-4.8l1 1z" transform="translate(182 11.2) scale(3.10154)"/>
    <path id="polygon12826" fill="#474747" d="M55.4 5l1 1V1.2l-1 1z" transform="translate(182 11.2) scale(3.10154)"/>
    <path id="polygon12828" fill="#595959" d="M52.6 5l-1 1h4.8l-1-1z" transform="translate(182 11.2) scale(3.10154)"/>
    <path id="polygon12830" fill="#373737" d="M52.6 2.2l-1-1V6l1-1z" transform="translate(182 11.2) scale(3.10154)"/>
  </g>
  <g id="D9" transform="scale(.67113)">
    <path id="connector73pin" stroke-width="3.1" d="M367.6 18h8.6v8.6h-8.6z"/>
    <path id="polygon12834" fill="#2a2a29" d="M62.6 2.2l1-1h-4.8l1 1z" transform="translate(182 11.2) scale(3.10154)"/>
    <path id="polygon12836" fill="#474747" d="M62.6 5l1 1V1.2l-1 1z" transform="translate(182 11.2) scale(3.10154)"/>
    <path id="polygon12838" fill="#595959" d="M59.8 5l-1 1h4.8l-1-1z" transform="translate(182 11.2) scale(3.10154)"/>
    <path id="polygon12840" fill="#373737" d="M59.8 2.2l-1-1V6l1-1z" transform="translate(182 11.2) scale(3.10154)"/>
  </g>
  <g id="D8" transform="scale(.67113)">
    <path id="connector74pin" stroke-width="3.1" d="M389.9 18h8.6v8.6h-8.6z"/>
    <path id="polygon12844" fill="#2a2a29" d="M69.8 2.2l1-1H66l1 1z" transform="translate(182 11.2) scale(3.10154)"/>
    <path id="polygon12846" fill="#474747" d="M69.8 5l1 1V1.2l-1 1z" transform="translate(182 11.2) scale(3.10154)"/>
    <path id="polygon12848" fill="#595959" d="M67 5l-1 1h4.8l-1-1z" transform="translate(182 11.2) scale(3.10154)"/>
    <path id="polygon12850" fill="#373737" d="M67 2.2l-1-1V6l1-1z" transform="translate(182 11.2) scale(3.10154)"/>
  </g>
  <path id="rect12857" fill="#404040" stroke-width="2.6" d="M281.5 7.5h119.9v15H281.5z"/>
  <g id="D7" transform="scale(.67113)">
    <path id="connector75pin" stroke-width="3.9" d="M426.4 18h8.6v8.6h-8.6z"/>
    <path id="polygon7" fill="#2a2a29" d="M4 1.8l.8-.9H.9l.9.9z" transform="translate(419.5 11.2) scale(3.87747)"/>
    <path id="polygon9" fill="#474747" d="M4 4l.8.8V.9l-.8.9z" transform="translate(419.5 11.2) scale(3.87747)"/>
    <path id="polygon11" fill="#595959" d="M1.8 4l-.9.8h3.9L4 4z" transform="translate(419.5 11.2) scale(3.87747)"/>
    <path id="polygon13" fill="#373737" d="M1.8 1.8L.9.9v3.9l.9-.8z" transform="translate(419.5 11.2) scale(3.87747)"/>
  </g>
  <g id="D6" transform="scale(.67113)">
    <path id="connector76pin" stroke-width="3.9" d="M448.7 18h8.6v8.6h-8.6z"/>
    <path id="polygon17" fill="#2a2a29" d="M9.8 1.8l.8-.9H6.7l.8.9z" transform="translate(419.5 11.2) scale(3.87747)"/>
    <path id="polygon19" fill="#474747" d="M9.8 4l.8.8V.9l-.8.9z" transform="translate(419.5 11.2) scale(3.87747)"/>
    <path id="polygon21" fill="#595959" d="M7.5 4l-.8.8h3.9L9.8 4z" transform="translate(419.5 11.2) scale(3.87747)"/>
    <path id="polygon23" fill="#373737" d="M7.5 1.8L6.7.9v3.9l.8-.8z" transform="translate(419.5 11.2) scale(3.87747)"/>
  </g>
  <g id="D5" transform="scale(.67113)">
    <path id="connector77pin" stroke-width="3.9" d="M471 18h8.6v8.6H471z"/>
    <path id="polygon27" fill="#2a2a29" d="M15.5 1.8l.8-.9h-3.8l.8.9z" transform="translate(419.5 11.2) scale(3.87747)"/>
    <path id="polygon29" fill="#474747" d="M15.5 4l.8.8V.9l-.8.9z" transform="translate(419.5 11.2) scale(3.87747)"/>
    <path id="polygon31" fill="#595959" d="M13.3 4l-.8.8h3.8l-.8-.8z" transform="translate(419.5 11.2) scale(3.87747)"/>
    <path id="polygon33" fill="#373737" d="M13.3 1.8l-.8-.9v3.9l.8-.8z" transform="translate(419.5 11.2) scale(3.87747)"/>
  </g>
  <g id="D4" transform="scale(.67113)">
    <path id="connector78pin" stroke-width="3.9" d="M493.4 18h8.6v8.6h-8.6z"/>
    <path id="polygon37" fill="#2a2a29" d="M21.3 1.8l.8-.9h-3.9l.8.9z" transform="translate(419.5 11.2) scale(3.87747)"/>
    <path id="polygon39" fill="#474747" d="M21.3 4l.8.8V.9l-.8.9z" transform="translate(419.5 11.2) scale(3.87747)"/>
    <path id="polygon41" fill="#595959" d="M19 4l-.8.8h3.9l-.8-.8z" transform="translate(419.5 11.2) scale(3.87747)"/>
    <path id="polygon43" fill="#373737" d="M19 1.8l-.8-.9v3.9L19 4z" transform="translate(419.5 11.2) scale(3.87747)"/>
  </g>
  <g id="D3" transform="scale(.67113)">
    <path id="connector79pin" stroke-width="3.9" d="M515.7 18h8.6v8.6h-8.6z"/>
    <path id="polygon47" fill="#2a2a29" d="M27 1.8l.9-.9H24l.8.9z" transform="translate(419.5 11.2) scale(3.87747)"/>
    <path id="polygon49" fill="#474747" d="M27 4l.9.8V.9l-.9.9z" transform="translate(419.5 11.2) scale(3.87747)"/>
    <path id="polygon51" fill="#595959" d="M24.8 4l-.8.8h3.9L27 4z" transform="translate(419.5 11.2) scale(3.87747)"/>
    <path id="polygon53" fill="#373737" d="M24.8 1.8L24 .9v3.9l.8-.8z" transform="translate(419.5 11.2) scale(3.87747)"/>
  </g>
  <g id="D2" transform="scale(.67113)">
    <path id="connector80pin" stroke-width="3.9" d="M538 18h8.6v8.6H538z"/>
    <path id="polygon57" fill="#2a2a29" d="M32.8 1.8l.8-.9h-3.9l.9.9z" transform="translate(419.5 11.2) scale(3.87747)"/>
    <path id="polygon59" fill="#474747" d="M32.8 4l.8.8V.9l-.8.9z" transform="translate(419.5 11.2) scale(3.87747)"/>
    <path id="polygon61" fill="#595959" d="M30.6 4l-.9.8h3.9l-.8-.8z" transform="translate(419.5 11.2) scale(3.87747)"/>
    <path id="polygon63" fill="#373737" d="M30.6 1.8l-.9-.9v3.9l.9-.8z" transform="translate(419.5 11.2) scale(3.87747)"/>
  </g>
  <g id="TX_D1" transform="scale(.67113)">
    <path id="connector81pin" stroke-width="3.9" d="M560.4 18h8.6v8.6h-8.6z"/>
    <path id="polygon67" fill="#2a2a29" d="M38.6 1.8l.8-.9h-3.9l.8.9z" transform="translate(419.5 11.2) scale(3.87747)"/>
    <path id="polygon69" fill="#474747" d="M38.6 4l.8.8V.9l-.8.9z" transform="translate(419.5 11.2) scale(3.87747)"/>
    <path id="polygon71" fill="#595959" d="M36.3 4l-.8.8h3.9l-.8-.8z" transform="translate(419.5 11.2) scale(3.87747)"/>
    <path id="polygon73" fill="#373737" d="M36.3 1.8l-.8-.9v3.9l.8-.8z" transform="translate(419.5 11.2) scale(3.87747)"/>
  </g>
  <g id="RX_D0" transform="scale(.67113)">
    <path id="connector82pin" stroke-width="3.9" d="M582.7 18h8.6v8.6h-8.6z"/>
    <path id="polygon77" fill="#2a2a29" d="M44.3 1.8l.8-.9h-3.8l.8.9z" transform="translate(419.5 11.2) scale(3.87747)"/>
    <path id="polygon79" fill="#474747" d="M44.3 4l.8.8V.9l-.8.9z" transform="translate(419.5 11.2) scale(3.87747)"/>
    <path id="polygon81" fill="#595959" d="M42.1 4l-.8.8h3.8l-.8-.8z" transform="translate(419.5 11.2) scale(3.87747)"/>
    <path id="polygon83" fill="#373737" d="M42.1 1.8l-.8-.9v3.9l.8-.8z" transform="translate(419.5 11.2) scale(3.87747)"/>
  </g>
  <g id="g5922" transform="rotate(-90 47.05 128.45) scale(2.08152)">
    <g id="g11905">
      <path id="connector84pin" fill="#9a916c" stroke-width="0" d="M21.1 59.9h3.4v3.4h-3.4z"/>
    </g>
  </g>
  <g id="g5926" transform="rotate(-90 34.7 128.5) scale(2.08152)">
    <g id="g11908">
      <path id="connector85pin" fill="#9a916c" stroke-width="0" d="M15.1 59.9h3.4v3.4h-3.4z"/>
    </g>
  </g>
  <g id="g5954" transform="rotate(90 34 169) scale(2.08152)">
    <g id="g11929">
      <path id="connector92pin" fill="#9a916c" stroke-width="0" d="M14.8 79.7h3.4v3.4h-3.4z"/>
    </g>
  </g>
  <g id="g5958" transform="rotate(90 46.35 169.05) scale(2.08152)">
    <g id="g11932">
      <path id="connector93pin" fill="#9a916c" stroke-width="0" d="M20.7 79.7h3.4v3.4h-3.4z"/>
    </g>
  </g>
  <path id="rect13016" fill="#404040" stroke-width="2.6" d="M176.4 292.2h119.9v15H176.4z"/>
  <path id="rect13018" stroke-width="2.6" d="M181 296.8h5.8v5.8H181z"/>
  <path id="polygon13020" fill="#2a2a29" d="M4 1.8l.8-.9H.9l.9.9z" transform="translate(176.4 292.2) scale(2.60227)"/>
  <path id="polygon13022" fill="#474747" d="M4 4l.8.8V.9l-.8.9z" transform="translate(176.4 292.2) scale(2.60227)"/>
  <path id="polygon13024" fill="#595959" d="M1.8 4l-.9.8h3.9L4 4z" transform="translate(176.4 292.2) scale(2.60227)"/>
  <path id="polygon13026" fill="#373737" d="M1.8 1.8L.9.9v3.9l.9-.8z" transform="translate(176.4 292.2) scale(2.60227)"/>
  <g id="IOREF" transform="scale(.67113)">
    <path id="connector99pin" stroke-width="3.9" d="M292 442.3h8.6v8.6H292z"/>
    <path id="polygon13030" fill="#2a2a29" d="M9.8 1.8l.8-.9H6.7l.8.9z" transform="translate(262.8 435.5) scale(3.87747)"/>
    <path id="polygon13032" fill="#474747" d="M9.8 4l.8.8V.9l-.8.9z" transform="translate(262.8 435.5) scale(3.87747)"/>
    <path id="polygon13034" fill="#595959" d="M7.5 4l-.8.8h3.9L9.8 4z" transform="translate(262.8 435.5) scale(3.87747)"/>
    <path id="polygon13036" fill="#373737" d="M7.5 1.8L6.7.9v3.9l.8-.8z" transform="translate(262.8 435.5) scale(3.87747)"/>
  </g>
  <g id="RST" transform="scale(.67113)">
    <path id="connector100pin" stroke-width="3.9" d="M314.4 442.3h8.6v8.6h-8.6z"/>
    <path id="polygon13040" fill="#2a2a29" d="M15.5 1.8l.8-.9h-3.8l.8.9z" transform="translate(262.8 435.5) scale(3.87747)"/>
    <path id="polygon13042" fill="#474747" d="M15.5 4l.8.8V.9l-.8.9z" transform="translate(262.8 435.5) scale(3.87747)"/>
    <path id="polygon13044" fill="#595959" d="M13.3 4l-.8.8h3.8l-.8-.8z" transform="translate(262.8 435.5) scale(3.87747)"/>
    <path id="polygon13046" fill="#373737" d="M13.3 1.8l-.8-.9v3.9l.8-.8z" transform="translate(262.8 435.5) scale(3.87747)"/>
  </g>
  <g id="3.3V" transform="scale(.67113)">
    <path id="connector101pin" stroke-width="3.9" d="M336.7 442.3h8.6v8.6h-8.6z"/>
    <path id="polygon13050" fill="#2a2a29" d="M21.3 1.8l.8-.9h-3.9l.8.9z" transform="translate(262.8 435.5) scale(3.87747)"/>
    <path id="polygon13052" fill="#474747" d="M21.3 4l.8.8V.9l-.8.9z" transform="translate(262.8 435.5) scale(3.87747)"/>
    <path id="polygon13054" fill="#595959" d="M19 4l-.8.8h3.9l-.8-.8z" transform="translate(262.8 435.5) scale(3.87747)"/>
    <path id="polygon13056" fill="#373737" d="M19 1.8l-.8-.9v3.9L19 4z" transform="translate(262.8 435.5) scale(3.87747)"/>
  </g>
  <g id="5V" transform="scale(.67113)">
    <path id="connector102pin" stroke-width="3.9" d="M359 442.3h8.6v8.6H359z"/>
    <path id="polygon13060" fill="#2a2a29" d="M27 1.8l.9-.9H24l.8.9z" transform="translate(262.8 435.5) scale(3.87747)"/>
    <path id="polygon13062" fill="#474747" d="M27 4l.9.8V.9l-.9.9z" transform="translate(262.8 435.5) scale(3.87747)"/>
    <path id="polygon13064" fill="#595959" d="M24.8 4l-.8.8h3.9L27 4z" transform="translate(262.8 435.5) scale(3.87747)"/>
    <path id="polygon13066" fill="#373737" d="M24.8 1.8L24 .9v3.9l.8-.8z" transform="translate(262.8 435.5) scale(3.87747)"/>
  </g>
  <g id="GND" transform="scale(.67113)">
    <path id="connector103pin" stroke-width="3.9" d="M381.4 442.3h8.6v8.6h-8.6z"/>
    <path id="polygon13070" fill="#2a2a29" d="M32.8 1.8l.8-.9h-3.9l.9.9z" transform="translate(262.8 435.5) scale(3.87747)"/>
    <path id="polygon13072" fill="#474747" d="M32.8 4l.8.8V.9l-.8.9z" transform="translate(262.8 435.5) scale(3.87747)"/>
    <path id="polygon13074" fill="#595959" d="M30.6 4l-.9.8h3.9l-.8-.8z" transform="translate(262.8 435.5) scale(3.87747)"/>
    <path id="polygon13076" fill="#373737" d="M30.6 1.8l-.9-.9v3.9l.9-.8z" transform="translate(262.8 435.5) scale(3.87747)"/>
  </g>
  <g id="GND1" transform="scale(.67113)">
    <path id="connector104pin" stroke-width="3.9" d="M403.7 442.3h8.6v8.6h-8.6z"/>
    <path id="polygon13080" fill="#2a2a29" d="M38.6 1.8l.8-.9h-3.9l.8.9z" transform="translate(262.8 435.5) scale(3.87747)"/>
    <path id="polygon13082" fill="#474747" d="M38.6 4l.8.8V.9l-.8.9z" transform="translate(262.8 435.5) scale(3.87747)"/>
    <path id="polygon13084" fill="#595959" d="M36.3 4l-.8.8h3.9l-.8-.8z" transform="translate(262.8 435.5) scale(3.87747)"/>
    <path id="polygon13086" fill="#373737" d="M36.3 1.8l-.8-.9v3.9l.8-.8z" transform="translate(262.8 435.5) scale(3.87747)"/>
  </g>
  <g id="VIN" transform="scale(.67113)">
    <path id="connector105pin" stroke-width="3.9" d="M426 442.3h8.6v8.6H426z"/>
    <path id="polygon13090" fill="#2a2a29" d="M44.3 1.8l.8-.9h-3.8l.8.9z" transform="translate(262.8 435.5) scale(3.87747)"/>
    <path id="polygon13092" fill="#474747" d="M44.3 4l.8.8V.9l-.8.9z" transform="translate(262.8 435.5) scale(3.87747)"/>
    <path id="polygon13094" fill="#595959" d="M42.1 4l-.8.8h3.8l-.8-.8z" transform="translate(262.8 435.5) scale(3.87747)"/>
    <path id="polygon13096" fill="#373737" d="M42.1 1.8l-.8-.9v3.9l.8-.8z" transform="translate(262.8 435.5) scale(3.87747)"/>
  </g>
  <g id="g6115" transform="rotate(90 33.95 140.55) scale(2.08152)">
    <g id="g12057">
      <path id="connector136pin" fill="#9a916c" stroke-width="0" d="M14.8 66h3.4v3.4h-3.4z"/>
    </g>
  </g>
  <g id="g6119" transform="rotate(90 46.35 140.55) scale(2.08152)">
    <g id="g12060">
      <path id="connector137pin" fill="#9a916c" stroke-width="0" d="M20.7 66h3.4v3.4h-3.4z"/>
    </g>
  </g>
  <g id="g6175" transform="rotate(90 33.95 155.55) scale(2.08152)">
    <g id="g12102">
      <path id="connector151pin" fill="#9a916c" stroke-width="0" d="M14.8 73.2h3.4v3.4h-3.4z"/>
    </g>
  </g>
  <g id="g6179" transform="rotate(90 46.35 155.55) scale(2.08152)">
    <g id="g12105">
      <path id="connector152pin" fill="#9a916c" stroke-width="0" d="M20.7 73.2h3.4v3.4h-3.4z"/>
    </g>
  </g>
  <g id="g6439" transform="rotate(-135 245.122 149.073) scale(2.08152)">
    <g id="g12300">
      <path id="connector217pin" fill="#9a916c" stroke-width="0" d="M111.3 64.9h13.3v13.3h-13.3z"/>
    </g>
  </g>
  <path id="rect12429" fill="#404040" stroke-width="2.1" d="M311.5 292.2h89.9v15h-89.9z"/>
  <g id="A0" transform="scale(.67113)">
    <circle id="circle5670" cx="474.7" cy="446.6" r="5.1" fill="none" stroke="#9a916c" stroke-width="3.1"/>
    <path id="connector5pin" stroke-width="3.1" d="M471 442.3h8.6v8.6H471z"/>
    <path id="polygon12433" fill="#2a2a29" d="M2.2 2.2H5l1-1H1.2z" transform="translate(464.2 435.5) scale(3.10154)"/>
    <path id="polygon12435" fill="#474747" d="M5 2.2V5l1 1V1.2z" transform="translate(464.2 435.5) scale(3.10154)"/>
    <path id="polygon12437" fill="#595959" d="M5 5H2.2l-1 1H6z" transform="translate(464.2 435.5) scale(3.10154)"/>
    <path id="polygon12439" fill="#373737" d="M2.2 5V2.2l-1-1V6z" transform="translate(464.2 435.5) scale(3.10154)"/>
  </g>
  <g id="A1" transform="scale(.67113)">
    <circle id="circle5673" cx="497" cy="446.6" r="5.1" fill="none" stroke="#9a916c" stroke-width="3.1"/>
    <path id="connector6pin" stroke-width="3.1" d="M493.4 442.3h8.6v8.6h-8.6z"/>
    <path id="polygon12443" fill="#2a2a29" d="M9.4 2.2h2.8l1-1H8.4z" transform="translate(464.2 435.5) scale(3.10154)"/>
    <path id="polygon12445" fill="#474747" d="M12.2 2.2V5l1 1V1.2z" transform="translate(464.2 435.5) scale(3.10154)"/>
    <path id="polygon12447" fill="#595959" d="M12.2 5H9.4l-1 1h4.8z" transform="translate(464.2 435.5) scale(3.10154)"/>
    <path id="polygon12449" fill="#373737" d="M9.4 5V2.2l-1-1V6z" transform="translate(464.2 435.5) scale(3.10154)"/>
  </g>
  <g id="A2" transform="scale(.67113)">
    <path id="polygon12453" fill="#2a2a29" d="M16.6 2.2h2.8l1-1h-4.8z" transform="translate(464.2 435.5) scale(3.10154)"/>
    <circle id="circle5676" cx="519.3" cy="446.6" r="5.1" fill="none" stroke="#9a916c" stroke-width="3.1"/>
    <path id="connector7pin" stroke-width="3.1" d="M515.7 442.3h8.6v8.6h-8.6z"/>
    <path id="polygon12455" fill="#474747" d="M20.4 6V1.2l-1 1V5z" transform="translate(464.2 435.5) scale(3.10154)"/>
    <path id="polygon12457" fill="#595959" d="M19.4 5h-2.8l-1 1h4.8z" transform="translate(464.2 435.5) scale(3.10154)"/>
    <path id="polygon12459" fill="#373737" d="M16.6 5V2.2l-1-1V6z" transform="translate(464.2 435.5) scale(3.10154)"/>
  </g>
  <g id="A3" transform="scale(.67113)">
    <circle id="circle5679" cx="541.7" cy="446.6" r="5.1" fill="none" stroke="#9a916c" stroke-width="3.1"/>
    <path id="connector8pin" stroke-width="3.1" d="M538 442.3h8.6v8.6H538z"/>
    <path id="polygon12463" fill="#2a2a29" d="M23.8 2.2h2.8l1-1h-4.8z" transform="translate(464.2 435.5) scale(3.10154)"/>
    <path id="polygon12465" fill="#474747" d="M26.6 2.2V5l1 1V1.2z" transform="translate(464.2 435.5) scale(3.10154)"/>
    <path id="polygon12467" fill="#595959" d="M26.6 5h-2.8l-1 1h4.8z" transform="translate(464.2 435.5) scale(3.10154)"/>
    <path id="polygon12469" fill="#373737" d="M23.8 5V2.2l-1-1V6z" transform="translate(464.2 435.5) scale(3.10154)"/>
  </g>
  <g id="A4" transform="scale(.67113)">
    <circle id="circle5682" cx="564" cy="446.6" r="5.1" fill="none" stroke="#9a916c" stroke-width="3.1"/>
    <path id="connector9pin" stroke-width="3.1" d="M560.4 442.3h8.6v8.6h-8.6z"/>
    <path id="polygon12473" fill="#2a2a29" d="M31 2.2h2.8l1-1H30z" transform="translate(464.2 435.5) scale(3.10154)"/>
    <path id="polygon12475" fill="#474747" d="M33.8 2.2V5l1 1V1.2z" transform="translate(464.2 435.5) scale(3.10154)"/>
    <path id="polygon12477" fill="#595959" d="M33.8 5H31l-1 1h4.8z" transform="translate(464.2 435.5) scale(3.10154)"/>
    <path id="polygon12479" fill="#373737" d="M31 5V2.2l-1-1V6z" transform="translate(464.2 435.5) scale(3.10154)"/>
  </g>
  <g id="A5" transform="scale(.67113)">
    <circle id="circle5685" cx="586.3" cy="446.6" r="5.1" fill="none" stroke="#9a916c" stroke-width="3.1"/>
    <path id="connector10pin" stroke-width="3.1" d="M582.7 442.3h8.6v8.6h-8.6z"/>
    <path id="polygon12483" fill="#2a2a29" d="M38.2 2.2H41l1-1h-4.8z" transform="translate(464.2 435.5) scale(3.10154)"/>
    <path id="polygon12485" fill="#474747" d="M41 2.2V5l1 1V1.2z" transform="translate(464.2 435.5) scale(3.10154)"/>
    <path id="polygon12487" fill="#595959" d="M41 5h-2.8l-1 1H42z" transform="translate(464.2 435.5) scale(3.10154)"/>
    <path id="polygon12489" fill="#373737" d="M38.2 5V2.2l-1-1V6z" transform="translate(464.2 435.5) scale(3.10154)"/>
  </g>
  <path id="path12903" fill="#dcdcdc" stroke-width="2.1" d="M35.3 124.5h10.6c.3 0 .6.2.6.5v6.2c0 .4-.3.6-.6.6H35.3a.6.6 0 0 1-.6-.6V125c0-.3.2-.5.6-.5z"/>
  <path id="LED" fill="red" stroke-width="2.1" d="M-131.8 36.9h7.4v7.4h-7.4z" transform="rotate(-90)"/>
  <g id="NEOPIXEL" transform="translate(75.2 61.6) scale(2.08152)">
    <g id="led3535">
      <g id="g6963" transform="rotate(180 5 5)">
        <g id="g12910">
          <path id="rect12912" fill="#fff" d="M0 0h2.8v2.8H0z"/>
          <path id="path12914" d="M10 10H0V1.3L1.4 0H10z"/>
          <circle id="circle12916" cx="5" cy="5" r="4.3" fill="#c8c8c8"/>
          <path id="path12918" fill="#fff" d="M3.3 3.8V1.1L2 1.8v2H1L.7 5h4.8v4.2l1.2-.3v-4h2.5c0-.3 0-.7-.2-1z"/>
          <path id="rect12920" fill="#1e1432" d="M3.5 1.8h2.3v1.7H3.5z"/>
        </g>
      </g>
    </g>
  </g>
  <path id="path12925" fill="#dcdcdc" stroke-width="2.1" d="M45.1 173H34.5a.6.6 0 0 1-.6-.5v-6.2c0-.4.3-.6.6-.6h10.6c.4 0 .6.2.6.6v6.2c0 .3-.2.5-.6.5z"/>
  <path id="LEDON" fill="#0f0" stroke-width="2.1" d="M165.7-43.5h7.4v7.4h-7.4z" transform="rotate(90)"/>
  <path id="polygon13171" fill="#dcdcdc" d="M0 15h1.7v2h18.1v-2h1.7v-1.7h-1.7V3.7h1.7V2h-1.7V0H1.7v2H0v1.7h1.7v9.6H0z" transform="rotate(180 39.35 20.5) scale(2.08152)"/>
  <circle id="RESETBTN" cx="-56.3" cy="-23.2" r="8.9" fill="#1e1e1e" stroke-width="2.1" transform="scale(-1)"/>
  <path id="path13182" fill="#dcdcdc" stroke-width="2.1" d="M45.1 144.6H34.5a.6.6 0 0 1-.6-.6v-6.2c0-.3.3-.6.6-.6h10.6c.4 0 .6.3.6.6v6.2c0 .3-.2.6-.6.6z"/>
  <path id="RXLED" fill="#ff0" stroke-width="2.1" d="M137.2-43.5h7.4v7.4h-7.4z" transform="rotate(90)"/>
  <path id="path13248" fill="#dcdcdc" stroke-width="2.1" d="M45.1 159.6H34.5a.6.6 0 0 1-.6-.6v-6.2c0-.4.3-.6.6-.6h10.6c.4 0 .6.2.6.6v6.2c0 .3-.2.6-.6.6z"/>
  <path id="TXLED" fill="#ff0" stroke-width="2.1" d="M152.2-43.5h7.4v7.4h-7.4z" transform="rotate(90)"/>
  <g id="g7227" transform="translate(218.3 122.3) scale(2.08152)">
    <g id="pqfn64-1">
      <g id="g7224" transform="rotate(-135 12.8 12.8)">
        <g id="g13255">
          <g id="g7221" transform="translate(-18.3 -61.4)">
            <g id="layer1">
              <g id="g7218" transform="rotate(90 46 84) scale(1.28571)">
                <g id="g3335" stroke-width="0">
                  <path id="rect9367" fill="#333" fill-rule="evenodd" stroke="#000" d="M18.3 67h19.8v19.8H18.3z"/>
                  <circle id="path10169" cx="20.1" cy="85.1" r=".6" fill="#999"/>
                </g>
              </g>
            </g>
          </g>
        </g>
      </g>
    </g>
  </g>
  <g id="g7444" transform="translate(11.8 72.6) scale(2.08152)">
    <g id="4uconn_20329_v2">
      <g id="g7441" transform="rotate(90 11.3 8.3)">
        <g id="g13426">
          <g id="g13428">
            <path id="rect13430" fill="#b4b4b4" d="M0 7.2h22.7v4H0z"/>
            <path id="rect13432" fill="#dcdcdc" d="M11.1 0h.6v3.4h-.6z"/>
            <path id="rect13434" fill="#dcdcdc" d="M12.9 0h.6v3.4h-.6z"/>
            <path id="rect13436" fill="#dcdcdc" d="M14.7 0h.6v3.4h-.6z"/>
            <path id="rect13438" fill="#dcdcdc" d="M9.2 0h.6v3.4h-.6z"/>
            <path id="rect13440" fill="#dcdcdc" d="M7.4 0H8v3.4h-.6z"/>
            <path id="rect13442" fill="#b4b4b4" d="M4.3 1.5h14.2v.7H4.3z"/>
            <path id="rect13444" d="M4.3 1.8h14.2v3H4.3z"/>
            <path id="polygon13446" fill="#dcdcdc" d="M17 3.5h-2.3v.7h-1.4V1.6H9.4v2.6H7.9v-.7H5.7V1.3H.6V15h21.5V1.3H17z"/>
            <path id="polygon13448" d="M3.8 12.1l.3-4.2h1.4l.3 4.2z"/>
            <path id="polygon13450" d="M16.9 12.1l.2-4.2h1.5l.3 4.2z"/>
            <path id="polygon13452" fill="#f0f0f0" d="M1.7 16.7L1.1 15h20.4l-.5 1.7z"/>
            <path id="polygon13454" fill="#b4b4b4" d="M0 16.7L.6 15h.5l-.5 1.7z"/>
            <path id="polygon13456" fill="#b4b4b4" d="M22.1 16.7l-.6-1.7h.6l.6 1.7z"/>
          </g>
        </g>
      </g>
    </g>
  </g>
  <g id="g7533" transform="translate(0 241.4) scale(2.08152)">
    <g id="dcjack_2mm_pth">
      <g id="g7530" transform="scale(1.66095)">
        <g id="g13484">
          <g id="g7527" transform="rotate(-90 34.3 -29)">
            <g id="dc-21mm">
              <g id="g7524" transform="rotate(90 8.2 16.6)">
                <g id="g4">
                  <g id="g6">
                    <g id="g8">
                      <g id="g7481" transform="rotate(90 -58.3 27.5)">
                        <path id="rect10" fill="#232323" d="M-65.9 17h15.2v21.1h-15.2z"/>
                      </g>
                      <g id="g7484" transform="rotate(90 -58.2 20.8)">
                        <path id="rect12" fill="#494949" d="M-58.8 10.6h1.1V31h-1.1z"/>
                      </g>
                      <g id="g7487" transform="rotate(90 -58.2 23)">
                        <path id="rect14" fill="#3d3d3d" fill-opacity=".3" d="M-60 12.8h3.4v20.4H-60z"/>
                      </g>
                      <g id="g7490" transform="rotate(90 -58.6 34.3)">
                        <path id="rect16" d="M-59.1 23.7h1v21.1h-1z"/>
                      </g>
                      <g id="g7493" transform="rotate(90 -58.6 31.9)">
                        <path id="rect18" fill="#0f0f0f" fill-opacity=".4" d="M-60.4 21.3h3.7v21.1h-3.7z"/>
                      </g>
                    </g>
                    <g id="g7497" transform="rotate(90 -48 27.5)">
                      <path id="rect20" d="M-55.5 27.3h15.2v.4h-15.2z" opacity=".2"/>
                    </g>
                  </g>
                  <path id="line22" fill="none" stroke="#000" stroke-miterlimit="10" stroke-width=".2" d="M-49.5 35.1V19.9" opacity=".5"/>
                  <g id="g24">
                    <g id="g7502" transform="rotate(90 -67 27.5)">
                      <path id="rect26" d="M-74.6 27.1h15.2v.8h-15.2z" opacity=".3"/>
                    </g>
                    <path id="path28" stroke="#565656" stroke-miterlimit="10" stroke-width=".2" d="M-67.3 22.7v9.6h8.6a4.8 4.8 0 1 0 0-9.6h-8.6z" opacity=".3"/>
                  </g>
                  <g id="g30">
                    <path id="path32" fill="#232323" d="M-67.3 22.7v9.6h8.6a4.8 4.8 0 1 0 0-9.6h-8.6z"/>
                    <g id="g7508" transform="rotate(90 -69.2 27.5)">
                      <path id="rect34" fill="#232323" d="M-77.4 25h16.3v4.9h-16.3z"/>
                    </g>
                  </g>
                  <g id="g7512" transform="rotate(90 -47.2 27.5)">
                    <path id="rect36" fill="#6d6d6d" d="M-49 27h3.7v1.1H-49z"/>
                  </g>
                  <g id="g7515" transform="rotate(90 -47.4 27.5)">
                    <path id="rect38" fill="#494949" d="M-51 27.2h7.2v.6H-51z"/>
                  </g>
                  <g id="g7518" transform="rotate(90 -69.3 20)">
                    <path id="rect40" fill="#494949" d="M-69.6 17.9h.7v4h-.7z"/>
                  </g>
                  <g id="g7521" transform="rotate(90 -69.3 35.1)">
                    <path id="rect42" d="M-69.6 33.1h.7v4h-.7z"/>
                  </g>
                </g>
              </g>
            </g>
          </g>
        </g>
      </g>
    </g>
  </g>
  <g id="VCC" transform="translate(1.3 -42.7) scale(.67113)">
    <circle id="circle5685-4" cx="605" cy="264.6" r="5.1" fill="none" stroke="#9a916c" stroke-width="3.1"/>
    <path id="path11712-3" fill="#9a916c" stroke-width="0" d="M600 253h10v23.3h-10V253m0 11.6a5 5 0 1 0 10 0 5 5 0 1 0-10 0z"/>
    <path id="connector10pin-9" stroke-width="3.1" d="M601.4 260.3h8.6v8.6h-8.6z"/>
    <path id="polygon12483-6" fill="#2a2a29" d="M41 2.2l1-1h-4.8l1 1z" transform="translate(482.9 253.5) scale(3.10154)"/>
    <path id="polygon12485-5" fill="#474747" d="M41 5l1 1V1.2l-1 1z" transform="translate(482.9 253.5) scale(3.10154)"/>
    <path id="polygon12487-5" fill="#595959" d="M38.2 5l-1 1H42l-1-1z" transform="translate(482.9 253.5) scale(3.10154)"/>
    <path id="polygon12489-0" fill="#373737" d="M38.2 2.2l-1-1V6l1-1z" transform="translate(482.9 253.5) scale(3.10154)"/>
  </g>
  <g id="MISO" transform="translate(-12.4 -42.7) scale(.67113)">
    <circle id="circle5685-4-7" cx="605" cy="264.6" r="5.1" fill="none" stroke="#9a916c" stroke-width="3.1"/>
    <path id="path11712-3-4" fill="#9a916c" stroke-width="0" d="M600 253h10v23.3h-10V253m0 11.6a5 5 0 1 0 10 0 5 5 0 1 0-10 0z"/>
    <path id="connector10pin-9-3" stroke-width="3.1" d="M601.4 260.3h8.6v8.6h-8.6z"/>
    <path id="polygon12483-6-1" fill="#2a2a29" d="M42 1.2h-4.8l1 1H41z" transform="translate(482.9 253.5) scale(3.10154)"/>
    <path id="polygon12485-5-0" fill="#474747" d="M42 6V1.2l-1 1V5z" transform="translate(482.9 253.5) scale(3.10154)"/>
    <path id="polygon12487-5-3" fill="#595959" d="M37.2 6H42l-1-1h-2.8z" transform="translate(482.9 253.5) scale(3.10154)"/>
    <path id="polygon12489-0-8" fill="#373737" d="M37.2 1.2V6l1-1V2.2z" transform="translate(482.9 253.5) scale(3.10154)"/>
  </g>
  <g id="MOSI" transform="translate(1.3 -26.2) scale(.67113)">
    <circle id="circle5685-4-77" cx="605" cy="264.6" r="5.1" fill="none" stroke="#9a916c" stroke-width="3.1"/>
    <path id="path11712-3-2" fill="#9a916c" stroke-width="0" d="M600 253h10v23.3h-10V253m0 11.6a5 5 0 1 0 10 0 5 5 0 1 0-10 0z"/>
    <path id="connector10pin-9-9" stroke-width="3.1" d="M601.4 260.3h8.6v8.6h-8.6z"/>
    <path id="polygon12483-6-4" fill="#2a2a29" d="M41 2.2l1-1h-4.8l1 1z" transform="translate(482.9 253.5) scale(3.10154)"/>
    <path id="polygon12485-5-4" fill="#474747" d="M41 5l1 1V1.2l-1 1z" transform="translate(482.9 253.5) scale(3.10154)"/>
    <path id="polygon12487-5-1" fill="#595959" d="M38.2 5l-1 1H42l-1-1z" transform="translate(482.9 253.5) scale(3.10154)"/>
    <path id="polygon12489-0-6" fill="#373737" d="M38.2 2.2l-1-1V6l1-1z" transform="translate(482.9 253.5) scale(3.10154)"/>
  </g>
  <g id="SCK" transform="translate(-12.4 -26.2) scale(.67113)">
    <circle id="circle5685-4-7-1" cx="605" cy="264.6" r="5.1" fill="none" stroke="#9a916c" stroke-width="3.1"/>
    <path id="path11712-3-4-2" fill="#9a916c" stroke-width="0" d="M600 253h10v23.3h-10V253m0 11.6a5 5 0 1 0 10 0 5 5 0 1 0-10 0z"/>
    <path id="connector10pin-9-3-7" stroke-width="3.1" d="M601.4 260.3h8.6v8.6h-8.6z"/>
    <path id="polygon12483-6-1-4" fill="#2a2a29" d="M42 1.2h-4.8l1 1H41z" transform="translate(482.9 253.5) scale(3.10154)"/>
    <path id="polygon12485-5-0-0" fill="#474747" d="M42 6V1.2l-1 1V5z" transform="translate(482.9 253.5) scale(3.10154)"/>
    <path id="polygon12487-5-3-2" fill="#595959" d="M37.2 6H42l-1-1h-2.8z" transform="translate(482.9 253.5) scale(3.10154)"/>
    <path id="polygon12489-0-8-5" fill="#373737" d="M37.2 1.2V6l1-1V2.2z" transform="translate(482.9 253.5) scale(3.10154)"/>
  </g>
  <g id="GNDSPI" transform="translate(1.3 -9.9) scale(.67113)">
    <circle id="circle5685-4-8" cx="605" cy="264.6" r="5.1" fill="none" stroke="#9a916c" stroke-width="3.1"/>
    <path id="path11712-3-5" fill="#9a916c" stroke-width="0" d="M600 253h10v23.3h-10V253m0 11.6a5 5 0 1 0 10 0 5 5 0 1 0-10 0z"/>
    <path id="connector10pin-9-2" stroke-width="3.1" d="M601.4 260.3h8.6v8.6h-8.6z"/>
    <path id="polygon12483-6-14" fill="#2a2a29" d="M42 1.2h-4.8l1 1H41z" transform="translate(482.9 253.5) scale(3.10154)"/>
    <path id="polygon12485-5-1" fill="#474747" d="M42 6V1.2l-1 1V5z" transform="translate(482.9 253.5) scale(3.10154)"/>
    <path id="polygon12487-5-4" fill="#595959" d="M37.2 6H42l-1-1h-2.8z" transform="translate(482.9 253.5) scale(3.10154)"/>
    <path id="polygon12489-0-3" fill="#373737" d="M37.2 1.2V6l1-1V2.2z" transform="translate(482.9 253.5) scale(3.10154)"/>
  </g>
  <g id="g6077-4-0" transform="translate(-12.4 -9.9) scale(.67113)">
    <circle id="circle5685-4-7-19" cx="605" cy="264.6" r="5.1" fill="none" stroke="#9a916c" stroke-width="3.1"/>
    <path id="path11712-3-4-3" fill="#9a916c" stroke-width="0" d="M600 253h10v23.3h-10V253m0 11.6a5 5 0 1 0 10 0 5 5 0 1 0-10 0z"/>
    <path id="connector10pin-9-3-3" stroke-width="3.1" d="M601.4 260.3h8.6v8.6h-8.6z"/>
    <path id="polygon12483-6-1-1" fill="#2a2a29" d="M37.2 1.2l1 1H41l1-1z" transform="translate(482.9 253.5) scale(3.10154)"/>
    <path id="polygon12485-5-0-2" fill="#474747" d="M42 1.2l-1 1V5l1 1z" transform="translate(482.9 253.5) scale(3.10154)"/>
    <path id="polygon12487-5-3-5" fill="#595959" d="M42 6l-1-1h-2.8l-1 1z" transform="translate(482.9 253.5) scale(3.10154)"/>
    <path id="polygon12489-0-8-9" fill="#373737" d="M37.2 6l1-1V2.2l-1-1z" transform="translate(482.9 253.5) scale(3.10154)"/>
  </g>
</svg>
