<?xml version="1.0" encoding="UTF-8" standalone="no"?>
<!DOCTYPE svg PUBLIC "-//W3C//DTD SVG 1.1//EN" "http://www.w3.org/Graphics/SVG/1.1/DTD/svg11.dtd">
<svg width="100%" height="100%" viewBox="0 0 343 172" version="1.1" xmlns="http://www.w3.org/2000/svg" xmlns:xlink="http://www.w3.org/1999/xlink" xml:space="preserve" xmlns:serif="http://www.serif.com/" style="fill-rule:evenodd;clip-rule:evenodd;stroke-linejoin:round;stroke-miterlimit:2;">
    <g transform="matrix(1.24252,0,0,2.45017,-41.5638,-69.7226)">
        <path d="M252.366,36.162C252.366,34.299 249.384,32.787 245.71,32.787L90.484,32.787C86.811,32.787 83.828,34.299 83.828,36.162L83.828,90.95C83.828,92.813 86.811,94.325 90.484,94.325L245.71,94.325C249.384,94.325 252.366,92.813 252.366,90.95L252.366,36.162Z" style="fill:rgb(50,50,50);"/>
    </g>
    <g id="MISO" transform="matrix(1.02425,0,0,1,-2.06566,-0.552226)">
        <rect x="85.196" y="103.682" width="5.858" height="5.997" style="fill:rgb(7,0,255);"/>
    </g>
    <g id="MOSI" transform="matrix(1.02425,0,0,1,9.8466,-0.552226)">
        <rect x="85.196" y="103.682" width="5.858" height="5.997" style="fill:rgb(7,0,255);"/>
    </g>
    <g id="SCK" transform="matrix(1.02425,0,0,1,21.7589,-0.552226)">
        <rect x="85.196" y="103.682" width="5.858" height="5.997" style="fill:rgb(7,0,255);"/>
    </g>
    <g id="NEOPIXEL" transform="matrix(1.02425,0,0,1,33.6711,-0.552226)">
        <rect x="85.196" y="103.682" width="5.858" height="5.997" style="fill:rgb(7,0,255);"/>
    </g>
    <g id="GND" transform="matrix(1.02425,0,0,1,45.5834,-0.552226)">
        <rect x="85.196" y="103.682" width="5.858" height="5.997" style="fill:rgb(7,0,255);"/>
    </g>
    <g id="_3V" serif:id="3V" transform="matrix(1.02425,0,0,1,57.4956,-0.552226)">
        <rect x="85.196" y="103.682" width="5.858" height="5.997" style="fill:rgb(7,0,255);"/>
    </g>
    <g id="_5V" serif:id="5V" transform="matrix(1.02425,0,0,1,69.4079,-0.552226)">
        <rect x="85.196" y="103.682" width="5.858" height="5.997" style="fill:rgb(7,0,255);"/>
    </g>
    <g id="LIGHT_FAULT" transform="matrix(1.02425,0,0,1,81.3202,-0.552226)">
        <rect x="85.196" y="103.682" width="5.858" height="5.997" style="fill:rgb(7,0,255);"/>
    </g>
    <g id="LIGHT_PWR" transform="matrix(1.02425,0,0,1,93.2324,-0.552226)">
        <rect x="85.196" y="103.682" width="5.858" height="5.997" style="fill:rgb(7,0,255);"/>
    </g>
    <g id="VBAT" transform="matrix(1.02425,0,0,1,105.145,-0.552226)">
        <rect x="85.196" y="103.682" width="5.858" height="5.997" style="fill:rgb(7,0,255);"/>
    </g>
    <rect id="LED" x="98.937" y="38.203" width="5.464" height="4.714" style="fill:rgb(255,0,0);"/>
    <g transform="matrix(1,0,0,1,28.9958,47.4448)">
        <g transform="matrix(12,0,0,12,133.284,94.7144)">
            <path d="M0.073,-0L0.073,-0.716L0.342,-0.716C0.396,-0.716 0.44,-0.709 0.473,-0.694C0.506,-0.68 0.532,-0.657 0.551,-0.627C0.57,-0.597 0.579,-0.566 0.579,-0.533C0.579,-0.502 0.571,-0.473 0.554,-0.446C0.538,-0.419 0.513,-0.397 0.479,-0.381C0.522,-0.368 0.556,-0.347 0.579,-0.316C0.602,-0.285 0.614,-0.249 0.614,-0.208C0.614,-0.174 0.607,-0.143 0.593,-0.114C0.578,-0.085 0.561,-0.063 0.54,-0.047C0.519,-0.032 0.493,-0.02 0.462,-0.012C0.43,-0.004 0.392,-0 0.346,-0L0.073,-0ZM0.168,-0.415L0.323,-0.415C0.365,-0.415 0.395,-0.418 0.413,-0.423C0.437,-0.431 0.455,-0.442 0.468,-0.459C0.48,-0.476 0.486,-0.496 0.486,-0.521C0.486,-0.545 0.48,-0.566 0.469,-0.584C0.457,-0.602 0.441,-0.615 0.42,-0.621C0.399,-0.628 0.362,-0.631 0.311,-0.631L0.168,-0.631L0.168,-0.415ZM0.168,-0.084L0.346,-0.084C0.377,-0.084 0.398,-0.086 0.411,-0.088C0.432,-0.092 0.451,-0.098 0.465,-0.107C0.48,-0.117 0.492,-0.13 0.501,-0.147C0.511,-0.165 0.516,-0.185 0.516,-0.208C0.516,-0.234 0.509,-0.257 0.495,-0.277C0.481,-0.297 0.462,-0.311 0.438,-0.319C0.414,-0.327 0.379,-0.331 0.333,-0.331L0.168,-0.331L0.168,-0.084Z" style="fill:white;fill-rule:nonzero;"/>
        </g>
        <g transform="matrix(12,0,0,12,141.288,94.7144)">
            <path d="M0.065,-0L0.065,-0.519L0.144,-0.519L0.144,-0.44C0.164,-0.477 0.183,-0.501 0.2,-0.513C0.217,-0.524 0.236,-0.53 0.256,-0.53C0.286,-0.53 0.316,-0.521 0.347,-0.502L0.316,-0.42C0.295,-0.433 0.273,-0.439 0.252,-0.439C0.233,-0.439 0.215,-0.434 0.2,-0.422C0.185,-0.411 0.174,-0.395 0.167,-0.374C0.158,-0.343 0.153,-0.309 0.153,-0.271L0.153,-0L0.065,-0Z" style="fill:white;fill-rule:nonzero;"/>
        </g>
        <g transform="matrix(12,0,0,12,145.284,94.7144)">
            <path d="M0.404,-0.064C0.372,-0.036 0.34,-0.017 0.31,-0.005C0.28,0.006 0.248,0.012 0.213,0.012C0.156,0.012 0.113,-0.002 0.082,-0.03C0.051,-0.058 0.036,-0.093 0.036,-0.137C0.036,-0.162 0.042,-0.185 0.053,-0.206C0.065,-0.227 0.08,-0.244 0.099,-0.257C0.118,-0.27 0.139,-0.279 0.162,-0.286C0.179,-0.29 0.205,-0.295 0.24,-0.299C0.311,-0.307 0.363,-0.317 0.397,-0.329C0.397,-0.341 0.397,-0.349 0.397,-0.352C0.397,-0.388 0.389,-0.413 0.373,-0.428C0.35,-0.448 0.317,-0.458 0.272,-0.458C0.231,-0.458 0.201,-0.45 0.181,-0.436C0.161,-0.421 0.147,-0.396 0.137,-0.359L0.051,-0.371C0.059,-0.407 0.072,-0.437 0.09,-0.46C0.108,-0.482 0.134,-0.5 0.167,-0.512C0.201,-0.524 0.241,-0.53 0.285,-0.53C0.329,-0.53 0.365,-0.525 0.393,-0.515C0.421,-0.504 0.441,-0.491 0.454,-0.475C0.467,-0.46 0.476,-0.44 0.481,-0.416C0.484,-0.401 0.486,-0.374 0.486,-0.334L0.486,-0.217C0.486,-0.136 0.488,-0.084 0.491,-0.062C0.495,-0.041 0.503,-0.02 0.514,-0L0.422,-0C0.413,-0.018 0.407,-0.04 0.404,-0.064ZM0.397,-0.26C0.365,-0.247 0.317,-0.236 0.253,-0.227C0.217,-0.222 0.192,-0.216 0.177,-0.209C0.162,-0.203 0.15,-0.193 0.142,-0.181C0.134,-0.168 0.13,-0.154 0.13,-0.139C0.13,-0.116 0.139,-0.096 0.156,-0.081C0.174,-0.065 0.2,-0.057 0.234,-0.057C0.268,-0.057 0.298,-0.065 0.325,-0.079C0.351,-0.094 0.37,-0.114 0.383,-0.14C0.392,-0.16 0.397,-0.189 0.397,-0.228L0.397,-0.26Z" style="fill:white;fill-rule:nonzero;"/>
        </g>
        <g transform="matrix(12,0,0,12,151.958,94.7144)">
            <path d="M0.066,-0.615L0.066,-0.716L0.154,-0.716L0.154,-0.615L0.066,-0.615ZM0.066,-0L0.066,-0.519L0.154,-0.519L0.154,-0L0.066,-0Z" style="fill:white;fill-rule:nonzero;"/>
        </g>
        <g transform="matrix(12,0,0,12,154.624,94.7144)">
            <path d="M0.066,-0L0.066,-0.519L0.145,-0.519L0.145,-0.445C0.183,-0.502 0.238,-0.53 0.31,-0.53C0.341,-0.53 0.37,-0.525 0.396,-0.513C0.422,-0.502 0.442,-0.487 0.455,-0.469C0.468,-0.451 0.477,-0.429 0.482,-0.404C0.486,-0.388 0.487,-0.36 0.487,-0.319L0.487,-0L0.399,-0L0.399,-0.315C0.399,-0.351 0.396,-0.378 0.389,-0.396C0.382,-0.413 0.37,-0.428 0.353,-0.438C0.335,-0.449 0.315,-0.454 0.292,-0.454C0.254,-0.454 0.222,-0.442 0.195,-0.418C0.167,-0.395 0.154,-0.35 0.154,-0.283L0.154,-0L0.066,-0Z" style="fill:white;fill-rule:nonzero;"/>
        </g>
        <g transform="matrix(12,0,0,12,164.632,94.7144)">
            <path d="M0.076,-0L0.076,-0.716L0.173,-0.716L0.549,-0.154L0.549,-0.716L0.64,-0.716L0.64,-0L0.543,-0L0.167,-0.563L0.167,-0L0.076,-0Z" style="fill:white;fill-rule:nonzero;"/>
        </g>
        <g transform="matrix(12,0,0,12,173.298,94.7144)">
            <path d="M0.079,-0L0.079,-0.716L0.396,-0.716C0.46,-0.716 0.508,-0.709 0.542,-0.697C0.575,-0.684 0.601,-0.661 0.621,-0.628C0.641,-0.596 0.651,-0.56 0.651,-0.521C0.651,-0.47 0.634,-0.427 0.602,-0.392C0.569,-0.357 0.518,-0.335 0.449,-0.326C0.474,-0.314 0.493,-0.302 0.506,-0.29C0.534,-0.265 0.56,-0.233 0.585,-0.195L0.709,-0L0.59,-0L0.496,-0.149C0.468,-0.192 0.445,-0.225 0.427,-0.248C0.409,-0.27 0.393,-0.286 0.379,-0.295C0.365,-0.305 0.351,-0.311 0.336,-0.314C0.325,-0.317 0.308,-0.318 0.283,-0.318L0.173,-0.318L0.173,-0L0.079,-0ZM0.173,-0.4L0.377,-0.4C0.42,-0.4 0.454,-0.404 0.479,-0.413C0.503,-0.422 0.521,-0.437 0.534,-0.456C0.547,-0.476 0.553,-0.497 0.553,-0.521C0.553,-0.554 0.541,-0.582 0.516,-0.604C0.492,-0.626 0.453,-0.637 0.4,-0.637L0.173,-0.637L0.173,-0.4Z" style="fill:white;fill-rule:nonzero;"/>
        </g>
        <g transform="matrix(12,0,0,12,181.964,94.7144)">
            <path d="M0.082,-0L0.082,-0.716L0.565,-0.716L0.565,-0.631L0.177,-0.631L0.177,-0.41L0.513,-0.41L0.513,-0.325L0.177,-0.325L0.177,-0L0.082,-0Z" style="fill:white;fill-rule:nonzero;"/>
        </g>
        <g transform="matrix(12,0,0,12,189.294,94.7144)">
            <path d="M0.042,-0.188L0.134,-0.195C0.141,-0.15 0.156,-0.117 0.181,-0.094C0.206,-0.071 0.236,-0.06 0.271,-0.06C0.314,-0.06 0.35,-0.076 0.379,-0.108C0.408,-0.14 0.423,-0.182 0.423,-0.235C0.423,-0.285 0.409,-0.325 0.381,-0.354C0.352,-0.382 0.316,-0.397 0.27,-0.397C0.242,-0.397 0.216,-0.391 0.193,-0.378C0.171,-0.365 0.153,-0.348 0.14,-0.328L0.057,-0.338L0.126,-0.706L0.482,-0.706L0.482,-0.622L0.197,-0.622L0.158,-0.43C0.201,-0.46 0.246,-0.475 0.293,-0.475C0.356,-0.475 0.409,-0.453 0.452,-0.41C0.495,-0.366 0.516,-0.311 0.516,-0.243C0.516,-0.178 0.497,-0.122 0.459,-0.075C0.414,-0.017 0.351,0.012 0.271,0.012C0.206,0.012 0.153,-0.006 0.112,-0.042C0.071,-0.079 0.047,-0.127 0.042,-0.188Z" style="fill:white;fill-rule:nonzero;"/>
        </g>
        <g transform="matrix(12,0,0,12,195.968,94.7144)">
            <path d="M0.503,-0.084L0.503,-0L0.03,-0C0.03,-0.021 0.033,-0.042 0.041,-0.061C0.053,-0.093 0.072,-0.125 0.098,-0.156C0.125,-0.188 0.163,-0.224 0.213,-0.265C0.291,-0.328 0.344,-0.379 0.371,-0.416C0.398,-0.454 0.412,-0.489 0.412,-0.522C0.412,-0.557 0.4,-0.586 0.375,-0.61C0.35,-0.634 0.317,-0.646 0.277,-0.646C0.235,-0.646 0.201,-0.633 0.176,-0.608C0.15,-0.583 0.138,-0.547 0.137,-0.502L0.047,-0.512C0.053,-0.579 0.076,-0.63 0.117,-0.666C0.157,-0.701 0.211,-0.719 0.279,-0.719C0.348,-0.719 0.402,-0.7 0.442,-0.662C0.482,-0.624 0.502,-0.576 0.502,-0.52C0.502,-0.491 0.497,-0.463 0.485,-0.436C0.473,-0.408 0.454,-0.379 0.427,-0.348C0.399,-0.318 0.354,-0.276 0.291,-0.222C0.238,-0.178 0.204,-0.148 0.189,-0.132C0.174,-0.116 0.162,-0.1 0.152,-0.084L0.503,-0.084Z" style="fill:white;fill-rule:nonzero;"/>
        </g>
        <g transform="matrix(12,0,0,12,202.642,94.7144)">
            <path d="M0.177,-0.388C0.14,-0.402 0.113,-0.421 0.096,-0.445C0.078,-0.47 0.069,-0.5 0.069,-0.534C0.069,-0.586 0.088,-0.63 0.125,-0.666C0.163,-0.701 0.213,-0.719 0.275,-0.719C0.337,-0.719 0.388,-0.701 0.426,-0.664C0.464,-0.628 0.483,-0.584 0.483,-0.532C0.483,-0.499 0.474,-0.47 0.457,-0.445C0.439,-0.42 0.413,-0.402 0.377,-0.388C0.421,-0.374 0.455,-0.351 0.478,-0.319C0.501,-0.287 0.512,-0.249 0.512,-0.205C0.512,-0.143 0.491,-0.092 0.447,-0.05C0.404,-0.009 0.347,0.012 0.276,0.012C0.206,0.012 0.149,-0.009 0.105,-0.051C0.062,-0.092 0.041,-0.145 0.041,-0.207C0.041,-0.254 0.052,-0.293 0.076,-0.324C0.1,-0.355 0.133,-0.377 0.177,-0.388ZM0.159,-0.537C0.159,-0.503 0.17,-0.476 0.192,-0.454C0.214,-0.433 0.242,-0.422 0.277,-0.422C0.311,-0.422 0.338,-0.433 0.36,-0.454C0.382,-0.475 0.393,-0.501 0.393,-0.532C0.393,-0.564 0.381,-0.592 0.359,-0.614C0.337,-0.635 0.309,-0.646 0.276,-0.646C0.242,-0.646 0.215,-0.636 0.192,-0.614C0.17,-0.593 0.159,-0.567 0.159,-0.537ZM0.131,-0.207C0.131,-0.181 0.137,-0.157 0.149,-0.134C0.161,-0.11 0.178,-0.092 0.202,-0.079C0.225,-0.066 0.25,-0.06 0.277,-0.06C0.319,-0.06 0.354,-0.074 0.381,-0.101C0.409,-0.128 0.422,-0.162 0.422,-0.204C0.422,-0.246 0.408,-0.281 0.38,-0.309C0.352,-0.336 0.317,-0.35 0.274,-0.35C0.233,-0.35 0.199,-0.336 0.172,-0.309C0.144,-0.282 0.131,-0.248 0.131,-0.207Z" style="fill:white;fill-rule:nonzero;"/>
        </g>
        <g transform="matrix(12,0,0,12,209.315,94.7144)">
            <path d="M0.323,-0L0.323,-0.171L0.013,-0.171L0.013,-0.252L0.339,-0.716L0.411,-0.716L0.411,-0.252L0.508,-0.252L0.508,-0.171L0.411,-0.171L0.411,-0L0.323,-0ZM0.323,-0.252L0.323,-0.575L0.099,-0.252L0.323,-0.252Z" style="fill:white;fill-rule:nonzero;"/>
        </g>
        <g transform="matrix(12,0,0,12,215.989,94.7144)">
            <path d="M0.042,-0.353C0.042,-0.438 0.05,-0.506 0.068,-0.557C0.085,-0.609 0.111,-0.649 0.145,-0.677C0.18,-0.705 0.223,-0.719 0.275,-0.719C0.313,-0.719 0.347,-0.711 0.376,-0.696C0.405,-0.68 0.429,-0.658 0.448,-0.629C0.467,-0.6 0.481,-0.564 0.492,-0.522C0.503,-0.48 0.508,-0.424 0.508,-0.353C0.508,-0.269 0.5,-0.201 0.482,-0.15C0.465,-0.098 0.439,-0.058 0.405,-0.03C0.371,-0.002 0.327,0.012 0.275,0.012C0.206,0.012 0.152,-0.013 0.112,-0.062C0.065,-0.122 0.042,-0.219 0.042,-0.353ZM0.132,-0.353C0.132,-0.236 0.146,-0.157 0.173,-0.118C0.201,-0.08 0.235,-0.06 0.275,-0.06C0.315,-0.06 0.349,-0.08 0.377,-0.119C0.404,-0.158 0.418,-0.236 0.418,-0.353C0.418,-0.471 0.404,-0.549 0.377,-0.588C0.349,-0.627 0.315,-0.646 0.274,-0.646C0.234,-0.646 0.201,-0.629 0.177,-0.595C0.147,-0.551 0.132,-0.471 0.132,-0.353Z" style="fill:white;fill-rule:nonzero;"/>
        </g>
    </g>
</svg>
