<svg viewBox="0 0 343 172" xmlns="http://www.w3.org/2000/svg" fill-rule="evenodd" clip-rule="evenodd" stroke-linejoin="round" stroke-miterlimit="2"><path d="M272.006 18.88a8.273 8.273 0 00-8.27-8.269H70.864c-4.563 0-8.27 3.705-8.27 8.27v134.24c0 4.564 3.707 8.269 8.27 8.269h192.872a8.273 8.273 0 008.27-8.27V18.88z" fill="#323232"/><path fill="#0700ff" d="M85.196 103.13h6v5.997h-6zM97.109 103.13h6v5.997h-6zM109.02 103.13h6.001v5.997h-6zM120.933 103.13h6v5.997h-6zM132.845 103.13h6v5.997h-6zM144.758 103.13h6v5.997h-6zM156.67 103.13h6v5.997h-6zM168.582 103.13h6v5.997h-6zM180.494 103.13h6v5.997h-6zM192.407 103.13h6v5.997h-6z"/><path fill="red" d="M98.937 38.203h5.464v4.714h-5.464z"/><path d="M163.156 142.16v-8.593h3.228c.648 0 1.176.084 1.572.264.396.168.708.444.936.804.228.36.336.732.336 1.128 0 .372-.096.72-.3 1.044-.192.324-.492.588-.9.78.516.156.924.408 1.2.78.276.372.42.804.42 1.296 0 .408-.084.78-.252 1.128-.18.348-.384.612-.636.804-.252.18-.564.324-.936.42-.384.096-.84.144-1.392.144h-3.276zm1.14-4.98h1.86c.504 0 .864-.037 1.08-.097.288-.096.504-.228.66-.432a1.24 1.24 0 00.216-.744c0-.288-.072-.54-.204-.756a1.04 1.04 0 00-.588-.444c-.252-.084-.696-.12-1.308-.12h-1.716v2.592zm0 3.971h2.136c.372 0 .624-.024.78-.048.252-.048.48-.12.648-.228.18-.12.324-.276.432-.48.12-.216.18-.456.18-.732 0-.312-.084-.588-.252-.828a1.321 1.321 0 00-.684-.504c-.288-.096-.708-.144-1.26-.144h-1.98v2.964zM171.064 142.16v-6.229h.948v.948c.24-.444.468-.732.672-.876.204-.132.432-.204.672-.204.36 0 .72.108 1.092.336l-.372.984a1.456 1.456 0 00-.768-.228.975.975 0 00-.624.204c-.18.132-.312.324-.396.576-.108.372-.168.78-.168 1.236v3.252h-1.056zM179.128 141.391a3.955 3.955 0 01-1.128.708 3.34 3.34 0 01-1.164.204c-.684 0-1.2-.168-1.572-.504-.372-.336-.552-.756-.552-1.284 0-.3.072-.576.204-.828a1.81 1.81 0 01.552-.612c.228-.156.48-.264.756-.348a8.22 8.22 0 01.936-.156c.852-.096 1.476-.216 1.884-.36v-.276c0-.432-.096-.732-.288-.912-.276-.24-.672-.36-1.212-.36-.492 0-.852.096-1.092.264-.24.18-.408.48-.528.924l-1.032-.144c.096-.432.252-.792.468-1.068.216-.264.528-.48.924-.624a4.282 4.282 0 011.416-.216c.528 0 .96.06 1.296.18.336.132.576.288.732.48.156.18.264.42.324.708.036.18.06.504.06.984v1.404c0 .972.024 1.596.06 1.86.048.252.144.504.276.744h-1.104a2.4 2.4 0 01-.216-.768zm-.084-2.352c-.384.156-.96.288-1.728.396-.432.06-.732.132-.912.216a.907.907 0 00-.42.336.945.945 0 00-.144.504c0 .276.108.516.312.696.216.192.528.288.936.288.408 0 .768-.096 1.092-.264.312-.18.54-.42.696-.732.108-.24.168-.588.168-1.056v-.384zM181.746 134.78v-1.213h1.056v1.212h-1.056zm0 7.38v-6.229h1.056v6.228h-1.056zM184.412 142.16v-6.229h.948v.888c.456-.684 1.116-1.02 1.98-1.02.372 0 .72.06 1.032.204.312.132.552.312.708.528.156.216.264.48.324.78.048.192.06.528.06 1.02v3.828h-1.056v-3.78c0-.432-.036-.756-.12-.972a1.035 1.035 0 00-.432-.504 1.362 1.362 0 00-.732-.192c-.456 0-.84.144-1.164.432-.336.276-.492.816-.492 1.62v3.396h-1.056zM194.54 142.16v-8.593h1.164l4.512 6.744v-6.744h1.092v8.592h-1.164l-4.512-6.756v6.756h-1.092zM203.242 142.16v-8.593h3.804c.768 0 1.344.084 1.752.228.396.156.708.432.948.828.24.384.36.816.36 1.284a2.22 2.22 0 01-.588 1.548c-.396.42-1.008.684-1.836.792.3.144.528.288.684.432.336.3.648.684.948 1.14l1.488 2.34h-1.428l-1.128-1.788a17.69 17.69 0 00-.828-1.188c-.216-.264-.408-.456-.576-.564a1.313 1.313 0 00-.516-.228c-.132-.036-.336-.048-.636-.048h-1.32v3.816h-1.128zm1.128-4.8h2.448c.516 0 .924-.049 1.224-.157.288-.108.504-.288.66-.516a1.38 1.38 0 00.228-.78 1.27 1.27 0 00-.444-.996c-.288-.264-.756-.396-1.392-.396h-2.724v2.844zM211.944 142.16v-8.593h5.796v1.02h-4.656v2.652h4.032v1.02h-4.032v3.9h-1.14zM218.794 139.903l1.104-.084c.084.54.264.936.564 1.212.3.276.66.408 1.08.408.516 0 .948-.192 1.296-.576.348-.384.528-.888.528-1.524 0-.6-.168-1.08-.504-1.428-.348-.336-.78-.516-1.332-.516-.336 0-.648.072-.924.228a1.91 1.91 0 00-.636.6l-.996-.12.828-4.416h4.272v1.008h-3.42l-.468 2.304c.516-.36 1.056-.54 1.62-.54.756 0 1.392.264 1.908.78.516.528.768 1.188.768 2.004 0 .78-.228 1.452-.684 2.016-.54.696-1.296 1.044-2.256 1.044-.78 0-1.416-.216-1.908-.648-.492-.444-.78-1.02-.84-1.752zM231 141.151v1.008h-5.676c0-.252.036-.504.132-.732.144-.384.372-.768.684-1.14.324-.384.78-.816 1.38-1.308.936-.756 1.572-1.368 1.896-1.812.324-.456.492-.876.492-1.272 0-.42-.144-.768-.444-1.056-.3-.288-.696-.432-1.176-.432-.504 0-.912.156-1.212.456-.312.3-.456.732-.468 1.272l-1.08-.12c.072-.804.348-1.416.84-1.848.48-.42 1.128-.636 1.944-.636.828 0 1.476.228 1.956.684.48.456.72 1.032.72 1.704 0 .348-.06.684-.204 1.008-.144.336-.372.684-.696 1.056-.336.36-.876.864-1.632 1.512-.636.528-1.044.888-1.224 1.08-.18.192-.324.384-.444.576H231zM233.762 137.503c-.444-.168-.768-.396-.972-.684-.216-.3-.324-.66-.324-1.068 0-.624.228-1.152.672-1.584.456-.42 1.056-.636 1.8-.636s1.356.216 1.812.66c.456.432.684.96.684 1.584 0 .396-.108.744-.312 1.044-.216.3-.528.516-.96.684.528.168.936.444 1.212.828.276.384.408.84.408 1.368 0 .744-.252 1.356-.78 1.86-.516.492-1.2.744-2.052.744-.84 0-1.524-.252-2.052-.756-.516-.492-.768-1.128-.768-1.872 0-.564.132-1.032.42-1.404.288-.372.684-.636 1.212-.768zm-.216-1.788c0 .408.132.732.396.996.264.252.6.384 1.02.384.408 0 .732-.132.996-.384s.396-.564.396-.936c0-.384-.144-.72-.408-.984a1.396 1.396 0 00-.996-.384c-.408 0-.732.12-1.008.384a1.235 1.235 0 00-.396.924zm-.336 3.96c0 .312.072.6.216.876.144.288.348.504.636.66.276.156.576.228.9.228.504 0 .924-.168 1.248-.492.336-.324.492-.732.492-1.236s-.168-.924-.504-1.26c-.336-.324-.756-.492-1.272-.492-.492 0-.9.168-1.224.492-.336.324-.492.732-.492 1.224zM242.187 142.16v-2.053h-3.72v-.972l3.912-5.568h.864v5.568h1.164v.972h-1.164v2.052h-1.056zm0-3.025v-3.876l-2.688 3.876h2.688zM245.489 137.923c0-1.02.096-1.836.312-2.448.204-.624.516-1.104.924-1.44.42-.336.936-.504 1.56-.504.456 0 .864.096 1.212.276.348.192.636.456.864.804.228.348.396.78.528 1.284s.192 1.176.192 2.028c0 1.008-.096 1.824-.312 2.436-.204.624-.516 1.104-.924 1.44-.408.336-.936.504-1.56.504-.828 0-1.476-.3-1.956-.888-.564-.72-.84-1.884-.84-3.492zm1.08 0c0 1.404.168 2.352.492 2.82.336.456.744.696 1.224.696s.888-.24 1.224-.708c.324-.468.492-1.404.492-2.808 0-1.416-.168-2.352-.492-2.82-.336-.468-.744-.696-1.236-.696-.48 0-.876.204-1.164.612-.36.528-.54 1.488-.54 2.904z" fill="#fff" fill-rule="nonzero"/></svg>