<?xml version="1.0" encoding="UTF-8" standalone="no"?>
<svg
   xmlns:serif="http://www.serif.com/"
   xmlns:dc="http://purl.org/dc/elements/1.1/"
   xmlns:cc="http://creativecommons.org/ns#"
   xmlns:rdf="http://www.w3.org/1999/02/22-rdf-syntax-ns#"
   xmlns:svg="http://www.w3.org/2000/svg"
   xmlns="http://www.w3.org/2000/svg"
   xmlns:sodipodi="http://sodipodi.sourceforge.net/DTD/sodipodi-0.dtd"
   xmlns:inkscape="http://www.inkscape.org/namespaces/inkscape"
   inkscape:version="1.0beta2 (2b71d25, 2019-12-03)"
   sodipodi:docname="boardhd.svg"
   id="svg2460"
   style="clip-rule:evenodd;fill-rule:evenodd;stroke-linecap:square;stroke-miterlimit:10"
   xml:space="preserve"
   version="1.1"
   viewBox="0 0 658.79999 256.78723"
   height="256.78723"
   width="658.79999"><metadata
   id="metadata2466"><rdf:RDF><cc:Work
       rdf:about=""><dc:format>image/svg+xml</dc:format><dc:type
         rdf:resource="http://purl.org/dc/dcmitype/StillImage" /><dc:title></dc:title></cc:Work></rdf:RDF></metadata><defs
   id="defs2464" /><sodipodi:namedview
   inkscape:current-layer="svg2460"
   inkscape:window-maximized="0"
   inkscape:window-y="0"
   inkscape:window-x="0"
   inkscape:cy="128.39362"
   inkscape:cx="329.39999"
   inkscape:zoom="1.7076503"
   fit-margin-bottom="0"
   fit-margin-right="0"
   fit-margin-left="0"
   fit-margin-top="0"
   showgrid="false"
   id="namedview2462"
   inkscape:window-height="800"
   inkscape:window-width="1280"
   inkscape:pageshadow="2"
   inkscape:pageopacity="0"
   guidetolerance="10"
   gridtolerance="10"
   objecttolerance="10"
   borderopacity="1"
   inkscape:document-rotation="0"
   bordercolor="#666666"
   pagecolor="#ffffff" />
    <g
   id="g1267"
   transform="matrix(0,2.6404009,-2.6404009,0,617.22011,238.409)">
        <path
   inkscape:connector-curvature="0"
   id="path1265"
   style="fill:#007482;fill-rule:nonzero"
   d="m 0,231.34 c -2.49,0 -4.511,-2.02 -4.511,-4.52 0,-2.49 2.021,-4.51 4.511,-4.51 2.489,0 4.52,2.02 4.52,4.51 0,2.5 -2.031,4.52 -4.52,4.52 m -83.36,0 c -2.491,0 -4.51,-2.02 -4.51,-4.52 0,-2.49 2.019,-4.51 4.51,-4.51 2.5,0 4.519,2.02 4.519,4.51 0,2.5 -2.019,4.52 -4.519,4.52 m 3.059,-211.81 c 0,1.57 -1.269,2.84 -2.84,2.84 -1.569,0 -2.839,-1.27 -2.839,-2.84 0,-1.57 1.27,-2.84 2.839,-2.84 1.571,0 2.84,1.27 2.84,2.84 m 0,13.73 c 0,1.57 -1.269,2.84 -2.84,2.84 -1.569,0 -2.839,-1.27 -2.839,-2.84 0,-1.56 1.27,-2.83 2.839,-2.83 1.571,0 2.84,1.27 2.84,2.83 m 0,13.74 c 0,1.57 -1.269,2.84 -2.84,2.84 -1.569,0 -2.839,-1.27 -2.839,-2.84 0,-1.57 1.27,-2.84 2.839,-2.84 1.571,0 2.84,1.27 2.84,2.84 m 0,13.74 c 0,1.56 -1.269,2.84 -2.84,2.84 -1.569,0 -2.839,-1.28 -2.839,-2.84 0,-1.57 1.27,-2.84 2.839,-2.84 1.571,0 2.84,1.27 2.84,2.84 m 0,13.73 c 0,1.57 -1.269,2.84 -2.84,2.84 -1.569,0 -2.839,-1.27 -2.839,-2.84 0,-1.57 1.27,-2.84 2.839,-2.84 1.571,0 2.84,1.27 2.84,2.84 m 0,13.74 c 0,1.57 -1.269,2.84 -2.84,2.84 -1.569,0 -2.839,-1.27 -2.839,-2.84 0,-1.57 1.27,-2.84 2.839,-2.84 1.571,0 2.84,1.27 2.84,2.84 m 0,13.73 c 0,1.57 -1.269,2.84 -2.84,2.84 -1.569,0 -2.839,-1.27 -2.839,-2.84 0,-1.56 1.27,-2.84 2.839,-2.84 1.571,0 2.84,1.28 2.84,2.84 m 0,13.74 c 0,1.57 -1.269,2.84 -2.84,2.84 -1.569,0 -2.839,-1.27 -2.839,-2.84 0,-1.57 1.27,-2.84 2.839,-2.84 1.571,0 2.84,1.27 2.84,2.84 m 0,13.74 c 0,1.56 -1.269,2.83 -2.84,2.83 -1.569,0 -2.839,-1.27 -2.839,-2.83 0,-1.57 1.27,-2.84 2.839,-2.84 1.571,0 2.84,1.27 2.84,2.84 m 0,13.73 c 0,1.57 -1.269,2.84 -2.84,2.84 -1.569,0 -2.839,-1.27 -2.839,-2.84 0,-1.57 1.27,-2.84 2.839,-2.84 1.571,0 2.84,1.27 2.84,2.84 m 0,13.74 c 0,1.56 -1.269,2.84 -2.84,2.84 -1.569,0 -2.839,-1.28 -2.839,-2.84 0,-1.57 1.27,-2.84 2.839,-2.84 1.571,0 2.84,1.27 2.84,2.84 m 0,13.73 c 0,1.57 -1.269,2.84 -2.84,2.84 -1.569,0 -2.839,-1.27 -2.839,-2.84 0,-1.57 1.27,-2.84 2.839,-2.84 1.571,0 2.84,1.27 2.84,2.84 m 0,13.74 c 0,1.57 -1.269,2.84 -2.84,2.84 -1.569,0 -2.839,-1.27 -2.839,-2.84 0,-1.57 1.27,-2.84 2.839,-2.84 1.571,0 2.84,1.27 2.84,2.84 m 0,13.73 c 0,1.57 -1.269,2.84 -2.84,2.84 -1.569,0 -2.839,-1.27 -2.839,-2.84 0,-1.56 1.27,-2.84 2.839,-2.84 1.571,0 2.84,1.28 2.84,2.84 m 0,13.74 c 0,1.57 -1.269,2.84 -2.84,2.84 -1.569,0 -2.839,-1.27 -2.839,-2.84 0,-1.57 1.27,-2.84 2.839,-2.84 1.571,0 2.84,1.27 2.84,2.84 M -83.36,0.03 c 2.5,0 4.519,2.02 4.519,4.52 0,2.49 -2.019,4.51 -4.519,4.51 -2.491,0 -4.51,-2.02 -4.51,-4.51 0,-2.5 2.019,-4.52 4.51,-4.52 m 43.96,61.34 -0.401,0.14 -0.389,0.12 -0.42,0.07 -0.43,0.04 -0.4,0.02 -0.43,-0.04 -0.42,-0.06 -0.41,-0.09 -0.401,-0.12 -0.389,-0.15 -0.37,-0.2 -0.361,-0.21 -0.66,-0.54 -0.29,-0.29 -0.269,-0.33 -0.231,-0.34 -0.21,-0.37 -0.199,-0.37 -0.15,-0.4 -0.121,-0.41 -0.07,-0.4 -0.059,-0.41 -0.02,-0.42 0.02,-0.43 0.059,-0.42 0.07,-0.41 0.121,-0.4 0.15,-0.39 0.199,-0.39 0.21,-0.36 0.231,-0.33 0.269,-0.33 0.29,-0.29 0.33,-0.29 0.33,-0.25 0.361,-0.21 0.37,-0.19 0.389,-0.16 0.401,-0.13 0.41,-0.08 0.42,-0.08 0.43,-0.02 h 0.4 l 0.43,0.06 0.42,0.08 0.389,0.09 0.401,0.16 0.389,0.17 0.351,0.2 0.359,0.25 0.33,0.25 0.311,0.29 0.269,0.31 0.271,0.32 0.21,0.37 0.2,0.37 0.17,0.38 0.14,0.41 0.089,0.4 0.081,0.41 0.04,0.42 v 0.43 l -0.04,0.4 -0.081,0.43 -0.089,0.4 -0.14,0.41 -0.17,0.37 -0.2,0.38 -0.21,0.35 -0.271,0.35 -0.269,0.31 -0.311,0.29 -0.33,0.25 -0.359,0.23 -0.351,0.21 z M -3.03,19.52 c 0,-1.57 1.269,-2.84 2.84,-2.84 1.559,0 2.839,1.27 2.839,2.84 0,1.57 -1.28,2.84 -2.839,2.84 -1.571,0 -2.84,-1.27 -2.84,-2.84 m 0,13.74 c 0,-1.57 1.269,-2.84 2.84,-2.84 1.559,0 2.839,1.27 2.839,2.84 0,1.57 -1.28,2.84 -2.839,2.84 -1.571,0 -2.84,-1.27 -2.84,-2.84 m 0,13.73 c 0,-1.57 1.269,-2.84 2.84,-2.84 1.559,0 2.839,1.27 2.839,2.84 0,1.57 -1.28,2.84 -2.839,2.84 -1.571,0 -2.84,-1.27 -2.84,-2.84 m 0,13.74 c 0,-1.57 1.269,-2.84 2.84,-2.84 1.559,0 2.839,1.27 2.839,2.84 0,1.57 -1.28,2.84 -2.839,2.84 -1.571,0 -2.84,-1.27 -2.84,-2.84 m 0,13.73 c 0,-1.56 1.269,-2.84 2.84,-2.84 1.559,0 2.839,1.28 2.839,2.84 0,1.57 -1.28,2.84 -2.839,2.84 -1.571,0 -2.84,-1.27 -2.84,-2.84 m 0,13.74 c 0,-1.57 1.269,-2.84 2.84,-2.84 1.559,0 2.839,1.27 2.839,2.84 0,1.57 -1.28,2.84 -2.839,2.84 -1.571,0 -2.84,-1.27 -2.84,-2.84 m 0,13.74 c 0,-1.57 1.269,-2.84 2.84,-2.84 1.559,0 2.839,1.27 2.839,2.84 0,1.56 -1.28,2.84 -2.839,2.84 -1.571,0 -2.84,-1.28 -2.84,-2.84 m 0,13.73 c 0,-1.57 1.269,-2.84 2.84,-2.84 1.559,0 2.839,1.27 2.839,2.84 0,1.57 -1.28,2.84 -2.839,2.84 -1.571,0 -2.84,-1.27 -2.84,-2.84 m 0,13.74 c 0,-1.57 1.269,-2.84 2.84,-2.84 1.559,0 2.839,1.27 2.839,2.84 0,1.57 -1.28,2.84 -2.839,2.84 -1.571,0 -2.84,-1.27 -2.84,-2.84 m 0,13.73 c 0,-1.57 1.269,-2.84 2.84,-2.84 1.559,0 2.839,1.27 2.839,2.84 0,1.57 -1.28,2.84 -2.839,2.84 -1.571,0 -2.84,-1.27 -2.84,-2.84 m 0,13.74 c 0,-1.57 1.269,-2.84 2.84,-2.84 1.559,0 2.839,1.27 2.839,2.84 0,1.57 -1.28,2.84 -2.839,2.84 -1.571,0 -2.84,-1.27 -2.84,-2.84 m 0,13.73 c 0,-1.56 1.269,-2.84 2.84,-2.84 1.559,0 2.839,1.28 2.839,2.84 0,1.57 -1.28,2.84 -2.839,2.84 -1.571,0 -2.84,-1.27 -2.84,-2.84 m 0,13.74 c 0,-1.57 1.269,-2.84 2.84,-2.84 1.559,0 2.839,1.27 2.839,2.84 0,1.57 -1.28,2.84 -2.839,2.84 -1.571,0 -2.84,-1.27 -2.84,-2.84 m 0,13.74 c 0,-1.57 1.269,-2.84 2.84,-2.84 1.559,0 2.839,1.27 2.839,2.84 0,1.56 -1.28,2.84 -2.839,2.84 -1.571,0 -2.84,-1.28 -2.84,-2.84 m 0,13.73 c 0,-1.57 1.269,-2.84 2.84,-2.84 1.559,0 2.839,1.27 2.839,2.84 0,1.57 -1.28,2.84 -2.839,2.84 -1.571,0 -2.84,-1.27 -2.84,-2.84 M 0,0.03 c 2.489,0 4.52,2.02 4.52,4.52 C 4.52,7.04 2.489,9.06 0,9.06 -2.49,9.06 -4.511,7.04 -4.511,4.55 -4.511,2.05 -2.49,0.03 0,0.03 M -90.29,233.76 H 6.96 V -2.42 h -97.25 z" />
    </g>
    <g
   id="g1271"
   transform="matrix(0,2.6404009,-2.6404009,0,575.71304,152.7777)">
        <path
   inkscape:connector-curvature="0"
   id="path1269"
   style="fill:#b7babb;fill-rule:nonzero"
   d="m 0,8.004 v -8 c 0,-0.197 -0.158,-0.357 -0.355,-0.357 h -2.148 c -0.198,0 -0.358,0.16 -0.358,0.357 v 8 c 0,0.197 0.16,0.353 0.358,0.353 h 2.148 C -0.158,8.357 0,8.201 0,8.004" />
    </g>
    <g
   id="g1275"
   transform="matrix(0,2.6404009,-2.6404009,0,575.71304,141.92249)">
        <path
   inkscape:connector-curvature="0"
   id="path1273"
   style="fill:#b7babb;fill-rule:nonzero"
   d="m 0,8.004 v -8 c 0,-0.197 -0.159,-0.357 -0.354,-0.357 h -2.147 c -0.197,0 -0.361,0.16 -0.361,0.357 v 8 c 0,0.197 0.164,0.353 0.361,0.353 h 2.147 C -0.159,8.357 0,8.201 0,8.004" />
    </g>
    <g
   id="g1279"
   transform="matrix(0,2.6404009,-2.6404009,0,575.71304,131.0863)">
        <path
   inkscape:connector-curvature="0"
   id="path1277"
   style="fill:#b7babb;fill-rule:nonzero"
   d="m 0,8.004 v -8 c 0,-0.197 -0.162,-0.357 -0.357,-0.357 h -2.151 c -0.197,0 -0.353,0.16 -0.353,0.357 v 8 c 0,0.197 0.156,0.353 0.353,0.353 h 2.151 C -0.162,8.357 0,8.201 0,8.004" />
    </g>
    <g
   id="g1283"
   transform="matrix(0,2.6404009,-2.6404009,0,575.71304,120.22475)">
        <path
   inkscape:connector-curvature="0"
   id="path1281"
   style="fill:#b7babb;fill-rule:nonzero"
   d="m 0,8.004 v -8 c 0,-0.197 -0.156,-0.357 -0.354,-0.357 h -2.148 c -0.197,0 -0.357,0.16 -0.357,0.357 v 8 c 0,0.197 0.16,0.353 0.357,0.353 h 2.148 C -0.156,8.357 0,8.201 0,8.004" />
    </g>
    <g
   id="g1287"
   transform="matrix(0,2.6404009,-2.6404009,0,575.71304,109.38222)">
        <path
   inkscape:connector-curvature="0"
   id="path1285"
   style="fill:#b7babb;fill-rule:nonzero"
   d="m 0,8.004 v -8 c 0,-0.197 -0.16,-0.357 -0.357,-0.357 h -2.149 c -0.201,0 -0.357,0.16 -0.357,0.357 v 8 c 0,0.197 0.156,0.353 0.357,0.353 h 2.149 C -0.16,8.357 0,8.201 0,8.004" />
    </g>
    <g
   id="g1291"
   transform="matrix(0,-2.6404009,-2.6404009,0,2114.453,1705.5667)">
        <rect
   id="rect1289"
   style="fill:#939798"
   height="35.255001"
   width="46.008999"
   y="551.29999"
   x="574.31897" />
    </g>
    <g
   id="g1295"
   transform="matrix(0,2.6404009,-2.6404009,0,565.71332,67.653354)">
        <path
   inkscape:connector-curvature="0"
   id="path1293"
   style="fill:#8b8f91;fill-rule:nonzero"
   d="M 0,-3.526 V 0 h 46.009 v -3.526 h -0.126 z" />
    </g>
    <g
   id="g1299"
   transform="matrix(0,2.6404009,-2.6404009,0,584.3313,67.653354)">
        <path
   inkscape:connector-curvature="0"
   id="path1297"
   style="fill:#8b8f91;fill-rule:nonzero"
   d="M 0,-3.525 V 0 h 46.009 v -3.525 h -0.126 z" />
    </g>
    <g
   id="g1303"
   transform="matrix(0,2.6404009,-2.6404009,0,602.94928,67.653354)">
        <path
   inkscape:connector-curvature="0"
   id="path1301"
   style="fill:#8b8f91;fill-rule:nonzero"
   d="M 0,-3.525 V 0 h 46.009 v -3.525 h -0.126 z" />
    </g>
    <g
   id="g1307"
   transform="matrix(0,2.6404009,-2.6404009,0,621.56726,67.653354)">
        <path
   inkscape:connector-curvature="0"
   id="path1305"
   style="fill:#8b8f91;fill-rule:nonzero"
   d="M 0,-3.526 V 0 h 46.009 v -3.526 h -0.126 z" />
    </g>
    <g
   id="g1311"
   transform="matrix(0,2.6404009,-2.6404009,0,640.18526,67.653354)">
        <path
   inkscape:connector-curvature="0"
   id="path1309"
   style="fill:#8b8f91;fill-rule:nonzero"
   d="M 0,-3.525 V 0 h 46.009 v -3.525 h -0.126 z" />
    </g>
    <g
   id="g1315"
   transform="matrix(-2.6404009,4.0115473e-4,4.0115473e-4,2.6404009,399.19076,127.42987)">
        <rect
   id="rect1313"
   style="fill:#8badb4"
   height="1.926"
   width="19.752001"
   y="-10.839"
   x="-8.9119997" />
    </g>
    <g
   id="g1319"
   transform="matrix(0.00146567,2.6404009,2.6404009,-0.00146567,409.2285,109.79412)">
        <rect
   id="rect1317"
   style="fill:#8badb4"
   height="1.927"
   width="3.605"
   y="0.001"
   x="-0.001" />
    </g>
    <g
   id="g1323"
   transform="matrix(0.00146567,2.6404009,2.6404009,-0.00146567,399.20344,109.79412)">
        <rect
   id="rect1321"
   style="fill:#8badb4"
   height="1.926"
   width="3.605"
   y="0.001"
   x="-0.001" />
    </g>
    <g
   id="g1327"
   transform="matrix(0.0021985,2.6404009,2.6404009,-0.0021985,389.17837,109.79412)">
        <rect
   id="rect1325"
   style="fill:#8badb4"
   height="1.926"
   width="3.6059999"
   y="0.0020000001"
   x="-0.001" />
    </g>
    <g
   id="g1331"
   transform="matrix(0.00146567,2.6404009,2.6404009,-0.00146567,379.15964,109.79412)">
        <rect
   id="rect1329"
   style="fill:#8badb4"
   height="1.927"
   width="3.605"
   y="0.001"
   x="-0.001" />
    </g>
    <g
   id="g1335"
   transform="matrix(-2.6404009,4.0115473e-4,4.0115473e-4,2.6404009,399.19076,117.88008)">
        <rect
   id="rect1333"
   style="fill:#8badb4"
   height="1.926"
   width="19.752001"
   y="-10.839"
   x="-8.9119997" />
    </g>
    <g
   id="g1339"
   transform="matrix(-2.6404009,4.0115473e-4,4.0115473e-4,2.6404009,399.19076,108.33028)">
        <rect
   id="rect1337"
   style="fill:#8badb4"
   height="1.926"
   width="19.752001"
   y="-10.839"
   x="-8.9119997" />
    </g>
    <g
   id="g1343"
   transform="matrix(-2.6404009,4.0115473e-4,4.0115473e-4,2.6404009,399.19076,98.780488)">
        <rect
   id="rect1341"
   style="fill:#8badb4"
   height="1.926"
   width="19.752001"
   y="-10.839"
   x="-8.9119997" />
    </g>
    <g
   id="g1347"
   transform="matrix(-2.6404009,4.0115473e-4,4.0115473e-4,2.6404009,399.19076,89.224357)">
        <rect
   id="rect1345"
   style="fill:#8badb4"
   height="1.926"
   width="19.752001"
   y="-10.839"
   x="-8.9119997" />
    </g>
    <g
   id="g1351"
   transform="matrix(-2.6404009,4.0115473e-4,4.0115473e-4,2.6404009,399.19076,79.674562)">
        <rect
   id="rect1349"
   style="fill:#8badb4"
   height="1.926"
   width="19.752001"
   y="-10.839"
   x="-8.9119997" />
    </g>
    <g
   id="g1355"
   transform="matrix(0,2.6404009,-2.6404009,0,417.70101,114.54684)">
        <path
   inkscape:connector-curvature="0"
   id="path1353"
   style="fill:#171e21;fill-rule:nonzero"
   d="M 0,15.877 V 14.002 H -0.001 L -0.005,0.044 -2.479,0.038 V 0.04 L -27.307,0 v 1.875 h 10e-4 l 0.004,12.086 h -0.004 l 0.005,1.87 z" />
    </g>
    <g
   id="g1359"
   transform="matrix(0,-2.6404009,-2.6404009,0,2080.5693,1538.2203)">
        <rect
   id="rect1357"
   style="fill:#8b8f91"
   height="12.202"
   width="4.8590002"
   y="556.40997"
   x="563.20502" />
    </g>
    <g
   transform="matrix(0,2.6404009,-2.6404009,0,605.23692,44.719907)"
   id="LED">
        <path
   inkscape:connector-curvature="0"
   id="path1361"
   style="fill:#eaa900;fill-rule:nonzero"
   d="M 0,7.504 C -2.073,7.504 -3.752,5.822 -3.752,3.752 -3.752,1.679 -2.073,0 0,0 2.071,0 3.752,1.679 3.752,3.752 3.752,5.822 2.071,7.504 0,7.504" />
    </g>
    <g
   id="g1366"
   transform="matrix(0,-2.6404009,-2.6404009,0,2080.5693,1872.9067)">
        <rect
   id="rect1364"
   style="fill:#8b8f91"
   height="12.202"
   width="4.8600001"
   y="556.40997"
   x="626.58197" />
    </g>
    <g
   transform="matrix(0,2.6404009,-2.6404009,0,605.23692,212.06627)"
   id="PWR_LED">
        <path
   inkscape:connector-curvature="0"
   id="path1368"
   style="fill:#1da086;fill-rule:nonzero"
   d="M 0,7.504 C -2.073,7.504 -3.752,5.822 -3.752,3.752 -3.752,1.679 -2.073,0 0,0 2.07,0 3.752,1.679 3.752,3.752 3.752,5.822 2.07,7.504 0,7.504" />
    </g>
    <g
   id="g1373"
   transform="matrix(0,-2.6404009,-2.6404009,0,1753.0246,1829.3211)">
        <rect
   id="rect1371"
   style="fill:#8b8f91"
   height="4.3299999"
   width="8.7349997"
   y="498.32101"
   x="616.39099" />
    </g>
    <g
   id="g1377"
   transform="matrix(0,-2.6404009,-2.6404009,0,1694.6486,1829.3211)">
        <rect
   id="rect1375"
   style="fill:#8b8f91"
   height="4.3299999"
   width="8.7349997"
   y="487.26599"
   x="616.39099" />
    </g>
    <g
   id="g1381"
   transform="matrix(0,2.6404009,-2.6404009,0,403.61396,181.35104)">
        <path
   inkscape:connector-curvature="0"
   id="path1379"
   style="fill:#897866;fill-rule:nonzero"
   d="m 0,-1.215 c 0,0.927 0.76,1.687 1.687,1.687 h 3.377 c 0.931,0 1.691,-0.76 1.691,-1.687 V -1.687 H 0 Z" />
    </g>
    <g
   id="g1385"
   transform="matrix(0,2.6404009,-2.6404009,0,430.29255,199.18957)">
        <path
   inkscape:connector-curvature="0"
   id="path1383"
   style="fill:#897866;fill-rule:nonzero"
   d="m 0,1.218 c 0,-0.927 -0.76,-1.69 -1.69,-1.69 h -3.377 c -0.928,0 -1.688,0.763 -1.688,1.69 V 1.69 H 0 Z" />
    </g>
    <g
   id="g1389"
   transform="matrix(0,2.6404009,-2.6404009,0,1723.8366,-1448.7805)">
        <rect
   id="rect1387"
   height="6.7259998"
   width="6.7550001"
   y="491.59601"
   x="617.38098" />
    </g>
    <g
   id="g1393"
   transform="matrix(0,-2.6404009,-2.6404009,0,1961.9098,1637.7549)">
        <rect
   id="rect1391"
   style="fill:#8b8f91"
   height="4.3299999"
   width="8.7349997"
   y="537.87598"
   x="580.11499" />
    </g>
    <g
   id="g1397"
   transform="matrix(0,-2.6404009,-2.6404009,0,1903.5274,1637.7549)">
        <rect
   id="rect1395"
   style="fill:#8b8f91"
   height="4.3299999"
   width="8.7349997"
   y="526.82098"
   x="580.11499" />
    </g>
    <g
   id="g1401"
   transform="matrix(0,2.6404009,-2.6404009,0,508.05335,85.567932)">
        <path
   inkscape:connector-curvature="0"
   id="path1399"
   style="fill:#897866;fill-rule:nonzero"
   d="m 0,-1.215 c 0,0.927 0.76,1.687 1.687,1.687 h 3.377 c 0.931,0 1.691,-0.76 1.691,-1.687 V -1.687 H 0 Z" />
    </g>
    <g
   id="g1405"
   transform="matrix(0,2.6404009,-2.6404009,0,534.73194,103.40647)">
        <path
   inkscape:connector-curvature="0"
   id="path1403"
   style="fill:#897866;fill-rule:nonzero"
   d="m 0,1.218 c 0,-0.927 -0.76,-1.69 -1.69,-1.69 h -3.377 c -0.928,0 -1.688,0.763 -1.688,1.69 V 1.69 H 0 Z" />
    </g>
    <g
   id="g1409"
   transform="matrix(0,2.6404009,-2.6404009,0,1932.7217,-1448.7805)">
        <rect
   id="rect1407"
   height="6.7259998"
   width="6.7550001"
   y="531.151"
   x="581.10498" />
    </g>
    <g
   id="g1413"
   transform="matrix(0,-2.6404009,-2.6404009,0,1925.9475,1719.2608)">
        <rect
   id="rect1411"
   style="fill:#007482"
   height="12.821"
   width="8.448"
   y="526.82098"
   x="595.69299" />
    </g>
    <g
   id="g1417"
   transform="matrix(0,-2.6404009,-2.6404009,0,1925.9475,1719.2608)">
        <rect
   id="rect1415"
   height="12.821"
   width="8.448"
   y="526.82098"
   x="595.69299" />
    </g>
    <g
   id="g1421"
   transform="matrix(0,-2.6404009,-2.6404009,0,1948.1649,1687.6014)">
        <rect
   id="rect1419"
   style="fill:#8b8f91"
   height="2.2149999"
   width="6.1059999"
   y="536.33099"
   x="590.86902" />
    </g>
    <g
   id="g1425"
   transform="matrix(0,-2.6404009,-2.6404009,0,1903.7302,1687.6014)">
        <rect
   id="rect1423"
   style="fill:#8b8f91"
   height="2.2149999"
   width="6.1059999"
   y="527.91699"
   x="590.86902" />
    </g>
    <g
   id="g1429"
   transform="matrix(0,-2.6404009,-2.6404009,0,1948.1649,1745.5465)">
        <rect
   id="rect1427"
   style="fill:#8b8f91"
   height="2.2149999"
   width="6.1100001"
   y="536.33099"
   x="601.84003" />
    </g>
    <g
   id="g1433"
   transform="matrix(0,-2.6404009,-2.6404009,0,1903.7302,1745.5465)">
        <rect
   id="rect1431"
   style="fill:#8b8f91"
   height="2.2149999"
   width="6.1100001"
   y="527.91699"
   x="601.84003" />
    </g>
    <g
   id="g1437"
   transform="matrix(0,2.6404009,-2.6404009,0,373.51975,178.95567)">
        <path
   inkscape:connector-curvature="0"
   id="path1435"
   style="fill:#8b8f91;fill-rule:nonzero"
   d="m 0,-3.495 h -0.002 v 3.562 h 0.015 c 0.037,0.938 0.796,1.69 1.743,1.69 0.946,0 1.707,-0.752 1.744,-1.69 h 0.013 v -1.71 -0.14 -1.712 C 3.513,-4.466 2.726,-5.252 1.756,-5.252 0.786,-5.252 0,-4.466 0,-3.495" />
    </g>
    <g
   id="g1441"
   transform="matrix(0,-2.6404009,-2.6404009,0,1646.0822,1815.9628)">
        <rect
   id="rect1439"
   style="fill:#897866"
   height="2.599"
   width="3.5150001"
   y="478.935"
   x="616.47101" />
    </g>
    <g
   id="g1445"
   transform="matrix(0,-2.6404009,-2.6404009,0,1646.0822,1815.9628)">
        <rect
   id="rect1443"
   style="fill:#897866"
   height="2.599"
   width="3.5150001"
   y="478.935"
   x="616.47101" />
    </g>
    <g
   id="g1449"
   transform="matrix(0,-2.6404009,-2.6404009,0,1646.0822,1815.9628)">
        <rect
   id="rect1447"
   style="fill:#897866"
   height="2.599"
   width="3.5150001"
   y="478.935"
   x="616.47101" />
    </g>
    <g
   id="g1453"
   transform="matrix(0,-2.6404009,-2.6404009,0,1646.0822,1815.9628)">
        <rect
   id="rect1451"
   style="fill:#897866"
   height="2.599"
   width="3.5150001"
   y="478.935"
   x="616.47101" />
    </g>
    <g
   id="g1457"
   transform="matrix(0,2.6404009,-2.6404009,0,357.17674,189.13916)">
        <path
   inkscape:connector-curvature="0"
   id="path1455"
   style="fill:#8b8f91;fill-rule:nonzero"
   d="m 0,-3.495 h -0.002 v 3.562 h 0.015 c 0.037,0.937 0.796,1.69 1.743,1.69 0.946,0 1.707,-0.753 1.744,-1.69 h 0.013 v -1.71 -0.14 -1.712 C 3.513,-4.466 2.726,-5.252 1.756,-5.252 0.786,-5.252 0,-4.466 0,-3.495" />
    </g>
    <g
   id="g1461"
   transform="matrix(0,-2.6404009,-2.6404009,0,1613.3961,1836.3298)">
        <rect
   id="rect1459"
   style="fill:#897866"
   height="2.599"
   width="3.5150001"
   y="472.746"
   x="620.328" />
    </g>
    <g
   id="g1465"
   transform="matrix(0,-2.6404009,-2.6404009,0,1613.3961,1836.3298)">
        <rect
   id="rect1463"
   style="fill:#897866"
   height="2.599"
   width="3.5150001"
   y="472.746"
   x="620.328" />
    </g>
    <g
   id="g1469"
   transform="matrix(0,-2.6404009,-2.6404009,0,1613.3961,1836.3298)">
        <rect
   id="rect1467"
   style="fill:#897866"
   height="2.599"
   width="3.5150001"
   y="472.746"
   x="620.328" />
    </g>
    <g
   id="g1473"
   transform="matrix(0,-2.6404009,-2.6404009,0,1613.3961,1836.3298)">
        <rect
   id="rect1471"
   style="fill:#897866"
   height="2.599"
   width="3.5150001"
   y="472.746"
   x="620.328" />
    </g>
    <g
   id="g1477"
   transform="matrix(0,2.6404009,-2.6404009,0,329.05966,208.83442)">
        <path
   inkscape:connector-curvature="0"
   id="path1475"
   style="fill:#8b8f91;fill-rule:nonzero"
   d="m 0,-3.495 h -0.001 v 3.562 h 0.014 c 0.037,0.938 0.797,1.69 1.743,1.69 0.947,0 1.708,-0.752 1.744,-1.69 h 0.013 v -1.71 -0.14 -1.712 C 3.513,-4.466 2.726,-5.252 1.756,-5.252 0.786,-5.252 0,-4.466 0,-3.495" />
    </g>
    <g
   id="g1481"
   transform="matrix(0,-2.6404009,-2.6404009,0,1557.162,1875.7203)">
        <rect
   id="rect1479"
   style="fill:#897866"
   height="2.599"
   width="3.5139999"
   y="462.09698"
   x="627.78802" />
    </g>
    <g
   id="g1485"
   transform="matrix(0,-2.6404009,-2.6404009,0,1557.162,1875.7203)">
        <rect
   id="rect1483"
   style="fill:#897866"
   height="2.599"
   width="3.5139999"
   y="462.09698"
   x="627.78802" />
    </g>
    <g
   id="g1489"
   transform="matrix(0,-2.6404009,-2.6404009,0,1557.162,1875.7203)">
        <rect
   id="rect1487"
   style="fill:#897866"
   height="2.599"
   width="3.5139999"
   y="462.09698"
   x="627.78802" />
    </g>
    <g
   id="g1493"
   transform="matrix(0,-2.6404009,-2.6404009,0,1557.162,1875.7203)">
        <rect
   id="rect1491"
   style="fill:#897866"
   height="2.599"
   width="3.5139999"
   y="462.09698"
   x="627.78802" />
    </g>
    <g
   id="g1497"
   transform="matrix(0,2.6404009,-2.6404009,0,376.84031,126.42863)">
        <path
   inkscape:connector-curvature="0"
   id="path1495"
   style="fill:#8b8f91;fill-rule:nonzero"
   d="m 0,-3.496 h -0.002 v 3.562 h 0.015 c 0.037,0.938 0.796,1.69 1.743,1.69 0.946,0 1.707,-0.752 1.744,-1.69 H 3.513 V -1.643 -1.784 -3.496 C 3.513,-4.467 2.726,-5.252 1.756,-5.252 0.786,-5.252 0,-4.467 0,-3.496" />
    </g>
    <g
   id="g1501"
   transform="matrix(0,-2.6404009,-2.6404009,0,1652.736,1710.9024)">
        <rect
   id="rect1499"
   style="fill:#897866"
   height="2.599"
   width="3.5150001"
   y="480.19501"
   x="596.57703" />
    </g>
    <g
   id="g1505"
   transform="matrix(0,-2.6404009,-2.6404009,0,1652.736,1710.9024)">
        <rect
   id="rect1503"
   style="fill:#897866"
   height="2.599"
   width="3.5150001"
   y="480.19501"
   x="596.57703" />
    </g>
    <g
   id="g1509"
   transform="matrix(0,-2.6404009,-2.6404009,0,1652.736,1710.9024)">
        <rect
   id="rect1507"
   style="fill:#897866"
   height="2.599"
   width="3.5150001"
   y="480.19501"
   x="596.57703" />
    </g>
    <g
   id="g1513"
   transform="matrix(0,-2.6404009,-2.6404009,0,1652.736,1710.9024)">
        <rect
   id="rect1511"
   style="fill:#897866"
   height="2.599"
   width="3.5150001"
   y="480.19501"
   x="596.57703" />
    </g>
    <g
   id="g1517"
   transform="matrix(0,2.6404009,-2.6404009,0,296.96931,208.83442)">
        <path
   inkscape:connector-curvature="0"
   id="path1515"
   style="fill:#8b8f91;fill-rule:nonzero"
   d="m 0,-3.495 h -0.001 v 3.562 h 0.014 c 0.037,0.938 0.797,1.69 1.743,1.69 0.947,0 1.708,-0.752 1.744,-1.69 H 3.513 V -1.642 -1.783 -3.495 C 3.513,-4.466 2.726,-5.252 1.756,-5.252 0.786,-5.252 0,-4.466 0,-3.495" />
    </g>
    <g
   id="g1521"
   transform="matrix(0,-2.6404009,-2.6404009,0,1492.9813,1875.7203)">
        <rect
   id="rect1519"
   style="fill:#897866"
   height="2.599"
   width="3.5139999"
   y="449.94299"
   x="627.78802" />
    </g>
    <g
   id="g1525"
   transform="matrix(0,-2.6404009,-2.6404009,0,1492.9813,1875.7203)">
        <rect
   id="rect1523"
   style="fill:#897866"
   height="2.599"
   width="3.5139999"
   y="449.94299"
   x="627.78802" />
    </g>
    <g
   id="g1529"
   transform="matrix(0,-2.6404009,-2.6404009,0,1492.9813,1875.7203)">
        <rect
   id="rect1527"
   style="fill:#897866"
   height="2.599"
   width="3.5139999"
   y="449.94299"
   x="627.78802" />
    </g>
    <g
   id="g1533"
   transform="matrix(0,-2.6404009,-2.6404009,0,1492.9813,1875.7203)">
        <rect
   id="rect1531"
   style="fill:#897866"
   height="2.599"
   width="3.5139999"
   y="449.94299"
   x="627.78802" />
    </g>
    <g
   id="g1537"
   transform="matrix(0,2.6404009,-2.6404009,0,540.59996,210.14617)">
        <path
   inkscape:connector-curvature="0"
   id="path1535"
   style="fill:#8b8f91;fill-rule:nonzero"
   d="m 0,-3.495 h -0.001 v 3.562 h 0.014 c 0.037,0.938 0.797,1.69 1.743,1.69 0.947,0 1.708,-0.752 1.745,-1.69 h 0.013 v -1.71 -0.14 -1.712 C 3.514,-4.466 2.726,-5.252 1.756,-5.252 0.786,-5.252 0,-4.466 0,-3.495" />
    </g>
    <g
   id="g1541"
   transform="matrix(0,-2.6404009,-2.6404009,0,1980.2426,1878.3438)">
        <rect
   id="rect1539"
   style="fill:#897866"
   height="2.599"
   width="3.5150001"
   y="542.21399"
   x="628.284" />
    </g>
    <g
   id="g1545"
   transform="matrix(0,-2.6404009,-2.6404009,0,1980.2426,1878.3438)">
        <rect
   id="rect1543"
   style="fill:#897866"
   height="2.599"
   width="3.5150001"
   y="542.21399"
   x="628.284" />
    </g>
    <g
   id="g1549"
   transform="matrix(0,-2.6404009,-2.6404009,0,1980.2426,1878.3438)">
        <rect
   id="rect1547"
   style="fill:#897866"
   height="2.599"
   width="3.5150001"
   y="542.21399"
   x="628.284" />
    </g>
    <g
   id="g1553"
   transform="matrix(0,-2.6404009,-2.6404009,0,1980.2426,1878.3438)">
        <rect
   id="rect1551"
   style="fill:#897866"
   height="2.599"
   width="3.5150001"
   y="542.21399"
   x="628.284" />
    </g>
    <g
   id="g1557"
   transform="matrix(0,2.6404009,-2.6404009,0,518.47764,70.409931)">
        <path
   inkscape:connector-curvature="0"
   id="path1555"
   style="fill:#8b8f91;fill-rule:nonzero"
   d="m 0,-3.495 h -0.001 v 3.562 h 0.014 c 0.037,0.937 0.797,1.69 1.743,1.69 0.947,0 1.708,-0.753 1.745,-1.69 h 0.013 v -1.71 -0.14 -1.712 C 3.514,-4.466 2.726,-5.252 1.756,-5.252 0.786,-5.252 0,-4.466 0,-3.495" />
    </g>
    <g
   id="g1561"
   transform="matrix(0,-2.6404009,-2.6404009,0,1936.0043,1598.8713)">
        <rect
   id="rect1559"
   style="fill:#897866"
   height="2.599"
   width="3.5150001"
   y="533.836"
   x="575.362" />
    </g>
    <g
   id="g1565"
   transform="matrix(0,-2.6404009,-2.6404009,0,1936.0043,1598.8713)">
        <rect
   id="rect1563"
   style="fill:#897866"
   height="2.599"
   width="3.5150001"
   y="533.836"
   x="575.362" />
    </g>
    <g
   id="g1569"
   transform="matrix(0,-2.6404009,-2.6404009,0,1936.0043,1598.8713)">
        <rect
   id="rect1567"
   style="fill:#897866"
   height="2.599"
   width="3.5150001"
   y="533.836"
   x="575.362" />
    </g>
    <g
   id="g1573"
   transform="matrix(0,-2.6404009,-2.6404009,0,1936.0043,1598.8713)">
        <rect
   id="rect1571"
   style="fill:#897866"
   height="2.599"
   width="3.5150001"
   y="533.836"
   x="575.362" />
    </g>
    <g
   id="g1577"
   transform="matrix(0,2.6404009,-2.6404009,0,548.95207,41.494395)">
        <path
   inkscape:connector-curvature="0"
   id="path1575"
   style="fill:#8b8f91;fill-rule:nonzero"
   d="m 0,-3.495 h -0.001 v 3.562 h 0.014 c 0.037,0.938 0.797,1.69 1.743,1.69 0.947,0 1.708,-0.752 1.745,-1.69 H 3.514 V -1.642 -1.783 -3.495 C 3.514,-4.466 2.726,-5.252 1.756,-5.252 0.786,-5.252 0,-4.466 0,-3.495" />
    </g>
    <g
   id="g1581"
   transform="matrix(0,-2.6404009,-2.6404009,0,1996.9531,1541.0339)">
        <rect
   id="rect1579"
   style="fill:#897866"
   height="2.599"
   width="3.5150001"
   y="545.37799"
   x="564.40997" />
    </g>
    <g
   id="g1585"
   transform="matrix(0,-2.6404009,-2.6404009,0,1996.9531,1541.0339)">
        <rect
   id="rect1583"
   style="fill:#897866"
   height="2.599"
   width="3.5150001"
   y="545.37799"
   x="564.40997" />
    </g>
    <g
   id="g1589"
   transform="matrix(0,-2.6404009,-2.6404009,0,1996.9531,1541.0339)">
        <rect
   id="rect1587"
   style="fill:#897866"
   height="2.599"
   width="3.5150001"
   y="545.37799"
   x="564.40997" />
    </g>
    <g
   id="g1593"
   transform="matrix(0,-2.6404009,-2.6404009,0,1996.9531,1541.0339)">
        <rect
   id="rect1591"
   style="fill:#897866"
   height="2.599"
   width="3.5150001"
   y="545.37799"
   x="564.40997" />
    </g>
    <g
   id="g1597"
   transform="matrix(0,2.6404009,-2.6404009,0,456.37546,174.62119)">
        <path
   inkscape:connector-curvature="0"
   id="path1595"
   style="fill:#8b8f91;fill-rule:nonzero"
   d="m 0,-3.495 h -0.001 v 3.562 h 0.014 c 0.037,0.938 0.797,1.69 1.743,1.69 0.946,0 1.707,-0.752 1.744,-1.69 H 3.513 V -1.642 -1.783 -3.495 C 3.513,-4.466 2.726,-5.252 1.756,-5.252 0.786,-5.252 0,-4.466 0,-3.495" />
    </g>
    <g
   id="g1601"
   transform="matrix(0,-2.6404009,-2.6404009,0,1811.7999,1807.2875)">
        <rect
   id="rect1599"
   style="fill:#897866"
   height="2.599"
   width="3.5139999"
   y="510.31601"
   x="614.82898" />
    </g>
    <g
   id="g1605"
   transform="matrix(0,-2.6404009,-2.6404009,0,1811.7999,1807.2875)">
        <rect
   id="rect1603"
   style="fill:#897866"
   height="2.599"
   width="3.5139999"
   y="510.31601"
   x="614.82898" />
    </g>
    <g
   id="g1609"
   transform="matrix(0,-2.6404009,-2.6404009,0,1811.7999,1807.2875)">
        <rect
   id="rect1607"
   style="fill:#897866"
   height="2.599"
   width="3.5139999"
   y="510.31601"
   x="614.82898" />
    </g>
    <g
   id="g1613"
   transform="matrix(0,-2.6404009,-2.6404009,0,1811.7999,1807.2875)">
        <rect
   id="rect1611"
   style="fill:#897866"
   height="2.599"
   width="3.5139999"
   y="510.31601"
   x="614.82898" />
    </g>
    <g
   id="g1617"
   transform="matrix(0,2.6404009,-2.6404009,0,456.37546,190.93252)">
        <path
   inkscape:connector-curvature="0"
   id="path1615"
   style="fill:#8b8f91;fill-rule:nonzero"
   d="m 0,-3.495 h -0.001 v 3.562 h 0.014 c 0.037,0.938 0.797,1.69 1.743,1.69 0.947,0 1.708,-0.752 1.745,-1.69 H 3.514 V -1.642 -1.783 -3.495 C 3.514,-4.466 2.726,-5.252 1.756,-5.252 0.786,-5.252 0,-4.466 0,-3.495" />
    </g>
    <g
   id="g1621"
   transform="matrix(0,-2.6404009,-2.6404009,0,1811.7999,1839.9165)">
        <rect
   id="rect1619"
   style="fill:#897866"
   height="2.599"
   width="3.5150001"
   y="510.31601"
   x="621.00702" />
    </g>
    <g
   id="g1625"
   transform="matrix(0,-2.6404009,-2.6404009,0,1811.7999,1839.9165)">
        <rect
   id="rect1623"
   style="fill:#897866"
   height="2.599"
   width="3.5150001"
   y="510.31601"
   x="621.00702" />
    </g>
    <g
   id="g1629"
   transform="matrix(0,-2.6404009,-2.6404009,0,1811.7999,1839.9165)">
        <rect
   id="rect1627"
   style="fill:#897866"
   height="2.599"
   width="3.5150001"
   y="510.31601"
   x="621.00702" />
    </g>
    <g
   id="g1633"
   transform="matrix(0,-2.6404009,-2.6404009,0,1811.7999,1839.9165)">
        <rect
   id="rect1631"
   style="fill:#897866"
   height="2.599"
   width="3.5150001"
   y="510.31601"
   x="621.00702" />
    </g>
    <g
   id="g1637"
   transform="matrix(0,-2.6404009,-2.6404009,0,427.49161,150.19222)">
        <rect
   id="rect1635"
   style="fill:#897866"
   height="3.994"
   width="8.0209999"
   y="0"
   x="-8.0209999" />
    </g>
    <g
   id="g1641"
   transform="matrix(0,-2.6404009,-2.6404009,0,1734.375,1790.4185)">
        <rect
   id="rect1639"
   style="fill:#939798"
   height="3.9909999"
   width="0.419"
   y="494.95901"
   x="613.18201" />
    </g>
    <g
   id="g1645"
   transform="matrix(0,-2.6404009,-2.6404009,0,1734.3877,1750.2676)">
        <rect
   id="rect1643"
   style="fill:#939798"
   height="3.994"
   width="0.41800001"
   y="494.95901"
   x="605.57898" />
    </g>
    <g
   id="g1649"
   transform="matrix(0,-2.6404009,-2.6404009,0,407.64426,150.19222)">
        <rect
   id="rect1647"
   style="fill:#897866"
   height="3.994"
   width="8.0209999"
   y="0"
   x="-8.0209999" />
    </g>
    <g
   id="g1653"
   transform="matrix(0,-2.6404009,-2.6404009,0,1694.6739,1790.4185)">
        <rect
   id="rect1651"
   style="fill:#939798"
   height="3.9909999"
   width="0.419"
   y="487.44101"
   x="613.18201" />
    </g>
    <g
   id="g1657"
   transform="matrix(0,-2.6404009,-2.6404009,0,1694.6866,1750.2676)">
        <rect
   id="rect1655"
   style="fill:#939798"
   height="3.994"
   width="0.41800001"
   y="487.44101"
   x="605.57898" />
    </g>
    <g
   id="g1661"
   transform="matrix(0,2.6404009,-2.6404009,0,1907.0887,-1448.7805)">
        <rect
   id="rect1659"
   style="fill:#007482"
   height="14.442"
   width="6.6589999"
   y="522.43903"
   x="617.41101" />
    </g>
    <g
   id="g1665"
   transform="matrix(0,2.6404009,-2.6404009,0,1907.0887,-1448.7805)">
        <rect
   id="rect1663"
   height="14.442"
   width="6.6589999"
   y="522.43903"
   x="617.41101" />
    </g>
    <g
   id="g1669"
   transform="matrix(0,2.6404009,-2.6404009,0,1953.4689,-1448.7805)">
        <rect
   id="rect1667"
   style="fill:#8b8f91"
   height="5.3829999"
   width="1.952"
   y="535.75201"
   x="619.78302" />
    </g>
    <g
   id="g1673"
   transform="matrix(0,2.6404009,-2.6404009,0,1865.6957,-1448.7805)">
        <rect
   id="rect1671"
   style="fill:#8b8f91"
   height="5.3860002"
   width="1.952"
   y="519.12903"
   x="619.74701" />
    </g>
    <g
   id="g1677"
   transform="matrix(0,-2.6404009,-2.6404009,0,1590.4563,1598.1045)">
        <rect
   id="rect1675"
   style="fill:#8b8f91"
   height="8.7349997"
   width="4.329"
   y="465.33301"
   x="574.81" />
    </g>
    <g
   id="g1681"
   transform="matrix(0,-2.6404009,-2.6404009,0,1590.4563,1656.4869)">
        <rect
   id="rect1679"
   style="fill:#8b8f91"
   height="8.7349997"
   width="4.3299999"
   y="465.33301"
   x="585.86499" />
    </g>
    <g
   id="g1685"
   transform="matrix(0,2.6404009,-2.6404009,0,359.17288,99.382499)">
        <path
   inkscape:connector-curvature="0"
   id="path1683"
   style="fill:#897866;fill-rule:nonzero"
   d="m 0,6.754 c 0.928,0 1.687,-0.76 1.687,-1.687 V 1.69 C 1.687,0.76 0.928,0 0,0 h -0.472 v 6.754 z" />
    </g>
    <g
   id="g1689"
   transform="matrix(0,2.6404009,-2.6404009,0,341.34068,79.135921)">
        <path
   inkscape:connector-curvature="0"
   id="path1687"
   style="fill:#897866;fill-rule:nonzero"
   d="m 0,-6.754 c -0.928,0 -1.69,0.76 -1.69,1.69 v 3.377 C -1.69,-0.76 -0.928,0 0,0 h 0.471 v -6.754 z" />
    </g>
    <g
   id="g1693"
   transform="matrix(0,-2.6404009,-2.6404009,0,1590.4563,1627.2989)">
        <rect
   id="rect1691"
   height="6.7540002"
   width="6.7259998"
   y="466.32401"
   x="579.13898" />
    </g>
    <g
   id="g1697"
   transform="matrix(0,2.6404009,-2.6404009,0,45.25967,37.102884)">
        <path
   inkscape:connector-curvature="0"
   id="path1695"
   style="fill:#8b8f91;fill-rule:nonzero"
   d="m 0,-3.495 h -0.001 v 3.562 h 0.014 c 0.037,0.938 0.797,1.69 1.743,1.69 0.946,0 1.707,-0.752 1.744,-1.69 h 0.013 v -1.71 -0.14 -1.712 C 3.513,-4.466 2.726,-5.252 1.756,-5.252 0.786,-5.252 0,-4.466 0,-3.495" />
    </g>
    <g
   id="g1701"
   transform="matrix(0,-2.6404009,-2.6404009,0,989.56705,1532.2572)">
        <rect
   id="rect1699"
   style="fill:#897866"
   height="2.599"
   width="3.5139999"
   y="354.61401"
   x="562.74799" />
    </g>
    <g
   id="g1705"
   transform="matrix(0,-2.6404009,-2.6404009,0,989.56705,1532.2572)">
        <rect
   id="rect1703"
   style="fill:#897866"
   height="2.599"
   width="3.5139999"
   y="354.61401"
   x="562.74799" />
    </g>
    <g
   id="g1709"
   transform="matrix(0,-2.6404009,-2.6404009,0,989.56705,1532.2572)">
        <rect
   id="rect1707"
   style="fill:#897866"
   height="2.599"
   width="3.5139999"
   y="354.61401"
   x="562.74799" />
    </g>
    <g
   id="g1713"
   transform="matrix(0,-2.6404009,-2.6404009,0,989.56705,1532.2572)">
        <rect
   id="rect1711"
   style="fill:#897866"
   height="2.599"
   width="3.5139999"
   y="354.61401"
   x="562.74799" />
    </g>
    <g
   id="g1717"
   transform="matrix(0,2.6404009,-2.6404009,0,14.884099,37.102884)">
        <path
   inkscape:connector-curvature="0"
   id="path1715"
   style="fill:#8b8f91;fill-rule:nonzero"
   d="m 0,-3.495 h -0.001 v 3.562 h 0.014 c 0.037,0.937 0.797,1.69 1.743,1.69 0.946,0 1.707,-0.753 1.744,-1.69 h 0.013 v -1.71 -0.14 -1.712 C 3.513,-4.466 2.726,-5.252 1.756,-5.252 0.786,-5.252 0,-4.466 0,-3.495" />
    </g>
    <g
   id="g1721"
   transform="matrix(0,-2.6404009,-2.6404009,0,928.81464,1532.2572)">
        <rect
   id="rect1719"
   style="fill:#897866"
   height="2.599"
   width="3.5139999"
   y="343.10999"
   x="562.74799" />
    </g>
    <g
   id="g1725"
   transform="matrix(0,-2.6404009,-2.6404009,0,928.81464,1532.2572)">
        <rect
   id="rect1723"
   style="fill:#897866"
   height="2.599"
   width="3.5139999"
   y="343.10999"
   x="562.74799" />
    </g>
    <g
   id="g1729"
   transform="matrix(0,-2.6404009,-2.6404009,0,928.81464,1532.2572)">
        <rect
   id="rect1727"
   style="fill:#897866"
   height="2.599"
   width="3.5139999"
   y="343.10999"
   x="562.74799" />
    </g>
    <g
   id="g1733"
   transform="matrix(0,-2.6404009,-2.6404009,0,928.81464,1532.2572)">
        <rect
   id="rect1731"
   style="fill:#897866"
   height="2.599"
   width="3.5139999"
   y="343.10999"
   x="562.74799" />
    </g>
    <g
   id="g1737"
   transform="matrix(0,2.6404009,-2.6404009,0,230.81147,146.6562)">
        <path
   inkscape:connector-curvature="0"
   id="path1735"
   style="fill:#8b8f91;fill-rule:nonzero"
   d="m 0,-3.495 h -0.002 v 3.562 h 0.015 c 0.036,0.938 0.796,1.69 1.743,1.69 0.946,0 1.707,-0.752 1.744,-1.69 H 3.513 V -1.642 -1.783 -3.495 C 3.513,-4.466 2.725,-5.252 1.756,-5.252 0.786,-5.252 0,-4.466 0,-3.495" />
    </g>
    <g
   id="g1741"
   transform="matrix(0,-2.6404009,-2.6404009,0,1360.6719,1751.3639)">
        <rect
   id="rect1739"
   style="fill:#897866"
   height="2.599"
   width="3.5150001"
   y="424.888"
   x="604.23901" />
    </g>
    <g
   id="g1745"
   transform="matrix(0,-2.6404009,-2.6404009,0,1360.6719,1751.3639)">
        <rect
   id="rect1743"
   style="fill:#897866"
   height="2.599"
   width="3.5150001"
   y="424.888"
   x="604.23901" />
    </g>
    <g
   id="g1749"
   transform="matrix(0,-2.6404009,-2.6404009,0,1360.6719,1751.3639)">
        <rect
   id="rect1747"
   style="fill:#897866"
   height="2.599"
   width="3.5150001"
   y="424.888"
   x="604.23901" />
    </g>
    <g
   id="g1753"
   transform="matrix(0,-2.6404009,-2.6404009,0,1360.6719,1751.3639)">
        <rect
   id="rect1751"
   style="fill:#897866"
   height="2.599"
   width="3.5150001"
   y="424.888"
   x="604.23901" />
    </g>
    <g
   id="g1757"
   transform="matrix(0,2.6404009,-2.6404009,0,230.81147,197.16808)">
        <path
   inkscape:connector-curvature="0"
   id="path1755"
   style="fill:#8b8f91;fill-rule:nonzero"
   d="m 0,-3.495 h -0.001 v 3.562 h 0.014 c 0.037,0.938 0.797,1.69 1.743,1.69 0.946,0 1.707,-0.752 1.744,-1.69 H 3.513 V -1.642 -1.783 -3.495 C 3.513,-4.466 2.726,-5.252 1.756,-5.252 0.786,-5.252 0,-4.466 0,-3.495" />
    </g>
    <g
   id="g1761"
   transform="matrix(0,-2.6404009,-2.6404009,0,1360.6719,1852.3876)">
        <rect
   id="rect1759"
   style="fill:#897866"
   height="2.599"
   width="3.5139999"
   y="424.888"
   x="623.36902" />
    </g>
    <g
   id="g1765"
   transform="matrix(0,-2.6404009,-2.6404009,0,1360.6719,1852.3876)">
        <rect
   id="rect1763"
   style="fill:#897866"
   height="2.599"
   width="3.5139999"
   y="424.888"
   x="623.36902" />
    </g>
    <g
   id="g1769"
   transform="matrix(0,-2.6404009,-2.6404009,0,1360.6719,1852.3876)">
        <rect
   id="rect1767"
   style="fill:#897866"
   height="2.599"
   width="3.5139999"
   y="424.888"
   x="623.36902" />
    </g>
    <g
   id="g1773"
   transform="matrix(0,-2.6404009,-2.6404009,0,1360.6719,1852.3876)">
        <rect
   id="rect1771"
   style="fill:#897866"
   height="2.599"
   width="3.5139999"
   y="424.888"
   x="623.36902" />
    </g>
    <g
   id="g1777"
   transform="matrix(0,2.6404009,-2.6404009,0,100.63453,208.18805)">
        <path
   inkscape:connector-curvature="0"
   id="path1775"
   style="fill:#8b8f91;fill-rule:nonzero"
   d="m 0,-3.495 h -0.001 v 3.562 h 0.014 c 0.037,0.937 0.797,1.69 1.743,1.69 0.947,0 1.708,-0.753 1.744,-1.69 h 0.013 v -1.71 -0.14 -1.712 C 3.513,-4.466 2.726,-5.252 1.756,-5.252 0.786,-5.252 0,-4.466 0,-3.495" />
    </g>
    <g
   id="g1781"
   transform="matrix(0,-2.6404009,-2.6404009,0,1100.3181,1874.4276)">
        <rect
   id="rect1779"
   style="fill:#897866"
   height="2.599"
   width="3.5139999"
   y="375.586"
   x="627.54303" />
    </g>
    <g
   id="g1785"
   transform="matrix(0,-2.6404009,-2.6404009,0,1100.3181,1874.4276)">
        <rect
   id="rect1783"
   style="fill:#897866"
   height="2.599"
   width="3.5139999"
   y="375.586"
   x="627.54303" />
    </g>
    <g
   id="g1789"
   transform="matrix(0,-2.6404009,-2.6404009,0,1100.3181,1874.4276)">
        <rect
   id="rect1787"
   style="fill:#897866"
   height="2.599"
   width="3.5139999"
   y="375.586"
   x="627.54303" />
    </g>
    <g
   id="g1793"
   transform="matrix(0,-2.6404009,-2.6404009,0,1100.3181,1874.4276)">
        <rect
   id="rect1791"
   style="fill:#897866"
   height="2.599"
   width="3.5139999"
   y="375.586"
   x="627.54303" />
    </g>
    <g
   id="g1797"
   transform="matrix(0,2.6404009,-2.6404009,0,450.50744,57.102321)">
        <path
   inkscape:connector-curvature="0"
   id="path1795"
   style="fill:#8b8f91;fill-rule:nonzero"
   d="M 0,3.512 V 3.513 H 3.562 V 3.499 C 4.499,3.462 5.252,2.703 5.252,1.756 5.252,0.809 4.499,0.049 3.562,0.012 V -0.001 H 1.853 1.712 0 c -0.971,0 -1.757,0.787 -1.757,1.757 0,0.97 0.786,1.756 1.757,1.756" />
    </g>
    <g
   id="g1801"
   transform="matrix(0,2.6404009,-2.6404009,0,1781.6867,-1448.7805)">
        <rect
   id="rect1799"
   style="fill:#897866"
   height="3.5150001"
   width="2.599"
   y="504.15601"
   x="570.79401" />
    </g>
    <g
   id="g1805"
   transform="matrix(0,2.6404009,-2.6404009,0,1781.6867,-1448.7805)">
        <rect
   id="rect1803"
   style="fill:#897866"
   height="3.5150001"
   width="2.599"
   y="504.15601"
   x="570.79401" />
    </g>
    <g
   id="g1809"
   transform="matrix(0,2.6404009,-2.6404009,0,1781.6867,-1448.7805)">
        <rect
   id="rect1807"
   style="fill:#897866"
   height="3.5150001"
   width="2.599"
   y="504.15601"
   x="570.79401" />
    </g>
    <g
   id="g1813"
   transform="matrix(0,2.6404009,-2.6404009,0,1781.6867,-1448.7805)">
        <rect
   id="rect1811"
   style="fill:#897866"
   height="3.5150001"
   width="2.599"
   y="504.15601"
   x="570.79401" />
    </g>
    <g
   id="g1817"
   transform="matrix(0,2.6404009,-2.6404009,0,354.89543,126.44764)">
        <path
   inkscape:connector-curvature="0"
   id="path1815"
   style="fill:#8b8f91;fill-rule:nonzero"
   d="M 0,3.512 V 3.513 H 3.562 V 3.499 C 4.499,3.462 5.252,2.703 5.252,1.756 5.252,0.809 4.499,0.049 3.562,0.012 V -0.001 H 1.853 1.712 0 c -0.971,0 -1.757,0.787 -1.757,1.757 0,0.97 0.786,1.756 1.757,1.756" />
    </g>
    <g
   id="g1821"
   transform="matrix(0,2.6404009,-2.6404009,0,1590.4563,-1448.7805)">
        <rect
   id="rect1819"
   style="fill:#897866"
   height="3.5150001"
   width="2.599"
   y="467.94299"
   x="597.05902" />
    </g>
    <g
   id="g1825"
   transform="matrix(0,2.6404009,-2.6404009,0,1590.4563,-1448.7805)">
        <rect
   id="rect1823"
   style="fill:#897866"
   height="3.5150001"
   width="2.599"
   y="467.94299"
   x="597.05902" />
    </g>
    <g
   id="g1829"
   transform="matrix(0,2.6404009,-2.6404009,0,1590.4563,-1448.7805)">
        <rect
   id="rect1827"
   style="fill:#897866"
   height="3.5150001"
   width="2.599"
   y="467.94299"
   x="597.05902" />
    </g>
    <g
   id="g1833"
   transform="matrix(0,2.6404009,-2.6404009,0,1590.4563,-1448.7805)">
        <rect
   id="rect1831"
   style="fill:#897866"
   height="3.5150001"
   width="2.599"
   y="467.94299"
   x="597.05902" />
    </g>
    <g
   id="g1837"
   transform="matrix(0,2.6404009,-2.6404009,0,269.09303,180.36881)">
        <path
   inkscape:connector-curvature="0"
   id="path1835"
   style="fill:#8b8f91;fill-rule:nonzero"
   d="M 0,3.512 V 3.513 H 3.562 V 3.499 C 4.5,3.462 5.253,2.703 5.253,1.756 5.253,0.809 4.5,0.049 3.562,0.012 V -0.001 H 1.853 1.712 0 c -0.971,0 -1.757,0.787 -1.757,1.757 0,0.97 0.786,1.756 1.757,1.756" />
    </g>
    <g
   id="g1841"
   transform="matrix(0,2.6404009,-2.6404009,0,1418.8642,-1448.7805)">
        <rect
   id="rect1839"
   style="fill:#897866"
   height="3.5139999"
   width="2.599"
   y="435.45001"
   x="617.47998" />
    </g>
    <g
   id="g1845"
   transform="matrix(0,2.6404009,-2.6404009,0,1418.8642,-1448.7805)">
        <rect
   id="rect1843"
   style="fill:#897866"
   height="3.5139999"
   width="2.599"
   y="435.45001"
   x="617.47998" />
    </g>
    <g
   id="g1849"
   transform="matrix(0,2.6404009,-2.6404009,0,1418.8642,-1448.7805)">
        <rect
   id="rect1847"
   style="fill:#897866"
   height="3.5139999"
   width="2.599"
   y="435.45001"
   x="617.47998" />
    </g>
    <g
   id="g1853"
   transform="matrix(0,2.6404009,-2.6404009,0,1418.8642,-1448.7805)">
        <rect
   id="rect1851"
   style="fill:#897866"
   height="3.5139999"
   width="2.599"
   y="435.45001"
   x="617.47998" />
    </g>
    <g
   id="g1857"
   transform="matrix(0,-2.6404009,-2.6404009,0,438.34682,49.745114)">
        <rect
   id="rect1855"
   style="fill:#897866"
   height="3.994"
   width="8.0209999"
   y="0"
   x="-8.0209999" />
    </g>
    <g
   id="g1861"
   transform="matrix(0,-2.6404009,-2.6404009,0,1756.0727,1589.518)">
        <rect
   id="rect1859"
   style="fill:#939798"
   height="3.9909999"
   width="0.419"
   y="499.06799"
   x="575.13898" />
    </g>
    <g
   id="g1865"
   transform="matrix(0,-2.6404009,-2.6404009,0,1756.0854,1549.367)">
        <rect
   id="rect1863"
   style="fill:#939798"
   height="3.994"
   width="0.41800001"
   y="499.06799"
   x="567.53601" />
    </g>
    <g
   id="g1869"
   transform="matrix(-2.6404009,0,0,2.6404009,138.60875,52.330592)">
        <rect
   id="rect1867"
   style="fill:#897866"
   height="3.994"
   width="8.0209999"
   y="-6.007"
   x="-6.007" />
    </g>
    <g
   id="g1873"
   transform="matrix(0,-2.6404009,-2.6404009,0,1197.7741,1532.2636)">
        <rect
   id="rect1871"
   style="fill:#939798"
   height="0.419"
   width="3.9909999"
   y="395.13101"
   x="562.51099" />
    </g>
    <g
   id="g1877"
   transform="matrix(0,-2.6404009,-2.6404009,0,1157.6168,1532.2572)">
        <rect
   id="rect1875"
   style="fill:#939798"
   height="0.417"
   width="3.994"
   y="387.52802"
   x="562.508" />
    </g>
    <g
   id="g1881"
   transform="matrix(0,-2.6404009,-2.6404009,0,542.4757,52.539712)">
        <rect
   id="rect1879"
   style="fill:#897866"
   height="3.0910001"
   width="6.2090001"
   y="0"
   x="-6.2090001" />
    </g>
    <g
   id="g1885"
   transform="matrix(0,-2.6404009,-2.6404009,0,1966.7259,1585.7918)">
        <rect
   id="rect1883"
   style="fill:#939798"
   height="3.089"
   width="0.32499999"
   y="539.409"
   x="574.47998" />
    </g>
    <g
   id="g1889"
   transform="matrix(0,-2.6404009,-2.6404009,0,1966.7322,1554.7154)">
        <rect
   id="rect1887"
   style="fill:#939798"
   height="3.0910001"
   width="0.32300001"
   y="539.409"
   x="568.59601" />
    </g>
    <g
   id="g1893"
   transform="matrix(-2.6404009,0,0,2.6404009,313.78759,81.227117)">
        <rect
   id="rect1891"
   style="fill:#897866"
   height="3.0910001"
   width="6.2080002"
   y="-4.6500001"
   x="-4.6500001" />
    </g>
    <g
   id="g1897"
   transform="matrix(0,-2.6404009,-2.6404009,0,1541.2119,1594.841)">
        <rect
   id="rect1895"
   style="fill:#939798"
   height="0.324"
   width="3.089"
   y="460.21399"
   x="574.81201" />
    </g>
    <g
   id="g1901"
   transform="matrix(0,-2.6404009,-2.6404009,0,1510.1354,1594.8347)">
        <rect
   id="rect1899"
   style="fill:#939798"
   height="0.32300001"
   width="3.0910001"
   y="454.32999"
   x="574.81" />
    </g>
    <g
   id="g1905"
   transform="matrix(-2.6404009,0,0,2.6404009,313.78759,95.916183)">
        <rect
   id="rect1903"
   style="fill:#897866"
   height="3.0910001"
   width="6.2080002"
   y="-4.6500001"
   x="-4.6500001" />
    </g>
    <g
   id="g1909"
   transform="matrix(0,-2.6404009,-2.6404009,0,1541.2119,1624.2318)">
        <rect
   id="rect1907"
   style="fill:#939798"
   height="0.324"
   width="3.0880001"
   y="460.21399"
   x="580.37799" />
    </g>
    <g
   id="g1913"
   transform="matrix(0,-2.6404009,-2.6404009,0,1510.1354,1624.2255)">
        <rect
   id="rect1911"
   style="fill:#939798"
   height="0.32300001"
   width="3.0910001"
   y="454.32999"
   x="580.375" />
    </g>
    <g
   id="g1917"
   transform="matrix(-2.6404009,0,0,2.6404009,285.61982,107.00586)">
        <rect
   id="rect1915"
   style="fill:#897866"
   height="3.0910001"
   width="6.2080002"
   y="-4.6500001"
   x="-4.6500001" />
    </g>
    <g
   id="g1921"
   transform="matrix(0,-2.6404009,-2.6404009,0,1484.8763,1646.4048)">
        <rect
   id="rect1919"
   style="fill:#939798"
   height="0.32499999"
   width="3.089"
   y="449.54501"
   x="584.57599" />
    </g>
    <g
   id="g1925"
   transform="matrix(0,-2.6404009,-2.6404009,0,1453.7999,1646.3985)">
        <rect
   id="rect1923"
   style="fill:#939798"
   height="0.32300001"
   width="3.0910001"
   y="443.66101"
   x="584.57397" />
    </g>
    <g
   id="g1929"
   transform="matrix(0,2.6404009,-2.6404009,0,475.6715,37.172591)">
        <rect
   id="rect1927"
   height="17.587999"
   width="11.349"
   y="-17.591"
   x="0" />
    </g>
    <g
   id="g1933"
   transform="matrix(0,2.6404009,-2.6404009,0,284.2447,150.19222)">
        <rect
   id="rect1931"
   height="19.079"
   width="16.681999"
   y="-19.082001"
   x="0" />
    </g>
    <g
   id="g1937"
   transform="matrix(0,2.6404009,-2.6404009,0,1826.0264,-1448.7805)">
        <rect
   id="rect1935"
   style="fill:#8b8f91"
   height="8.6230001"
   width="3.303"
   y="509.99799"
   x="584.71503" />
    </g>
    <g
   id="g1941"
   transform="matrix(0,2.6404009,-2.6404009,0,1826.0264,-1448.7805)">
        <rect
   id="rect1939"
   style="fill:#8b8f91"
   height="8.6230001"
   width="3.3069999"
   y="509.99799"
   x="606.62701" />
    </g>
    <g
   id="g1945"
   transform="matrix(0,2.6404009,-2.6404009,0,468.85293,142.85402)">
        <path
   inkscape:connector-curvature="0"
   id="path1943"
   style="fill:#b7babb;fill-rule:nonzero"
   d="m 0,0.63 -0.04,0.4 -0.08,0.43 -0.09,0.4 -0.14,0.41 -0.17,0.37 -0.2,0.38 L -0.93,3.37 -1.2,3.72 -1.47,4.03 -1.78,4.32 -2.11,4.57 -2.47,4.8 -2.82,5.01 -3.21,5.19 -3.61,5.32 -4,5.44 -4.42,5.51 -4.85,5.55 -5.25,5.57 -5.68,5.53 -6.1,5.47 -6.51,5.38 -6.91,5.26 -7.3,5.11 -7.67,4.91 -8.03,4.7 -8.69,4.16 -8.98,3.87 -9.25,3.54 -9.48,3.2 -9.69,2.83 l -0.2,-0.37 -0.15,-0.4 -0.12,-0.41 -0.07,-0.4 -0.06,-0.41 -0.02,-0.42 0.02,-0.43 0.06,-0.42 0.07,-0.41 0.12,-0.4 0.15,-0.39 0.2,-0.39 0.21,-0.36 0.23,-0.33 0.27,-0.33 0.29,-0.29 0.33,-0.29 0.33,-0.25 0.36,-0.21 0.37,-0.19 0.39,-0.16 0.4,-0.13 0.41,-0.08 0.42,-0.08 0.43,-0.02 h 0.4 l 0.43,0.06 0.42,0.08 0.39,0.09 0.4,0.16 0.39,0.17 0.35,0.2 0.36,0.25 0.33,0.25 0.31,0.29 0.27,0.31 0.27,0.32 0.21,0.37 0.2,0.37 0.17,0.38 0.14,0.41 0.09,0.4 0.08,0.41 L 0,0.2 Z M -15.89,7.37 H 4.53 V -6.74 h -20.42 z" />
    </g>
    <g
   transform="matrix(-0.05632934,-2.6397989,-2.6397989,0.05632934,466.90115,115.64313)"
   id="RESET_BTN">
        <ellipse
   id="ellipse1947"
   style="fill:#f7f9f9"
   ry="5.1539998"
   rx="5.1560001"
   cy="-0.21699999"
   cx="-5.1570001" />
    </g>
    <g
   id="g1952"
   transform="matrix(0,2.6404009,-2.6404009,0,314.78883,47.089929)">
        <path
   inkscape:connector-curvature="0"
   id="path1950"
   style="fill:#8b8f91;fill-rule:nonzero"
   d="M 0,3.512 V 3.513 H 3.562 V 3.499 C 4.499,3.462 5.252,2.703 5.252,1.756 5.252,0.809 4.499,0.049 3.562,0.012 V -0.001 H 1.853 1.712 0 c -0.971,0 -1.757,0.787 -1.757,1.757 0,0.97 0.786,1.756 1.757,1.756" />
    </g>
    <g
   id="g1956"
   transform="matrix(0,2.6404009,-2.6404009,0,1510.2431,-1448.7805)">
        <rect
   id="rect1954"
   style="fill:#897866"
   height="3.5139999"
   width="2.5999999"
   y="452.754"
   x="567.00098" />
    </g>
    <g
   id="g1960"
   transform="matrix(0,2.6404009,-2.6404009,0,1510.2431,-1448.7805)">
        <rect
   id="rect1958"
   style="fill:#897866"
   height="3.5139999"
   width="2.5999999"
   y="452.754"
   x="567.00098" />
    </g>
    <g
   id="g1964"
   transform="matrix(0,2.6404009,-2.6404009,0,1510.2431,-1448.7805)">
        <rect
   id="rect1962"
   style="fill:#897866"
   height="3.5139999"
   width="2.5999999"
   y="452.754"
   x="567.00098" />
    </g>
    <g
   id="g1968"
   transform="matrix(0,2.6404009,-2.6404009,0,1510.2431,-1448.7805)">
        <rect
   id="rect1966"
   style="fill:#897866"
   height="3.5139999"
   width="2.5999999"
   y="452.754"
   x="567.00098" />
    </g>
    <g
   id="g1972"
   transform="matrix(0,2.6404009,-2.6404009,0,259.81573,47.089929)">
        <path
   inkscape:connector-curvature="0"
   id="path1970"
   style="fill:#8b8f91;fill-rule:nonzero"
   d="M 0,3.512 V 3.513 H 3.562 V 3.499 C 4.499,3.462 5.252,2.703 5.252,1.756 5.252,0.809 4.499,0.049 3.562,0.012 V -0.001 H 1.853 1.712 0 c -0.971,0 -1.757,0.787 -1.757,1.757 0,0.97 0.786,1.756 1.757,1.756" />
    </g>
    <g
   id="g1976"
   transform="matrix(0,2.6404009,-2.6404009,0,1400.3033,-1448.7805)">
        <rect
   id="rect1974"
   style="fill:#897866"
   height="3.5150001"
   width="2.5999999"
   y="431.935"
   x="567.00098" />
    </g>
    <g
   id="g1980"
   transform="matrix(0,2.6404009,-2.6404009,0,1400.3033,-1448.7805)">
        <rect
   id="rect1978"
   style="fill:#897866"
   height="3.5150001"
   width="2.5999999"
   y="431.935"
   x="567.00098" />
    </g>
    <g
   id="g1984"
   transform="matrix(0,2.6404009,-2.6404009,0,1400.3033,-1448.7805)">
        <rect
   id="rect1982"
   style="fill:#897866"
   height="3.5150001"
   width="2.5999999"
   y="431.935"
   x="567.00098" />
    </g>
    <g
   id="g1988"
   transform="matrix(0,2.6404009,-2.6404009,0,1400.3033,-1448.7805)">
        <rect
   id="rect1986"
   style="fill:#897866"
   height="3.5150001"
   width="2.5999999"
   y="431.935"
   x="567.00098" />
    </g>
    <g
   id="g1992"
   transform="matrix(0,2.6404009,-2.6404009,0,330.22566,47.089929)">
        <path
   inkscape:connector-curvature="0"
   id="path1990"
   style="fill:#8b8f91;fill-rule:nonzero"
   d="M 0,3.512 V 3.513 H 3.562 V 3.499 C 4.499,3.462 5.252,2.703 5.252,1.756 5.252,0.809 4.499,0.049 3.562,0.012 V -0.001 H 1.853 1.712 0 c -0.971,0 -1.757,0.787 -1.757,1.757 0,0.97 0.786,1.756 1.757,1.756" />
    </g>
    <g
   id="g1996"
   transform="matrix(0,2.6404009,-2.6404009,0,1541.1168,-1448.7805)">
        <rect
   id="rect1994"
   style="fill:#897866"
   height="3.5150001"
   width="2.5999999"
   y="458.60001"
   x="567.00098" />
    </g>
    <g
   id="g2000"
   transform="matrix(0,2.6404009,-2.6404009,0,1541.1168,-1448.7805)">
        <rect
   id="rect1998"
   style="fill:#897866"
   height="3.5150001"
   width="2.5999999"
   y="458.60001"
   x="567.00098" />
    </g>
    <g
   id="g2004"
   transform="matrix(0,2.6404009,-2.6404009,0,1541.1168,-1448.7805)">
        <rect
   id="rect2002"
   style="fill:#897866"
   height="3.5150001"
   width="2.5999999"
   y="458.60001"
   x="567.00098" />
    </g>
    <g
   id="g2008"
   transform="matrix(0,2.6404009,-2.6404009,0,1541.1168,-1448.7805)">
        <rect
   id="rect2006"
   style="fill:#897866"
   height="3.5150001"
   width="2.5999999"
   y="458.60001"
   x="567.00098" />
    </g>
    <g
   id="g2012"
   transform="matrix(0,2.6404009,-2.6404009,0,1149.702,-1448.7805)">
        <rect
   id="rect2010"
   style="fill:#8b8f91"
   height="59.266998"
   width="57.888"
   y="356.604"
   x="568.38" />
    </g>
    <g
   id="g2016"
   transform="matrix(0,2.6404009,-2.6404009,0,200.52716,58.62319)">
        <path
   inkscape:connector-curvature="0"
   id="path2014"
   style="fill:#aaaeaf;fill-rule:nonzero"
   d="m 0,53.962 h 0.035 v 0.082 h 52.921 l -0.082,-0.082 h 0.102 V 0 H 52.807 V -0.082 H 0.035 V 0.032 L 0,0 Z" />
    </g>
    <g
   id="g2020"
   transform="matrix(0,2.6404009,-2.6404009,0,941.59628,-1448.7805)">
        <rect
   id="rect2018"
   style="fill:#6c982e"
   height="19.552"
   width="57.888"
   y="337.05301"
   x="568.38" />
    </g>
    <g
   id="g2024"
   transform="matrix(0,2.6404009,-2.6404009,0,45.816054,85.282769)">
        <path
   inkscape:connector-curvature="0"
   id="path2022"
   style="fill:#007482;fill-rule:nonzero"
   d="M 0,6.611 -6.089,2.147 V 0 h 44.834 v 2.147 l -6.089,4.464 z" />
    </g>
    <g
   id="g2028"
   transform="matrix(1.5873824,-2.1099532,-2.1099532,-1.5873824,11.267598,143.31029)">
        <path
   inkscape:connector-curvature="0"
   id="path2026"
   style="fill:#007482;fill-rule:nonzero"
   d="m 7.543,8.25 h 9.53 l -20.401,-15.349 2.64,9.156 z" />
    </g>
    <g
   id="g2032"
   transform="matrix(0,2.6404009,-2.6404009,0,247.95928,188.64488)">
        <path
   inkscape:connector-curvature="0"
   id="path2030"
   style="fill:#8badb4;fill-rule:nonzero"
   d="m 0,3.95 c 0.032,0 0.059,-0.027 0.059,-0.059 V 0.061 C 0.059,0.027 0.034,0 0,0 h -3.83 c -0.032,0 -0.059,0.029 -0.059,0.061 v 3.83 c 0,0.032 0.027,0.059 0.059,0.059 z" />
    </g>
    <g
   id="g2036"
   transform="matrix(0,2.6404009,-2.6404009,0,233.32091,188.64488)">
        <path
   inkscape:connector-curvature="0"
   id="path2034"
   style="fill:#8badb4;fill-rule:nonzero"
   d="m 0,3.949 c 0.032,0 0.059,-0.026 0.059,-0.059 V 0.06 C 0.059,0.026 0.034,0 0,0 h -3.83 c -0.032,0 -0.059,0.028 -0.059,0.06 v 3.83 c 0,0.033 0.027,0.059 0.059,0.059 z" />
    </g>
    <g
   id="g2040"
   transform="matrix(0,2.6404009,-2.6404009,0,247.95928,174.56416)">
        <path
   inkscape:connector-curvature="0"
   id="path2038"
   style="fill:#8badb4;fill-rule:nonzero"
   d="m 0,3.95 c 0.032,0 0.059,-0.027 0.059,-0.059 V 0.061 C 0.059,0.027 0.034,0 0,0 h -3.83 c -0.032,0 -0.059,0.029 -0.059,0.061 v 3.83 c 0,0.032 0.027,0.059 0.059,0.059 z" />
    </g>
    <g
   id="g2044"
   transform="matrix(0,2.6404009,-2.6404009,0,233.32091,174.56416)">
        <path
   inkscape:connector-curvature="0"
   id="path2042"
   style="fill:#8badb4;fill-rule:nonzero"
   d="m 0,3.949 c 0.032,0 0.059,-0.026 0.059,-0.059 V 0.06 C 0.059,0.026 0.034,0 0,0 h -3.83 c -0.032,0 -0.059,0.028 -0.059,0.06 v 3.83 c 0,0.033 0.027,0.059 0.059,0.059 z" />
    </g>
    <g
   id="g2048"
   transform="matrix(2.6404009,0,0,-2.6404009,227.35783,185.50808)">
        <rect
   id="rect2046"
   style="fill:#897866"
   height="6.1620002"
   width="6.3460002"
   y="0.092"
   x="-0.092" />
    </g>
    <g
   id="g2052"
   transform="matrix(0,2.6404009,-2.6404009,0,242.78832,170.45147)">
        <path
   inkscape:connector-curvature="0"
   id="path2050"
   style="fill:#8b8f91;fill-rule:nonzero"
   d="m 0,5.539 c -0.213,0 -0.391,-0.112 -0.391,-0.254 L -0.387,0.248 C -0.387,0.113 -0.21,0 0.003,0 h 5.071 c 0.205,0 0.38,0.113 0.38,0.248 v 5.037 c 0,0.142 -0.175,0.254 -0.384,0.254 z" />
    </g>
    <g
   id="g2056"
   transform="matrix(0,2.6404009,-2.6404009,0,1344.969,-1448.7805)">
        <rect
   id="rect2054"
   style="fill:#939798"
   height="0.30000001"
   width="6.1570001"
   y="423.064"
   x="612.70099" />
    </g>
    <g
   id="g2060"
   transform="matrix(0,2.6404009,-2.6404009,0,1376.8882,-1448.7805)">
        <rect
   id="rect2058"
   style="fill:#939798"
   height="0.29800001"
   width="6.1620002"
   y="429.10999"
   x="612.70099" />
    </g>
    <g
   id="g2064"
   transform="matrix(0,-2.6404009,-2.6404009,0,1452.9444,1570.7416)">
        <rect
   id="rect2062"
   height="12.533"
   width="12.533"
   y="437.39401"
   x="565.526" />
    </g>
    <g
   id="g2068"
   transform="matrix(0,-2.6404009,-2.6404009,0,1645.3724,1768.1821)">
        <rect
   id="rect2066"
   height="9.677"
   width="9.677"
   y="475.26199"
   x="604.34302" />
    </g>
    <g
   id="g2072"
   transform="matrix(0,2.6404009,-2.6404009,0,1378.6943,-1448.7805)">
        <rect
   id="rect2070"
   height="18.386"
   width="14.174"
   y="420.40799"
   x="587.66498" />
    </g>
    <g
   id="g2076"
   transform="matrix(0,2.6404009,-2.6404009,0,240.15215,121.60621)">
        <path
   inkscape:connector-curvature="0"
   id="path2074"
   style="fill:#f4dcc1;fill-rule:nonzero"
   d="M 0,5.173 C -1.429,5.173 -2.586,4.015 -2.586,2.587 -2.586,1.158 -1.429,0 0,0 1.429,0 2.587,1.158 2.587,2.587 2.587,4.015 1.429,5.173 0,5.173" />
    </g>
    <g
   id="g2080"
   transform="matrix(0,2.6404009,-2.6404009,0,233.32725,118.29832)">
        <path
   inkscape:connector-curvature="0"
   id="path2078"
   style="fill:#eaa900;fill-rule:nonzero"
   d="M 0,0 C 0,-0.695 0.561,-1.255 1.255,-1.255 1.95,-1.255 2.49,-0.695 2.49,0 2.49,0.695 1.95,1.255 1.255,1.255 0.561,1.255 0,0.695 0,0 m 3.069,0 c 0,-1.004 -0.81,-1.814 -1.814,-1.814 -1.004,0 -1.815,0.81 -1.815,1.814 0,1.004 0.811,1.814 1.815,1.814 1.004,0 1.814,-0.81 1.814,-1.814" />
    </g>
    <g
   id="g2084"
   transform="matrix(0,2.6404009,-2.6404009,0,1455.796,-1448.7805)">
        <rect
   id="rect2082"
   height="8.4560003"
   width="10.971"
   y="439.97299"
   x="590.86798" />
    </g>
    <g
   id="g2088"
   transform="matrix(0,2.6404009,-2.6404009,0,1523.8739,-1448.7805)">
        <rect
   id="rect2086"
   height="14.447"
   width="10.971"
   y="449.86899"
   x="590.86798" />
    </g>
    <g
   id="g2092"
   transform="matrix(0,2.6404009,-2.6404009,0,333.52088,125.83296)">
        <path
   inkscape:connector-curvature="0"
   id="path2090"
   style="fill:#f1cea2;fill-rule:nonzero"
   d="M 0,5.173 C -1.429,5.173 -2.586,4.015 -2.586,2.587 -2.586,1.158 -1.429,0 0,0 1.429,0 2.586,1.158 2.586,2.587 2.586,4.015 1.429,5.173 0,5.173" />
    </g>
    <g
   id="g2096"
   transform="matrix(0,2.6404009,-2.6404009,0,573.15291,237.90838)">
        <path
   inkscape:connector-curvature="0"
   id="path2094"
   style="fill:#b6afa8;fill-rule:nonzero"
   d="m 0,5.67 c -1.57,0 -2.84,-1.27 -2.84,-2.84 0,-1.57 1.27,-2.84 2.84,-2.84 1.56,0 2.84,1.27 2.84,2.84 C 2.84,4.4 1.56,5.67 0,5.67 m 0.02,-7.19 c -2.39,0 -4.34,1.95 -4.34,4.35 0,2.41 1.95,4.36 4.34,4.36 h 7.13 v -8.71 z" />
    </g>
    <g
   transform="matrix(2.6404009,0,0,-2.6404009,573.17826,237.90838)"
   id="D12">
        <path
   inkscape:connector-curvature="0"
   id="path2098"
   style="fill:#8b7866;fill-rule:nonzero"
   d="m -2.84,-2.84 c -1.57,0 -2.84,1.28 -2.84,2.84 0,1.57 1.27,2.84 2.84,2.84 C -1.27,2.84 0,1.57 0,0 0,-1.56 -1.27,-2.84 -2.84,-2.84" />
    </g>
    <g
   id="g2103"
   transform="matrix(0,2.6404009,-2.6404009,0,573.18459,256.77984)">
        <path
   inkscape:connector-curvature="0"
   id="path2101"
   style="fill:#ffffff;fill-rule:nonzero"
   d="M 0,5.675 C -1.563,5.675 -2.837,4.421 -2.837,2.838 -2.837,1.274 -1.563,0 0,0 Z" />
    </g>
    <g
   id="g2107"
   transform="matrix(0,2.6404009,-2.6404009,0,536.89918,237.90838)">
        <path
   inkscape:connector-curvature="0"
   id="path2105"
   style="fill:#b6afa8;fill-rule:nonzero"
   d="M 0,5.68 C -1.57,5.68 -2.84,4.41 -2.84,2.84 -2.84,1.27 -1.57,0 0,0 1.56,0 2.84,1.27 2.84,2.84 2.84,4.41 1.56,5.68 0,5.68 m 0.02,-7.19 c -2.39,0 -4.34,1.95 -4.34,4.34 0,2.41 1.95,4.36 4.34,4.36 h 7.13 v -8.7 z" />
    </g>
    <g
   transform="matrix(2.6404009,0,0,-2.6404009,536.89918,237.90838)"
   id="D11">
        <path
   inkscape:connector-curvature="0"
   id="path2109"
   style="fill:#8b7866;fill-rule:nonzero"
   d="m -2.84,-2.84 c -1.57,0 -2.84,1.28 -2.84,2.84 0,1.57 1.27,2.84 2.84,2.84 C -1.27,2.84 0,1.57 0,0 0,-1.56 -1.27,-2.84 -2.84,-2.84" />
    </g>
    <g
   id="g2114"
   transform="matrix(0,2.6404009,-2.6404009,0,536.91819,256.77984)">
        <path
   inkscape:connector-curvature="0"
   id="path2112"
   style="fill:#ffffff;fill-rule:nonzero"
   d="M 0,5.675 C -1.563,5.675 -2.837,4.421 -2.837,2.838 -2.837,1.274 -1.563,0 0,0 Z" />
    </g>
    <g
   id="g2118"
   transform="matrix(0,2.6404009,-2.6404009,0,500.6201,237.90838)">
        <path
   inkscape:connector-curvature="0"
   id="path2116"
   style="fill:#b6afa8;fill-rule:nonzero"
   d="m 0,5.67 c -1.57,0 -2.84,-1.27 -2.84,-2.84 0,-1.57 1.27,-2.84 2.84,-2.84 1.56,0 2.84,1.27 2.84,2.84 C 2.84,4.4 1.56,5.67 0,5.67 m 0.02,-7.19 c -2.39,0 -4.34,1.95 -4.34,4.35 0,2.41 1.95,4.36 4.34,4.36 h 7.13 v -8.71 z" />
    </g>
    <g
   transform="matrix(2.6404009,0,0,-2.6404009,500.64545,237.90838)"
   id="D10">
        <path
   inkscape:connector-curvature="0"
   id="path2120"
   style="fill:#8b7866;fill-rule:nonzero"
   d="m -2.84,-2.84 c -1.57,0 -2.84,1.28 -2.84,2.84 0,1.57 1.27,2.84 2.84,2.84 C -1.27,2.84 0,1.57 0,0 0,-1.56 -1.27,-2.84 -2.84,-2.84" />
    </g>
    <g
   id="g2125"
   transform="matrix(0,2.6404009,-2.6404009,0,500.64545,256.77984)">
        <path
   inkscape:connector-curvature="0"
   id="path2123"
   style="fill:#ffffff;fill-rule:nonzero"
   d="M 0,5.675 C -1.563,5.675 -2.837,4.421 -2.837,2.838 -2.837,1.274 -1.563,0 0,0 Z" />
    </g>
    <g
   id="g2129"
   transform="matrix(0,2.6404009,-2.6404009,0,464.34102,237.90838)">
        <path
   inkscape:connector-curvature="0"
   id="path2127"
   style="fill:#b6afa8;fill-rule:nonzero"
   d="m 0,5.67 c -1.57,0 -2.84,-1.27 -2.84,-2.84 0,-1.57 1.27,-2.84 2.84,-2.84 1.56,0 2.84,1.27 2.84,2.84 C 2.84,4.4 1.56,5.67 0,5.67 m 0.02,-7.19 c -2.39,0 -4.34,1.95 -4.34,4.34 0,2.42 1.95,4.37 4.34,4.37 h 7.13 v -8.71 z" />
    </g>
    <g
   transform="matrix(2.6404009,0,0,-2.6404009,464.36637,237.90838)"
   id="D9">
        <path
   inkscape:connector-curvature="0"
   id="path2131"
   style="fill:#8b7866;fill-rule:nonzero"
   d="m -2.84,-2.84 c -1.57,0 -2.84,1.28 -2.84,2.84 0,1.57 1.27,2.84 2.84,2.84 C -1.27,2.84 0,1.57 0,0 0,-1.56 -1.27,-2.84 -2.84,-2.84" />
    </g>
    <g
   id="g2136"
   transform="matrix(0,2.6404009,-2.6404009,0,464.37904,256.77984)">
        <path
   inkscape:connector-curvature="0"
   id="path2134"
   style="fill:#ffffff;fill-rule:nonzero"
   d="M 0,5.675 C -1.563,5.675 -2.837,4.42 -2.837,2.838 -2.837,1.274 -1.563,0 0,0 Z" />
    </g>
    <g
   id="g2140"
   transform="matrix(0,2.6404009,-2.6404009,0,428.06194,237.90838)">
        <path
   inkscape:connector-curvature="0"
   id="path2138"
   style="fill:#b6afa8;fill-rule:nonzero"
   d="m 0,5.66 c -1.57,0 -2.84,-1.27 -2.84,-2.84 0,-1.56 1.27,-2.84 2.84,-2.84 1.56,0 2.84,1.28 2.84,2.84 0,1.57 -1.28,2.84 -2.84,2.84 m 0.02,-7.18 c -2.39,0 -4.34,1.94 -4.34,4.34 0,2.41 1.95,4.36 4.34,4.36 h 7.13 v -8.7 z" />
    </g>
    <g
   transform="matrix(2.6404009,0,0,-2.6404009,428.11264,237.90838)"
   id="D8">
        <path
   inkscape:connector-curvature="0"
   id="path2142"
   style="fill:#8b7866;fill-rule:nonzero"
   d="m -2.84,-2.84 c -1.57,0 -2.84,1.28 -2.84,2.84 0,1.57 1.27,2.84 2.84,2.84 C -1.28,2.84 0,1.57 0,0 0,-1.56 -1.28,-2.84 -2.84,-2.84" />
    </g>
    <g
   id="g2147"
   transform="matrix(0,2.6404009,-2.6404009,0,428.11264,256.77984)">
        <path
   inkscape:connector-curvature="0"
   id="path2145"
   style="fill:#ffffff;fill-rule:nonzero"
   d="M 0,5.675 C -1.563,5.675 -2.837,4.42 -2.837,2.838 -2.837,1.274 -1.563,0 0,0 Z" />
    </g>
    <g
   id="g2151"
   transform="matrix(0,2.6404009,-2.6404009,0,391.80821,237.90838)">
        <path
   inkscape:connector-curvature="0"
   id="path2149"
   style="fill:#b6afa8;fill-rule:nonzero"
   d="m 0,5.67 c -1.57,0 -2.84,-1.27 -2.84,-2.84 0,-1.57 1.27,-2.84 2.84,-2.84 1.56,0 2.84,1.27 2.84,2.84 C 2.84,4.4 1.56,5.67 0,5.67 m 0.02,-7.19 c -2.39,0 -4.34,1.95 -4.34,4.34 0,2.42 1.95,4.37 4.34,4.37 h 7.13 v -8.71 z" />
    </g>
    <g
   transform="matrix(2.6404009,0,0,-2.6404009,391.83356,237.90838)"
   id="D7">
        <path
   inkscape:connector-curvature="0"
   id="path2153"
   style="fill:#8b7866;fill-rule:nonzero"
   d="m -2.84,-2.84 c -1.57,0 -2.84,1.28 -2.84,2.84 0,1.57 1.27,2.84 2.84,2.84 C -1.27,2.84 0,1.57 0,0 0,-1.56 -1.27,-2.84 -2.84,-2.84" />
    </g>
    <g
   id="g2158"
   transform="matrix(0,2.6404009,-2.6404009,0,391.84623,256.77984)">
        <path
   inkscape:connector-curvature="0"
   id="path2156"
   style="fill:#ffffff;fill-rule:nonzero"
   d="M 0,5.675 C -1.563,5.675 -2.837,4.42 -2.837,2.837 -2.837,1.274 -1.563,0 0,0 Z" />
    </g>
    <g
   id="g2162"
   transform="matrix(0,2.6404009,-2.6404009,0,355.55448,237.90838)">
        <path
   inkscape:connector-curvature="0"
   id="path2160"
   style="fill:#b6afa8;fill-rule:nonzero"
   d="M 0,5.68 C -1.57,5.68 -2.84,4.4 -2.84,2.84 -2.84,1.27 -1.57,0 0,0 1.56,0 2.84,1.27 2.84,2.84 2.84,4.4 1.56,5.68 0,5.68 m 0.02,-7.19 c -2.39,0 -4.34,1.95 -4.34,4.34 0,2.41 1.95,4.36 4.34,4.36 h 7.13 v -8.7 z" />
    </g>
    <g
   transform="matrix(2.6404009,0,0,-2.6404009,355.55448,237.90838)"
   id="D6">
        <path
   inkscape:connector-curvature="0"
   id="path2164"
   style="fill:#8b7866;fill-rule:nonzero"
   d="m -2.84,-2.84 c -1.56,0 -2.84,1.28 -2.84,2.84 0,1.57 1.28,2.84 2.84,2.84 C -1.27,2.84 0,1.57 0,0 0,-1.56 -1.27,-2.84 -2.84,-2.84" />
    </g>
    <g
   id="g2169"
   transform="matrix(0,2.6404009,-2.6404009,0,355.57349,256.77984)">
        <path
   inkscape:connector-curvature="0"
   id="path2167"
   style="fill:#ffffff;fill-rule:nonzero"
   d="M 0,5.675 C -1.563,5.675 -2.837,4.42 -2.837,2.837 -2.837,1.274 -1.563,0 0,0 Z" />
    </g>
    <g
   id="g2173"
   transform="matrix(0,2.6404009,-2.6404009,0,319.2754,237.90838)">
        <path
   inkscape:connector-curvature="0"
   id="path2171"
   style="fill:#b6afa8;fill-rule:nonzero"
   d="m 0,5.67 c -1.57,0 -2.84,-1.27 -2.84,-2.84 0,-1.57 1.27,-2.84 2.84,-2.84 1.56,0 2.84,1.27 2.84,2.84 C 2.84,4.4 1.56,5.67 0,5.67 m 0.02,-7.19 c -2.39,0 -4.34,1.95 -4.34,4.35 0,2.41 1.95,4.36 4.34,4.36 h 7.13 v -8.71 z" />
    </g>
    <g
   transform="matrix(2.6404009,0,0,-2.6404009,319.30074,237.90838)"
   id="D5">
        <path
   inkscape:connector-curvature="0"
   id="path2175"
   style="fill:#9e846d;fill-rule:nonzero"
   d="m -2.84,-2.84 c -1.57,0 -2.84,1.28 -2.84,2.84 0,1.57 1.27,2.84 2.84,2.84 C -1.27,2.84 0,1.57 0,0 0,-1.56 -1.27,-2.84 -2.84,-2.84" />
    </g>
    <g
   id="g2180"
   transform="matrix(0,2.6404009,-2.6404009,0,319.30708,256.77984)">
        <path
   inkscape:connector-curvature="0"
   id="path2178"
   style="fill:#ffffff;fill-rule:nonzero"
   d="M 0,5.675 C -1.563,5.675 -2.837,4.421 -2.837,2.838 -2.837,1.274 -1.563,0 0,0 Z" />
    </g>
    <g
   id="g2184"
   transform="matrix(0,2.6404009,-2.6404009,0,283.028,237.90838)">
        <path
   inkscape:connector-curvature="0"
   id="path2182"
   style="fill:#b6afa8;fill-rule:nonzero"
   d="M 0,5.68 C -1.57,5.68 -2.84,4.41 -2.84,2.84 -2.84,1.27 -1.57,0 0,0 1.56,0 2.84,1.27 2.84,2.84 2.84,4.41 1.56,5.68 0,5.68 m 0.02,-7.19 c -2.39,0 -4.34,1.95 -4.34,4.34 0,2.41 1.95,4.36 4.34,4.36 h 7.13 v -8.7 z" />
    </g>
    <g
   transform="matrix(2.6404009,0,0,-2.6404009,283.028,237.90838)"
   id="D4">
        <path
   inkscape:connector-curvature="0"
   id="path2186"
   style="fill:#9e846d;fill-rule:nonzero"
   d="m -2.84,-2.84 c -1.57,0 -2.84,1.28 -2.84,2.84 0,1.57 1.27,2.84 2.84,2.84 C -1.27,2.84 0,1.57 0,0 0,-1.56 -1.27,-2.84 -2.84,-2.84" />
    </g>
    <g
   id="g2191"
   transform="matrix(0,2.6404009,-2.6404009,0,283.04068,256.77984)">
        <path
   inkscape:connector-curvature="0"
   id="path2189"
   style="fill:#ffffff;fill-rule:nonzero"
   d="M 0,5.675 C -1.563,5.675 -2.837,4.421 -2.837,2.838 -2.837,1.274 -1.563,0 0,0 Z" />
    </g>
    <g
   id="g2195"
   transform="matrix(0,2.6404009,-2.6404009,0,246.74892,237.90838)">
        <path
   inkscape:connector-curvature="0"
   id="path2193"
   style="fill:#b6afa8;fill-rule:nonzero"
   d="m 0,5.67 c -1.57,0 -2.84,-1.27 -2.84,-2.84 0,-1.57 1.27,-2.84 2.84,-2.84 1.56,0 2.84,1.27 2.84,2.84 C 2.84,4.4 1.56,5.67 0,5.67 m 0.02,-7.19 c -2.39,0 -4.34,1.95 -4.34,4.35 0,2.41 1.95,4.36 4.34,4.36 h 7.13 v -8.71 z" />
    </g>
    <g
   transform="matrix(2.6404009,0,0,-2.6404009,246.77427,237.90838)"
   id="D3">
        <path
   inkscape:connector-curvature="0"
   id="path2197"
   style="fill:#9e846d;fill-rule:nonzero"
   d="m -2.84,-2.84 c -1.57,0 -2.84,1.28 -2.84,2.84 0,1.57 1.27,2.84 2.84,2.84 C -1.27,2.84 0,1.57 0,0 0,-1.56 -1.27,-2.84 -2.84,-2.84" />
    </g>
    <g
   id="g2202"
   transform="matrix(0,2.6404009,-2.6404009,0,246.77427,256.77984)">
        <path
   inkscape:connector-curvature="0"
   id="path2200"
   style="fill:#ffffff;fill-rule:nonzero"
   d="M 0,5.675 C -1.563,5.675 -2.837,4.421 -2.837,2.838 -2.837,1.274 -1.563,0 0,0 Z" />
    </g>
    <g
   id="g2206"
   transform="matrix(0,2.6404009,-2.6404009,0,210.46984,237.90838)">
        <path
   inkscape:connector-curvature="0"
   id="path2204"
   style="fill:#b6afa8;fill-rule:nonzero"
   d="m 0,5.67 c -1.57,0 -2.84,-1.27 -2.84,-2.84 0,-1.57 1.27,-2.84 2.84,-2.84 1.56,0 2.84,1.27 2.84,2.84 C 2.84,4.4 1.56,5.67 0,5.67 m 0.02,-7.19 c -2.39,0 -4.34,1.95 -4.34,4.34 0,2.42 1.95,4.37 4.34,4.37 h 7.13 v -8.71 z" />
    </g>
    <g
   transform="matrix(2.6404009,0,0,-2.6404009,210.49519,237.90838)"
   id="D2">
        <path
   inkscape:connector-curvature="0"
   id="path2208"
   style="fill:#9e846d;fill-rule:nonzero"
   d="m -2.84,-2.84 c -1.57,0 -2.84,1.28 -2.84,2.84 0,1.57 1.27,2.84 2.84,2.84 C -1.27,2.84 0,1.57 0,0 0,-1.56 -1.27,-2.84 -2.84,-2.84" />
    </g>
    <g
   id="g2213"
   transform="matrix(0,2.6404009,-2.6404009,0,210.50153,256.77984)">
        <path
   inkscape:connector-curvature="0"
   id="path2211"
   style="fill:#ffffff;fill-rule:nonzero"
   d="M 0,5.675 C -1.563,5.675 -2.837,4.42 -2.837,2.838 -2.837,1.274 -1.563,0 0,0 Z" />
    </g>
    <g
   id="g2217"
   transform="matrix(0,2.6404009,-2.6404009,0,174.18443,237.90838)">
        <path
   inkscape:connector-curvature="0"
   id="path2215"
   style="fill:#b6afa8;fill-rule:nonzero"
   d="m 0,5.66 c -1.57,0 -2.84,-1.27 -2.84,-2.84 0,-1.56 1.27,-2.84 2.84,-2.84 1.56,0 2.84,1.28 2.84,2.84 0,1.57 -1.28,2.84 -2.84,2.84 m 0.02,-7.18 c -2.39,0 -4.34,1.95 -4.34,4.34 0,2.41 1.95,4.36 4.34,4.36 h 7.13 v -8.7 z" />
    </g>
    <g
   transform="matrix(2.6404009,0,0,-2.6404009,174.24146,237.90838)"
   id="GND2">
        <path
   inkscape:connector-curvature="0"
   id="path2219"
   style="fill:#9e846d;fill-rule:nonzero"
   d="m -2.84,-2.84 c -1.57,0 -2.84,1.28 -2.84,2.84 0,1.57 1.27,2.84 2.84,2.84 C -1.28,2.84 0,1.57 0,0 0,-1.56 -1.28,-2.84 -2.84,-2.84" />
    </g>
    <g
   id="g2224"
   transform="matrix(0,2.6404009,-2.6404009,0,174.23512,256.77984)">
        <path
   inkscape:connector-curvature="0"
   id="path2222"
   style="fill:#ffffff;fill-rule:nonzero"
   d="M 0,5.675 C -1.563,5.675 -2.837,4.42 -2.837,2.837 -2.837,1.274 -1.563,0 0,0 Z" />
    </g>
    <g
   id="g2228"
   transform="matrix(0,2.6404009,-2.6404009,0,137.93703,237.90838)">
        <path
   inkscape:connector-curvature="0"
   id="path2226"
   style="fill:#b6afa8;fill-rule:nonzero"
   d="m 0,5.67 c -1.57,0 -2.84,-1.27 -2.84,-2.84 0,-1.57 1.27,-2.84 2.84,-2.84 1.56,0 2.84,1.27 2.84,2.84 C 2.84,4.4 1.56,5.67 0,5.67 m 0.02,-7.19 c -2.39,0 -4.34,1.95 -4.34,4.34 0,2.42 1.95,4.37 4.34,4.37 h 7.13 v -8.71 z" />
    </g>
    <g
   transform="matrix(2.6404009,0,0,-2.6404009,137.96238,237.90838)"
   id="RESET2">
        <path
   inkscape:connector-curvature="0"
   id="path2230"
   style="fill:#9e846d;fill-rule:nonzero"
   d="m -2.84,-2.84 c -1.57,0 -2.84,1.28 -2.84,2.84 0,1.57 1.27,2.84 2.84,2.84 C -1.27,2.84 0,1.57 0,0 0,-1.56 -1.27,-2.84 -2.84,-2.84" />
    </g>
    <g
   id="g2235"
   transform="matrix(0,2.6404009,-2.6404009,0,137.96872,256.77984)">
        <path
   inkscape:connector-curvature="0"
   id="path2233"
   style="fill:#ffffff;fill-rule:nonzero"
   d="M 0,5.675 C -1.563,5.675 -2.837,4.42 -2.837,2.837 -2.837,1.274 -1.563,0 0,0 Z" />
    </g>
    <g
   id="g2239"
   transform="matrix(0,2.6404009,-2.6404009,0,101.68203,237.90838)">
        <path
   inkscape:connector-curvature="0"
   id="path2237"
   style="fill:#b6afa8;fill-rule:nonzero"
   d="M 0,5.68 C -1.57,5.68 -2.84,4.4 -2.84,2.84 -2.84,1.27 -1.57,0 0,0 1.56,0 2.84,1.27 2.84,2.84 2.84,4.4 1.56,5.68 0,5.68 m 0.02,-7.19 c -2.39,0 -4.34,1.95 -4.34,4.34 0,2.41 1.95,4.36 4.34,4.36 h 7.13 v -8.7 z" />
    </g>
    <g
   transform="matrix(2.6404009,0,0,-2.6404009,101.68203,237.90838)"
   id="RX">
        <path
   inkscape:connector-curvature="0"
   id="path2241"
   style="fill:#9e846d;fill-rule:nonzero"
   d="m -2.84,-2.84 c -1.56,0 -2.84,1.28 -2.84,2.84 0,1.57 1.28,2.84 2.84,2.84 C -1.27,2.84 0,1.57 0,0 0,-1.56 -1.27,-2.84 -2.84,-2.84" />
    </g>
    <g
   id="g2246"
   transform="matrix(0,2.6404009,-2.6404009,0,101.70104,256.77984)">
        <path
   inkscape:connector-curvature="0"
   id="path2244"
   style="fill:#ffffff;fill-rule:nonzero"
   d="M 0,5.675 C -1.563,5.675 -2.837,4.421 -2.837,2.838 -2.837,1.274 -1.563,0 0,0 Z" />
    </g>
    <g
   id="g2250"
   transform="matrix(0,2.6404009,-2.6404009,0,65.402956,237.90838)">
        <path
   inkscape:connector-curvature="0"
   id="path2248"
   style="fill:#b6afa8;fill-rule:nonzero"
   d="m 0,5.67 c -1.57,0 -2.84,-1.27 -2.84,-2.84 0,-1.57 1.27,-2.84 2.84,-2.84 1.56,0 2.84,1.27 2.84,2.84 C 2.84,4.4 1.56,5.67 0,5.67 m 0.02,-7.19 c -2.39,0 -4.34,1.95 -4.34,4.35 0,2.41 1.95,4.36 4.34,4.36 h 7.13 v -8.71 z" />
    </g>
    <g
   transform="matrix(2.6404009,0,0,-2.6404009,65.429571,237.90838)"
   id="TX">
        <path
   inkscape:connector-curvature="0"
   id="path2252"
   style="fill:#9e846d;fill-rule:nonzero"
   d="m -2.84,-2.84 c -1.57,0 -2.84,1.28 -2.84,2.84 0,1.57 1.27,2.84 2.84,2.84 C -1.27,2.84 0,1.57 0,0 0,-1.56 -1.27,-2.84 -2.84,-2.84" />
    </g>
    <g
   id="g2257"
   transform="matrix(0,2.6404009,-2.6404009,0,65.433373,256.77984)">
        <path
   inkscape:connector-curvature="0"
   id="path2255"
   style="fill:#ffffff;fill-rule:nonzero"
   d="M 0,5.675 C -1.563,5.675 -2.837,4.421 -2.837,2.838 -2.837,1.274 -1.563,0 0,0 Z" />
    </g>
    <g
   id="g2261"
   transform="matrix(0,2.6404009,-2.6404009,0,65.428937,18.884132)">
        <path
   inkscape:connector-curvature="0"
   id="path2259"
   style="fill:#b6afa8;fill-rule:nonzero"
   d="m 0,5.69 c -1.569,0 -2.84,-1.27 -2.84,-2.84 0,-1.57 1.271,-2.84 2.84,-2.84 1.57,0 2.84,1.27 2.84,2.84 0,1.57 -1.27,2.84 -2.84,2.84 m -0.03,-7.2 H -7.149 V 7.2 h 7.119 c 2.39,0 4.341,-1.95 4.341,-4.34 0,-2.42 -1.951,-4.37 -4.341,-4.37" />
    </g>
    <g
   transform="matrix(2.6404009,0,0,-2.6404009,65.40359,18.884132)"
   id="VIN">
        <path
   inkscape:connector-curvature="0"
   id="path2263"
   style="fill:#9e846d;fill-rule:nonzero"
   d="m -2.84,-2.84 c -1.57,0 -2.84,1.27 -2.84,2.84 0,1.569 1.27,2.84 2.84,2.84 C -1.27,2.84 0,1.569 0,0 0,-1.57 -1.27,-2.84 -2.84,-2.84" />
    </g>
    <g
   id="g2268"
   transform="matrix(0,2.6404009,-2.6404009,0,50.398308,0)">
        <path
   inkscape:connector-curvature="0"
   id="path2266"
   style="fill:#ffffff;fill-rule:nonzero"
   d="m 0,-5.675 c 1.563,0 2.838,1.255 2.838,2.838 C 2.838,-1.274 1.563,0 0,0 Z" />
    </g>
    <g
   id="g2272"
   transform="matrix(0,2.6404009,-2.6404009,0,101.68203,18.884132)">
        <path
   inkscape:connector-curvature="0"
   id="path2270"
   style="fill:#b6afa8;fill-rule:nonzero"
   d="M 0,5.68 C -1.569,5.68 -2.84,4.41 -2.84,2.84 -2.84,1.28 -1.569,0 0,0 1.57,0 2.84,1.28 2.84,2.84 2.84,4.41 1.57,5.68 0,5.68 m -0.03,-7.19 h -7.119 v 8.7 h 7.119 c 2.39,0 4.341,-1.95 4.341,-4.34 0,-2.41 -1.951,-4.36 -4.341,-4.36" />
    </g>
    <g
   transform="matrix(2.6404009,0,0,-2.6404009,101.68203,18.884132)"
   id="GND">
        <path
   inkscape:connector-curvature="0"
   id="path2274"
   style="fill:#9e846d;fill-rule:nonzero"
   d="m -2.84,-2.84 c -1.57,0 -2.84,1.27 -2.84,2.84 0,1.569 1.27,2.84 2.84,2.84 C -1.28,2.84 0,1.569 0,0 0,-1.57 -1.28,-2.84 -2.84,-2.84" />
    </g>
    <g
   id="g2279"
   transform="matrix(0,2.6404009,-2.6404009,0,86.666616,0)">
        <path
   inkscape:connector-curvature="0"
   id="path2277"
   style="fill:#ffffff;fill-rule:nonzero"
   d="m 0,-5.675 c 1.563,0 2.838,1.255 2.838,2.838 C 2.838,-1.274 1.563,0 0,0 Z" />
    </g>
    <g
   id="g2283"
   transform="matrix(0,2.6404009,-2.6404009,0,137.96238,18.884132)">
        <path
   inkscape:connector-curvature="0"
   id="path2281"
   style="fill:#b6afa8;fill-rule:nonzero"
   d="m 0,5.69 c -1.569,0 -2.84,-1.27 -2.84,-2.84 0,-1.57 1.271,-2.84 2.84,-2.84 1.57,0 2.84,1.27 2.84,2.84 0,1.57 -1.27,2.84 -2.84,2.84 m -0.03,-7.2 H -7.149 V 7.2 h 7.119 c 2.39,0 4.341,-1.95 4.341,-4.35 0,-2.41 -1.951,-4.36 -4.341,-4.36" />
    </g>
    <g
   transform="matrix(2.6404009,0,0,-2.6404009,137.93703,18.884132)"
   id="RST">
        <path
   inkscape:connector-curvature="0"
   id="path2285"
   style="fill:#9e846d;fill-rule:nonzero"
   d="m -2.84,-2.84 c -1.57,0 -2.84,1.27 -2.84,2.84 0,1.569 1.27,2.84 2.84,2.84 C -1.27,2.84 0,1.569 0,0 0,-1.57 -1.27,-2.84 -2.84,-2.84" />
    </g>
    <g
   id="g2290"
   transform="matrix(0,2.6404009,-2.6404009,0,122.93302,0)">
        <path
   inkscape:connector-curvature="0"
   id="path2288"
   style="fill:#ffffff;fill-rule:nonzero"
   d="m 0,-5.675 c 1.563,0 2.838,1.254 2.838,2.837 C 2.838,-1.274 1.563,0 0,0 Z" />
    </g>
    <g
   id="g2294"
   transform="matrix(0,2.6404009,-2.6404009,0,174.21611,18.884132)">
        <path
   inkscape:connector-curvature="0"
   id="path2292"
   style="fill:#b6afa8;fill-rule:nonzero"
   d="M 0,5.68 C -1.569,5.68 -2.84,4.41 -2.84,2.84 -2.84,1.27 -1.569,0 0,0 1.57,0 2.84,1.27 2.84,2.84 2.84,4.41 1.57,5.68 0,5.68 m -0.03,-7.19 h -7.119 v 8.7 h 7.119 c 2.39,0 4.341,-1.95 4.341,-4.34 0,-2.41 -1.951,-4.36 -4.341,-4.36" />
    </g>
    <g
   transform="matrix(2.6404009,0,0,-2.6404009,174.21611,18.884132)"
   serif:id="5V"
   id="_5V">
        <path
   inkscape:connector-curvature="0"
   id="path2296"
   style="fill:#9e846d;fill-rule:nonzero"
   d="m -2.84,-2.84 c -1.57,0 -2.84,1.27 -2.84,2.84 0,1.569 1.27,2.84 2.84,2.84 C -1.27,2.84 0,1.569 0,0 0,-1.57 -1.27,-2.84 -2.84,-2.84" />
    </g>
    <g
   id="g2301"
   transform="matrix(0,2.6404009,-2.6404009,0,159.20386,0)">
        <path
   inkscape:connector-curvature="0"
   id="path2299"
   style="fill:#ffffff;fill-rule:nonzero"
   d="m 0,-5.675 c 1.563,0 2.838,1.254 2.838,2.837 C 2.838,-1.274 1.563,0 0,0 Z" />
    </g>
    <g
   id="g2305"
   transform="matrix(0,2.6404009,-2.6404009,0,210.49519,18.884132)">
        <path
   inkscape:connector-curvature="0"
   id="path2303"
   style="fill:#b6afa8;fill-rule:nonzero"
   d="m 0,5.69 c -1.569,0 -2.84,-1.28 -2.84,-2.84 0,-1.57 1.271,-2.84 2.84,-2.84 1.57,0 2.84,1.27 2.84,2.84 0,1.56 -1.27,2.84 -2.84,2.84 m -0.03,-7.2 H -7.149 V 7.2 h 7.119 c 2.39,0 4.341,-1.95 4.341,-4.35 0,-2.41 -1.951,-4.36 -4.341,-4.36" />
    </g>
    <g
   transform="matrix(2.6404009,0,0,-2.6404009,210.46984,18.884132)"
   id="A7">
        <path
   inkscape:connector-curvature="0"
   id="path2307"
   style="fill:#9e846d;fill-rule:nonzero"
   d="m -2.84,-2.84 c -1.56,0 -2.84,1.27 -2.84,2.84 0,1.569 1.28,2.84 2.84,2.84 C -1.27,2.84 0,1.569 0,0 0,-1.57 -1.27,-2.84 -2.84,-2.84" />
    </g>
    <g
   id="g2312"
   transform="matrix(0,2.6404009,-2.6404009,0,195.47026,0)">
        <path
   inkscape:connector-curvature="0"
   id="path2310"
   style="fill:#ffffff;fill-rule:nonzero"
   d="m 0,-5.675 c 1.563,0 2.838,1.254 2.838,2.837 C 2.838,-1.274 1.563,0 0,0 Z" />
    </g>
    <g
   id="g2316"
   transform="matrix(0,2.6404009,-2.6404009,0,246.77427,18.884132)">
        <path
   inkscape:connector-curvature="0"
   id="path2314"
   style="fill:#b6afa8;fill-rule:nonzero"
   d="m 0,5.69 c -1.569,0 -2.84,-1.27 -2.84,-2.84 0,-1.57 1.271,-2.84 2.84,-2.84 1.57,0 2.84,1.27 2.84,2.84 0,1.57 -1.27,2.84 -2.84,2.84 m -0.03,-7.2 H -7.149 V 7.2 h 7.119 c 2.39,0 4.341,-1.95 4.341,-4.34 0,-2.42 -1.951,-4.37 -4.341,-4.37" />
    </g>
    <g
   transform="matrix(2.6404009,0,0,-2.6404009,246.74258,18.884132)"
   id="A6">
        <path
   inkscape:connector-curvature="0"
   id="path2318"
   style="fill:#9e846d;fill-rule:nonzero"
   d="m -2.84,-2.84 c -1.57,0 -2.84,1.27 -2.84,2.84 0,1.569 1.27,2.84 2.84,2.84 C -1.27,2.84 0,1.569 0,0 0,-1.57 -1.27,-2.84 -2.84,-2.84" />
    </g>
    <g
   id="g2323"
   transform="matrix(0,2.6404009,-2.6404009,0,231.73667,0)">
        <path
   inkscape:connector-curvature="0"
   id="path2321"
   style="fill:#ffffff;fill-rule:nonzero"
   d="m 0,-5.675 c 1.563,0 2.838,1.255 2.838,2.837 C 2.838,-1.274 1.563,0 0,0 Z" />
    </g>
    <g
   id="g2327"
   transform="matrix(0,2.6404009,-2.6404009,0,283.028,18.884132)">
        <path
   inkscape:connector-curvature="0"
   id="path2325"
   style="fill:#b6afa8;fill-rule:nonzero"
   d="m 0,5.68 c -1.569,0 -2.84,-1.27 -2.84,-2.83 0,-1.57 1.271,-2.84 2.84,-2.84 1.57,0 2.84,1.27 2.84,2.84 0,1.56 -1.27,2.83 -2.84,2.83 m -0.03,-7.19 h -7.119 v 8.7 h 7.119 c 2.39,0 4.341,-1.95 4.341,-4.34 0,-2.41 -1.951,-4.36 -4.341,-4.36" />
    </g>
    <g
   transform="matrix(2.6404009,0,0,-2.6404009,283.00899,18.896806)"
   id="A5">
        <path
   inkscape:connector-curvature="0"
   id="path2329"
   style="fill:#9e846d;fill-rule:nonzero"
   d="m -2.845,-2.835 c -1.56,0 -2.83,1.27 -2.83,2.84 0,1.569 1.27,2.84 2.83,2.84 1.57,0 2.84,-1.271 2.84,-2.84 0,-1.57 -1.27,-2.84 -2.84,-2.84" />
    </g>
    <g
   id="g2334"
   transform="matrix(0,2.6404009,-2.6404009,0,268.00308,0)">
        <path
   inkscape:connector-curvature="0"
   id="path2332"
   style="fill:#ffffff;fill-rule:nonzero"
   d="m 0,-5.675 c 1.563,0 2.838,1.255 2.838,2.837 C 2.838,-1.274 1.563,0 0,0 Z" />
    </g>
    <g
   id="g2338"
   transform="matrix(0,2.6404009,-2.6404009,0,319.30708,18.884132)">
        <path
   inkscape:connector-curvature="0"
   id="path2336"
   style="fill:#b6afa8;fill-rule:nonzero"
   d="m 0,5.69 c -1.569,0 -2.84,-1.27 -2.84,-2.84 0,-1.57 1.271,-2.84 2.84,-2.84 1.57,0 2.84,1.27 2.84,2.84 0,1.57 -1.27,2.84 -2.84,2.84 m -0.03,-7.2 H -7.149 V 7.2 h 7.119 c 2.39,0 4.341,-1.95 4.341,-4.34 0,-2.42 -1.951,-4.37 -4.341,-4.37" />
    </g>
    <g
   transform="matrix(2.6404009,0,0,-2.6404009,319.2754,18.884132)"
   id="A4">
        <path
   inkscape:connector-curvature="0"
   id="path2340"
   style="fill:#9e846d;fill-rule:nonzero"
   d="m -2.84,-2.84 c -1.57,0 -2.84,1.27 -2.84,2.84 0,1.569 1.27,2.84 2.84,2.84 C -1.27,2.84 0,1.569 0,0 0,-1.57 -1.27,-2.84 -2.84,-2.84" />
    </g>
    <g
   id="g2345"
   transform="matrix(0,2.6404009,-2.6404009,0,304.27582,0)">
        <path
   inkscape:connector-curvature="0"
   id="path2343"
   style="fill:#ffffff;fill-rule:nonzero"
   d="m 0,-5.675 c 1.563,0 2.838,1.255 2.838,2.838 C 2.838,-1.274 1.563,0 0,0 Z" />
    </g>
    <g
   id="g2349"
   transform="matrix(0,2.6404009,-2.6404009,0,355.55448,18.884132)">
        <path
   inkscape:connector-curvature="0"
   id="path2347"
   style="fill:#b6afa8;fill-rule:nonzero"
   d="M 0,5.68 C -1.569,5.68 -2.84,4.41 -2.84,2.84 -2.84,1.28 -1.569,0 0,0 1.57,0 2.84,1.28 2.84,2.84 2.84,4.41 1.57,5.68 0,5.68 m -0.03,-7.19 h -7.119 v 8.7 h 7.119 c 2.39,0 4.341,-1.95 4.341,-4.34 0,-2.41 -1.951,-4.36 -4.341,-4.36" />
    </g>
    <g
   transform="matrix(2.6404009,0,0,-2.6404009,355.55448,18.884132)"
   id="A3">
        <path
   inkscape:connector-curvature="0"
   id="path2351"
   style="fill:#8b7866;fill-rule:nonzero"
   d="m -2.84,-2.84 c -1.57,0 -2.84,1.27 -2.84,2.84 0,1.569 1.27,2.84 2.84,2.84 C -1.28,2.84 0,1.569 0,0 0,-1.57 -1.28,-2.84 -2.84,-2.84" />
    </g>
    <g
   id="g2356"
   transform="matrix(0,2.6404009,-2.6404009,0,340.54222,0)">
        <path
   inkscape:connector-curvature="0"
   id="path2354"
   style="fill:#ffffff;fill-rule:nonzero"
   d="m 0,-5.675 c 1.563,0 2.838,1.254 2.838,2.837 C 2.838,-1.274 1.563,0 0,0 Z" />
    </g>
    <g
   id="g2360"
   transform="matrix(0,2.6404009,-2.6404009,0,391.83356,18.884132)">
        <path
   inkscape:connector-curvature="0"
   id="path2358"
   style="fill:#b6afa8;fill-rule:nonzero"
   d="m 0,5.69 c -1.569,0 -2.84,-1.27 -2.84,-2.84 0,-1.57 1.271,-2.84 2.84,-2.84 1.57,0 2.84,1.27 2.84,2.84 0,1.57 -1.27,2.84 -2.84,2.84 m -0.03,-7.2 H -7.149 V 7.2 h 7.119 c 2.39,0 4.341,-1.95 4.341,-4.35 0,-2.41 -1.951,-4.36 -4.341,-4.36" />
    </g>
    <g
   transform="matrix(2.6404009,0,0,-2.6404009,391.80821,18.884132)"
   id="A2">
        <path
   inkscape:connector-curvature="0"
   id="path2362"
   style="fill:#8b7866;fill-rule:nonzero"
   d="m -2.84,-2.84 c -1.57,0 -2.84,1.27 -2.84,2.84 0,1.569 1.27,2.84 2.84,2.84 C -1.27,2.84 0,1.569 0,0 0,-1.57 -1.27,-2.84 -2.84,-2.84" />
    </g>
    <g
   id="g2367"
   transform="matrix(0,2.6404009,-2.6404009,0,376.80863,0)">
        <path
   inkscape:connector-curvature="0"
   id="path2365"
   style="fill:#ffffff;fill-rule:nonzero"
   d="m 0,-5.675 c 1.563,0 2.838,1.254 2.838,2.837 C 2.838,-1.274 1.563,0 0,0 Z" />
    </g>
    <g
   id="g2371"
   transform="matrix(0,2.6404009,-2.6404009,0,428.08729,18.884132)">
        <path
   inkscape:connector-curvature="0"
   id="path2369"
   style="fill:#b6afa8;fill-rule:nonzero"
   d="M 0,5.68 C -1.569,5.68 -2.84,4.41 -2.84,2.84 -2.84,1.27 -1.569,0 0,0 1.57,0 2.84,1.27 2.84,2.84 2.84,4.41 1.57,5.68 0,5.68 m -0.03,-7.19 h -7.119 v 8.7 h 7.119 c 2.39,0 4.341,-1.95 4.341,-4.34 0,-2.42 -1.951,-4.36 -4.341,-4.36" />
    </g>
    <g
   transform="matrix(2.6404009,0,0,-2.6404009,428.08729,18.884132)"
   id="A1">
        <path
   inkscape:connector-curvature="0"
   id="path2373"
   style="fill:#8b7866;fill-rule:nonzero"
   d="m -2.84,-2.84 c -1.57,0 -2.84,1.27 -2.84,2.84 0,1.569 1.27,2.84 2.84,2.84 C -1.27,2.84 0,1.569 0,0 0,-1.57 -1.27,-2.84 -2.84,-2.84" />
    </g>
    <g
   id="g2378"
   transform="matrix(0,2.6404009,-2.6404009,0,413.07504,0)">
        <path
   inkscape:connector-curvature="0"
   id="path2376"
   style="fill:#ffffff;fill-rule:nonzero"
   d="m 0,-5.675 c 1.563,0 2.838,1.254 2.838,2.837 C 2.838,-1.274 1.563,0 0,0 Z" />
    </g>
    <g
   id="g2382"
   transform="matrix(0,2.6404009,-2.6404009,0,464.36637,18.884132)">
        <path
   inkscape:connector-curvature="0"
   id="path2380"
   style="fill:#b6afa8;fill-rule:nonzero"
   d="m 0,5.69 c -1.569,0 -2.84,-1.28 -2.84,-2.84 0,-1.57 1.271,-2.84 2.84,-2.84 1.57,0 2.84,1.27 2.84,2.84 0,1.56 -1.27,2.84 -2.84,2.84 m -0.03,-7.2 H -7.149 V 7.2 h 7.119 c 2.39,0 4.341,-1.95 4.341,-4.35 0,-2.41 -1.951,-4.36 -4.341,-4.36" />
    </g>
    <g
   transform="matrix(2.6404009,0,0,-2.6404009,464.34102,18.884132)"
   id="A0">
        <path
   inkscape:connector-curvature="0"
   id="path2384"
   style="fill:#8b7866;fill-rule:nonzero"
   d="m -2.84,-2.84 c -1.56,0 -2.84,1.27 -2.84,2.84 0,1.569 1.28,2.84 2.84,2.84 C -1.27,2.84 0,1.569 0,0 0,-1.57 -1.27,-2.84 -2.84,-2.84" />
    </g>
    <g
   id="g2389"
   transform="matrix(0,2.6404009,-2.6404009,0,449.34778,0)">
        <path
   inkscape:connector-curvature="0"
   id="path2387"
   style="fill:#ffffff;fill-rule:nonzero"
   d="m 0,-5.675 c 1.563,0 2.838,1.255 2.838,2.837 C 2.838,-1.274 1.563,0 0,0 Z" />
    </g>
    <g
   id="g2393"
   transform="matrix(0,2.6404009,-2.6404009,0,500.64545,18.884132)">
        <path
   inkscape:connector-curvature="0"
   id="path2391"
   style="fill:#b6afa8;fill-rule:nonzero"
   d="m 0,5.69 c -1.569,0 -2.84,-1.27 -2.84,-2.84 0,-1.57 1.271,-2.84 2.84,-2.84 1.57,0 2.84,1.27 2.84,2.84 0,1.57 -1.27,2.84 -2.84,2.84 m -0.03,-7.2 H -7.149 V 7.2 h 7.119 c 2.39,0 4.341,-1.95 4.341,-4.34 0,-2.42 -1.951,-4.37 -4.341,-4.37" />
    </g>
    <g
   transform="matrix(2.6404009,0,0,-2.6404009,500.6201,18.884132)"
   id="AREF">
        <path
   inkscape:connector-curvature="0"
   id="path2395"
   style="fill:#8b7866;fill-rule:nonzero"
   d="m -2.84,-2.84 c -1.57,0 -2.84,1.27 -2.84,2.84 0,1.569 1.27,2.84 2.84,2.84 C -1.27,2.84 0,1.569 0,0 0,-1.57 -1.27,-2.84 -2.84,-2.84" />
    </g>
    <g
   id="g2400"
   transform="matrix(0,2.6404009,-2.6404009,0,485.61418,0)">
        <path
   inkscape:connector-curvature="0"
   id="path2398"
   style="fill:#ffffff;fill-rule:nonzero"
   d="m 0,-5.675 c 1.563,0 2.838,1.255 2.838,2.837 C 2.838,-1.274 1.563,0 0,0 Z" />
    </g>
    <g
   id="g2404"
   transform="matrix(0,2.6404009,-2.6404009,0,536.89918,18.884132)">
        <path
   inkscape:connector-curvature="0"
   id="path2402"
   style="fill:#b6afa8;fill-rule:nonzero"
   d="m 0,5.68 c -1.569,0 -2.84,-1.27 -2.84,-2.84 0,-1.56 1.271,-2.83 2.84,-2.83 1.57,0 2.84,1.27 2.84,2.83 0,1.57 -1.27,2.84 -2.84,2.84 m -0.03,-7.19 h -7.119 v 8.7 h 7.119 c 2.39,0 4.341,-1.95 4.341,-4.34 0,-2.41 -1.951,-4.36 -4.341,-4.36" />
    </g>
    <g
   transform="matrix(2.6404009,0,0,-2.6404009,536.8865,18.871458)"
   serif:id="3V"
   id="_3V">
        <path
   inkscape:connector-curvature="0"
   id="path2406"
   style="fill:#8b7866;fill-rule:nonzero"
   d="m -2.835,-2.845 c -1.57,0 -2.84,1.27 -2.84,2.84 0,1.569 1.27,2.84 2.84,2.84 1.56,0 2.83,-1.271 2.83,-2.84 0,-1.57 -1.27,-2.84 -2.83,-2.84" />
    </g>
    <g
   id="g2411"
   transform="matrix(0,2.6404009,-2.6404009,0,521.88059,0)">
        <path
   inkscape:connector-curvature="0"
   id="path2409"
   style="fill:#ffffff;fill-rule:nonzero"
   d="m 0,-5.675 c 1.563,0 2.838,1.255 2.838,2.838 C 2.838,-1.274 1.563,0 0,0 Z" />
    </g>
    <g
   id="g2415"
   transform="matrix(0,2.6404009,-2.6404009,0,573.17826,18.884132)">
        <path
   inkscape:connector-curvature="0"
   id="path2413"
   style="fill:#b6afa8;fill-rule:nonzero"
   d="m 0,5.69 c -1.569,0 -2.84,-1.27 -2.84,-2.84 0,-1.57 1.271,-2.84 2.84,-2.84 1.57,0 2.84,1.27 2.84,2.84 0,1.57 -1.27,2.84 -2.84,2.84 m -0.03,-7.2 H -7.149 V 7.2 h 7.119 c 2.39,0 4.341,-1.95 4.341,-4.35 0,-2.41 -1.951,-4.36 -4.341,-4.36" />
    </g>
    <g
   transform="matrix(2.6404009,0,0,-2.6404009,573.15291,18.884132)"
   id="D13">
        <path
   inkscape:connector-curvature="0"
   id="path2417"
   style="fill:#8b7866;fill-rule:nonzero"
   d="m -2.84,-2.84 c -1.57,0 -2.84,1.27 -2.84,2.84 0,1.569 1.27,2.84 2.84,2.84 C -1.27,2.84 0,1.569 0,0 0,-1.57 -1.27,-2.84 -2.84,-2.84" />
    </g>
    <g
   id="g2422"
   transform="matrix(0,2.6404009,-2.6404009,0,558.147,0)">
        <path
   inkscape:connector-curvature="0"
   id="path2420"
   style="fill:#ffffff;fill-rule:nonzero"
   d="m 0,-5.675 c 1.563,0 2.838,1.254 2.838,2.837 C 2.838,-1.274 1.563,0 0,0 Z" />
    </g>
    
    
    
    
    
    
</svg>
