<svg xmlns="http://www.w3.org/2000/svg" id="Layer_1" data-name="Layer 1" viewBox="0 0 296.932 168.846" version="1.1" width="296.932" height="168.846">
  <defs id="defs4487">
    <style id="style4485">
      .cls-5{fill:#fff}
    </style>
  </defs>
  <path d="M281.882 113.583a16.579 16.579 0 0 0-13.421-16.58 16.579 16.579 0 1 0-25.263-20.525l-3.158 1.184c-2.368-6.316-7.105-13.026-7.105-13.421 5.131-24.869 6.71-55.263-5.132-61.974-11.842-6.71-39.079 5.526-53.684 25.263-9.079-2.368-15-2.763-24.868-2.763-9.869 0-16.974.395-26.053 2.763C110.961 9.767 80.567-4.049 71.093 1.083c-9.474 5.132-12.632 35.921-5.921 63.158-2.763 3.158-4.737 7.105-7.105 13.816l-3.158-1.58A16.579 16.579 0 1 0 29.646 97.4a16.579 16.579 0 0 0 .789 32.368 16.579 16.579 0 1 0 26.447 15l14.606-7.105c16.973 18.947 45.394 31.184 77.763 31.184 32.368 0 60.394-12.237 77.368-31.184l14.605 7.105a16.579 16.579 0 1 0 26.447-15 16.579 16.579 0 0 0 14.211-16.184zM97.54 51.609c-9.474 6.71-14.21 11.842-14.21 11.842l-3.158-20.526c-1.184-8.29-2.763-19.342 1.579-22.105 4.342-2.763 12.237 4.737 16.579 7.895 4.342 3.157 15.79 15 15.79 15s-7.5 1.578-16.58 7.894zm121.579-8.684c-.79 9.079-3.158 20.526-3.158 20.526s-4.737-5.131-14.21-11.842c-9.08-6.316-16.185-7.895-16.185-7.895s11.053-11.842 15.395-15c4.342-3.157 12.237-10.263 16.579-7.894 4.342 2.368 2.763 13.816 1.579 22.105z" id="path4489" fill="#161616" stroke-width=".395"/>
  <path stroke-miterlimit="10" d="M258.198 117.53a8.684 8.684 0 1 0 0-8.29l-29.21-.789a43.816 43.816 0 0 0 1.578-6.71l22.5-10.263a8.29 8.29 0 0 0 8.29.789 8.684 8.684 0 0 0 3.947-11.447 8.29 8.29 0 0 0-11.053-3.948 8.684 8.684 0 0 0-4.736 7.106l-18.948 8.684c-.79-7.895-3.947-15-8.29-21.71 2.37-18.159 10.659-56.053-.394-60.79-9.868-4.342-34.342 16.974-46.184 30.79a111.316 111.316 0 0 0-53.29 0C110.567 27.135 86.489 5.82 76.62 10.161c-10.658 4.737-3.158 42.631-.79 60.79-4.341 6.71-7.5 13.815-8.289 21.71l-18.947-8.684a8.684 8.684 0 0 0-4.737-7.106 8.29 8.29 0 0 0-11.053 3.948 8.684 8.684 0 0 0 3.948 11.447 8.29 8.29 0 0 0 8.684-.79l22.105 10.264a43.816 43.816 0 0 0 1.58 6.71l-29.211.79a8.684 8.684 0 1 0 0 8.29l31.973-.79a51.316 51.316 0 0 0 3.158 5.526l-29.605 13.816a8.29 8.29 0 0 0-8.684-.79 8.684 8.684 0 0 0-3.948 11.448 8.29 8.29 0 0 0 11.053 3.947 8.684 8.684 0 0 0 4.737-7.105l31.579-14.605c14.21 16.578 39.868 27.631 69.079 27.631 29.21 0 54.473-11.053 68.684-27.631l31.579 14.605a8.684 8.684 0 0 0 4.736 7.105 8.29 8.29 0 0 0 11.053-3.947 8.684 8.684 0 0 0-3.947-11.448 8.29 8.29 0 0 0-8.684.79l-29.606-13.816a51.316 51.316 0 0 0 3.158-5.526zm7.5-7.105a3.158 3.158 0 1 1-3.158 3.158 3.158 3.158 0 0 1 3.158-3.158zm-9.08-28.816a3.158 3.158 0 0 1 3.948 1.58 3.158 3.158 0 0 1-1.579 3.946 3.158 3.158 0 0 1-3.947-1.578 3.158 3.158 0 0 1 1.579-3.948zm-213.55 3.948a3.158 3.158 0 0 1-3.948 1.578 3.158 3.158 0 0 1-1.579-3.947 3.158 3.158 0 0 1 3.948-1.579 3.158 3.158 0 0 1 1.579 3.948zM32.803 116.74a3.158 3.158 0 1 1 2.764-3.158 3.158 3.158 0 0 1-2.764 3.158zm8.685 28.815a3.158 3.158 0 0 1-3.948-1.184 3.158 3.158 0 0 1 1.58-3.947 3.158 3.158 0 0 1 3.947 1.184 3.158 3.158 0 0 1-1.58 3.947zm92.368-30.789s-18.947 1.974-29.605-8.684c-10.658-10.658-8.685-30-8.685-30s19.343-1.974 29.606 8.684c10.263 10.658 8.684 30 8.684 30zm60-8.684c-10.658 10.658-29.605 8.684-29.605 8.684s-1.974-19.342 8.684-30c10.658-10.658 29.605-8.684 29.605-8.684s1.974 18.947-8.684 30zm61.184 35.526a3.158 3.158 0 0 1 3.947-1.184 3.158 3.158 0 0 1 1.58 3.947 3.158 3.158 0 0 1-3.948 1.184 3.158 3.158 0 0 1-1.58-3.947z" id="path4491" fill="none" stroke="#fff" stroke-width=".789"/>
  <path d="M133.856 114.767s-18.947 1.974-29.605-8.684c-10.658-10.658-8.685-30-8.685-30s19.343-1.974 29.606 8.684c10.263 10.658 8.684 30 8.684 30zm60-8.684c-10.658 10.658-29.605 8.684-29.605 8.684s-1.974-19.342 8.684-30c10.658-10.658 29.605-8.684 29.605-8.684s1.974 18.947-8.684 30z" id="path4493" fill="#eaeaea" stroke-width=".395"/>
  <path d="M264.514 154.24a6.316 6.316 0 0 1-3.948-1.184l-7.105-5.131a6.316 6.316 0 0 1 7.105-10.263l7.5 5.131a6.316 6.316 0 0 1-3.552 11.448zm-50.921-7.894a6.316 6.316 0 0 1-4.737-2.369l-5.527-7.105a6.356 6.356 0 0 1 10.264-7.5l5.131 7.105a6.316 6.316 0 0 1-5.131 9.869zm43.42-54.868a6.316 6.316 0 0 1-3.552-11.843l7.105-4.736a6.356 6.356 0 1 1 7.5 10.263l-7.5 5.131a6.316 6.316 0 0 1-3.552 1.185zm-34.736-4.343a6.316 6.316 0 0 1-3.553-11.447l7.5-5.131a6.316 6.316 0 1 1 7.105 10.263l-7.105 5.131a6.316 6.316 0 0 1-3.947 1.184zm51.71 33.158h-8.684a6.316 6.316 0 1 1 0-12.631h8.684a6.316 6.316 0 0 1 0 12.631zm-240 33.948a6.316 6.316 0 0 0 3.553-1.185l7.5-5.131a6.356 6.356 0 0 0-7.5-10.263l-7.105 5.131a6.316 6.316 0 0 0 3.553 11.448zm50.527-7.895a6.316 6.316 0 0 0 5.131-2.369l5.527-7.105a6.356 6.356 0 0 0-10.263-7.5l-5.527 7.105a6.316 6.316 0 0 0 5.132 9.869zM41.093 91.478a6.316 6.316 0 0 0 3.947-11.843l-7.5-4.736a6.316 6.316 0 1 0-7.105 10.263l7.105 5.131a6.316 6.316 0 0 0 3.553 1.185zm34.737-4.343a6.316 6.316 0 0 0 3.552-11.447l-7.105-5.131a6.316 6.316 0 1 0-7.105 10.263l7.105 5.131a6.316 6.316 0 0 0 3.553 1.184zm-51.316 33.158h8.684a6.316 6.316 0 0 0 0-12.631h-8.684a6.316 6.316 0 1 0 0 12.631z" id="path4495" fill="#c7cbcd" stroke-width=".395"/>
  <g id="A3" transform="translate(.83 -64.049) scale(.39474)">
    <circle id="circle4497" class="cls-5" r="9" cy="451" cx="58" fill="#fff"/>
    <circle id="circle4499" class="cls-5" r="9" cy="451" cx="82" fill="#fff"/>
  </g>
  <g id="A2" transform="translate(.83 -64.049) scale(.39474)">
    <circle id="circle4501" class="cls-5" r="9" cy="537" cx="83" fill="#fff"/>
    <circle id="circle4503" class="cls-5" r="9" cy="524" cx="103" fill="#fff"/>
  </g>
  <g id="A9" transform="translate(.83 -64.049) scale(.39474)">
    <circle id="circle4505" class="cls-5" r="9" cy="518" cx="212" fill="#fff"/>
    <circle id="circle4507" class="cls-5" r="9" cy="499" cx="226" fill="#fff"/>
  </g>
  <g id="A4" transform="translate(.83 -64.049) scale(.39474)">
    <circle id="circle4509" class="cls-5" r="9" cy="378" cx="103" fill="#fff"/>
    <circle id="circle4511" class="cls-5" r="9" cy="364" cx="83" fill="#fff"/>
  </g>
  <g id="A5" transform="translate(.83 -64.049) scale(.39474)">
    <circle id="circle4513" class="cls-5" r="9" cy="367" cx="191" fill="#fff"/>
    <circle id="circle4515" class="cls-5" r="9" cy="354" cx="171" fill="#fff"/>
  </g>
  <g id="A0" transform="translate(.83 -64.049) scale(.39474)">
    <circle id="sdfsdf" class="cls-5" r="9" cy="451" cx="694" fill="#fff"/>
    <circle id="circle4519" class="cls-5" r="9" cy="451" cx="670" fill="#fff"/>
  </g>
  <g id="A1" transform="translate(.83 -64.049) scale(.39474)">
    <circle id="sdfdsafsdf" class="cls-5" r="9" cy="537" cx="668" fill="#fff"/>
    <circle id="circle4523" class="cls-5" r="9" cy="524" cx="648" fill="#fff"/>
  </g>
  <g id="A8" transform="translate(.83 -64.049) scale(.39474)">
    <circle id="circle4525" class="cls-5" r="9" cy="518" cx="540" fill="#fff"/>
    <circle id="circle4527" class="cls-5" r="9" cy="499" cx="525" fill="#fff"/>
  </g>
  <g id="A7" transform="translate(.83 -64.049) scale(.39474)">
    <circle id="circle4529" class="cls-5" r="9" cy="378" cx="648" fill="#fff"/>
    <circle id="circle4531" class="cls-5" r="9" cy="364" cx="668" fill="#fff"/>
  </g>
  <g id="A6" transform="translate(.83 -64.049) scale(.39474)">
    <circle id="circle4533" class="cls-5" r="9" cy="367" cx="561" fill="#fff"/>
    <circle id="circle4535" class="cls-5" r="9" cy="354" cx="581" fill="#fff"/>
  </g>
  <text xml:space="preserve" style="line-height:1.25;-inkscape-font-specification:consolas" x="282.831" y="117.869" id="text4584" font-style="normal" font-variant="normal" font-weight="400" font-stretch="normal" font-size="40" font-family="consolas" letter-spacing="0" word-spacing="0" fill="#000" fill-opacity="1" stroke="none">
    <tspan id="tspan4582" x="282.831" y="117.869" font-size="13.333" fill="#000">A0</tspan>
  </text>
  <text xml:space="preserve" style="line-height:1.25;-inkscape-font-specification:consolas" x="272.17" y="158.97" id="text4584-4" font-style="normal" font-variant="normal" font-weight="400" font-stretch="normal" font-size="40" font-family="consolas" letter-spacing="0" word-spacing="0" fill="#000" fill-opacity="1" stroke="none">
    <tspan id="tspan4582-4" x="272.17" y="158.97" font-size="13.333" fill="#000">A1</tspan>
  </text>
  <text xml:space="preserve" style="line-height:1.25;-inkscape-font-specification:consolas" x="273.78" y="77.049" id="text4584-4-4" font-style="normal" font-variant="normal" font-weight="400" font-stretch="normal" font-size="40" font-family="consolas" letter-spacing="0" word-spacing="0" fill="#000" fill-opacity="1" stroke="none">
    <tspan id="tspan4582-4-6" x="273.78" y="77.049" font-size="13.333" fill="#000">A7</tspan>
  </text>
  <text xml:space="preserve" style="line-height:1.25;-inkscape-font-specification:consolas" x="236.933" y="68.821" id="text4584-4-8" font-style="normal" font-variant="normal" font-weight="400" font-stretch="normal" font-size="40" font-family="consolas" letter-spacing="0" word-spacing="0" fill="#000" fill-opacity="1" stroke="none">
    <tspan id="tspan4582-4-7" x="236.933" y="68.821" font-size="13.333" fill="#000">A6</tspan>
  </text>
  <text xml:space="preserve" style="line-height:1.25;-inkscape-font-specification:consolas" x="217.616" y="155.571" id="text4584-4-82" font-style="normal" font-variant="normal" font-weight="400" font-stretch="normal" font-size="40" font-family="consolas" letter-spacing="0" word-spacing="0" fill="#000" fill-opacity="1" stroke="none">
    <tspan id="tspan4582-4-2" x="217.616" y="155.571" font-size="13.333" fill="#000">A8</tspan>
  </text>
  <text xml:space="preserve" style="line-height:1.25;-inkscape-font-specification:consolas" x="45.725" y="67.748" id="text4584-4-7" font-style="normal" font-variant="normal" font-weight="400" font-stretch="normal" font-size="40" font-family="consolas" letter-spacing="0" word-spacing="0" fill="#000" fill-opacity="1" stroke="none">
    <tspan id="tspan4582-4-3" x="45.725" y="67.748" font-size="13.333" fill="#000">A5</tspan>
  </text>
  <text xml:space="preserve" style="line-height:1.25;-inkscape-font-specification:consolas" x="9.594" y="76.87" id="text4584-4-6" font-style="normal" font-variant="normal" font-weight="400" font-stretch="normal" font-size="40" font-family="consolas" letter-spacing="0" word-spacing="0" fill="#000" fill-opacity="1" stroke="none">
    <tspan id="tspan4582-4-1" x="9.594" y="76.87" font-size="13.333" fill="#000">A4</tspan>
  </text>
  <text xml:space="preserve" style="line-height:1.25;-inkscape-font-specification:consolas" x="-.065" y="115.863" id="text4584-4-46" font-style="normal" font-variant="normal" font-weight="400" font-stretch="normal" font-size="40" font-family="consolas" letter-spacing="0" word-spacing="0" fill="#000" fill-opacity="1" stroke="none">
    <tspan id="tspan4582-4-0" x="-.065" y="115.863" font-size="13.333" fill="#000">A3</tspan>
  </text>
  <text xml:space="preserve" style="line-height:1.25;-inkscape-font-specification:consolas" x="11.204" y="160.937" id="text4584-4-5" font-style="normal" font-variant="normal" font-weight="400" font-stretch="normal" font-size="40" font-family="consolas" letter-spacing="0" word-spacing="0" fill="#000" fill-opacity="1" stroke="none">
    <tspan id="tspan4582-4-4" x="11.204" y="160.937" font-size="13.333" fill="#000">A2</tspan>
  </text>
  <text xml:space="preserve" style="line-height:1.25;-inkscape-font-specification:consolas" x="66.652" y="156.108" id="text4584-4-2" font-style="normal" font-variant="normal" font-weight="400" font-stretch="normal" font-size="40" font-family="consolas" letter-spacing="0" word-spacing="0" fill="#000" fill-opacity="1" stroke="none">
    <tspan id="tspan4582-4-37" x="66.652" y="156.108" font-size="13.333" fill="#000">A9</tspan>
  </text>
</svg>
