<svg xmlns="http://www.w3.org/2000/svg" id="Layer_1" data-name="Layer 1" viewBox="0 0 750 750"><defs><style>.cls-3{fill:#eaeaea}.cls-4{fill:#c7cbcd}.cls-5{fill:#fff}</style></defs><path fill="#161616" d="M712 450a42 42 0 0 0-34-42 42 42 0 1 0-64-52l-8 3c-6-16-18-33-18-34 13-63 17-140-13-157s-99 14-136 64c-23-6-38-7-63-7s-43 1-66 7c-31-45-108-80-132-67s-32 91-15 160c-7 8-12 18-18 35l-8-4a42 42 0 1 0-64 53 42 42 0 0 0 2 82 42 42 0 1 0 67 38l37-18c43 48 115 79 197 79s153-31 196-79l37 18a42 42 0 1 0 67-38 42 42 0 0 0 36-41zM245 293c-24 17-36 30-36 30l-8-52c-3-21-7-49 4-56s31 12 42 20 40 38 40 38-19 4-42 20zm308-22c-2 23-8 52-8 52s-12-13-36-30c-23-16-41-20-41-20s28-30 39-38 31-26 42-20 7 35 4 56z"/><path fill="none" stroke="#fff" stroke-miterlimit="10" stroke-width="2" d="M652 460a22 22 0 1 0 0-21l-74-2a111 111 0 0 0 4-17l57-26a21 21 0 0 0 21 2 22 22 0 0 0 10-29 21 21 0 0 0-28-10 22 22 0 0 0-12 18l-48 22c-2-20-10-38-21-55 6-46 27-142-1-154-25-11-87 43-117 78a282 282 0 0 0-135 0c-30-35-91-89-116-78-27 12-8 108-2 154-11 17-19 35-21 55l-48-22a22 22 0 0 0-12-18 21 21 0 0 0-28 10 22 22 0 0 0 10 29 21 21 0 0 0 22-2l56 26a111 111 0 0 0 4 17l-74 2a22 22 0 1 0 0 21l81-2a130 130 0 0 0 8 14l-75 35a21 21 0 0 0-22-2 22 22 0 0 0-10 29 21 21 0 0 0 28 10 22 22 0 0 0 12-18l80-37c36 42 101 70 175 70s138-28 174-70l80 37a22 22 0 0 0 12 18 21 21 0 0 0 28-10 22 22 0 0 0-10-29 21 21 0 0 0-22 2l-75-35a130 130 0 0 0 8-14zm19-18a8 8 0 1 1-8 8 8 8 0 0 1 8-8zm-23-73a8 8 0 0 1 10 4 8 8 0 0 1-4 10 8 8 0 0 1-10-4 8 8 0 0 1 4-10zm-541 10a8 8 0 0 1-10 4 8 8 0 0 1-4-10 8 8 0 0 1 10-4 8 8 0 0 1 4 10zm-26 79a8 8 0 1 1 7-8 8 8 0 0 1-7 8zm22 73a8 8 0 0 1-10-3 8 8 0 0 1 4-10 8 8 0 0 1 10 3 8 8 0 0 1-4 10zm234-78s-48 5-75-22-22-76-22-76 49-5 75 22 22 76 22 76zm152-22c-27 27-75 22-75 22s-5-49 22-76 75-22 75-22 5 48-22 76zm155 90a8 8 0 0 1 10-3 8 8 0 0 1 4 10 8 8 0 0 1-10 3 8 8 0 0 1-4-10z"/><path d="M337 453s-48 5-75-22-22-76-22-76 49-5 75 22 22 76 22 76zM489 431c-27 27-75 22-75 22s-5-49 22-76 75-22 75-22 5 48-22 76z" class="cls-3"/><path d="M668 553a16 16 0 0 1-10-3l-18-13a16 16 0 0 1 18-26l19 13a16 16 0 0 1-9 29zM539 533a16 16 0 0 1-12-6l-14-18a16 16 0 0 1 26-19l13 18a16 16 0 0 1-13 25zM649 394a16 16 0 0 1-9-30l18-12a16 16 0 1 1 19 26l-19 13a16 16 0 0 1-9 3zM561 383a16 16 0 0 1-9-29l19-13a16 16 0 1 1 18 26l-18 13a16 16 0 0 1-10 3zM692 467h-22a16 16 0 1 1 0-32h22a16 16 0 0 1 0 32zM84 553a16 16 0 0 0 9-3l19-13a16 16 0 0 0-19-26l-18 13a16 16 0 0 0 9 29zM212 533a16 16 0 0 0 13-6l14-18a16 16 0 0 0-26-19l-14 18a16 16 0 0 0 13 25zM102 394a16 16 0 0 0 10-30l-19-12a16 16 0 1 0-18 26l18 13a16 16 0 0 0 9 3zM190 383a16 16 0 0 0 9-29l-18-13a16 16 0 1 0-18 26l18 13a16 16 0 0 0 9 3zM60 467h22a16 16 0 0 0 0-32H60a16 16 0 1 0 0 32z" class="cls-4"/><circle cx="58" cy="451" r="9" class="cls-5"/><circle cx="82" cy="451" r="9" class="cls-5"/><circle cx="83" cy="537" r="9" class="cls-5"/><circle cx="103" cy="524" r="9" class="cls-5"/><circle cx="212" cy="518" r="9" class="cls-5"/><circle cx="226" cy="499" r="9" class="cls-5"/><circle cx="103" cy="378" r="9" class="cls-5"/><circle cx="83" cy="364" r="9" class="cls-5"/><circle cx="191" cy="367" r="9" class="cls-5"/><circle cx="171" cy="354" r="9" class="cls-5"/><circle cx="694" cy="451" r="9" class="cls-5"/><circle cx="670" cy="451" r="9" class="cls-5"/><circle cx="668" cy="537" r="9" class="cls-5"/><circle cx="648" cy="524" r="9" class="cls-5"/><circle cx="540" cy="518" r="9" class="cls-5"/><circle cx="525" cy="499" r="9" class="cls-5"/><circle cx="648" cy="378" r="9" class="cls-5"/><circle cx="668" cy="364" r="9" class="cls-5"/><circle cx="561" cy="367" r="9" class="cls-5"/><circle cx="581" cy="354" r="9" class="cls-5"/></svg>