<?xml version="1.0" encoding="utf-8"?>
<svg viewBox="0 0 500 500" xmlns="http://www.w3.org/2000/svg">
  <g transform="matrix(1, 0, 0, 1, -0.00023, -58.230297)">
    <ellipse style="fill: rgb(70, 70, 70);" cx="250.58" cy="308.81" rx="215" ry="215"/>
    <ellipse style="fill: rgb(0, 0, 0);" transform="matrix(1, 0, 0, 1.000001, -232.069031, 248.780606)" cx="482.069" cy="198.188" rx="23.028" ry="23.028"/>
    <ellipse style="fill: rgb(0, 0, 0);" transform="matrix(1, 0, 0, 0.999999, -232.067871, 110.041956)" cx="482.067" cy="198.188" rx="23.028" ry="23.028"/>
    <ellipse style="fill: rgb(0, 0, 0);" cx="389.12" cy="308.23" rx="23.028" ry="23.028"/>
    <ellipse style="fill: rgb(0, 0, 0);" cx="110.88" cy="308.23" rx="23.028" ry="23.028"/>
    <ellipse style="fill: rgb(0, 0, 0);" cx="250" cy="169.393" rx="23.028" ry="23.028"/>
    <g transform="matrix(1, 0, 0, 1, -0.000009, 0.000015)">
      <ellipse style="fill: rgb(0, 0, 0);" cx="250" cy="238.513" rx="23.028" ry="23.028" transform="matrix(1.000001, 0, 0, 0.999999, 69.996739, 69.71816)"/>
      <ellipse style="fill: rgb(0, 0, 0);" transform="matrix(1, 0, 0, 0.999999, -302.064453, 110.043115)" cx="482.064" cy="198.188" rx="23.028" ry="23.028"/>
    </g>
    <g transform="matrix(0.866026, 0.5, -0.5, 0.866026, 7.386552, -105.261086)">
      <ellipse style="fill: rgb(0, 0, 0);" transform="matrix(0.999999, 0, 0, 0.999999, -65.212313, 177.387415)" cx="482.068" cy="198.188" rx="23.028" ry="23.028"/>
      <ellipse style="fill: rgb(0, 0, 0);" cx="555.975" cy="236.836" rx="23.028" ry="23.028"/>
      <ellipse style="fill: rgb(0, 0, 0);" cx="277.735" cy="236.836" rx="23.028" ry="23.028"/>
      <ellipse style="fill: rgb(0, 0, 0);" cx="416.855" cy="97.999" rx="23.028" ry="23.028"/>
    </g>
    <g transform="matrix(0.5, 0.866026, -0.866026, 0.5, 246.635941, -171.170502)">
      <ellipse style="fill: rgb(0, 0, 0);" transform="matrix(0.999999, 0, 0, 0.999999, -65.212313, 177.387415)" cx="482.068" cy="198.188" rx="23.028" ry="23.028"/>
      <ellipse style="fill: rgb(0, 0, 0);" cx="555.975" cy="236.836" rx="23.028" ry="23.028"/>
      <ellipse style="fill: rgb(0, 0, 0);" cx="277.735" cy="236.836" rx="23.028" ry="23.028"/>
      <ellipse style="fill: rgb(0, 0, 0);" cx="416.855" cy="97.999" rx="23.028" ry="23.028"/>
    </g>
    <g transform="matrix(-0.5, 0.866026, -0.866026, -0.5, 641.934998, 245.84082)">
      <ellipse style="fill: rgb(0, 0, 0);" cx="250" cy="238.513" rx="23.028" ry="23.028" transform="matrix(1.000001, 0, 0, 0.999999, 69.996739, 69.71816)"/>
      <ellipse style="fill: rgb(0, 0, 0);" transform="matrix(1, 0, 0, 0.999999, -302.064453, 110.043115)" cx="482.064" cy="198.188" rx="23.028" ry="23.028"/>
    </g>
    <g transform="matrix(-0.500001, -0.866026, 0.866026, -0.500001, 108.063393, 678.85083)">
      <ellipse style="fill: rgb(0, 0, 0);" cx="250" cy="238.513" rx="23.028" ry="23.028" transform="matrix(1.000001, 0, 0, 0.999999, 69.996739, 69.71816)"/>
      <ellipse style="fill: rgb(0, 0, 0);" transform="matrix(1, 0, 0, 0.999999, -302.064453, 110.043115)" cx="482.064" cy="198.188" rx="23.028" ry="23.028"/>
    </g>
  </g>
</svg>