<?xml version="1.0" encoding="UTF-8" standalone="no"?>
<svg
   xmlns:dc="http://purl.org/dc/elements/1.1/"
   xmlns:cc="http://creativecommons.org/ns#"
   xmlns:rdf="http://www.w3.org/1999/02/22-rdf-syntax-ns#"
   xmlns:svg="http://www.w3.org/2000/svg"
   xmlns="http://www.w3.org/2000/svg"
   xmlns:sodipodi="http://sodipodi.sourceforge.net/DTD/sodipodi-0.dtd"
   xmlns:inkscape="http://www.inkscape.org/namespaces/inkscape"
   id="field-neopixels"
   version="1.1"
   xml:space="preserve"
   width="180.09375"
   height="179.22874"
   viewBox="0 0 180.09375 179.22874"
   inkscape:version="0.91 r13725"
   sodipodi:docname="showicon.svg"><metadata
     id="metadata93"><rdf:RDF><cc:Work
         rdf:about=""><dc:format>image/svg+xml</dc:format><dc:type
           rdf:resource="http://purl.org/dc/dcmitype/StillImage" /></cc:Work></rdf:RDF></metadata><defs
     id="defs91" /><sodipodi:namedview
     pagecolor="#ffffff"
     bordercolor="#666666"
     borderopacity="1"
     objecttolerance="10"
     gridtolerance="10"
     guidetolerance="10"
     inkscape:pageopacity="0"
     inkscape:pageshadow="2"
     inkscape:window-width="1920"
     inkscape:window-height="1137"
     id="namedview89"
     showgrid="false"
     inkscape:zoom="5.1690136"
     inkscape:cx="121.45266"
     inkscape:cy="91.375084"
     inkscape:window-x="-8"
     inkscape:window-y="155"
     inkscape:window-maximized="1"
     inkscape:current-layer="field-neopixels" /><g
     id="g28"
     transform="matrix(1.25,0,0,-1.25,0,179.22875)"><g
       clip-path="url(#clipPath32)"
       id="g30"><g
         transform="translate(142.2739,72.0873)"
         id="g36"><path
           inkscape:connector-curvature="0"
           id="path38"
           style="fill:#000000;fill-opacity:1;fill-rule:nonzero;stroke:none"
           d="M 1.109,9.85 C -3.32,41.771 -28.415,66.866 -60.336,71.295 l -19.8,0 c -39.403,-5.467 -66.913,-41.842 -61.446,-81.244 5.468,-39.404 41.843,-66.913 81.246,-61.446 39.402,5.467 66.912,41.842 61.445,81.245" /></g></g></g><g
     style="filter:url(#filter5965)"
     transform="matrix(1.25,0,0,-1.25,98.019375,176.229)"
     id="g428"><path
       inkscape:connector-curvature="0"
       id="path430"
       style="fill:none;stroke:#ffffff;stroke-width:0.57599998;stroke-linecap:round;stroke-linejoin:miter;stroke-miterlimit:4;stroke-dasharray:none;stroke-opacity:1"
       d="M 0,0 -12.756,0" /></g><g
     style="filter:url(#filter5969)"
     transform="matrix(1.25,0,0,-1.25,75.874,163.82912)"
     id="g432"><path
       inkscape:connector-curvature="0"
       id="path434"
       style="fill:none;stroke:#ffffff;stroke-width:0.57599998;stroke-linecap:round;stroke-linejoin:miter;stroke-miterlimit:4;stroke-dasharray:none;stroke-opacity:1"
       d="M 0,0 0,11.339" /></g><g
     style="filter:url(#filter5973)"
     transform="matrix(1.25,0,0,-1.25,75.874,149.6555)"
     id="g436"><path
       inkscape:connector-curvature="0"
       id="path438"
       style="fill:none;stroke:#ffffff;stroke-width:0.57599998;stroke-linecap:round;stroke-linejoin:miter;stroke-miterlimit:4;stroke-dasharray:none;stroke-opacity:1"
       d="M 0,0 2.409,0" /></g><g
     style="filter:url(#filter5977)"
     transform="matrix(1.25,0,0,-1.25,78.8855,149.6555)"
     id="g440"><path
       inkscape:connector-curvature="0"
       id="path442"
       style="fill:none;stroke:#ffffff;stroke-width:0.57599998;stroke-linecap:round;stroke-linejoin:miter;stroke-miterlimit:4;stroke-dasharray:none;stroke-opacity:1"
       d="M 0,0 0,-7.086" /></g><g
     style="filter:url(#filter5981)"
     transform="matrix(1.25,0,0,-1.25,78.8855,158.513)"
     id="g444"><path
       inkscape:connector-curvature="0"
       id="path446"
       style="fill:none;stroke:#ffffff;stroke-width:0.57599998;stroke-linecap:round;stroke-linejoin:miter;stroke-miterlimit:4;stroke-dasharray:none;stroke-opacity:1"
       d="M 0,0 3.969,0" /></g><g
     style="filter:url(#filter5985)"
     transform="matrix(1.25,0,0,-1.25,96.24825,158.513)"
     id="g448"><path
       inkscape:connector-curvature="0"
       id="path450"
       style="fill:none;stroke:#ffffff;stroke-width:0.57599998;stroke-linecap:round;stroke-linejoin:miter;stroke-miterlimit:4;stroke-dasharray:none;stroke-opacity:1"
       d="M 0,0 3.969,0" /></g><g
     style="filter:url(#filter5989)"
     transform="matrix(1.25,0,0,-1.25,101.20913,158.513)"
     id="g452"><path
       inkscape:connector-curvature="0"
       id="path454"
       style="fill:none;stroke:#ffffff;stroke-width:0.57599998;stroke-linecap:round;stroke-linejoin:miter;stroke-miterlimit:4;stroke-dasharray:none;stroke-opacity:1"
       d="M 0,0 0,7.086" /></g><g
     style="filter:url(#filter5993)"
     transform="matrix(1.25,0,0,-1.25,101.20913,149.6555)"
     id="g456"><path
       inkscape:connector-curvature="0"
       id="path458"
       style="fill:none;stroke:#ffffff;stroke-width:0.57599998;stroke-linecap:round;stroke-linejoin:miter;stroke-miterlimit:4;stroke-dasharray:none;stroke-opacity:1"
       d="M 0,0 2.409,0" /></g><g
     style="filter:url(#filter5997)"
     transform="matrix(1.25,0,0,-1.25,104.22062,149.6555)"
     id="g460"><path
       inkscape:connector-curvature="0"
       id="path462"
       style="fill:none;stroke:#ffffff;stroke-width:0.57599998;stroke-linecap:round;stroke-linejoin:miter;stroke-miterlimit:4;stroke-dasharray:none;stroke-opacity:1"
       d="M 0,0 0,-11.339" /></g><g
     style="opacity:1"
     id="g632"
     transform="matrix(1.25,0,0,-1.25,0,179.22875)"><g
       clip-path="url(#clipPath636)"
       id="g634"><g
         transform="translate(80.5415,4.2416)"
         id="g1924" /><path
         inkscape:connector-curvature="0"
         d="m 67.785,7.785 -2.835,0 0,8.504 2.835,0 0,-8.504 z m 11.34,0 -2.835,0 0,8.504 2.835,0 0,-8.504 z m 1.4165,-3.5434 2.835,0 0,14.882 -22.677,0 0,-14.882 2.834,0 0,-2.126 17.008,0 0,2.126 z"
         style="opacity:0.65;fill:#4d4d4d;fill-opacity:1;fill-rule:nonzero;stroke:none"
         id="path1930" /><g
         style="opacity:0.797"
         transform="translate(66.2271,136.5842)"
         id="g2022"><path
           inkscape:connector-curvature="0"
           d="m 0,0 -1.418,0 -0.283,4.252 1.984,0 L 0,0 Z m 13.039,0 -1.417,0 -0.284,4.252 1.984,0 L 13.039,0 Z m -10.6299,-4.394 0,0.709 1.417,0 0,-2.552 3.969,0 0,2.552 1.417,0 0,-0.709 2.268,0 0,-2.126 5.102,0 0,13.606 -21.543,0 0,-13.606 5.102,0 0,2.126 2.268,0 z"
           style="fill:#ececec;fill-opacity:1;fill-rule:nonzero;stroke:none"
           id="path2024" /></g><g
         transform="translate(35.2637,87.2255)"
         id="g2346" /><g
         transform="translate(59.9859,44.0111)"
         id="g2430" /><g
         style="opacity:0.65"
         transform="translate(43.957,70.7308)"
         id="g2456"><path
           inkscape:connector-curvature="0"
           d="m 0,0 c -2.348,0 -4.252,1.904 -4.252,4.252 0,2.349 1.904,4.252 4.252,4.252 2.349,0 4.252,-1.903 4.252,-4.252 C 4.252,1.904 2.349,0 0,0 m -9.0698,-2.2675 0,-1.983 18.141,0 0,1.983 1.701,0 0,1.7 -1.701,0 0,9.639 1.701,0 0,1.701 -1.701,0 0,1.983 -18.141,0 0,-1.983 -1.701,0 0,-1.701 1.701,0 0,-9.639 -1.701,0 0,-1.7 1.701,0 z"
           style="fill:#cccccc;fill-opacity:1;fill-rule:nonzero;stroke:none"
           id="BTN_A_INNER" /></g><g
         transform="translate(91.0474,68.4633)"
         id="g2464" /><g
         style="opacity:0.65"
         transform="translate(100.1177,70.7308)"
         id="g2468"><path
           inkscape:connector-curvature="0"
           d="m 0,0 c -2.349,0 -4.252,1.904 -4.252,4.252 0,2.349 1.903,4.252 4.252,4.252 2.348,0 4.252,-1.903 4.252,-4.252 C 4.252,1.904 2.348,0 0,0 m -9.0703,-2.2675 0,-1.983 18.141,0 0,1.983 1.701,0 0,1.7 -1.701,0 0,9.639 1.701,0 0,1.701 -1.701,0 0,1.983 -18.141,0 0,-1.983 -1.701,0 0,-1.701 1.701,0 0,-9.639 -1.701,0 0,-1.7 1.701,0 z"
           style="fill:#cccccc;fill-opacity:1;fill-rule:nonzero;stroke:none"
           id="BTN_B_INNER" /></g><g
         style="opacity:0.58300003"
         id="g7289"><g
           id="g1916"
           transform="translate(13.0444,72.1024)"
           style="opacity:0.92000002"><path
             d="m 0,0 c 0,4.305 -3.49,7.795 -7.795,7.795 l -4.534,0 C -12.605,5.233 -12.756,2.635 -12.756,0 c 0,-2.635 0.151,-5.233 0.427,-7.795 l 4.534,0 C -3.49,-7.795 0,-4.305 0,0 m -6.662,-4.677 c -2.583,0 -4.677,2.094 -4.677,4.677 0,2.583 2.094,4.677 4.677,4.677 2.583,0 4.677,-2.094 4.677,-4.677 0,-2.583 -2.093,-4.677 -4.677,-4.677"
             style="fill:#9a916c;fill-opacity:1;fill-rule:nonzero;stroke:none"
             id="PWR_1"
             inkscape:connector-curvature="0" /></g><g
           id="g1920"
           transform="translate(101.4439,123.3422)"
           style="opacity:0.92000002"><path
             d="M 0,0 C 3.729,-2.152 8.496,-0.875 10.648,2.853 L 12.915,6.78 C 10.835,8.3 8.66,9.729 6.378,11.047 4.096,12.364 1.771,13.533 -0.586,14.575 L -2.853,10.648 C -5.006,6.92 -3.729,2.152 0,0 M -0.72,8.108 C 0.572,10.345 3.433,11.111 5.67,9.82 7.906,8.528 8.673,5.668 7.382,3.431 6.09,1.194 3.229,0.428 0.992,1.719 -1.244,3.011 -2.012,5.87 -0.72,8.108"
             style="fill:#9a916c;fill-opacity:1;fill-rule:nonzero;stroke:none"
             id="PWR_2"
             inkscape:connector-curvature="0" /></g><g
           id="g2070"
           transform="translate(127.5689,51.9447)"
           style="opacity:0.92000002"><path
             d="m 0,0 c -1.473,-4.046 0.613,-8.519 4.658,-9.991 l 4.261,-1.551 c 1.136,2.313 2.166,4.703 3.067,7.179 0.902,2.476 1.649,4.969 2.265,7.471 L 9.99,4.658 C 5.945,6.131 1.472,4.045 0,0 M 7.859,2.116 C 10.287,1.232 11.538,-1.451 10.655,-3.878 9.771,-6.306 7.088,-7.557 4.66,-6.674 2.233,-5.79 0.981,-3.106 1.865,-0.679 2.748,1.748 5.432,3 7.859,2.116"
             style="fill:#9a916c;fill-opacity:1;fill-rule:nonzero;stroke:none"
             id="PIN_1"
             inkscape:connector-curvature="0" /></g><g
           id="g2080"
           transform="translate(42.4507,123.1615)"
           style="opacity:0.92000002"><path
             d="M 0,0 C 3.728,2.153 5.005,6.92 2.853,10.648 L 0.586,14.575 C -1.771,13.533 -4.096,12.365 -6.378,11.047 -8.66,9.729 -10.834,8.3 -12.916,6.78 l 2.268,-3.927 C -8.496,-0.875 -3.729,-2.152 0,0 M -7.382,3.431 C -8.673,5.668 -7.907,8.528 -5.67,9.82 -3.433,11.111 -0.572,10.345 0.719,8.108 2.011,5.871 1.244,3.011 -0.993,1.719 -3.229,0.428 -6.089,1.193 -7.382,3.431"
             style="fill:#9a916c;fill-opacity:1;fill-rule:nonzero;stroke:none"
             id="GND_0"
             inkscape:connector-curvature="0" /></g><g
           id="g2084"
           transform="translate(131.0318,72.1034)"
           style="opacity:0.92000002"><path
             d="m 0,0 c 0,-4.305 3.49,-7.795 7.795,-7.795 l 4.534,0 c 0.275,2.562 0.427,5.16 0.427,7.795 0,2.635 -0.152,5.233 -0.427,7.795 l -4.534,0 C 3.49,7.795 0,4.305 0,0 m 6.662,4.677 c 2.583,0 4.677,-2.094 4.677,-4.677 0,-2.583 -2.094,-4.677 -4.677,-4.677 -2.583,0 -4.677,2.094 -4.677,4.677 0,2.583 2.093,4.677 4.677,4.677"
             style="fill:#9a916c;fill-opacity:1;fill-rule:nonzero;stroke:none"
             id="GND_2"
             inkscape:connector-curvature="0" /></g><g
           id="g2088"
           transform="translate(42.6314,20.8636)"
           style="opacity:0.92000002"><path
             d="m 0,0 c -3.728,2.152 -8.496,0.875 -10.648,-2.853 l -2.267,-3.926 c 2.081,-1.521 4.255,-2.95 6.537,-4.268 2.282,-1.317 4.607,-2.485 6.964,-3.527 l 2.267,3.926 C 5.006,-6.92 3.729,-2.152 0,0 m 0.719,-8.107 c -1.291,-2.238 -4.152,-3.004 -6.388,-1.712 -2.237,1.291 -3.004,4.151 -1.712,6.388 1.291,2.238 4.152,3.003 6.388,1.712 2.238,-1.292 3.004,-4.151 1.712,-6.388"
             style="fill:#9a916c;fill-opacity:1;fill-rule:nonzero;stroke:none"
             id="path2090"
             inkscape:connector-curvature="0" /></g><g
           id="g2114"
           transform="translate(127.5679,92.2621)"
           style="opacity:0.92000002"><path
             d="m 0,0 c 1.473,-4.045 5.946,-6.131 9.991,-4.659 l 4.261,1.551 C 13.635,-0.606 12.889,1.887 11.987,4.363 11.086,6.839 10.056,9.229 8.92,11.542 L 4.659,9.991 C 0.614,8.519 -1.472,4.045 0,0 M 4.661,6.673 C 7.088,7.557 9.772,6.305 10.655,3.878 11.539,1.451 10.287,-1.233 7.86,-2.117 5.433,-3 2.749,-1.749 1.865,0.679 0.982,3.106 2.232,5.79 4.661,6.673"
             style="fill:#9a916c;fill-opacity:1;fill-rule:nonzero;stroke:none"
             id="PIN_2"
             inkscape:connector-curvature="0" /></g><g
           id="g2118"
           transform="translate(117.3228,110.118)"
           style="opacity:0.92000002"><path
             d="m 0,0 c 2.768,-3.298 7.685,-3.728 10.982,-0.961 l 3.473,2.915 C 13.02,4.094 11.466,6.181 9.771,8.199 8.078,10.218 6.292,12.111 4.435,13.896 L 0.961,10.982 C -2.337,8.214 -2.767,3.298 0,0 M 2.098,7.865 C 4.076,9.525 7.026,9.267 8.687,7.289 10.347,5.31 10.089,2.36 8.109,0.699 6.131,-0.961 3.181,-0.703 1.521,1.276 -0.14,3.254 0.118,6.204 2.098,7.865"
             style="fill:#9a916c;fill-opacity:1;fill-rule:nonzero;stroke:none"
             id="PIN_3"
             inkscape:connector-curvature="0" /></g><g
           id="g2122"
           transform="translate(117.3237,34.0882)"
           style="opacity:0.92000002"><path
             d="m 0,0 c -2.768,-3.298 -2.337,-8.215 0.961,-10.981 l 3.473,-2.915 c 1.858,1.785 3.644,3.678 5.337,5.697 1.694,2.018 3.249,4.105 4.684,6.246 L 10.981,0.961 C 7.684,3.729 2.767,3.298 0,0 m 8.109,-0.699 c 1.979,-1.66 2.238,-4.611 0.577,-6.589 -1.661,-1.98 -4.611,-2.237 -6.589,-0.577 -1.979,1.661 -2.237,4.61 -0.576,6.59 1.66,1.978 4.609,2.237 6.588,0.576"
             style="fill:#9a916c;fill-opacity:1;fill-rule:nonzero;stroke:none"
             id="PIN_0"
             inkscape:connector-curvature="0" /></g><g
           id="g2418"
           transform="translate(16.687,51.224)"
           style="opacity:0.92000002"><path
             d="m 0,0 c -1.473,4.045 -5.946,6.131 -9.991,4.658 l -4.26,-1.551 c 0.616,-2.502 1.363,-4.994 2.264,-7.47 0.902,-2.477 1.932,-4.866 3.068,-7.179 l 4.26,1.551 C -0.614,-8.519 1.472,-4.046 0,0 m -4.661,-6.674 c -2.427,-0.884 -5.111,0.368 -5.994,2.795 -0.884,2.428 0.368,5.111 2.795,5.995 2.427,0.883 5.111,-0.368 5.995,-2.796 0.883,-2.426 -0.367,-5.11 -2.796,-5.994"
             style="fill:#9a916c;fill-opacity:1;fill-rule:nonzero;stroke:none"
             id="RX"
             inkscape:connector-curvature="0" /></g><g
           id="g2422"
           transform="translate(26.752,109.9374)"
           style="opacity:0.92000002"><path
             d="m 0,0 c 2.767,3.298 2.337,8.214 -0.961,10.981 l -3.473,2.915 C -6.292,12.111 -8.078,10.218 -9.772,8.199 -11.465,6.181 -13.02,4.093 -14.455,1.954 l 3.473,-2.915 C -7.684,-3.728 -2.767,-3.298 0,0 m -8.11,0.699 c -1.978,1.66 -2.237,4.611 -0.576,6.59 1.66,1.978 4.61,2.236 6.589,0.576 C -0.119,6.205 0.14,3.254 -1.521,1.276 -3.181,-0.703 -6.13,-0.962 -8.11,0.699"
             style="fill:#9a916c;fill-opacity:1;fill-rule:nonzero;stroke:none"
             id="SCL"
             inkscape:connector-curvature="0" /></g><g
           id="g2426"
           transform="translate(16.5064,92.2611)"
           style="opacity:0.92000002"><path
             d="m 0,0 c 1.473,4.045 -0.613,8.519 -4.659,9.991 l -4.26,1.551 c -1.136,-2.313 -2.166,-4.703 -3.068,-7.179 -0.901,-2.476 -1.647,-4.969 -2.264,-7.471 l 4.26,-1.551 C -5.945,-6.131 -1.472,-4.045 0,0 m -7.86,-2.116 c -2.427,0.883 -3.679,3.567 -2.795,5.994 0.884,2.427 3.567,3.679 5.994,2.795 C -2.233,5.79 -0.982,3.106 -1.865,0.679 -2.749,-1.749 -5.432,-3 -7.86,-2.116"
             style="fill:#9a916c;fill-opacity:1;fill-rule:nonzero;stroke:none"
             id="SDA"
             inkscape:connector-curvature="0" /></g><g
           id="g2510"
           transform="translate(27.4727,33.3675)"
           style="opacity:0.92000002"><path
             d="m 0,0 c -2.768,3.298 -7.684,3.728 -10.982,0.961 l -3.473,-2.914 c 1.435,-2.141 2.99,-4.228 4.683,-6.246 1.694,-2.019 3.48,-3.912 5.338,-5.697 l 3.473,2.915 C 2.337,-8.215 2.767,-3.298 0,0 m -2.097,-7.865 c -1.979,-1.66 -4.929,-1.403 -6.59,0.577 -1.66,1.978 -1.401,4.929 0.577,6.589 1.979,1.66 4.929,1.402 6.589,-0.577 1.661,-1.979 1.403,-4.928 -0.576,-6.589"
             style="fill:#9a916c;fill-opacity:1;fill-rule:nonzero;stroke:none"
             id="TX"
             inkscape:connector-curvature="0" /></g><g
           id="g2580"
           transform="translate(101.4448,20.8646)"
           style="opacity:0.92000002"><path
             d="m 0,0 c -3.729,-2.152 -5.006,-6.92 -2.854,-10.648 l 2.268,-3.927 c 2.357,1.042 4.682,2.21 6.964,3.528 2.282,1.318 4.457,2.747 6.537,4.267 l -2.267,3.926 C 8.496,0.875 3.729,2.152 0,0 M 7.382,-3.432 C 8.673,-5.668 7.906,-8.528 5.67,-9.82 c -2.237,-1.291 -5.098,-0.525 -6.39,1.712 -1.291,2.237 -0.524,5.097 1.712,6.388 2.237,1.292 5.098,0.527 6.39,-1.712"
             style="fill:#9a916c;fill-opacity:1;fill-rule:nonzero;stroke:none"
             id="VBATT"
             inkscape:connector-curvature="0" /></g></g></g></g><g
     transform="matrix(2.0995,0,0,-2.0995,135.80661,113.44216)"
     id="g2144"
     style="stroke:#ffffff;stroke-opacity:1"><path
       inkscape:connector-curvature="0"
       id="LED6"
       style="fill:#c8c8c8;fill-opacity:1;fill-rule:nonzero;stroke:#ffffff;stroke-opacity:1"
       d="M 0,0 C 1.174,2.033 3.774,2.73 5.808,1.556 7.842,0.382 8.538,-2.219 7.364,-4.252 6.19,-6.286 3.59,-6.982 1.556,-5.809 -0.478,-4.635 -1.175,-2.034 0,0" /></g><g
     transform="matrix(2.0995,0,0,-2.0995,116.12733,134.02221)"
     id="g2164"
     style="stroke:#ffffff;stroke-opacity:1"><path
       inkscape:connector-curvature="0"
       id="LED5"
       style="fill:#c8c8c8;fill-opacity:1;fill-rule:nonzero;stroke:#ffffff;stroke-opacity:1"
       d="M 0,0 C 2.033,1.174 4.634,0.478 5.809,-1.557 6.982,-3.59 6.285,-6.19 4.252,-7.364 2.218,-8.539 -0.383,-7.842 -1.557,-5.809 -2.73,-3.774 -2.034,-1.174 0,0" /></g><g
     transform="matrix(2.0995,0,0,-2.0995,141.80896,90.01029)"
     id="g2182"
     style="stroke:#ffffff;stroke-opacity:1"><path
       inkscape:connector-curvature="0"
       id="LED7"
       style="fill:#c8c8c8;fill-opacity:1;fill-rule:nonzero;stroke:#ffffff;stroke-opacity:1"
       d="M 0,0 C 0,2.349 1.904,4.252 4.252,4.252 6.601,4.252 8.504,2.349 8.504,0 8.504,-2.348 6.601,-4.252 4.252,-4.252 1.904,-4.252 0,-2.348 0,0" /></g><g
     transform="matrix(2.0995,0,0,-2.0995,135.35415,64.328085)"
     id="g2200"
     style="stroke:#ffffff;stroke-opacity:1"><path
       inkscape:connector-curvature="0"
       id="LED8"
       style="fill:#c8c8c8;fill-opacity:1;fill-rule:nonzero;stroke:#ffffff;stroke-opacity:1"
       d="M 0,0 C -1.174,2.034 -0.477,4.634 1.557,5.809 3.591,6.982 6.191,6.286 7.365,4.252 8.539,2.218 7.843,-0.382 5.809,-1.556 3.775,-2.73 1.175,-2.034 0,0" /></g><g
     transform="matrix(2.0995,0,0,-2.0995,115.67529,44.198715)"
     id="g2220"
     style="stroke:#ffffff;stroke-opacity:1"><path
       inkscape:connector-curvature="0"
       id="LED9"
       style="fill:#c8c8c8;fill-opacity:1;fill-rule:nonzero;stroke:#ffffff;stroke-opacity:1"
       d="M 0,0 C -2.033,1.174 -2.73,3.774 -1.556,5.808 -0.382,7.842 2.219,8.539 4.252,7.365 6.286,6.19 6.982,3.59 5.809,1.556 4.635,-0.478 2.034,-1.174 0,0" /></g><g
     transform="matrix(2.0995,0,0,-2.0995,63.411329,43.749603)"
     id="g2240"
     style="stroke:#ffffff;stroke-opacity:1"><path
       inkscape:connector-curvature="0"
       id="LED0"
       style="fill:#c8c8c8;fill-opacity:1;fill-rule:nonzero;stroke:#ffffff;stroke-opacity:1"
       d="M 0,0 C -2.034,-1.174 -4.634,-0.477 -5.809,1.557 -6.982,3.59 -6.286,6.19 -4.252,7.365 -2.218,8.539 0.382,7.842 1.556,5.809 2.73,3.775 2.034,1.174 0,0" /></g><g
     transform="matrix(2.0995,0,0,-2.0995,45.081844,63.428953)"
     id="g2260"
     style="stroke:#ffffff;stroke-opacity:1"><path
       inkscape:connector-curvature="0"
       id="LED1"
       style="fill:#c8c8c8;fill-opacity:1;fill-rule:nonzero;stroke:#ffffff;stroke-opacity:1"
       d="m 0,0 c -1.174,-2.034 -3.774,-2.73 -5.808,-1.556 -2.034,1.174 -2.731,3.774 -1.557,5.808 1.175,2.034 3.775,2.73 5.809,1.556 C 0.478,4.634 1.174,2.034 0,0" /></g><g
     transform="matrix(2.0995,0,0,-2.0995,38.179238,89.11129)"
     id="g2278"
     style="stroke:#ffffff;stroke-opacity:1"><path
       inkscape:connector-curvature="0"
       id="LED2"
       style="fill:#c8c8c8;fill-opacity:1;fill-rule:nonzero;stroke:#ffffff;stroke-opacity:1"
       d="m 0,0 c 0,-2.348 -1.904,-4.252 -4.252,-4.252 -2.348,0 -4.252,1.904 -4.252,4.252 0,2.348 1.904,4.252 4.252,4.252 C -1.904,4.252 0,2.348 0,0" /></g><g
     transform="matrix(2.0995,0,0,-2.0995,45.082482,116.14375)"
     id="g2296"
     style="stroke:#ffffff;stroke-opacity:1"><path
       inkscape:connector-curvature="0"
       id="LED3"
       style="fill:#c8c8c8;fill-opacity:1;fill-rule:nonzero;stroke:#ffffff;stroke-opacity:1"
       d="M 0,0 C 1.174,-2.034 0.478,-4.634 -1.556,-5.809 -3.59,-6.982 -6.19,-6.286 -7.365,-4.252 -8.539,-2.219 -7.842,0.382 -5.808,1.557 -3.774,2.73 -1.174,2.034 0,0" /></g><g
     transform="matrix(2.0995,0,0,-2.0995,65.662206,134.92329)"
     id="g2316"
     style="stroke:#ffffff;stroke-opacity:1"><path
       inkscape:connector-curvature="0"
       id="LED4"
       style="fill:#c8c8c8;fill-opacity:1;fill-rule:nonzero;stroke:#ffffff;stroke-opacity:1"
       d="M 0,0 C 2.034,-1.174 2.73,-3.774 1.556,-5.809 0.382,-7.842 -2.218,-8.539 -4.252,-7.364 -6.286,-6.19 -6.982,-3.59 -5.808,-1.556 -4.634,0.478 -2.034,1.175 0,0" /></g><circle
     style="fill:#999999;fill-opacity:1;stroke:#969696;stroke-width:2;stroke-linecap:round;stroke-linejoin:round;stroke-miterlimit:4;stroke-dasharray:none;stroke-opacity:0"
     id="paletteback"
     cx="90.046875"
     cy="89.614372"
     r="45.914173"
     inkscape:label="#path4631" /><path
     style="fill:#ff0000;fill-opacity:1;stroke:#781927;stroke-width:1.61524105;stroke-linecap:round;stroke-linejoin:round;stroke-miterlimit:4;stroke-dasharray:none;stroke-opacity:0"
     d="m 92.304688,46.558594 0,26.96875 a 16.268755,16.268755 0 0 1 7.523437,3.113281 L 118.88672,57.582031 A 43.153011,43.153011 0 0 0 92.304688,46.558594 Z"
     id="paletteslice2"
     inkscape:label="#path4623" /><path
     style="fill:#ffffff;fill-opacity:1;stroke:#781927;stroke-width:1.61524105;stroke-linecap:round;stroke-linejoin:round;stroke-miterlimit:4;stroke-dasharray:none;stroke-opacity:0"
     d="M 87.789062,46.578125 A 43.153011,43.153011 0 0 0 61.214844,57.589844 l 19.052734,19.050781 a 16.268755,16.268755 0 0 1 7.521484,-3.126953 l 0,-26.935547 z"
     id="paletteslice1"
     inkscape:label="#path4621" /><path
     style="fill:#ff6600;fill-opacity:1;stroke:#781927;stroke-width:1.61524105;stroke-linecap:round;stroke-linejoin:round;stroke-miterlimit:4;stroke-dasharray:none;stroke-opacity:0"
     d="m 122.08203,60.773438 -19.05664,19.05664 a 16.268755,16.268755 0 0 1 3.125,7.527344 l 26.93164,0 a 43.153011,43.153011 0 0 0 -11,-26.583984 z"
     id="paletteslice3"
     inkscape:label="#path4619" /><path
     style="fill:#ff00ff;fill-opacity:1;stroke:#781927;stroke-width:1.61524105;stroke-linecap:round;stroke-linejoin:round;stroke-miterlimit:4;stroke-dasharray:none;stroke-opacity:0"
     d="M 58.025391,60.787109 A 43.153011,43.153011 0 0 0 46.974609,87.357422 l 26.980469,0 a 16.268755,16.268755 0 0 1 3.117188,-7.523438 L 58.025391,60.787109 Z"
     id="paletteslice9"
     inkscape:label="#path4617" /><path
     style="fill:#800080;fill-opacity:1;stroke:#781927;stroke-width:1.61524105;stroke-linecap:round;stroke-linejoin:round;stroke-miterlimit:4;stroke-dasharray:none;stroke-opacity:0"
     d="m 47.011719,91.873047 a 43.153011,43.153011 0 0 0 11,26.582033 l 19.05664,-19.056642 a 16.268755,16.268755 0 0 1 -3.125,-7.525391 l -26.93164,0 z"
     id="paletteslice8"
     inkscape:label="#path4615" /><path
     style="fill:#ffff00;fill-opacity:1;stroke:#781927;stroke-width:1.61524105;stroke-linecap:round;stroke-linejoin:round;stroke-miterlimit:4;stroke-dasharray:none;stroke-opacity:0"
     d="m 106.13867,91.873047 a 16.268755,16.268755 0 0 1 -3.11719,7.523437 l 19.04688,19.044926 a 43.153011,43.153011 0 0 0 11.05078,-26.568363 l -26.98047,0 z"
     id="paletteslice4"
     inkscape:label="#path4613" /><path
     style="fill:#0000ff;fill-opacity:1;stroke:#781927;stroke-width:1.61524105;stroke-linecap:round;stroke-linejoin:round;stroke-miterlimit:4;stroke-dasharray:none;stroke-opacity:0"
     d="m 80.265625,102.58789 -19.058594,19.05859 a 43.153011,43.153011 0 0 0 26.582031,11.02344 l 0,-26.96875 a 16.268755,16.268755 0 0 1 -7.523437,-3.11328 z"
     id="platetteslice6"
     inkscape:label="#path4611" /><path
     style="fill:#00ff00;fill-opacity:1;stroke:#781927;stroke-width:1.61524105;stroke-linecap:round;stroke-linejoin:round;stroke-miterlimit:4;stroke-dasharray:none;stroke-opacity:0"
     d="m 99.826172,102.58789 a 16.268755,16.268755 0 0 1 -7.521484,3.12695 l 0,26.93555 A 43.153011,43.153011 0 0 0 118.87891,121.63867 L 99.826172,102.58789 Z"
     id="paletteslice5"
     inkscape:label="#path4388" /><ellipse
     style="fill:#333333;fill-opacity:1;stroke:#969696;stroke-width:0.42138419;stroke-linecap:round;stroke-linejoin:round;stroke-miterlimit:4;stroke-dasharray:none;stroke-opacity:0"
     id="palettecenter"
     cx="90.046875"
     cy="89.614372"
     rx="11.529466"
     ry="10.992458"
     inkscape:label="#path4388-3" /></svg>