<svg xmlns="http://www.w3.org/2000/svg" width="193.719" height="86.4"><g transform="translate(0 -965.962)"><ellipse ry="7.559" rx="7.559" cx="-2078.823" cy="-641.91" fill="none"/><ellipse ry="7.559" rx="7.559" cx="-2078.823" cy="-574.711" fill="none"/><path d="M-2056.126-649.409h17.007m6.614 13.228v15.119m0 0h-3.212m0 0v-9.45m0 0h-5.292m-13.228 0h-5.29m0 0v9.45m0 0h-3.214m0 0v-15.119M-2067.465-617.76v3.024m0 12.85v3.025m-17.008-23.812h-3.401m0 0v28.725m0 0h3.4" fill="none"/><ellipse ry="2.529" rx="2.529" cx="-1920.423" cy="-569.911" fill="none"/><ellipse ry="2.529" rx="2.529" cx="-1930.023" cy="-569.911" fill="none"/><ellipse ry="2.529" rx="2.529" cx="-1939.623" cy="-569.911" fill="none"/><ellipse ry="2.529" rx="2.529" cx="-1949.223" cy="-569.911" fill="none"/><ellipse ry="2.529" rx="2.529" cx="-1958.823" cy="-569.911" fill="none"/><ellipse ry="2.529" rx="2.529" cx="-1968.424" cy="-569.911" fill="none"/><ellipse ry="2.529" rx="2.529" cx="-1978.023" cy="-569.911" fill="none"/><ellipse ry="2.529" rx="2.529" cx="-1987.623" cy="-569.911" fill="none"/><ellipse ry="2.529" rx="2.529" cx="-1997.223" cy="-569.911" fill="none"/><ellipse ry="2.529" rx="2.529" cx="-2006.823" cy="-569.911" fill="none"/><ellipse ry="2.529" rx="2.529" cx="-2016.423" cy="-569.911" fill="none"/><ellipse ry="2.529" rx="2.529" cx="-2026.023" cy="-569.911" fill="none"/><ellipse ry="2.529" rx="2.529" cx="-2035.623" cy="-569.911" fill="none"/><ellipse ry="2.529" rx="2.529" cx="-2045.223" cy="-569.911" fill="none"/><ellipse ry="2.529" rx="2.529" cx="-2054.823" cy="-569.911" fill="none"/><ellipse ry="2.529" rx="2.529" cx="-2064.423" cy="-569.911" fill="none"/><ellipse ry="2.529" rx="2.529" cx="-2026.023" cy="-646.71" fill="none"/><ellipse ry="2.529" rx="2.529" cx="-2016.423" cy="-646.71" fill="none"/><path d="M-2015.764-646.938h.013v.013h-.013z" fill="none"/><ellipse ry="2.529" rx="2.529" cx="-2006.823" cy="-646.71" fill="none"/><ellipse ry="2.529" rx="2.529" cx="-1997.223" cy="-646.71" fill="none"/><ellipse ry="2.529" rx="2.529" cx="-1987.623" cy="-646.71" fill="none"/><ellipse ry="2.529" rx="2.529" cx="-1978.023" cy="-646.71" fill="none"/><ellipse ry="2.529" rx="2.529" cx="-1968.424" cy="-646.71" fill="none"/><path d="M-1967.764-646.717h.013v.013h-.013z" fill="none"/><ellipse ry="2.529" rx="2.529" cx="-1958.823" cy="-646.71" fill="none"/><ellipse ry="2.529" rx="2.529" cx="-1949.223" cy="-646.71" fill="none"/><path d="M-1948.563-646.717h.013v.013h-.013z" fill="none"/><ellipse ry="2.529" rx="2.529" cx="-1939.623" cy="-646.71" fill="none"/><ellipse ry="2.529" rx="2.529" cx="-1930.023" cy="-646.71" fill="none"/><path d="M-1929.142-647.16h.013v.012h-.013z" fill="none"/><ellipse ry="2.529" rx="2.529" cx="-1920.423" cy="-646.71" fill="none"/><ellipse ry="5.684" rx="5.684" cx="-2078.823" cy="-641.91" fill="none"/><ellipse ry="5.684" rx="5.684" cx="-2078.823" cy="-574.711" fill="none"/><rect height="2.835" width="2.835" x="30.472" rx="1.417" y="6.503" ry="1.417" transform="matrix(0 1.33333 -1.33333 0 -2037.063 -683.47)" fill="none"/><path d="M-2053.292-632.778h3.78v17.385h-3.78zm7.559 0h3.78v17.385h-3.78zM-2063.497-637.314v-12.85h6.046v12.85zM-2037.796-637.314v-12.85h6.047v12.85zM-2082.961-613.034h7.559v3.78h-7.56zm0 5.669h7.559v3.78h-7.56zM-2066.143-609.066v1.512h-5.102v-1.512zM-2066.143-611.524v1.514h-5.102v-1.514zM-2066.143-604.153v1.512h-5.102v-1.512zM-2066.143-606.61v1.513h-5.102v-1.512z" fill="none"/><ellipse ry="1.992" rx="1.992" cx="-2068.221" cy="-620.782" fill="none"/><path d="M-2070.213-624.766h3.984v5.976h-3.984v-5.976m0 3.984a1.992 1.992 0 1 0 3.984 0" fill="none"/><ellipse ry="1.992" rx="1.992" cx="-2068.221" cy="-595.838" fill="none"/><path d="M-2070.213-597.83h3.984v5.975h-3.984v-5.974m0 1.99a1.992 1.992 0 1 0 3.984 0" fill="none"/><ellipse ry="3.212" rx="3.212" cx="-2078.804" cy="-621.917" fill="none"/><path d="M-2082.017-625.129h6.425v6.425h-6.425z" fill="none"/><ellipse ry="3.212" rx="3.212" cx="-2078.804" cy="-594.704" fill="none"/><path d="M-2082.017-597.917h6.425v6.425h-6.425zM-2066.143-613.98v1.512h-5.102v-1.512zM-1944.208-634.94h.015v.015h-.015z" fill="none"/><g fill="none"><path d="M-2058.961-646.952h-3.78v19.842h30.236v-19.842h-3.779v-2.834h-22.677z"/><path d="M-2057.072-642.228h3.78v11.339h-3.78zm15.119 0h3.78v11.339h-3.78z"/><path d="M-2057.072-630.889h3.78v3.779h-3.78zm15.119 0h3.78v3.779h-3.78zm-20.788 3.779h3.024v5.67h-3.024zm27.212 0h3.024v5.67h-3.024zM-2052.725-627.11h2.645v9.45h-2.645zm7.558 0h2.646v9.45h-2.646z"/></g><g fill="none"><path d="M-2075.798-623.428v30.236h-5.291v-30.236zM-2066.256-608.688v.756h-4.536v-.756zm0 2.458v.756h-4.536v-.756zm0 2.456v.756h-4.536v-.756zm0-7.37v.756h-4.536v-.756zm0-2.457v.756h-4.536v-.756z"/><path d="M-2068.241-617.758v18.897h-.946v-18.897z"/><path d="M-2068.617-617.758v18.897h-3.968v-18.897z"/><path d="M-2070.886-603.774h-.946v-1.89h3.403v-5.293h-3.403v-1.887h.947v-3.026h2.833v-6.803h-18.141v28.724h18.141v-6.802h-2.834z"/><path d="M-2076.745-617.948v1.89l-5.67.378v-2.645zm0 17.384v1.892l-5.67.377v-2.645zM-2086.193-621.916v27.212l-2.267-.756v-25.7zM-2086.193-622.672v.756l-2.267-.756v-.756zm0 27.968v.756l-2.267.756v-.756z"/></g><ellipse ry="7.559" rx="7.559" cx="11.32" cy="975.562" fill="none" stroke="#fff" stroke-width=".768"/><ellipse ry="7.559" rx="7.559" cx="11.32" cy="1042.762" fill="none" stroke="#fff" stroke-width=".768"/><path d="M34.016 968.064h17.008m6.613 13.228v15.118m0 0h-3.212m0 0v-9.45m0 0h-5.292m-13.228 0h-5.29m0 0v9.45m0 0H27.4m0 0v-15.118" stroke="#fff" stroke-width=".768" stroke-linecap="round"/><path d="M22.677 999.713v3.024m0 12.85v3.024M5.67 994.8H2.268m0 0v28.725m0 0h3.401" stroke="#fff" stroke-width=".48" stroke-linecap="round"/><ellipse ry="2.529" rx="2.529" cx="169.719" cy="1047.562" fill="none" stroke="#9a916c" stroke-width="1.279"/><ellipse ry="2.529" rx="2.529" cx="160.119" cy="1047.562" fill="none" stroke="#9a916c" stroke-width="1.279"/><ellipse ry="2.529" rx="2.529" cx="150.519" cy="1047.562" fill="none" stroke="#9a916c" stroke-width="1.279"/><ellipse ry="2.529" rx="2.529" cx="140.919" cy="1047.562" fill="none" stroke="#9a916c" stroke-width="1.279"/><ellipse ry="2.529" rx="2.529" cx="131.319" cy="1047.562" fill="none" stroke="#9a916c" stroke-width="1.279"/><ellipse ry="2.529" rx="2.529" cx="121.718" cy="1047.562" fill="none" stroke="#9a916c" stroke-width="1.279"/><ellipse ry="2.529" rx="2.529" cx="112.119" cy="1047.562" fill="none" stroke="#9a916c" stroke-width="1.279"/><ellipse ry="2.529" rx="2.529" cx="102.519" cy="1047.562" fill="none" stroke="#9a916c" stroke-width="1.279"/><ellipse ry="2.529" rx="2.529" cx="92.92" cy="1047.562" fill="none" stroke="#9a916c" stroke-width="1.279"/><ellipse ry="2.529" rx="2.529" cx="83.32" cy="1047.562" fill="none" stroke="#9a916c" stroke-width="1.279"/><ellipse ry="2.529" rx="2.529" cx="73.72" cy="1047.562" fill="none" stroke="#9a916c" stroke-width="1.279"/><ellipse ry="2.529" rx="2.529" cx="64.12" cy="1047.562" fill="none" stroke="#9a916c" stroke-width="1.279"/><ellipse ry="2.529" rx="2.529" cx="54.52" cy="1047.562" fill="none" stroke="#9a916c" stroke-width="1.279"/><ellipse ry="2.529" rx="2.529" cx="44.92" cy="1047.562" fill="none" stroke="#9a916c" stroke-width="1.279"/><ellipse ry="2.529" rx="2.529" cx="35.32" cy="1047.562" fill="none" stroke="#9a916c" stroke-width="1.279"/><ellipse ry="2.529" rx="2.529" cx="25.72" cy="1047.562" fill="none" stroke="#9a916c" stroke-width="1.279"/><ellipse ry="2.529" rx="2.529" cx="64.12" cy="970.762" fill="none" stroke="#9a916c" stroke-width="1.279"/><ellipse ry="2.529" rx="2.529" cx="73.72" cy="970.762" fill="none" stroke="#9a916c" stroke-width="1.279"/><path d="M74.378 970.534h.014v.014h-.014z" fill="none"/><ellipse ry="2.529" rx="2.529" cx="83.32" cy="970.762" fill="none" stroke="#9a916c" stroke-width="1.279"/><ellipse ry="2.529" rx="2.529" cx="92.92" cy="970.762" fill="none" stroke="#9a916c" stroke-width="1.279"/><ellipse ry="2.529" rx="2.529" cx="102.519" cy="970.762" fill="none" stroke="#9a916c" stroke-width="1.279"/><ellipse ry="2.529" rx="2.529" cx="112.119" cy="970.762" fill="none" stroke="#9a916c" stroke-width="1.279"/><ellipse ry="2.529" rx="2.529" cx="121.718" cy="970.762" fill="none" stroke="#9a916c" stroke-width="1.279"/><path d="M122.378 970.756h.013v.013h-.013z" fill="none"/><ellipse ry="2.529" rx="2.529" cx="131.319" cy="970.762" fill="none" stroke="#9a916c" stroke-width="1.279"/><ellipse ry="2.529" rx="2.529" cx="140.919" cy="970.762" fill="none" stroke="#9a916c" stroke-width="1.279"/><path d="M141.58 970.756h.013v.013h-.014z" fill="none"/><ellipse ry="2.529" rx="2.529" cx="150.519" cy="970.762" fill="none" stroke="#9a916c" stroke-width="1.279"/><ellipse ry="2.529" rx="2.529" cx="160.119" cy="970.762" fill="none" stroke="#9a916c" stroke-width="1.279"/><path d="M161 970.312h.014v.013H161z" fill="none"/><ellipse ry="2.529" rx="2.529" cx="169.719" cy="970.762" fill="none" stroke="#9a916c" stroke-width="1.279"/><ellipse ry="5.684" rx="5.684" cx="11.32" cy="975.562" fill="none" stroke="#9a916c" stroke-width="1.92"/><ellipse ry="5.684" rx="5.684" cx="11.32" cy="1042.762" fill="none" stroke="#9a916c" stroke-width="1.92"/><rect height="2.835" width="2.835" x="30.472" rx="1.417" y="6.503" ry="1.417" transform="matrix(0 1.33333 -1.33333 0 53.08 934.003)" fill="#9a916c"/><path d="M36.85 984.694h3.78v17.386h-3.78zm7.56 0h3.78v17.386h-3.78zM26.645 980.158v-12.85h6.047v12.85zM52.346 980.158v-12.85h6.047v12.85zM7.181 1004.438h7.559v3.78H7.18zm0 5.67h7.559v3.78H7.18zM24 1008.406v1.512h-5.103v-1.512zM24 1005.949v1.513h-5.103v-1.513zM24 1013.32v1.511h-5.103v-1.512zM24 1010.863v1.512h-5.103v-1.512z" fill="#9a916c"/><ellipse ry="1.992" rx="1.992" cx="21.921" cy="996.69" fill="none" stroke="#9a916c" stroke-width=".96"/><path d="M19.93 992.706h3.983v5.976H19.93v-5.976m0 3.984a1.992 1.992 0 1 0 3.984 0" fill="#9a916c"/><ellipse ry="1.992" rx="1.992" cx="21.921" cy="1021.634" fill="none" stroke="#9a916c" stroke-width=".96"/><path d="M19.93 1019.642h3.983v5.976H19.93v-5.975m0 1.991a1.992 1.992 0 1 0 3.984 0" fill="#9a916c"/><ellipse ry="3.212" rx="3.212" cx="11.339" cy="995.556" fill="none" stroke="#9a916c" stroke-width="3.024"/><path d="M8.125 992.344h6.426v6.425H8.125z" fill="none" stroke="#9a916c" stroke-width="3.024"/><ellipse ry="3.212" rx="3.212" cx="11.339" cy="1022.769" fill="none" stroke="#9a916c" stroke-width="3.024"/><path d="M8.125 1019.556h6.426v6.425H8.125z" fill="none" stroke="#9a916c" stroke-width="3.024"/><path d="M24 1003.493v1.512h-5.103v-1.512z" fill="#9a916c"/><path d="M145.934 982.533h.015v.015h-.015z" fill="none"/><path d="M31.181 970.521h-3.78v19.841h30.236v-19.841h-3.779v-2.835H31.181z" fill="#666"/><path d="M33.07 975.245h3.78v11.339h-3.78zm15.12 0h3.78v11.339h-3.78z"/><path d="M33.07 986.584h3.78v3.778h-3.78zm15.12 0h3.78v3.778h-3.78zM27.4 990.362h3.024v5.67h-3.024zm27.212 0h3.024v5.67h-3.024z" fill="#333"/><path d="M37.417 990.362h2.645v9.45h-2.645zm7.559 0h2.645v9.45h-2.645z" fill="#dcdcdc"/><g><path d="M14.344 994.045v30.236h-5.29v-30.236z" fill="#b4b4b4"/><path d="M23.887 1008.785v.756H19.35v-.756zm0 2.457v.756H19.35v-.756zm0 2.456v.756H19.35v-.756zm0-7.37v.757H19.35v-.756zm0-2.456v.756H19.35v-.756z" fill="#dcdcdc"/><path d="M21.901 999.714v18.897h-.945v-18.897z" fill="#b4b4b4"/><path d="M21.525 999.714v18.897h-3.968v-18.897z"/><path d="M19.256 1013.698h-.945v-1.89h3.402v-5.292h-3.402v-1.887h.946v-3.027h2.834V994.8H3.949v28.723h18.142v-6.8h-2.835z" fill="#dcdcdc"/><path d="M13.397 999.525v1.89l-5.669.378v-2.645zm0 17.384v1.892l-5.669.377v-2.645z"/><path d="M3.95 995.557v27.212l-2.267-.756v-25.7z" fill="#f0f0f0"/><path d="M3.95 994.8v.757l-2.267-.756v-.756zm0 27.969v.756l-2.267.756v-.756z" fill="#b4b4b4"/></g></g></svg>