<?xml version="1.0" encoding="utf-8"?>
<!-- Generator: Adobe Illustrator 22.1.0, SVG Export Plug-In . SVG Version: 6.00 Build 0)  -->
<svg version="1.1" id="Layer_1" xmlns="http://www.w3.org/2000/svg" xmlns:xlink="http://www.w3.org/1999/xlink" x="0px" y="0px"
	 viewBox="0 0 173.2 164.6" style="enable-background:new 0 0 173.2 164.6;" xml:space="preserve">
<style type="text/css">
	.st0{fill:#E72D2F;}
	.st1{fill:url(#SVGID_1_);}
	.st2{fill:#404040;}
	.st3{fill:#FFFFFF;}
	.st4{opacity:0.14;fill:#737373;enable-background:new    ;}
	.st5{opacity:0.14;fill:#8C8C8C;enable-background:new    ;}
	.st6{opacity:0.14;fill:#2B2B2B;enable-background:new    ;}
	.st7{opacity:0.14;fill:#444444;enable-background:new    ;}
	.st8{fill:#BDBBBB;}
	.st9{fill:#9A916C;}
	.st10{fill:#8C8C8C;}
	.st11{fill:#4C4D51;}
	.st12{fill:#FFF46E;}
	.st13{fill:#63686E;}
	.st14{fill:none;}
	.st15{fill:#7A7879;}
	.st16{fill:#F9FFFF;}
	.st17{fill:#231F20;}
	.st18{fill:none;stroke:#FFFFFF;stroke-width:0.5;stroke-miterlimit:10;}
	.st19{fill:#4D535E;}
	.st20{fill:none;stroke:#FFFFFF;stroke-width:0.4614;stroke-miterlimit:10;}
	.st21{fill:#BBB1A5;}
	.st22{fill:#766C60;}
	.st23{fill:#D6CBB8;}
	.st24{fill:#FFFFFF;stroke:#FFFFFF;stroke-width:0.25;stroke-miterlimit:10;}
	.st25{fill:#BDBBBB;stroke:#65656A;stroke-miterlimit:10;}
	.st26{fill:#FFF9E2;}
</style>
<title>SparkFun Parts for MS Kit_DEV-13672</title>
<g>
	<g>
		<g>
			<path class="st0" d="M157.9,45V12.2l-4-4.6H9.8v152.5h149v-9.5l6.1-6.3V52.1L157.9,45z M19.6,11.5c2.5,0,4.5,2.1,4.5,4.6
				c0.1,2.5-1.9,4.5-4.3,4.6c-2.5,0.1-4.5-1.9-4.6-4.3c0-0.1,0-0.2,0-0.3C15.1,13.6,17.1,11.5,19.6,11.5z M16.3,155.6
				c-2.5-0.1-4.5-2.2-4.5-4.7c0.1-2.4,2-4.4,4.5-4.5c2.5,0.1,4.5,2.2,4.5,4.7C20.7,153.5,18.7,155.5,16.3,155.6z M158.1,142.1
				c-2.5,0.1-4.7-1.9-4.7-4.5s1.9-4.7,4.5-4.7c2.5-0.1,4.7,1.9,4.7,4.5c0,0,0,0.1,0,0.1C162.6,140,160.6,142.1,158.1,142.1
				L158.1,142.1z M158.1,63.9c-2.5,0.1-4.7-1.9-4.7-4.5c-0.1-2.5,1.9-4.7,4.5-4.7s4.7,1.9,4.7,4.5c0,0,0,0.1,0,0.1
				C162.6,61.8,160.6,63.9,158.1,63.9C158.1,63.9,158.1,63.9,158.1,63.9L158.1,63.9z"/>
			
				<linearGradient id="SVGID_1_" gradientUnits="userSpaceOnUse" x1="137.0801" y1="54.5845" x2="137.5422" y2="53.4293" gradientTransform="matrix(1 0 0 -1 0 168)">
				<stop  offset="0" style="stop-color:#CC2725"/>
				<stop  offset="0.2426" style="stop-color:#E22426"/>
				<stop  offset="0.7581" style="stop-color:#E22426"/>
				<stop  offset="1" style="stop-color:#CF2625"/>
			</linearGradient>
			<ellipse class="st1" cx="137.3" cy="114" rx="0.7" ry="0.7"/>
			<g>
				<g>
					<path class="st2" d="M50.8,148h55.4c0.2,0,0.4,0.2,0.4,0.4v6c0,0.2-0.2,0.4-0.4,0.4H50.8c-0.2,0-0.4-0.2-0.4-0.4v-6
						C50.3,148.2,50.5,148,50.8,148z"/>
					<path class="st2" d="M112.9,148h41.5c0.2,0,0.4,0.2,0.4,0.4l0,0v6c0,0.2-0.2,0.4-0.4,0.4c0,0,0,0,0,0h-41.5
						c-0.2,0-0.4-0.2-0.4-0.4l0,0v-6C112.5,148.2,112.7,148,112.9,148C112.9,148,112.9,148,112.9,148z"/>
				</g>
				<path class="st3" d="M32.5,110.5h0.4v2.9h-0.4V110.5z"/>
				<path class="st3" d="M31.7,107c-0.2,0-0.3-0.1-0.3-0.3c0-0.2,0.1-0.3,0.3-0.3c0,0,0,0,0,0h0.8v-0.8c0-0.2,0.1-0.3,0.3-0.3
					c0.2,0,0.3,0.1,0.3,0.3c0,0,0,0,0,0v0.8h0.8c0.2,0,0.3,0.1,0.3,0.3c0,0.2-0.1,0.3-0.3,0.3c0,0,0,0,0,0h-0.8v0.8
					c0,0.2-0.1,0.3-0.3,0.3c-0.2,0-0.3-0.1-0.3-0.3c0,0,0,0,0,0V107H31.7z"/>
				<g>
					<g>
						<polygon class="st4" points="53.6,151.5 56.2,154.2 56.2,148.9 						"/>
						<polygon class="st5" points="50.9,154.2 56.2,154.2 53.6,151.5 						"/>
						<polygon class="st6" points="56.2,148.9 50.9,148.9 53.6,151.5 						"/>
						<polygon class="st7" points="50.9,148.9 50.9,154.2 53.6,151.5 						"/>
					</g>
					<rect x="52.2" y="150.2" width="2.6" height="2.6"/>
				</g>
				<g>
					<g>
						<polygon class="st4" points="60.7,151.5 63.3,154.2 63.3,148.9 						"/>
						<polygon class="st5" points="58,154.2 63.3,154.2 60.7,151.5 						"/>
						<polygon class="st6" points="63.3,148.9 58,148.9 60.7,151.5 						"/>
						<polygon class="st7" points="58,148.9 58,154.2 60.7,151.5 						"/>
					</g>
					<rect x="59.4" y="150.2" width="2.6" height="2.6"/>
				</g>
				<g>
					<g>
						<polygon class="st4" points="67.8,151.5 70.4,154.2 70.4,148.9 						"/>
						<polygon class="st5" points="65.1,154.2 70.4,154.2 67.8,151.5 						"/>
						<polygon class="st6" points="70.4,148.9 65.1,148.9 67.8,151.5 						"/>
						<polygon class="st7" points="65.1,148.9 65.1,154.2 67.8,151.5 						"/>
					</g>
					<rect x="66.5" y="150.2" width="2.6" height="2.6"/>
				</g>
				<g>
					<g>
						<polygon class="st4" points="74.9,151.5 77.6,154.2 77.6,148.9 						"/>
						<polygon class="st5" points="72.3,154.2 77.6,154.2 74.9,151.5 						"/>
						<polygon class="st6" points="77.6,148.9 72.3,148.9 74.9,151.5 						"/>
						<polygon class="st7" points="72.3,148.9 72.3,154.2 74.9,151.5 						"/>
					</g>
					<rect x="73.6" y="150.2" width="2.6" height="2.6"/>
				</g>
				<g>
					<g>
						<polygon class="st4" points="82,151.5 84.7,154.2 84.7,148.9 						"/>
						<polygon class="st5" points="79.4,154.2 84.7,154.2 82,151.5 						"/>
						<polygon class="st6" points="84.7,148.9 79.4,148.9 82,151.5 						"/>
						<polygon class="st7" points="79.4,148.9 79.4,154.2 82,151.5 						"/>
					</g>
					<rect x="80.7" y="150.2" width="2.6" height="2.6"/>
				</g>
				<g>
					<g>
						<polygon class="st4" points="89.1,151.5 91.8,154.2 91.8,148.9 						"/>
						<polygon class="st5" points="86.5,154.2 91.8,154.2 89.1,151.5 						"/>
						<polygon class="st6" points="91.8,148.9 86.5,148.9 89.1,151.5 						"/>
						<polygon class="st7" points="86.5,148.9 86.5,154.2 89.1,151.5 						"/>
					</g>
					<rect x="87.8" y="150.2" width="2.6" height="2.6"/>
				</g>
				<g>
					<g>
						<polygon class="st4" points="96.2,151.5 98.9,154.2 98.9,148.9 						"/>
						<polygon class="st5" points="93.6,154.2 98.9,154.2 96.2,151.5 						"/>
						<polygon class="st6" points="98.9,148.9 93.6,148.9 96.2,151.5 						"/>
						<polygon class="st7" points="93.6,148.9 93.6,154.2 96.2,151.5 						"/>
					</g>
					<rect x="94.9" y="150.2" width="2.6" height="2.6"/>
				</g>
				<g>
					<g>
						<polygon class="st4" points="103.4,151.5 106,154.2 106,148.9 						"/>
						<polygon class="st5" points="100.7,154.2 106,154.2 103.4,151.5 						"/>
						<polygon class="st6" points="106,148.9 100.7,148.9 103.4,151.5 						"/>
						<polygon class="st7" points="100.7,148.9 100.7,154.2 103.4,151.5 						"/>
					</g>
					<rect x="102" y="150.2" width="2.6" height="2.6"/>
				</g>
				<g>
					<g>
						<polygon class="st4" points="115.9,151.5 118.6,154.2 118.6,148.9 						"/>
						<polygon class="st5" points="113.2,154.2 118.6,154.2 115.9,151.5 						"/>
						<polygon class="st6" points="118.6,148.9 113.2,148.9 115.9,151.5 						"/>
						<polygon class="st7" points="113.2,148.9 113.2,154.2 115.9,151.5 						"/>
					</g>
					<rect x="114.6" y="150.2" width="2.6" height="2.6"/>
				</g>
				<g>
					<g>
						<polygon class="st4" points="123,151.5 125.7,154.2 125.7,148.9 						"/>
						<polygon class="st5" points="120.4,154.2 125.7,154.2 123,151.5 						"/>
						<polygon class="st6" points="125.7,148.9 120.4,148.9 123,151.5 						"/>
						<polygon class="st7" points="120.4,148.9 120.4,154.2 123,151.5 						"/>
					</g>
					<rect x="121.7" y="150.2" width="2.6" height="2.6"/>
				</g>
				<g>
					<g>
						<polygon class="st4" points="130.1,151.5 132.8,154.2 132.8,148.9 						"/>
						<polygon class="st5" points="127.5,154.2 132.8,154.2 130.1,151.5 						"/>
						<polygon class="st6" points="132.8,148.9 127.5,148.9 130.1,151.5 						"/>
						<polygon class="st7" points="127.5,148.9 127.5,154.2 130.1,151.5 						"/>
					</g>
					<rect x="128.8" y="150.2" width="2.6" height="2.6"/>
				</g>
				<g>
					<g>
						<polygon class="st4" points="137.2,151.5 139.9,154.2 139.9,148.9 						"/>
						<polygon class="st5" points="134.6,154.2 139.9,154.2 137.2,151.5 						"/>
						<polygon class="st6" points="139.9,148.9 134.6,148.9 137.2,151.5 						"/>
						<polygon class="st7" points="134.6,148.9 134.6,154.2 137.2,151.5 						"/>
					</g>
					<rect x="135.9" y="150.2" width="2.6" height="2.6"/>
				</g>
				<g>
					<g>
						<polygon class="st4" points="144.3,151.5 147,154.2 147,148.9 						"/>
						<polygon class="st5" points="141.7,154.2 147,154.2 144.3,151.5 						"/>
						<polygon class="st6" points="147,148.9 141.7,148.9 144.3,151.5 						"/>
						<polygon class="st7" points="141.7,148.9 141.7,154.2 144.3,151.5 						"/>
					</g>
					<rect x="143" y="150.2" width="2.6" height="2.6"/>
				</g>
				<g>
					<g>
						<polygon class="st4" points="151.5,151.5 154.1,154.2 154.1,148.9 						"/>
						<polygon class="st5" points="148.8,154.2 154.1,154.2 151.5,151.5 						"/>
						<polygon class="st6" points="154.1,148.9 148.8,148.9 151.5,151.5 						"/>
						<polygon class="st7" points="148.8,148.9 148.8,154.2 151.5,151.5 						"/>
					</g>
					<rect x="150.1" y="150.2" width="2.6" height="2.6"/>
				</g>
			</g>
			<g>
				<g>
					<path class="st2" d="M26.8,13.9h69.7c0.2,0,0.4,0.2,0.4,0.4v6c0,0.2-0.2,0.4-0.4,0.4H26.8c-0.2,0-0.4-0.2-0.4-0.4v-6
						C26.3,14.1,26.5,13.9,26.8,13.9z"/>
					<path class="st2" d="M100.3,13.9h55.4c0.2,0,0.4,0.2,0.4,0.4v6c0,0.2-0.2,0.4-0.4,0.4h-55.4c-0.2,0-0.4-0.2-0.4-0.4v-6
						C99.9,14.1,100.1,13.9,100.3,13.9z"/>
				</g>
				<g>
					<g>
						<polygon class="st4" points="29.5,17.3 32.2,20 32.2,14.7 						"/>
						<polygon class="st5" points="26.9,20 32.2,20 29.5,17.3 						"/>
						<polygon class="st6" points="32.2,14.7 26.9,14.7 29.5,17.3 						"/>
						<polygon class="st7" points="26.9,14.7 26.9,20 29.5,17.3 						"/>
					</g>
					<rect x="28.2" y="16" width="2.6" height="2.6"/>
				</g>
				<g>
					<g>
						<polygon class="st4" points="36.7,17.3 39.3,20 39.3,14.7 						"/>
						<polygon class="st5" points="34,20 39.3,20 36.7,17.3 						"/>
						<polygon class="st6" points="39.3,14.7 34,14.7 36.7,17.3 						"/>
						<polygon class="st7" points="34,14.7 34,20 36.7,17.3 						"/>
					</g>
					<rect x="35.3" y="16" width="2.6" height="2.6"/>
				</g>
				<g>
					<g>
						<polygon class="st4" points="43.8,17.3 46.4,20 46.4,14.7 						"/>
						<polygon class="st5" points="41.1,20 46.4,20 43.8,17.3 						"/>
						<polygon class="st6" points="46.4,14.7 41.1,14.7 43.8,17.3 						"/>
						<polygon class="st7" points="41.1,14.7 41.1,20 43.8,17.3 						"/>
					</g>
					<rect x="42.5" y="16" width="2.6" height="2.6"/>
				</g>
				<g>
					<g>
						<polygon class="st4" points="50.9,17.3 53.5,20 53.5,14.7 						"/>
						<polygon class="st5" points="48.2,20 53.5,20 50.9,17.3 						"/>
						<polygon class="st6" points="53.5,14.7 48.2,14.7 50.9,17.3 						"/>
						<polygon class="st7" points="48.2,14.7 48.2,20 50.9,17.3 						"/>
					</g>
					<rect x="49.6" y="16" width="2.6" height="2.6"/>
				</g>
				<g>
					<g>
						<polygon class="st4" points="58,17.3 60.7,20 60.7,14.7 						"/>
						<polygon class="st5" points="55.4,20 60.7,20 58,17.3 						"/>
						<polygon class="st6" points="60.7,14.7 55.4,14.7 58,17.3 						"/>
						<polygon class="st7" points="55.4,14.7 55.4,20 58,17.3 						"/>
					</g>
					<rect x="56.7" y="16" width="2.6" height="2.6"/>
				</g>
				<g>
					<g>
						<polygon class="st4" points="65.1,17.3 67.8,20 67.8,14.7 						"/>
						<polygon class="st5" points="62.5,20 67.8,20 65.1,17.3 						"/>
						<polygon class="st6" points="67.8,14.7 62.5,14.7 65.1,17.3 						"/>
						<polygon class="st7" points="62.5,14.7 62.5,20 65.1,17.3 						"/>
					</g>
					<rect x="63.8" y="16" width="2.6" height="2.6"/>
				</g>
				<g>
					<g>
						<polygon class="st4" points="72.2,17.3 74.9,20 74.9,14.7 						"/>
						<polygon class="st5" points="69.6,20 74.9,20 72.2,17.3 						"/>
						<polygon class="st6" points="74.9,14.7 69.6,14.7 72.2,17.3 						"/>
						<polygon class="st7" points="69.6,14.7 69.6,20 72.2,17.3 						"/>
					</g>
					<rect x="70.9" y="16" width="2.6" height="2.6"/>
				</g>
				<g>
					<g>
						<polygon class="st4" points="79.4,17.3 82,20 82,14.7 						"/>
						<polygon class="st5" points="76.7,20 82,20 79.4,17.3 						"/>
						<polygon class="st6" points="82,14.7 76.7,14.7 79.4,17.3 						"/>
						<polygon class="st7" points="76.7,14.7 76.7,20 79.4,17.3 						"/>
					</g>
					<rect x="78" y="16" width="2.6" height="2.6"/>
				</g>
				<g>
					<g>
						<polygon class="st4" points="86.5,17.3 89.1,20 89.1,14.7 						"/>
						<polygon class="st5" points="83.8,20 89.1,20 86.5,17.3 						"/>
						<polygon class="st6" points="89.1,14.7 83.8,14.7 86.5,17.3 						"/>
						<polygon class="st7" points="83.8,14.7 83.8,20 86.5,17.3 						"/>
					</g>
					<rect x="85.2" y="16" width="2.6" height="2.6"/>
				</g>
				<g>
					<g>
						<polygon class="st4" points="93.6,17.3 96.2,20 96.2,14.7 						"/>
						<polygon class="st5" points="90.9,20 96.2,20 93.6,17.3 						"/>
						<polygon class="st6" points="96.2,14.7 90.9,14.7 93.6,17.3 						"/>
						<polygon class="st7" points="90.9,14.7 90.9,20 93.6,17.3 						"/>
					</g>
					<rect x="92.3" y="16" width="2.6" height="2.6"/>
				</g>
				<g>
					<g>
						<polygon class="st4" points="103.1,17.3 105.7,20 105.7,14.7 						"/>
						<polygon class="st5" points="100.4,20 105.7,20 103.1,17.3 						"/>
						<polygon class="st6" points="105.7,14.7 100.4,14.7 103.1,17.3 						"/>
						<polygon class="st7" points="100.4,14.7 100.4,20 103.1,17.3 						"/>
					</g>
					<rect x="101.7" y="16" width="2.6" height="2.6"/>
				</g>
				<g>
					<g>
						<polygon class="st4" points="110.2,17.3 112.8,20 112.8,14.7 						"/>
						<polygon class="st5" points="107.5,20 112.8,20 110.2,17.3 						"/>
						<polygon class="st6" points="112.8,14.7 107.5,14.7 110.2,17.3 						"/>
						<polygon class="st7" points="107.5,14.7 107.5,20 110.2,17.3 						"/>
					</g>
					<rect x="108.9" y="16" width="2.6" height="2.6"/>
				</g>
				<g>
					<g>
						<polygon class="st4" points="117.3,17.3 119.9,20 119.9,14.7 						"/>
						<polygon class="st5" points="114.6,20 119.9,20 117.3,17.3 						"/>
						<polygon class="st6" points="119.9,14.7 114.6,14.7 117.3,17.3 						"/>
						<polygon class="st7" points="114.6,14.7 114.6,20 117.3,17.3 						"/>
					</g>
					<rect x="116" y="16" width="2.6" height="2.6"/>
				</g>
				<g>
					<g>
						<polygon class="st4" points="124.4,17.3 127,20 127,14.7 						"/>
						<polygon class="st5" points="121.7,20 127,20 124.4,17.3 						"/>
						<polygon class="st6" points="127,14.7 121.7,14.7 124.4,17.3 						"/>
						<polygon class="st7" points="121.7,14.7 121.7,20 124.4,17.3 						"/>
					</g>
					<rect x="123.1" y="16" width="2.6" height="2.6"/>
				</g>
				<g>
					<g>
						<polygon class="st4" points="131.5,17.3 134.2,20 134.2,14.7 						"/>
						<polygon class="st5" points="128.9,20 134.2,20 131.5,17.3 						"/>
						<polygon class="st6" points="134.2,14.7 128.9,14.7 131.5,17.3 						"/>
						<polygon class="st7" points="128.9,14.7 128.9,20 131.5,17.3 						"/>
					</g>
					<rect x="130.2" y="16" width="2.6" height="2.6"/>
				</g>
				<g>
					<g>
						<polygon class="st4" points="138.6,17.3 141.3,20 141.3,14.7 						"/>
						<polygon class="st5" points="136,20 141.3,20 138.6,17.3 						"/>
						<polygon class="st6" points="141.3,14.7 136,14.7 138.6,17.3 						"/>
						<polygon class="st7" points="136,14.7 136,20 138.6,17.3 						"/>
					</g>
					<rect x="137.3" y="16" width="2.6" height="2.6"/>
				</g>
				<g>
					<g>
						<polygon class="st4" points="145.7,17.3 148.4,20 148.4,14.7 						"/>
						<polygon class="st5" points="143.1,20 148.4,20 145.7,17.3 						"/>
						<polygon class="st6" points="148.4,14.7 143.1,14.7 145.7,17.3 						"/>
						<polygon class="st7" points="143.1,14.7 143.1,20 145.7,17.3 						"/>
					</g>
					<rect x="144.4" y="16" width="2.6" height="2.6"/>
				</g>
				<g>
					<g>
						<polygon class="st4" points="152.8,17.3 155.5,20 155.5,14.7 						"/>
						<polygon class="st5" points="150.2,20 155.5,20 152.8,17.3 						"/>
						<polygon class="st6" points="155.5,14.7 150.2,14.7 152.8,17.3 						"/>
						<polygon class="st7" points="150.2,14.7 150.2,20 152.8,17.3 						"/>
					</g>
					<rect x="151.5" y="16" width="2.6" height="2.6"/>
				</g>
			</g>
			<g>
				<path class="st8" d="M19.3,68.2h1.2c0.6,0,1.1,0.4,1.1,1v0.4c0,0.5-0.5,1-1.1,1h-1.2c-0.6,0-1.1-0.4-1.1-1v-0.4
					C18.1,68.7,18.6,68.2,19.3,68.2z"/>
				<path class="st8" d="M15,68.2h1.2c0.6,0,1.1,0.4,1.1,1v0.4c0,0.5-0.5,1-1.1,1H15c-0.6,0-1.1-0.4-1.1-1v-0.4
					C13.9,68.7,14.4,68.2,15,68.2z"/>
				<path class="st8" d="M19.3,60.3h1.2c0.6,0,1.1,0.4,1.1,1v0.4c0,0.5-0.5,1-1.1,1h-1.2c-0.6,0-1.1-0.4-1.1-1v-0.4
					C18.1,60.8,18.6,60.3,19.3,60.3z"/>
				<path class="st8" d="M15,60.3h1.2c0.6,0,1.1,0.4,1.1,1v0.4c0,0.5-0.5,1-1.1,1H15c-0.6,0-1.1-0.4-1.1-1v-0.4
					C13.9,60.8,14.4,60.3,15,60.3z"/>
			</g>
			<g>
				<path class="st9" d="M28.1,111.1c0.7,0,1.3,0.6,1.3,1.3s-0.6,1.3-1.3,1.3c-0.7,0-1.3-0.6-1.3-1.3S27.4,111.1,28.1,111.1
					 M28.1,110c-1.3,0-2.4,1.1-2.4,2.4s1.1,2.4,2.4,2.4c1.3,0,2.4-1.1,2.4-2.4l0,0C30.5,111.1,29.4,110,28.1,110z"/>
				<path class="st9" d="M28.1,105.8c0.7,0,1.3,0.6,1.3,1.3s-0.6,1.3-1.3,1.3c-0.7,0-1.3-0.6-1.3-1.3S27.4,105.8,28.1,105.8
					 M28.1,104.8c-1.3,0-2.4,1.1-2.4,2.4s1.1,2.4,2.4,2.4c1.3,0,2.4-1.1,2.4-2.4l0,0C30.5,105.8,29.4,104.8,28.1,104.8z"/>
			</g>
			<g>
				<path class="st8" d="M19.3,83.6h1.2c0.6,0,1.1,0.4,1.1,1V85c0,0.5-0.5,1-1.1,1h-1.2c-0.6,0-1.1-0.4-1.1-1v-0.4
					C18.1,84,18.6,83.6,19.3,83.6z"/>
				<path class="st8" d="M15,83.6h1.2c0.6,0,1.1,0.4,1.1,1V85c0,0.5-0.5,1-1.1,1H15c-0.6,0-1.1-0.4-1.1-1v-0.4
					C13.9,84,14.4,83.6,15,83.6z"/>
				<path class="st8" d="M19.3,75.7h1.2c0.6,0,1.1,0.4,1.1,1v0.4c0,0.5-0.5,1-1.1,1h-1.2c-0.6,0-1.1-0.4-1.1-1v-0.4
					C18.1,76.1,18.6,75.7,19.3,75.7z"/>
				<path class="st8" d="M15,75.7h1.2c0.6,0,1.1,0.4,1.1,1v0.4c0,0.5-0.5,1-1.1,1H15c-0.6,0-1.1-0.4-1.1-1v-0.4
					C13.9,76.1,14.4,75.7,15,75.7z"/>
			</g>
			<path class="st8" d="M18.9,105.9h8.7c0.5,0,0.9,0.4,0.9,0.8v1c0,0.5-0.4,0.8-0.9,0.8h-8.7c-0.5,0-0.9-0.4-0.9-0.8v-1
				C18,106.2,18.4,105.9,18.9,105.9z"/>
			<path class="st8" d="M18.9,110.9h8.7c0.5,0,0.9,0.4,0.9,0.8v1c0,0.5-0.4,0.8-0.9,0.8h-8.7c-0.5,0-0.9-0.4-0.9-0.8v-1
				C18,111.3,18.4,110.9,18.9,110.9z"/>
			<path class="st8" d="M19.3,90.9h1.2c0.6,0,1.1,0.4,1.1,1v0.4c0,0.5-0.5,1-1.1,1h-1.2c-0.6,0-1.1-0.4-1.1-1v-0.4
				C18.1,91.3,18.6,90.9,19.3,90.9z"/>
			<path class="st8" d="M15,90.9h1.2c0.6,0,1.1,0.4,1.1,1v0.4c0,0.5-0.5,1-1.1,1H15c-0.6,0-1.1-0.4-1.1-1v-0.4
				C13.9,91.3,14.4,90.9,15,90.9z"/>
			<g>
				<g>
					<g>
						<path class="st10" d="M106.8,66.3v-4.9c0-0.2,0.1-0.3,0.2-0.3h0.6c0.1,0,0.2,0.1,0.2,0.3v4.9H106.8z"/>
					</g>
					<g>
						<path class="st10" d="M108.1,66.3v-4.9c0-0.2,0.1-0.3,0.2-0.3h0.6c0.1,0,0.2,0.1,0.2,0.3v4.9H108.1z"/>
					</g>
					<g>
						<path class="st10" d="M109.5,66.3v-4.9c0-0.2,0.1-0.3,0.2-0.3h0.6c0.1,0,0.2,0.1,0.2,0.3v4.9H109.5z"/>
					</g>
					<g>
						<path class="st10" d="M110.9,66.3v-4.9c0-0.2,0.1-0.3,0.2-0.3h0.6c0.1,0,0.2,0.1,0.2,0.3v4.9H110.9z"/>
					</g>
					<g>
						<path class="st10" d="M112.3,66.3v-4.9c0-0.2,0.1-0.3,0.2-0.3h0.6c0.1,0,0.2,0.1,0.2,0.3v4.9H112.3z"/>
					</g>
					<g>
						<path class="st10" d="M113.6,66.3v-4.9c0-0.2,0.1-0.3,0.2-0.3h0.6c0.1,0,0.2,0.1,0.2,0.3v4.9H113.6z"/>
					</g>
					<g>
						<path class="st10" d="M115,66.3v-4.9c0-0.2,0.1-0.3,0.2-0.3h0.6c0.1,0,0.2,0.1,0.2,0.3v4.9H115z"/>
					</g>
					<g>
						<path class="st10" d="M116.4,66.3v-4.9c0-0.2,0.1-0.3,0.2-0.3h0.6c0.1,0,0.2,0.1,0.2,0.3v4.9H116.4z"/>
					</g>
					<g>
						<path class="st10" d="M117.7,66.3v-4.9c0-0.2,0.1-0.3,0.2-0.3h0.6c0.1,0,0.2,0.1,0.2,0.3v4.9H117.7z"/>
					</g>
					<g>
						<path class="st10" d="M119.1,66.3v-4.9c0-0.2,0.1-0.3,0.2-0.3h0.6c0.1,0,0.2,0.1,0.2,0.3v4.9H119.1z"/>
					</g>
					<g>
						<path class="st10" d="M120.5,66.3v-4.9c0-0.2,0.1-0.3,0.2-0.3h0.6c0.1,0,0.2,0.1,0.2,0.3v4.9H120.5z"/>
					</g>
					<g>
						<path class="st10" d="M121.9,66.3v-4.9c0-0.2,0.1-0.3,0.2-0.3h0.6c0.1,0,0.2,0.1,0.2,0.3v4.9H121.9z"/>
					</g>
				</g>
				<g>
					<g>
						<path class="st10" d="M106.8,84.4v4.9c0,0.2,0.1,0.3,0.2,0.3h0.6c0.1,0,0.2-0.1,0.2-0.3v-4.9H106.8z"/>
					</g>
					<g>
						<path class="st10" d="M108.1,84.4v4.9c0,0.2,0.1,0.3,0.2,0.3h0.6c0.1,0,0.2-0.1,0.2-0.3v-4.9H108.1z"/>
					</g>
					<g>
						<path class="st10" d="M109.5,84.4v4.9c0,0.2,0.1,0.3,0.2,0.3h0.6c0.1,0,0.2-0.1,0.2-0.3v-4.9H109.5z"/>
					</g>
					<g>
						<path class="st10" d="M110.9,84.4v4.9c0,0.2,0.1,0.3,0.2,0.3h0.6c0.1,0,0.2-0.1,0.2-0.3v-4.9H110.9z"/>
					</g>
					<g>
						<path class="st10" d="M112.3,84.4v4.9c0,0.2,0.1,0.3,0.2,0.3h0.6c0.1,0,0.2-0.1,0.2-0.3v-4.9H112.3z"/>
					</g>
					<g>
						<path class="st10" d="M113.6,84.4v4.9c0,0.2,0.1,0.3,0.2,0.3h0.6c0.1,0,0.2-0.1,0.2-0.3v-4.9H113.6z"/>
					</g>
					<g>
						<path class="st10" d="M115,84.4v4.9c0,0.2,0.1,0.3,0.2,0.3h0.6c0.1,0,0.2-0.1,0.2-0.3v-4.9H115z"/>
					</g>
					<g>
						<path class="st10" d="M116.4,84.4v4.9c0,0.2,0.1,0.3,0.2,0.3h0.6c0.1,0,0.2-0.1,0.2-0.3v-4.9H116.4z"/>
					</g>
					<g>
						<path class="st10" d="M117.7,84.4v4.9c0,0.2,0.1,0.3,0.2,0.3h0.6c0.1,0,0.2-0.1,0.2-0.3v-4.9H117.7z"/>
					</g>
					<g>
						<path class="st10" d="M119.1,84.4v4.9c0,0.2,0.1,0.3,0.2,0.3h0.6c0.1,0,0.2-0.1,0.2-0.3v-4.9H119.1z"/>
					</g>
					<g>
						<path class="st10" d="M120.5,84.4v4.9c0,0.2,0.1,0.3,0.2,0.3h0.6c0.1,0,0.2-0.1,0.2-0.3v-4.9H120.5z"/>
					</g>
					<g>
						<path class="st10" d="M121.9,84.4v4.9c0,0.2,0.1,0.3,0.2,0.3h0.6c0.1,0,0.2-0.1,0.2-0.3v-4.9H121.9z"/>
					</g>
				</g>
				<g>
					<g>
						<path class="st10" d="M123.9,67.3h4.9c0.2,0,0.3,0.1,0.3,0.2v0.6c0,0.1-0.1,0.2-0.3,0.2h-4.9V67.3z"/>
					</g>
					<g>
						<path class="st10" d="M123.9,68.6h4.9c0.2,0,0.3,0.1,0.3,0.2v0.6c0,0.1-0.1,0.2-0.3,0.2h-4.9V68.6z"/>
					</g>
					<g>
						<path class="st10" d="M123.9,70h4.9c0.2,0,0.3,0.1,0.3,0.2v0.6c0,0.1-0.1,0.2-0.3,0.2h-4.9V70z"/>
					</g>
					<g>
						<path class="st10" d="M123.9,71.4h4.9c0.2,0,0.3,0.1,0.3,0.2v0.6c0,0.1-0.1,0.2-0.3,0.2h-4.9V71.4z"/>
					</g>
					<g>
						<path class="st10" d="M123.9,72.7h4.9c0.2,0,0.3,0.1,0.3,0.2v0.6c0,0.1-0.1,0.2-0.3,0.2h-4.9V72.7z"/>
					</g>
					<g>
						<path class="st10" d="M123.9,74.1h4.9c0.2,0,0.3,0.1,0.3,0.2V75c0,0.1-0.1,0.2-0.3,0.2h-4.9V74.1z"/>
					</g>
					<g>
						<path class="st10" d="M123.9,75.5h4.9c0.2,0,0.3,0.1,0.3,0.2v0.6c0,0.1-0.1,0.2-0.3,0.2h-4.9V75.5z"/>
					</g>
					<g>
						<path class="st10" d="M123.9,76.9h4.9c0.2,0,0.3,0.1,0.3,0.2v0.6c0,0.1-0.1,0.2-0.3,0.2h-4.9V76.9z"/>
					</g>
					<g>
						<path class="st10" d="M123.9,78.2h4.9c0.2,0,0.3,0.1,0.3,0.2v0.6c0,0.1-0.1,0.2-0.3,0.2h-4.9V78.2z"/>
					</g>
					<g>
						<path class="st10" d="M123.9,79.6h4.9c0.2,0,0.3,0.1,0.3,0.2v0.6c0,0.1-0.1,0.2-0.3,0.2h-4.9V79.6z"/>
					</g>
					<g>
						<path class="st10" d="M123.9,81h4.9c0.2,0,0.3,0.1,0.3,0.2v0.6c0,0.1-0.1,0.2-0.3,0.2h-4.9V81z"/>
					</g>
					<g>
						<path class="st10" d="M123.9,82.3h4.9c0.2,0,0.3,0.1,0.3,0.2v0.6c0,0.1-0.1,0.2-0.3,0.2h-4.9V82.3z"/>
					</g>
				</g>
				<g>
					<g>
						<path class="st10" d="M105.8,67.3h-4.9c-0.2,0-0.3,0.1-0.3,0.2v0.6c0,0.1,0.1,0.2,0.3,0.2h4.9V67.3z"/>
					</g>
					<g>
						<path class="st10" d="M105.8,68.6h-4.9c-0.2,0-0.3,0.1-0.3,0.2v0.6c0,0.1,0.1,0.2,0.3,0.2h4.9V68.6z"/>
					</g>
					<g>
						<path class="st10" d="M105.8,70h-4.9c-0.2,0-0.3,0.1-0.3,0.2v0.6c0,0.1,0.1,0.2,0.3,0.2h4.9V70z"/>
					</g>
					<g>
						<path class="st10" d="M105.8,71.4h-4.9c-0.2,0-0.3,0.1-0.3,0.2v0.6c0,0.1,0.1,0.2,0.3,0.2h4.9V71.4z"/>
					</g>
					<g>
						<path class="st10" d="M105.8,72.7h-4.9c-0.2,0-0.3,0.1-0.3,0.2v0.6c0,0.1,0.1,0.2,0.3,0.2h4.9V72.7z"/>
					</g>
					<g>
						<path class="st10" d="M105.8,74.1h-4.9c-0.2,0-0.3,0.1-0.3,0.2V75c0,0.1,0.1,0.2,0.3,0.2h4.9V74.1z"/>
					</g>
					<g>
						<path class="st10" d="M105.8,75.5h-4.9c-0.2,0-0.3,0.1-0.3,0.2v0.6c0,0.1,0.1,0.2,0.3,0.2h4.9V75.5z"/>
					</g>
					<g>
						<path class="st10" d="M105.8,76.9h-4.9c-0.2,0-0.3,0.1-0.3,0.2v0.6c0,0.1,0.1,0.2,0.3,0.2h4.9V76.9z"/>
					</g>
					<g>
						<path class="st10" d="M105.8,78.2h-4.9c-0.2,0-0.3,0.1-0.3,0.2v0.6c0,0.1,0.1,0.2,0.3,0.2h4.9V78.2z"/>
					</g>
					<g>
						<path class="st10" d="M105.8,79.6h-4.9c-0.2,0-0.3,0.1-0.3,0.2v0.6c0,0.1,0.1,0.2,0.3,0.2h4.9V79.6z"/>
					</g>
					<g>
						<path class="st10" d="M105.8,81h-4.9c-0.2,0-0.3,0.1-0.3,0.2v0.6c0,0.1,0.1,0.2,0.3,0.2h4.9V81z"/>
					</g>
					<g>
						<path class="st10" d="M105.8,82.3h-4.9c-0.2,0-0.3,0.1-0.3,0.2v0.6c0,0.1,0.1,0.2,0.3,0.2h4.9V82.3z"/>
					</g>
				</g>
			</g>
			<path class="st11" d="M105.3,65.5h18.3c0.2,0,0.4,0.2,0.4,0.4V85c0,0.2-0.2,0.4-0.4,0.4h-18.3c-0.2,0-0.4-0.2-0.4-0.4V65.9
				C104.8,65.7,105,65.5,105.3,65.5z"/>
			<g>
				<path class="st9" d="M111.4,106.2c0.4,0,0.7,0.3,0.7,0.7c0,0.4-0.3,0.7-0.7,0.7c-0.4,0-0.7-0.3-0.7-0.7c0,0,0,0,0,0
					C110.7,106.5,111,106.2,111.4,106.2 M111.4,105.7c-0.7,0-1.2,0.5-1.2,1.2c0,0.7,0.5,1.2,1.2,1.2s1.2-0.5,1.2-1.2c0,0,0,0,0,0
					C112.6,106.2,112.1,105.7,111.4,105.7z"/>
				<path class="st9" d="M114.7,106.2c0.4,0,0.7,0.3,0.7,0.7c0,0.4-0.3,0.7-0.7,0.7c-0.4,0-0.7-0.3-0.7-0.7c0,0,0,0,0,0
					C114,106.5,114.3,106.2,114.7,106.2 M114.7,105.7c-0.7,0-1.2,0.5-1.2,1.2c0,0.7,0.5,1.2,1.2,1.2s1.2-0.5,1.2-1.2c0,0,0,0,0,0
					C115.9,106.2,115.3,105.7,114.7,105.7z"/>
				<path class="st9" d="M111.4,109.7c0.4,0,0.7,0.3,0.7,0.7c0,0.4-0.3,0.7-0.7,0.7c-0.4,0-0.7-0.3-0.7-0.7c0,0,0,0,0,0
					C110.7,110,111,109.7,111.4,109.7 M111.4,109.2c-0.7,0-1.2,0.5-1.2,1.2c0,0.7,0.5,1.2,1.2,1.2s1.2-0.5,1.2-1.2c0,0,0,0,0,0
					C112.6,109.7,112.1,109.2,111.4,109.2z"/>
				<path class="st9" d="M114.7,109.7c0.4,0,0.7,0.3,0.7,0.7c0,0.4-0.3,0.7-0.7,0.7c-0.4,0-0.7-0.3-0.7-0.7c0,0,0,0,0,0
					C114,110,114.3,109.7,114.7,109.7 M114.7,109.2c-0.7,0-1.2,0.5-1.2,1.2c0,0.7,0.5,1.2,1.2,1.2s1.2-0.5,1.2-1.2c0,0,0,0,0,0
					C115.9,109.7,115.3,109.2,114.7,109.2z"/>
				<path class="st9" d="M111.4,113.2c0.4,0,0.7,0.3,0.7,0.7c0,0.4-0.3,0.7-0.7,0.7c-0.4,0-0.7-0.3-0.7-0.7c0,0,0,0,0,0
					C110.7,113.5,111,113.2,111.4,113.2 M111.4,112.7c-0.7,0-1.2,0.5-1.2,1.2c0,0.7,0.5,1.2,1.2,1.2s1.2-0.5,1.2-1.2c0,0,0,0,0,0
					C112.6,113.2,112.1,112.7,111.4,112.7z"/>
				<path class="st9" d="M114.7,113.2c0.4,0,0.7,0.3,0.7,0.7c0,0.4-0.3,0.7-0.7,0.7c-0.4,0-0.7-0.3-0.7-0.7c0,0,0,0,0,0
					C114,113.5,114.3,113.2,114.7,113.2 M114.7,112.7c-0.7,0-1.2,0.5-1.2,1.2c0,0.7,0.5,1.2,1.2,1.2s1.2-0.5,1.2-1.2c0,0,0,0,0,0
					C115.9,113.2,115.3,112.7,114.7,112.7z"/>
				<path class="st9" d="M111.4,116.7c0.4,0,0.7,0.3,0.7,0.7c0,0.4-0.3,0.7-0.7,0.7c-0.4,0-0.7-0.3-0.7-0.7c0,0,0,0,0,0
					C110.7,117,111,116.7,111.4,116.7 M111.4,116.2c-0.7,0-1.2,0.5-1.2,1.2c0,0.7,0.5,1.2,1.2,1.2s1.2-0.5,1.2-1.2c0,0,0,0,0,0
					C112.6,116.7,112.1,116.2,111.4,116.2z"/>
				<path class="st9" d="M114.7,116.7c0.4,0,0.7,0.3,0.7,0.7c0,0.4-0.3,0.7-0.7,0.7c-0.4,0-0.7-0.3-0.7-0.7c0,0,0,0,0,0
					C114,117,114.3,116.7,114.7,116.7 M114.7,116.2c-0.7,0-1.2,0.5-1.2,1.2c0,0.7,0.5,1.2,1.2,1.2s1.2-0.5,1.2-1.2c0,0,0,0,0,0
					C115.9,116.7,115.3,116.2,114.7,116.2z"/>
				<path class="st9" d="M111.4,120.2c0.4,0,0.7,0.3,0.7,0.7c0,0.4-0.3,0.7-0.7,0.7c-0.4,0-0.7-0.3-0.7-0.7c0,0,0,0,0,0
					C110.7,120.5,111,120.2,111.4,120.2 M111.4,119.7c-0.7,0-1.2,0.5-1.2,1.2c0,0.7,0.5,1.2,1.2,1.2s1.2-0.5,1.2-1.2c0,0,0,0,0,0
					C112.6,120.2,112.1,119.7,111.4,119.7z"/>
				<path class="st9" d="M114.7,120.2c0.4,0,0.7,0.3,0.7,0.7c0,0.4-0.3,0.7-0.7,0.7c-0.4,0-0.7-0.3-0.7-0.7c0,0,0,0,0,0
					C114,120.5,114.3,120.2,114.7,120.2 M114.7,119.7c-0.7,0-1.2,0.5-1.2,1.2c0,0.7,0.5,1.2,1.2,1.2s1.2-0.5,1.2-1.2c0,0,0,0,0,0
					C115.9,120.2,115.3,119.7,114.7,119.7z"/>
				<path class="st9" d="M24.5,128.5c2.3,0,4.2,1.9,4.2,4.2s-1.9,4.3-4.2,4.3s-4.2-1.9-4.2-4.3l0,0
					C20.3,130.4,22.2,128.5,24.5,128.5 M24.5,127.3c-3,0-5.5,2.5-5.5,5.5s2.5,5.5,5.5,5.5s5.5-2.5,5.5-5.5l0,0
					C30,129.7,27.5,127.3,24.5,127.3z"/>
				<path class="st8" d="M40.6,127.3c-3,0-5.5,2.5-5.5,5.5s2.5,5.5,5.5,5.5c3,0,5.5-2.5,5.5-5.5l0,0
					C46.1,129.7,43.7,127.3,40.6,127.3z"/>
				<path class="st8" d="M32.6,140.3c-3,0-5.5,2.5-5.5,5.5s2.5,5.5,5.5,5.5s5.5-2.5,5.5-5.5l0,0C38.1,142.7,35.7,140.3,32.6,140.3z"
					/>
				<path class="st9" d="M14.9,127.5c0.8,0,1.5,0.7,1.5,1.5s-0.7,1.5-1.5,1.5s-1.5-0.7-1.5-1.5S14.1,127.5,14.9,127.5 M14.9,126.3
					c-1.5,0-2.7,1.2-2.7,2.7s1.2,2.7,2.7,2.7s2.7-1.2,2.7-2.7l0,0C17.7,127.5,16.5,126.3,14.9,126.3z"/>
				<path class="st9" d="M14.9,134.7c0.8,0,1.5,0.7,1.5,1.5c0,0.8-0.7,1.5-1.5,1.5c-0.8,0-1.5-0.7-1.5-1.5
					C13.4,135.4,14.1,134.7,14.9,134.7 M14.9,133.5c-1.5,0-2.7,1.2-2.7,2.7s1.2,2.7,2.7,2.7s2.7-1.2,2.7-2.7l0,0
					C17.7,134.7,16.5,133.5,14.9,133.5z"/>
				<path class="st9" d="M151.4,71.9c0.8,0,1.5,0.7,1.5,1.5s-0.7,1.5-1.5,1.5s-1.5-0.7-1.5-1.5S150.6,71.9,151.4,71.9 M151.4,70.6
					c-1.5,0-2.7,1.2-2.7,2.7s1.2,2.7,2.7,2.7s2.7-1.2,2.7-2.7l0,0C154.1,71.9,152.9,70.6,151.4,70.6z"/>
				<path class="st9" d="M158.3,71.9c0.8,0,1.5,0.7,1.5,1.5s-0.7,1.5-1.5,1.5s-1.5-0.7-1.5-1.5S157.5,71.9,158.3,71.9 M158.3,70.6
					c-1.5,0-2.7,1.2-2.7,2.7s1.2,2.7,2.7,2.7s2.7-1.2,2.7-2.7l0,0C161,71.9,159.8,70.6,158.3,70.6z"/>
				<path class="st9" d="M151.4,78.9c0.8,0,1.5,0.7,1.5,1.5s-0.7,1.5-1.5,1.5s-1.5-0.7-1.5-1.5S150.6,78.9,151.4,78.9 M151.4,77.7
					c-1.5,0-2.7,1.2-2.7,2.7s1.2,2.7,2.7,2.7s2.7-1.2,2.7-2.7l0,0C154.1,78.9,152.9,77.7,151.4,77.7z"/>
				<path class="st9" d="M158.3,78.9c0.8,0,1.5,0.7,1.5,1.5s-0.7,1.5-1.5,1.5s-1.5-0.7-1.5-1.5S157.5,78.9,158.3,78.9 M158.3,77.7
					c-1.5,0-2.7,1.2-2.7,2.7s1.2,2.7,2.7,2.7s2.7-1.2,2.7-2.7l0,0C161,78.9,159.8,77.7,158.3,77.7z"/>
				<path class="st9" d="M151.4,86c0.8,0,1.5,0.7,1.5,1.5s-0.7,1.5-1.5,1.5s-1.5-0.7-1.5-1.5S150.6,86,151.4,86 M151.4,84.8
					c-1.5,0-2.7,1.2-2.7,2.7s1.2,2.7,2.7,2.7s2.7-1.2,2.7-2.7l0,0C154.1,86,152.9,84.8,151.4,84.8z"/>
				<path class="st9" d="M158.3,86c0.8,0,1.5,0.7,1.5,1.5s-0.7,1.5-1.5,1.5s-1.5-0.7-1.5-1.5S157.5,86,158.3,86 M158.3,84.8
					c-1.5,0-2.7,1.2-2.7,2.7s1.2,2.7,2.7,2.7s2.7-1.2,2.7-2.7l0,0C161,86,159.8,84.8,158.3,84.8z"/>
			</g>
			<rect x="15.6" y="60.6" class="st12" width="4" height="2.1"/>
			<rect x="15.6" y="68.4" class="st12" width="4" height="2.1"/>
			<rect x="15.6" y="75.9" class="st12" width="4" height="2.1"/>
			<rect x="15.6" y="83.7" class="st12" width="4" height="2.1"/>
			<rect x="15.6" y="91" class="st12" width="4" height="2.1"/>
			<g>
				<g>
					<g>
						<path class="st10" d="M11.4,52.3v4.5c0,0.1,0.3,0.3,0.6,0.3h1.6c0.3,0,0.6-0.1,0.6-0.3v-4.5H11.4z"/>
					</g>
					<g>
						<path class="st10" d="M11.4,37.9v-4.5c0-0.1,0.3-0.3,0.6-0.3h1.6c0.3,0,0.6,0.1,0.6,0.3v4.5H11.4z"/>
					</g>
				</g>
				<g>
					<g>
						<g>
							<rect x="4.9" y="45.4" class="st13" width="1.3" height="8.4"/>
							<line class="st14" x1="6.2" y1="45.4" x2="6.2" y2="53.8"/>
						</g>
						<g>
							<polygon class="st13" points="5.4,56.5 4.9,55.9 6.2,54.9 6.5,55.6 							"/>
							<line class="st14" x1="6.5" y1="55.6" x2="6.2" y2="54.9"/>
						</g>
						<rect x="17.5" y="49.8" width="2.3" height="2.8"/>
						<g>
							<polygon class="st15" points="19.8,52 19.8,55.1 18.9,55.1 18.1,54.5 6.2,54.5 6.2,53.8 6.2,45.4 19.8,45.4 19.8,50.6 
								18.1,50.6 18.1,52 							"/>
							<path class="st16" d="M18.9,55.1h0.9v0.2c0,0.2-0.2,0.4-0.4,0.4H6.5l-0.3-0.7v-0.4h11.9L18.9,55.1z"/>
						</g>
					</g>
					<g>
						<g>
							<rect x="4.9" y="36.7" class="st13" width="1.3" height="9"/>
							<line class="st14" x1="6.2" y1="45.1" x2="6.2" y2="36.7"/>
						</g>
						<g>
							<polygon class="st13" points="5.4,34 4.9,34.6 6.2,35.6 6.5,34.9 							"/>
							<line class="st14" x1="6.5" y1="34.9" x2="6.2" y2="35.6"/>
						</g>
						<rect x="17.5" y="37.9" width="2.3" height="2.8"/>
						<g>
							<polygon class="st15" points="19.8,38.5 19.8,35.4 18.9,35.4 18.1,36 6.2,36 6.2,36.7 6.2,45.7 19.8,45.7 19.8,39.9 
								18.1,39.9 18.1,38.5 							"/>
							<path class="st16" d="M18.9,35.4h0.9v-0.2c0-0.2-0.2-0.4-0.4-0.4H6.5l-0.3,0.7V36h11.9L18.9,35.4z"/>
						</g>
					</g>
				</g>
			</g>
			<circle class="st3" cx="12.8" cy="24.5" r="1.4"/>
			<g>
				<g>
					<g>
						<g>
							<path class="st3" d="M82.8,62.9c0,0,0.2,0.8-0.4,0.9c-0.6,0-1.1-0.3-1.5-0.8c-0.4-0.3-0.4-0.9-0.1-1.3c0,0,0,0,0.1-0.1
								c0.4-0.3,0.9-0.5,1.4-0.3c-0.9-0.8-2.2-0.9-3.3-0.3c-1.5,1-1.1,2.4,0.3,3.6c1.2,1.1,0.2,2.3-1,2.1c-0.8-0.1-1.2-0.8-1-1.2
								c0.2-0.3,0.5-0.5,0.8-0.6c-0.5-0.2-1-0.2-1.5,0c-0.7,0.3-1.3,0.9-1.3,2.4v7c0,0,0.7-0.9,1.6-1.9c1-1.1,1.4-1.8,2.5-1.7
								c1.7,0.1,3.3-0.7,4.2-2.1C85.4,66.2,84,63.3,82.8,62.9"/>
							<g>
								<path class="st3" d="M52.6,75.9c-0.9,0-1.8,0.4-2.3,1.2h0v-1l-2,0.4v10l2.1,1.9l0-5.5h0c0.5,0.7,1.4,1.2,2.3,1.2
									c2.3,0,3.4-1.9,3.4-4C56.1,77.8,55,75.9,52.6,75.9z M52.2,82.4c-1.4,0-1.8-1.2-1.8-2.4c0-1.2,0.4-2.5,1.8-2.5
									c1.4,0,1.8,1.2,1.8,2.5C54,81.2,53.6,82.4,52.2,82.4L52.2,82.4z"/>
								<path class="st3" d="M45,79.2c-1.2-0.3-2.4-0.4-2.4-1.1c0-0.6,0.7-0.7,1.2-0.7c0.8,0,1.4,0.2,1.4,1h2
									c-0.2-1.9-1.7-2.5-3.4-2.5c-1.7,0-3.3,0.5-3.3,2.5c0,1.4,1.2,1.8,2.4,2.1c1.5,0.3,2.4,0.6,2.4,1.2c0,0.7-0.8,1-1.4,1
									c-0.8,0-1.6-0.4-1.6-1.3h-2c0.1,2,1.8,2.7,3.6,2.7c1.7,0,3.5-0.7,3.5-2.7C47.5,79.9,46.3,79.5,45,79.2z"/>
								<path class="st3" d="M64,78.1c0-1.8-1.8-2.2-3.4-2.2c-1.7,0-3.5,0.6-3.6,2.6h2.1c0.1-0.8,0.6-1.2,1.4-1.2
									c0.7,0,1.4,0.1,1.4,1c0.1,1.7-5.1-0.1-5.1,3.3c0,1.6,1.1,2.3,2.6,2.3c1,0.1,1.9-0.3,2.6-0.9c0,0.3,0.1,0.5,0.2,0.7h2.1
									c-0.2-0.5-0.3-1.1-0.3-1.7L64,78.1z M61.8,80.8c0.1,0.9-0.5,1.6-1.3,1.8c-0.1,0-0.2,0-0.4,0c-0.7,0-1.3-0.2-1.3-1
									c0-0.8,0.6-1,1.3-1.1c0.6,0,1.2-0.2,1.8-0.4L61.8,80.8z"/>
								<path class="st3" d="M67.2,77.5L67.2,77.5l0-1.4l-2,0.4v7.3h2.1v-3.5c0-1.4,0.5-2.5,2.1-2.5c0.3,0,0.5,0,0.8,0.1v-2
									c-0.1,0-0.3-0.1-0.5-0.1C68.6,75.9,67.6,76.6,67.2,77.5z"/>
								<polygon class="st3" points="78.2,76.1 75.7,76.1 73,78.9 73,73.2 70.9,74.3 70.9,83.8 73,83.8 73,81.1 73.8,80.4 76,83.8 
									78.5,83.8 75.3,78.9 								"/>
								<path class="st3" d="M79.8,75.5v0.6h-0.6l-1.4,1.4h2.1v6.3h2.1v-6.3h1.5v-1.4h-1.5v-0.5c0-0.6,0.2-0.9,0.8-0.9
									c0.3,0,0.5,0,0.8,0v-1.6c-0.4,0-0.7-0.1-1.1-0.1c-1.2-0.2-2.4,0.7-2.6,1.9C79.8,75.2,79.8,75.4,79.8,75.5z"/>
								<path class="st3" d="M89,80.1c0,1.6-0.5,2.2-1.6,2.2c-1,0-1.4-0.6-1.4-1.9v-4.3H84v4.7c0,1.9,0.6,3.2,2.8,3.2
									c1,0,1.8-0.5,2.3-1.3h0v1.1h2v-7.7H89L89,80.1z"/>
								<path class="st3" d="M96.7,75.9c-1,0-1.8,0.5-2.3,1.3h0v-1.1h-2v7.7h2.1v-4c0-1.6,0.5-2.2,1.6-2.2c1,0,1.4,0.6,1.4,1.9v4.3
									h2.1v-4.7C99.5,77.2,99,75.9,96.7,75.9z"/>
							</g>
						</g>
					</g>
				</g>
			</g>
			<g>
				<polygon class="st17" points="159.5,76.7 154.9,76.7 150.2,76.7 147.7,74.8 147.7,73 147.7,71.2 150.2,69.4 154.9,69.4 
					159.5,69.4 162,71.2 162,73 162,74.8 				"/>
				<polygon class="st17" points="159.5,83.9 154.9,83.9 150.2,83.9 147.7,82.1 147.7,80.3 147.7,78.5 150.2,76.7 154.9,76.7 
					159.5,76.7 162,78.5 162,80.3 162,82.1 				"/>
				<polygon class="st17" points="159.5,91.2 154.9,91.2 150.2,91.2 147.7,89.4 147.7,87.6 147.7,85.8 150.2,83.9 154.9,83.9 
					159.5,83.9 162,85.8 162,87.6 162,89.4 				"/>
			</g>
		</g>
		<polyline class="st18" points="17.5,56.3 21,56.3 21,53 		"/>
		<polyline class="st18" points="17.5,34.2 21,34.2 21,37.5 		"/>
		<g>
			<g>
				<g>
					<path class="st10" d="M154.6,108.2h-4c-0.1,0-0.2,0.2-0.2,0.4v1.1c0,0.2,0.1,0.4,0.2,0.4h4V108.2z"/>
				</g>
			</g>
			<g>
				<g>
					<path class="st10" d="M91.8,52.7v-4c0-0.1-0.2-0.2-0.4-0.2h-1.1c-0.2,0-0.4,0.1-0.4,0.2v4H91.8z"/>
				</g>
			</g>
			<g>
				<g>
					<path class="st10" d="M102.5,52.7v-4c0-0.1-0.2-0.2-0.4-0.2H101c-0.2,0-0.4,0.1-0.4,0.2v4H102.5z"/>
				</g>
			</g>
			<g>
				<g>
					<path class="st10" d="M91.8,36.6v-4c0-0.1-0.2-0.2-0.4-0.2h-1.1c-0.2,0-0.4,0.1-0.4,0.2v4H91.8z"/>
				</g>
			</g>
			<g>
				<g>
					<path class="st10" d="M102.5,36.6v-4c0-0.1-0.2-0.2-0.4-0.2H101c-0.2,0-0.4,0.1-0.4,0.2v4H102.5z"/>
				</g>
			</g>
			<g>
				<g>
					<path class="st10" d="M154.6,111.4h-4c-0.1,0-0.2,0.2-0.2,0.4v1.1c0,0.2,0.1,0.4,0.2,0.4h4V111.4z"/>
				</g>
			</g>
			<g>
				<g>
					<path class="st10" d="M154.6,114.5h-4c-0.1,0-0.2,0.2-0.2,0.4v1.1c0,0.2,0.1,0.4,0.2,0.4h4V114.5z"/>
				</g>
			</g>
			<g>
				<g>
					<path class="st10" d="M154.6,117.7h-4c-0.1,0-0.2,0.2-0.2,0.4v1.1c0,0.2,0.1,0.4,0.2,0.4h4V117.7z"/>
				</g>
			</g>
			<g>
				<g>
					<g>
						<line class="st14" x1="166.9" y1="113.8" x2="166.9" y2="106.3"/>
					</g>
					<g>
						<line class="st14" x1="166.7" y1="104.6" x2="166.9" y2="105.3"/>
					</g>
					<g>
						<polygon class="st17" points="154.1,107.9 154.1,107 154.9,107 155.7,105.7 166.9,105.7 166.9,106.3 166.9,113.8 154.1,113.8 
							154.1,109.1 						"/>
						<path class="st19" d="M154.9,107h-0.9v-1.9V105c0-0.2,0.2-0.3,0.4-0.3h12.3l0.2,0.6v0.4h-11.3L154.9,107z"/>
					</g>
					<g>
						<polygon class="st17" points="154.1,119.7 154.1,120.6 154.9,120.6 155.7,121.9 166.9,121.9 166.9,121.3 166.9,113.8 
							154.1,113.8 154.1,118.4 						"/>
						<path class="st19" d="M154.9,120.6h-0.9v1.9v0.1c0,0.2,0.2,0.3,0.4,0.3h12.3l0.2-0.6v-0.4h-11.3L154.9,120.6z"/>
					</g>
				</g>
			</g>
		</g>
		<polyline class="st20" points="156.2,104 152.9,104 152.9,107 		"/>
		<polyline class="st20" points="156.2,123.9 152.9,123.9 152.9,120.9 		"/>
		<g>
			<g>
				<polygon class="st21" points="7.4,109.3 24,109.3 24,118.7 7.4,118.7 7.3,116.8 7.4,116.8 				"/>
				<rect x="24" y="116.8" class="st22" width="6.2" height="1.8"/>
				<rect x="24" y="109.3" class="st22" width="1.5" height="7.5"/>
			</g>
			<g>
				<polygon class="st21" points="7.4,110.2 24,110.2 24,100.9 7.4,100.9 7.3,102.8 7.4,102.8 				"/>
				<rect x="24" y="100.9" class="st22" width="6.2" height="1.8"/>
				<rect x="24" y="102.7" class="st22" width="1.5" height="7.5"/>
				<rect x="12.7" y="103.3" class="st22" width="5.6" height="2.7"/>
				<rect x="12.7" y="113" class="st22" width="5.6" height="2.7"/>
			</g>
		</g>
	</g>
</g>
<path class="st17" d="M3.9,122.6h33.1c2.1,0,3.8,1.7,3.8,3.8v12.7c0,2.1-1.7,3.8-3.8,3.8H3.9V122.6z"/>
<rect x="3.9" y="121" class="st19" width="7.9" height="23.4"/>
<path class="st19" d="M8.9,138.2L27,138c2.9,0,5.2-2.4,5.2-5.2v0c0-2.9-2.4-5.2-5.2-5.2l-18.2,0.2"/>
<rect x="88.8" y="35.2" class="st23" width="14.6" height="14.6"/>
<path class="st16" d="M27.2,129.7"/>
<g>
	<path class="st24" d="M52.6,95.4c0,0.2-0.1,0.3-0.3,0.3s-0.3-0.1-0.3-0.3v-4.3h1.8c0.4,0,0.9,0.3,0.9,0.9v0.4
		c0,0.6-0.4,0.8-0.9,0.8h-0.5l1.2,1.9c0.1,0.1,0.1,0.2,0.1,0.3c0,0.2-0.1,0.3-0.3,0.3c-0.1,0-0.2-0.1-0.2-0.2l-1.5-2.3h-0.1V95.4z
		 M52.6,92.6h1.2c0.2,0,0.4,0,0.4-0.2v-0.4c0-0.2-0.2-0.3-0.4-0.3h-1.2V92.6z"/>
	<path class="st24" d="M56.9,95.7c-0.2,0-0.3,0-0.5-0.2l-0.2-0.2C56.1,95.1,56,95,56,94.7v-1.1c0-0.3,0-0.5,0.3-0.7l0.2-0.2
		c0.2-0.2,0.4-0.2,0.6-0.2h0.5c0.3,0,0.4,0,0.6,0.2l0.2,0.2c0.2,0.2,0.3,0.4,0.3,0.7v0.5c0,0.3,0,0.4-0.4,0.4h-1.7v0.2
		c0,0.1,0,0.1,0.1,0.2l0.1,0.2c0.1,0.1,0.2,0.1,0.3,0.1h1.1c0.2,0,0.4,0,0.4,0.3c0,0.2-0.2,0.3-0.4,0.3H56.9z M56.5,93.9H58v-0.3
		c0-0.1,0-0.2-0.1-0.3l-0.2-0.2c-0.1-0.1-0.2-0.1-0.2-0.1h-0.4c-0.1,0-0.2,0-0.3,0.1l-0.2,0.1c-0.1,0.1-0.1,0.1-0.1,0.3V93.9z"/>
	<path class="st24" d="M61.3,92.5c0.2,0,0.3,0.1,0.5,0.3l0.1,0.1v-1.2c0-0.2,0-0.4,0.3-0.4s0.3,0.2,0.3,0.4v3.6c0,0.2,0,0.4-0.3,0.4
		c-0.2,0-0.3-0.2-0.3-0.4v0l-0.1,0.1c-0.2,0.2-0.3,0.3-0.5,0.3h-0.5c-0.2,0-0.4-0.1-0.4-0.2l-0.2-0.2c-0.2-0.2-0.3-0.4-0.3-0.7v-1.1
		c0-0.3,0.1-0.5,0.3-0.7l0.2-0.2c0.2-0.2,0.3-0.2,0.5-0.2H61.3z M60.4,94.4c0,0.2,0,0.4,0.1,0.4l0.2,0.1c0.1,0.1,0.1,0.1,0.2,0.1
		h0.4c0.1,0,0.2,0,0.3-0.1l0.3-0.3c0.1-0.1,0.2-0.1,0.2-0.2v-0.7c0-0.1-0.1-0.2-0.2-0.2l-0.3-0.3c-0.1-0.1-0.2-0.1-0.3-0.1h-0.4
		c-0.1,0-0.1,0.1-0.2,0.1l-0.2,0.1c-0.1,0.1-0.1,0.3-0.1,0.4V94.4z"/>
	<path class="st24" d="M63.7,91.1h1.5c0.8,0,1.2,0.5,1.2,1.4c0,0.3-0.1,0.7-0.4,0.9c0.3,0.3,0.4,0.6,0.4,1.1c0,0.8-0.5,1.2-1.2,1.2
		h-1.5V91.1z M64.2,93.1h1c0.4,0,0.6-0.2,0.6-0.6c0-0.5-0.1-0.8-0.6-0.8h-1V93.1z M64.2,95.1h1c0.4,0,0.6-0.2,0.6-0.6
		c0-0.5-0.1-0.8-0.6-0.8h-1V95.1z"/>
	<path class="st24" d="M67.6,93.5c0-0.4,0.1-0.5,0.3-0.7c0.3-0.2,0.4-0.3,0.7-0.3h0.4c0.4,0,0.5,0.1,0.7,0.3
		c0.3,0.2,0.3,0.4,0.3,0.7v1.1c0,0.4-0.1,0.5-0.4,0.8s-0.4,0.3-0.7,0.3h-0.4c-0.3,0-0.4,0-0.7-0.3c-0.3-0.2-0.4-0.4-0.4-0.8V93.5z
		 M68.1,94.6c0,0.1,0,0.2,0.2,0.3c0.1,0.1,0.2,0.2,0.4,0.2h0.4c0.2,0,0.2,0,0.4-0.2c0.2-0.1,0.2-0.2,0.2-0.3v-1.1
		c0-0.1,0-0.2-0.2-0.3c-0.1-0.1-0.2-0.2-0.4-0.2h-0.4c-0.2,0-0.2,0-0.4,0.2c-0.2,0.1-0.2,0.2-0.2,0.3V94.6z"/>
	<path class="st24" d="M72.4,93.1c-0.2,0-0.4,0-0.4-0.3c0-0.2,0.2-0.3,0.4-0.3h0.7c0.3,0,0.5,0,0.7,0.3c0.2,0.2,0.2,0.4,0.2,0.7
		l0.1,1.9c0,0.2-0.1,0.3-0.2,0.3c-0.1,0-0.3-0.1-0.3-0.3l-0.4,0.2c-0.1,0.1-0.2,0.1-0.3,0.1h-0.5c-0.2,0-0.4,0-0.6-0.2
		c-0.2-0.2-0.3-0.4-0.3-0.7v-0.2c0-0.3,0.1-0.4,0.3-0.6c0.2-0.2,0.4-0.2,0.6-0.2h1.1v-0.1c0-0.4-0.1-0.5-0.5-0.5H72.4z M72.4,94.3
		c-0.1,0-0.3,0-0.3,0.2v0.4c0,0.2,0.2,0.2,0.3,0.2h0.6l0.6-0.3v-0.1c0-0.3-0.1-0.4-0.4-0.4H72.4z"/>
	<path class="st24" d="M75.4,92.9c0-0.2,0-0.4,0.3-0.4c0.2,0,0.3,0.2,0.3,0.4v0.2l0.4-0.4c0.1-0.1,0.3-0.2,0.5-0.2h0.4
		c0.2,0,0.4,0.1,0.5,0.2c0.2,0.2,0.2,0.4,0.2,0.6c0,0.2,0,0.4-0.3,0.4c-0.2,0-0.3-0.2-0.3-0.3c0-0.1,0-0.2-0.1-0.2
		c-0.1-0.1-0.2-0.1-0.3-0.1h-0.2c-0.1,0-0.2,0.1-0.3,0.1l-0.7,0.7v1.4c0,0.2,0,0.4-0.3,0.4s-0.3-0.2-0.3-0.4V92.9z"/>
	<path class="st24" d="M80.4,92.5c0.2,0,0.3,0.1,0.5,0.3l0.1,0.1v-1.2c0-0.2,0-0.4,0.3-0.4s0.3,0.2,0.3,0.4v3.6c0,0.2,0,0.4-0.3,0.4
		c-0.2,0-0.3-0.2-0.3-0.4v0l-0.1,0.1c-0.2,0.2-0.3,0.3-0.5,0.3h-0.5c-0.2,0-0.4-0.1-0.4-0.2l-0.2-0.2C79.1,95.1,79,95,79,94.7v-1.1
		c0-0.3,0.1-0.5,0.3-0.7l0.2-0.2c0.2-0.2,0.3-0.2,0.5-0.2H80.4z M79.5,94.4c0,0.2,0,0.4,0.1,0.4l0.2,0.1c0.1,0.1,0.1,0.1,0.2,0.1
		h0.4c0.1,0,0.2,0,0.3-0.1l0.3-0.3c0.1-0.1,0.2-0.1,0.2-0.2v-0.7c0-0.1-0.1-0.2-0.2-0.2l-0.3-0.3c-0.1-0.1-0.2-0.1-0.3-0.1H80
		c-0.1,0-0.1,0.1-0.2,0.1l-0.2,0.1c-0.1,0.1-0.1,0.3-0.1,0.4V94.4z"/>
	<path class="st24" d="M87.3,91.7v0.2c0,0.2-0.1,0.3-0.3,0.3c-0.2,0-0.3-0.1-0.3-0.3v-0.8h2.7v0.8c0,0.2-0.1,0.3-0.3,0.3
		c-0.2,0-0.3-0.1-0.3-0.3v-0.2h-0.5v3.7c0,0.2-0.1,0.3-0.3,0.3c-0.2,0-0.3-0.1-0.3-0.3v-3.7H87.3z"/>
	<path class="st24" d="M93.2,95.3c0,0.1,0,0.4-0.3,0.4c-0.2,0-0.3-0.2-0.3-0.4v-0.1l-0.4,0.3c-0.2,0.1-0.3,0.2-0.4,0.2h-0.4
		c-0.1,0-0.3,0-0.5-0.2c-0.2-0.2-0.2-0.5-0.2-0.8l-0.1-1.8c0-0.2,0-0.4,0.3-0.4c0.2,0,0.2,0.2,0.3,0.4l0.1,1.7c0,0.1,0,0.3,0.1,0.4
		s0.2,0.1,0.3,0.1h0.2c0.1,0,0.1,0,0.2-0.1l0.8-0.5v-1.7c0-0.2,0-0.4,0.3-0.4s0.3,0.2,0.3,0.4V95.3z"/>
	<path class="st24" d="M94.5,92.9c0-0.2,0-0.4,0.3-0.4c0.2,0,0.3,0.2,0.3,0.4v0.2l0.4-0.4c0.1-0.1,0.3-0.2,0.5-0.2h0.4
		c0.2,0,0.4,0.1,0.5,0.2c0.2,0.2,0.2,0.4,0.2,0.6c0,0.2,0,0.4-0.3,0.4c-0.2,0-0.3-0.2-0.3-0.3c0-0.1,0-0.2-0.1-0.2
		c-0.1-0.1-0.2-0.1-0.3-0.1H96c-0.1,0-0.2,0.1-0.3,0.1L95,93.9v1.4c0,0.2,0,0.4-0.3,0.4s-0.3-0.2-0.3-0.4V92.9z"/>
	<path class="st24" d="M98.9,92.9l0.1-0.1c0.2-0.2,0.3-0.3,0.5-0.3h0.6c0.1,0,0.3,0.1,0.4,0.2l0.2,0.2c0.2,0.2,0.3,0.4,0.3,0.7v1.1
		c0,0.3-0.1,0.5-0.3,0.7l-0.2,0.2c-0.1,0.1-0.3,0.2-0.4,0.2h-0.5c-0.2,0-0.4-0.1-0.5-0.3l-0.1-0.1v0c0,0.2-0.1,0.4-0.3,0.4
		c-0.2,0-0.3-0.2-0.3-0.4v-3.6c0-0.2,0-0.4,0.3-0.4s0.3,0.2,0.3,0.4V92.9z M98.9,94.3c0,0.2,0,0.3,0.2,0.4l0.3,0.3
		c0.1,0.1,0.1,0.1,0.2,0.1h0.4c0.1,0,0.1,0,0.2-0.1l0.2-0.2c0.1-0.1,0.1-0.2,0.1-0.3v-1c0-0.1,0-0.2-0.1-0.2l-0.2-0.2
		c0,0-0.1,0-0.1,0h-0.4c-0.1,0-0.2,0-0.2,0.1l-0.3,0.3c-0.1,0.1-0.2,0.2-0.2,0.3V94.3z"/>
	<path class="st24" d="M102.3,93.5c0-0.4,0.1-0.5,0.3-0.7c0.3-0.2,0.4-0.3,0.7-0.3h0.4c0.4,0,0.5,0.1,0.7,0.3
		c0.3,0.2,0.3,0.4,0.3,0.7v1.1c0,0.4-0.1,0.5-0.4,0.8s-0.4,0.3-0.7,0.3h-0.4c-0.3,0-0.4,0-0.7-0.3c-0.3-0.2-0.4-0.4-0.4-0.8V93.5z
		 M102.8,94.6c0,0.1,0,0.2,0.2,0.3c0.1,0.1,0.2,0.2,0.4,0.2h0.4c0.2,0,0.2,0,0.4-0.2c0.2-0.1,0.2-0.2,0.2-0.3v-1.1
		c0-0.1,0-0.2-0.2-0.3c-0.1-0.1-0.2-0.2-0.4-0.2h-0.4c-0.2,0-0.2,0-0.4,0.2c-0.2,0.1-0.2,0.2-0.2,0.3V94.6z"/>
</g>
<rect x="134.3" y="127.5" class="st25" width="10.2" height="8.2"/>
<ellipse class="st17" cx="139.4" cy="131.6" rx="3.1" ry="2.1"/>
<circle class="st26" cx="96" cy="42.5" r="5.1"/>
<rect x="7.4" y="108.5" class="st22" width="12.3" height="1.9"/>
<rect x="150.8" y="72" class="st9" width="2.1" height="2.1"/>
<rect x="156.8" y="72" transform="matrix(-1 -1.224647e-16 1.224647e-16 -1 315.7053 146.0291)" class="st9" width="2.1" height="2.1"/>
<rect x="150.8" y="79.4" class="st9" width="2.1" height="2.1"/>
<rect x="156.8" y="79.4" transform="matrix(-1 -1.224647e-16 1.224647e-16 -1 315.7053 160.8688)" class="st9" width="2.1" height="2.1"/>
<rect x="150.8" y="86.8" class="st9" width="2.1" height="2.1"/>
<rect x="156.8" y="86.8" transform="matrix(-1 -1.224647e-16 1.224647e-16 -1 315.7053 175.7084)" class="st9" width="2.1" height="2.1"/>
<g>
	<path class="st3" d="M25.7,61.4c0,0.6-0.4,1-1.1,1H24v0.8h-0.5v-2.8h1.1C25.3,60.5,25.7,60.8,25.7,61.4z M25.3,61.4
		c0-0.4-0.2-0.5-0.7-0.5H24V62h0.6C25,62,25.3,61.8,25.3,61.4z"/>
	<path class="st3" d="M29.3,61.9c0,0.8-0.6,1.4-1.5,1.4s-1.5-0.6-1.5-1.4c0-0.8,0.6-1.4,1.5-1.4S29.3,61.1,29.3,61.9z M26.8,61.9
		c0,0.6,0.5,1,1,1s1-0.4,1-1s-0.4-1-1-1C27.3,60.9,26.8,61.3,26.8,61.9z"/>
	<path class="st3" d="M30.3,60.5l0.7,2.3l0.7-2.3h0.5l0.7,2.3l0.7-2.3H34l-0.9,2.8h-0.5l-0.7-2.2l-0.7,2.2h-0.5l-0.9-2.8H30.3z"/>
	<path class="st3" d="M36.7,60.5v0.4h-1.5v0.8h1.4v0.4h-1.4v0.8h1.6v0.4h-2v-2.8H36.7z"/>
	<path class="st3" d="M39.5,63.3L39,62.4c0,0-0.1,0-0.1,0h-0.7v0.8h-0.5v-2.8h1.1c0.7,0,1.1,0.3,1.1,1c0,0.4-0.2,0.8-0.6,0.9
		l0.6,0.9H39.5z M38.9,62c0.4,0,0.7-0.2,0.7-0.6c0-0.4-0.2-0.5-0.7-0.5h-0.7V62H38.9z"/>
</g>
<g>
	<path class="st3" d="M28.5,30c0,0.3,0.1,0.5,0.3,0.5c0.6,0,0.3-1.5,1.3-1.5c0.5,0,0.8,0.4,0.8,1.1c0,0.4-0.2,0.9-0.4,1.1L30,30.9
		c0.3-0.3,0.4-0.6,0.4-0.9c0-0.3-0.1-0.5-0.3-0.5c-0.6,0-0.3,1.5-1.3,1.5c-0.5,0-0.8-0.4-0.8-1c0-0.4,0.1-0.7,0.3-1l0.4,0.2
		C28.6,29.5,28.5,29.8,28.5,30z"/>
	<path class="st3" d="M28.5,26.7c0,0.6,0.4,1,1,1s1-0.4,1-1c0-0.3-0.1-0.6-0.3-0.8l0.3-0.3c0.3,0.3,0.5,0.7,0.5,1.1
		c0,0.8-0.6,1.5-1.4,1.5c-0.8,0-1.4-0.6-1.4-1.5c0-0.4,0.2-0.8,0.4-1.1l0.3,0.3C28.6,26.1,28.5,26.4,28.5,26.7z"/>
	<path class="st3" d="M28.1,24.3h2.4v-1.2h0.4v1.7h-2.8V24.3z"/>
</g>
<g>
	<path class="st3" d="M35.6,31c0,0.3,0.1,0.5,0.3,0.5c0.6,0,0.3-1.5,1.3-1.5c0.5,0,0.8,0.4,0.8,1.1c0,0.4-0.2,0.9-0.4,1.1L37.1,32
		c0.3-0.3,0.4-0.6,0.4-0.9c0-0.3-0.1-0.5-0.3-0.5c-0.6,0-0.3,1.5-1.3,1.5c-0.5,0-0.8-0.4-0.8-1c0-0.4,0.1-0.7,0.3-1l0.4,0.2
		C35.7,30.5,35.6,30.8,35.6,31z"/>
	<path class="st3" d="M36.6,26.4c0.8,0,1.4,0.6,1.4,1.5V29h-2.8v-1.1C35.2,27,35.8,26.4,36.6,26.4z M36.6,26.9c-0.6,0-1,0.4-1,1v0.7
		h2v-0.7C37.5,27.3,37.1,26.9,36.6,26.9z"/>
	<path class="st3" d="M37.3,23.8v1.4l0.6,0.3V26l-2.8-1.2v-0.5L38,23v0.5L37.3,23.8z M36.9,24l-1.2,0.5l1.2,0.5V24z"/>
</g>
<g>
	<path class="st3" d="M44.5,32.8v1.4l0.6,0.3V35l-2.8-1.2v-0.5l2.8-1.2v0.5L44.5,32.8z M44,33l-1.2,0.5L44,34V33z"/>
	<path class="st3" d="M45.1,29.5L44.2,30c0,0,0,0.1,0,0.1v0.7h0.8v0.5h-2.8v-1.1c0-0.7,0.3-1.1,1-1.1c0.4,0,0.8,0.2,0.9,0.6l0.9-0.6
		V29.5z M43.8,30.1c0-0.4-0.2-0.7-0.6-0.7c-0.4,0-0.5,0.2-0.5,0.7v0.7h1.1V30.1z"/>
	<path class="st3" d="M42.3,26h0.4v1.5h0.8v-1.4h0.4v1.4h0.8v-1.6h0.4v2h-2.8V26z"/>
	<path class="st3" d="M42.3,23.1l0.4,0v1.4h0.8v-1.3h0.4v1.3h1.1v0.5h-2.8V23.1z"/>
</g>
<g>
	<path class="st3" d="M50.8,41.2v-0.4h1c0.2,0.3,0.4,0.7,0.4,1.1c0,0.8-0.6,1.5-1.4,1.5c-0.8,0-1.4-0.7-1.4-1.5
		c0-0.4,0.2-0.8,0.4-1.1l0.3,0.3c-0.2,0.2-0.3,0.5-0.3,0.8c0,0.6,0.4,1,1,1c0.6,0,1-0.5,1-1c0-0.2-0.1-0.4-0.2-0.6H50.8z"/>
	<path class="st3" d="M52.2,37.9l-0.8,0.5c0,0,0,0.1,0,0.1v0.7h0.8v0.5h-2.8v-1.1c0-0.7,0.3-1.1,1-1.1c0.4,0,0.8,0.2,0.9,0.6
		l0.9-0.6V37.9z M50.9,38.6c0-0.4-0.2-0.7-0.6-0.7c-0.4,0-0.5,0.2-0.5,0.7v0.7h1.1V38.6z"/>
	<path class="st3" d="M50.8,33.7c0.8,0,1.4,0.6,1.4,1.5s-0.6,1.5-1.4,1.5c-0.8,0-1.4-0.6-1.4-1.5S50,33.7,50.8,33.7z M50.8,36.2
		c0.6,0,1-0.5,1-1s-0.4-1-1-1s-1,0.4-1,1C49.8,35.7,50.3,36.2,50.8,36.2z"/>
	<path class="st3" d="M51.8,31.6c0-0.5-0.3-0.7-0.8-0.7h-1.6v-0.5H51c0.7,0,1.2,0.5,1.2,1.2c0,0.8-0.4,1.2-1.2,1.2h-1.6v-0.5H51
		C51.5,32.4,51.8,32.1,51.8,31.6z"/>
	<path class="st3" d="M49.4,28.8l2-1.5h-2v-0.5h2.8v0.5l-2,1.5h2v0.5h-2.8V28.8z"/>
	<path class="st3" d="M50.8,23.1c0.8,0,1.4,0.6,1.4,1.5v1.1h-2.8v-1.1C49.4,23.8,50,23.1,50.8,23.1z M50.8,23.6c-0.6,0-1,0.4-1,1
		v0.7h2v-0.7C51.8,24,51.4,23.6,50.8,23.6z"/>
</g>
<g>
	<path class="st3" d="M57.9,28.9c0.8,0,1.4,0.6,1.4,1.5v1.1h-2.8v-1.1C56.5,29.5,57.1,28.9,57.9,28.9z M57.9,29.4c-0.6,0-1,0.4-1,1
		V31h2v-0.7C58.9,29.8,58.5,29.4,57.9,29.4z"/>
	<path class="st3" d="M56.5,26.8h2.8v0.5h-2.4v0.6h-0.4V26.8z"/>
	<path class="st3" d="M58.5,23.3c0.5,0,0.9,0.4,0.9,1.1c0,0.4-0.1,0.8-0.3,1l-0.4-0.2c0.2-0.2,0.3-0.5,0.3-0.8
		c0-0.4-0.2-0.7-0.5-0.7c-0.3,0-0.5,0.3-0.5,0.7v0.4h-0.3L56.9,24v1.2l-0.4,0v-1.8h0.3l0.9,0.9l0-0.2C57.7,23.6,58,23.3,58.5,23.3z"
		/>
</g>
<g>
	<path class="st3" d="M65,28.9c0.8,0,1.4,0.6,1.4,1.5v1.1h-2.8v-1.1C63.6,29.5,64.2,28.9,65,28.9z M65,29.4c-0.6,0-1,0.4-1,1V31h2
		v-0.7C66,29.8,65.6,29.4,65,29.4z"/>
	<path class="st3" d="M63.6,26.8h2.8v0.5h-2.4v0.6h-0.4V26.8z"/>
	<path class="st3" d="M64.4,23.8c-0.2,0-0.4,0.2-0.4,0.5c0,0.3,0.1,0.5,0.3,0.8L64,25.3c-0.2-0.3-0.4-0.7-0.4-1
		c0-0.5,0.3-0.9,0.7-0.9c0.3,0,0.6,0.2,0.9,0.5l0.8,0.8v-1.4h0.4v2.1h-0.3L65,24.2C64.8,24,64.6,23.8,64.4,23.8z"/>
</g>
<g>
	<path class="st3" d="M72.2,28.9c0.8,0,1.4,0.6,1.4,1.5v1.1h-2.8v-1.1C70.8,29.5,71.3,28.9,72.2,28.9z M72.2,29.4c-0.6,0-1,0.4-1,1
		V31h2v-0.7C73.1,29.8,72.7,29.4,72.2,29.4z"/>
	<path class="st3" d="M70.8,26.8h2.8v0.5h-2.4v0.6h-0.4V26.8z"/>
	<path class="st3" d="M70.8,24h2.8v0.5h-2.4v0.6h-0.4V24z"/>
</g>
<g>
	<path class="st3" d="M79.3,28.9c0.8,0,1.4,0.6,1.4,1.5v1.1h-2.8v-1.1C77.9,29.5,78.5,28.9,79.3,28.9z M79.3,29.4c-0.6,0-1,0.4-1,1
		V31h2v-0.7C80.3,29.8,79.8,29.4,79.3,29.4z"/>
	<path class="st3" d="M77.9,26.8h2.8v0.5h-2.4v0.6h-0.4V26.8z"/>
	<path class="st3" d="M79.3,23.2c0.9,0,1.4,0.4,1.4,1.1c0,0.7-0.5,1.1-1.4,1.1c-0.9,0-1.4-0.4-1.4-1.1
		C77.9,23.6,78.4,23.2,79.3,23.2z M79.3,24.8c0.7,0,1-0.2,1-0.6c0-0.4-0.3-0.6-1-0.6c-0.7,0-1,0.2-1,0.6
		C78.2,24.6,78.6,24.8,79.3,24.8z"/>
</g>
<g>
	<path class="st3" d="M86.4,26c0.8,0,1.4,0.6,1.4,1.5v1.1H85v-1.1C85,26.6,85.6,26,86.4,26z M86.4,26.5c-0.6,0-1,0.4-1,1v0.7h2v-0.7
		C87.4,26.9,87,26.5,86.4,26.5z"/>
	<path class="st3" d="M87.4,24.4c0-0.5-0.4-0.8-1-0.8c0.3,0.1,0.4,0.4,0.4,0.8c0,0.6-0.4,0.9-0.9,0.9c-0.6,0-0.9-0.4-0.9-1
		c0-0.7,0.5-1.1,1.4-1.1c0.9,0,1.5,0.5,1.5,1.2c0,0.3-0.1,0.6-0.2,0.8l-0.4-0.2C87.4,24.9,87.4,24.6,87.4,24.4z M85.9,24.9
		c0.3,0,0.5-0.2,0.5-0.5c0-0.4-0.2-0.6-0.5-0.6c-0.2,0-0.5,0.2-0.5,0.6C85.4,24.6,85.6,24.9,85.9,24.9z"/>
</g>
<g>
	<path class="st3" d="M93.5,26c0.8,0,1.4,0.6,1.4,1.5v1.1h-2.8v-1.1C92.1,26.6,92.7,26,93.5,26z M93.5,26.5c-0.6,0-1,0.4-1,1v0.7h2
		v-0.7C94.5,26.9,94.1,26.5,93.5,26.5z"/>
	<path class="st3" d="M92.8,23.3c0.3,0,0.5,0.2,0.6,0.4c0.1-0.3,0.4-0.5,0.7-0.5c0.5,0,0.8,0.4,0.8,1.1s-0.3,1.1-0.8,1.1
		c-0.3,0-0.6-0.2-0.7-0.6c-0.1,0.3-0.3,0.4-0.6,0.4c-0.4,0-0.7-0.4-0.7-0.9C92.1,23.7,92.4,23.3,92.8,23.3z M92.8,24.8
		c0.3,0,0.4-0.2,0.4-0.5s-0.2-0.5-0.4-0.5s-0.4,0.2-0.4,0.5S92.6,24.8,92.8,24.8z M94.1,24.9c0.3,0,0.5-0.2,0.5-0.6
		c0-0.4-0.2-0.6-0.5-0.6c-0.3,0-0.5,0.2-0.5,0.6C93.6,24.6,93.8,24.9,94.1,24.9z"/>
</g>
<g>
	<path class="st3" d="M103,26c0.8,0,1.4,0.6,1.4,1.5v1.1h-2.8v-1.1C101.6,26.6,102.2,26,103,26z M103,26.5c-0.6,0-1,0.4-1,1v0.7h2
		v-0.7C104,26.9,103.5,26.5,103,26.5z"/>
	<path class="st3" d="M101.6,23.2h0.4l2.4,1.2v0.5l-2.4-1.2v1.2l0.4,0v0.4h-0.8V23.2z"/>
</g>
<g>
	<path class="st3" d="M110.1,26c0.8,0,1.4,0.6,1.4,1.5v1.1h-2.8v-1.1C108.7,26.6,109.3,26,110.1,26z M110.1,26.5c-0.6,0-1,0.4-1,1
		v0.7h2v-0.7C111.1,26.9,110.7,26.5,110.1,26.5z"/>
	<path class="st3" d="M109.1,24c0,0.5,0.4,0.8,1,0.8c-0.3-0.1-0.4-0.4-0.4-0.8c0-0.6,0.3-0.9,0.9-0.9c0.6,0,0.9,0.4,0.9,1
		c0,0.7-0.5,1.1-1.4,1.1c-0.9,0-1.5-0.5-1.5-1.2c0-0.3,0.1-0.6,0.2-0.8l0.4,0.2C109.1,23.6,109.1,23.8,109.1,24z M110.6,24.7
		c0.2,0,0.5-0.2,0.5-0.6c0-0.3-0.2-0.6-0.5-0.6c-0.3,0-0.5,0.2-0.5,0.6C110,24.5,110.3,24.8,110.6,24.7z"/>
</g>
<g>
	<path class="st3" d="M117.2,26c0.8,0,1.4,0.6,1.4,1.5v1.1h-2.8v-1.1C115.8,26.6,116.4,26,117.2,26z M117.2,26.5c-0.6,0-1,0.4-1,1
		v0.7h2v-0.7C118.2,26.9,117.8,26.5,117.2,26.5z"/>
	<path class="st3" d="M116.8,24.3c0-0.6,0.4-1,0.8-1c0.6,0,0.9,0.4,0.9,1.1c0,0.3-0.1,0.7-0.3,1l-0.4-0.2c0.2-0.2,0.3-0.5,0.3-0.8
		c0-0.4-0.2-0.6-0.5-0.6c-0.3,0-0.5,0.2-0.5,0.6c0,0.2,0,0.6,0,0.8h-1.5v-1.8h0.4v1.3h0.6C116.8,24.6,116.8,24.4,116.8,24.3z"/>
</g>
<g>
	<path class="st3" d="M124.3,26c0.8,0,1.4,0.6,1.4,1.5v1.1h-2.8v-1.1C122.9,26.6,123.5,26,124.3,26z M124.3,26.5c-0.6,0-1,0.4-1,1
		v0.7h2v-0.7C125.3,26.9,124.9,26.5,124.3,26.5z"/>
	<path class="st3" d="M122.9,23.9l1.7,0.9V24l-0.7,0v-0.4l0.7,0v-0.4h0.4v0.4h0.7V24H125v1.4h-0.4l-1.8-1V23.9z"/>
</g>
<g>
	<path class="st3" d="M131.4,26c0.8,0,1.4,0.6,1.4,1.5v1.1H130v-1.1C130,26.6,130.6,26,131.4,26z M131.4,26.5c-0.6,0-1,0.4-1,1v0.7
		h2v-0.7C132.4,26.9,132,26.5,131.4,26.5z"/>
	<path class="st3" d="M132,23.3c0.5,0,0.9,0.4,0.9,1.1c0,0.4-0.1,0.8-0.3,1l-0.4-0.2c0.2-0.2,0.3-0.5,0.3-0.8c0-0.4-0.2-0.7-0.5-0.7
		c-0.3,0-0.5,0.3-0.5,0.7v0.4h-0.3l-0.8-0.8v1.2l-0.4,0v-1.8h0.3l0.9,0.9l0-0.2C131.2,23.6,131.5,23.3,132,23.3z"/>
</g>
<g>
	<path class="st3" d="M138.5,26c0.8,0,1.4,0.6,1.4,1.5v1.1h-2.8v-1.1C137.1,26.6,137.7,26,138.5,26z M138.5,26.5c-0.6,0-1,0.4-1,1
		v0.7h2v-0.7C139.5,26.9,139.1,26.5,138.5,26.5z"/>
	<path class="st3" d="M137.9,23.8c-0.2,0-0.4,0.2-0.4,0.5c0,0.3,0.1,0.5,0.3,0.8l-0.4,0.2c-0.2-0.3-0.4-0.7-0.4-1
		c0-0.5,0.3-0.9,0.7-0.9c0.3,0,0.6,0.2,0.9,0.5l0.8,0.8v-1.4h0.4v2.1h-0.3l-1.1-1.1C138.3,24,138,23.8,137.9,23.8z"/>
</g>
<g>
	<path class="st3" d="M144.2,34.3h0.4v0.9h2.4v0.5h-2.4v0.9h-0.4V34.3z"/>
	<path class="st3" d="M144.2,33.2l1-0.7l-1-0.7v-0.6l1.3,0.9l1.5-1v0.6l-1.1,0.8l1.1,0.8v0.6l-1.4-1l-1.4,0.9V33.2z"/>
	<path class="st3" d="M143.8,29.1l3.7,1.3v0.4l-3.7-1.3V29.1z"/>
	<path class="st3" d="M145.6,26c0.8,0,1.4,0.6,1.4,1.5v1.1h-2.8v-1.1C144.2,26.6,144.8,26,145.6,26z M145.7,26.5c-0.6,0-1,0.4-1,1
		v0.7h2v-0.7C146.6,26.9,146.2,26.5,145.7,26.5z"/>
	<path class="st3" d="M144.2,24h2.8v0.5h-2.4v0.6h-0.4V24z"/>
</g>
<g>
	<path class="st3" d="M154.2,33.9l-0.8,0.5c0,0,0,0.1,0,0.1v0.7h0.8v0.5h-2.8v-1.1c0-0.7,0.3-1.1,1-1.1c0.4,0,0.8,0.2,0.9,0.6
		l0.9-0.6V33.9z M152.9,34.5c0-0.4-0.2-0.7-0.6-0.7c-0.4,0-0.5,0.2-0.5,0.7v0.7h1.1V34.5z"/>
	<path class="st3" d="M151.4,32.1l1-0.7l-1-0.7v-0.6l1.3,0.9l1.5-1v0.6l-1.1,0.8l1.1,0.8v0.6l-1.4-1l-1.4,0.9V32.1z"/>
	<path class="st3" d="M150.9,28l3.7,1.3v0.4l-3.7-1.3V28z"/>
	<path class="st3" d="M151.4,27h2.8v0.5h-2.8V27z"/>
	<path class="st3" d="M152.8,23.2c0.8,0,1.4,0.6,1.4,1.5s-0.6,1.5-1.4,1.5c-0.8,0-1.4-0.6-1.4-1.5S152,23.2,152.8,23.2z M152.8,25.6
		c0.6,0,1-0.5,1-1s-0.4-1-1-1s-1,0.4-1,1C151.8,25.2,152.2,25.6,152.8,25.6z"/>
</g>
<g>
	<path class="st3" d="M148.4,117.7c0.2,0.2,0.3,0.5,0.3,0.8c0,0.4-0.2,0.7-0.6,0.9c0,0.8-0.6,1.5-1.4,1.5c-0.8,0-1.4-0.6-1.4-1.5
		s0.6-1.5,1.4-1.5c0.6,0,1.2,0.4,1.3,1c0.2-0.2,0.3-0.3,0.3-0.5c0-0.1-0.1-0.3-0.2-0.5L148.4,117.7z M147.7,119.4c0-0.5-0.4-1-1-1
		s-1,0.4-1,1c0,0.6,0.4,1,1,1S147.7,119.9,147.7,119.4z"/>
	<path class="st3" d="M145.3,116.8l2.3-0.7l-2.3-0.7V115l2.3-0.7l-2.3-0.7v-0.5l2.8,0.9v0.5l-2.2,0.7l2.2,0.7v0.5l-2.8,0.9V116.8z"
		/>
	<path class="st3" d="M145.3,112h2.8v0.5h-2.8V112z"/>
	<path class="st3" d="M145.3,110.4h2.8v0.5h-2.8V110.4z"/>
	<path class="st3" d="M145.7,108c0,0.6,0.4,1,1,1s1-0.4,1-1c0-0.3-0.1-0.6-0.3-0.8l0.3-0.3c0.3,0.3,0.5,0.7,0.5,1.1
		c0,0.8-0.6,1.5-1.4,1.5c-0.8,0-1.4-0.6-1.4-1.5c0-0.4,0.2-0.8,0.4-1.1l0.3,0.3C145.8,107.4,145.7,107.7,145.7,108z"/>
</g>
<g>
	<path class="st3" d="M105.3,44l1.7,0.9V44l-0.7,0v-0.4l0.7,0v-0.4h0.4v0.4h0.7V44h-0.7v1.4h-0.4l-1.8-1V44z"/>
	<path class="st3" d="M106.7,40.9c0.9,0,1.4,0.4,1.4,1.1c0,0.7-0.5,1.1-1.4,1.1c-0.9,0-1.4-0.4-1.4-1.1
		C105.3,41.2,105.8,40.9,106.7,40.9z M106.7,42.5c0.7,0,1-0.2,1-0.6c0-0.4-0.3-0.6-1-0.6s-1,0.2-1,0.6
		C105.7,42.3,106,42.5,106.7,42.5z"/>
</g>
<g>
	<path class="st3" d="M135.7,125.9l-0.4-0.6c0,0-0.1,0-0.1,0h-0.5v0.6h-0.4v-2.1h0.9c0.5,0,0.9,0.3,0.9,0.7c0,0.3-0.2,0.6-0.4,0.7
		l0.5,0.7H135.7z M135.3,124.9c0.3,0,0.5-0.1,0.5-0.4c0-0.3-0.2-0.4-0.5-0.4h-0.5v0.8H135.3z"/>
	<path class="st3" d="M138.4,123.8v0.3h-1.2v0.6h1v0.3h-1v0.6h1.2v0.3h-1.5v-2.1H138.4z"/>
	<path class="st3" d="M139.8,124.1c-0.2,0-0.3,0.1-0.3,0.2c0,0.5,1.1,0.2,1.1,1c0,0.4-0.3,0.6-0.8,0.6c-0.3,0-0.6-0.1-0.9-0.3
		l0.2-0.3c0.2,0.2,0.5,0.3,0.7,0.3c0.2,0,0.4-0.1,0.4-0.3c0-0.5-1.1-0.2-1.1-1c0-0.4,0.3-0.6,0.8-0.6c0.3,0,0.5,0.1,0.7,0.2
		l-0.1,0.3C140.2,124.2,140,124.1,139.8,124.1z"/>
	<path class="st3" d="M142.8,123.8v0.3h-1.2v0.6h1v0.3h-1v0.6h1.2v0.3h-1.5v-2.1H142.8z"/>
	<path class="st3" d="M145.1,123.8v0.3h-0.7v1.8H144v-1.8h-0.7v-0.3H145.1z"/>
</g>
<g>
	<path class="st3" d="M26.1,69c0,0.8-0.6,1.4-1.5,1.4h-1.1v-2.8h1.1C25.5,67.6,26.1,68.2,26.1,69z M25.6,69c0-0.6-0.4-1-1-1H24v2
		h0.7C25.2,70,25.6,69.6,25.6,69z"/>
	<path class="st3" d="M28.1,67.6v2.8h-0.5v-2.4h-0.6v-0.4H28.1z"/>
	<path class="st3" d="M31.7,69.6c0,0.5-0.4,0.9-1.1,0.9c-0.4,0-0.8-0.1-1-0.3l0.2-0.4c0.2,0.2,0.5,0.3,0.8,0.3
		c0.4,0,0.7-0.2,0.7-0.5c0-0.3-0.3-0.5-0.7-0.5h-0.4v-0.3l0.8-0.8h-1.2l0-0.4h1.8v0.3l-0.9,0.9l0.2,0C31.3,68.9,31.7,69.1,31.7,69.6
		z"/>
</g>
<g>
	<path class="st3" d="M25.4,75.5v0.4h-0.9v2.4H24v-2.4h-0.9v-0.4H25.4z"/>
	<path class="st3" d="M26.5,75.5l0.7,1l0.7-1h0.6l-0.9,1.3l1,1.5H28l-0.8-1.1l-0.8,1.1h-0.6l1-1.4L26,75.5H26.5z"/>
</g>
<g>
	<path class="st3" d="M25.3,86.2l-0.5-0.8c0,0-0.1,0-0.1,0H24v0.8h-0.5v-2.8h1.1c0.7,0,1.1,0.3,1.1,1c0,0.4-0.2,0.8-0.6,0.9l0.6,0.9
		H25.3z M24.6,85c0.4,0,0.7-0.2,0.7-0.6c0-0.4-0.2-0.5-0.7-0.5H24V85H24.6z"/>
	<path class="st3" d="M27.1,83.4l0.7,1l0.7-1H29l-0.9,1.3l1,1.5h-0.6l-0.8-1.1L27,86.2h-0.6l1-1.4l-0.9-1.4H27.1z"/>
</g>
<g>
	<path class="st3" d="M24.7,91.4c-0.6,0-1,0.4-1,1s0.4,1,1,1c0.3,0,0.6-0.1,0.8-0.3l0.3,0.3c-0.3,0.3-0.7,0.5-1.1,0.5
		c-0.8,0-1.5-0.6-1.5-1.4c0-0.8,0.6-1.4,1.5-1.4c0.4,0,0.8,0.2,1.1,0.4l-0.3,0.3C25.3,91.5,25,91.4,24.7,91.4z"/>
	<path class="st3" d="M27.2,91v1.2h1.5V91h0.5v2.8h-0.5v-1.2h-1.5v1.2h-0.5V91H27.2z"/>
	<path class="st3" d="M32.2,92.4h0.4v1c-0.3,0.2-0.7,0.4-1.1,0.4c-0.8,0-1.5-0.6-1.5-1.4s0.7-1.4,1.5-1.4c0.4,0,0.8,0.2,1.1,0.4
		l-0.3,0.3c-0.2-0.2-0.5-0.3-0.8-0.3c-0.6,0-1,0.4-1,1c0,0.6,0.5,1,1,1c0.2,0,0.4-0.1,0.6-0.2V92.4z"/>
</g>
<g>
	<path class="st3" d="M62,144.7l-0.8,0.5c0,0,0,0.1,0,0.1v0.7H62v0.5h-2.8v-1.1c0-0.7,0.3-1.1,1-1.1c0.4,0,0.8,0.2,0.9,0.6l0.9-0.6
		V144.7z M60.7,145.4c0-0.4-0.2-0.7-0.6-0.7c-0.4,0-0.5,0.2-0.5,0.7v0.7h1.1V145.4z"/>
	<path class="st3" d="M59.2,141.2h0.4v1.5h0.8v-1.4h0.4v1.4h0.8v-1.6H62v2h-2.8V141.2z"/>
	<path class="st3" d="M59.2,138.3l0.4,0v1.4h0.8v-1.3h0.4v1.3H62v0.5h-2.8V138.3z"/>
</g>
<g>
	<path class="st3" d="M69.1,144.7l-0.8,0.5c0,0,0,0.1,0,0.1v0.7h0.8v0.5h-2.8v-1.1c0-0.7,0.3-1.1,1-1.1c0.4,0,0.8,0.2,0.9,0.6
		l0.9-0.6V144.7z M67.8,145.4c0-0.4-0.2-0.7-0.6-0.7c-0.4,0-0.5,0.2-0.5,0.7v0.7h1.1V145.4z"/>
	<path class="st3" d="M66.3,141.2h0.4v1.5h0.8v-1.4h0.4v1.4h0.8v-1.6h0.4v2h-2.8V141.2z"/>
	<path class="st3" d="M66.7,139.3c0,0.3,0.1,0.5,0.3,0.5c0.6,0,0.3-1.5,1.3-1.5c0.5,0,0.8,0.4,0.8,1.1c0,0.4-0.2,0.9-0.4,1.1
		l-0.4-0.2c0.3-0.3,0.4-0.6,0.4-0.9c0-0.3-0.1-0.5-0.3-0.5c-0.6,0-0.3,1.5-1.3,1.5c-0.5,0-0.8-0.4-0.8-1c0-0.4,0.1-0.7,0.3-1
		l0.4,0.2C66.8,138.8,66.7,139.1,66.7,139.3z"/>
	<path class="st3" d="M66.3,135.3h0.4v1.5h0.8v-1.4h0.4v1.4h0.8v-1.6h0.4v2h-2.8V135.3z"/>
	<path class="st3" d="M66.3,132.4h0.4v0.9h2.4v0.5h-2.4v0.9h-0.4V132.4z"/>
</g>
<g>
	<path class="st3" d="M75.4,144.7c0.5,0,0.9,0.4,0.9,1.1c0,0.4-0.1,0.8-0.3,1l-0.4-0.2c0.2-0.2,0.3-0.5,0.3-0.8
		c0-0.4-0.2-0.7-0.5-0.7c-0.3,0-0.5,0.3-0.5,0.7v0.4h-0.3l-0.8-0.8v1.2l-0.4,0v-1.8h0.3l0.9,0.9l0-0.2
		C74.6,145,74.9,144.7,75.4,144.7z"/>
	<path class="st3" d="M76,143.3c0.2,0,0.3,0.1,0.3,0.3s-0.1,0.3-0.3,0.3c-0.2,0-0.3-0.1-0.3-0.3S75.8,143.3,76,143.3z"/>
	<path class="st3" d="M75.4,140.5c0.5,0,0.9,0.4,0.9,1.1c0,0.4-0.1,0.8-0.3,1l-0.4-0.2c0.2-0.2,0.3-0.5,0.3-0.8
		c0-0.4-0.2-0.7-0.5-0.7c-0.3,0-0.5,0.3-0.5,0.7v0.4h-0.3l-0.8-0.8v1.2l-0.4,0v-1.8h0.3l0.9,0.9l0-0.2
		C74.6,140.9,74.9,140.5,75.4,140.5z"/>
	<path class="st3" d="M73.4,139.3l2.3-0.9l-2.3-0.9v-0.5l2.8,1.1v0.5l-2.8,1.1V139.3z"/>
</g>
<g>
	<path class="st3" d="M81.6,145.7c0-0.6,0.4-1,0.8-1c0.6,0,0.9,0.4,0.9,1.1c0,0.3-0.1,0.7-0.3,1l-0.4-0.2c0.2-0.2,0.3-0.5,0.3-0.8
		c0-0.4-0.2-0.6-0.5-0.6c-0.3,0-0.5,0.2-0.5,0.6c0,0.2,0,0.6,0,0.8h-1.5v-1.8H81v1.3h0.6C81.6,145.9,81.6,145.8,81.6,145.7z"/>
	<path class="st3" d="M80.5,143.5l2.3-0.9l-2.3-0.9v-0.5l2.8,1.1v0.5l-2.8,1.1V143.5z"/>
</g>
<g>
	<path class="st3" d="M89.1,144.6v-0.4h1c0.2,0.3,0.4,0.7,0.4,1.1c0,0.8-0.6,1.5-1.4,1.5s-1.4-0.7-1.4-1.5c0-0.4,0.2-0.8,0.4-1.1
		l0.3,0.3c-0.2,0.2-0.3,0.5-0.3,0.8c0,0.6,0.4,1,1,1c0.6,0,1-0.5,1-1c0-0.2-0.1-0.4-0.2-0.6H89.1z"/>
	<path class="st3" d="M90.4,141.3l-0.8,0.5c0,0,0,0.1,0,0.1v0.7h0.8v0.5h-2.8V142c0-0.7,0.3-1.1,1-1.1c0.4,0,0.8,0.2,0.9,0.6
		l0.9-0.6V141.3z M89.2,142c0-0.4-0.2-0.7-0.6-0.7c-0.4,0-0.5,0.2-0.5,0.7v0.7h1.1V142z"/>
	<path class="st3" d="M89,137.1c0.8,0,1.4,0.6,1.4,1.5c0,0.8-0.6,1.5-1.4,1.5c-0.8,0-1.4-0.6-1.4-1.5
		C87.6,137.7,88.2,137.1,89,137.1z M89,139.6c0.6,0,1-0.5,1-1c0-0.5-0.4-1-1-1s-1,0.4-1,1C88.1,139.1,88.5,139.6,89,139.6z"/>
	<path class="st3" d="M90,135c0-0.5-0.3-0.7-0.8-0.7h-1.6v-0.5h1.6c0.7,0,1.2,0.5,1.2,1.2s-0.4,1.2-1.2,1.2h-1.6v-0.5h1.6
		C89.8,135.8,90,135.5,90,135z"/>
	<path class="st3" d="M87.6,132.2l2-1.5h-2v-0.5h2.8v0.5l-2,1.5h2v0.5h-2.8V132.2z"/>
	<path class="st3" d="M89,126.6c0.8,0,1.4,0.6,1.4,1.5v1.1h-2.8V128C87.6,127.2,88.2,126.6,89,126.6z M89,127c-0.6,0-1,0.4-1,1v0.7
		h2V128C90,127.4,89.6,127,89,127z"/>
</g>
<g>
	<path class="st3" d="M96.2,144.6v-0.4h1c0.2,0.3,0.4,0.7,0.4,1.1c0,0.8-0.6,1.5-1.4,1.5c-0.8,0-1.4-0.7-1.4-1.5
		c0-0.4,0.2-0.8,0.4-1.1l0.3,0.3c-0.2,0.2-0.3,0.5-0.3,0.8c0,0.6,0.4,1,1,1c0.6,0,1-0.5,1-1c0-0.2-0.1-0.4-0.2-0.6H96.2z"/>
	<path class="st3" d="M97.6,141.3l-0.8,0.5c0,0,0,0.1,0,0.1v0.7h0.8v0.5h-2.8V142c0-0.7,0.3-1.1,1-1.1c0.4,0,0.8,0.2,0.9,0.6
		l0.9-0.6V141.3z M96.3,142c0-0.4-0.2-0.7-0.6-0.7c-0.4,0-0.5,0.2-0.5,0.7v0.7h1.1V142z"/>
	<path class="st3" d="M96.2,137.1c0.8,0,1.4,0.6,1.4,1.5c0,0.8-0.6,1.5-1.4,1.5c-0.8,0-1.4-0.6-1.4-1.5
		C94.7,137.7,95.4,137.1,96.2,137.1z M96.2,139.6c0.6,0,1-0.5,1-1c0-0.5-0.4-1-1-1s-1,0.4-1,1C95.2,139.1,95.6,139.6,96.2,139.6z"/>
	<path class="st3" d="M97.2,135c0-0.5-0.3-0.7-0.8-0.7h-1.6v-0.5h1.6c0.7,0,1.2,0.5,1.2,1.2s-0.4,1.2-1.2,1.2h-1.6v-0.5h1.6
		C96.9,135.8,97.2,135.5,97.2,135z"/>
	<path class="st3" d="M94.8,132.2l2-1.5h-2v-0.5h2.8v0.5l-2,1.5h2v0.5h-2.8V132.2z"/>
	<path class="st3" d="M96.2,126.6c0.8,0,1.4,0.6,1.4,1.5v1.1h-2.8V128C94.8,127.2,95.3,126.6,96.2,126.6z M96.2,127
		c-0.6,0-1,0.4-1,1v0.7h2V128C97.1,127.4,96.7,127,96.2,127z"/>
</g>
<g>
	<path class="st3" d="M101.9,146.3l2.3-0.9l-2.3-0.9v-0.5l2.8,1.1v0.5l-2.8,1.1V146.3z"/>
	<path class="st3" d="M101.9,142.9h2.8v0.5h-2.8V142.9z"/>
	<path class="st3" d="M101.9,141.3l2-1.5h-2v-0.5h2.8v0.5l-2,1.5h2v0.5h-2.8V141.3z"/>
</g>
<g>
	<path class="st3" d="M116.6,144.7v1.4l0.6,0.3v0.5l-2.8-1.2v-0.5l2.8-1.2v0.5L116.6,144.7z M116.2,144.9l-1.2,0.5l1.2,0.5V144.9z"
		/>
	<path class="st3" d="M115.8,141.2c0.9,0,1.4,0.4,1.4,1.1c0,0.7-0.5,1.1-1.4,1.1c-0.9,0-1.4-0.4-1.4-1.1
		C114.4,141.6,114.9,141.2,115.8,141.2z M115.8,142.9c0.7,0,1-0.2,1-0.6c0-0.4-0.3-0.6-1-0.6s-1,0.2-1,0.6
		C114.8,142.7,115.1,142.9,115.8,142.9z"/>
</g>
<g>
	<path class="st3" d="M123.7,144.7v1.4l0.6,0.3v0.5l-2.8-1.2v-0.5l2.8-1.2v0.5L123.7,144.7z M123.3,144.9l-1.2,0.5l1.2,0.5V144.9z"
		/>
	<path class="st3" d="M121.5,142h2.8v0.5h-2.4v0.6h-0.4V142z"/>
</g>
<g>
	<path class="st3" d="M130.8,144.7v1.4l0.6,0.3v0.5l-2.8-1.2v-0.5l2.8-1.2v0.5L130.8,144.7z M130.4,144.9l-1.2,0.5l1.2,0.5V144.9z"
		/>
	<path class="st3" d="M129.4,141.9c-0.2,0-0.4,0.2-0.4,0.5c0,0.3,0.1,0.5,0.3,0.8l-0.4,0.2c-0.2-0.3-0.4-0.7-0.4-1
		c0-0.5,0.3-0.9,0.7-0.9c0.3,0,0.6,0.2,0.9,0.5l0.8,0.8v-1.4h0.4v2.1h-0.3l-1.1-1.1C129.8,142,129.6,141.9,129.4,141.9z"/>
</g>
<g>
	<path class="st3" d="M137.9,144.7v1.4l0.6,0.3v0.5l-2.8-1.2v-0.5l2.8-1.2v0.5L137.9,144.7z M137.5,144.9l-1.2,0.5l1.2,0.5V144.9z"
		/>
	<path class="st3" d="M137.7,141.3c0.5,0,0.9,0.4,0.9,1.1c0,0.4-0.1,0.8-0.3,1l-0.4-0.2c0.2-0.2,0.3-0.5,0.3-0.8
		c0-0.4-0.2-0.7-0.5-0.7c-0.3,0-0.5,0.3-0.5,0.7v0.4H137l-0.8-0.8v1.2l-0.4,0v-1.8h0.3l0.9,0.9l0-0.2
		C137,141.7,137.2,141.3,137.7,141.3z"/>
</g>
<g>
	<path class="st3" d="M145,144.7v1.4l0.6,0.3v0.5l-2.8-1.2v-0.5l2.8-1.2v0.5L145,144.7z M144.6,144.9l-1.2,0.5l1.2,0.5V144.9z"/>
	<path class="st3" d="M142.9,141.9l1.7,0.9V142l-0.7,0v-0.4l0.7,0v-0.4h0.4v0.4h0.7v0.4H145v1.4h-0.4l-1.8-1V141.9z"/>
</g>
<g>
	<path class="st3" d="M152.1,144.7v1.4l0.6,0.3v0.5l-2.8-1.2v-0.5l2.8-1.2v0.5L152.1,144.7z M151.7,144.9l-1.2,0.5l1.2,0.5V144.9z"
		/>
	<path class="st3" d="M151,142.3c0-0.6,0.4-1,0.8-1c0.6,0,0.9,0.4,0.9,1.1c0,0.3-0.1,0.7-0.3,1l-0.4-0.2c0.2-0.2,0.3-0.5,0.3-0.8
		c0-0.4-0.2-0.6-0.5-0.6c-0.3,0-0.5,0.2-0.5,0.6c0,0.2,0,0.6,0,0.8H150v-1.8h0.4v1.3h0.6C151,142.6,151,142.4,151,142.3z"/>
</g>
</svg>
