<svg viewBox="0 0 36 31" xmlns="http://www.w3.org/2000/svg" xmlns:serif="http://www.serif.com/" fill-rule="evenodd" clip-rule="evenodd" stroke-linejoin="round" stroke-miterlimit="1.414"><path d="M34.808.474l.257.107.22.168.169.22.106.257.036.273-.001.001v26.461l.001.001-.036.274-.106.256-.169.22-.22.169-.257.106-.273.036-.001-.001H22.896v-.334h-1.828v.334h-6.465v-.334h-1.829v.334H1.137l-.001.001-.274-.036-.256-.106-.22-.169-.169-.22-.106-.256-.036-.274V1.499l.036-.273.106-.257.169-.22.22-.168.256-.107.274-.036.001.001h33.397l.001-.001.273.036" fill="none" stroke="#000" stroke-width=".25"/><g fill="none" stroke="#000" stroke-width=".15"><circle serif:id="Gerber Files_pad-66" cx="28.094" cy="20.494" r="1.517"/><circle serif:id="Gerber Files_pad-66" cx="28.094" cy="12.787" r="1.517"/><circle serif:id="Gerber Files_pad-66" cx="28.094" cy="8.934" r="1.517"/><circle serif:id="Gerber Files_pad-66" cx="28.094" cy="5.08" r="1.517"/><circle serif:id="Gerber Files_pad-66" cx="28.094" cy="16.641" r="1.517"/><circle serif:id="Gerber Files_pad-66" cx="28.094" cy="24.347" r="1.517"/><circle serif:id="Gerber Files_pad-66" cx="7.542" cy="20.494" r="1.517"/><circle serif:id="Gerber Files_pad-66" cx="7.542" cy="12.787" r="1.517"/><circle serif:id="Gerber Files_pad-66" cx="7.542" cy="16.641" r="1.517"/><circle serif:id="Gerber Files_pad-66" cx="7.542" cy="24.347" r="1.517"/><circle serif:id="Gerber Files_pad-66" cx="23.855" cy="24.476" r="1.517"/><circle serif:id="Gerber Files_pad-66" cx="11.781" cy="24.347" r="1.517"/><circle serif:id="Gerber Files_pad-66" cx="23.855" cy="5.08" r="1.517"/><circle serif:id="Gerber Files_pad-66" cx="11.781" cy="5.08" r="1.517"/><circle serif:id="Gerber Files_pad-66" cx="2.019" cy="24.347" r="1.517"/><circle serif:id="Gerber Files_pad-66" cx="2.019" cy="20.494" r="1.517"/><circle serif:id="Gerber Files_pad-66" cx="2.019" cy="16.641" r="1.517"/><circle serif:id="Gerber Files_pad-66" cx="2.019" cy="12.787" r="1.517"/><circle serif:id="Gerber Files_pad-66" cx="33.617" cy="24.347" r="1.517"/><circle serif:id="Gerber Files_pad-66" cx="33.617" cy="20.494" r="1.517"/><circle serif:id="Gerber Files_pad-66" cx="33.617" cy="16.641" r="1.517"/><circle serif:id="Gerber Files_pad-66" cx="33.617" cy="12.787" r="1.517"/><circle serif:id="Gerber Files_pad-66" cx="33.617" cy="8.934" r="1.517"/><circle serif:id="Gerber Files_pad-66" cx="33.617" cy="5.08" r="1.517"/></g><path d="M22.218.406A.408.408 0 0 0 21.812 0h-8.055a.408.408 0 0 0-.406.406V7.04c0 .224.182.406.406.406h8.055a.408.408 0 0 0 .406-.406V.406zM7.014 1.96a.385.385 0 0 0-.382-.383H.383A.385.385 0 0 0 0 1.96v6.984c0 .211.171.383.383.383h6.249a.385.385 0 0 0 .382-.383V1.96zm14.521 24.18a.17.17 0 0 0-.169-.169h-7.003a.17.17 0 0 0-.169.169v2.768a.17.17 0 0 0 .169.169h7.003a.17.17 0 0 0 .169-.169V26.14z" fill="none" stroke="#000" stroke-width=".2"/></svg>