<svg viewBox="0 0 36 31" xmlns="http://www.w3.org/2000/svg" fill-rule="evenodd" clip-rule="evenodd" stroke-linejoin="round" stroke-miterlimit="1.414">
  <path d="M34.808.474l.257.107.22.168.169.22.106.257.036.273-.001.001v26.461l.001.001-.036.274-.106.256-.169.22-.22.169-.257.106-.273.036-.001-.001H22.896v-.334h-1.828v.334h-6.465v-.334h-1.829v.334H1.137l-.001.001-.274-.036-.256-.106-.22-.169-.169-.22-.106-.256-.036-.274V1.499l.036-.273.106-.257.169-.22.22-.168.256-.107.274-.036.001.001h33.397l.001-.001.273.036" fill="#e3e3e3"/>
  <g fill="#ff9c00">
    <path d="M15.763 18.086h.253v.759h-.253zm.506 0h.253v.759h-.253zm.505 0h.253v.759h-.253zm.506 0h.253v.759h-.253zm.506 0h.253v.759h-.253zm.506 0h.253v.759h-.253zm.505 0h.253v.759h-.253zm.506 0h.253v.759h-.253zm.505 0h.253v.759h-.253zm.506 0h.253v.759h-.253zm.506 0h.253v.759h-.253zm.506 0h.253v.759h-.253zm0-7.029h.253v.759h-.253zm-.506 0h.253v.759h-.253zm-.506 0h.253v.759h-.253zm-.506 0h.253v.759h-.253zm-.505 0h.253v.759h-.253zm-.506 0h.253v.759h-.253zm-.505 0h.253v.759h-.253zm-.506 0h.253v.759h-.253zm-.506 0h.253v.759h-.253zm-.506 0h.253v.759h-.253zm-.505 0h.253v.759h-.253zm-.506 0h.253v.759h-.253zm6.043 6.548h.759v.253h-.759zm0-.505h.759v.253h-.759zm0-.506h.759v.253h-.759zm0-.506h.759v.253h-.759zm0-.505h.759v.253h-.759zm0-.506h.759v.253h-.759zm0-.506h.759v.253h-.759zm0-.506h.759v.253h-.759zm0-.505h.759v.253h-.759zm0-.506h.759v.253h-.759zm0-.505h.759v.253h-.759zm0-.506h.759v.253h-.759zm-7.029 0h.759v.253h-.759zm0 .506h.759v.253h-.759zm0 .505h.759v.253h-.759zm0 .506h.759v.253h-.759zm0 .505h.759v.253h-.759zm0 .506h.759v.253h-.759zm0 .506h.759v.253h-.759zm0 .506h.759v.253h-.759zm0 .505h.759v.253h-.759zm0 .506h.759v.253h-.759zm0 .506h.759v.253h-.759zm0 .505h.759v.253h-.759zm1.517-5.031h4.754v4.754h-4.754z"/>
    <circle cx="16.79" cy="12.916" r=".257"/>
    <circle cx="16.79" cy="14.95" r=".257"/>
    <circle cx="16.79" cy="16.897" r=".257"/>
    <circle cx="20.284" cy="14.945" r=".257"/>
    <circle cx="20.589" cy="16.897" r=".257"/>
    <circle cx="18.697" cy="16.897" r=".257"/>
    <circle cx="20.589" cy="12.916" r=".257"/>
    <circle cx="18.671" cy="12.916" r=".257"/>
    <circle cx="18.671" cy="14.95" r=".257"/>
    <path d="M15.188 24.396h.708v1.517h-.708zm4.552 0h.708v1.517h-.708zm-1.517 0h.708v1.517h-.708zm-5.209 1.517h1.315v.809h-1.315zm0 2.225h1.315v.809h-1.315zm8.293 0h1.315v.809h-1.315zm0-2.225h1.315v.809h-1.315zm-1.613-18.82v1.011h-.212V7.093h.212z"/>
    <path d="M19.74 7.138v.921h-.304v-.921h.304z"/>
    <circle cx="19.482" cy="8.059" r=".045"/>
    <circle cx="19.482" cy="7.139" r=".045"/>
    <circle cx="19.694" cy="7.139" r=".045"/>
    <circle cx="19.694" cy="8.059" r=".045"/>
    <path d="M18.683 7.093v1.011h-.213V7.093h.213z"/>
    <path d="M18.728 7.138v.921h-.303v-.921h.303z"/>
    <circle cx="18.471" cy="8.059" r=".045"/>
    <circle cx="18.471" cy="7.139" r=".045"/>
    <circle cx="18.683" cy="7.139" r=".045"/>
    <circle cx="18.683" cy="8.059" r=".045"/>
    <path d="M17.166 7.093v1.011h-.213V7.093h.213z"/>
    <path d="M17.211 7.138v.921h-.303v-.921h.303z"/>
    <circle cx="16.953" cy="8.059" r=".045"/>
    <circle cx="16.953" cy="7.139" r=".045"/>
    <circle cx="17.166" cy="7.139" r=".045"/>
    <circle cx="17.166" cy="8.059" r=".045"/>
    <path d="M16.154 7.093v1.011h-.212V7.093h.212z"/>
    <path d="M16.2 7.138v.921h-.304v-.921h.304z"/>
    <circle cx="15.942" cy="8.059" r=".045"/>
    <circle cx="15.942" cy="7.139" r=".045"/>
    <circle cx="16.154" cy="7.139" r=".045"/>
    <circle cx="16.154" cy="8.059" r=".045"/>
    <path d="M16.66 7.093v1.011h-.212V7.093h.212z"/>
    <path d="M16.706 7.138v.921h-.304v-.921h.304z"/>
    <circle cx="16.448" cy="8.059" r=".045"/>
    <circle cx="16.448" cy="7.139" r=".045"/>
    <circle cx="16.66" cy="7.139" r=".045"/>
    <circle cx="16.66" cy="8.059" r=".045"/>
    <path d="M17.672 7.093v1.011h-.213V7.093h.213z"/>
    <path d="M17.717 7.138v.921h-.303v-.921h.303z"/>
    <circle cx="17.459" cy="8.059" r=".045"/>
    <circle cx="17.459" cy="7.139" r=".045"/>
    <circle cx="17.671" cy="7.139" r=".045"/>
    <circle cx="17.671" cy="8.059" r=".045"/>
    <path d="M18.177 7.093v1.011h-.212V7.093h.212z"/>
    <path d="M18.223 7.138v.921h-.304v-.921h.304z"/>
    <circle cx="17.965" cy="8.059" r=".045"/>
    <circle cx="17.965" cy="7.139" r=".045"/>
    <circle cx="18.177" cy="7.139" r=".045"/>
    <circle cx="18.177" cy="8.059" r=".045"/>
    <path d="M19.188 7.093v1.011h-.212V7.093h.212z"/>
    <path d="M19.234 7.138v.921h-.303v-.921h.303z"/>
    <circle cx="18.976" cy="8.059" r=".045"/>
    <circle cx="18.976" cy="7.139" r=".045"/>
    <circle cx="19.188" cy="7.139" r=".045"/>
    <circle cx="19.188" cy="8.059" r=".045"/>
    <path d="M15.603 7.093v1.011h-.425V7.093h.425z"/>
    <path d="M15.694 7.184v.829h-.607v-.829h.607z"/>
    <circle cx="15.178" cy="8.013" r=".091"/>
    <circle cx="15.178" cy="7.184" r=".091"/>
    <circle cx="15.603" cy="7.184" r=".091"/>
    <circle cx="15.603" cy="8.013" r=".091"/>
    <path d="M14.794 7.093v1.011h-.425V7.093h.425z"/>
    <path d="M14.885 7.184v.829h-.607v-.829h.607z"/>
    <circle cx="14.369" cy="8.013" r=".091"/>
    <circle cx="14.369" cy="7.184" r=".091"/>
    <circle cx="14.794" cy="7.184" r=".091"/>
    <circle cx="14.794" cy="8.013" r=".091"/>
    <path d="M20.458 7.093v1.011h-.425V7.093h.425z"/>
    <path d="M20.549 7.184v.829h-.607v-.829h.607z"/>
    <circle cx="20.033" cy="8.013" r=".091"/>
    <circle cx="20.033" cy="7.184" r=".091"/>
    <circle cx="20.458" cy="7.184" r=".091"/>
    <circle cx="20.458" cy="8.013" r=".091"/>
    <path d="M21.317 7.093v1.011h-.424V7.093h.424z"/>
    <path d="M21.408 7.184v.829h-.606v-.829h.606z"/>
    <circle cx="20.893" cy="8.013" r=".091"/>
    <circle cx="20.893" cy="7.184" r=".091"/>
    <circle cx="21.317" cy="7.184" r=".091"/>
    <circle cx="21.317" cy="8.013" r=".091"/>
    <circle cx="13.469" cy="7.093" r=".556"/>
    <circle cx="22.167" cy="7.093" r=".556"/>
    <circle cx="13.469" cy="2.845" r=".506"/>
    <circle cx="22.167" cy="2.845" r=".506"/>
    <circle cx="8.57" cy="2.602" r=".759"/>
    <circle cx="8.57" cy="4.625" r=".759"/>
    <circle cx="8.57" cy="6.647" r=".759"/>
    <path d="M7.835 7.936h1.469v1.469H7.835z"/>
    <circle cx="28.094" cy="20.494" r="1.517"/>
    <circle cx="28.094" cy="12.787" r="1.517"/>
    <circle cx="28.094" cy="8.934" r="1.517"/>
    <circle cx="28.094" cy="5.08" r="1.517"/>
    <circle cx="28.094" cy="16.641" r="1.517"/>
    <circle cx="28.094" cy="24.347" r="1.517"/>
    <circle cx="7.542" cy="20.494" r="1.517"/>
    <circle cx="7.542" cy="12.787" r="1.517"/>
    <circle cx="7.542" cy="16.641" r="1.517"/>
    <circle cx="7.542" cy="24.347" r="1.517"/>
    <circle cx="23.855" cy="24.476" r="1.517"/>
    <circle cx="11.781" cy="24.347" r="1.517"/>
    <circle cx="23.855" cy="5.08" r="1.517"/>
    <circle cx="11.781" cy="5.08" r="1.517"/>
    <circle cx="2.019" cy="24.347" r="1.517"/>
    <circle cx="2.019" cy="20.494" r="1.517"/>
    <circle cx="2.019" cy="16.641" r="1.517"/>
    <circle cx="2.019" cy="12.787" r="1.517"/>
    <circle cx="33.617" cy="24.347" r="1.517"/>
    <circle cx="33.617" cy="20.494" r="1.517"/>
    <circle cx="33.617" cy="16.641" r="1.517"/>
    <circle cx="33.617" cy="12.787" r="1.517"/>
    <circle cx="33.617" cy="8.934" r="1.517"/>
    <circle cx="33.617" cy="5.08" r="1.517"/>
    <circle cx="35.21" cy="22.425" r=".257"/>
    <circle cx="35.184" cy="18.67" r=".257"/>
    <circle cx="35.287" cy="14.899" r=".257"/>
    <circle cx="35.261" cy="11.04" r=".257"/>
    <circle cx=".426" cy="14.662" r=".257"/>
    <circle cx=".478" cy="22.164" r=".257"/>
    <circle cx=".478" cy="18.439" r=".257"/>
    <circle cx=".401" cy="25.992" r=".257"/>
    <circle cx=".914" cy="28.561" r=".257"/>
    <circle cx="5.41" cy="28.689" r=".257"/>
    <circle cx="9.007" cy="28.689" r=".257"/>
    <circle cx="12.089" cy="28.689" r=".257"/>
    <circle cx="35.158" cy="26.274" r=".257"/>
    <circle cx="34.516" cy="28.458" r=".257"/>
    <circle cx="28.865" cy="28.458" r=".257"/>
    <circle cx="23.984" cy="28.458" r=".257"/>
    <circle cx=".478" cy="10.347" r=".257"/>
    <circle cx=".606" cy="6.108" r=".257"/>
    <circle cx="5.307" cy=".97" r=".257"/>
    <circle cx=".863" cy=".97" r=".257"/>
    <circle cx="35.21" cy="3.539" r=".257"/>
    <circle cx="34.131" cy="1.021" r=".257"/>
    <circle cx="10.265" cy=".79" r=".257"/>
    <circle cx="14.812" cy=".752" r=".257"/>
    <circle cx="20.284" cy=".752" r=".257"/>
    <circle cx="24.472" cy=".764" r=".257"/>
    <circle cx="28.081" cy=".752" r=".257"/>
    <circle cx="35.261" cy="7.184" r=".257"/>
  </g>
  <path d="M22.218.406A.406.406 0 0021.812 0h-8.055a.406.406 0 00-.406.406V7.04c0 .224.182.406.406.406h8.055a.406.406 0 00.406-.406V.406zM7.014 1.96a.383.383 0 00-.382-.383H.383A.383.383 0 000 1.96v6.984c0 .211.171.383.383.383h6.249a.383.383 0 00.382-.383V1.96zm14.521 24.18a.17.17 0 00-.169-.169h-7.003a.17.17 0 00-.169.169v2.768a.17.17 0 00.169.169h7.003a.17.17 0 00.169-.169V26.14z" fill="#00c3ff"/>
  <path d="M16.653 27.107a.057.057 0 00-.056-.057h-.924a.057.057 0 00-.056.057V30.1c0 .031.025.056.056.056h.924a.056.056 0 00.056-.056v-2.993z" fill="#00c3ff"/>
  <text x="23.052" y="28.032" font-family="'CourierNewPS-BoldMT','Courier New',monospace" font-weight="700" font-size="2.027">
    OFF
  </text>
  <text x="9.633" y="27.882" font-family="'CourierNewPS-BoldMT','Courier New',monospace" font-weight="700" font-size="2.027">
    ON
  </text>
  <g font-family="'CourierNewPS-BoldMT','Courier New',monospace" font-weight="700" font-size="12">
    <text x="86.607" y="45.003" transform="translate(-5.096 -4.436) scale(.16895)">
      GND
    </text>
    <text x="86.607" y="57.003" transform="translate(-5.096 -4.436) scale(.16895)">
      3V
    </text>
    <text x="86.607" y="69.003" transform="translate(-5.096 -4.436) scale(.16895)">
      SDA
    </text>
    <text x="86.607" y="81.003" transform="translate(-5.096 -4.436) scale(.16895)">
      SCL
    </text>
  </g>
  <text x="21.242" y="5.221" font-family="'CourierNewPS-BoldMT','Courier New',monospace" font-weight="700" font-size="1.534" transform="rotate(90 10.171 -.532)">
    SCL2 SDA2 IO2 IO3
  </text>
  <text x="36.722" y="43.195" font-family="'CourierNewPS-BoldMT','Courier New',monospace" font-weight="700" font-size="1.592" transform="rotate(-90 25.235 37.226)">
    GND IO1 VDD GND IO0 VDD
  </text>
</svg>
