<svg version="1.1" id="Layer_1" xmlns:xml="http://www.w3.org/XML/1998/namespace" xmlns="http://www.w3.org/2000/svg" x="0" y="0" width="185.7" height="161.3" viewBox="0 0 185.7 161.3" xml:space="preserve">
  <style>
    .st1{fill:#fff}.st3,.st4{fill:none;stroke:#fff;stroke-width:.8}.st4{stroke-width:.6}.st5{stroke-width:.8}.st5,.st6,.st7{fill:none;stroke:#fff;stroke-linecap:round}.st7{stroke-width:.5}.st8{fill:#d42328}.st9{fill:#dbab27}.st10{stroke:#010101}.st10,.st11,.st12,.st13{fill:none;stroke-miterlimit:10}.st11{stroke:#d42328}.st12{stroke:#febf10}.st13{stroke:#ed2224}.st14{fill:none;stroke:#dbab27;stroke-miterlimit:10}.st16{fill:#7f8080}.st17{fill:#dcdcdc}.st18{fill:#010101}.st19{fill:#bbb}.st20{fill:#e5e3df}.st21{fill:#b5b5b5}.st23{fill:#303030}.st24{fill:#4e4e4e}.st25{fill:#505050}.st27{fill:#ededed}.st30{fill:#77af6a}.st31{fill:#628a55}.st33{fill:#ededee}.st36{fill:#c2bfbf}.st37{fill:#e5e5e5}
  </style>
  <path id="PCBborder" d="M185.2 6.2l-.1-.2-.1-.2-.1-.2-.1-.2-.1-.2-.1-.2-.1-.2-.1-.2-.1-.2-.1-.2-.1-.2-.1-.2-.1-.2-.1-.2-.1-.2-.1-.2-.1-.2-.1-.2-.2-.2-.2-.2-.2-.2-.2-.1-.2-.1-.2-.1-.2-.1-.2-.1-.2-.1-.2-.1-.2-.1-.2-.1-.2-.1h-.7l-.2-.1-.2-.1-.2-.1-.2-.1-.2-.1-.2-.1-.2-.1-.2-.1-.2-.1-.2-.1H7.4l-.2.1-.2.1-.2.1h-.2l-.2.1-.2.1-.2.1-.2.1-.2.1-.2.1-.2.1-.2.2-.2.1v.3l-.2.1-.2.1-.2.1L4 2l-.2.1-.2-.1-.2.2-.2.2-.1.2-.1.2-.1.2-.3.1-.1.2-.1.2-.1.2-.1.2-.1.2-.1.2-.1.2-.1.2v.4l-.1.2-.1.2-.1.2-.1.2-.1.2-.1.2-.1.2-.1.2v146.9l.1.2.1.2.1.2.1.2.1.2.1.2.1.2.1.2.1.2.1.2.1.2.1.2.2.1.1.2.1.2.1.2.1.2.2.1-.1.2.2.2.2.2.2.2.2.1.2.1.1.3.2.1.2.1.2.1.2.1.1.1.2.1.2.1h.3l.2.1.2.1.2.1.2.1.2.1.2.1.4.2.2.1.2.1.2.1h1.7v-.2h115.2l.1-.1.1-.1.1-.1.1-.1.1-.1.1-.1.1-.1.1-.1.1-.1.1-.1.1-.1V105l.1-.1.1-.1.1-.1.1-.1.1-.1.1-.1.1-.1.1-.1.1-.1.1-.1.6.2.1-.1.1-.1.1-.1.1-.1.1-.1h1.9l.1.1.1.1.1.1.1.1.1.1.1.1.1.1.1.1.1.1.1.1.1.1.1.1.1.1.1.1.1.1.1.1V159l.1.1.1.1.1.1.1.1.1.1.1.1.1.1.1.1.1.1.1.1.1.1h46.1l.2-.1.2-.1.2-.1.2-.1.2-.1.2-.1.2-.1.2-.1.2-.1.2-.1.2-.1.2-.1.2-.1.2-.1.2-.1.2-.1.2-.1.2-.1.2-.1.2-.2.2-.2.2-.2.1-.2.1-.2.1-.2.1-.2.1-.2.1-.2.1-.2.1-.2.1-.2.1-.2.1-.2.1-.2.1-.2.1-.2.1-.2.1-.2.1-.2.1-.2.3-.6.1-.2.1-.2V6.4l-.1-.2zM89.7 4.8c1.5 0 2.7 1.2 2.7 2.7s-1.2 2.7-2.7 2.7S87 8.9 87 7.5s1.2-2.7 2.7-2.7zm-14.4 0C76.8 4.8 78 6 78 7.5s-1.2 2.7-2.7 2.7-2.7-1.2-2.7-2.7 1.2-2.7 2.7-2.7zm-7.2 0c1.5 0 2.7 1.2 2.7 2.7s-1.2 2.7-2.7 2.7-2.7-1.2-2.7-2.7 1.2-2.7 2.7-2.7zm0 7.2c1.5 0 2.7 1.2 2.7 2.7s-1.2 2.7-2.7 2.7-2.7-1.2-2.7-2.7 1.2-2.7 2.7-2.7zM53.7 4.8c1.5 0 2.7 1.2 2.7 2.7s-1.2 2.7-2.7 2.7S51 8.9 51 7.5s1.2-2.7 2.7-2.7zm0 7.2c1.5 0 2.7 1.2 2.7 2.7s-1.2 2.7-2.7 2.7-2.7-1.3-2.7-2.7c0-1.5 1.2-2.7 2.7-2.7zm-1.5 17.8c1.3 0 2.4 1.1 2.4 2.4 0 1.3-1.1 2.4-2.4 2.4s-2.4-1.1-2.4-2.4c0-1.4 1.1-2.4 2.4-2.4zM11.1 7.1c2.2 0 4 1.8 4 4s-1.8 4-4 4-4-1.8-4-4c0-2.3 1.8-4 4-4zM5.4 21.8c1.5 0 2.8 1.3 2.8 2.8S7 27.3 5.4 27.3c-1.5 0-2.8-1.3-2.8-2.8s1.3-2.7 2.8-2.7zm0 7.2c1.5 0 2.8 1.3 2.8 2.8S7 34.6 5.4 34.6c-1.5 0-2.8-1.3-2.8-2.8S3.9 29 5.4 29zm0 7.2c1.5 0 2.8 1.3 2.8 2.8S7 41.8 5.4 41.8c-1.5 0-2.8-1.3-2.8-2.8s1.3-2.8 2.8-2.8zm0 7.1c1.5 0 2.8 1.3 2.8 2.8C8.2 47.7 7 49 5.4 49c-1.5 0-2.8-1.3-2.8-2.8 0-1.6 1.3-2.9 2.8-2.9zm0 14.5c1.5 0 2.8 1.3 2.8 2.8S7 63.3 5.4 63.3c-1.5 0-2.8-1.3-2.8-2.8s1.3-2.7 2.8-2.7zm0 7.2c1.5 0 2.8 1.3 2.8 2.8S7 70.6 5.4 70.6c-1.5 0-2.8-1.3-2.8-2.8S3.9 65 5.4 65zm0 7.2c1.5 0 2.8 1.3 2.8 2.8S7 77.8 5.4 77.8c-1.5 0-2.8-1.3-2.8-2.8s1.3-2.8 2.8-2.8zm0 7.1c1.5 0 2.8 1.3 2.8 2.8S7 85 5.4 85c-1.5 0-2.8-1.3-2.8-2.8s1.3-2.9 2.8-2.9zm0 7.3c1.5 0 2.8 1.3 2.8 2.8s-1.3 2.8-2.8 2.8-2.8-1.3-2.8-2.8c0-1.6 1.3-2.8 2.8-2.8zm0 7.2c1.5 0 2.8 1.3 2.8 2.8S7 99.3 5.4 99.3c-1.5 0-2.8-1.3-2.8-2.8s1.3-2.7 2.8-2.7zm0 7.2c1.5 0 2.8 1.3 2.8 2.8s-1.3 2.8-2.8 2.8-2.8-1.3-2.8-2.8 1.3-2.8 2.8-2.8zm0 12.8c-1.5 0-2.8-1.3-2.8-2.8s1.3-2.8 2.8-2.8 2.8 1.3 2.8 2.8-1.2 2.8-2.8 2.8zm5.7 40.2c-2.2 0-4-1.8-4-4s1.8-4 4-4 4 1.8 4 4-1.8 4-4 4zm1.5-40.2c-1.5 0-2.8-1.3-2.8-2.8s1.3-2.8 2.8-2.8 2.8 1.3 2.8 2.8-1.2 2.8-2.8 2.8zm0-7.2c-1.5 0-2.8-1.3-2.8-2.8s1.3-2.8 2.8-2.8 2.8 1.3 2.8 2.8-1.2 2.8-2.8 2.8zm0-7.3c-1.5 0-2.8-1.3-2.8-2.8s1.3-2.8 2.8-2.8 2.8 1.3 2.8 2.8-1.2 2.8-2.8 2.8zm0-7.1c-1.5 0-2.8-1.3-2.8-2.8s1.3-2.8 2.8-2.8 2.8 1.3 2.8 2.8c0 1.5-1.2 2.8-2.8 2.8zm0-7.2c-1.5 0-2.8-1.3-2.8-2.8s1.3-2.8 2.8-2.8 2.8 1.3 2.8 2.8-1.2 2.8-2.8 2.8zm0-7.2c-1.5 0-2.8-1.3-2.8-2.8s1.3-2.8 2.8-2.8 2.8 1.3 2.8 2.8-1.2 2.8-2.8 2.8zm0-7.2c-1.5 0-2.8-1.3-2.8-2.8s1.3-2.8 2.8-2.8 2.8 1.3 2.8 2.8-1.2 2.8-2.8 2.8zm0-7.3c-1.5 0-2.8-1.3-2.8-2.8s1.3-2.8 2.8-2.8 2.8 1.3 2.8 2.8-1.2 2.8-2.8 2.8zm0-14.3c-1.5 0-2.8-1.3-2.8-2.8s1.3-2.8 2.8-2.8 2.8 1.3 2.8 2.8c0 1.5-1.2 2.8-2.8 2.8zm0-7.2c-1.5 0-2.8-1.3-2.8-2.8s1.3-2.8 2.8-2.8 2.8 1.3 2.8 2.8-1.2 2.8-2.8 2.8zm0-7.2c-1.5 0-2.8-1.3-2.8-2.8s1.3-2.8 2.8-2.8 2.8 1.3 2.8 2.8-1.2 2.8-2.8 2.8zm0-7.3c-1.5 0-2.8-1.3-2.8-2.8s1.3-2.8 2.8-2.8 2.8 1.3 2.8 2.8-1.2 2.8-2.8 2.8zm7.2 86.5c-1.5 0-2.8-1.3-2.8-2.8s1.3-2.8 2.8-2.8 2.8 1.3 2.8 2.8-1.2 2.8-2.8 2.8zm0-7.2c-1.5 0-2.8-1.3-2.8-2.8s1.3-2.8 2.8-2.8 2.8 1.3 2.8 2.8-1.2 2.8-2.8 2.8zm0-7.3c-1.5 0-2.8-1.3-2.8-2.8s1.3-2.8 2.8-2.8 2.8 1.3 2.8 2.8-1.2 2.8-2.8 2.8zm0-7.1c-1.5 0-2.8-1.3-2.8-2.8s1.3-2.8 2.8-2.8 2.8 1.3 2.8 2.8c0 1.5-1.2 2.8-2.8 2.8zm0-7.2c-1.5 0-2.8-1.3-2.8-2.8s1.3-2.8 2.8-2.8 2.8 1.3 2.8 2.8-1.2 2.8-2.8 2.8zm0-7.2c-1.5 0-2.8-1.3-2.8-2.8s1.3-2.8 2.8-2.8 2.8 1.3 2.8 2.8-1.2 2.8-2.8 2.8zm0-7.2c-1.5 0-2.8-1.3-2.8-2.8s1.3-2.8 2.8-2.8 2.8 1.3 2.8 2.8-1.2 2.8-2.8 2.8zm0-7.3c-1.5 0-2.8-1.3-2.8-2.8s1.3-2.8 2.8-2.8 2.8 1.3 2.8 2.8-1.2 2.8-2.8 2.8zm0-14.3c-1.5 0-2.8-1.3-2.8-2.8s1.3-2.8 2.8-2.8 2.8 1.3 2.8 2.8c0 1.5-1.2 2.8-2.8 2.8zm0-7.2c-1.5 0-2.8-1.3-2.8-2.8s1.3-2.8 2.8-2.8 2.8 1.3 2.8 2.8-1.2 2.8-2.8 2.8zm0-7.2c-1.5 0-2.8-1.3-2.8-2.8s1.3-2.8 2.8-2.8 2.8 1.3 2.8 2.8-1.2 2.8-2.8 2.8zm0-7.3c-1.5 0-2.8-1.3-2.8-2.8s1.3-2.8 2.8-2.8 2.8 1.3 2.8 2.8-1.2 2.8-2.8 2.8zm5.1-10c-1.5 0-2.7-1.2-2.7-2.7s1.2-2.7 2.7-2.7 2.7 1.2 2.7 2.7-1.2 2.7-2.7 2.7zm0-7.1c-1.5 0-2.7-1.2-2.7-2.7s1.2-2.7 2.7-2.7 2.7 1.2 2.7 2.7-1.2 2.7-2.7 2.7zm7.2 7.1c-1.5 0-2.7-1.2-2.7-2.7s1.2-2.7 2.7-2.7 2.7 1.2 2.7 2.7-1.2 2.7-2.7 2.7zm0-7.1c-1.5 0-2.7-1.2-2.7-2.7s1.2-2.7 2.7-2.7 2.7 1.2 2.7 2.7-1.2 2.7-2.7 2.7zm7.2 7.1c-1.5 0-2.7-1.2-2.7-2.7s1.2-2.7 2.7-2.7 2.7 1.2 2.7 2.7-1.2 2.7-2.7 2.7zm0-7.1c-1.5 0-2.7-1.2-2.7-2.7s1.2-2.7 2.7-2.7S42 6 42 7.5s-1.2 2.7-2.7 2.7zM45 49c-1.3 0-2.4-1.1-2.4-2.4 0-1.3 1.1-2.4 2.4-2.4s2.4 1.1 2.4 2.4S46.3 49 45 49zm0-14.4c-1.3 0-2.4-1.1-2.4-2.4 0-1.3 1.1-2.4 2.4-2.4s2.4 1.1 2.4 2.4c0 1.3-1.1 2.4-2.4 2.4zm1.5-17.3c-1.5 0-2.7-1.2-2.7-2.7s1.2-2.7 2.7-2.7 2.7 1.2 2.7 2.7-1.2 2.7-2.7 2.7zm0-7.1c-1.5 0-2.7-1.2-2.7-2.7s1.2-2.7 2.7-2.7 2.7 1.2 2.7 2.7-1.2 2.7-2.7 2.7zm3.3 36.4c0-1.3 1.1-2.4 2.4-2.4s2.4 1.1 2.4 2.4c0 1.3-1.1 2.4-2.4 2.4s-2.4-1.1-2.4-2.4zm6.6 94c-1.9 0-3.4-1.5-3.4-3.4s1.5-3.4 3.4-3.4 3.4 1.5 3.4 3.4-1.5 3.4-3.4 3.4zm3-91.6c-1.3 0-2.4-1.1-2.4-2.4 0-1.3 1.1-2.4 2.4-2.4 1.3 0 2.4 1.1 2.4 2.4 0 1.3-1.1 2.4-2.4 2.4zm0-14.4c-1.3 0-2.4-1.1-2.4-2.4 0-1.3 1.1-2.4 2.4-2.4 1.3 0 2.4 1.1 2.4 2.4 0 1.3-1.1 2.4-2.4 2.4zm1.5-17.3c-1.5 0-2.7-1.2-2.7-2.7s1.2-2.7 2.7-2.7 2.7 1.2 2.7 2.7c0 1.5-1.2 2.7-2.7 2.7zm0-7.1c-1.5 0-2.7-1.2-2.7-2.7s1.2-2.7 2.7-2.7 2.7 1.2 2.7 2.7-1.2 2.7-2.7 2.7zm6.3 130.4c-1.9 0-3.4-1.5-3.4-3.4s1.5-3.4 3.4-3.4 3.4 1.5 3.4 3.4-1.5 3.4-3.4 3.4zm2.3-33.8c-1.7 0-3.1-1.4-3.1-3.1s1.4-3.1 3.1-3.1 3.1 1.4 3.1 3.1-1.4 3.1-3.1 3.1zm3.1-92.1c0-1.5 1.2-2.7 2.7-2.7s2.7 1.2 2.7 2.7-1.2 2.7-2.7 2.7c-1.5-.1-2.7-1.3-2.7-2.7zm1 89.1c0-1.7 1.4-3.1 3.1-3.1s3.1 1.4 3.1 3.1-1.4 3.1-3.1 3.1-3.1-1.4-3.1-3.1zm6.9 36.8c-1.9 0-3.4-1.5-3.4-3.4s1.5-3.4 3.4-3.4 3.4 1.5 3.4 3.4-1.5 3.4-3.4 3.4zm2-123.3c-1.5 0-2.7-1.2-2.7-2.7s1.2-2.7 2.7-2.7 2.7 1.2 2.7 2.7-1.2 2.7-2.7 2.7zm0-7.1c-1.5 0-2.7-1.2-2.7-2.7s1.2-2.7 2.7-2.7 2.7 1.2 2.7 2.7-1.2 2.7-2.7 2.7zm4.5 4.5c0-1.5 1.2-2.7 2.7-2.7s2.7 1.2 2.7 2.7-1.2 2.7-2.7 2.7-2.7-1.3-2.7-2.7zm4.3 125.9c-1.9 0-3.4-1.5-3.4-3.4s1.5-3.4 3.4-3.4 3.4 1.5 3.4 3.4-1.5 3.4-3.4 3.4zm5.6-123.3c-1.5 0-2.7-1.2-2.7-2.7s1.2-2.7 2.7-2.7 2.7 1.2 2.7 2.7-1.2 2.7-2.7 2.7zm0-7.1c-1.5 0-2.7-1.2-2.7-2.7s1.2-2.7 2.7-2.7 2.7 1.2 2.7 2.7-1.2 2.7-2.7 2.7zm7.2 7.1c-1.5 0-2.7-1.2-2.7-2.7s1.2-2.7 2.7-2.7 2.7 1.2 2.7 2.7c0 1.5-1.2 2.7-2.7 2.7zm0-7.1c-1.5 0-2.7-1.2-2.7-2.7s1.2-2.7 2.7-2.7 2.7 1.2 2.7 2.7-1.2 2.7-2.7 2.7zm7.2 7.1c-1.5 0-2.7-1.2-2.7-2.7s1.2-2.7 2.7-2.7 2.7 1.2 2.7 2.7-1.2 2.7-2.7 2.7zm0-7.1c-1.5 0-2.7-1.2-2.7-2.7s1.2-2.7 2.7-2.7S114 6 114 7.5s-1.2 2.7-2.7 2.7zm7.2 7.1c-1.5 0-2.7-1.2-2.7-2.7s1.2-2.7 2.7-2.7 2.7 1.2 2.7 2.7-1.2 2.7-2.7 2.7zm0-7.1c-1.5 0-2.7-1.2-2.7-2.7s1.2-2.7 2.7-2.7 2.7 1.2 2.7 2.7-1.2 2.7-2.7 2.7zm7.2 7.1c-1.5 0-2.7-1.2-2.7-2.7s1.2-2.7 2.7-2.7 2.7 1.2 2.7 2.7-1.2 2.7-2.7 2.7zm0-7.1c-1.5 0-2.7-1.2-2.7-2.7s1.2-2.7 2.7-2.7 2.7 1.2 2.7 2.7-1.2 2.7-2.7 2.7zm7.2 7.1c-1.5 0-2.7-1.2-2.7-2.7s1.2-2.7 2.7-2.7 2.7 1.2 2.7 2.7c0 1.5-1.2 2.7-2.7 2.7zm0-7.1c-1.5 0-2.7-1.2-2.7-2.7s1.2-2.7 2.7-2.7 2.7 1.2 2.7 2.7-1.2 2.7-2.7 2.7zm7.2 7.1c-1.5 0-2.7-1.2-2.7-2.7s1.2-2.7 2.7-2.7 2.7 1.2 2.7 2.7-1.2 2.7-2.7 2.7zm0-7.1c-1.5 0-2.7-1.2-2.7-2.7s1.2-2.7 2.7-2.7 2.7 1.2 2.7 2.7-1.2 2.7-2.7 2.7zm7.2 7.1c-1.5 0-2.7-1.2-2.7-2.7s1.2-2.7 2.7-2.7 2.7 1.2 2.7 2.7-1.2 2.7-2.7 2.7zm0-7.1c-1.5 0-2.7-1.2-2.7-2.7s1.2-2.7 2.7-2.7S150 6 150 7.5s-1.2 2.7-2.7 2.7zm7.2 7.1c-1.5 0-2.7-1.2-2.7-2.7s1.2-2.7 2.7-2.7 2.7 1.2 2.7 2.7-1.2 2.7-2.7 2.7zm0-7.1c-1.5 0-2.7-1.2-2.7-2.7s1.2-2.7 2.7-2.7 2.7 1.2 2.7 2.7-1.2 2.7-2.7 2.7zm7.2 7.1c-1.5 0-2.7-1.2-2.7-2.7s1.2-2.7 2.7-2.7 2.7 1.2 2.7 2.7-1.2 2.7-2.7 2.7zm0-7.1c-1.5 0-2.7-1.2-2.7-2.7s1.2-2.7 2.7-2.7 2.7 1.2 2.7 2.7-1.2 2.7-2.7 2.7zM175.5 154c-2.2 0-4-1.8-4-4s1.8-4 4-4 4 1.8 4 4-1.8 4-4 4zm0-138.9c-2.2 0-4-1.8-4-4s1.8-4 4-4 4 1.8 4 4-1.8 4-4 4z" fill="#203063"/>
  <path class="st1" d="M103.7 81.7h.7c.7 0 1.1.2 1.1.8 0 .6-.4.8-1.1.8h-.7v-1.6zm2.3 3.8l-1.1-1.9c.6-.1 1-.5 1-1.2 0-.9-.6-1.2-1.5-1.2h-1.3v4.2h.5v-1.8h.8l1.1 1.8.5.1zm1.9.1c.8 0 1.4-.6 1.4-1.6s-.7-1.6-1.4-1.6c-.8 0-1.4.6-1.4 1.6s.6 1.6 1.4 1.6zm0-.4c-.6 0-1-.5-1-1.2s.4-1.2 1-1.2 1 .5 1 1.2c-.1.7-.5 1.2-1 1.2zm3.6.4c.7 0 1.4-.6 1.4-1.7 0-1-.4-1.6-1.2-1.6-.4 0-.7.2-1 .4v-1.9h-.5v4.6h.4l.1-.3c.2.3.5.5.8.5zm-.1-.4c-.2 0-.5-.1-.8-.3v-1.7c.3-.3.6-.4.9-.4.6 0 .9.5.9 1.2s-.4 1.2-1 1.2zm3.5.4c.8 0 1.4-.6 1.4-1.6s-.7-1.6-1.4-1.6c-.8 0-1.4.6-1.4 1.6s.6 1.6 1.4 1.6zm0-.4c-.6 0-.9-.5-.9-1.2s.4-1.2.9-1.2c.6 0 1 .5 1 1.2-.1.7-.5 1.2-1 1.2zm3.6.3h.5v-2h2v2h.5v-4.2h-.5v1.8h-2v-1.8h-.5v4.2zm4.6-1.7l.2-.7c.2-.5.3-.9.4-1.4.1.5.3 1 .4 1.4l.2.7h-1.2zm1.9 1.7h.5l-1.4-4.2h-.5l-1.4 4.2h.5l.4-1.3h1.6l.3 1.3zm1.7 0h.5v-3.8h1.3v-.4h-3.1v.4h1.3v3.8zm3.8 0h.4v-2.4c0-.4 0-.9-.1-1.2l.3 1 .8 2.3h.3l.8-2.3.3-1c0 .4-.1.9-.1 1.2v2.4h.4v-4.2h-.6l-.8 2.3-.3.9-.3-.9-.8-2.3h-.6v4.2h.3zm4.6 0h.4v-2.4c0-.4 0-.9-.1-1.2l.3 1 .8 2.3h.3l.8-2.3.3-1c0 .4-.1.9-.1 1.2v2.4h.4v-4.2h-.6l-.8 2.3-.3.9-.3-.9-.8-2.3h-.6v4.2h.3zm4.6 0h2.3v-.4h-.9v-3.8h-.4c-.2.1-.5.2-.8.3v.3h.7v3.2h-.9v.4z" id="gge272_3"/>
  <path d="M124.8 75.2l-.2.1-.2.2-.1.2-.1.3v.5l.1.3.1.2.2.2.2.1h.4l.2-.1.2-.2.1-.2.1-.3V76l-.1-.3-.1-.2-.2-.2-.2-.1h-.4m1.6 0v2.1m0-2.1h1.3m-1.3 1h.8m1.1-1v2.1m0-2.1h1.3m-1.3 1h.8" fill="none" stroke="#fff" stroke-width=".4" id="gge275_3"/>
  <path class="st3" d="M22.7 19.2l.2.3.5.5H20" id="gge276_3"/>
  <path class="st3" d="M22.6 55.2l.2.3.5.5h-3.4" id="gge277_3"/>
  <path class="st3" d="M23.2 52l-2.3-1.6v2.5m2.3-.9h-3.4" id="gge278_3"/>
  <path class="st3" d="M23.2 116l-.2-.5-.3-.2h-.3l-.3.2-.2.3-.2.7-.2.5-.3.3-.3.2h-.5l-.3-.2-.2-.2-.2-.5v-.7l.2-.5.2-.2.3-.2h.5l.3.2.3.3.2.5.2.7.2.3.3.2h.3l.3-.2.2-.5v-.5" id="gge279_3"/>
  <path class="st3" d="M178 129.4l-.5.3-.5.5-.3.5v1.1l.3.5.5.5.5.3.8.3h1.3l.8-.3.5-.3.5-.5.3-.5v-1.1l-.3-.5-.5-.5-.5-.3m-4.2-1.7l.3-.3-.3-.3-.3.3.3.3m1.8-.3h3.7m-3.7-5.1h3.7m-2.9 0l-.5.5-.3.5v.8l.3.5.5.5.8.3h.5l.8-.3.5-.5.3-.5v-.8l-.3-.5-.5-.5m-2.9-1.7h3.7m-2.6 0l-.8-.8-.3-.5v-.8l.3-.5.8-.3h2.6" id="gge280_3"/>
  <path class="st3" d="M176.7 95h5.5m-5.5-3.7h5.5m-2.9 3.7v-3.7m-.8-4.9h3.7m-2.9 0l-.5.5-.3.5v.8l.3.5.5.5.8.3h.5l.8-.3.5-.5.3-.5v-.8l-.3-.5-.5-.5m-2.9-1.7h3.7m-2.6 0l-.8-.8-.3-.5v-.8l.3-.5.8-.3h2.6m-2.9-4.6l-.5.3-.3.8v.8l.3.8.5.3.5-.3.3-.5.3-1.3.3-.5.5-.3h.3l.5.3.3.8v.8l-.3.8-.5.3" id="gge281_3"/>
  <path class="st3" d="M176.7 51.6h5.5m-5.5 0v-2.4l.3-.8.3-.3.5-.3h.8l.5.3.3.3.3.8v2.4m.4-5.3v-3.1h-.5l-.5.3-.3.3-.3.5v.8l.3.5.5.5.8.2h.5l.8-.3.5-.5.3-.5v-.8l-.3-.5-.5-.5m-4.7-2.6h4.4l.8-.3.3-.5v-.5m-3.7 2.1v-1.8m1.6-2v-3.1h-.5l-.5.3-.3.3-.3.5v.8l.3.5.5.5.8.2h.5l.8-.3.5-.5.3-.5v-.8l-.3-.5-.5-.5m-2.9-1.8h3.7m-2.1 0l-.8-.3-.5-.5-.3-.5v-.8" id="gge282_3"/>
  <path class="st1" d="M139.8 140.6h.7c.7 0 1.1.2 1.1.8s-.4.8-1.1.8h-.7v-1.6zm2.4 3.8l-1.1-1.9c.6-.1 1-.5 1-1.2 0-.9-.6-1.2-1.5-1.2h-1.3v4.2h.5v-1.7h.8l1.1 1.8h.5zm1.8.1c.8 0 1.4-.6 1.4-1.6s-.7-1.6-1.4-1.6c-.8 0-1.4.6-1.4 1.6s.6 1.6 1.4 1.6zm0-.4c-.6 0-1-.5-1-1.2s.4-1.2 1-1.2 1 .5 1 1.2-.4 1.2-1 1.2zm3.6.4c.7 0 1.4-.6 1.4-1.7 0-1-.4-1.6-1.2-1.6-.4 0-.7.2-1 .4v-1.9h-.5v4.6h.4l.1-.3c.2.4.5.5.8.5zm0-.4c-.2 0-.5-.1-.8-.3v-1.7c.3-.3.6-.4.9-.4.6 0 .9.5.9 1.2-.1.7-.5 1.2-1 1.2zm3.4.4c.8 0 1.4-.6 1.4-1.6s-.7-1.6-1.4-1.6c-.8 0-1.4.6-1.4 1.6s.7 1.6 1.4 1.6zm0-.4c-.6 0-.9-.5-.9-1.2s.4-1.2.9-1.2c.6 0 1 .5 1 1.2s-.4 1.2-1 1.2zm3.6.3h.5v-2h2v2h.5v-4.2h-.5v1.8h-2v-1.8h-.5v4.2zm4.6-1.7l.2-.7c.2-.5.3-.9.4-1.4.1.5.3 1 .4 1.4l.2.7h-1.2zm1.9 1.7h.5l-1.4-4.2h-.5l-1.4 4.2h.5l.4-1.3h1.6l.3 1.3zm1.7 0h.5v-3.8h1.3v-.4h-3.1v.4h1.3v3.8zm-23.5 8.7h.4v-2.5c0-.4 0-.9-.1-1.2l.3 1 .8 2.3h.3l.8-2.3.3-1c0 .4-.1.9-.1 1.2v2.4h.4v-4.2h-.6l-.8 2.3-.3.9-.3-.9-.8-2.3h-.6v4.3h.3zm4.6 0h.4v-2.5c0-.4 0-.9-.1-1.2l.3 1 .8 2.3h.3l.8-2.3.3-1c0 .4-.1.9-.1 1.2v2.4h.4v-4.2h-.6l-.8 2.3-.3.9-.3-.9-.8-2.3h-.6v4.3h.3zm4.6 0h2.3v-.4h-.9v-3.8h-.4c-.2.1-.5.2-.8.3v.3h.7v3.2h-.9v.4zm5.1 0h.5l1.1-3.1h-.5l-.6 1.8-.3.9-.3-.9-.6-1.8h-.5l1.2 3.1zm2 0h2.6v-.4h-1.9c1-1 1.7-1.8 1.7-2.7 0-.7-.5-1.2-1.2-1.2-.5 0-.9.2-1.2.6l.3.3c.2-.3.5-.5.9-.5.5 0 .8.4.8.9 0 .7-.6 1.6-1.9 2.8v.2h-.1zm3.7 0c.2 0 .4-.1.4-.4 0-.2-.2-.4-.4-.4s-.4.2-.4.4c.1.3.2.4.4.4zm1.4-1.6l1-1.5.3-.6v2.1h-1.3zm2.4 0h-.6v-2.7h-.5l-1.8 2.7v.3h1.9v1.2h.4v-1.2h.6v-.3z" id="gge2372_3"/>
  <path class="st4" d="M107.2 129.3v2.6m-1.4-1.2h2.6m1.1-1.8v3.1m0-3.1h1.3l.4.1.1.2.2.3v.3l-.2.3-.1.2-.4.1m-1.3 0h1.3l.4.2.1.1.2.3v.4l-.2.3-.1.2-.4.1h-1.3m4.2-3.1l-1.2 3.1m1.2-3.1l1.2 3.1m-2-1h1.5m2.5-2.1v3.1m-1.1-3.1h2.1" id="gge595_3"/>
  <path class="st4" d="M136.1 128.6l-.3.2-.3.3-.1.3v.6l.1.3.3.3.3.2.4.1h.7l.4-.1.3-.2.3-.3.1-.3v-.6l-.1-.3-.3-.3-.2-.2h-.4m0 .8v-.8m-1.9-.9h3.1m-3.1 0l3.1-2.1m-3.1 0h3.1m-3.1-1h3.1m-3.1 0v-1l.1-.4.3-.3.3-.1.4-.2h.7l.4.2.3.1.3.3.1.4v1" id="gge603_3"/>
  <path class="st4" d="M45.7 106.5h1.6l-.9 1.2h.4l.3.2.2.1.1.4v.3l-.1.4-.3.3-.4.1h-.4l-.4-.1-.2-.2-.1-.3m2.9-2.4l1.2 3.1m1.2-3.1l-1.2 3.1m2.4-3.1h1.6l-.9 1.2h.4l.3.2.2.1.1.4v.3l-.1.4-.3.3-.4.1h-.4l-.4-.1-.2-.2-.1-.3" id="gge607_3"/>
  <path class="st4" d="M30.6 114.1l-.2-.3-.3-.3-.3-.1h-.6l-.3.1-.3.3-.2.3-.1.4v.7l.1.4.2.3.3.3.3.1h.6l.3-.1.3-.3.2-.3v-.4m-.7.1h.7m1-1.9v3.1m0-3.1l2.1 3.1m0-3.1v3.1m1-3.1v3.1m0-3.1h1l.4.1.3.3.1.3.2.5v.7l-.2.4-.1.3-.3.3-.4.1h-1" id="gge611_3"/>
  <path class="st4" d="M159.5 91.1v-1.6l1.2.9V90l.2-.3.1-.2.4-.1h.3l.4.1.3.3.1.4v.4l-.1.4-.2.2-.3.1m-2.4-2.9l3.1-1.2m-3.1-1.2l3.1 1.2m-3.1-2.4v-1.6l1.2.9v-.5l.2-.3.1-.2.4-.1h.3l.4.1.3.3.1.4v.4l-.1.4-.2.2-.3.1" id="gge615_3"/>
  <path class="st4" d="M84 90.4v2.1m0 .7l-.1.2.1.1.2-.1-.2-.2m2.3-2.8l-1.2 3.1m1.2-3.1l1.2 3.1m-1.9-1.1h1.5m2.3-2l-.4.1-.3.4-.2.7v.4l.2.7.3.4.4.1h.3l.4-.1.3-.4.2-.7v-.4l-.2-.7-.3-.4-.4-.1h-.3" id="gge628_3"/>
  <path class="st4" d="M33.4 95.4v2.1m0 .7l-.1.2.1.1.2-.1-.2-.2m2.3-2.8l-1.2 3.1m1.2-3.1l1.2 3.1m-1.9-1h1.5m2.3-2.1l-.4.1-.3.4-.2.7v.4l.2.7.3.4.4.1h.3l.4-.1.3-.4.2-.7v-.4l-.2-.7-.3-.4-.4-.1h-.3" id="gge634_3"/>
  <path class="st4" d="M60.6 95.1l-1.2 3.1m1.2-3.1l1.2 3.1m-1.9-1.1h1.5m1.4-1.5l.3-.1.4-.4v3.1" id="gge640_3"/>
  <path class="st4" d="M57.2 18.3v2.1m0-1.2l.1-.4.3-.3.3-.1h.4m1.1.8h1.8v-.3l-.2-.3-.2-.2-.3-.1h-.4l-.3.1-.3.3-.1.5v.3l.1.4.3.3.3.1h.4l.3-.1.3-.3m2.6-1.2l-.1-.3-.4-.1h-.5l-.4.1-.2.3.2.3.3.1.7.2.3.1.1.3v.2l-.1.3-.4.1h-.5l-.4-.1-.2-.3m2.6-.7h1.8v-.3l-.2-.3-.1-.2-.3-.1h-.4l-.3.1-.3.3-.2.5v.3l.2.4.3.3.3.1h.4l.3-.1.3-.3m1.4-2.6v2.5l.1.4.3.1h.3m-1.1-2h1" id="gge647_3"/>
  <path class="st4" d="M29.1 25.9H26m3.1 0v1.3l-.1.4-.1.2-.3.1h-.3l-.3-.1-.2-.2-.1-.4v-1.3m0 1l-1.6 1m2.3 3.2l.3-.1.3-.3.1-.3v-.6l-.1-.3-.3-.3-.3-.1-.4-.2h-.7l-.4.2-.3.1-.3.3-.1.3v.6l.1.3.3.3.3.1m1.5 3.2l.3-.1.3-.3.1-.3V33l-.1-.3-.3-.3-.3-.1-.4-.2h-.7l-.4.2-.3.1-.3.3-.1.3v.6l.1.3.3.3.3.1" id="gge650_3"/>
  <path class="st4" d="M134 95.4v1.5l1.3.2-.2-.2-.1-.4v-.4l.1-.4.3-.3.4-.1h.3l.4.1.3.3.1.4v.4l-.1.4-.2.2-.3.1m-2.3-3l3.1-1.2m-3.1-1.2l3.1 1.2" id="gge684_3"/>
  <path class="st4" d="M28 39.6h-1.5l-.2 1.3.2-.2.4-.1h.4l.4.1.3.3.1.4v.3l-.1.4-.3.3-.4.1h-.4l-.4-.1-.2-.2-.1-.3m3.1-2.3l1.2 3.1m1.2-3.1l-1.2 3.1" id="gge688_3"/>
  <path class="st4" d="M54.5 128.9v3.1m0-3.1h1.3l.4.1.2.1.1.3v.4l-.1.3-.2.1-.4.2h-1.3m3.1-1.5l.7 3.1m.7-3.1l-.7 3.1m.7-3.1l.7 3.1m.8-3.1l-.7 3.1m1.7-3.1v3.1m0-3.1h1.3l.4.1.1.1.2.3v.3l-.2.3-.1.2-.4.1h-1.3m1 .1l1 1.6m4.6-2.7v2.6m-1.3-1.2h2.6" id="gge691_3"/>
  <path class="st4" d="M79 128.9v3.1m0-3.1h1.9m-1.9 1.5h1.2M79 132h1.9m3.1-2.7l-.3-.3-.4-.1h-.6l-.4.1-.3.3v.3l.1.3.2.1.3.2.9.3.3.1.2.1.1.3v.4l-.3.3-.4.1h-.6l-.4-.1-.3-.3m5-1.8l-.1-.3-.3-.3-.3-.1h-.6l-.3.1-.3.3-.1.3-.2.4v.7l.2.4.1.3.3.3.3.1h.6l.3-.1.3-.3.1-.3m4.6-1.8v2.6m-1.3-1.2H93" id="gge700_3"/>
  <path class="st4" d="M110.6 117.7l-.2-.3-.3-.3-.3-.1h-.6l-.3.1-.3.3-.2.3-.1.4v.7l.1.4.2.3.3.3.3.1h.6l.3-.1.3-.3.2-.3m.9-2.2v3.1m2.1-3.1v3.1m-2.1-1.6h2.1m1-1.5v3.1m0-3.1h1.3l.4.1.1.1.2.3v.3l-.2.3-.1.2-.4.1h-1.3m1 .1l1 1.6m3.2-2.4l-.1-.3-.3-.3-.3-.1h-.6l-.3.1-.3.3-.1.3-.1.4v.7l.1.4.1.3.3.3.3.1h.6l.3-.1.3-.3.1-.3v-.4m-.7.1h.7" id="gge711_3"/>
  <path class="st4" d="M29.1 49.7L26 50.9m3.1 1.1L26 50.8m2.7 4.3l.3-.3.1-.4v-.6l-.1-.4-.3-.4h-.3l-.3.2-.1.1-.2.3-.3.9-.1.3-.1.1-.3.2h-.4l-.3-.3-.1-.4v-.6l.1-.4.3-.3m2.5 2.9H26m3.1 0v1.9M27.7 56v1.2M26 56v1.9m3.1 1H26m3.1 0v1.3l-.1.4-.1.1-.3.2h-.3l-.3-.2-.2-.1-.1-.4v-1.3m0 1l-1.6 1m3 1L26 63.1m3.1 1.2L26 63.1m3.1 3.1l-.1-.3-.3-.3-.3-.1-.4-.2h-.7l-.4.2-.4.1-.3.3-.1.3v.6l.1.3.3.3.3.1.4.1h.7l.4-.1.3-.1.3-.3.1-.3v-.6" id="gge719_3"/>
  <path class="st4" d="M37.3 49.7l-3.1 1.2m3.1 1.1l-3.1-1.2m3.1 2.2h-3.1m3.1 0l-3.1 2.1m3.1 0h-3.1m3.1.9h-3.1m3.1 0v1.9M35.8 56v1.2M34.2 56v1.9m3.1 1.9l-.1-.3-.3-.3-.3-.1-.4-.1h-.7l-.4.1-.3.1-.3.3-.1.3v.6l.1.3.3.3.3.1.4.2h.7l.4-.2.3-.1.3-.3.1-.3v-.6m0 2.4h-3.1m3.1 0v1.4l-.1.4-.1.2-.4.1h-.4l-.3-.1-.1-.2-.2-.4v-1.3m1.6 3h-3.1m3.1.9l-3.1 2.1m3.1 0l-3.1-2.1" id="gge723_3"/>
  <path class="st4" d="M7.8 121.7H4.7m3.1 0v1.3l-.1.4-.1.2-.3.1h-.6l-.3-.1-.1-.2-.2-.4v-1.3m1.7 3.9l-.1-.3-.3-.3-.3-.1-.4-.2H6l-.4.2-.3.1-.3.3-.3.3v.6l.1.3.3.3.3.1.4.2h.7l.4-.2.3-.1.3-.3.1-.3v-.6m.2 2.4l-3.1.7m3.1.8l-3.1-.7m3.1.7l-3.1.7m3.1.8l-3.1-.7m3.1 1.6H4.7m3.1 0v1.9m-1.5-1.9v1.2m-1.6-1.2v1.9m3.1 1H4.7m3.1 0v1.3l-.1.4-.1.2-.3.1H7l-.3-.1-.2-.2-.1-.4v-1.3m-.1 1.1l-1.6 1" id="gge730_3"/>
  <path class="st4" d="M144.4 105.1v3.1m0-3.1h1.3l.4.2.2.1.1.3v.3l-.1.3-.2.1-.4.2h-1.3m1 0l1 1.6m1-3.1v3.1m0-3.1h1.9m-1.9 1.5h1.2m-1.2 1.6h1.9m3-2.6l-.3-.3-.4-.2h-.6l-.4.2-.3.3v.3l.2.3.1.2.3.1.9.3.3.2.1.1.2.3v.4l-.3.3-.4.2h-.6l-.4-.2-.3-.3m2.9-2.7v3.1m0-3.1h1.9m-1.9 1.5h1.2m-1.2 1.6h1.9m2-3.1v3.1m-1-3.1h2.1" id="gge744_3"/>
  <path class="st4" d="M28.8 148.3v2.2l.2.4.3.3.4.1h.3l.4-.1.3-.3.2-.4v-2.2m3 .4l-.3-.3-.4-.1h-.6l-.4.1-.3.3v.3l.1.3.2.1.3.2.9.3.3.1.2.1.1.3v.4l-.3.3-.4.1h-.6l-.4-.1-.3-.3m2.9-2.5v3.1m0-3.1h1.3l.4.1.2.1.1.3v.3l-.1.3-.2.2-.4.1m-1.3.1h1.3l.4.2.2.1.1.3v.4l-.1.3-.2.2-.4.1h-1.3" id="gge763_3"/>
  <path class="st4" d="M28.4 121.1v2.2l.1.4.3.3.4.1h.3l.4-.1.3-.3.1-.4v-2.2m3.2.4l-.3-.3-.4-.1h-.6l-.4.1-.3.3v.3l.2.3.1.1.3.2.9.3.3.1.1.1.2.3v.4l-.3.3-.4.1h-.6l-.4-.1-.3-.3m2.9-2.5v3.1m0-3.1h1.3l.4.1.2.1.1.3v.3l-.1.3-.2.2-.4.1m-1.3.1h1.3l.4.2.2.1.1.3v.4l-.1.3-.2.2-.4.1h-1.3" id="gge781_3"/>
  <path class="st4" d="M29.3 81.6l.3-.3.1-.4v-.6l-.1-.4-.3-.3H29l-.3.1-.1.2-.2.3-.3.9-.1.3-.1.2h-.8l-.3-.3-.1-.4v-.6l.1-.4.3-.3m2.6 3h-3.1m3.1 0v1.9m-1.4-1.9v1.2m-1.7-1.2v1.9m3.1 1h-3.1m3.1 0v1.3l-.1.4-.1.1-.3.2h-.3l-.3-.2-.2-.1-.1-.4v-1.3m0 1l-1.6 1m3 1l-3.1 1.2m3.1 1.2l-3.1-1.2m3.1 3l-.1-.3-.3-.3-.3-.2-.4-.1h-.7l-.4.1-.3.2-.3.3-.1.3v.6l.1.3.3.3.3.2.4.1h.7l.4-.1.3-.2.3-.3.1-.3v-.6" id="gge787_3"/>
  <path class="st4" d="M43.6 52.2v2.1m0-1.5l.4-.4.3-.1h.4l.3.1.1.4v1.5m1.1-1.3H48v-.3l-.1-.3-.1-.2-.3-.1h-.4l-.3.1-.5.4-.1.4v.3l.1.4.3.3.3.1h.4l.3-.1.3-.3m1.7-1.5l-.3.1-.3.3-.2.4v.3l.2.4.3.3.3.1h.4l.3-.1.3-.3.1-.4v-.7l-.3-.3-.3-.1h-.5m2.2 0v3.1m0-2.7l.3-.3.3-.1h.4l.3.1.3.3.2.4v.3l-.2.4-.3.3-.3.1h-.4l-.3-.1-.3-.3m2.7-2.6h.3l-.1-.1-.2.1m.2 1.1v2.1m1.1-2.1l1.6 2.1m0-2.1l-1.6 2.1m2.6-1.3h1.8v-.3l-.1-.3-.2-.2-.3-.1h-.4l-.3.1-.4.4-.1.4v.3l.1.4.3.3.3.1h.4l.3-.1.3-.3m1-2.6v3.1" id="gge846_3"/>
  <path class="st4" d="M83.9 35.8h.3l-.2-.2-.1.2m.1 1.1V39m3.2-2.7l-.3-.3-.4-.1h-.6l-.4.1-.3.3v.3l.1.3.2.1.3.2.9.3.3.1.2.2.1.3v.4l-.3.3-.4.1H86l-.4-.1-.3-.3m5.1-1.9l-.1-.3-.3-.3-.3-.2h-.6l-.3.1-.3.3-.2.4-.2.4v.7l.2.4.1.3.3.3.3.1h.7l.3-.1.3-.3.1-.3m1-2.3v3.1m0 0h1.8" id="gge864_3"/>
  <path class="st4" d="M66.8 35.8h.3l-.2-.2-.1.2m.1 1v2.1m3.2-2.7l-.3-.3-.4-.1h-.6l-.4.1-.3.3v.3l.1.3.2.1.3.2.9.3.3.1.2.2.1.3v.4l-.3.3-.4.1h-.6l-.4-.1-.3-.3m2.9-2.6v3.1m0-3.1h1l.4.1.3.3.1.3.2.4v.7l-.2.4-.1.3-.3.3-.4.1h-1m4.2-2.9l-1.2 3.1m1.2-3.1l1.2 3.1m-1.9-1.1h1.5" id="gge872_3"/>
  <path class="st4" d="M146.5 78.5v3.1m0 0h1.8m1-3.1v3.1m0-3.1h1.9m-1.9 1.4h1.2m-1.2 1.7h1.9m.9-3.1v3.1m0-3.1h1l.4.2.3.3.2.3.1.4v.7l-.1.4-.2.3-.3.3-.4.2h-1" id="gge878_3"/>
  <path class="st4" d="M65.2 109.9H67v-.3l-.1-.3-.1-.2-.3-.1h-.4l-.3.1-.3.3-.3.5v.3l.1.4.3.3.3.1h.4l.3-.1.3-.3m1-.9h2.7m2.5-.2l-.2-.3-.4-.1h-.4l-.4.1-.1.3.1.3.3.1.7.2.3.1.2.3v.2l-.2.3-.4.1h-.4l-.4-.1-.1-.3m2.9-2.7v2.5l.1.4.3.1h.3m-1.2-2h1m1.9 0l-.3.1-.3.3-.2.4v.3l.2.4.3.3.3.1h.4l.3-.1.3-.3.1-.4v-.3l-.1-.4-.3-.3-.3-.1H77m2.1 0v3.1m0-2.6l.3-.3.3-.1h.4l.3.1.3.3.2.4v.3l-.2.4-.3.3-.3.1h-.4l-.3-.1-.3-.3" id="gge885_3"/>
  <path class="st4" d="M169.3 25.6l-.3.3-.2.4v.6l.2.4.3.3h.3l.3-.1.2-.2.1-.3.3-.9.2-.3.1-.2.3-.1h.4l.3.3.2.4v.6l-.2.4-.3.3m-2.6-2.8h3.1m-3.1 0v-1.3l.2-.4.1-.1.3-.2h.4l.3.2.2.1.1.4v1.3m-1.6-3.1h3.1" id="gge944_3"/>
  <path class="st4" d="M25.2 121.7h-3.1m3.1 0v1.3l-.1.4-.1.2-.3.1h-.4l-.3-.1-.1-.2-.2-.4v-1.3m1.5 3l-.1.2.1.1.2-.1-.2-.2m-1.1.1H22m1.4 1.2v2.6m1.8 1.9l-.1-.3-.3-.3-.3-.1-.4-.2h-.7l-.4.2-.3.1-.3.3-.1.3v.6l.1.3.3.3.3.1.4.2h.7l.4-.2.3-.1.3-.3.1-.3v-.6m0 2.4h-3.1m3.1 0l-3.1 2.1m3.1 0h-3.1" id="gge953_3"/>
  <path class="st4" d="M98.2 21.7h1.6l-.9 1.2h.4l.3.2.2.1.1.4v.3l-.1.4-.3.3-.4.1h-.4l-.4-.1-.2-.2-.1-.3m2.9-2.4l1.2 3.1m1.2-3.1l-1.2 3.1m2.5-3.1h1.6l-.9 1.2h.4l.3.2.2.1.1.4v.3l-.1.4-.3.3-.4.1h-.4l-.4-.1-.2-.2-.1-.3m7.5-2.4v3.1m0-3.1h1.3l.4.1.2.1.1.3v.4l-.1.3-.2.1-.4.2h-1.3m3-1.5l.2.1.1-.1-.1-.2-.2.2m.1 1.1v2.1" id="gge968_3"/>
  <path class="st4" d="M168.8 117.1h3.1m-2.3-1.1h-.2l-.3-.2-.1-.1-.1-.3v-.6l.1-.3.1-.1.3-.2h.3l.3.2.4.3 1.5 1.5v-2.1m-2.3-3.2l-.3.1-.3.3-.1.3v.6l.1.3.3.3.3.1.4.2h.7l.4-.2.3-.1.3-.3.1-.3v-.6l-.1-.3-.3-.3-.3-.1" id="gge977_3"/>
  <path class="st4" d="M170 72.3l-.3.2-.3.3-.1.3v.5l.1.3.3.3.3.2.4.1h.7l.4-.1.3-.2.3-.3.1-.3V73l-.1-.3-.3-.3-.3-.2h-.4m0 .8v-.7m-1.9-1h3.1m-3.1 0V70l.1-.4.1-.2.3-.1h.4l.3.1.3.2.2.4v1.3m-1.2-5.1l-.3.3-.1.4v.7l.1.4.3.3h.3l.3-.2.1-.1.2-.3.3-.9.1-.3.1-.1.3-.2h.4l.3.3.1.4v.7l-.1.4-.3.3" id="gge992_3"/>
  <path class="st4" d="M146.6 125.7l-.2-.3-.3-.3-.3-.1h-.6l-.3.1-.3.3-.2.3-.1.4v.7l.1.4.2.3.3.3.3.1h.6l.3-.1.3-.3.2-.3v-.4m-.8 0h.7m1-1.9v3.1m0-3.1h1.3l.4.1.2.1.1.3v.3l-.1.3-.2.2-.4.1h-1.3m1.1.1l1 1.6m1.9-3.1l-.3.1-.3.3-.1.3-.2.4v.7l.2.4.1.3.3.3.3.1h.6l.3-.1.3-.3.1-.3.1-.4v-.7l-.1-.4-.1-.3-.3-.3-.3-.1h-.6m2.4 0l1.2 3.1m1.2-3.1l-1.2 3.1m2.1-3.1v3.1m0-3.1h1.9m-1.9 1.5h1.2m-1.2 1.6h1.9" id="gge1004_3"/>
  <path class="st4" d="M42.5 36.4v3.1m0-3.1h1.3l.4.1.2.1.1.3v.4l-.1.3-.2.1-.4.2h-1.3m3-1.5l.2.1.1-.1-.1-.2-.2.2m.2 1v2.1m1.1-1.4h2.6m2.6-.2l-.1-.3-.4-.1h-.4l-.6.1-.2.3.2.3.3.1.7.2.3.1.1.3v.2l-.1.3-.4.1H51l-.4-.1-.2-.3m2.6-.8h1.8V38l-.2-.3-.1-.1-.3-.1h-.5l-.3.1-.3.3-.1.4v.3l.2.4.3.3.3.1h.4l.3-.1.3-.3m.9-1.6v2.1m0-1.2l.1-.4.3-.3.3-.1h.4m1.1-1.1h.2l-.1-.2-.1.2m.1 1v2.1m2.9-2.1v2.1m0-1.6l-.3-.3-.3-.1h-.4l-.3.1-.3.3-.2.4v.3l.2.4.3.3.3.1h.4l.3-.1.3-.3m1-2.6v3.1" id="gge1012_3"/>
  <path class="st4" d="M38.4 17.3v2.5l.2.4.3.1h.3m-1.2-2h1m1.1 0l1.6 2.1m.1-2.1l-1.6 2.1" id="gge1029_3"/>
  <path class="st4" d="M48.1 18.3v2.1m0-1.2l.1-.4.3-.3.3-.1h.4m1-.1l1.6 2.1m0-2.1l-1.6 2.1" id="gge1036_3"/>
  <path class="st4" d="M113.9 89.3h-1.5l-.2 1.3.2-.2.4-.1h.4l.4.1.3.3.1.4v.3l-.1.4-.3.3-.4.1h-.4l-.4-.1-.2-.2-.1-.3m3.1-2.3l1.2 3.1m1.1-3.1l-1.2 3.1m2.2-1.3h2.6m1-1.8v2.2l.1.4.3.3.4.1h.3l.4-.1.3-.3.1-.4v-2.2m3.2.5l-.3-.3-.4-.1h-.6l-.4.1-.3.3v.3l.2.3.1.1.3.2.9.3.3.1.1.1.2.3v.4l-.3.3-.4.1h-.6l-.4-.1-.3-.3m2.9-2.6v3.1m0-3.1h1.3l.4.1.1.1.2.3v.3l-.2.3-.1.2-.4.1m-1.3.1h1.3l.4.2.1.1.2.3v.4l-.2.3-.1.2-.4.1h-1.3" id="gge1042_3"/>
  <path class="st4" d="M52.6 60.4v3.1m0-.1h1.8m2.7-3h-1.5l-.1 1.3.1-.1.4-.2h.4l.4.2.3.3.2.4v.3l-.2.4-.3.3-.4.2H56l-.4-.2-.1-.1-.2-.3" id="gge1056_3"/>
  <path class="st4" d="M48.9 114.3h-3.1m3.1 0v1.3l-.1.4-.1.2-.3.1h-.3l-.3-.1-.2-.2-.1-.4v-1.3m0 1l-1.6 1m2.3 1.2h.2l.3.1.1.2.1.3v.6l-.1.3-.1.2-.3.1h-.3l-.3-.1-.4-.3-1.5-1.5v2.1m3 1.7l-.1-.4-.4-.3-.7-.1h-.4l-.7.1-.4.3-.1.4v.3l.1.4.4.3.7.2h.4l.7-.2.4-.3.1-.4v-.3" id="gge1076_3"/>
  <path class="st4" d="M147.7 24.5h-3m3 0l-3 1.1m3 1.2l-3-1.2m3 1.2h-3m3 1.9l-.1-.3-.3-.3-.3-.1-.4-.2h-.7l-.4.2-.3.1-.3.3-.1.3v.6l.1.3.3.3.3.1.4.2h.7l.4-.2.3-.1.3-.3.1-.3v-.6m-.4 4.5l.3-.3.1-.4v-.6l-.1-.4-.3-.3h-.3l-.3.1-.1.1-.2.3-.3.9-.1.3-.1.1-.3.2h-.4l-.3-.3-.1-.4v-.6l.1-.4.3-.3m2.5 3h-3" id="gge1168_3"/>
  <path class="st4" d="M158 36.4l.3-.3.1-.4v-.6l-.1-.4-.3-.3h-.3l-.3.1-.1.2-.2.3-.3.9-.1.3-.1.2-.3.1h-.4l-.3-.3-.1-.4v-.6l.1-.4.3-.3m2.1 5l.3-.3.1-.4v-.6l-.1-.4-.3-.3h-.3l-.3.2-.1.1-.2.3-.3.9-.1.3-.1.1-.3.2h-.4l-.3-.3-.1-.4v-.6l.1-.4.3-.3m1.9 2.8l.1.3.4.4h-3.1" id="gge1188_3"/>
  <path class="st4" d="M158.6 21.2h-3.1m3.1 0l-3.1 1.2m3.1 1.2l-3.1-1.2m3.1 1.2h-3.1m3.1 1h-3.1m2.7 3l.3-.3.1-.4v-.6l-.1-.4-.3-.3h-.3l-.3.2-.1.1-.2.3-.3.9-.1.3-.1.1-.3.1h-.4l-.3-.3-.1-.4v-.6l.1-.4.3-.3m2.5 3.8l-.1-.3-.3-.3-.3-.1-.4-.2h-.8l-.4.2-.3.1-.3.3-.1.3v.6l.1.3.3.3.3.1.4.2h.7l.4-.2.3-.1.3-.3.1-.3.1-.6" id="gge1208_3"/>
  <path class="st4" d="M136.4 23.5l.3-.3.1-.4v-.6l-.1-.4-.3-.3h-.3l-.3.1-.1.2-.2.3-.3.9-.1.3-.1.2-.3.1h-.4l-.3-.3-.1-.4v-.6l.1-.4.3-.3m1.8 5l.3-.1.3-.3.1-.3v-.6l-.1-.3-.3-.3-.3-.1-.4-.2h-.7l-.4.2-.3.1-.3.3-.1.3v.6l.1.3.3.3.3.1m2.2 1h-3.1m0 0v1.8m3.1 1h-3.1m3.1 2l-2.1-2.1m.8.8l-1.8 1.3" id="gge1228_3"/>
  <path class="st4" d="M83.9 48.6h1.8v-.3l-.1-.3-.1-.2-.3-.1h-.4l-.3.1-.3.3-.3.5v.3l.1.4.3.3.3.1h.4l.3-.1.3-.3m3.1-2.2l-.3-.3-.5-.2h-.6l-.4.1-.3.3v.3l.2.3.1.1.3.2.9.3.3.1.1.2.2.3v.4l-.3.4-.4.1h-.6l-.5-.1-.3-.3m5.3-1.9l-.2-.3-.3-.3-.3-.2h-.6l-.3.1-.3.3-.2.3v1.3l.1.4.2.3.3.3.3.1h.6l.3-.1.3-.3.2-.3m.8-2.4v3.1m0 0h1.8" id="gge1232_3"/>
  <path class="st4" d="M67.1 48.4h1.8v-.3l-.1-.3-.1-.2-.3-.1H68l-.3.1-.3.3-.3.5v.3l.1.4.3.3.3.1h.4l.3-.1.3-.3m3.1-2.2l-.3-.3-.4-.1h-.6l-.4.1-.3.3v.3l.2.3.1.1.3.2.9.3.3.1.1.1.2.3v.4l-.3.3-.5.3h-.6l-.4-.1-.3-.3m3-2.7v3.1m0-3.1h1l.4.1.3.3.2.3.1.4v.7l-.1.4-.1.4-.3.3-.5.2h-1m4.2-3.1l-1.2 3.1m1.2-3.1l1.2 3.1m-1.9-1h1.5" id="gge1252_3"/>
  <path id="gge596_3" class="st5" d="M118.3 159.3h-12.7"/>
  <path id="gge597_3" class="st5" d="M100.6 149.4v-11.3h2.4v7.1h4"/>
  <path id="gge598_3" class="st5" d="M116.9 145.2h4v-7.1h2.4v11.3"/>
  <path id="gge629_3" class="st6" d="M91.8 88.9h5.7v5h-5.7v-5"/>
  <path id="gge635_3" class="st6" d="M41 93.9h5.8V99H41v-5.1"/>
  <path id="gge641_3" class="st6" d="M52.6 93.9h5.7V99h-5.7v-5.1"/>
  <path id="gge648_3" class="st6" d="M62.7 26.3h-5.8v-5.1h5.8v5.1"/>
  <path id="gge652_3" class="st5" d="M3.6 20.9l-1.8 1.8v3.6l1.8 1.8-1.8 1.8v3.6l1.8 1.8-1.8 1.8v3.6l1.8 1.8-1.8 1.8v3.6l1.8 1.8h18l1.8-1.8v-3.6l-1.8-1.8 1.8-1.8v-3.6l-1.8-1.8 1.8-1.8v-3.6l-1.8-1.8 1.8-1.8v-3.6l-1.8-1.8"/>
  <path id="gge653_3" class="st5" d="M3.6 42.5h18"/>
  <path id="gge654_3" class="st5" d="M3.6 35.3h18"/>
  <path id="gge655_3" class="st5" d="M3.6 28.1h18"/>
  <path id="gge656_3" class="st5" d="M3.6 20.9h18"/>
  <path id="gge692_3" class="st6" d="M49.9 133.5v26"/>
  <path id="gge693_3" class="st6" d="M49.9 133.5h23.7"/>
  <path id="gge694_3" class="st6" d="M49.9 159.5h23.7"/>
  <path id="gge695_3" class="st6" d="M73.6 133.5v26"/>
  <path id="gge701_3" class="st6" d="M74 133.5v26"/>
  <path id="gge702_3" class="st6" d="M74 133.5h23.7"/>
  <path id="gge703_3" class="st6" d="M74 159.5h23.7"/>
  <path id="gge704_3" class="st6" d="M97.7 133.5v26"/>
  <path id="gge712_3" class="st6" d="M113 121.3h-4.4v5.8h4.4"/>
  <path id="gge713_3" class="st6" d="M115.2 121.2h4.2l1.1 1.2v3.6l-1.1 1.1h-4.3"/>
  <path id="gge714_3" class="st6" d="M113.6 122.8v2.8l1.4-1.4-1.4-1.4"/>
  <path id="gge715_3" class="st6" d="M119.8 121.9v4.5"/>
  <path id="gge731_3" class="st6" d="M.5 133.5h2.8"/>
  <path id="gge732_3" class="st6" d="M.5 125v8.5"/>
  <path id="gge733_3" class="st6" d="M3.3 125H.5"/>
  <path id="gge734_3" class="st6" d="M3.3 140v-21.5"/>
  <path id="gge735_3" class="st6" d="M3.3 140h7.1"/>
  <path id="gge736_3" class="st6" d="M10.4 118.5H3.3"/>
  <path id="gge737_3" class="st6" d="M10.4 118.5V140"/>
  <path id="gge745_3" class="st6" d="M154.4 113v4.3h-7.2V113h7.2"/>
  <path id="gge746_3" class="st6" d="M142.3 120.4v-10.5"/>
  <path id="gge747_3" class="st6" d="M142.3 109.9h17"/>
  <path id="gge748_3" class="st6" d="M159.3 120.4h-17"/>
  <path id="gge749_3" class="st6" d="M159.3 109.9v10.5"/>
  <path id="gge764_3" class="st6" d="M44.1 143v16.3"/>
  <path id="gge765_3" class="st6" d="M44.1 143H21.4"/>
  <path id="gge766_3" class="st6" d="M21.4 143v16.3"/>
  <path id="gge767_3" class="st6" d="M44.1 159.3H21.4"/>
  <path id="gge768_3" class="st6" d="M42.4 157.3H23.2"/>
  <path id="gge769_3" class="st6" d="M44 159.3v-.3l-1.6-1.7"/>
  <path id="gge770_3" class="st6" d="M21.5 159.3v-.3l1.7-1.7"/>
  <path id="gge782_3" class="st6" d="M34 131h4.4v-5.7H34"/>
  <path id="gge783_3" class="st6" d="M31.8 131.1h-4.2l-1.1-1.2v-3.6l1-1h4.4"/>
  <path id="gge784_3" class="st6" d="M33.4 129.6v-2.9l-1.4 1.4 1.4 1.5"/>
  <path id="gge785_3" class="st6" d="M27.1 130.4v-4.5"/>
  <path id="gge789_3" class="st5" d="M3.6 107.3l-1.8 1.8v3.6l1.8 1.8h18l1.8-1.8v-3.6l-1.8-1.8h-18l-1.8-1.8v-3.6l1.8-1.8h18l1.8-1.8v-3.6l-1.8-1.8 1.8-1.8v-3.6l-1.8-1.8 1.8-1.8v-3.6l-1.8-1.8 1.8-1.8v-3.6l-1.8-1.8 1.8-1.8v-3.6l-1.8-1.8 1.8-1.8v-3.6l-1.8-1.8h-18l-1.8 1.8v3.6l1.8 1.8-1.8 1.8v3.6l1.8 1.8-1.8 1.8v3.6l1.8 1.8-1.8 1.8v3.6l1.8 1.8-1.8 1.8v3.6l1.8 1.8-1.8 1.8v3.6l1.8 1.8"/>
  <path id="gge790_3" class="st5" d="M21.6 64.1h-18"/>
  <path id="gge791_3" class="st5" d="M21.6 71.3h-18"/>
  <path id="gge792_3" class="st5" d="M21.6 78.5h-18"/>
  <path id="gge793_3" class="st5" d="M21.6 85.7h-18"/>
  <path id="gge794_3" class="st5" d="M21.6 92.9h-18"/>
  <path id="gge795_3" class="st5" d="M21.6 100.1l1.8 1.8v3.6l-1.8 1.8"/>
  <path id="gge847_3" class="st6" d="M63 44.6l-1.8-1.8h-3.6l-1.8 1.8"/>
  <path id="gge848_3" class="st6" d="M63 48.2L61.2 50h-3.6l-1.8-1.8"/>
  <path id="gge849_3" class="st6" d="M55.8 44.6L54 42.8h-3.6l-1.8 1.8"/>
  <path id="gge850_3" class="st6" d="M55.8 48.2L54 50h-3.6l-1.8-1.8"/>
  <path id="gge851_3" class="st6" d="M63 44.6v3.6"/>
  <path id="gge852_3" class="st6" d="M48.6 44.6l-1.8-1.8h-3.6l-1.8 1.8"/>
  <path id="gge853_3" class="st6" d="M48.6 48.2L46.8 50h-3.6l-1.8-1.8"/>
  <path id="gge854_3" class="st6" d="M41.4 44.6v3.6"/>
  <path id="gge865_3" class="st6" d="M91.7 35h-7.8v-5.2h7.8V35"/>
  <path id="gge873_3" class="st6" d="M74.8 35H67v-5.2h7.8V35"/>
  <path id="gge879_3" class="st6" d="M151.7 88.9h4.4v-5.8h-4.4"/>
  <path id="gge880_3" class="st6" d="M149.5 89h-4.2l-1.1-1.2v-3.6l1.1-1.1h4.3"/>
  <path id="gge881_3" class="st6" d="M151.1 87.4v-2.8l-1.4 1.4 1.4 1.4"/>
  <path id="gge882_3" class="st6" d="M144.9 88.3v-4.5"/>
  <path id="gge886_3" class="st6" d="M80.3 101.9v3.6"/>
  <path id="gge887_3" class="st6" d="M73.1 105.5l-1.8 1.8h-3.6l-1.8-1.8"/>
  <path id="gge888_3" class="st6" d="M65.9 101.9v3.6"/>
  <path id="gge889_3" class="st6" d="M80.3 101.9l-1.8-1.8h-3.6l-1.8 1.8"/>
  <path id="gge890_3" class="st6" d="M80.3 105.5l-1.8 1.8h-3.6l-1.8-1.8"/>
  <path id="gge891_3" class="st6" d="M73.1 101.9l-1.8-1.8h-3.6l-1.8 1.8"/>
  <path id="gge899_3" class="st6" d="M68.8 119.9l1.1 2.8"/>
  <path id="gge900_3" class="st6" d="M69.9 122.7h-2.3"/>
  <path id="gge901_3" class="st6" d="M67.6 122.7l1.2-2.8"/>
  <path id="gge902_3" class="st6" d="M66.5 125.1v-7.6"/>
  <path id="gge903_3" class="st6" d="M66.5 117.5h4.6"/>
  <path id="gge904_3" class="st6" d="M71.1 117.5v7.6"/>
  <path id="gge905_3" class="st6" d="M71.1 125.1h-4.6"/>
  <path id="gge906_3" class="st6" d="M67.3 119.5h2.9"/>
  <path id="gge912_3" class="st6" d="M60.8 119.9l1.2 2.8"/>
  <path id="gge913_3" class="st6" d="M62 122.7h-2.3"/>
  <path id="gge914_3" class="st6" d="M59.7 122.7l1.1-2.8"/>
  <path id="gge915_3" class="st6" d="M58.5 125.1v-7.6"/>
  <path id="gge916_3" class="st6" d="M58.5 117.5h4.6"/>
  <path id="gge917_3" class="st6" d="M63.1 117.5v7.6"/>
  <path id="gge918_3" class="st6" d="M63.1 125.1h-4.6"/>
  <path id="gge919_3" class="st6" d="M59.4 119.5h2.9"/>
  <path id="gge925_3" class="st6" d="M76.7 119.9l1.1 2.8"/>
  <path id="gge926_3" class="st6" d="M77.8 122.7h-2.3"/>
  <path id="gge927_3" class="st6" d="M75.5 122.7l1.2-2.8"/>
  <path id="gge928_3" class="st6" d="M74.4 125.1v-7.6"/>
  <path id="gge929_3" class="st6" d="M74.4 117.5H79"/>
  <path id="gge930_3" class="st6" d="M79 117.5v7.6"/>
  <path id="gge931_3" class="st6" d="M79 125.1h-4.6"/>
  <path id="gge932_3" class="st6" d="M75.2 119.5h2.9"/>
  <path id="gge945_3" class="st6" d="M184.9 26.5v29.8"/>
  <path id="gge946_3" class="st6" d="M184.9 56.3h-10.4"/>
  <path id="gge947_3" class="st6" d="M184.9 26.5h-10.4"/>
  <path id="gge948_3" class="st6" d="M174.5 26.5v29.8"/>
  <path id="gge954_3" class="st6" d="M20.5 127.6v-4.4h-5.7v4.4"/>
  <path id="gge955_3" class="st6" d="M20.6 129.8v4.2l-1.2 1.2h-3.6l-1-1.1v-4.3"/>
  <path id="gge956_3" class="st6" d="M19.1 128.2h-2.9l1.4 1.5 1.5-1.5"/>
  <path id="gge957_3" class="st6" d="M19.9 134.5h-4.5"/>
  <path id="gge964_3" class="st6" d="M100.8 75.3V81h-5v-5.7h5"/>
  <path id="gge978_3" class="st6" d="M184.8 116.1v19"/>
  <path id="gge979_3" class="st6" d="M184.8 135.2h-10.5"/>
  <path id="gge980_3" class="st6" d="M174.3 116.2v18.9"/>
  <path id="gge981_3" class="st6" d="M184.8 116.1h-10.5"/>
  <path id="gge993_3" class="st6" d="M184.9 72.9v26.2"/>
  <path id="gge994_3" class="st6" d="M184.9 99.1h-10.4"/>
  <path id="gge995_3" class="st6" d="M184.9 72.9h-10.4"/>
  <path id="gge996_3" class="st6" d="M174.5 72.9v26.2"/>
  <path id="gge1006_3" class="st6" d="M133.9 150.2v-15.5h3.1v4.3h28.4v-4.3h3.1v4.3h-3.1"/>
  <path id="gge1007_3" class="st6" d="M137 139h-3.1"/>
  <path id="gge1008_3" class="st6" d="M168.5 160.8h-7.7V158h-19.2v2.8h-7.7"/>
  <path id="gge1009_3" class="st6" d="M168.5 139v11.2"/>
  <path id="gge1013_3" class="st6" d="M63 30.2l-1.8-1.8h-3.6l-1.8 1.8"/>
  <path id="gge1014_3" class="st6" d="M63 33.8l-1.8 1.8h-3.6l-1.8-1.8"/>
  <path id="gge1015_3" class="st6" d="M55.8 30.2L54 28.4h-3.6l-1.8 1.8"/>
  <path id="gge1016_3" class="st6" d="M55.8 33.8L54 35.6h-3.6l-1.8-1.8"/>
  <path id="gge1017_3" class="st6" d="M63 30.2v3.6"/>
  <path id="gge1018_3" class="st6" d="M48.6 30.2l-1.8-1.8h-3.6l-1.8 1.8"/>
  <path id="gge1019_3" class="st6" d="M48.6 33.8l-1.8 1.8h-3.6l-1.8-1.8"/>
  <path id="gge1020_3" class="st6" d="M41.4 30.2v3.6"/>
  <path id="gge1030_3" class="st6" d="M46.8 21.2h5.7v5.1h-5.7v-5.1"/>
  <path id="gge1037_3" class="st6" d="M37 21.2h5.8v5.1H37v-5.1"/>
  <path id="gge1043_3" class="st6" d="M124.4 93.6v5.8h-5.1v-5.8h5.1"/>
  <path id="gge1049_3" class="st6" d="M105.8 100.7H86.5"/>
  <path id="gge1050_3" class="st6" d="M105.8 100.7v21"/>
  <path id="gge1051_3" class="st6" d="M86.5 121.7h19.3"/>
  <path id="gge1052_3" class="st6" d="M86.5 121.7v-21"/>
  <path id="gge1058_3" class="st6" d="M39.7 59.1h32.9v28.6H39.7V59.1"/>
  <path id="gge1065_3" class="st6" d="M98.6 70.5v-5.7h5.1v5.7h-5.1"/>
  <path id="gge1072_3" class="st6" d="M83.9 70.6v-5.8h5v5.8h-5"/>
  <path id="gge1078_3" class="st7" d="M42.8 113h8.7"/>
  <path id="gge1079_3" class="st7" d="M42.8 125.3h8.7"/>
  <path id="gge1080_3" class="st7" d="M42.8 128.1v-18"/>
  <path id="gge1081_3" class="st7" d="M42.8 110.1h8.7"/>
  <path id="gge1082_3" class="st7" d="M51.5 110.1v18"/>
  <path id="gge1083_3" class="st7" d="M51.5 128.1h-8.7"/>
  <path id="gge1169_3" class="st6" d="M153.8 24.5v7.9h-5.2v-7.9h5.2"/>
  <path id="gge1189_3" class="st6" d="M164.4 33.3v7.9h-5.2v-7.9h5.2"/>
  <path id="gge1209_3" class="st6" d="M164.6 21.3v7.8h-5.2v-7.8h5.2"/>
  <path id="gge1229_3" class="st6" d="M142.8 21.3v7.8h-5.2v-7.8h5.2"/>
  <path id="gge1248_3" class="st6" d="M83.9 40.6h7.9v5.2h-7.9v-5.2"/>
  <path id="gge1268_3" class="st6" d="M67 40.4h7.9v5.2H67v-5.2"/>
  <path id="gge271" class="st1" d="M125.8 31.8c-1.4.4-2.3 1.9-1.9 3.2s1.5 2 2.8 1.9c1.3-.1 2.2-1 2.3-2.3.2-1.8-1.4-3.3-3.2-2.8m-8.1 3.9c-1.7.6-2.5 1.9-2.5 3.9 0 1.6.8 3.6 2 4.9.3.4.6.7.6.7l-.6.6c-.9.8-2.1 2.5-2.6 3.5-1.4 2.9-.9 5.8 1.2 6.7.6.2 2.1.2 3 0 1-.3 3.1-1.4 4.6-2.4 3-2 3.5-2 6.4-.1 3.8 2.5 6.3 3.2 8 2.3 1.3-.7 2-2.3 1.7-4.1-.4-2-1.3-3.7-3-5.5l-1.1-1.1.3-.3c.5-.4 1.2-1.4 1.6-2.3 1.4-2.9.9-5.7-1.3-6.8-.5-.2-.8-.3-2-.3-1.7 0-2.3.2-3.8 1.3-1.6 1.2-2.2 1.5-3.5 1.5-1.4 0-2.1-.3-3.5-1.4-.9-.6-1.5-1-2.1-1.2-1.1-.2-2.6-.2-3.4.1m3.8 4.4c.8.5.9.6.4 1.5-.2.4-.6 1-1 1.4l-.6.6-.4-.4c-.6-.5-.9-1.3-1-2.1 0-1.3 1.1-1.8 2.6-1m12-.2c.6.2.7.6.7 1.3 0 .6-.5 1.7-1 2.2l-.3.3-.4-.4c-.5-.4-1.2-1.5-1.5-2.2-.1-.4-.1-.4.4-.8.4-.3 1.1-.6 1.5-.6.1 0 .3.1.6.2m-4.9 5.2c.8.2 2.1.7 2.1.8s-.4.3-.9.6c-2.5 1.4-4.2 1.3-6.4-.1-.8-.5-.8-.6-.6-.7.3-.2 1.4-.5 2.4-.7.8-.2 2.5-.1 3.4.1m-7.2 3.4c.9 1.1.9 1.8-.3 2.8-1.1.9-2.1 1.3-2.8 1-.5-.2-.8-.7-.8-1.3 0-.5 1.1-2.1 1.9-3l.6-.6.4.3c.3.1.7.5 1 .8m12.4-.4c.7.8 1.7 2.3 1.9 2.7 0 .2 0 .5-.1.8-.3.7-1 1-1.9.8-1.2-.3-2.9-1.7-2.9-2.3 0-.5.4-1 1.3-1.9.5-.5.9-.8 1-.8s.3.3.7.7m-24.1 13.2v2.6h.4c.4 0 .4 0 .4-.9 0-.8.1-.9.3-1 .2 0 .4.2.9.9.6.9.6 1 1.2 1h.6l-.6-.9c-.5-.7-.6-.9-.4-1 .4-.1.9-.8 1-1.3.1-.7-.3-1.4-.9-1.7-.3-.2-.8-.2-1.7-.2h-1.2v2.5m6.2-2.4c-1.1.3-1.8 1.2-1.8 2.5 0 1.5 1 2.5 2.5 2.5.9 0 1.4-.3 2-1 .3-.5.4-.6.4-1.5s0-1-.4-1.5c-.7-1-1.7-1.3-2.7-1m3.7 2.4v2.6h1.4c1.4 0 1.4 0 1.8-.4.3-.3.4-.5.4-1 0-.3-.1-.7-.2-.9-.2-.2-.2-.4-.1-.6.4-.8 0-1.7-.7-2-.3-.1-.9-.2-1.5-.2h-1.1v2.5m5.8-2.4c-1.3.5-2 1.7-1.7 3 .3 1.2 1.2 1.9 2.5 1.9.7 0 .9-.1 1.4-.4 1-.7 1.4-2 .8-3.2-.5-1.1-1.9-1.7-3-1.3m3.6-.1c-.1.1-.1.3-.1.5 0 .4 0 .4.7.4h.7v4.2h1v-4.2h1.6v-.8H131c-1-.2-1.9-.2-2-.1m4.5 2.5v2.6h.8v-5.2h-.8v2.6m3.2-2.4c-1.8.7-2.3 2.8-1 4.2.2.2.5.4.7.5.7.4 2.5.2 2.5-.3 0-.1-.1-.3-.2-.4-.2-.2-.2-.2-.7-.1-.7.2-1.2.1-1.7-.5-1.1-1.3.2-3.2 1.8-2.6.4.1.4.1.6-.1.3-.4.2-.6-.1-.7-.6-.2-1.3-.2-1.9 0m3.9-.1c-.7.3-1.2 1.2-.9 2 .2.7.8 1 1.8 1 .6 0 .9.1 1 .2.5.5.1 1-.9 1-.6 0-.8 0-1-.3-.2-.2-.3-.3-.7-.3-.5 0-.5 0-.3.6.3.7.7.9 1.9.9 1.3 0 1.6-.1 1.8-.7.3-.5.3-1 0-1.5s-.6-.7-1.6-.7c-.7 0-.9-.1-1.2-.3-.3-.3-.3-.6 0-.9.5-.4 1.9-.2 1.9.3 0 .1.2.1.5.1.5 0 .6-.1.2-.8-.1-.3-.4-.5-.7-.7-.2 0-1.4 0-1.8.1m-28.2 1.1c.6.6.1 1.2-1.1 1.2h-.8v-1.4h.8c.6 0 .8 0 1.1.2m4.9 0c1.1.7 1.1 2.4-.1 3s-2.5-.6-2.2-1.8c.3-1.2 1.4-1.8 2.3-1.2m4.8.2c.2.5-.3.9-1.1.9h-.6v-1.2h.8c.7-.1.8-.1.9.3m5.2.1c.4.4.4.6.4 1.1s-.1.7-.4 1.1c-.9.9-2.2.7-2.7-.5-.2-.5-.2-.6 0-1.1.5-1.2 1.8-1.5 2.7-.6m-5.1 1.8c.1.1.2.3.2.4 0 .5-.3.6-1.1.6h-.8v-1.2h.8c.4 0 .8.1.9.2m-8.4 4.4s-.1 1-.1 2v1.9h.8v-1.2c0-.7.1-1.2.1-1.2s.3.2.6.5.5.5.6.5.4-.3.7-.6l.6-.6V69c0 1.3 0 1.3.3 1.3h.3v-2c0-1.5 0-2-.2-2-.1 0-.5.4-1 .8l-.8.8-.8-.8c-.7-.8-.9-.9-1.1-.7m6.2 0c-.1.1-.4 1-.9 2l-.8 1.9h.4c.4 0 .5-.1.6-.4.1-.4.2-.4.9-.4s.8 0 .9.4c.1.3.2.4.5.4.2 0 .4 0 .4-.1s-.4-1-.8-2c-.7-1.7-1-2.2-1.2-1.8m2.9 0c-.7.4-.8 1.4-.3 1.9.3.3.5.3 1.2.3.6 0 .8 0 .9.2.2.4-.2.7-.8.7-.5 0-.7 0-.8-.2s-.3-.3-.5-.3c-.4 0-.4.5 0 .9.3.3.5.3 1.2.3.8 0 .9 0 1.3-.4s.5-.8.2-1.4c-.2-.5-.4-.5-1.3-.5-.8 0-1.2-.2-1-.7.1-.2.2-.3.8-.3.5 0 .7.1.7.2s.2.2.5.2.4 0 .3-.2c0-.1-.1-.3-.1-.3 0-.1-.2-.2-.4-.4-.4-.2-1.4-.2-1.9 0m3 .3c0 .4 0 .4.6.4h.6v3.2h.6v-3.2h.6c.6 0 .6 0 .6-.4v-.4h-3v.4m3.8-.3c-.1.1-.1 1-.1 2v1.9h2.6V70c0-.3 0-.3-.9-.3h-.9v-1.1h.8c.7 0 .8-.1.8-.4 0-.4 0-.4-.8-.4s-.8 0-.8-.3 0-.3.9-.4c.9 0 .9-.1.9-.4s0-.3-1.2-.4c-.6 0-1.2 0-1.3.1m3.2 1.9v2h.3c.3 0 .3 0 .3-.7 0-.6 0-.7.3-.7.2 0 .4.3.7.7.4.6.6.7.9.7.2 0 .4 0 .4-.1s-.2-.4-.4-.7l-.4-.6.4-.4c.3-.3.4-.5.4-1s-.1-.7-.3-.9c-.3-.3-.5-.3-1.5-.4h-1.1v2.1m4-1.8c-.7.4-.9 1.3-.3 1.8.3.3.5.4 1.1.4.5 0 .8.1.9.2.3.4 0 .7-.7.7-.5 0-.7 0-.8-.2-.2-.3-.9-.4-.9-.1 0 .1.2.4.4.6.4.4.5.4 1.3.4 1.1 0 1.6-.3 1.6-1.2 0-.8-.4-1.1-1.4-1.1-.8 0-1.1-.2-1-.6.1-.3 1.4-.4 1.5-.1s.7.3.7 0c0-.4-.2-.6-.5-.8-.5-.3-1.4-.3-1.9 0m-1.9.7c.4.4 0 .9-.9.9h-.6v-1h.6c.4 0 .8 0 .9.1m-14.5 1.3c.1.3.1.4-.3.4s-.5-.2-.2-.7c.2-.4.4-.3.5.3"/>
  <path id="GND_LIPO" d="M116.3 146.8h-2.8v-13.1h2.8z"/>
  <path id="LIPO+" class="st8" d="M110.6 146.8h-2.8v-13.1h2.8z"/>
  <path class="st9" d="M37.1 140.7v5.6h-1.2v-5.6zm-1.8 0v5.6H34v-5.6zm-1.8 0v5.6h-1.3v-5.6zm-1.9 0v5.6h-1.3v-5.6zm-1.8 0v5.6h-1.3v-5.6z"/>
  <path id="GROVE1" class="st9" d="M161.2 130.5v7.7h-2.8v-7.7z"/>
  <path id="GROVE0" class="st9" d="M155.5 130.5v7.7h-2.8v-7.7z"/>
  <path id="5V_GROVE" class="st8" d="M149.9 130.5v7.7h-2.8v-7.7z"/>
  <path id="GND_GROVE" d="M144.2 130.5v7.7h-2.8v-7.7z"/>
  <path id="MOSI" class="st9" d="M174.6 40.4v2h-5.7v-2z"/>
  <path id="MISO" class="st9" d="M174.6 44v2h-5.7v-2z"/>
  <path id="GND_SPI" d="M174.6 29.7v2h-5.7v-2z"/>
  <path id="NC" class="st9" d="M174.6 33.2v2h-5.7v-2z"/>
  <path id="A5" class="st9" d="M174.6 36.9v2h-5.7v-2z"/>
  <path id="SCK" class="st9" d="M174.6 47.5v2h-5.7v-2z"/>
  <path id="5V_SPI" class="st8" d="M174.6 51.1v2h-5.7v-2z"/>
  <path id="5V_I2C" class="st8" d="M174.6 130v2h-5.7v-2z"/>
  <path id="GND_I2C" d="M174.6 119.3v1.9h-5.7v-1.9z"/>
  <path id="SDA" class="st9" d="M174.6 122.8v2h-5.7v-2z"/>
  <path id="SCL" class="st9" d="M174.6 126.4v2h-5.7v-2z"/>
  <path id="GPS_RX" class="st9" d="M174.6 86.9v1.9h-5.7v-1.9z"/>
  <path id="GPS_TX" class="st9" d="M174.6 90.4v2h-5.7v-2z"/>
  <path id="GND_GPS" d="M174.6 76.1v2h-5.7v-2z"/>
  <path id="GPS_SDA" class="st9" d="M174.6 79.7v1.9h-5.7v-1.9z"/>
  <path id="GPS_SCL" class="st9" d="M174.6 83.3v2h-5.7v-2z"/>
  <path id="5V_GPS" class="st8" d="M174.6 93.9v2h-5.7v-2z"/>
  <circle id="GND_RCC4" class="st10" cx="5.5" cy="46.1" r="2.5"/>
  <circle id="5V_RCC4" class="st11" cx="12.7" cy="46.1" r="2.5"/>
  <circle id="A3" class="st12" cx="19.9" cy="46.1" r="2.5"/>
  <circle id="GND_RCC3" class="st10" cx="5.5" cy="38.9" r="2.5"/>
  <circle id="5V_RCC3" class="st11" cx="12.7" cy="38.9" r="2.5"/>
  <circle id="A2" class="st12" cx="19.9" cy="38.9" r="2.5"/>
  <circle id="GND_RCC2" class="st10" cx="5.5" cy="31.7" r="2.5"/>
  <circle id="5V_RCC2" class="st11" cx="12.7" cy="31.7" r="2.5"/>
  <circle id="A1" class="st12" cx="19.9" cy="31.7" r="2.5"/>
  <circle id="GND_RCC1" class="st10" cx="5.5" cy="24.5" r="2.5"/>
  <circle id="5V_RCC1" class="st11" cx="12.7" cy="24.5" r="2.5"/>
  <circle id="A0" class="st12" cx="19.9" cy="24.5" r="2.5"/>
  <circle id="GND_S1" class="st10" cx="5.5" cy="60.5" r="2.5"/>
  <circle id="5V_S1" class="st11" cx="12.7" cy="60.5" r="2.5"/>
  <circle id="D0" class="st12" cx="19.9" cy="60.5" r="2.5"/>
  <circle id="GND_S2" class="st10" cx="5.5" cy="67.7" r="2.5"/>
  <circle id="5V_S2" class="st11" cx="12.7" cy="67.7" r="2.5"/>
  <circle id="D1" class="st12" cx="19.9" cy="67.7" r="2.5"/>
  <circle id="GND_S3" class="st10" cx="5.5" cy="74.9" r="2.5"/>
  <circle id="5V_S3" class="st11" cx="12.7" cy="74.9" r="2.5"/>
  <circle id="D2" class="st12" cx="19.9" cy="74.9" r="2.5"/>
  <circle id="GND_S4" class="st10" cx="5.5" cy="82.1" r="2.5"/>
  <circle id="5V_S4" class="st11" cx="12.7" cy="82.1" r="2.5"/>
  <circle id="D3" class="st12" cx="19.9" cy="82.1" r="2.5"/>
  <circle id="GND_S5" class="st10" cx="5.5" cy="89.3" r="2.5"/>
  <circle id="5V_S5" class="st11" cx="12.7" cy="89.3" r="2.5"/>
  <circle id="D4" class="st12" cx="19.9" cy="89.3" r="2.5"/>
  <circle id="GND_S6" class="st10" cx="5.5" cy="96.5" r="2.5"/>
  <circle id="5V_S6" class="st11" cx="12.7" cy="96.5" r="2.5"/>
  <circle id="D5" class="st12" cx="19.9" cy="96.5" r="2.5"/>
  <circle id="GND_S7" class="st10" cx="5.5" cy="103.7" r="2.5"/>
  <circle id="5V_S7" class="st11" cx="12.7" cy="103.7" r="2.5"/>
  <circle id="D6" class="st12" cx="19.9" cy="103.7" r="2.5"/>
  <circle id="GND_S8" class="st10" cx="5.5" cy="110.9" r="2.5"/>
  <circle id="5V_S8" class="st11" cx="12.7" cy="110.9" r="2.5"/>
  <circle id="D7" class="st12" cx="19.9" cy="110.9" r="2.5"/>
  <circle id="ESTOPPIN1" class="st13" cx="76.8" cy="103.7" r="2.8"/>
  <circle id="ESTOPPIN0" class="st13" cx="69.6" cy="103.7" r="2.8"/>
  <circle id="NEOPIXEL" class="st12" cx="52.3" cy="46.4" r="2.2"/>
  <circle id="GND_NEO" class="st10" cx="59.5" cy="46.4" r="2.2"/>
  <circle id="PI_RX" class="st12" cx="45.1" cy="32" r="2.2"/>
  <circle id="PI_TX" class="st12" cx="52.3" cy="32" r="2.2"/>
  <circle id="GND_PISERIAL" class="st10" cx="59.5" cy="32" r="2.2"/>
  <circle id="5V_NEO" class="st11" cx="45.1" cy="46.4" r="2.2"/>
  <circle class="st14" cx="24.9" cy="14.6" r="2.4"/>
  <circle class="st14" cx="24.9" cy="7.4" r="2.4"/>
  <circle class="st14" cx="32.1" cy="14.6" r="2.4"/>
  <circle class="st14" cx="32.1" cy="7.4" r="2.4"/>
  <circle class="st14" cx="39.3" cy="14.6" r="2.4"/>
  <circle class="st14" cx="39.3" cy="7.4" r="2.4"/>
  <circle class="st14" cx="46.5" cy="14.6" r="2.4"/>
  <circle class="st14" cx="46.5" cy="7.4" r="2.4"/>
  <circle class="st14" cx="53.7" cy="14.6" r="2.4"/>
  <circle class="st14" cx="53.7" cy="7.4" r="2.4"/>
  <circle class="st14" cx="60.9" cy="14.6" r="2.4"/>
  <circle class="st14" cx="60.9" cy="7.4" r="2.4"/>
  <circle class="st14" cx="68.1" cy="14.6" r="2.4"/>
  <circle class="st14" cx="68.1" cy="7.4" r="2.4"/>
  <circle class="st14" cx="75.3" cy="14.6" r="2.4"/>
  <circle class="st14" cx="75.3" cy="7.4" r="2.4"/>
  <circle class="st14" cx="82.5" cy="14.6" r="2.4"/>
  <circle class="st14" cx="82.5" cy="7.4" r="2.4"/>
  <circle class="st14" cx="89.7" cy="14.6" r="2.4"/>
  <circle class="st14" cx="89.7" cy="7.4" r="2.4"/>
  <circle class="st14" cx="96.9" cy="14.6" r="2.4"/>
  <circle class="st14" cx="96.9" cy="7.4" r="2.4"/>
  <circle class="st14" cx="104.1" cy="14.6" r="2.4"/>
  <circle class="st14" cx="104.1" cy="7.4" r="2.4"/>
  <circle class="st14" cx="111.3" cy="14.6" r="2.4"/>
  <circle class="st14" cx="111.3" cy="7.4" r="2.4"/>
  <circle class="st14" cx="118.5" cy="14.6" r="2.4"/>
  <circle class="st14" cx="118.5" cy="7.4" r="2.4"/>
  <circle class="st14" cx="125.7" cy="14.6" r="2.4"/>
  <circle class="st14" cx="125.7" cy="7.4" r="2.4"/>
  <circle class="st14" cx="132.9" cy="14.6" r="2.4"/>
  <circle class="st14" cx="132.9" cy="7.4" r="2.4"/>
  <circle class="st14" cx="140.1" cy="14.6" r="2.4"/>
  <circle class="st14" cx="140.1" cy="7.4" r="2.4"/>
  <circle class="st14" cx="147.3" cy="14.6" r="2.4"/>
  <circle class="st14" cx="147.3" cy="7.4" r="2.4"/>
  <circle class="st14" cx="154.5" cy="14.6" r="2.4"/>
  <circle class="st14" cx="154.5" cy="7.4" r="2.4"/>
  <circle class="st14" cx="161.7" cy="14.6" r="2.4"/>
  <circle class="st14" cx="161.7" cy="7.4" r="2.4"/>
  <path class="st9" d="M124 150.3v9.6h-4.6v-9.6zm-19.3 0v9.6h-4.5v-9.6zm31.8-28.5v-3.6h3.6v3.6zM48 102.2h3.6v3.6H48zm-16.9 10.5v-3.6h3.6v3.6zm128.1-16.6v-3.6h3.6v3.6zm-59.4-11h-3.6v-1.8h3.6zm-5.7 0h-3.6v-1.8h3.6zm.9 4.5h1.8v3.6H95zm-2.3 0h1.8v3.6h-1.8zm-48.5 5.1H46v3.6h-1.8zm-2.2 0h1.8v3.6H42zm13.8 0h1.8v3.6h-1.8zm-2.2 0h1.8v3.6h-1.8zm6.1-69.2h-1.8v-3.6h1.8zm2.2 0h-1.8v-3.6h1.8zm71.8 76v-3.6h3.6v3.6zM31.1 38.9h-3.6v-3.6h3.6zm78.4 83.3h3.7v4h-3.7zm5.9 0h3.7v4h-3.7zM26 48.9v-3.6h3.6v3.6zm7.9 0v-3.6h3.6v3.6zm-21.7 75.6h-4V122h4zm-4 9.4h4v2.6h-4zm-5.9 2.9h2.8v4.1H2.3zm0-19.3h2.8v4.1H2.3zm163-5.2v5.7h-4.9v-5.7zm-23.9 0v5.7h-4.8v-5.7zM90.5 76.1h3.6v1.8h-3.6zM36.8 156v-4.5h3.4v4.5zm-11.3 0v-4.5h3.4v4.5zm12.2-25.9H34v-3.9h3.7zm-6 0H28v-3.9h3.7zM91 34.2h-1.8v-3.6H91zm-2.2 0H87v-3.6h1.8zm-2.1 0h-1.8v-3.6h1.8zm-12.6 0h-1.8v-3.6h1.8zm-2.2 0h-1.8v-3.6h1.8zm-2.1 0H68v-3.6h1.8zM155.4 88h-3.7v-4h3.7zm-6 0h-3.6v-4h3.6zm-82.3 39.2v-2.6h3.5v2.6zm0-9.2v-2.6h3.5v2.6zm-7.9 9.2v-2.6h3.5v2.6zm0-9.2v-2.6h3.5v2.6zm15.9 9.2v-2.6h3.4v2.6zm0-9.2v-2.6h3.4v2.6zm110-61.4v6.8H176v-6.8zm0-37.3v6.8H176v-6.8zM19.7 124v3.7h-3.9V124zm0 6v3.7h-3.9V130zm80.5-51.7v1.8h-3.6v-1.8zm0-2.2v1.8h-3.6v-1.8zm7.2-50.9v-3.6h3.6v3.6zm77.7 110.4v6.8H176v-6.8zm0-26.7v6.8H176v-6.8zm0-9.4v6.8H176v-6.8zm0-33.8v6.8H176v-6.8zm-16.3 85.7v8.5h-4.3v-8.5zm-30.7 0v8.5h-4.3v-8.5zM50 21.9h1.8v3.6H50zm-2.3 0h1.8v3.6h-1.8zm-7.5 0H42v3.6h-1.8zm-2.2 0h1.8v3.6H38zm85.8 74.8v1.8h-3.6v-1.8zm0-2.2v1.8h-3.6v-1.8zm-32.5 4.9h9.9v6.7h-9.9zm0 17h9.9v6.7h-9.9zM36.9 80.5V66.3h9.9v14.2zm28.8 0V66.3h9.9v14.2zm33.8-13v-1.8h3.6v1.8zm0 2.2v-1.8h3.6v1.8zm-14.8-2.2v-1.8h3.6v1.8zm0 2.2v-1.8h3.6v1.8zM53 128.1h-2.8v-17.9H53zm-8.6 0h-2.9v-17.9h2.9zm108.7-98.4v1.8h-3.6v-1.8zm0-2.2v1.8h-3.6v-1.8zm0-2.1v1.8h-3.6v-1.8zm10.6 13.1v1.8h-3.6v-1.8zm0-2.2v1.8h-3.6v-1.8zm0-2.1V36h-3.6v-1.8zm.2-7.8v1.8h-3.6v-1.8zm0-2.1v1.8h-3.6v-1.8zm0-2.2v1.8h-3.6v-1.8zm-21.8 4.3v1.8h-3.6v-1.8zm0-2.1v1.8h-3.6v-1.8zm0-2.2v1.8h-3.6v-1.8zM89.2 41.4H91V45h-1.8zm-2.2 0h1.8V45H87zm-2.1 0h1.8V45h-1.8zm-12.6-.2h1.8v3.6h-1.8zm-2.2 0h1.8v3.6h-1.8zm-2.1 0h1.8v3.6H68z"/>
  <path id="gge4558_1" class="st9" d="M136.5 118.2h3.6l-.9-2.4h-1.7l-1 2.4z"/>
  <circle class="st9" cx="134.4" cy="26.6" r=".9"/>
  <circle class="st9" cx="73.9" cy="146.9" r="1.2"/>
  <circle class="st9" cx="71" cy="146.9" r="1.2"/>
  <circle class="st9" cx="72.5" cy="144.3" r="1.2"/>
  <circle class="st9" cx="78.6" cy="70.2" r=".9"/>
  <circle class="st9" cx="127" cy="78.6" r=".9"/>
  <circle class="st9" cx="49.6" cy="144.3" r="1.2"/>
  <circle class="st9" cx="78.6" cy="65.9" r=".9"/>
  <circle class="st9" cx="49.6" cy="147.2" r="1.2"/>
  <circle class="st9" cx="52.1" cy="145.8" r="1.2"/>
  <path d="M43.1 152.5v2.5m-20.4-2.5v2.5" stroke-width="5.118" fill="none" stroke="#dbab27"/>
  <circle class="st9" cx="23.5" cy="145.8" r="2.1"/>
  <circle class="st9" cx="42.2" cy="145.8" r="2.1"/>
  <circle id="GND_PWR" cx="56.4" cy="137.2" r="3.1"/>
  <circle id="PWR+" class="st8" cx="67.2" cy="137.2" r="3.1"/>
  <circle id="GND_ESC" cx="80.6" cy="137.2" r="3.1"/>
  <circle id="ESC+" class="st8" cx="91.4" cy="137.2" r="3.1"/>
  <path id="Br_x5F_reset" class="st16" d="M57.9 22h4v3.2h-4z"/>
  <path id="Br_x5F_rx" class="st16" d="M47.7 22h4v3.2h-4z"/>
  <path id="Br_x5F_tx" class="st16" d="M38 22h4v3.2h-4z"/>
  <path id="Br_x5F_iSDA" class="st16" d="M67.8 30.7h6.4v3.2h-6.4z"/>
  <path id="Br_x5F_iSCL" class="st16" d="M84.7 30.7h6.4v3.2h-6.4z"/>
  <path id="Br_x5F_eSDA" class="st16" d="M70.3 41.3h4v3.2h-4z"/>
  <path id="Br_x5F_eSCL" class="st16" d="M87.3 41.5h4v3.2h-4z"/>
  <path id="Br_x5F_IMU_x5F_3" class="st16" d="M99.8 65.6h3.2v4h-3.2z"/>
  <path id="Br_x5F_IMU_x5F_2" class="st16" d="M85.1 65.6h3.2v4h-3.2z"/>
  <path id="Br_x5F_IMU_x5F_1" class="st16" d="M96.7 76.1h3.2v4h-3.2z"/>
  <path id="Br_x5F_SCLK" class="st16" d="M138.7 24.2h3.2v4h-3.2z"/>
  <path id="Br_x5F_MOSI" class="st16" d="M149.7 27.4h3.2v4h-3.2z"/>
  <path id="Br_x5F_SS" class="st16" d="M160.3 36.2h3.2v4h-3.2z"/>
  <path id="Br_x5F_MISO" class="st16" d="M160.5 24.3h3.2v4h-3.2z"/>
  <path id="path5922" class="st17" d="M154.2 88.1h-7.3c-.3 0-.5-.2-.5-.5v-3.1c0-.3.2-.5.5-.5h7.3c.3 0 .5.2.5.5v3.1c0 .2-.2.5-.5.5z"/>
  <path id="path5922_1_" class="st17" d="M118 126.2h-7.3c-.3 0-.5-.2-.5-.5v-3.1c0-.3.2-.5.5-.5h7.3c.3 0 .5.2.5.5v3.1c0 .3-.2.5-.5.5z"/>
  <path id="path5922_2_" class="st17" d="M36.4 130.2h-7.3c-.3 0-.5-.2-.5-.5v-3.1c0-.3.2-.5.5-.5h7.3c.3 0 .5.2.5.5v3.1c0 .3-.2.5-.5.5z"/>
  <path id="path5922_3_" class="st17" d="M19.7 125.1v7.3c0 .3-.2.5-.5.5h-3.1c-.3 0-.5-.2-.5-.5v-7.3c0-.3.2-.5.5-.5h3.1c.3-.1.5.2.5.5z"/>
  <path id="POWERBTN" class="st18" d="M.5 134v-9.8c0-.2.2-.5.5-.5h1.6c.2 0 .5.2.5.5v9.8c0 .2-.2.5-.5.5H1c-.3-.1-.5-.3-.5-.5z"/>
  <g transform="translate(20.487 14.941)">
    <g id="Power">
      <path id="rect5896_6_" class="st17" d="M-11.5 108.2h2.7v.8h-2.7z"/>
      <path id="rect5896_5_" class="st17" d="M-11.5 119.4h2.7v.8h-2.7z"/>
      <path id="rect5896_4_" class="st17" d="M-18 104.3h2.7V124H-18z"/>
      <path id="rect5898_4_" class="st19" d="M-17.7 105.2h7.4v18h-7.4z"/>
      <path id="rect5981_5_" class="st20" d="M-10.7 105.2h.4v18h-.4z"/>
      <path id="rect5981_4_" class="st20" d="M-17.7 105.2h.4v18h-.4z"/>
    </g>
  </g>
  <g transform="translate(20.487 14.941)">
    <g id="reset">
      <path id="rect5981_2_" class="st20" d="M121.5 95.1h18v.7h-18z"/>
      <path id="rect5896_3_" class="st17" d="M117.9 98.7h24.8v2.7h-24.8z"/>
      <path id="rect5898_3_" class="st19" d="M121.4 95.1h18v10.1h-18z"/>
      <path id="rect5979" class="st20" d="M121.4 95.1h.7v10.1h-.7z"/>
      <path id="rect5981" class="st20" d="M138.7 95.1h.7v10.1h-.7z"/>
      <path id="rect5981_1_" class="st20" d="M121.4 104.5h18v.7h-18z"/>
    </g>
  </g>
  <g transform="translate(-1.75 16.873)">
    <g id="g355">
      <path id="rect6007" class="st21" d="M23.2 134.1h22.7v4H23.2z"/>
      <path id="rect6009" class="st17" d="M34.1 127h.6v3.4h-.6z"/>
      <path id="rect6011" class="st17" d="M36 127.1h.6v3.4H36z"/>
      <path id="rect6013" class="st17" d="M38.1 127h.6v3.4h-.6z"/>
      <path id="rect6015" class="st17" d="M32.5 127.1h.6v3.4h-.6z"/>
      <path id="rect6017" class="st17" d="M30.5 127.1h.6v3.4h-.6z"/>
      <path id="rect6019" class="st21" d="M27.4 128.4h14.2v.7H27.4z"/>
      <path id="rect6021" class="st18" d="M27.4 128.7h14.2v3H27.4z"/>
      <path id="polygon6023" class="st17" d="M38 130.6v.7h-1.5v-2.6h-3.9v2.6h-1.4v-.7h-2.3v-2.2h-5.1V142h21.5v-13.6h-5.1v2.2z"/>
      <path id="polygon6025" class="st18" d="M27.3 134.9h1.4l.3 4.3h-2z"/>
      <path id="polygon6027" class="st18" d="M40.4 134.9h1.4l.3 4.3h-2z"/>
      <path id="polygon6029" fill="#f1f0f0" d="M24.4 142h20.4l-.6 1.7H24.9z"/>
      <path id="polygon6031" class="st21" d="M23.8 142h.6l-.6 1.7h-.6z"/>
      <path id="polygon6033" class="st21" d="M44.8 142h.5l.6 1.7h-.6z"/>
    </g>
  </g>
  <g transform="translate(20.487 14.941)">
    <g id="Diode_x5F_1">
      <g transform="rotate(180 5.103 2.338)" id="g5904">
        <g id="g5902">
          <path id="rect5896" class="st17" d="M-47.2-106.9h2.4v10.2h-2.4z"/>
          <path id="rect5898" class="st23" d="M-48.3-105.7h4.7v7.7h-4.7z"/>
          <path id="rect5900" class="st24" d="M-48.3-100.1h4.7v1.4h-4.7z"/>
        </g>
      </g>
    </g>
  </g>
  <g transform="translate(20.487 14.941)">
    <g id="Diode_x5F_2">
      <g transform="rotate(180 5.103 2.338)" id="g5904_1_">
        <g id="g5902_1_">
          <path id="rect5896_1_" class="st17" d="M-39.2-106.9h2.4v10.2h-2.4z"/>
          <path id="rect5898_1_" class="st23" d="M-40.3-105.7h4.7v7.7h-4.7z"/>
          <path id="rect5900_1_" class="st24" d="M-40.3-100.1h4.7v1.4h-4.7z"/>
        </g>
      </g>
    </g>
  </g>
  <g transform="translate(20.487 14.941)">
    <g id="Diode_x5F_3">
      <g transform="rotate(180 5.103 2.338)" id="g5904_2_">
        <g id="g5902_2_">
          <path id="rect5896_2_" class="st17" d="M-31.2-106.9h2.4v10.2h-2.4z"/>
          <path id="rect5898_2_" class="st23" d="M-32.3-105.7h4.7v7.7h-4.7z"/>
          <path id="rect5900_2_" class="st24" d="M-32.3-100.1h4.7v1.4h-4.7z"/>
        </g>
      </g>
    </g>
  </g>
  <g transform="translate(20.487 14.941)">
    <g id="g342">
      <path id="rect5896_7_" class="st17" d="M19 53.8h33.7v8.5H19z"/>
      <path id="rect5898_5_" class="st25" d="M52.1 47.3v22.3c0 1.3-1 2.3-2.3 2.3H22c-1.3 0-2.3-1-2.3-2.3V47.3c0-1.3 1-2.3 2.3-2.3h27.8c1.2 0 2.3 1 2.3 2.3z"/>
    </g>
  </g>
  <g transform="translate(20.487 14.941)">
    <g id="g343">
      <path id="rect5896_8_" class="st17" d="M73 85h5.7v22.6H73z"/>
      <path id="rect5898_6_" class="st25" d="M83.1 107.2h-15c-.9 0-1.5-.7-1.5-1.5V87c0-.9.7-1.5 1.5-1.5h15c.9 0 1.5.7 1.5 1.5v18.6c0 .9-.6 1.6-1.5 1.6z"/>
    </g>
  </g>
  <g transform="translate(20.487 14.941)">
    <g id="g352">
      <path id="rect5898_7_" class="st23" d="M20.5 94.1h12v19.7h-12z"/>
      <path id="rect5896_9_" class="st17" d="M20.4 94.1h2.2v19.7h-2.2z"/>
      <path id="rect5896_10_" class="st17" d="M30.3 94.1h2.2v19.7h-2.2z"/>
    </g>
  </g>
  <g transform="translate(20.487 14.941)">
    <g id="_x32_P_Batt">
      <path d="M80.5 123.2h2.1v10.3h-2.1zm20.1 0h2.1v10.3h-2.1z" fill="#e8e8e8"/>
      <path id="rect5896_45_" class="st17" d="M87.3 119.2h2.5v23.7h-2.5z"/>
      <path id="rect5896_44_" class="st17" d="M93 119.2h2.5v23.7H93z"/>
      <path id="rect5896_41_" class="st17" d="M80.2 140.9h1.6v5.2h-1.6z"/>
      <path id="rect5896_40_" class="st17" d="M101.5 140.9h1.6v5.2h-1.6z"/>
      <path class="st27" d="M87 129.3h9v16.4h-9zm-5.9.1h3.5v16.7h-3.5zm17.2 0h3.5v16.7h-3.5z"/>
      <path d="M80.5 129.4H84v16.7h-3.5zm18.7 0h3.5v16.7h-3.5z" fill="#f9f9f9"/>
      <path d="M84.6 129.4H87v4.1h-2.4zm11.4 0h2.4v4.1H96z" fill="#d1d1d1"/>
      <path class="st27" d="M84 140.9h15.3v5.2H84z"/>
    </g>
  </g>
  <g transform="translate(20.487 14.941)">
    <g id="Power_1_">
      <path class="st30" d="M30.1 121.5H53v24.2H30.1z"/>
      <path class="st31" d="M30 140.8h22.9v4.9H30z"/>
    </g>
  </g>
  <g transform="translate(20.487 14.941)">
    <g id="g356">
      <path class="st30" d="M53.6 121.5h22.9v24.2H53.6z"/>
      <path class="st31" d="M53.5 140.8h22.9v4.9H53.5z"/>
    </g>
  </g>
  <g transform="translate(20.487 14.941)">
    <g id="_x34_pin_Grove">
      <path d="M113.4 120.7h3.2v11h-3.2zm31.4 0h3.2v11h-3.2z" fill="#e9e8e8"/>
      <path id="rect5896_11_" class="st17" d="M121 116.4h2.5v25.3H121z"/>
      <path id="rect5896_12_" class="st17" d="M126.7 116.4h2.5v25.3h-2.5z"/>
      <path id="rect5896_13_" class="st17" d="M132.3 116.4h2.5v25.3h-2.5z"/>
      <path id="rect5896_14_" class="st17" d="M138 116.4h2.5v25.3H138z"/>
      <path id="rect5896_15_" class="st17" d="M112.9 139.5h2.5v5.6h-2.5z"/>
      <path id="rect5896_16_" class="st17" d="M146 139.5h2.5v5.6H146z"/>
      <path class="st33" d="M113.4 125H148v13.6h-34.6z"/>
      <path class="st33" d="M114.4 127.3h5.4v17.8h-5.4zm26.8 0h5.4v17.8h-5.4z"/>
      <path d="M113.4 127.3h5.4v17.8h-5.4zm29.2 0h5.4v17.8h-5.4z" fill="#f9f9fa"/>
      <path fill="#a3a1a1" d="M126.9 136.2h8.9v2.4h-8.9z"/>
    </g>
  </g>
  <g transform="translate(20.487 14.941)">
    <g id="_x34_pin_PH2.5">
      <path class="st36" d="M162.7 97.4h2.5v8.3h-2.5zm0 8.9h2.5v8.6h-2.5zm0 9.3h2.5v8.3h-2.5z"/>
      <path id="rect5896_17_" class="st17" d="M151.4 115.8h12.1v1.1h-12.1z"/>
      <path id="rect5896_18_" class="st17" d="M151.4 112.1h12.1v1.1h-12.1z"/>
      <path id="rect5896_19_" class="st17" d="M151.4 108.4h12.1v1.1h-12.1z"/>
      <path id="rect5896_20_" class="st17" d="M151.4 104.7h12.1v1.1h-12.1z"/>
      <path class="st17" d="M164.3 96.8h.8v.6h-.8zm0 27.1h.8v.6h-.8z"/>
      <path class="st33" d="M162.7 123.4h1.6v1.1h-1.6zm0-26.6h1.6v1.1h-1.6z"/>
      <path class="st37" d="M159.9 127.1h-2.2c-1.3 0-2.4-1.1-2.4-2.4V96.9c0-1.3 1.1-2.4 2.4-2.4h2.2c1.3 0 2.4 1.1 2.4 2.4v27.8c0 1.4-1 2.4-2.4 2.4z"/>
      <path class="st33" d="M154.8 96.8h7.9v27.7h-7.9z"/>
      <path class="st37" d="M158.8 124.5h4.5v2.6h-4.5zm0-30h4.5v2.3h-4.5z"/>
      <path id="rect5896_21_" class="st17" d="M157.1 95.1h6.2v1.7h-6.2z"/>
      <path id="rect5896_22_" class="st17" d="M157.1 124.5h6.2v1.7h-6.2z"/>
    </g>
  </g>
  <g transform="translate(20.487 14.941)">
    <g id="_x36_pin_PH2.5">
      <path class="st36" d="M162.7 54.2h2.5v8.5h-2.5zm0 9.3h2.5v14.9h-2.5zm0 15.8h2.5v8.2h-2.5z"/>
      <path id="rect5896_28_" class="st17" d="M151.4 79.6h12.1v1.1h-12.1z"/>
      <path id="rect5896_29_" class="st17" d="M151.4 76h12.1v1.1h-12.1z"/>
      <path id="rect5896_30_" class="st17" d="M151.4 72.4h12.1v1.1h-12.1z"/>
      <path id="rect5896_27_" class="st17" d="M151.4 68.8h12.1v1.1h-12.1z"/>
      <path id="rect5896_26_" class="st17" d="M151.4 65.2h12.1v1.1h-12.1z"/>
      <path id="rect5896_25_" class="st17" d="M151.4 61.5h12.1v1.1h-12.1z"/>
      <path class="st37" d="M159.9 91.3h-2.2c-1.3 0-2.4-1.1-2.4-2.4V53.2c0-1.3 1.1-2.4 2.4-2.4h2.2c1.3 0 2.4 1.1 2.4 2.4v35.7c0 1.4-1 2.4-2.4 2.4z"/>
      <path class="st33" d="M154.8 53.7h7.9v34.4h-7.9z"/>
      <path class="st37" d="M158.8 88h4.5v3.3h-4.5zm0-37.1h4.5v2.8h-4.5z"/>
      <path id="rect5896_24_" class="st17" d="M157.1 51.6h6.2v2.1h-6.2z"/>
      <path id="rect5896_23_" class="st17" d="M157.1 88.1h6.2v2.1h-6.2z"/>
      <path class="st17" d="M164.3 53.7h.8v.6h-.8zm0 33.8h.9v.6h-.9z"/>
      <path class="st33" d="M162.7 87h1.6v1.1h-1.6zm0-33.3h1.6v1.1h-1.6z"/>
    </g>
  </g>
  <g transform="translate(20.487 14.941)">
    <g id="_x37_pin_PH2.5">
      <path class="st36" d="M162.1 8.3h2.5v8.9h-2.5zm0 9.5h2.5v17h-2.5zm0 17.5h2.5V44h-2.5z"/>
      <path id="rect5896_39_" class="st17" d="M150.8 36.8h12.1v1.1h-12.1z"/>
      <path id="rect5896_38_" class="st17" d="M150.8 33.2h12.1v1.1h-12.1z"/>
      <path id="rect5896_37_" class="st17" d="M150.8 29.6h12.1v1.1h-12.1z"/>
      <path id="rect5896_36_" class="st17" d="M150.8 26h12.1v1.1h-12.1z"/>
      <path id="rect5896_35_" class="st17" d="M150.8 22.5h12.1v1.1h-12.1z"/>
      <path id="rect5896_34_" class="st17" d="M150.8 18.9h12.1V20h-12.1z"/>
      <path id="rect5896_33_" class="st17" d="M150.8 15.3h12.1v1.1h-12.1z"/>
      <path class="st37" d="M159.4 48.1h-2.2c-1.3 0-2.4-1.1-2.4-2.4V6.9c0-1.3 1.1-2.4 2.4-2.4h2.2c1.3 0 2.4 1.1 2.4 2.4v38.8c0 1.4-1.1 2.4-2.4 2.4z"/>
      <path class="st33" d="M154.2 7.6h7.9v37h-7.9z"/>
      <path class="st37" d="M158.2 44.6h4.5v3.5h-4.5zm0-40h4.5v3h-4.5z"/>
      <path id="rect5896_32_" class="st17" d="M156.5 5.4h6.2v2.2h-6.2z"/>
      <path id="rect5896_31_" class="st17" d="M156.5 44.7h6.2v2.2h-6.2z"/>
      <path class="st17" d="M163.7 7.6h.9v.6h-.9zm0 36.4h.9v.6h-.9z"/>
      <path class="st33" d="M162.1 43.5h1.6v1.1h-1.6zm0-35.9h1.6v1.1h-1.6z"/>
    </g>
  </g>
  <path id="PWR_LED" fill="#4c58a6" d="M15.6 126.7h4.2v4.2h-4.2z"/>
  <path id="USB_LED" fill="#51b848" d="M30.6 126h4.2v4.2h-4.2z"/>
  <path id="CHRG_LED" fill="#fbf282" d="M112.2 122.1h4.2v4.2h-4.2z"/>
  <path id="R_LED" fill="#ed2224" d="M148.3 83.9h4.2v4.2h-4.2z"/>
  <path id="RESETBTN" d="M155.1 116.9h-8.4c-.6 0-1.2-.5-1.2-1.2v-1.4c0-.6.5-1.2 1.2-1.2h8.4c.6 0 1.2.5 1.2 1.2v1.4c0 .7-.5 1.2-1.2 1.2z" fill="#481212"/>
</svg>
