<?xml version="1.0" encoding="utf-8"?>
<!-- Generator: Adobe Illustrator 21.0.0, SVG Export Plug-In . SVG Version: 6.00 Build 0)  -->
<svg version="1.1" id="Layer_1" xmlns:xml="http://www.w3.org/XML/1998/namespace"
	 xmlns="http://www.w3.org/2000/svg" xmlns:xlink="http://www.w3.org/1999/xlink" x="0px" y="0px" width="185.7px" height="161.3px"
	 viewBox="0 0 185.7 161.3" style="enable-background:new 0 0 185.7 161.3;" xml:space="preserve">
<style type="text/css">
	.st0{fill:#203063;}
	.st1{fill:#FFFFFF;}
	.st2{fill:none;stroke:#FFFFFF;stroke-width:0.4;}
	.st3{fill:none;stroke:#FFFFFF;stroke-width:0.8;}
	.st4{fill:none;stroke:#FFFFFF;stroke-width:0.6;}
	.st5{fill:none;stroke:#FFFFFF;stroke-width:0.8;stroke-linecap:round;}
	.st6{fill:none;stroke:#FFFFFF;stroke-linecap:round;}
	.st7{fill:none;stroke:#FFFFFF;stroke-width:0.5;stroke-linecap:round;}
	.st8{fill:#D42328;}
	.st9{fill:#DBAB27;}
	.st10{fill:none;stroke:#010101;stroke-miterlimit:10;}
	.st11{fill:none;stroke:#D42328;stroke-miterlimit:10;}
	.st12{fill:none;stroke:#FEBF10;stroke-miterlimit:10;}
	.st13{fill:none;stroke:#ED2224;stroke-miterlimit:10;}
	.st14{fill:none;stroke:#DBAB27;stroke-miterlimit:10;}
	.st15{fill:none;stroke:#DBAB27;stroke-width:5.1181;}
	.st16{fill:#7F8080;}
	.st17{fill:#DCDCDC;}
	.st18{fill:#010101;}
	.st19{fill:#BBBBBB;}
	.st20{fill:#E5E3DF;}
	.st21{fill:#B5B5B5;}
	.st22{fill:#F1F0F0;}
	.st23{fill:#303030;}
	.st24{fill:#4E4E4E;}
	.st25{fill:#505050;}
	.st26{fill:#E8E8E8;}
	.st27{fill:#EDEDED;}
	.st28{fill:#F9F9F9;}
	.st29{fill:#D1D1D1;}
	.st30{fill:#77AF6A;}
	.st31{fill:#628A55;}
	.st32{fill:#E9E8E8;}
	.st33{fill:#EDEDEE;}
	.st34{fill:#F9F9FA;}
	.st35{fill:#A3A1A1;}
	.st36{fill:#C2BFBF;}
	.st37{fill:#E5E5E5;}
	.st38{fill:#4C58A6;}
	.st39{fill:#51B848;}
	.st40{fill:#FBF282;}
	.st41{fill:#ED2224;}
	.st42{fill:#481212;}
</style>
<path id="PCBborder" class="st0" d="M185.2,6.2L185.1,6L185,5.8l-0.1-0.2l-0.1-0.2l-0.1-0.2L184.6,5l-0.1-0.2l-0.1-0.2l-0.1-0.2
	l-0.1-0.2L184.1,4L184,3.8l-0.1-0.2l-0.1-0.2l-0.1-0.2L183.6,3l-0.1-0.2l-0.1-0.2l-0.2-0.2L183,2.2L182.8,2l-0.2-0.1l-0.2-0.1
	l-0.2-0.1L182,1.6l-0.2-0.1l-0.2-0.1l-0.2-0.1l-0.2-0.1L181,1.1L180.8,1h-0.7l-0.2-0.1l-0.2-0.1l-0.2-0.1l-0.2-0.1l-0.2-0.1
	l-0.2-0.1l-0.2-0.1l-0.2-0.1l-0.2-0.1L178.1,0h-0.2h-0.2h-0.2h-0.2h-0.2h-0.2h-0.2h-0.2h-0.1H9.2H9H8.8H8.6H8.4H8.2H8H7.8H7.6H7.4
	L7.2,0.1L7,0.2L6.8,0.3H6.6L6.4,0.4L6.2,0.5L6,0.6L5.8,0.7L5.6,0.8L5.4,0.9L5.2,1L5,1.2L4.8,1.3v0.3L4.6,1.7L4.4,1.8L4.2,1.9L4,2
	L3.8,2.1L3.6,2L3.4,2.2L3.2,2.4L3.1,2.6L3,2.8L2.9,3L2.6,3.1L2.5,3.3L2.4,3.5L2.3,3.7L2.2,3.9L2.1,4.1L2,4.3L1.9,4.5L1.8,4.7v0.4
	L1.7,5.3L1.6,5.5L1.5,5.7L1.4,5.9L1.3,6.1L1.2,6.3L1.1,6.5L1,6.7v0.2v0.2v0.2v0.2v0.2v0.2v0.2v0.2v0.1v143.4v0.2v0.2v0.2v0.2v0.2
	v0.2v0.2v0.2v0.2l0.1,0.2l0.1,0.2l0.1,0.2l0.1,0.2l0.1,0.2l0.1,0.2l0.1,0.2l0.1,0.2l0.1,0.2l0.1,0.2l0.1,0.2l0.1,0.2l0.2,0.1
	l0.1,0.2l0.1,0.2l0.1,0.2l0.1,0.2L3,157l-0.1,0.2l0.2,0.2l0.2,0.2l0.2,0.2l0.2,0.1l0.2,0.1l0.1,0.3l0.2,0.1l0.2,0.1l0.2,0.1l0.2,0.1
	l0.1,0.1l0.2,0.1l0.2,0.1h0.3l0.2,0.1l0.2,0.1l0.2,0.1l0.2,0.1l0.2,0.1l0.2,0.1l0.4,0.2l0.2,0.1l0.2,0.1l0.2,0.1H8h0.2h0.2h0.2h0.2
	H9h0.2h0.3v-0.2h114.3h0.1h0.1h0.1h0.1h0.1h0.1h0.1h0.1h0.1l0.1-0.1l0.1-0.1l0.1-0.1l0.1-0.1l0.1-0.1l0.1-0.1l0.1-0.1l0.1-0.1
	l0.1-0.1l0.1-0.1l0.1-0.1v-0.1v-0.1v-0.1v-0.1v-0.1v-0.1v-0.1V158v-0.1v-0.1V106v-0.1v-0.1v-0.1v-0.1v-0.1v-0.1v-0.1v-0.1v-0.1V105
	l0.1-0.1l0.1-0.1l0.1-0.1l0.1-0.1l0.1-0.1l0.1-0.1l0.1-0.1l0.1-0.1l0.1-0.1l0.1-0.1l0.6,0.2l0.1-0.1l0.1-0.1l0.1-0.1l0.1-0.1
	l0.1-0.1h0.1h0.1h0.1h0.1h0.1h0.1h0.1h0.1h0.1h0.1h0.1h0.1h0.1h0.1h0.1h0.1h0.1h0.1h0.1l0.1,0.1l0.1,0.1l0.1,0.1l0.1,0.1l0.1,0.1
	l0.1,0.1l0.1,0.1l0.1,0.1l0.1,0.1l0.1,0.1l0.1,0.1l0.1,0.1l0.1,0.1l0.1,0.1l0.1,0.1l0.1,0.1v0.1v0.1v0.1v0.1v0.1v0.1v0.1v0.1v0.1
	v51.9v0.1v0.1v0.1v0.1v0.1v0.1v0.1v0.1v0.1l0.1,0.1l0.1,0.1l0.1,0.1l0.1,0.1l0.1,0.1l0.1,0.1l0.1,0.1l0.1,0.1l0.1,0.1l0.1,0.1
	l0.1,0.1h0.1h0.1h0.1h0.1h0.1h0.1h0.1h0.1h0.1h43.4h0.2h0.2h0.2h0.2h0.2h0.2h0.2h0.2h0.2l0.2-0.1l0.2-0.1l0.2-0.1l0.2-0.1l0.2-0.1
	l0.2-0.1l0.2-0.1l0.2-0.1l0.2-0.1l0.2-0.1l0.2-0.1l0.2-0.1l0.2-0.1l0.2-0.1l0.2-0.1l0.2-0.1l0.2-0.1l0.2-0.1l0.2-0.1l0.2-0.2
	l0.2-0.2l0.2-0.2l0.1-0.2l0.1-0.2l0.1-0.2l0.1-0.2l0.1-0.2l0.1-0.2l0.1-0.2l0.1-0.2l0.1-0.2l0.1-0.2l0.1-0.2l0.1-0.2l0.1-0.2
	l0.1-0.2l0.1-0.2l0.1-0.2l0.1-0.2l0.1-0.2l0.3-0.6l0.1-0.2l0.1-0.2v-0.2v-0.2v-0.2v-0.2V152v-0.2v-0.2v-0.2v-0.1V8.2V8V7.8V7.6V7.4
	V7.2V7V6.8V6.6V6.4L185.2,6.2z M89.7,4.8c1.5,0,2.7,1.2,2.7,2.7s-1.2,2.7-2.7,2.7S87,8.9,87,7.5S88.2,4.8,89.7,4.8z M75.3,4.8
	C76.8,4.8,78,6,78,7.5s-1.2,2.7-2.7,2.7S72.6,9,72.6,7.5S73.8,4.8,75.3,4.8z M68.1,4.8c1.5,0,2.7,1.2,2.7,2.7s-1.2,2.7-2.7,2.7
	S65.4,9,65.4,7.5S66.6,4.8,68.1,4.8z M68.1,12c1.5,0,2.7,1.2,2.7,2.7s-1.2,2.7-2.7,2.7s-2.7-1.2-2.7-2.7S66.6,12,68.1,12z M53.7,4.8
	c1.5,0,2.7,1.2,2.7,2.7s-1.2,2.7-2.7,2.7S51,8.9,51,7.5S52.2,4.8,53.7,4.8z M53.7,12c1.5,0,2.7,1.2,2.7,2.7s-1.2,2.7-2.7,2.7
	S51,16.1,51,14.7C51,13.2,52.2,12,53.7,12z M52.2,29.8c1.3,0,2.4,1.1,2.4,2.4c0,1.3-1.1,2.4-2.4,2.4s-2.4-1.1-2.4-2.4
	C49.8,30.8,50.9,29.8,52.2,29.8z M11.1,7.1c2.2,0,4,1.8,4,4s-1.8,4-4,4s-4-1.8-4-4C7.1,8.8,8.9,7.1,11.1,7.1z M5.4,21.8
	c1.5,0,2.8,1.3,2.8,2.8S7,27.3,5.4,27.3c-1.5,0-2.8-1.3-2.8-2.8S3.9,21.8,5.4,21.8z M5.4,29c1.5,0,2.8,1.3,2.8,2.8S7,34.6,5.4,34.6
	c-1.5,0-2.8-1.3-2.8-2.8S3.9,29,5.4,29z M5.4,36.2c1.5,0,2.8,1.3,2.8,2.8S7,41.8,5.4,41.8c-1.5,0-2.8-1.3-2.8-2.8S3.9,36.2,5.4,36.2
	z M5.4,43.3c1.5,0,2.8,1.3,2.8,2.8C8.2,47.7,7,49,5.4,49c-1.5,0-2.8-1.3-2.8-2.8C2.6,44.6,3.9,43.3,5.4,43.3z M5.4,57.8
	c1.5,0,2.8,1.3,2.8,2.8S7,63.3,5.4,63.3c-1.5,0-2.8-1.3-2.8-2.8S3.9,57.8,5.4,57.8z M5.4,65c1.5,0,2.8,1.3,2.8,2.8S7,70.6,5.4,70.6
	c-1.5,0-2.8-1.3-2.8-2.8S3.9,65,5.4,65z M5.4,72.2c1.5,0,2.8,1.3,2.8,2.8S7,77.8,5.4,77.8c-1.5,0-2.8-1.3-2.8-2.8S3.9,72.2,5.4,72.2
	z M5.4,79.3c1.5,0,2.8,1.3,2.8,2.8S7,85,5.4,85c-1.5,0-2.8-1.3-2.8-2.8S3.9,79.3,5.4,79.3z M5.4,86.6c1.5,0,2.8,1.3,2.8,2.8
	s-1.3,2.8-2.8,2.8s-2.8-1.3-2.8-2.8C2.6,87.8,3.9,86.6,5.4,86.6z M5.4,93.8c1.5,0,2.8,1.3,2.8,2.8S7,99.3,5.4,99.3
	c-1.5,0-2.8-1.3-2.8-2.8S3.9,93.8,5.4,93.8z M5.4,101c1.5,0,2.8,1.3,2.8,2.8s-1.3,2.8-2.8,2.8s-2.8-1.3-2.8-2.8S3.9,101,5.4,101z
	 M5.4,113.8c-1.5,0-2.8-1.3-2.8-2.8s1.3-2.8,2.8-2.8s2.8,1.3,2.8,2.8S7,113.8,5.4,113.8z M11.1,154c-2.2,0-4-1.8-4-4s1.8-4,4-4
	s4,1.8,4,4S13.3,154,11.1,154z M12.6,113.8c-1.5,0-2.8-1.3-2.8-2.8s1.3-2.8,2.8-2.8s2.8,1.3,2.8,2.8S14.2,113.8,12.6,113.8z
	 M12.6,106.6c-1.5,0-2.8-1.3-2.8-2.8s1.3-2.8,2.8-2.8s2.8,1.3,2.8,2.8S14.2,106.6,12.6,106.6z M12.6,99.3c-1.5,0-2.8-1.3-2.8-2.8
	s1.3-2.8,2.8-2.8s2.8,1.3,2.8,2.8S14.2,99.3,12.6,99.3z M12.6,92.2c-1.5,0-2.8-1.3-2.8-2.8s1.3-2.8,2.8-2.8s2.8,1.3,2.8,2.8
	C15.4,90.9,14.2,92.2,12.6,92.2z M12.6,85c-1.5,0-2.8-1.3-2.8-2.8s1.3-2.8,2.8-2.8s2.8,1.3,2.8,2.8S14.2,85,12.6,85z M12.6,77.8
	c-1.5,0-2.8-1.3-2.8-2.8s1.3-2.8,2.8-2.8s2.8,1.3,2.8,2.8S14.2,77.8,12.6,77.8z M12.6,70.6c-1.5,0-2.8-1.3-2.8-2.8s1.3-2.8,2.8-2.8
	s2.8,1.3,2.8,2.8S14.2,70.6,12.6,70.6z M12.6,63.3c-1.5,0-2.8-1.3-2.8-2.8s1.3-2.8,2.8-2.8s2.8,1.3,2.8,2.8S14.2,63.3,12.6,63.3z
	 M12.6,49c-1.5,0-2.8-1.3-2.8-2.8s1.3-2.8,2.8-2.8s2.8,1.3,2.8,2.8C15.4,47.7,14.2,49,12.6,49z M12.6,41.8c-1.5,0-2.8-1.3-2.8-2.8
	s1.3-2.8,2.8-2.8s2.8,1.3,2.8,2.8S14.2,41.8,12.6,41.8z M12.6,34.6c-1.5,0-2.8-1.3-2.8-2.8s1.3-2.8,2.8-2.8s2.8,1.3,2.8,2.8
	S14.2,34.6,12.6,34.6z M12.6,27.3c-1.5,0-2.8-1.3-2.8-2.8s1.3-2.8,2.8-2.8s2.8,1.3,2.8,2.8S14.2,27.3,12.6,27.3z M19.8,113.8
	c-1.5,0-2.8-1.3-2.8-2.8s1.3-2.8,2.8-2.8s2.8,1.3,2.8,2.8S21.4,113.8,19.8,113.8z M19.8,106.6c-1.5,0-2.8-1.3-2.8-2.8
	s1.3-2.8,2.8-2.8s2.8,1.3,2.8,2.8S21.4,106.6,19.8,106.6z M19.8,99.3c-1.5,0-2.8-1.3-2.8-2.8s1.3-2.8,2.8-2.8s2.8,1.3,2.8,2.8
	S21.4,99.3,19.8,99.3z M19.8,92.2c-1.5,0-2.8-1.3-2.8-2.8s1.3-2.8,2.8-2.8s2.8,1.3,2.8,2.8C22.6,90.9,21.4,92.2,19.8,92.2z M19.8,85
	c-1.5,0-2.8-1.3-2.8-2.8s1.3-2.8,2.8-2.8s2.8,1.3,2.8,2.8S21.4,85,19.8,85z M19.8,77.8c-1.5,0-2.8-1.3-2.8-2.8s1.3-2.8,2.8-2.8
	s2.8,1.3,2.8,2.8S21.4,77.8,19.8,77.8z M19.8,70.6c-1.5,0-2.8-1.3-2.8-2.8s1.3-2.8,2.8-2.8s2.8,1.3,2.8,2.8S21.4,70.6,19.8,70.6z
	 M19.8,63.3c-1.5,0-2.8-1.3-2.8-2.8s1.3-2.8,2.8-2.8s2.8,1.3,2.8,2.8S21.4,63.3,19.8,63.3z M19.8,49c-1.5,0-2.8-1.3-2.8-2.8
	s1.3-2.8,2.8-2.8s2.8,1.3,2.8,2.8C22.6,47.7,21.4,49,19.8,49z M19.8,41.8c-1.5,0-2.8-1.3-2.8-2.8s1.3-2.8,2.8-2.8s2.8,1.3,2.8,2.8
	S21.4,41.8,19.8,41.8z M19.8,34.6c-1.5,0-2.8-1.3-2.8-2.8s1.3-2.8,2.8-2.8s2.8,1.3,2.8,2.8S21.4,34.6,19.8,34.6z M19.8,27.3
	c-1.5,0-2.8-1.3-2.8-2.8s1.3-2.8,2.8-2.8s2.8,1.3,2.8,2.8S21.4,27.3,19.8,27.3z M24.9,17.3c-1.5,0-2.7-1.2-2.7-2.7s1.2-2.7,2.7-2.7
	s2.7,1.2,2.7,2.7S26.4,17.3,24.9,17.3z M24.9,10.2c-1.5,0-2.7-1.2-2.7-2.7s1.2-2.7,2.7-2.7s2.7,1.2,2.7,2.7S26.4,10.2,24.9,10.2z
	 M32.1,17.3c-1.5,0-2.7-1.2-2.7-2.7s1.2-2.7,2.7-2.7s2.7,1.2,2.7,2.7S33.6,17.3,32.1,17.3z M32.1,10.2c-1.5,0-2.7-1.2-2.7-2.7
	s1.2-2.7,2.7-2.7s2.7,1.2,2.7,2.7S33.6,10.2,32.1,10.2z M39.3,17.3c-1.5,0-2.7-1.2-2.7-2.7s1.2-2.7,2.7-2.7s2.7,1.2,2.7,2.7
	S40.8,17.3,39.3,17.3z M39.3,10.2c-1.5,0-2.7-1.2-2.7-2.7s1.2-2.7,2.7-2.7S42,6,42,7.5S40.8,10.2,39.3,10.2z M45,49
	c-1.3,0-2.4-1.1-2.4-2.4c0-1.3,1.1-2.4,2.4-2.4s2.4,1.1,2.4,2.4S46.3,49,45,49z M45,34.6c-1.3,0-2.4-1.1-2.4-2.4
	c0-1.3,1.1-2.4,2.4-2.4s2.4,1.1,2.4,2.4C47.4,33.5,46.3,34.6,45,34.6z M46.5,17.3c-1.5,0-2.7-1.2-2.7-2.7s1.2-2.7,2.7-2.7
	s2.7,1.2,2.7,2.7S48,17.3,46.5,17.3z M46.5,10.2c-1.5,0-2.7-1.2-2.7-2.7s1.2-2.7,2.7-2.7s2.7,1.2,2.7,2.7S48,10.2,46.5,10.2z
	 M49.8,46.6c0-1.3,1.1-2.4,2.4-2.4s2.4,1.1,2.4,2.4c0,1.3-1.1,2.4-2.4,2.4S49.8,47.9,49.8,46.6z M56.4,140.6c-1.9,0-3.4-1.5-3.4-3.4
	s1.5-3.4,3.4-3.4s3.4,1.5,3.4,3.4S58.3,140.6,56.4,140.6z M59.4,49c-1.3,0-2.4-1.1-2.4-2.4c0-1.3,1.1-2.4,2.4-2.4
	c1.3,0,2.4,1.1,2.4,2.4C61.8,47.9,60.7,49,59.4,49z M59.4,34.6c-1.3,0-2.4-1.1-2.4-2.4c0-1.3,1.1-2.4,2.4-2.4c1.3,0,2.4,1.1,2.4,2.4
	C61.8,33.5,60.7,34.6,59.4,34.6z M60.9,17.3c-1.5,0-2.7-1.2-2.7-2.7s1.2-2.7,2.7-2.7s2.7,1.2,2.7,2.7C63.6,16.1,62.4,17.3,60.9,17.3
	z M60.9,10.2c-1.5,0-2.7-1.2-2.7-2.7s1.2-2.7,2.7-2.7s2.7,1.2,2.7,2.7S62.4,10.2,60.9,10.2z M67.2,140.6c-1.9,0-3.4-1.5-3.4-3.4
	s1.5-3.4,3.4-3.4s3.4,1.5,3.4,3.4S69.1,140.6,67.2,140.6z M69.5,106.8c-1.7,0-3.1-1.4-3.1-3.1s1.4-3.1,3.1-3.1s3.1,1.4,3.1,3.1
	S71.2,106.8,69.5,106.8z M72.6,14.7c0-1.5,1.2-2.7,2.7-2.7s2.7,1.2,2.7,2.7s-1.2,2.7-2.7,2.7C73.8,17.3,72.6,16.1,72.6,14.7z
	 M73.6,103.8c0-1.7,1.4-3.1,3.1-3.1s3.1,1.4,3.1,3.1s-1.4,3.1-3.1,3.1S73.6,105.5,73.6,103.8z M80.5,140.6c-1.9,0-3.4-1.5-3.4-3.4
	s1.5-3.4,3.4-3.4s3.4,1.5,3.4,3.4S82.4,140.6,80.5,140.6z M82.5,17.3c-1.5,0-2.7-1.2-2.7-2.7s1.2-2.7,2.7-2.7s2.7,1.2,2.7,2.7
	S84,17.3,82.5,17.3z M82.5,10.2c-1.5,0-2.7-1.2-2.7-2.7s1.2-2.7,2.7-2.7s2.7,1.2,2.7,2.7S84,10.2,82.5,10.2z M87,14.7
	c0-1.5,1.2-2.7,2.7-2.7s2.7,1.2,2.7,2.7s-1.2,2.7-2.7,2.7S87,16.1,87,14.7z M91.3,140.6c-1.9,0-3.4-1.5-3.4-3.4s1.5-3.4,3.4-3.4
	s3.4,1.5,3.4,3.4S93.2,140.6,91.3,140.6z M96.9,17.3c-1.5,0-2.7-1.2-2.7-2.7s1.2-2.7,2.7-2.7s2.7,1.2,2.7,2.7S98.4,17.3,96.9,17.3z
	 M96.9,10.2c-1.5,0-2.7-1.2-2.7-2.7s1.2-2.7,2.7-2.7s2.7,1.2,2.7,2.7S98.4,10.2,96.9,10.2z M104.1,17.3c-1.5,0-2.7-1.2-2.7-2.7
	s1.2-2.7,2.7-2.7s2.7,1.2,2.7,2.7C106.8,16.1,105.6,17.3,104.1,17.3z M104.1,10.2c-1.5,0-2.7-1.2-2.7-2.7s1.2-2.7,2.7-2.7
	s2.7,1.2,2.7,2.7S105.6,10.2,104.1,10.2z M111.3,17.3c-1.5,0-2.7-1.2-2.7-2.7s1.2-2.7,2.7-2.7s2.7,1.2,2.7,2.7
	S112.8,17.3,111.3,17.3z M111.3,10.2c-1.5,0-2.7-1.2-2.7-2.7s1.2-2.7,2.7-2.7S114,6,114,7.5S112.8,10.2,111.3,10.2z M118.5,17.3
	c-1.5,0-2.7-1.2-2.7-2.7s1.2-2.7,2.7-2.7s2.7,1.2,2.7,2.7S120,17.3,118.5,17.3z M118.5,10.2c-1.5,0-2.7-1.2-2.7-2.7s1.2-2.7,2.7-2.7
	s2.7,1.2,2.7,2.7S120,10.2,118.5,10.2z M125.7,17.3c-1.5,0-2.7-1.2-2.7-2.7s1.2-2.7,2.7-2.7s2.7,1.2,2.7,2.7S127.2,17.3,125.7,17.3z
	 M125.7,10.2c-1.5,0-2.7-1.2-2.7-2.7s1.2-2.7,2.7-2.7s2.7,1.2,2.7,2.7S127.2,10.2,125.7,10.2z M132.9,17.3c-1.5,0-2.7-1.2-2.7-2.7
	s1.2-2.7,2.7-2.7s2.7,1.2,2.7,2.7C135.6,16.1,134.4,17.3,132.9,17.3z M132.9,10.2c-1.5,0-2.7-1.2-2.7-2.7s1.2-2.7,2.7-2.7
	s2.7,1.2,2.7,2.7S134.4,10.2,132.9,10.2z M140.1,17.3c-1.5,0-2.7-1.2-2.7-2.7s1.2-2.7,2.7-2.7s2.7,1.2,2.7,2.7
	S141.6,17.3,140.1,17.3z M140.1,10.2c-1.5,0-2.7-1.2-2.7-2.7s1.2-2.7,2.7-2.7s2.7,1.2,2.7,2.7S141.6,10.2,140.1,10.2z M147.3,17.3
	c-1.5,0-2.7-1.2-2.7-2.7s1.2-2.7,2.7-2.7s2.7,1.2,2.7,2.7S148.8,17.3,147.3,17.3z M147.3,10.2c-1.5,0-2.7-1.2-2.7-2.7
	s1.2-2.7,2.7-2.7S150,6,150,7.5S148.8,10.2,147.3,10.2z M154.5,17.3c-1.5,0-2.7-1.2-2.7-2.7s1.2-2.7,2.7-2.7s2.7,1.2,2.7,2.7
	S156,17.3,154.5,17.3z M154.5,10.2c-1.5,0-2.7-1.2-2.7-2.7s1.2-2.7,2.7-2.7s2.7,1.2,2.7,2.7S156,10.2,154.5,10.2z M161.7,17.3
	c-1.5,0-2.7-1.2-2.7-2.7s1.2-2.7,2.7-2.7s2.7,1.2,2.7,2.7S163.2,17.3,161.7,17.3z M161.7,10.2c-1.5,0-2.7-1.2-2.7-2.7
	s1.2-2.7,2.7-2.7s2.7,1.2,2.7,2.7S163.2,10.2,161.7,10.2z M175.5,154c-2.2,0-4-1.8-4-4s1.8-4,4-4s4,1.8,4,4S177.7,154,175.5,154z
	 M175.5,15.1c-2.2,0-4-1.8-4-4s1.8-4,4-4s4,1.8,4,4S177.7,15.1,175.5,15.1z"/>
<g id="gge272_3">
	<path class="st1" d="M103.7,81.7h0.7c0.7,0,1.1,0.2,1.1,0.8c0,0.6-0.4,0.8-1.1,0.8h-0.7V81.7z M106,85.5l-1.1-1.9
		c0.6-0.1,1-0.5,1-1.2c0-0.9-0.6-1.2-1.5-1.2h-1.3v4.2h0.5v-1.8h0.8l1.1,1.8L106,85.5L106,85.5z M107.9,85.6c0.8,0,1.4-0.6,1.4-1.6
		s-0.7-1.6-1.4-1.6c-0.8,0-1.4,0.6-1.4,1.6S107.1,85.6,107.9,85.6z M107.9,85.2c-0.6,0-1-0.5-1-1.2s0.4-1.2,1-1.2s1,0.5,1,1.2
		C108.8,84.7,108.4,85.2,107.9,85.2z M111.5,85.6c0.7,0,1.4-0.6,1.4-1.7c0-1-0.4-1.6-1.2-1.6c-0.4,0-0.7,0.2-1,0.4v-0.6v-1.3h-0.5
		v4.6h0.4l0.1-0.3l0,0C110.9,85.4,111.2,85.6,111.5,85.6z M111.4,85.2c-0.2,0-0.5-0.1-0.8-0.3v-1.7c0.3-0.3,0.6-0.4,0.9-0.4
		c0.6,0,0.9,0.5,0.9,1.2C112.4,84.7,112,85.2,111.4,85.2z M114.9,85.6c0.8,0,1.4-0.6,1.4-1.6s-0.7-1.6-1.4-1.6
		c-0.8,0-1.4,0.6-1.4,1.6S114.1,85.6,114.9,85.6z M114.9,85.2c-0.6,0-0.9-0.5-0.9-1.2s0.4-1.2,0.9-1.2c0.6,0,1,0.5,1,1.2
		C115.8,84.7,115.4,85.2,114.9,85.2z M118.5,85.5h0.5v-2h2v2h0.5v-4.2H121v1.8h-2v-1.8h-0.5V85.5z M123.1,83.8l0.2-0.7
		c0.2-0.5,0.3-0.9,0.4-1.4l0,0c0.1,0.5,0.3,1,0.4,1.4l0.2,0.7H123.1z M125,85.5h0.5l-1.4-4.2h-0.5l-1.4,4.2h0.5l0.4-1.3h1.6
		L125,85.5z M126.7,85.5h0.5v-3.8h1.3v-0.4h-3.1v0.4h1.3C126.7,81.7,126.7,85.5,126.7,85.5z M130.5,85.5h0.4v-2.4
		c0-0.4,0-0.9-0.1-1.2l0,0l0.3,1l0.8,2.3h0.3l0.8-2.3l0.3-1l0,0c0,0.4-0.1,0.9-0.1,1.2v2.4h0.4v-4.2H133l-0.8,2.3
		c-0.1,0.3-0.2,0.6-0.3,0.9l0,0c-0.1-0.3-0.2-0.6-0.3-0.9l-0.8-2.3h-0.6v4.2H130.5z M135.1,85.5h0.4v-2.4c0-0.4,0-0.9-0.1-1.2l0,0
		l0.3,1l0.8,2.3h0.3l0.8-2.3l0.3-1l0,0c0,0.4-0.1,0.9-0.1,1.2v2.4h0.4v-4.2h-0.6l-0.8,2.3c-0.1,0.3-0.2,0.6-0.3,0.9l0,0
		c-0.1-0.3-0.2-0.6-0.3-0.9l-0.8-2.3h-0.6v4.2H135.1z M139.7,85.5h2.3v-0.4h-0.9v-3.8h-0.4c-0.2,0.1-0.5,0.2-0.8,0.3v0.3h0.7v3.2
		h-0.9L139.7,85.5L139.7,85.5z"/>
</g>
<g id="gge275_3">
	<path class="st2" d="M124.8,75.2l-0.2,0.1l-0.2,0.2l-0.1,0.2l-0.1,0.3v0.5l0.1,0.3l0.1,0.2l0.2,0.2l0.2,0.1h0.4l0.2-0.1l0.2-0.2
		l0.1-0.2l0.1-0.3V76l-0.1-0.3l-0.1-0.2l-0.2-0.2l-0.2-0.1L124.8,75.2 M126.4,75.2v2.1 M126.4,75.2h1.3 M126.4,76.2h0.8 M128.3,75.2
		v2.1 M128.3,75.2h1.3 M128.3,76.2h0.8"/>
</g>
<g id="gge276_3">
	<path class="st3" d="M22.7,19.2l0.2,0.3l0.5,0.5H20"/>
</g>
<g id="gge277_3">
	<path class="st3" d="M22.6,55.2l0.2,0.3l0.5,0.5h-3.4"/>
</g>
<g id="gge278_3">
	<path class="st3" d="M23.2,52l-2.3-1.6v2.5 M23.2,52h-3.4"/>
</g>
<g id="gge279_3">
	<path class="st3" d="M23.2,116l-0.2-0.5l-0.3-0.2h-0.3l-0.3,0.2l-0.2,0.3l-0.2,0.7l-0.2,0.5l-0.3,0.3l-0.3,0.2h-0.5l-0.3-0.2
		l-0.2-0.2l-0.2-0.5v-0.7l0.2-0.5l0.2-0.2l0.3-0.2h0.5l0.3,0.2l0.3,0.3l0.2,0.5l0.2,0.7l0.2,0.3l0.3,0.2h0.3L23,117l0.2-0.5V116"/>
</g>
<g id="gge280_3">
	<path class="st3" d="M178,129.4l-0.5,0.3l-0.5,0.5l-0.3,0.5v1.1l0.3,0.5l0.5,0.5l0.5,0.3l0.8,0.3h1.3l0.8-0.3l0.5-0.3l0.5-0.5
		l0.3-0.5v-1.1l-0.3-0.5l-0.5-0.5l-0.5-0.3 M176.7,127.7l0.3-0.3l-0.3-0.3l-0.3,0.3L176.7,127.7 M178.5,127.4h3.7 M178.5,122.3h3.7
		 M179.3,122.3l-0.5,0.5l-0.3,0.5v0.8l0.3,0.5l0.5,0.5l0.8,0.3h0.5l0.8-0.3l0.5-0.5l0.3-0.5v-0.8l-0.3-0.5l-0.5-0.5 M178.5,120.6
		h3.7 M179.6,120.6l-0.8-0.8l-0.3-0.5v-0.8l0.3-0.5l0.8-0.3h2.6"/>
</g>
<g id="gge281_3">
	<path class="st3" d="M176.7,95h5.5 M176.7,91.3h5.5 M179.3,95v-3.7 M178.5,86.4h3.7 M179.3,86.4l-0.5,0.5l-0.3,0.5v0.8l0.3,0.5
		l0.5,0.5l0.8,0.3h0.5l0.8-0.3l0.5-0.5l0.3-0.5v-0.8l-0.3-0.5l-0.5-0.5 M178.5,84.7h3.7 M179.6,84.7l-0.8-0.8l-0.3-0.5v-0.8l0.3-0.5
		l0.8-0.3h2.6 M179.3,77.2l-0.5,0.3l-0.3,0.8v0.8l0.3,0.8l0.5,0.3l0.5-0.3l0.3-0.5l0.3-1.3l0.3-0.5l0.5-0.3h0.3l0.5,0.3l0.3,0.8v0.8
		L182,80l-0.5,0.3"/>
</g>
<g id="gge282_3">
	<path class="st3" d="M176.7,51.6h5.5 M176.7,51.6v-2.4l0.3-0.8l0.3-0.3l0.5-0.3h0.8l0.5,0.3l0.3,0.3l0.3,0.8v2.4 M180.1,46.3v-3.1
		h-0.5l-0.5,0.3l-0.3,0.3l-0.3,0.5v0.8l0.3,0.5l0.5,0.5L180.1,46.3h0.5l0.8-0.3l0.5-0.5l0.3-0.5v-0.8l-0.3-0.5l-0.5-0.5 M176.7,40.6
		h4.4l0.8-0.3l0.3-0.5v-0.5 M178.5,41.4v-1.8 M180.1,37.6v-3.1h-0.5l-0.5,0.3l-0.3,0.3l-0.3,0.5v0.8l0.3,0.5l0.5,0.5L180.1,37.6h0.5
		l0.8-0.3l0.5-0.5l0.3-0.5v-0.8l-0.3-0.5l-0.5-0.5 M178.5,32.7h3.7 M180.1,32.7l-0.8-0.3l-0.5-0.5l-0.3-0.5v-0.8"/>
</g>
<g id="gge2372_3">
	<path class="st1" d="M139.8,140.6h0.7c0.7,0,1.1,0.2,1.1,0.8s-0.4,0.8-1.1,0.8h-0.7V140.6z M142.2,144.4l-1.1-1.9
		c0.6-0.1,1-0.5,1-1.2c0-0.9-0.6-1.2-1.5-1.2h-1.3v4.2h0.5v-1.7h0.8l1.1,1.8L142.2,144.4L142.2,144.4z M144,144.5
		c0.8,0,1.4-0.6,1.4-1.6s-0.7-1.6-1.4-1.6c-0.8,0-1.4,0.6-1.4,1.6S143.2,144.5,144,144.5z M144,144.1c-0.6,0-1-0.5-1-1.2
		s0.4-1.2,1-1.2s1,0.5,1,1.2S144.6,144.1,144,144.1z M147.6,144.5c0.7,0,1.4-0.6,1.4-1.7c0-1-0.4-1.6-1.2-1.6c-0.4,0-0.7,0.2-1,0.4
		V141v-1.3h-0.5v4.6h0.4l0.1-0.3l0,0C147,144.4,147.3,144.5,147.6,144.5z M147.6,144.1c-0.2,0-0.5-0.1-0.8-0.3v-1.7
		c0.3-0.3,0.6-0.4,0.9-0.4c0.6,0,0.9,0.5,0.9,1.2C148.5,143.6,148.1,144.1,147.6,144.1z M151,144.5c0.8,0,1.4-0.6,1.4-1.6
		s-0.7-1.6-1.4-1.6c-0.8,0-1.4,0.6-1.4,1.6S150.3,144.5,151,144.5z M151,144.1c-0.6,0-0.9-0.5-0.9-1.2s0.4-1.2,0.9-1.2
		c0.6,0,1,0.5,1,1.2S151.6,144.1,151,144.1z M154.6,144.4h0.5v-2h2v2h0.5v-4.2h-0.5v1.8h-2v-1.8h-0.5V144.4z M159.2,142.7l0.2-0.7
		c0.2-0.5,0.3-0.9,0.4-1.4l0,0c0.1,0.5,0.3,1,0.4,1.4l0.2,0.7H159.2z M161.1,144.4h0.5l-1.4-4.2h-0.5l-1.4,4.2h0.5l0.4-1.3h1.6
		L161.1,144.4z M162.8,144.4h0.5v-3.8h1.3v-0.4h-3.1v0.4h1.3V144.4z M139.3,153.1h0.4v-2.5c0-0.4,0-0.9-0.1-1.2l0,0l0.3,1l0.8,2.3
		h0.3l0.8-2.3l0.3-1l0,0c0,0.4-0.1,0.9-0.1,1.2v2.4h0.4v-4.2h-0.6l-0.8,2.3c-0.1,0.3-0.2,0.6-0.3,0.9l0,0c-0.1-0.3-0.2-0.6-0.3-0.9
		l-0.8-2.3H139v4.3H139.3z M143.9,153.1h0.4v-2.5c0-0.4,0-0.9-0.1-1.2l0,0l0.3,1l0.8,2.3h0.3l0.8-2.3l0.3-1l0,0
		c0,0.4-0.1,0.9-0.1,1.2v2.4h0.4v-4.2h-0.6l-0.8,2.3c-0.1,0.3-0.2,0.6-0.3,0.9l0,0c-0.1-0.3-0.2-0.6-0.3-0.9l-0.8-2.3h-0.6v4.3
		H143.9z M148.5,153.1h2.3v-0.4h-0.9v-3.8h-0.4c-0.2,0.1-0.5,0.2-0.8,0.3v0.3h0.7v3.2h-0.9L148.5,153.1L148.5,153.1z M153.6,153.1
		h0.5l1.1-3.1h-0.5l-0.6,1.8c-0.1,0.3-0.2,0.6-0.3,0.9l0,0c-0.1-0.3-0.2-0.6-0.3-0.9l-0.6-1.8h-0.5L153.6,153.1z M155.6,153.1h2.6
		v-0.4H157c-0.2,0-0.5,0-0.7,0c1-1,1.7-1.8,1.7-2.7c0-0.7-0.5-1.2-1.2-1.2c-0.5,0-0.9,0.2-1.2,0.6l0.3,0.3c0.2-0.3,0.5-0.5,0.9-0.5
		c0.5,0,0.8,0.4,0.8,0.9c0,0.7-0.6,1.6-1.9,2.8v0.2L155.6,153.1L155.6,153.1z M159.3,153.1c0.2,0,0.4-0.1,0.4-0.4
		c0-0.2-0.2-0.4-0.4-0.4s-0.4,0.2-0.4,0.4C159,153,159.1,153.1,159.3,153.1z M160.7,151.5l1-1.5c0.1-0.2,0.2-0.4,0.3-0.6l0,0
		c0,0.2,0,0.5,0,0.7v1.4L160.7,151.5L160.7,151.5z M163.1,151.5h-0.6v-2.7H162l-1.8,2.7v0.3h1.9v1.2h0.4v-1.2h0.6L163.1,151.5
		L163.1,151.5z"/>
</g>
<g id="gge595_3">
	<path class="st4" d="M107.2,129.3v2.6 M105.8,130.7h2.6 M109.5,128.9v3.1 M109.5,128.9h1.3l0.4,0.1l0.1,0.2l0.2,0.3v0.3l-0.2,0.3
		l-0.1,0.2l-0.4,0.1 M109.5,130.4h1.3l0.4,0.2l0.1,0.1l0.2,0.3v0.4l-0.2,0.3l-0.1,0.2l-0.4,0.1h-1.3 M113.7,128.9l-1.2,3.1
		 M113.7,128.9l1.2,3.1 M112.9,131h1.5 M116.9,128.9v3.1 M115.8,128.9h2.1"/>
</g>
<g id="gge603_3">
	<path class="st4" d="M136.1,128.6l-0.3,0.2l-0.3,0.3l-0.1,0.3v0.6l0.1,0.3l0.3,0.3l0.3,0.2l0.4,0.1h0.7l0.4-0.1l0.3-0.2l0.3-0.3
		l0.1-0.3v-0.6l-0.1-0.3l-0.3-0.3l-0.2-0.2h-0.4 M137.3,129.4v-0.8 M135.4,127.7h3.1 M135.4,127.7l3.1-2.1 M135.4,125.6h3.1
		 M135.4,124.6h3.1 M135.4,124.6v-1l0.1-0.4l0.3-0.3l0.3-0.1l0.4-0.2h0.7l0.4,0.2l0.3,0.1l0.3,0.3l0.1,0.4v1"/>
</g>
<g id="gge607_3">
	<path class="st4" d="M45.7,106.5h1.6l-0.9,1.2h0.4l0.3,0.2l0.2,0.1l0.1,0.4v0.3l-0.1,0.4l-0.3,0.3l-0.4,0.1h-0.4l-0.4-0.1l-0.2-0.2
		l-0.1-0.3 M48.4,106.5l1.2,3.1 M50.8,106.5l-1.2,3.1 M52,106.5h1.6l-0.9,1.2h0.4l0.3,0.2l0.2,0.1l0.1,0.4v0.3l-0.1,0.4l-0.3,0.3
		l-0.4,0.1h-0.4l-0.4-0.1l-0.2-0.2l-0.1-0.3"/>
</g>
<g id="gge611_3">
	<path class="st4" d="M30.6,114.1l-0.2-0.3l-0.3-0.3l-0.3-0.1h-0.6l-0.3,0.1l-0.3,0.3l-0.2,0.3l-0.1,0.4v0.7l0.1,0.4l0.2,0.3
		l0.3,0.3l0.3,0.1h0.6l0.3-0.1l0.3-0.3l0.2-0.3v-0.4 M29.9,115.3h0.7 M31.6,113.4v3.1 M31.6,113.4l2.1,3.1 M33.7,113.4v3.1
		 M34.7,113.4v3.1 M34.7,113.4h1l0.4,0.1l0.3,0.3l0.1,0.3l0.2,0.5v0.7l-0.2,0.4l-0.1,0.3l-0.3,0.3l-0.4,0.1h-1"/>
</g>
<g id="gge615_3">
	<path class="st4" d="M159.5,91.1v-1.6l1.2,0.9V90l0.2-0.3l0.1-0.2l0.4-0.1h0.3l0.4,0.1l0.3,0.3l0.1,0.4v0.4l-0.1,0.4l-0.2,0.2
		l-0.3,0.1 M159.5,88.4l3.1-1.2 M159.5,86l3.1,1.2 M159.5,84.8v-1.6l1.2,0.9v-0.5l0.2-0.3l0.1-0.2l0.4-0.1h0.3l0.4,0.1l0.3,0.3
		l0.1,0.4v0.4l-0.1,0.4l-0.2,0.2l-0.3,0.1"/>
</g>
<g id="gge628_3">
	<path class="st4" d="M84,90.4v2.1 M84,93.2l-0.1,0.2l0.1,0.1l0.2-0.1L84,93.2 M86.3,90.4l-1.2,3.1 M86.3,90.4l1.2,3.1 M85.6,92.4
		h1.5 M89.4,90.4L89,90.5l-0.3,0.4l-0.2,0.7V92l0.2,0.7l0.3,0.4l0.4,0.1h0.3l0.4-0.1l0.3-0.4l0.2-0.7v-0.4l-0.2-0.7l-0.3-0.4
		l-0.4-0.1H89.4"/>
</g>
<g id="gge634_3">
	<path class="st4" d="M33.4,95.4v2.1 M33.4,98.2l-0.1,0.2l0.1,0.1l0.2-0.1L33.4,98.2 M35.7,95.4l-1.2,3.1 M35.7,95.4l1.2,3.1
		 M35,97.5h1.5 M38.8,95.4l-0.4,0.1l-0.3,0.4l-0.2,0.7V97l0.2,0.7l0.3,0.4l0.4,0.1h0.3l0.4-0.1l0.3-0.4L40,97v-0.4l-0.2-0.7
		l-0.3-0.4l-0.4-0.1H38.8"/>
</g>
<g id="gge640_3">
	<path class="st4" d="M60.6,95.1l-1.2,3.1 M60.6,95.1l1.2,3.1 M59.9,97.1h1.5 M62.8,95.6l0.3-0.1l0.4-0.4v3.1"/>
</g>
<g id="gge647_3">
	<path class="st4" d="M57.2,18.3v2.1 M57.2,19.2l0.1-0.4l0.3-0.3l0.3-0.1h0.4 M59.4,19.2h1.8v-0.3L61,18.6l-0.2-0.2l-0.3-0.1h-0.4
		l-0.3,0.1l-0.3,0.3L59.4,19.2v0.3l0.1,0.4l0.3,0.3l0.3,0.1h0.4l0.3-0.1l0.3-0.3 M63.7,18.7l-0.1-0.3l-0.4-0.1h-0.5l-0.4,0.1
		l-0.2,0.3l0.2,0.3l0.3,0.1l0.7,0.2l0.3,0.1l0.1,0.3v0.2l-0.1,0.3l-0.4,0.1h-0.5l-0.4-0.1l-0.2-0.3 M64.7,19.2h1.8v-0.3l-0.2-0.3
		l-0.1-0.2l-0.3-0.1h-0.4l-0.3,0.1l-0.3,0.3L64.7,19.2v0.3l0.2,0.4l0.3,0.3l0.3,0.1h0.4l0.3-0.1l0.3-0.3 M67.9,17.3v2.5l0.1,0.4
		l0.3,0.1h0.3 M67.5,18.3h1"/>
</g>
<g id="gge650_3">
	<path class="st4" d="M29.1,25.9H26 M29.1,25.9v1.3L29,27.6l-0.1,0.2l-0.3,0.1h-0.3L28,27.8l-0.2-0.2l-0.1-0.4v-1.3 M27.7,26.9
		l-1.6,1 M28.4,31.1l0.3-0.1l0.3-0.3l0.1-0.3v-0.6L29,29.5l-0.3-0.3l-0.3-0.1L28,28.9h-0.7l-0.4,0.2l-0.3,0.1l-0.3,0.3l-0.1,0.3v0.6
		l0.1,0.3l0.3,0.3l0.3,0.1 M28.4,34.3l0.3-0.1l0.3-0.3l0.1-0.3V33L29,32.7l-0.3-0.3l-0.3-0.1L28,32.1h-0.7l-0.4,0.2l-0.3,0.1
		l-0.3,0.3L26.2,33v0.6l0.1,0.3l0.3,0.3l0.3,0.1"/>
</g>
<g id="gge684_3">
	<path class="st4" d="M134,95.4v1.5l1.3,0.2l-0.2-0.2l-0.1-0.4v-0.4l0.1-0.4l0.3-0.3l0.4-0.1h0.3l0.4,0.1l0.3,0.3l0.1,0.4v0.4
		l-0.1,0.4l-0.2,0.2l-0.3,0.1 M134,94.2l3.1-1.2 M134,91.8l3.1,1.2"/>
</g>
<g id="gge688_3">
	<path class="st4" d="M28,39.6h-1.5l-0.2,1.3l0.2-0.2l0.4-0.1h0.4l0.4,0.1L28,41l0.1,0.4v0.3L28,42.1l-0.3,0.3l-0.4,0.1h-0.4
		l-0.4-0.1l-0.2-0.2l-0.1-0.3 M29.3,39.6l1.2,3.1 M31.7,39.6l-1.2,3.1"/>
</g>
<g id="gge691_3">
	<path class="st4" d="M54.5,128.9v3.1 M54.5,128.9h1.3l0.4,0.1l0.2,0.1l0.1,0.3v0.4l-0.1,0.3l-0.2,0.1l-0.4,0.2h-1.3 M57.6,128.9
		l0.7,3.1 M59,128.9l-0.7,3.1 M59,128.9l0.7,3.1 M60.5,128.9l-0.7,3.1 M61.5,128.9v3.1 M61.5,128.9h1.3l0.4,0.1l0.1,0.1l0.2,0.3v0.3
		l-0.2,0.3l-0.1,0.2l-0.4,0.1h-1.3 M62.5,130.4l1,1.6 M68.1,129.3v2.6 M66.8,130.7h2.6"/>
</g>
<g id="gge700_3">
	<path class="st4" d="M79,128.9v3.1 M79,128.9h1.9 M79,130.4h1.2 M79,132h1.9 M84,129.3l-0.3-0.3l-0.4-0.1h-0.6l-0.4,0.1l-0.3,0.3
		v0.3l0.1,0.3l0.2,0.1l0.3,0.2l0.9,0.3l0.3,0.1l0.2,0.1l0.1,0.3v0.4l-0.3,0.3l-0.4,0.1h-0.6l-0.4-0.1l-0.3-0.3 M87.1,129.6l-0.1-0.3
		l-0.3-0.3l-0.3-0.1h-0.6l-0.3,0.1l-0.3,0.3l-0.1,0.3l-0.2,0.4v0.7l0.2,0.4l0.1,0.3l0.3,0.3l0.3,0.1h0.6l0.3-0.1l0.3-0.3l0.1-0.3
		 M91.7,129.3v2.6 M90.4,130.7H93"/>
</g>
<g id="gge711_3">
	<path class="st4" d="M110.6,117.7l-0.2-0.3l-0.3-0.3l-0.3-0.1h-0.6l-0.3,0.1l-0.3,0.3l-0.2,0.3l-0.1,0.4v0.7l0.1,0.4l0.2,0.3
		l0.3,0.3l0.3,0.1h0.6l0.3-0.1l0.3-0.3l0.2-0.3 M111.5,117v3.1 M113.6,117v3.1 M111.5,118.5h2.1 M114.6,117v3.1 M114.6,117h1.3
		l0.4,0.1l0.1,0.1l0.2,0.3v0.3l-0.2,0.3l-0.1,0.2l-0.4,0.1h-1.3 M115.6,118.5l1,1.6 M119.8,117.7l-0.1-0.3l-0.3-0.3l-0.3-0.1h-0.6
		l-0.3,0.1l-0.3,0.3l-0.1,0.3l-0.1,0.4v0.7l0.1,0.4l0.1,0.3l0.3,0.3l0.3,0.1h0.6l0.3-0.1l0.3-0.3l0.1-0.3v-0.4 M119.1,118.9h0.7"/>
</g>
<g id="gge719_3">
	<path class="st4" d="M29.1,49.7L26,50.9 M29.1,52L26,50.8 M28.7,55.1l0.3-0.3l0.1-0.4v-0.6L29,53.4L28.7,53h-0.3l-0.3,0.2L28,53.3
		l-0.2,0.3l-0.3,0.9l-0.1,0.3l-0.1,0.1L27,55.1h-0.4l-0.3-0.3l-0.1-0.4v-0.6l0.1-0.4l0.3-0.3 M29.1,56H26 M29.1,56v1.9 M27.7,56v1.2
		 M26,56v1.9 M29.1,58.9H26 M29.1,58.9v1.3L29,60.6l-0.1,0.1l-0.3,0.2h-0.3L28,60.7l-0.2-0.1l-0.1-0.4v-1.3 M27.7,59.9l-1.6,1
		 M29.1,61.9L26,63.1 M29.1,64.3L26,63.1 M29.1,66.2L29,65.9l-0.3-0.3l-0.3-0.1L28,65.3h-0.7l-0.4,0.2l-0.4,0.1l-0.3,0.3l-0.1,0.3
		v0.6l0.1,0.3l0.3,0.3l0.3,0.1l0.4,0.1h0.7l0.4-0.1l0.3-0.1l0.3-0.3l0.1-0.3v-0.6"/>
</g>
<g id="gge723_3">
	<path class="st4" d="M37.3,49.7l-3.1,1.2 M37.3,52l-3.1-1.2 M37.3,53h-3.1 M37.3,53l-3.1,2.1 M37.3,55.1h-3.1 M37.3,56h-3.1
		 M37.3,56v1.9 M35.8,56v1.2 M34.2,56v1.9 M37.3,59.8l-0.1-0.3l-0.3-0.3l-0.3-0.1L36.2,59h-0.7l-0.4,0.1l-0.3,0.1l-0.3,0.3l-0.1,0.3
		v0.6l0.1,0.3l0.3,0.3l0.3,0.1l0.4,0.2h0.7l0.4-0.2l0.3-0.1l0.3-0.3l0.1-0.3V59.8 M37.3,62.2h-3.1 M37.3,62.2v1.4L37.2,64l-0.1,0.2
		l-0.4,0.1h-0.4L36,64.2L35.9,64l-0.2-0.4v-1.3 M37.3,65.3h-3.1 M37.3,66.2l-3.1,2.1 M37.3,68.3l-3.1-2.1"/>
</g>
<g id="gge730_3">
	<path class="st4" d="M7.8,121.7H4.7 M7.8,121.7v1.3l-0.1,0.4l-0.1,0.2l-0.3,0.1H6.7l-0.3-0.1l-0.1-0.2L6.1,123v-1.3 M7.8,125.6
		l-0.1-0.3L7.4,125l-0.3-0.1l-0.4-0.2H6l-0.4,0.2L5.3,125L5,125.3l-0.3,0.3v0.6l0.1,0.3l0.3,0.3l0.3,0.1l0.4,0.2h0.7l0.4-0.2
		l0.3-0.1l0.3-0.3l0.1-0.3v-0.6 M7.8,128l-3.1,0.7 M7.8,129.5l-3.1-0.7 M7.8,129.5l-3.1,0.7 M7.8,131l-3.1-0.7 M7.8,131.9H4.7
		 M7.8,131.9v1.9 M6.3,131.9v1.2 M4.7,131.9v1.9 M7.8,134.8H4.7 M7.8,134.8v1.3l-0.1,0.4l-0.1,0.2l-0.3,0.1H7l-0.3-0.1l-0.2-0.2
		l-0.1-0.4v-1.3 M6.3,135.9l-1.6,1"/>
</g>
<g id="gge744_3">
	<path class="st4" d="M144.4,105.1v3.1 M144.4,105.1h1.3l0.4,0.2l0.2,0.1l0.1,0.3v0.3l-0.1,0.3l-0.2,0.1l-0.4,0.2h-1.3 M145.4,106.6
		l1,1.6 M147.4,105.1v3.1 M147.4,105.1h1.9 M147.4,106.6h1.2 M147.4,108.2h1.9 M152.3,105.6l-0.3-0.3l-0.4-0.2H151l-0.4,0.2
		l-0.3,0.3v0.3l0.2,0.3l0.1,0.2l0.3,0.1l0.9,0.3l0.3,0.2l0.1,0.1l0.2,0.3v0.4l-0.3,0.3l-0.4,0.2h-0.6l-0.4-0.2l-0.3-0.3
		 M153.3,105.1v3.1 M153.3,105.1h1.9 M153.3,106.6h1.2 M153.3,108.2h1.9 M157.2,105.1v3.1 M156.2,105.1h2.1"/>
</g>
<g id="gge763_3">
	<path class="st4" d="M28.8,148.3v2.2l0.2,0.4l0.3,0.3l0.4,0.1H30l0.4-0.1l0.3-0.3l0.2-0.4v-2.2 M33.9,148.7l-0.3-0.3l-0.4-0.1h-0.6
		l-0.4,0.1l-0.3,0.3v0.3l0.1,0.3l0.2,0.1l0.3,0.2l0.9,0.3l0.3,0.1l0.2,0.1l0.1,0.3v0.4l-0.3,0.3l-0.4,0.1h-0.6l-0.4-0.1l-0.3-0.3
		 M34.9,148.3v3.1 M34.9,148.3h1.3l0.4,0.1l0.2,0.1l0.1,0.3v0.3l-0.1,0.3l-0.2,0.2l-0.4,0.1 M34.9,149.8h1.3l0.4,0.2l0.2,0.1
		l0.1,0.3v0.4l-0.1,0.3l-0.2,0.2l-0.4,0.1h-1.3"/>
</g>
<g id="gge781_3">
	<path class="st4" d="M28.4,121.1v2.2l0.1,0.4l0.3,0.3l0.4,0.1h0.3l0.4-0.1l0.3-0.3l0.1-0.4v-2.2 M33.5,121.5l-0.3-0.3l-0.4-0.1
		h-0.6l-0.4,0.1l-0.3,0.3v0.3l0.2,0.3l0.1,0.1l0.3,0.2l0.9,0.3l0.3,0.1l0.1,0.1l0.2,0.3v0.4l-0.3,0.3l-0.4,0.1h-0.6l-0.4-0.1
		l-0.3-0.3 M34.5,121.1v3.1 M34.5,121.1h1.3l0.4,0.1l0.2,0.1l0.1,0.3v0.3l-0.1,0.3l-0.2,0.2l-0.4,0.1 M34.5,122.6h1.3l0.4,0.2
		l0.2,0.1l0.1,0.3v0.4l-0.1,0.3l-0.2,0.2l-0.4,0.1h-1.3"/>
</g>
<g id="gge787_3">
	<path class="st4" d="M29.3,81.6l0.3-0.3l0.1-0.4v-0.6l-0.1-0.4l-0.3-0.3H29l-0.3,0.1l-0.1,0.2l-0.2,0.3l-0.3,0.9L28,81.4l-0.1,0.2
		h-0.4h-0.4l-0.3-0.3l-0.1-0.4v-0.6l0.1-0.4l0.3-0.3 M29.7,82.6h-3.1 M29.7,82.6v1.9 M28.3,82.6v1.2 M26.6,82.6v1.9 M29.7,85.5h-3.1
		 M29.7,85.5v1.3l-0.1,0.4l-0.1,0.1l-0.3,0.2h-0.3l-0.3-0.2l-0.2-0.1l-0.1-0.4v-1.3 M28.3,86.5l-1.6,1 M29.7,88.5l-3.1,1.2
		 M29.7,90.9l-3.1-1.2 M29.7,92.7l-0.1-0.3l-0.3-0.3L29,91.9l-0.4-0.1h-0.7l-0.4,0.1l-0.3,0.2l-0.3,0.3l-0.1,0.3v0.6l0.1,0.3
		l0.3,0.3l0.3,0.2l0.4,0.1h0.7l0.4-0.1l0.3-0.2l0.3-0.3l0.1-0.3L29.7,92.7"/>
</g>
<g id="gge846_3">
	<path class="st4" d="M43.6,52.2v2.1 M43.6,52.8l0.4-0.4l0.3-0.1h0.4l0.3,0.1l0.1,0.4v1.5 M46.2,53H48v-0.3l-0.1-0.3l-0.1-0.2
		l-0.3-0.1h-0.4l-0.3,0.1l-0.5,0.4L46.2,53v0.3l0.1,0.4l0.3,0.3l0.3,0.1h0.4l0.3-0.1l0.3-0.3 M49.6,52.2l-0.3,0.1L49,52.6L48.8,53
		v0.3l0.2,0.4l0.3,0.3l0.3,0.1H50l0.3-0.1l0.3-0.3l0.1-0.4V53v-0.4l-0.3-0.3l-0.3-0.1H49.6 M51.8,52.2v3.1 M51.8,52.6l0.3-0.3
		l0.3-0.1h0.4l0.3,0.1l0.3,0.3l0.2,0.4v0.3l-0.2,0.4L53.1,54l-0.3,0.1h-0.4L52.1,54l-0.3-0.3 M54.5,51.1L54.5,51.1h0.3L54.7,51
		L54.5,51.1 M54.7,52.2v2.1 M55.8,52.2l1.6,2.1 M57.4,52.2l-1.6,2.1 M58.4,53h1.8v-0.3l-0.1-0.3l-0.2-0.2l-0.3-0.1h-0.4l-0.3,0.1
		l-0.4,0.4L58.4,53v0.3l0.1,0.4l0.3,0.3l0.3,0.1h0.4l0.3-0.1l0.3-0.3 M61.1,51.1v3.1"/>
</g>
<g id="gge864_3">
	<path class="st4" d="M83.9,35.8L83.9,35.8h0.3L84,35.6L83.9,35.8 M84,36.9V39 M87.2,36.3L86.9,36l-0.4-0.1h-0.6L85.5,36l-0.3,0.3
		v0.3l0.1,0.3l0.2,0.1l0.3,0.2l0.9,0.3l0.3,0.1l0.2,0.2l0.1,0.3v0.4L87,38.8l-0.4,0.1H86l-0.4-0.1l-0.3-0.3 M90.4,36.6l-0.1-0.3
		L90,36l-0.3-0.2h-0.6l-0.3,0.1l-0.3,0.3l-0.2,0.4L88.1,37v0.7l0.2,0.4l0.1,0.3l0.3,0.3l0.3,0.1h0.7l0.3-0.1l0.3-0.3l0.1-0.3
		 M91.4,35.8v3.1 M91.4,38.9h1.8"/>
</g>
<g id="gge872_3">
	<path class="st4" d="M66.8,35.8L66.8,35.8h0.3l-0.2-0.2L66.8,35.8 M66.9,36.8v2.1 M70.1,36.2l-0.3-0.3l-0.4-0.1h-0.6l-0.4,0.1
		l-0.3,0.3v0.3l0.1,0.3l0.2,0.1l0.3,0.2l0.9,0.3l0.3,0.1l0.2,0.2l0.1,0.3v0.4l-0.3,0.3l-0.4,0.1h-0.6l-0.4-0.1l-0.3-0.3 M71.1,35.8
		v3.1 M71.1,35.8h1l0.4,0.1l0.3,0.3l0.1,0.3l0.2,0.4v0.7L72.9,38l-0.1,0.3l-0.3,0.3l-0.4,0.1h-1 M75.3,35.8l-1.2,3.1 M75.3,35.8
		l1.2,3.1 M74.6,37.8h1.5"/>
</g>
<g id="gge878_3">
	<path class="st4" d="M146.5,78.5v3.1 M146.5,81.6h1.8 M149.3,78.5v3.1 M149.3,78.5h1.9 M149.3,79.9h1.2 M149.3,81.6h1.9
		 M152.1,78.5v3.1 M152.1,78.5h1l0.4,0.2l0.3,0.3l0.2,0.3l0.1,0.4v0.7l-0.1,0.4l-0.2,0.3l-0.3,0.3l-0.4,0.2h-1"/>
</g>
<g id="gge885_3">
	<path class="st4" d="M65.2,109.9H67v-0.3l-0.1-0.3l-0.1-0.2l-0.3-0.1h-0.4l-0.3,0.1l-0.3,0.3L65.2,109.9v0.3l0.1,0.4l0.3,0.3
		l0.3,0.1h0.4l0.3-0.1l0.3-0.3 M67.9,109.7h2.7 M73.1,109.5l-0.2-0.3l-0.4-0.1h-0.4l-0.4,0.1l-0.1,0.3l0.1,0.3l0.3,0.1l0.7,0.2
		l0.3,0.1l0.2,0.3v0.2L73,111l-0.4,0.1h-0.4l-0.4-0.1l-0.1-0.3 M74.6,108v2.5l0.1,0.4L75,111h0.3 M74.1,109h1 M77,109l-0.3,0.1
		l-0.3,0.3l-0.2,0.4v0.3l0.2,0.4l0.3,0.3l0.3,0.1h0.4l0.3-0.1l0.3-0.3l0.1-0.4v-0.3l-0.1-0.4l-0.3-0.3l-0.3-0.1H77 M79.1,109v3.1
		 M79.1,109.5l0.3-0.3l0.3-0.1h0.4l0.3,0.1l0.3,0.3l0.2,0.4v0.3l-0.2,0.4l-0.3,0.3l-0.3,0.1h-0.4l-0.3-0.1l-0.3-0.3"/>
</g>
<g id="gge944_3">
	<path class="st4" d="M169.3,25.6l-0.3,0.3l-0.2,0.4v0.6l0.2,0.4l0.3,0.3h0.3l0.3-0.1l0.2-0.2l0.1-0.3l0.3-0.9l0.2-0.3l0.1-0.2
		l0.3-0.1h0.4l0.3,0.3l0.2,0.4v0.6l-0.2,0.4l-0.3,0.3 M168.9,24.7h3.1 M168.9,24.7v-1.3l0.2-0.4l0.1-0.1l0.3-0.2h0.4l0.3,0.2
		l0.2,0.1l0.1,0.4v1.3 M168.9,21.6h3.1"/>
</g>
<g id="gge953_3">
	<path class="st4" d="M25.2,121.7h-3.1 M25.2,121.7v1.3l-0.1,0.4l-0.1,0.2l-0.3,0.1h-0.4l-0.3-0.1l-0.1-0.2l-0.2-0.4v-1.3
		 M25.2,124.7l-0.1,0.2l0.1,0.1l0.2-0.1L25.2,124.7 M24.1,124.8H22 M23.4,126v2.6 M25.2,130.5l-0.1-0.3l-0.3-0.3l-0.3-0.1l-0.4-0.2
		h-0.7l-0.4,0.2l-0.3,0.1l-0.3,0.3l-0.1,0.3v0.6l0.1,0.3l0.3,0.3l0.3,0.1l0.4,0.2h0.7l0.4-0.2l0.3-0.1l0.3-0.3l0.1-0.3V130.5
		 M25.2,132.9h-3.1 M25.2,132.9l-3.1,2.1 M25.2,135h-3.1"/>
</g>
<g id="gge968_3">
	<path class="st4" d="M98.2,21.7h1.6l-0.9,1.2h0.4l0.3,0.2l0.2,0.1l0.1,0.4v0.3l-0.1,0.4l-0.3,0.3l-0.4,0.1h-0.4l-0.4-0.1l-0.2-0.2
		L98,24.1 M100.9,21.7l1.2,3.1 M103.3,21.7l-1.2,3.1 M104.6,21.7h1.6l-0.9,1.2h0.4l0.3,0.2l0.2,0.1l0.1,0.4v0.3l-0.1,0.4l-0.3,0.3
		l-0.4,0.1h-0.4l-0.4-0.1l-0.2-0.2l-0.1-0.3 M111.9,21.7v3.1 M111.9,21.7h1.3l0.4,0.1l0.2,0.1l0.1,0.3v0.4l-0.1,0.3l-0.2,0.1
		l-0.4,0.2h-1.3 M114.9,21.7l0.2,0.1l0.1-0.1l-0.1-0.2L114.9,21.7 M115,22.8v2.1"/>
</g>
<g id="gge977_3">
	<path class="st4" d="M168.8,117.1h3.1 M169.6,116h-0.2l-0.3-0.2l-0.1-0.1l-0.1-0.3v-0.6l0.1-0.3l0.1-0.1l0.3-0.2h0.3l0.3,0.2
		l0.4,0.3l1.5,1.5v-2.1 M169.6,110.9l-0.3,0.1l-0.3,0.3l-0.1,0.3v0.6l0.1,0.3l0.3,0.3l0.3,0.1l0.4,0.2h0.7l0.4-0.2l0.3-0.1l0.3-0.3
		l0.1-0.3v-0.6l-0.1-0.3l-0.3-0.3l-0.3-0.1"/>
</g>
<g id="gge992_3">
	<path class="st4" d="M170,72.3l-0.3,0.2l-0.3,0.3l-0.1,0.3v0.5l0.1,0.3l0.3,0.3l0.3,0.2l0.4,0.1h0.7l0.4-0.1l0.3-0.2l0.3-0.3
		l0.1-0.3V73l-0.1-0.3l-0.3-0.3l-0.3-0.2h-0.4 M171.1,73v-0.7 M169.2,71.3h3.1 M169.2,71.3V70l0.1-0.4l0.1-0.2l0.3-0.1h0.4l0.3,0.1
		l0.3,0.2l0.2,0.4v1.3 M169.7,66.2l-0.3,0.3l-0.1,0.4v0.7l0.1,0.4l0.3,0.3h0.3l0.3-0.2l0.1-0.1l0.2-0.3l0.3-0.9l0.1-0.3l0.1-0.1
		l0.3-0.2h0.4l0.3,0.3l0.1,0.4v0.7l-0.1,0.4l-0.3,0.3"/>
</g>
<g id="gge1004_3">
	<path class="st4" d="M146.6,125.7l-0.2-0.3l-0.3-0.3l-0.3-0.1h-0.6l-0.3,0.1l-0.3,0.3l-0.2,0.3l-0.1,0.4v0.7l0.1,0.4l0.2,0.3
		l0.3,0.3l0.3,0.1h0.6l0.3-0.1l0.3-0.3l0.2-0.3v-0.4 M145.8,126.8h0.7 M147.5,124.9v3.1 M147.5,124.9h1.3l0.4,0.1l0.2,0.1l0.1,0.3
		v0.3l-0.1,0.3l-0.2,0.2l-0.4,0.1h-1.3 M148.6,126.4l1,1.6 M151.5,124.9l-0.3,0.1l-0.3,0.3l-0.1,0.3l-0.2,0.4v0.7l0.2,0.4l0.1,0.3
		l0.3,0.3l0.3,0.1h0.6l0.3-0.1l0.3-0.3l0.1-0.3l0.1-0.4V126l-0.1-0.4l-0.1-0.3l-0.3-0.3l-0.3-0.1L151.5,124.9 M153.9,124.9l1.2,3.1
		 M156.3,124.9l-1.2,3.1 M157.2,124.9v3.1 M157.2,124.9h1.9 M157.2,126.4h1.2 M157.2,128h1.9"/>
</g>
<g id="gge1012_3">
	<path class="st4" d="M42.5,36.4v3.1 M42.5,36.4h1.3l0.4,0.1l0.2,0.1l0.1,0.3v0.4l-0.1,0.3l-0.2,0.1l-0.4,0.2h-1.3 M45.5,36.4
		l0.2,0.1l0.1-0.1l-0.1-0.2L45.5,36.4 M45.7,37.4v2.1 M46.8,38.1h2.6 M52,37.9l-0.1-0.3l-0.4-0.1h-0.4l-0.6,0.1l-0.2,0.3l0.2,0.3
		l0.3,0.1l0.7,0.2l0.3,0.1l0.1,0.3v0.2l-0.1,0.3l-0.4,0.1H51l-0.4-0.1l-0.2-0.3 M53,38.3h1.8V38l-0.2-0.3l-0.1-0.1l-0.3-0.1h-0.5
		l-0.3,0.1l-0.3,0.3L53,38.3v0.3l0.2,0.4l0.3,0.3l0.3,0.1h0.4l0.3-0.1l0.3-0.3 M55.7,37.4v2.1 M55.7,38.3l0.1-0.4l0.3-0.3l0.3-0.1
		h0.4 M57.9,36.4L57.9,36.4h0.2L58,36.2L57.9,36.4 M58,37.4v2.1 M60.9,37.4v2.1 M60.9,37.9l-0.3-0.3l-0.3-0.1h-0.4l-0.3,0.1
		l-0.3,0.3l-0.2,0.4v0.3l0.2,0.4l0.3,0.3l0.3,0.1h0.4l0.3-0.1l0.3-0.3 M61.9,36.4v3.1"/>
</g>
<g id="gge1029_3">
	<path class="st4" d="M38.4,17.3v2.5l0.2,0.4l0.3,0.1h0.3 M38,18.3h1 M40.1,18.3l1.6,2.1 M41.8,18.3l-1.6,2.1"/>
</g>
<g id="gge1036_3">
	<path class="st4" d="M48.1,18.3v2.1 M48.1,19.2l0.1-0.4l0.3-0.3l0.3-0.1h0.4 M50.2,18.3l1.6,2.1 M51.8,18.3l-1.6,2.1"/>
</g>
<g id="gge1042_3">
	<path class="st4" d="M113.9,89.3h-1.5l-0.2,1.3l0.2-0.2l0.4-0.1h0.4l0.4,0.1l0.3,0.3l0.1,0.4v0.3l-0.1,0.4l-0.3,0.3l-0.4,0.1h-0.4
		l-0.4-0.1l-0.2-0.2l-0.1-0.3 M115.2,89.3l1.2,3.1 M117.5,89.3l-1.2,3.1 M118.5,91.1h2.6 M122.1,89.3v2.2l0.1,0.4l0.3,0.3l0.4,0.1
		h0.3l0.4-0.1l0.3-0.3l0.1-0.4v-2.2 M127.2,89.8l-0.3-0.3l-0.4-0.1h-0.6l-0.4,0.1l-0.3,0.3v0.3l0.2,0.3l0.1,0.1l0.3,0.2l0.9,0.3
		l0.3,0.1l0.1,0.1l0.2,0.3v0.4l-0.3,0.3l-0.4,0.1H126l-0.4-0.1l-0.3-0.3 M128.2,89.3v3.1 M128.2,89.3h1.3l0.4,0.1l0.1,0.1l0.2,0.3
		v0.3l-0.2,0.3l-0.1,0.2l-0.4,0.1 M128.2,90.8h1.3l0.4,0.2l0.1,0.1l0.2,0.3v0.4l-0.2,0.3l-0.1,0.2l-0.4,0.1h-1.3"/>
</g>
<g id="gge1056_3">
	<path class="st4" d="M52.6,60.4v3.1 M52.6,63.4h1.8 M57.1,60.4h-1.5l-0.1,1.3l0.1-0.1l0.4-0.2h0.4l0.4,0.2l0.3,0.3l0.2,0.4v0.3
		L57.1,63l-0.3,0.3l-0.4,0.2H56l-0.4-0.2l-0.1-0.1l-0.2-0.3"/>
</g>
<g id="gge1076_3">
	<path class="st4" d="M48.9,114.3h-3.1 M48.9,114.3v1.3l-0.1,0.4l-0.1,0.2l-0.3,0.1h-0.3l-0.3-0.1l-0.2-0.2l-0.1-0.4v-1.3
		 M47.5,115.3l-1.6,1 M48.2,117.5h0.2l0.3,0.1l0.1,0.2l0.1,0.3v0.6l-0.1,0.3l-0.1,0.2l-0.3,0.1h-0.3l-0.3-0.1l-0.4-0.3l-1.5-1.5v2.1
		 M48.9,121.2l-0.1-0.4l-0.4-0.3l-0.7-0.1h-0.4l-0.7,0.1l-0.4,0.3l-0.1,0.4v0.3l0.1,0.4l0.4,0.3l0.7,0.2h0.4l0.7-0.2l0.4-0.3
		l0.1-0.4V121.2"/>
</g>
<g id="gge1168_3">
	<path class="st4" d="M147.7,24.5h-3 M147.7,24.5l-3,1.1 M147.7,26.8l-3-1.2 M147.7,26.8h-3 M147.7,28.7l-0.1-0.3l-0.3-0.3L147,28
		l-0.4-0.2h-0.7l-0.4,0.2l-0.3,0.1l-0.3,0.3l-0.1,0.3v0.6l0.1,0.3l0.3,0.3l0.3,0.1l0.4,0.2h0.7L147,30l0.3-0.1l0.3-0.3l0.1-0.3
		L147.7,28.7 M147.3,33.2l0.3-0.3l0.1-0.4v-0.6l-0.1-0.4l-0.3-0.3H147l-0.3,0.1l-0.1,0.1l-0.2,0.3l-0.3,0.9l-0.1,0.3l-0.1,0.1
		l-0.3,0.2h-0.4l-0.3-0.3l-0.1-0.4v-0.6l0.1-0.4l0.3-0.3 M147.7,34.2h-3"/>
</g>
<g id="gge1188_3">
	<path class="st4" d="M158,36.4l0.3-0.3l0.1-0.4v-0.6l-0.1-0.4l-0.3-0.3h-0.3l-0.3,0.1l-0.1,0.2l-0.2,0.3l-0.3,0.9l-0.1,0.3
		l-0.1,0.2l-0.3,0.1h-0.4l-0.3-0.3l-0.1-0.4v-0.6l0.1-0.4l0.3-0.3 M158,39.5l0.3-0.3l0.1-0.4v-0.6l-0.1-0.4l-0.3-0.3h-0.3l-0.3,0.2
		l-0.1,0.1l-0.2,0.3l-0.3,0.9l-0.1,0.3l-0.1,0.1l-0.3,0.2h-0.4l-0.3-0.3l-0.1-0.4v-0.6l0.1-0.4l0.3-0.3 M157.8,40.4l0.1,0.3l0.4,0.4
		h-3.1"/>
</g>
<g id="gge1208_3">
	<path class="st4" d="M158.6,21.2h-3.1 M158.6,21.2l-3.1,1.2 M158.6,23.6l-3.1-1.2 M158.6,23.6h-3.1 M158.6,24.6h-3.1 M158.2,27.6
		l0.3-0.3l0.1-0.4v-0.6l-0.1-0.4l-0.3-0.3h-0.3l-0.3,0.2l-0.1,0.1l-0.2,0.3l-0.3,0.9l-0.1,0.3l-0.1,0.1l-0.3,0.1h-0.4l-0.3-0.3
		l-0.1-0.4v-0.6l0.1-0.4l0.3-0.3 M158.6,29.4l-0.1-0.3l-0.3-0.3l-0.3-0.1l-0.4-0.2h-0.8l-0.4,0.2l-0.3,0.1l-0.3,0.3l-0.1,0.3V30
		l0.1,0.3l0.3,0.3l0.3,0.1l0.4,0.2h0.7l0.4-0.2l0.3-0.1l0.3-0.3l0.1-0.3L158.6,29.4"/>
</g>
<g id="gge1228_3">
	<path class="st4" d="M136.4,23.5l0.3-0.3l0.1-0.4v-0.6l-0.1-0.4l-0.3-0.3h-0.3l-0.3,0.1l-0.1,0.2l-0.2,0.3l-0.3,0.9l-0.1,0.3
		l-0.1,0.2l-0.3,0.1h-0.4l-0.3-0.3l-0.1-0.4v-0.6l0.1-0.4l0.3-0.3 M136.1,26.6l0.3-0.1l0.3-0.3l0.1-0.3v-0.6l-0.1-0.3l-0.3-0.3
		l-0.3-0.1l-0.4-0.2H135l-0.4,0.2l-0.3,0.1L134,25l-0.1,0.3v0.6l0.1,0.3l0.3,0.3l0.3,0.1 M136.8,27.6h-3.1 M133.7,27.6v1.8
		 M136.8,30.4h-3.1 M136.8,32.4l-2.1-2.1 M135.5,31.1l-1.8,1.3"/>
</g>
<g id="gge1232_3">
	<path class="st4" d="M83.9,48.6h1.8v-0.3L85.6,48l-0.1-0.2l-0.3-0.1h-0.4l-0.3,0.1l-0.3,0.3L83.9,48.6v0.3l0.1,0.4l0.3,0.3l0.3,0.1
		H85l0.3-0.1l0.3-0.3 M88.7,47.1l-0.3-0.3l-0.5-0.2h-0.6l-0.4,0.1L86.6,47v0.3l0.2,0.3l0.1,0.1l0.3,0.2l0.9,0.3l0.3,0.1l0.1,0.2
		l0.2,0.3v0.4l-0.3,0.4L88,49.7h-0.6l-0.5-0.1l-0.3-0.3 M91.9,47.4l-0.2-0.3l-0.3-0.3l-0.3-0.2h-0.6l-0.3,0.1L89.9,47l-0.2,0.3v0.5
		v0.8l0.1,0.4l0.2,0.3l0.3,0.3l0.3,0.1h0.6l0.3-0.1l0.3-0.3L92,49 M92.8,46.6v3.1 M92.8,49.7h1.8"/>
</g>
<g id="gge1252_3">
	<path class="st4" d="M67.1,48.4h1.8v-0.3l-0.1-0.3l-0.1-0.2l-0.3-0.1H68l-0.3,0.1l-0.3,0.3L67.1,48.4v0.3l0.1,0.4l0.3,0.3l0.3,0.1
		h0.4l0.3-0.1l0.3-0.3 M71.9,46.9l-0.3-0.3l-0.4-0.1h-0.6l-0.4,0.1l-0.3,0.3v0.3l0.2,0.3l0.1,0.1l0.3,0.2l0.9,0.3l0.3,0.1l0.1,0.1
		l0.2,0.3V49l-0.3,0.3l-0.5,0.3h-0.6l-0.4-0.1l-0.3-0.3 M72.9,46.5v3.1 M72.9,46.5h1l0.4,0.1l0.3,0.3l0.2,0.3l0.1,0.4v0.7l-0.1,0.4
		l-0.1,0.4l-0.3,0.3l-0.5,0.2h-1 M77.1,46.5l-1.2,3.1 M77.1,46.5l1.2,3.1 M76.4,48.6h1.5"/>
</g>
<line id="gge596_3" class="st5" x1="118.3" y1="159.3" x2="105.6" y2="159.3"/>
<polyline id="gge597_3" class="st5" points="100.6,149.4 100.6,138.1 103,138.1 103,145.2 107,145.2 "/>
<polyline id="gge598_3" class="st5" points="116.9,145.2 120.9,145.2 120.9,138.1 123.3,138.1 123.3,149.4 "/>
<polyline id="gge629_3" class="st6" points="91.8,88.9 97.5,88.9 97.5,93.9 91.8,93.9 91.8,88.9 "/>
<polyline id="gge635_3" class="st6" points="41,93.9 46.8,93.9 46.8,99 41,99 41,93.9 "/>
<polyline id="gge641_3" class="st6" points="52.6,93.9 58.3,93.9 58.3,99 52.6,99 52.6,93.9 "/>
<polyline id="gge648_3" class="st6" points="62.7,26.3 56.9,26.3 56.9,21.2 62.7,21.2 62.7,26.3 "/>
<polyline id="gge652_3" class="st5" points="3.6,20.9 1.8,22.7 1.8,26.3 3.6,28.1 1.8,29.9 1.8,33.5 3.6,35.3 1.8,37.1 1.8,40.7
	3.6,42.5 1.8,44.3 1.8,47.9 3.6,49.7 21.6,49.7 23.4,47.9 23.4,44.3 21.6,42.5 23.4,40.7 23.4,37.1 21.6,35.3 23.4,33.5 23.4,29.9
	21.6,28.1 23.4,26.3 23.4,22.7 21.6,20.9 "/>
<line id="gge653_3" class="st5" x1="3.6" y1="42.5" x2="21.6" y2="42.5"/>
<line id="gge654_3" class="st5" x1="3.6" y1="35.3" x2="21.6" y2="35.3"/>
<line id="gge655_3" class="st5" x1="3.6" y1="28.1" x2="21.6" y2="28.1"/>
<line id="gge656_3" class="st5" x1="3.6" y1="20.9" x2="21.6" y2="20.9"/>
<line id="gge692_3" class="st6" x1="49.9" y1="133.5" x2="49.9" y2="159.5"/>
<line id="gge693_3" class="st6" x1="49.9" y1="133.5" x2="73.6" y2="133.5"/>
<line id="gge694_3" class="st6" x1="49.9" y1="159.5" x2="73.6" y2="159.5"/>
<line id="gge695_3" class="st6" x1="73.6" y1="133.5" x2="73.6" y2="159.5"/>
<line id="gge701_3" class="st6" x1="74" y1="133.5" x2="74" y2="159.5"/>
<line id="gge702_3" class="st6" x1="74" y1="133.5" x2="97.7" y2="133.5"/>
<line id="gge703_3" class="st6" x1="74" y1="159.5" x2="97.7" y2="159.5"/>
<line id="gge704_3" class="st6" x1="97.7" y1="133.5" x2="97.7" y2="159.5"/>
<polyline id="gge712_3" class="st6" points="113,121.3 108.6,121.3 108.6,127.1 113,127.1 "/>
<polyline id="gge713_3" class="st6" points="115.2,121.2 119.4,121.2 120.5,122.4 120.5,126 119.4,127.1 115.1,127.1 "/>
<polyline id="gge714_3" class="st6" points="113.6,122.8 113.6,125.6 113.6,125.6 115,124.2 115,124.2 113.6,122.8 "/>
<line id="gge715_3" class="st6" x1="119.8" y1="121.9" x2="119.8" y2="126.4"/>
<line id="gge731_3" class="st6" x1="0.5" y1="133.5" x2="3.3" y2="133.5"/>
<line id="gge732_3" class="st6" x1="0.5" y1="125" x2="0.5" y2="133.5"/>
<line id="gge733_3" class="st6" x1="3.3" y1="125" x2="0.5" y2="125"/>
<line id="gge734_3" class="st6" x1="3.3" y1="140" x2="3.3" y2="118.5"/>
<line id="gge735_3" class="st6" x1="3.3" y1="140" x2="10.4" y2="140"/>
<line id="gge736_3" class="st6" x1="10.4" y1="118.5" x2="3.3" y2="118.5"/>
<line id="gge737_3" class="st6" x1="10.4" y1="118.5" x2="10.4" y2="140"/>
<polyline id="gge745_3" class="st6" points="154.4,113 154.4,117.3 147.2,117.3 147.2,113 154.4,113 "/>
<line id="gge746_3" class="st6" x1="142.3" y1="120.4" x2="142.3" y2="109.9"/>
<line id="gge747_3" class="st6" x1="142.3" y1="109.9" x2="159.3" y2="109.9"/>
<line id="gge748_3" class="st6" x1="159.3" y1="120.4" x2="142.3" y2="120.4"/>
<line id="gge749_3" class="st6" x1="159.3" y1="109.9" x2="159.3" y2="120.4"/>
<line id="gge764_3" class="st6" x1="44.1" y1="143" x2="44.1" y2="159.3"/>
<line id="gge765_3" class="st6" x1="44.1" y1="143" x2="21.4" y2="143"/>
<line id="gge766_3" class="st6" x1="21.4" y1="143" x2="21.4" y2="159.3"/>
<line id="gge767_3" class="st6" x1="44.1" y1="159.3" x2="21.4" y2="159.3"/>
<line id="gge768_3" class="st6" x1="42.4" y1="157.3" x2="23.2" y2="157.3"/>
<polyline id="gge769_3" class="st6" points="44,159.3 44,159 42.4,157.3 "/>
<polyline id="gge770_3" class="st6" points="21.5,159.3 21.5,159 23.2,157.3 "/>
<polyline id="gge782_3" class="st6" points="34,131 38.4,131 38.4,125.3 34,125.3 "/>
<polyline id="gge783_3" class="st6" points="31.8,131.1 27.6,131.1 26.5,129.9 26.5,126.3 27.5,125.3 31.9,125.3 "/>
<polyline id="gge784_3" class="st6" points="33.4,129.6 33.4,126.7 33.4,126.7 32,128.1 32,128.1 33.4,129.6 "/>
<line id="gge785_3" class="st6" x1="27.1" y1="130.4" x2="27.1" y2="125.9"/>
<polyline id="gge789_3" class="st5" points="3.6,107.3 1.8,109.1 1.8,112.7 3.6,114.5 21.6,114.5 23.4,112.7 23.4,109.1 21.6,107.3
	3.6,107.3 1.8,105.5 1.8,101.9 3.6,100.1 21.6,100.1 23.4,98.3 23.4,94.7 21.6,92.9 23.4,91.1 23.4,87.5 21.6,85.7 23.4,83.9
	23.4,80.3 21.6,78.5 23.4,76.7 23.4,73.1 21.6,71.3 23.4,69.5 23.4,65.9 21.6,64.1 23.4,62.3 23.4,58.7 21.6,56.9 3.6,56.9
	1.8,58.7 1.8,62.3 3.6,64.1 1.8,65.9 1.8,69.5 3.6,71.3 1.8,73.1 1.8,76.7 3.6,78.5 1.8,80.3 1.8,83.9 3.6,85.7 1.8,87.5 1.8,91.1
	3.6,92.9 1.8,94.7 1.8,98.3 3.6,100.1 "/>
<line id="gge790_3" class="st5" x1="21.6" y1="64.1" x2="3.6" y2="64.1"/>
<line id="gge791_3" class="st5" x1="21.6" y1="71.3" x2="3.6" y2="71.3"/>
<line id="gge792_3" class="st5" x1="21.6" y1="78.5" x2="3.6" y2="78.5"/>
<line id="gge793_3" class="st5" x1="21.6" y1="85.7" x2="3.6" y2="85.7"/>
<line id="gge794_3" class="st5" x1="21.6" y1="92.9" x2="3.6" y2="92.9"/>
<polyline id="gge795_3" class="st5" points="21.6,100.1 23.4,101.9 23.4,105.5 21.6,107.3 "/>
<polyline id="gge847_3" class="st6" points="63,44.6 61.2,42.8 57.6,42.8 55.8,44.6 "/>
<polyline id="gge848_3" class="st6" points="63,48.2 61.2,50 57.6,50 55.8,48.2 "/>
<polyline id="gge849_3" class="st6" points="55.8,44.6 54,42.8 50.4,42.8 48.6,44.6 "/>
<polyline id="gge850_3" class="st6" points="55.8,48.2 54,50 50.4,50 48.6,48.2 "/>
<line id="gge851_3" class="st6" x1="63" y1="44.6" x2="63" y2="48.2"/>
<polyline id="gge852_3" class="st6" points="48.6,44.6 46.8,42.8 43.2,42.8 41.4,44.6 "/>
<polyline id="gge853_3" class="st6" points="48.6,48.2 46.8,50 43.2,50 41.4,48.2 "/>
<line id="gge854_3" class="st6" x1="41.4" y1="44.6" x2="41.4" y2="48.2"/>
<polyline id="gge865_3" class="st6" points="91.7,35 83.9,35 83.9,29.8 91.7,29.8 91.7,35 "/>
<polyline id="gge873_3" class="st6" points="74.8,35 67,35 67,29.8 74.8,29.8 74.8,35 "/>
<polyline id="gge879_3" class="st6" points="151.7,88.9 156.1,88.9 156.1,83.1 151.7,83.1 "/>
<polyline id="gge880_3" class="st6" points="149.5,89 145.3,89 144.2,87.8 144.2,84.2 145.3,83.1 149.6,83.1 "/>
<polyline id="gge881_3" class="st6" points="151.1,87.4 151.1,84.6 151.1,84.6 149.7,86 149.7,86 151.1,87.4 "/>
<line id="gge882_3" class="st6" x1="144.9" y1="88.3" x2="144.9" y2="83.8"/>
<line id="gge886_3" class="st6" x1="80.3" y1="101.9" x2="80.3" y2="105.5"/>
<polyline id="gge887_3" class="st6" points="73.1,105.5 71.3,107.3 67.7,107.3 65.9,105.5 "/>
<line id="gge888_3" class="st6" x1="65.9" y1="101.9" x2="65.9" y2="105.5"/>
<polyline id="gge889_3" class="st6" points="80.3,101.9 78.5,100.1 74.9,100.1 73.1,101.9 "/>
<polyline id="gge890_3" class="st6" points="80.3,105.5 78.5,107.3 74.9,107.3 73.1,105.5 "/>
<polyline id="gge891_3" class="st6" points="73.1,101.9 71.3,100.1 67.7,100.1 65.9,101.9 "/>
<line id="gge899_3" class="st6" x1="68.8" y1="119.9" x2="69.9" y2="122.7"/>
<line id="gge900_3" class="st6" x1="69.9" y1="122.7" x2="67.6" y2="122.7"/>
<line id="gge901_3" class="st6" x1="67.6" y1="122.7" x2="68.8" y2="119.9"/>
<line id="gge902_3" class="st6" x1="66.5" y1="125.1" x2="66.5" y2="117.5"/>
<line id="gge903_3" class="st6" x1="66.5" y1="117.5" x2="71.1" y2="117.5"/>
<line id="gge904_3" class="st6" x1="71.1" y1="117.5" x2="71.1" y2="125.1"/>
<line id="gge905_3" class="st6" x1="71.1" y1="125.1" x2="66.5" y2="125.1"/>
<line id="gge906_3" class="st6" x1="67.3" y1="119.5" x2="70.2" y2="119.5"/>
<line id="gge912_3" class="st6" x1="60.8" y1="119.9" x2="62" y2="122.7"/>
<line id="gge913_3" class="st6" x1="62" y1="122.7" x2="59.7" y2="122.7"/>
<line id="gge914_3" class="st6" x1="59.7" y1="122.7" x2="60.8" y2="119.9"/>
<line id="gge915_3" class="st6" x1="58.5" y1="125.1" x2="58.5" y2="117.5"/>
<line id="gge916_3" class="st6" x1="58.5" y1="117.5" x2="63.1" y2="117.5"/>
<line id="gge917_3" class="st6" x1="63.1" y1="117.5" x2="63.1" y2="125.1"/>
<line id="gge918_3" class="st6" x1="63.1" y1="125.1" x2="58.5" y2="125.1"/>
<line id="gge919_3" class="st6" x1="59.4" y1="119.5" x2="62.3" y2="119.5"/>
<line id="gge925_3" class="st6" x1="76.7" y1="119.9" x2="77.8" y2="122.7"/>
<line id="gge926_3" class="st6" x1="77.8" y1="122.7" x2="75.5" y2="122.7"/>
<line id="gge927_3" class="st6" x1="75.5" y1="122.7" x2="76.7" y2="119.9"/>
<line id="gge928_3" class="st6" x1="74.4" y1="125.1" x2="74.4" y2="117.5"/>
<line id="gge929_3" class="st6" x1="74.4" y1="117.5" x2="79" y2="117.5"/>
<line id="gge930_3" class="st6" x1="79" y1="117.5" x2="79" y2="125.1"/>
<line id="gge931_3" class="st6" x1="79" y1="125.1" x2="74.4" y2="125.1"/>
<line id="gge932_3" class="st6" x1="75.2" y1="119.5" x2="78.1" y2="119.5"/>
<line id="gge945_3" class="st6" x1="184.9" y1="26.5" x2="184.9" y2="56.3"/>
<line id="gge946_3" class="st6" x1="184.9" y1="56.3" x2="174.5" y2="56.3"/>
<line id="gge947_3" class="st6" x1="184.9" y1="26.5" x2="174.5" y2="26.5"/>
<line id="gge948_3" class="st6" x1="174.5" y1="26.5" x2="174.5" y2="56.3"/>
<polyline id="gge954_3" class="st6" points="20.5,127.6 20.5,123.2 14.8,123.2 14.8,127.6 "/>
<polyline id="gge955_3" class="st6" points="20.6,129.8 20.6,134 19.4,135.2 15.8,135.2 14.8,134.1 14.8,129.8 "/>
<polyline id="gge956_3" class="st6" points="19.1,128.2 16.2,128.2 16.2,128.2 17.6,129.7 17.6,129.7 19.1,128.2 "/>
<line id="gge957_3" class="st6" x1="19.9" y1="134.5" x2="15.4" y2="134.5"/>
<polyline id="gge964_3" class="st6" points="100.8,75.3 100.8,81 95.8,81 95.8,75.3 100.8,75.3 "/>
<line id="gge978_3" class="st6" x1="184.8" y1="116.1" x2="184.8" y2="135.1"/>
<line id="gge979_3" class="st6" x1="184.8" y1="135.2" x2="174.3" y2="135.2"/>
<line id="gge980_3" class="st6" x1="174.3" y1="116.2" x2="174.3" y2="135.1"/>
<line id="gge981_3" class="st6" x1="184.8" y1="116.1" x2="174.3" y2="116.1"/>
<line id="gge993_3" class="st6" x1="184.9" y1="72.9" x2="184.9" y2="99.1"/>
<line id="gge994_3" class="st6" x1="184.9" y1="99.1" x2="174.5" y2="99.1"/>
<line id="gge995_3" class="st6" x1="184.9" y1="72.9" x2="174.5" y2="72.9"/>
<line id="gge996_3" class="st6" x1="174.5" y1="72.9" x2="174.5" y2="99.1"/>
<polyline id="gge1006_3" class="st6" points="133.9,150.2 133.9,139 133.9,134.7 137,134.7 137,139 165.4,139 165.4,134.7
	168.5,134.7 168.5,139 165.4,139 "/>
<line id="gge1007_3" class="st6" x1="137" y1="139" x2="133.9" y2="139"/>
<polyline id="gge1008_3" class="st6" points="168.5,160.8 160.8,160.8 160.8,158 141.6,158 141.6,160.8 133.9,160.8 "/>
<line id="gge1009_3" class="st6" x1="168.5" y1="139" x2="168.5" y2="150.2"/>
<polyline id="gge1013_3" class="st6" points="63,30.2 61.2,28.4 57.6,28.4 55.8,30.2 "/>
<polyline id="gge1014_3" class="st6" points="63,33.8 61.2,35.6 57.6,35.6 55.8,33.8 "/>
<polyline id="gge1015_3" class="st6" points="55.8,30.2 54,28.4 50.4,28.4 48.6,30.2 "/>
<polyline id="gge1016_3" class="st6" points="55.8,33.8 54,35.6 50.4,35.6 48.6,33.8 "/>
<line id="gge1017_3" class="st6" x1="63" y1="30.2" x2="63" y2="33.8"/>
<polyline id="gge1018_3" class="st6" points="48.6,30.2 46.8,28.4 43.2,28.4 41.4,30.2 "/>
<polyline id="gge1019_3" class="st6" points="48.6,33.8 46.8,35.6 43.2,35.6 41.4,33.8 "/>
<line id="gge1020_3" class="st6" x1="41.4" y1="30.2" x2="41.4" y2="33.8"/>
<polyline id="gge1030_3" class="st6" points="46.8,21.2 52.5,21.2 52.5,26.3 46.8,26.3 46.8,21.2 "/>
<polyline id="gge1037_3" class="st6" points="37,21.2 42.8,21.2 42.8,26.3 37,26.3 37,21.2 "/>
<polyline id="gge1043_3" class="st6" points="124.4,93.6 124.4,99.4 119.3,99.4 119.3,93.6 124.4,93.6 "/>
<line id="gge1049_3" class="st6" x1="105.8" y1="100.7" x2="86.5" y2="100.7"/>
<line id="gge1050_3" class="st6" x1="105.8" y1="100.7" x2="105.8" y2="121.7"/>
<line id="gge1051_3" class="st6" x1="86.5" y1="121.7" x2="105.8" y2="121.7"/>
<line id="gge1052_3" class="st6" x1="86.5" y1="121.7" x2="86.5" y2="100.7"/>
<polyline id="gge1058_3" class="st6" points="39.7,59.1 72.6,59.1 72.6,87.7 39.7,87.7 39.7,59.1 "/>
<polyline id="gge1065_3" class="st6" points="98.6,70.5 98.6,64.8 103.7,64.8 103.7,70.5 98.6,70.5 "/>
<polyline id="gge1072_3" class="st6" points="83.9,70.6 83.9,64.8 88.9,64.8 88.9,70.6 83.9,70.6 "/>
<line id="gge1078_3" class="st7" x1="42.8" y1="113" x2="51.5" y2="113"/>
<line id="gge1079_3" class="st7" x1="42.8" y1="125.3" x2="51.5" y2="125.3"/>
<line id="gge1080_3" class="st7" x1="42.8" y1="128.1" x2="42.8" y2="110.1"/>
<line id="gge1081_3" class="st7" x1="42.8" y1="110.1" x2="51.5" y2="110.1"/>
<line id="gge1082_3" class="st7" x1="51.5" y1="110.1" x2="51.5" y2="128.1"/>
<line id="gge1083_3" class="st7" x1="51.5" y1="128.1" x2="42.8" y2="128.1"/>
<polyline id="gge1169_3" class="st6" points="153.8,24.5 153.8,32.4 148.6,32.4 148.6,24.5 153.8,24.5 "/>
<polyline id="gge1189_3" class="st6" points="164.4,33.3 164.4,41.2 159.2,41.2 159.2,33.3 164.4,33.3 "/>
<polyline id="gge1209_3" class="st6" points="164.6,21.3 164.6,29.1 159.4,29.1 159.4,21.3 164.6,21.3 "/>
<polyline id="gge1229_3" class="st6" points="142.8,21.3 142.8,29.1 137.6,29.1 137.6,21.3 142.8,21.3 "/>
<polyline id="gge1248_3" class="st6" points="83.9,40.6 91.8,40.6 91.8,45.8 83.9,45.8 83.9,40.6 "/>
<polyline id="gge1268_3" class="st6" points="67,40.4 74.9,40.4 74.9,45.6 67,45.6 67,40.4 "/>
<path id="gge271" class="st1" d="M125.8,31.8c-1.4,0.4-2.3,1.9-1.9,3.2s1.5,2,2.8,1.9c1.3-0.1,2.2-1,2.3-2.3
	C129.2,32.8,127.6,31.3,125.8,31.8 M117.7,35.7c-1.7,0.6-2.5,1.9-2.5,3.9c0,1.6,0.8,3.6,2,4.9c0.3,0.4,0.6,0.7,0.6,0.7
	s-0.3,0.3-0.6,0.6c-0.9,0.8-2.1,2.5-2.6,3.5c-1.4,2.9-0.9,5.8,1.2,6.7c0.6,0.2,2.1,0.2,3,0c1-0.3,3.1-1.4,4.6-2.4c3-2,3.5-2,6.4-0.1
	c3.8,2.5,6.3,3.2,8,2.3c1.3-0.7,2-2.3,1.7-4.1c-0.4-2-1.3-3.7-3-5.5l-1.1-1.1l0.3-0.3c0.5-0.4,1.2-1.4,1.6-2.3
	c1.4-2.9,0.9-5.7-1.3-6.8c-0.5-0.2-0.8-0.3-2-0.3c-1.7,0-2.3,0.2-3.8,1.3c-1.6,1.2-2.2,1.5-3.5,1.5c-1.4,0-2.1-0.3-3.5-1.4
	c-0.9-0.6-1.5-1-2.1-1.2C120,35.4,118.5,35.4,117.7,35.7 M121.5,40.1c0.8,0.5,0.9,0.6,0.4,1.5c-0.2,0.4-0.6,1-1,1.4l-0.6,0.6
	l-0.4-0.4c-0.6-0.5-0.9-1.3-1-2.1C118.9,39.8,120,39.3,121.5,40.1 M133.5,39.9c0.6,0.2,0.7,0.6,0.7,1.3c0,0.6-0.5,1.7-1,2.2
	l-0.3,0.3l-0.4-0.4c-0.5-0.4-1.2-1.5-1.5-2.2c-0.1-0.4-0.1-0.4,0.4-0.8c0.4-0.3,1.1-0.6,1.5-0.6C133,39.7,133.2,39.8,133.5,39.9
	 M128.6,45.1c0.8,0.2,2.1,0.7,2.1,0.8s-0.4,0.3-0.9,0.6c-2.5,1.4-4.2,1.3-6.4-0.1c-0.8-0.5-0.8-0.6-0.6-0.7c0.3-0.2,1.4-0.5,2.4-0.7
	C126,44.8,127.7,44.9,128.6,45.1 M121.4,48.5c0.9,1.1,0.9,1.8-0.3,2.8c-1.1,0.9-2.1,1.3-2.8,1c-0.5-0.2-0.8-0.7-0.8-1.3
	c0-0.5,1.1-2.1,1.9-3l0.6-0.6l0.4,0.3C120.7,47.8,121.1,48.2,121.4,48.5 M133.8,48.1c0.7,0.8,1.7,2.3,1.9,2.7c0,0.2,0,0.5-0.1,0.8
	c-0.3,0.7-1,1-1.9,0.8c-1.2-0.3-2.9-1.7-2.9-2.3c0-0.5,0.4-1,1.3-1.9c0.5-0.5,0.9-0.8,1-0.8S133.4,47.7,133.8,48.1 M109.7,61.3v2.6
	h0.4c0.4,0,0.4,0,0.4-0.9c0-0.8,0.1-0.9,0.3-1c0.2,0,0.4,0.2,0.9,0.9c0.6,0.9,0.6,1,1.2,1h0.6l-0.6-0.9c-0.5-0.7-0.6-0.9-0.4-1
	c0.4-0.1,0.9-0.8,1-1.3c0.1-0.7-0.3-1.4-0.9-1.7c-0.3-0.2-0.8-0.2-1.7-0.2h-1.2L109.7,61.3 M115.9,58.9c-1.1,0.3-1.8,1.2-1.8,2.5
	c0,1.5,1,2.5,2.5,2.5c0.9,0,1.4-0.3,2-1c0.3-0.5,0.4-0.6,0.4-1.5s0-1-0.4-1.5C117.9,58.9,116.9,58.6,115.9,58.9 M119.6,61.3v2.6h1.4
	c1.4,0,1.4,0,1.8-0.4c0.3-0.3,0.4-0.5,0.4-1c0-0.3-0.1-0.7-0.2-0.9c-0.2-0.2-0.2-0.4-0.1-0.6c0.4-0.8,0-1.7-0.7-2
	c-0.3-0.1-0.9-0.2-1.5-0.2h-1.1L119.6,61.3 M125.4,58.9c-1.3,0.5-2,1.7-1.7,3c0.3,1.2,1.2,1.9,2.5,1.9c0.7,0,0.9-0.1,1.4-0.4
	c1-0.7,1.4-2,0.8-3.2C127.9,59.1,126.5,58.5,125.4,58.9 M129,58.8c-0.1,0.1-0.1,0.3-0.1,0.5c0,0.4,0,0.4,0.7,0.4h0.7v2.1v2.1h0.5
	h0.5v-2.1v-2.1h0.8h0.8v-0.4v-0.4H131C130,58.7,129.1,58.7,129,58.8 M133.5,61.3v2.6h0.4h0.4v-2.6v-2.6h-0.4h-0.4V61.3 M136.7,58.9
	c-1.8,0.7-2.3,2.8-1,4.2c0.2,0.2,0.5,0.4,0.7,0.5c0.7,0.4,2.5,0.2,2.5-0.3c0-0.1-0.1-0.3-0.2-0.4c-0.2-0.2-0.2-0.2-0.7-0.1
	c-0.7,0.2-1.2,0.1-1.7-0.5c-1.1-1.3,0.2-3.2,1.8-2.6c0.4,0.1,0.4,0.1,0.6-0.1c0.3-0.4,0.2-0.6-0.1-0.7
	C138,58.7,137.3,58.7,136.7,58.9 M140.6,58.8c-0.7,0.3-1.2,1.2-0.9,2c0.2,0.7,0.8,1,1.8,1c0.6,0,0.9,0.1,1,0.2c0.5,0.5,0.1,1-0.9,1
	c-0.6,0-0.8,0-1-0.3c-0.2-0.2-0.3-0.3-0.7-0.3c-0.5,0-0.5,0-0.3,0.6c0.3,0.7,0.7,0.9,1.9,0.9c1.3,0,1.6-0.1,1.8-0.7
	c0.3-0.5,0.3-1,0-1.5s-0.6-0.7-1.6-0.7c-0.7,0-0.9-0.1-1.2-0.3c-0.3-0.3-0.3-0.6,0-0.9c0.5-0.4,1.9-0.2,1.9,0.3
	c0,0.1,0.2,0.1,0.5,0.1c0.5,0,0.6-0.1,0.2-0.8c-0.1-0.3-0.4-0.5-0.7-0.7C142.2,58.7,141,58.7,140.6,58.8 M112.4,59.9
	c0.6,0.6,0.1,1.2-1.1,1.2h-0.8v-0.7v-0.7h0.8C111.9,59.7,112.1,59.7,112.4,59.9 M117.3,59.9c1.1,0.7,1.1,2.4-0.1,3s-2.5-0.6-2.2-1.8
	C115.3,59.9,116.4,59.3,117.3,59.9 M122.1,60.1c0.2,0.5-0.3,0.9-1.1,0.9h-0.6v-0.6v-0.6h0.8C121.9,59.7,122,59.7,122.1,60.1
	 M127.3,60.2c0.4,0.4,0.4,0.6,0.4,1.1s-0.1,0.7-0.4,1.1c-0.9,0.9-2.2,0.7-2.7-0.5c-0.2-0.5-0.2-0.6,0-1.1
	C125.1,59.6,126.4,59.3,127.3,60.2 M122.2,62c0.1,0.1,0.2,0.3,0.2,0.4c0,0.5-0.3,0.6-1.1,0.6h-0.8v-0.6v-0.6h0.8
	C121.7,61.8,122.1,61.9,122.2,62 M113.8,66.4c0,0-0.1,1-0.1,2v1.9h0.4h0.4v-1.2c0-0.7,0.1-1.2,0.1-1.2s0.3,0.2,0.6,0.5
	c0.3,0.3,0.5,0.5,0.6,0.5s0.4-0.3,0.7-0.6l0.6-0.6V69c0,1.3,0,1.3,0.3,1.3h0.3v-2c0-1.5,0-2-0.2-2c-0.1,0-0.5,0.4-1,0.8l-0.8,0.8
	l-0.8-0.8C114.2,66.3,114,66.2,113.8,66.4 M120,66.4c-0.1,0.1-0.4,1-0.9,2l-0.8,1.9h0.4c0.4,0,0.5-0.1,0.6-0.4
	c0.1-0.4,0.2-0.4,0.9-0.4c0.7,0,0.8,0,0.9,0.4c0.1,0.3,0.2,0.4,0.5,0.4c0.2,0,0.4,0,0.4-0.1s-0.4-1-0.8-2
	C120.5,66.5,120.2,66,120,66.4 M122.9,66.4c-0.7,0.4-0.8,1.4-0.3,1.9c0.3,0.3,0.5,0.3,1.2,0.3c0.6,0,0.8,0,0.9,0.2
	c0.2,0.4-0.2,0.7-0.8,0.7c-0.5,0-0.7,0-0.8-0.2s-0.3-0.3-0.5-0.3c-0.4,0-0.4,0.5,0,0.9c0.3,0.3,0.5,0.3,1.2,0.3c0.8,0,0.9,0,1.3-0.4
	s0.5-0.8,0.2-1.4c-0.2-0.5-0.4-0.5-1.3-0.5c-0.8,0-1.2-0.2-1-0.7c0.1-0.2,0.2-0.3,0.8-0.3c0.5,0,0.7,0.1,0.7,0.2s0.2,0.2,0.5,0.2
	s0.4,0,0.3-0.2c0-0.1-0.1-0.3-0.1-0.3c0-0.1-0.2-0.2-0.4-0.4C124.4,66.2,123.4,66.2,122.9,66.4 M125.9,66.7c0,0.4,0,0.4,0.6,0.4h0.6
	v1.6v1.6h0.3h0.3v-1.6v-1.6h0.6c0.6,0,0.6,0,0.6-0.4v-0.4h-1.5h-1.5L125.9,66.7 M129.7,66.4c-0.1,0.1-0.1,1-0.1,2v1.9h1.3h1.3V70
	c0-0.3,0-0.3-0.9-0.3h-0.9v-0.5v-0.6h0.8c0.7,0,0.8-0.1,0.8-0.4c0-0.4,0-0.4-0.8-0.4s-0.8,0-0.8-0.3s0-0.3,0.9-0.4
	c0.9,0,0.9-0.1,0.9-0.4s0-0.3-1.2-0.4C130.4,66.3,129.8,66.3,129.7,66.4 M132.9,68.3v2h0.3c0.3,0,0.3,0,0.3-0.7c0-0.6,0-0.7,0.3-0.7
	c0.2,0,0.4,0.3,0.7,0.7c0.4,0.6,0.6,0.7,0.9,0.7c0.2,0,0.4,0,0.4-0.1s-0.2-0.4-0.4-0.7l-0.4-0.6l0.4-0.4c0.3-0.3,0.4-0.5,0.4-1
	s-0.1-0.7-0.3-0.9c-0.3-0.3-0.5-0.3-1.5-0.4h-1.1L132.9,68.3 M136.9,66.5c-0.7,0.4-0.9,1.3-0.3,1.8c0.3,0.3,0.5,0.4,1.1,0.4
	c0.5,0,0.8,0.1,0.9,0.2c0.3,0.4,0,0.7-0.7,0.7c-0.5,0-0.7,0-0.8-0.2c-0.2-0.3-0.9-0.4-0.9-0.1c0,0.1,0.2,0.4,0.4,0.6
	c0.4,0.4,0.5,0.4,1.3,0.4c1.1,0,1.6-0.3,1.6-1.2c0-0.8-0.4-1.1-1.4-1.1c-0.8,0-1.1-0.2-1-0.6c0.1-0.3,1.4-0.4,1.5-0.1s0.7,0.3,0.7,0
	c0-0.4-0.2-0.6-0.5-0.8C138.3,66.2,137.4,66.2,136.9,66.5 M135,67.2c0.4,0.4,0,0.9-0.9,0.9h-0.6v-0.5v-0.5h0.6
	C134.5,67.1,134.9,67.1,135,67.2 M120.5,68.5c0.1,0.3,0.1,0.4-0.3,0.4s-0.5-0.2-0.2-0.7C120.2,67.8,120.4,67.9,120.5,68.5"/>
<polygon id="GND_LIPO" points="116.3,146.8 113.5,146.8 113.5,133.7 116.3,133.7 "/>
<polygon id="LIPO+" class="st8" points="110.6,146.8 107.8,146.8 107.8,133.7 110.6,133.7 "/>
<polygon class="st9" points="37.1,140.7 37.1,146.3 35.9,146.3 35.9,140.7 "/>
<polygon class="st9" points="35.3,140.7 35.3,146.3 34,146.3 34,140.7 "/>
<polygon class="st9" points="33.5,140.7 33.5,146.3 32.2,146.3 32.2,140.7 "/>
<polygon class="st9" points="31.6,140.7 31.6,146.3 30.3,146.3 30.3,140.7 "/>
<polygon class="st9" points="29.8,140.7 29.8,146.3 28.5,146.3 28.5,140.7 "/>
<polygon id="GROVE1" class="st9" points="161.2,130.5 161.2,138.2 158.4,138.2 158.4,130.5 "/>
<polygon id="GROVE0" class="st9" points="155.5,130.5 155.5,138.2 152.7,138.2 152.7,130.5 "/>
<polygon id="5V_GROVE" class="st8" points="149.9,130.5 149.9,138.2 147.1,138.2 147.1,130.5 "/>
<polygon id="GND_GROVE" points="144.2,130.5 144.2,138.2 141.4,138.2 141.4,130.5 "/>
<polygon id="MOSI" class="st9" points="174.6,40.4 174.6,42.4 168.9,42.4 168.9,40.4 "/>
<polygon id="MISO" class="st9" points="174.6,44 174.6,46 168.9,46 168.9,44 "/>
<polygon id="GND_SPI" points="174.6,29.7 174.6,31.7 168.9,31.7 168.9,29.7 "/>
<polygon id="NC" class="st9" points="174.6,33.2 174.6,35.2 168.9,35.2 168.9,33.2 "/>
<polygon id="A5" class="st9" points="174.6,36.9 174.6,38.9 168.9,38.9 168.9,36.9 "/>
<polygon id="SCK" class="st9" points="174.6,47.5 174.6,49.5 168.9,49.5 168.9,47.5 "/>
<polygon id="5V_SPI" class="st8" points="174.6,51.1 174.6,53.1 168.9,53.1 168.9,51.1 "/>
<polygon id="5V_I2C" class="st8" points="174.6,130 174.6,132 168.9,132 168.9,130 "/>
<polygon id="GND_I2C" points="174.6,119.3 174.6,121.2 168.9,121.2 168.9,119.3 "/>
<polygon id="SDA" class="st9" points="174.6,122.8 174.6,124.8 168.9,124.8 168.9,122.8 "/>
<polygon id="SCL" class="st9" points="174.6,126.4 174.6,128.4 168.9,128.4 168.9,126.4 "/>
<polygon id="GPS_RX" class="st9" points="174.6,86.9 174.6,88.8 168.9,88.8 168.9,86.9 "/>
<polygon id="GPS_TX" class="st9" points="174.6,90.4 174.6,92.4 168.9,92.4 168.9,90.4 "/>
<polygon id="GND_GPS" points="174.6,76.1 174.6,78.1 168.9,78.1 168.9,76.1 "/>
<polygon id="GPS_SDA" class="st9" points="174.6,79.7 174.6,81.6 168.9,81.6 168.9,79.7 "/>
<polygon id="GPS_SCL" class="st9" points="174.6,83.3 174.6,85.3 168.9,85.3 168.9,83.3 "/>
<polygon id="5V_GPS" class="st8" points="174.6,93.9 174.6,95.9 168.9,95.9 168.9,93.9 "/>
<ellipse id="GND_RCC4" class="st10" cx="5.5" cy="46.1" rx="2.5" ry="2.5"/>
<ellipse id="5V_RCC4" class="st11" cx="12.7" cy="46.1" rx="2.5" ry="2.5"/>
<ellipse id="A3" class="st12" cx="19.9" cy="46.1" rx="2.5" ry="2.5"/>
<ellipse id="GND_RCC3" class="st10" cx="5.5" cy="38.9" rx="2.5" ry="2.5"/>
<ellipse id="5V_RCC3" class="st11" cx="12.7" cy="38.9" rx="2.5" ry="2.5"/>
<ellipse id="A2" class="st12" cx="19.9" cy="38.9" rx="2.5" ry="2.5"/>
<ellipse id="GND_RCC2" class="st10" cx="5.5" cy="31.7" rx="2.5" ry="2.5"/>
<ellipse id="5V_RCC2" class="st11" cx="12.7" cy="31.7" rx="2.5" ry="2.5"/>
<ellipse id="A1" class="st12" cx="19.9" cy="31.7" rx="2.5" ry="2.5"/>
<ellipse id="GND_RCC1" class="st10" cx="5.5" cy="24.5" rx="2.5" ry="2.5"/>
<ellipse id="5V_RCC1" class="st11" cx="12.7" cy="24.5" rx="2.5" ry="2.5"/>
<ellipse id="A0" connectorname="RCC1" class="st12" cx="19.9" cy="24.5" rx="2.5" ry="2.5"/>
<ellipse id="GND_S1" class="st10" cx="5.5" cy="60.5" rx="2.5" ry="2.5"/>
<ellipse id="5V_S1" class="st11" cx="12.7" cy="60.5" rx="2.5" ry="2.5"/>
<ellipse id="D0" class="st12" cx="19.9" cy="60.5" rx="2.5" ry="2.5"/>
<ellipse id="GND_S2" class="st10" cx="5.5" cy="67.7" rx="2.5" ry="2.5"/>
<ellipse id="5V_S2" class="st11" cx="12.7" cy="67.7" rx="2.5" ry="2.5"/>
<ellipse id="D1" class="st12" cx="19.9" cy="67.7" rx="2.5" ry="2.5"/>
<ellipse id="GND_S3" class="st10" cx="5.5" cy="74.9" rx="2.5" ry="2.5"/>
<ellipse id="5V_S3" class="st11" cx="12.7" cy="74.9" rx="2.5" ry="2.5"/>
<ellipse id="D2" class="st12" cx="19.9" cy="74.9" rx="2.5" ry="2.5"/>
<ellipse id="GND_S4" class="st10" cx="5.5" cy="82.1" rx="2.5" ry="2.5"/>
<ellipse id="5V_S4" class="st11" cx="12.7" cy="82.1" rx="2.5" ry="2.5"/>
<ellipse id="D3" class="st12" cx="19.9" cy="82.1" rx="2.5" ry="2.5"/>
<ellipse id="GND_S5" class="st10" cx="5.5" cy="89.3" rx="2.5" ry="2.5"/>
<ellipse id="5V_S5" class="st11" cx="12.7" cy="89.3" rx="2.5" ry="2.5"/>
<ellipse id="D4" class="st12" cx="19.9" cy="89.3" rx="2.5" ry="2.5"/>
<ellipse id="GND_S6" class="st10" cx="5.5" cy="96.5" rx="2.5" ry="2.5"/>
<ellipse id="5V_S6" class="st11" cx="12.7" cy="96.5" rx="2.5" ry="2.5"/>
<ellipse id="D5" class="st12" cx="19.9" cy="96.5" rx="2.5" ry="2.5"/>
<ellipse id="GND_S7" class="st10" cx="5.5" cy="103.7" rx="2.5" ry="2.5"/>
<ellipse id="5V_S7" class="st11" cx="12.7" cy="103.7" rx="2.5" ry="2.5"/>
<ellipse id="D6" class="st12" cx="19.9" cy="103.7" rx="2.5" ry="2.5"/>
<ellipse id="GND_S8" class="st10" cx="5.5" cy="110.9" rx="2.5" ry="2.5"/>
<ellipse id="5V_S8" class="st11" cx="12.7" cy="110.9" rx="2.5" ry="2.5"/>
<ellipse id="D7" class="st12" cx="19.9" cy="110.9" rx="2.5" ry="2.5"/>
<ellipse id="ESTOPPIN1" class="st13" cx="76.8" cy="103.7" rx="2.8" ry="2.8"/>
<ellipse id="ESTOPPIN0" class="st13" cx="69.6" cy="103.7" rx="2.8" ry="2.8"/>
<ellipse id="NEOPIXEL" class="st12" cx="52.3" cy="46.4" rx="2.2" ry="2.2"/>
<ellipse id="GND_NEO" class="st10" cx="59.5" cy="46.4" rx="2.2" ry="2.2"/>
<ellipse id="PI_RX" class="st12" cx="45.1" cy="32" rx="2.2" ry="2.2"/>
<ellipse id="PI_TX" class="st12" cx="52.3" cy="32" rx="2.2" ry="2.2"/>
<ellipse id="GND_PISERIAL" class="st10" cx="59.5" cy="32" rx="2.2" ry="2.2"/>
<ellipse id="5V_NEO" class="st11" cx="45.1" cy="46.4" rx="2.2" ry="2.2"/>
<ellipse class="st14" cx="24.9" cy="14.6" rx="2.4" ry="2.4"/>
<ellipse class="st14" cx="24.9" cy="7.4" rx="2.4" ry="2.4"/>
<ellipse class="st14" cx="32.1" cy="14.6" rx="2.4" ry="2.4"/>
<ellipse class="st14" cx="32.1" cy="7.4" rx="2.4" ry="2.4"/>
<ellipse class="st14" cx="39.3" cy="14.6" rx="2.4" ry="2.4"/>
<ellipse class="st14" cx="39.3" cy="7.4" rx="2.4" ry="2.4"/>
<ellipse class="st14" cx="46.5" cy="14.6" rx="2.4" ry="2.4"/>
<ellipse class="st14" cx="46.5" cy="7.4" rx="2.4" ry="2.4"/>
<ellipse class="st14" cx="53.7" cy="14.6" rx="2.4" ry="2.4"/>
<ellipse class="st14" cx="53.7" cy="7.4" rx="2.4" ry="2.4"/>
<ellipse class="st14" cx="60.9" cy="14.6" rx="2.4" ry="2.4"/>
<ellipse class="st14" cx="60.9" cy="7.4" rx="2.4" ry="2.4"/>
<ellipse class="st14" cx="68.1" cy="14.6" rx="2.4" ry="2.4"/>
<ellipse class="st14" cx="68.1" cy="7.4" rx="2.4" ry="2.4"/>
<ellipse class="st14" cx="75.3" cy="14.6" rx="2.4" ry="2.4"/>
<ellipse class="st14" cx="75.3" cy="7.4" rx="2.4" ry="2.4"/>
<ellipse class="st14" cx="82.5" cy="14.6" rx="2.4" ry="2.4"/>
<ellipse class="st14" cx="82.5" cy="7.4" rx="2.4" ry="2.4"/>
<ellipse class="st14" cx="89.7" cy="14.6" rx="2.4" ry="2.4"/>
<ellipse class="st14" cx="89.7" cy="7.4" rx="2.4" ry="2.4"/>
<ellipse class="st14" cx="96.9" cy="14.6" rx="2.4" ry="2.4"/>
<ellipse class="st14" cx="96.9" cy="7.4" rx="2.4" ry="2.4"/>
<ellipse class="st14" cx="104.1" cy="14.6" rx="2.4" ry="2.4"/>
<ellipse class="st14" cx="104.1" cy="7.4" rx="2.4" ry="2.4"/>
<ellipse class="st14" cx="111.3" cy="14.6" rx="2.4" ry="2.4"/>
<ellipse class="st14" cx="111.3" cy="7.4" rx="2.4" ry="2.4"/>
<ellipse class="st14" cx="118.5" cy="14.6" rx="2.4" ry="2.4"/>
<ellipse class="st14" cx="118.5" cy="7.4" rx="2.4" ry="2.4"/>
<ellipse class="st14" cx="125.7" cy="14.6" rx="2.4" ry="2.4"/>
<ellipse class="st14" cx="125.7" cy="7.4" rx="2.4" ry="2.4"/>
<ellipse class="st14" cx="132.9" cy="14.6" rx="2.4" ry="2.4"/>
<ellipse class="st14" cx="132.9" cy="7.4" rx="2.4" ry="2.4"/>
<ellipse class="st14" cx="140.1" cy="14.6" rx="2.4" ry="2.4"/>
<ellipse class="st14" cx="140.1" cy="7.4" rx="2.4" ry="2.4"/>
<ellipse class="st14" cx="147.3" cy="14.6" rx="2.4" ry="2.4"/>
<ellipse class="st14" cx="147.3" cy="7.4" rx="2.4" ry="2.4"/>
<ellipse class="st14" cx="154.5" cy="14.6" rx="2.4" ry="2.4"/>
<ellipse class="st14" cx="154.5" cy="7.4" rx="2.4" ry="2.4"/>
<ellipse class="st14" cx="161.7" cy="14.6" rx="2.4" ry="2.4"/>
<ellipse class="st14" cx="161.7" cy="7.4" rx="2.4" ry="2.4"/>
<polygon class="st9" points="124,150.3 124,159.9 119.4,159.9 119.4,150.3 "/>
<polygon class="st9" points="104.7,150.3 104.7,159.9 100.2,159.9 100.2,150.3 "/>
<polygon class="st9" points="136.5,121.8 136.5,118.2 140.1,118.2 140.1,121.8 "/>
<polygon class="st9" points="48,102.2 51.6,102.2 51.6,105.8 48,105.8 "/>
<polygon class="st9" points="31.1,112.7 31.1,109.1 34.7,109.1 34.7,112.7 "/>
<polygon class="st9" points="159.2,96.1 159.2,92.5 162.8,92.5 162.8,96.1 "/>
<polygon class="st9" points="99.8,85.1 96.2,85.1 96.2,83.3 99.8,83.3 "/>
<polygon class="st9" points="94.1,85.1 90.5,85.1 90.5,83.3 94.1,83.3 "/>
<polygon class="st9" points="95,89.6 96.8,89.6 96.8,93.2 95,93.2 "/>
<polygon class="st9" points="92.7,89.6 94.5,89.6 94.5,93.2 92.7,93.2 "/>
<polygon class="st9" points="44.2,94.7 46,94.7 46,98.3 44.2,98.3 "/>
<polygon class="st9" points="42,94.7 43.8,94.7 43.8,98.3 42,98.3 "/>
<polygon class="st9" points="55.8,94.7 57.6,94.7 57.6,98.3 55.8,98.3 "/>
<polygon class="st9" points="53.6,94.7 55.4,94.7 55.4,98.3 53.6,98.3 "/>
<polygon class="st9" points="59.7,25.5 57.9,25.5 57.9,21.9 59.7,21.9 "/>
<polygon class="st9" points="61.9,25.5 60.1,25.5 60.1,21.9 61.9,21.9 "/>
<polygon class="st9" points="133.7,101.5 133.7,97.9 137.3,97.9 137.3,101.5 "/>
<polygon class="st9" points="31.1,38.9 27.5,38.9 27.5,35.3 31.1,35.3 "/>
<polygon class="st9" points="109.5,122.2 113.2,122.2 113.2,126.2 109.5,126.2 "/>
<polygon class="st9" points="115.4,122.2 119.1,122.2 119.1,126.2 115.4,126.2 "/>
<polygon class="st9" points="26,48.9 26,45.3 29.6,45.3 29.6,48.9 "/>
<polygon class="st9" points="33.9,48.9 33.9,45.3 37.5,45.3 37.5,48.9 "/>
<polygon class="st9" points="12.2,124.5 8.2,124.5 8.2,122 12.2,122 "/>
<polygon class="st9" points="8.2,133.9 12.2,133.9 12.2,136.5 8.2,136.5 "/>
<polygon class="st9" points="2.3,136.8 5.1,136.8 5.1,140.9 2.3,140.9 "/>
<polygon class="st9" points="2.3,117.5 5.1,117.5 5.1,121.6 2.3,121.6 "/>
<polygon class="st9" points="165.3,112.3 165.3,118 160.4,118 160.4,112.3 "/>
<polygon class="st9" points="141.4,112.3 141.4,118 136.6,118 136.6,112.3 "/>
<polygon class="st9" points="90.5,76.1 94.1,76.1 94.1,77.9 90.5,77.9 "/>
<polygon class="st9" points="36.8,156 36.8,151.5 40.2,151.5 40.2,156 "/>
<polygon class="st9" points="25.5,156 25.5,151.5 28.9,151.5 28.9,156 "/>
<polygon class="st9" points="37.7,130.1 34,130.1 34,126.2 37.7,126.2 "/>
<polygon class="st9" points="31.7,130.1 28,130.1 28,126.2 31.7,126.2 "/>
<polygon class="st9" points="91,34.2 89.2,34.2 89.2,30.6 91,30.6 "/>
<polygon class="st9" points="88.8,34.2 87,34.2 87,30.6 88.8,30.6 "/>
<polygon class="st9" points="86.7,34.2 84.9,34.2 84.9,30.6 86.7,30.6 "/>
<polygon class="st9" points="74.1,34.2 72.3,34.2 72.3,30.6 74.1,30.6 "/>
<polygon class="st9" points="71.9,34.2 70.1,34.2 70.1,30.6 71.9,30.6 "/>
<polygon class="st9" points="69.8,34.2 68,34.2 68,30.6 69.8,30.6 "/>
<polygon class="st9" points="155.4,88 151.7,88 151.7,84 155.4,84 "/>
<polygon class="st9" points="149.4,88 145.8,88 145.8,84 149.4,84 "/>
<polygon class="st9" points="67.1,127.2 67.1,124.6 70.6,124.6 70.6,127.2 "/>
<polygon class="st9" points="67.1,118 67.1,115.4 70.6,115.4 70.6,118 "/>
<polygon class="st9" points="59.2,127.2 59.2,124.6 62.7,124.6 62.7,127.2 "/>
<polygon class="st9" points="59.2,118 59.2,115.4 62.7,115.4 62.7,118 "/>
<polygon class="st9" points="75.1,127.2 75.1,124.6 78.5,124.6 78.5,127.2 "/>
<polygon class="st9" points="75.1,118 75.1,115.4 78.5,115.4 78.5,118 "/>
<polygon class="st9" points="185.1,56.6 185.1,63.4 176,63.4 176,56.6 "/>
<polygon class="st9" points="185.1,19.3 185.1,26.1 176,26.1 176,19.3 "/>
<polygon class="st9" points="19.7,124 19.7,127.7 15.8,127.7 15.8,124 "/>
<polygon class="st9" points="19.7,130 19.7,133.7 15.8,133.7 15.8,130 "/>
<polygon class="st9" points="100.2,78.3 100.2,80.1 96.6,80.1 96.6,78.3 "/>
<polygon class="st9" points="100.2,76.1 100.2,77.9 96.6,77.9 96.6,76.1 "/>
<polygon class="st9" points="107.4,25.2 107.4,21.6 111,21.6 111,25.2 "/>
<polygon class="st9" points="185.1,135.6 185.1,142.4 176,142.4 176,135.6 "/>
<polygon class="st9" points="185.1,108.9 185.1,115.7 176,115.7 176,108.9 "/>
<polygon class="st9" points="185.1,99.5 185.1,106.3 176,106.3 176,99.5 "/>
<polygon class="st9" points="185.1,65.7 185.1,72.5 176,72.5 176,65.7 "/>
<polygon class="st9" points="168.8,151.4 168.8,159.9 164.5,159.9 164.5,151.4 "/>
<polygon class="st9" points="138.1,151.4 138.1,159.9 133.8,159.9 133.8,151.4 "/>
<polygon class="st9" points="50,21.9 51.8,21.9 51.8,25.5 50,25.5 "/>
<polygon class="st9" points="47.7,21.9 49.5,21.9 49.5,25.5 47.7,25.5 "/>
<polygon class="st9" points="40.2,21.9 42,21.9 42,25.5 40.2,25.5 "/>
<polygon class="st9" points="38,21.9 39.8,21.9 39.8,25.5 38,25.5 "/>
<polygon class="st9" points="123.8,96.7 123.8,98.5 120.2,98.5 120.2,96.7 "/>
<polygon class="st9" points="123.8,94.5 123.8,96.3 120.2,96.3 120.2,94.5 "/>
<polygon class="st9" points="91.3,99.4 101.2,99.4 101.2,106.1 91.3,106.1 "/>
<polygon class="st9" points="91.3,116.4 101.2,116.4 101.2,123.1 91.3,123.1 "/>
<polygon class="st9" points="36.9,80.5 36.9,66.3 46.8,66.3 46.8,80.5 "/>
<polygon class="st9" points="65.7,80.5 65.7,66.3 75.6,66.3 75.6,80.5 "/>
<polygon class="st9" points="99.5,67.5 99.5,65.7 103.1,65.7 103.1,67.5 "/>
<polygon class="st9" points="99.5,69.7 99.5,67.9 103.1,67.9 103.1,69.7 "/>
<polygon class="st9" points="84.7,67.5 84.7,65.7 88.3,65.7 88.3,67.5 "/>
<polygon class="st9" points="84.7,69.7 84.7,67.9 88.3,67.9 88.3,69.7 "/>
<polygon class="st9" points="53,128.1 50.2,128.1 50.2,110.2 53,110.2 "/>
<polygon class="st9" points="44.4,128.1 41.5,128.1 41.5,110.2 44.4,110.2 "/>
<polygon class="st9" points="153.1,29.7 153.1,31.5 149.5,31.5 149.5,29.7 "/>
<polygon class="st9" points="153.1,27.5 153.1,29.3 149.5,29.3 149.5,27.5 "/>
<polygon class="st9" points="153.1,25.4 153.1,27.2 149.5,27.2 149.5,25.4 "/>
<polygon class="st9" points="163.7,38.5 163.7,40.3 160.1,40.3 160.1,38.5 "/>
<polygon class="st9" points="163.7,36.3 163.7,38.1 160.1,38.1 160.1,36.3 "/>
<polygon class="st9" points="163.7,34.2 163.7,36 160.1,36 160.1,34.2 "/>
<polygon class="st9" points="163.9,26.4 163.9,28.2 160.3,28.2 160.3,26.4 "/>
<polygon class="st9" points="163.9,24.3 163.9,26.1 160.3,26.1 160.3,24.3 "/>
<polygon class="st9" points="163.9,22.1 163.9,23.9 160.3,23.9 160.3,22.1 "/>
<polygon class="st9" points="142.1,26.4 142.1,28.2 138.5,28.2 138.5,26.4 "/>
<polygon class="st9" points="142.1,24.3 142.1,26.1 138.5,26.1 138.5,24.3 "/>
<polygon class="st9" points="142.1,22.1 142.1,23.9 138.5,23.9 138.5,22.1 "/>
<polygon class="st9" points="89.2,41.4 91,41.4 91,45 89.2,45 "/>
<polygon class="st9" points="87,41.4 88.8,41.4 88.8,45 87,45 "/>
<polygon class="st9" points="84.9,41.4 86.7,41.4 86.7,45 84.9,45 "/>
<polygon class="st9" points="72.3,41.2 74.1,41.2 74.1,44.8 72.3,44.8 "/>
<polygon class="st9" points="70.1,41.2 71.9,41.2 71.9,44.8 70.1,44.8 "/>
<polygon class="st9" points="68,41.2 69.8,41.2 69.8,44.8 68,44.8 "/>
<path id="gge4558_1" class="st9" d="M136.5,118.2h3.6l-0.9-2.4h-1.7L136.5,118.2z"/>
<ellipse class="st9" cx="134.4" cy="26.6" rx="0.9" ry="0.9"/>
<ellipse class="st9" cx="73.9" cy="146.9" rx="1.2" ry="1.2"/>
<ellipse class="st9" cx="71" cy="146.9" rx="1.2" ry="1.2"/>
<ellipse class="st9" cx="72.5" cy="144.3" rx="1.2" ry="1.2"/>
<ellipse class="st9" cx="78.6" cy="70.2" rx="0.9" ry="0.9"/>
<ellipse class="st9" cx="127" cy="78.6" rx="0.9" ry="0.9"/>
<ellipse class="st9" cx="49.6" cy="144.3" rx="1.2" ry="1.2"/>
<ellipse class="st9" cx="78.6" cy="65.9" rx="0.9" ry="0.9"/>
<ellipse class="st9" cx="49.6" cy="147.2" rx="1.2" ry="1.2"/>
<ellipse class="st9" cx="52.1" cy="145.8" rx="1.2" ry="1.2"/>
<line class="st15" x1="43.1" y1="152.5" x2="43.1" y2="155"/>
<line class="st15" x1="22.7" y1="152.5" x2="22.7" y2="155"/>
<ellipse class="st9" cx="23.5" cy="145.8" rx="2.1" ry="2.1"/>
<ellipse class="st9" cx="42.2" cy="145.8" rx="2.1" ry="2.1"/>
<ellipse id="GND_PWR" cx="56.4" cy="137.2" rx="3.1" ry="3.1"/>
<ellipse id="PWR+" class="st8" cx="67.2" cy="137.2" rx="3.1" ry="3.1"/>
<ellipse id="GND_ESC" cx="80.6" cy="137.2" rx="3.1" ry="3.1"/>
<ellipse id="ESC+" class="st8" cx="91.4" cy="137.2" rx="3.1" ry="3.1"/>
<rect id="Br_x5F_reset" x="57.9" y="22" class="st16" width="4" height="3.2"/>
<rect id="Br_x5F_rx" x="47.7" y="22" class="st16" width="4" height="3.2"/>
<rect id="Br_x5F_tx" x="38" y="22" class="st16" width="4" height="3.2"/>
<rect id="Br_x5F_iSDA" x="67.8" y="30.7" class="st16" width="6.4" height="3.2"/>
<rect id="Br_x5F_iSCL" x="84.7" y="30.7" class="st16" width="6.4" height="3.2"/>
<rect id="Br_x5F_eSDA" x="70.3" y="41.3" class="st16" width="4" height="3.2"/>
<rect id="Br_x5F_eSCL" x="87.3" y="41.5" class="st16" width="4" height="3.2"/>
<rect id="Br_x5F_IMU_x5F_3" x="99.8" y="65.6" class="st16" width="3.2" height="4"/>
<rect id="Br_x5F_IMU_x5F_2" x="85.1" y="65.6" class="st16" width="3.2" height="4"/>
<rect id="Br_x5F_IMU_x5F_1" x="96.7" y="76.1" class="st16" width="3.2" height="4"/>
<rect id="Br_x5F_SCLK" x="138.7" y="24.2" class="st16" width="3.2" height="4"/>
<rect id="Br_x5F_MOSI" x="149.7" y="27.4" class="st16" width="3.2" height="4"/>
<rect id="Br_x5F_SS" x="160.3" y="36.2" class="st16" width="3.2" height="4"/>
<rect id="Br_x5F_MISO" x="160.5" y="24.3" class="st16" width="3.2" height="4"/>
<path id="path5922" class="st17" d="M154.2,88.1h-7.3c-0.3,0-0.5-0.2-0.5-0.5v-3.1c0-0.3,0.2-0.5,0.5-0.5h7.3c0.3,0,0.5,0.2,0.5,0.5
	v3.1C154.7,87.8,154.5,88.1,154.2,88.1z"/>
<path id="path5922_1_" class="st17" d="M118,126.2h-7.3c-0.3,0-0.5-0.2-0.5-0.5v-3.1c0-0.3,0.2-0.5,0.5-0.5h7.3
	c0.3,0,0.5,0.2,0.5,0.5v3.1C118.5,126,118.3,126.2,118,126.2z"/>
<path id="path5922_2_" class="st17" d="M36.4,130.2h-7.3c-0.3,0-0.5-0.2-0.5-0.5v-3.1c0-0.3,0.2-0.5,0.5-0.5h7.3
	c0.3,0,0.5,0.2,0.5,0.5v3.1C36.9,130,36.7,130.2,36.4,130.2z"/>
<path id="path5922_3_" class="st17" d="M19.7,125.1v7.3c0,0.3-0.2,0.5-0.5,0.5h-3.1c-0.3,0-0.5-0.2-0.5-0.5v-7.3
	c0-0.3,0.2-0.5,0.5-0.5h3.1C19.5,124.5,19.7,124.8,19.7,125.1z"/>
<path id="POWERBTN" class="st18" d="M0.5,134v-9.8c0-0.2,0.2-0.5,0.5-0.5h1.6c0.2,0,0.5,0.2,0.5,0.5v9.8c0,0.2-0.2,0.5-0.5,0.5H1
	C0.7,134.4,0.5,134.2,0.5,134z"/>
<g transform="translate(20.4872,14.9415)">
	<g>
		<g>
			<g>
				<g id="Power">
					<rect id="rect5896_6_" x="-11.5" y="108.2" class="st17" width="2.7" height="0.8"/>
					<rect id="rect5896_5_" x="-11.5" y="119.4" class="st17" width="2.7" height="0.8"/>
					<rect id="rect5896_4_" x="-18" y="104.3" class="st17" width="2.7" height="19.7"/>
					<rect id="rect5898_4_" x="-17.7" y="105.2" class="st19" width="7.4" height="18"/>
					<rect id="rect5981_5_" x="-10.7" y="105.2" class="st20" width="0.4" height="18"/>
					<rect id="rect5981_4_" x="-17.7" y="105.2" class="st20" width="0.4" height="18"/>
				</g>
			</g>
		</g>
	</g>
</g>
<g transform="translate(20.4872,14.9415)">
	<g>
		<g>
			<g>
				<g id="reset">
					<rect id="rect5981_2_" x="121.5" y="95.1" class="st20" width="18" height="0.7"/>
					<rect id="rect5896_3_" x="117.9" y="98.7" class="st17" width="24.8" height="2.7"/>
					<rect id="rect5898_3_" x="121.4" y="95.1" class="st19" width="18" height="10.1"/>
					<rect id="rect5979" x="121.4" y="95.1" class="st20" width="0.7" height="10.1"/>
					<rect id="rect5981" x="138.7" y="95.1" class="st20" width="0.7" height="10.1"/>
					<rect id="rect5981_1_" x="121.4" y="104.5" class="st20" width="18" height="0.7"/>
				</g>
			</g>
		</g>
	</g>
</g>
<g transform="translate(-1.75002,16.873)">
	<g>
		<g>
			<g>
				<g id="g355">
					<rect id="rect6007" x="23.2" y="134.1" class="st21" width="22.7" height="4"/>
					<rect id="rect6009" x="34.1" y="127" class="st17" width="0.6" height="3.4"/>
					<rect id="rect6011" x="36" y="127.1" class="st17" width="0.6" height="3.4"/>
					<rect id="rect6013" x="38.1" y="127" class="st17" width="0.6" height="3.4"/>
					<rect id="rect6015" x="32.5" y="127.1" class="st17" width="0.6" height="3.4"/>
					<rect id="rect6017" x="30.5" y="127.1" class="st17" width="0.6" height="3.4"/>
					<rect id="rect6019" x="27.4" y="128.4" class="st21" width="14.2" height="0.7"/>
					<rect id="rect6021" x="27.4" y="128.7" class="st18" width="14.2" height="3"/>
					<polygon id="polygon6023" class="st17" points="38,130.6 38,131.3 36.5,131.3 36.5,128.7 32.6,128.7 32.6,131.3 31.2,131.3
						31.2,130.6 28.9,130.6 28.9,128.4 23.8,128.4 23.8,142 45.3,142 45.3,128.4 40.2,128.4 40.2,130.6 					"/>
					<polygon id="polygon6025" class="st18" points="27.3,134.9 28.7,134.9 29,139.2 27,139.2 					"/>
					<polygon id="polygon6027" class="st18" points="40.4,134.9 41.8,134.9 42.1,139.2 40.1,139.2 					"/>
					<polygon id="polygon6029" class="st22" points="24.4,142 44.8,142 44.2,143.7 24.9,143.7 					"/>
					<polygon id="polygon6031" class="st21" points="23.8,142 24.4,142 23.8,143.7 23.2,143.7 					"/>
					<polygon id="polygon6033" class="st21" points="44.8,142 45.3,142 45.9,143.7 45.3,143.7 					"/>
				</g>
			</g>
		</g>
	</g>
</g>
<g transform="translate(20.4872,14.9415)">
	<g>
		<g>
			<g>
				<g id="Diode_x5F_1">
					<g>
						<g>
							<g>
								<g id="g5904">
									<g transform="rotate(180,5.1025,2.3385)">
										<g>
											<g>
												<g>
													<g>
														<g>
															<g>
																<g>
																	<g id="g5902">
																		<rect id="rect5896" x="-47.2" y="-106.9" class="st17" width="2.4" height="10.2"/>
																		<rect id="rect5898" x="-48.3" y="-105.7" class="st23" width="4.7" height="7.7"/>
																		<rect id="rect5900" x="-48.3" y="-100.1" class="st24" width="4.7" height="1.4"/>
																	</g>
																</g>
															</g>
														</g>
													</g>
												</g>
											</g>
										</g>
									</g>
								</g>
							</g>
						</g>
					</g>
				</g>
			</g>
		</g>
	</g>
</g>
<g transform="translate(20.4872,14.9415)">
	<g>
		<g>
			<g>
				<g id="Diode_x5F_2">
					<g>
						<g>
							<g>
								<g id="g5904_1_">
									<g transform="rotate(180,5.1025,2.3385)">
										<g>
											<g>
												<g>
													<g>
														<g>
															<g>
																<g>
																	<g id="g5902_1_">
																		<rect id="rect5896_1_" x="-39.2" y="-106.9" class="st17" width="2.4" height="10.2"/>
																		<rect id="rect5898_1_" x="-40.3" y="-105.7" class="st23" width="4.7" height="7.7"/>
																		<rect id="rect5900_1_" x="-40.3" y="-100.1" class="st24" width="4.7" height="1.4"/>
																	</g>
																</g>
															</g>
														</g>
													</g>
												</g>
											</g>
										</g>
									</g>
								</g>
							</g>
						</g>
					</g>
				</g>
			</g>
		</g>
	</g>
</g>
<g transform="translate(20.4872,14.9415)">
	<g>
		<g>
			<g>
				<g id="Diode_x5F_3">
					<g>
						<g>
							<g>
								<g id="g5904_2_">
									<g transform="rotate(180,5.1025,2.3385)">
										<g>
											<g>
												<g>
													<g>
														<g>
															<g>
																<g>
																	<g id="g5902_2_">
																		<rect id="rect5896_2_" x="-31.2" y="-106.9" class="st17" width="2.4" height="10.2"/>
																		<rect id="rect5898_2_" x="-32.3" y="-105.7" class="st23" width="4.7" height="7.7"/>
																		<rect id="rect5900_2_" x="-32.3" y="-100.1" class="st24" width="4.7" height="1.4"/>
																	</g>
																</g>
															</g>
														</g>
													</g>
												</g>
											</g>
										</g>
									</g>
								</g>
							</g>
						</g>
					</g>
				</g>
			</g>
		</g>
	</g>
</g>
<g transform="translate(20.4872,14.9415)">
	<g>
		<g>
			<g>
				<g id="g342">
					<rect id="rect5896_7_" x="19" y="53.8" class="st17" width="33.7" height="8.5"/>
					<path id="rect5898_5_" class="st25" d="M52.1,47.3v22.3c0,1.3-1,2.3-2.3,2.3H22c-1.3,0-2.3-1-2.3-2.3V47.3c0-1.3,1-2.3,2.3-2.3
						h27.8C51,45,52.1,46,52.1,47.3z"/>
				</g>
			</g>
		</g>
	</g>
</g>
<g transform="translate(20.4872,14.9415)">
	<g>
		<g>
			<g>
				<g id="g343">
					<rect id="rect5896_8_" x="73" y="85" class="st17" width="5.7" height="22.6"/>
					<path id="rect5898_6_" class="st25" d="M83.1,107.2h-15c-0.9,0-1.5-0.7-1.5-1.5V87c0-0.9,0.7-1.5,1.5-1.5h15
						c0.9,0,1.5,0.7,1.5,1.5v18.6C84.6,106.5,84,107.2,83.1,107.2z"/>
				</g>
			</g>
		</g>
	</g>
</g>
<g transform="translate(20.4872,14.9415)">
	<g>
		<g>
			<g>
				<g id="g352">
					<rect id="rect5898_7_" x="20.5" y="94.1" class="st23" width="12" height="19.7"/>
					<rect id="rect5896_9_" x="20.4" y="94.1" class="st17" width="2.2" height="19.7"/>
					<rect id="rect5896_10_" x="30.3" y="94.1" class="st17" width="2.2" height="19.7"/>
				</g>
			</g>
		</g>
	</g>
</g>
<g transform="translate(20.4872,14.9415)">
	<g>
		<g>
			<g>
				<g id="_x32_P_Batt">
					<rect x="80.5" y="123.2" class="st26" width="2.1" height="10.3"/>
					<rect x="100.6" y="123.2" class="st26" width="2.1" height="10.3"/>
					<rect id="rect5896_45_" x="87.3" y="119.2" class="st17" width="2.5" height="23.7"/>
					<rect id="rect5896_44_" x="93" y="119.2" class="st17" width="2.5" height="23.7"/>
					<rect id="rect5896_41_" x="80.2" y="140.9" class="st17" width="1.6" height="5.2"/>
					<rect id="rect5896_40_" x="101.5" y="140.9" class="st17" width="1.6" height="5.2"/>
					<rect x="87" y="129.3" class="st27" width="9" height="16.4"/>
					<rect x="81.1" y="129.4" class="st27" width="3.5" height="16.7"/>
					<rect x="98.3" y="129.4" class="st27" width="3.5" height="16.7"/>
					<rect x="80.5" y="129.4" class="st28" width="3.5" height="16.7"/>
					<rect x="99.2" y="129.4" class="st28" width="3.5" height="16.7"/>
					<rect x="84.6" y="129.4" class="st29" width="2.4" height="4.1"/>
					<rect x="96" y="129.4" class="st29" width="2.4" height="4.1"/>
					<rect x="84" y="140.9" class="st27" width="15.3" height="5.2"/>
				</g>
			</g>
		</g>
	</g>
</g>
<g transform="translate(20.4872,14.9415)">
	<g>
		<g>
			<g>
				<g id="Power_1_">
					<rect x="30.1" y="121.5" class="st30" width="22.9" height="24.2"/>
					<rect x="30" y="140.8" class="st31" width="22.9" height="4.9"/>
				</g>
			</g>
		</g>
	</g>
</g>
<g transform="translate(20.4872,14.9415)">
	<g>
		<g>
			<g>
				<g id="g356">
					<rect x="53.6" y="121.5" class="st30" width="22.9" height="24.2"/>
					<rect x="53.5" y="140.8" class="st31" width="22.9" height="4.9"/>
				</g>
			</g>
		</g>
	</g>
</g>
<g transform="translate(20.4872,14.9415)">
	<g>
		<g>
			<g>
				<g id="_x34_pin_Grove">
					<rect x="113.4" y="120.7" class="st32" width="3.2" height="11"/>
					<rect x="144.8" y="120.7" class="st32" width="3.2" height="11"/>
					<rect id="rect5896_11_" x="121" y="116.4" class="st17" width="2.5" height="25.3"/>
					<rect id="rect5896_12_" x="126.7" y="116.4" class="st17" width="2.5" height="25.3"/>
					<rect id="rect5896_13_" x="132.3" y="116.4" class="st17" width="2.5" height="25.3"/>
					<rect id="rect5896_14_" x="138" y="116.4" class="st17" width="2.5" height="25.3"/>
					<rect id="rect5896_15_" x="112.9" y="139.5" class="st17" width="2.5" height="5.6"/>
					<rect id="rect5896_16_" x="146" y="139.5" class="st17" width="2.5" height="5.6"/>
					<rect x="113.4" y="125" class="st33" width="34.6" height="13.6"/>
					<rect x="114.4" y="127.3" class="st33" width="5.4" height="17.8"/>
					<rect x="141.2" y="127.3" class="st33" width="5.4" height="17.8"/>
					<rect x="113.4" y="127.3" class="st34" width="5.4" height="17.8"/>
					<rect x="142.6" y="127.3" class="st34" width="5.4" height="17.8"/>
					<rect x="126.9" y="136.2" class="st35" width="8.9" height="2.4"/>
				</g>
			</g>
		</g>
	</g>
</g>
<g transform="translate(20.4872,14.9415)">
	<g>
		<g>
			<g>
				<g id="_x34_pin_PH2.5">
					<rect x="162.7" y="97.4" class="st36" width="2.5" height="8.3"/>
					<rect x="162.7" y="106.3" class="st36" width="2.5" height="8.6"/>
					<rect x="162.7" y="115.6" class="st36" width="2.5" height="8.3"/>
					<rect id="rect5896_17_" x="151.4" y="115.8" class="st17" width="12.1" height="1.1"/>
					<rect id="rect5896_18_" x="151.4" y="112.1" class="st17" width="12.1" height="1.1"/>
					<rect id="rect5896_19_" x="151.4" y="108.4" class="st17" width="12.1" height="1.1"/>
					<rect id="rect5896_20_" x="151.4" y="104.7" class="st17" width="12.1" height="1.1"/>
					<rect x="164.3" y="96.8" class="st17" width="0.8" height="0.6"/>
					<rect x="164.3" y="123.9" class="st17" width="0.8" height="0.6"/>
					<rect x="162.7" y="123.4" class="st33" width="1.6" height="1.1"/>
					<rect x="162.7" y="96.8" class="st33" width="1.6" height="1.1"/>
					<path class="st37" d="M159.9,127.1h-2.2c-1.3,0-2.4-1.1-2.4-2.4V96.9c0-1.3,1.1-2.4,2.4-2.4h2.2c1.3,0,2.4,1.1,2.4,2.4v27.8
						C162.3,126.1,161.3,127.1,159.9,127.1z"/>
					<rect x="154.8" y="96.8" class="st33" width="7.9" height="27.7"/>
					<rect x="158.8" y="124.5" class="st37" width="4.5" height="2.6"/>
					<rect x="158.8" y="94.5" class="st37" width="4.5" height="2.3"/>
					<rect id="rect5896_21_" x="157.1" y="95.1" class="st17" width="6.2" height="1.7"/>
					<rect id="rect5896_22_" x="157.1" y="124.5" class="st17" width="6.2" height="1.7"/>
				</g>
			</g>
		</g>
	</g>
</g>
<g transform="translate(20.4872,14.9415)">
	<g>
		<g>
			<g>
				<g id="_x36_pin_PH2.5">
					<rect x="162.7" y="54.2" class="st36" width="2.5" height="8.5"/>
					<rect x="162.7" y="63.5" class="st36" width="2.5" height="14.9"/>
					<rect x="162.7" y="79.3" class="st36" width="2.5" height="8.2"/>
					<rect id="rect5896_28_" x="151.4" y="79.6" class="st17" width="12.1" height="1.1"/>
					<rect id="rect5896_29_" x="151.4" y="76" class="st17" width="12.1" height="1.1"/>
					<rect id="rect5896_30_" x="151.4" y="72.4" class="st17" width="12.1" height="1.1"/>
					<rect id="rect5896_27_" x="151.4" y="68.8" class="st17" width="12.1" height="1.1"/>
					<rect id="rect5896_26_" x="151.4" y="65.2" class="st17" width="12.1" height="1.1"/>
					<rect id="rect5896_25_" x="151.4" y="61.5" class="st17" width="12.1" height="1.1"/>
					<path class="st37" d="M159.9,91.3h-2.2c-1.3,0-2.4-1.1-2.4-2.4V53.2c0-1.3,1.1-2.4,2.4-2.4h2.2c1.3,0,2.4,1.1,2.4,2.4v35.7
						C162.3,90.3,161.3,91.3,159.9,91.3z"/>
					<rect x="154.8" y="53.7" class="st33" width="7.9" height="34.4"/>
					<rect x="158.8" y="88" class="st37" width="4.5" height="3.3"/>
					<rect x="158.8" y="50.9" class="st37" width="4.5" height="2.8"/>
					<rect id="rect5896_24_" x="157.1" y="51.6" class="st17" width="6.2" height="2.1"/>
					<rect id="rect5896_23_" x="157.1" y="88.1" class="st17" width="6.2" height="2.1"/>
					<rect x="164.3" y="53.7" class="st17" width="0.8" height="0.6"/>
					<rect x="164.3" y="87.5" class="st17" width="0.9" height="0.6"/>
					<rect x="162.7" y="87" class="st33" width="1.6" height="1.1"/>
					<rect x="162.7" y="53.7" class="st33" width="1.6" height="1.1"/>
				</g>
			</g>
		</g>
	</g>
</g>
<g transform="translate(20.4872,14.9415)">
	<g>
		<g>
			<g>
				<g id="_x37_pin_PH2.5">
					<rect x="162.1" y="8.3" class="st36" width="2.5" height="8.9"/>
					<rect x="162.1" y="17.8" class="st36" width="2.5" height="17"/>
					<rect x="162.1" y="35.3" class="st36" width="2.5" height="8.7"/>
					<rect id="rect5896_39_" x="150.8" y="36.8" class="st17" width="12.1" height="1.1"/>
					<rect id="rect5896_38_" x="150.8" y="33.2" class="st17" width="12.1" height="1.1"/>
					<rect id="rect5896_37_" x="150.8" y="29.6" class="st17" width="12.1" height="1.1"/>
					<rect id="rect5896_36_" x="150.8" y="26" class="st17" width="12.1" height="1.1"/>
					<rect id="rect5896_35_" x="150.8" y="22.5" class="st17" width="12.1" height="1.1"/>
					<rect id="rect5896_34_" x="150.8" y="18.9" class="st17" width="12.1" height="1.1"/>
					<rect id="rect5896_33_" x="150.8" y="15.3" class="st17" width="12.1" height="1.1"/>
					<path class="st37" d="M159.4,48.1h-2.2c-1.3,0-2.4-1.1-2.4-2.4V6.9c0-1.3,1.1-2.4,2.4-2.4h2.2c1.3,0,2.4,1.1,2.4,2.4v38.8
						C161.8,47.1,160.7,48.1,159.4,48.1z"/>
					<rect x="154.2" y="7.6" class="st33" width="7.9" height="37"/>
					<rect x="158.2" y="44.6" class="st37" width="4.5" height="3.5"/>
					<rect x="158.2" y="4.6" class="st37" width="4.5" height="3"/>
					<rect id="rect5896_32_" x="156.5" y="5.4" class="st17" width="6.2" height="2.2"/>
					<rect id="rect5896_31_" x="156.5" y="44.7" class="st17" width="6.2" height="2.2"/>
					<rect x="163.7" y="7.6" class="st17" width="0.9" height="0.6"/>
					<rect x="163.7" y="44" class="st17" width="0.9" height="0.6"/>
					<rect x="162.1" y="43.5" class="st33" width="1.6" height="1.1"/>
					<rect x="162.1" y="7.6" class="st33" width="1.6" height="1.1"/>
				</g>
			</g>
		</g>
	</g>
</g>
<rect id="PWR_LED" x="15.6" y="126.7" class="st38" width="4.2" height="4.2"/>
<rect id="USB_LED" x="30.6" y="126" class="st39" width="4.2" height="4.2"/>
<rect id="CHRG_LED" x="112.2" y="122.1" class="st40" width="4.2" height="4.2"/>
<rect id="R_LED" x="148.3" y="83.9" class="st41" width="4.2" height="4.2"/>
<path id="RESETBTN" class="st42" d="M155.1,116.9h-8.4c-0.6,0-1.2-0.5-1.2-1.2v-1.4c0-0.6,0.5-1.2,1.2-1.2h8.4
	c0.6,0,1.2,0.5,1.2,1.2v1.4C156.3,116.4,155.8,116.9,155.1,116.9z"/>
</svg>
