<svg viewBox="0 0 209 119" xmlns="http://www.w3.org/2000/svg" fill-rule="evenodd" clip-rule="evenodd" stroke-linecap="round"><path d="M203.636 14.872C203.636 6.664 196.973 0 188.764 0H14.871C6.663 0 0 6.664 0 14.872v88.676c0 8.208 6.663 14.872 14.871 14.872h173.893c8.209 0 14.872-6.664 14.872-14.872V14.872z" fill="#177a00"/><g fill="none" stroke="#fff" stroke-width=".58"><path d="M36.484 35.984V68.62M12.778 68.62V35.985" stroke-width="1.5899018"/></g><path fill="#9a916c" d="M34.343 64.735v6.993H27.35v-6.993zM34.343 32.876v6.993H27.35v-6.993zM21.91 64.735v6.993h-6.992v-6.993zM21.91 32.876v6.993h-6.992v-6.993zM23.683 53.72a3.887 3.887 0 003.886-3.885 3.887 3.887 0 00-3.886-3.885 3.887 3.887 0 00-3.885 3.885 3.886 3.886 0 003.885 3.885z"/><path d="M28.907 65.901v3.885h3.884V65.9h3.495V38.703h-3.495V34.82h-3.884v3.884h-8.55V34.82h-3.884v3.884h-3.498v27.198h3.498v3.885h3.884V65.9h8.55z" fill="#dcdcdc" fill-rule="nonzero"/><circle cx="52.302" cy="-24.631" r="6.798" fill="#1e1e1e" transform="rotate(90 0 0)"/><path fill="#b4b4b4" d="M36.286 37.538v1.554H12.975v-1.554zM36.286 65.512v1.554H12.975v-1.554z"/><g><path fill="#b4b4b4" d="M182.266 90.291V28.13h10.88V90.29z"/><path fill="#dcdcdc" d="M162.647 59.987v-1.554h9.325v1.554zM162.647 54.935v-1.554h9.325v1.554zM162.647 49.886v-1.554h9.325v1.554zM162.647 65.037v-1.555h9.325v1.555zM162.647 70.089v-1.555h9.325v1.555z"/><path fill="#b4b4b4" d="M166.729 78.636V39.785h1.943v38.85z"/><path d="M167.502 78.636V39.785h8.157v38.85z"/><path d="M172.167 43.669v6.217h1.944v3.884h-6.996v10.88h6.996v3.884h-1.944v6.217h-5.828v13.986h37.297V29.683H166.34V43.67h5.828z" fill="#dcdcdc" fill-rule="nonzero"/><path d="M195.868 79.8l-11.656-.775V75.14l11.656-.779v5.439zM195.868 44.058l-11.656-.776v-3.887l11.656-.775v5.438z" fill-rule="nonzero"/><path d="M208.296 85.629l-4.66 1.554V31.237l4.663 1.555-.003 52.837z" fill="#f0f0f0" fill-rule="nonzero"/><path d="M208.296 90.291l-4.66-1.554v-1.554l4.66 1.554v1.554zM208.299 29.683l-4.663 1.554v-1.554l4.663-1.554v1.554z" fill="#b4b4b4" fill-rule="nonzero"/><g fill="#fff" fill-rule="nonzero"><path d="M101.86 93.984a4.717 4.717 0 01-2.855.946c-1.367 0-2.404-.463-3.109-1.39-.706-.927-1.06-2.282-1.06-4.068 0-1.724.342-3.066 1.026-4.026.683-.96 1.732-1.44 3.143-1.44.506 0 1.01.066 1.505.195.498.129.899.3 1.202.515l-.404.962a4.578 4.578 0 00-2.303-.597c-.965 0-1.684.352-2.158 1.059-.475.706-.713 1.817-.713 3.332 0 2.923.957 4.386 2.871 4.386.72 0 1.265-.153 1.633-.456v-2.595h-1.894V89.75h3.117v4.235zM110.875 90.882h-5.33c0 .88.254 1.605.763 2.178.51.571 1.135.856 1.876.856.705 0 1.434-.126 2.185-.379l.201.931c-.686.308-1.486.462-2.401.462-1.153 0-2.083-.37-2.788-1.11-.707-.741-1.06-1.74-1.06-2.997 0-1.234.318-2.216.951-2.95.634-.733 1.452-1.1 2.456-1.1.895 0 1.643.341 2.245 1.022.602.681.902 1.588.902 2.722v.365zm-1.267-.948c0-.605-.19-1.116-.566-1.532-.378-.415-.8-.622-1.268-.622-.602 0-1.1.198-1.495.597-.396.397-.616.917-.66 1.557h3.989zM119.809 94.73h-1.165v-4.981c0-.691-.109-1.193-.33-1.503-.222-.31-.57-.466-1.041-.466-.71 0-1.474.443-2.288 1.327v5.622h-1.165V86.96h1.165v1.14c.834-.884 1.714-1.327 2.639-1.327 1.456 0 2.185.88 2.185 2.64v5.316zM129.203 90.882h-5.33c0 .88.254 1.605.763 2.178.51.571 1.135.856 1.875.856.707 0 1.435-.126 2.185-.379l.201.931c-.685.308-1.486.462-2.4.462-1.154 0-2.083-.37-2.79-1.11-.705-.741-1.058-1.74-1.058-2.997 0-1.234.317-2.216.95-2.95.635-.733 1.454-1.1 2.458-1.1.895 0 1.643.341 2.244 1.022.602.681.902 1.588.902 2.722v.365zm-1.268-.948c0-.605-.188-1.116-.566-1.532-.378-.415-.8-.622-1.267-.622-.602 0-1.1.198-1.496.597-.394.397-.614.917-.66 1.557h3.99zM138.256 87.17l-.471 1.118c-.512-.224-.954-.336-1.326-.336-.344 0-.68.098-1.007.294a3.224 3.224 0 00-.906.842c-.276.367-.415.571-.415.616v5.025h-1.155V86.96h1.155v1.573c.623-1.173 1.427-1.76 2.417-1.76.587 0 1.156.133 1.708.396zM144.794 84.022c.22 0 .406.079.56.235.154.157.23.344.23.563a.785.785 0 01-.79.805.731.731 0 01-.54-.243.779.779 0 01-.235-.562c0-.214.078-.4.236-.56a.735.735 0 01.54-.238zm.568 10.707h-1.163v-6.762h-2.29V86.96h3.453v7.77zM156.434 94.468a5.313 5.313 0 01-2.23.462c-1.222 0-2.198-.371-2.926-1.114-.728-.744-1.092-1.731-1.092-2.964 0-1.233.367-2.22 1.1-2.964.733-.743 1.696-1.115 2.888-1.115.782 0 1.525.138 2.23.41l-.306.962c-.706-.243-1.342-.365-1.908-.365-.856 0-1.533.276-2.033.828-.499.551-.748 1.3-.748 2.244 0 .865.258 1.592.775 2.181.517.59 1.19.883 2.02.883.656 0 1.333-.126 2.03-.379l.2.931zM95.448 99.479h2.073c1.377 0 2.48.47 3.31 1.406.831.936 1.246 2.223 1.246 3.858 0 1.671-.421 2.964-1.264 3.881-.842.918-1.923 1.376-3.24 1.376h-2.125V99.48zm1.223 9.455h.865c1 0 1.79-.37 2.371-1.111.582-.74.872-1.768.872-3.08 0-1.302-.291-2.327-.876-3.076-.584-.748-1.373-1.122-2.367-1.122h-.865v8.389zM110.875 106.153h-5.33c0 .88.254 1.605.763 2.177.51.572 1.135.857 1.876.857.705 0 1.434-.126 2.185-.38l.201.932c-.686.308-1.486.462-2.401.462-1.153 0-2.083-.37-2.788-1.11-.707-.741-1.06-1.74-1.06-2.998 0-1.233.318-2.215.951-2.95.634-.732 1.452-1.099 2.456-1.099.895 0 1.643.341 2.245 1.022.602.68.902 1.588.902 2.722v.365zm-1.267-.948c0-.606-.19-1.116-.566-1.532-.378-.415-.8-.622-1.268-.622-.602 0-1.1.198-1.495.596-.396.397-.616.918-.66 1.558h3.989zM120.159 102.231l-2.946 7.77h-1.059l-2.93-7.77h1.268l2.199 6.18 2.2-6.18h1.268zM127.228 104.229c.7.164 1.25.482 1.648.954.397.473.595 1.034.595 1.685 0 .955-.346 1.716-1.04 2.282-.693.566-1.526.85-2.501.85h-2.99V99.48h2.915c1.014 0 1.807.222 2.38.668.57.444.856 1.072.856 1.882 0 .497-.164.94-.495 1.327-.331.388-.787.67-1.368.842v.031zm-3.066-.566h1.432c1.496 0 2.245-.535 2.245-1.604 0-.487-.184-.861-.553-1.122-.367-.261-.906-.392-1.617-.392h-1.507v3.118zm0 5.27h1.387c.811 0 1.454-.183 1.928-.55.475-.368.712-.873.712-1.515 0-.68-.233-1.207-.7-1.58-.467-.373-1.144-.56-2.029-.56h-1.298v4.206zM135.124 102.044c1.069 0 1.92.373 2.55 1.119.631.745.947 1.726.947 2.944 0 1.228-.316 2.218-.947 2.968-.63.75-1.481 1.126-2.55 1.126-1.074 0-1.925-.374-2.554-1.122-.629-.747-.943-1.739-.943-2.972 0-1.221.316-2.205.947-2.948.631-.743 1.481-1.115 2.55-1.115zm0 7.143c.705 0 1.262-.298 1.67-.895.408-.595.612-1.32.612-2.17 0-.894-.203-1.63-.605-2.206-.402-.577-.962-.865-1.677-.865-.721 0-1.28.285-1.678.854-.397.568-.596 1.308-.596 2.218 0 .865.201 1.592.603 2.18.404.59.96.884 1.671.884zM147.493 110h-1.155c-.094-.313-.141-.73-.141-1.252-.662.968-1.562 1.453-2.7 1.453a2.168 2.168 0 01-1.524-.615c-.44-.41-.66-.937-.66-1.584 0-.383.077-.721.231-1.014.154-.294.38-.54.678-.742a3.66 3.66 0 011.088-.477 8.271 8.271 0 011.522-.243l1.305-.105v-.372c0-1.332-.621-1.998-1.864-1.998-.293 0-.665.063-1.115.19-.45.126-.836.277-1.16.451l-.305-.835c1.059-.542 2.042-.813 2.952-.813 1.77 0 2.655.937 2.655 2.811v3.34c0 .676.065 1.278.193 1.805zm-1.356-2.303v-1.41c-1.049.094-1.769.183-2.158.264-.391.083-.73.236-1.015.459-.286.224-.429.528-.429.91 0 .348.123.628.366.842.243.214.555.32.931.32.414 0 .824-.122 1.23-.368a3.61 3.61 0 001.075-1.017zM156.583 102.44l-.47 1.118c-.512-.224-.954-.336-1.327-.336a1.94 1.94 0 00-1.006.294c-.329.198-.63.478-.906.843-.276.366-.414.571-.414.616V110h-1.155v-7.769h1.155v1.573c.621-1.173 1.427-1.76 2.415-1.76.587 0 1.156.132 1.708.396zM165.598 110h-1.163v-1.119a2.76 2.76 0 01-1.026.947 2.83 2.83 0 01-1.405.373c-.89 0-1.593-.396-2.11-1.188-.517-.793-.776-1.799-.776-3.016 0-1.14.27-2.082.81-2.83.54-.749 1.253-1.123 2.143-1.123.98 0 1.767.398 2.364 1.194v-3.76h1.163V110zm-1.163-2.378v-3.229c-.557-.894-1.228-1.342-2.013-1.342-.642 0-1.148.285-1.52.854-.374.568-.56 1.289-.56 2.158 0 .894.175 1.634.525 2.218.35.584.832.877 1.443.877.292 0 .589-.08.887-.24.299-.159.579-.397.842-.715.264-.318.396-.511.396-.581z"/></g><g fill="#fff" fill-rule="nonzero"><path d="M14.982 83.868h-1.059l-2.137-3.31h-.94v3.31H10v-7.285h2.06c.691 0 1.238.168 1.639.504.4.336.601.803.601 1.402 0 .443-.146.838-.438 1.184-.293.346-.696.58-1.208.705l2.328 3.49zm-4.135-4.048h1.068c.448 0 .81-.12 1.09-.364.279-.242.418-.548.418-.916 0-.813-.496-1.219-1.487-1.219h-1.09v2.499zM20.392 83.868h-3.804v-7.285h3.773v.738h-2.927v2.257h2.814v.738h-2.814v2.813h2.958v.739zM26.334 77.39a3.821 3.821 0 00-1.233-.223c-.44 0-.8.1-1.077.301-.277.202-.416.488-.416.86 0 .44.363.828 1.09 1.162.537.248.892.42 1.066.516.174.097.35.229.529.397.179.17.322.368.43.597.11.229.164.486.164.772 0 .709-.239 1.259-.716 1.649-.476.391-1.038.586-1.685.586-.627 0-1.176-.123-1.647-.372l.175-.728c.555.251 1.038.377 1.452.377.481 0 .867-.125 1.158-.374.29-.25.436-.593.436-1.03 0-.323-.094-.598-.283-.823-.19-.226-.539-.455-1.048-.69-.523-.24-.862-.405-1.015-.492a2.15 2.15 0 01-.456-.364 1.594 1.594 0 01-.475-1.152c0-.602.216-1.072.65-1.41.433-.336.982-.505 1.647-.505.485 0 .967.074 1.446.222l-.192.723zM33.082 83.868h-3.805v-7.285h3.774v.738h-2.927v2.257h2.813v.738h-2.813v2.813h2.958v.739zM40.15 77.27h-2.246v6.598h-.842V77.27h-2.256v-.687h5.344v.687z"/></g></g></svg>