<svg viewBox="0 0 209 119" xmlns="http://www.w3.org/2000/svg" fill-rule="evenodd" clip-rule="evenodd" stroke-linecap="round"><path d="M203.636 14.872C203.636 6.664 196.973 0 188.764 0H14.871C6.663 0 0 6.664 0 14.872v88.676c0 8.208 6.663 14.872 14.871 14.872h173.893c8.209 0 14.872-6.664 14.872-14.872V14.872z" fill="#177a00"/><path d="M36.484 35.984V68.62m-23.706 0V35.985" fill="none" stroke="#fff" stroke-width="1.59"/><path d="M34.343 64.735v6.993H27.35v-6.993h6.993zm0-31.859v6.993H27.35v-6.993h6.993zM21.91 64.735v6.993h-6.992v-6.993h6.992zm0-31.859v6.993h-6.992v-6.993h6.992zm1.773 20.844c2.131-.001 3.885-1.754 3.886-3.885-.001-2.131-1.755-3.884-3.886-3.885a3.905 3.905 0 00-3.885 3.885 3.905 3.905 0 003.885 3.885z" fill="#9a916c"/><path d="M28.907 65.9v3.886h3.884V65.9h3.495V38.703h-3.495V34.82h-3.884v3.884h-8.55V34.82h-3.884v3.884h-3.498v27.198h3.498v3.885h3.884V65.9h8.55z" fill="#dcdcdc" fill-rule="nonzero"/><circle cx="52.302" cy="-24.631" r="6.798" fill="#1e1e1e" transform="rotate(90)"/><path d="M36.286 37.538v1.554H12.975v-1.554h23.311zm0 27.974v1.554H12.975v-1.554h23.311zM182.266 90.291V28.13h10.88v62.16l-10.88.001z" fill="#b4b4b4"/><path d="M162.647 59.987v-1.554h9.325v1.554h-9.325zm0-5.052v-1.554h9.325v1.554h-9.325zm0-5.049v-1.554h9.325v1.554h-9.325zm0 15.151v-1.555h9.325v1.555h-9.325zm0 5.052v-1.555h9.325v1.555h-9.325z" fill="#dcdcdc"/><path d="M166.729 78.636V39.785h1.943v38.85l-1.943.001z" fill="#b4b4b4"/><path d="M167.502 78.636V39.785h8.157v38.85l-8.157.001z"/><path d="M172.167 43.669v6.217h1.944v3.884h-6.996v10.88h6.996v3.884h-1.944v6.217h-5.828v13.986h37.297V29.683H166.34V43.67h5.828l-.001-.001z" fill="#dcdcdc" fill-rule="nonzero"/><path d="M195.868 79.8l-11.656-.775V75.14l11.656-.779V79.8zm0-35.742l-11.656-.776v-3.887l11.656-.775v5.438z" fill-rule="nonzero"/><path d="M208.296 85.629l-4.66 1.554V31.237l4.663 1.555-.003 52.837z" fill="#f0f0f0" fill-rule="nonzero"/><path d="M208.296 90.291l-4.66-1.554v-1.554l4.66 1.554v1.554zm.003-60.608l-4.663 1.554v-1.554l4.663-1.554v1.554z" fill="#b4b4b4" fill-rule="nonzero"/><path d="M14.982 83.868h-1.059l-2.137-3.31h-.94v3.31H10v-7.285h2.06c.691 0 1.238.168 1.639.504.4.336.601.803.601 1.402 0 .443-.146.838-.438 1.184-.293.346-.696.58-1.208.705l2.328 3.49zm-4.136-4.048h1.069c.448 0 .81-.12 1.09-.364.279-.242.418-.548.418-.916 0-.813-.496-1.219-1.487-1.219h-1.09v2.499zm9.546 4.048h-3.804v-7.285h3.773v.738h-2.927v2.257h2.814v.738h-2.814v2.813h2.958v.739zm5.942-6.478a3.815 3.815 0 00-1.233-.223c-.44 0-.8.1-1.077.301-.277.202-.416.488-.416.86 0 .44.363.828 1.09 1.162.537.248.892.42 1.066.516.174.097.35.229.529.397.179.17.322.368.43.597.11.229.164.486.164.772 0 .709-.239 1.259-.716 1.649-.476.391-1.038.586-1.685.586-.627 0-1.176-.123-1.647-.372l.175-.728c.555.251 1.038.377 1.452.377.481 0 .867-.125 1.158-.374.29-.25.436-.593.436-1.03 0-.323-.094-.598-.283-.823-.19-.226-.539-.455-1.048-.69-.523-.24-.862-.405-1.015-.492a2.166 2.166 0 01-.456-.364 1.594 1.594 0 01-.475-1.152c0-.602.216-1.072.65-1.41.433-.336.982-.505 1.647-.505.485 0 .967.074 1.446.222l-.192.723v.001zm6.748 6.478h-3.805v-7.285h3.774v.738h-2.927v2.257h2.813v.738h-2.813v2.813h2.958v.739zm7.068-6.598h-2.246v6.598h-.842V77.27h-2.256v-.687h5.344v.687z" fill="#fff" fill-rule="nonzero"/></svg>