<svg viewBox="0 0 325 163" xmlns="http://www.w3.org/2000/svg" fill-rule="evenodd" clip-rule="evenodd" stroke-linejoin="round" stroke-miterlimit="2"><path d="M282.403 162.977a6.522 6.522 0 006.519-6.519V6.519A6.522 6.522 0 00282.403 0H14.839A6.522 6.522 0 008.32 6.519v149.939a6.522 6.522 0 006.519 6.519h267.564z" fill="#2d2d2d"/><path d="M324.459 134.082V29.13H140.458v104.952h184.001z"/><path d="M302.013 76.811h17.743v-7.984h-17.743V49h17.743v-8.37h-22.811v-4.678h27.489v17.725H306.69v10.472h17.744v17.34H306.69v10.472h17.744v29.976h-35.659v-4.677h30.981v-8.364h-30.981v-4.678h30.981v-7.58h-17.743V76.811z" fill="#d09600"/><path d="M144.27 35.464h140.55v61.951h-22.337v31.241H144.27V35.464z" fill="#c7c7c7"/><path d="M246.725 39.493h5.658v2.805h-.668v-2.292h-1.733v2.146h-.663v-2.146h-1.926v2.382h-.668v-2.895zM248.543 42.923l.062.484a2.077 2.077 0 00-.697.16 1.027 1.027 0 00-.44.39 1.09 1.09 0 00-.168.596c0 .196.043.368.128.518.085.15.201.262.349.335.148.073.309.11.484.11a.967.967 0 00.465-.106.837.837 0 00.334-.349c.059-.104.151-.334.276-.691.125-.356.243-.606.353-.749.142-.185.317-.323.527-.414a1.75 1.75 0 01.704-.136c.286 0 .553.055.801.166.248.112.437.274.565.487.129.214.193.451.193.712 0 .288-.067.541-.202.761-.135.22-.334.389-.597.507a2.284 2.284 0 01-.891.19l-.054-.492c.358-.026.628-.116.81-.268.183-.153.274-.378.274-.677 0-.31-.083-.536-.249-.678a.888.888 0 00-.6-.213c-.203 0-.37.05-.501.15-.132.099-.266.357-.404.775-.137.417-.257.703-.36.858a1.392 1.392 0 01-.577.5 1.894 1.894 0 01-.805.162c-.301 0-.585-.059-.851-.177a1.421 1.421 0 01-.621-.51 1.312 1.312 0 01-.222-.747c0-.352.074-.646.224-.883.149-.237.373-.423.673-.558a2.57 2.57 0 011.017-.213zM246.725 46.712h5.658v1.464c0 .257-.018.454-.054.59a.997.997 0 01-.265.479 1.382 1.382 0 01-.546.311 2.426 2.426 0 01-.771.118c-.482 0-.889-.105-1.222-.315-.333-.21-.5-.59-.5-1.138v-.995h-2.3v-.514zm2.968.514v1.003c0 .331.09.567.27.706.18.14.434.209.76.209.237 0 .44-.041.608-.123.169-.082.28-.19.334-.324.033-.086.05-.246.05-.479v-.992h-2.022zM248.219 50.137l.092.476c-.393.055-.677.148-.85.279-.174.132-.261.292-.261.481 0 .224.113.413.34.567.226.155.506.232.841.232.319 0 .582-.072.789-.215.207-.143.311-.324.311-.545a.987.987 0 00-.077-.336l.609.053a.505.505 0 00-.007.077c0 .203.077.385.231.548.155.162.393.243.714.243.255 0 .466-.059.633-.177a.54.54 0 00.251-.458c0-.185-.085-.34-.255-.463-.17-.124-.424-.203-.764-.238l.124-.477c.465.059.826.191 1.082.397.256.207.384.463.384.77a.955.955 0 01-.199.585 1.247 1.247 0 01-.542.409 1.902 1.902 0 01-.729.142c-.245 0-.467-.045-.668-.135a1.102 1.102 0 01-.478-.4.938.938 0 01-.481.535c-.243.127-.547.19-.913.19-.494 0-.912-.123-1.256-.37-.343-.247-.515-.56-.515-.937 0-.341.148-.623.444-.848.296-.225.679-.354 1.15-.385zM247.393 55.652h-.668v-2.565c.168-.003.328.015.483.056.254.065.505.17.752.314.247.143.533.351.857.623.504.421.904.706 1.198.855.295.148.573.222.836.222.275 0 .507-.068.696-.203a.622.622 0 00.284-.528c0-.229-.1-.412-.301-.55-.201-.138-.479-.207-.834-.209l.074-.49c.532.034.938.16 1.217.379.279.219.419.512.419.881 0 .372-.151.667-.452.884-.301.217-.674.325-1.119.325-.226 0-.449-.031-.667-.095a2.884 2.884 0 01-.691-.316 9.922 9.922 0 01-.996-.734c-.35-.286-.587-.47-.712-.551a2.411 2.411 0 00-.376-.201v1.903zM248.423 56.11h.699v1.463h-.699V56.11zM246.725 58.838l5.658-1.029v.526l-3.709.59c-.388.064-.774.119-1.158.164.605.099.954.157 1.046.175l3.821.738v.62l-2.864.555c-.71.14-1.377.24-2.003.302.358.05.768.114 1.232.193l3.635.609v.516l-5.658-1.064v-.495l4.311-.817c.36-.069.581-.11.664-.122-.26-.041-.481-.079-.664-.114l-4.311-.823v-.524zM246.725 63.284h5.658v1.72c0 .346-.051.609-.153.789-.101.18-.281.324-.538.431a2.183 2.183 0 01-.853.162c-.401 0-.739-.089-1.015-.268-.275-.178-.45-.453-.525-.825a1.397 1.397 0 01-.281.309c-.201.15-.452.292-.753.426l-1.54.675v-.646l1.177-.513c.34-.15.6-.273.78-.37.18-.097.306-.184.378-.261a.7.7 0 00.151-.234c.018-.059.027-.154.027-.286v-.596h-2.513v-.513zm3.161.513v1.104c0 .235.035.418.106.55a.68.68 0 00.34.302c.155.069.325.103.507.103.268 0 .488-.066.66-.199.172-.134.259-.344.259-.632v-1.228h-1.872zM249.481 67.034c.939 0 1.674.173 2.205.519.532.345.797.792.797 1.339 0 .358-.125.681-.374.968-.25.288-.598.507-1.044.658a4.728 4.728 0 01-1.519.226 4.626 4.626 0 01-1.539-.238c-.453-.159-.796-.384-1.029-.675a1.478 1.478 0 01-.349-.942c0-.365.129-.691.386-.979.257-.288.608-.506 1.053-.654a4.448 4.448 0 011.413-.222zm-.012.529c-.682 0-1.219.126-1.611.377-.392.252-.588.567-.588.946 0 .387.198.705.594.954.396.25.958.375 1.686.375.461 0 .863-.053 1.206-.16.344-.107.61-.263.799-.469a.996.996 0 00.284-.692c0-.363-.182-.676-.546-.938-.364-.262-.972-.393-1.824-.393zM246.725 72.515l5.658-1.503v.555l-4.11 1.009c-.329.081-.638.149-.926.203.308.06.617.13.926.209l4.11 1.048v.524l-5.658-1.519v-.526zM246.725 75.031h5.658v2.806h-.668v-2.292h-1.733v2.146h-.663v-2.146h-1.926v2.382h-.668v-2.896zM246.725 78.644h5.658v1.72c0 .346-.051.609-.153.789-.101.18-.281.323-.538.431a2.183 2.183 0 01-.853.161c-.401 0-.739-.089-1.015-.267-.275-.178-.45-.453-.525-.826a1.405 1.405 0 01-.281.31c-.201.15-.452.292-.753.426l-1.54.675v-.646l1.177-.513c.34-.15.6-.274.78-.371.18-.097.306-.184.378-.26a.693.693 0 00.151-.235c.018-.058.027-.153.027-.285v-.596h-2.513v-.513zm3.161.513v1.104c0 .234.035.418.106.55a.684.684 0 00.34.302c.155.069.325.103.507.103.268 0 .488-.067.66-.2.172-.133.259-.343.259-.631v-1.228h-1.872zM248.423 82.304h.699v1.463h-.699v-1.463zM246.725 84.365h5.658v2.805h-.668v-2.291h-1.733v2.146h-.663v-2.146h-1.926v2.381h-.668v-2.895zM268.666 51.568h7.201v3.571h-.85v-2.917h-2.205v2.731h-.845v-2.731h-2.451v3.031h-.85v-3.685zM270.979 55.934l.079.616c-.36.029-.656.097-.887.204-.23.107-.417.272-.56.497a1.387 1.387 0 00-.213.758c0 .249.054.469.162.66.108.191.256.333.444.426.189.093.394.14.617.14.226 0 .423-.045.592-.135.168-.09.31-.238.425-.445.075-.132.192-.425.351-.879.159-.453.309-.771.449-.953.18-.236.404-.412.671-.527.267-.116.566-.174.896-.174.364 0 .704.071 1.02.212.316.142.555.349.719.62.164.272.246.574.246.906 0 .366-.086.689-.258.969a1.67 1.67 0 01-.759.645 2.93 2.93 0 01-1.135.242l-.068-.626c.455-.034.799-.148 1.031-.342.233-.194.349-.481.349-.861 0-.395-.106-.683-.317-.864a1.14 1.14 0 00-.764-.271c-.259 0-.471.064-.638.192-.167.126-.338.454-.514.985-.175.532-.328.896-.459 1.094a1.772 1.772 0 01-.734.636 2.42 2.42 0 01-1.025.206c-.383 0-.744-.076-1.083-.226a1.802 1.802 0 01-.79-.648 1.672 1.672 0 01-.283-.952c0-.447.095-.821.285-1.123.19-.303.476-.539.857-.711a3.27 3.27 0 011.294-.271zM268.666 60.757h7.201v1.863c0 .328-.023.578-.069.751a1.259 1.259 0 01-.336.61c-.166.164-.397.296-.695.396-.298.1-.626.15-.983.15-.612 0-1.13-.134-1.554-.401-.424-.267-.636-.75-.636-1.449v-1.266h-2.928v-.654zm3.777.654v1.276c0 .423.115.722.344.9.229.177.552.266.968.266.301 0 .559-.052.773-.157.215-.104.357-.242.425-.412.043-.11.064-.314.064-.61v-1.263h-2.574zM268.666 65.369h7.201v2.189c0 .44-.065.775-.194 1.004-.129.229-.358.412-.685.549-.328.137-.69.206-1.086.206-.511 0-.941-.114-1.292-.341-.35-.226-.573-.577-.668-1.051-.121.173-.24.305-.358.395-.256.19-.575.371-.958.542l-1.96.859v-.822l1.498-.654c.432-.19.763-.348.992-.471.23-.124.39-.234.482-.332a.878.878 0 00.191-.298 1.35 1.35 0 00.035-.364v-.758h-3.198v-.653zm4.023.653v1.405c0 .299.045.532.135.701a.87.87 0 00.432.384c.198.087.414.131.646.131.341 0 .621-.085.84-.254.22-.17.329-.438.329-.804v-1.563h-2.382zM268.666 70.354h7.201v3.571h-.85v-2.917h-2.205v2.732h-.845v-2.732h-2.451v3.031h-.85v-3.685zM270.979 74.72l.079.616c-.36.029-.656.097-.887.204-.23.107-.417.272-.56.497a1.387 1.387 0 00-.213.758c0 .249.054.469.162.66.108.191.256.333.444.426.189.093.394.14.617.14.226 0 .423-.045.592-.135.168-.09.31-.238.425-.445.075-.132.192-.425.351-.879.159-.453.309-.771.449-.953.18-.236.404-.411.671-.527.267-.116.566-.174.896-.174.364 0 .704.071 1.02.213.316.141.555.348.719.619.164.272.246.574.246.907 0 .366-.086.688-.258.968-.172.28-.425.495-.759.645-.334.15-.712.231-1.135.243l-.068-.627c.455-.034.799-.148 1.031-.342.233-.194.349-.481.349-.861 0-.395-.106-.683-.317-.864a1.14 1.14 0 00-.764-.271c-.259 0-.471.064-.638.192-.167.126-.338.454-.514.986-.175.531-.328.895-.459 1.093a1.772 1.772 0 01-.734.636 2.42 2.42 0 01-1.025.206c-.383 0-.744-.075-1.083-.226a1.802 1.802 0 01-.79-.648 1.67 1.67 0 01-.283-.952c0-.447.095-.821.285-1.123.19-.302.476-.539.857-.711a3.27 3.27 0 011.294-.271zM270.979 79.321l.079.617c-.36.029-.656.097-.887.203-.23.107-.417.273-.56.497a1.389 1.389 0 00-.213.758c0 .249.054.469.162.66.108.191.256.333.444.426.189.094.394.14.617.14.226 0 .423-.045.592-.134.168-.09.31-.239.425-.445.075-.133.192-.426.351-.879.159-.454.309-.772.449-.954.18-.235.404-.411.671-.527.267-.115.566-.173.896-.173.364 0 .704.07 1.02.212.316.141.555.348.719.62.164.271.246.574.246.906 0 .366-.086.689-.258.968-.172.28-.425.495-.759.645a2.913 2.913 0 01-1.135.243l-.068-.627c.455-.033.799-.147 1.031-.342.233-.194.349-.481.349-.86 0-.395-.106-.683-.317-.864a1.134 1.134 0 00-.764-.271c-.259 0-.471.064-.638.192-.167.125-.338.454-.514.985-.175.531-.328.895-.459 1.093-.193.287-.438.5-.734.637a2.42 2.42 0 01-1.025.205c-.383 0-.744-.075-1.083-.226a1.795 1.795 0 01-.79-.648 1.67 1.67 0 01-.283-.952c0-.446.095-.821.285-1.123.19-.302.476-.539.857-.711a3.27 3.27 0 011.294-.271zM268.666 84.256h7.201v.653h-7.201v-.653zM268.666 86.095h7.201v3.332h-.85v-2.678h-2.23v2.317h-.85v-2.317h-3.271v-.654zM215.21 48.507l-.561 1.525c-1.825-.32-3.217-.895-4.176-1.725-.958-.83-1.437-1.845-1.437-3.044 0-1.241.368-2.251 1.105-3.028.737-.778 1.804-1.37 3.202-1.776 1.398-.406 2.898-.609 4.502-.609 1.749 0 3.275.229 4.577.688 1.302.458 2.291 1.11 2.967 1.956.676.846 1.014 1.777 1.014 2.793 0 1.152-.428 2.121-1.283 2.906-.856.786-2.059 1.333-3.609 1.642l-.516-1.5c1.222-.267 2.112-.655 2.67-1.163.557-.508.836-1.147.836-1.917 0-.885-.309-1.625-.928-2.219-.619-.595-1.449-1.012-2.492-1.253a14.264 14.264 0 00-3.224-.362c-1.429 0-2.675.143-3.741.429-1.065.285-1.861.729-2.388 1.331-.527.602-.791 1.255-.791 1.956 0 .854.359 1.577 1.077 2.169.718.591 1.783.992 3.196 1.201zM209.322 51.94h16.794v8.328h-1.982v-6.803h-5.143v6.371h-1.971v-6.371h-5.716v7.07h-1.982V51.94z" fill-rule="nonzero"/><g fill="#d09600"><path d="M284.82 8.559V5.287h-3.272v3.272h3.272zM269.882 8.559V5.287h-3.272v3.272h3.272zM254.944 8.559V5.287h-3.272v3.272h3.272zM240.007 8.559V5.287h-3.273v3.272h3.273zM225.069 8.559V5.287h-3.273v3.272h3.273zM210.131 8.559V5.287h-3.272v3.272h3.272zM195.193 8.559V5.287h-3.272v3.272h3.272zM180.255 8.559V5.287h-3.272v3.272h3.272zM165.317 8.559V5.287h-3.272v3.272h3.272zM150.379 8.559V5.287h-3.272v3.272h3.272zM135.441 8.559V5.287h-3.272v3.272h3.272zM120.503 8.559V5.287h-3.272v3.272h3.272zM105.566 8.559V5.287h-3.273v3.272h3.273zM90.628 8.559V5.287h-3.273v3.272h3.273zM75.69 8.559V5.287h-3.272v3.272h3.272zM60.752 8.559V5.287H57.48v3.272h3.272zM45.814 8.559V5.287h-3.272v3.272h3.272zM30.876 8.559V5.287h-3.272v3.272h3.272z"/><path d="M15.938 8.559V5.287h-3.272v3.272h3.272z" fill-opacity=".5"/></g><g fill="#d09600"><path d="M285.101 157.776v-3.272h-3.272v3.272h3.272zM270.163 157.776v-3.272h-3.272v3.272h3.272zM255.225 157.776v-3.272h-3.272v3.272h3.272zM240.287 157.776v-3.272h-3.272v3.272h3.272zM225.349 157.776v-3.272h-3.272v3.272h3.272zM210.412 157.776v-3.272h-3.273v3.272h3.273zM195.474 157.776v-3.272h-3.272v3.272h3.272zM180.536 157.776v-3.272h-3.272v3.272h3.272zM165.598 157.776v-3.272h-3.272v3.272h3.272zM150.66 157.776v-3.272h-3.272v3.272h3.272zM135.722 157.776v-3.272h-3.272v3.272h3.272zM120.784 157.776v-3.272h-3.272v3.272h3.272zM105.846 157.776v-3.272h-3.272v3.272h3.272zM90.909 157.776v-3.272h-3.273v3.272h3.273zM75.971 157.776v-3.272h-3.273v3.272h3.273zM61.033 157.776v-3.272h-3.272v3.272h3.272zM46.095 157.776v-3.272h-3.272v3.272h3.272zM31.157 157.776v-3.272h-3.272v3.272h3.272zM16.219 157.776v-3.272h-3.272v3.272h3.272z"/></g><path d="M38.53 104.409V60.535H0v43.874h38.53zM50.056 39.109v-8.983H9.737v8.983h40.319z" fill="#c7c7c7"/><path d="M40.685 43.061V26.174H16.659v16.887h24.026z" fill="#969696"/><path d="M35.262 34.617a5.368 5.368 0 01-5.365 5.366 5.369 5.369 0 01-5.366-5.366 5.368 5.368 0 015.366-5.365 5.368 5.368 0 015.365 5.365z"/><path d="M50.056 133.266v-8.982H9.737v8.982h40.319z" fill="#c7c7c7"/><path d="M40.685 137.218v-16.886H16.659v16.886h24.026z" fill="#969696"/><path d="M35.262 128.775a5.368 5.368 0 01-5.365 5.365 5.368 5.368 0 01-5.366-5.365 5.368 5.368 0 015.366-5.365 5.368 5.368 0 015.365 5.365z"/><g fill="#adadad"><path d="M88.101 98.514v-2.038h-1.413v2.038h1.413zM85.217 98.514v-2.038h-1.413v2.038h1.413zM82.333 98.514v-2.038H80.92v2.038h1.413zM79.449 98.514v-2.038h-1.414v2.038h1.414zM76.565 98.514v-2.038h-1.414v2.038h1.414zM73.68 98.514v-2.038h-1.413v2.038h1.413zM70.796 98.514v-2.038h-1.413v2.038h1.413z"/></g><g fill="#adadad"><path d="M88.502 66.646v-2.038h-1.413v2.038h1.413zM85.618 66.646v-2.038h-1.413v2.038h1.413zM82.734 66.646v-2.038H81.32v2.038h1.414zM79.85 66.646v-2.038h-1.414v2.038h1.414zM76.965 66.646v-2.038h-1.413v2.038h1.413zM74.081 66.646v-2.038h-1.413v2.038h1.413zM71.197 66.646v-2.038h-1.413v2.038h1.413z"/></g><g fill="#adadad"><path d="M62.125 72.202h2.038v1.413h-2.038zM62.125 75.086h2.038v1.413h-2.038zM62.125 77.97h2.038v1.413h-2.038zM62.125 80.854h2.038v1.413h-2.038zM62.125 83.739h2.038v1.413h-2.038zM62.125 86.623h2.038v1.413h-2.038zM62.125 89.507h2.038v1.413h-2.038z"/></g><g fill="#adadad"><path d="M93.321 72.202h2.038v1.413h-2.038zM93.321 75.086h2.038v1.413h-2.038zM93.321 77.97h2.038v1.413h-2.038zM93.321 80.854h2.038v1.413h-2.038zM93.321 83.739h2.038v1.413h-2.038zM93.321 86.623h2.038v1.413h-2.038zM93.321 89.507h2.038v1.413h-2.038z"/></g><g fill="#adadad"><path d="M88.101 66.646v-2.038h-1.413v2.038h1.413zM85.217 66.646v-2.038h-1.413v2.038h1.413zM82.333 66.646v-2.038H80.92v2.038h1.413zM79.449 66.646v-2.038h-1.414v2.038h1.414zM76.565 66.646v-2.038h-1.414v2.038h1.414zM73.68 66.646v-2.038h-1.413v2.038h1.413zM70.796 66.646v-2.038h-1.413v2.038h1.413z"/></g><path d="M93.321 96.476v-29.83H64.163v29.83h29.158z"/><path d="M290.06 15.422l-1.124.13c-.036-.273-.133-.481-.29-.625a.814.814 0 00-.571-.216.803.803 0 00-.606.259c-.164.173-.246.406-.246.7 0 .277.079.497.236.66a.77.77 0 00.575.243c.149 0 .327-.027.533-.082l-.128.9c-.314-.008-.554.057-.719.194a.677.677 0 00-.248.549c0 .193.06.348.182.463a.668.668 0 00.483.173.72.72 0 00.509-.196c.141-.131.226-.323.256-.574l1.072.173c-.075.348-.187.627-.338.835-.15.208-.359.372-.628.491a2.21 2.21 0 01-.904.179c-.57 0-1.028-.173-1.373-.519-.284-.283-.426-.602-.426-.959 0-.505.291-.909.873-1.21a1.424 1.424 0 01-.833-.476 1.33 1.33 0 01-.313-.892c0-.505.195-.936.584-1.292.388-.357.872-.535 1.451-.535.549 0 1.004.15 1.365.45.361.3.57.692.628 1.177zM283.506 13.893l2.167 5.761h-1.328l-1.534-4.263-1.485 4.263h-1.298l2.171-5.761h1.307zM279.701 15.422l-1.125.13c-.036-.273-.132-.481-.289-.625a.816.816 0 00-.571-.216.802.802 0 00-.606.259c-.164.173-.246.406-.246.7 0 .277.079.497.236.66a.77.77 0 00.575.243c.149 0 .326-.027.533-.082l-.128.9c-.314-.008-.554.057-.72.194a.68.68 0 00-.248.549.61.61 0 00.182.463.672.672 0 00.484.173.72.72 0 00.509-.196c.14-.131.226-.323.256-.574l1.071.173c-.074.348-.187.627-.337.835-.15.208-.36.372-.628.491a2.21 2.21 0 01-.904.179c-.571 0-1.028-.173-1.373-.519-.284-.283-.426-.602-.426-.959 0-.505.291-.909.873-1.21a1.424 1.424 0 01-.834-.476 1.335 1.335 0 01-.312-.892c0-.505.194-.936.583-1.292.389-.357.873-.535 1.452-.535.548 0 1.003.15 1.364.45.362.3.571.692.629 1.177zM272.34 13.893v5.761h-4.495v-.974h3.271v-1.277h-3.044v-.971h3.044v-1.568h-3.387v-.971h4.611zM266.678 13.893v5.761h-1.191l-2.481-3.847v3.847h-1.137v-5.761h1.228l2.444 3.757v-3.757h1.137zM256.675 13.893l2.167 5.761h-1.328l-1.534-4.263-1.485 4.263h-1.298l2.171-5.761h1.307zM252.572 13.893v5.761h-1.964c-.744 0-1.229-.028-1.456-.086a1.6 1.6 0 01-.872-.564c-.234-.29-.352-.664-.352-1.122 0-.354.068-.651.203-.892s.307-.43.515-.568c.208-.137.42-.228.635-.273.292-.055.715-.083 1.269-.083h.798v-2.173h1.224zm-1.224 4.787v-1.635h-.67c-.482 0-.805.03-.967.09a.751.751 0 00-.521.731c0 .21.064.383.194.519s.294.221.492.255c.146.027.44.04.881.04h.591zM243.177 13.893l2.167 5.761h-1.328l-1.534-4.263-1.485 4.263h-1.298l2.171-5.761h1.307zM239.062 13.893v5.761h-1.191l-2.481-3.847v3.847h-1.138v-5.761h1.229l2.444 3.757v-3.757h1.137zM226.197 15.422l-1.125.13c-.036-.273-.133-.481-.29-.625a.813.813 0 00-.57-.216.802.802 0 00-.606.259c-.164.173-.246.406-.246.7 0 .277.078.497.235.66a.77.77 0 00.575.243c.149 0 .327-.027.534-.082l-.129.9c-.314-.008-.554.057-.719.194a.677.677 0 00-.248.549c0 .193.06.348.182.463a.669.669 0 00.484.173.717.717 0 00.508-.196c.141-.131.226-.323.257-.574l1.071.173c-.075.348-.187.627-.337.835-.151.208-.36.372-.629.491a2.21 2.21 0 01-.904.179c-.57 0-1.028-.173-1.372-.519-.284-.283-.426-.602-.426-.959 0-.505.29-.909.872-1.21a1.424 1.424 0 01-.833-.476 1.335 1.335 0 01-.312-.892c0-.505.194-.936.583-1.292.388-.357.872-.535 1.451-.535.549 0 1.004.15 1.365.45.361.3.571.692.629 1.177zM219.166 13.893v1.16h2.482v.966l-2.631 3.659h-.976v-3.655h-.752v-.97h.752v-1.16h1.125zm0 2.13v1.969l1.394-1.969h-1.394zM212.07 15.422l-1.125.13c-.036-.273-.132-.481-.289-.625a.817.817 0 00-.571-.216.802.802 0 00-.606.259c-.164.173-.246.406-.246.7 0 .277.078.497.236.66a.769.769 0 00.574.243c.149 0 .327-.027.534-.082l-.128.9c-.315-.008-.554.057-.72.194a.68.68 0 00-.248.549.61.61 0 00.182.463.67.67 0 00.484.173.721.721 0 00.509-.196c.14-.131.226-.323.256-.574l1.071.173c-.074.348-.187.627-.337.835-.15.208-.36.372-.629.491-.268.119-.57.179-.903.179-.571 0-1.029-.173-1.373-.519-.284-.283-.426-.602-.426-.959 0-.505.291-.909.872-1.21a1.424 1.424 0 01-.833-.476 1.335 1.335 0 01-.312-.892c0-.505.194-.936.583-1.292.389-.357.873-.535 1.452-.535.548 0 1.003.15 1.364.45.361.3.571.692.629 1.177zM207.302 15.375l-1.158.114a.927.927 0 00-.294-.592.82.82 0 00-.562-.218.797.797 0 00-.616.281c-.169.188-.253.47-.253.847 0 .354.084.619.25.796a.855.855 0 00.652.265c.333 0 .633-.14.897-.42l.943.129-.595 2.999h-3.073v-1.034h2.192l.182-.978a1.833 1.833 0 01-.794.184c-.516 0-.953-.178-1.311-.534-.359-.356-.538-.819-.538-1.387 0-.474.145-.898.434-1.27.395-.508.942-.762 1.642-.762.56 0 1.016.143 1.369.428.353.286.564.67.633 1.152zM197.943 15.422l-1.125.13c-.036-.273-.132-.481-.289-.625a.816.816 0 00-.571-.216.802.802 0 00-.606.259c-.164.173-.246.406-.246.7 0 .277.079.497.236.66a.77.77 0 00.575.243c.149 0 .326-.027.533-.082l-.128.9c-.314-.008-.554.057-.72.194a.68.68 0 00-.248.549.61.61 0 00.182.463.672.672 0 00.484.173.72.72 0 00.509-.196c.14-.131.226-.323.256-.574l1.071.173c-.074.348-.186.627-.337.835-.15.208-.36.372-.628.491a2.21 2.21 0 01-.904.179c-.571 0-1.028-.173-1.373-.519-.284-.283-.426-.602-.426-.959 0-.505.291-.909.873-1.21a1.427 1.427 0 01-.834-.476 1.335 1.335 0 01-.312-.892c0-.505.195-.936.583-1.292.389-.357.873-.535 1.452-.535.548 0 1.003.15 1.365.45.361.3.57.692.628 1.177zM189.267 14.919v-1.026h4.073a2.577 2.577 0 01-.397 1.103c-.22.347-.656.807-1.306 1.381-.524.464-.845.778-.964.943-.16.228-.24.453-.24.676 0 .246.07.436.209.568.139.132.332.198.577.198.243 0 .435-.069.579-.208.143-.139.226-.369.248-.692l1.158.11c-.069.608-.285 1.044-.649 1.309-.364.265-.819.397-1.365.397-.598 0-1.068-.153-1.41-.46a1.473 1.473 0 01-.513-1.143c0-.26.049-.507.147-.741.098-.235.253-.48.465-.737.141-.17.394-.415.761-.735s.599-.532.697-.637c.098-.104.177-.206.238-.306h-2.308zM183.816 15.422l-1.124.13c-.036-.273-.133-.481-.29-.625a.814.814 0 00-.571-.216.801.801 0 00-.605.259c-.164.173-.246.406-.246.7 0 .277.078.497.235.66a.77.77 0 00.575.243c.149 0 .327-.027.534-.082l-.129.9c-.314-.008-.554.057-.719.194a.677.677 0 00-.248.549c0 .193.06.348.182.463a.668.668 0 00.483.173.72.72 0 00.509-.196c.141-.131.226-.323.257-.574l1.071.173c-.075.348-.187.627-.337.835-.151.208-.36.372-.629.491a2.21 2.21 0 01-.904.179c-.57 0-1.028-.173-1.373-.519-.284-.283-.426-.602-.426-.959 0-.505.291-.909.873-1.21a1.424 1.424 0 01-.833-.476 1.336 1.336 0 01-.313-.892c0-.505.195-.936.584-1.292.388-.357.872-.535 1.451-.535.549 0 1.004.15 1.365.45.361.3.571.692.628 1.177zM179.106 15.422l-1.125.13c-.036-.273-.132-.481-.289-.625a.816.816 0 00-.571-.216.802.802 0 00-.606.259c-.164.173-.246.406-.246.7 0 .277.079.497.236.66a.77.77 0 00.575.243c.149 0 .326-.027.533-.082l-.128.9c-.314-.008-.554.057-.72.194a.68.68 0 00-.248.549.61.61 0 00.182.463.672.672 0 00.484.173.72.72 0 00.509-.196c.14-.131.226-.323.256-.574l1.071.173c-.074.348-.186.627-.337.835-.15.208-.36.372-.628.491a2.21 2.21 0 01-.904.179c-.571 0-1.028-.173-1.373-.519-.284-.283-.426-.602-.426-.959 0-.505.291-.909.873-1.21a1.427 1.427 0 01-.834-.476 1.335 1.335 0 01-.312-.892c0-.505.195-.936.583-1.292.389-.357.873-.535 1.452-.535.548 0 1.003.15 1.365.45.361.3.57.692.628 1.177zM165.724 14.919v-1.026h4.073a2.577 2.577 0 01-.397 1.103c-.22.347-.656.807-1.307 1.381-.523.464-.845.778-.963.943-.16.228-.24.453-.24.676 0 .246.07.436.209.568.139.132.331.198.577.198.242 0 .435-.069.579-.208.143-.139.226-.369.248-.692l1.158.11c-.069.608-.286 1.044-.649 1.309-.364.265-.819.397-1.365.397-.598 0-1.069-.153-1.41-.46a1.473 1.473 0 01-.513-1.143c0-.26.049-.507.147-.741.098-.235.253-.48.465-.737.14-.17.394-.415.761-.735.366-.32.599-.532.697-.637.097-.104.177-.206.237-.306h-2.307zM164.922 15.375l-1.158.114a.927.927 0 00-.294-.592.82.82 0 00-.562-.218.8.8 0 00-.617.281c-.168.188-.252.47-.252.847 0 .354.084.619.25.796a.855.855 0 00.652.265c.333 0 .632-.14.897-.42l.943.129-.596 2.999h-3.072v-1.034h2.192l.182-.978c-.26.123-.524.184-.794.184-.516 0-.953-.178-1.311-.534-.359-.356-.538-.819-.538-1.387 0-.474.145-.898.434-1.27.394-.508.942-.762 1.642-.762.56 0 1.016.143 1.369.428.353.286.564.67.633 1.152zM149.244 14.919v-1.026h4.073a2.577 2.577 0 01-.397 1.103c-.22.347-.656.807-1.306 1.381-.524.464-.845.778-.964.943-.16.228-.24.453-.24.676 0 .246.07.436.209.568.139.132.332.198.577.198.243 0 .436-.069.579-.208.143-.139.226-.369.248-.692l1.158.11c-.069.608-.285 1.044-.649 1.309-.364.265-.819.397-1.365.397-.598 0-1.068-.153-1.41-.46a1.473 1.473 0 01-.513-1.143c0-.26.049-.507.147-.741.098-.235.253-.48.465-.737.141-.17.394-.415.761-.735s.599-.532.697-.637c.098-.104.177-.206.238-.306h-2.308zM144.521 18.244l1.125-.118c.028.22.099.382.215.487a.645.645 0 00.451.157.774.774 0 00.622-.314c.17-.21.277-.646.321-1.309-.29.325-.649.487-1.079.487-.486 0-.901-.175-1.247-.526-.346-.351-.519-.804-.519-1.36 0-.589.182-1.062.546-1.418.363-.357.831-.535 1.401-.535.613 0 1.116.226 1.51.678.394.452.591 1.193.591 2.222 0 1.056-.205 1.817-.616 2.283-.411.467-.944.7-1.6.7-.461 0-.842-.123-1.144-.368-.302-.244-.494-.6-.577-1.066zm2.635-2.409c0-.359-.087-.636-.261-.832-.174-.195-.372-.292-.595-.292a.695.695 0 00-.538.239c-.143.16-.215.422-.215.786 0 .375.077.649.232.824a.74.74 0 00.578.261.74.74 0 00.567-.25c.154-.166.232-.412.232-.736zM132.764 14.919v-1.026h4.074a2.59 2.59 0 01-.397 1.103c-.221.347-.656.807-1.307 1.381-.524.464-.845.778-.964.943-.16.228-.24.453-.24.676 0 .246.07.436.209.568.14.132.332.198.577.198.243 0 .436-.069.579-.208.144-.139.226-.369.248-.692l1.158.11c-.069.608-.285 1.044-.649 1.309-.364.265-.819.397-1.365.397-.598 0-1.068-.153-1.41-.46a1.473 1.473 0 01-.513-1.143c0-.26.049-.507.147-.741.098-.235.253-.48.465-.737.141-.17.395-.415.761-.735.367-.32.599-.532.697-.637.098-.104.177-.206.238-.306h-2.308zM131.979 18.55v1.026h-3.975v-.802c.328-.306.662-.747 1.001-1.32a7.502 7.502 0 00.776-1.83c.177-.645.265-1.222.262-1.731h1.121c-.019.797-.192 1.609-.519 2.437a8.014 8.014 0 01-1.309 2.22h2.643zM121.942 13.893h1.162v4.162a4.06 4.06 0 011.501-.837v1.002c-.303.094-.633.273-.988.536-.356.264-.6.571-.732.922h-.943v-5.785zM117.926 13.893v1.16h2.482v.966l-2.631 3.659h-.976v-3.655h-.752v-.97h.752v-1.16h1.125zm0 2.13v1.969l1.394-1.969h-1.394zM107.815 13.893h1.162v4.162a4.068 4.068 0 011.501-.837v1.002c-.303.094-.632.273-.988.536-.356.264-.6.571-.732.922h-.943v-5.785zM102.154 14.919v-1.026h4.073a2.577 2.577 0 01-.397 1.103c-.221.347-.656.807-1.307 1.381-.524.464-.845.778-.963.943-.16.228-.24.453-.24.676 0 .246.069.436.209.568.139.132.331.198.577.198.242 0 .435-.069.579-.208.143-.139.226-.369.248-.692l1.158.11c-.069.608-.286 1.044-.65 1.309-.364.265-.818.397-1.364.397-.599 0-1.069-.153-1.411-.46a1.475 1.475 0 01-.512-1.143c0-.26.049-.507.146-.741.098-.235.253-.48.466-.737.14-.17.394-.415.761-.735.366-.32.599-.532.696-.637a1.82 1.82 0 00.238-.306h-2.307zM95.938 16.011v.971H93.3v-2.295c.256-.236.628-.443 1.114-.623.487-.179.98-.269 1.479-.269.634 0 1.186.126 1.658.379a2.47 2.47 0 011.063 1.085c.237.47.355.982.355 1.534 0 .6-.132 1.134-.397 1.6a2.616 2.616 0 01-1.162 1.073c-.388.191-.872.287-1.451.287-.753 0-1.341-.15-1.764-.45a2.027 2.027 0 01-.817-1.244l1.216-.216c.085.283.246.506.482.67.236.163.53.245.883.245.535 0 .96-.161 1.276-.483.315-.322.473-.8.473-1.434 0-.684-.16-1.197-.48-1.539-.319-.342-.739-.513-1.257-.513-.256 0-.513.048-.771.144a2.643 2.643 0 00-.664.348v.73h1.402zM92.158 13.893v5.761h-1.191l-2.481-3.847v3.847h-1.137v-5.761h1.228l2.444 3.757v-3.757h1.137zM86.058 19.654h-2.237c-.504 0-.889-.036-1.154-.11a2.049 2.049 0 01-.914-.53 2.505 2.505 0 01-.579-.934c-.132-.368-.198-.822-.198-1.361 0-.474.062-.883.186-1.226.152-.419.368-.759.649-1.018.213-.197.499-.35.861-.46.27-.081.631-.122 1.083-.122h2.303v5.761zm-1.224-.974v-3.816h-.914c-.341 0-.588.018-.74.055a1.149 1.149 0 00-.494.24c-.131.112-.238.298-.321.556-.082.258-.124.61-.124 1.055 0 .445.042.787.124 1.026.083.238.199.424.348.558.149.133.338.224.566.271.171.036.506.055 1.005.055h.55zM74.868 13.893h1.162v4.162a4.068 4.068 0 011.501-.837v1.002c-.303.094-.633.273-.988.536-.356.264-.6.571-.732.922h-.943v-5.785zM73.172 15.422l-1.124.13c-.036-.273-.133-.481-.29-.625a.814.814 0 00-.571-.216.801.801 0 00-.605.259c-.165.173-.247.406-.247.7 0 .277.079.497.236.66a.77.77 0 00.575.243c.149 0 .327-.027.533-.082l-.128.9c-.314-.008-.554.057-.719.194a.677.677 0 00-.248.549c0 .193.06.348.182.463a.668.668 0 00.483.173.72.72 0 00.509-.196c.141-.131.226-.323.256-.574l1.072.173c-.075.348-.187.627-.337.835-.151.208-.36.372-.629.491a2.21 2.21 0 01-.904.179c-.57 0-1.028-.173-1.373-.519-.284-.283-.426-.602-.426-.959 0-.505.291-.909.873-1.21a1.424 1.424 0 01-.833-.476 1.336 1.336 0 01-.313-.892c0-.505.195-.936.584-1.292.388-.357.872-.535 1.451-.535.549 0 1.004.15 1.365.45.361.3.57.692.628 1.177zM65.815 19.654h-2.237c-.504 0-.889-.036-1.154-.11a2.049 2.049 0 01-.914-.53 2.505 2.505 0 01-.579-.934c-.132-.368-.198-.822-.198-1.361 0-.474.062-.883.186-1.226.152-.419.368-.759.649-1.018.213-.197.499-.35.86-.46.271-.081.632-.122 1.084-.122h2.303v5.761zm-1.224-.974v-3.816h-.914c-.341 0-.588.018-.74.055a1.149 1.149 0 00-.494.24c-.131.112-.238.298-.321.556-.082.258-.124.61-.124 1.055 0 .445.042.787.124 1.026.083.238.199.424.348.558.149.133.338.224.566.271.171.036.506.055 1.005.055h.55zM56.027 14.919v-1.026H60.1a2.577 2.577 0 01-.397 1.103c-.22.347-.656.807-1.307 1.381-.523.464-.845.778-.963.943-.16.228-.24.453-.24.676 0 .246.07.436.209.568.139.132.331.198.577.198.242 0 .435-.069.579-.208.143-.139.226-.369.248-.692l1.158.11c-.069.608-.286 1.044-.65 1.309-.363.265-.818.397-1.364.397-.598 0-1.069-.153-1.41-.46a1.473 1.473 0 01-.513-1.143c0-.26.049-.507.147-.741.097-.235.253-.48.465-.737.14-.17.394-.415.761-.735.366-.32.599-.532.697-.637.097-.104.177-.206.237-.306h-2.307zM52.636 19.654h-2.238c-.504 0-.889-.036-1.153-.11a2.038 2.038 0 01-.914-.53 2.48 2.48 0 01-.579-.934c-.133-.368-.199-.822-.199-1.361 0-.474.062-.883.186-1.226.152-.419.368-.759.65-1.018.212-.197.499-.35.86-.46.27-.081.631-.122 1.083-.122h2.304v5.761zm-1.224-.974v-3.816h-.914c-.342 0-.589.018-.741.055a1.149 1.149 0 00-.494.24c-.131.112-.238.298-.32.556-.083.258-.124.61-.124 1.055 0 .445.041.787.124 1.026.082.238.198.424.347.558.149.133.338.224.567.271.171.036.506.055 1.005.055h.55zM46.813 15.422l-1.125.13c-.036-.273-.132-.481-.289-.625a.816.816 0 00-.571-.216.802.802 0 00-.606.259c-.164.173-.246.406-.246.7 0 .277.079.497.236.66a.77.77 0 00.575.243c.149 0 .326-.027.533-.082l-.128.9c-.314-.008-.554.057-.72.194a.68.68 0 00-.248.549.61.61 0 00.182.463.67.67 0 00.484.173.72.72 0 00.509-.196c.14-.131.226-.323.256-.574l1.071.173c-.074.348-.187.627-.337.835-.15.208-.36.372-.628.491a2.21 2.21 0 01-.904.179c-.571 0-1.028-.173-1.373-.519-.284-.283-.426-.602-.426-.959 0-.505.291-.909.873-1.21a1.424 1.424 0 01-.834-.476 1.335 1.335 0 01-.312-.892c0-.505.194-.936.583-1.292.389-.357.873-.535 1.452-.535.548 0 1.003.15 1.364.45.362.3.571.692.629 1.177zM35.573 16.011l-1.187-.357c.182-.629.485-1.096.908-1.401.423-.305.96-.458 1.61-.458.805 0 1.467.261 1.985.784.519.523.778 1.237.778 2.144 0 .959-.261 1.703-.782 2.234-.521.53-1.206.796-2.055.796-.742 0-1.344-.209-1.807-.625-.276-.247-.483-.6-.62-1.061l1.211-.275c.072.298.221.534.449.707.227.173.504.259.829.259.449 0 .814-.153 1.094-.459.28-.307.42-.803.42-1.49 0-.728-.138-1.247-.414-1.556-.276-.309-.634-.464-1.075-.464a1.27 1.27 0 00-.84.295c-.234.197-.402.506-.504.927zM33.352 13.893v5.761H31.52l-1.1-3.929-1.088 3.929h-1.836v-5.761h1.138v4.535l1.203-4.535h1.179l1.199 4.535v-4.535h1.137zM26.285 19.654h-2.238c-.504 0-.889-.036-1.153-.11a2.038 2.038 0 01-.914-.53 2.48 2.48 0 01-.579-.934c-.133-.368-.199-.822-.199-1.361 0-.474.062-.883.186-1.226.152-.419.368-.759.65-1.018.212-.197.499-.35.86-.46.27-.081.631-.122 1.083-.122h2.304v5.761zm-1.224-.974v-3.816h-.914c-.342 0-.589.018-.741.055a1.149 1.149 0 00-.494.24c-.131.112-.238.298-.32.556-.083.258-.124.61-.124 1.055 0 .445.041.787.124 1.026.082.238.198.424.347.558.149.133.338.224.567.271.171.036.505.055 1.005.055h.55zM18.051 15.375l-1.158.114a.927.927 0 00-.294-.592.819.819 0 00-.562-.218.797.797 0 00-.616.281c-.168.188-.252.47-.252.847 0 .354.083.619.25.796a.854.854 0 00.651.265c.334 0 .633-.14.897-.42l.943.129-.595 2.999h-3.073v-1.034h2.192l.182-.978a1.833 1.833 0 01-.794.184c-.516 0-.953-.178-1.311-.534-.358-.356-.538-.819-.538-1.387 0-.474.145-.898.435-1.27.394-.508.941-.762 1.641-.762.56 0 1.016.143 1.369.428.353.286.564.67.633 1.152zM11.554 13.893l2.167 5.761h-1.327l-1.535-4.263-1.484 4.263H8.076l2.171-5.761h1.307zM53.573 30.228h5.761v4.496h-.974v-3.272h-1.277v3.044h-.971v-3.044h-1.568v3.387h-.971v-4.611zM53.573 35.89h5.761v1.191l-3.847 2.481h3.847v1.137h-5.761v-1.228l3.757-2.444h-3.757V35.89z" fill="#fff" fill-rule="nonzero"/><path d="M60.586 117.926v2.423c0 .48-.019.837-.057 1.073a1.632 1.632 0 01-.237.633 1.511 1.511 0 01-.482.465c-.2.124-.425.186-.674.186-.27 0-.517-.076-.743-.229a1.402 1.402 0 01-.506-.623c-.103.37-.277.654-.523.852a1.34 1.34 0 01-.869.298c-.262 0-.516-.064-.764-.192a1.566 1.566 0 01-.593-.526 1.787 1.787 0 01-.273-.82c-.021-.204-.035-.697-.04-1.477v-2.063h5.761zm-.959 1.224h-1.332v.802c0 .477.007.773.02.889.023.21.092.374.206.494.114.12.264.18.45.18a.613.613 0 00.434-.155c.112-.103.179-.257.203-.461.013-.121.019-.47.019-1.046v-.703zm-2.291 0h-1.54v1.133c0 .441.012.721.035.839.032.182.108.33.23.445a.687.687 0 00.489.171.73.73 0 00.441-.132.75.75 0 00.263-.382c.055-.167.082-.529.082-1.086v-.988zM56.971 123.761c.367 0 .722.095 1.065.285.343.19.605.46.786.809.181.348.271.738.271 1.168 0 .664-.205 1.209-.615 1.633-.41.425-.928.637-1.554.637-.632 0-1.155-.214-1.57-.643-.415-.429-.623-.968-.623-1.619 0-.402.086-.786.259-1.152.173-.365.427-.643.761-.833.334-.19.74-.285 1.22-.285zm-.059 1.191c-.414 0-.731.103-.951.31-.22.207-.33.462-.33.765s.11.558.33.763c.22.205.54.308.959.308.408 0 .723-.103.943-.308.22-.205.33-.46.33-.763s-.11-.558-.33-.765c-.22-.207-.537-.31-.951-.31zM56.971 128.934c.367 0 .722.095 1.065.286.343.19.605.459.786.808.181.349.271.738.271 1.168 0 .665-.205 1.209-.615 1.634-.41.424-.928.637-1.554.637-.632 0-1.155-.215-1.57-.643-.415-.429-.623-.969-.623-1.619 0-.403.086-.787.259-1.152.173-.365.427-.643.761-.833.334-.191.74-.286 1.22-.286zm-.059 1.191c-.414 0-.731.104-.951.31-.22.207-.33.462-.33.765a1 1 0 00.33.763c.22.206.54.308.959.308.408 0 .723-.102.943-.308a1 1 0 00.33-.763c0-.303-.11-.558-.33-.765-.22-.206-.537-.31-.951-.31zM58.999 136.39h-.881v-.794h-1.682c-.34 0-.539.008-.595.023a.24.24 0 00-.139.104.335.335 0 00-.055.196c0 .107.035.263.106.467l-.857.1a2.424 2.424 0 01-.165-.919c0-.209.033-.398.1-.566a.824.824 0 01.259-.37c.107-.079.25-.133.431-.164.128-.024.388-.037.778-.037h1.819v-.533h.881v.533h.829l.644 1.166h-1.473v.794z" fill="#c6c6c6" fill-rule="nonzero"/><path d="M134.901 72.69V61.125h-4.721V72.69h4.721zM128.381 102.06V90.494h-17.948v11.566h17.948zM121.674 72.69V61.125h-4.721V72.69h4.721zM108.617 72.69V61.125h-4.721V72.69h4.721z" fill="#adadad"/><path d="M136.708 90.494V72.69h-34.79v17.804h34.79z" fill="#100b00"/><path d="M11.578 146.932l1.186.358c-.182.629-.484 1.096-.907 1.401-.423.305-.96.458-1.611.458-.805 0-1.467-.262-1.985-.784-.518-.523-.778-1.237-.778-2.144 0-.959.261-1.703.782-2.234.521-.53 1.206-.796 2.055-.796.742 0 1.344.209 1.808.625.275.246.482.6.62 1.061l-1.212.275a1.212 1.212 0 00-.448-.707 1.332 1.332 0 00-.83-.26c-.449 0-.814.154-1.093.46-.28.307-.42.803-.42 1.49 0 .728.138 1.247.413 1.556.276.309.634.464 1.076.464.325 0 .605-.099.839-.295.234-.197.403-.506.505-.928zM13.848 149.051v-5.714h1.224v4.743h3.044v.971h-4.268zM19.005 149.051v-5.761h1.224v2.558l2.473-2.558h1.646l-2.283 2.243 2.407 3.518h-1.584l-1.667-2.704-.992.963v1.741h-1.224zM27.454 143.29h2.237c.504 0 .889.036 1.154.11.355.099.66.276.914.53.253.254.446.565.579.933.132.368.198.822.198 1.362 0 .474-.062.883-.186 1.226-.152.419-.368.759-.649 1.018-.213.196-.499.35-.86.46-.271.081-.632.122-1.084.122h-2.303v-5.761zm1.224.974v3.816h.914c.341 0 .588-.018.74-.055.198-.047.363-.127.494-.24.131-.112.238-.298.321-.556.082-.258.124-.61.124-1.055 0-.445-.042-.787-.124-1.026a1.314 1.314 0 00-.348-.558 1.194 1.194 0 00-.566-.271c-.171-.037-.506-.055-1.005-.055h-.55zM35.282 143.266c.587 0 1.046.199 1.377.597.394.472.591 1.254.591 2.346 0 1.09-.198 1.874-.595 2.35-.328.393-.786.59-1.373.59-.59 0-1.066-.216-1.427-.647-.361-.431-.541-1.199-.541-2.304 0-1.085.198-1.866.595-2.343.328-.393.786-.589 1.373-.589zm0 .916a.597.597 0 00-.376.127c-.111.085-.196.238-.257.458-.08.286-.12.766-.12 1.442 0 .676.036 1.141.108 1.393.072.253.162.422.271.505a.595.595 0 00.374.126.592.592 0 00.376-.128c.111-.085.196-.237.257-.457.08-.283.12-.763.12-1.439s-.036-1.14-.108-1.393c-.072-.253-.162-.422-.271-.507a.59.59 0 00-.374-.127zM40.633 143.29h2.238c.504 0 .889.036 1.153.11.356.099.661.276.914.53.254.254.447.565.579.933.133.368.199.822.199 1.362 0 .474-.062.883-.186 1.226-.152.419-.368.759-.65 1.018-.212.196-.499.35-.86.46-.27.081-.631.122-1.083.122h-2.304v-5.761zm1.224.974v3.816h.914c.342 0 .589-.018.741-.055.198-.047.363-.127.494-.24.131-.112.238-.298.32-.556.083-.258.124-.61.124-1.055 0-.445-.041-.787-.124-1.026a1.304 1.304 0 00-.347-.558 1.193 1.193 0 00-.567-.271c-.171-.037-.506-.055-1.005-.055h-.55zM49.471 149.051h-1.162v-4.162a4.064 4.064 0 01-1.502.837v-1.002c.304-.094.633-.273.989-.537.356-.263.6-.57.732-.921h.943v5.785zM58.887 149.051h-1.162v-4.162a4.06 4.06 0 01-1.501.837v-1.002c.303-.094.633-.273.988-.537.356-.263.6-.57.732-.921h.943v5.785zM60.641 147.569l1.158-.114a.92.92 0 00.293.591c.163.146.35.219.563.219a.798.798 0 00.616-.281c.168-.188.252-.47.252-.847 0-.354-.083-.619-.25-.796a.855.855 0 00-.652-.265c-.333 0-.632.14-.897.42l-.943-.129.596-2.999h3.072v1.034h-2.191l-.182.978c.259-.123.523-.185.794-.185.515 0 .952.179 1.311.535.358.356.537.819.537 1.387 0 .474-.145.897-.434 1.269-.394.509-.942.763-1.642.763-.56 0-1.016-.143-1.369-.429-.353-.285-.563-.669-.632-1.151zM76.318 148.025v1.026h-4.073c.044-.388.176-.756.397-1.103.22-.347.656-.807 1.306-1.381.524-.464.845-.778.964-.943.16-.228.24-.453.24-.676 0-.246-.07-.436-.209-.568-.139-.132-.331-.198-.577-.198-.242 0-.435.069-.579.208-.143.139-.226.369-.248.691l-1.158-.11c.069-.607.285-1.044.649-1.308.364-.265.819-.397 1.365-.397.598 0 1.068.153 1.41.46.342.306.513.687.513 1.143 0 .26-.049.507-.147.741-.098.235-.253.48-.465.737-.141.17-.394.415-.761.735-.367.319-.599.532-.697.636a1.855 1.855 0 00-.237.307h2.307zM88.48 143.266c.588 0 1.047.199 1.378.597.394.472.591 1.254.591 2.346 0 1.09-.199 1.874-.596 2.35-.328.393-.785.59-1.373.59-.59 0-1.065-.216-1.426-.647-.361-.431-.542-1.199-.542-2.304 0-1.085.198-1.866.595-2.343.329-.393.786-.589 1.373-.589zm0 .916a.6.6 0 00-.376.127c-.11.085-.196.238-.256.458-.08.286-.12.766-.12 1.442 0 .676.036 1.141.107 1.393.072.253.162.422.271.505a.597.597 0 00.374.126.595.595 0 00.377-.128c.11-.085.196-.237.256-.457.08-.283.12-.763.12-1.439s-.036-1.14-.107-1.393c-.072-.253-.162-.422-.271-.507a.593.593 0 00-.375-.127zM102.917 149.051v-1.16h-2.481v-.966l2.63-3.659h.976v3.655h.753v.97h-.753v1.16h-1.125zm0-2.13v-1.969l-1.393 1.969h1.393zM117.735 149.051h-1.162v-4.162a4.064 4.064 0 01-1.502.837v-1.002c.304-.094.633-.273.989-.537.355-.263.599-.57.732-.921h.943v5.785zM123.408 144.7l-1.124.118c-.028-.22-.1-.382-.215-.487a.645.645 0 00-.451-.157c-.246 0-.453.105-.623.314-.169.21-.276.646-.32 1.309a1.386 1.386 0 011.079-.488c.486 0 .901.176 1.247.527.346.351.519.804.519 1.36 0 .589-.182 1.062-.546 1.418-.364.357-.831.535-1.402.535-.612 0-1.115-.226-1.509-.678-.394-.452-.591-1.193-.591-2.222 0-1.056.205-1.817.616-2.284.411-.466.944-.699 1.6-.699.461 0 .842.122 1.144.367.301.245.494.601.576 1.067zm-2.634 2.409c0 .359.087.636.261.831.173.196.372.293.595.293.215 0 .394-.08.538-.24.143-.159.215-.421.215-.786 0-.374-.077-.649-.232-.823a.74.74 0 00-.579-.261.743.743 0 00-.566.249c-.155.167-.232.412-.232.737zM131.861 149.051h-1.162v-4.162a4.06 4.06 0 01-1.501.837v-1.002c.303-.094.633-.273.988-.537.356-.263.6-.57.732-.921h.943v5.785zM133.598 144.394v-1.026h3.974v.802c-.328.306-.661.746-1 1.32a7.512 7.512 0 00-.776 1.829c-.178.646-.265 1.223-.262 1.732h-1.121c.019-.797.192-1.609.519-2.437a8.014 8.014 0 011.309-2.22h-2.643zM145.384 147.569l1.158-.114a.922.922 0 00.294.591c.162.146.35.219.562.219a.797.797 0 00.616-.281c.169-.188.253-.47.253-.847 0-.354-.084-.619-.25-.796a.855.855 0 00-.652-.265c-.333 0-.633.14-.897.42l-.943-.129.595-2.999h3.073v1.034h-2.192l-.182.978c.259-.123.524-.185.794-.185.516 0 .953.179 1.311.535.359.356.538.819.538 1.387 0 .474-.145.897-.434 1.269-.395.509-.942.763-1.642.763-.56 0-1.016-.143-1.369-.429-.353-.285-.564-.669-.633-1.151zM162.464 149.051h-1.162v-4.162a4.064 4.064 0 01-1.502.837v-1.002c.304-.094.633-.273.989-.537.355-.263.599-.57.732-.921h.943v5.785zM165.197 145.942c-.3-.12-.519-.286-.655-.497a1.247 1.247 0 01-.205-.694c0-.429.158-.784.474-1.065.315-.28.764-.42 1.346-.42.576 0 1.023.14 1.342.42.318.281.477.636.477 1.065 0 .268-.073.505-.219.714a1.373 1.373 0 01-.616.477c.336.128.592.316.767.562.175.246.263.531.263.853 0 .532-.179.964-.536 1.297-.357.332-.832.499-1.425.499-.551 0-1.01-.138-1.377-.413-.433-.325-.649-.77-.649-1.336 0-.312.081-.598.244-.859.163-.26.419-.461.769-.603zm.24-1.112c0 .22.066.392.197.515.13.123.305.184.523.184.22 0 .397-.062.529-.186.132-.125.199-.297.199-.517a.653.653 0 00-.197-.497.72.72 0 00-.519-.187c-.223 0-.401.063-.533.189a.655.655 0 00-.199.499zm-.107 2.468c0 .304.082.541.246.711.164.17.368.256.614.256.24 0 .438-.082.595-.246.157-.164.236-.4.236-.709 0-.27-.08-.487-.24-.651a.815.815 0 00-.608-.245c-.284 0-.495.093-.635.279a.988.988 0 00-.208.605zM176.59 149.051h-1.162v-4.162a4.06 4.06 0 01-1.501.837v-1.002c.303-.094.633-.273.989-.537.355-.263.599-.57.732-.921h.942v5.785zM178.352 147.718l1.125-.118c.028.218.099.379.215.484a.657.657 0 00.459.157c.24 0 .444-.105.612-.314.168-.21.276-.645.323-1.305a1.42 1.42 0 01-1.096.483 1.68 1.68 0 01-1.235-.524c-.346-.35-.519-.805-.519-1.366 0-.584.183-1.055.548-1.413.366-.357.831-.536 1.396-.536.615 0 1.119.226 1.514.678.394.452.591 1.195.591 2.23 0 1.053-.205 1.813-.616 2.279-.411.467-.946.7-1.605.7-.474 0-.857-.12-1.149-.36-.293-.24-.48-.598-.563-1.075zm2.63-2.413c0-.356-.086-.632-.258-.829-.173-.196-.372-.294-.598-.294a.682.682 0 00-.535.241c-.142.161-.213.425-.213.792 0 .372.077.645.231.819a.741.741 0 00.579.262.734.734 0 00.565-.252c.153-.167.229-.414.229-.739zM188.467 146.932v-.97h2.639v2.295c-.257.236-.628.443-1.115.623a4.25 4.25 0 01-1.478.269c-.634 0-1.187-.127-1.658-.379a2.465 2.465 0 01-1.063-1.085 3.362 3.362 0 01-.356-1.535c0-.6.132-1.133.397-1.599a2.621 2.621 0 011.162-1.073c.389-.191.873-.287 1.452-.287.752 0 1.34.15 1.764.45.423.3.695.715.816 1.244l-1.216.216a1.221 1.221 0 00-.481-.67c-.236-.164-.53-.246-.883-.246-.535 0-.96.162-1.276.484-.316.322-.474.8-.474 1.434 0 .684.16 1.197.48 1.539.32.342.739.513 1.257.513a2.2 2.2 0 00.772-.144c.257-.096.479-.211.663-.348v-.731h-1.402zM192.247 149.051v-5.761h1.191l2.482 3.847v-3.847h1.137v5.761h-1.228l-2.445-3.757v3.757h-1.137zM198.347 143.29h2.237c.505 0 .889.036 1.154.11.356.099.66.276.914.53s.447.565.579.933c.132.368.199.822.199 1.362 0 .474-.063.883-.187 1.226a2.516 2.516 0 01-.649 1.018c-.212.196-.499.35-.86.46-.27.081-.631.122-1.084.122h-2.303v-5.761zm1.224.974v3.816h.914c.342 0 .589-.018.74-.055.199-.047.364-.127.494-.24.131-.112.238-.298.321-.556.083-.258.124-.61.124-1.055 0-.445-.041-.787-.124-1.026a1.323 1.323 0 00-.347-.558 1.193 1.193 0 00-.567-.271c-.171-.037-.506-.055-1.005-.055h-.55zM210.489 148.025v1.026h-4.074c.044-.388.177-.756.397-1.103.221-.347.656-.807 1.307-1.381.524-.464.845-.778.964-.943.16-.228.24-.453.24-.676 0-.246-.07-.436-.209-.568-.14-.132-.332-.198-.577-.198-.243 0-.436.069-.579.208-.144.139-.226.369-.248.691l-1.158-.11c.069-.607.285-1.044.649-1.308.364-.265.819-.397 1.365-.397.598 0 1.068.153 1.41.46.342.306.513.687.513 1.143 0 .26-.049.507-.147.741-.098.235-.253.48-.465.737-.141.17-.395.415-.761.735-.367.319-.599.532-.697.636a1.921 1.921 0 00-.238.307h2.308zM214.248 149.051h-1.162v-4.162a4.068 4.068 0 01-1.501.837v-1.002c.303-.094.632-.273.988-.537.356-.263.6-.57.732-.921h.943v5.785zM218.598 149.051v-5.761h2.577c.648 0 1.118.051 1.412.155.294.103.529.287.705.552.177.264.265.567.265.908 0 .432-.134.789-.401 1.071-.268.281-.668.459-1.2.532.265.147.483.308.656.483.172.176.404.488.697.936l.74 1.124h-1.464l-.885-1.254c-.314-.448-.529-.73-.645-.847a.965.965 0 00-.368-.24c-.13-.043-.335-.064-.616-.064h-.249v2.405h-1.224zm1.224-3.325h.906c.587 0 .954-.024 1.1-.071a.654.654 0 00.343-.243.724.724 0 00.124-.433.666.666 0 00-.163-.469.758.758 0 00-.461-.226 10.81 10.81 0 00-.893-.02h-.956v1.462zM224.094 149.051l2.072-3.007-1.877-2.754h1.431l1.215 1.85 1.191-1.85h1.419l-1.886 2.798 2.072 2.963h-1.476l-1.344-1.993-1.349 1.993h-1.468zM234.077 149.051v-4.787h-1.799v-.974h4.818v.974h-1.795v4.787h-1.224zM237.27 149.051l2.072-3.007-1.878-2.754h1.431l1.216 1.85 1.191-1.85h1.418l-1.885 2.798 2.072 2.963h-1.477l-1.344-1.993-1.348 1.993h-1.468zM251.909 148.025v1.026h-4.073c.044-.388.176-.756.397-1.103.221-.347.656-.807 1.307-1.381.524-.464.845-.778.963-.943.16-.228.24-.453.24-.676 0-.246-.069-.436-.209-.568-.139-.132-.331-.198-.577-.198-.242 0-.435.069-.578.208-.144.139-.227.369-.249.691l-1.158-.11c.069-.607.286-1.044.65-1.308.364-.265.819-.397 1.364-.397.599 0 1.069.153 1.411.46.341.306.512.687.512 1.143 0 .26-.049.507-.146.741-.098.235-.253.48-.466.737-.14.17-.394.415-.761.735a12.06 12.06 0 00-.696.636 1.865 1.865 0 00-.238.307h2.307zM256.62 148.025v1.026h-4.074c.044-.388.177-.756.397-1.103.221-.347.656-.807 1.307-1.381.524-.464.845-.778.964-.943.16-.228.24-.453.24-.676 0-.246-.07-.436-.209-.568-.14-.132-.332-.198-.577-.198-.243 0-.436.069-.579.208-.144.139-.226.369-.248.691l-1.158-.11c.069-.607.285-1.044.649-1.308.364-.265.819-.397 1.365-.397.598 0 1.068.153 1.41.46.342.306.513.687.513 1.143 0 .26-.049.507-.147.741-.098.235-.253.48-.465.737-.141.17-.395.415-.761.735-.367.319-.599.532-.697.636a1.921 1.921 0 00-.238.307h2.308zM266.036 148.025v1.026h-4.073c.044-.388.176-.756.397-1.103.22-.347.656-.807 1.307-1.381.523-.464.845-.778.963-.943.16-.228.24-.453.24-.676 0-.246-.07-.436-.209-.568-.139-.132-.331-.198-.577-.198-.242 0-.435.069-.579.208-.143.139-.226.369-.248.691l-1.158-.11c.069-.607.286-1.044.649-1.308.364-.265.819-.397 1.365-.397.598 0 1.068.153 1.41.46.342.306.513.687.513 1.143 0 .26-.049.507-.147.741-.098.235-.253.48-.465.737-.141.17-.394.415-.761.735-.367.319-.599.532-.697.636a1.855 1.855 0 00-.237.307h2.307zM266.781 147.522l1.124-.13c.036.273.133.481.29.625a.814.814 0 00.571.216.801.801 0 00.605-.259c.164-.173.246-.406.246-.7 0-.277-.078-.497-.235-.66a.772.772 0 00-.575-.244c-.149 0-.327.028-.534.083l.129-.9c.314.008.554-.057.719-.194a.677.677 0 00.248-.549.605.605 0 00-.182-.463.669.669 0 00-.484-.173.717.717 0 00-.508.196c-.141.131-.226.322-.257.574l-1.071-.173c.075-.348.187-.627.337-.835.151-.208.36-.372.629-.491a2.21 2.21 0 01.904-.179c.57 0 1.028.173 1.373.519.284.283.425.602.425.959 0 .505-.29.909-.872 1.21.347.071.625.229.833.475.208.247.312.544.312.892 0 .506-.194.937-.583 1.293-.388.357-.872.535-1.451.535-.549 0-1.004-.15-1.365-.45a1.736 1.736 0 01-.628-1.177zM276.962 146.932v-.97h2.638v2.295c-.256.236-.627.443-1.114.623-.487.179-.98.269-1.479.269-.634 0-1.186-.127-1.658-.379a2.47 2.47 0 01-1.063-1.085 3.361 3.361 0 01-.355-1.535c0-.6.132-1.133.397-1.599a2.616 2.616 0 011.162-1.073c.389-.191.872-.287 1.451-.287.753 0 1.341.15 1.764.45.423.3.696.715.817 1.244l-1.216.216a1.218 1.218 0 00-.482-.67c-.235-.164-.53-.246-.883-.246-.535 0-.96.162-1.275.484-.316.322-.474.8-.474 1.434 0 .684.16 1.197.48 1.539.32.342.739.513 1.257.513.256 0 .513-.048.771-.144.258-.096.479-.211.664-.348v-.731h-1.402zM280.742 149.051v-5.761h1.191l2.481 3.847v-3.847h1.137v5.761h-1.228l-2.444-3.757v3.757h-1.137zM286.842 143.29h2.237c.504 0 .889.036 1.154.11.355.099.66.276.914.53.253.254.446.565.579.933.132.368.198.822.198 1.362 0 .474-.062.883-.186 1.226-.152.419-.368.759-.649 1.018-.213.196-.499.35-.86.46-.271.081-.632.122-1.084.122h-2.303v-5.761zm1.224.974v3.816h.914c.341 0 .588-.018.74-.055.198-.047.363-.127.494-.24.131-.112.238-.298.321-.556.082-.258.124-.61.124-1.055 0-.445-.042-.787-.124-1.026a1.314 1.314 0 00-.348-.558 1.194 1.194 0 00-.566-.271c-.171-.037-.506-.055-1.005-.055h-.55z" fill="#fff" fill-rule="nonzero"/><path d="M87.21 38.79v-5.122h-7.406v5.122h7.406z" fill="#ff000c"/></svg>