<?xml version="1.0" encoding="UTF-8" standalone="no"?>
<!DOCTYPE svg PUBLIC "-//W3C//DTD SVG 1.1//EN" "http://www.w3.org/Graphics/SVG/1.1/DTD/svg11.dtd">
<svg width="100%" height="100%" viewBox="0 0 343 172" version="1.1" xmlns="http://www.w3.org/2000/svg" xmlns:xlink="http://www.w3.org/1999/xlink" xml:space="preserve" xmlns:serif="http://www.serif.com/" style="fill-rule:evenodd;clip-rule:evenodd;stroke-linecap:round;">
    <g id="g5249">
    </g>
    <g id="g5257">
    </g>
    <g id="g5265">
    </g>
    <g id="g5365">
    </g>
    <g id="g5405">
    </g>
    <g id="g5413">
    </g>
    <g id="g5437">
    </g>
    <g id="g5445">
    </g>
    <path id="path5077" d="M0.596,110.416L5.479,105.533L5.479,64.026L0.596,59.143L0.596,12.753C0.596,6.056 6.107,0.545 12.804,0.545L330.21,0.545C330.21,0.545 330.211,0.545 330.211,0.545C336.908,0.545 342.419,6.056 342.419,12.753L342.419,159.248C342.419,165.945 336.908,171.456 330.211,171.456C330.211,171.456 330.21,171.456 330.21,171.456L12.804,171.456C6.107,171.456 0.596,165.945 0.596,159.248L0.596,110.416M39.959,67.256C39.959,69.101 41.478,70.62 43.324,70.62C45.169,70.62 46.688,69.101 46.688,67.256C46.688,65.41 45.169,63.891 43.324,63.891C41.478,63.891 39.959,65.41 39.959,67.256ZM39.959,104.745C39.959,106.591 41.478,108.109 43.324,108.109C45.169,108.109 46.688,106.591 46.688,104.745C46.688,102.899 45.169,101.381 43.324,101.381C41.478,101.381 39.959,102.899 39.959,104.745ZM325.405,134.828L325.405,134.836C325.405,137.472 327.574,139.642 330.211,139.642C332.848,139.642 335.017,137.472 335.017,134.836L335.017,134.828C335.017,132.192 332.848,130.022 330.211,130.022C327.574,130.022 325.405,132.192 325.405,134.828ZM325.405,110.413L325.405,110.42C325.405,113.057 327.574,115.226 330.211,115.226C332.848,115.226 335.017,113.057 335.017,110.42L335.017,110.413C335.017,107.776 332.848,105.606 330.211,105.606C327.574,105.606 325.405,107.776 325.405,110.413ZM325.405,85.997L325.405,86.004C325.405,88.641 327.574,90.81 330.211,90.81C332.848,90.81 335.017,88.641 335.017,86.004L335.017,85.997C335.017,83.36 332.848,81.19 330.211,81.19C327.574,81.19 325.405,83.36 325.405,85.997ZM325.405,61.581L325.405,61.588C325.405,64.225 327.574,66.394 330.211,66.394C332.848,66.394 335.017,64.225 335.017,61.588L335.017,61.581C335.017,58.944 332.848,56.774 330.211,56.774C327.574,56.774 325.405,58.944 325.405,61.581ZM325.405,37.165L325.405,37.172C325.405,39.809 327.574,41.978 330.211,41.978C332.848,41.978 335.017,39.809 335.017,37.172L335.017,37.165C335.017,34.528 332.848,32.359 330.211,32.359C327.574,32.359 325.405,34.528 325.405,37.165ZM7.998,12.753C7.998,15.389 10.167,17.559 12.804,17.559C15.441,17.559 17.61,15.389 17.61,12.753C17.61,10.116 15.441,7.946 12.804,7.946C10.167,7.946 7.998,10.116 7.998,12.753ZM32.413,12.753C32.413,15.389 34.583,17.559 37.22,17.559C39.856,17.559 42.026,15.389 42.026,12.753C42.026,10.116 39.856,7.946 37.22,7.946C34.583,7.946 32.413,10.116 32.413,12.753ZM56.829,12.753C56.829,15.389 58.999,17.559 61.636,17.559C64.272,17.559 66.442,15.389 66.442,12.753C66.442,10.116 64.272,7.946 61.636,7.946C58.999,7.946 56.829,10.116 56.829,12.753ZM81.245,12.751L81.245,12.755C81.245,15.391 83.415,17.561 86.051,17.561C88.688,17.561 90.858,15.391 90.858,12.755L90.858,12.751C90.858,10.114 88.688,7.944 86.051,7.944C83.415,7.944 81.245,10.114 81.245,12.751ZM105.661,12.749L105.661,12.756C105.661,15.393 107.831,17.563 110.467,17.563C113.104,17.563 115.274,15.393 115.274,12.756L115.274,12.749C115.274,10.112 113.104,7.943 110.467,7.943C107.831,7.943 105.661,10.112 105.661,12.749ZM130.077,12.749L130.077,12.756C130.077,15.393 132.247,17.563 134.883,17.563C137.52,17.563 139.69,15.393 139.69,12.756L139.69,12.749C139.69,10.112 137.52,7.943 134.883,7.943C132.247,7.943 130.077,10.112 130.077,12.749ZM154.493,12.753C154.493,15.389 156.662,17.559 159.299,17.559C161.936,17.559 164.105,15.389 164.105,12.753C164.105,10.116 161.936,7.946 159.299,7.946C156.662,7.946 154.493,10.116 154.493,12.753ZM178.909,12.753C178.909,15.389 181.078,17.559 183.715,17.559C186.352,17.559 188.521,15.389 188.521,12.753C188.521,10.116 186.352,7.946 183.715,7.946C181.078,7.946 178.909,10.116 178.909,12.753ZM203.325,12.749L203.325,12.756C203.325,15.393 205.494,17.563 208.131,17.563C210.768,17.563 212.937,15.393 212.937,12.756L212.937,12.749C212.937,10.112 210.768,7.943 208.131,7.943C205.494,7.943 203.325,10.112 203.325,12.749ZM227.741,12.749L227.741,12.756C227.741,15.393 229.91,17.563 232.547,17.563C235.183,17.563 237.353,15.393 237.353,12.756L237.353,12.749C237.353,10.112 235.183,7.943 232.547,7.943C229.91,7.943 227.741,10.112 227.741,12.749ZM252.157,12.753C252.157,15.389 254.327,17.559 256.963,17.559C259.6,17.559 261.77,15.389 261.77,12.753C261.77,10.116 259.6,7.946 256.963,7.946C254.327,7.946 252.157,10.116 252.157,12.753ZM276.573,12.749L276.573,12.756C276.573,15.393 278.743,17.563 281.379,17.563C284.016,17.563 286.186,15.393 286.186,12.756L286.186,12.749C286.186,10.112 284.016,7.943 281.379,7.943C278.743,7.943 276.573,10.112 276.573,12.749ZM300.989,12.749L300.989,12.756C300.989,15.393 303.159,17.563 305.795,17.563C308.432,17.563 310.601,15.393 310.601,12.756L310.601,12.749C310.601,10.112 308.432,7.943 305.795,7.943C303.159,7.943 300.989,10.112 300.989,12.749ZM325.405,12.749L325.405,12.756C325.405,15.393 327.574,17.563 330.211,17.563C332.848,17.563 335.017,15.393 335.017,12.756L335.017,12.749C335.017,10.112 332.848,7.943 330.211,7.943C327.574,7.943 325.405,10.112 325.405,12.749ZM325.405,159.244L325.405,159.252C325.405,161.888 327.574,164.058 330.211,164.058C332.848,164.058 335.017,161.888 335.017,159.252L335.017,159.244C335.017,156.608 332.848,154.438 330.211,154.438C327.574,154.438 325.405,156.608 325.405,159.244ZM300.989,159.244L300.989,159.252C300.989,161.888 303.159,164.058 305.795,164.058C308.432,164.058 310.601,161.888 310.601,159.252L310.601,159.244C310.601,156.608 308.432,154.438 305.795,154.438C303.159,154.438 300.989,156.608 300.989,159.244ZM276.573,159.244L276.573,159.252C276.573,161.888 278.743,164.058 281.379,164.058C284.016,164.058 286.186,161.888 286.186,159.252L286.186,159.244C286.186,156.608 284.016,154.438 281.379,154.438C278.743,154.438 276.573,156.608 276.573,159.244ZM252.157,159.248C252.157,161.885 254.327,164.054 256.963,164.054C259.6,164.054 261.77,161.885 261.77,159.248C261.77,156.611 259.6,154.442 256.963,154.442C254.327,154.442 252.157,156.611 252.157,159.248ZM227.741,159.244L227.741,159.252C227.741,161.888 229.91,164.058 232.547,164.058C235.183,164.058 237.353,161.888 237.353,159.252L237.353,159.244C237.353,156.608 235.183,154.438 232.547,154.438C229.91,154.438 227.741,156.608 227.741,159.244ZM203.325,159.244L203.325,159.252C203.325,161.888 205.494,164.058 208.131,164.058C210.768,164.058 212.937,161.888 212.937,159.252L212.937,159.244C212.937,156.608 210.768,154.438 208.131,154.438C205.494,154.438 203.325,156.608 203.325,159.244ZM178.909,159.248C178.909,161.885 181.078,164.054 183.715,164.054C186.352,164.054 188.521,161.885 188.521,159.248C188.521,156.611 186.352,154.442 183.715,154.442C181.078,154.442 178.909,156.611 178.909,159.248ZM154.493,159.248C154.493,161.885 156.662,164.054 159.299,164.054C161.936,164.054 164.105,161.885 164.105,159.248C164.105,156.611 161.936,154.442 159.299,154.442C156.662,154.442 154.493,156.611 154.493,159.248ZM130.077,159.244L130.077,159.252C130.077,161.888 132.247,164.058 134.883,164.058C137.52,164.058 139.69,161.888 139.69,159.252L139.69,159.244C139.69,156.608 137.52,154.438 134.883,154.438C132.247,154.438 130.077,156.608 130.077,159.244ZM105.661,159.244L105.661,159.252C105.661,161.888 107.831,164.058 110.467,164.058C113.104,164.058 115.274,161.888 115.274,159.252L115.274,159.244C115.274,156.608 113.104,154.438 110.467,154.438C107.831,154.438 105.661,156.608 105.661,159.244ZM81.245,159.246L81.245,159.25C81.245,161.887 83.415,164.056 86.051,164.056C88.688,164.056 90.858,161.887 90.858,159.25L90.858,159.246C90.858,156.609 88.688,154.44 86.051,154.44C83.415,154.44 81.245,156.609 81.245,159.246ZM56.829,159.248C56.829,161.885 58.999,164.054 61.636,164.054C64.272,164.054 66.442,161.885 66.442,159.248C66.442,156.611 64.272,154.442 61.636,154.442C58.999,154.442 56.829,156.611 56.829,159.248ZM32.413,159.248C32.413,161.885 34.583,164.054 37.22,164.054C39.856,164.054 42.026,161.885 42.026,159.248C42.026,156.611 39.856,154.442 37.22,154.442C34.583,154.442 32.413,156.611 32.413,159.248ZM7.998,159.248C7.998,161.885 10.167,164.054 12.804,164.054C15.441,164.054 17.61,161.885 17.61,159.248C17.61,156.611 15.441,154.442 12.804,154.442C10.167,154.442 7.998,156.611 7.998,159.248ZM48.13,54.278L48.13,54.28C48.13,56.389 49.866,58.125 51.975,58.125C54.084,58.125 55.82,56.389 55.82,54.28L55.82,54.278C55.82,52.169 54.084,50.433 51.975,50.433C49.866,50.433 48.13,52.169 48.13,54.278ZM48.13,117.721L48.13,117.723C48.13,119.832 49.866,121.568 51.975,121.568C54.084,121.568 55.82,119.832 55.82,117.723L55.82,117.721C55.82,115.611 54.084,113.876 51.975,113.876C49.866,113.876 48.13,115.611 48.13,117.721ZM20.734,51.394L20.734,51.397C20.734,53.77 22.687,55.722 25.06,55.722C27.433,55.722 29.386,53.77 29.386,51.397L29.386,51.394C29.386,49.021 27.433,47.068 25.06,47.068C22.687,47.068 20.734,49.021 20.734,51.394ZM20.734,120.604L20.734,120.607C20.734,122.98 22.687,124.933 25.06,124.933C27.433,124.933 29.386,122.98 29.386,120.607L29.386,120.604C29.386,118.231 27.433,116.278 25.06,116.278C22.687,116.278 20.734,118.231 20.734,120.604Z" style="fill:rgb(0,56,139);fill-rule:nonzero;"/>
    <g id="g5241">
    </g>
    <g transform="matrix(2.07645e-16,-3.3911,3.3911,2.07645e-16,91.7258,393.363)">
        <g id="g5283">
            <g id="g5281">
                <g id="g5275">
                    <path id="path5273" d="M90.683,12.878L89.963,11.978L91.403,11.978L90.683,12.878M91.346,12.05L90.021,12.05L91.346,12.05" style="fill:none;fill-rule:nonzero;stroke:white;stroke-width:0.43px;"/>
                </g>
                <g id="g6040" transform="matrix(-1,-7.65714e-16,7.65714e-16,-1,90.6833,13.0584)">
                    <g id="g6038">
                        <g id="g6036">
                            <g id="g5279">
                                <rect id="rect5277" x="-1.08" y="-0.18" width="2.16" height="0.36" style="fill:white;"/>
                            </g>
                        </g>
                    </g>
                </g>
            </g>
        </g>
    </g>
    <g id="g5397">
    </g>
    <g id="g5463">
    </g>
    <g id="g5495" transform="matrix(3.3911,0,0,3.3911,-3.7778,0.544691)">
        <g id="g5493">
            <path id="line5483" d="M17.008,18.113L17.008,20.381" style="fill:none;fill-rule:nonzero;stroke:white;stroke-width:0.36px;"/>
            <path id="line5485" d="M17.008,30.019L17.008,32.287" style="fill:none;fill-rule:nonzero;stroke:white;stroke-width:0.36px;"/>
            <path id="line5487" d="M4.252,14.428L1.701,14.428" style="fill:none;fill-rule:nonzero;stroke:white;stroke-width:0.36px;"/>
            <path id="line5489" d="M1.701,14.428L1.701,35.972" style="fill:none;fill-rule:nonzero;stroke:white;stroke-width:0.36px;"/>
            <path id="line5491" d="M1.701,35.972L4.252,35.972" style="fill:none;fill-rule:nonzero;stroke:white;stroke-width:0.36px;"/>
        </g>
    </g>
    <g id="g6284">
    </g>
    <g id="g6292">
    </g>
    <g id="g6300">
    </g>
    <g id="g6308">
    </g>
    <g id="g6316">
    </g>
    <g id="g6324">
    </g>
    <g id="g6332">
    </g>
    <g id="g6340">
    </g>
    <g id="g6348">
    </g>
    <g id="g6356">
    </g>
    <g id="g6364">
    </g>
    <g id="g6372">
    </g>
    <g id="g6380">
    </g>
    <g id="g6388">
    </g>
    <g id="g6396">
    </g>
    <g id="g6404">
    </g>
    <g id="g6412">
    </g>
    <g id="g6420">
    </g>
    <g id="g6428">
    </g>
    <g id="g6436">
    </g>
    <g id="g6444">
    </g>
    <g id="g6452">
    </g>
    <g id="g6460">
    </g>
    <g id="g6468">
    </g>
    <g id="g6476">
    </g>
    <g id="g6484">
    </g>
    <g id="g6492">
    </g>
    <g id="g6500">
    </g>
    <g id="g6508">
    </g>
    <g id="g6516">
    </g>
    <g id="g6524">
    </g>
    <g id="g6532">
    </g>
    <g id="g6540">
    </g>
    <g id="g6548">
    </g>
    <g id="g6556">
    </g>
    <g id="g6564">
    </g>
    <g id="g7453" transform="matrix(3.3911,0,0,3.3911,-122.697,-191.98)">
        <g id="g6579" transform="matrix(1,0,0,-1,104.781,61.5614)">
            <g id="g6577">
                <g id="g6575">
                    <g id="g8420">
                        <path id="path8422" d="M0,0C-0.656,0 -1.187,0.532 -1.187,1.188C-1.187,1.844 -0.656,2.376 0,2.376C0.656,2.376 1.187,1.844 1.187,1.188C1.187,0.532 0.656,0 0,0M3.6,2.988L1.984,2.988L1.984,4.788L-1.984,4.788L-1.984,2.988L-3.601,2.988L-3.601,-0.612L3.6,-0.612L3.6,2.988Z" style="fill:white;fill-rule:nonzero;"/>
                    </g>
                </g>
            </g>
        </g>
        <g id="g6587" transform="matrix(1,0,0,-1,110.631,65.953)">
            <g id="g6585">
                <g id="g6583">
                    <g id="g8424">
                        <path id="path8426" d="M0,0C0.08,-0.153 0.195,-0.271 0.346,-0.353C0.496,-0.434 0.698,-0.475 0.952,-0.475C1.175,-0.475 1.355,-0.44 1.495,-0.371C1.635,-0.302 1.742,-0.207 1.819,-0.084C1.896,0.038 1.948,0.18 1.977,0.343C2.005,0.506 2.019,0.679 2.019,0.86L1.342,0.86C1.342,0.679 1.331,0.532 1.31,0.421C1.287,0.31 1.258,0.224 1.22,0.162C1.183,0.101 1.138,0.061 1.086,0.04C1.034,0.02 0.979,0.01 0.919,0.01C0.847,0.01 0.783,0.024 0.729,0.054C0.674,0.084 0.629,0.142 0.593,0.228C0.557,0.314 0.53,0.436 0.513,0.592C0.495,0.749 0.486,0.954 0.486,1.208C0.486,1.446 0.493,1.647 0.506,1.812C0.519,1.977 0.54,2.11 0.571,2.211C0.603,2.313 0.646,2.387 0.7,2.433C0.756,2.478 0.825,2.5 0.91,2.5C1.063,2.5 1.169,2.445 1.228,2.333C1.285,2.223 1.314,2.044 1.314,1.8L1.991,1.8C1.991,1.922 1.982,2.053 1.965,2.193C1.947,2.332 1.904,2.462 1.836,2.583C1.767,2.704 1.662,2.803 1.523,2.881C1.384,2.959 1.193,2.999 0.952,2.999C0.698,2.999 0.496,2.956 0.346,2.87C0.195,2.783 0.08,2.664 0,2.51C-0.079,2.356 -0.131,2.172 -0.154,1.958C-0.179,1.743 -0.19,1.509 -0.19,1.255C-0.19,0.998 -0.179,0.763 -0.154,0.55C-0.131,0.337 -0.079,0.154 0,0" style="fill:white;fill-rule:nonzero;"/>
                    </g>
                </g>
            </g>
        </g>
        <g id="g6603" transform="matrix(1,0,0,-1,88.396,59.1854)">
            <g id="g6601">
                <g id="g6599">
                    <g id="g8432">
                        <path id="path8434" d="M0,0L3.969,0L3.969,2.412L0,2.412L0,0Z" style="fill:white;fill-rule:nonzero;"/>
                    </g>
                </g>
            </g>
        </g>
        <g id="g6619" transform="matrix(1,0,0,-1,111.981,59.1854)">
            <g id="g6617">
                <g id="g6615">
                    <g id="g8440">
                        <path id="path8442" d="M-1.984,0L1.983,0L1.983,2.412L-1.984,2.412L-1.984,0Z" style="fill:white;fill-rule:nonzero;"/>
                    </g>
                </g>
            </g>
        </g>
        <g id="g6635" transform="matrix(1,0,0,-1,109.243,66.4276)">
            <g id="g6633">
                <g id="g6631">
                    <g id="g8448">
                        <path id="path8450" d="M0,0C0.367,0 0.653,0.081 0.858,0.242C1.063,0.403 1.166,0.661 1.166,1.015C1.166,1.119 1.156,1.213 1.138,1.297C1.119,1.382 1.085,1.459 1.037,1.53C0.988,1.601 0.923,1.666 0.842,1.728C0.76,1.789 0.655,1.847 0.526,1.903L0.005,2.129C-0.139,2.188 -0.233,2.254 -0.277,2.324C-0.321,2.395 -0.343,2.481 -0.343,2.585C-0.343,2.635 -0.337,2.684 -0.326,2.731C-0.315,2.778 -0.295,2.819 -0.266,2.855C-0.235,2.891 -0.195,2.92 -0.146,2.942C-0.096,2.964 -0.032,2.975 0.043,2.975C0.174,2.975 0.269,2.932 0.324,2.846C0.381,2.76 0.409,2.637 0.409,2.477L1.058,2.477L1.058,2.571C1.058,2.731 1.032,2.868 0.98,2.982C0.929,3.097 0.856,3.19 0.764,3.264C0.672,3.338 0.562,3.391 0.436,3.424C0.309,3.457 0.17,3.473 0.02,3.473C-0.304,3.473 -0.558,3.392 -0.742,3.229C-0.927,3.066 -1.02,2.818 -1.02,2.486C-1.02,2.349 -1.002,2.227 -0.968,2.122C-0.934,2.017 -0.879,1.925 -0.806,1.845C-0.732,1.765 -0.641,1.695 -0.53,1.636C-0.421,1.576 -0.291,1.521 -0.141,1.471C-0.027,1.434 0.067,1.396 0.144,1.361C0.221,1.325 0.282,1.285 0.329,1.241C0.376,1.197 0.41,1.147 0.431,1.093C0.451,1.038 0.461,0.973 0.461,0.898C0.461,0.757 0.419,0.652 0.337,0.585C0.253,0.518 0.16,0.484 0.057,0.484C-0.031,0.484 -0.104,0.497 -0.162,0.522C-0.22,0.547 -0.266,0.581 -0.301,0.625C-0.335,0.669 -0.358,0.723 -0.371,0.787C-0.384,0.852 -0.39,0.923 -0.39,1.001L-0.39,1.1L-1.066,1.1L-1.066,0.963C-1.066,0.653 -0.984,0.415 -0.819,0.249C-0.655,0.083 -0.382,0 0,0" style="fill:white;fill-rule:nonzero;"/>
                    </g>
                </g>
            </g>
        </g>
        <g id="g6651" transform="matrix(1,0,0,-1,81.039,63.6087)">
            <g id="g6649">
                <g id="g6647">
                    <g id="g8456">
                        <path id="path8458" d="M0,0L0,-0.517L0.775,-0.517L0.775,-3.267L1.567,-3.267L1.567,0.627L0.984,0.627C0.944,0.407 0.848,0.248 0.696,0.148C0.543,0.049 0.335,0 0.071,0L0,0Z" style="fill:white;fill-rule:nonzero;"/>
                    </g>
                </g>
            </g>
        </g>
        <g id="g6659" transform="matrix(1,0,0,-1,99.5649,56.7733)">
            <g id="g6657">
                <g id="g6655">
                    <g id="g8460">
                        <path id="path8462" d="M0,0L-3.969,0L-3.969,-2.412L0,-2.412L0,0Z" style="fill:white;fill-rule:nonzero;"/>
                    </g>
                </g>
            </g>
        </g>
        <g id="g6667" transform="matrix(1,0,0,-1,85.1645,56.7733)">
            <g id="g6665">
                <g id="g6663">
                    <g id="g8464">
                        <path id="path8466" d="M0,0L-3.968,0L-3.968,-2.412L0,-2.412L0,0Z" style="fill:white;fill-rule:nonzero;"/>
                    </g>
                </g>
            </g>
        </g>
        <g id="g6683" transform="matrix(1,0,0,-1,114.582,65.8211)">
            <g id="g6681">
                <g id="g6679">
                    <g id="g8472">
                        <path id="path8474" d="M0,0L-1.198,0L-1.198,2.801L-1.875,2.801L-1.875,-0.555L0,-0.555L0,0Z" style="fill:white;fill-rule:nonzero;"/>
                    </g>
                </g>
            </g>
        </g>
        <g id="g6715" transform="matrix(1,0,0,-1,106.375,65.3265)">
            <g id="g6713">
                <g id="g6711">
                    <g id="g8488">
                        <path id="path8490" d="M0,0C0.108,0.081 0.195,0.197 0.262,0.349C0.327,0.501 0.36,0.7 0.36,0.946C0.36,1.195 0.328,1.4 0.264,1.562C0.199,1.723 0.104,1.851 -0.021,1.944C-0.148,2.038 -0.3,2.103 -0.476,2.139C-0.652,2.176 -0.848,2.194 -1.064,2.194C-1.219,2.194 -1.369,2.18 -1.518,2.15C-1.666,2.121 -1.799,2.07 -1.916,1.999C-2.034,1.928 -2.129,1.83 -2.199,1.708C-2.271,1.584 -2.307,1.43 -2.307,1.243C-2.307,1.074 -2.284,0.931 -2.238,0.814C-2.192,0.696 -2.118,0.601 -2.016,0.528L-2.016,0.517L-2.901,0.599L-2.901,2.035L-3.518,2.035L-3.518,0.005L-1.4,-0.138L-1.4,0.572C-1.51,0.586 -1.597,0.624 -1.661,0.685C-1.725,0.745 -1.758,0.832 -1.758,0.946C-1.758,1.034 -1.744,1.107 -1.719,1.166C-1.693,1.225 -1.648,1.271 -1.587,1.306C-1.524,1.341 -1.439,1.366 -1.334,1.38C-1.228,1.395 -1.094,1.402 -0.932,1.402C-0.68,1.402 -0.489,1.367 -0.363,1.295C-0.236,1.224 -0.174,1.105 -0.174,0.94C-0.174,0.856 -0.194,0.788 -0.236,0.737C-0.278,0.686 -0.332,0.646 -0.396,0.619C-0.46,0.591 -0.529,0.574 -0.602,0.566C-0.676,0.559 -0.745,0.555 -0.811,0.555L-0.811,-0.204L-0.707,-0.204C-0.597,-0.204 -0.479,-0.19 -0.352,-0.163C-0.226,-0.135 -0.107,-0.081 0,0" style="fill:white;fill-rule:nonzero;"/>
                    </g>
                </g>
            </g>
        </g>
        <g id="g6723" transform="matrix(1,0,0,-1,83.9716,66.202)">
            <g id="g6721">
                <g id="g6719">
                    <g id="g8492">
                        <path id="path8494" d="M0,0C-0.033,0.09 -0.056,0.212 -0.069,0.369C-0.082,0.524 -0.088,0.725 -0.088,0.971L-0.088,1.394C-0.088,1.644 -0.082,1.853 -0.069,2.021C-0.056,2.19 -0.034,2.325 -0.003,2.425C0.028,2.526 0.071,2.598 0.126,2.64C0.182,2.682 0.253,2.703 0.341,2.703C0.425,2.703 0.495,2.687 0.55,2.654C0.605,2.621 0.649,2.559 0.682,2.469C0.715,2.379 0.738,2.257 0.751,2.101C0.764,1.945 0.77,1.744 0.77,1.499L0.77,1.075C0.77,0.826 0.764,0.617 0.751,0.448C0.738,0.279 0.716,0.145 0.685,0.044C0.653,-0.057 0.61,-0.128 0.556,-0.17C0.5,-0.213 0.429,-0.234 0.341,-0.234C0.257,-0.234 0.187,-0.217 0.132,-0.185C0.077,-0.151 0.033,-0.09 0,0M1.02,-0.569C1.184,-0.459 1.305,-0.308 1.386,-0.116C1.467,0.077 1.516,0.298 1.535,0.547C1.553,0.796 1.562,1.057 1.562,1.328C1.562,1.673 1.543,1.965 1.504,2.206C1.466,2.445 1.4,2.641 1.306,2.791C1.213,2.941 1.088,3.05 0.932,3.119C0.776,3.186 0.579,3.22 0.341,3.22C0.051,3.22 -0.175,3.163 -0.338,3.047C-0.501,2.932 -0.624,2.777 -0.704,2.585C-0.785,2.393 -0.834,2.171 -0.853,1.922C-0.871,1.673 -0.88,1.413 -0.88,1.141C-0.88,0.796 -0.861,0.504 -0.822,0.264C-0.784,0.024 -0.718,-0.171 -0.624,-0.322C-0.531,-0.472 -0.405,-0.579 -0.248,-0.641C-0.09,-0.703 0.106,-0.734 0.341,-0.734C0.63,-0.734 0.857,-0.679 1.02,-0.569" style="fill:white;fill-rule:nonzero;"/>
                    </g>
                </g>
            </g>
        </g>
        <g id="g6731" transform="matrix(1,0,0,-1,97.3784,65.347)">
            <g id="g6729">
                <g id="g6727">
                    <g id="g8496">
                        <path id="path8498" d="M0,0C-0.097,-0.268 -0.175,-0.531 -0.233,-0.789C-0.292,-1.047 -0.336,-1.294 -0.365,-1.529L0.465,-1.529C0.498,-1.254 0.546,-0.974 0.607,-0.69C0.67,-0.406 0.749,-0.126 0.845,0.149C0.939,0.424 1.051,0.691 1.177,0.952C1.304,1.212 1.447,1.456 1.608,1.683L1.608,2.288L-0.789,2.288L-0.789,1.606L0.85,1.606C0.659,1.346 0.494,1.08 0.354,0.809C0.216,0.537 0.098,0.268 0,0" style="fill:white;fill-rule:nonzero;"/>
                    </g>
                </g>
            </g>
        </g>
        <g id="g6779" transform="matrix(1,0,0,-1,123.517,60.1756)">
            <g id="g6777">
                <g id="g6775">
                    <g id="g8520">
                        <path id="path8522" d="M0,0L0,3.186L-0.477,3.186C-0.51,3.006 -0.588,2.875 -0.713,2.794C-0.837,2.713 -1.008,2.673 -1.224,2.673L-1.282,2.673L-1.282,2.25L-0.647,2.25L-0.647,0L0,0Z" style="fill:white;fill-rule:nonzero;"/>
                    </g>
                </g>
            </g>
        </g>
        <g id="g6795" transform="matrix(1,0,0,-1,125.47,65.8758)">
            <g id="g6793">
                <g id="g6791">
                    <g id="g8528">
                        <path id="path8530" d="M0,0L0.479,0.967L0.964,0L1.726,0L0.889,1.442L1.669,2.853L0.931,2.853L0.503,1.93L0.07,2.853L-0.498,2.853L-0.498,2.856L-2.641,2.856L-2.641,2.301L-1.907,2.301L-1.907,-0.5L-1.23,-0.5L-1.23,2.301L-0.498,2.301L-0.498,2.526L0.095,1.442L-0.742,0L0,0Z" style="fill:white;fill-rule:nonzero;"/>
                    </g>
                </g>
            </g>
        </g>
        <g id="g6803" transform="matrix(1,0,0,-1,81.5615,99.3965)">
            <g id="g6801">
                <g id="g6799">
                    <g id="g8532">
                        <path id="path8534" d="M0,0L0.379,1.766L0.391,1.766L0.77,0L0,0ZM4.298,-0.863L2.829,-0.863C2.848,-0.79 2.89,-0.703 2.956,-0.602C3.022,-0.501 3.113,-0.397 3.231,-0.291L3.671,0.116C3.781,0.215 3.875,0.311 3.951,0.404C4.028,0.498 4.091,0.595 4.138,0.693C4.186,0.792 4.221,0.896 4.243,1.004C4.265,1.112 4.276,1.229 4.276,1.354C4.276,1.694 4.18,1.956 3.99,2.14C3.799,2.323 3.506,2.415 3.11,2.415C2.692,2.415 2.386,2.317 2.191,2.123C1.997,1.929 1.9,1.65 1.9,1.287L1.9,1.139L2.659,1.139C2.659,1.241 2.664,1.339 2.672,1.431C2.682,1.521 2.702,1.603 2.733,1.672C2.764,1.742 2.808,1.797 2.865,1.837C2.922,1.878 3,1.897 3.099,1.897C3.355,1.897 3.484,1.736 3.484,1.414C3.484,1.314 3.479,1.227 3.47,1.149C3.461,1.072 3.441,1.001 3.412,0.936C3.383,0.869 3.342,0.804 3.289,0.737C3.235,0.671 3.165,0.6 3.077,0.522L2.758,0.226C2.615,0.094 2.489,-0.037 2.381,-0.168C2.273,-0.298 2.183,-0.431 2.111,-0.566C2.04,-0.702 1.987,-0.845 1.952,-0.995C1.92,-1.134 1.907,-1.284 1.904,-1.441L0.875,2.447L-0.104,2.447L-1.144,-1.479L-0.319,-1.479L-0.138,-0.648L0.907,-0.648L1.089,-1.479L4.298,-1.479L4.298,-0.863Z" style="fill:white;fill-rule:nonzero;"/>
                    </g>
                </g>
            </g>
        </g>
        <g id="g6811" transform="matrix(1,0,0,-1,98.5278,99.4512)">
            <g id="g6809">
                <g id="g6807">
                    <g id="g8536">
                        <path id="path8538" d="M0,0L0.759,1.479L0.77,1.479L0.77,0L0,0ZM1.496,-1.425L1.496,-0.616L1.87,-0.616L1.87,0L1.496,0L1.496,2.47L0.677,2.47L-0.616,0.033L-0.616,-0.616L0.77,-0.616L0.77,-1.425L1.496,-1.425Z" style="fill:white;fill-rule:nonzero;"/>
                    </g>
                </g>
            </g>
        </g>
        <g id="g6827" transform="matrix(1,0,0,-1,135.875,103.062)">
            <g id="g6825">
                <g id="g6823">
                    <g id="g8544">
                        <path id="path8546" d="M0,0L-2.806,-2.807L-1.572,-4.039C-1.562,-4.037 -1.551,-4.032 -1.539,-4.03C-1.34,-3.987 -1.148,-3.925 -0.963,-3.852C-0.902,-3.827 -0.844,-3.799 -0.785,-3.771C-0.646,-3.707 -0.514,-3.635 -0.385,-3.554C-0.332,-3.521 -0.277,-3.488 -0.227,-3.452C-0.057,-3.333 0.105,-3.204 0.252,-3.058C0.398,-2.911 0.527,-2.749 0.646,-2.579C0.683,-2.528 0.715,-2.475 0.748,-2.421C0.828,-2.293 0.901,-2.159 0.965,-2.021C0.992,-1.962 1.021,-1.903 1.045,-1.843C1.119,-1.657 1.182,-1.465 1.225,-1.266C1.227,-1.254 1.231,-1.244 1.233,-1.233L0,0Z" style="fill:white;fill-rule:nonzero;"/>
                    </g>
                </g>
            </g>
        </g>
        <g id="g6843" transform="matrix(1,0,0,-1,78.098,100.876)">
            <g id="g6841">
                <g id="g6839">
                    <g id="g8552">
                        <path id="path8554" d="M0,0L0,3.895L-0.583,3.895C-0.624,3.674 -0.72,3.515 -0.872,3.416C-1.024,3.316 -1.232,3.268 -1.496,3.268L-1.567,3.268L-1.567,2.75L-0.792,2.75L-0.792,0L0,0Z" style="fill:white;fill-rule:nonzero;"/>
                    </g>
                </g>
            </g>
        </g>
        <g id="g6851" transform="matrix(1,0,0,-1,129.374,64.5091)">
            <g id="g6849">
                <g id="g6847">
                    <g id="g8556">
                        <path id="path8558" d="M0,0L-0.199,-0.199L-0.883,0.485L-0.657,0.711C-0.436,0.933 -0.216,0.934 0.004,0.714C0.133,0.586 0.192,0.463 0.185,0.347C0.178,0.231 0.115,0.115 0,0M3.889,1.217L2.098,1.825L1.477,3.55L0.954,3.028L1.419,1.958L0.346,2.419L-0.183,1.891L1.535,1.264L2.083,-0.349C2.063,-0.34 2.046,-0.35 2.024,-0.335C1.949,-0.278 1.846,-0.188 1.715,-0.066C1.648,-0.004 1.589,0.052 1.533,0.102C1.48,0.151 1.428,0.196 1.379,0.236C1.233,0.356 1.104,0.418 0.988,0.423C0.872,0.427 0.746,0.378 0.609,0.276L0.603,0.283C0.708,0.447 0.744,0.611 0.707,0.777C0.67,0.941 0.572,1.104 0.412,1.263C0.207,1.469 -0.002,1.567 -0.214,1.558C-0.426,1.547 -0.631,1.443 -0.83,1.244L-1.715,0.359L0.658,-2.014L1.137,-1.535L0.133,-0.531L0.389,-0.275C0.489,-0.175 0.586,-0.132 0.682,-0.143C0.776,-0.154 0.873,-0.203 0.971,-0.292L1.439,-0.734C1.488,-0.778 1.537,-0.819 1.588,-0.855C1.637,-0.892 1.691,-0.915 1.748,-0.924L2.145,-0.528L2.268,-0.405L2.669,-0.003L2.203,1.14L3.351,0.678L3.889,1.217Z" style="fill:white;fill-rule:nonzero;"/>
                    </g>
                </g>
            </g>
        </g>
        <g id="g6859" transform="matrix(1,0,0,-1,37.7786,65.9779)">
            <g id="g6857">
                <g id="g6855">
                    <g id="g8560">
                        <path id="path8562" d="M0,0L0,1.011L0.292,1.011C0.367,1.011 0.436,1.003 0.499,0.987C0.561,0.972 0.615,0.944 0.661,0.905C0.706,0.866 0.742,0.814 0.769,0.75C0.795,0.686 0.809,0.605 0.809,0.508C0.809,0.313 0.758,0.18 0.658,0.108C0.558,0.036 0.426,0 0.263,0L0,0ZM0,2.359L0.245,2.359C0.414,2.359 0.538,2.327 0.616,2.261C0.694,2.195 0.733,2.082 0.733,1.922C0.733,1.763 0.69,1.649 0.604,1.582C0.518,1.514 0.381,1.48 0.193,1.48L0,1.48L0,2.359ZM0.961,-0.418C1.094,-0.365 1.203,-0.293 1.286,-0.204C1.369,-0.115 1.427,-0.011 1.462,0.108C1.496,0.228 1.514,0.353 1.514,0.484C1.514,0.71 1.458,0.89 1.349,1.025C1.239,1.16 1.091,1.239 0.902,1.265L0.902,1.274C1.072,1.321 1.199,1.409 1.283,1.54C1.368,1.669 1.41,1.825 1.41,2.007C1.41,2.167 1.387,2.302 1.34,2.411C1.292,2.521 1.227,2.609 1.142,2.674C1.058,2.74 0.957,2.787 0.839,2.815C0.722,2.844 0.594,2.858 0.456,2.858L-0.677,2.858L-0.677,-0.498L0.465,-0.498C0.663,-0.498 0.828,-0.472 0.961,-0.418" style="fill:white;fill-rule:nonzero;"/>
                    </g>
                </g>
            </g>
        </g>
        <g id="g6931" transform="matrix(1,0,0,-1,120.898,63.6029)">
            <g id="g6929">
                <g id="g6927">
                    <g id="g8596">
                        <path id="path8598" d="M0,0L0.01,0L0.334,-1.509L-0.324,-1.509L0,0ZM-0.441,-2.063L0.451,-2.063L0.606,-2.773L1.312,-2.773L0.423,0.583L-0.413,0.583L-1.302,-2.773L-0.597,-2.773L-0.441,-2.063Z" style="fill:white;fill-rule:nonzero;"/>
                    </g>
                </g>
            </g>
        </g>
        <g id="g6939" transform="matrix(1,0,0,-1,128.365,56.7733)">
            <g id="g6937">
                <g id="g6935">
                    <g id="g8600">
                        <path id="path8602" d="M0,0L-3.969,0L-3.969,-2.412L0,-2.412L0,0Z" style="fill:white;fill-rule:nonzero;"/>
                    </g>
                </g>
            </g>
        </g>
        <g id="path8604" transform="matrix(1,0,0,-1,36.3805,107.174)">
            <rect x="98.459" y="30.416" width="2.341" height="3.968" style="fill:white;fill-rule:nonzero;"/>
        </g>
        <g id="g6948" transform="matrix(1,0,0,-1,129.597,58.4837)">
            <g id="g6946">
                <g id="g6944">
                    <g id="g8606">
                        <path id="path8608" d="M0,0C0,0.204 0.006,0.375 0.016,0.513C0.026,0.651 0.045,0.761 0.07,0.844C0.096,0.926 0.131,0.985 0.176,1.02C0.221,1.054 0.279,1.071 0.352,1.071C0.42,1.071 0.478,1.058 0.522,1.031C0.567,1.003 0.604,0.953 0.63,0.88C0.657,0.806 0.676,0.706 0.687,0.578C0.697,0.451 0.702,0.287 0.702,0.085L0.702,-0.261C0.702,-0.465 0.697,-0.636 0.687,-0.774C0.676,-0.912 0.658,-1.022 0.633,-1.104C0.607,-1.187 0.571,-1.246 0.526,-1.28C0.481,-1.314 0.423,-1.332 0.352,-1.332C0.282,-1.332 0.226,-1.318 0.181,-1.292C0.135,-1.264 0.1,-1.214 0.072,-1.141C0.045,-1.067 0.026,-0.967 0.016,-0.839C0.006,-0.711 0,-0.547 0,-0.346L0,0ZM-0.13,-1.665C-0.001,-1.716 0.159,-1.741 0.352,-1.741C0.588,-1.741 0.773,-1.696 0.907,-1.606C1.04,-1.517 1.141,-1.393 1.206,-1.235C1.272,-1.078 1.312,-0.897 1.328,-0.693C1.343,-0.489 1.351,-0.276 1.351,-0.054C1.351,0.228 1.335,0.467 1.303,0.664C1.271,0.86 1.218,1.02 1.141,1.143C1.064,1.266 0.963,1.355 0.835,1.411C0.707,1.466 0.546,1.494 0.352,1.494C0.114,1.494 -0.071,1.447 -0.204,1.353C-0.338,1.258 -0.437,1.132 -0.504,0.974C-0.569,0.817 -0.61,0.636 -0.625,0.432C-0.641,0.228 -0.647,0.015 -0.647,-0.207C-0.647,-0.489 -0.632,-0.728 -0.601,-0.925C-0.569,-1.121 -0.515,-1.281 -0.438,-1.404C-0.362,-1.527 -0.26,-1.614 -0.13,-1.665" style="fill:white;fill-rule:nonzero;"/>
                    </g>
                </g>
            </g>
        </g>
        <g id="g6956" transform="matrix(1,0,0,-1,115.315,65.3275)">
            <g id="g6954">
                <g id="g6952">
                    <g id="g8610">
                        <path id="path8612" d="M0,0L0,-0.137C0,-0.447 0.082,-0.685 0.247,-0.851C0.411,-1.017 0.685,-1.1 1.066,-1.1C1.434,-1.1 1.72,-1.02 1.925,-0.858C2.13,-0.697 2.232,-0.439 2.232,-0.085C2.232,0.019 2.223,0.113 2.204,0.197C2.186,0.282 2.151,0.359 2.104,0.43C2.055,0.5 1.989,0.566 1.908,0.627C1.826,0.688 1.722,0.747 1.593,0.803L1.071,1.029C0.928,1.088 0.833,1.154 0.789,1.224C0.745,1.294 0.724,1.381 0.724,1.485C0.724,1.535 0.729,1.583 0.74,1.631C0.751,1.678 0.771,1.719 0.801,1.755C0.831,1.791 0.871,1.82 0.921,1.842C0.971,1.864 1.034,1.875 1.109,1.875C1.24,1.875 1.335,1.832 1.391,1.746C1.447,1.66 1.476,1.537 1.476,1.377L2.124,1.377L2.124,1.471C2.124,1.631 2.099,1.768 2.047,1.882C1.995,1.997 1.923,2.09 1.83,2.164C1.738,2.238 1.629,2.291 1.502,2.324C1.375,2.357 1.236,2.373 1.086,2.373C0.763,2.373 0.509,2.292 0.324,2.129C0.14,1.966 0.047,1.718 0.047,1.386C0.047,1.249 0.064,1.127 0.099,1.022C0.133,0.917 0.187,0.825 0.261,0.745C0.334,0.665 0.426,0.595 0.536,0.536C0.646,0.476 0.775,0.421 0.926,0.371C1.039,0.333 1.134,0.296 1.21,0.261C1.287,0.225 1.349,0.185 1.396,0.141C1.442,0.097 1.477,0.047 1.497,-0.007C1.518,-0.062 1.527,-0.127 1.527,-0.202C1.527,-0.343 1.485,-0.448 1.403,-0.515C1.319,-0.583 1.227,-0.616 1.123,-0.616C1.035,-0.616 0.963,-0.604 0.904,-0.578C0.847,-0.553 0.801,-0.519 0.766,-0.475C0.731,-0.431 0.708,-0.377 0.695,-0.313C0.683,-0.249 0.677,-0.177 0.677,-0.099L0.677,0L0,0Z" style="fill:white;fill-rule:nonzero;"/>
                    </g>
                </g>
            </g>
        </g>
        <g id="g6964" transform="matrix(1,0,0,-1,119.181,59.1854)">
            <g id="g6962">
                <g id="g6960">
                    <g id="g8614">
                        <path id="path8616" d="M-1.985,0L1.983,0L1.983,2.412L-1.985,2.412L-1.985,0Z" style="fill:white;fill-rule:nonzero;"/>
                    </g>
                </g>
            </g>
        </g>
        <g id="g6972" transform="matrix(1,0,0,-1,118.266,65.8778)">
            <g id="g6970">
                <g id="g6968">
                    <g id="g8618">
                        <path id="path8620" d="M0,0L0,2.359L0.287,2.359C0.415,2.359 0.519,2.335 0.595,2.287C0.672,2.238 0.729,2.166 0.769,2.07C0.808,1.975 0.834,1.855 0.847,1.711C0.858,1.567 0.865,1.399 0.865,1.208C0.865,0.979 0.858,0.788 0.844,0.635C0.83,0.481 0.802,0.357 0.76,0.263C0.717,0.169 0.66,0.102 0.588,0.061C0.516,0.021 0.42,0 0.301,0L0,0ZM0.95,-0.395C1.097,-0.326 1.215,-0.221 1.303,-0.08C1.39,0.061 1.452,0.241 1.488,0.458C1.523,0.676 1.542,0.932 1.542,1.227C1.542,1.474 1.528,1.698 1.5,1.899C1.472,2.1 1.417,2.271 1.338,2.414C1.258,2.556 1.146,2.666 1.001,2.743C0.857,2.819 0.668,2.858 0.433,2.858L-0.677,2.858L-0.677,-0.498L0.391,-0.498C0.616,-0.498 0.803,-0.463 0.95,-0.395" style="fill:white;fill-rule:nonzero;"/>
                    </g>
                </g>
            </g>
        </g>
        <g id="g6988" transform="matrix(1,0,0,-1,96.4897,97.6308)">
            <g id="g6986">
                <g id="g6984">
                    <g id="g8626">
                        <path id="path8628" d="M0,0L0.012,0L0.391,-1.766L-0.379,-1.766L0,0ZM-0.517,-2.414L0.528,-2.414L0.71,-3.245L1.535,-3.245L0.495,0.682L-0.483,0.682L-1.523,-3.245L-0.698,-3.245L-0.517,-2.414Z" style="fill:white;fill-rule:nonzero;"/>
                    </g>
                </g>
            </g>
        </g>
        <g id="g6996" transform="matrix(1,0,0,-1,106.687,100.84)">
            <g id="g6994">
                <g id="g6992">
                    <g id="g8630">
                        <path id="path8632" d="M0,0C0.153,0.064 0.274,0.159 0.363,0.286C0.452,0.412 0.514,0.563 0.549,0.739C0.583,0.916 0.601,1.111 0.601,1.328C0.601,1.482 0.587,1.634 0.559,1.782C0.531,1.931 0.483,2.063 0.415,2.181C0.348,2.298 0.255,2.393 0.139,2.464C0.021,2.535 -0.126,2.571 -0.304,2.571C-0.464,2.571 -0.6,2.548 -0.711,2.502C-0.822,2.456 -0.913,2.382 -0.982,2.279L-0.993,2.279L-0.915,3.165L0.449,3.165L0.449,3.781L-1.479,3.781L-1.614,1.664L-0.94,1.664C-0.927,1.773 -0.891,1.86 -0.834,1.925C-0.776,1.989 -0.693,2.021 -0.585,2.021C-0.502,2.021 -0.433,2.008 -0.376,1.982C-0.32,1.957 -0.276,1.913 -0.243,1.851C-0.21,1.788 -0.187,1.704 -0.173,1.598C-0.159,1.491 -0.151,1.357 -0.151,1.196C-0.151,0.943 -0.186,0.753 -0.254,0.627C-0.321,0.5 -0.434,0.437 -0.591,0.437C-0.671,0.437 -0.735,0.458 -0.784,0.5C-0.833,0.542 -0.87,0.596 -0.896,0.66C-0.923,0.724 -0.939,0.793 -0.946,0.866C-0.953,0.939 -0.956,1.009 -0.956,1.075L-1.678,1.075L-1.678,0.971C-1.678,0.86 -1.664,0.742 -1.639,0.616C-1.612,0.489 -1.561,0.372 -1.484,0.264C-1.407,0.155 -1.297,0.068 -1.152,0.003C-1.008,-0.063 -0.818,-0.097 -0.585,-0.097C-0.349,-0.097 -0.153,-0.064 0,0" style="fill:white;fill-rule:nonzero;"/>
                    </g>
                </g>
            </g>
        </g>
        <g id="g7004" transform="matrix(1,0,0,-1,103.642,97.6308)">
            <g id="g7002">
                <g id="g7000">
                    <g id="g8634">
                        <path id="path8636" d="M0,0L0.011,0L0.371,-1.766L-0.36,-1.766L0,0ZM-0.491,-2.414L0.502,-2.414L0.674,-3.245L1.458,-3.245L0.471,0.682L-0.46,0.682L-1.447,-3.245L-0.664,-3.245L-0.491,-2.414Z" style="fill:white;fill-rule:nonzero;"/>
                    </g>
                </g>
            </g>
        </g>
        <g id="g7012" transform="matrix(1,0,0,-1,92.4643,100.832)">
            <g id="g7010">
                <g id="g7008">
                    <g id="g8638">
                        <path id="path8640" d="M0,0C0.167,0.07 0.298,0.161 0.394,0.275C0.488,0.389 0.553,0.516 0.586,0.655C0.619,0.794 0.635,0.93 0.635,1.062C0.635,1.308 0.583,1.512 0.479,1.675C0.374,1.838 0.195,1.939 -0.058,1.98L-0.058,1.991C0.129,2.031 0.275,2.126 0.38,2.274C0.484,2.423 0.536,2.614 0.536,2.85C0.536,3.194 0.438,3.447 0.242,3.608C0.046,3.77 -0.23,3.851 -0.586,3.851C-0.96,3.851 -1.244,3.756 -1.438,3.567C-1.633,3.378 -1.729,3.09 -1.729,2.701L-1.004,2.701C-1.004,2.792 -0.999,2.877 -0.99,2.954C-0.98,3.031 -0.962,3.098 -0.933,3.154C-0.903,3.211 -0.861,3.255 -0.809,3.286C-0.756,3.317 -0.687,3.333 -0.603,3.333C-0.474,3.333 -0.379,3.295 -0.316,3.218C-0.254,3.141 -0.223,3.009 -0.223,2.822C-0.223,2.741 -0.231,2.664 -0.247,2.591C-0.264,2.518 -0.29,2.452 -0.324,2.396C-0.359,2.339 -0.405,2.293 -0.462,2.258C-0.519,2.224 -0.59,2.206 -0.674,2.206L-0.933,2.206L-0.933,1.688L-0.668,1.688C-0.559,1.688 -0.471,1.67 -0.404,1.634C-0.338,1.597 -0.287,1.548 -0.25,1.485C-0.214,1.423 -0.188,1.353 -0.176,1.273C-0.163,1.194 -0.157,1.111 -0.157,1.023C-0.157,0.938 -0.161,0.858 -0.171,0.781C-0.18,0.704 -0.2,0.638 -0.231,0.58C-0.263,0.523 -0.307,0.479 -0.363,0.445C-0.42,0.413 -0.496,0.396 -0.591,0.396C-0.764,0.396 -0.878,0.456 -0.935,0.575C-0.992,0.694 -1.022,0.867 -1.025,1.095L-1.785,1.095L-1.785,1.078C-1.785,0.7 -1.691,0.409 -1.504,0.204C-1.317,-0.002 -1.035,-0.104 -0.657,-0.104C-0.386,-0.104 -0.167,-0.069 0,0" style="fill:white;fill-rule:nonzero;"/>
                    </g>
                </g>
            </g>
        </g>
        <g id="g7020" transform="matrix(1,0,0,-1,89.2446,97.6308)">
            <g id="g7018">
                <g id="g7016">
                    <g id="g8642">
                        <path id="path8644" d="M0,0L0.011,0L0.391,-1.766L-0.38,-1.766L0,0ZM-0.518,-2.414L0.527,-2.414L0.709,-3.245L1.534,-3.245L0.495,0.682L-0.484,0.682L-1.523,-3.245L-0.698,-3.245L-0.518,-2.414Z" style="fill:white;fill-rule:nonzero;"/>
                    </g>
                </g>
            </g>
        </g>
        <g id="g7028" transform="matrix(1,0,0,-1,113.702,99.879)">
            <g id="g7026">
                <g id="g7024">
                    <g id="g8646">
                        <path id="path8648" d="M0,0L0.236,0.38L0.893,-0.997L1.616,-0.997L0.652,0.921L1.519,2.359L0.821,2.359L0.009,1.015L0,1.015L0,2.359L-0.643,2.359L-0.643,-0.997L0,-0.997L0,0Z" style="fill:white;fill-rule:nonzero;"/>
                    </g>
                </g>
            </g>
        </g>
        <g id="g7036" transform="matrix(1,0,0,-1,112.229,100.032)">
            <g id="g7034">
                <g id="g7032">
                    <g id="g8650">
                        <path id="path8652" d="M0,0C-0.021,-0.111 -0.05,-0.197 -0.085,-0.259C-0.121,-0.319 -0.163,-0.36 -0.213,-0.381C-0.262,-0.401 -0.314,-0.411 -0.371,-0.411C-0.439,-0.411 -0.5,-0.396 -0.552,-0.366C-0.604,-0.337 -0.647,-0.278 -0.682,-0.192C-0.716,-0.106 -0.741,0.015 -0.757,0.172C-0.773,0.328 -0.782,0.533 -0.782,0.787C-0.782,1.025 -0.776,1.227 -0.764,1.392C-0.752,1.556 -0.731,1.689 -0.701,1.791C-0.672,1.893 -0.631,1.966 -0.579,2.012C-0.526,2.057 -0.46,2.08 -0.38,2.08C-0.234,2.08 -0.134,2.024 -0.078,1.913C-0.023,1.802 0.004,1.624 0.004,1.38L0.647,1.38C0.647,1.502 0.639,1.633 0.622,1.772C0.606,1.911 0.565,2.041 0.5,2.162C0.435,2.283 0.335,2.382 0.203,2.461C0.07,2.539 -0.11,2.578 -0.34,2.578C-0.581,2.578 -0.772,2.535 -0.916,2.449C-1.059,2.362 -1.168,2.243 -1.244,2.089C-1.32,1.936 -1.369,1.752 -1.392,1.537C-1.414,1.322 -1.425,1.088 -1.425,0.834C-1.425,0.577 -1.414,0.343 -1.392,0.129C-1.369,-0.084 -1.32,-0.267 -1.244,-0.421C-1.168,-0.574 -1.059,-0.691 -0.916,-0.773C-0.772,-0.854 -0.581,-0.896 -0.34,-0.896C-0.129,-0.896 0.043,-0.86 0.176,-0.792C0.309,-0.723 0.411,-0.627 0.484,-0.505C0.557,-0.383 0.606,-0.24 0.634,-0.077C0.66,0.086 0.674,0.258 0.674,0.439L0.031,0.439C0.031,0.258 0.021,0.111 0,0" style="fill:white;fill-rule:nonzero;"/>
                    </g>
                </g>
            </g>
        </g>
        <g id="g7044" transform="matrix(1,0,0,-1,82.0632,89.5404)">
            <g id="g7042">
                <g id="g7040">
                    <g id="g8654">
                        <path id="path8656" d="M0,0C0.35,-0.055 0.614,-0.214 0.592,-0.356C0.569,-0.498 0.269,-0.568 -0.081,-0.513C-0.431,-0.458 -0.695,-0.299 -0.673,-0.157C-0.651,-0.015 -0.35,0.055 0,0M0.767,1.285C0.908,1.308 1.068,1.043 1.123,0.693C1.18,0.344 1.109,0.042 0.968,0.02C0.826,-0.002 0.666,0.263 0.61,0.612C0.555,0.961 0.625,1.263 0.767,1.285M0.775,-1.519C0.615,-1.834 0.381,-2.037 0.253,-1.972C0.125,-1.907 0.151,-1.599 0.312,-1.283C0.473,-0.968 0.706,-0.765 0.834,-0.83C0.962,-0.895 0.936,-1.203 0.775,-1.519M1.359,-0.746C1.46,-0.645 1.745,-0.765 1.996,-1.015C2.246,-1.265 2.367,-1.55 2.266,-1.651C2.164,-1.753 1.879,-1.632 1.629,-1.382C1.378,-1.133 1.258,-0.848 1.359,-0.746M1.894,0.302C2.209,0.462 2.518,0.489 2.583,0.362C2.647,0.234 2.445,0 2.13,-0.161C1.815,-0.322 1.507,-0.349 1.441,-0.221C1.377,-0.093 1.579,0.141 1.894,0.302M-0.766,-1.303C-0.664,-1.271 -0.558,-1.231 -0.449,-1.187C-0.549,-1.249 -0.644,-1.312 -0.729,-1.375C-1.364,-1.842 -1.319,-2.763 -1.319,-2.763C-1.319,-2.763 -1.324,-4.062 -1.325,-4.256C-1.325,-4.511 -1.306,-4.624 -1.139,-4.708C-0.971,-4.794 -0.868,-4.744 -0.662,-4.593C-0.506,-4.478 0.541,-3.708 0.541,-3.708C0.541,-3.708 1.312,-3.202 1.314,-2.414C1.315,-2.308 1.311,-2.194 1.302,-2.078C1.33,-2.191 1.361,-2.3 1.395,-2.401C1.643,-3.149 2.532,-3.391 2.532,-3.391C2.532,-3.391 3.766,-3.797 3.95,-3.858C4.193,-3.938 4.306,-3.954 4.438,-3.82C4.571,-3.687 4.556,-3.574 4.476,-3.332C4.415,-3.147 4.006,-1.914 4.006,-1.914C4.006,-1.914 3.763,-1.025 3.014,-0.778C2.913,-0.745 2.805,-0.715 2.691,-0.687C2.808,-0.695 2.921,-0.699 3.026,-0.699C3.814,-0.694 4.32,0.077 4.32,0.077C4.32,0.077 5.088,1.125 5.202,1.282C5.353,1.488 5.402,1.59 5.317,1.758C5.231,1.926 5.119,1.945 4.864,1.944C4.67,1.943 3.371,1.936 3.371,1.936C3.371,1.936 2.449,1.979 1.983,1.343C1.921,1.258 1.858,1.163 1.797,1.063C1.841,1.172 1.88,1.279 1.912,1.379C2.151,2.131 1.573,2.849 1.573,2.849C1.573,2.849 0.814,3.903 0.7,4.061C0.551,4.268 0.469,4.347 0.283,4.317C0.098,4.288 0.044,4.187 -0.033,3.944C-0.093,3.759 -0.487,2.521 -0.487,2.521C-0.487,2.521 -0.812,1.659 -0.352,1.019C-0.29,0.933 -0.22,0.844 -0.144,0.754C-0.233,0.83 -0.323,0.9 -0.409,0.962C-1.05,1.421 -1.911,1.094 -1.911,1.094C-1.911,1.094 -3.148,0.698 -3.333,0.638C-3.576,0.56 -3.677,0.506 -3.706,0.32C-3.735,0.135 -3.656,0.053 -3.449,-0.096C-3.291,-0.209 -2.236,-0.967 -2.236,-0.967C-2.236,-0.967 -1.517,-1.543 -0.766,-1.303" style="fill:white;fill-rule:nonzero;"/>
                    </g>
                </g>
            </g>
        </g>
        <g id="g7052" transform="matrix(1,0,0,-1,45.4758,98.1513)">
            <g id="g7050">
                <g id="g7048">
                    <g id="g8658">
                        <path id="path8660" d="M0,0L0,-0.709L3.284,0.046L3.284,0.896L0,1.651L0,0.966L2.429,0.478L2.429,0.464L0,0Z" style="fill:white;fill-rule:nonzero;"/>
                    </g>
                </g>
            </g>
        </g>
        <g id="g7060" transform="matrix(1,0,0,-1,36.6555,94.1787)">
            <g id="g7058">
                <g id="g7056">
                    <g id="g8662">
                        <path id="path8664" d="M0,0L0,-2.097L0.542,-2.097L0.542,-1.38L3.284,-1.38L3.284,-0.717L0.542,-0.717L0.542,0L0,0Z" style="fill:white;fill-rule:nonzero;"/>
                    </g>
                </g>
            </g>
        </g>
        <g id="g7068" transform="matrix(1,0,0,-1,40.1336,65.2118)">
            <g id="g7066">
                <g id="g7064">
                    <g id="g8666">
                        <path id="path8668" d="M0,0L0.324,1.509L0.334,1.509L0.658,0L0,0ZM0.748,2.092L-0.089,2.092L-0.978,-1.264L-0.272,-1.264L-0.118,-0.555L0.775,-0.555L0.931,-1.264L1.636,-1.264L0.748,2.092Z" style="fill:white;fill-rule:nonzero;"/>
                    </g>
                </g>
            </g>
        </g>
        <g id="g7076" transform="matrix(1,0,0,-1,75.2572,97.6308)">
            <g id="g7074">
                <g id="g7072">
                    <g id="g8670">
                        <path id="path8672" d="M0,0L0.011,0L0.391,-1.766L-0.379,-1.766L0,0ZM-0.517,-2.414L0.528,-2.414L0.709,-3.245L1.535,-3.245L0.495,0.682L-0.484,0.682L-1.523,-3.245L-0.698,-3.245L-0.517,-2.414Z" style="fill:white;fill-rule:nonzero;"/>
                    </g>
                </g>
            </g>
        </g>
        <g id="g7084" transform="matrix(1,0,0,-1,47.3919,63.5526)">
            <g id="g7082">
                <g id="g7080">
                    <g id="g8674">
                        <path id="path8676" d="M0,0C0.069,0 0.128,-0.018 0.176,-0.054C0.225,-0.09 0.265,-0.136 0.296,-0.19C0.328,-0.245 0.35,-0.306 0.364,-0.371C0.378,-0.437 0.386,-0.501 0.386,-0.564L1.034,-0.564C1.034,-0.223 0.953,0.04 0.79,0.223C0.627,0.407 0.36,0.498 -0.009,0.498C-0.226,0.498 -0.406,0.462 -0.55,0.39C-0.694,0.318 -0.81,0.211 -0.897,0.068C-0.985,-0.074 -1.047,-0.252 -1.083,-0.465C-1.119,-0.678 -1.137,-0.926 -1.137,-1.208C-1.137,-1.499 -1.125,-1.755 -1.1,-1.976C-1.075,-2.197 -1.025,-2.383 -0.952,-2.533C-0.878,-2.684 -0.776,-2.795 -0.646,-2.867C-0.516,-2.939 -0.348,-2.975 -0.141,-2.975C0.019,-2.975 0.156,-2.948 0.271,-2.893C0.385,-2.838 0.482,-2.745 0.564,-2.613L0.574,-2.613L0.574,-2.923L1.072,-2.923L1.072,-1.114L-0.023,-1.114L-0.023,-1.612L0.423,-1.612L0.423,-1.955C0.423,-2.046 0.409,-2.125 0.381,-2.192C0.353,-2.26 0.317,-2.315 0.275,-2.359C0.233,-2.403 0.187,-2.436 0.139,-2.458C0.09,-2.48 0.045,-2.491 0.005,-2.491C-0.092,-2.491 -0.171,-2.46 -0.232,-2.399C-0.293,-2.338 -0.341,-2.25 -0.374,-2.136C-0.406,-2.022 -0.429,-1.883 -0.442,-1.72C-0.454,-1.557 -0.46,-1.375 -0.46,-1.175C-0.46,-0.755 -0.424,-0.454 -0.353,-0.272C-0.28,-0.091 -0.163,0 0,0" style="fill:white;fill-rule:nonzero;"/>
                    </g>
                </g>
            </g>
        </g>
        <g id="g7092" transform="matrix(1,0,0,-1,38.0906,99.9835)">
            <g id="g7090">
                <g id="g7088">
                    <g id="g8678">
                        <path id="path8680" d="M0,0L-0.948,0L-0.948,0.312C-0.948,0.619 -0.796,0.772 -0.492,0.772C-0.314,0.772 -0.188,0.729 -0.113,0.644C-0.038,0.558 0,0.436 0,0.275L0,0ZM1.849,0L0.46,0L0.46,0.354C0.46,0.492 0.497,0.59 0.57,0.648C0.644,0.707 0.745,0.739 0.874,0.745L1.504,0.764C1.568,0.767 1.631,0.772 1.69,0.782C1.75,0.791 1.803,0.812 1.849,0.847L1.849,1.563L1.821,1.563C1.788,1.502 1.725,1.463 1.633,1.444C1.541,1.432 1.408,1.423 1.233,1.417C1.144,1.413 1.063,1.41 0.991,1.407C0.919,1.404 0.853,1.399 0.791,1.394C0.607,1.375 0.474,1.328 0.391,1.251C0.308,1.175 0.254,1.053 0.23,0.888L0.221,0.888C0.181,1.074 0.091,1.213 -0.048,1.302C-0.188,1.391 -0.368,1.435 -0.589,1.435C-0.874,1.435 -1.086,1.358 -1.226,1.205C-1.366,1.052 -1.435,0.837 -1.435,0.561L-1.435,-0.662L1.849,-0.662L1.849,0Z" style="fill:white;fill-rule:nonzero;"/>
                    </g>
                </g>
            </g>
        </g>
        <g id="g7100" transform="matrix(1,0,0,-1,41.2336,63.6747)">
            <g id="g7098">
                <g id="g7096">
                    <g id="g8682">
                        <path id="path8684" d="M0,0L0.733,0L0.733,-2.801L1.41,-2.801L1.41,0L2.143,0L2.143,0.555L0,0.555L0,0Z" style="fill:white;fill-rule:nonzero;"/>
                    </g>
                </g>
            </g>
        </g>
        <g id="g7108" transform="matrix(1,0,0,-1,37.5569,98.3877)">
            <g id="g7106">
                <g id="g7104">
                    <g id="g8686">
                        <path id="path8688" d="M0,0C0.135,0 0.254,0.017 0.356,0.051C0.459,0.084 0.55,0.137 0.628,0.209C0.706,0.281 0.774,0.371 0.833,0.479C0.891,0.585 0.945,0.713 0.994,0.86C1.03,0.971 1.066,1.063 1.102,1.139C1.137,1.213 1.176,1.274 1.219,1.32C1.262,1.366 1.31,1.398 1.364,1.419C1.417,1.438 1.481,1.449 1.555,1.449C1.693,1.449 1.795,1.408 1.861,1.327C1.927,1.245 1.959,1.154 1.959,1.053C1.959,0.967 1.947,0.896 1.923,0.839C1.898,0.782 1.865,0.737 1.822,0.703C1.779,0.67 1.726,0.646 1.663,0.635C1.6,0.622 1.53,0.616 1.454,0.616L1.357,0.616L1.357,-0.046L1.49,-0.046C1.794,-0.046 2.027,0.034 2.189,0.195C2.352,0.356 2.434,0.624 2.434,0.998C2.434,1.356 2.354,1.637 2.196,1.838C2.039,2.038 1.787,2.139 1.44,2.139C1.338,2.139 1.247,2.13 1.164,2.111C1.081,2.093 1.005,2.06 0.936,2.013C0.867,1.965 0.803,1.901 0.743,1.821C0.683,1.741 0.625,1.639 0.57,1.513L0.35,1.003C0.292,0.861 0.228,0.77 0.159,0.727C0.09,0.684 0.004,0.662 -0.097,0.662C-0.146,0.662 -0.193,0.667 -0.239,0.679C-0.285,0.688 -0.326,0.709 -0.361,0.738C-0.396,0.768 -0.425,0.807 -0.446,0.855C-0.468,0.904 -0.479,0.966 -0.479,1.039C-0.479,1.168 -0.436,1.26 -0.352,1.315C-0.268,1.37 -0.147,1.398 0.009,1.398L0.009,2.033L-0.083,2.033C-0.239,2.033 -0.374,2.008 -0.485,1.957C-0.597,1.906 -0.689,1.836 -0.761,1.745C-0.833,1.655 -0.885,1.548 -0.917,1.424C-0.95,1.299 -0.966,1.163 -0.966,1.017C-0.966,0.7 -0.886,0.452 -0.727,0.271C-0.567,0.09 -0.325,0 0,0" style="fill:white;fill-rule:nonzero;"/>
                    </g>
                </g>
            </g>
        </g>
        <g id="g7116" transform="matrix(1,0,0,-1,110.727,99.9122)">
            <g id="g7114">
                <g id="g7112">
                    <g id="g8690">
                        <path id="path8692" d="M0,0C0,0.104 -0.009,0.197 -0.026,0.282C-0.044,0.366 -0.076,0.444 -0.122,0.515C-0.169,0.585 -0.23,0.65 -0.308,0.712C-0.385,0.773 -0.485,0.832 -0.606,0.888L-1.103,1.114C-1.239,1.173 -1.329,1.238 -1.37,1.309C-1.412,1.379 -1.433,1.466 -1.433,1.569C-1.433,1.62 -1.428,1.668 -1.417,1.716C-1.407,1.763 -1.388,1.804 -1.359,1.84C-1.331,1.876 -1.293,1.905 -1.245,1.927C-1.198,1.949 -1.139,1.96 -1.066,1.96C-0.941,1.96 -0.853,1.917 -0.799,1.83C-0.745,1.744 -0.719,1.621 -0.719,1.462L-0.103,1.462L-0.103,1.556C-0.103,1.716 -0.127,1.853 -0.176,1.967C-0.226,2.081 -0.294,2.175 -0.382,2.249C-0.469,2.322 -0.573,2.376 -0.694,2.408C-0.814,2.441 -0.946,2.458 -1.089,2.458C-1.396,2.458 -1.637,2.376 -1.812,2.214C-1.988,2.051 -2.076,1.803 -2.076,1.471C-2.076,1.333 -2.06,1.212 -2.026,1.106C-1.994,1.002 -1.942,0.909 -1.873,0.829C-1.803,0.75 -1.716,0.68 -1.611,0.62C-1.508,0.561 -1.384,0.506 -1.241,0.456C-1.134,0.418 -1.044,0.381 -0.971,0.346C-0.897,0.31 -0.839,0.27 -0.794,0.226C-0.75,0.182 -0.718,0.132 -0.698,0.077C-0.679,0.022 -0.669,-0.042 -0.669,-0.117C-0.669,-0.259 -0.709,-0.363 -0.788,-0.43C-0.866,-0.498 -0.955,-0.531 -1.054,-0.531C-1.137,-0.531 -1.206,-0.519 -1.261,-0.493C-1.316,-0.469 -1.36,-0.435 -1.393,-0.391C-1.426,-0.347 -1.448,-0.292 -1.46,-0.229C-1.472,-0.164 -1.478,-0.093 -1.478,-0.015L-1.478,0.085L-2.12,0.085L-2.12,-0.052C-2.12,-0.362 -2.042,-0.601 -1.886,-0.767C-1.729,-0.933 -1.47,-1.016 -1.107,-1.016C-0.759,-1.016 -0.487,-0.935 -0.292,-0.773C-0.098,-0.612 0,-0.354 0,0" style="fill:white;fill-rule:nonzero;"/>
                    </g>
                </g>
            </g>
        </g>
        <g id="path8694" transform="matrix(1,0,0,-1,36.3805,107.174)">
            <rect x="52.015" y="0" width="3.969" height="2.412" style="fill:white;fill-rule:nonzero;"/>
        </g>
        <g id="path8696" transform="matrix(1,0,0,-1,36.3805,107.174)">
            <rect x="59.215" y="0" width="3.969" height="2.412" style="fill:white;fill-rule:nonzero;"/>
        </g>
        <g id="path8698" transform="matrix(1,0,0,-1,36.3805,107.174)">
            <rect x="44.816" y="0" width="3.969" height="2.412" style="fill:white;fill-rule:nonzero;"/>
        </g>
        <g id="path8700" transform="matrix(1,0,0,-1,36.3805,107.174)">
            <rect x="66.416" y="0" width="3.969" height="2.412" style="fill:white;fill-rule:nonzero;"/>
        </g>
        <g id="path8702" transform="matrix(1,0,0,-1,36.3805,107.174)">
            <rect x="37.616" y="0" width="3.968" height="2.412" style="fill:white;fill-rule:nonzero;"/>
        </g>
        <g id="path8704" transform="matrix(1,0,0,-1,36.3805,107.174)">
            <rect x="73.616" y="0" width="3.969" height="2.412" style="fill:white;fill-rule:nonzero;"/>
        </g>
        <g id="path8706" transform="matrix(1,0,0,-1,36.3805,107.174)">
            <rect x="88.015" y="0" width="3.969" height="2.412" style="fill:white;fill-rule:nonzero;"/>
        </g>
        <g id="path8708" transform="matrix(1,0,0,-1,36.3805,107.174)">
            <rect x="80.816" y="0" width="3.968" height="2.412" style="fill:white;fill-rule:nonzero;"/>
        </g>
        <g id="g7132" transform="matrix(1,0,0,-1,120.406,100.159)">
            <g id="g7130">
                <g id="g7128">
                    <g id="g8710">
                        <path id="path8712" d="M0,0C-0.033,0.099 -0.055,0.228 -0.066,0.386C-0.077,0.544 -0.083,0.735 -0.083,0.961C-0.083,1.187 -0.077,1.378 -0.066,1.535C-0.055,1.691 -0.033,1.82 0,1.92C0.032,2.021 0.08,2.093 0.141,2.139C0.202,2.184 0.282,2.207 0.383,2.207C0.483,2.207 0.563,2.184 0.625,2.139C0.686,2.093 0.733,2.021 0.766,1.92C0.799,1.82 0.82,1.691 0.832,1.535C0.843,1.378 0.848,1.187 0.848,0.961C0.848,0.735 0.843,0.544 0.832,0.386C0.82,0.228 0.799,0.099 0.766,0C0.733,-0.099 0.686,-0.171 0.625,-0.216C0.563,-0.262 0.483,-0.284 0.383,-0.284C0.282,-0.284 0.202,-0.262 0.141,-0.216C0.08,-0.171 0.032,-0.099 0,0M0.989,-0.646C1.14,-0.564 1.255,-0.447 1.335,-0.294C1.414,-0.14 1.466,0.043 1.489,0.256C1.513,0.47 1.524,0.704 1.524,0.961C1.524,1.215 1.513,1.449 1.489,1.664C1.466,1.879 1.414,2.063 1.335,2.216C1.255,2.37 1.14,2.489 0.989,2.576C0.839,2.662 0.637,2.705 0.383,2.705C0.129,2.705 -0.073,2.662 -0.224,2.576C-0.374,2.489 -0.489,2.37 -0.569,2.216C-0.648,2.063 -0.7,1.879 -0.724,1.664C-0.748,1.449 -0.76,1.215 -0.76,0.961C-0.76,0.704 -0.748,0.47 -0.724,0.256C-0.7,0.043 -0.648,-0.14 -0.569,-0.294C-0.489,-0.447 -0.374,-0.564 -0.224,-0.646C-0.073,-0.728 0.129,-0.769 0.383,-0.769C0.637,-0.769 0.839,-0.728 0.989,-0.646" style="fill:white;fill-rule:nonzero;"/>
                    </g>
                </g>
            </g>
        </g>
        <g id="g7140" transform="matrix(1,0,0,-1,124.458,98.1962)">
            <g id="g7138">
                <g id="g7136">
                    <g id="g8714">
                        <path id="path8716" d="M0,0L0.01,0L0.606,-2.68L1.133,-2.68L1.729,0L1.739,0L1.739,-2.68L2.359,-2.68L2.359,0.677L1.358,0.677L0.875,-1.692L0.865,-1.692L0.386,0.677L-0.62,0.677L-0.62,-2.68L0,-2.68L0,0Z" style="fill:white;fill-rule:nonzero;"/>
                    </g>
                </g>
            </g>
        </g>
        <g id="g7148" transform="matrix(1,0,0,-1,118.22,100.876)">
            <g id="g7146">
                <g id="g7144">
                    <g id="g8718">
                        <path id="path8720" d="M0,0L0.597,2.68L0.606,2.68L0.606,0L1.227,0L1.227,3.356L0.226,3.356L-0.258,0.987L-0.268,0.987L-0.747,3.356L-1.753,3.356L-1.753,0L-1.133,0L-1.133,2.68L-1.123,2.68L-0.526,0L0,0Z" style="fill:white;fill-rule:nonzero;"/>
                    </g>
                </g>
            </g>
        </g>
        <g id="path8722" transform="matrix(1,0,0,-1,36.3805,107.174)">
            <rect x="90.722" y="6.298" width="0.677" height="3.356" style="fill:white;fill-rule:nonzero;"/>
        </g>
        <g id="g7157" transform="matrix(1,0,0,-1,136.84,58.8651)">
            <g id="g7155">
                <g id="g7153">
                    <g id="g8724">
                        <path id="path8726" d="M0,0C-0.063,0.138 -0.137,0.272 -0.217,0.4C-0.25,0.454 -0.282,0.508 -0.318,0.559C-0.437,0.729 -0.566,0.891 -0.713,1.037L-0.713,1.038C-0.859,1.184 -1.021,1.312 -1.191,1.432C-1.242,1.468 -1.297,1.5 -1.35,1.533C-1.479,1.614 -1.611,1.687 -1.75,1.75C-1.809,1.778 -1.867,1.807 -1.928,1.831C-2.113,1.905 -2.305,1.967 -2.504,2.01C-2.516,2.012 -2.526,2.017 -2.537,2.019L-3.771,0.786L-0.965,-2.021L0.269,-0.787C0.267,-0.776 0.262,-0.766 0.26,-0.755C0.217,-0.556 0.154,-0.363 0.08,-0.178C0.057,-0.117 0.027,-0.059 0,0" style="fill:white;fill-rule:nonzero;"/>
                    </g>
                </g>
            </g>
        </g>
        <g id="path8732" transform="matrix(1,0,0,-1,36.3805,107.174)">
            <rect x="98.46" y="37.616" width="2.341" height="3.969" style="fill:white;fill-rule:nonzero;"/>
        </g>
        <g id="g7174" transform="matrix(1,0,0,-1,129.013,100.446)">
            <g id="g7172">
                <g id="g7170">
                    <g id="g8734">
                        <path id="path8736" d="M0,0L0.537,0.537C0.465,0.61 0.398,0.682 0.342,0.754C0.283,0.824 0.24,0.896 0.213,0.967C0.186,1.037 0.178,1.108 0.189,1.177C0.201,1.246 0.242,1.314 0.312,1.385C0.493,1.566 0.697,1.543 0.926,1.314C0.996,1.244 1.056,1.18 1.104,1.119C1.151,1.058 1.187,0.994 1.214,0.926C1.24,0.859 1.258,0.783 1.267,0.698C1.275,0.614 1.276,0.514 1.269,0.397L1.253,-0.038C1.245,-0.232 1.249,-0.414 1.265,-0.583C1.279,-0.752 1.311,-0.909 1.355,-1.056C1.401,-1.202 1.465,-1.34 1.547,-1.472C1.629,-1.604 1.73,-1.729 1.852,-1.851L3.547,-0.154L3.111,0.281L2.073,-0.758C2.035,-0.693 2.003,-0.602 1.979,-0.483C1.953,-0.366 1.945,-0.229 1.953,-0.07L1.977,0.529C1.984,0.678 1.982,0.811 1.971,0.932C1.959,1.053 1.935,1.165 1.898,1.268C1.861,1.371 1.813,1.47 1.753,1.562C1.691,1.654 1.617,1.744 1.529,1.832C1.287,2.072 1.035,2.191 0.771,2.187C0.506,2.181 0.234,2.039 -0.047,1.758C-0.342,1.463 -0.489,1.178 -0.49,0.902C-0.489,0.628 -0.361,0.361 -0.104,0.105L0,0Z" style="fill:white;fill-rule:nonzero;"/>
                    </g>
                </g>
            </g>
        </g>
        <g id="g7182" transform="matrix(1,0,0,-1,73.433,101.01)">
            <g id="g7180">
                <g id="g7178">
                    <g id="g8738">
                        <path id="path8740" d="M0,0C-0.205,0.159 -0.499,0.121 -0.656,-0.082C-0.81,-0.279 -0.939,-0.487 -1.052,-0.702C-1.166,-0.487 -1.295,-0.279 -1.449,-0.082C-1.606,0.121 -1.901,0.159 -2.105,0C-2.309,-0.158 -2.346,-0.452 -2.187,-0.656C-1.75,-1.218 -1.52,-1.878 -1.52,-2.563C-1.52,-3.25 -1.75,-3.91 -2.187,-4.472C-2.346,-4.676 -2.309,-4.97 -2.105,-5.128C-2.02,-5.194 -1.918,-5.227 -1.818,-5.227C-1.679,-5.227 -1.541,-5.164 -1.449,-5.046C-1.295,-4.849 -1.166,-4.641 -1.052,-4.426C-0.939,-4.641 -0.81,-4.849 -0.656,-5.046C-0.564,-5.164 -0.426,-5.227 -0.287,-5.227C-0.187,-5.227 -0.085,-5.194 0,-5.128C0.204,-4.97 0.241,-4.676 0.082,-4.472C-0.354,-3.91 -0.584,-3.25 -0.584,-2.563C-0.584,-1.877 -0.354,-1.218 0.082,-0.656C0.241,-0.452 0.204,-0.158 0,0" style="fill:white;fill-rule:nonzero;"/>
                    </g>
                </g>
            </g>
        </g>
        <g id="g7198" transform="matrix(1,0,0,-1,78.5282,106.138)">
            <g id="g7196">
                <g id="g7194">
                    <g id="g8746">
                        <path id="path8748" d="M0,0C0.085,-0.066 0.187,-0.099 0.287,-0.099C0.426,-0.099 0.564,-0.036 0.656,0.082C1.221,0.81 1.52,1.668 1.52,2.564C1.52,3.461 1.221,4.318 0.656,5.046C0.498,5.249 0.205,5.287 0,5.128C-0.204,4.97 -0.241,4.676 -0.082,4.472C0.354,3.91 0.584,3.251 0.584,2.564C0.584,1.878 0.354,1.218 -0.082,0.656C-0.241,0.452 -0.204,0.158 0,0" style="fill:white;fill-rule:nonzero;"/>
                    </g>
                </g>
            </g>
        </g>
        <g id="g7214" transform="matrix(1,0,0,-1,73.996,59.1854)">
            <g id="g7212">
                <g id="g7210">
                    <g id="g8754">
                        <path id="path8756" d="M0,0L3.969,0L3.969,2.412L0,2.412L0,0Z" style="fill:white;fill-rule:nonzero;"/>
                    </g>
                </g>
            </g>
        </g>
        <g id="g7238" transform="matrix(1,0,0,-1,66.7962,59.1854)">
            <g id="g7236">
                <g id="g7234">
                    <g id="g8766">
                        <path id="path8768" d="M0,0L3.968,0L3.968,2.412L0,2.412L0,0Z" style="fill:white;fill-rule:nonzero;"/>
                    </g>
                </g>
            </g>
        </g>
        <g id="g7246" transform="matrix(1,0,0,-1,70.0594,65.6878)">
            <g id="g7244">
                <g id="g7242">
                    <g id="g8770">
                        <path id="path8772" d="M0,0L0.44,0.407C0.55,0.506 0.644,0.602 0.72,0.696C0.797,0.789 0.86,0.886 0.907,0.984C0.955,1.083 0.99,1.187 1.012,1.295C1.034,1.403 1.045,1.52 1.045,1.645C1.045,1.985 0.949,2.248 0.759,2.431C0.568,2.614 0.275,2.706 -0.121,2.706C-0.539,2.706 -0.845,2.609 -1.04,2.415C-1.234,2.22 -1.331,1.941 -1.331,1.579L-1.331,1.43L-0.572,1.43C-0.572,1.533 -0.567,1.63 -0.559,1.722C-0.549,1.813 -0.529,1.894 -0.498,1.963C-0.467,2.033 -0.423,2.088 -0.366,2.128C-0.309,2.169 -0.231,2.189 -0.132,2.189C0.125,2.189 0.253,2.028 0.253,1.705C0.253,1.606 0.248,1.518 0.239,1.441C0.23,1.364 0.21,1.292 0.181,1.227C0.152,1.161 0.111,1.095 0.058,1.028C0.004,0.962 -0.066,0.891 -0.154,0.814L-0.473,0.517C-0.616,0.385 -0.742,0.254 -0.85,0.124C-0.958,-0.006 -1.048,-0.139 -1.12,-0.275C-1.191,-0.411 -1.244,-0.554 -1.279,-0.704C-1.314,-0.854 -1.331,-1.016 -1.331,-1.188L1.067,-1.188L1.067,-0.572L-0.402,-0.572C-0.383,-0.499 -0.341,-0.412 -0.275,-0.311C-0.209,-0.21 -0.118,-0.106 0,0" style="fill:white;fill-rule:nonzero;"/>
                    </g>
                </g>
            </g>
        </g>
        <g id="g7254" transform="matrix(1,0,0,-1,75.6727,66.8758)">
            <g id="g7252">
                <g id="g7250">
                    <g id="g8774">
                        <path id="path8776" d="M0,0L0,3.894L-0.583,3.894C-0.624,3.674 -0.72,3.515 -0.872,3.416C-1.024,3.316 -1.232,3.267 -1.496,3.267L-1.567,3.267L-1.567,2.75L-0.792,2.75L-0.792,0L0,0Z" style="fill:white;fill-rule:nonzero;"/>
                    </g>
                </g>
            </g>
        </g>
        <g id="g7270" transform="matrix(1,0,0,-1,90.9018,64.8353)">
            <g id="g7268">
                <g id="g7266">
                    <g id="g8782">
                        <path id="path8784" d="M0,0C-0.066,-0.114 -0.178,-0.17 -0.336,-0.17C-0.49,-0.17 -0.6,-0.114 -0.666,0C-0.731,0.114 -0.765,0.302 -0.765,0.566C-0.765,0.676 -0.76,0.778 -0.751,0.872C-0.742,0.965 -0.723,1.047 -0.693,1.117C-0.664,1.186 -0.621,1.24 -0.564,1.279C-0.507,1.317 -0.432,1.336 -0.336,1.336C-0.244,1.336 -0.17,1.317 -0.113,1.279C-0.057,1.24 -0.013,1.187 0.019,1.119C0.05,1.051 0.071,0.97 0.082,0.875C0.093,0.779 0.099,0.676 0.099,0.566C0.099,0.302 0.065,0.114 0,0M0.756,-1.458C0.839,-1.26 0.888,-1.031 0.904,-0.773C0.921,-0.514 0.93,-0.246 0.93,0.033C0.93,0.271 0.916,0.5 0.891,0.721C0.865,0.94 0.809,1.134 0.723,1.301C0.637,1.467 0.513,1.602 0.352,1.702C0.19,1.803 -0.026,1.854 -0.297,1.854C-0.737,1.854 -1.058,1.734 -1.257,1.496C-1.457,1.258 -1.557,0.913 -1.557,0.462C-1.557,0.286 -1.539,0.124 -1.505,-0.025C-1.47,-0.173 -1.415,-0.302 -1.34,-0.41C-1.265,-0.518 -1.166,-0.602 -1.045,-0.663C-0.924,-0.723 -0.777,-0.753 -0.605,-0.753C-0.43,-0.753 -0.28,-0.723 -0.157,-0.663C-0.034,-0.602 0.061,-0.522 0.126,-0.423L0.138,-0.423L0.138,-0.61C0.138,-0.753 0.132,-0.886 0.121,-1.006C0.109,-1.127 0.087,-1.232 0.052,-1.32C0.017,-1.408 -0.031,-1.477 -0.094,-1.526C-0.156,-1.576 -0.24,-1.601 -0.347,-1.601C-0.479,-1.601 -0.571,-1.559 -0.625,-1.477C-0.678,-1.394 -0.704,-1.28 -0.704,-1.133L-1.463,-1.133C-1.46,-1.32 -1.428,-1.477 -1.367,-1.604C-1.307,-1.73 -1.227,-1.831 -1.128,-1.906C-1.028,-1.981 -0.914,-2.032 -0.784,-2.06C-0.654,-2.087 -0.52,-2.101 -0.38,-2.101C-0.061,-2.101 0.187,-2.043 0.365,-1.928C0.543,-1.812 0.674,-1.656 0.756,-1.458" style="fill:white;fill-rule:nonzero;"/>
                    </g>
                </g>
            </g>
        </g>
        <g id="g7278" transform="matrix(1,0,0,-1,66.7113,63.6087)">
            <g id="g7276">
                <g id="g7274">
                    <g id="g8786">
                        <path id="path8788" d="M0,0L0,-0.517L0.775,-0.517L0.775,-3.267L1.567,-3.267L1.567,0.627L0.984,0.627C0.944,0.407 0.848,0.248 0.696,0.148C0.543,0.049 0.335,0 0.071,0L0,0Z" style="fill:white;fill-rule:nonzero;"/>
                    </g>
                </g>
            </g>
        </g>
        <g id="g7302" transform="matrix(1,0,0,-1,77.7587,66.8758)">
            <g id="g7300">
                <g id="g7298">
                    <g id="g8798">
                        <path id="path8800" d="M0,0L0,3.894L-0.583,3.894C-0.624,3.674 -0.72,3.515 -0.872,3.416C-1.024,3.316 -1.232,3.267 -1.496,3.267L-1.567,3.267L-1.567,2.75L-0.792,2.75L-0.792,0L0,0Z" style="fill:white;fill-rule:nonzero;"/>
                    </g>
                </g>
            </g>
        </g>
        <g id="g7318" transform="matrix(1,0,0,-1,61.1234,98.5556)">
            <g id="g7316">
                <g id="g7314">
                    <g id="g8806">
                        <path id="path8808" d="M0,0L0,-2.32L0.468,-2.32L0.468,-1.29L1.014,-1.29L1.014,-2.32L1.482,-2.32L1.482,0L1.014,0L1.014,-0.887L0.468,-0.887L0.468,0L0,0Z" style="fill:white;fill-rule:nonzero;"/>
                    </g>
                </g>
            </g>
        </g>
        <g id="g7326" transform="matrix(1,0,0,-1,58.7836,97.5195)">
            <g id="g7324">
                <g id="g7322">
                    <g id="g8810">
                        <path id="path8812" d="M0,0L0.771,-3.356L1.64,-3.356L2.411,0L1.711,0L1.212,-2.482L1.198,-2.482L0.724,0L0,0Z" style="fill:white;fill-rule:nonzero;"/>
                    </g>
                </g>
            </g>
        </g>
        <g id="g7334" transform="matrix(1,0,0,-1,57.1028,65.7694)">
            <g id="g7332">
                <g id="g7330">
                    <g id="g8814">
                        <path id="path8816" d="M0,0C-0.1,-0.072 -0.232,-0.108 -0.395,-0.108L-0.658,-0.108L-0.658,0.902L-0.367,0.902C-0.292,0.902 -0.223,0.895 -0.16,0.879C-0.097,0.863 -0.043,0.835 0.002,0.796C0.048,0.757 0.084,0.706 0.11,0.642C0.137,0.577 0.15,0.497 0.15,0.399C0.15,0.205 0.1,0.072 0,0M-0.658,2.251L-0.414,2.251C-0.245,2.251 -0.121,2.218 -0.042,2.152C0.036,2.086 0.075,1.974 0.075,1.814C0.075,1.654 0.032,1.541 -0.054,1.473C-0.14,1.406 -0.277,1.372 -0.465,1.372L-0.658,1.372L-0.658,2.251ZM0.627,-0.312C0.71,-0.224 0.769,-0.119 0.804,0C0.838,0.119 0.855,0.244 0.855,0.376C0.855,0.602 0.8,0.782 0.691,0.917C0.581,1.051 0.433,1.131 0.244,1.156L0.244,1.166C0.414,1.212 0.541,1.301 0.625,1.431C0.709,1.561 0.752,1.717 0.752,1.898C0.752,2.059 0.729,2.193 0.682,2.303C0.634,2.413 0.569,2.5 0.484,2.566C0.399,2.632 0.298,2.679 0.181,2.707C0.063,2.735 -0.064,2.75 -0.202,2.75L-1.335,2.75L-1.335,-0.606L-0.193,-0.606C0.005,-0.606 0.17,-0.58 0.303,-0.526C0.436,-0.473 0.544,-0.402 0.627,-0.312" style="fill:white;fill-rule:nonzero;"/>
                    </g>
                </g>
            </g>
        </g>
        <g id="g7342" transform="matrix(1,0,0,-1,53.219,65.8895)">
            <g id="g7340">
                <g id="g7338">
                    <g id="g8818">
                        <path id="path8820" d="M0,0C0.06,0.14 0.089,0.316 0.089,0.529L0.089,2.87L-0.587,2.87L-0.587,0.529C-0.587,0.444 -0.593,0.367 -0.604,0.296C-0.615,0.226 -0.635,0.165 -0.665,0.113C-0.695,0.061 -0.735,0.021 -0.785,-0.009C-0.835,-0.039 -0.901,-0.054 -0.982,-0.054C-1.061,-0.054 -1.125,-0.039 -1.177,-0.009C-1.229,0.021 -1.27,0.061 -1.299,0.113C-1.33,0.165 -1.35,0.226 -1.361,0.296C-1.372,0.367 -1.377,0.444 -1.377,0.529L-1.377,2.87L-2.054,2.87L-2.054,0.529C-2.054,0.303 -2.024,0.12 -1.964,-0.021C-1.905,-0.162 -1.825,-0.271 -1.725,-0.348C-1.625,-0.424 -1.51,-0.476 -1.382,-0.5C-1.253,-0.525 -1.12,-0.538 -0.982,-0.538C-0.844,-0.538 -0.711,-0.524 -0.583,-0.496C-0.454,-0.467 -0.34,-0.413 -0.24,-0.331C-0.14,-0.25 -0.06,-0.139 0,0" style="fill:white;fill-rule:nonzero;"/>
                    </g>
                </g>
            </g>
        </g>
        <g id="g7350" transform="matrix(1,0,0,-1,57.302,98.9385)">
            <g id="g7348">
                <g id="g7346">
                    <g id="g8822">
                        <path id="path8824" d="M0,0L0,0.383L-1.297,0.383L-1.297,-1.937L-0.829,-1.937L-0.829,-0.93L-0.049,-0.93L-0.049,-0.546L-0.829,-0.546L-0.829,0L0,0Z" style="fill:white;fill-rule:nonzero;"/>
                    </g>
                </g>
            </g>
        </g>
        <g id="g7358" transform="matrix(1,0,0,-1,51.2542,99.6114)">
            <g id="g7356">
                <g id="g7354">
                    <g id="g8826">
                        <path id="path8828" d="M0,0L0.324,1.509L0.334,1.509L0.658,0L0,0ZM-0.089,2.092L-0.978,-1.265L-0.272,-1.265L-0.118,-0.555L0.775,-0.555L0.931,-1.265L1.636,-1.265L0.748,2.092L-0.089,2.092Z" style="fill:white;fill-rule:nonzero;"/>
                    </g>
                </g>
            </g>
        </g>
        <g id="g7366" transform="matrix(1,0,0,-1,68.0389,97.6308)">
            <g id="g7364">
                <g id="g7362">
                    <g id="g8830">
                        <path id="path8832" d="M0,0L0.011,0L0.391,-1.766L-0.379,-1.766L0,0ZM-0.698,-3.245L-0.517,-2.414L0.528,-2.414L0.709,-3.245L1.535,-3.245L0.495,0.682L-0.484,0.682L-1.523,-3.245L-0.698,-3.245Z" style="fill:white;fill-rule:nonzero;"/>
                    </g>
                </g>
            </g>
        </g>
        <g id="g7374" transform="matrix(1,0,0,-1,55.9109,100.492)">
            <g id="g7372">
                <g id="g7370">
                    <g id="g8834">
                        <path id="path8836" d="M0,0L-0.861,0L-0.861,0.624L-0.081,0.624L-0.081,1.008L-0.861,1.008L-0.861,1.554L-0.032,1.554L-0.032,1.937L-1.329,1.937L-1.329,-0.384L0,-0.384L0,0Z" style="fill:white;fill-rule:nonzero;"/>
                    </g>
                </g>
            </g>
        </g>
        <g id="g7382" transform="matrix(1,0,0,-1,53.3884,98.8995)">
            <g id="g7380">
                <g id="g7378">
                    <g id="g8838">
                        <path id="path8840" d="M0,0L0.221,0C0.438,0 0.546,-0.107 0.546,-0.322C0.546,-0.447 0.516,-0.537 0.455,-0.59C0.395,-0.644 0.308,-0.67 0.195,-0.67L0,-0.67L0,0ZM0,-0.995L0.25,-0.995C0.348,-0.995 0.417,-1.021 0.458,-1.073C0.5,-1.125 0.522,-1.196 0.527,-1.287L0.54,-1.732C0.542,-1.778 0.546,-1.822 0.553,-1.864C0.559,-1.906 0.574,-1.943 0.598,-1.977L1.105,-1.977L1.105,-1.957C1.062,-1.933 1.034,-1.889 1.021,-1.823C1.012,-1.759 1.005,-1.664 1.001,-1.541C0.999,-1.478 0.997,-1.421 0.995,-1.37C0.993,-1.319 0.989,-1.272 0.985,-1.229C0.972,-1.099 0.938,-1.005 0.884,-0.946C0.83,-0.888 0.744,-0.85 0.627,-0.832L0.627,-0.826C0.759,-0.798 0.857,-0.734 0.92,-0.636C0.983,-0.537 1.014,-0.41 1.014,-0.254C1.014,-0.053 0.96,0.098 0.852,0.196C0.743,0.295 0.592,0.344 0.396,0.344L-0.468,0.344L-0.468,-1.977L0,-1.977L0,-0.995Z" style="fill:white;fill-rule:nonzero;"/>
                    </g>
                </g>
            </g>
        </g>
        <g id="g7390" transform="matrix(1,0,0,-1,54.4768,66.4276)">
            <g id="g7388">
                <g id="g7386">
                    <g id="g8842">
                        <path id="path8844" d="M0,0C0.367,0 0.652,0.081 0.857,0.242C1.063,0.403 1.166,0.661 1.166,1.015C1.166,1.119 1.156,1.213 1.137,1.297C1.119,1.382 1.085,1.459 1.036,1.53C0.988,1.601 0.923,1.666 0.841,1.728C0.76,1.789 0.655,1.847 0.526,1.903L0.004,2.129C-0.14,2.188 -0.233,2.254 -0.277,2.324C-0.321,2.395 -0.343,2.481 -0.343,2.585C-0.343,2.635 -0.338,2.684 -0.327,2.731C-0.316,2.778 -0.295,2.819 -0.266,2.855C-0.236,2.891 -0.196,2.92 -0.146,2.942C-0.096,2.964 -0.033,2.975 0.042,2.975C0.174,2.975 0.268,2.932 0.324,2.846C0.38,2.76 0.409,2.637 0.409,2.477L1.058,2.477L1.058,2.571C1.058,2.731 1.032,2.868 0.98,2.982C0.928,3.097 0.856,3.19 0.764,3.264C0.671,3.338 0.562,3.391 0.435,3.424C0.308,3.457 0.169,3.473 0.019,3.473C-0.304,3.473 -0.558,3.392 -0.743,3.229C-0.928,3.066 -1.02,2.818 -1.02,2.486C-1.02,2.349 -1.003,2.227 -0.968,2.122C-0.934,2.017 -0.88,1.925 -0.806,1.845C-0.732,1.765 -0.641,1.695 -0.531,1.636C-0.421,1.576 -0.292,1.521 -0.141,1.471C-0.028,1.434 0.066,1.396 0.143,1.361C0.22,1.325 0.282,1.285 0.329,1.241C0.376,1.197 0.41,1.147 0.43,1.093C0.45,1.038 0.46,0.973 0.46,0.898C0.46,0.757 0.419,0.652 0.336,0.585C0.253,0.518 0.16,0.484 0.056,0.484C-0.031,0.484 -0.104,0.497 -0.162,0.522C-0.22,0.547 -0.267,0.581 -0.301,0.625C-0.335,0.669 -0.359,0.723 -0.372,0.787C-0.384,0.852 -0.39,0.923 -0.39,1.001L-0.39,1.1L-1.067,1.1L-1.067,0.963C-1.067,0.653 -0.985,0.415 -0.82,0.249C-0.656,0.083 -0.382,0 0,0" style="fill:white;fill-rule:nonzero;"/>
                    </g>
                </g>
            </g>
        </g>
        <g id="g7398" transform="matrix(1,0,0,-1,63.5243,65.7792)">
            <g id="g7396">
                <g id="g7394">
                    <g id="g8846">
                        <path id="path8848" d="M0,0C0.028,0.119 0.042,0.235 0.042,0.348C0.042,0.558 -0.002,0.732 -0.092,0.872C-0.181,1.011 -0.333,1.099 -0.55,1.133L-0.55,1.142C-0.39,1.177 -0.266,1.257 -0.176,1.384C-0.087,1.511 -0.042,1.675 -0.042,1.875C-0.042,2.17 -0.126,2.386 -0.293,2.524C-0.461,2.662 -0.697,2.731 -1.001,2.731C-1.321,2.731 -1.563,2.65 -1.729,2.489C-1.896,2.328 -1.979,2.081 -1.979,1.749L-1.358,1.749C-1.358,1.827 -1.354,1.899 -1.347,1.965C-1.339,2.031 -1.322,2.088 -1.297,2.136C-1.272,2.185 -1.237,2.223 -1.191,2.249C-1.146,2.276 -1.087,2.289 -1.015,2.289C-0.905,2.289 -0.824,2.256 -0.771,2.19C-0.717,2.125 -0.691,2.012 -0.691,1.852C-0.691,1.783 -0.698,1.717 -0.712,1.655C-0.726,1.592 -0.748,1.536 -0.778,1.488C-0.808,1.439 -0.847,1.4 -0.896,1.37C-0.944,1.34 -1.004,1.326 -1.076,1.326L-1.297,1.326L-1.297,0.884L-1.071,0.884C-0.978,0.884 -0.902,0.868 -0.846,0.837C-0.79,0.806 -0.746,0.763 -0.714,0.71C-0.683,0.657 -0.662,0.596 -0.651,0.529C-0.64,0.461 -0.634,0.39 -0.634,0.315C-0.634,0.243 -0.638,0.174 -0.646,0.108C-0.654,0.042 -0.671,-0.015 -0.698,-0.063C-0.725,-0.112 -0.762,-0.15 -0.811,-0.178C-0.859,-0.207 -0.924,-0.221 -1.006,-0.221C-1.153,-0.221 -1.251,-0.17 -1.299,-0.068C-1.348,0.034 -1.374,0.182 -1.377,0.376L-2.025,0.376L-2.025,0.362C-2.025,0.04 -1.946,-0.21 -1.786,-0.385C-1.626,-0.561 -1.385,-0.648 -1.062,-0.648C-0.83,-0.648 -0.643,-0.619 -0.5,-0.559C-0.358,-0.5 -0.246,-0.421 -0.165,-0.324C-0.083,-0.227 -0.028,-0.119 0,0" style="fill:white;fill-rule:nonzero;"/>
                    </g>
                </g>
            </g>
        </g>
        <g id="g7406" transform="matrix(1,0,0,-1,66.2323,101.01)">
            <g id="g7404">
                <g id="g7402">
                    <g id="g8850">
                        <path id="path8852" d="M0,0C-0.204,0.159 -0.498,0.121 -0.656,-0.082C-1.221,-0.811 -1.52,-1.668 -1.52,-2.563C-1.52,-3.46 -1.221,-4.317 -0.656,-5.046C-0.564,-5.164 -0.426,-5.227 -0.286,-5.227C-0.186,-5.227 -0.085,-5.194 0,-5.128C0.204,-4.97 0.241,-4.676 0.083,-4.472C-0.354,-3.91 -0.584,-3.25 -0.584,-2.563C-0.584,-1.878 -0.354,-1.218 0.083,-0.656C0.241,-0.452 0.204,-0.158 0,0" style="fill:white;fill-rule:nonzero;"/>
                    </g>
                </g>
            </g>
        </g>
        <g id="g7414" transform="matrix(1,0,0,-1,63.5648,56.7733)">
            <g id="g7412">
                <g id="g7410">
                    <g id="g8854">
                        <path id="path8856" d="M0,0L-3.969,0L-3.969,-2.412L0,-2.412L0,0Z" style="fill:white;fill-rule:nonzero;"/>
                    </g>
                </g>
            </g>
        </g>
        <g id="g7430" transform="matrix(1,0,0,-1,60.4574,63.4574)">
            <g id="g7428">
                <g id="g7426">
                    <g id="g8862">
                        <path id="path8864" d="M0,0C-0.13,-0.084 -0.308,-0.126 -0.533,-0.126L-0.594,-0.126L-0.594,-0.568L0.068,-0.568L0.068,-2.918L0.745,-2.918L0.745,0.409L0.247,0.409C0.212,0.221 0.13,0.085 0,0" style="fill:white;fill-rule:nonzero;"/>
                    </g>
                </g>
            </g>
        </g>
        <g id="path8866" transform="matrix(1,0,0,-1,36.3805,107.174)">
            <rect x="26.417" y="6.298" width="0.468" height="2.32" style="fill:white;fill-rule:nonzero;"/>
        </g>
        <g id="g7439" transform="matrix(1,0,0,-1,48.8108,99.8409)">
            <g id="g7437">
                <g id="g7435">
                    <g id="g8868">
                        <path id="path8870" d="M0,0C0,0.227 -0.029,0.41 -0.087,0.55C-0.146,0.689 -0.223,0.799 -0.317,0.879C-0.413,0.958 -0.519,1.012 -0.635,1.039C-0.751,1.067 -0.865,1.081 -0.976,1.081C-1.181,1.081 -1.352,1.037 -1.488,0.95C-1.625,0.862 -1.71,0.713 -1.744,0.501L-1.753,0.501C-1.787,0.657 -1.866,0.779 -1.99,0.867C-2.114,0.954 -2.274,0.998 -2.47,0.998C-2.759,0.998 -2.97,0.916 -3.105,0.752C-3.24,0.588 -3.308,0.357 -3.308,0.06C-3.308,-0.253 -3.229,-0.491 -3.071,-0.653C-2.913,-0.816 -2.671,-0.897 -2.346,-0.897L-2.346,-0.29C-2.423,-0.29 -2.493,-0.286 -2.558,-0.278C-2.622,-0.271 -2.678,-0.255 -2.726,-0.23C-2.773,-0.206 -2.81,-0.171 -2.836,-0.127C-2.862,-0.082 -2.875,-0.024 -2.875,0.046C-2.875,0.153 -2.843,0.232 -2.779,0.285C-2.714,0.337 -2.604,0.363 -2.447,0.363C-2.38,0.363 -2.315,0.356 -2.254,0.343C-2.193,0.329 -2.138,0.308 -2.091,0.278C-2.043,0.249 -2.005,0.211 -1.976,0.163C-1.947,0.115 -1.932,0.057 -1.932,-0.014L-1.932,-0.23L-1.5,-0.23L-1.5,-0.01C-1.5,0.083 -1.484,0.156 -1.454,0.212C-1.423,0.267 -1.382,0.31 -1.33,0.34C-1.277,0.371 -1.218,0.392 -1.152,0.402C-1.086,0.413 -1.017,0.418 -0.943,0.418C-0.873,0.418 -0.805,0.415 -0.741,0.407C-0.676,0.399 -0.621,0.383 -0.573,0.356C-0.525,0.33 -0.488,0.293 -0.46,0.246C-0.433,0.198 -0.419,0.135 -0.419,0.055C-0.419,-0.089 -0.469,-0.185 -0.568,-0.232C-0.668,-0.28 -0.813,-0.306 -1.003,-0.309L-1.003,-0.943L-0.989,-0.943C-0.673,-0.943 -0.43,-0.865 -0.258,-0.709C-0.086,-0.552 0,-0.316 0,0" style="fill:white;fill-rule:nonzero;"/>
                    </g>
                </g>
            </g>
        </g>
    </g>
    <circle id="connector82pin" cx="12.804" cy="12.753" r="6.432" style="fill:none;stroke:rgb(154,145,108);stroke-width:3.25px;stroke-linecap:butt;"/>
    <circle id="connector83pin" cx="37.22" cy="12.753" r="6.432" style="fill:none;stroke:rgb(154,145,108);stroke-width:3.25px;stroke-linecap:butt;"/>
    <circle id="connector84pin" cx="61.635" cy="12.753" r="6.432" style="fill:none;stroke:rgb(154,145,108);stroke-width:3.25px;stroke-linecap:butt;"/>
    <circle id="connector85pin" cx="86.051" cy="12.753" r="6.432" style="fill:none;stroke:rgb(154,145,108);stroke-width:3.25px;stroke-linecap:butt;"/>
    <circle id="connector86pin" cx="110.467" cy="12.753" r="6.432" style="fill:none;stroke:rgb(154,145,108);stroke-width:3.25px;stroke-linecap:butt;"/>
    <circle id="connector87pin" cx="134.883" cy="12.753" r="6.432" style="fill:none;stroke:rgb(154,145,108);stroke-width:3.25px;stroke-linecap:butt;"/>
    <circle id="connector88pin" cx="159.299" cy="12.753" r="6.432" style="fill:none;stroke:rgb(154,145,108);stroke-width:3.25px;stroke-linecap:butt;"/>
    <circle id="connector89pin" cx="183.715" cy="12.753" r="6.432" style="fill:none;stroke:rgb(154,145,108);stroke-width:3.25px;stroke-linecap:butt;"/>
    <circle id="connector90pin" cx="208.131" cy="12.753" r="6.432" style="fill:none;stroke:rgb(154,145,108);stroke-width:3.25px;stroke-linecap:butt;"/>
    <circle id="connector91pin" cx="232.547" cy="12.753" r="6.432" style="fill:none;stroke:rgb(154,145,108);stroke-width:3.25px;stroke-linecap:butt;"/>
    <circle id="connector92pin" cx="256.962" cy="12.753" r="6.432" style="fill:none;stroke:rgb(154,145,108);stroke-width:3.25px;stroke-linecap:butt;"/>
    <circle id="connector93pin" cx="281.378" cy="12.753" r="6.432" style="fill:none;stroke:rgb(154,145,108);stroke-width:3.25px;stroke-linecap:butt;"/>
    <circle id="connector94pin" cx="305.794" cy="12.753" r="6.432" style="fill:none;stroke:rgb(154,145,108);stroke-width:3.25px;stroke-linecap:butt;"/>
    <circle id="connector95pin" cx="330.21" cy="12.753" r="6.432" style="fill:none;stroke:rgb(154,145,108);stroke-width:3.25px;stroke-linecap:butt;"/>
    <circle id="connector96pin" cx="330.21" cy="159.248" r="6.432" style="fill:none;stroke:rgb(154,145,108);stroke-width:3.25px;stroke-linecap:butt;"/>
    <circle id="connector97pin" cx="305.794" cy="159.248" r="6.432" style="fill:none;stroke:rgb(154,145,108);stroke-width:3.25px;stroke-linecap:butt;"/>
    <circle id="connector98pin" cx="281.378" cy="159.248" r="6.432" style="fill:none;stroke:rgb(154,145,108);stroke-width:3.25px;stroke-linecap:butt;"/>
    <circle id="connector99pin" cx="256.962" cy="159.248" r="6.432" style="fill:none;stroke:rgb(154,145,108);stroke-width:3.25px;stroke-linecap:butt;"/>
    <circle id="connector100pin" cx="232.547" cy="159.248" r="6.432" style="fill:none;stroke:rgb(154,145,108);stroke-width:3.25px;stroke-linecap:butt;"/>
    <circle id="connector101pin" cx="208.131" cy="159.248" r="6.432" style="fill:none;stroke:rgb(154,145,108);stroke-width:3.25px;stroke-linecap:butt;"/>
    <circle id="connector102pin" cx="183.715" cy="159.248" r="6.432" style="fill:none;stroke:rgb(154,145,108);stroke-width:3.25px;stroke-linecap:butt;"/>
    <circle id="connector103pin" cx="159.299" cy="159.248" r="6.432" style="fill:none;stroke:rgb(154,145,108);stroke-width:3.25px;stroke-linecap:butt;"/>
    <circle id="connector104pin" cx="134.883" cy="159.248" r="6.432" style="fill:none;stroke:rgb(154,145,108);stroke-width:3.25px;stroke-linecap:butt;"/>
    <circle id="connector105pin" cx="110.467" cy="159.248" r="6.432" style="fill:none;stroke:rgb(154,145,108);stroke-width:3.25px;stroke-linecap:butt;"/>
    <circle id="connector106pin" cx="86.051" cy="159.248" r="6.432" style="fill:none;stroke:rgb(154,145,108);stroke-width:3.25px;stroke-linecap:butt;"/>
    <circle id="connector107pin" cx="61.635" cy="159.248" r="6.432" style="fill:none;stroke:rgb(154,145,108);stroke-width:3.25px;stroke-linecap:butt;"/>
    <circle id="connector108pin" cx="37.22" cy="159.248" r="6.432" style="fill:none;stroke:rgb(154,145,108);stroke-width:3.25px;stroke-linecap:butt;"/>
    <circle id="connector109pin" cx="12.804" cy="159.248" r="6.432" style="fill:none;stroke:rgb(154,145,108);stroke-width:3.25px;stroke-linecap:butt;"/>
    <g transform="matrix(-2.07645e-16,3.3911,-3.3911,-2.07645e-16,161.965,-221.67)">
        <g id="g7500">
            <g id="g7498">
                <g id="g7496">
                    <g id="g5715">
                        <rect id="connector110pin" x="89.549" y="9.223" width="2.268" height="2.268" style="fill:rgb(154,145,108);"/>
                    </g>
                </g>
            </g>
        </g>
    </g>
    <g transform="matrix(-2.07645e-16,3.3911,-3.3911,-2.07645e-16,190.803,-221.67)">
        <g id="g7508">
            <g id="g7506">
                <g id="g7504">
                    <g id="g5718">
                        <rect id="connector111pin" x="89.549" y="13.475" width="2.268" height="2.268" style="fill:rgb(154,145,108);"/>
                    </g>
                </g>
            </g>
        </g>
    </g>
    <g id="g7616">
    </g>
    <g id="g7624">
    </g>
    <g id="g7632">
    </g>
    <g id="g7640">
    </g>
    <g id="g7648">
    </g>
    <g id="g7656" transform="matrix(0,3.3911,-3.3911,0,163.348,116.509)">
        <g id="g7654">
            <g id="g7652">
                <g id="g5776">
                    <path id="connector133pin" d="M8.961,40.741C8.961,40.51 8.774,40.323 8.543,40.323L6.544,40.323C6.314,40.323 6.126,40.51 6.126,40.741L6.126,42.739C6.126,42.97 6.314,43.157 6.544,43.157L8.543,43.157C8.774,43.157 8.961,42.97 8.961,42.739L8.961,40.741Z" style="fill:rgb(154,145,108);"/>
                </g>
            </g>
        </g>
    </g>
    <rect id="connector147pin" x="14.486" y="73.985" width="19.225" height="9.613" style="fill:rgb(154,145,108);"/>
    <rect id="connector148pin" x="14.486" y="88.404" width="19.225" height="9.613" style="fill:rgb(154,145,108);"/>
    <g id="g7714" transform="matrix(0,3.3911,-3.3911,0,136.229,31.4491)">
        <g id="g7712">
            <g id="g7710">
                <g id="g5804">
                    <rect id="connector149pin" x="15.52" y="23.287" width="1.134" height="3.827" style="fill:rgb(154,145,108);"/>
                </g>
            </g>
        </g>
    </g>
    <g id="g7722" transform="matrix(0,3.3911,-3.3911,0,129.981,25.2008)">
        <g id="g7720">
            <g id="g7718">
                <g id="g5807">
                    <rect id="connector150pin" x="15.52" y="21.444" width="1.134" height="3.827" style="fill:rgb(154,145,108);"/>
                </g>
            </g>
        </g>
    </g>
    <g id="g7730" transform="matrix(0,3.3911,-3.3911,0,148.725,43.9453)">
        <g id="g7728">
            <g id="g7726">
                <g id="g5810">
                    <rect id="connector151pin" x="15.52" y="26.972" width="1.134" height="3.827" style="fill:rgb(154,145,108);"/>
                </g>
            </g>
        </g>
    </g>
    <g id="g7738" transform="matrix(0,3.3911,-3.3911,0,142.477,37.6972)">
        <g id="g7736">
            <g id="g7734">
                <g id="g5813">
                    <rect id="connector152pin" x="15.52" y="25.129" width="1.134" height="3.827" style="fill:rgb(154,145,108);"/>
                </g>
            </g>
        </g>
    </g>
    <circle id="connector153pin" cx="51.975" cy="54.279" r="5.066" style="fill:none;stroke:rgb(154,145,108);stroke-width:2.44px;stroke-linecap:butt;"/>
    <path id="path5816" d="M46.909,44.147L57.041,44.147L57.041,59.345L46.909,59.345L46.909,44.147M46.909,54.279C46.909,57.058 49.196,59.345 51.975,59.345C54.754,59.345 57.041,57.058 57.041,54.279C57.041,51.5 54.754,49.213 51.975,49.213C49.196,49.213 46.909,51.5 46.909,54.279Z" style="fill:rgb(154,145,108);fill-rule:nonzero;"/>
    <circle id="connector154pin" cx="51.975" cy="117.722" r="5.066" style="fill:none;stroke:rgb(154,145,108);stroke-width:2.44px;stroke-linecap:butt;"/>
    <path id="path5819" d="M46.909,112.656L57.041,112.656L57.041,127.854L46.909,127.854L46.909,112.656M46.909,117.722C46.909,120.501 49.196,122.787 51.975,122.787C54.754,122.787 57.041,120.501 57.041,117.722C57.041,114.943 54.754,112.656 51.975,112.656C49.196,112.656 46.909,114.943 46.909,117.722Z" style="fill:rgb(154,145,108);fill-rule:nonzero;"/>
    <circle id="connector155pin" cx="25.06" cy="51.395" r="7.962" style="fill:none;stroke:rgb(154,145,108);stroke-width:7.27px;stroke-linecap:butt;"/>
    <rect id="rect5822" x="17.098" y="43.433" width="15.923" height="15.923" style="fill:none;stroke:rgb(154,145,108);stroke-width:7.27px;stroke-linecap:butt;"/>
    <circle id="connector156pin" cx="25.06" cy="120.605" r="7.962" style="fill:none;stroke:rgb(154,145,108);stroke-width:7.27px;stroke-linecap:butt;"/>
    <rect id="rect5825" x="17.098" y="112.644" width="15.923" height="15.923" style="fill:none;stroke:rgb(154,145,108);stroke-width:7.27px;stroke-linecap:butt;"/>
    <g id="g7754" transform="matrix(0,3.3911,-3.3911,0,123.733,18.9528)">
        <g id="g7752">
            <g id="g7750">
                <g id="g5828">
                    <rect id="connector157pin" x="15.52" y="19.602" width="1.134" height="3.827" style="fill:rgb(154,145,108);"/>
                </g>
            </g>
        </g>
    </g>
    <g id="g7917">
    </g>
    <g id="path5922" transform="matrix(6.12323e-17,-1,1,6.12323e-17,91.1812,389.585)">
        <path d="M299.893,49.58L299.893,36.168C299.893,35.625 300.333,35.184 300.876,35.184L306.6,35.184C307.143,35.184 307.584,35.625 307.584,36.168L307.584,49.58C307.584,50.122 307.143,50.563 306.6,50.563L300.879,50.563C300.333,50.563 299.893,50.122 299.893,49.58Z" style="fill:rgb(220,220,220);fill-rule:nonzero;"/>
    </g>
    <g id="path59221" serif:id="path5922" transform="matrix(6.84693e-16,-11.1819,7.15279,4.37982e-16,-46.6665,3480.36)">
        <path d="M299.893,49.58L299.893,36.168C299.893,35.625 300.333,35.184 300.876,35.184L306.6,35.184C307.143,35.184 307.584,35.625 307.584,36.168L307.584,49.58C307.584,50.122 307.143,50.563 306.6,50.563L300.879,50.563C300.333,50.563 299.893,50.122 299.893,49.58Z" style="fill:rgb(220,220,220);fill-rule:nonzero;"/>
    </g>
    <g transform="matrix(3.3911,2.07645e-16,-2.07645e-16,3.3911,130.209,78.1562)">
        <g id="LED">
            <g id="g7923">
                <g id="g7921">
                    <rect id="rect5924" x="0" y="1.134" width="2.268" height="2.268" style="fill:rgb(255,0,0);"/>
                </g>
            </g>
        </g>
    </g>
    <g id="g8036" transform="matrix(3.3911,0,0,3.3911,271.958,70.3606)">
        <g transform="matrix(1,4.44089e-16,-4.44089e-16,1,-59.2606,-7.47858)">
            <g id="g8034">
                <g id="g8032">
                    <g id="kmr2">
                        <g id="g8029">
                            <g id="g8027">
                                <g id="g8025">
                                    <g id="g5985">
                                        <g id="g5983">
                                            <path id="polygon5975" d="M0,7.228L1.417,7.228L1.417,8.504L11.339,8.504L11.339,7.228L12.756,7.228L12.756,5.811L11.339,5.811L11.339,2.692L12.756,2.692L12.756,1.275L11.339,1.275L11.339,0L1.417,0L1.417,1.275L0,1.275L0,2.692L1.417,2.692L1.417,5.811L0,5.811L0,7.228Z" style="fill:rgb(220,220,220);fill-rule:nonzero;"/>
                                            <circle id="circle5977" cx="6.378" cy="4.252" r="2.48" style="fill:rgb(30,30,30);"/>
                                            <rect id="rect5979" x="0.992" y="0" width="0.567" height="8.504" style="fill:rgb(180,180,180);"/>
                                            <rect id="rect5981" x="11.197" y="0" width="0.567" height="8.504" style="fill:rgb(180,180,180);"/>
                                        </g>
                                    </g>
                                </g>
                            </g>
                        </g>
                    </g>
                </g>
            </g>
        </g>
        <g transform="matrix(1,4.44089e-16,-4.44089e-16,1,-59.2606,8.15058)">
            <g id="g80341" serif:id="g8034">
                <g id="g80321" serif:id="g8032">
                    <g id="kmr21" serif:id="kmr2">
                        <g id="g80291" serif:id="g8029">
                            <g id="g80271" serif:id="g8027">
                                <g id="g80251" serif:id="g8025">
                                    <g id="g59851" serif:id="g5985">
                                        <g id="g59831" serif:id="g5983">
                                            <path id="polygon59751" serif:id="polygon5975" d="M0,7.228L1.417,7.228L1.417,8.504L11.339,8.504L11.339,7.228L12.756,7.228L12.756,5.811L11.339,5.811L11.339,2.692L12.756,2.692L12.756,1.275L11.339,1.275L11.339,0L1.417,0L1.417,1.275L0,1.275L0,2.692L1.417,2.692L1.417,5.811L0,5.811L0,7.228Z" style="fill:rgb(220,220,220);fill-rule:nonzero;"/>
                                            <circle id="circle59771" serif:id="circle5977" cx="6.378" cy="4.252" r="2.48" style="fill:rgb(30,30,30);"/>
                                            <rect id="rect59791" serif:id="rect5979" x="0.992" y="0" width="0.567" height="8.504" style="fill:rgb(180,180,180);"/>
                                            <rect id="rect59811" serif:id="rect5981" x="11.197" y="0" width="0.567" height="8.504" style="fill:rgb(180,180,180);"/>
                                        </g>
                                    </g>
                                </g>
                            </g>
                        </g>
                    </g>
                </g>
            </g>
        </g>
    </g>
    <g id="g8051">
    </g>
    <g transform="matrix(-1.2983e-15,3.3911,-3.3911,-1.2983e-15,56.9753,47.5505)">
        <g id="g8099">
            <g id="g8097">
                <g id="g8095">
                    <g id="_4uconn_20329_v2" serif:id="4uconn_20329_v2">
                        <g id="g8092">
                            <g id="g8090">
                                <g id="g8088">
                                    <g id="g6037">
                                        <g id="g6035">
                                            <rect id="rect6007" x="0" y="7.157" width="22.677" height="3.969" style="fill:rgb(180,180,180);"/>
                                            <rect id="rect6009" x="11.055" y="0" width="0.567" height="3.402" style="fill:rgb(220,220,220);"/>
                                            <rect id="rect6011" x="12.898" y="0" width="0.567" height="3.402" style="fill:rgb(220,220,220);"/>
                                            <rect id="rect6013" x="14.74" y="0" width="0.567" height="3.402" style="fill:rgb(220,220,220);"/>
                                            <rect id="rect6015" x="9.213" y="0" width="0.567" height="3.402" style="fill:rgb(220,220,220);"/>
                                            <rect id="rect6017" x="7.37" y="0" width="0.567" height="3.402" style="fill:rgb(220,220,220);"/>
                                            <rect id="rect6019" x="4.252" y="1.489" width="14.173" height="0.709" style="fill:rgb(180,180,180);"/>
                                            <rect id="rect6021" x="4.252" y="1.771" width="14.173" height="2.976"/>
                                            <path id="polygon6023" d="M5.669,1.347L0.567,1.347L0.567,14.953L22.11,14.953L22.11,1.347L17.008,1.347L17.008,3.473L14.74,3.473L14.74,4.182L13.323,4.182L13.323,1.63L9.354,1.63L9.354,4.182L7.937,4.182L7.937,3.473L5.669,3.473L5.669,1.347Z" style="fill:rgb(220,220,220);fill-rule:nonzero;"/>
                                            <path id="polygon6025" d="M5.527,7.867L5.811,12.119L3.827,12.119L4.11,7.867L5.527,7.867Z" style="fill-rule:nonzero;"/>
                                            <path id="polygon6027" d="M18.567,7.867L18.85,12.119L16.866,12.119L17.149,7.867L18.567,7.867Z" style="fill-rule:nonzero;"/>
                                            <path id="polygon6029" d="M21.543,14.953L20.976,16.654L1.701,16.653L1.134,14.953L21.543,14.953Z" style="fill:rgb(240,240,240);fill-rule:nonzero;"/>
                                            <path id="polygon6031" d="M1.134,14.953L0.567,16.653L0,16.653L0.567,14.953L1.134,14.953Z" style="fill:rgb(180,180,180);fill-rule:nonzero;"/>
                                            <path id="polygon6033" d="M22.11,14.953L22.677,16.654L22.11,16.654L21.543,14.953L22.11,14.953Z" style="fill:rgb(180,180,180);fill-rule:nonzero;"/>
                                        </g>
                                    </g>
                                </g>
                            </g>
                        </g>
                    </g>
                </g>
            </g>
        </g>
    </g>
</svg>
