<svg viewBox="0 0 343 172" xmlns="http://www.w3.org/2000/svg" xmlns:serif="http://www.serif.com/" fill-rule="evenodd" clip-rule="evenodd" stroke-linecap="round"><path d="M.596 110.416l4.883-4.883V64.026L.596 59.143v-46.39C.596 6.056 6.107.545 12.804.545h317.407c6.697 0 12.208 5.511 12.208 12.208v146.495c0 6.697-5.511 12.208-12.208 12.208H12.804c-6.697 0-12.208-5.511-12.208-12.208v-48.832m39.363-43.16a3.38 3.38 0 0 0 3.365 3.364 3.38 3.38 0 0 0 3.364-3.364 3.38 3.38 0 0 0-3.364-3.365 3.381 3.381 0 0 0-3.365 3.365zm0 37.489a3.38 3.38 0 0 0 3.365 3.364 3.38 3.38 0 0 0 3.364-3.364 3.38 3.38 0 0 0-3.364-3.364 3.38 3.38 0 0 0-3.365 3.364zm285.446 30.083v.008c0 2.636 2.169 4.806 4.806 4.806s4.806-2.17 4.806-4.806v-.008c0-2.636-2.169-4.806-4.806-4.806s-4.806 2.17-4.806 4.806zm0-24.415v.007c0 2.637 2.169 4.806 4.806 4.806s4.806-2.169 4.806-4.806v-.007c0-2.637-2.169-4.807-4.806-4.807s-4.806 2.17-4.806 4.807zm0-24.416v.007c0 2.637 2.169 4.806 4.806 4.806s4.806-2.169 4.806-4.806v-.007c0-2.637-2.169-4.807-4.806-4.807s-4.806 2.17-4.806 4.807zm0-24.416v.007c0 2.637 2.169 4.806 4.806 4.806s4.806-2.169 4.806-4.806v-.007c0-2.637-2.169-4.807-4.806-4.807s-4.806 2.17-4.806 4.807zm0-24.416v.007c0 2.637 2.169 4.806 4.806 4.806s4.806-2.169 4.806-4.806v-.007c0-2.637-2.169-4.806-4.806-4.806s-4.806 2.169-4.806 4.806zM7.998 12.753c0 2.636 2.169 4.806 4.806 4.806s4.806-2.17 4.806-4.806c0-2.637-2.169-4.807-4.806-4.807s-4.806 2.17-4.806 4.807zm24.415 0c0 2.636 2.17 4.806 4.807 4.806 2.636 0 4.806-2.17 4.806-4.806 0-2.637-2.17-4.807-4.806-4.807-2.637 0-4.807 2.17-4.807 4.807zm24.416 0c0 2.636 2.17 4.806 4.807 4.806 2.636 0 4.806-2.17 4.806-4.806 0-2.637-2.17-4.807-4.806-4.807-2.637 0-4.807 2.17-4.807 4.807zm24.416-.002v.004c0 2.636 2.17 4.806 4.806 4.806 2.637 0 4.807-2.17 4.807-4.806v-.004c0-2.637-2.17-4.807-4.807-4.807-2.636 0-4.806 2.17-4.806 4.807zm24.416-.002v.007c0 2.637 2.17 4.807 4.806 4.807 2.637 0 4.807-2.17 4.807-4.807v-.007c0-2.637-2.17-4.806-4.807-4.806-2.636 0-4.806 2.169-4.806 4.806zm24.416 0v.007c0 2.637 2.17 4.807 4.806 4.807 2.637 0 4.807-2.17 4.807-4.807v-.007c0-2.637-2.17-4.806-4.807-4.806-2.636 0-4.806 2.169-4.806 4.806zm24.416.004c0 2.636 2.169 4.806 4.806 4.806s4.806-2.17 4.806-4.806c0-2.637-2.169-4.807-4.806-4.807s-4.806 2.17-4.806 4.807zm24.416 0c0 2.636 2.169 4.806 4.806 4.806s4.806-2.17 4.806-4.806c0-2.637-2.169-4.807-4.806-4.807s-4.806 2.17-4.806 4.807zm24.416-.004v.007c0 2.637 2.169 4.807 4.806 4.807s4.806-2.17 4.806-4.807v-.007c0-2.637-2.169-4.806-4.806-4.806s-4.806 2.169-4.806 4.806zm24.416 0v.007c0 2.637 2.169 4.807 4.806 4.807 2.636 0 4.806-2.17 4.806-4.807v-.007c0-2.637-2.17-4.806-4.806-4.806-2.637 0-4.806 2.169-4.806 4.806zm24.416.004c0 2.636 2.17 4.806 4.806 4.806 2.637 0 4.807-2.17 4.807-4.806 0-2.637-2.17-4.807-4.807-4.807-2.636 0-4.806 2.17-4.806 4.807zm24.416-.004v.007c0 2.637 2.17 4.807 4.806 4.807 2.637 0 4.807-2.17 4.807-4.807v-.007c0-2.637-2.17-4.806-4.807-4.806-2.636 0-4.806 2.169-4.806 4.806zm24.416 0v.007c0 2.637 2.17 4.807 4.806 4.807 2.637 0 4.806-2.17 4.806-4.807v-.007c0-2.637-2.169-4.806-4.806-4.806-2.636 0-4.806 2.169-4.806 4.806zm24.416 0v.007c0 2.637 2.169 4.807 4.806 4.807s4.806-2.17 4.806-4.807v-.007c0-2.637-2.169-4.806-4.806-4.806s-4.806 2.169-4.806 4.806zm0 146.495v.008c0 2.636 2.169 4.806 4.806 4.806s4.806-2.17 4.806-4.806v-.008c0-2.636-2.169-4.806-4.806-4.806s-4.806 2.17-4.806 4.806zm-24.416 0v.008c0 2.636 2.17 4.806 4.806 4.806 2.637 0 4.806-2.17 4.806-4.806v-.008c0-2.636-2.169-4.806-4.806-4.806-2.636 0-4.806 2.17-4.806 4.806zm-24.416 0v.008c0 2.636 2.17 4.806 4.806 4.806 2.637 0 4.807-2.17 4.807-4.806v-.008c0-2.636-2.17-4.806-4.807-4.806-2.636 0-4.806 2.17-4.806 4.806zm-24.416.004c0 2.637 2.17 4.806 4.806 4.806 2.637 0 4.807-2.169 4.807-4.806s-2.17-4.806-4.807-4.806c-2.636 0-4.806 2.169-4.806 4.806zm-24.416-.004v.008c0 2.636 2.169 4.806 4.806 4.806 2.636 0 4.806-2.17 4.806-4.806v-.008c0-2.636-2.17-4.806-4.806-4.806-2.637 0-4.806 2.17-4.806 4.806zm-24.416 0v.008c0 2.636 2.169 4.806 4.806 4.806s4.806-2.17 4.806-4.806v-.008c0-2.636-2.169-4.806-4.806-4.806s-4.806 2.17-4.806 4.806zm-24.416.004c0 2.637 2.169 4.806 4.806 4.806s4.806-2.169 4.806-4.806-2.169-4.806-4.806-4.806-4.806 2.169-4.806 4.806zm-24.416 0c0 2.637 2.169 4.806 4.806 4.806s4.806-2.169 4.806-4.806-2.169-4.806-4.806-4.806-4.806 2.169-4.806 4.806zm-24.416-.004v.008c0 2.636 2.17 4.806 4.806 4.806 2.637 0 4.807-2.17 4.807-4.806v-.008c0-2.636-2.17-4.806-4.807-4.806-2.636 0-4.806 2.17-4.806 4.806zm-24.416 0v.008c0 2.636 2.17 4.806 4.806 4.806 2.637 0 4.807-2.17 4.807-4.806v-.008c0-2.636-2.17-4.806-4.807-4.806-2.636 0-4.806 2.17-4.806 4.806zm-24.416.002v.004c0 2.637 2.17 4.806 4.806 4.806 2.637 0 4.807-2.169 4.807-4.806v-.004c0-2.637-2.17-4.806-4.807-4.806-2.636 0-4.806 2.169-4.806 4.806zm-24.416.002c0 2.637 2.17 4.806 4.807 4.806 2.636 0 4.806-2.169 4.806-4.806s-2.17-4.806-4.806-4.806c-2.637 0-4.807 2.169-4.807 4.806zm-24.416 0c0 2.637 2.17 4.806 4.807 4.806 2.636 0 4.806-2.169 4.806-4.806s-2.17-4.806-4.806-4.806c-2.637 0-4.807 2.169-4.807 4.806zm-24.415 0c0 2.637 2.169 4.806 4.806 4.806s4.806-2.169 4.806-4.806-2.169-4.806-4.806-4.806-4.806 2.169-4.806 4.806zM48.13 54.278v.002a3.864 3.864 0 0 0 3.845 3.845 3.864 3.864 0 0 0 3.845-3.845v-.002a3.864 3.864 0 0 0-3.845-3.845 3.864 3.864 0 0 0-3.845 3.845zm0 63.443v.002a3.864 3.864 0 0 0 3.845 3.845 3.864 3.864 0 0 0 3.845-3.845v-.002a3.863 3.863 0 0 0-3.845-3.845 3.863 3.863 0 0 0-3.845 3.845zM20.734 51.394v.003c0 2.373 1.953 4.325 4.326 4.325 2.373 0 4.326-1.952 4.326-4.325v-.003c0-2.373-1.953-4.326-4.326-4.326-2.373 0-4.326 1.953-4.326 4.326zm0 69.21v.003c0 2.373 1.953 4.326 4.326 4.326 2.373 0 4.326-1.953 4.326-4.326v-.003c0-2.373-1.953-4.326-4.326-4.326-2.373 0-4.326 1.953-4.326 4.326z" fill="#00388b" fill-rule="nonzero"/><path d="M135.396 85.848l-3.052 2.441v-4.883l3.052 2.442M132.59 83.6v4.493V83.6" fill="none" stroke="#fff" stroke-width="1.458173"/><path fill="#fff" d="M136.619 82.184v7.325h-1.221v-7.325z"/><g fill="none" stroke="#fff" stroke-width=".36"><path d="M53.898 61.968v7.69M53.898 102.342v7.691M10.641 49.471h-8.65M1.99 49.471v73.058M1.99 122.53h8.651" stroke-width="1.2207959999999998"/></g><path d="M232.626 16.78a4.026 4.026 0 0 1-4.025-4.028 4.026 4.026 0 1 1 8.05 0c0 2.225-1.8 4.029-4.025 4.029m12.208-10.133h-5.48V.544h-13.456v6.104h-5.484v12.208h24.42V6.648zM252.464 31.673c.271.52.661.92 1.173 1.197.509.275 1.194.414 2.055.414.756 0 1.367-.119 1.841-.353a2.628 2.628 0 0 0 1.1-.973c.26-.414.437-.895.535-1.448.095-.553.142-1.14.142-1.753h-2.295c0 .614-.038 1.112-.109 1.489-.078.376-.176.668-.305.878a.957.957 0 0 1-.454.414 1.555 1.555 0 0 1-.567.101 1.31 1.31 0 0 1-.644-.149c-.187-.102-.34-.298-.461-.59-.122-.292-.214-.705-.272-1.234-.06-.533-.091-1.228-.091-2.09 0-.806.024-1.488.068-2.047.044-.56.115-1.011.22-1.354.109-.345.254-.596.438-.752.19-.153.423-.228.712-.228.519 0 .878.187 1.078.567.193.373.292.98.292 1.807h2.295c0-.413-.03-.858-.088-1.332a3.624 3.624 0 0 0-.437-1.323c-.234-.41-.59-.746-1.062-1.01-.47-.265-1.119-.4-1.936-.4-.861 0-1.546.145-2.055.437a2.949 2.949 0 0 0-1.173 1.22c-.268.523-.444 1.147-.522 1.872-.085.73-.123 1.523-.123 2.384 0 .872.038 1.669.123 2.391.078.722.254 1.343.522 1.865M177.063 8.724h13.459V.544h-13.46v8.18zM250.314 8.724h13.452V.544h-13.452v8.18zM247.757 33.283c1.244 0 2.214-.275 2.91-.821.695-.546 1.044-1.42 1.044-2.621 0-.353-.034-.672-.095-.957a2.286 2.286 0 0 0-.342-.79 3.011 3.011 0 0 0-.662-.671 5.416 5.416 0 0 0-1.071-.594l-1.767-.766c-.488-.2-.807-.424-.956-.661-.15-.241-.224-.533-.224-.885 0-.17.02-.336.057-.495.038-.16.106-.299.204-.421.105-.122.24-.22.407-.295.17-.075.386-.112.64-.112.445 0 .767.146.954.438.193.291.288.708.288 1.25h2.2v-.318c0-.542-.087-1.007-.264-1.394a2.517 2.517 0 0 0-.732-.956 2.94 2.94 0 0 0-1.113-.542 5.609 5.609 0 0 0-1.41-.167c-1.099 0-1.96.275-2.584.828-.628.553-.943 1.394-.943 2.52 0 .464.061.878.176 1.234.116.356.302.668.55.94.25.27.56.508.936.708.37.203.81.39 1.319.56.386.125.705.254.966.372.261.122.468.258.628.407.159.15.274.319.346.502.067.187.101.407.101.661 0 .479-.142.835-.42 1.062-.285.227-.6.342-.95.342-.298 0-.546-.044-.742-.129a1.186 1.186 0 0 1-.472-.349 1.309 1.309 0 0 1-.237-.55 3.703 3.703 0 0 1-.065-.725v-.336h-2.292v.465c0 1.051.278 1.858.838 2.421.556.563 1.482.845 2.777.845M152.114 23.723v1.754h2.628v9.325h2.686V21.597h-1.977c-.135.746-.461 1.285-.976 1.625-.52.335-1.225.501-2.12.501h-.24zM214.938.544h-13.46v8.18h13.46V.543zM166.104.544h-13.456v8.18h13.456V.543zM265.862 31.226h-4.063v-9.499h-2.295v11.381h6.358v-1.882zM238.031 29.549c.367-.275.662-.668.889-1.184.22-.515.332-1.19.332-2.024 0-.845-.108-1.54-.325-2.09-.22-.545-.543-.98-.967-1.295-.43-.318-.946-.539-1.543-.66a9.724 9.724 0 0 0-1.994-.187c-.525 0-1.034.047-1.54.149a4.104 4.104 0 0 0-1.35.512c-.4.24-.721.573-.959.987-.244.42-.366.942-.366 1.577 0 .573.078 1.058.234 1.454.156.4.407.723.753.97v.037l-3.001-.278v-4.87H226.1v6.885l7.183.485v-2.408c-.373-.047-.668-.176-.885-.383-.217-.204-.33-.499-.33-.885 0-.299.048-.546.133-.746.088-.2.24-.356.448-.475.213-.119.501-.204.858-.251.359-.05.813-.075 1.363-.075.854 0 1.502.12 1.93.363.43.241.64.645.64 1.204 0 .285-.068.516-.21.688a1.4 1.4 0 0 1-.543.4 2.38 2.38 0 0 1-.698.18c-.251.024-.485.038-.709.038v2.573h.353a5.81 5.81 0 0 0 1.204-.139c.427-.095.83-.278 1.193-.552M162.06 32.518c-.113-.306-.19-.72-.235-1.252a25.53 25.53 0 0 1-.064-2.041V27.79c0-.847.02-1.556.064-2.126.044-.573.119-1.03.224-1.37.105-.342.25-.586.437-.729.19-.142.431-.214.73-.214.284 0 .522.055.708.167.187.112.336.322.448.627.112.305.19.719.234 1.248.044.529.064 1.21.064 2.041v1.438c0 .845-.02 1.553-.064 2.126s-.119 1.028-.224 1.37c-.109.343-.254.584-.437.726-.19.146-.431.217-.73.217-.284 0-.522-.058-.708-.166-.187-.115-.336-.322-.448-.627m3.459 1.93c.556-.374.966-.886 1.241-1.537.275-.655.441-1.404.505-2.248.061-.845.092-1.73.092-2.649 0-1.17-.064-2.16-.197-2.977-.129-.81-.352-1.475-.671-1.984a2.796 2.796 0 0 0-1.268-1.112c-.53-.227-1.197-.343-2.005-.343-.983 0-1.75.194-2.302.587a3.55 3.55 0 0 0-1.241 1.567c-.275.65-.441 1.404-.506 2.248a36.745 36.745 0 0 0-.091 2.648c0 1.17.064 2.16.197 2.974.128.814.352 1.475.671 1.988.315.508.743.871 1.275 1.081.536.21 1.2.316 1.997.316.98 0 1.75-.187 2.303-.56M207.523 29.618c-.329.909-.594 1.8-.79 2.676-.2.875-.35 1.712-.448 2.51h2.815c.112-.933.274-1.883.481-2.846.214-.963.482-1.913.807-2.845.32-.933.699-1.838 1.126-2.723.43-.882.916-1.71 1.462-2.479v-2.052h-8.129v2.313h5.558a20.31 20.31 0 0 0-1.682 2.703 25.17 25.17 0 0 0-1.2 2.743M296.161 12.081V1.277h-1.617c-.112.61-.376 1.055-.8 1.33-.42.274-1 .41-1.733.41h-.197v1.435h2.153v7.63h2.194zM302.784 31.411l1.625-3.279 1.644 3.28h2.584l-2.838-4.89 2.645-4.785h-2.503l-1.451 3.13-1.468-3.13h-1.926v-.01h-7.268v1.882h2.49v9.498h2.295v-9.498h2.483v-.763l2.01 3.675-2.838 4.89h2.516zM153.886 145.083l1.285-5.988h.041l1.285 5.988h-2.61zm14.575 2.927h-4.981c.064-.248.206-.543.43-.885.224-.343.533-.695.933-1.055l1.492-1.38c.373-.336.692-.661.95-.977.26-.318.474-.647.634-.98.162-.335.281-.688.356-1.054.074-.366.112-.763.112-1.187 0-1.153-.326-2.042-.97-2.665-.648-.621-1.642-.933-2.984-.933-1.418 0-2.456.332-3.117.99-.658.658-.987 1.604-.987 2.835v.502h2.574c0-.346.017-.678.044-.99.034-.305.102-.583.207-.817.105-.238.254-.424.448-.56.193-.139.458-.203.793-.203.868 0 1.306.546 1.306 1.637 0 .34-.017.635-.048.9-.03.26-.098.501-.196.721a3.038 3.038 0 0 1-.417.675c-.184.224-.421.465-.72.73l-1.081 1.003c-.485.448-.912.892-1.279 1.336-.366.441-.671.892-.915 1.35a6.15 6.15 0 0 0-.54 1.455 7.41 7.41 0 0 0-.162 1.512l-3.49-13.185h-3.32l-3.526 13.314h2.797l.614-2.818h3.544l.617 2.818h10.882v-2.089zM211.42 145.269l2.574-5.015h.038v5.015h-2.611zm5.074 4.832v-2.743h1.268v-2.089h-1.268v-8.376h-2.778l-4.384 8.264v2.2h4.7v2.744h2.462zM338.069 157.514l-9.516 9.518 4.185 4.178c.034-.007.071-.024.112-.03a12.548 12.548 0 0 0 1.953-.604c.207-.085.404-.18.604-.275.471-.217.919-.46 1.356-.735.18-.112.366-.224.536-.346a12.284 12.284 0 0 0 1.624-1.336c.495-.499.933-1.048 1.336-1.625.126-.173.234-.352.346-.536.272-.434.52-.888.736-1.356.092-.2.19-.4.271-.604.251-.63.465-1.281.61-1.956.008-.041.021-.075.028-.112l-4.181-4.181zM142.141 150.1v-13.208h-1.977c-.139.75-.464 1.289-.98 1.625-.515.339-1.22.501-2.116.501h-.24v1.757h2.627v9.326h2.686zM316.023 26.777l-.675.675-2.32-2.32.767-.766c.75-.753 1.496-.756 2.242-.01.437.434.637.85.614 1.244-.024.393-.238.787-.628 1.177m13.188-4.127l-6.073-2.062-2.106-5.85-1.774 1.77 1.577 3.629-3.639-1.563-1.793 1.79 5.826 2.126 1.858 5.47c-.068-.03-.126.004-.2-.047a15.114 15.114 0 0 1-1.048-.912c-.227-.21-.427-.4-.617-.57-.18-.166-.356-.319-.523-.454-.495-.407-.932-.618-1.325-.635-.394-.013-.821.153-1.286.499l-.02-.024c.356-.556.478-1.112.353-1.675-.126-.556-.458-1.109-1-1.648-.696-.699-1.405-1.031-2.124-1-.718.037-1.414.39-2.088 1.064l-3.002 3.001 8.048 8.047 1.624-1.624-3.405-3.405.868-.868c.34-.339.668-.485.994-.447.319.037.648.203.98.505l1.587 1.499c.166.15.332.288.505.41.166.126.35.204.543.234l1.346-1.343.417-.417 1.36-1.363-1.58-3.876 3.893 1.567 1.824-1.828zM5.414 31.758v-3.429h.99c.255 0 .489.027.702.082.21.05.394.145.55.278.152.132.274.308.366.525.088.217.135.492.135.821 0 .661-.173 1.112-.512 1.356-.339.245-.786.367-1.34.367h-.891zm0-8h.83c.574 0 .994.109 1.259.332.264.224.397.607.397 1.15 0 .54-.146.926-.438 1.153-.291.23-.756.346-1.394.346h-.654v-2.98zm3.259 9.417c.45-.18.82-.424 1.102-.726.281-.301.478-.654.597-1.058a4.65 4.65 0 0 0 .176-1.275c0-.766-.19-1.376-.56-1.834-.372-.458-.874-.726-1.515-.814v-.03c.576-.16 1.007-.458 1.292-.903.288-.437.43-.966.43-1.583 0-.543-.078-1-.237-1.37a2.197 2.197 0 0 0-.671-.892 2.616 2.616 0 0 0-1.028-.478 5.402 5.402 0 0 0-1.299-.146H3.118v11.38h3.873c.671 0 1.23-.088 1.682-.27M287.28 23.704h.034l1.099 5.117h-2.232l1.1-5.117zm-1.495 6.996h3.025l.525 2.407h2.394l-3.014-11.38h-2.835l-3.015 11.38h2.39l.53-2.407zM312.602.544h-13.46v8.18h13.46V.543zM334.557 68.314h7.939V54.858h-7.939zM316.78 6.344c0-.692.02-1.272.054-1.74.034-.468.098-.84.183-1.122.088-.278.207-.478.36-.597.152-.115.349-.173.596-.173.23 0 .427.044.577.136.152.095.278.264.366.512.091.25.156.59.193 1.024.034.43.05.987.05 1.672v1.173c0 .692-.016 1.272-.05 1.74-.037.468-.098.84-.183 1.119-.088.281-.21.481-.363.597a.953.953 0 0 1-.59.176c-.237 0-.427-.047-.58-.136-.156-.095-.275-.264-.37-.512-.091-.25-.155-.59-.19-1.024-.033-.434-.054-.99-.054-1.672V6.344zm-.441 5.646c.437.173.98.258 1.634.258.8 0 1.428-.153 1.882-.458a2.727 2.727 0 0 0 1.014-1.258c.224-.532.36-1.146.414-1.838.05-.692.078-1.414.078-2.167 0-.956-.054-1.767-.163-2.435-.109-.664-.288-1.207-.55-1.624a2.28 2.28 0 0 0-1.037-.909c-.434-.186-.98-.281-1.638-.281-.807 0-1.434.16-1.885.478a2.94 2.94 0 0 0-1.018 1.285 5.93 5.93 0 0 0-.41 1.838 27.82 27.82 0 0 0-.075 2.167c0 .956.051 1.767.156 2.435.109.664.292 1.207.553 1.624.258.417.604.712 1.045.885M268.348 29.552v.465c0 1.05.278 1.858.837 2.42.556.564 1.486.845 2.778.845 1.248 0 2.217-.271 2.913-.82.695-.546 1.04-1.421 1.04-2.622 0-.352-.03-.671-.094-.956a2.28 2.28 0 0 0-.34-.79 3.02 3.02 0 0 0-.664-.668 5.376 5.376 0 0 0-1.068-.597l-1.77-.766c-.485-.2-.808-.424-.957-.662-.149-.237-.22-.532-.22-.885 0-.17.017-.332.054-.495a1 1 0 0 1 .614-.715 1.59 1.59 0 0 1 .637-.112c.445 0 .767.146.957.437.19.292.288.709.288 1.252h2.197v-.32c0-.542-.084-1.006-.26-1.393a2.525 2.525 0 0 0-.737-.956 2.915 2.915 0 0 0-1.112-.543 5.609 5.609 0 0 0-1.41-.166c-1.096 0-1.957.275-2.585.827-.624.553-.939 1.394-.939 2.52 0 .465.058.878.176 1.234.116.356.299.668.55.94.247.271.56.508.932.708.373.204.81.39 1.323.56.383.129.705.254.963.373.261.122.471.258.63.407.157.15.275.319.343.502.071.186.102.407.102.661 0 .478-.143.834-.42 1.062a1.46 1.46 0 0 1-.95.342c-.299 0-.543-.04-.743-.129-.193-.085-.349-.2-.468-.35a1.27 1.27 0 0 1-.24-.549 3.97 3.97 0 0 1-.062-.725v-.336h-2.295zM274.726 8.724h13.456V.544h-13.456v8.18zM278.355 31.418v-8h.973c.434 0 .787.082 1.045.245.26.166.454.41.59.736.132.322.22.729.264 1.217.037.488.061 1.058.061 1.706 0 .776-.024 1.424-.071 1.943-.048.522-.143.943-.285 1.261-.146.32-.339.546-.583.685-.244.136-.57.207-.973.207h-1.021zm3.221 1.34a2.78 2.78 0 0 0 1.197-1.069c.295-.478.506-1.088.628-1.824.118-.74.183-1.607.183-2.608 0-.837-.048-1.597-.143-2.278-.094-.682-.281-1.262-.549-1.747a2.786 2.786 0 0 0-1.143-1.116c-.488-.257-1.129-.39-1.926-.39h-3.764v11.381h3.622c.763 0 1.397-.119 1.895-.35M204.51 139.096h.04l1.285 5.988h-2.611l1.285-5.988zm-1.754 8.186h3.544l.617 2.818h2.798l-3.527-13.317h-3.317l-3.526 13.317h2.797l.614-2.818zM239.09 149.979c.518-.218.928-.54 1.23-.97.302-.428.512-.94.631-1.536.115-.6.176-1.262.176-1.998 0-.522-.047-1.038-.142-1.54a4.252 4.252 0 0 0-.488-1.352 2.671 2.671 0 0 0-.936-.96c-.4-.24-.899-.363-1.503-.363-.542 0-1.003.078-1.38.234a2.014 2.014 0 0 0-.919.756h-.037l.264-3.004h4.626v-2.09h-6.538l-.458 7.18h2.286c.044-.37.166-.665.36-.885.196-.217.477-.326.843-.326.282 0 .516.044.71.132.19.085.338.234.45.445.112.213.19.498.238.858.047.362.074.817.074 1.363 0 .858-.118 1.502-.35 1.93-.226.43-.61.644-1.142.644-.271 0-.488-.072-.654-.214a1.39 1.39 0 0 1-.38-.543 2.37 2.37 0 0 1-.17-.698 7.433 7.433 0 0 1-.034-.709H233.4v.353c0 .376.047.776.132 1.204.092.43.265.827.526 1.193.261.37.634.665 1.126.885.488.224 1.132.34 1.922.34.8 0 1.465-.112 1.984-.33M228.763 139.096h.038l1.22 5.988h-2.478l1.22-5.988zm-1.665 8.186h3.368l.583 2.818h2.659l-3.347-13.317h-3.158l-3.347 13.317h2.656l.586-2.818zM190.859 149.951c.566-.237 1.01-.546 1.336-.932a3.16 3.16 0 0 0 .65-1.289c.113-.471.167-.932.167-1.38 0-.834-.176-1.526-.529-2.079-.356-.552-.963-.895-1.821-1.034v-.037c.634-.136 1.13-.458 1.485-.96.353-.505.53-1.153.53-1.953 0-1.167-.333-2.025-.998-2.57-.664-.55-1.6-.825-2.807-.825-1.269 0-2.232.322-2.89.963-.661.641-.987 1.618-.987 2.937h2.459c0-.309.017-.597.047-.858.034-.261.095-.488.194-.678.102-.193.244-.343.42-.448.18-.105.414-.16.699-.16.437 0 .76.13.973.39.21.262.315.71.315 1.344 0 .274-.027.536-.08.783a2.264 2.264 0 0 1-.262.661c-.119.194-.275.35-.468.468a1.385 1.385 0 0 1-.719.177h-.878v1.756h.898c.37 0 .668.061.896.183.223.126.396.292.522.506.122.21.21.447.25.719a6.362 6.362 0 0 1 .017 1.668 1.89 1.89 0 0 1-.203.682 1.233 1.233 0 0 1-.447.457c-.194.109-.451.167-.773.167-.587 0-.974-.204-1.167-.607-.193-.404-.295-.99-.305-1.764h-2.577v.058c0 1.282.318 2.268.952 2.964.635.698 1.59 1.044 2.873 1.044.919 0 1.661-.119 2.228-.353M179.94 139.096h.038l1.288 5.988h-2.614l1.288-5.988zm-1.756 8.186h3.543l.618 2.818h2.797l-3.523-13.317h-3.32l-3.523 13.317h2.797l.61-2.818zM262.878 146.72l.8-1.289 2.228 4.67h2.452l-3.27-6.505 2.94-4.876h-2.366l-2.754 4.558h-.03v-4.558h-2.18v11.38h2.18v-3.38zM257.883 147.239c-.071.376-.17.668-.288.878-.123.203-.265.342-.435.414a1.396 1.396 0 0 1-.535.101c-.23 0-.438-.05-.614-.152-.176-.099-.322-.299-.441-.59-.115-.292-.2-.702-.254-1.235a21.159 21.159 0 0 1-.085-2.085c0-.807.02-1.492.061-2.052.04-.556.112-1.007.214-1.353.098-.346.237-.593.413-.75.18-.152.404-.23.675-.23.495 0 .834.19 1.024.566.187.377.278.98.278 1.808h2.18c0-.414-.026-.858-.084-1.33a3.653 3.653 0 0 0-.414-1.322c-.22-.41-.56-.746-1.007-1.014-.45-.264-1.061-.397-1.841-.397-.817 0-1.465.146-1.953.438a2.893 2.893 0 0 0-1.113 1.22c-.257.52-.424 1.143-.502 1.872-.074.73-.112 1.523-.112 2.384 0 .872.038 1.665.112 2.391.078.722.245 1.343.502 1.865.258.519.628.916 1.113 1.194.488.275 1.136.417 1.953.417.715 0 1.299-.122 1.75-.353.45-.234.797-.56 1.044-.973.248-.414.414-.899.509-1.451.088-.553.135-1.136.135-1.75h-2.18c0 .614-.034 1.112-.105 1.489M155.588 111.66c1.186.187 2.082.726 2.007 1.208-.078.481-1.095.719-2.282.532-1.187-.186-2.082-.726-2.008-1.207.075-.482 1.096-.72 2.283-.533m2.6-4.357c.479-.078 1.021.82 1.208 2.007.193 1.184-.048 2.208-.526 2.283-.481.074-1.024-.824-1.214-2.008-.186-1.183.051-2.208.532-2.282m.028 9.509c-.543 1.068-1.336 1.756-1.77 1.536-.435-.22-.346-1.265.2-2.337.546-1.068 1.336-1.756 1.77-1.536.434.22.346 1.265-.2 2.337m1.98-2.622c.343-.342 1.309.065 2.16.912.848.848 1.258 1.815.916 2.157-.346.346-1.313-.064-2.16-.912-.852-.844-1.258-1.81-.916-2.157m1.814-3.554c1.068-.542 2.116-.634 2.337-.203.217.434-.468 1.227-1.536 1.773-1.069.546-2.113.638-2.337.204-.217-.434.468-1.228 1.536-1.774m-9.02 5.443c.346-.108.705-.244 1.075-.393-.34.21-.661.424-.95.637-2.153 1.584-2 4.707-2 4.707l-.02 5.063c0 .865.064 1.248.63 1.533.57.291.919.122 1.618-.39l4.08-3.001s2.614-1.716 2.62-4.388c.004-.36-.01-.746-.04-1.14.095.383.2.753.315 1.095.841 2.537 3.856 3.358 3.856 3.358s4.184 1.376 4.808 1.583c.824.272 1.208.326 1.655-.129.451-.45.4-.834.13-1.654a8257.31 8257.31 0 0 0-1.595-4.809s-.824-3.015-3.364-3.852a15.262 15.262 0 0 0-1.095-.309c.397.027.78.04 1.136.04 2.672-.016 4.388-2.63 4.388-2.63s2.604-3.555 2.991-4.087c.512-.699.678-1.044.39-1.614-.292-.57-.671-.634-1.536-.63l-5.063.026s-3.127-.146-4.707 2.011c-.21.288-.424.61-.63.95.149-.37.28-.733.39-1.072.81-2.55-1.15-4.985-1.15-4.985l-2.96-4.11c-.506-.702-.784-.97-1.415-.868-.627.098-.81.44-1.071 1.265-.204.627-1.54 4.825-1.54 4.825s-1.102 2.924.458 5.094c.21.292.447.593.705.899a14.001 14.001 0 0 0-.898-.706c-2.174-1.556-5.094-.447-5.094-.447s-4.195 1.342-4.822 1.546c-.824.264-1.167.448-1.265 1.078-.098.628.17.906.872 1.411.535.383 4.113 2.954 4.113 2.954s2.438 1.953 4.985 1.14M31.516 140.86v2.405l11.136-2.56v-2.883l-11.136-2.56v2.323l8.237 1.655v.047l-8.237 1.574zM1.605 127.39v7.11h1.838v-2.43h9.299v-2.25H3.443v-2.43H1.605zM13.4 29.16l1.099-5.117h.034l1.098 5.117h-2.23zm2.537-7.094h-2.839l-3.014 11.38h2.394L13 31.042h3.028l.53 2.404h2.39l-3.011-11.38zM132.508 139.096h.037l1.289 5.988h-2.612l1.286-5.988zm-1.754 8.186h3.544l.614 2.818h2.801l-3.527-13.317h-3.32l-3.523 13.317h2.798l.613-2.818zM38.014 23.533c.234 0 .434.061.597.183.166.122.301.278.406.462.109.186.184.393.231.613.048.224.075.441.075.655h2.197c0-1.157-.275-2.048-.827-2.669-.553-.624-1.459-.933-2.71-.933-.736 0-1.346.123-1.834.367a2.847 2.847 0 0 0-1.177 1.092c-.299.481-.509 1.085-.63 1.807-.123.722-.184 1.563-.184 2.52 0 .986.04 1.855.125 2.604.085.75.255 1.38.502 1.889.251.512.597.888 1.038 1.133.44.244 1.01.366 1.713.366.542 0 1.007-.092 1.397-.278.386-.187.715-.502.993-.95h.034v1.051h1.689v-6.134h-3.713V29h1.512v1.163c0 .308-.047.576-.142.804-.095.23-.217.417-.36.566-.142.149-.298.26-.461.336a1.127 1.127 0 0 1-.454.111c-.33 0-.597-.105-.804-.312-.207-.206-.37-.505-.482-.891a7.503 7.503 0 0 1-.23-1.411c-.04-.553-.061-1.17-.061-1.848 0-1.424.122-2.445.363-3.062.247-.614.644-.923 1.197-.923M6.472 147.074H3.257v-1.058c0-1.041.516-1.56 1.547-1.56.603 0 1.03.146 1.285.434.254.292.383.706.383 1.251v.933zm6.27 0h-4.71v-1.2c0-.468.125-.8.373-.997.25-.2.593-.309 1.03-.33l2.137-.064c.217-.01.43-.027.631-.06.203-.031.383-.103.54-.221v-2.428h-.096c-.112.207-.325.339-.637.403-.312.041-.763.072-1.357.092l-.82.034c-.245.01-.468.027-.679.044-.624.064-1.075.224-1.356.485-.282.258-.465.671-.546 1.23h-.03c-.136-.63-.441-1.101-.913-1.403-.474-.302-1.085-.451-1.834-.451-.967 0-1.686.26-2.16.78-.475.519-.71 1.248-.71 2.184v4.147h11.137v-2.245zM17.13 23.947h2.486v9.499h2.296v-9.499h2.485v-1.882H17.13v1.882zM4.662 141.663c.458 0 .862-.058 1.207-.173.35-.112.658-.292.923-.536.264-.244.495-.55.695-.916.197-.36.38-.793.546-1.292.122-.376.244-.688.366-.946.119-.25.251-.458.397-.614.146-.156.309-.264.492-.335.18-.065.396-.102.647-.102.468 0 .814.139 1.038.414.224.278.332.586.332.929 0 .291-.04.532-.122.725a1.168 1.168 0 0 1-.342.462 1.22 1.22 0 0 1-.54.23 3.528 3.528 0 0 1-.708.065h-.33v2.245h.452c1.03 0 1.821-.272 2.37-.818.553-.546.831-1.455.831-2.723 0-1.214-.271-2.167-.807-2.848-.532-.679-1.387-1.021-2.564-1.021-.346 0-.654.03-.936.095-.281.061-.539.173-.773.332-.234.163-.45.38-.654.651a5.23 5.23 0 0 0-.587 1.045l-.746 1.73c-.197.48-.414.79-.648.935-.234.146-.525.22-.868.22-.166 0-.325-.016-.481-.057a.925.925 0 0 1-.414-.2 1.092 1.092 0 0 1-.288-.397 1.533 1.533 0 0 1-.112-.624c0-.437.146-.75.43-.936.285-.186.696-.281 1.225-.281v-2.154H4.38c-.53 0-.987.085-1.363.258-.38.173-.692.41-.936.72-.245.304-.42.667-.53 1.088a5.403 5.403 0 0 0-.166 1.38c0 1.075.272 1.916.81 2.53.543.613 1.364.919 2.466.919M252.79 146.832c0-.352-.031-.668-.089-.956a2.347 2.347 0 0 0-.325-.79 2.972 2.972 0 0 0-.631-.668 5.062 5.062 0 0 0-1.01-.597l-1.686-.766c-.461-.2-.766-.42-.905-.662-.143-.237-.214-.532-.214-.881 0-.173.017-.336.054-.499a.982.982 0 0 1 .197-.42c.095-.122.224-.22.386-.295.16-.075.36-.112.607-.112.424 0 .723.146.906.44.183.292.271.71.271 1.248h2.089v-.318c0-.543-.081-1.007-.248-1.394-.17-.387-.4-.705-.698-.956a2.699 2.699 0 0 0-1.058-.54 5.046 5.046 0 0 0-1.34-.17c-1.04 0-1.858.279-2.451.828-.597.553-.896 1.394-.896 2.52 0 .468.055.878.17 1.238a2.6 2.6 0 0 0 .519.939c.237.268.532.505.888.709.35.2.77.386 1.255.556a9.5 9.5 0 0 1 .916.373c.25.122.447.258.6.407.149.15.258.319.325.505.065.187.099.404.099.658 0 .482-.136.834-.404 1.061-.264.231-.566.343-.902.343-.281 0-.515-.04-.702-.129a1.092 1.092 0 0 1-.447-.346 1.318 1.318 0 0 1-.228-.55 3.997 3.997 0 0 1-.06-.725v-.339H245.6v.465c0 1.05.265 1.861.794 2.424.532.563 1.41.845 2.641.845 1.18 0 2.103-.275 2.764-.824.658-.546.99-1.421.99-2.622M177.061 171.458h13.46v-8.18h-13.46zM201.477 171.458h13.46v-8.18h-13.46zM152.648 171.458h13.46v-8.18h-13.46zM225.896 171.458h13.46v-8.18h-13.46zM128.233 171.458h13.455v-8.18h-13.455zM250.312 171.458h13.46v-8.18h-13.46zM299.14 171.458h13.46v-8.18h-13.46zM274.728 171.458h13.456v-8.18h-13.456zM285.612 147.67c-.112-.337-.187-.774-.224-1.31a28.548 28.548 0 0 1-.058-1.95c0-.766.02-1.414.058-1.946.037-.53.112-.967.224-1.306.108-.342.271-.586.478-.742.207-.153.478-.231.82-.231.34 0 .611.078.821.23.207.157.366.4.478.743.112.34.183.777.224 1.306.037.532.054 1.18.054 1.946 0 .767-.017 1.414-.054 1.95-.04.536-.112.973-.224 1.31-.112.335-.27.58-.478.732-.21.156-.481.23-.82.23-.343 0-.614-.074-.821-.23-.207-.153-.37-.397-.478-.733m3.354 2.19a2.807 2.807 0 0 0 1.173-1.193c.268-.522.444-1.143.522-1.865.082-.726.119-1.52.119-2.39 0-.862-.037-1.656-.119-2.385-.078-.729-.254-1.353-.522-1.871a2.949 2.949 0 0 0-1.173-1.221c-.51-.292-1.194-.438-2.055-.438-.862 0-1.547.146-2.059.438a2.962 2.962 0 0 0-1.17 1.22c-.268.52-.444 1.143-.525 1.872-.082.73-.122 1.523-.122 2.384 0 .872.04 1.665.122 2.391.081.722.257 1.343.525 1.865.272.519.662.916 1.17 1.194.512.278 1.197.417 2.059.417.86 0 1.546-.14 2.055-.417M299.353 141.013h.033l2.022 9.088h1.787l2.02-9.088h.035v9.088h2.102v-11.384h-3.394l-1.638 8.034h-.034l-1.625-8.034h-3.411v11.384h2.103v-9.088zM278.199 150.1l2.024-9.088h.03v9.089h2.107v-11.38h-3.395l-1.641 8.033h-.034l-1.624-8.034h-3.412v11.38h2.103v-9.088h.034l2.024 9.089h1.784zM308.32 150.1h2.296v-11.38h-2.296zM341.341 7.637a11.888 11.888 0 0 0-.736-1.356c-.112-.183-.22-.366-.342-.54a11.811 11.811 0 0 0-1.34-1.62v-.004a12.3 12.3 0 0 0-1.62-1.336c-.174-.122-.36-.23-.54-.342a11.382 11.382 0 0 0-1.356-.736c-.2-.095-.397-.193-.604-.275a12.203 12.203 0 0 0-1.953-.607c-.04-.006-.075-.023-.112-.03l-4.185 4.181 9.516 9.519 4.184-4.185c-.006-.037-.023-.071-.03-.108-.146-.675-.36-1.33-.61-1.957-.079-.207-.18-.403-.272-.604M334.56 43.898h7.94v-13.46h-7.94zM314.799 148.642l1.821-1.82a8.565 8.565 0 0 1-.661-.736 2.525 2.525 0 0 1-.438-.723 1.365 1.365 0 0 1-.081-.712c.04-.234.18-.464.417-.705.614-.614 1.306-.536 2.082.24.238.238.441.455.604.662.16.207.281.424.373.654.088.227.149.485.18.773.027.285.03.624.006 1.021l-.054 1.475c-.027.658-.014 1.275.04 1.848a7.82 7.82 0 0 0 .306 1.604c.156.496.373.964.651 1.411.278.448.62.872 1.034 1.285l5.748-5.754-1.478-1.475-3.52 3.523c-.13-.22-.238-.53-.319-.933-.088-.396-.115-.861-.088-1.4l.081-2.031a9.957 9.957 0 0 0-.02-1.367c-.04-.41-.122-.79-.248-1.14a4.781 4.781 0 0 0-.491-.996 6.175 6.175 0 0 0-.76-.916c-.82-.814-1.675-1.217-2.57-1.204-.9.02-1.821.502-2.774 1.455-1 1-1.5 1.967-1.503 2.903.004.929.438 1.834 1.31 2.702l.352.356zM126.322 150.555a1.585 1.585 0 0 0-2.225.278c-.522.668-.96 1.373-1.343 2.103a14.146 14.146 0 0 0-1.346-2.103 1.585 1.585 0 0 0-2.503 1.947c1.482 1.905 2.262 4.143 2.262 6.466 0 2.33-.78 4.568-2.262 6.474a1.583 1.583 0 0 0 .278 2.225c.289.223.635.335.974.335.471 0 .939-.213 1.25-.613.523-.669.96-1.374 1.347-2.103.383.73.82 1.434 1.343 2.103.312.4.78.613 1.251.613.34 0 .685-.112.974-.335a1.583 1.583 0 0 0 .278-2.225c-1.479-1.906-2.259-4.144-2.259-6.474 0-2.326.78-4.56 2.259-6.466a1.583 1.583 0 0 0-.278-2.225M143.6 167.945c.288.223.634.335.973.335.472 0 .94-.213 1.252-.613 1.916-2.47 2.93-5.379 2.93-8.417 0-3.042-1.014-5.948-2.93-8.417a1.585 1.585 0 0 0-2.503 1.947c1.478 1.905 2.258 4.14 2.258 6.47 0 2.326-.78 4.564-2.258 6.47a1.583 1.583 0 0 0 .278 2.225M128.23 8.724h13.46V.544h-13.46v8.18zM103.816 8.724h13.455V.544h-13.455v8.18zM114.881 30.774l1.493-1.38c.373-.336.691-.662.949-.98.261-.316.475-.645.634-.977.163-.336.282-.688.356-1.055.075-.366.112-.763.112-1.186 0-1.153-.325-2.045-.97-2.666-.647-.62-1.641-.932-2.984-.932-1.417 0-2.455.329-3.116.986-.658.662-.987 1.608-.987 2.835v.506h2.574c0-.35.017-.679.044-.99.034-.31.102-.584.207-.818.105-.237.254-.424.447-.56.194-.138.458-.206.794-.206.871 0 1.305.546 1.305 1.641 0 .336-.017.634-.047.895a2.49 2.49 0 0 1-.197.726 3.117 3.117 0 0 1-.417.675 6.22 6.22 0 0 1-.719.726l-1.082 1.007A14.04 14.04 0 0 0 112 30.353c-.366.441-.671.892-.916 1.353a6.15 6.15 0 0 0-.539 1.455 7.228 7.228 0 0 0-.176 1.642h8.132v-2.09h-4.982c.065-.247.207-.542.43-.884.225-.343.533-.696.933-1.055M133.917 34.803V21.598h-1.977c-.14.746-.465 1.285-.98 1.62-.516.34-1.221.506-2.116.506h-.241v1.753h2.628v9.326h2.686zM185.56 27.883c-.224.387-.604.576-1.14.576-.522 0-.895-.19-1.118-.576-.22-.387-.336-1.024-.336-1.92 0-.372.017-.718.047-1.037.03-.315.095-.593.197-.83a1.22 1.22 0 0 1 .438-.55c.193-.13.447-.194.773-.194.312 0 .563.065.756.194.19.132.339.312.448.542.105.23.176.506.213.828.037.325.058.675.058 1.048 0 .895-.115 1.532-.336 1.919m2.564 4.944c.281-.671.447-1.448.502-2.323.057-.878.088-1.787.088-2.733 0-.807-.048-1.584-.132-2.333-.089-.743-.279-1.4-.57-1.967a3.441 3.441 0 0 0-1.258-1.36c-.55-.342-1.282-.515-2.201-.515-1.492 0-2.58.407-3.256 1.214-.678.807-1.017 1.977-1.017 3.506 0 .597.061 1.146.176 1.652.12.502.306.94.56 1.305.254.367.59.651 1 .858.41.204.91.305 1.492.305.594 0 1.103-.101 1.52-.305.417-.207.739-.478.96-.814h.04v.635c0 .484-.02.936-.058 1.342-.04.41-.115.767-.234 1.065-.118.299-.281.533-.495.699-.21.17-.495.254-.858.254-.447 0-.76-.142-.942-.42-.18-.282-.268-.668-.268-1.167h-2.574c.01.634.119 1.167.325 1.597.204.428.475.77.81 1.024.34.255.727.428 1.167.523.441.091.896.139 1.37.139 1.082 0 1.923-.197 2.527-.587a3.427 3.427 0 0 0 1.326-1.594M103.528 23.723v1.754h2.628v9.325h2.686V21.597h-1.977c-.136.746-.462 1.285-.977 1.625-.519.335-1.224.501-2.12.501h-.24zM140.99 34.803V21.598h-1.976c-.14.746-.465 1.285-.98 1.62-.516.34-1.221.506-2.117.506h-.24v1.753h2.628v9.326h2.686zM84.579 142.232v7.867h1.587v-3.493h1.851v3.493h1.587v-7.867h-1.587v3.008h-1.851v-3.008h-1.587zM76.644 138.718l2.615 11.38h2.946l2.615-11.38h-2.374l-1.692 8.417h-.047l-1.608-8.417h-2.455zM70.944 31.05c-.339.245-.786.367-1.34.367h-.891v-3.425h.987c.254 0 .488.024.702.078.213.054.396.149.55.281.155.133.277.305.365.523.092.22.136.491.136.824 0 .657-.17 1.108-.509 1.353m-2.231-7.634h.827c.573 0 .994.112 1.262.336.264.224.397.604.397 1.146 0 .543-.146.926-.438 1.157-.291.227-.756.342-1.394.342h-.654v-2.98zm4.358 8.692c.281-.299.481-.655.6-1.058.115-.404.173-.828.173-1.275 0-.767-.187-1.377-.556-1.835-.373-.454-.875-.726-1.516-.81v-.034c.576-.156 1.007-.458 1.292-.9.285-.44.43-.969.43-1.583 0-.546-.078-1-.237-1.373a2.22 2.22 0 0 0-.671-.892 2.661 2.661 0 0 0-1.028-.478 5.6 5.6 0 0 0-1.299-.146h-3.842v11.38h3.873c.671 0 1.23-.088 1.682-.27.45-.18.817-.421 1.099-.726M57.774 31.458c.203-.475.302-1.072.302-1.794v-7.939h-2.293v7.939c0 .288-.02.55-.057.79a1.785 1.785 0 0 1-.207.62 1.134 1.134 0 0 1-.407.414c-.17.102-.393.153-.668.153-.268 0-.485-.05-.661-.153a1.078 1.078 0 0 1-.414-.413 1.72 1.72 0 0 1-.21-.62 5.165 5.165 0 0 1-.055-.791v-7.939H50.81v7.939c0 .766.101 1.387.305 1.865.2.478.471.848.81 1.109.34.258.73.434 1.163.515.438.085.889.13 1.357.13.468 0 .919-.048 1.353-.143a2.753 2.753 0 0 0 1.163-.56c.34-.274.61-.65.814-1.122M71.62 143.53v-1.298h-4.398v7.867h1.587v-3.415h2.645v-1.302h-2.645v-1.852h2.81zM51.111 145.812l1.099-5.117h.034l1.098 5.117h-2.23zm-.302-7.094l-3.014 11.384h2.394l.522-2.408h3.028l.53 2.408h2.39l-3.011-11.384h-2.839zM108.03 139.096h.037l1.289 5.988h-2.612l1.286-5.988zm-2.367 11.004l.614-2.818h3.543l.614 2.818h2.801l-3.527-13.317h-3.32l-3.523 13.317h2.798zM66.902 148.798h-2.92v-2.116h2.646v-1.302h-2.645v-1.851h2.81v-1.3h-4.397v7.872h4.506v-1.303zM58.348 143.398h.75c.736 0 1.102.363 1.102 1.092 0 .424-.102.73-.309.909-.203.183-.498.271-.881.271h-.662v-2.272zm0 3.374h.848c.333 0 .566.088.706.265.142.176.217.417.234.725l.044 1.51c.006.155.02.305.044.447.02.143.07.268.152.383h1.72v-.068c-.146-.08-.241-.23-.285-.454a9.63 9.63 0 0 1-.068-.956 78.429 78.429 0 0 0-.02-.58 8.806 8.806 0 0 0-.034-.478c-.044-.441-.16-.76-.343-.96-.183-.197-.475-.325-.871-.387v-.02c.447-.095.78-.312.993-.644.214-.336.319-.767.319-1.296 0-.681-.183-1.193-.55-1.526-.369-.335-.881-.501-1.546-.501h-2.93v7.87h1.587v-3.33zM62.04 33.283c1.244 0 2.21-.275 2.905-.821.699-.546 1.048-1.42 1.048-2.621a4.34 4.34 0 0 0-.098-.957 2.165 2.165 0 0 0-.343-.79 2.872 2.872 0 0 0-.66-.671 5.284 5.284 0 0 0-1.069-.594l-1.77-.766c-.488-.2-.804-.424-.953-.661-.15-.241-.224-.533-.224-.885 0-.17.017-.336.054-.495a1.04 1.04 0 0 1 .207-.421 1.09 1.09 0 0 1 .407-.295 1.59 1.59 0 0 1 .638-.112c.447 0 .766.146.956.438.19.291.288.708.288 1.25h2.201v-.318c0-.542-.088-1.007-.264-1.394a2.551 2.551 0 0 0-.733-.956 2.955 2.955 0 0 0-1.116-.542 5.609 5.609 0 0 0-1.41-.167c-1.096 0-1.957.275-2.584.828-.628.553-.94 1.394-.94 2.52 0 .464.058.878.177 1.234.115.356.298.668.549.94.251.27.56.508.933.708.373.203.81.39 1.322.56.383.125.702.254.963.372.261.122.472.258.63.407.16.15.276.319.343.502.068.187.102.407.102.661 0 .479-.139.835-.42 1.062a1.472 1.472 0 0 1-.95.342c-.295 0-.542-.044-.74-.129a1.162 1.162 0 0 1-.47-.349 1.312 1.312 0 0 1-.241-.55 3.997 3.997 0 0 1-.061-.725v-.336H58.42v.465c0 1.051.278 1.858.838 2.421.556.563 1.485.845 2.78.845M92.72 31.084c.095-.404.143-.797.143-1.18 0-.712-.15-1.302-.455-1.777-.302-.472-.817-.77-1.553-.885v-.03c.543-.12.963-.39 1.268-.821.302-.431.455-.987.455-1.665 0-1-.285-1.733-.851-2.201-.57-.468-1.37-.702-2.401-.702-1.085 0-1.906.274-2.469.82-.566.546-.848 1.384-.848 2.51h2.106c0-.265.014-.509.037-.733.028-.223.085-.417.17-.58a.893.893 0 0 1 .36-.383c.152-.091.352-.135.596-.135.373 0 .648.112.828.335.183.22.271.604.271 1.147 0 .234-.024.457-.071.668a1.798 1.798 0 0 1-.224.566 1.189 1.189 0 0 1-.4.4c-.163.102-.366.15-.61.15h-.75v1.498h.766c.316 0 .573.054.763.16.19.105.34.25.448.43.105.18.176.387.214.614.037.23.057.471.057.726 0 .244-.013.478-.04.702a1.553 1.553 0 0 1-.177.58.986.986 0 0 1-.383.39c-.163.098-.383.145-.661.145-.499 0-.831-.173-.994-.519-.166-.345-.254-.847-.264-1.505h-2.198v.047c0 1.092.268 1.94.81 2.533.543.597 1.36.892 2.456.892.787 0 1.42-.098 1.906-.302.481-.2.861-.468 1.136-.796.278-.33.464-.696.56-1.1M101.903 150.555a1.586 1.586 0 0 0-2.224.278c-1.916 2.472-2.93 5.378-2.93 8.413 0 3.042 1.014 5.948 2.93 8.42a1.581 1.581 0 0 0 2.225.278 1.586 1.586 0 0 0 .28-2.224c-1.481-1.906-2.261-4.144-2.261-6.474 0-2.323.78-4.56 2.262-6.466a1.586 1.586 0 0 0-.282-2.225M92.858.544h-13.46v8.18h13.46V.543zM82.32 23.21c-.44.285-1.044.428-1.807.428h-.207v1.499h2.245v7.969h2.295V21.823h-1.688c-.119.638-.397 1.1-.838 1.387M90.256 150.1h1.587v-7.867h-1.587zM42.825 146.59c0-.77-.098-1.39-.295-1.865-.2-.471-.46-.844-.78-1.115a2.619 2.619 0 0 0-1.078-.543 4.925 4.925 0 0 0-1.156-.142c-.696 0-1.275.149-1.737.444-.464.298-.752.804-.868 1.523h-.03a1.981 1.981 0 0 0-.804-1.242c-.42-.295-.963-.444-1.628-.444-.98 0-1.695.278-2.153.834-.458.557-.688 1.34-.688 2.347 0 1.061.267 1.869.803 2.418.536.553 1.357.827 2.459.827v-2.058c-.261 0-.499-.014-.72-.04a1.6 1.6 0 0 1-.569-.164.905.905 0 0 1-.373-.349 1.165 1.165 0 0 1-.132-.587c0-.362.108-.63.325-.81.22-.176.594-.264 1.126-.264.227 0 .448.023.655.067.207.048.393.119.553.22.162.1.291.228.39.39.098.163.149.36.149.601v.732h1.465v-.746c0-.315.054-.563.156-.752.105-.187.244-.333.42-.434.18-.106.38-.177.604-.21.224-.038.458-.055.708-.055.238 0 .468.01.685.037.22.027.407.082.57.173a.988.988 0 0 1 .383.373c.092.163.14.377.14.648 0 .488-.17.814-.506.973-.339.163-.83.251-1.475.261v2.15h.048c1.071 0 1.895-.264 2.478-.793.584-.533.875-1.333.875-2.405" fill="#fff" fill-rule="nonzero"/><circle cx="12.804" cy="12.753" r="6.432" fill="none" stroke="#9a916c" stroke-width="3.25" stroke-linecap="butt"/><circle cx="37.22" cy="12.753" r="6.432" fill="none" stroke="#9a916c" stroke-width="3.25" stroke-linecap="butt"/><circle cx="61.635" cy="12.753" r="6.432" fill="none" stroke="#9a916c" stroke-width="3.25" stroke-linecap="butt"/><circle cx="86.051" cy="12.753" r="6.432" fill="none" stroke="#9a916c" stroke-width="3.25" stroke-linecap="butt"/><circle cx="110.467" cy="12.753" r="6.432" fill="none" stroke="#9a916c" stroke-width="3.25" stroke-linecap="butt"/><circle cx="134.883" cy="12.753" r="6.432" fill="none" stroke="#9a916c" stroke-width="3.25" stroke-linecap="butt"/><circle cx="159.299" cy="12.753" r="6.432" fill="none" stroke="#9a916c" stroke-width="3.25" stroke-linecap="butt"/><circle cx="183.715" cy="12.753" r="6.432" fill="none" stroke="#9a916c" stroke-width="3.25" stroke-linecap="butt"/><circle cx="208.131" cy="12.753" r="6.432" fill="none" stroke="#9a916c" stroke-width="3.25" stroke-linecap="butt"/><circle cx="232.547" cy="12.753" r="6.432" fill="none" stroke="#9a916c" stroke-width="3.25" stroke-linecap="butt"/><circle cx="256.962" cy="12.753" r="6.432" fill="none" stroke="#9a916c" stroke-width="3.25" stroke-linecap="butt"/><circle cx="281.378" cy="12.753" r="6.432" fill="none" stroke="#9a916c" stroke-width="3.25" stroke-linecap="butt"/><circle cx="305.794" cy="12.753" r="6.432" fill="none" stroke="#9a916c" stroke-width="3.25" stroke-linecap="butt"/><circle cx="330.21" cy="12.753" r="6.432" fill="none" stroke="#9a916c" stroke-width="3.25" stroke-linecap="butt"/><circle cx="330.21" cy="159.248" r="6.432" fill="none" stroke="#9a916c" stroke-width="3.25" stroke-linecap="butt"/><circle cx="305.794" cy="159.248" r="6.432" fill="none" stroke="#9a916c" stroke-width="3.25" stroke-linecap="butt"/><circle cx="281.378" cy="159.248" r="6.432" fill="none" stroke="#9a916c" stroke-width="3.25" stroke-linecap="butt"/><circle cx="256.962" cy="159.248" r="6.432" fill="none" stroke="#9a916c" stroke-width="3.25" stroke-linecap="butt"/><circle cx="232.547" cy="159.248" r="6.432" fill="none" stroke="#9a916c" stroke-width="3.25" stroke-linecap="butt"/><circle cx="208.131" cy="159.248" r="6.432" fill="none" stroke="#9a916c" stroke-width="3.25" stroke-linecap="butt"/><circle cx="183.715" cy="159.248" r="6.432" fill="none" stroke="#9a916c" stroke-width="3.25" stroke-linecap="butt"/><circle cx="159.299" cy="159.248" r="6.432" fill="none" stroke="#9a916c" stroke-width="3.25" stroke-linecap="butt"/><circle cx="134.883" cy="159.248" r="6.432" fill="none" stroke="#9a916c" stroke-width="3.25" stroke-linecap="butt"/><circle cx="110.467" cy="159.248" r="6.432" fill="none" stroke="#9a916c" stroke-width="3.25" stroke-linecap="butt"/><circle cx="86.051" cy="159.248" r="6.432" fill="none" stroke="#9a916c" stroke-width="3.25" stroke-linecap="butt"/><circle cx="61.635" cy="159.248" r="6.432" fill="none" stroke="#9a916c" stroke-width="3.25" stroke-linecap="butt"/><circle cx="37.22" cy="159.248" r="6.432" fill="none" stroke="#9a916c" stroke-width="3.25" stroke-linecap="butt"/><circle cx="12.804" cy="159.248" r="6.432" fill="none" stroke="#9a916c" stroke-width="3.25" stroke-linecap="butt"/><g><path fill="#9a916c" d="M130.689 82v7.69h-7.691V82z"/></g><g><path fill="#9a916c" d="M145.108 82v7.69h-7.691V82z"/></g><g><path d="M25.191 146.897c.784 0 1.418-.634 1.418-1.418V138.7c0-.78-.634-1.417-1.418-1.417h-6.775c-.784 0-1.418.637-1.418 1.417v6.78c0 .783.634 1.417 1.418 1.417h6.775z" fill="#9a916c"/></g><path fill="#9a916c" d="M14.486 73.985h19.225v9.613H14.486zM14.486 88.404h19.225v9.613H14.486z"/><g><path fill="#9a916c" d="M57.26 84.079v3.845H44.283V84.08z"/></g><g><path fill="#9a916c" d="M57.262 77.83v3.846H44.285v-3.845z"/></g><g><path fill="#9a916c" d="M57.26 96.575v3.846H44.283v-3.846z"/></g><g><path fill="#9a916c" d="M57.262 90.327v3.846H44.284v-3.846z"/></g><circle cx="51.975" cy="54.279" r="5.066" fill="none" stroke="#9a916c" stroke-width="2.44" stroke-linecap="butt"/><path d="M46.909 44.147h10.132v15.198H46.909V44.147m0 10.132c0 2.779 2.287 5.066 5.066 5.066s5.066-2.287 5.066-5.066-2.287-5.066-5.066-5.066-5.066 2.287-5.066 5.066z" fill="#9a916c" fill-rule="nonzero"/><circle cx="51.975" cy="117.722" r="5.066" fill="none" stroke="#9a916c" stroke-width="2.44" stroke-linecap="butt"/><path d="M46.909 112.656h10.132v15.198H46.909v-15.198m0 5.066c0 2.779 2.287 5.065 5.066 5.065s5.066-2.286 5.066-5.065c0-2.779-2.287-5.066-5.066-5.066s-5.066 2.287-5.066 5.066z" fill="#9a916c" fill-rule="nonzero"/><circle cx="25.06" cy="51.395" r="7.962" fill="none" stroke="#9a916c" stroke-width="7.27" stroke-linecap="butt"/><path fill="none" stroke="#9a916c" stroke-width="7.27" stroke-linecap="butt" d="M17.098 43.433h15.923v15.923H17.098z"/><circle cx="25.06" cy="120.605" r="7.962" fill="none" stroke="#9a916c" stroke-width="7.27" stroke-linecap="butt"/><path fill="none" stroke="#9a916c" stroke-width="7.27" stroke-linecap="butt" d="M17.098 112.644h15.923v15.923H17.098z"/><g><path fill="#9a916c" d="M57.26 71.583v3.845H44.284v-3.845z"/></g><g><path d="M140.761 89.692H127.35a.984.984 0 0 1-.984-.983v-5.724c0-.543.441-.984.984-.984h13.412c.542 0 .983.441.983.984v5.721a.984.984 0 0 1-.983.986z" fill="#dcdcdc" fill-rule="nonzero"/></g><g serif:id="path5922"><path d="M307.969 126.986h-95.933c-3.884 0-7.039-4.92-7.039-10.991V51.989c0-6.071 3.155-11.003 7.039-11.003h95.933c3.877 0 7.031 4.932 7.031 11.003v63.972c0 6.105-3.154 11.025-7.031 11.025z" fill="#dcdcdc" fill-rule="nonzero"/></g><g><path fill="red" d="M130.209 82.002h7.691v7.69h-7.691z"/></g><g><g transform="translate(71 45) scale(3.3911)"><path d="M0 7.228h1.417v1.276h9.922V7.228h1.417V5.811h-1.417V2.692h1.417V1.275h-1.417V0H1.417v1.275H0v1.417h1.417v3.119H0v1.417z" fill="#dcdcdc" fill-rule="nonzero"/><circle cx="6.378" cy="4.252" r="2.48" fill="#1e1e1e"/><path fill="#b4b4b4" d="M.992 0h.567v8.504H.992zM11.197 0h.567v8.504h-.567z"/></g><g serif:id="g5983" transform="translate(71 98) scale(3.3911)"><path serif:id="polygon5975" d="M0 7.228h1.417v1.276h9.922V7.228h1.417V5.811h-1.417V2.692h1.417V1.275h-1.417V0H1.417v1.275H0v1.417h1.417v3.119H0v1.417z" fill="#dcdcdc" fill-rule="nonzero"/><circle serif:id="circle5977" cx="6.378" cy="4.252" r="2.48" fill="#1e1e1e"/><path serif:id="rect5979" fill="#b4b4b4" d="M.992 0h.567v8.504H.992z"/><path serif:id="rect5981" fill="#b4b4b4" d="M11.197 0h.567v8.504h-.567z"/></g></g><g><g serif:id="4uconn_20329_v2"><path fill="#b4b4b4" d="M32.705 47.55v76.9h-13.46v-76.9z"/><path fill="#dcdcdc" d="M56.975 85.04v1.922H45.44v-1.923zM56.975 91.289v1.923H45.44v-1.923zM56.975 97.535v1.923H45.44v-1.923zM56.975 78.793v1.922H45.44v-1.922zM56.975 72.543v1.923H45.44v-1.923z"/><path fill="#b4b4b4" d="M51.926 61.97v48.062h-2.404V61.969z"/><path d="M50.97 61.97v48.062H40.878V61.969z"/><path d="M52.407 66.775V49.473H6.268v73.055h46.14v-17.302h-7.21v-7.69h-2.404V92.73h8.654V79.27h-8.654v-4.804h2.404v-7.691h7.21z" fill="#dcdcdc" fill-rule="nonzero"/><path d="M30.298 66.293l-14.42.963v-6.728l14.42.96v4.805zM30.298 110.513l-14.42.96v-6.728l14.42.96v4.808z" fill-rule="nonzero"/><path d="M6.268 120.605L.5 118.682.503 53.32l5.765-1.923v69.209z" fill="#f0f0f0" fill-rule="nonzero"/><path d="M6.268 51.396L.503 49.473V47.55l5.765 1.923v1.923zM6.268 122.528L.5 124.45v-1.922l5.768-1.923v1.923z" fill="#b4b4b4" fill-rule="nonzero"/></g></g></svg>