<svg xmlns="http://www.w3.org/2000/svg" xml:space="preserve" viewBox="0 0 234.6 85" y="0" x="0" id="Layer_1" version="1.1">
  <style id="style2" type="text/css">
    .st1{stroke-linecap:round}.st1,.st2{fill:none;stroke:#fff;stroke-width:.36}.st3{fill:#9a916c}.st4{fill:#dcdcdc}.st6{fill:#b4b4b4}.st8{fill:none;stroke:#fff;stroke-width:.6243;stroke-linecap:round}.st9{fill:#fff}.st14{stroke:#fff;stroke-width:.576;stroke-linecap:round}.st15{fill:#303030}.st16,.st17{stroke:#fff;stroke-width:.432;stroke-linecap:round}.st17{stroke-width:.36}.st19{fill:none;stroke:#9a916c;stroke-width:3.251}
  </style>
  <path id="rect4" d="M214.5 27.6h20v17h-20z"/>
  <path id="path6" d="M.5-.4v85h230v-85H.5zm9.9 82.2c-3.6 0-6.4-2.9-6.4-6.4S6.9 69 10.4 69c3.6 0 6.4 2.9 6.4 6.4s-2.8 6.4-6.4 6.4zm18 0c-3.6 0-6.4-2.9-6.4-6.4s2.9-6.4 6.4-6.4c3.6 0 6.4 2.9 6.4 6.4s-2.8 6.4-6.4 6.4zm18 0c-3.6 0-6.4-2.9-6.4-6.4s2.9-6.4 6.4-6.4c3.6 0 6.4 2.9 6.4 6.4s-2.8 6.4-6.4 6.4zm18 0c-3.6 0-6.4-2.9-6.4-6.4s2.9-6.4 6.4-6.4c3.6 0 6.4 2.9 6.4 6.4s-2.8 6.4-6.4 6.4zm18 0c-3.6 0-6.4-2.9-6.4-6.4s2.9-6.4 6.4-6.4c3.6 0 6.4 2.9 6.4 6.4s-2.8 6.4-6.4 6.4zm18 0c-3.6 0-6.4-2.9-6.4-6.4s2.9-6.4 6.4-6.4c3.6 0 6.4 2.9 6.4 6.4s-2.8 6.4-6.4 6.4zm18 0c-3.6 0-6.4-2.9-6.4-6.4s2.9-6.4 6.4-6.4c3.6 0 6.4 2.9 6.4 6.4s-2.8 6.4-6.4 6.4zm18 0c-3.6 0-6.4-2.9-6.4-6.4s2.9-6.4 6.4-6.4c3.6 0 6.4 2.9 6.4 6.4s-2.8 6.4-6.4 6.4zm18 0c-3.6 0-6.4-2.9-6.4-6.4s2.9-6.4 6.4-6.4c3.6 0 6.4 2.9 6.4 6.4s-2.8 6.4-6.4 6.4zm18 0c-3.6 0-6.4-2.9-6.4-6.4s2.9-6.4 6.4-6.4c3.6 0 6.4 2.9 6.4 6.4s-2.8 6.4-6.4 6.4z" fill="#005911"/>
  <g transform="translate(-3.778 .545) scale(3.3911)" id="g5397">
    <title id="title5367">
      element:SW1
    </title>
    <g id="g5395">
      <title id="title5369">
        package:KMR2
      </title>
      <path class="st1" id="line5371" d="M7.3 1.7v7.1"/>
      <path class="st1" id="line5373" d="M7.3 8.8H2.5"/>
      <path class="st1" id="line5375" d="M2.5 8.8V1.7"/>
      <path class="st1" id="line5377" d="M2.5 1.7h4.8"/>
      <path d="M4.6 3.4c-.6 0-1 .5-1 1" class="st2" id="path5379"/>
      <path class="st1" id="line5381" d="M4.6 3.4h.6"/>
      <path d="M6.3 4.4c0-.6-.5-1-1-1" class="st2" id="path5383"/>
      <path class="st1" id="line5385" d="M6.3 4.4v1.7"/>
      <path d="M5.2 7.1c.6 0 1-.5 1-1" class="st2" id="path5387"/>
      <path class="st1" id="line5389" d="M5.2 7.1h-.6"/>
      <path d="M3.5 6.1c0 .6.5 1 1 1" class="st2" id="path5391"/>
      <path class="st1" id="line5393" d="M3.5 6.1V4.4"/>
    </g>
  </g>
  <g transform="rotate(90 302.894 101.844) scale(3.3911)" id="g7616">
    <g id="g7614">
      <g id="g7612">
        <g id="g5761">
          <path class="st3" transform="rotate(90 68.113 114.212)" id="connector128pin" d="M67.3 113.4H69v1.7h-1.7z"/>
        </g>
      </g>
    </g>
  </g>
  <g transform="rotate(90 287.514 101.844) scale(3.3911)" id="g7624">
    <g id="g7622">
      <g id="g7620">
        <g id="g5764">
          <path class="st3" transform="rotate(90 63.577 112.398)" id="connector129pin" d="M62.7 111.5h1.7v1.7h-1.7z"/>
        </g>
      </g>
    </g>
  </g>
  <g transform="rotate(90 302.893 63.393) scale(3.3911)" id="g7632">
    <g id="g7630">
      <g id="g7628">
        <g id="g5767">
          <path class="st3" transform="rotate(90 72.648 102.873)" id="connector130pin" d="M71.8 102h1.7v1.7h-1.7z"/>
        </g>
      </g>
    </g>
  </g>
  <g transform="rotate(90 287.514 63.393) scale(3.3911)" id="g7640">
    <g id="g7638">
      <g id="g7636">
        <g id="g5770">
          <path class="st3" transform="rotate(90 68.113 101.06)" id="connector131pin" d="M67.3 100.2H69v1.7h-1.7z"/>
        </g>
      </g>
    </g>
  </g>
  <g transform="rotate(90 292.762 78.956) scale(3.3911)" id="g7648">
    <g id="g7646">
      <g id="g7644">
        <g id="g5773">
          <path d="M67.8 105.4c.5 0 .9.4.9.9s-.4.9-.9.9-.9-.4-.9-.9c.1-.5.5-.9.9-.9z" class="st3" id="connector132pin"/>
        </g>
      </g>
    </g>
  </g>
  <g transform="translate(271.958 70.36) scale(3.3911)" id="g8036">
    <g id="g8034">
      <g id="g8032">
        <g id="kmr2">
          <g transform="rotate(90 6.378 4.252)" id="g8029">
            <g id="g8027">
              <g id="g8025">
                <g id="g5985">
                  <g id="g5983">
                    <path class="st4" id="polygon5975" d="M-17 88.8h.8v.8h6v-.8h.8V88h-.8v-1.9h.8v-.8h-.8v-.8h-6v.8h-.8v.8h.8V88h-.8z"/>
                    <circle r="1.5" cy="87" cx="-13.2" id="circle5977" fill="#1e1e1e"/>
                    <path class="st6" transform="rotate(90 -16.26 87.047)" id="rect5979" d="M-18.8 86.9h5.1v.3h-5.1z"/>
                    <path class="st6" transform="rotate(90 -10.138 87.047)" id="rect5981" d="M-12.7 86.9h5.1v.3h-5.1z"/>
                  </g>
                </g>
              </g>
            </g>
          </g>
        </g>
      </g>
    </g>
  </g>
  <g id="g273">
    <g transform="translate(-3.778 .545) scale(3.3911)" id="g5241">
      <title id="title5217">
        element:IC2
      </title>
      <g id="g5239">
        <title id="title5219">
          package:TQFN48_7MM
        </title>
        <path class="st1" id="line5221" d="M13.8 3.7h-.9"/>
        <path class="st1" id="line5223" d="M12.9 3.7v.9"/>
        <path class="st1" id="line5225" d="M24.1 3.7h.9"/>
        <path class="st1" id="line5227" d="M25 3.7v.9"/>
        <path class="st1" id="line5229" d="M25 14.8v.9"/>
        <path class="st1" id="line5231" d="M25 15.7h-.9"/>
        <g id="g5237">
          <title id="title5233">
            polygon
          </title>
          <path d="M13.8 15.9h-1.1v-1.1l1.1 1.1m-1.1-.1h1-1m0-.2h.8-.8m0-.2h.6-.6m0-.2h.4-.4" class="st1" id="path5235"/>
        </g>
      </g>
    </g>
    <g transform="matrix(0 -3.3911 3.3911 0 30.486 290.84)" id="g6284">
      <g id="g6282">
        <g id="g6280">
          <g id="g5561">
            <path class="st3" transform="rotate(-90 70.123 4.208)" id="connector28pin" d="M69.9 3.6h.4v1.3h-.4z"/>
          </g>
        </g>
      </g>
    </g>
    <g transform="rotate(-90 165.469 130.176) scale(3.3911)" id="g6292">
      <g id="g6290">
        <g id="g6288">
          <g id="g5564">
            <path class="st3" transform="rotate(-90 71.54 3.633)" id="connector29pin" d="M71.3 3h.4v1.3h-.4z"/>
          </g>
        </g>
      </g>
    </g>
    <g transform="rotate(-90 170.276 130.177) scale(3.3911)" id="g6300">
      <g id="g6298">
        <g id="g6296">
          <g id="g5567">
            <path class="st3" transform="rotate(-90 72.958 3.059)" id="connector30pin" d="M72.7 2.4h.4v1.3h-.4z"/>
          </g>
        </g>
      </g>
    </g>
    <g transform="rotate(-90 175.081 130.176) scale(3.3911)" id="g6308">
      <g id="g6306">
        <g id="g6304">
          <g id="g5570">
            <path class="st3" transform="rotate(-90 74.375 2.484)" id="connector31pin" d="M74.2 1.9h.4v1.3h-.4z"/>
          </g>
        </g>
      </g>
    </g>
    <g transform="rotate(-90 179.888 130.177) scale(3.3911)" id="g6316">
      <g id="g6314">
        <g id="g6312">
          <g id="g5573">
            <path class="st3" transform="rotate(-90 75.792 1.91)" id="connector32pin" d="M75.6 1.3h.4v1.3h-.4z"/>
          </g>
        </g>
      </g>
    </g>
    <g transform="matrix(0 -3.3911 3.3911 0 54.518 314.87)" id="g6324">
      <g id="g6322">
        <g id="g6320">
          <g id="g5576">
            <path class="st3" transform="rotate(-90 77.21 1.334)" id="connector33pin" d="M77 .7h.4V2H77z"/>
          </g>
        </g>
      </g>
    </g>
    <g transform="rotate(-90 189.5 130.177) scale(3.3911)" id="g6332">
      <g id="g6330">
        <g id="g6328">
          <g id="g5579">
            <path class="st3" transform="rotate(-90 78.627 .76)" id="connector34pin" d="M78.4.1h.4v1.3h-.4z"/>
          </g>
        </g>
      </g>
    </g>
    <g transform="matrix(0 -3.3911 3.3911 0 64.13 324.483)" id="g6340">
      <g id="g6338">
        <g id="g6336">
          <g id="g5582">
            <path class="st3" transform="rotate(-90 80.044 .185)" id="connector35pin" d="M79.8-.4h.4V.9h-.4z"/>
          </g>
        </g>
      </g>
    </g>
    <g transform="matrix(0 -3.3911 3.3911 0 68.936 329.29)" id="g6348">
      <g id="g6346">
        <g id="g6344">
          <g id="g5585">
            <path class="st3" transform="rotate(-90 81.462 -.39)" id="connector36pin" d="M81.3-1h.4V.3h-.4z"/>
          </g>
        </g>
      </g>
    </g>
    <g transform="rotate(-90 203.919 130.176) scale(3.3911)" id="g6356">
      <g id="g6354">
        <g id="g6352">
          <g id="g5588">
            <path class="st3" transform="rotate(-90 82.879 -.965)" id="connector37pin" d="M82.7-1.6h.4v1.3h-.4z"/>
          </g>
        </g>
      </g>
    </g>
    <g transform="rotate(-90 208.726 130.177) scale(3.3911)" id="g6364">
      <g id="g6362">
        <g id="g6360">
          <g id="g5591">
            <path class="st3" transform="rotate(-90 84.296 -1.54)" id="connector38pin" d="M84.1-2.2h.4v1.3h-.4z"/>
          </g>
        </g>
      </g>
    </g>
    <g transform="rotate(-90 213.531 130.176) scale(3.3911)" id="g6372">
      <g id="g6370">
        <g id="g6368">
          <g id="g5594">
            <path class="st3" transform="rotate(-90 85.713 -2.114)" id="connector39pin" d="M85.5-2.7h.4v1.3h-.4z"/>
          </g>
        </g>
      </g>
    </g>
    <g transform="rotate(180 220.228 121.319) scale(3.3911)" id="g6380">
      <g id="g6378">
        <g id="g6376">
          <g id="g5597">
            <path class="st3" id="connector40pin" d="M105.6 56.9h1.3v.4h-1.3z"/>
          </g>
        </g>
      </g>
    </g>
    <g transform="rotate(180 220.228 116.512) scale(3.3911)" id="g6388">
      <g id="g6386">
        <g id="g6384">
          <g id="g5600">
            <path class="st3" id="connector41pin" d="M105.6 54.9h1.3v.4h-1.3z"/>
          </g>
        </g>
      </g>
    </g>
    <g transform="rotate(180 220.228 111.706) scale(3.3911)" id="g6396">
      <g id="g6394">
        <g id="g6392">
          <g id="g5603">
            <path class="st3" id="connector42pin" d="M105.6 52.9h1.3v.4h-1.3z"/>
          </g>
        </g>
      </g>
    </g>
    <g transform="rotate(180 220.228 106.9) scale(3.3911)" id="g6404">
      <g id="g6402">
        <g id="g6400">
          <g id="g5606">
            <path class="st3" id="connector43pin" d="M105.6 50.9h1.3v.4h-1.3z"/>
          </g>
        </g>
      </g>
    </g>
    <g transform="rotate(180 220.228 102.094) scale(3.3911)" id="g6412">
      <g id="g6410">
        <g id="g6408">
          <g id="g5609">
            <path class="st3" id="connector44pin" d="M105.6 48.9h1.3v.4h-1.3z"/>
          </g>
        </g>
      </g>
    </g>
    <g transform="rotate(180 220.228 97.287) scale(3.3911)" id="g6420">
      <g id="g6418">
        <g id="g6416">
          <g id="g5612">
            <path class="st3" id="connector45pin" d="M105.6 46.9h1.3v.4h-1.3z"/>
          </g>
        </g>
      </g>
    </g>
    <g transform="rotate(180 220.228 92.481) scale(3.3911)" id="g6428">
      <g id="g6426">
        <g id="g6424">
          <g id="g5615">
            <path class="st3" id="connector46pin" d="M105.6 44.9h1.3v.4h-1.3z"/>
          </g>
        </g>
      </g>
    </g>
    <g transform="rotate(180 220.228 87.674) scale(3.3911)" id="g6436">
      <g id="g6434">
        <g id="g6432">
          <g id="g5618">
            <path class="st3" id="connector47pin" d="M105.6 42.9h1.3v.4h-1.3z"/>
          </g>
        </g>
      </g>
    </g>
    <g transform="rotate(180 220.228 82.868) scale(3.3911)" id="g6444">
      <g id="g6442">
        <g id="g6440">
          <g id="g5621">
            <path class="st3" id="connector48pin" d="M105.6 40.9h1.3v.4h-1.3z"/>
          </g>
        </g>
      </g>
    </g>
    <g transform="rotate(180 220.228 78.062) scale(3.3911)" id="g6452">
      <g id="g6450">
        <g id="g6448">
          <g id="g5624">
            <path class="st3" id="connector49pin" d="M105.6 38.9h1.3v.4h-1.3z"/>
          </g>
        </g>
      </g>
    </g>
    <g transform="rotate(180 220.228 73.255) scale(3.3911)" id="g6460">
      <g id="g6458">
        <g id="g6456">
          <g id="g5627">
            <path class="st3" id="connector50pin" d="M105.6 36.9h1.3v.4h-1.3z"/>
          </g>
        </g>
      </g>
    </g>
    <g transform="rotate(180 220.228 68.45) scale(3.3911)" id="g6468">
      <g id="g6466">
        <g id="g6464">
          <g id="g5630">
            <path class="st3" id="connector51pin" d="M105.6 34.9h1.3v.4h-1.3z"/>
          </g>
        </g>
      </g>
    </g>
    <g transform="rotate(90 212.987 59.591) scale(3.3911)" id="g6476">
      <g id="g6474">
        <g id="g6472">
          <g id="g5633">
            <path class="st3" transform="rotate(90 49.29 57.914)" id="connector52pin" d="M49.1 57.3h.4v1.3h-.4z"/>
          </g>
        </g>
      </g>
    </g>
    <g transform="rotate(90 208.182 59.592) scale(3.3911)" id="g6484">
      <g id="g6482">
        <g id="g6480">
          <g id="g5636">
            <path class="st3" transform="rotate(90 47.873 57.34)" id="connector53pin" d="M47.7 56.7h.4V58h-.4z"/>
          </g>
        </g>
      </g>
    </g>
    <g transform="rotate(90 203.375 59.592) scale(3.3911)" id="g6492">
      <g id="g6490">
        <g id="g6488">
          <g id="g5639">
            <path class="st3" transform="rotate(90 46.456 56.765)" id="connector54pin" d="M46.2 56.1h.4v1.3h-.4z"/>
          </g>
        </g>
      </g>
    </g>
    <g transform="rotate(90 198.567 59.59) scale(3.3911)" id="g6500">
      <g id="g6498">
        <g id="g6496">
          <g id="g5642">
            <path class="st3" transform="rotate(90 45.039 56.19)" id="connector55pin" d="M44.8 55.6h.4v1.3h-.4z"/>
          </g>
        </g>
      </g>
    </g>
    <g transform="rotate(90 193.762 59.592) scale(3.3911)" id="g6508">
      <g id="g6506">
        <g id="g6504">
          <g id="g5645">
            <path class="st3" transform="rotate(90 43.621 55.615)" id="connector56pin" d="M43.4 55h.4v1.3h-.4z"/>
          </g>
        </g>
      </g>
    </g>
    <g transform="rotate(90 188.955 59.591) scale(3.3911)" id="g6516">
      <g id="g6514">
        <g id="g6512">
          <g id="g5648">
            <path class="st3" transform="rotate(90 42.204 55.04)" id="connector57pin" d="M42 54.4h.4v1.3H42z"/>
          </g>
        </g>
      </g>
    </g>
    <g transform="rotate(90 184.149 59.591) scale(3.3911)" id="g6524">
      <g id="g6522">
        <g id="g6520">
          <g id="g5651">
            <path class="st3" transform="rotate(90 40.787 54.466)" id="connector58pin" d="M40.6 53.8h.4v1.3h-.4z"/>
          </g>
        </g>
      </g>
    </g>
    <g transform="rotate(90 179.344 59.592) scale(3.3911)" id="g6532">
      <g id="g6530">
        <g id="g6528">
          <g id="g5654">
            <path class="st3" transform="rotate(90 39.37 53.89)" id="connector59pin" d="M39.2 53.3h.4v1.3h-.4z"/>
          </g>
        </g>
      </g>
    </g>
    <g transform="rotate(90 174.537 59.591) scale(3.3911)" id="g6540">
      <g id="g6538">
        <g id="g6536">
          <g id="g5657">
            <path class="st3" transform="rotate(90 37.952 53.316)" id="connector60pin" d="M37.7 52.7h.4V54h-.4z"/>
          </g>
        </g>
      </g>
    </g>
    <g transform="rotate(90 169.73 59.592) scale(3.3911)" id="g6548">
      <g id="g6546">
        <g id="g6544">
          <g id="g5660">
            <path class="st3" transform="rotate(90 36.535 52.741)" id="connector61pin" d="M36.3 52.1h.4v1.3h-.4z"/>
          </g>
        </g>
      </g>
    </g>
    <g transform="rotate(90 164.924 59.591) scale(3.3911)" id="g6556">
      <g id="g6554">
        <g id="g6552">
          <g id="g5663">
            <path class="st3" transform="rotate(90 35.118 52.167)" id="connector62pin" d="M34.9 51.5h.4v1.3h-.4z"/>
          </g>
        </g>
      </g>
    </g>
    <g transform="rotate(90 160.119 59.592) scale(3.3911)" id="g6564">
      <g id="g6562">
        <g id="g6560">
          <g id="g5666">
            <path class="st3" transform="rotate(90 33.7 51.592)" id="connector63pin" d="M33.5 51h.4v1.3h-.4z"/>
          </g>
        </g>
      </g>
    </g>
    <path class="st3" id="connector64pin" d="M38.5 17.1h4.3v1.4h-4.3z"/>
    <path class="st3" id="connector65pin" d="M38.5 20h4.3v1.4h-4.3z"/>
    <path class="st3" id="connector66pin" d="M38.5 22.8h4.3v1.4h-4.3z"/>
    <path class="st3" id="connector67pin" d="M38.5 25.6h4.3V27h-4.3z"/>
    <path class="st3" id="connector68pin" d="M38.5 28.5h4.3v1.4h-4.3z"/>
    <path class="st3" id="connector69pin" d="M38.5 31.3h4.3v1.4h-4.3z"/>
    <path class="st3" id="connector70pin" d="M38.5 34.1h4.3v1.4h-4.3z"/>
    <path class="st3" id="connector71pin" d="M38.5 36.9h4.3v1.4h-4.3z"/>
    <path class="st3" id="connector72pin" d="M38.5 39.8h4.3v1.4h-4.3z"/>
    <path class="st3" id="connector73pin" d="M38.5 42.6h4.3V44h-4.3z"/>
    <path class="st3" id="connector74pin" d="M38.5 45.4h4.3v1.4h-4.3z"/>
    <path class="st3" id="connector75pin" d="M38.5 48.2h4.3v1.4h-4.3z"/>
    <path class="st3" id="connector76pin" d="M47 20.1h26.9v26.6H47z"/>
    <g transform="translate(148.585 61.442) scale(3.3911)" id="g7917">
      <g id="g7915">
        <g id="g7913">
          <g id="tqfn48_7mm">
            <path id="rect5919" fill="#333" d="M-31.9-14.1h11.8v11.7h-11.8z"/>
          </g>
        </g>
      </g>
    </g>
  </g>
  <g id="g291">
    <path d="M20.7 43h1.5" class="st8" id="path25141"/>
    <path d="M22.1 43l.2 18.7" class="st8" id="path25143"/>
    <path d="M22.3 61.7h-1.5" class="st8" id="path25145"/>
    <path d="M4.9 43.2H3.4" class="st8" id="path25147"/>
    <path d="M3.4 43.2l.2 18.7" class="st8" id="path25149"/>
    <path d="M3.6 61.9h1.5" class="st8" id="path25151"/>
    <path d="M20.9 43v2.5V43m-.6 0v1.9V43m1.9 0v3.7l-1.9-1.9v-1.9l1.9.1" class="st8" id="path25153"/>
    <path d="M15 41.4h4.2l.1 4.9h-4.2l-.1-4.9z" class="st3" id="path25577"/>
    <path d="M6.4 41.5h4.2l.1 4.9H6.5l-.1-4.9z" class="st3" id="path25579"/>
    <path d="M6.6 58.7h4.2v4.9H6.6v-4.9z" class="st3" id="path25581"/>
    <path d="M15.2 58.6h4.2l.1 4.9h-4.2l-.1-4.9z" class="st3" id="path25583"/>
    <path d="M21.4 43.8l.1 4.9-4.9.1v-4.9l4.8-.1z" class="st9" id="path26079"/>
    <path d="M4.4 61.2L4.2 44l14.7-.1c1 1 1.5 1.5 2.5 2.4l.2 14.7-17.2.2z" id="path26081"/>
    <path d="M20.3 52.4c0 4.1-3.2 7.4-7.3 7.4s-7.4-3.2-7.4-7.3 3.2-7.4 7.3-7.4c4 0 7.3 3.2 7.4 7.3" id="path26083" fill="#c8c8c8"/>
    <path d="M14.8 49.5h4.8c-.3-.7-.8-1.4-1.3-2h-3.5v-2.2c-.6-.2-1.3-.3-2-.3l.1 8.4-7.3.1c.1.7.3 1.4.5 2l6.7-.1v4.4c.7 0 1.3-.1 2-.3v-10z" class="st9" id="NEOPIXEL1"/>
    <path d="M18.3 49.9v3.9h-2.9v-3.9h2.9z" id="path26087" fill="#1e1432"/>
  </g>
  <path id="rect293" fill="#7a7a7a" d="M100.5 1.6h47v47h-47z"/>
  <path id="rect295" fill="#1e1d1a" d="M210.5 5.6h20v20h-20z"/>
  <g id="g325">
    <g transform="translate(-.001 -2.981) scale(2.36354)" id="g16438">
      <g id="g16442">
        <path d="M77.5 11.7V7.2" class="st14" id="line16446"/>
        <path d="M68.2 11.7V7.2" class="st14" id="line16448"/>
        <path d="M74 12.4h-2.3" class="st14" id="line16450"/>
      </g>
    </g>
    <g transform="rotate(90 83.977 99.425) scale(2.36354)" id="g4978">
      <g id="g16676">
        <path d="M-.3 1.3v1.6h-3.4V1.3h3.4z" class="st3" id="connector76pin_1_"/>
      </g>
    </g>
    <g transform="rotate(90 83.977 105.79) scale(2.36354)" id="g4982">
      <g id="g16679">
        <path d="M-3 6.6v1.6h-3.4V6.6H-3z" class="st3" id="connector77pin"/>
      </g>
    </g>
    <g transform="rotate(90 83.977 112.154) scale(2.36354)" id="g4986">
      <g id="g16682">
        <path d="M-5.7 12v1.6h-3.4V12h3.4z" class="st3" id="connector78pin"/>
      </g>
    </g>
    <g transform="rotate(90 101.397 112.154) scale(2.36354)" id="g4990">
      <g id="g16685">
        <path d="M9 19.4V21H5.6v-1.6H9z" class="st3" id="connector79pin"/>
      </g>
    </g>
    <g transform="rotate(90 101.398 99.425) scale(2.36354)" id="g4994">
      <g id="g16688">
        <path d="M14.4 8.7v1.6H11V8.7h3.4z" class="st3" id="connector80pin"/>
      </g>
    </g>
    <g transform="translate(81.482 95.254) scale(2.36354)" id="g5146">
      <g transform="rotate(90 4.11 3.827)" id="sot23-5">
        <g id="g16910">
          <g id="g16912">
            <path d="M-28-33.7v1.1h-7.7v-1.1h7.7z" class="st4" id="rect16914"/>
            <path d="M-28-28.3v1.1h-7.7v-1.1h7.7z" class="st4" id="rect16916"/>
            <path d="M-32.6-31v1.1h-3.1V-31h3.1z" class="st4" id="rect16918"/>
            <path d="M-29.6-34.5v8.2h-4.5v-8.2h4.5z" class="st15" id="rect16920"/>
          </g>
        </g>
      </g>
    </g>
  </g>
  <g id="g348">
    <g transform="translate(-.001 -2.981) scale(2.36354)" id="g10264">
      <g id="g10268">
        <path d="M81 31.4l-.8-1.9" class="st16" id="line10272"/>
        <path d="M80.3 29.5h1.5" class="st16" id="line10274"/>
        <path d="M81.8 29.5l-.8 1.9" class="st16" id="line10276"/>
        <path d="M79.5 33v-5.1" class="st17" id="line10278"/>
        <path d="M79.5 27.9h3.1" class="st17" id="line10280"/>
        <path d="M82.6 27.9V33" class="st17" id="line10282"/>
        <path d="M82.6 33h-3.1" class="st17" id="line10284"/>
      </g>
    </g>
    <g transform="translate(220.736 245.488) scale(2.36354)" id="g4772">
      <g id="g16518">
        <path d="M13.5 76.9v1.7h-2.3v-1.7h2.3z" class="st3" id="connector16pin"/>
      </g>
    </g>
    <g transform="translate(264.618 245.488) scale(2.36354)" id="g4776">
      <g id="g16521">
        <path d="M32.1 70.7v1.7h-2.3v-1.7h2.3z" class="st3" id="connector17pin"/>
      </g>
    </g>
    <g transform="translate(109.278 115.726) scale(2.36354)" id="g5075">
      <g transform="rotate(180 5.103 2.338)" id="sod-123fl">
        <g id="g16802">
          <path d="M-23.8 21.1v6.8h-1.6v-6.8h1.6z" class="st4" id="rect3"/>
          <path d="M-23 21.9V27h-3.1v-5.1h3.1z" class="st15" id="rect5"/>
          <path d="M-23 22.4v.9h-3.1v-.9h3.1z" id="rect3341" fill="#4d4d4d"/>
        </g>
      </g>
    </g>
  </g>
  <g transform="translate(-.001 -2.981) scale(2.36354)" id="g16438_1_">
    <g id="g16442_1_">
      <path d="M90.2 27.4H87" class="st14" id="line16446_1_"/>
      <path d="M90.2 34H87" class="st14" id="line16448_1_"/>
      <path d="M90.7 29.9v1.6" class="st14" id="line16450_1_"/>
    </g>
  </g>
  <g transform="rotate(90 83.977 105.79) scale(2.36354)" id="g4982_1_">
    <g id="g16679_1_">
      <path d="M19.6-6.9h1.1v2.4h-1.1v-2.4z" class="st3" id="connector77pin_1_"/>
    </g>
  </g>
  <g transform="rotate(90 101.397 112.154) scale(2.36354)" id="g4990_1_">
    <g id="g16685_1_">
      <path d="M26.2-2.1h1.1V.3h-1.1v-2.4z" class="st3" id="connector79pin_1_"/>
    </g>
  </g>
  <g transform="rotate(90 101.398 99.425) scale(2.36354)" id="g4994_1_">
    <g id="g16688_1_">
      <path d="M27.8-7.5h1.1v2.4h-1.1v-2.4z" class="st3" id="connector80pin_1_"/>
    </g>
  </g>
  <g transform="translate(81.482 95.254) scale(2.36354)" id="g5146_1_">
    <g transform="rotate(90 4.11 3.827)" id="sot23-5_1_">
      <g id="g16910_1_">
        <g id="g16912_1_">
          <path d="M-12.9-48.9h.8v5.4h-.8v-5.4z" class="st4" id="rect16914_1_"/>
          <path d="M-9.1-48.9h.8v5.4h-.8v-5.4z" class="st4" id="rect16916_1_"/>
          <path d="M-11-45.7h.8v2.2h-.8v-2.2z" class="st4" id="rect16918_1_"/>
          <path d="M-13.5-47.8h5.8v3.2h-5.8v-3.2z" class="st15" id="rect16920_1_"/>
        </g>
      </g>
    </g>
  </g>
  <circle r="6.4" cy="75.4" cx="10.4" class="st19" id="D9"/>
  <circle r="6.4" cy="75.4" cx="28.4" class="st19" id="GND"/>
  <circle r="6.4" cy="75.4" cx="46.4" class="st19" id="SWCLK"/>
  <circle r="6.4" cy="75.4" cx="64.4" class="st19" id="SWDIO"/>
  <circle r="6.4" cy="75.4" cx="82.4" class="st19" id="3V"/>
  <circle r="6.4" cy="75.4" cx="100.4" class="st19" id="D5"/>
  <circle r="6.4" cy="75.4" cx="118.4" class="st19" id="D6"/>
  <circle r="6.4" cy="75.4" cx="136.4" class="st19" id="D7"/>
  <circle r="6.4" cy="75.4" cx="154.4" class="st19" id="D8"/>
  <circle r="6.4" cy="75.4" cx="172.4" class="st19" id="VDD"/>
</svg>
