<?xml version="1.0" encoding="UTF-8" standalone="no"?>
<svg
   xmlns:dc="http://purl.org/dc/elements/1.1/"
   xmlns:cc="http://creativecommons.org/ns#"
   xmlns:rdf="http://www.w3.org/1999/02/22-rdf-syntax-ns#"
   xmlns:svg="http://www.w3.org/2000/svg"
   xmlns="http://www.w3.org/2000/svg"
   xml:space="preserve"
   style="enable-background:new 0 0 234.6 85;"
   viewBox="0 0 234.6 85"
   y="0px"
   x="0px"
   id="Layer_1"
   version="1.1"><metadata
   id="metadata387"><rdf:RDF><cc:Work
       rdf:about=""><dc:format>image/svg+xml</dc:format><dc:type
         rdf:resource="http://purl.org/dc/dcmitype/StillImage" /><dc:title></dc:title></cc:Work></rdf:RDF></metadata><defs
   id="defs385" />
<style
   id="style2"
   type="text/css">
	.st0{fill:#005911;}
	.st1{fill:none;stroke:#FFFFFF;stroke-width:0.36;stroke-linecap:round;}
	.st2{fill:none;stroke:#FFFFFF;stroke-width:0.36;}
	.st3{fill:#9A916C;}
	.st4{fill:#DCDCDC;}
	.st5{fill:#1E1E1E;}
	.st6{fill:#B4B4B4;}
	.st7{fill:#333333;}
	.st8{fill:none;stroke:#FFFFFF;stroke-width:0.6243;stroke-linecap:round;}
	.st9{fill:#FFFFFF;}
	.st10{fill:#C8C8C8;}
	.st11{fill:#1E1432;}
	.st12{fill:#7A7A7A;}
	.st13{fill:#1E1D1A;}
	.st14{stroke:#FFFFFF;stroke-width:0.576;stroke-linecap:round;}
	.st15{fill:#303030;}
	.st16{stroke:#FFFFFF;stroke-width:0.432;stroke-linecap:round;}
	.st17{stroke:#FFFFFF;stroke-width:0.36;stroke-linecap:round;}
	.st18{fill:#4D4D4D;}
	.st19{fill:none;stroke:#9A916C;stroke-width:3.251;}
</style>
<rect
   id="rect4"
   height="17"
   width="20"
   y="27.6"
   x="214.5" />
<path
   id="path6"
   d="M0.5-0.4v85h230v-85H0.5z M10.4,81.8c-3.6,0-6.4-2.9-6.4-6.4S6.9,69,10.4,69c3.6,0,6.4,2.9,6.4,6.4  S14,81.8,10.4,81.8z M28.4,81.8c-3.6,0-6.4-2.9-6.4-6.4s2.9-6.4,6.4-6.4c3.6,0,6.4,2.9,6.4,6.4S32,81.8,28.4,81.8z M46.4,81.8  c-3.6,0-6.4-2.9-6.4-6.4s2.9-6.4,6.4-6.4c3.6,0,6.4,2.9,6.4,6.4S50,81.8,46.4,81.8z M64.4,81.8c-3.6,0-6.4-2.9-6.4-6.4  s2.9-6.4,6.4-6.4c3.6,0,6.4,2.9,6.4,6.4S68,81.8,64.4,81.8z M82.4,81.8c-3.6,0-6.4-2.9-6.4-6.4s2.9-6.4,6.4-6.4  c3.6,0,6.4,2.9,6.4,6.4S86,81.8,82.4,81.8z M100.4,81.8c-3.6,0-6.4-2.9-6.4-6.4s2.9-6.4,6.4-6.4c3.6,0,6.4,2.9,6.4,6.4  S104,81.8,100.4,81.8z M118.4,81.8c-3.6,0-6.4-2.9-6.4-6.4s2.9-6.4,6.4-6.4c3.6,0,6.4,2.9,6.4,6.4S122,81.8,118.4,81.8z M136.4,81.8  c-3.6,0-6.4-2.9-6.4-6.4s2.9-6.4,6.4-6.4c3.6,0,6.4,2.9,6.4,6.4S140,81.8,136.4,81.8z M154.4,81.8c-3.6,0-6.4-2.9-6.4-6.4  s2.9-6.4,6.4-6.4c3.6,0,6.4,2.9,6.4,6.4S158,81.8,154.4,81.8z M172.4,81.8c-3.6,0-6.4-2.9-6.4-6.4s2.9-6.4,6.4-6.4  c3.6,0,6.4,2.9,6.4,6.4S176,81.8,172.4,81.8z"
   class="st0" />
<g
   transform="matrix(3.3910969,0,0,3.3910969,-3.7777963,0.54469125)"
   id="g5397">
	<title
   id="title5367">element:SW1</title>
	<g
   id="g5395">
		<title
   id="title5369">package:KMR2</title>
		<line
   y2="8.8"
   x2="7.3"
   y1="1.7"
   x1="7.3"
   class="st1"
   id="line5371" />
		<line
   y2="8.8"
   x2="2.5"
   y1="8.8"
   x1="7.3"
   class="st1"
   id="line5373" />
		<line
   y2="1.7"
   x2="2.5"
   y1="8.8"
   x1="2.5"
   class="st1"
   id="line5375" />
		<line
   y2="1.7"
   x2="7.3"
   y1="1.7"
   x1="2.5"
   class="st1"
   id="line5377" />
		<path
   d="M4.6,3.4c-0.6,0-1,0.5-1,1"
   class="st2"
   id="path5379" />
		<line
   y2="3.4"
   x2="5.2"
   y1="3.4"
   x1="4.6"
   class="st1"
   id="line5381" />
		<path
   d="M6.3,4.4c0-0.6-0.5-1-1-1"
   class="st2"
   id="path5383" />
		<line
   y2="6.1"
   x2="6.3"
   y1="4.4"
   x1="6.3"
   class="st1"
   id="line5385" />
		<path
   d="M5.2,7.1c0.6,0,1-0.5,1-1"
   class="st2"
   id="path5387" />
		<line
   y2="7.1"
   x2="4.6"
   y1="7.1"
   x1="5.2"
   class="st1"
   id="line5389" />
		<path
   d="M3.5,6.1c0,0.6,0.5,1,1,1"
   class="st2"
   id="path5391" />
		<line
   y2="4.4"
   x2="3.5"
   y1="6.1"
   x1="3.5"
   class="st1"
   id="line5393" />
	</g>
</g>
<g
   transform="matrix(0,3.3910969,-3.3910969,0,404.73747,-201.04992)"
   id="g7616">
	<g
   id="g7614">
		<g
   id="g7612">
			<g
   id="g5761">
				
					<rect
   height="1.7"
   width="1.7"
   class="st3"
   transform="matrix(2.535182e-06 1 -1 2.535182e-06 182.3243 46.0991)"
   y="113.4"
   x="67.3"
   id="connector128pin" />
			</g>
		</g>
	</g>
</g>
<g
   transform="matrix(0,3.3910969,-3.3910969,0,389.35885,-185.6696)"
   id="g7624">
	<g
   id="g7622">
		<g
   id="g7620">
			<g
   id="g5764">
				
					<rect
   height="1.7"
   width="1.7"
   class="st3"
   transform="matrix(2.535182e-06 1 -1 2.535182e-06 175.975 48.8205)"
   y="111.5"
   x="62.7"
   id="connector129pin" />
			</g>
		</g>
	</g>
</g>
<g
   transform="matrix(0,3.3910969,-3.3910969,0,366.28583,-239.50021)"
   id="g7632">
	<g
   id="g7630">
		<g
   id="g7628">
			<g
   id="g5767">
				
					<rect
   height="1.7"
   width="1.7"
   class="st3"
   transform="matrix(2.535182e-06 1 -1 2.535182e-06 175.5209 30.225)"
   y="102"
   x="71.8"
   id="connector130pin" />
			</g>
		</g>
	</g>
</g>
<g
   transform="matrix(0,3.3910969,-3.3910969,0,350.9072,-224.11989)"
   id="g7640">
	<g
   id="g7638">
		<g
   id="g7636">
			<g
   id="g5770">
				
					<rect
   height="1.7"
   width="1.7"
   class="st3"
   transform="matrix(2.535182e-06 1 -1 2.535182e-06 169.1716 32.9464)"
   y="100.2"
   x="67.3"
   id="connector131pin" />
			</g>
		</g>
	</g>
</g>
<g
   transform="matrix(0,3.3910969,-3.3910969,0,371.71836,-213.80553)"
   id="g7648">
	<g
   id="g7646">
		<g
   id="g7644">
			<g
   id="g5773">
				<path
   d="M67.8,105.4L67.8,105.4c0.5,0,0.9,0.4,0.9,0.9v0c0,0.5-0.4,0.9-0.9,0.9l0,0      c-0.5,0-0.9-0.4-0.9-0.9v0C67,105.8,67.4,105.4,67.8,105.4z"
   class="st3"
   id="connector132pin" />
			</g>
		</g>
	</g>
</g>
<g
   transform="matrix(3.3910969,0,0,3.3910969,271.9584,70.360594)"
   id="g8036">
	<g
   id="g8034">
		<g
   id="g8032">
			<g
   id="kmr2">
				<g
   transform="rotate(90,6.37801,4.25199)"
   id="g8029">
					<g
   id="g8027">
						<g
   id="g8025">
							<g
   id="g5985">
								<g
   id="g5983">
									<polygon
   points="-17,88.8 -16.2,88.8 -16.2,89.6 -10.2,89.6 -10.2,88.8 -9.4,88.8 -9.4,88            -10.2,88 -10.2,86.1 -9.4,86.1 -9.4,85.3 -10.2,85.3 -10.2,84.5 -16.2,84.5 -16.2,85.3 -17,85.3 -17,86.1 -16.2,86.1            -16.2,88 -17,88          "
   class="st4"
   id="polygon5975" />
									<circle
   r="1.5"
   cy="87"
   cx="-13.2"
   class="st5"
   id="circle5977" />
									
										<rect
   height="0.3"
   width="5.1"
   class="st6"
   transform="matrix(2.535182e-06 1 -1 2.535182e-06 70.7869 103.3078)"
   y="86.9"
   x="-18.8"
   id="rect5979" />
									
										<rect
   height="0.3"
   width="5.1"
   class="st6"
   transform="matrix(2.535182e-06 1 -1 2.535182e-06 76.91 97.1848)"
   y="86.9"
   x="-12.7"
   id="rect5981" />
								</g>
							</g>
						</g>
					</g>
				</g>
			</g>
		</g>
	</g>
</g>
<g
   id="g273">
	<g
   transform="matrix(3.3910969,0,0,3.3910969,-3.7777963,0.54469125)"
   id="g5241">
		<title
   id="title5217">element:IC2</title>
		<g
   id="g5239">
			<title
   id="title5219">package:TQFN48_7MM</title>
			<line
   y2="3.7"
   x2="12.9"
   y1="3.7"
   x1="13.8"
   class="st1"
   id="line5221" />
			<line
   y2="4.6"
   x2="12.9"
   y1="3.7"
   x1="12.9"
   class="st1"
   id="line5223" />
			<line
   y2="3.7"
   x2="25"
   y1="3.7"
   x1="24.1"
   class="st1"
   id="line5225" />
			<line
   y2="4.6"
   x2="25"
   y1="3.7"
   x1="25"
   class="st1"
   id="line5227" />
			<line
   y2="15.7"
   x2="25"
   y1="14.8"
   x1="25"
   class="st1"
   id="line5229" />
			<line
   y2="15.7"
   x2="24.1"
   y1="15.7"
   x1="25"
   class="st1"
   id="line5231" />
			<g
   id="g5237">
				<title
   id="title5233">polygon</title>
				<path
   d="M13.8,15.9h-1.1v-1.1L13.8,15.9 M12.7,15.8h1H12.7       M12.7,15.6h0.8H12.7 M12.7,15.4h0.6H12.7 M12.7,15.2h0.4H12.7"
   class="st1"
   id="path5235" />
			</g>
		</g>
	</g>
	<g
   transform="matrix(0,-3.3910969,3.3910969,0,30.486186,290.83988)"
   id="g6284">
		<g
   id="g6282">
			<g
   id="g6280">
				<g
   id="g5561">
					
						<rect
   height="1.3"
   width="0.4"
   class="st3"
   transform="matrix(-2.535182e-06 -1 1 -2.535182e-06 65.9151 74.3314)"
   y="3.6"
   x="69.9"
   id="connector28pin" />
				</g>
			</g>
		</g>
	</g>
	<g
   transform="matrix(0,-3.3910969,3.3910969,0,35.292388,295.64506)"
   id="g6292">
		<g
   id="g6290">
			<g
   id="g6288">
				<g
   id="g5564">
					
						<rect
   height="1.3"
   width="0.4"
   class="st3"
   transform="matrix(-2.535182e-06 -1 1 -2.535182e-06 67.907 75.1738)"
   y="3"
   x="71.3"
   id="connector29pin" />
				</g>
			</g>
		</g>
	</g>
	<g
   transform="matrix(0,-3.3910969,3.3910969,0,40.098928,300.45262)"
   id="g6300">
		<g
   id="g6298">
			<g
   id="g6296">
				<g
   id="g5567">
					
						<rect
   height="1.3"
   width="0.4"
   class="st3"
   transform="matrix(-2.535182e-06 -1 1 -2.535182e-06 69.8993 76.0165)"
   y="2.4"
   x="72.7"
   id="connector30pin" />
				</g>
			</g>
		</g>
	</g>
	<g
   transform="matrix(0,-3.3910969,3.3910969,0,44.90513,305.25747)"
   id="g6308">
		<g
   id="g6306">
			<g
   id="g6304">
				<g
   id="g5570">
					
						<rect
   height="1.3"
   width="0.4"
   class="st3"
   transform="matrix(-2.535182e-06 -1 1 -2.535182e-06 71.8913 76.8589)"
   y="1.9"
   x="74.2"
   id="connector31pin" />
				</g>
			</g>
		</g>
	</g>
	<g
   transform="matrix(0,-3.3910969,3.3910969,0,49.711332,310.06503)"
   id="g6316">
		<g
   id="g6314">
			<g
   id="g6312">
				<g
   id="g5573">
					
						<rect
   height="1.3"
   width="0.4"
   class="st3"
   transform="matrix(-2.535182e-06 -1 1 -2.535182e-06 73.8835 77.7016)"
   y="1.3"
   x="75.6"
   id="connector32pin" />
				</g>
			</g>
		</g>
	</g>
	<g
   transform="matrix(0,-3.3910969,3.3910969,0,54.517533,314.87021)"
   id="g6324">
		<g
   id="g6322">
			<g
   id="g6320">
				<g
   id="g5576">
					
						<rect
   height="1.3"
   width="0.4"
   class="st3"
   transform="matrix(-2.535182e-06 -1 1 -2.535182e-06 75.8754 78.544)"
   y="0.7"
   x="77"
   id="connector33pin" />
				</g>
			</g>
		</g>
	</g>
	<g
   transform="matrix(0,-3.3910969,3.3910969,0,59.323735,319.67743)"
   id="g6332">
		<g
   id="g6330">
			<g
   id="g6328">
				<g
   id="g5579">
					
						<rect
   height="1.3"
   width="0.4"
   class="st3"
   transform="matrix(-2.535182e-06 -1 1 -2.535182e-06 77.8676 79.3867)"
   y="0.1"
   x="78.4"
   id="connector34pin" />
				</g>
			</g>
		</g>
	</g>
	<g
   transform="matrix(0,-3.3910969,3.3910969,0,64.130276,324.48261)"
   id="g6340">
		<g
   id="g6338">
			<g
   id="g6336">
				<g
   id="g5582">
					
						<rect
   height="1.3"
   width="0.4"
   class="st3"
   transform="matrix(-2.535182e-06 -1 1 -2.535182e-06 79.8596 80.2291)"
   y="-0.4"
   x="79.8"
   id="connector35pin" />
				</g>
			</g>
		</g>
	</g>
	<g
   transform="matrix(0,-3.3910969,3.3910969,0,68.936477,329.29017)"
   id="g6348">
		<g
   id="g6346">
			<g
   id="g6344">
				<g
   id="g5585">
					
						<rect
   height="1.3"
   width="0.4"
   class="st3"
   transform="matrix(-2.535182e-06 -1 1 -2.535182e-06 81.8519 81.0718)"
   y="-1"
   x="81.3"
   id="connector36pin" />
				</g>
			</g>
		</g>
	</g>
	<g
   transform="matrix(0,-3.3910969,3.3910969,0,73.742679,334.09502)"
   id="g6356">
		<g
   id="g6354">
			<g
   id="g6352">
				<g
   id="g5588">
					
						<rect
   height="1.3"
   width="0.4"
   class="st3"
   transform="matrix(-2.535182e-06 -1 1 -2.535182e-06 83.8438 81.9142)"
   y="-1.6"
   x="82.7"
   id="connector37pin" />
				</g>
			</g>
		</g>
	</g>
	<g
   transform="matrix(0,-3.3910969,3.3910969,0,78.54888,338.90258)"
   id="g6364">
		<g
   id="g6362">
			<g
   id="g6360">
				<g
   id="g5591">
					
						<rect
   height="1.3"
   width="0.4"
   class="st3"
   transform="matrix(-2.535182e-06 -1 1 -2.535182e-06 85.836 82.7569)"
   y="-2.2"
   x="84.1"
   id="connector38pin" />
				</g>
			</g>
		</g>
	</g>
	<g
   transform="matrix(0,-3.3910969,3.3910969,0,83.355082,343.70674)"
   id="g6372">
		<g
   id="g6370">
			<g
   id="g6368">
				<g
   id="g5594">
					
						<rect
   height="1.3"
   width="0.4"
   class="st3"
   transform="matrix(-2.535182e-06 -1 1 -2.535182e-06 87.8278 83.5992)"
   y="-2.7"
   x="85.5"
   id="connector39pin" />
				</g>
			</g>
		</g>
	</g>
	<g
   transform="matrix(-3.3910969,0,0,-3.3910969,440.4559,242.63679)"
   id="g6380">
		<g
   id="g6378">
			<g
   id="g6376">
				<g
   id="g5597">
					<rect
   height="0.4"
   width="1.3"
   class="st3"
   y="56.9"
   x="105.6"
   id="connector40pin" />
				</g>
			</g>
		</g>
	</g>
	<g
   transform="matrix(-3.3910969,0,0,-3.3910969,440.4559,233.02439)"
   id="g6388">
		<g
   id="g6386">
			<g
   id="g6384">
				<g
   id="g5600">
					<rect
   height="0.4"
   width="1.3"
   class="st3"
   y="54.9"
   x="105.6"
   id="connector41pin" />
				</g>
			</g>
		</g>
	</g>
	<g
   transform="matrix(-3.3910969,0,0,-3.3910969,440.4559,223.41165)"
   id="g6396">
		<g
   id="g6394">
			<g
   id="g6392">
				<g
   id="g5603">
					<rect
   height="0.4"
   width="1.3"
   class="st3"
   y="52.9"
   x="105.6"
   id="connector42pin" />
				</g>
			</g>
		</g>
	</g>
	<g
   transform="matrix(-3.3910969,0,0,-3.3910969,440.4559,213.79925)"
   id="g6404">
		<g
   id="g6402">
			<g
   id="g6400">
				<g
   id="g5606">
					<rect
   height="0.4"
   width="1.3"
   class="st3"
   y="50.9"
   x="105.6"
   id="connector43pin" />
				</g>
			</g>
		</g>
	</g>
	<g
   transform="matrix(-3.3910969,0,0,-3.3910969,440.4559,204.18684)"
   id="g6412">
		<g
   id="g6410">
			<g
   id="g6408">
				<g
   id="g5609">
					<rect
   height="0.4"
   width="1.3"
   class="st3"
   y="48.9"
   x="105.6"
   id="connector44pin" />
				</g>
			</g>
		</g>
	</g>
	<g
   transform="matrix(-3.3910969,0,0,-3.3910969,440.4559,194.5741)"
   id="g6420">
		<g
   id="g6418">
			<g
   id="g6416">
				<g
   id="g5612">
					<rect
   height="0.4"
   width="1.3"
   class="st3"
   y="46.9"
   x="105.6"
   id="connector45pin" />
				</g>
			</g>
		</g>
	</g>
	<g
   transform="matrix(-3.3910969,0,0,-3.3910969,440.4559,184.9617)"
   id="g6428">
		<g
   id="g6426">
			<g
   id="g6424">
				<g
   id="g5615">
					<rect
   height="0.4"
   width="1.3"
   class="st3"
   y="44.9"
   x="105.6"
   id="connector46pin" />
				</g>
			</g>
		</g>
	</g>
	<g
   transform="matrix(-3.3910969,0,0,-3.3910969,440.4559,175.34895)"
   id="g6436">
		<g
   id="g6434">
			<g
   id="g6432">
				<g
   id="g5618">
					<rect
   height="0.4"
   width="1.3"
   class="st3"
   y="42.9"
   x="105.6"
   id="connector47pin" />
				</g>
			</g>
		</g>
	</g>
	<g
   transform="matrix(-3.3910969,0,0,-3.3910969,440.4559,165.73655)"
   id="g6444">
		<g
   id="g6442">
			<g
   id="g6440">
				<g
   id="g5621">
					<rect
   height="0.4"
   width="1.3"
   class="st3"
   y="40.9"
   x="105.6"
   id="connector48pin" />
				</g>
			</g>
		</g>
	</g>
	<g
   transform="matrix(-3.3910969,0,0,-3.3910969,440.4559,156.12415)"
   id="g6452">
		<g
   id="g6450">
			<g
   id="g6448">
				<g
   id="g5624">
					<rect
   height="0.4"
   width="1.3"
   class="st3"
   y="38.9"
   x="105.6"
   id="connector49pin" />
				</g>
			</g>
		</g>
	</g>
	<g
   transform="matrix(-3.3910969,0,0,-3.3910969,440.4559,146.51141)"
   id="g6460">
		<g
   id="g6458">
			<g
   id="g6456">
				<g
   id="g5627">
					<rect
   height="0.4"
   width="1.3"
   class="st3"
   y="36.9"
   x="105.6"
   id="connector50pin" />
				</g>
			</g>
		</g>
	</g>
	<g
   transform="matrix(-3.3910969,0,0,-3.3910969,440.4559,136.899)"
   id="g6468">
		<g
   id="g6466">
			<g
   id="g6464">
				<g
   id="g5630">
					<rect
   height="0.4"
   width="1.3"
   class="st3"
   y="34.9"
   x="105.6"
   id="connector51pin" />
				</g>
			</g>
		</g>
	</g>
	<g
   transform="matrix(0,3.3910969,-3.3910969,0,272.57829,-153.39551)"
   id="g6476">
		<g
   id="g6474">
			<g
   id="g6472">
				<g
   id="g5633">
					
						<rect
   height="1.3"
   width="0.4"
   class="st3"
   transform="matrix(2.535182e-06 1 -1 2.535182e-06 107.2048 8.6233)"
   y="57.3"
   x="49.1"
   id="connector52pin" />
				</g>
			</g>
		</g>
	</g>
	<g
   transform="matrix(0,3.3910969,-3.3910969,0,267.77344,-148.58931)"
   id="g6484">
		<g
   id="g6482">
			<g
   id="g6480">
				<g
   id="g5636">
					
						<rect
   height="1.3"
   width="0.4"
   class="st3"
   transform="matrix(2.535182e-06 1 -1 2.535182e-06 105.2129 9.4661)"
   y="56.7"
   x="47.7"
   id="connector53pin" />
				</g>
			</g>
		</g>
	</g>
	<g
   transform="matrix(0,3.3910969,-3.3910969,0,262.96589,-143.78311)"
   id="g6492">
		<g
   id="g6490">
			<g
   id="g6488">
				<g
   id="g5639">
					
						<rect
   height="1.3"
   width="0.4"
   class="st3"
   transform="matrix(2.535182e-06 1 -1 2.535182e-06 103.2207 10.3084)"
   y="56.1"
   x="46.2"
   id="connector54pin" />
				</g>
			</g>
		</g>
	</g>
	<g
   transform="matrix(0,3.3910969,-3.3910969,0,258.15833,-138.9769)"
   id="g6500">
		<g
   id="g6498">
			<g
   id="g6496">
				<g
   id="g5642">
					
						<rect
   height="1.3"
   width="0.4"
   class="st3"
   transform="matrix(2.535182e-06 1 -1 2.535182e-06 101.2285 11.1508)"
   y="55.6"
   x="44.8"
   id="connector55pin" />
				</g>
			</g>
		</g>
	</g>
	<g
   transform="matrix(0,3.3910969,-3.3910969,0,253.35348,-134.17036)"
   id="g6508">
		<g
   id="g6506">
			<g
   id="g6504">
				<g
   id="g5645">
					
						<rect
   height="1.3"
   width="0.4"
   class="st3"
   transform="matrix(2.535182e-06 1 -1 2.535182e-06 99.2365 11.9936)"
   y="55"
   x="43.4"
   id="connector56pin" />
				</g>
			</g>
		</g>
	</g>
	<g
   transform="matrix(0,3.3910969,-3.3910969,0,248.54592,-129.36416)"
   id="g6516">
		<g
   id="g6514">
			<g
   id="g6512">
				<g
   id="g5648">
					
						<rect
   height="1.3"
   width="0.4"
   class="st3"
   transform="matrix(2.535182e-06 1 -1 2.535182e-06 97.2443 12.836)"
   y="54.4"
   x="42"
   id="connector57pin" />
				</g>
			</g>
		</g>
	</g>
	<g
   transform="matrix(0,3.3910969,-3.3910969,0,243.74074,-124.55796)"
   id="g6524">
		<g
   id="g6522">
			<g
   id="g6520">
				<g
   id="g5651">
					
						<rect
   height="1.3"
   width="0.4"
   class="st3"
   transform="matrix(2.535182e-06 1 -1 2.535182e-06 95.2523 13.6787)"
   y="53.8"
   x="40.6"
   id="connector58pin" />
				</g>
			</g>
		</g>
	</g>
	<g
   transform="matrix(0,3.3910969,-3.3910969,0,238.93454,-119.75176)"
   id="g6532">
		<g
   id="g6530">
			<g
   id="g6528">
				<g
   id="g5654">
					
						<rect
   height="1.3"
   width="0.4"
   class="st3"
   transform="matrix(2.535182e-06 1 -1 2.535182e-06 93.2603 14.5212)"
   y="53.3"
   x="39.2"
   id="connector59pin" />
				</g>
			</g>
		</g>
	</g>
	<g
   transform="matrix(0,3.3910969,-3.3910969,0,234.12834,-114.94556)"
   id="g6540">
		<g
   id="g6538">
			<g
   id="g6536">
				<g
   id="g5657">
					
						<rect
   height="1.3"
   width="0.4"
   class="st3"
   transform="matrix(2.535182e-06 1 -1 2.535182e-06 91.2682 15.3638)"
   y="52.7"
   x="37.7"
   id="connector60pin" />
				</g>
			</g>
		</g>
	</g>
	<g
   transform="matrix(0,3.3910969,-3.3910969,0,229.32214,-110.13902)"
   id="g6548">
		<g
   id="g6546">
			<g
   id="g6544">
				<g
   id="g5660">
					
						<rect
   height="1.3"
   width="0.4"
   class="st3"
   transform="matrix(2.535182e-06 1 -1 2.535182e-06 89.2761 16.2064)"
   y="52.1"
   x="36.3"
   id="connector61pin" />
				</g>
			</g>
		</g>
	</g>
	<g
   transform="matrix(0,3.3910969,-3.3910969,0,224.51559,-105.33281)"
   id="g6556">
		<g
   id="g6554">
			<g
   id="g6552">
				<g
   id="g5663">
					
						<rect
   height="1.3"
   width="0.4"
   class="st3"
   transform="matrix(2.535182e-06 1 -1 2.535182e-06 87.284 17.0489)"
   y="51.5"
   x="34.9"
   id="connector62pin" />
				</g>
			</g>
		</g>
	</g>
	<g
   transform="matrix(0,3.3910969,-3.3910969,0,219.70939,-100.52661)"
   id="g6564">
		<g
   id="g6562">
			<g
   id="g6560">
				<g
   id="g5666">
					
						<rect
   height="1.3"
   width="0.4"
   class="st3"
   transform="matrix(2.535182e-06 1 -1 2.535182e-06 85.2919 17.8915)"
   y="51"
   x="33.5"
   id="connector63pin" />
				</g>
			</g>
		</g>
	</g>
	<rect
   height="1.4"
   width="4.3"
   class="st3"
   y="17.1"
   x="38.5"
   id="connector64pin" />
	<rect
   height="1.4"
   width="4.3"
   class="st3"
   y="20"
   x="38.5"
   id="connector65pin" />
	<rect
   height="1.4"
   width="4.3"
   class="st3"
   y="22.8"
   x="38.5"
   id="connector66pin" />
	<rect
   height="1.4"
   width="4.3"
   class="st3"
   y="25.6"
   x="38.5"
   id="connector67pin" />
	<rect
   height="1.4"
   width="4.3"
   class="st3"
   y="28.5"
   x="38.5"
   id="connector68pin" />
	<rect
   height="1.4"
   width="4.3"
   class="st3"
   y="31.3"
   x="38.5"
   id="connector69pin" />
	<rect
   height="1.4"
   width="4.3"
   class="st3"
   y="34.1"
   x="38.5"
   id="connector70pin" />
	<rect
   height="1.4"
   width="4.3"
   class="st3"
   y="36.9"
   x="38.5"
   id="connector71pin" />
	<rect
   height="1.4"
   width="4.3"
   class="st3"
   y="39.8"
   x="38.5"
   id="connector72pin" />
	<rect
   height="1.4"
   width="4.3"
   class="st3"
   y="42.6"
   x="38.5"
   id="connector73pin" />
	<rect
   height="1.4"
   width="4.3"
   class="st3"
   y="45.4"
   x="38.5"
   id="connector74pin" />
	<rect
   height="1.4"
   width="4.3"
   class="st3"
   y="48.2"
   x="38.5"
   id="connector75pin" />
	<rect
   height="26.6"
   width="26.9"
   class="st3"
   y="20.1"
   x="47"
   id="connector76pin" />
	<g
   transform="matrix(3.3910969,0,0,3.3910969,148.58536,61.442206)"
   id="g7917">
		<g
   id="g7915">
			<g
   id="g7913">
				<g
   id="tqfn48_7mm">
					<rect
   height="11.7"
   width="11.8"
   class="st7"
   y="-14.1"
   x="-31.9"
   id="rect5919" />
				</g>
			</g>
		</g>
	</g>
</g>
<g
   id="g291">
	<path
   d="M20.7,43l1.5,0"
   class="st8"
   id="path25141" />
	<path
   d="M22.1,43l0.2,18.7"
   class="st8"
   id="path25143" />
	<path
   d="M22.3,61.7l-1.5,0"
   class="st8"
   id="path25145" />
	<path
   d="M4.9,43.2l-1.5,0"
   class="st8"
   id="path25147" />
	<path
   d="M3.4,43.2l0.2,18.7"
   class="st8"
   id="path25149" />
	<path
   d="M3.6,61.9l1.5,0"
   class="st8"
   id="path25151" />
	<path
   d="M20.9,43l0,2.5L20.9,43 M20.3,43l0,1.9L20.3,43 M22.2,43   l0,3.7l-1.9-1.9l0-1.9L22.2,43"
   class="st8"
   id="path25153" />
	<path
   d="M15,41.4l4.2,0l0.1,4.9l-4.2,0L15,41.4z"
   class="st3"
   id="path25577" />
	<path
   d="M6.4,41.5l4.2,0l0.1,4.9l-4.2,0L6.4,41.5z"
   class="st3"
   id="path25579" />
	<path
   d="M6.6,58.7l4.2,0l0,4.9l-4.2,0L6.6,58.7z"
   class="st3"
   id="path25581" />
	<path
   d="M15.2,58.6l4.2,0l0.1,4.9l-4.2,0L15.2,58.6z"
   class="st3"
   id="path25583" />
	<path
   d="M21.4,43.8l0.1,4.9l-4.9,0.1l0-4.9L21.4,43.8z"
   class="st9"
   id="path26079" />
	<path
   d="M4.4,61.2L4.2,44l14.7-0.1c1,1,1.5,1.5,2.5,2.4L21.6,61L4.4,61.2z"
   id="path26081" />
	<path
   d="M20.3,52.4c0,4.1-3.2,7.4-7.3,7.4c-4.1,0-7.4-3.2-7.4-7.3   c0-4.1,3.2-7.4,7.3-7.4C16.9,45.1,20.2,48.3,20.3,52.4"
   class="st10"
   id="path26083" />
	<path
   d="M14.8,49.5l4.8,0   c-0.3-0.7-0.8-1.4-1.3-2l-3.5,0l0-2.2c-0.6-0.2-1.3-0.3-2-0.3l0.1,8.4l-7.3,0.1c0.1,0.7,0.3,1.4,0.5,2l6.7-0.1l0,4.4   c0.7,0,1.3-0.1,2-0.3L14.8,49.5z"
   class="st9"
   id="NEOPIXEL1" />
	<path
   d="M18.3,49.9l0,3.9l-2.9,0l0-3.9L18.3,49.9z"
   class="st11"
   id="path26087" />
</g>
<rect
   id="rect293"
   height="47"
   width="47"
   class="st12"
   y="1.6"
   x="100.5" />
<rect
   id="rect295"
   height="20"
   width="20"
   class="st13"
   y="5.6"
   x="210.5" />
<g
   id="g325">
	<g
   transform="matrix(2.3635406,0,0,2.3635406,-0.00132358,-2.981369)"
   id="g16438">
		<g
   id="g16442">
			<path
   d="M77.5,11.7l0-4.5"
   class="st14"
   id="line16446" />
			<path
   d="M68.2,11.7l0-4.5"
   class="st14"
   id="line16448" />
			<path
   d="M74,12.4l-2.3,0"
   class="st14"
   id="line16450" />
		</g>
	</g>
	<g
   transform="matrix(0,2.3635406,-2.3635406,0,183.4014,15.447631)"
   id="g4978">
		<g
   id="g16676">
			<path
   d="M-0.3,1.3l0,1.6l-3.4,0l0-1.6L-0.3,1.3z"
   class="st3"
   id="connector76pin_1_" />
		</g>
	</g>
	<g
   transform="matrix(0,2.3635406,-2.3635406,0,189.76594,21.812172)"
   id="g4982">
		<g
   id="g16679">
			<path
   d="M-3,6.6l0,1.6l-3.4,0l0-1.6L-3,6.6z"
   class="st3"
   id="connector77pin" />
		</g>
	</g>
	<g
   transform="matrix(0,2.3635406,-2.3635406,0,196.13049,28.177188)"
   id="g4986">
		<g
   id="g16682">
			<path
   d="M-5.7,12l0,1.6l-3.4,0l0-1.6L-5.7,12z"
   class="st3"
   id="connector78pin" />
		</g>
	</g>
	<g
   transform="matrix(0,2.3635406,-2.3635406,0,213.55119,10.756475)"
   id="g4990">
		<g
   id="g16685">
			<path
   d="M9,19.4L9,21l-3.4,0l0-1.6L9,19.4z"
   class="st3"
   id="connector79pin" />
		</g>
	</g>
	<g
   transform="matrix(0,2.3635406,-2.3635406,0,200.82212,-1.973082)"
   id="g4994">
		<g
   id="g16688">
			<path
   d="M14.4,8.7l0,1.6l-3.4,0l0-1.6L14.4,8.7z"
   class="st3"
   id="connector80pin" />
		</g>
	</g>
	<g
   transform="matrix(2.3635406,0,0,2.3635406,81.481744,95.253765)"
   id="g5146">
		<g
   transform="rotate(90,4.11,3.827)"
   id="sot23-5">
			<g
   id="g16910">
				<g
   id="g16912">
					<path
   d="M-28-33.7l0,1.1l-7.7,0l0-1.1L-28-33.7z"
   class="st4"
   id="rect16914" />
					<path
   d="M-28-28.3l0,1.1l-7.7,0l0-1.1L-28-28.3z"
   class="st4"
   id="rect16916" />
					<path
   d="M-32.6-31l0,1.1l-3.1,0l0-1.1L-32.6-31z"
   class="st4"
   id="rect16918" />
					<path
   d="M-29.6-34.5l0,8.2l-4.5,0l0-8.2L-29.6-34.5z"
   class="st15"
   id="rect16920" />
				</g>
			</g>
		</g>
	</g>
</g>
<g
   id="g348">
	<g
   transform="matrix(2.3635406,0,0,2.3635406,-0.00132358,-2.981369)"
   id="g10264">
		<g
   id="g10268">
			<path
   d="M81,31.4l-0.8-1.9"
   class="st16"
   id="line10272" />
			<path
   d="M80.3,29.5h1.5"
   class="st16"
   id="line10274" />
			<path
   d="M81.8,29.5L81,31.4"
   class="st16"
   id="line10276" />
			<path
   d="M79.5,33v-5.1"
   class="st17"
   id="line10278" />
			<path
   d="M79.5,27.9h3.1"
   class="st17"
   id="line10280" />
			<path
   d="M82.6,27.9V33"
   class="st17"
   id="line10282" />
			<path
   d="M82.6,33h-3.1"
   class="st17"
   id="line10284" />
		</g>
	</g>
	<g
   transform="matrix(-2.3635406,0,0,-2.3635406,220.73589,245.4882)"
   id="g4772">
		<g
   id="g16518">
			<path
   d="M13.5,76.9v1.7h-2.3v-1.7H13.5z"
   class="st3"
   id="connector16pin" />
		</g>
	</g>
	<g
   transform="matrix(-2.3635406,0,0,-2.3635406,264.61834,245.4882)"
   id="g4776">
		<g
   id="g16521">
			<path
   d="M32.1,70.7v1.7h-2.3v-1.7H32.1z"
   class="st3"
   id="connector17pin" />
		</g>
	</g>
	<g
   transform="matrix(2.3635406,0,0,2.3635406,109.2784,115.72581)"
   id="g5075">
		<g
   transform="rotate(180,5.1025,2.3385)"
   id="sod-123fl">
			<g
   id="g16802">
				<path
   d="M-23.8,21.1v6.8h-1.6v-6.8H-23.8z"
   class="st4"
   id="rect3" />
				<path
   d="M-23,21.9V27h-3.1v-5.1H-23z"
   class="st15"
   id="rect5" />
				<path
   d="M-23,22.4v0.9h-3.1v-0.9H-23z"
   class="st18"
   id="rect3341" />
			</g>
		</g>
	</g>
</g>
<g
   transform="matrix(2.3635406,0,0,2.3635406,-0.00132358,-2.981369)"
   id="g16438_1_">
	<g
   id="g16442_1_">
		<path
   d="M90.2,27.4H87"
   class="st14"
   id="line16446_1_" />
		<path
   d="M90.2,34H87"
   class="st14"
   id="line16448_1_" />
		<path
   d="M90.7,29.9v1.6"
   class="st14"
   id="line16450_1_" />
	</g>
</g>
<g
   transform="matrix(0,2.3635406,-2.3635406,0,189.76594,21.812172)"
   id="g4982_1_">
	<g
   id="g16679_1_">
		<path
   d="M19.6-6.9h1.1v2.4h-1.1V-6.9z"
   class="st3"
   id="connector77pin_1_" />
	</g>
</g>
<g
   transform="matrix(0,2.3635406,-2.3635406,0,213.55119,10.756475)"
   id="g4990_1_">
	<g
   id="g16685_1_">
		<path
   d="M26.2-2.1h1.1v2.4h-1.1V-2.1z"
   class="st3"
   id="connector79pin_1_" />
	</g>
</g>
<g
   transform="matrix(0,2.3635406,-2.3635406,0,200.82212,-1.973082)"
   id="g4994_1_">
	<g
   id="g16688_1_">
		<path
   d="M27.8-7.5h1.1v2.4h-1.1V-7.5z"
   class="st3"
   id="connector80pin_1_" />
	</g>
</g>
<g
   transform="matrix(2.3635406,0,0,2.3635406,81.481744,95.253765)"
   id="g5146_1_">
	<g
   transform="rotate(90,4.11,3.827)"
   id="sot23-5_1_">
		<g
   id="g16910_1_">
			<g
   id="g16912_1_">
				<path
   d="M-12.9-48.9h0.8v5.4h-0.8V-48.9z"
   class="st4"
   id="rect16914_1_" />
				<path
   d="M-9.1-48.9h0.8v5.4h-0.8V-48.9z"
   class="st4"
   id="rect16916_1_" />
				<path
   d="M-11-45.7h0.8v2.2H-11V-45.7z"
   class="st4"
   id="rect16918_1_" />
				<path
   d="M-13.5-47.8h5.8v3.2h-5.8V-47.8z"
   class="st15"
   id="rect16920_1_" />
			</g>
		</g>
	</g>
</g>
<circle
   r="6.4"
   cy="75.4"
   cx="10.4"
   class="st19"
   id="D9" />
<circle
   r="6.4"
   cy="75.4"
   cx="28.4"
   class="st19"
   id="GND" />
<circle
   r="6.4"
   cy="75.4"
   cx="46.4"
   class="st19"
   id="SWCLK" />
<circle
   r="6.4"
   cy="75.4"
   cx="64.4"
   class="st19"
   id="SWDIO" />
<circle
   r="6.4"
   cy="75.4"
   cx="82.4"
   class="st19"
   id="3V" />
<circle
   r="6.4"
   cy="75.4"
   cx="100.4"
   class="st19"
   id="D5" />
<circle
   r="6.4"
   cy="75.4"
   cx="118.4"
   class="st19"
   id="D6" />
<circle
   r="6.4"
   cy="75.4"
   cx="136.4"
   class="st19"
   id="D7" />
<circle
   r="6.4"
   cy="75.4"
   cx="154.4"
   class="st19"
   id="D8" />
<circle
   r="6.4"
   cy="75.4"
   cx="172.4"
   class="st19"
   id="VDD" />
</svg>