<svg xmlns="http://www.w3.org/2000/svg" width="658.8" height="256.787" viewBox="0 0 658.8 256.787" version="1.1" xml:space="preserve" id="svg2460" clip-rule="evenodd" fill-rule="evenodd" stroke-linecap="square" stroke-miterlimit="10">
  <g transform="rotate(90 189.405 427.815) scale(2.6404)" id="g1267">
    <path d="M0 231.34a4.514 4.514 0 01-4.511-4.52c0-2.49 2.021-4.51 4.511-4.51 2.489 0 4.52 2.02 4.52 4.51 0 2.5-2.031 4.52-4.52 4.52m-83.36 0a4.513 4.513 0 01-4.51-4.52 4.51 4.51 0 014.51-4.51c2.5 0 4.519 2.02 4.519 4.51 0 2.5-2.019 4.52-4.519 4.52m3.059-211.81c0 1.57-1.269 2.84-2.84 2.84a2.838 2.838 0 01-2.839-2.84c0-1.57 1.27-2.84 2.839-2.84 1.571 0 2.84 1.27 2.84 2.84m0 13.73c0 1.57-1.269 2.84-2.84 2.84a2.836 2.836 0 110-5.67c1.571 0 2.84 1.27 2.84 2.83m0 13.74c0 1.57-1.269 2.84-2.84 2.84A2.838 2.838 0 01-85.98 47c0-1.57 1.27-2.84 2.839-2.84 1.571 0 2.84 1.27 2.84 2.84m0 13.74c0 1.56-1.269 2.84-2.84 2.84a2.844 2.844 0 01-2.839-2.84c0-1.57 1.27-2.84 2.839-2.84 1.571 0 2.84 1.27 2.84 2.84m0 13.73c0 1.57-1.269 2.84-2.84 2.84a2.838 2.838 0 01-2.839-2.84c0-1.57 1.27-2.84 2.839-2.84 1.571 0 2.84 1.27 2.84 2.84m0 13.74c0 1.57-1.269 2.84-2.84 2.84a2.838 2.838 0 01-2.839-2.84c0-1.57 1.27-2.84 2.839-2.84 1.571 0 2.84 1.27 2.84 2.84m0 13.73c0 1.57-1.269 2.84-2.84 2.84a2.838 2.838 0 01-2.839-2.84c0-1.56 1.27-2.84 2.839-2.84 1.571 0 2.84 1.28 2.84 2.84m0 13.74c0 1.57-1.269 2.84-2.84 2.84a2.838 2.838 0 01-2.839-2.84c0-1.57 1.27-2.84 2.839-2.84 1.571 0 2.84 1.27 2.84 2.84m0 13.74c0 1.56-1.269 2.83-2.84 2.83a2.836 2.836 0 110-5.67c1.571 0 2.84 1.27 2.84 2.84m0 13.73c0 1.57-1.269 2.84-2.84 2.84a2.838 2.838 0 01-2.839-2.84c0-1.57 1.27-2.84 2.839-2.84 1.571 0 2.84 1.27 2.84 2.84m0 13.74c0 1.56-1.269 2.84-2.84 2.84a2.844 2.844 0 01-2.839-2.84c0-1.57 1.27-2.84 2.839-2.84 1.571 0 2.84 1.27 2.84 2.84m0 13.73c0 1.57-1.269 2.84-2.84 2.84a2.838 2.838 0 01-2.839-2.84c0-1.57 1.27-2.84 2.839-2.84 1.571 0 2.84 1.27 2.84 2.84m0 13.74c0 1.57-1.269 2.84-2.84 2.84a2.838 2.838 0 01-2.839-2.84c0-1.57 1.27-2.84 2.839-2.84 1.571 0 2.84 1.27 2.84 2.84m0 13.73c0 1.57-1.269 2.84-2.84 2.84a2.838 2.838 0 01-2.839-2.84c0-1.56 1.27-2.84 2.839-2.84 1.571 0 2.84 1.28 2.84 2.84m0 13.74c0 1.57-1.269 2.84-2.84 2.84a2.838 2.838 0 01-2.839-2.84c0-1.57 1.27-2.84 2.839-2.84 1.571 0 2.84 1.27 2.84 2.84M-83.36.03c2.5 0 4.519 2.02 4.519 4.52 0 2.49-2.019 4.51-4.519 4.51a4.51 4.51 0 01-4.51-4.51c0-2.5 2.019-4.52 4.51-4.52m43.96 61.34l-.401.14-.389.12-.42.07-.43.04-.4.02-.43-.04-.42-.06-.41-.09-.401-.12-.389-.15-.37-.2-.361-.21-.66-.54-.29-.29-.269-.33-.231-.34-.21-.37-.199-.37-.15-.4-.121-.41-.07-.4-.059-.41-.02-.42.02-.43.059-.42.07-.41.121-.4.15-.39.199-.39.21-.36.231-.33.269-.33.29-.29.33-.29.33-.25.361-.21.37-.19.389-.16.401-.13.41-.08.42-.08.43-.02h.4l.43.06.42.08.389.09.401.16.389.17.351.2.359.25.33.25.311.29.269.31.271.32.21.37.2.37.17.38.14.41.089.4.081.41.04.42v.43l-.04.4-.081.43-.089.4-.14.41-.17.37-.2.38-.21.35-.271.35-.269.31-.311.29-.33.25-.359.23-.351.21zm36.37-41.85c0-1.57 1.269-2.84 2.84-2.84a2.844 2.844 0 012.839 2.84c0 1.57-1.28 2.84-2.839 2.84a2.837 2.837 0 01-2.84-2.84m0 13.74c0-1.57 1.269-2.84 2.84-2.84a2.844 2.844 0 012.839 2.84c0 1.57-1.28 2.84-2.839 2.84a2.837 2.837 0 01-2.84-2.84m0 13.73c0-1.57 1.269-2.84 2.84-2.84a2.844 2.844 0 012.839 2.84c0 1.57-1.28 2.84-2.839 2.84a2.837 2.837 0 01-2.84-2.84m0 13.74c0-1.57 1.269-2.84 2.84-2.84a2.844 2.844 0 012.839 2.84c0 1.57-1.28 2.84-2.839 2.84a2.837 2.837 0 01-2.84-2.84m0 13.73c0-1.56 1.269-2.84 2.84-2.84a2.85 2.85 0 012.839 2.84c0 1.57-1.28 2.84-2.839 2.84a2.837 2.837 0 01-2.84-2.84m0 13.74c0-1.57 1.269-2.84 2.84-2.84a2.844 2.844 0 012.839 2.84c0 1.57-1.28 2.84-2.839 2.84a2.837 2.837 0 01-2.84-2.84m0 13.74c0-1.57 1.269-2.84 2.84-2.84a2.844 2.844 0 012.839 2.84 2.85 2.85 0 01-2.839 2.84 2.844 2.844 0 01-2.84-2.84m0 13.73c0-1.57 1.269-2.84 2.84-2.84a2.844 2.844 0 012.839 2.84c0 1.57-1.28 2.84-2.839 2.84a2.837 2.837 0 01-2.84-2.84m0 13.74c0-1.57 1.269-2.84 2.84-2.84a2.844 2.844 0 012.839 2.84c0 1.57-1.28 2.84-2.839 2.84a2.837 2.837 0 01-2.84-2.84m0 13.73c0-1.57 1.269-2.84 2.84-2.84a2.844 2.844 0 012.839 2.84c0 1.57-1.28 2.84-2.839 2.84a2.837 2.837 0 01-2.84-2.84m0 13.74c0-1.57 1.269-2.84 2.84-2.84a2.844 2.844 0 012.839 2.84c0 1.57-1.28 2.84-2.839 2.84a2.837 2.837 0 01-2.84-2.84m0 13.73c0-1.56 1.269-2.84 2.84-2.84a2.85 2.85 0 012.839 2.84c0 1.57-1.28 2.84-2.839 2.84a2.837 2.837 0 01-2.84-2.84m0 13.74c0-1.57 1.269-2.84 2.84-2.84a2.844 2.844 0 012.839 2.84c0 1.57-1.28 2.84-2.839 2.84a2.837 2.837 0 01-2.84-2.84m0 13.74c0-1.57 1.269-2.84 2.84-2.84a2.844 2.844 0 012.839 2.84 2.85 2.85 0 01-2.839 2.84 2.844 2.844 0 01-2.84-2.84m0 13.73c0-1.57 1.269-2.84 2.84-2.84a2.844 2.844 0 012.839 2.84c0 1.57-1.28 2.84-2.839 2.84a2.837 2.837 0 01-2.84-2.84M0 .03c2.489 0 4.52 2.02 4.52 4.52 0 2.49-2.031 4.51-4.52 4.51a4.512 4.512 0 01-4.511-4.51C-4.511 2.05-2.49.03 0 .03m-90.29 233.73H6.96V-2.42h-97.25z" id="path1265" fill="#007482" fill-rule="nonzero"/>
  </g>
  <g transform="rotate(90 211.468 364.245) scale(2.6404)" id="g1271">
    <path d="M0 8.004v-8a.356.356 0 00-.355-.357h-2.148a.357.357 0 00-.358.357v8c0 .197.16.353.358.353h2.148A.352.352 0 000 8.004" id="path1269" fill="#b7babb" fill-rule="nonzero"/>
  </g>
  <g transform="rotate(90 216.895 358.818) scale(2.6404)" id="g1275">
    <path d="M0 8.004v-8a.356.356 0 00-.354-.357h-2.147a.36.36 0 00-.361.357v8c0 .197.164.353.361.353h2.147A.353.353 0 000 8.004" id="path1273" fill="#b7babb" fill-rule="nonzero"/>
  </g>
  <g transform="rotate(90 222.313 353.4) scale(2.6404)" id="g1279">
    <path d="M0 8.004v-8a.359.359 0 00-.357-.357h-2.151a.354.354 0 00-.353.357v8a.35.35 0 00.353.353h2.151A.355.355 0 000 8.004" id="path1277" fill="#b7babb" fill-rule="nonzero"/>
  </g>
  <g transform="rotate(90 227.744 347.969) scale(2.6404)" id="g1283">
    <path d="M0 8.004v-8a.354.354 0 00-.354-.357h-2.148a.357.357 0 00-.357.357v8c0 .197.16.353.357.353h2.148A.35.35 0 000 8.004" id="path1281" fill="#b7babb" fill-rule="nonzero"/>
  </g>
  <g transform="rotate(90 233.165 342.548) scale(2.6404)" id="g1287">
    <path d="M0 8.004v-8a.357.357 0 00-.357-.357h-2.149a.355.355 0 00-.357.357v8c0 .197.156.353.357.353h2.149A.354.354 0 000 8.004" id="path1285" fill="#b7babb" fill-rule="nonzero"/>
  </g>
  <g transform="matrix(0 -2.6404 -2.6404 0 2114.453 1705.567)" id="g1291">
    <path id="rect1289" fill="#939798" d="M574.319 551.3h46.009v35.255h-46.009z"/>
  </g>
  <g transform="rotate(90 249.03 316.683) scale(2.6404)" id="g1295">
    <path d="M0-3.526V0h46.009v-3.526h-.126z" id="path1293" fill="#8b8f91" fill-rule="nonzero"/>
  </g>
  <g transform="rotate(90 258.339 325.992) scale(2.6404)" id="g1299">
    <path d="M0-3.525V0h46.009v-3.525h-.126z" id="path1297" fill="#8b8f91" fill-rule="nonzero"/>
  </g>
  <g transform="rotate(90 267.648 335.301) scale(2.6404)" id="g1303">
    <path d="M0-3.525V0h46.009v-3.525h-.126z" id="path1301" fill="#8b8f91" fill-rule="nonzero"/>
  </g>
  <g transform="rotate(90 276.957 344.61) scale(2.6404)" id="g1307">
    <path d="M0-3.526V0h46.009v-3.526h-.126z" id="path1305" fill="#8b8f91" fill-rule="nonzero"/>
  </g>
  <g transform="rotate(90 286.266 353.92) scale(2.6404)" id="g1311">
    <path d="M0-3.525V0h46.009v-3.525h-.126z" id="path1309" fill="#8b8f91" fill-rule="nonzero"/>
  </g>
  <g transform="matrix(-2.6404 .0004 .0004 2.6404 399.19 127.43)" id="g1315">
    <path id="rect1313" fill="#8badb4" d="M-8.912-10.839H10.84v1.926H-8.912z"/>
  </g>
  <g transform="scale(2.6404 -2.6404) rotate(-89.968 56.69 -98.328)" id="g1319">
    <path id="rect1317" fill="#8badb4" d="M-.001.001h3.605v1.927H-.001z"/>
  </g>
  <g transform="matrix(.00147 2.6404 2.6404 -.00147 399.2 109.794)" id="g1323">
    <path id="rect1321" fill="#8badb4" d="M-.001.001h3.605v1.926H-.001z"/>
  </g>
  <g transform="matrix(.0022 2.6404 2.6404 -.0022 389.178 109.794)" id="g1327">
    <path id="rect1325" fill="#8badb4" d="M-.001.002h3.606v1.926H-.001z"/>
  </g>
  <g transform="scale(2.6404 -2.6404) rotate(-89.968 50.997 -92.63)" id="g1331">
    <path id="rect1329" fill="#8badb4" d="M-.001.001h3.605v1.927H-.001z"/>
  </g>
  <g transform="matrix(-2.6404 .0004 .0004 2.6404 399.19 117.88)" id="g1335">
    <path id="rect1333" fill="#8badb4" d="M-8.912-10.839H10.84v1.926H-8.912z"/>
  </g>
  <g transform="matrix(-2.6404 .0004 .0004 2.6404 399.19 108.33)" id="g1339">
    <path id="rect1337" fill="#8badb4" d="M-8.912-10.839H10.84v1.926H-8.912z"/>
  </g>
  <g transform="matrix(-2.6404 .0004 .0004 2.6404 399.19 98.78)" id="g1343">
    <path id="rect1341" fill="#8badb4" d="M-8.912-10.839H10.84v1.926H-8.912z"/>
  </g>
  <g transform="matrix(-2.6404 .0004 .0004 2.6404 399.19 89.224)" id="g1347">
    <path id="rect1345" fill="#8badb4" d="M-8.912-10.839H10.84v1.926H-8.912z"/>
  </g>
  <g transform="matrix(-2.6404 .0004 .0004 2.6404 399.19 79.675)" id="g1351">
    <path id="rect1349" fill="#8badb4" d="M-8.912-10.839H10.84v1.926H-8.912z"/>
  </g>
  <g transform="rotate(90 151.577 266.124) scale(2.6404)" id="g1355">
    <path d="M0 15.877v-1.875h-.001L-.005.044-2.479.038V.04L-27.307 0v1.875h.001l.004 12.086h-.004l.005 1.87z" id="path1353" fill="#171e21" fill-rule="nonzero"/>
  </g>
  <g transform="matrix(0 -2.6404 -2.6404 0 2080.57 1538.22)" id="g1359">
    <path id="rect1357" fill="#8b8f91" d="M563.205 556.41h4.859v12.202h-4.859z"/>
  </g>
  <g id="LED" transform="rotate(90 280.258 324.978) scale(2.6404)">
    <path d="M0 7.504A3.753 3.753 0 11.002-.002 3.753 3.753 0 010 7.504" id="path1361" fill="#eaa900" fill-rule="nonzero"/>
  </g>
  <g transform="matrix(0 -2.6404 -2.6404 0 2080.57 1872.907)" id="g1366">
    <path id="rect1364" fill="#8b8f91" d="M626.582 556.41h4.86v12.202h-4.86z"/>
  </g>
  <g id="PWR_LED" transform="rotate(90 196.585 408.652) scale(2.6404)">
    <path d="M0 7.504A3.753 3.753 0 11.002-.002 3.753 3.753 0 010 7.504" id="path1368" fill="#1da086" fill-rule="nonzero"/>
  </g>
  <g transform="matrix(0 -2.6404 -2.6404 0 1753.025 1829.321)" id="g1373">
    <path id="rect1371" fill="#8b8f91" d="M616.391 498.321h8.735v4.33h-8.735z"/>
  </g>
  <g transform="matrix(0 -2.6404 -2.6404 0 1694.649 1829.321)" id="g1377">
    <path id="rect1375" fill="#8b8f91" d="M616.391 487.266h8.735v4.33h-8.735z"/>
  </g>
  <g transform="rotate(90 111.131 292.482) scale(2.6404)" id="g1381">
    <path d="M0-1.215C0-.288.76.472 1.687.472h3.377c.931 0 1.691-.76 1.691-1.687v-.472H0z" id="path1379" fill="#897866" fill-rule="nonzero"/>
  </g>
  <g transform="rotate(90 115.551 314.741) scale(2.6404)" id="g1385">
    <path d="M0 1.218c0-.927-.76-1.69-1.69-1.69h-3.377c-.928 0-1.688.763-1.688 1.69v.472H0z" id="path1383" fill="#897866" fill-rule="nonzero"/>
  </g>
  <g transform="rotate(90 1586.308 137.528) scale(2.6404)" id="g1389">
    <path id="rect1387" d="M617.381 491.596h6.755v6.726h-6.755z"/>
  </g>
  <g transform="matrix(0 -2.6404 -2.6404 0 1961.91 1637.755)" id="g1393">
    <path id="rect1391" fill="#8b8f91" d="M580.115 537.876h8.735v4.33h-8.735z"/>
  </g>
  <g transform="matrix(0 -2.6404 -2.6404 0 1903.527 1637.755)" id="g1397">
    <path id="rect1395" fill="#8b8f91" d="M580.115 526.821h8.735v4.33h-8.735z"/>
  </g>
  <g transform="rotate(90 211.243 296.81) scale(2.6404)" id="g1401">
    <path d="M0-1.215C0-.288.76.472 1.687.472h3.377c.931 0 1.691-.76 1.691-1.687v-.472H0z" id="path1399" fill="#897866" fill-rule="nonzero"/>
  </g>
  <g transform="rotate(90 215.663 319.07) scale(2.6404)" id="g1405">
    <path d="M0 1.218c0-.927-.76-1.69-1.69-1.69h-3.377c-.928 0-1.688.763-1.688 1.69v.472H0z" id="path1403" fill="#897866" fill-rule="nonzero"/>
  </g>
  <g transform="rotate(90 1690.75 241.97) scale(2.6404)" id="g1409">
    <path id="rect1407" d="M581.105 531.151h6.755v6.726h-6.755z"/>
  </g>
  <g transform="matrix(0 -2.6404 -2.6404 0 1925.947 1719.26)" id="g1413">
    <path id="rect1411" fill="#007482" d="M595.693 526.821h8.448v12.821h-8.448z"/>
  </g>
  <g transform="matrix(0 -2.6404 -2.6404 0 1925.947 1719.26)" id="g1417">
    <path id="rect1415" d="M595.693 526.821h8.448v12.821h-8.448z"/>
  </g>
  <g transform="matrix(0 -2.6404 -2.6404 0 1948.165 1687.601)" id="g1421">
    <path id="rect1419" fill="#8b8f91" d="M590.869 536.331h6.106v2.215h-6.106z"/>
  </g>
  <g transform="matrix(0 -2.6404 -2.6404 0 1903.73 1687.601)" id="g1425">
    <path id="rect1423" fill="#8b8f91" d="M590.869 527.917h6.106v2.215h-6.106z"/>
  </g>
  <g transform="matrix(0 -2.6404 -2.6404 0 1948.165 1745.546)" id="g1429">
    <path id="rect1427" fill="#8b8f91" d="M601.84 536.331h6.11v2.215h-6.11z"/>
  </g>
  <g transform="matrix(0 -2.6404 -2.6404 0 1903.73 1745.546)" id="g1433">
    <path id="rect1431" fill="#8b8f91" d="M601.84 527.917h6.11v2.215h-6.11z"/>
  </g>
  <g transform="rotate(90 97.282 276.238) scale(2.6404)" id="g1437">
    <path d="M0-3.495h-.002V.067h.015c.037.938.796 1.69 1.743 1.69A1.75 1.75 0 003.5.067h.013v-3.562a1.757 1.757 0 10-3.513 0" id="path1435" fill="#8b8f91" fill-rule="nonzero"/>
  </g>
  <g transform="rotate(-90 1731.02 84.942) scale(2.6404)" id="g1441">
    <path id="rect1439" fill="#897866" d="M616.471 478.935h3.515v2.599h-3.515z"/>
  </g>
  <g transform="rotate(-90 1731.02 84.942) scale(2.6404)" id="g1445">
    <path id="rect1443" fill="#897866" d="M616.471 478.935h3.515v2.599h-3.515z"/>
  </g>
  <g transform="rotate(-90 1731.02 84.942) scale(2.6404)" id="g1449">
    <path id="rect1447" fill="#897866" d="M616.471 478.935h3.515v2.599h-3.515z"/>
  </g>
  <g transform="rotate(-90 1731.02 84.942) scale(2.6404)" id="g1453">
    <path id="rect1451" fill="#897866" d="M616.471 478.935h3.515v2.599h-3.515z"/>
  </g>
  <g transform="rotate(90 84.019 273.158) scale(2.6404)" id="g1457">
    <path d="M0-3.495h-.002V.067h.015a1.75 1.75 0 001.743 1.69A1.75 1.75 0 003.5.067h.013v-3.562a1.757 1.757 0 10-3.513 0" id="path1455" fill="#8b8f91" fill-rule="nonzero"/>
  </g>
  <g transform="matrix(0 -2.6404 -2.6404 0 1613.396 1836.33)" id="g1461">
    <path id="rect1459" fill="#897866" d="M620.328 472.746h3.515v2.599h-3.515z"/>
  </g>
  <g transform="matrix(0 -2.6404 -2.6404 0 1613.396 1836.33)" id="g1465">
    <path id="rect1463" fill="#897866" d="M620.328 472.746h3.515v2.599h-3.515z"/>
  </g>
  <g transform="matrix(0 -2.6404 -2.6404 0 1613.396 1836.33)" id="g1469">
    <path id="rect1467" fill="#897866" d="M620.328 472.746h3.515v2.599h-3.515z"/>
  </g>
  <g transform="matrix(0 -2.6404 -2.6404 0 1613.396 1836.33)" id="g1473">
    <path id="rect1471" fill="#897866" d="M620.328 472.746h3.515v2.599h-3.515z"/>
  </g>
  <g transform="rotate(90 60.113 268.947) scale(2.6404)" id="g1477">
    <path d="M0-3.495h-.001V.067h.014a1.75 1.75 0 001.743 1.69c.947 0 1.708-.752 1.744-1.69h.013v-3.562a1.757 1.757 0 10-3.513 0" id="path1475" fill="#8b8f91" fill-rule="nonzero"/>
  </g>
  <g transform="matrix(0 -2.6404 -2.6404 0 1557.162 1875.72)" id="g1481">
    <path id="rect1479" fill="#897866" d="M627.788 462.097h3.514v2.599h-3.514z"/>
  </g>
  <g transform="matrix(0 -2.6404 -2.6404 0 1557.162 1875.72)" id="g1485">
    <path id="rect1483" fill="#897866" d="M627.788 462.097h3.514v2.599h-3.514z"/>
  </g>
  <g transform="matrix(0 -2.6404 -2.6404 0 1557.162 1875.72)" id="g1489">
    <path id="rect1487" fill="#897866" d="M627.788 462.097h3.514v2.599h-3.514z"/>
  </g>
  <g transform="matrix(0 -2.6404 -2.6404 0 1557.162 1875.72)" id="g1493">
    <path id="rect1491" fill="#897866" d="M627.788 462.097h3.514v2.599h-3.514z"/>
  </g>
  <g transform="rotate(90 125.206 251.634) scale(2.6404)" id="g1497">
    <path d="M0-3.496h-.002V.066h.015c.037.938.796 1.69 1.743 1.69A1.75 1.75 0 003.5.066h.013v-3.562a1.756 1.756 0 10-3.513 0" id="path1495" fill="#8b8f91" fill-rule="nonzero"/>
  </g>
  <g transform="matrix(0 -2.6404 -2.6404 0 1652.736 1710.902)" id="g1501">
    <path id="rect1499" fill="#897866" d="M596.577 480.195h3.515v2.599h-3.515z"/>
  </g>
  <g transform="matrix(0 -2.6404 -2.6404 0 1652.736 1710.902)" id="g1505">
    <path id="rect1503" fill="#897866" d="M596.577 480.195h3.515v2.599h-3.515z"/>
  </g>
  <g transform="matrix(0 -2.6404 -2.6404 0 1652.736 1710.902)" id="g1509">
    <path id="rect1507" fill="#897866" d="M596.577 480.195h3.515v2.599h-3.515z"/>
  </g>
  <g transform="matrix(0 -2.6404 -2.6404 0 1652.736 1710.902)" id="g1513">
    <path id="rect1511" fill="#897866" d="M596.577 480.195h3.515v2.599h-3.515z"/>
  </g>
  <g transform="rotate(90 44.067 252.902) scale(2.6404)" id="g1517">
    <path d="M0-3.495h-.001V.067h.014a1.75 1.75 0 001.743 1.69c.947 0 1.708-.752 1.744-1.69h.013v-3.562a1.757 1.757 0 10-3.513 0" id="path1515" fill="#8b8f91" fill-rule="nonzero"/>
  </g>
  <g transform="matrix(0 -2.6404 -2.6404 0 1492.981 1875.72)" id="g1521">
    <path id="rect1519" fill="#897866" d="M627.788 449.943h3.514v2.599h-3.514z"/>
  </g>
  <g transform="matrix(0 -2.6404 -2.6404 0 1492.981 1875.72)" id="g1525">
    <path id="rect1523" fill="#897866" d="M627.788 449.943h3.514v2.599h-3.514z"/>
  </g>
  <g transform="matrix(0 -2.6404 -2.6404 0 1492.981 1875.72)" id="g1529">
    <path id="rect1527" fill="#897866" d="M627.788 449.943h3.514v2.599h-3.514z"/>
  </g>
  <g transform="matrix(0 -2.6404 -2.6404 0 1492.981 1875.72)" id="g1533">
    <path id="rect1531" fill="#897866" d="M627.788 449.943h3.514v2.599h-3.514z"/>
  </g>
  <g transform="rotate(90 165.227 375.373) scale(2.6404)" id="g1537">
    <path d="M0-3.495h-.001V.067h.014a1.75 1.75 0 001.743 1.69A1.75 1.75 0 003.501.067h.013v-3.562a1.758 1.758 0 00-3.514 0" id="path1535" fill="#8b8f91" fill-rule="nonzero"/>
  </g>
  <g transform="matrix(0 -2.6404 -2.6404 0 1980.243 1878.344)" id="g1541">
    <path id="rect1539" fill="#897866" d="M628.284 542.214h3.515v2.599h-3.515z"/>
  </g>
  <g transform="matrix(0 -2.6404 -2.6404 0 1980.243 1878.344)" id="g1545">
    <path id="rect1543" fill="#897866" d="M628.284 542.214h3.515v2.599h-3.515z"/>
  </g>
  <g transform="matrix(0 -2.6404 -2.6404 0 1980.243 1878.344)" id="g1549">
    <path id="rect1547" fill="#897866" d="M628.284 542.214h3.515v2.599h-3.515z"/>
  </g>
  <g transform="matrix(0 -2.6404 -2.6404 0 1980.243 1878.344)" id="g1553">
    <path id="rect1551" fill="#897866" d="M628.284 542.214h3.515v2.599h-3.515z"/>
  </g>
  <g transform="rotate(90 224.034 294.444) scale(2.6404)" id="g1557">
    <path d="M0-3.495h-.001V.067h.014a1.75 1.75 0 001.743 1.69A1.75 1.75 0 003.501.067h.013v-3.562a1.758 1.758 0 00-3.514 0" id="path1555" fill="#8b8f91" fill-rule="nonzero"/>
  </g>
  <g transform="matrix(0 -2.6404 -2.6404 0 1936.004 1598.871)" id="g1561">
    <path id="rect1559" fill="#897866" d="M575.362 533.836h3.515v2.599h-3.515z"/>
  </g>
  <g transform="matrix(0 -2.6404 -2.6404 0 1936.004 1598.871)" id="g1565">
    <path id="rect1563" fill="#897866" d="M575.362 533.836h3.515v2.599h-3.515z"/>
  </g>
  <g transform="matrix(0 -2.6404 -2.6404 0 1936.004 1598.871)" id="g1569">
    <path id="rect1567" fill="#897866" d="M575.362 533.836h3.515v2.599h-3.515z"/>
  </g>
  <g transform="matrix(0 -2.6404 -2.6404 0 1936.004 1598.871)" id="g1573">
    <path id="rect1571" fill="#897866" d="M575.362 533.836h3.515v2.599h-3.515z"/>
  </g>
  <g transform="rotate(90 253.729 295.223) scale(2.6404)" id="g1577">
    <path d="M0-3.495h-.001V.067h.014a1.75 1.75 0 001.743 1.69A1.75 1.75 0 003.501.067h.013v-3.562a1.758 1.758 0 00-3.514 0" id="path1575" fill="#8b8f91" fill-rule="nonzero"/>
  </g>
  <g transform="matrix(0 -2.6404 -2.6404 0 1996.953 1541.034)" id="g1581">
    <path id="rect1579" fill="#897866" d="M564.41 545.378h3.515v2.599h-3.515z"/>
  </g>
  <g transform="matrix(0 -2.6404 -2.6404 0 1996.953 1541.034)" id="g1585">
    <path id="rect1583" fill="#897866" d="M564.41 545.378h3.515v2.599h-3.515z"/>
  </g>
  <g transform="matrix(0 -2.6404 -2.6404 0 1996.953 1541.034)" id="g1589">
    <path id="rect1587" fill="#897866" d="M564.41 545.378h3.515v2.599h-3.515z"/>
  </g>
  <g transform="matrix(0 -2.6404 -2.6404 0 1996.953 1541.034)" id="g1593">
    <path id="rect1591" fill="#897866" d="M564.41 545.378h3.515v2.599h-3.515z"/>
  </g>
  <g transform="rotate(90 140.877 315.498) scale(2.6404)" id="g1597">
    <path d="M0-3.495h-.001V.067h.014a1.75 1.75 0 001.743 1.69A1.75 1.75 0 003.5.067h.013v-3.562a1.757 1.757 0 10-3.513 0" id="path1595" fill="#8b8f91" fill-rule="nonzero"/>
  </g>
  <g transform="matrix(0 -2.6404 -2.6404 0 1811.8 1807.287)" id="g1601">
    <path id="rect1599" fill="#897866" d="M614.829 510.316h3.514v2.599h-3.514z"/>
  </g>
  <g transform="matrix(0 -2.6404 -2.6404 0 1811.8 1807.287)" id="g1605">
    <path id="rect1603" fill="#897866" d="M614.829 510.316h3.514v2.599h-3.514z"/>
  </g>
  <g transform="matrix(0 -2.6404 -2.6404 0 1811.8 1807.287)" id="g1609">
    <path id="rect1607" fill="#897866" d="M614.829 510.316h3.514v2.599h-3.514z"/>
  </g>
  <g transform="matrix(0 -2.6404 -2.6404 0 1811.8 1807.287)" id="g1613">
    <path id="rect1611" fill="#897866" d="M614.829 510.316h3.514v2.599h-3.514z"/>
  </g>
  <g transform="rotate(90 132.721 323.654) scale(2.6404)" id="g1617">
    <path d="M0-3.495h-.001V.067h.014a1.75 1.75 0 001.743 1.69A1.75 1.75 0 003.501.067h.013v-3.562a1.758 1.758 0 00-3.514 0" id="path1615" fill="#8b8f91" fill-rule="nonzero"/>
  </g>
  <g transform="matrix(0 -2.6404 -2.6404 0 1811.8 1839.917)" id="g1621">
    <path id="rect1619" fill="#897866" d="M621.007 510.316h3.515v2.599h-3.515z"/>
  </g>
  <g transform="matrix(0 -2.6404 -2.6404 0 1811.8 1839.917)" id="g1625">
    <path id="rect1623" fill="#897866" d="M621.007 510.316h3.515v2.599h-3.515z"/>
  </g>
  <g transform="matrix(0 -2.6404 -2.6404 0 1811.8 1839.917)" id="g1629">
    <path id="rect1627" fill="#897866" d="M621.007 510.316h3.515v2.599h-3.515z"/>
  </g>
  <g transform="matrix(0 -2.6404 -2.6404 0 1811.8 1839.917)" id="g1633">
    <path id="rect1631" fill="#897866" d="M621.007 510.316h3.515v2.599h-3.515z"/>
  </g>
  <g transform="matrix(0 -2.6404 -2.6404 0 427.492 150.192)" id="g1637">
    <path id="rect1635" fill="#897866" d="M-8.021 0H0v3.994h-8.021z"/>
  </g>
  <g transform="matrix(0 -2.6404 -2.6404 0 1734.375 1790.418)" id="g1641">
    <path id="rect1639" fill="#939798" d="M613.182 494.959h.419v3.991h-.419z"/>
  </g>
  <g transform="matrix(0 -2.6404 -2.6404 0 1734.388 1750.268)" id="g1645">
    <path id="rect1643" fill="#939798" d="M605.579 494.959h.418v3.994h-.418z"/>
  </g>
  <g transform="matrix(0 -2.6404 -2.6404 0 407.644 150.192)" id="g1649">
    <path id="rect1647" fill="#897866" d="M-8.021 0H0v3.994h-8.021z"/>
  </g>
  <g transform="matrix(0 -2.6404 -2.6404 0 1694.674 1790.418)" id="g1653">
    <path id="rect1651" fill="#939798" d="M613.182 487.441h.419v3.991h-.419z"/>
  </g>
  <g transform="matrix(0 -2.6404 -2.6404 0 1694.687 1750.268)" id="g1657">
    <path id="rect1655" fill="#939798" d="M605.579 487.441h.418v3.994h-.418z"/>
  </g>
  <g transform="rotate(90 1677.934 229.154) scale(2.6404)" id="g1661">
    <path id="rect1659" fill="#007482" d="M617.411 522.439h6.659v14.442h-6.659z"/>
  </g>
  <g transform="rotate(90 1677.934 229.154) scale(2.6404)" id="g1665">
    <path id="rect1663" d="M617.411 522.439h6.659v14.442h-6.659z"/>
  </g>
  <g transform="rotate(90 1701.124 252.344) scale(2.6404)" id="g1669">
    <path id="rect1667" fill="#8b8f91" d="M619.783 535.752h1.952v5.383h-1.952z"/>
  </g>
  <g transform="rotate(90 1657.238 208.458) scale(2.6404)" id="g1673">
    <path id="rect1671" fill="#8b8f91" d="M619.747 519.129h1.952v5.386h-1.952z"/>
  </g>
  <g transform="matrix(0 -2.6404 -2.6404 0 1590.456 1598.104)" id="g1677">
    <path id="rect1675" fill="#8b8f91" d="M574.81 465.333h4.329v8.735h-4.329z"/>
  </g>
  <g transform="matrix(0 -2.6404 -2.6404 0 1590.456 1656.487)" id="g1681">
    <path id="rect1679" fill="#8b8f91" d="M585.865 465.333h4.33v8.735h-4.33z"/>
  </g>
  <g transform="rotate(90 129.895 229.278) scale(2.6404)" id="g1685">
    <path d="M0 6.754c.928 0 1.687-.76 1.687-1.687V1.69C1.687.76.928 0 0 0h-.472v6.754z" id="path1683" fill="#897866" fill-rule="nonzero"/>
  </g>
  <g transform="rotate(90 131.102 210.238) scale(2.6404)" id="g1689">
    <path d="M0-6.754c-.928 0-1.69.76-1.69 1.69v3.377C-1.69-.76-.928 0 0 0h.471v-6.754z" id="path1687" fill="#897866" fill-rule="nonzero"/>
  </g>
  <g transform="rotate(-90 1608.875 18.422) scale(2.6404)" id="g1693">
    <path id="rect1691" d="M579.139 466.324h6.726v6.754h-6.726z"/>
  </g>
  <g transform="rotate(90 4.078 41.181) scale(2.6404)" id="g1697">
    <path d="M0-3.495h-.001V.067h.014a1.75 1.75 0 001.743 1.69A1.75 1.75 0 003.5.067h.013v-3.562a1.757 1.757 0 10-3.513 0" id="path1695" fill="#8b8f91" fill-rule="nonzero"/>
  </g>
  <g transform="matrix(0 -2.6404 -2.6404 0 989.567 1532.257)" id="g1701">
    <path id="rect1699" fill="#897866" d="M562.748 354.614h3.514v2.599h-3.514z"/>
  </g>
  <g transform="matrix(0 -2.6404 -2.6404 0 989.567 1532.257)" id="g1705">
    <path id="rect1703" fill="#897866" d="M562.748 354.614h3.514v2.599h-3.514z"/>
  </g>
  <g transform="matrix(0 -2.6404 -2.6404 0 989.567 1532.257)" id="g1709">
    <path id="rect1707" fill="#897866" d="M562.748 354.614h3.514v2.599h-3.514z"/>
  </g>
  <g transform="matrix(0 -2.6404 -2.6404 0 989.567 1532.257)" id="g1713">
    <path id="rect1711" fill="#897866" d="M562.748 354.614h3.514v2.599h-3.514z"/>
  </g>
  <g transform="rotate(90 -11.11 25.993) scale(2.6404)" id="g1717">
    <path d="M0-3.495h-.001V.067h.014a1.75 1.75 0 001.743 1.69A1.75 1.75 0 003.5.067h.013v-3.562a1.757 1.757 0 10-3.513 0" id="path1715" fill="#8b8f91" fill-rule="nonzero"/>
  </g>
  <g transform="matrix(0 -2.6404 -2.6404 0 928.815 1532.257)" id="g1721">
    <path id="rect1719" fill="#897866" d="M562.748 343.11h3.514v2.599h-3.514z"/>
  </g>
  <g transform="matrix(0 -2.6404 -2.6404 0 928.815 1532.257)" id="g1725">
    <path id="rect1723" fill="#897866" d="M562.748 343.11h3.514v2.599h-3.514z"/>
  </g>
  <g transform="matrix(0 -2.6404 -2.6404 0 928.815 1532.257)" id="g1729">
    <path id="rect1727" fill="#897866" d="M562.748 343.11h3.514v2.599h-3.514z"/>
  </g>
  <g transform="matrix(0 -2.6404 -2.6404 0 928.815 1532.257)" id="g1733">
    <path id="rect1731" fill="#897866" d="M562.748 343.11h3.514v2.599h-3.514z"/>
  </g>
  <g transform="rotate(90 42.078 188.734) scale(2.6404)" id="g1737">
    <path d="M0-3.495h-.002V.067h.015c.036.938.796 1.69 1.743 1.69A1.75 1.75 0 003.5.067h.013v-3.562a1.757 1.757 0 00-3.513 0" id="path1735" fill="#8b8f91" fill-rule="nonzero"/>
  </g>
  <g transform="matrix(0 -2.6404 -2.6404 0 1360.672 1751.364)" id="g1741">
    <path id="rect1739" fill="#897866" d="M604.239 424.888h3.515v2.599h-3.515z"/>
  </g>
  <g transform="matrix(0 -2.6404 -2.6404 0 1360.672 1751.364)" id="g1745">
    <path id="rect1743" fill="#897866" d="M604.239 424.888h3.515v2.599h-3.515z"/>
  </g>
  <g transform="matrix(0 -2.6404 -2.6404 0 1360.672 1751.364)" id="g1749">
    <path id="rect1747" fill="#897866" d="M604.239 424.888h3.515v2.599h-3.515z"/>
  </g>
  <g transform="matrix(0 -2.6404 -2.6404 0 1360.672 1751.364)" id="g1753">
    <path id="rect1751" fill="#897866" d="M604.239 424.888h3.515v2.599h-3.515z"/>
  </g>
  <g transform="rotate(90 16.822 213.99) scale(2.6404)" id="g1757">
    <path d="M0-3.495h-.001V.067h.014a1.75 1.75 0 001.743 1.69A1.75 1.75 0 003.5.067h.013v-3.562a1.757 1.757 0 10-3.513 0" id="path1755" fill="#8b8f91" fill-rule="nonzero"/>
  </g>
  <g transform="matrix(0 -2.6404 -2.6404 0 1360.672 1852.388)" id="g1761">
    <path id="rect1759" fill="#897866" d="M623.369 424.888h3.514v2.599h-3.514z"/>
  </g>
  <g transform="matrix(0 -2.6404 -2.6404 0 1360.672 1852.388)" id="g1765">
    <path id="rect1763" fill="#897866" d="M623.369 424.888h3.514v2.599h-3.514z"/>
  </g>
  <g transform="matrix(0 -2.6404 -2.6404 0 1360.672 1852.388)" id="g1769">
    <path id="rect1767" fill="#897866" d="M623.369 424.888h3.514v2.599h-3.514z"/>
  </g>
  <g transform="matrix(0 -2.6404 -2.6404 0 1360.672 1852.388)" id="g1773">
    <path id="rect1771" fill="#897866" d="M623.369 424.888h3.514v2.599h-3.514z"/>
  </g>
  <g transform="rotate(90 -53.777 154.411) scale(2.6404)" id="g1777">
    <path d="M0-3.495h-.001V.067h.014a1.75 1.75 0 001.743 1.69A1.75 1.75 0 003.5.067h.013v-3.562a1.757 1.757 0 10-3.513 0" id="path1775" fill="#8b8f91" fill-rule="nonzero"/>
  </g>
  <g transform="matrix(0 -2.6404 -2.6404 0 1100.318 1874.428)" id="g1781">
    <path id="rect1779" fill="#897866" d="M627.543 375.586h3.514v2.599h-3.514z"/>
  </g>
  <g transform="matrix(0 -2.6404 -2.6404 0 1100.318 1874.428)" id="g1785">
    <path id="rect1783" fill="#897866" d="M627.543 375.586h3.514v2.599h-3.514z"/>
  </g>
  <g transform="matrix(0 -2.6404 -2.6404 0 1100.318 1874.428)" id="g1789">
    <path id="rect1787" fill="#897866" d="M627.543 375.586h3.514v2.599h-3.514z"/>
  </g>
  <g transform="matrix(0 -2.6404 -2.6404 0 1100.318 1874.428)" id="g1793">
    <path id="rect1791" fill="#897866" d="M627.543 375.586h3.514v2.599h-3.514z"/>
  </g>
  <g transform="rotate(90 196.702 253.805) scale(2.6404)" id="g1797">
    <path d="M0 3.512v.001h3.562v-.014a1.75 1.75 0 001.69-1.743A1.75 1.75 0 003.562.012v-.013H0a1.757 1.757 0 100 3.513" id="path1795" fill="#8b8f91" fill-rule="nonzero"/>
  </g>
  <g transform="rotate(90 1615.233 166.453) scale(2.6404)" id="g1801">
    <path id="rect1799" fill="#897866" d="M570.794 504.156h2.599v3.515h-2.599z"/>
  </g>
  <g transform="rotate(90 1615.233 166.453) scale(2.6404)" id="g1805">
    <path id="rect1803" fill="#897866" d="M570.794 504.156h2.599v3.515h-2.599z"/>
  </g>
  <g transform="rotate(90 1615.233 166.453) scale(2.6404)" id="g1809">
    <path id="rect1807" fill="#897866" d="M570.794 504.156h2.599v3.515h-2.599z"/>
  </g>
  <g transform="rotate(90 1615.233 166.453) scale(2.6404)" id="g1813">
    <path id="rect1811" fill="#897866" d="M570.794 504.156h2.599v3.515h-2.599z"/>
  </g>
  <g transform="rotate(90 114.224 240.672) scale(2.6404)" id="g1817">
    <path d="M0 3.512v.001h3.562v-.014a1.75 1.75 0 001.69-1.743A1.75 1.75 0 003.562.012v-.013H0a1.757 1.757 0 100 3.513" id="path1815" fill="#8b8f91" fill-rule="nonzero"/>
  </g>
  <g transform="rotate(90 1519.618 70.838) scale(2.6404)" id="g1821">
    <path id="rect1819" fill="#897866" d="M597.059 467.943h2.599v3.515h-2.599z"/>
  </g>
  <g transform="rotate(90 1519.618 70.838) scale(2.6404)" id="g1825">
    <path id="rect1823" fill="#897866" d="M597.059 467.943h2.599v3.515h-2.599z"/>
  </g>
  <g transform="rotate(90 1519.618 70.838) scale(2.6404)" id="g1829">
    <path id="rect1827" fill="#897866" d="M597.059 467.943h2.599v3.515h-2.599z"/>
  </g>
  <g transform="rotate(90 1519.618 70.838) scale(2.6404)" id="g1833">
    <path id="rect1831" fill="#897866" d="M597.059 467.943h2.599v3.515h-2.599z"/>
  </g>
  <g transform="rotate(90 44.362 224.73) scale(2.6404)" id="g1837">
    <path d="M0 3.512v.001h3.562v-.014a1.75 1.75 0 001.691-1.743A1.75 1.75 0 003.562.012v-.013H0a1.757 1.757 0 100 3.513" id="path1835" fill="#8b8f91" fill-rule="nonzero"/>
  </g>
  <g transform="rotate(90 1433.822 -14.958) scale(2.6404)" id="g1841">
    <path id="rect1839" fill="#897866" d="M617.48 435.45h2.599v3.514h-2.599z"/>
  </g>
  <g transform="rotate(90 1433.822 -14.958) scale(2.6404)" id="g1845">
    <path id="rect1843" fill="#897866" d="M617.48 435.45h2.599v3.514h-2.599z"/>
  </g>
  <g transform="rotate(90 1433.822 -14.958) scale(2.6404)" id="g1849">
    <path id="rect1847" fill="#897866" d="M617.48 435.45h2.599v3.514h-2.599z"/>
  </g>
  <g transform="rotate(90 1433.822 -14.958) scale(2.6404)" id="g1853">
    <path id="rect1851" fill="#897866" d="M617.48 435.45h2.599v3.514h-2.599z"/>
  </g>
  <g transform="matrix(0 -2.6404 -2.6404 0 438.347 49.745)" id="g1857">
    <path id="rect1855" fill="#897866" d="M-8.021 0H0v3.994h-8.021z"/>
  </g>
  <g transform="matrix(0 -2.6404 -2.6404 0 1756.073 1589.518)" id="g1861">
    <path id="rect1859" fill="#939798" d="M575.139 499.068h.419v3.991h-.419z"/>
  </g>
  <g transform="matrix(0 -2.6404 -2.6404 0 1756.085 1549.367)" id="g1865">
    <path id="rect1863" fill="#939798" d="M567.536 499.068h.418v3.994h-.418z"/>
  </g>
  <g transform="matrix(-2.6404 0 0 2.6404 138.609 52.33)" id="g1869">
    <path id="rect1867" fill="#897866" d="M-6.007-6.007h8.021v3.994h-8.021z"/>
  </g>
  <g transform="matrix(0 -2.6404 -2.6404 0 1197.774 1532.264)" id="g1873">
    <path id="rect1871" fill="#939798" d="M562.511 395.131h3.991v.419h-3.991z"/>
  </g>
  <g transform="matrix(0 -2.6404 -2.6404 0 1157.617 1532.257)" id="g1877">
    <path id="rect1875" fill="#939798" d="M562.508 387.528h3.994v.417h-3.994z"/>
  </g>
  <g transform="matrix(0 -2.6404 -2.6404 0 542.476 52.54)" id="g1881">
    <path id="rect1879" fill="#897866" d="M-6.209 0H0v3.091h-6.209z"/>
  </g>
  <g transform="matrix(0 -2.6404 -2.6404 0 1966.726 1585.792)" id="g1885">
    <path id="rect1883" fill="#939798" d="M574.48 539.409h.325v3.089h-.325z"/>
  </g>
  <g transform="matrix(0 -2.6404 -2.6404 0 1966.732 1554.715)" id="g1889">
    <path id="rect1887" fill="#939798" d="M568.596 539.409h.323v3.091h-.323z"/>
  </g>
  <g transform="matrix(-2.6404 0 0 2.6404 313.788 81.227)" id="g1893">
    <path id="rect1891" fill="#897866" d="M-4.65-4.65h6.208v3.091H-4.65z"/>
  </g>
  <g transform="matrix(0 -2.6404 -2.6404 0 1541.212 1594.841)" id="g1897">
    <path id="rect1895" fill="#939798" d="M574.812 460.214h3.089v.324h-3.089z"/>
  </g>
  <g transform="matrix(0 -2.6404 -2.6404 0 1510.135 1594.835)" id="g1901">
    <path id="rect1899" fill="#939798" d="M574.81 454.33h3.091v.323h-3.091z"/>
  </g>
  <g transform="matrix(-2.6404 0 0 2.6404 313.788 95.916)" id="g1905">
    <path id="rect1903" fill="#897866" d="M-4.65-4.65h6.208v3.091H-4.65z"/>
  </g>
  <g transform="matrix(0 -2.6404 -2.6404 0 1541.212 1624.232)" id="g1909">
    <path id="rect1907" fill="#939798" d="M580.378 460.214h3.088v.324h-3.088z"/>
  </g>
  <g transform="matrix(0 -2.6404 -2.6404 0 1510.135 1624.226)" id="g1913">
    <path id="rect1911" fill="#939798" d="M580.375 454.33h3.091v.323h-3.091z"/>
  </g>
  <g transform="matrix(-2.6404 0 0 2.6404 285.62 107.006)" id="g1917">
    <path id="rect1915" fill="#897866" d="M-4.65-4.65h6.208v3.091H-4.65z"/>
  </g>
  <g transform="matrix(0 -2.6404 -2.6404 0 1484.876 1646.405)" id="g1921">
    <path id="rect1919" fill="#939798" d="M584.576 449.545h3.089v.325h-3.089z"/>
  </g>
  <g transform="matrix(0 -2.6404 -2.6404 0 1453.8 1646.399)" id="g1925">
    <path id="rect1923" fill="#939798" d="M584.574 443.661h3.091v.323h-3.091z"/>
  </g>
  <g transform="rotate(90 219.25 256.422) scale(2.6404)" id="g1929">
    <path id="rect1927" d="M0-17.591h11.349V-.003H0z"/>
  </g>
  <g transform="rotate(90 67.026 217.218) scale(2.6404)" id="g1933">
    <path id="rect1931" d="M0-19.082h16.682V-.003H0z"/>
  </g>
  <g transform="rotate(90 1637.403 188.623) scale(2.6404)" id="g1937">
    <path id="rect1935" fill="#8b8f91" d="M584.715 509.998h3.303v8.623h-3.303z"/>
  </g>
  <g transform="rotate(90 1637.403 188.623) scale(2.6404)" id="g1941">
    <path id="rect1939" fill="#8b8f91" d="M606.627 509.998h3.307v8.623h-3.307z"/>
  </g>
  <g transform="rotate(90 163 305.853) scale(2.6404)" id="g1945">
    <path d="M0 .63l-.04.4-.08.43-.09.4-.14.41-.17.37-.2.38-.21.35-.27.35-.27.31-.31.29-.33.25-.36.23-.35.21-.39.18-.4.13-.39.12-.42.07-.43.04-.4.02-.43-.04-.42-.06-.41-.09-.4-.12-.39-.15-.37-.2-.36-.21-.66-.54-.29-.29-.27-.33-.23-.34-.21-.37-.2-.37-.15-.4-.12-.41-.07-.4-.06-.41-.02-.42.02-.43.06-.42.07-.41.12-.4.15-.39.2-.39.21-.36.23-.33.27-.33.29-.29.33-.29.33-.25.36-.21.37-.19.39-.16.4-.13.41-.08.42-.08.43-.02h.4l.43.06.42.08.39.09.4.16.39.17.35.2.36.25.33.25.31.29.27.31.27.32.21.37.2.37.17.38.14.41.09.4.08.41L0 .2zm-15.89 6.74H4.53V-6.74h-20.42z" id="path1943" fill="#b7babb" fill-rule="nonzero"/>
  </g>
  <g id="RESET_BTN" transform="scale(-2.6404 2.6404) rotate(-88.778 -66.044 112.22)">
    <ellipse cx="-5.157" cy="-.217" rx="5.156" ry="5.154" id="ellipse1947" fill="#f7f9f9"/>
  </g>
  <g transform="rotate(90 133.85 180.94) scale(2.6404)" id="g1952">
    <path d="M0 3.512v.001h3.562v-.014a1.75 1.75 0 001.69-1.743A1.75 1.75 0 003.562.012v-.013H0a1.757 1.757 0 100 3.513" id="path1950" fill="#8b8f91" fill-rule="nonzero"/>
  </g>
  <g transform="rotate(90 1479.512 30.732) scale(2.6404)" id="g1956">
    <path id="rect1954" fill="#897866" d="M567.001 452.754h2.6v3.514h-2.6z"/>
  </g>
  <g transform="rotate(90 1479.512 30.732) scale(2.6404)" id="g1960">
    <path id="rect1958" fill="#897866" d="M567.001 452.754h2.6v3.514h-2.6z"/>
  </g>
  <g transform="rotate(90 1479.512 30.732) scale(2.6404)" id="g1964">
    <path id="rect1962" fill="#897866" d="M567.001 452.754h2.6v3.514h-2.6z"/>
  </g>
  <g transform="rotate(90 1479.512 30.732) scale(2.6404)" id="g1968">
    <path id="rect1966" fill="#897866" d="M567.001 452.754h2.6v3.514h-2.6z"/>
  </g>
  <g transform="rotate(90 106.363 153.453) scale(2.6404)" id="g1972">
    <path d="M0 3.512v.001h3.562v-.014a1.75 1.75 0 001.69-1.743A1.75 1.75 0 003.562.012v-.013H0a1.757 1.757 0 100 3.513" id="path1970" fill="#8b8f91" fill-rule="nonzero"/>
  </g>
  <g transform="rotate(90 1424.542 -24.238) scale(2.6404)" id="g1976">
    <path id="rect1974" fill="#897866" d="M567.001 431.935h2.6v3.515h-2.6z"/>
  </g>
  <g transform="rotate(90 1424.542 -24.238) scale(2.6404)" id="g1980">
    <path id="rect1978" fill="#897866" d="M567.001 431.935h2.6v3.515h-2.6z"/>
  </g>
  <g transform="rotate(90 1424.542 -24.238) scale(2.6404)" id="g1984">
    <path id="rect1982" fill="#897866" d="M567.001 431.935h2.6v3.515h-2.6z"/>
  </g>
  <g transform="rotate(90 1424.542 -24.238) scale(2.6404)" id="g1988">
    <path id="rect1986" fill="#897866" d="M567.001 431.935h2.6v3.515h-2.6z"/>
  </g>
  <g transform="rotate(90 141.568 188.658) scale(2.6404)" id="g1992">
    <path d="M0 3.512v.001h3.562v-.014a1.75 1.75 0 001.69-1.743A1.75 1.75 0 003.562.012v-.013H0a1.757 1.757 0 100 3.513" id="path1990" fill="#8b8f91" fill-rule="nonzero"/>
  </g>
  <g transform="rotate(90 1494.948 46.168) scale(2.6404)" id="g1996">
    <path id="rect1994" fill="#897866" d="M567.001 458.6h2.6v3.515h-2.6z"/>
  </g>
  <g transform="rotate(90 1494.948 46.168) scale(2.6404)" id="g2000">
    <path id="rect1998" fill="#897866" d="M567.001 458.6h2.6v3.515h-2.6z"/>
  </g>
  <g transform="rotate(90 1494.948 46.168) scale(2.6404)" id="g2004">
    <path id="rect2002" fill="#897866" d="M567.001 458.6h2.6v3.515h-2.6z"/>
  </g>
  <g transform="rotate(90 1494.948 46.168) scale(2.6404)" id="g2008">
    <path id="rect2006" fill="#897866" d="M567.001 458.6h2.6v3.515h-2.6z"/>
  </g>
  <g transform="rotate(90 1299.241 -149.539) scale(2.6404)" id="g2012">
    <path id="rect2010" fill="#8b8f91" d="M568.38 356.604h57.888v59.267H568.38z"/>
  </g>
  <g transform="rotate(90 70.952 129.575) scale(2.6404)" id="g2016">
    <path d="M0 53.962h.035v.082h52.921l-.082-.082h.102V0h-.169v-.082H.035v.114L0 0z" id="path2014" fill="#aaaeaf" fill-rule="nonzero"/>
  </g>
  <g transform="rotate(90 1195.188 -253.592) scale(2.6404)" id="g2020">
    <path id="rect2018" fill="#6c982e" d="M568.38 337.053h57.888v19.552H568.38z"/>
  </g>
  <g transform="rotate(90 -19.733 65.55) scale(2.6404)" id="g2024">
    <path d="M0 6.611l-6.089-4.464V0h44.834v2.147l-6.089 4.464z" id="path2022" fill="#007482" fill-rule="nonzero"/>
  </g>
  <g transform="scale(2.6404 -2.6404) rotate(53.045 56.511 -22.863)" id="g2028">
    <path d="M7.543 8.25h9.53L-3.328-7.099l2.64 9.156z" id="path2026" fill="#007482" fill-rule="nonzero"/>
  </g>
  <g transform="rotate(90 29.657 218.302) scale(2.6404)" id="g2032">
    <path d="M0 3.95a.06.06 0 00.059-.059V.061A.059.059 0 000 0h-3.83c-.032 0-.059.029-.059.061v3.83a.06.06 0 00.059.059z" id="path2030" fill="#8badb4" fill-rule="nonzero"/>
  </g>
  <g transform="rotate(90 22.338 210.983) scale(2.6404)" id="g2036">
    <path d="M0 3.949a.06.06 0 00.059-.059V.06A.058.058 0 000 0h-3.83a.06.06 0 00-.059.06v3.83a.06.06 0 00.059.059z" id="path2034" fill="#8badb4" fill-rule="nonzero"/>
  </g>
  <g transform="rotate(90 36.698 211.262) scale(2.6404)" id="g2040">
    <path d="M0 3.95a.06.06 0 00.059-.059V.061A.059.059 0 000 0h-3.83c-.032 0-.059.029-.059.061v3.83a.06.06 0 00.059.059z" id="path2038" fill="#8badb4" fill-rule="nonzero"/>
  </g>
  <g transform="rotate(90 29.378 203.943) scale(2.6404)" id="g2044">
    <path d="M0 3.949a.06.06 0 00.059-.059V.06A.058.058 0 000 0h-3.83a.06.06 0 00-.059.06v3.83a.06.06 0 00.059.059z" id="path2042" fill="#8badb4" fill-rule="nonzero"/>
  </g>
  <g transform="matrix(2.6404 0 0 -2.6404 227.358 185.508)" id="g2048">
    <path id="rect2046" fill="#897866" d="M-.092.092h6.346v6.162H-.092z"/>
  </g>
  <g transform="rotate(90 36.168 206.62) scale(2.6404)" id="g2052">
    <path d="M0 5.539c-.213 0-.391-.112-.391-.254L-.387.248C-.387.113-.21 0 .003 0h5.071c.205 0 .38.113.38.248v5.037c0 .142-.175.254-.384.254z" id="path2050" fill="#8b8f91" fill-rule="nonzero"/>
  </g>
  <g transform="rotate(90 1396.875 -51.906) scale(2.6404)" id="g2056">
    <path id="rect2054" fill="#939798" d="M612.701 423.064h6.157v.3h-6.157z"/>
  </g>
  <g transform="rotate(90 1412.834 -35.946) scale(2.6404)" id="g2060">
    <path id="rect2058" fill="#939798" d="M612.701 429.11h6.162v.298h-6.162z"/>
  </g>
  <g transform="matrix(0 -2.6404 -2.6404 0 1452.944 1570.742)" id="g2064">
    <path id="rect2062" d="M565.526 437.394h12.533v12.533h-12.533z"/>
  </g>
  <g transform="matrix(0 -2.6404 -2.6404 0 1645.372 1768.182)" id="g2068">
    <path id="rect2066" d="M604.343 475.262h9.677v9.677h-9.677z"/>
  </g>
  <g transform="rotate(90 1413.737 -35.043) scale(2.6404)" id="g2072">
    <path id="rect2070" d="M587.665 420.408h14.174v18.386h-14.174z"/>
  </g>
  <g transform="rotate(90 59.273 180.88) scale(2.6404)" id="g2076">
    <path d="M0 5.173A2.586 2.586 0 110 0a2.587 2.587 0 110 5.173" id="path2074" fill="#f4dcc1" fill-rule="nonzero"/>
  </g>
  <g transform="rotate(90 57.514 175.813) scale(2.6404)" id="g2080">
    <path d="M0 0c0-.695.561-1.255 1.255-1.255.695 0 1.235.56 1.235 1.255 0 .695-.54 1.255-1.235 1.255C.561 1.255 0 .695 0 0m3.069 0c0-1.004-.81-1.814-1.814-1.814S-.56-1.004-.56 0s.811 1.814 1.815 1.814S3.069 1.004 3.069 0" id="path2078" fill="#eaa900" fill-rule="nonzero"/>
  </g>
  <g transform="rotate(90 1452.288 3.508) scale(2.6404)" id="g2084">
    <path id="rect2082" d="M590.868 439.973h10.971v8.456h-10.971z"/>
  </g>
  <g transform="rotate(90 1486.327 37.547) scale(2.6404)" id="g2088">
    <path id="rect2086" d="M590.868 449.869h10.971v14.447h-10.971z"/>
  </g>
  <g transform="rotate(90 103.844 229.677) scale(2.6404)" id="g2092">
    <path d="M0 5.173A2.586 2.586 0 110 0a2.586 2.586 0 110 5.173" id="path2090" fill="#f1cea2" fill-rule="nonzero"/>
  </g>
  <g transform="rotate(90 167.622 405.53) scale(2.6404)" id="g2096">
    <path d="M0 5.67c-1.57 0-2.84-1.27-2.84-2.84C-2.84 1.26-1.57-.01 0-.01c1.56 0 2.84 1.27 2.84 2.84C2.84 4.4 1.56 5.67 0 5.67m.02-7.19c-2.39 0-4.34 1.95-4.34 4.35 0 2.41 1.95 4.36 4.34 4.36h7.13v-8.71z" id="path2094" fill="#b6afa8" fill-rule="nonzero"/>
  </g>
  <g id="D12" transform="matrix(2.6404 0 0 -2.6404 573.178 237.908)">
    <path d="M-2.84-2.84c-1.57 0-2.84 1.28-2.84 2.84 0 1.57 1.27 2.84 2.84 2.84C-1.27 2.84 0 1.57 0 0c0-1.56-1.27-2.84-2.84-2.84" id="path2098" fill="#8b7866" fill-rule="nonzero"/>
  </g>
  <g transform="rotate(90 158.202 414.982) scale(2.6404)" id="g2103">
    <path d="M0 5.675a2.83 2.83 0 01-2.837-2.837A2.842 2.842 0 010 0z" id="path2101" fill="#fff" fill-rule="nonzero"/>
  </g>
  <g transform="rotate(90 149.495 387.404) scale(2.6404)" id="g2107">
    <path d="M0 5.68c-1.57 0-2.84-1.27-2.84-2.84C-2.84 1.27-1.57 0 0 0c1.56 0 2.84 1.27 2.84 2.84 0 1.57-1.28 2.84-2.84 2.84m.02-7.19c-2.39 0-4.34 1.95-4.34 4.34 0 2.41 1.95 4.36 4.34 4.36h7.13v-8.7z" id="path2105" fill="#b6afa8" fill-rule="nonzero"/>
  </g>
  <g id="D11" transform="matrix(2.6404 0 0 -2.6404 536.9 237.908)">
    <path d="M-2.84-2.84c-1.57 0-2.84 1.28-2.84 2.84 0 1.57 1.27 2.84 2.84 2.84C-1.27 2.84 0 1.57 0 0c0-1.56-1.27-2.84-2.84-2.84" id="path2109" fill="#8b7866" fill-rule="nonzero"/>
  </g>
  <g transform="rotate(90 140.07 396.849) scale(2.6404)" id="g2114">
    <path d="M0 5.675a2.83 2.83 0 01-2.837-2.837A2.842 2.842 0 010 0z" id="path2112" fill="#fff" fill-rule="nonzero"/>
  </g>
  <g transform="rotate(90 131.356 369.264) scale(2.6404)" id="g2118">
    <path d="M0 5.67c-1.57 0-2.84-1.27-2.84-2.84C-2.84 1.26-1.57-.01 0-.01c1.56 0 2.84 1.27 2.84 2.84C2.84 4.4 1.56 5.67 0 5.67m.02-7.19c-2.39 0-4.34 1.95-4.34 4.35 0 2.41 1.95 4.36 4.34 4.36h7.13v-8.71z" id="path2116" fill="#b6afa8" fill-rule="nonzero"/>
  </g>
  <g id="D10" transform="matrix(2.6404 0 0 -2.6404 500.645 237.908)">
    <path d="M-2.84-2.84c-1.57 0-2.84 1.28-2.84 2.84 0 1.57 1.27 2.84 2.84 2.84C-1.27 2.84 0 1.57 0 0c0-1.56-1.27-2.84-2.84-2.84" id="path2120" fill="#8b7866" fill-rule="nonzero"/>
  </g>
  <g transform="rotate(90 121.933 378.713) scale(2.6404)" id="g2125">
    <path d="M0 5.675a2.83 2.83 0 01-2.837-2.837A2.842 2.842 0 010 0z" id="path2123" fill="#fff" fill-rule="nonzero"/>
  </g>
  <g transform="rotate(90 113.216 351.125) scale(2.6404)" id="g2129">
    <path d="M0 5.67c-1.57 0-2.84-1.27-2.84-2.84C-2.84 1.26-1.57-.01 0-.01c1.56 0 2.84 1.27 2.84 2.84C2.84 4.4 1.56 5.67 0 5.67m.02-7.19c-2.39 0-4.34 1.95-4.34 4.34 0 2.42 1.95 4.37 4.34 4.37h7.13v-8.71z" id="path2127" fill="#b6afa8" fill-rule="nonzero"/>
  </g>
  <g id="D9" transform="matrix(2.6404 0 0 -2.6404 464.366 237.908)">
    <path d="M-2.84-2.84c-1.57 0-2.84 1.28-2.84 2.84 0 1.57 1.27 2.84 2.84 2.84C-1.27 2.84 0 1.57 0 0c0-1.56-1.27-2.84-2.84-2.84" id="path2131" fill="#8b7866" fill-rule="nonzero"/>
  </g>
  <g transform="rotate(90 103.8 360.58) scale(2.6404)" id="g2136">
    <path d="M0 5.675a2.83 2.83 0 01-2.837-2.837A2.842 2.842 0 010 0z" id="path2134" fill="#fff" fill-rule="nonzero"/>
  </g>
  <g transform="rotate(90 95.077 332.985) scale(2.6404)" id="g2140">
    <path d="M0 5.66c-1.57 0-2.84-1.27-2.84-2.84C-2.84 1.26-1.57-.02 0-.02a2.85 2.85 0 012.84 2.84c0 1.57-1.28 2.84-2.84 2.84m.02-7.18c-2.39 0-4.34 1.94-4.34 4.34 0 2.41 1.95 4.36 4.34 4.36h7.13v-8.7z" id="path2138" fill="#b6afa8" fill-rule="nonzero"/>
  </g>
  <g id="D8" transform="matrix(2.6404 0 0 -2.6404 428.113 237.908)">
    <path d="M-2.84-2.84c-1.57 0-2.84 1.28-2.84 2.84 0 1.57 1.27 2.84 2.84 2.84C-1.28 2.84 0 1.57 0 0a2.85 2.85 0 00-2.84-2.84" id="path2142" fill="#8b7866" fill-rule="nonzero"/>
  </g>
  <g transform="rotate(90 85.666 342.446) scale(2.6404)" id="g2147">
    <path d="M0 5.675a2.83 2.83 0 01-2.837-2.837A2.842 2.842 0 010 0z" id="path2145" fill="#fff" fill-rule="nonzero"/>
  </g>
  <g transform="rotate(90 76.95 314.858) scale(2.6404)" id="g2151">
    <path d="M0 5.67c-1.57 0-2.84-1.27-2.84-2.84C-2.84 1.26-1.57-.01 0-.01c1.56 0 2.84 1.27 2.84 2.84C2.84 4.4 1.56 5.67 0 5.67m.02-7.19c-2.39 0-4.34 1.95-4.34 4.34 0 2.42 1.95 4.37 4.34 4.37h7.13v-8.71z" id="path2149" fill="#b6afa8" fill-rule="nonzero"/>
  </g>
  <g id="D7" transform="matrix(2.6404 0 0 -2.6404 391.834 237.908)">
    <path d="M-2.84-2.84c-1.57 0-2.84 1.28-2.84 2.84 0 1.57 1.27 2.84 2.84 2.84C-1.27 2.84 0 1.57 0 0c0-1.56-1.27-2.84-2.84-2.84" id="path2153" fill="#8b7866" fill-rule="nonzero"/>
  </g>
  <g transform="rotate(90 67.533 324.313) scale(2.6404)" id="g2158">
    <path d="M0 5.675a2.83 2.83 0 01-2.837-2.838A2.842 2.842 0 010 0z" id="path2156" fill="#fff" fill-rule="nonzero"/>
  </g>
  <g transform="rotate(90 58.823 296.731) scale(2.6404)" id="g2162">
    <path d="M0 5.68c-1.57 0-2.84-1.28-2.84-2.84C-2.84 1.27-1.57 0 0 0c1.56 0 2.84 1.27 2.84 2.84A2.85 2.85 0 010 5.68m.02-7.19c-2.39 0-4.34 1.95-4.34 4.34 0 2.41 1.95 4.36 4.34 4.36h7.13v-8.7z" id="path2160" fill="#b6afa8" fill-rule="nonzero"/>
  </g>
  <g id="D6" transform="matrix(2.6404 0 0 -2.6404 355.554 237.908)">
    <path d="M-2.84-2.84A2.85 2.85 0 00-5.68 0c0 1.57 1.28 2.84 2.84 2.84C-1.27 2.84 0 1.57 0 0c0-1.56-1.27-2.84-2.84-2.84" id="path2164" fill="#8b7866" fill-rule="nonzero"/>
  </g>
  <g transform="rotate(90 49.397 306.177) scale(2.6404)" id="g2169">
    <path d="M0 5.675a2.83 2.83 0 01-2.837-2.838A2.842 2.842 0 010 0z" id="path2167" fill="#fff" fill-rule="nonzero"/>
  </g>
  <g transform="rotate(90 40.683 278.592) scale(2.6404)" id="g2173">
    <path d="M0 5.67c-1.57 0-2.84-1.27-2.84-2.84C-2.84 1.26-1.57-.01 0-.01c1.56 0 2.84 1.27 2.84 2.84C2.84 4.4 1.56 5.67 0 5.67m.02-7.19c-2.39 0-4.34 1.95-4.34 4.35 0 2.41 1.95 4.36 4.34 4.36h7.13v-8.71z" id="path2171" fill="#b6afa8" fill-rule="nonzero"/>
  </g>
  <g id="D5" transform="matrix(2.6404 0 0 -2.6404 319.3 237.908)">
    <path d="M-2.84-2.84c-1.57 0-2.84 1.28-2.84 2.84 0 1.57 1.27 2.84 2.84 2.84C-1.27 2.84 0 1.57 0 0c0-1.56-1.27-2.84-2.84-2.84" id="path2175" fill="#9e846d" fill-rule="nonzero"/>
  </g>
  <g transform="rotate(90 31.264 288.043) scale(2.6404)" id="g2180">
    <path d="M0 5.675a2.83 2.83 0 01-2.837-2.837A2.842 2.842 0 010 0z" id="path2178" fill="#fff" fill-rule="nonzero"/>
  </g>
  <g transform="rotate(90 22.56 260.468) scale(2.6404)" id="g2184">
    <path d="M0 5.68c-1.57 0-2.84-1.27-2.84-2.84C-2.84 1.27-1.57 0 0 0c1.56 0 2.84 1.27 2.84 2.84 0 1.57-1.28 2.84-2.84 2.84m.02-7.19c-2.39 0-4.34 1.95-4.34 4.34 0 2.41 1.95 4.36 4.34 4.36h7.13v-8.7z" id="path2182" fill="#b6afa8" fill-rule="nonzero"/>
  </g>
  <g id="D4" transform="matrix(2.6404 0 0 -2.6404 283.028 237.908)">
    <path d="M-2.84-2.84c-1.57 0-2.84 1.28-2.84 2.84 0 1.57 1.27 2.84 2.84 2.84C-1.27 2.84 0 1.57 0 0c0-1.56-1.27-2.84-2.84-2.84" id="path2186" fill="#9e846d" fill-rule="nonzero"/>
  </g>
  <g transform="rotate(90 13.13 269.91) scale(2.6404)" id="g2191">
    <path d="M0 5.675a2.83 2.83 0 01-2.837-2.837A2.842 2.842 0 010 0z" id="path2189" fill="#fff" fill-rule="nonzero"/>
  </g>
  <g transform="rotate(90 4.42 242.329) scale(2.6404)" id="g2195">
    <path d="M0 5.67c-1.57 0-2.84-1.27-2.84-2.84C-2.84 1.26-1.57-.01 0-.01c1.56 0 2.84 1.27 2.84 2.84C2.84 4.4 1.56 5.67 0 5.67m.02-7.19c-2.39 0-4.34 1.95-4.34 4.35 0 2.41 1.95 4.36 4.34 4.36h7.13v-8.71z" id="path2193" fill="#b6afa8" fill-rule="nonzero"/>
  </g>
  <g id="D3" transform="matrix(2.6404 0 0 -2.6404 246.774 237.908)">
    <path d="M-2.84-2.84c-1.57 0-2.84 1.28-2.84 2.84 0 1.57 1.27 2.84 2.84 2.84C-1.27 2.84 0 1.57 0 0c0-1.56-1.27-2.84-2.84-2.84" id="path2197" fill="#9e846d" fill-rule="nonzero"/>
  </g>
  <g transform="rotate(90 -5.003 251.777) scale(2.6404)" id="g2202">
    <path d="M0 5.675a2.83 2.83 0 01-2.837-2.837A2.842 2.842 0 010 0z" id="path2200" fill="#fff" fill-rule="nonzero"/>
  </g>
  <g transform="rotate(90 -13.72 224.19) scale(2.6404)" id="g2206">
    <path d="M0 5.67c-1.57 0-2.84-1.27-2.84-2.84C-2.84 1.26-1.57-.01 0-.01c1.56 0 2.84 1.27 2.84 2.84C2.84 4.4 1.56 5.67 0 5.67m.02-7.19c-2.39 0-4.34 1.95-4.34 4.34 0 2.42 1.95 4.37 4.34 4.37h7.13v-8.71z" id="path2204" fill="#b6afa8" fill-rule="nonzero"/>
  </g>
  <g id="D2" transform="matrix(2.6404 0 0 -2.6404 210.495 237.908)">
    <path d="M-2.84-2.84c-1.57 0-2.84 1.28-2.84 2.84 0 1.57 1.27 2.84 2.84 2.84C-1.27 2.84 0 1.57 0 0c0-1.56-1.27-2.84-2.84-2.84" id="path2208" fill="#9e846d" fill-rule="nonzero"/>
  </g>
  <g transform="rotate(90 -23.14 233.64) scale(2.6404)" id="g2213">
    <path d="M0 5.675a2.83 2.83 0 01-2.837-2.837A2.842 2.842 0 010 0z" id="path2211" fill="#fff" fill-rule="nonzero"/>
  </g>
  <g transform="rotate(90 -31.862 206.046) scale(2.6404)" id="g2217">
    <path d="M0 5.66c-1.57 0-2.84-1.27-2.84-2.84C-2.84 1.26-1.57-.02 0-.02a2.85 2.85 0 012.84 2.84c0 1.57-1.28 2.84-2.84 2.84m.02-7.18c-2.39 0-4.34 1.95-4.34 4.34 0 2.41 1.95 4.36 4.34 4.36h7.13v-8.7z" id="path2215" fill="#b6afa8" fill-rule="nonzero"/>
  </g>
  <g id="GND" transform="matrix(2.6404 0 0 -2.6404 174.241 237.908)">
    <path d="M-2.84-2.84c-1.57 0-2.84 1.28-2.84 2.84 0 1.57 1.27 2.84 2.84 2.84C-1.28 2.84 0 1.57 0 0a2.85 2.85 0 00-2.84-2.84" id="path2219" fill="#9e846d" fill-rule="nonzero"/>
  </g>
  <g transform="rotate(90 -41.272 215.507) scale(2.6404)" id="g2224">
    <path d="M0 5.675a2.83 2.83 0 01-2.837-2.838A2.842 2.842 0 010 0z" id="path2222" fill="#fff" fill-rule="nonzero"/>
  </g>
  <g transform="rotate(90 -49.986 187.923) scale(2.6404)" id="g2228">
    <path d="M0 5.67c-1.57 0-2.84-1.27-2.84-2.84C-2.84 1.26-1.57-.01 0-.01c1.56 0 2.84 1.27 2.84 2.84C2.84 4.4 1.56 5.67 0 5.67m.02-7.19c-2.39 0-4.34 1.95-4.34 4.34 0 2.42 1.95 4.37 4.34 4.37h7.13v-8.71z" id="path2226" fill="#b6afa8" fill-rule="nonzero"/>
  </g>
  <g id="RESET" transform="matrix(2.6404 0 0 -2.6404 137.962 237.908)">
    <path d="M-2.84-2.84c-1.57 0-2.84 1.28-2.84 2.84 0 1.57 1.27 2.84 2.84 2.84C-1.27 2.84 0 1.57 0 0c0-1.56-1.27-2.84-2.84-2.84" id="path2230" fill="#9e846d" fill-rule="nonzero"/>
  </g>
  <g transform="rotate(90 -59.406 197.374) scale(2.6404)" id="g2235">
    <path d="M0 5.675a2.83 2.83 0 01-2.837-2.838A2.842 2.842 0 010 0z" id="path2233" fill="#fff" fill-rule="nonzero"/>
  </g>
  <g transform="rotate(90 -68.113 169.795) scale(2.6404)" id="g2239">
    <path d="M0 5.68c-1.57 0-2.84-1.28-2.84-2.84C-2.84 1.27-1.57 0 0 0c1.56 0 2.84 1.27 2.84 2.84A2.85 2.85 0 010 5.68m.02-7.19c-2.39 0-4.34 1.95-4.34 4.34 0 2.41 1.95 4.36 4.34 4.36h7.13v-8.7z" id="path2237" fill="#b6afa8" fill-rule="nonzero"/>
  </g>
  <g id="RX" transform="matrix(2.6404 0 0 -2.6404 101.682 237.908)">
    <path d="M-2.84-2.84A2.85 2.85 0 00-5.68 0c0 1.57 1.28 2.84 2.84 2.84C-1.27 2.84 0 1.57 0 0c0-1.56-1.27-2.84-2.84-2.84" id="path2241" fill="#9e846d" fill-rule="nonzero"/>
  </g>
  <g transform="rotate(90 -77.54 179.24) scale(2.6404)" id="g2246">
    <path d="M0 5.675a2.83 2.83 0 01-2.837-2.837A2.842 2.842 0 010 0z" id="path2244" fill="#fff" fill-rule="nonzero"/>
  </g>
  <g transform="rotate(90 -86.253 151.656) scale(2.6404)" id="g2250">
    <path d="M0 5.67c-1.57 0-2.84-1.27-2.84-2.84C-2.84 1.26-1.57-.01 0-.01c1.56 0 2.84 1.27 2.84 2.84C2.84 4.4 1.56 5.67 0 5.67m.02-7.19c-2.39 0-4.34 1.95-4.34 4.35 0 2.41 1.95 4.36 4.34 4.36h7.13v-8.71z" id="path2248" fill="#b6afa8" fill-rule="nonzero"/>
  </g>
  <g id="TX" transform="matrix(2.6404 0 0 -2.6404 65.43 237.908)">
    <path d="M-2.84-2.84c-1.57 0-2.84 1.28-2.84 2.84 0 1.57 1.27 2.84 2.84 2.84C-1.27 2.84 0 1.57 0 0c0-1.56-1.27-2.84-2.84-2.84" id="path2252" fill="#9e846d" fill-rule="nonzero"/>
  </g>
  <g transform="rotate(90 -95.673 161.107) scale(2.6404)" id="g2257">
    <path d="M0 5.675a2.83 2.83 0 01-2.837-2.837A2.842 2.842 0 010 0z" id="path2255" fill="#fff" fill-rule="nonzero"/>
  </g>
  <g transform="rotate(90 23.272 42.157) scale(2.6404)" id="g2261">
    <path d="M0 5.69a2.839 2.839 0 01-2.84-2.84C-2.84 1.28-1.569.01 0 .01c1.57 0 2.84 1.27 2.84 2.84 0 1.57-1.27 2.84-2.84 2.84m-.03-7.2h-7.119V7.2H-.03a4.35 4.35 0 004.341-4.34C4.311.44 2.36-1.51-.03-1.51" id="path2259" fill="#b6afa8" fill-rule="nonzero"/>
  </g>
  <g id="VIN" transform="matrix(2.6404 0 0 -2.6404 65.404 18.884)">
    <path d="M-2.84-2.84c-1.57 0-2.84 1.27-2.84 2.84 0 1.569 1.27 2.84 2.84 2.84C-1.27 2.84 0 1.569 0 0c0-1.57-1.27-2.84-2.84-2.84" id="path2263" fill="#9e846d" fill-rule="nonzero"/>
  </g>
  <g transform="matrix(0 2.6404 -2.6404 0 50.4 0)" id="g2268">
    <path d="M0-5.675a2.83 2.83 0 012.838 2.838A2.843 2.843 0 010 0z" id="path2266" fill="#fff" fill-rule="nonzero"/>
  </g>
  <g transform="rotate(90 41.399 60.283) scale(2.6404)" id="g2272">
    <path d="M0 5.68a2.839 2.839 0 01-2.84-2.84C-2.84 1.28-1.569 0 0 0c1.57 0 2.84 1.28 2.84 2.84 0 1.57-1.27 2.84-2.84 2.84m-.03-7.19h-7.119v8.7H-.03a4.35 4.35 0 000-8.7" id="path2270" fill="#b6afa8" fill-rule="nonzero"/>
  </g>
  <g id="GND3" transform="matrix(2.6404 0 0 -2.6404 101.682 18.884)">
    <path d="M-2.84-2.84c-1.57 0-2.84 1.27-2.84 2.84 0 1.569 1.27 2.84 2.84 2.84C-1.28 2.84 0 1.569 0 0c0-1.57-1.28-2.84-2.84-2.84" id="path2274" fill="#9e846d" fill-rule="nonzero"/>
  </g>
  <g transform="matrix(0 2.6404 -2.6404 0 86.667 0)" id="g2279">
    <path d="M0-5.675a2.83 2.83 0 012.838 2.838A2.843 2.843 0 010 0z" id="path2277" fill="#fff" fill-rule="nonzero"/>
  </g>
  <g transform="rotate(90 59.54 78.423) scale(2.6404)" id="g2283">
    <path d="M0 5.69a2.839 2.839 0 01-2.84-2.84C-2.84 1.28-1.569.01 0 .01c1.57 0 2.84 1.27 2.84 2.84 0 1.57-1.27 2.84-2.84 2.84m-.03-7.2h-7.119V7.2H-.03c2.39 0 4.341-1.95 4.341-4.35C4.311.44 2.36-1.51-.03-1.51" id="path2281" fill="#b6afa8" fill-rule="nonzero"/>
  </g>
  <g id="RST" transform="matrix(2.6404 0 0 -2.6404 137.937 18.884)">
    <path d="M-2.84-2.84c-1.57 0-2.84 1.27-2.84 2.84 0 1.569 1.27 2.84 2.84 2.84C-1.27 2.84 0 1.569 0 0c0-1.57-1.27-2.84-2.84-2.84" id="path2285" fill="#9e846d" fill-rule="nonzero"/>
  </g>
  <g transform="matrix(0 2.6404 -2.6404 0 122.933 0)" id="g2290">
    <path d="M0-5.675a2.83 2.83 0 012.838 2.837A2.843 2.843 0 010 0z" id="path2288" fill="#fff" fill-rule="nonzero"/>
  </g>
  <g transform="rotate(90 77.666 96.55) scale(2.6404)" id="g2294">
    <path d="M0 5.68a2.839 2.839 0 01-2.84-2.84C-2.84 1.27-1.569 0 0 0c1.57 0 2.84 1.27 2.84 2.84 0 1.57-1.27 2.84-2.84 2.84m-.03-7.19h-7.119v8.7H-.03a4.35 4.35 0 000-8.7" id="path2292" fill="#b6afa8" fill-rule="nonzero"/>
  </g>
  <g id="5V" transform="matrix(2.6404 0 0 -2.6404 174.216 18.884)">
    <path d="M-2.84-2.84c-1.57 0-2.84 1.27-2.84 2.84 0 1.569 1.27 2.84 2.84 2.84C-1.27 2.84 0 1.569 0 0c0-1.57-1.27-2.84-2.84-2.84" id="path2296" fill="#9e846d" fill-rule="nonzero"/>
  </g>
  <g transform="matrix(0 2.6404 -2.6404 0 159.204 0)" id="g2301">
    <path d="M0-5.675a2.83 2.83 0 012.838 2.837A2.843 2.843 0 010 0z" id="path2299" fill="#fff" fill-rule="nonzero"/>
  </g>
  <g transform="rotate(90 95.805 114.69) scale(2.6404)" id="g2305">
    <path d="M0 5.69a2.845 2.845 0 01-2.84-2.84C-2.84 1.28-1.569.01 0 .01c1.57 0 2.84 1.27 2.84 2.84 0 1.56-1.27 2.84-2.84 2.84m-.03-7.2h-7.119V7.2H-.03c2.39 0 4.341-1.95 4.341-4.35C4.311.44 2.36-1.51-.03-1.51" id="path2303" fill="#b6afa8" fill-rule="nonzero"/>
  </g>
  <g id="A7" transform="matrix(2.6404 0 0 -2.6404 210.47 18.884)">
    <path d="M-2.84-2.84C-4.4-2.84-5.68-1.57-5.68 0c0 1.569 1.28 2.84 2.84 2.84C-1.27 2.84 0 1.569 0 0c0-1.57-1.27-2.84-2.84-2.84" id="path2307" fill="#9e846d" fill-rule="nonzero"/>
  </g>
  <g transform="matrix(0 2.6404 -2.6404 0 195.47 0)" id="g2312">
    <path d="M0-5.675a2.83 2.83 0 012.838 2.837A2.843 2.843 0 010 0z" id="path2310" fill="#fff" fill-rule="nonzero"/>
  </g>
  <g transform="rotate(90 113.945 132.83) scale(2.6404)" id="g2316">
    <path d="M0 5.69a2.839 2.839 0 01-2.84-2.84C-2.84 1.28-1.569.01 0 .01c1.57 0 2.84 1.27 2.84 2.84 0 1.57-1.27 2.84-2.84 2.84m-.03-7.2h-7.119V7.2H-.03a4.35 4.35 0 004.341-4.34C4.311.44 2.36-1.51-.03-1.51" id="path2314" fill="#b6afa8" fill-rule="nonzero"/>
  </g>
  <g id="A6" transform="matrix(2.6404 0 0 -2.6404 246.743 18.884)">
    <path d="M-2.84-2.84c-1.57 0-2.84 1.27-2.84 2.84 0 1.569 1.27 2.84 2.84 2.84C-1.27 2.84 0 1.569 0 0c0-1.57-1.27-2.84-2.84-2.84" id="path2318" fill="#9e846d" fill-rule="nonzero"/>
  </g>
  <g transform="matrix(0 2.6404 -2.6404 0 231.737 0)" id="g2323">
    <path d="M0-5.675a2.83 2.83 0 012.838 2.837A2.843 2.843 0 010 0z" id="path2321" fill="#fff" fill-rule="nonzero"/>
  </g>
  <g transform="rotate(90 132.072 150.956) scale(2.6404)" id="g2327">
    <path d="M0 5.68a2.837 2.837 0 01-2.84-2.83C-2.84 1.28-1.569.01 0 .01a2.836 2.836 0 110 5.67m-.03-7.19h-7.119v8.7H-.03a4.35 4.35 0 000-8.7" id="path2325" fill="#b6afa8" fill-rule="nonzero"/>
  </g>
  <g id="A5" transform="matrix(2.6404 0 0 -2.6404 283.009 18.897)">
    <path d="M-2.845-2.835c-1.56 0-2.83 1.27-2.83 2.84 0 1.569 1.27 2.84 2.83 2.84 1.57 0 2.84-1.271 2.84-2.84 0-1.57-1.27-2.84-2.84-2.84" id="path2329" fill="#9e846d" fill-rule="nonzero"/>
  </g>
  <g transform="matrix(0 2.6404 -2.6404 0 268.003 0)" id="g2334">
    <path d="M0-5.675a2.83 2.83 0 012.838 2.837A2.843 2.843 0 010 0z" id="path2332" fill="#fff" fill-rule="nonzero"/>
  </g>
  <g transform="rotate(90 150.211 169.096) scale(2.6404)" id="g2338">
    <path d="M0 5.69a2.839 2.839 0 01-2.84-2.84C-2.84 1.28-1.569.01 0 .01c1.57 0 2.84 1.27 2.84 2.84 0 1.57-1.27 2.84-2.84 2.84m-.03-7.2h-7.119V7.2H-.03a4.35 4.35 0 004.341-4.34C4.311.44 2.36-1.51-.03-1.51" id="path2336" fill="#b6afa8" fill-rule="nonzero"/>
  </g>
  <g id="A4" transform="matrix(2.6404 0 0 -2.6404 319.275 18.884)">
    <path d="M-2.84-2.84c-1.57 0-2.84 1.27-2.84 2.84 0 1.569 1.27 2.84 2.84 2.84C-1.27 2.84 0 1.569 0 0c0-1.57-1.27-2.84-2.84-2.84" id="path2340" fill="#9e846d" fill-rule="nonzero"/>
  </g>
  <g transform="matrix(0 2.6404 -2.6404 0 304.276 0)" id="g2345">
    <path d="M0-5.675a2.83 2.83 0 012.838 2.838A2.843 2.843 0 010 0z" id="path2343" fill="#fff" fill-rule="nonzero"/>
  </g>
  <g transform="rotate(90 168.335 187.22) scale(2.6404)" id="g2349">
    <path d="M0 5.68a2.839 2.839 0 01-2.84-2.84C-2.84 1.28-1.569 0 0 0c1.57 0 2.84 1.28 2.84 2.84 0 1.57-1.27 2.84-2.84 2.84m-.03-7.19h-7.119v8.7H-.03a4.35 4.35 0 000-8.7" id="path2347" fill="#b6afa8" fill-rule="nonzero"/>
  </g>
  <g id="A3" transform="matrix(2.6404 0 0 -2.6404 355.554 18.884)">
    <path d="M-2.84-2.84c-1.57 0-2.84 1.27-2.84 2.84 0 1.569 1.27 2.84 2.84 2.84C-1.28 2.84 0 1.569 0 0c0-1.57-1.28-2.84-2.84-2.84" id="path2351" fill="#8b7866" fill-rule="nonzero"/>
  </g>
  <g transform="matrix(0 2.6404 -2.6404 0 340.542 0)" id="g2356">
    <path d="M0-5.675a2.83 2.83 0 012.838 2.837A2.843 2.843 0 010 0z" id="path2354" fill="#fff" fill-rule="nonzero"/>
  </g>
  <g transform="rotate(90 186.475 205.359) scale(2.6404)" id="g2360">
    <path d="M0 5.69a2.839 2.839 0 01-2.84-2.84C-2.84 1.28-1.569.01 0 .01c1.57 0 2.84 1.27 2.84 2.84 0 1.57-1.27 2.84-2.84 2.84m-.03-7.2h-7.119V7.2H-.03c2.39 0 4.341-1.95 4.341-4.35C4.311.44 2.36-1.51-.03-1.51" id="path2358" fill="#b6afa8" fill-rule="nonzero"/>
  </g>
  <g id="A2" transform="matrix(2.6404 0 0 -2.6404 391.808 18.884)">
    <path d="M-2.84-2.84c-1.57 0-2.84 1.27-2.84 2.84 0 1.569 1.27 2.84 2.84 2.84C-1.27 2.84 0 1.569 0 0c0-1.57-1.27-2.84-2.84-2.84" id="path2362" fill="#8b7866" fill-rule="nonzero"/>
  </g>
  <g transform="matrix(0 2.6404 -2.6404 0 376.809 0)" id="g2367">
    <path d="M0-5.675a2.83 2.83 0 012.838 2.837A2.843 2.843 0 010 0z" id="path2365" fill="#fff" fill-rule="nonzero"/>
  </g>
  <g transform="rotate(90 204.602 223.486) scale(2.6404)" id="g2371">
    <path d="M0 5.68a2.839 2.839 0 01-2.84-2.84C-2.84 1.27-1.569 0 0 0c1.57 0 2.84 1.27 2.84 2.84 0 1.57-1.27 2.84-2.84 2.84m-.03-7.19h-7.119v8.7H-.03a4.35 4.35 0 004.341-4.34C4.311.43 2.36-1.51-.03-1.51" id="path2369" fill="#b6afa8" fill-rule="nonzero"/>
  </g>
  <g id="A1" transform="matrix(2.6404 0 0 -2.6404 428.087 18.884)">
    <path d="M-2.84-2.84c-1.57 0-2.84 1.27-2.84 2.84 0 1.569 1.27 2.84 2.84 2.84C-1.27 2.84 0 1.569 0 0c0-1.57-1.27-2.84-2.84-2.84" id="path2373" fill="#8b7866" fill-rule="nonzero"/>
  </g>
  <g transform="matrix(0 2.6404 -2.6404 0 413.075 0)" id="g2378">
    <path d="M0-5.675a2.83 2.83 0 012.838 2.837A2.843 2.843 0 010 0z" id="path2376" fill="#fff" fill-rule="nonzero"/>
  </g>
  <g transform="rotate(90 222.741 241.625) scale(2.6404)" id="g2382">
    <path d="M0 5.69a2.845 2.845 0 01-2.84-2.84C-2.84 1.28-1.569.01 0 .01c1.57 0 2.84 1.27 2.84 2.84 0 1.56-1.27 2.84-2.84 2.84m-.03-7.2h-7.119V7.2H-.03c2.39 0 4.341-1.95 4.341-4.35C4.311.44 2.36-1.51-.03-1.51" id="path2380" fill="#b6afa8" fill-rule="nonzero"/>
  </g>
  <g id="A0" transform="matrix(2.6404 0 0 -2.6404 464.341 18.884)">
    <path d="M-2.84-2.84C-4.4-2.84-5.68-1.57-5.68 0c0 1.569 1.28 2.84 2.84 2.84C-1.27 2.84 0 1.569 0 0c0-1.57-1.27-2.84-2.84-2.84" id="path2384" fill="#8b7866" fill-rule="nonzero"/>
  </g>
  <g transform="matrix(0 2.6404 -2.6404 0 449.348 0)" id="g2389">
    <path d="M0-5.675a2.83 2.83 0 012.838 2.837A2.843 2.843 0 010 0z" id="path2387" fill="#fff" fill-rule="nonzero"/>
  </g>
  <g transform="rotate(90 240.88 259.765) scale(2.6404)" id="g2393">
    <path d="M0 5.69a2.839 2.839 0 01-2.84-2.84C-2.84 1.28-1.569.01 0 .01c1.57 0 2.84 1.27 2.84 2.84 0 1.57-1.27 2.84-2.84 2.84m-.03-7.2h-7.119V7.2H-.03a4.35 4.35 0 004.341-4.34C4.311.44 2.36-1.51-.03-1.51" id="path2391" fill="#b6afa8" fill-rule="nonzero"/>
  </g>
  <g id="AREF" transform="matrix(2.6404 0 0 -2.6404 500.62 18.884)">
    <path d="M-2.84-2.84c-1.57 0-2.84 1.27-2.84 2.84 0 1.569 1.27 2.84 2.84 2.84C-1.27 2.84 0 1.569 0 0c0-1.57-1.27-2.84-2.84-2.84" id="path2395" fill="#8b7866" fill-rule="nonzero"/>
  </g>
  <g transform="matrix(0 2.6404 -2.6404 0 485.614 0)" id="g2400">
    <path d="M0-5.675a2.83 2.83 0 012.838 2.837A2.843 2.843 0 010 0z" id="path2398" fill="#fff" fill-rule="nonzero"/>
  </g>
  <g transform="matrix(0 2.6404 -2.6404 0 536.9 18.884)" id="g2404">
    <path d="M0 5.68a2.839 2.839 0 01-2.84-2.84C-2.84 1.28-1.569.01 0 .01a2.836 2.836 0 110 5.67m-.03-7.19h-7.119v8.7H-.03a4.35 4.35 0 000-8.7" id="path2402" fill="#b6afa8" fill-rule="nonzero"/>
  </g>
  <g id="3V" transform="matrix(2.6404 0 0 -2.6404 536.886 18.871)">
    <path d="M-2.835-2.845c-1.57 0-2.84 1.27-2.84 2.84 0 1.569 1.27 2.84 2.84 2.84 1.56 0 2.83-1.271 2.83-2.84 0-1.57-1.27-2.84-2.83-2.84" id="path2406" fill="#8b7866" fill-rule="nonzero"/>
  </g>
  <g transform="matrix(0 2.6404 -2.6404 0 521.88 0)" id="g2411">
    <path d="M0-5.675a2.83 2.83 0 012.838 2.838A2.843 2.843 0 010 0z" id="path2409" fill="#fff" fill-rule="nonzero"/>
  </g>
  <g transform="rotate(90 277.147 296.031) scale(2.6404)" id="g2415">
    <path d="M0 5.69a2.839 2.839 0 01-2.84-2.84C-2.84 1.28-1.569.01 0 .01c1.57 0 2.84 1.27 2.84 2.84 0 1.57-1.27 2.84-2.84 2.84m-.03-7.2h-7.119V7.2H-.03c2.39 0 4.341-1.95 4.341-4.35C4.311.44 2.36-1.51-.03-1.51" id="path2413" fill="#b6afa8" fill-rule="nonzero"/>
  </g>
  <g id="D13" transform="matrix(2.6404 0 0 -2.6404 573.153 18.884)">
    <path d="M-2.84-2.84c-1.57 0-2.84 1.27-2.84 2.84 0 1.569 1.27 2.84 2.84 2.84C-1.27 2.84 0 1.569 0 0c0-1.57-1.27-2.84-2.84-2.84" id="path2417" fill="#8b7866" fill-rule="nonzero"/>
  </g>
  <g transform="matrix(0 2.6404 -2.6404 0 558.147 0)" id="g2422">
    <path d="M0-5.675a2.83 2.83 0 012.838 2.837A2.843 2.843 0 010 0z" id="path2420" fill="#fff" fill-rule="nonzero"/>
  </g>
</svg>
