<?xml version="1.0" encoding="UTF-8" standalone="no"?>
<svg
   xmlns:serif="http://www.serif.com/"
   xmlns:dc="http://purl.org/dc/elements/1.1/"
   xmlns:cc="http://creativecommons.org/ns#"
   xmlns:rdf="http://www.w3.org/1999/02/22-rdf-syntax-ns#"
   xmlns:svg="http://www.w3.org/2000/svg"
   xmlns="http://www.w3.org/2000/svg"
   xmlns:sodipodi="http://sodipodi.sourceforge.net/DTD/sodipodi-0.dtd"
   xmlns:inkscape="http://www.inkscape.org/namespaces/inkscape"
   width="658.79999"
   height="256.78723"
   viewBox="0 0 658.79999 256.78723"
   version="1.1"
   xml:space="preserve"
   style="clip-rule:evenodd;fill-rule:evenodd;stroke-linecap:square;stroke-miterlimit:10"
   id="svg2460"
   sodipodi:docname="boardhd.svg"
   inkscape:version="1.0beta2 (2b71d25, 2019-12-03)"><metadata
   id="metadata2466"><rdf:RDF><cc:Work
       rdf:about=""><dc:format>image/svg+xml</dc:format><dc:type
         rdf:resource="http://purl.org/dc/dcmitype/StillImage" /><dc:title /></cc:Work></rdf:RDF></metadata><defs
   id="defs2464" /><sodipodi:namedview
   showguides="false"
   pagecolor="#ffffff"
   bordercolor="#666666"
   inkscape:document-rotation="0"
   borderopacity="1"
   objecttolerance="10"
   gridtolerance="10"
   guidetolerance="10"
   inkscape:pageopacity="0"
   inkscape:pageshadow="2"
   inkscape:window-width="1280"
   inkscape:window-height="800"
   id="namedview2462"
   showgrid="false"
   fit-margin-top="0"
   fit-margin-left="0"
   fit-margin-right="0"
   fit-margin-bottom="0"
   inkscape:zoom="1.2465515"
   inkscape:cx="270.68869"
   inkscape:cy="75.629054"
   inkscape:window-x="0"
   inkscape:window-y="0"
   inkscape:window-maximized="0"
   inkscape:current-layer="svg2460" />
    <g
   transform="matrix(0,2.6404009,-2.6404009,0,617.22011,238.409)"
   id="g1267">
        <path
   d="m 0,231.34 c -2.49,0 -4.511,-2.02 -4.511,-4.52 0,-2.49 2.021,-4.51 4.511,-4.51 2.489,0 4.52,2.02 4.52,4.51 0,2.5 -2.031,4.52 -4.52,4.52 m -83.36,0 c -2.491,0 -4.51,-2.02 -4.51,-4.52 0,-2.49 2.019,-4.51 4.51,-4.51 2.5,0 4.519,2.02 4.519,4.51 0,2.5 -2.019,4.52 -4.519,4.52 m 3.059,-211.81 c 0,1.57 -1.269,2.84 -2.84,2.84 -1.569,0 -2.839,-1.27 -2.839,-2.84 0,-1.57 1.27,-2.84 2.839,-2.84 1.571,0 2.84,1.27 2.84,2.84 m 0,13.73 c 0,1.57 -1.269,2.84 -2.84,2.84 -1.569,0 -2.839,-1.27 -2.839,-2.84 0,-1.56 1.27,-2.83 2.839,-2.83 1.571,0 2.84,1.27 2.84,2.83 m 0,13.74 c 0,1.57 -1.269,2.84 -2.84,2.84 -1.569,0 -2.839,-1.27 -2.839,-2.84 0,-1.57 1.27,-2.84 2.839,-2.84 1.571,0 2.84,1.27 2.84,2.84 m 0,13.74 c 0,1.56 -1.269,2.84 -2.84,2.84 -1.569,0 -2.839,-1.28 -2.839,-2.84 0,-1.57 1.27,-2.84 2.839,-2.84 1.571,0 2.84,1.27 2.84,2.84 m 0,13.73 c 0,1.57 -1.269,2.84 -2.84,2.84 -1.569,0 -2.839,-1.27 -2.839,-2.84 0,-1.57 1.27,-2.84 2.839,-2.84 1.571,0 2.84,1.27 2.84,2.84 m 0,13.74 c 0,1.57 -1.269,2.84 -2.84,2.84 -1.569,0 -2.839,-1.27 -2.839,-2.84 0,-1.57 1.27,-2.84 2.839,-2.84 1.571,0 2.84,1.27 2.84,2.84 m 0,13.73 c 0,1.57 -1.269,2.84 -2.84,2.84 -1.569,0 -2.839,-1.27 -2.839,-2.84 0,-1.56 1.27,-2.84 2.839,-2.84 1.571,0 2.84,1.28 2.84,2.84 m 0,13.74 c 0,1.57 -1.269,2.84 -2.84,2.84 -1.569,0 -2.839,-1.27 -2.839,-2.84 0,-1.57 1.27,-2.84 2.839,-2.84 1.571,0 2.84,1.27 2.84,2.84 m 0,13.74 c 0,1.56 -1.269,2.83 -2.84,2.83 -1.569,0 -2.839,-1.27 -2.839,-2.83 0,-1.57 1.27,-2.84 2.839,-2.84 1.571,0 2.84,1.27 2.84,2.84 m 0,13.73 c 0,1.57 -1.269,2.84 -2.84,2.84 -1.569,0 -2.839,-1.27 -2.839,-2.84 0,-1.57 1.27,-2.84 2.839,-2.84 1.571,0 2.84,1.27 2.84,2.84 m 0,13.74 c 0,1.56 -1.269,2.84 -2.84,2.84 -1.569,0 -2.839,-1.28 -2.839,-2.84 0,-1.57 1.27,-2.84 2.839,-2.84 1.571,0 2.84,1.27 2.84,2.84 m 0,13.73 c 0,1.57 -1.269,2.84 -2.84,2.84 -1.569,0 -2.839,-1.27 -2.839,-2.84 0,-1.57 1.27,-2.84 2.839,-2.84 1.571,0 2.84,1.27 2.84,2.84 m 0,13.74 c 0,1.57 -1.269,2.84 -2.84,2.84 -1.569,0 -2.839,-1.27 -2.839,-2.84 0,-1.57 1.27,-2.84 2.839,-2.84 1.571,0 2.84,1.27 2.84,2.84 m 0,13.73 c 0,1.57 -1.269,2.84 -2.84,2.84 -1.569,0 -2.839,-1.27 -2.839,-2.84 0,-1.56 1.27,-2.84 2.839,-2.84 1.571,0 2.84,1.28 2.84,2.84 m 0,13.74 c 0,1.57 -1.269,2.84 -2.84,2.84 -1.569,0 -2.839,-1.27 -2.839,-2.84 0,-1.57 1.27,-2.84 2.839,-2.84 1.571,0 2.84,1.27 2.84,2.84 M -83.36,0.03 c 2.5,0 4.519,2.02 4.519,4.52 0,2.49 -2.019,4.51 -4.519,4.51 -2.491,0 -4.51,-2.02 -4.51,-4.51 0,-2.5 2.019,-4.52 4.51,-4.52 m 43.96,61.34 -0.401,0.14 -0.389,0.12 -0.42,0.07 -0.43,0.04 -0.4,0.02 -0.43,-0.04 -0.42,-0.06 -0.41,-0.09 -0.401,-0.12 -0.389,-0.15 -0.37,-0.2 -0.361,-0.21 -0.66,-0.54 -0.29,-0.29 -0.269,-0.33 -0.231,-0.34 -0.21,-0.37 -0.199,-0.37 -0.15,-0.4 -0.121,-0.41 -0.07,-0.4 -0.059,-0.41 -0.02,-0.42 0.02,-0.43 0.059,-0.42 0.07,-0.41 0.121,-0.4 0.15,-0.39 0.199,-0.39 0.21,-0.36 0.231,-0.33 0.269,-0.33 0.29,-0.29 0.33,-0.29 0.33,-0.25 0.361,-0.21 0.37,-0.19 0.389,-0.16 0.401,-0.13 0.41,-0.08 0.42,-0.08 0.43,-0.02 h 0.4 l 0.43,0.06 0.42,0.08 0.389,0.09 0.401,0.16 0.389,0.17 0.351,0.2 0.359,0.25 0.33,0.25 0.311,0.29 0.269,0.31 0.271,0.32 0.21,0.37 0.2,0.37 0.17,0.38 0.14,0.41 0.089,0.4 0.081,0.41 0.04,0.42 v 0.43 l -0.04,0.4 -0.081,0.43 -0.089,0.4 -0.14,0.41 -0.17,0.37 -0.2,0.38 -0.21,0.35 -0.271,0.35 -0.269,0.31 -0.311,0.29 -0.33,0.25 -0.359,0.23 -0.351,0.21 z M -3.03,19.52 c 0,-1.57 1.269,-2.84 2.84,-2.84 1.559,0 2.839,1.27 2.839,2.84 0,1.57 -1.28,2.84 -2.839,2.84 -1.571,0 -2.84,-1.27 -2.84,-2.84 m 0,13.74 c 0,-1.57 1.269,-2.84 2.84,-2.84 1.559,0 2.839,1.27 2.839,2.84 0,1.57 -1.28,2.84 -2.839,2.84 -1.571,0 -2.84,-1.27 -2.84,-2.84 m 0,13.73 c 0,-1.57 1.269,-2.84 2.84,-2.84 1.559,0 2.839,1.27 2.839,2.84 0,1.57 -1.28,2.84 -2.839,2.84 -1.571,0 -2.84,-1.27 -2.84,-2.84 m 0,13.74 c 0,-1.57 1.269,-2.84 2.84,-2.84 1.559,0 2.839,1.27 2.839,2.84 0,1.57 -1.28,2.84 -2.839,2.84 -1.571,0 -2.84,-1.27 -2.84,-2.84 m 0,13.73 c 0,-1.56 1.269,-2.84 2.84,-2.84 1.559,0 2.839,1.28 2.839,2.84 0,1.57 -1.28,2.84 -2.839,2.84 -1.571,0 -2.84,-1.27 -2.84,-2.84 m 0,13.74 c 0,-1.57 1.269,-2.84 2.84,-2.84 1.559,0 2.839,1.27 2.839,2.84 0,1.57 -1.28,2.84 -2.839,2.84 -1.571,0 -2.84,-1.27 -2.84,-2.84 m 0,13.74 c 0,-1.57 1.269,-2.84 2.84,-2.84 1.559,0 2.839,1.27 2.839,2.84 0,1.56 -1.28,2.84 -2.839,2.84 -1.571,0 -2.84,-1.28 -2.84,-2.84 m 0,13.73 c 0,-1.57 1.269,-2.84 2.84,-2.84 1.559,0 2.839,1.27 2.839,2.84 0,1.57 -1.28,2.84 -2.839,2.84 -1.571,0 -2.84,-1.27 -2.84,-2.84 m 0,13.74 c 0,-1.57 1.269,-2.84 2.84,-2.84 1.559,0 2.839,1.27 2.839,2.84 0,1.57 -1.28,2.84 -2.839,2.84 -1.571,0 -2.84,-1.27 -2.84,-2.84 m 0,13.73 c 0,-1.57 1.269,-2.84 2.84,-2.84 1.559,0 2.839,1.27 2.839,2.84 0,1.57 -1.28,2.84 -2.839,2.84 -1.571,0 -2.84,-1.27 -2.84,-2.84 m 0,13.74 c 0,-1.57 1.269,-2.84 2.84,-2.84 1.559,0 2.839,1.27 2.839,2.84 0,1.57 -1.28,2.84 -2.839,2.84 -1.571,0 -2.84,-1.27 -2.84,-2.84 m 0,13.73 c 0,-1.56 1.269,-2.84 2.84,-2.84 1.559,0 2.839,1.28 2.839,2.84 0,1.57 -1.28,2.84 -2.839,2.84 -1.571,0 -2.84,-1.27 -2.84,-2.84 m 0,13.74 c 0,-1.57 1.269,-2.84 2.84,-2.84 1.559,0 2.839,1.27 2.839,2.84 0,1.57 -1.28,2.84 -2.839,2.84 -1.571,0 -2.84,-1.27 -2.84,-2.84 m 0,13.74 c 0,-1.57 1.269,-2.84 2.84,-2.84 1.559,0 2.839,1.27 2.839,2.84 0,1.56 -1.28,2.84 -2.839,2.84 -1.571,0 -2.84,-1.28 -2.84,-2.84 m 0,13.73 c 0,-1.57 1.269,-2.84 2.84,-2.84 1.559,0 2.839,1.27 2.839,2.84 0,1.57 -1.28,2.84 -2.839,2.84 -1.571,0 -2.84,-1.27 -2.84,-2.84 M 0,0.03 c 2.489,0 4.52,2.02 4.52,4.52 C 4.52,7.04 2.489,9.06 0,9.06 -2.49,9.06 -4.511,7.04 -4.511,4.55 -4.511,2.05 -2.49,0.03 0,0.03 M -90.29,233.76 H 6.96 V -2.42 h -97.25 z"
   style="fill:#007482;fill-rule:nonzero"
   id="path1265"
   inkscape:connector-curvature="0" />
    </g>
    <g
   transform="matrix(0,2.6404009,-2.6404009,0,575.71304,152.7777)"
   id="g1271">
        <path
   d="m 0,8.004 v -8 c 0,-0.197 -0.158,-0.357 -0.355,-0.357 h -2.148 c -0.198,0 -0.358,0.16 -0.358,0.357 v 8 c 0,0.197 0.16,0.353 0.358,0.353 h 2.148 C -0.158,8.357 0,8.201 0,8.004"
   style="fill:#b7babb;fill-rule:nonzero"
   id="path1269"
   inkscape:connector-curvature="0" />
    </g>
    <g
   transform="matrix(0,2.6404009,-2.6404009,0,575.71304,141.92249)"
   id="g1275">
        <path
   d="m 0,8.004 v -8 c 0,-0.197 -0.159,-0.357 -0.354,-0.357 h -2.147 c -0.197,0 -0.361,0.16 -0.361,0.357 v 8 c 0,0.197 0.164,0.353 0.361,0.353 h 2.147 C -0.159,8.357 0,8.201 0,8.004"
   style="fill:#b7babb;fill-rule:nonzero"
   id="path1273"
   inkscape:connector-curvature="0" />
    </g>
    <g
   transform="matrix(0,2.6404009,-2.6404009,0,575.71304,131.0863)"
   id="g1279">
        <path
   d="m 0,8.004 v -8 c 0,-0.197 -0.162,-0.357 -0.357,-0.357 h -2.151 c -0.197,0 -0.353,0.16 -0.353,0.357 v 8 c 0,0.197 0.156,0.353 0.353,0.353 h 2.151 C -0.162,8.357 0,8.201 0,8.004"
   style="fill:#b7babb;fill-rule:nonzero"
   id="path1277"
   inkscape:connector-curvature="0" />
    </g>
    <g
   transform="matrix(0,2.6404009,-2.6404009,0,575.71304,120.22475)"
   id="g1283">
        <path
   d="m 0,8.004 v -8 c 0,-0.197 -0.156,-0.357 -0.354,-0.357 h -2.148 c -0.197,0 -0.357,0.16 -0.357,0.357 v 8 c 0,0.197 0.16,0.353 0.357,0.353 h 2.148 C -0.156,8.357 0,8.201 0,8.004"
   style="fill:#b7babb;fill-rule:nonzero"
   id="path1281"
   inkscape:connector-curvature="0" />
    </g>
    <g
   transform="matrix(0,2.6404009,-2.6404009,0,575.71304,109.38222)"
   id="g1287">
        <path
   d="m 0,8.004 v -8 c 0,-0.197 -0.16,-0.357 -0.357,-0.357 h -2.149 c -0.201,0 -0.357,0.16 -0.357,0.357 v 8 c 0,0.197 0.156,0.353 0.357,0.353 h 2.149 C -0.16,8.357 0,8.201 0,8.004"
   style="fill:#b7babb;fill-rule:nonzero"
   id="path1285"
   inkscape:connector-curvature="0" />
    </g>
    <g
   transform="matrix(0,-2.6404009,-2.6404009,0,2114.453,1705.5667)"
   id="g1291">
        <rect
   x="574.31897"
   y="551.29999"
   width="46.008999"
   height="35.255001"
   style="fill:#939798"
   id="rect1289" />
    </g>
    <g
   transform="matrix(0,2.6404009,-2.6404009,0,565.71332,67.653354)"
   id="g1295">
        <path
   d="M 0,-3.526 V 0 h 46.009 v -3.526 h -0.126 z"
   style="fill:#8b8f91;fill-rule:nonzero"
   id="path1293"
   inkscape:connector-curvature="0" />
    </g>
    <g
   transform="matrix(0,2.6404009,-2.6404009,0,584.3313,67.653354)"
   id="g1299">
        <path
   d="M 0,-3.525 V 0 h 46.009 v -3.525 h -0.126 z"
   style="fill:#8b8f91;fill-rule:nonzero"
   id="path1297"
   inkscape:connector-curvature="0" />
    </g>
    <g
   transform="matrix(0,2.6404009,-2.6404009,0,602.94928,67.653354)"
   id="g1303">
        <path
   d="M 0,-3.525 V 0 h 46.009 v -3.525 h -0.126 z"
   style="fill:#8b8f91;fill-rule:nonzero"
   id="path1301"
   inkscape:connector-curvature="0" />
    </g>
    <g
   transform="matrix(0,2.6404009,-2.6404009,0,621.56726,67.653354)"
   id="g1307">
        <path
   d="M 0,-3.526 V 0 h 46.009 v -3.526 h -0.126 z"
   style="fill:#8b8f91;fill-rule:nonzero"
   id="path1305"
   inkscape:connector-curvature="0" />
    </g>
    <g
   transform="matrix(0,2.6404009,-2.6404009,0,640.18526,67.653354)"
   id="g1311">
        <path
   d="M 0,-3.525 V 0 h 46.009 v -3.525 h -0.126 z"
   style="fill:#8b8f91;fill-rule:nonzero"
   id="path1309"
   inkscape:connector-curvature="0" />
    </g>
    <g
   transform="matrix(-2.6404009,4.0115473e-4,4.0115473e-4,2.6404009,399.19076,127.42987)"
   id="g1315">
        <rect
   x="-8.9119997"
   y="-10.839"
   width="19.752001"
   height="1.926"
   style="fill:#8badb4"
   id="rect1313" />
    </g>
    <g
   transform="matrix(0.00146567,2.6404009,2.6404009,-0.00146567,409.2285,109.79412)"
   id="g1319">
        <rect
   x="-0.001"
   y="0.001"
   width="3.605"
   height="1.927"
   style="fill:#8badb4"
   id="rect1317" />
    </g>
    <g
   transform="matrix(0.00146567,2.6404009,2.6404009,-0.00146567,399.20344,109.79412)"
   id="g1323">
        <rect
   x="-0.001"
   y="0.001"
   width="3.605"
   height="1.926"
   style="fill:#8badb4"
   id="rect1321" />
    </g>
    <g
   transform="matrix(0.0021985,2.6404009,2.6404009,-0.0021985,389.17837,109.79412)"
   id="g1327">
        <rect
   x="-0.001"
   y="0.0020000001"
   width="3.6059999"
   height="1.926"
   style="fill:#8badb4"
   id="rect1325" />
    </g>
    <g
   transform="matrix(0.00146567,2.6404009,2.6404009,-0.00146567,379.15964,109.79412)"
   id="g1331">
        <rect
   x="-0.001"
   y="0.001"
   width="3.605"
   height="1.927"
   style="fill:#8badb4"
   id="rect1329" />
    </g>
    <g
   transform="matrix(-2.6404009,4.0115473e-4,4.0115473e-4,2.6404009,399.19076,117.88008)"
   id="g1335">
        <rect
   x="-8.9119997"
   y="-10.839"
   width="19.752001"
   height="1.926"
   style="fill:#8badb4"
   id="rect1333" />
    </g>
    <g
   transform="matrix(-2.6404009,4.0115473e-4,4.0115473e-4,2.6404009,399.19076,108.33028)"
   id="g1339">
        <rect
   x="-8.9119997"
   y="-10.839"
   width="19.752001"
   height="1.926"
   style="fill:#8badb4"
   id="rect1337" />
    </g>
    <g
   transform="matrix(-2.6404009,4.0115473e-4,4.0115473e-4,2.6404009,399.19076,98.780488)"
   id="g1343">
        <rect
   x="-8.9119997"
   y="-10.839"
   width="19.752001"
   height="1.926"
   style="fill:#8badb4"
   id="rect1341" />
    </g>
    <g
   transform="matrix(-2.6404009,4.0115473e-4,4.0115473e-4,2.6404009,399.19076,89.224357)"
   id="g1347">
        <rect
   x="-8.9119997"
   y="-10.839"
   width="19.752001"
   height="1.926"
   style="fill:#8badb4"
   id="rect1345" />
    </g>
    <g
   transform="matrix(-2.6404009,4.0115473e-4,4.0115473e-4,2.6404009,399.19076,79.674562)"
   id="g1351">
        <rect
   x="-8.9119997"
   y="-10.839"
   width="19.752001"
   height="1.926"
   style="fill:#8badb4"
   id="rect1349" />
    </g>
    <g
   transform="matrix(0,2.6404009,-2.6404009,0,417.70101,114.54684)"
   id="g1355">
        <path
   d="M 0,15.877 V 14.002 H -0.001 L -0.005,0.044 -2.479,0.038 V 0.04 L -27.307,0 v 1.875 h 10e-4 l 0.004,12.086 h -0.004 l 0.005,1.87 z"
   style="fill:#171e21;fill-rule:nonzero"
   id="path1353"
   inkscape:connector-curvature="0" />
    </g>
    <g
   transform="matrix(0,-2.6404009,-2.6404009,0,2080.5693,1538.2203)"
   id="g1359">
        <rect
   x="563.20502"
   y="556.40997"
   width="4.8590002"
   height="12.202"
   style="fill:#8b8f91"
   id="rect1357" />
    </g>
    <g
   id="LED"
   transform="matrix(0,2.6404009,-2.6404009,0,605.23692,44.719907)">
        <path
   d="M 0,7.504 C -2.073,7.504 -3.752,5.822 -3.752,3.752 -3.752,1.679 -2.073,0 0,0 2.071,0 3.752,1.679 3.752,3.752 3.752,5.822 2.071,7.504 0,7.504"
   style="fill:#eaa900;fill-rule:nonzero"
   id="path1361"
   inkscape:connector-curvature="0" />
    </g>
    <g
   transform="matrix(0,-2.6404009,-2.6404009,0,2080.5693,1872.9067)"
   id="g1366">
        <rect
   x="626.58197"
   y="556.40997"
   width="4.8600001"
   height="12.202"
   style="fill:#8b8f91"
   id="rect1364" />
    </g>
    <g
   id="PWR_LED"
   transform="matrix(0,2.6404009,-2.6404009,0,605.23692,212.06627)">
        <path
   d="M 0,7.504 C -2.073,7.504 -3.752,5.822 -3.752,3.752 -3.752,1.679 -2.073,0 0,0 2.07,0 3.752,1.679 3.752,3.752 3.752,5.822 2.07,7.504 0,7.504"
   style="fill:#1da086;fill-rule:nonzero"
   id="path1368"
   inkscape:connector-curvature="0" />
    </g>
    <g
   transform="matrix(0,-2.6404009,-2.6404009,0,1753.0246,1829.3211)"
   id="g1373">
        <rect
   x="616.39099"
   y="498.32101"
   width="8.7349997"
   height="4.3299999"
   style="fill:#8b8f91"
   id="rect1371" />
    </g>
    <g
   transform="matrix(0,-2.6404009,-2.6404009,0,1694.6486,1829.3211)"
   id="g1377">
        <rect
   x="616.39099"
   y="487.26599"
   width="8.7349997"
   height="4.3299999"
   style="fill:#8b8f91"
   id="rect1375" />
    </g>
    <g
   transform="matrix(0,2.6404009,-2.6404009,0,403.61396,181.35104)"
   id="g1381">
        <path
   d="m 0,-1.215 c 0,0.927 0.76,1.687 1.687,1.687 h 3.377 c 0.931,0 1.691,-0.76 1.691,-1.687 V -1.687 H 0 Z"
   style="fill:#897866;fill-rule:nonzero"
   id="path1379"
   inkscape:connector-curvature="0" />
    </g>
    <g
   transform="matrix(0,2.6404009,-2.6404009,0,430.29255,199.18957)"
   id="g1385">
        <path
   d="m 0,1.218 c 0,-0.927 -0.76,-1.69 -1.69,-1.69 h -3.377 c -0.928,0 -1.688,0.763 -1.688,1.69 V 1.69 H 0 Z"
   style="fill:#897866;fill-rule:nonzero"
   id="path1383"
   inkscape:connector-curvature="0" />
    </g>
    <g
   transform="matrix(0,2.6404009,-2.6404009,0,1723.8366,-1448.7805)"
   id="g1389">
        <rect
   x="617.38098"
   y="491.59601"
   width="6.7550001"
   height="6.7259998"
   id="rect1387" />
    </g>
    <g
   transform="matrix(0,-2.6404009,-2.6404009,0,1961.9098,1637.7549)"
   id="g1393">
        <rect
   x="580.11499"
   y="537.87598"
   width="8.7349997"
   height="4.3299999"
   style="fill:#8b8f91"
   id="rect1391" />
    </g>
    <g
   transform="matrix(0,-2.6404009,-2.6404009,0,1903.5274,1637.7549)"
   id="g1397">
        <rect
   x="580.11499"
   y="526.82098"
   width="8.7349997"
   height="4.3299999"
   style="fill:#8b8f91"
   id="rect1395" />
    </g>
    <g
   transform="matrix(0,2.6404009,-2.6404009,0,508.05335,85.567932)"
   id="g1401">
        <path
   d="m 0,-1.215 c 0,0.927 0.76,1.687 1.687,1.687 h 3.377 c 0.931,0 1.691,-0.76 1.691,-1.687 V -1.687 H 0 Z"
   style="fill:#897866;fill-rule:nonzero"
   id="path1399"
   inkscape:connector-curvature="0" />
    </g>
    <g
   transform="matrix(0,2.6404009,-2.6404009,0,534.73194,103.40647)"
   id="g1405">
        <path
   d="m 0,1.218 c 0,-0.927 -0.76,-1.69 -1.69,-1.69 h -3.377 c -0.928,0 -1.688,0.763 -1.688,1.69 V 1.69 H 0 Z"
   style="fill:#897866;fill-rule:nonzero"
   id="path1403"
   inkscape:connector-curvature="0" />
    </g>
    <g
   transform="matrix(0,2.6404009,-2.6404009,0,1932.7217,-1448.7805)"
   id="g1409">
        <rect
   x="581.10498"
   y="531.151"
   width="6.7550001"
   height="6.7259998"
   id="rect1407" />
    </g>
    <g
   transform="matrix(0,-2.6404009,-2.6404009,0,1925.9475,1719.2608)"
   id="g1413">
        <rect
   x="595.69299"
   y="526.82098"
   width="8.448"
   height="12.821"
   style="fill:#007482"
   id="rect1411" />
    </g>
    <g
   transform="matrix(0,-2.6404009,-2.6404009,0,1925.9475,1719.2608)"
   id="g1417">
        <rect
   x="595.69299"
   y="526.82098"
   width="8.448"
   height="12.821"
   id="rect1415" />
    </g>
    <g
   transform="matrix(0,-2.6404009,-2.6404009,0,1948.1649,1687.6014)"
   id="g1421">
        <rect
   x="590.86902"
   y="536.33099"
   width="6.1059999"
   height="2.2149999"
   style="fill:#8b8f91"
   id="rect1419" />
    </g>
    <g
   transform="matrix(0,-2.6404009,-2.6404009,0,1903.7302,1687.6014)"
   id="g1425">
        <rect
   x="590.86902"
   y="527.91699"
   width="6.1059999"
   height="2.2149999"
   style="fill:#8b8f91"
   id="rect1423" />
    </g>
    <g
   transform="matrix(0,-2.6404009,-2.6404009,0,1948.1649,1745.5465)"
   id="g1429">
        <rect
   x="601.84003"
   y="536.33099"
   width="6.1100001"
   height="2.2149999"
   style="fill:#8b8f91"
   id="rect1427" />
    </g>
    <g
   transform="matrix(0,-2.6404009,-2.6404009,0,1903.7302,1745.5465)"
   id="g1433">
        <rect
   x="601.84003"
   y="527.91699"
   width="6.1100001"
   height="2.2149999"
   style="fill:#8b8f91"
   id="rect1431" />
    </g>
    <g
   transform="matrix(0,2.6404009,-2.6404009,0,373.51975,178.95567)"
   id="g1437">
        <path
   d="m 0,-3.495 h -0.002 v 3.562 h 0.015 c 0.037,0.938 0.796,1.69 1.743,1.69 0.946,0 1.707,-0.752 1.744,-1.69 h 0.013 v -1.71 -0.14 -1.712 C 3.513,-4.466 2.726,-5.252 1.756,-5.252 0.786,-5.252 0,-4.466 0,-3.495"
   style="fill:#8b8f91;fill-rule:nonzero"
   id="path1435"
   inkscape:connector-curvature="0" />
    </g>
    <g
   transform="matrix(0,-2.6404009,-2.6404009,0,1646.0822,1815.9628)"
   id="g1441">
        <rect
   x="616.47101"
   y="478.935"
   width="3.5150001"
   height="2.599"
   style="fill:#897866"
   id="rect1439" />
    </g>
    <g
   transform="matrix(0,-2.6404009,-2.6404009,0,1646.0822,1815.9628)"
   id="g1445">
        <rect
   x="616.47101"
   y="478.935"
   width="3.5150001"
   height="2.599"
   style="fill:#897866"
   id="rect1443" />
    </g>
    <g
   transform="matrix(0,-2.6404009,-2.6404009,0,1646.0822,1815.9628)"
   id="g1449">
        <rect
   x="616.47101"
   y="478.935"
   width="3.5150001"
   height="2.599"
   style="fill:#897866"
   id="rect1447" />
    </g>
    <g
   transform="matrix(0,-2.6404009,-2.6404009,0,1646.0822,1815.9628)"
   id="g1453">
        <rect
   x="616.47101"
   y="478.935"
   width="3.5150001"
   height="2.599"
   style="fill:#897866"
   id="rect1451" />
    </g>
    <g
   transform="matrix(0,2.6404009,-2.6404009,0,357.17674,189.13916)"
   id="g1457">
        <path
   d="m 0,-3.495 h -0.002 v 3.562 h 0.015 c 0.037,0.937 0.796,1.69 1.743,1.69 0.946,0 1.707,-0.753 1.744,-1.69 h 0.013 v -1.71 -0.14 -1.712 C 3.513,-4.466 2.726,-5.252 1.756,-5.252 0.786,-5.252 0,-4.466 0,-3.495"
   style="fill:#8b8f91;fill-rule:nonzero"
   id="path1455"
   inkscape:connector-curvature="0" />
    </g>
    <g
   transform="matrix(0,-2.6404009,-2.6404009,0,1613.3961,1836.3298)"
   id="g1461">
        <rect
   x="620.328"
   y="472.746"
   width="3.5150001"
   height="2.599"
   style="fill:#897866"
   id="rect1459" />
    </g>
    <g
   transform="matrix(0,-2.6404009,-2.6404009,0,1613.3961,1836.3298)"
   id="g1465">
        <rect
   x="620.328"
   y="472.746"
   width="3.5150001"
   height="2.599"
   style="fill:#897866"
   id="rect1463" />
    </g>
    <g
   transform="matrix(0,-2.6404009,-2.6404009,0,1613.3961,1836.3298)"
   id="g1469">
        <rect
   x="620.328"
   y="472.746"
   width="3.5150001"
   height="2.599"
   style="fill:#897866"
   id="rect1467" />
    </g>
    <g
   transform="matrix(0,-2.6404009,-2.6404009,0,1613.3961,1836.3298)"
   id="g1473">
        <rect
   x="620.328"
   y="472.746"
   width="3.5150001"
   height="2.599"
   style="fill:#897866"
   id="rect1471" />
    </g>
    <g
   transform="matrix(0,2.6404009,-2.6404009,0,329.05966,208.83442)"
   id="g1477">
        <path
   d="m 0,-3.495 h -0.001 v 3.562 h 0.014 c 0.037,0.938 0.797,1.69 1.743,1.69 0.947,0 1.708,-0.752 1.744,-1.69 h 0.013 v -1.71 -0.14 -1.712 C 3.513,-4.466 2.726,-5.252 1.756,-5.252 0.786,-5.252 0,-4.466 0,-3.495"
   style="fill:#8b8f91;fill-rule:nonzero"
   id="path1475"
   inkscape:connector-curvature="0" />
    </g>
    <g
   transform="matrix(0,-2.6404009,-2.6404009,0,1557.162,1875.7203)"
   id="g1481">
        <rect
   x="627.78802"
   y="462.09698"
   width="3.5139999"
   height="2.599"
   style="fill:#897866"
   id="rect1479" />
    </g>
    <g
   transform="matrix(0,-2.6404009,-2.6404009,0,1557.162,1875.7203)"
   id="g1485">
        <rect
   x="627.78802"
   y="462.09698"
   width="3.5139999"
   height="2.599"
   style="fill:#897866"
   id="rect1483" />
    </g>
    <g
   transform="matrix(0,-2.6404009,-2.6404009,0,1557.162,1875.7203)"
   id="g1489">
        <rect
   x="627.78802"
   y="462.09698"
   width="3.5139999"
   height="2.599"
   style="fill:#897866"
   id="rect1487" />
    </g>
    <g
   transform="matrix(0,-2.6404009,-2.6404009,0,1557.162,1875.7203)"
   id="g1493">
        <rect
   x="627.78802"
   y="462.09698"
   width="3.5139999"
   height="2.599"
   style="fill:#897866"
   id="rect1491" />
    </g>
    <g
   transform="matrix(0,2.6404009,-2.6404009,0,376.84031,126.42863)"
   id="g1497">
        <path
   d="m 0,-3.496 h -0.002 v 3.562 h 0.015 c 0.037,0.938 0.796,1.69 1.743,1.69 0.946,0 1.707,-0.752 1.744,-1.69 H 3.513 V -1.643 -1.784 -3.496 C 3.513,-4.467 2.726,-5.252 1.756,-5.252 0.786,-5.252 0,-4.467 0,-3.496"
   style="fill:#8b8f91;fill-rule:nonzero"
   id="path1495"
   inkscape:connector-curvature="0" />
    </g>
    <g
   transform="matrix(0,-2.6404009,-2.6404009,0,1652.736,1710.9024)"
   id="g1501">
        <rect
   x="596.57703"
   y="480.19501"
   width="3.5150001"
   height="2.599"
   style="fill:#897866"
   id="rect1499" />
    </g>
    <g
   transform="matrix(0,-2.6404009,-2.6404009,0,1652.736,1710.9024)"
   id="g1505">
        <rect
   x="596.57703"
   y="480.19501"
   width="3.5150001"
   height="2.599"
   style="fill:#897866"
   id="rect1503" />
    </g>
    <g
   transform="matrix(0,-2.6404009,-2.6404009,0,1652.736,1710.9024)"
   id="g1509">
        <rect
   x="596.57703"
   y="480.19501"
   width="3.5150001"
   height="2.599"
   style="fill:#897866"
   id="rect1507" />
    </g>
    <g
   transform="matrix(0,-2.6404009,-2.6404009,0,1652.736,1710.9024)"
   id="g1513">
        <rect
   x="596.57703"
   y="480.19501"
   width="3.5150001"
   height="2.599"
   style="fill:#897866"
   id="rect1511" />
    </g>
    <g
   transform="matrix(0,2.6404009,-2.6404009,0,296.96931,208.83442)"
   id="g1517">
        <path
   d="m 0,-3.495 h -0.001 v 3.562 h 0.014 c 0.037,0.938 0.797,1.69 1.743,1.69 0.947,0 1.708,-0.752 1.744,-1.69 H 3.513 V -1.642 -1.783 -3.495 C 3.513,-4.466 2.726,-5.252 1.756,-5.252 0.786,-5.252 0,-4.466 0,-3.495"
   style="fill:#8b8f91;fill-rule:nonzero"
   id="path1515"
   inkscape:connector-curvature="0" />
    </g>
    <g
   transform="matrix(0,-2.6404009,-2.6404009,0,1492.9813,1875.7203)"
   id="g1521">
        <rect
   x="627.78802"
   y="449.94299"
   width="3.5139999"
   height="2.599"
   style="fill:#897866"
   id="rect1519" />
    </g>
    <g
   transform="matrix(0,-2.6404009,-2.6404009,0,1492.9813,1875.7203)"
   id="g1525">
        <rect
   x="627.78802"
   y="449.94299"
   width="3.5139999"
   height="2.599"
   style="fill:#897866"
   id="rect1523" />
    </g>
    <g
   transform="matrix(0,-2.6404009,-2.6404009,0,1492.9813,1875.7203)"
   id="g1529">
        <rect
   x="627.78802"
   y="449.94299"
   width="3.5139999"
   height="2.599"
   style="fill:#897866"
   id="rect1527" />
    </g>
    <g
   transform="matrix(0,-2.6404009,-2.6404009,0,1492.9813,1875.7203)"
   id="g1533">
        <rect
   x="627.78802"
   y="449.94299"
   width="3.5139999"
   height="2.599"
   style="fill:#897866"
   id="rect1531" />
    </g>
    <g
   transform="matrix(0,2.6404009,-2.6404009,0,540.59996,210.14617)"
   id="g1537">
        <path
   d="m 0,-3.495 h -0.001 v 3.562 h 0.014 c 0.037,0.938 0.797,1.69 1.743,1.69 0.947,0 1.708,-0.752 1.745,-1.69 h 0.013 v -1.71 -0.14 -1.712 C 3.514,-4.466 2.726,-5.252 1.756,-5.252 0.786,-5.252 0,-4.466 0,-3.495"
   style="fill:#8b8f91;fill-rule:nonzero"
   id="path1535"
   inkscape:connector-curvature="0" />
    </g>
    <g
   transform="matrix(0,-2.6404009,-2.6404009,0,1980.2426,1878.3438)"
   id="g1541">
        <rect
   x="628.284"
   y="542.21399"
   width="3.5150001"
   height="2.599"
   style="fill:#897866"
   id="rect1539" />
    </g>
    <g
   transform="matrix(0,-2.6404009,-2.6404009,0,1980.2426,1878.3438)"
   id="g1545">
        <rect
   x="628.284"
   y="542.21399"
   width="3.5150001"
   height="2.599"
   style="fill:#897866"
   id="rect1543" />
    </g>
    <g
   transform="matrix(0,-2.6404009,-2.6404009,0,1980.2426,1878.3438)"
   id="g1549">
        <rect
   x="628.284"
   y="542.21399"
   width="3.5150001"
   height="2.599"
   style="fill:#897866"
   id="rect1547" />
    </g>
    <g
   transform="matrix(0,-2.6404009,-2.6404009,0,1980.2426,1878.3438)"
   id="g1553">
        <rect
   x="628.284"
   y="542.21399"
   width="3.5150001"
   height="2.599"
   style="fill:#897866"
   id="rect1551" />
    </g>
    <g
   transform="matrix(0,2.6404009,-2.6404009,0,518.47764,70.409931)"
   id="g1557">
        <path
   d="m 0,-3.495 h -0.001 v 3.562 h 0.014 c 0.037,0.937 0.797,1.69 1.743,1.69 0.947,0 1.708,-0.753 1.745,-1.69 h 0.013 v -1.71 -0.14 -1.712 C 3.514,-4.466 2.726,-5.252 1.756,-5.252 0.786,-5.252 0,-4.466 0,-3.495"
   style="fill:#8b8f91;fill-rule:nonzero"
   id="path1555"
   inkscape:connector-curvature="0" />
    </g>
    <g
   transform="matrix(0,-2.6404009,-2.6404009,0,1936.0043,1598.8713)"
   id="g1561">
        <rect
   x="575.362"
   y="533.836"
   width="3.5150001"
   height="2.599"
   style="fill:#897866"
   id="rect1559" />
    </g>
    <g
   transform="matrix(0,-2.6404009,-2.6404009,0,1936.0043,1598.8713)"
   id="g1565">
        <rect
   x="575.362"
   y="533.836"
   width="3.5150001"
   height="2.599"
   style="fill:#897866"
   id="rect1563" />
    </g>
    <g
   transform="matrix(0,-2.6404009,-2.6404009,0,1936.0043,1598.8713)"
   id="g1569">
        <rect
   x="575.362"
   y="533.836"
   width="3.5150001"
   height="2.599"
   style="fill:#897866"
   id="rect1567" />
    </g>
    <g
   transform="matrix(0,-2.6404009,-2.6404009,0,1936.0043,1598.8713)"
   id="g1573">
        <rect
   x="575.362"
   y="533.836"
   width="3.5150001"
   height="2.599"
   style="fill:#897866"
   id="rect1571" />
    </g>
    <g
   transform="matrix(0,2.6404009,-2.6404009,0,548.95207,41.494395)"
   id="g1577">
        <path
   d="m 0,-3.495 h -0.001 v 3.562 h 0.014 c 0.037,0.938 0.797,1.69 1.743,1.69 0.947,0 1.708,-0.752 1.745,-1.69 H 3.514 V -1.642 -1.783 -3.495 C 3.514,-4.466 2.726,-5.252 1.756,-5.252 0.786,-5.252 0,-4.466 0,-3.495"
   style="fill:#8b8f91;fill-rule:nonzero"
   id="path1575"
   inkscape:connector-curvature="0" />
    </g>
    <g
   transform="matrix(0,-2.6404009,-2.6404009,0,1996.9531,1541.0339)"
   id="g1581">
        <rect
   x="564.40997"
   y="545.37799"
   width="3.5150001"
   height="2.599"
   style="fill:#897866"
   id="rect1579" />
    </g>
    <g
   transform="matrix(0,-2.6404009,-2.6404009,0,1996.9531,1541.0339)"
   id="g1585">
        <rect
   x="564.40997"
   y="545.37799"
   width="3.5150001"
   height="2.599"
   style="fill:#897866"
   id="rect1583" />
    </g>
    <g
   transform="matrix(0,-2.6404009,-2.6404009,0,1996.9531,1541.0339)"
   id="g1589">
        <rect
   x="564.40997"
   y="545.37799"
   width="3.5150001"
   height="2.599"
   style="fill:#897866"
   id="rect1587" />
    </g>
    <g
   transform="matrix(0,-2.6404009,-2.6404009,0,1996.9531,1541.0339)"
   id="g1593">
        <rect
   x="564.40997"
   y="545.37799"
   width="3.5150001"
   height="2.599"
   style="fill:#897866"
   id="rect1591" />
    </g>
    <g
   transform="matrix(0,2.6404009,-2.6404009,0,456.37546,174.62119)"
   id="g1597">
        <path
   d="m 0,-3.495 h -0.001 v 3.562 h 0.014 c 0.037,0.938 0.797,1.69 1.743,1.69 0.946,0 1.707,-0.752 1.744,-1.69 H 3.513 V -1.642 -1.783 -3.495 C 3.513,-4.466 2.726,-5.252 1.756,-5.252 0.786,-5.252 0,-4.466 0,-3.495"
   style="fill:#8b8f91;fill-rule:nonzero"
   id="path1595"
   inkscape:connector-curvature="0" />
    </g>
    <g
   transform="matrix(0,-2.6404009,-2.6404009,0,1811.7999,1807.2875)"
   id="g1601">
        <rect
   x="614.82898"
   y="510.31601"
   width="3.5139999"
   height="2.599"
   style="fill:#897866"
   id="rect1599" />
    </g>
    <g
   transform="matrix(0,-2.6404009,-2.6404009,0,1811.7999,1807.2875)"
   id="g1605">
        <rect
   x="614.82898"
   y="510.31601"
   width="3.5139999"
   height="2.599"
   style="fill:#897866"
   id="rect1603" />
    </g>
    <g
   transform="matrix(0,-2.6404009,-2.6404009,0,1811.7999,1807.2875)"
   id="g1609">
        <rect
   x="614.82898"
   y="510.31601"
   width="3.5139999"
   height="2.599"
   style="fill:#897866"
   id="rect1607" />
    </g>
    <g
   transform="matrix(0,-2.6404009,-2.6404009,0,1811.7999,1807.2875)"
   id="g1613">
        <rect
   x="614.82898"
   y="510.31601"
   width="3.5139999"
   height="2.599"
   style="fill:#897866"
   id="rect1611" />
    </g>
    <g
   transform="matrix(0,2.6404009,-2.6404009,0,456.37546,190.93252)"
   id="g1617">
        <path
   d="m 0,-3.495 h -0.001 v 3.562 h 0.014 c 0.037,0.938 0.797,1.69 1.743,1.69 0.947,0 1.708,-0.752 1.745,-1.69 H 3.514 V -1.642 -1.783 -3.495 C 3.514,-4.466 2.726,-5.252 1.756,-5.252 0.786,-5.252 0,-4.466 0,-3.495"
   style="fill:#8b8f91;fill-rule:nonzero"
   id="path1615"
   inkscape:connector-curvature="0" />
    </g>
    <g
   transform="matrix(0,-2.6404009,-2.6404009,0,1811.7999,1839.9165)"
   id="g1621">
        <rect
   x="621.00702"
   y="510.31601"
   width="3.5150001"
   height="2.599"
   style="fill:#897866"
   id="rect1619" />
    </g>
    <g
   transform="matrix(0,-2.6404009,-2.6404009,0,1811.7999,1839.9165)"
   id="g1625">
        <rect
   x="621.00702"
   y="510.31601"
   width="3.5150001"
   height="2.599"
   style="fill:#897866"
   id="rect1623" />
    </g>
    <g
   transform="matrix(0,-2.6404009,-2.6404009,0,1811.7999,1839.9165)"
   id="g1629">
        <rect
   x="621.00702"
   y="510.31601"
   width="3.5150001"
   height="2.599"
   style="fill:#897866"
   id="rect1627" />
    </g>
    <g
   transform="matrix(0,-2.6404009,-2.6404009,0,1811.7999,1839.9165)"
   id="g1633">
        <rect
   x="621.00702"
   y="510.31601"
   width="3.5150001"
   height="2.599"
   style="fill:#897866"
   id="rect1631" />
    </g>
    <g
   transform="matrix(0,-2.6404009,-2.6404009,0,427.49161,150.19222)"
   id="g1637">
        <rect
   x="-8.0209999"
   y="0"
   width="8.0209999"
   height="3.994"
   style="fill:#897866"
   id="rect1635" />
    </g>
    <g
   transform="matrix(0,-2.6404009,-2.6404009,0,1734.375,1790.4185)"
   id="g1641">
        <rect
   x="613.18201"
   y="494.95901"
   width="0.419"
   height="3.9909999"
   style="fill:#939798"
   id="rect1639" />
    </g>
    <g
   transform="matrix(0,-2.6404009,-2.6404009,0,1734.3877,1750.2676)"
   id="g1645">
        <rect
   x="605.57898"
   y="494.95901"
   width="0.41800001"
   height="3.994"
   style="fill:#939798"
   id="rect1643" />
    </g>
    <g
   transform="matrix(0,-2.6404009,-2.6404009,0,407.64426,150.19222)"
   id="g1649">
        <rect
   x="-8.0209999"
   y="0"
   width="8.0209999"
   height="3.994"
   style="fill:#897866"
   id="rect1647" />
    </g>
    <g
   transform="matrix(0,-2.6404009,-2.6404009,0,1694.6739,1790.4185)"
   id="g1653">
        <rect
   x="613.18201"
   y="487.44101"
   width="0.419"
   height="3.9909999"
   style="fill:#939798"
   id="rect1651" />
    </g>
    <g
   transform="matrix(0,-2.6404009,-2.6404009,0,1694.6866,1750.2676)"
   id="g1657">
        <rect
   x="605.57898"
   y="487.44101"
   width="0.41800001"
   height="3.994"
   style="fill:#939798"
   id="rect1655" />
    </g>
    <g
   transform="matrix(0,2.6404009,-2.6404009,0,1907.0887,-1448.7805)"
   id="g1661">
        <rect
   x="617.41101"
   y="522.43903"
   width="6.6589999"
   height="14.442"
   style="fill:#007482"
   id="rect1659" />
    </g>
    <g
   transform="matrix(0,2.6404009,-2.6404009,0,1907.0887,-1448.7805)"
   id="g1665">
        <rect
   x="617.41101"
   y="522.43903"
   width="6.6589999"
   height="14.442"
   id="rect1663" />
    </g>
    <g
   transform="matrix(0,2.6404009,-2.6404009,0,1953.4689,-1448.7805)"
   id="g1669">
        <rect
   x="619.78302"
   y="535.75201"
   width="1.952"
   height="5.3829999"
   style="fill:#8b8f91"
   id="rect1667" />
    </g>
    <g
   transform="matrix(0,2.6404009,-2.6404009,0,1865.6957,-1448.7805)"
   id="g1673">
        <rect
   x="619.74701"
   y="519.12903"
   width="1.952"
   height="5.3860002"
   style="fill:#8b8f91"
   id="rect1671" />
    </g>
    <g
   transform="matrix(0,-2.6404009,-2.6404009,0,1590.4563,1598.1045)"
   id="g1677">
        <rect
   x="574.81"
   y="465.33301"
   width="4.329"
   height="8.7349997"
   style="fill:#8b8f91"
   id="rect1675" />
    </g>
    <g
   transform="matrix(0,-2.6404009,-2.6404009,0,1590.4563,1656.4869)"
   id="g1681">
        <rect
   x="585.86499"
   y="465.33301"
   width="4.3299999"
   height="8.7349997"
   style="fill:#8b8f91"
   id="rect1679" />
    </g>
    <g
   transform="matrix(0,2.6404009,-2.6404009,0,359.17288,99.382499)"
   id="g1685">
        <path
   d="m 0,6.754 c 0.928,0 1.687,-0.76 1.687,-1.687 V 1.69 C 1.687,0.76 0.928,0 0,0 h -0.472 v 6.754 z"
   style="fill:#897866;fill-rule:nonzero"
   id="path1683"
   inkscape:connector-curvature="0" />
    </g>
    <g
   transform="matrix(0,2.6404009,-2.6404009,0,341.34068,79.135921)"
   id="g1689">
        <path
   d="m 0,-6.754 c -0.928,0 -1.69,0.76 -1.69,1.69 v 3.377 C -1.69,-0.76 -0.928,0 0,0 h 0.471 v -6.754 z"
   style="fill:#897866;fill-rule:nonzero"
   id="path1687"
   inkscape:connector-curvature="0" />
    </g>
    <g
   transform="matrix(0,-2.6404009,-2.6404009,0,1590.4563,1627.2989)"
   id="g1693">
        <rect
   x="579.13898"
   y="466.32401"
   width="6.7259998"
   height="6.7540002"
   id="rect1691" />
    </g>
    <g
   transform="matrix(0,2.6404009,-2.6404009,0,45.25967,37.102884)"
   id="g1697">
        <path
   d="m 0,-3.495 h -0.001 v 3.562 h 0.014 c 0.037,0.938 0.797,1.69 1.743,1.69 0.946,0 1.707,-0.752 1.744,-1.69 h 0.013 v -1.71 -0.14 -1.712 C 3.513,-4.466 2.726,-5.252 1.756,-5.252 0.786,-5.252 0,-4.466 0,-3.495"
   style="fill:#8b8f91;fill-rule:nonzero"
   id="path1695"
   inkscape:connector-curvature="0" />
    </g>
    <g
   transform="matrix(0,-2.6404009,-2.6404009,0,989.56705,1532.2572)"
   id="g1701">
        <rect
   x="562.74799"
   y="354.61401"
   width="3.5139999"
   height="2.599"
   style="fill:#897866"
   id="rect1699" />
    </g>
    <g
   transform="matrix(0,-2.6404009,-2.6404009,0,989.56705,1532.2572)"
   id="g1705">
        <rect
   x="562.74799"
   y="354.61401"
   width="3.5139999"
   height="2.599"
   style="fill:#897866"
   id="rect1703" />
    </g>
    <g
   transform="matrix(0,-2.6404009,-2.6404009,0,989.56705,1532.2572)"
   id="g1709">
        <rect
   x="562.74799"
   y="354.61401"
   width="3.5139999"
   height="2.599"
   style="fill:#897866"
   id="rect1707" />
    </g>
    <g
   transform="matrix(0,-2.6404009,-2.6404009,0,989.56705,1532.2572)"
   id="g1713">
        <rect
   x="562.74799"
   y="354.61401"
   width="3.5139999"
   height="2.599"
   style="fill:#897866"
   id="rect1711" />
    </g>
    <g
   transform="matrix(0,2.6404009,-2.6404009,0,14.884099,37.102884)"
   id="g1717">
        <path
   d="m 0,-3.495 h -0.001 v 3.562 h 0.014 c 0.037,0.937 0.797,1.69 1.743,1.69 0.946,0 1.707,-0.753 1.744,-1.69 h 0.013 v -1.71 -0.14 -1.712 C 3.513,-4.466 2.726,-5.252 1.756,-5.252 0.786,-5.252 0,-4.466 0,-3.495"
   style="fill:#8b8f91;fill-rule:nonzero"
   id="path1715"
   inkscape:connector-curvature="0" />
    </g>
    <g
   transform="matrix(0,-2.6404009,-2.6404009,0,928.81464,1532.2572)"
   id="g1721">
        <rect
   x="562.74799"
   y="343.10999"
   width="3.5139999"
   height="2.599"
   style="fill:#897866"
   id="rect1719" />
    </g>
    <g
   transform="matrix(0,-2.6404009,-2.6404009,0,928.81464,1532.2572)"
   id="g1725">
        <rect
   x="562.74799"
   y="343.10999"
   width="3.5139999"
   height="2.599"
   style="fill:#897866"
   id="rect1723" />
    </g>
    <g
   transform="matrix(0,-2.6404009,-2.6404009,0,928.81464,1532.2572)"
   id="g1729">
        <rect
   x="562.74799"
   y="343.10999"
   width="3.5139999"
   height="2.599"
   style="fill:#897866"
   id="rect1727" />
    </g>
    <g
   transform="matrix(0,-2.6404009,-2.6404009,0,928.81464,1532.2572)"
   id="g1733">
        <rect
   x="562.74799"
   y="343.10999"
   width="3.5139999"
   height="2.599"
   style="fill:#897866"
   id="rect1731" />
    </g>
    <g
   transform="matrix(0,2.6404009,-2.6404009,0,230.81147,146.6562)"
   id="g1737">
        <path
   d="m 0,-3.495 h -0.002 v 3.562 h 0.015 c 0.036,0.938 0.796,1.69 1.743,1.69 0.946,0 1.707,-0.752 1.744,-1.69 H 3.513 V -1.642 -1.783 -3.495 C 3.513,-4.466 2.725,-5.252 1.756,-5.252 0.786,-5.252 0,-4.466 0,-3.495"
   style="fill:#8b8f91;fill-rule:nonzero"
   id="path1735"
   inkscape:connector-curvature="0" />
    </g>
    <g
   transform="matrix(0,-2.6404009,-2.6404009,0,1360.6719,1751.3639)"
   id="g1741">
        <rect
   x="604.23901"
   y="424.888"
   width="3.5150001"
   height="2.599"
   style="fill:#897866"
   id="rect1739" />
    </g>
    <g
   transform="matrix(0,-2.6404009,-2.6404009,0,1360.6719,1751.3639)"
   id="g1745">
        <rect
   x="604.23901"
   y="424.888"
   width="3.5150001"
   height="2.599"
   style="fill:#897866"
   id="rect1743" />
    </g>
    <g
   transform="matrix(0,-2.6404009,-2.6404009,0,1360.6719,1751.3639)"
   id="g1749">
        <rect
   x="604.23901"
   y="424.888"
   width="3.5150001"
   height="2.599"
   style="fill:#897866"
   id="rect1747" />
    </g>
    <g
   transform="matrix(0,-2.6404009,-2.6404009,0,1360.6719,1751.3639)"
   id="g1753">
        <rect
   x="604.23901"
   y="424.888"
   width="3.5150001"
   height="2.599"
   style="fill:#897866"
   id="rect1751" />
    </g>
    <g
   transform="matrix(0,2.6404009,-2.6404009,0,230.81147,197.16808)"
   id="g1757">
        <path
   d="m 0,-3.495 h -0.001 v 3.562 h 0.014 c 0.037,0.938 0.797,1.69 1.743,1.69 0.946,0 1.707,-0.752 1.744,-1.69 H 3.513 V -1.642 -1.783 -3.495 C 3.513,-4.466 2.726,-5.252 1.756,-5.252 0.786,-5.252 0,-4.466 0,-3.495"
   style="fill:#8b8f91;fill-rule:nonzero"
   id="path1755"
   inkscape:connector-curvature="0" />
    </g>
    <g
   transform="matrix(0,-2.6404009,-2.6404009,0,1360.6719,1852.3876)"
   id="g1761">
        <rect
   x="623.36902"
   y="424.888"
   width="3.5139999"
   height="2.599"
   style="fill:#897866"
   id="rect1759" />
    </g>
    <g
   transform="matrix(0,-2.6404009,-2.6404009,0,1360.6719,1852.3876)"
   id="g1765">
        <rect
   x="623.36902"
   y="424.888"
   width="3.5139999"
   height="2.599"
   style="fill:#897866"
   id="rect1763" />
    </g>
    <g
   transform="matrix(0,-2.6404009,-2.6404009,0,1360.6719,1852.3876)"
   id="g1769">
        <rect
   x="623.36902"
   y="424.888"
   width="3.5139999"
   height="2.599"
   style="fill:#897866"
   id="rect1767" />
    </g>
    <g
   transform="matrix(0,-2.6404009,-2.6404009,0,1360.6719,1852.3876)"
   id="g1773">
        <rect
   x="623.36902"
   y="424.888"
   width="3.5139999"
   height="2.599"
   style="fill:#897866"
   id="rect1771" />
    </g>
    <g
   transform="matrix(0,2.6404009,-2.6404009,0,100.63453,208.18805)"
   id="g1777">
        <path
   d="m 0,-3.495 h -0.001 v 3.562 h 0.014 c 0.037,0.937 0.797,1.69 1.743,1.69 0.947,0 1.708,-0.753 1.744,-1.69 h 0.013 v -1.71 -0.14 -1.712 C 3.513,-4.466 2.726,-5.252 1.756,-5.252 0.786,-5.252 0,-4.466 0,-3.495"
   style="fill:#8b8f91;fill-rule:nonzero"
   id="path1775"
   inkscape:connector-curvature="0" />
    </g>
    <g
   transform="matrix(0,-2.6404009,-2.6404009,0,1100.3181,1874.4276)"
   id="g1781">
        <rect
   x="627.54303"
   y="375.586"
   width="3.5139999"
   height="2.599"
   style="fill:#897866"
   id="rect1779" />
    </g>
    <g
   transform="matrix(0,-2.6404009,-2.6404009,0,1100.3181,1874.4276)"
   id="g1785">
        <rect
   x="627.54303"
   y="375.586"
   width="3.5139999"
   height="2.599"
   style="fill:#897866"
   id="rect1783" />
    </g>
    <g
   transform="matrix(0,-2.6404009,-2.6404009,0,1100.3181,1874.4276)"
   id="g1789">
        <rect
   x="627.54303"
   y="375.586"
   width="3.5139999"
   height="2.599"
   style="fill:#897866"
   id="rect1787" />
    </g>
    <g
   transform="matrix(0,-2.6404009,-2.6404009,0,1100.3181,1874.4276)"
   id="g1793">
        <rect
   x="627.54303"
   y="375.586"
   width="3.5139999"
   height="2.599"
   style="fill:#897866"
   id="rect1791" />
    </g>
    <g
   transform="matrix(0,2.6404009,-2.6404009,0,450.50744,57.102321)"
   id="g1797">
        <path
   d="M 0,3.512 V 3.513 H 3.562 V 3.499 C 4.499,3.462 5.252,2.703 5.252,1.756 5.252,0.809 4.499,0.049 3.562,0.012 V -0.001 H 1.853 1.712 0 c -0.971,0 -1.757,0.787 -1.757,1.757 0,0.97 0.786,1.756 1.757,1.756"
   style="fill:#8b8f91;fill-rule:nonzero"
   id="path1795"
   inkscape:connector-curvature="0" />
    </g>
    <g
   transform="matrix(0,2.6404009,-2.6404009,0,1781.6867,-1448.7805)"
   id="g1801">
        <rect
   x="570.79401"
   y="504.15601"
   width="2.599"
   height="3.5150001"
   style="fill:#897866"
   id="rect1799" />
    </g>
    <g
   transform="matrix(0,2.6404009,-2.6404009,0,1781.6867,-1448.7805)"
   id="g1805">
        <rect
   x="570.79401"
   y="504.15601"
   width="2.599"
   height="3.5150001"
   style="fill:#897866"
   id="rect1803" />
    </g>
    <g
   transform="matrix(0,2.6404009,-2.6404009,0,1781.6867,-1448.7805)"
   id="g1809">
        <rect
   x="570.79401"
   y="504.15601"
   width="2.599"
   height="3.5150001"
   style="fill:#897866"
   id="rect1807" />
    </g>
    <g
   transform="matrix(0,2.6404009,-2.6404009,0,1781.6867,-1448.7805)"
   id="g1813">
        <rect
   x="570.79401"
   y="504.15601"
   width="2.599"
   height="3.5150001"
   style="fill:#897866"
   id="rect1811" />
    </g>
    <g
   transform="matrix(0,2.6404009,-2.6404009,0,354.89543,126.44764)"
   id="g1817">
        <path
   d="M 0,3.512 V 3.513 H 3.562 V 3.499 C 4.499,3.462 5.252,2.703 5.252,1.756 5.252,0.809 4.499,0.049 3.562,0.012 V -0.001 H 1.853 1.712 0 c -0.971,0 -1.757,0.787 -1.757,1.757 0,0.97 0.786,1.756 1.757,1.756"
   style="fill:#8b8f91;fill-rule:nonzero"
   id="path1815"
   inkscape:connector-curvature="0" />
    </g>
    <g
   transform="matrix(0,2.6404009,-2.6404009,0,1590.4563,-1448.7805)"
   id="g1821">
        <rect
   x="597.05902"
   y="467.94299"
   width="2.599"
   height="3.5150001"
   style="fill:#897866"
   id="rect1819" />
    </g>
    <g
   transform="matrix(0,2.6404009,-2.6404009,0,1590.4563,-1448.7805)"
   id="g1825">
        <rect
   x="597.05902"
   y="467.94299"
   width="2.599"
   height="3.5150001"
   style="fill:#897866"
   id="rect1823" />
    </g>
    <g
   transform="matrix(0,2.6404009,-2.6404009,0,1590.4563,-1448.7805)"
   id="g1829">
        <rect
   x="597.05902"
   y="467.94299"
   width="2.599"
   height="3.5150001"
   style="fill:#897866"
   id="rect1827" />
    </g>
    <g
   transform="matrix(0,2.6404009,-2.6404009,0,1590.4563,-1448.7805)"
   id="g1833">
        <rect
   x="597.05902"
   y="467.94299"
   width="2.599"
   height="3.5150001"
   style="fill:#897866"
   id="rect1831" />
    </g>
    <g
   transform="matrix(0,2.6404009,-2.6404009,0,269.09303,180.36881)"
   id="g1837">
        <path
   d="M 0,3.512 V 3.513 H 3.562 V 3.499 C 4.5,3.462 5.253,2.703 5.253,1.756 5.253,0.809 4.5,0.049 3.562,0.012 V -0.001 H 1.853 1.712 0 c -0.971,0 -1.757,0.787 -1.757,1.757 0,0.97 0.786,1.756 1.757,1.756"
   style="fill:#8b8f91;fill-rule:nonzero"
   id="path1835"
   inkscape:connector-curvature="0" />
    </g>
    <g
   transform="matrix(0,2.6404009,-2.6404009,0,1418.8642,-1448.7805)"
   id="g1841">
        <rect
   x="617.47998"
   y="435.45001"
   width="2.599"
   height="3.5139999"
   style="fill:#897866"
   id="rect1839" />
    </g>
    <g
   transform="matrix(0,2.6404009,-2.6404009,0,1418.8642,-1448.7805)"
   id="g1845">
        <rect
   x="617.47998"
   y="435.45001"
   width="2.599"
   height="3.5139999"
   style="fill:#897866"
   id="rect1843" />
    </g>
    <g
   transform="matrix(0,2.6404009,-2.6404009,0,1418.8642,-1448.7805)"
   id="g1849">
        <rect
   x="617.47998"
   y="435.45001"
   width="2.599"
   height="3.5139999"
   style="fill:#897866"
   id="rect1847" />
    </g>
    <g
   transform="matrix(0,2.6404009,-2.6404009,0,1418.8642,-1448.7805)"
   id="g1853">
        <rect
   x="617.47998"
   y="435.45001"
   width="2.599"
   height="3.5139999"
   style="fill:#897866"
   id="rect1851" />
    </g>
    <g
   transform="matrix(0,-2.6404009,-2.6404009,0,438.34682,49.745114)"
   id="g1857">
        <rect
   x="-8.0209999"
   y="0"
   width="8.0209999"
   height="3.994"
   style="fill:#897866"
   id="rect1855" />
    </g>
    <g
   transform="matrix(0,-2.6404009,-2.6404009,0,1756.0727,1589.518)"
   id="g1861">
        <rect
   x="575.13898"
   y="499.06799"
   width="0.419"
   height="3.9909999"
   style="fill:#939798"
   id="rect1859" />
    </g>
    <g
   transform="matrix(0,-2.6404009,-2.6404009,0,1756.0854,1549.367)"
   id="g1865">
        <rect
   x="567.53601"
   y="499.06799"
   width="0.41800001"
   height="3.994"
   style="fill:#939798"
   id="rect1863" />
    </g>
    <g
   transform="matrix(-2.6404009,0,0,2.6404009,138.60875,52.330592)"
   id="g1869">
        <rect
   x="-6.007"
   y="-6.007"
   width="8.0209999"
   height="3.994"
   style="fill:#897866"
   id="rect1867" />
    </g>
    <g
   transform="matrix(0,-2.6404009,-2.6404009,0,1197.7741,1532.2636)"
   id="g1873">
        <rect
   x="562.51099"
   y="395.13101"
   width="3.9909999"
   height="0.419"
   style="fill:#939798"
   id="rect1871" />
    </g>
    <g
   transform="matrix(0,-2.6404009,-2.6404009,0,1157.6168,1532.2572)"
   id="g1877">
        <rect
   x="562.508"
   y="387.52802"
   width="3.994"
   height="0.417"
   style="fill:#939798"
   id="rect1875" />
    </g>
    <g
   transform="matrix(0,-2.6404009,-2.6404009,0,542.4757,52.539712)"
   id="g1881">
        <rect
   x="-6.2090001"
   y="0"
   width="6.2090001"
   height="3.0910001"
   style="fill:#897866"
   id="rect1879" />
    </g>
    <g
   transform="matrix(0,-2.6404009,-2.6404009,0,1966.7259,1585.7918)"
   id="g1885">
        <rect
   x="574.47998"
   y="539.409"
   width="0.32499999"
   height="3.089"
   style="fill:#939798"
   id="rect1883" />
    </g>
    <g
   transform="matrix(0,-2.6404009,-2.6404009,0,1966.7322,1554.7154)"
   id="g1889">
        <rect
   x="568.59601"
   y="539.409"
   width="0.32300001"
   height="3.0910001"
   style="fill:#939798"
   id="rect1887" />
    </g>
    <g
   transform="matrix(-2.6404009,0,0,2.6404009,313.78759,81.227117)"
   id="g1893">
        <rect
   x="-4.6500001"
   y="-4.6500001"
   width="6.2080002"
   height="3.0910001"
   style="fill:#897866"
   id="rect1891" />
    </g>
    <g
   transform="matrix(0,-2.6404009,-2.6404009,0,1541.2119,1594.841)"
   id="g1897">
        <rect
   x="574.81201"
   y="460.21399"
   width="3.089"
   height="0.324"
   style="fill:#939798"
   id="rect1895" />
    </g>
    <g
   transform="matrix(0,-2.6404009,-2.6404009,0,1510.1354,1594.8347)"
   id="g1901">
        <rect
   x="574.81"
   y="454.32999"
   width="3.0910001"
   height="0.32300001"
   style="fill:#939798"
   id="rect1899" />
    </g>
    <g
   transform="matrix(-2.6404009,0,0,2.6404009,313.78759,95.916183)"
   id="g1905">
        <rect
   x="-4.6500001"
   y="-4.6500001"
   width="6.2080002"
   height="3.0910001"
   style="fill:#897866"
   id="rect1903" />
    </g>
    <g
   transform="matrix(0,-2.6404009,-2.6404009,0,1541.2119,1624.2318)"
   id="g1909">
        <rect
   x="580.37799"
   y="460.21399"
   width="3.0880001"
   height="0.324"
   style="fill:#939798"
   id="rect1907" />
    </g>
    <g
   transform="matrix(0,-2.6404009,-2.6404009,0,1510.1354,1624.2255)"
   id="g1913">
        <rect
   x="580.375"
   y="454.32999"
   width="3.0910001"
   height="0.32300001"
   style="fill:#939798"
   id="rect1911" />
    </g>
    <g
   transform="matrix(-2.6404009,0,0,2.6404009,285.61982,107.00586)"
   id="g1917">
        <rect
   x="-4.6500001"
   y="-4.6500001"
   width="6.2080002"
   height="3.0910001"
   style="fill:#897866"
   id="rect1915" />
    </g>
    <g
   transform="matrix(0,-2.6404009,-2.6404009,0,1484.8763,1646.4048)"
   id="g1921">
        <rect
   x="584.57599"
   y="449.54501"
   width="3.089"
   height="0.32499999"
   style="fill:#939798"
   id="rect1919" />
    </g>
    <g
   transform="matrix(0,-2.6404009,-2.6404009,0,1453.7999,1646.3985)"
   id="g1925">
        <rect
   x="584.57397"
   y="443.66101"
   width="3.0910001"
   height="0.32300001"
   style="fill:#939798"
   id="rect1923" />
    </g>
    <g
   transform="matrix(0,2.6404009,-2.6404009,0,475.6715,37.172591)"
   id="g1929">
        <rect
   x="0"
   y="-17.591"
   width="11.349"
   height="17.587999"
   id="rect1927" />
    </g>
    <g
   transform="matrix(0,2.6404009,-2.6404009,0,284.2447,150.19222)"
   id="g1933">
        <rect
   x="0"
   y="-19.082001"
   width="16.681999"
   height="19.079"
   id="rect1931" />
    </g>
    <g
   transform="matrix(0,2.6404009,-2.6404009,0,1826.0264,-1448.7805)"
   id="g1937">
        <rect
   x="584.71503"
   y="509.99799"
   width="3.303"
   height="8.6230001"
   style="fill:#8b8f91"
   id="rect1935" />
    </g>
    <g
   transform="matrix(0,2.6404009,-2.6404009,0,1826.0264,-1448.7805)"
   id="g1941">
        <rect
   x="606.62701"
   y="509.99799"
   width="3.3069999"
   height="8.6230001"
   style="fill:#8b8f91"
   id="rect1939" />
    </g>
    <g
   transform="matrix(0,2.6404009,-2.6404009,0,468.85293,142.85402)"
   id="g1945">
        <path
   d="m 0,0.63 -0.04,0.4 -0.08,0.43 -0.09,0.4 -0.14,0.41 -0.17,0.37 -0.2,0.38 L -0.93,3.37 -1.2,3.72 -1.47,4.03 -1.78,4.32 -2.11,4.57 -2.47,4.8 -2.82,5.01 -3.21,5.19 -3.61,5.32 -4,5.44 -4.42,5.51 -4.85,5.55 -5.25,5.57 -5.68,5.53 -6.1,5.47 -6.51,5.38 -6.91,5.26 -7.3,5.11 -7.67,4.91 -8.03,4.7 -8.69,4.16 -8.98,3.87 -9.25,3.54 -9.48,3.2 -9.69,2.83 l -0.2,-0.37 -0.15,-0.4 -0.12,-0.41 -0.07,-0.4 -0.06,-0.41 -0.02,-0.42 0.02,-0.43 0.06,-0.42 0.07,-0.41 0.12,-0.4 0.15,-0.39 0.2,-0.39 0.21,-0.36 0.23,-0.33 0.27,-0.33 0.29,-0.29 0.33,-0.29 0.33,-0.25 0.36,-0.21 0.37,-0.19 0.39,-0.16 0.4,-0.13 0.41,-0.08 0.42,-0.08 0.43,-0.02 h 0.4 l 0.43,0.06 0.42,0.08 0.39,0.09 0.4,0.16 0.39,0.17 0.35,0.2 0.36,0.25 0.33,0.25 0.31,0.29 0.27,0.31 0.27,0.32 0.21,0.37 0.2,0.37 0.17,0.38 0.14,0.41 0.09,0.4 0.08,0.41 L 0,0.2 Z M -15.89,7.37 H 4.53 V -6.74 h -20.42 z"
   style="fill:#b7babb;fill-rule:nonzero"
   id="path1943"
   inkscape:connector-curvature="0" />
    </g>
    <g
   id="RESET_BTN"
   transform="matrix(-0.05632934,-2.6397989,-2.6397989,0.05632934,466.90115,115.64313)">
        <ellipse
   cx="-5.1570001"
   cy="-0.21699999"
   rx="5.1560001"
   ry="5.1539998"
   style="fill:#f7f9f9"
   id="ellipse1947" />
    </g>
    <g
   transform="matrix(0,2.6404009,-2.6404009,0,314.78883,47.089929)"
   id="g1952">
        <path
   d="M 0,3.512 V 3.513 H 3.562 V 3.499 C 4.499,3.462 5.252,2.703 5.252,1.756 5.252,0.809 4.499,0.049 3.562,0.012 V -0.001 H 1.853 1.712 0 c -0.971,0 -1.757,0.787 -1.757,1.757 0,0.97 0.786,1.756 1.757,1.756"
   style="fill:#8b8f91;fill-rule:nonzero"
   id="path1950"
   inkscape:connector-curvature="0" />
    </g>
    <g
   transform="matrix(0,2.6404009,-2.6404009,0,1510.2431,-1448.7805)"
   id="g1956">
        <rect
   x="567.00098"
   y="452.754"
   width="2.5999999"
   height="3.5139999"
   style="fill:#897866"
   id="rect1954" />
    </g>
    <g
   transform="matrix(0,2.6404009,-2.6404009,0,1510.2431,-1448.7805)"
   id="g1960">
        <rect
   x="567.00098"
   y="452.754"
   width="2.5999999"
   height="3.5139999"
   style="fill:#897866"
   id="rect1958" />
    </g>
    <g
   transform="matrix(0,2.6404009,-2.6404009,0,1510.2431,-1448.7805)"
   id="g1964">
        <rect
   x="567.00098"
   y="452.754"
   width="2.5999999"
   height="3.5139999"
   style="fill:#897866"
   id="rect1962" />
    </g>
    <g
   transform="matrix(0,2.6404009,-2.6404009,0,1510.2431,-1448.7805)"
   id="g1968">
        <rect
   x="567.00098"
   y="452.754"
   width="2.5999999"
   height="3.5139999"
   style="fill:#897866"
   id="rect1966" />
    </g>
    <g
   transform="matrix(0,2.6404009,-2.6404009,0,259.81573,47.089929)"
   id="g1972">
        <path
   d="M 0,3.512 V 3.513 H 3.562 V 3.499 C 4.499,3.462 5.252,2.703 5.252,1.756 5.252,0.809 4.499,0.049 3.562,0.012 V -0.001 H 1.853 1.712 0 c -0.971,0 -1.757,0.787 -1.757,1.757 0,0.97 0.786,1.756 1.757,1.756"
   style="fill:#8b8f91;fill-rule:nonzero"
   id="path1970"
   inkscape:connector-curvature="0" />
    </g>
    <g
   transform="matrix(0,2.6404009,-2.6404009,0,1400.3033,-1448.7805)"
   id="g1976">
        <rect
   x="567.00098"
   y="431.935"
   width="2.5999999"
   height="3.5150001"
   style="fill:#897866"
   id="rect1974" />
    </g>
    <g
   transform="matrix(0,2.6404009,-2.6404009,0,1400.3033,-1448.7805)"
   id="g1980">
        <rect
   x="567.00098"
   y="431.935"
   width="2.5999999"
   height="3.5150001"
   style="fill:#897866"
   id="rect1978" />
    </g>
    <g
   transform="matrix(0,2.6404009,-2.6404009,0,1400.3033,-1448.7805)"
   id="g1984">
        <rect
   x="567.00098"
   y="431.935"
   width="2.5999999"
   height="3.5150001"
   style="fill:#897866"
   id="rect1982" />
    </g>
    <g
   transform="matrix(0,2.6404009,-2.6404009,0,1400.3033,-1448.7805)"
   id="g1988">
        <rect
   x="567.00098"
   y="431.935"
   width="2.5999999"
   height="3.5150001"
   style="fill:#897866"
   id="rect1986" />
    </g>
    <g
   transform="matrix(0,2.6404009,-2.6404009,0,330.22566,47.089929)"
   id="g1992">
        <path
   d="M 0,3.512 V 3.513 H 3.562 V 3.499 C 4.499,3.462 5.252,2.703 5.252,1.756 5.252,0.809 4.499,0.049 3.562,0.012 V -0.001 H 1.853 1.712 0 c -0.971,0 -1.757,0.787 -1.757,1.757 0,0.97 0.786,1.756 1.757,1.756"
   style="fill:#8b8f91;fill-rule:nonzero"
   id="path1990"
   inkscape:connector-curvature="0" />
    </g>
    <g
   transform="matrix(0,2.6404009,-2.6404009,0,1541.1168,-1448.7805)"
   id="g1996">
        <rect
   x="567.00098"
   y="458.60001"
   width="2.5999999"
   height="3.5150001"
   style="fill:#897866"
   id="rect1994" />
    </g>
    <g
   transform="matrix(0,2.6404009,-2.6404009,0,1541.1168,-1448.7805)"
   id="g2000">
        <rect
   x="567.00098"
   y="458.60001"
   width="2.5999999"
   height="3.5150001"
   style="fill:#897866"
   id="rect1998" />
    </g>
    <g
   transform="matrix(0,2.6404009,-2.6404009,0,1541.1168,-1448.7805)"
   id="g2004">
        <rect
   x="567.00098"
   y="458.60001"
   width="2.5999999"
   height="3.5150001"
   style="fill:#897866"
   id="rect2002" />
    </g>
    <g
   transform="matrix(0,2.6404009,-2.6404009,0,1541.1168,-1448.7805)"
   id="g2008">
        <rect
   x="567.00098"
   y="458.60001"
   width="2.5999999"
   height="3.5150001"
   style="fill:#897866"
   id="rect2006" />
    </g>
    <g
   transform="matrix(0,2.6404009,-2.6404009,0,1149.702,-1448.7805)"
   id="g2012">
        <rect
   x="568.38"
   y="356.604"
   width="57.888"
   height="59.266998"
   style="fill:#8b8f91"
   id="rect2010" />
    </g>
    <g
   transform="matrix(0,2.6404009,-2.6404009,0,200.52716,58.62319)"
   id="g2016">
        <path
   d="m 0,53.962 h 0.035 v 0.082 h 52.921 l -0.082,-0.082 h 0.102 V 0 H 52.807 V -0.082 H 0.035 V 0.032 L 0,0 Z"
   style="fill:#aaaeaf;fill-rule:nonzero"
   id="path2014"
   inkscape:connector-curvature="0" />
    </g>
    <g
   transform="matrix(0,2.6404009,-2.6404009,0,941.59628,-1448.7805)"
   id="g2020">
        <rect
   x="568.38"
   y="337.05301"
   width="57.888"
   height="19.552"
   style="fill:#6c982e"
   id="rect2018" />
    </g>
    <g
   transform="matrix(0,2.6404009,-2.6404009,0,45.816054,85.282769)"
   id="g2024">
        <path
   d="M 0,6.611 -6.089,2.147 V 0 h 44.834 v 2.147 l -6.089,4.464 z"
   style="fill:#007482;fill-rule:nonzero"
   id="path2022"
   inkscape:connector-curvature="0" />
    </g>
    <g
   transform="matrix(1.5873824,-2.1099532,-2.1099532,-1.5873824,11.267598,143.31029)"
   id="g2028">
        <path
   d="m 7.543,8.25 h 9.53 l -20.401,-15.349 2.64,9.156 z"
   style="fill:#007482;fill-rule:nonzero"
   id="path2026"
   inkscape:connector-curvature="0" />
    </g>
    <g
   transform="matrix(0,2.6404009,-2.6404009,0,247.95928,188.64488)"
   id="g2032">
        <path
   d="m 0,3.95 c 0.032,0 0.059,-0.027 0.059,-0.059 V 0.061 C 0.059,0.027 0.034,0 0,0 h -3.83 c -0.032,0 -0.059,0.029 -0.059,0.061 v 3.83 c 0,0.032 0.027,0.059 0.059,0.059 z"
   style="fill:#8badb4;fill-rule:nonzero"
   id="path2030"
   inkscape:connector-curvature="0" />
    </g>
    <g
   transform="matrix(0,2.6404009,-2.6404009,0,233.32091,188.64488)"
   id="g2036">
        <path
   d="m 0,3.949 c 0.032,0 0.059,-0.026 0.059,-0.059 V 0.06 C 0.059,0.026 0.034,0 0,0 h -3.83 c -0.032,0 -0.059,0.028 -0.059,0.06 v 3.83 c 0,0.033 0.027,0.059 0.059,0.059 z"
   style="fill:#8badb4;fill-rule:nonzero"
   id="path2034"
   inkscape:connector-curvature="0" />
    </g>
    <g
   transform="matrix(0,2.6404009,-2.6404009,0,247.95928,174.56416)"
   id="g2040">
        <path
   d="m 0,3.95 c 0.032,0 0.059,-0.027 0.059,-0.059 V 0.061 C 0.059,0.027 0.034,0 0,0 h -3.83 c -0.032,0 -0.059,0.029 -0.059,0.061 v 3.83 c 0,0.032 0.027,0.059 0.059,0.059 z"
   style="fill:#8badb4;fill-rule:nonzero"
   id="path2038"
   inkscape:connector-curvature="0" />
    </g>
    <g
   transform="matrix(0,2.6404009,-2.6404009,0,233.32091,174.56416)"
   id="g2044">
        <path
   d="m 0,3.949 c 0.032,0 0.059,-0.026 0.059,-0.059 V 0.06 C 0.059,0.026 0.034,0 0,0 h -3.83 c -0.032,0 -0.059,0.028 -0.059,0.06 v 3.83 c 0,0.033 0.027,0.059 0.059,0.059 z"
   style="fill:#8badb4;fill-rule:nonzero"
   id="path2042"
   inkscape:connector-curvature="0" />
    </g>
    <g
   transform="matrix(2.6404009,0,0,-2.6404009,227.35783,185.50808)"
   id="g2048">
        <rect
   x="-0.092"
   y="0.092"
   width="6.3460002"
   height="6.1620002"
   style="fill:#897866"
   id="rect2046" />
    </g>
    <g
   transform="matrix(0,2.6404009,-2.6404009,0,242.78832,170.45147)"
   id="g2052">
        <path
   d="m 0,5.539 c -0.213,0 -0.391,-0.112 -0.391,-0.254 L -0.387,0.248 C -0.387,0.113 -0.21,0 0.003,0 h 5.071 c 0.205,0 0.38,0.113 0.38,0.248 v 5.037 c 0,0.142 -0.175,0.254 -0.384,0.254 z"
   style="fill:#8b8f91;fill-rule:nonzero"
   id="path2050"
   inkscape:connector-curvature="0" />
    </g>
    <g
   transform="matrix(0,2.6404009,-2.6404009,0,1344.969,-1448.7805)"
   id="g2056">
        <rect
   x="612.70099"
   y="423.064"
   width="6.1570001"
   height="0.30000001"
   style="fill:#939798"
   id="rect2054" />
    </g>
    <g
   transform="matrix(0,2.6404009,-2.6404009,0,1376.8882,-1448.7805)"
   id="g2060">
        <rect
   x="612.70099"
   y="429.10999"
   width="6.1620002"
   height="0.29800001"
   style="fill:#939798"
   id="rect2058" />
    </g>
    <g
   transform="matrix(0,-2.6404009,-2.6404009,0,1452.9444,1570.7416)"
   id="g2064">
        <rect
   x="565.526"
   y="437.39401"
   width="12.533"
   height="12.533"
   id="rect2062" />
    </g>
    <g
   transform="matrix(0,-2.6404009,-2.6404009,0,1645.3724,1768.1821)"
   id="g2068">
        <rect
   x="604.34302"
   y="475.26199"
   width="9.677"
   height="9.677"
   id="rect2066" />
    </g>
    <g
   transform="matrix(0,2.6404009,-2.6404009,0,1378.6943,-1448.7805)"
   id="g2072">
        <rect
   x="587.66498"
   y="420.40799"
   width="14.174"
   height="18.386"
   id="rect2070" />
    </g>
    <g
   transform="matrix(0,2.6404009,-2.6404009,0,240.15215,121.60621)"
   id="g2076">
        <path
   d="M 0,5.173 C -1.429,5.173 -2.586,4.015 -2.586,2.587 -2.586,1.158 -1.429,0 0,0 1.429,0 2.587,1.158 2.587,2.587 2.587,4.015 1.429,5.173 0,5.173"
   style="fill:#f4dcc1;fill-rule:nonzero"
   id="path2074"
   inkscape:connector-curvature="0" />
    </g>
    <g
   transform="matrix(0,2.6404009,-2.6404009,0,233.32725,118.29832)"
   id="g2080">
        <path
   d="M 0,0 C 0,-0.695 0.561,-1.255 1.255,-1.255 1.95,-1.255 2.49,-0.695 2.49,0 2.49,0.695 1.95,1.255 1.255,1.255 0.561,1.255 0,0.695 0,0 m 3.069,0 c 0,-1.004 -0.81,-1.814 -1.814,-1.814 -1.004,0 -1.815,0.81 -1.815,1.814 0,1.004 0.811,1.814 1.815,1.814 1.004,0 1.814,-0.81 1.814,-1.814"
   style="fill:#eaa900;fill-rule:nonzero"
   id="path2078"
   inkscape:connector-curvature="0" />
    </g>
    <g
   transform="matrix(0,2.6404009,-2.6404009,0,1455.796,-1448.7805)"
   id="g2084">
        <rect
   x="590.86798"
   y="439.97299"
   width="10.971"
   height="8.4560003"
   id="rect2082" />
    </g>
    <g
   transform="matrix(0,2.6404009,-2.6404009,0,1523.8739,-1448.7805)"
   id="g2088">
        <rect
   x="590.86798"
   y="449.86899"
   width="10.971"
   height="14.447"
   id="rect2086" />
    </g>
    <g
   transform="matrix(0,2.6404009,-2.6404009,0,333.52088,125.83296)"
   id="g2092">
        <path
   d="M 0,5.173 C -1.429,5.173 -2.586,4.015 -2.586,2.587 -2.586,1.158 -1.429,0 0,0 1.429,0 2.586,1.158 2.586,2.587 2.586,4.015 1.429,5.173 0,5.173"
   style="fill:#f1cea2;fill-rule:nonzero"
   id="path2090"
   inkscape:connector-curvature="0" />
    </g>
    <g
   transform="matrix(0,2.6404009,-2.6404009,0,573.15291,237.90838)"
   id="g2096">
        <path
   d="m 0,5.67 c -1.57,0 -2.84,-1.27 -2.84,-2.84 0,-1.57 1.27,-2.84 2.84,-2.84 1.56,0 2.84,1.27 2.84,2.84 C 2.84,4.4 1.56,5.67 0,5.67 m 0.02,-7.19 c -2.39,0 -4.34,1.95 -4.34,4.35 0,2.41 1.95,4.36 4.34,4.36 h 7.13 v -8.71 z"
   style="fill:#b6afa8;fill-rule:nonzero"
   id="path2094"
   inkscape:connector-curvature="0" />
    </g>
    <g
   inkscape:label="MISO"
   id="D12"
   transform="matrix(2.6404009,0,0,-2.6404009,573.17826,237.90838)">
        <path
   d="m -2.84,-2.84 c -1.57,0 -2.84,1.28 -2.84,2.84 0,1.57 1.27,2.84 2.84,2.84 C -1.27,2.84 0,1.57 0,0 0,-1.56 -1.27,-2.84 -2.84,-2.84"
   style="fill:#8b7866;fill-rule:nonzero"
   id="path2098"
   inkscape:connector-curvature="0" />
    </g>
    <g
   transform="matrix(0,2.6404009,-2.6404009,0,573.18459,256.77984)"
   id="g2103">
        <path
   d="M 0,5.675 C -1.563,5.675 -2.837,4.421 -2.837,2.838 -2.837,1.274 -1.563,0 0,0 Z"
   style="fill:#ffffff;fill-rule:nonzero"
   id="path2101"
   inkscape:connector-curvature="0" />
    </g>
    <g
   transform="matrix(0,2.6404009,-2.6404009,0,536.89918,237.90838)"
   id="g2107">
        <path
   d="M 0,5.68 C -1.57,5.68 -2.84,4.41 -2.84,2.84 -2.84,1.27 -1.57,0 0,0 1.56,0 2.84,1.27 2.84,2.84 2.84,4.41 1.56,5.68 0,5.68 m 0.02,-7.19 c -2.39,0 -4.34,1.95 -4.34,4.34 0,2.41 1.95,4.36 4.34,4.36 h 7.13 v -8.7 z"
   style="fill:#b6afa8;fill-rule:nonzero"
   id="path2105"
   inkscape:connector-curvature="0" />
    </g>
    <g
   inkscape:label="MOSI"
   id="D11"
   transform="matrix(2.6404009,0,0,-2.6404009,536.89918,237.90838)">
        <path
   d="m -2.84,-2.84 c -1.57,0 -2.84,1.28 -2.84,2.84 0,1.57 1.27,2.84 2.84,2.84 C -1.27,2.84 0,1.57 0,0 0,-1.56 -1.27,-2.84 -2.84,-2.84"
   style="fill:#8b7866;fill-rule:nonzero"
   id="path2109"
   inkscape:connector-curvature="0" />
    </g>
    <g
   transform="matrix(0,2.6404009,-2.6404009,0,536.91819,256.77984)"
   id="g2114">
        <path
   d="M 0,5.675 C -1.563,5.675 -2.837,4.421 -2.837,2.838 -2.837,1.274 -1.563,0 0,0 Z"
   style="fill:#ffffff;fill-rule:nonzero"
   id="path2112"
   inkscape:connector-curvature="0" />
    </g>
    <g
   transform="matrix(0,2.6404009,-2.6404009,0,500.6201,237.90838)"
   id="g2118">
        <path
   d="m 0,5.67 c -1.57,0 -2.84,-1.27 -2.84,-2.84 0,-1.57 1.27,-2.84 2.84,-2.84 1.56,0 2.84,1.27 2.84,2.84 C 2.84,4.4 1.56,5.67 0,5.67 m 0.02,-7.19 c -2.39,0 -4.34,1.95 -4.34,4.35 0,2.41 1.95,4.36 4.34,4.36 h 7.13 v -8.71 z"
   style="fill:#b6afa8;fill-rule:nonzero"
   id="path2116"
   inkscape:connector-curvature="0" />
    </g>
    <g
   id="D10"
   transform="matrix(2.6404009,0,0,-2.6404009,500.64545,237.90838)">
        <path
   d="m -2.84,-2.84 c -1.57,0 -2.84,1.28 -2.84,2.84 0,1.57 1.27,2.84 2.84,2.84 C -1.27,2.84 0,1.57 0,0 0,-1.56 -1.27,-2.84 -2.84,-2.84"
   style="fill:#8b7866;fill-rule:nonzero"
   id="path2120"
   inkscape:connector-curvature="0" />
    </g>
    <g
   transform="matrix(0,2.6404009,-2.6404009,0,500.64545,256.77984)"
   id="g2125">
        <path
   d="M 0,5.675 C -1.563,5.675 -2.837,4.421 -2.837,2.838 -2.837,1.274 -1.563,0 0,0 Z"
   style="fill:#ffffff;fill-rule:nonzero"
   id="path2123"
   inkscape:connector-curvature="0" />
    </g>
    <g
   transform="matrix(0,2.6404009,-2.6404009,0,464.34102,237.90838)"
   id="g2129">
        <path
   d="m 0,5.67 c -1.57,0 -2.84,-1.27 -2.84,-2.84 0,-1.57 1.27,-2.84 2.84,-2.84 1.56,0 2.84,1.27 2.84,2.84 C 2.84,4.4 1.56,5.67 0,5.67 m 0.02,-7.19 c -2.39,0 -4.34,1.95 -4.34,4.34 0,2.42 1.95,4.37 4.34,4.37 h 7.13 v -8.71 z"
   style="fill:#b6afa8;fill-rule:nonzero"
   id="path2127"
   inkscape:connector-curvature="0" />
    </g>
    <g
   id="D9"
   transform="matrix(2.6404009,0,0,-2.6404009,464.36637,237.90838)">
        <path
   d="m -2.84,-2.84 c -1.57,0 -2.84,1.28 -2.84,2.84 0,1.57 1.27,2.84 2.84,2.84 C -1.27,2.84 0,1.57 0,0 0,-1.56 -1.27,-2.84 -2.84,-2.84"
   style="fill:#8b7866;fill-rule:nonzero"
   id="path2131"
   inkscape:connector-curvature="0" />
    </g>
    <g
   transform="matrix(0,2.6404009,-2.6404009,0,464.37904,256.77984)"
   id="g2136">
        <path
   d="M 0,5.675 C -1.563,5.675 -2.837,4.42 -2.837,2.838 -2.837,1.274 -1.563,0 0,0 Z"
   style="fill:#ffffff;fill-rule:nonzero"
   id="path2134"
   inkscape:connector-curvature="0" />
    </g>
    <g
   transform="matrix(0,2.6404009,-2.6404009,0,428.06194,237.90838)"
   id="g2140">
        <path
   d="m 0,5.66 c -1.57,0 -2.84,-1.27 -2.84,-2.84 0,-1.56 1.27,-2.84 2.84,-2.84 1.56,0 2.84,1.28 2.84,2.84 0,1.57 -1.28,2.84 -2.84,2.84 m 0.02,-7.18 c -2.39,0 -4.34,1.94 -4.34,4.34 0,2.41 1.95,4.36 4.34,4.36 h 7.13 v -8.7 z"
   style="fill:#b6afa8;fill-rule:nonzero"
   id="path2138"
   inkscape:connector-curvature="0" />
    </g>
    <g
   id="D8"
   transform="matrix(2.6404009,0,0,-2.6404009,428.11264,237.90838)">
        <path
   d="m -2.84,-2.84 c -1.57,0 -2.84,1.28 -2.84,2.84 0,1.57 1.27,2.84 2.84,2.84 C -1.28,2.84 0,1.57 0,0 0,-1.56 -1.28,-2.84 -2.84,-2.84"
   style="fill:#8b7866;fill-rule:nonzero"
   id="path2142"
   inkscape:connector-curvature="0" />
    </g>
    <g
   transform="matrix(0,2.6404009,-2.6404009,0,428.11264,256.77984)"
   id="g2147">
        <path
   d="M 0,5.675 C -1.563,5.675 -2.837,4.42 -2.837,2.838 -2.837,1.274 -1.563,0 0,0 Z"
   style="fill:#ffffff;fill-rule:nonzero"
   id="path2145"
   inkscape:connector-curvature="0" />
    </g>
    <g
   transform="matrix(0,2.6404009,-2.6404009,0,391.80821,237.90838)"
   id="g2151">
        <path
   d="m 0,5.67 c -1.57,0 -2.84,-1.27 -2.84,-2.84 0,-1.57 1.27,-2.84 2.84,-2.84 1.56,0 2.84,1.27 2.84,2.84 C 2.84,4.4 1.56,5.67 0,5.67 m 0.02,-7.19 c -2.39,0 -4.34,1.95 -4.34,4.34 0,2.42 1.95,4.37 4.34,4.37 h 7.13 v -8.71 z"
   style="fill:#b6afa8;fill-rule:nonzero"
   id="path2149"
   inkscape:connector-curvature="0" />
    </g>
    <g
   id="D7"
   transform="matrix(2.6404009,0,0,-2.6404009,391.83356,237.90838)">
        <path
   d="m -2.84,-2.84 c -1.57,0 -2.84,1.28 -2.84,2.84 0,1.57 1.27,2.84 2.84,2.84 C -1.27,2.84 0,1.57 0,0 0,-1.56 -1.27,-2.84 -2.84,-2.84"
   style="fill:#8b7866;fill-rule:nonzero"
   id="path2153"
   inkscape:connector-curvature="0" />
    </g>
    <g
   transform="matrix(0,2.6404009,-2.6404009,0,391.84623,256.77984)"
   id="g2158">
        <path
   d="M 0,5.675 C -1.563,5.675 -2.837,4.42 -2.837,2.837 -2.837,1.274 -1.563,0 0,0 Z"
   style="fill:#ffffff;fill-rule:nonzero"
   id="path2156"
   inkscape:connector-curvature="0" />
    </g>
    <g
   transform="matrix(0,2.6404009,-2.6404009,0,355.55448,237.90838)"
   id="g2162">
        <path
   d="M 0,5.68 C -1.57,5.68 -2.84,4.4 -2.84,2.84 -2.84,1.27 -1.57,0 0,0 1.56,0 2.84,1.27 2.84,2.84 2.84,4.4 1.56,5.68 0,5.68 m 0.02,-7.19 c -2.39,0 -4.34,1.95 -4.34,4.34 0,2.41 1.95,4.36 4.34,4.36 h 7.13 v -8.7 z"
   style="fill:#b6afa8;fill-rule:nonzero"
   id="path2160"
   inkscape:connector-curvature="0" />
    </g>
    <g
   id="D6"
   transform="matrix(2.6404009,0,0,-2.6404009,355.55448,237.90838)">
        <path
   d="m -2.84,-2.84 c -1.56,0 -2.84,1.28 -2.84,2.84 0,1.57 1.28,2.84 2.84,2.84 C -1.27,2.84 0,1.57 0,0 0,-1.56 -1.27,-2.84 -2.84,-2.84"
   style="fill:#8b7866;fill-rule:nonzero"
   id="path2164"
   inkscape:connector-curvature="0" />
    </g>
    <g
   transform="matrix(0,2.6404009,-2.6404009,0,355.57349,256.77984)"
   id="g2169">
        <path
   d="M 0,5.675 C -1.563,5.675 -2.837,4.42 -2.837,2.837 -2.837,1.274 -1.563,0 0,0 Z"
   style="fill:#ffffff;fill-rule:nonzero"
   id="path2167"
   inkscape:connector-curvature="0" />
    </g>
    <g
   transform="matrix(0,2.6404009,-2.6404009,0,319.2754,237.90838)"
   id="g2173">
        <path
   d="m 0,5.67 c -1.57,0 -2.84,-1.27 -2.84,-2.84 0,-1.57 1.27,-2.84 2.84,-2.84 1.56,0 2.84,1.27 2.84,2.84 C 2.84,4.4 1.56,5.67 0,5.67 m 0.02,-7.19 c -2.39,0 -4.34,1.95 -4.34,4.35 0,2.41 1.95,4.36 4.34,4.36 h 7.13 v -8.71 z"
   style="fill:#b6afa8;fill-rule:nonzero"
   id="path2171"
   inkscape:connector-curvature="0" />
    </g>
    <g
   id="D5"
   transform="matrix(2.6404009,0,0,-2.6404009,319.30074,237.90838)">
        <path
   d="m -2.84,-2.84 c -1.57,0 -2.84,1.28 -2.84,2.84 0,1.57 1.27,2.84 2.84,2.84 C -1.27,2.84 0,1.57 0,0 0,-1.56 -1.27,-2.84 -2.84,-2.84"
   style="fill:#9e846d;fill-rule:nonzero"
   id="path2175"
   inkscape:connector-curvature="0" />
    </g>
    <g
   transform="matrix(0,2.6404009,-2.6404009,0,319.30708,256.77984)"
   id="g2180">
        <path
   d="M 0,5.675 C -1.563,5.675 -2.837,4.421 -2.837,2.838 -2.837,1.274 -1.563,0 0,0 Z"
   style="fill:#ffffff;fill-rule:nonzero"
   id="path2178"
   inkscape:connector-curvature="0" />
    </g>
    <g
   transform="matrix(0,2.6404009,-2.6404009,0,283.028,237.90838)"
   id="g2184">
        <path
   d="M 0,5.68 C -1.57,5.68 -2.84,4.41 -2.84,2.84 -2.84,1.27 -1.57,0 0,0 1.56,0 2.84,1.27 2.84,2.84 2.84,4.41 1.56,5.68 0,5.68 m 0.02,-7.19 c -2.39,0 -4.34,1.95 -4.34,4.34 0,2.41 1.95,4.36 4.34,4.36 h 7.13 v -8.7 z"
   style="fill:#b6afa8;fill-rule:nonzero"
   id="path2182"
   inkscape:connector-curvature="0" />
    </g>
    <g
   id="D4"
   transform="matrix(2.6404009,0,0,-2.6404009,283.028,237.90838)">
        <path
   d="m -2.84,-2.84 c -1.57,0 -2.84,1.28 -2.84,2.84 0,1.57 1.27,2.84 2.84,2.84 C -1.27,2.84 0,1.57 0,0 0,-1.56 -1.27,-2.84 -2.84,-2.84"
   style="fill:#9e846d;fill-rule:nonzero"
   id="path2186"
   inkscape:connector-curvature="0" />
    </g>
    <g
   transform="matrix(0,2.6404009,-2.6404009,0,283.04068,256.77984)"
   id="g2191">
        <path
   d="M 0,5.675 C -1.563,5.675 -2.837,4.421 -2.837,2.838 -2.837,1.274 -1.563,0 0,0 Z"
   style="fill:#ffffff;fill-rule:nonzero"
   id="path2189"
   inkscape:connector-curvature="0" />
    </g>
    <g
   transform="matrix(0,2.6404009,-2.6404009,0,246.74892,237.90838)"
   id="g2195">
        <path
   d="m 0,5.67 c -1.57,0 -2.84,-1.27 -2.84,-2.84 0,-1.57 1.27,-2.84 2.84,-2.84 1.56,0 2.84,1.27 2.84,2.84 C 2.84,4.4 1.56,5.67 0,5.67 m 0.02,-7.19 c -2.39,0 -4.34,1.95 -4.34,4.35 0,2.41 1.95,4.36 4.34,4.36 h 7.13 v -8.71 z"
   style="fill:#b6afa8;fill-rule:nonzero"
   id="path2193"
   inkscape:connector-curvature="0" />
    </g>
    <g
   id="D3"
   transform="matrix(2.6404009,0,0,-2.6404009,246.77427,237.90838)">
        <path
   d="m -2.84,-2.84 c -1.57,0 -2.84,1.28 -2.84,2.84 0,1.57 1.27,2.84 2.84,2.84 C -1.27,2.84 0,1.57 0,0 0,-1.56 -1.27,-2.84 -2.84,-2.84"
   style="fill:#9e846d;fill-rule:nonzero"
   id="path2197"
   inkscape:connector-curvature="0" />
    </g>
    <g
   transform="matrix(0,2.6404009,-2.6404009,0,246.77427,256.77984)"
   id="g2202">
        <path
   d="M 0,5.675 C -1.563,5.675 -2.837,4.421 -2.837,2.838 -2.837,1.274 -1.563,0 0,0 Z"
   style="fill:#ffffff;fill-rule:nonzero"
   id="path2200"
   inkscape:connector-curvature="0" />
    </g>
    <g
   transform="matrix(0,2.6404009,-2.6404009,0,210.46984,237.90838)"
   id="g2206">
        <path
   d="m 0,5.67 c -1.57,0 -2.84,-1.27 -2.84,-2.84 0,-1.57 1.27,-2.84 2.84,-2.84 1.56,0 2.84,1.27 2.84,2.84 C 2.84,4.4 1.56,5.67 0,5.67 m 0.02,-7.19 c -2.39,0 -4.34,1.95 -4.34,4.34 0,2.42 1.95,4.37 4.34,4.37 h 7.13 v -8.71 z"
   style="fill:#b6afa8;fill-rule:nonzero"
   id="path2204"
   inkscape:connector-curvature="0" />
    </g>
    <g
   id="D2"
   transform="matrix(2.6404009,0,0,-2.6404009,210.49519,237.90838)">
        <path
   d="m -2.84,-2.84 c -1.57,0 -2.84,1.28 -2.84,2.84 0,1.57 1.27,2.84 2.84,2.84 C -1.27,2.84 0,1.57 0,0 0,-1.56 -1.27,-2.84 -2.84,-2.84"
   style="fill:#9e846d;fill-rule:nonzero"
   id="path2208"
   inkscape:connector-curvature="0" />
    </g>
    <g
   transform="matrix(0,2.6404009,-2.6404009,0,210.50153,256.77984)"
   id="g2213">
        <path
   d="M 0,5.675 C -1.563,5.675 -2.837,4.42 -2.837,2.838 -2.837,1.274 -1.563,0 0,0 Z"
   style="fill:#ffffff;fill-rule:nonzero"
   id="path2211"
   inkscape:connector-curvature="0" />
    </g>
    <g
   transform="matrix(0,2.6404009,-2.6404009,0,174.18443,237.90838)"
   id="g2217">
        <path
   d="m 0,5.66 c -1.57,0 -2.84,-1.27 -2.84,-2.84 0,-1.56 1.27,-2.84 2.84,-2.84 1.56,0 2.84,1.28 2.84,2.84 0,1.57 -1.28,2.84 -2.84,2.84 m 0.02,-7.18 c -2.39,0 -4.34,1.95 -4.34,4.34 0,2.41 1.95,4.36 4.34,4.36 h 7.13 v -8.7 z"
   style="fill:#b6afa8;fill-rule:nonzero"
   id="path2215"
   inkscape:connector-curvature="0" />
    </g>
    <g
   id="GND"
   transform="matrix(2.6404009,0,0,-2.6404009,174.24146,237.90838)">
        <path
   d="m -2.84,-2.84 c -1.57,0 -2.84,1.28 -2.84,2.84 0,1.57 1.27,2.84 2.84,2.84 C -1.28,2.84 0,1.57 0,0 0,-1.56 -1.28,-2.84 -2.84,-2.84"
   style="fill:#9e846d;fill-rule:nonzero"
   id="path2219"
   inkscape:connector-curvature="0" />
    </g>
    <g
   transform="matrix(0,2.6404009,-2.6404009,0,174.23512,256.77984)"
   id="g2224">
        <path
   d="M 0,5.675 C -1.563,5.675 -2.837,4.42 -2.837,2.837 -2.837,1.274 -1.563,0 0,0 Z"
   style="fill:#ffffff;fill-rule:nonzero"
   id="path2222"
   inkscape:connector-curvature="0" />
    </g>
    <g
   transform="matrix(0,2.6404009,-2.6404009,0,137.93703,237.90838)"
   id="g2228">
        <path
   d="m 0,5.67 c -1.57,0 -2.84,-1.27 -2.84,-2.84 0,-1.57 1.27,-2.84 2.84,-2.84 1.56,0 2.84,1.27 2.84,2.84 C 2.84,4.4 1.56,5.67 0,5.67 m 0.02,-7.19 c -2.39,0 -4.34,1.95 -4.34,4.34 0,2.42 1.95,4.37 4.34,4.37 h 7.13 v -8.71 z"
   style="fill:#b6afa8;fill-rule:nonzero"
   id="path2226"
   inkscape:connector-curvature="0" />
    </g>
    <g
   id="RESET"
   transform="matrix(2.6404009,0,0,-2.6404009,137.96238,237.90838)">
        <path
   d="m -2.84,-2.84 c -1.57,0 -2.84,1.28 -2.84,2.84 0,1.57 1.27,2.84 2.84,2.84 C -1.27,2.84 0,1.57 0,0 0,-1.56 -1.27,-2.84 -2.84,-2.84"
   style="fill:#9e846d;fill-rule:nonzero"
   id="path2230"
   inkscape:connector-curvature="0" />
    </g>
    <g
   transform="matrix(0,2.6404009,-2.6404009,0,137.96872,256.77984)"
   id="g2235">
        <path
   d="M 0,5.675 C -1.563,5.675 -2.837,4.42 -2.837,2.837 -2.837,1.274 -1.563,0 0,0 Z"
   style="fill:#ffffff;fill-rule:nonzero"
   id="path2233"
   inkscape:connector-curvature="0" />
    </g>
    <g
   transform="matrix(0,2.6404009,-2.6404009,0,101.68203,237.90838)"
   id="g2239">
        <path
   d="M 0,5.68 C -1.57,5.68 -2.84,4.4 -2.84,2.84 -2.84,1.27 -1.57,0 0,0 1.56,0 2.84,1.27 2.84,2.84 2.84,4.4 1.56,5.68 0,5.68 m 0.02,-7.19 c -2.39,0 -4.34,1.95 -4.34,4.34 0,2.41 1.95,4.36 4.34,4.36 h 7.13 v -8.7 z"
   style="fill:#b6afa8;fill-rule:nonzero"
   id="path2237"
   inkscape:connector-curvature="0" />
    </g>
    <g
   id="RX"
   transform="matrix(2.6404009,0,0,-2.6404009,101.68203,237.90838)">
        <path
   d="m -2.84,-2.84 c -1.56,0 -2.84,1.28 -2.84,2.84 0,1.57 1.28,2.84 2.84,2.84 C -1.27,2.84 0,1.57 0,0 0,-1.56 -1.27,-2.84 -2.84,-2.84"
   style="fill:#9e846d;fill-rule:nonzero"
   id="path2241"
   inkscape:connector-curvature="0" />
    </g>
    <g
   transform="matrix(0,2.6404009,-2.6404009,0,101.70104,256.77984)"
   id="g2246">
        <path
   d="M 0,5.675 C -1.563,5.675 -2.837,4.421 -2.837,2.838 -2.837,1.274 -1.563,0 0,0 Z"
   style="fill:#ffffff;fill-rule:nonzero"
   id="path2244"
   inkscape:connector-curvature="0" />
    </g>
    <g
   transform="matrix(0,2.6404009,-2.6404009,0,65.402956,237.90838)"
   id="g2250">
        <path
   d="m 0,5.67 c -1.57,0 -2.84,-1.27 -2.84,-2.84 0,-1.57 1.27,-2.84 2.84,-2.84 1.56,0 2.84,1.27 2.84,2.84 C 2.84,4.4 1.56,5.67 0,5.67 m 0.02,-7.19 c -2.39,0 -4.34,1.95 -4.34,4.35 0,2.41 1.95,4.36 4.34,4.36 h 7.13 v -8.71 z"
   style="fill:#b6afa8;fill-rule:nonzero"
   id="path2248"
   inkscape:connector-curvature="0" />
    </g>
    <g
   id="TX"
   transform="matrix(2.6404009,0,0,-2.6404009,65.429571,237.90838)">
        <path
   d="m -2.84,-2.84 c -1.57,0 -2.84,1.28 -2.84,2.84 0,1.57 1.27,2.84 2.84,2.84 C -1.27,2.84 0,1.57 0,0 0,-1.56 -1.27,-2.84 -2.84,-2.84"
   style="fill:#9e846d;fill-rule:nonzero"
   id="path2252"
   inkscape:connector-curvature="0" />
    </g>
    <g
   transform="matrix(0,2.6404009,-2.6404009,0,65.433373,256.77984)"
   id="g2257">
        <path
   d="M 0,5.675 C -1.563,5.675 -2.837,4.421 -2.837,2.838 -2.837,1.274 -1.563,0 0,0 Z"
   style="fill:#ffffff;fill-rule:nonzero"
   id="path2255"
   inkscape:connector-curvature="0" />
    </g>
    <g
   transform="matrix(0,2.6404009,-2.6404009,0,65.428937,18.884132)"
   id="g2261">
        <path
   d="m 0,5.69 c -1.569,0 -2.84,-1.27 -2.84,-2.84 0,-1.57 1.271,-2.84 2.84,-2.84 1.57,0 2.84,1.27 2.84,2.84 0,1.57 -1.27,2.84 -2.84,2.84 m -0.03,-7.2 H -7.149 V 7.2 h 7.119 c 2.39,0 4.341,-1.95 4.341,-4.34 0,-2.42 -1.951,-4.37 -4.341,-4.37"
   style="fill:#b6afa8;fill-rule:nonzero"
   id="path2259"
   inkscape:connector-curvature="0" />
    </g>
    <g
   id="VIN"
   transform="matrix(2.6404009,0,0,-2.6404009,65.40359,18.884132)">
        <path
   d="m -2.84,-2.84 c -1.57,0 -2.84,1.27 -2.84,2.84 0,1.569 1.27,2.84 2.84,2.84 C -1.27,2.84 0,1.569 0,0 0,-1.57 -1.27,-2.84 -2.84,-2.84"
   style="fill:#9e846d;fill-rule:nonzero"
   id="path2263"
   inkscape:connector-curvature="0" />
    </g>
    <g
   transform="matrix(0,2.6404009,-2.6404009,0,50.398308,0)"
   id="g2268">
        <path
   d="m 0,-5.675 c 1.563,0 2.838,1.255 2.838,2.838 C 2.838,-1.274 1.563,0 0,0 Z"
   style="fill:#ffffff;fill-rule:nonzero"
   id="path2266"
   inkscape:connector-curvature="0" />
    </g>
    <g
   transform="matrix(0,2.6404009,-2.6404009,0,101.68203,18.884132)"
   id="g2272">
        <path
   d="M 0,5.68 C -1.569,5.68 -2.84,4.41 -2.84,2.84 -2.84,1.28 -1.569,0 0,0 1.57,0 2.84,1.28 2.84,2.84 2.84,4.41 1.57,5.68 0,5.68 m -0.03,-7.19 h -7.119 v 8.7 h 7.119 c 2.39,0 4.341,-1.95 4.341,-4.34 0,-2.41 -1.951,-4.36 -4.341,-4.36"
   style="fill:#b6afa8;fill-rule:nonzero"
   id="path2270"
   inkscape:connector-curvature="0" />
    </g>
    <g
   id="GND3"
   transform="matrix(2.6404009,0,0,-2.6404009,101.68203,18.884132)">
        <path
   d="m -2.84,-2.84 c -1.57,0 -2.84,1.27 -2.84,2.84 0,1.569 1.27,2.84 2.84,2.84 C -1.28,2.84 0,1.569 0,0 0,-1.57 -1.28,-2.84 -2.84,-2.84"
   style="fill:#9e846d;fill-rule:nonzero"
   id="path2274"
   inkscape:connector-curvature="0" />
    </g>
    <g
   transform="matrix(0,2.6404009,-2.6404009,0,86.666616,0)"
   id="g2279">
        <path
   d="m 0,-5.675 c 1.563,0 2.838,1.255 2.838,2.838 C 2.838,-1.274 1.563,0 0,0 Z"
   style="fill:#ffffff;fill-rule:nonzero"
   id="path2277"
   inkscape:connector-curvature="0" />
    </g>
    <g
   transform="matrix(0,2.6404009,-2.6404009,0,137.96238,18.884132)"
   id="g2283">
        <path
   d="m 0,5.69 c -1.569,0 -2.84,-1.27 -2.84,-2.84 0,-1.57 1.271,-2.84 2.84,-2.84 1.57,0 2.84,1.27 2.84,2.84 0,1.57 -1.27,2.84 -2.84,2.84 m -0.03,-7.2 H -7.149 V 7.2 h 7.119 c 2.39,0 4.341,-1.95 4.341,-4.35 0,-2.41 -1.951,-4.36 -4.341,-4.36"
   style="fill:#b6afa8;fill-rule:nonzero"
   id="path2281"
   inkscape:connector-curvature="0" />
    </g>
    <g
   id="RST"
   transform="matrix(2.6404009,0,0,-2.6404009,137.93703,18.884132)">
        <path
   d="m -2.84,-2.84 c -1.57,0 -2.84,1.27 -2.84,2.84 0,1.569 1.27,2.84 2.84,2.84 C -1.27,2.84 0,1.569 0,0 0,-1.57 -1.27,-2.84 -2.84,-2.84"
   style="fill:#9e846d;fill-rule:nonzero"
   id="path2285"
   inkscape:connector-curvature="0" />
    </g>
    <g
   transform="matrix(0,2.6404009,-2.6404009,0,122.93302,0)"
   id="g2290">
        <path
   d="m 0,-5.675 c 1.563,0 2.838,1.254 2.838,2.837 C 2.838,-1.274 1.563,0 0,0 Z"
   style="fill:#ffffff;fill-rule:nonzero"
   id="path2288"
   inkscape:connector-curvature="0" />
    </g>
    <g
   transform="matrix(0,2.6404009,-2.6404009,0,174.21611,18.884132)"
   id="g2294">
        <path
   d="M 0,5.68 C -1.569,5.68 -2.84,4.41 -2.84,2.84 -2.84,1.27 -1.569,0 0,0 1.57,0 2.84,1.27 2.84,2.84 2.84,4.41 1.57,5.68 0,5.68 m -0.03,-7.19 h -7.119 v 8.7 h 7.119 c 2.39,0 4.341,-1.95 4.341,-4.34 0,-2.41 -1.951,-4.36 -4.341,-4.36"
   style="fill:#b6afa8;fill-rule:nonzero"
   id="path2292"
   inkscape:connector-curvature="0" />
    </g>
    <g
   id="5V"
   serif:id="5V"
   transform="matrix(2.6404009,0,0,-2.6404009,174.21611,18.884132)">
        <path
   d="m -2.84,-2.84 c -1.57,0 -2.84,1.27 -2.84,2.84 0,1.569 1.27,2.84 2.84,2.84 C -1.27,2.84 0,1.569 0,0 0,-1.57 -1.27,-2.84 -2.84,-2.84"
   style="fill:#9e846d;fill-rule:nonzero"
   id="path2296"
   inkscape:connector-curvature="0" />
    </g>
    <g
   transform="matrix(0,2.6404009,-2.6404009,0,159.20386,0)"
   id="g2301">
        <path
   d="m 0,-5.675 c 1.563,0 2.838,1.254 2.838,2.837 C 2.838,-1.274 1.563,0 0,0 Z"
   style="fill:#ffffff;fill-rule:nonzero"
   id="path2299"
   inkscape:connector-curvature="0" />
    </g>
    <g
   transform="matrix(0,2.6404009,-2.6404009,0,210.49519,18.884132)"
   id="g2305">
        <path
   d="m 0,5.69 c -1.569,0 -2.84,-1.28 -2.84,-2.84 0,-1.57 1.271,-2.84 2.84,-2.84 1.57,0 2.84,1.27 2.84,2.84 0,1.56 -1.27,2.84 -2.84,2.84 m -0.03,-7.2 H -7.149 V 7.2 h 7.119 c 2.39,0 4.341,-1.95 4.341,-4.35 0,-2.41 -1.951,-4.36 -4.341,-4.36"
   style="fill:#b6afa8;fill-rule:nonzero"
   id="path2303"
   inkscape:connector-curvature="0" />
    </g>
    <g
   id="A7"
   transform="matrix(2.6404009,0,0,-2.6404009,210.46984,18.884132)">
        <path
   d="m -2.84,-2.84 c -1.56,0 -2.84,1.27 -2.84,2.84 0,1.569 1.28,2.84 2.84,2.84 C -1.27,2.84 0,1.569 0,0 0,-1.57 -1.27,-2.84 -2.84,-2.84"
   style="fill:#9e846d;fill-rule:nonzero"
   id="path2307"
   inkscape:connector-curvature="0" />
    </g>
    <g
   transform="matrix(0,2.6404009,-2.6404009,0,195.47026,0)"
   id="g2312">
        <path
   d="m 0,-5.675 c 1.563,0 2.838,1.254 2.838,2.837 C 2.838,-1.274 1.563,0 0,0 Z"
   style="fill:#ffffff;fill-rule:nonzero"
   id="path2310"
   inkscape:connector-curvature="0" />
    </g>
    <g
   transform="matrix(0,2.6404009,-2.6404009,0,246.77427,18.884132)"
   id="g2316">
        <path
   d="m 0,5.69 c -1.569,0 -2.84,-1.27 -2.84,-2.84 0,-1.57 1.271,-2.84 2.84,-2.84 1.57,0 2.84,1.27 2.84,2.84 0,1.57 -1.27,2.84 -2.84,2.84 m -0.03,-7.2 H -7.149 V 7.2 h 7.119 c 2.39,0 4.341,-1.95 4.341,-4.34 0,-2.42 -1.951,-4.37 -4.341,-4.37"
   style="fill:#b6afa8;fill-rule:nonzero"
   id="path2314"
   inkscape:connector-curvature="0" />
    </g>
    <g
   id="A6"
   transform="matrix(2.6404009,0,0,-2.6404009,246.74258,18.884132)">
        <path
   d="m -2.84,-2.84 c -1.57,0 -2.84,1.27 -2.84,2.84 0,1.569 1.27,2.84 2.84,2.84 C -1.27,2.84 0,1.569 0,0 0,-1.57 -1.27,-2.84 -2.84,-2.84"
   style="fill:#9e846d;fill-rule:nonzero"
   id="path2318"
   inkscape:connector-curvature="0" />
    </g>
    <g
   transform="matrix(0,2.6404009,-2.6404009,0,231.73667,0)"
   id="g2323">
        <path
   d="m 0,-5.675 c 1.563,0 2.838,1.255 2.838,2.837 C 2.838,-1.274 1.563,0 0,0 Z"
   style="fill:#ffffff;fill-rule:nonzero"
   id="path2321"
   inkscape:connector-curvature="0" />
    </g>
    <g
   transform="matrix(0,2.6404009,-2.6404009,0,283.028,18.884132)"
   id="g2327">
        <path
   d="m 0,5.68 c -1.569,0 -2.84,-1.27 -2.84,-2.83 0,-1.57 1.271,-2.84 2.84,-2.84 1.57,0 2.84,1.27 2.84,2.84 0,1.56 -1.27,2.83 -2.84,2.83 m -0.03,-7.19 h -7.119 v 8.7 h 7.119 c 2.39,0 4.341,-1.95 4.341,-4.34 0,-2.41 -1.951,-4.36 -4.341,-4.36"
   style="fill:#b6afa8;fill-rule:nonzero"
   id="path2325"
   inkscape:connector-curvature="0" />
    </g>
    <g
   inkscape:label="SCL"
   id="A5"
   transform="matrix(2.6404009,0,0,-2.6404009,283.00899,18.896806)">
        <path
   d="m -2.845,-2.835 c -1.56,0 -2.83,1.27 -2.83,2.84 0,1.569 1.27,2.84 2.83,2.84 1.57,0 2.84,-1.271 2.84,-2.84 0,-1.57 -1.27,-2.84 -2.84,-2.84"
   style="fill:#9e846d;fill-rule:nonzero"
   id="path2329"
   inkscape:connector-curvature="0" />
    </g>
    <g
   transform="matrix(0,2.6404009,-2.6404009,0,268.00308,0)"
   id="g2334">
        <path
   d="m 0,-5.675 c 1.563,0 2.838,1.255 2.838,2.837 C 2.838,-1.274 1.563,0 0,0 Z"
   style="fill:#ffffff;fill-rule:nonzero"
   id="path2332"
   inkscape:connector-curvature="0" />
    </g>
    <g
   transform="matrix(0,2.6404009,-2.6404009,0,319.30708,18.884132)"
   id="g2338">
        <path
   d="m 0,5.69 c -1.569,0 -2.84,-1.27 -2.84,-2.84 0,-1.57 1.271,-2.84 2.84,-2.84 1.57,0 2.84,1.27 2.84,2.84 0,1.57 -1.27,2.84 -2.84,2.84 m -0.03,-7.2 H -7.149 V 7.2 h 7.119 c 2.39,0 4.341,-1.95 4.341,-4.34 0,-2.42 -1.951,-4.37 -4.341,-4.37"
   style="fill:#b6afa8;fill-rule:nonzero"
   id="path2336"
   inkscape:connector-curvature="0" />
    </g>
    <g
   inkscape:label="SDA"
   id="A4"
   transform="matrix(2.6404009,0,0,-2.6404009,319.2754,18.884132)">
        <path
   d="m -2.84,-2.84 c -1.57,0 -2.84,1.27 -2.84,2.84 0,1.569 1.27,2.84 2.84,2.84 C -1.27,2.84 0,1.569 0,0 0,-1.57 -1.27,-2.84 -2.84,-2.84"
   style="fill:#9e846d;fill-rule:nonzero"
   id="path2340"
   inkscape:connector-curvature="0" />
    </g>
    <g
   transform="matrix(0,2.6404009,-2.6404009,0,304.27582,0)"
   id="g2345">
        <path
   d="m 0,-5.675 c 1.563,0 2.838,1.255 2.838,2.838 C 2.838,-1.274 1.563,0 0,0 Z"
   style="fill:#ffffff;fill-rule:nonzero"
   id="path2343"
   inkscape:connector-curvature="0" />
    </g>
    <g
   transform="matrix(0,2.6404009,-2.6404009,0,355.55448,18.884132)"
   id="g2349">
        <path
   d="M 0,5.68 C -1.569,5.68 -2.84,4.41 -2.84,2.84 -2.84,1.28 -1.569,0 0,0 1.57,0 2.84,1.28 2.84,2.84 2.84,4.41 1.57,5.68 0,5.68 m -0.03,-7.19 h -7.119 v 8.7 h 7.119 c 2.39,0 4.341,-1.95 4.341,-4.34 0,-2.41 -1.951,-4.36 -4.341,-4.36"
   style="fill:#b6afa8;fill-rule:nonzero"
   id="path2347"
   inkscape:connector-curvature="0" />
    </g>
    <g
   id="A3"
   transform="matrix(2.6404009,0,0,-2.6404009,355.55448,18.884132)">
        <path
   d="m -2.84,-2.84 c -1.57,0 -2.84,1.27 -2.84,2.84 0,1.569 1.27,2.84 2.84,2.84 C -1.28,2.84 0,1.569 0,0 0,-1.57 -1.28,-2.84 -2.84,-2.84"
   style="fill:#8b7866;fill-rule:nonzero"
   id="path2351"
   inkscape:connector-curvature="0" />
    </g>
    <g
   transform="matrix(0,2.6404009,-2.6404009,0,340.54222,0)"
   id="g2356">
        <path
   d="m 0,-5.675 c 1.563,0 2.838,1.254 2.838,2.837 C 2.838,-1.274 1.563,0 0,0 Z"
   style="fill:#ffffff;fill-rule:nonzero"
   id="path2354"
   inkscape:connector-curvature="0" />
    </g>
    <g
   transform="matrix(0,2.6404009,-2.6404009,0,391.83356,18.884132)"
   id="g2360">
        <path
   d="m 0,5.69 c -1.569,0 -2.84,-1.27 -2.84,-2.84 0,-1.57 1.271,-2.84 2.84,-2.84 1.57,0 2.84,1.27 2.84,2.84 0,1.57 -1.27,2.84 -2.84,2.84 m -0.03,-7.2 H -7.149 V 7.2 h 7.119 c 2.39,0 4.341,-1.95 4.341,-4.35 0,-2.41 -1.951,-4.36 -4.341,-4.36"
   style="fill:#b6afa8;fill-rule:nonzero"
   id="path2358"
   inkscape:connector-curvature="0" />
    </g>
    <g
   id="A2"
   transform="matrix(2.6404009,0,0,-2.6404009,391.80821,18.884132)">
        <path
   d="m -2.84,-2.84 c -1.57,0 -2.84,1.27 -2.84,2.84 0,1.569 1.27,2.84 2.84,2.84 C -1.27,2.84 0,1.569 0,0 0,-1.57 -1.27,-2.84 -2.84,-2.84"
   style="fill:#8b7866;fill-rule:nonzero"
   id="path2362"
   inkscape:connector-curvature="0" />
    </g>
    <g
   transform="matrix(0,2.6404009,-2.6404009,0,376.80863,0)"
   id="g2367">
        <path
   d="m 0,-5.675 c 1.563,0 2.838,1.254 2.838,2.837 C 2.838,-1.274 1.563,0 0,0 Z"
   style="fill:#ffffff;fill-rule:nonzero"
   id="path2365"
   inkscape:connector-curvature="0" />
    </g>
    <g
   transform="matrix(0,2.6404009,-2.6404009,0,428.08729,18.884132)"
   id="g2371">
        <path
   d="M 0,5.68 C -1.569,5.68 -2.84,4.41 -2.84,2.84 -2.84,1.27 -1.569,0 0,0 1.57,0 2.84,1.27 2.84,2.84 2.84,4.41 1.57,5.68 0,5.68 m -0.03,-7.19 h -7.119 v 8.7 h 7.119 c 2.39,0 4.341,-1.95 4.341,-4.34 0,-2.42 -1.951,-4.36 -4.341,-4.36"
   style="fill:#b6afa8;fill-rule:nonzero"
   id="path2369"
   inkscape:connector-curvature="0" />
    </g>
    <g
   id="A1"
   transform="matrix(2.6404009,0,0,-2.6404009,428.08729,18.884132)">
        <path
   d="m -2.84,-2.84 c -1.57,0 -2.84,1.27 -2.84,2.84 0,1.569 1.27,2.84 2.84,2.84 C -1.27,2.84 0,1.569 0,0 0,-1.57 -1.27,-2.84 -2.84,-2.84"
   style="fill:#8b7866;fill-rule:nonzero"
   id="path2373"
   inkscape:connector-curvature="0" />
    </g>
    <g
   transform="matrix(0,2.6404009,-2.6404009,0,413.07504,0)"
   id="g2378">
        <path
   d="m 0,-5.675 c 1.563,0 2.838,1.254 2.838,2.837 C 2.838,-1.274 1.563,0 0,0 Z"
   style="fill:#ffffff;fill-rule:nonzero"
   id="path2376"
   inkscape:connector-curvature="0" />
    </g>
    <g
   transform="matrix(0,2.6404009,-2.6404009,0,464.36637,18.884132)"
   id="g2382">
        <path
   d="m 0,5.69 c -1.569,0 -2.84,-1.28 -2.84,-2.84 0,-1.57 1.271,-2.84 2.84,-2.84 1.57,0 2.84,1.27 2.84,2.84 0,1.56 -1.27,2.84 -2.84,2.84 m -0.03,-7.2 H -7.149 V 7.2 h 7.119 c 2.39,0 4.341,-1.95 4.341,-4.35 0,-2.41 -1.951,-4.36 -4.341,-4.36"
   style="fill:#b6afa8;fill-rule:nonzero"
   id="path2380"
   inkscape:connector-curvature="0" />
    </g>
    <g
   id="A0"
   transform="matrix(2.6404009,0,0,-2.6404009,464.34102,18.884132)">
        <path
   d="m -2.84,-2.84 c -1.56,0 -2.84,1.27 -2.84,2.84 0,1.569 1.28,2.84 2.84,2.84 C -1.27,2.84 0,1.569 0,0 0,-1.57 -1.27,-2.84 -2.84,-2.84"
   style="fill:#8b7866;fill-rule:nonzero"
   id="path2384"
   inkscape:connector-curvature="0" />
    </g>
    <g
   transform="matrix(0,2.6404009,-2.6404009,0,449.34778,0)"
   id="g2389">
        <path
   d="m 0,-5.675 c 1.563,0 2.838,1.255 2.838,2.837 C 2.838,-1.274 1.563,0 0,0 Z"
   style="fill:#ffffff;fill-rule:nonzero"
   id="path2387"
   inkscape:connector-curvature="0" />
    </g>
    <g
   transform="matrix(0,2.6404009,-2.6404009,0,500.64545,18.884132)"
   id="g2393">
        <path
   d="m 0,5.69 c -1.569,0 -2.84,-1.27 -2.84,-2.84 0,-1.57 1.271,-2.84 2.84,-2.84 1.57,0 2.84,1.27 2.84,2.84 0,1.57 -1.27,2.84 -2.84,2.84 m -0.03,-7.2 H -7.149 V 7.2 h 7.119 c 2.39,0 4.341,-1.95 4.341,-4.34 0,-2.42 -1.951,-4.37 -4.341,-4.37"
   style="fill:#b6afa8;fill-rule:nonzero"
   id="path2391"
   inkscape:connector-curvature="0" />
    </g>
    <g
   id="AREF"
   transform="matrix(2.6404009,0,0,-2.6404009,500.6201,18.884132)">
        <path
   d="m -2.84,-2.84 c -1.57,0 -2.84,1.27 -2.84,2.84 0,1.569 1.27,2.84 2.84,2.84 C -1.27,2.84 0,1.569 0,0 0,-1.57 -1.27,-2.84 -2.84,-2.84"
   style="fill:#8b7866;fill-rule:nonzero"
   id="path2395"
   inkscape:connector-curvature="0" />
    </g>
    <g
   transform="matrix(0,2.6404009,-2.6404009,0,485.61418,0)"
   id="g2400">
        <path
   d="m 0,-5.675 c 1.563,0 2.838,1.255 2.838,2.837 C 2.838,-1.274 1.563,0 0,0 Z"
   style="fill:#ffffff;fill-rule:nonzero"
   id="path2398"
   inkscape:connector-curvature="0" />
    </g>
    <g
   transform="matrix(0,2.6404009,-2.6404009,0,536.89918,18.884132)"
   id="g2404">
        <path
   d="m 0,5.68 c -1.569,0 -2.84,-1.27 -2.84,-2.84 0,-1.56 1.271,-2.83 2.84,-2.83 1.57,0 2.84,1.27 2.84,2.83 0,1.57 -1.27,2.84 -2.84,2.84 m -0.03,-7.19 h -7.119 v 8.7 h 7.119 c 2.39,0 4.341,-1.95 4.341,-4.34 0,-2.41 -1.951,-4.36 -4.341,-4.36"
   style="fill:#b6afa8;fill-rule:nonzero"
   id="path2402"
   inkscape:connector-curvature="0" />
    </g>
    <g
   id="3V"
   serif:id="3V"
   transform="matrix(2.6404009,0,0,-2.6404009,536.8865,18.871458)">
        <path
   d="m -2.835,-2.845 c -1.57,0 -2.84,1.27 -2.84,2.84 0,1.569 1.27,2.84 2.84,2.84 1.56,0 2.83,-1.271 2.83,-2.84 0,-1.57 -1.27,-2.84 -2.83,-2.84"
   style="fill:#8b7866;fill-rule:nonzero"
   id="path2406"
   inkscape:connector-curvature="0" />
    </g>
    <g
   transform="matrix(0,2.6404009,-2.6404009,0,521.88059,0)"
   id="g2411">
        <path
   d="m 0,-5.675 c 1.563,0 2.838,1.255 2.838,2.838 C 2.838,-1.274 1.563,0 0,0 Z"
   style="fill:#ffffff;fill-rule:nonzero"
   id="path2409"
   inkscape:connector-curvature="0" />
    </g>
    <g
   transform="matrix(0,2.6404009,-2.6404009,0,573.17826,18.884132)"
   id="g2415">
        <path
   d="m 0,5.69 c -1.569,0 -2.84,-1.27 -2.84,-2.84 0,-1.57 1.271,-2.84 2.84,-2.84 1.57,0 2.84,1.27 2.84,2.84 0,1.57 -1.27,2.84 -2.84,2.84 m -0.03,-7.2 H -7.149 V 7.2 h 7.119 c 2.39,0 4.341,-1.95 4.341,-4.35 0,-2.41 -1.951,-4.36 -4.341,-4.36"
   style="fill:#b6afa8;fill-rule:nonzero"
   id="path2413"
   inkscape:connector-curvature="0" />
    </g>
    <g
   inkscape:label="SCK"
   id="D13"
   transform="matrix(2.6404009,0,0,-2.6404009,573.15291,18.884132)">
        <path
   d="m -2.84,-2.84 c -1.57,0 -2.84,1.27 -2.84,2.84 0,1.569 1.27,2.84 2.84,2.84 C -1.27,2.84 0,1.569 0,0 0,-1.57 -1.27,-2.84 -2.84,-2.84"
   style="fill:#8b7866;fill-rule:nonzero"
   id="path2417"
   inkscape:connector-curvature="0" />
    </g>
    <g
   transform="matrix(0,2.6404009,-2.6404009,0,558.147,0)"
   id="g2422">
        <path
   d="m 0,-5.675 c 1.563,0 2.838,1.254 2.838,2.837 C 2.838,-1.274 1.563,0 0,0 Z"
   style="fill:#ffffff;fill-rule:nonzero"
   id="path2420"
   inkscape:connector-curvature="0" />
    </g>
    
    
    
    
    
    
</svg>
