<svg xmlns="http://www.w3.org/2000/svg" width="456.72mm" height="755.075" viewBox="0 0 456.72 199.78" version="1.1" id="svg5436">
  <g id="layer1" transform="translate(-38.62 56.995)">
    <rect id="rect5449" width="447.841" height="199.78" x="47.5" y="-56.995" rx="1" ry="1" fill="#009aff" fill-opacity="1" stroke-width="1.099"/>
    <circle id="GND" cx="67.755" cy="-24.808" r="7.492" fill="#ac9393" stroke-width="1.099"/>
    <circle id="GND2" cx="89.208" cy="-24.808" r="7.492" fill="#ac9393" stroke-width="1.099"/>
    <circle id="VCC" cx="110.661" cy="-24.808" r="7.492" fill="#ac9393" stroke-width="1.099"/>
    <circle id="path5451-2" cx="132.114" cy="-24.808" r="7.492" fill="#ac9393" stroke-width="1.099"/>
    <circle id="SDA2_RX3_PB11_B11" cx="153.567" cy="-24.808" r="7.492" fill="#ac9393" stroke-width="1.099"/>
    <circle id="SCL2_TX2_PB10_B10" cx="175.02" cy="-24.808" r="7.492" fill="#ac9393" stroke-width="1.099"/>
    <circle id="PB1_B1" cx="196.473" cy="-24.808" r="7.492" fill="#ac9393" stroke-width="1.099"/>
    <circle id="PB0_B0" cx="217.926" cy="-24.808" r="7.492" fill="#ac9393" stroke-width="1.099"/>
    <circle id="PA7_MOSI_A7" cx="239.379" cy="-24.808" r="7.492" fill="#ac9393" stroke-width="1.099"/>
    <circle id="PA6_MISO_A6" cx="260.832" cy="-24.808" r="7.492" fill="#ac9393" stroke-width="1.099"/>
    <circle id="PA5_SCK_A6" cx="282.285" cy="-24.808" r="7.492" fill="#ac9393" stroke-width="1.099"/>
    <circle id="PA4_SS_A4" cx="303.738" cy="-24.808" r="7.492" fill="#ac9393" stroke-width="1.099"/>
    <circle id="PA3_RX2_A3" cx="325.191" cy="-24.808" r="7.492" fill="#ac9393" stroke-width="1.099"/>
    <circle id="PA2_TX2_A2" cx="346.644" cy="-24.808" r="7.492" fill="#ac9393" stroke-width="1.099"/>
    <circle id="PA1_A1" cx="368.097" cy="-24.808" r="7.492" fill="#ac9393" stroke-width="1.099"/>
    <circle id="PA0_A0" cx="389.55" cy="-24.808" r="7.492" fill="#ac9393" stroke-width="1.099"/>
    <circle id="PC15" cx="411.003" cy="-24.808" r="7.492" fill="#ac9393" stroke-width="1.099"/>
    <circle id="PC14" cx="432.456" cy="-24.808" r="7.492" fill="#ac9393" stroke-width="1.099"/>
    <circle id="PC13_LED" cx="453.909" cy="-24.808" r="7.492" fill="#ac9393" stroke-width="1.099"/>
    <circle id="VBAT" cx="475.363" cy="-24.808" r="7.492" fill="#ac9393" stroke-width="1.099"/>
    <circle id="PB12_SS2_B12" cx="66.368" cy="110.876" r="7.492" fill="#ac9393" stroke-width="1.099"/>
    <circle id="PB13_SCK2_B13" cx="87.865" cy="110.876" r="7.492" fill="#ac9393" stroke-width="1.099"/>
    <circle id="PB14_MISO2_B14" cx="109.361" cy="110.876" r="7.492" fill="#ac9393" stroke-width="1.099"/>
    <circle id="PB15_MOSI2_B15" cx="130.858" cy="110.876" r="7.492" fill="#ac9393" stroke-width="1.099"/>
    <circle id="PA8_A8" cx="152.355" cy="110.876" r="7.492" fill="#ac9393" stroke-width="1.099"/>
    <circle id="PA9_TX_A9" cx="173.852" cy="110.876" r="7.492" fill="#ac9393" stroke-width="1.099"/>
    <circle id="PA10_RX_A10" cx="195.349" cy="110.876" r="7.492" fill="#ac9393" stroke-width="1.099"/>
    <circle id="PA11_A11" cx="216.846" cy="110.876" r="7.492" fill="#ac9393" stroke-width="1.099"/>
    <circle id="PA12_A12" cx="238.342" cy="110.876" r="7.492" fill="#ac9393" stroke-width="1.099"/>
    <circle id="PA15_A15" cx="259.839" cy="110.876" r="7.492" fill="#ac9393" stroke-width="1.099"/>
    <circle id="PB3_SWO_B3" cx="281.336" cy="110.876" r="7.492" fill="#ac9393" stroke-width="1.099"/>
    <circle id="PB4_B4" cx="302.833" cy="110.876" r="7.492" fill="#ac9393" stroke-width="1.099"/>
    <circle id="PB5_B5" cx="324.33" cy="110.876" r="7.492" fill="#ac9393" stroke-width="1.099"/>
    <circle id="PB6_SCL_B6" cx="345.826" cy="110.876" r="7.492" fill="#ac9393" stroke-width="1.099"/>
    <circle id="PB7_SDA_B7" cx="367.323" cy="110.876" r="7.492" fill="#ac9393" stroke-width="1.099"/>
    <circle id="PB8_B8" cx="388.82" cy="110.876" r="7.492" fill="#ac9393" stroke-width="1.099"/>
    <circle id="PB9_B9" cx="410.317" cy="110.876" r="7.492" fill="#ac9393" stroke-width="1.099"/>
    <circle id="5V" cx="431.814" cy="110.876" r="7.492" fill="#ac9393" stroke-width="1.099"/>
    <circle id="GND3" cx="453.311" cy="110.876" r="7.492" fill="#ac9393" stroke-width="1.099"/>
    <rect id="rect5690" width="51.61" height="67.148" x="38.62" y="7.379" rx=".831" fill="#c8b7b7" stroke-width="1.099"/>
    <rect id="rect5694" width="59.379" height="59.379" x="188.199" y="-200.907" rx=".831" transform="rotate(47.24)" fill="#2b1100" stroke-width="1.099"/>
    <circle id="RESETBTN" cx="169.033" cy="65.648" r="8.879" fill="#241c1c" stroke-width="1.099"/>
    <rect id="LED" width="11.099" height="14.429" x="420.423" y="68.423" rx=".831" fill="#241c1c" stroke-width="1.099"/>
    <rect id="rect5700" width="76.028" height="45.506" x="131.296" y="-4.275" rx=".831" fill="#fc0" stroke-width="1.099"/>
    <rect id="rect5702" width="431.193" height="25.527" x="55.824" y="-37.572" rx=".831" fill="none" stroke="#fff" stroke-width="1.931" stroke-miterlimit="4" stroke-dasharray="none" stroke-opacity="1"/>
    <rect id="rect5702-1" width="431.193" height="25.527" x="55.824" y="98.39" rx=".831" fill="none" stroke="#fff" stroke-width="1.931" stroke-miterlimit="4" stroke-dasharray="none" stroke-opacity="1"/>
    <circle id="VCC2" cx="474.807" cy="111.154" r="7.492" fill="#ac9393" stroke-width="1.099"/>
  </g>
</svg>
