<?xml version="1.0" encoding="UTF-8" standalone="no"?>
<!-- Created with Fritzing (http://www.fritzing.org/) -->

<svg
   xmlns:svg="http://www.w3.org/2000/svg"
   xmlns="http://www.w3.org/2000/svg"
   xmlns:sodipodi="http://sodipodi.sourceforge.net/DTD/sodipodi-0.dtd"
   xmlns:inkscape="http://www.inkscape.org/namespaces/inkscape"
   height="0.7in"
   id="svg6041"
   version="1.2"
   width="1.41791in"
   y="0in"
   x="0in"
   viewBox="0 0 102.09 50.4"
   gorn="0"
   sodipodi:docname="boardwireframe.svg"
   inkscape:version="0.92.1 r15371">
  <sodipodi:namedview
     pagecolor="#ffffff"
     bordercolor="#666666"
     borderopacity="1"
     objecttolerance="10"
     gridtolerance="10"
     guidetolerance="10"
     inkscape:pageopacity="0"
     inkscape:pageshadow="2"
     inkscape:window-width="1600"
     inkscape:window-height="837"
     id="namedview6717"
     showgrid="false"
     inkscape:zoom="8.110529"
     inkscape:cx="29.933842"
     inkscape:cy="6.9679511"
     inkscape:window-x="-8"
     inkscape:window-y="-8"
     inkscape:window-maximized="1"
     inkscape:current-layer="svg6041" />
  <desc
     id="desc4485">
    <referenceFile>ItsyBitsy M4 rev C_breadboard.svg</referenceFile>
  </desc>
  <metadata
     id="metadata6047" />
  <defs
     id="defs6045" />
  <desc
     id="desc5075">Fritzing breadboard generated by brd2svg</desc>
  <g
     id="g5249"
     gorn="0.4">
    <title
       id="title5243">element:JP1</title>
    <g
       id="g5247"
       gorn="0.4.1">
      <title
         id="title5245">package:1X05_ROUND_70</title>
    </g>
  </g>
  <g
     id="g5257"
     gorn="0.5">
    <title
       id="title5251">element:JP2</title>
    <g
       id="g5255"
       gorn="0.5.1">
      <title
         id="title5253">package:1X14_ROUND70</title>
    </g>
  </g>
  <g
     id="g5265"
     gorn="0.6">
    <title
       id="title5259">element:JP4</title>
    <g
       id="g5263"
       gorn="0.6.1">
      <title
         id="title5261">package:1X14_ROUND70</title>
    </g>
  </g>
  <g
     id="g5365"
     gorn="0.7">
    <title
       id="title5359">element:SJ1</title>
    <g
       id="g5363"
       gorn="0.7.1">
      <title
         id="title5361">package:SOLDERJUMPER_CLOSEDWIRE</title>
    </g>
  </g>
  <g
     id="g5405"
     gorn="0.8">
    <title
       id="title5399">element:U$4</title>
    <g
       id="g5403"
       gorn="0.8.1">
      <title
         id="title5401">package:ITSYM4_TOP</title>
    </g>
  </g>
  <g
     id="g5413"
     gorn="0.9">
    <title
       id="title5407">element:U$5</title>
    <g
       id="g5411"
       gorn="0.9.1">
      <title
         id="title5409">package:ITSYM4_BOT</title>
    </g>
  </g>
  <g
     id="g5437"
     gorn="0.10">
    <title
       id="title5431">element:U$34</title>
    <g
       id="g5435"
       gorn="0.10.1">
      <title
         id="title5433">package:FIDUCIAL_1MM</title>
    </g>
  </g>
  <g
     id="g5445"
     gorn="0.11">
    <title
       id="title5439">element:U$35</title>
    <g
       id="g5443"
       gorn="0.11.1">
      <title
         id="title5441">package:FIDUCIAL_1MM</title>
    </g>
  </g>
  <path
     inkscape:connector-curvature="0"
     gorn="0.12.0"
     style="fill:none;stroke:#000000;stroke-width:0.75000356;stroke-opacity:1;stroke-miterlimit:4;stroke-dasharray:none"
     d="m 1.28976,32.4 1.44,-1.44 V 18.72 l -1.44,-1.44 V 3.6 a 3.6,3.6 0 0 1 3.6,-3.6 H 98.4895 a 3.6,3.6 0 0 1 3.6005,3.6 v 43.2 a 3.6,3.6 0 0 1 -3.6005,3.6 H 4.88976 a 3.6,3.6 0 0 1 -3.6,-3.6 V 32.4 M 12.8976,19.6724 a 0.99213,0.99213 0 1 0 1.98426,0 0.99213,0.99213 0 1 0 -1.98426,0 z m 0,11.0552 a 0.99213,0.99213 0 1 0 1.98426,0 0.99213,0.99213 0 1 0 -1.98426,0 z M 97.0726,39.6 a 1.417325,1.417325 0 1 0 2.83465,0 1.417325,1.417325 0 1 0 -2.83465,0 z m 0,-7.2 a 1.417325,1.417325 0 1 0 2.83465,0 1.417325,1.417325 0 1 0 -2.83465,0 z m 0,-7.2 a 1.417325,1.417325 0 1 0 2.83465,0 1.417325,1.417325 0 1 0 -2.83465,0 z m 0,-7.2 a 1.417325,1.417325 0 1 0 2.83465,0 1.417325,1.417325 0 1 0 -2.83465,0 z m 0,-7.2 a 1.417325,1.417325 0 1 0 2.83465,0 1.417325,1.417325 0 1 0 -2.83465,0 z M 3.47244,3.6 a 1.417325,1.417325 0 1 0 2.83465,0 1.417325,1.417325 0 1 0 -2.83465,0 z m 7.19996,0 a 1.417325,1.417325 0 1 0 2.83465,0 1.417325,1.417325 0 1 0 -2.83465,0 z m 7.2,0 a 1.417325,1.417325 0 1 0 2.83465,0 1.417325,1.417325 0 1 0 -2.83465,0 z m 7.2,0 a 1.417325,1.417325 0 1 0 2.83465,0 1.417325,1.417325 0 1 0 -2.83465,0 z m 7.2,0 a 1.417325,1.417325 0 1 0 2.83465,0 1.417325,1.417325 0 1 0 -2.83465,0 z m 7.2,0 a 1.417325,1.417325 0 1 0 2.83465,0 1.417325,1.417325 0 1 0 -2.83465,0 z m 7.2,0 a 1.417325,1.417325 0 1 0 2.83465,0 1.417325,1.417325 0 1 0 -2.83465,0 z m 7.2,0 a 1.417325,1.417325 0 1 0 2.83465,0 1.417325,1.417325 0 1 0 -2.83465,0 z m 7.2,0 a 1.417325,1.417325 0 1 0 2.83465,0 1.417325,1.417325 0 1 0 -2.83465,0 z m 7.2,0 a 1.417325,1.417325 0 1 0 2.83465,0 1.417325,1.417325 0 1 0 -2.83465,0 z m 7.2002,0 a 1.417325,1.417325 0 1 0 2.83465,0 1.417325,1.417325 0 1 0 -2.83465,0 z m 7.2,0 a 1.417325,1.417325 0 1 0 2.83465,0 1.417325,1.417325 0 1 0 -2.83465,0 z m 7.2,0 a 1.417325,1.417325 0 1 0 2.83465,0 1.417325,1.417325 0 1 0 -2.83465,0 z m 7.2,0 a 1.417325,1.417325 0 1 0 2.83465,0 1.417325,1.417325 0 1 0 -2.83465,0 z m 0,43.2 a 1.417325,1.417325 0 1 0 2.83465,0 1.417325,1.417325 0 1 0 -2.83465,0 z m -7.2,0 a 1.417325,1.417325 0 1 0 2.83465,0 1.417325,1.417325 0 1 0 -2.83465,0 z m -7.2,0 a 1.417325,1.417325 0 1 0 2.83465,0 1.417325,1.417325 0 1 0 -2.83465,0 z m -7.2,0 a 1.417325,1.417325 0 1 0 2.83465,0 1.417325,1.417325 0 1 0 -2.83465,0 z m -7.2002,0 a 1.417325,1.417325 0 1 0 2.83465,0 1.417325,1.417325 0 1 0 -2.83465,0 z m -7.2,0 a 1.417325,1.417325 0 1 0 2.83465,0 1.417325,1.417325 0 1 0 -2.83465,0 z m -7.2,0 a 1.417325,1.417325 0 1 0 2.83465,0 1.417325,1.417325 0 1 0 -2.83465,0 z m -7.2,0 a 1.417325,1.417325 0 1 0 2.83465,0 1.417325,1.417325 0 1 0 -2.83465,0 z m -7.2,0 a 1.417325,1.417325 0 1 0 2.83465,0 1.417325,1.417325 0 1 0 -2.83465,0 z m -7.2,0 a 1.417325,1.417325 0 1 0 2.83465,0 1.417325,1.417325 0 1 0 -2.83465,0 z m -7.2,0 a 1.417325,1.417325 0 1 0 2.83465,0 1.417325,1.417325 0 1 0 -2.83465,0 z m -7.2,0 a 1.417325,1.417325 0 1 0 2.83465,0 1.417325,1.417325 0 1 0 -2.83465,0 z m -7.2,0 a 1.417325,1.417325 0 1 0 2.83465,0 1.417325,1.417325 0 1 0 -2.83465,0 z m -7.19996,0 a 1.417325,1.417325 0 1 0 2.83465,0 1.417325,1.417325 0 1 0 -2.83465,0 z M 15.3071,15.8457 a 1.13386,1.13386 0 1 0 2.26772,0 1.13386,1.13386 0 1 0 -2.26772,0 z m 0,18.7086 a 1.13386,1.13386 0 1 0 2.26772,0 1.13386,1.13386 0 1 0 -2.26772,0 z M 7.22837,14.9953 a 1.27559,1.27559 0 1 0 2.55118,0 1.27559,1.27559 0 1 0 -2.55118,0 z m 0,20.4094 a 1.27559,1.27559 0 1 0 2.55118,0 1.27559,1.27559 0 1 0 -2.55118,0 z"
     id="path5077" />
  <g
     gorn="0.12.13"
     id="g5307">
    <title
       id="title5285">element:L2</title>
    <g
       gorn="0.12.13.1"
       id="g5305">
      <title
         id="title5287">package:APA102_2020</title>
      <line
         gorn="0.12.13.1.1"
         style="stroke:#ffffff;stroke-width:0.36000001;stroke-linecap:round"
         x1="38.324402"
         x2="32.655102"
         y2="39.8381"
         y1="39.8381"
         id="line5289" />
      <line
         gorn="0.12.13.1.2"
         style="stroke:#ffffff;stroke-width:0.36000001;stroke-linecap:round"
         x1="38.324402"
         x2="32.655102"
         y2="33.601898"
         y1="33.601898"
         id="line5291" />
      <line
         gorn="0.12.13.1.3"
         style="stroke:#ffffff;stroke-width:0.36000001;stroke-linecap:round"
         x1="32.371601"
         x2="33.222"
         y2="40.972"
         y1="40.972"
         id="line5293" />
      <line
         gorn="0.12.13.1.4"
         style="stroke:#ffffff;stroke-width:0.36000001;stroke-linecap:round"
         x1="33.222"
         x2="33.505501"
         y2="40.972"
         y1="40.972"
         id="line5295" />
      <line
         gorn="0.12.13.1.5"
         style="stroke:#ffffff;stroke-width:0.36000001;stroke-linecap:round"
         x1="33.505501"
         x2="32.938599"
         y2="40.404999"
         y1="40.972"
         id="line5297" />
      <line
         gorn="0.12.13.1.6"
         style="stroke:#ffffff;stroke-width:0.36000001;stroke-linecap:round"
         x1="32.938599"
         x2="32.371601"
         y2="40.972"
         y1="40.404999"
         id="line5299" />
      <line
         gorn="0.12.13.1.7"
         style="stroke:#ffffff;stroke-width:0.36000001;stroke-linecap:round"
         x1="32.371601"
         x2="32.655102"
         y2="40.972"
         y1="40.972"
         id="line5301" />
      <line
         gorn="0.12.13.1.8"
         style="stroke:#ffffff;stroke-width:0.36000001;stroke-linecap:round"
         x1="32.655102"
         x2="32.938599"
         y2="40.688499"
         y1="40.972"
         id="line5303" />
    </g>
  </g>
  <g
     gorn="0.12.22"
     id="g5495">
    <title
       id="title5479">element:X3</title>
    <g
       gorn="0.12.22.1"
       id="g5493">
      <title
         id="title5481">package:4UCONN_20329_V2</title>
      <line
         gorn="0.12.22.1.1"
         style="stroke:#ffffff;stroke-width:0.36000001;stroke-linecap:round"
         x1="17.007799"
         x2="17.007799"
         y2="20.3811"
         y1="18.1134"
         id="line5483" />
      <line
         gorn="0.12.22.1.2"
         style="stroke:#ffffff;stroke-width:0.36000001;stroke-linecap:round"
         x1="17.007799"
         x2="17.007799"
         y2="32.286598"
         y1="30.0189"
         id="line5485" />
      <line
         gorn="0.12.22.1.3"
         style="stroke:#ffffff;stroke-width:0.36000001;stroke-linecap:round"
         x1="4.2519698"
         x2="1.70078"
         y2="14.4284"
         y1="14.4284"
         id="line5487" />
      <line
         gorn="0.12.22.1.4"
         style="stroke:#ffffff;stroke-width:0.36000001;stroke-linecap:round"
         x1="1.70078"
         x2="1.70078"
         y2="35.9716"
         y1="14.4284"
         id="line5489" />
      <line
         gorn="0.12.22.1.5"
         style="stroke:#ffffff;stroke-width:0.36000001;stroke-linecap:round"
         x1="1.70078"
         x2="4.2519698"
         y2="35.9716"
         y1="35.9716"
         id="line5491" />
    </g>
  </g>
  <g
     id="g6259"
     transform="rotate(90,7.54355,41.74015)">
    <g
       id="g6257">
      <g
         id="g6255">
        <g
           gorn="0.12.152.0.0.0"
           id="g6253" />
      </g>
    </g>
  </g>
  <g
     id="g6713"
     transform="translate(-1.75002,16.873)">
    <g
       id="g6711">
      <g
         id="g6709">
        <g
           gorn="0.12.202.0.0.0"
           id="4uconn_20329_v2">
          <g
             id="g6706"
             transform="rotate(90,11.338485,8.327015)">
            <g
               id="g6704">
              <g
                 id="g6702">
                <g
                   gorn="0.12.202.0.0.0.0.0.0.0"
                   id="g6037">
                  <g
                     gorn="0.12.202.0.0.0.0.0.0.0.0"
                     id="g6699">
                    <rect
                       gorn="0.12.202.0.0.0.0.0.0.0.0.0"
                       style="fill:#b4b4b4"
                       x="0"
                       y="7.1570001"
                       width="22.677"
                       id="rect6007"
                       height="3.9690001" />
                    <rect
                       gorn="0.12.202.0.0.0.0.0.0.0.0.1"
                       style="fill:#dcdcdc"
                       x="11.055"
                       y="0"
                       width="0.56699997"
                       id="rect6009"
                       height="3.402" />
                    <rect
                       gorn="0.12.202.0.0.0.0.0.0.0.0.2"
                       style="fill:#dcdcdc"
                       x="12.898"
                       y="0"
                       width="0.56699997"
                       id="rect6011"
                       height="3.402" />
                    <rect
                       gorn="0.12.202.0.0.0.0.0.0.0.0.3"
                       style="fill:#dcdcdc"
                       x="14.74"
                       y="0"
                       width="0.56699997"
                       id="rect6013"
                       height="3.402" />
                    <rect
                       gorn="0.12.202.0.0.0.0.0.0.0.0.4"
                       style="fill:#dcdcdc"
                       x="9.2129803"
                       y="0"
                       width="0.56699997"
                       id="rect6015"
                       height="3.402" />
                    <rect
                       gorn="0.12.202.0.0.0.0.0.0.0.0.5"
                       style="fill:#dcdcdc"
                       x="7.3699899"
                       y="0"
                       width="0.56699997"
                       id="rect6017"
                       height="3.402" />
                    <rect
                       gorn="0.12.202.0.0.0.0.0.0.0.0.6"
                       style="fill:#b4b4b4"
                       x="4.2519999"
                       y="1.489"
                       width="14.173"
                       id="rect6019"
                       height="0.70899999" />
                    <rect
                       gorn="0.12.202.0.0.0.0.0.0.0.0.7"
                       x="4.2519999"
                       y="1.771"
                       width="14.173"
                       id="rect6021"
                       height="2.9760001" />
                    <polygon
                       gorn="0.12.202.0.0.0.0.0.0.0.0.8"
                       style="fill:#dcdcdc"
                       points="0.567,1.347 0.567,14.953 22.11,14.953 22.11,1.347 17.008,1.347 17.008,3.473 14.74,3.473 14.74,4.182 13.323,4.182 13.323,1.63 9.35402,1.63 9.35402,4.182 7.93699,4.182 7.93699,3.473 5.669,3.473 5.669,1.347 "
                       id="polygon6023" />
                    <polygon
                       gorn="0.12.202.0.0.0.0.0.0.0.0.9"
                       points="5.811,12.119 3.827,12.119 4.11,7.86701 5.527,7.86701 "
                       id="polygon6025" />
                    <polygon
                       gorn="0.12.202.0.0.0.0.0.0.0.0.10"
                       points="18.85,12.119 16.866,12.119 17.149,7.86701 18.567,7.86701 "
                       id="polygon6027" />
                    <polygon
                       gorn="0.12.202.0.0.0.0.0.0.0.0.11"
                       style="fill:#f0f0f0"
                       points="20.976,16.654 1.701,16.653 1.134,14.953 21.543,14.953 "
                       id="polygon6029" />
                    <polygon
                       gorn="0.12.202.0.0.0.0.0.0.0.0.12"
                       style="fill:#b4b4b4"
                       points="0.567,16.653 0,16.653 0.567,14.953 1.134,14.953 "
                       id="polygon6031" />
                    <polygon
                       gorn="0.12.202.0.0.0.0.0.0.0.0.13"
                       style="fill:#b4b4b4"
                       points="22.677,16.654 22.11,16.654 21.543,14.953 22.11,14.953 "
                       id="polygon6033" />
                  </g>
                </g>
              </g>
            </g>
          </g>
        </g>
      </g>
    </g>
  </g>
</svg>
