<svg xmlns="http://www.w3.org/2000/svg" viewBox="0 0 185 71" fill-rule="evenodd" clip-rule="evenodd" id="svg5779">
  <path d="M4.6 64.3V6.5C4.6 3 7.6 0 11.2 0h161.2c3.6 0 6.6 3 6.6 6.5v57.8c0 3.6-3 6.6-6.6 6.6H11.2c-3.6 0-6.6-3-6.6-6.6zM161 62.7c.8 0 1.5.7 1.5 1.5s-.7 1.6-1.5 1.6a1.6 1.6 0 0 1-1.6-1.6c0-.8.7-1.5 1.6-1.5zm-7.2 0c.8 0 1.5.7 1.5 1.5s-.7 1.6-1.5 1.6a1.6 1.6 0 0 1-1.6-1.6c0-.8.7-1.5 1.6-1.5zm-7.2 0c.8 0 1.5.7 1.5 1.5s-.7 1.6-1.5 1.6a1.6 1.6 0 0 1-1.6-1.6c0-.8.7-1.5 1.6-1.5zm-7.2 0c.8 0 1.5.7 1.5 1.5 0 .9-.7 1.6-1.5 1.6a1.6 1.6 0 0 1-1.6-1.6c0-.8.7-1.5 1.6-1.5zm-7.2 0c.8 0 1.5.7 1.5 1.5s-.7 1.6-1.5 1.6a1.6 1.6 0 0 1-1.6-1.6c0-.8.7-1.5 1.6-1.5zm-7.2 0c.8 0 1.5.7 1.5 1.5s-.7 1.6-1.5 1.6a1.6 1.6 0 0 1-1.6-1.6c0-.8.7-1.5 1.6-1.5zm-7.2 0c.8 0 1.5.7 1.5 1.5s-.7 1.6-1.5 1.6a1.6 1.6 0 0 1-1.6-1.6c0-.8.7-1.5 1.6-1.5zm-7.2 0c.8 0 1.5.7 1.5 1.5s-.7 1.6-1.5 1.6a1.6 1.6 0 0 1-1.6-1.6c0-.8.7-1.5 1.6-1.5zm-7.2 0c.8 0 1.5.7 1.5 1.5s-.7 1.6-1.5 1.6a1.6 1.6 0 0 1-1.6-1.6c0-.8.7-1.5 1.6-1.5zm-7.2 0c.8 0 1.5.7 1.5 1.5s-.7 1.6-1.5 1.6a1.6 1.6 0 0 1-1.6-1.6c0-.8.7-1.5 1.6-1.5zm-7.2 0c.8 0 1.5.7 1.5 1.5s-.7 1.6-1.5 1.6a1.6 1.6 0 0 1-1.6-1.6c0-.8.7-1.5 1.6-1.5zm-7.2 0c.8 0 1.5.7 1.5 1.5 0 .9-.7 1.6-1.5 1.6a1.6 1.6 0 0 1-1.6-1.6c0-.8.7-1.5 1.6-1.5zm-7.2 0c.9 0 1.6.7 1.6 1.5 0 .9-.7 1.6-1.6 1.6a1.6 1.6 0 0 1-1.5-1.6c0-.8.6-1.5 1.5-1.5zm-7.2 0c.8 0 1.5.7 1.5 1.5s-.7 1.6-1.5 1.6a1.6 1.6 0 0 1-1.6-1.6c0-.8.7-1.5 1.6-1.5zM160.9 5c.8 0 1.5.7 1.5 1.5s-.7 1.6-1.5 1.6a1.6 1.6 0 0 1-1.6-1.6c0-.8.7-1.5 1.6-1.5zm-7.2 0c.8 0 1.5.7 1.5 1.5 0 .9-.7 1.6-1.5 1.6a1.6 1.6 0 0 1-1.6-1.6c0-.8.7-1.5 1.6-1.5zm-7.2 0c.8 0 1.5.7 1.5 1.5s-.7 1.6-1.5 1.6a1.6 1.6 0 0 1-1.6-1.6c0-.8.7-1.5 1.6-1.5zm-7.2 0c.8 0 1.5.7 1.5 1.5s-.7 1.6-1.5 1.6a1.6 1.6 0 0 1-1.6-1.6c0-.8.7-1.5 1.6-1.5zM132 5c.8 0 1.5.7 1.5 1.5s-.7 1.6-1.5 1.6a1.6 1.6 0 0 1-1.6-1.6c0-.8.7-1.5 1.6-1.5zm-7.2 0c.8 0 1.5.7 1.5 1.5s-.7 1.6-1.5 1.6a1.6 1.6 0 0 1-1.6-1.6c0-.8.7-1.5 1.6-1.5zm-7.2 0c.8 0 1.5.7 1.5 1.5s-.7 1.6-1.5 1.6a1.6 1.6 0 0 1-1.6-1.6c0-.8.7-1.5 1.6-1.5zm-7.2 0c.8 0 1.5.7 1.5 1.5s-.7 1.6-1.5 1.6a1.6 1.6 0 0 1-1.6-1.6c0-.8.7-1.5 1.6-1.5zm-7.2 0c.8 0 1.5.7 1.5 1.5s-.7 1.6-1.5 1.6a1.6 1.6 0 0 1-1.6-1.6c0-.8.7-1.5 1.6-1.5zM96 5c.8 0 1.5.7 1.5 1.5 0 .9-.7 1.6-1.5 1.6a1.6 1.6 0 0 1-1.6-1.6c0-.8.7-1.5 1.6-1.5zm-7.2 0c.9 0 1.6.7 1.6 1.5 0 .9-.7 1.6-1.6 1.6a1.6 1.6 0 0 1-1.5-1.6c0-.8.6-1.5 1.5-1.5zm-7.2 0c.8 0 1.5.7 1.5 1.5s-.7 1.6-1.5 1.6A1.6 1.6 0 0 1 80 6.6c0-.8.7-1.5 1.6-1.5zm-7.2 0c.8 0 1.5.7 1.5 1.5s-.7 1.6-1.5 1.6a1.6 1.6 0 0 1-1.6-1.6c0-.8.7-1.5 1.6-1.5zm-7.2 0c.8 0 1.5.7 1.5 1.5s-.7 1.6-1.5 1.6a1.6 1.6 0 0 1-1.6-1.6c0-.8.7-1.5 1.6-1.5zm105.1 56a3.1 3.1 0 0 1 3.1 3.1 3.1 3.1 0 0 1-3.1 3.1 3.1 3.1 0 0 1-3.1-3 3.1 3.1 0 0 1 3.1-3.2zm0-57.6a3.1 3.1 0 0 1 3.1 3.1 3.1 3.1 0 0 1-3.1 3.1 3.1 3.1 0 0 1-3.1-3 3.1 3.1 0 0 1 3.1-3.2zM11.3 61a3.1 3.1 0 0 1 3.1 3.1 3.1 3.1 0 0 1-3.1 3.1 3.1 3.1 0 0 1-3.1-3 3.1 3.1 0 0 1 3.1-3.2zm0-57.6a3.1 3.1 0 0 1 3.1 3.1 3.1 3.1 0 0 1-3.1 3.1 3.1 3.1 0 0 1-3.1-3 3.1 3.1 0 0 1 3.1-3.2z" fill="none" fill-rule="nonzero" id="path4641" stroke="#000"/>
  <path d="M40.4 2.2l.2.7h1l.1-.7h.6l-.9 2.9h-.7l-1-2.9zm.3 1.2l.2.6v.3l.1.2v.2-.1l.1-.1v-.4h.1l.2-.7h-.7zm-2 .4l-.4.1-.2.3c0 .1 0 .2.2.3h.5zm0-.5v-1h.7V5h-.8c-.4 0-.6 0-.8-.2a1 1 0 0 1-.3-.7c0-.2.1-.5.3-.6l.2-.1-.5-.9-.1-.2-.1-.1h.6l.6 1h.3zm-4 .4V3l.3-.4.5-.3h1.4V5H36l-.5-.1c-.2 0-.3-.2-.5-.3l-.2-.4-.1-.6zm.6 0V4s0 .2.2.3l.2.1h.6V2.8H36c-.2 0-.4.1-.5.3-.2.1-.2.4-.2.7zM31.9 5V2.8l.6-.5.5-.1h.5l.5.6v2.3h-.5V3l-.1-.2h-.2l-.2-.1-.4.1v2.3h-.7zm-1.8-2.9h1.3v.4l-.3.1v1.9l.3.1V5h-1.3v-.4l.4-.1V2.7l-.4-.1zm-2.9 0h.8l1.1 2.2V2.2h.5v2.9H29l-1.1-2.2v2.2h-.6V2.2zm-3.1 1.5V3l.3-.5.4-.3.6-.1h.5l.4.4.3.5a2.2 2.2 0 0 1 0 1.2l-.3.4a1 1 0 0 1-.4.3l-.5.1h-.6a1 1 0 0 1-.4-.4l-.2-.4-.1-.6zm2 0l-.1-.5-.1-.3a.6.6 0 0 0-.5-.2H25l-.2.2-.2.3V4l.2.3.2.2h.3c.2 0 .4 0 .5-.2V4l.1-.4zm-2.4-1.2v.2l-.2.1h-.2l-.2-.1v-.5h.4c.1 0 .2 0 .2.2v.1zm-2.3 2.1h.3l.2-.2.2-.4v-.8l-.2-.3-.2-.1-.3-.1H21l-.3.1v-.5h.1a2 2 0 0 1 1.2 0c.2 0 .3.2.4.3l.2.4a2.2 2.2 0 0 1 0 1.2l-.2.5-.4.3-.6.1H21l-.5-.2.2-.5.4.2h.3zm-2.5 0c.2 0 .4 0 .5-.2l.2-.4v-.8l-.1-.3-.3-.1-.3-.1h-.3l-.4.1v-.5h.2l.6-.1h.5l.4.4.3.4a2.2 2.2 0 0 1 0 1.2l-.3.5-.4.3-.6.1h-.4l-.4-.2.2-.5.3.2h.3zM85.4 0h7v10.3h-7zm3.5 4c1.4 0 2.5 1.2 2.5 2.6 0 1.4-1.1 2.5-2.5 2.6a2.6 2.6 0 0 1-2.6-2.6c0-1.4 1.2-2.5 2.6-2.5z" id="path4651" fill="#030303" fill-rule="nonzero"/>
  <path fill="#666" d="M17.6 31.5h1.2v1h-1.2z" id="path4687"/>
  <path fill="#999" d="M17.7 31.5h1.1v.1h-1z" id="path4689"/>
  <path fill="#666" d="M17.6 33.4h1.2v1h-1.2z" id="path4691"/>
  <path fill="#999" d="M17.7 33.4h1.1-1z" id="path4693"/>
  <path fill="#666" d="M17.6 35.2h1.2v1h-1.2z" id="path4695"/>
  <path fill="#999" d="M17.7 35.2h1.1-1z" id="path4697"/>
  <path fill="#666" d="M17.6 37h1.2v1h-1.2z" id="path4699"/>
  <path fill="#999" d="M17.7 37h1.1-1z" id="path4701"/>
  <path fill="#666" d="M17.6 38.8h1.2v1h-1.2z" id="path4703"/>
  <path fill="#999" d="M17.7 38.8h1.1-1z" id="path4705"/>
  <path d="M1.2 45V26.3h16.7V45H1.2z" fill="#b3b3b3" fill-rule="nonzero" id="path4707"/>
  <path d="M8.4 45.1h3v1h-3v-1zm0-20h3v1h-3v-1z" fill="#666" id="path4709"/>
  <path fill="#ccc" d="M17.8 26.4V45z" id="path4711"/>
  <path fill="#333" d="M2.5 30.6H18v10.1H2.5z" id="path4713"/>
  <path d="M1.5 26.2h-.4L0 25.6v-.4l1.5 1z" fill="#b3b3b3" fill-rule="nonzero" id="path4715"/>
  <path d="M1 26.2H.6l-.5-.6 1 .6z" fill="#ccc" fill-rule="nonzero" id="path4717"/>
  <path d="M0 46.1v-.3l1-.7h.5l-1.5 1z" fill="#b3b3b3" fill-rule="nonzero" id="path4719"/>
  <path d="M0 45.8l.5-.7h.6l-1.1.7z" fill="#ccc" fill-rule="nonzero" id="path4721"/>
  <path d="M1.5 39.5h.7v.5h-.7v-.5zm0-2h.7v.4h-.7v-.4zm0-2h.7v.4h-.7v-.5zm0-2.1h.7v.4h-.7v-.4zm0-2h.7v.4h-.7v-.5z" fill="#f2f2f2" id="path4723"/>
  <path d="M1.5 31.3h.7v.1h-.7zm0 2h.7v.2h-.7v-.1zm0 2.1h.7v.1h-.7zm0 2h.7v.2h-.7v-.1zm0 2.1h.7v.1h-.7z" fill="gray" id="path4725"/>
  <path d="M1.4 30.8v.5h.3v.5h-.3v1.6h.3v.4h-.3v1.6h.3v.5h-.3v1.6h.3v.4h-.3v1.6h.3v.5h-.3v.6l.1.1h1a.1.1 0 0 0 .2-.1v-9.9a.1.1 0 0 0-.2-.1h-1a.1.1 0 0 0-.1.1v.1z" fill="#4d4d4d" fill-rule="nonzero" id="path4727"/>
  <path d="M17.3 26.2l.6.2v2.5s-.1-2.3-.3-2.3h-.3v-.4zm0 19l.6-.3v-2.5s-.1 2.3-.3 2.4c-.2 0-.3-.2-.3-.2v.5z" fill="#ccc" fill-rule="nonzero" id="path4729"/>
  <path d="M17.9 41.8h-1.6v-1.6h1.6v-.4h-.6v-8.3h.6V31h-1.6v-1.5h1.6v-3.3H1.2v19h16.7v-3.4zM4.3 31h-.8v-1.5h.8c.3-.5.8-.7 1.3-.7.6 0 1.1.2 1.4.7h4.4V31H7a1.5 1.5 0 0 1-1.4 2.3 1.5 1.5 0 0 1-1.5-1.6c0-.2 0-.5.2-.7zm0 10.7h-.8v-1.5h.8c.3-.5.8-.7 1.3-.7.6 0 1.1.2 1.4.7h4.4v1.5H7a1.5 1.5 0 0 1-1.4.8 1.5 1.5 0 0 1-1.3-.8z" fill="#e6e6e6" fill-rule="nonzero" id="path4731"/>
  <path d="M1.2 26.6v-.4h16.1v1.5L1.2 26.6z" fill="#f2f2f2" fill-rule="nonzero" id="path4733"/>
  <path d="M1.2 45.1l10.8-.5 5.3-.6v1.1H1.2z" fill="#999" fill-rule="nonzero" id="path4735"/>
  <path d="M11.2 29.5h.2V31h-.2v-1.5zm0 10.7h.2v1.5h-.2v-1.5z" fill="#ccc" id="path4737"/>
  <path d="M1.4 27.1H2v17.1h-.6v-17z" fill="#b3b3b3" id="path4739"/>
  <path fill="#ccc" d="M1.2 27.1h.3v17.1h-.3z" id="path4741"/>
  <path fill="#ad9e73" d="M35.8 51.9h22.5v14.3H35.8z" id="path4745"/>
  <path fill="#f1f3e6" d="M38.5 66.2h17V69h-17z" id="path4749"/>
  <path d="M53.6 59H40.3v5h13.3v-5z" fill="#fff" fill-opacity=".1" fill-rule="nonzero" id="path4753"/>
  <path d="M53.6 61H40.3v4.8h13.3V61z" fill="#fff" fill-opacity=".1" fill-rule="nonzero" id="path4755"/>
  <path d="M58.3 51.9v-4.5h-2.8v4.5h2.8zm-19.8 0v-4.5h-2.7v4.5h2.7zm19.8 14.3V52h-4.7v11.5h-2.8V51.9H43v11.5h-2.7V51.9h-4.5v14.3h22.5z" fill="#f1f3e6" fill-rule="nonzero" id="path4757"/>
  <path d="M53.6 66.2h-2.8V69h2.8v-2.7zm-10.6 0h-2.7V69H43v-2.7z" fill="#ad9e73" fill-opacity=".4" fill-rule="nonzero" id="path4761"/>
  <path fill="none" stroke="#bdbfc1" stroke-width=".8" d="M65.3 62.2h4v4h-4z" id="path5459"/>
  <circle cx="67.3" cy="64.2" r="2" fill="none" stroke="#bdbfc1" stroke-width=".8" id="circle5461"/>
  <circle cx="74.5" cy="64.2" r="2" fill="none" stroke="#bdbfc1" stroke-width=".8" id="circle5463"/>
  <circle cx="81.7" cy="64.2" r="2" fill="none" stroke="#bdbfc1" stroke-width=".8" id="circle5465"/>
  <circle cx="88.9" cy="64.2" r="2" fill="none" stroke="#bdbfc1" stroke-width=".8" id="circle5467"/>
  <circle cx="96.1" cy="64.2" r="2" fill="none" stroke="#bdbfc1" stroke-width=".8" id="circle5469"/>
  <circle cx="103.3" cy="64.2" r="2" fill="none" stroke="#bdbfc1" stroke-width=".8" id="circle5471"/>
  <circle cx="110.5" cy="64.2" r="2" fill="none" stroke="#bdbfc1" stroke-width=".8" id="circle5473"/>
  <circle cx="117.7" cy="64.2" r="2" fill="none" stroke="#bdbfc1" stroke-width=".8" id="circle5475"/>
  <circle cx="124.9" cy="64.2" r="2" fill="none" stroke="#bdbfc1" stroke-width=".8" id="circle5477"/>
  <circle cx="132.1" cy="64.2" r="2" fill="none" stroke="#bdbfc1" stroke-width=".8" id="circle5479"/>
  <circle cx="139.3" cy="64.2" r="2" fill="none" stroke="#bdbfc1" stroke-width=".8" id="circle5481"/>
  <circle cx="146.5" cy="64.2" r="2" fill="none" stroke="#bdbfc1" stroke-width=".8" id="circle5483"/>
  <circle cx="153.7" cy="64.2" r="2" fill="none" stroke="#bdbfc1" stroke-width=".8" id="circle5485"/>
  <circle cx="160.9" cy="64.2" r="2" fill="none" stroke="#bdbfc1" stroke-width=".8" id="circle5487"/>
  <path fill="none" stroke="#bdbfc1" stroke-width=".8" d="M158.9 4.6h4v4h-4z" id="path5489"/>
  <circle cx="160.9" cy="6.6" r="2" fill="none" stroke="#bdbfc1" stroke-width=".8" id="circle5491"/>
  <circle cx="153.7" cy="6.6" r="2" fill="none" stroke="#bdbfc1" stroke-width=".8" id="circle5493"/>
  <circle cx="146.5" cy="6.6" r="2" fill="none" stroke="#bdbfc1" stroke-width=".8" id="circle5495"/>
  <circle cx="139.3" cy="6.6" r="2" fill="none" stroke="#bdbfc1" stroke-width=".8" id="circle5497"/>
  <circle cx="132.1" cy="6.6" r="2" fill="none" stroke="#bdbfc1" stroke-width=".8" id="circle5499"/>
  <circle cx="124.9" cy="6.6" r="2" fill="none" stroke="#bdbfc1" stroke-width=".8" id="circle5501"/>
  <circle cx="117.7" cy="6.6" r="2" fill="none" stroke="#bdbfc1" stroke-width=".8" id="circle5503"/>
  <circle cx="110.5" cy="6.6" r="2" fill="none" stroke="#bdbfc1" stroke-width=".8" id="circle5505"/>
  <circle cx="103.3" cy="6.6" r="2" fill="none" stroke="#bdbfc1" stroke-width=".8" id="circle5507"/>
  <circle cx="96.1" cy="6.6" r="2" fill="none" stroke="#bdbfc1" stroke-width=".8" id="circle5509"/>
  <circle cx="88.9" cy="6.6" r="2" fill="none" stroke="#bdbfc1" stroke-width=".8" id="circle5511"/>
  <circle cx="81.7" cy="6.6" r="2" fill="none" stroke="#bdbfc1" stroke-width=".8" id="circle5513"/>
  <circle cx="74.5" cy="6.6" r="2" fill="none" stroke="#bdbfc1" stroke-width=".8" id="circle5515"/>
  <circle cx="67.3" cy="6.6" r="2" fill="none" stroke="#bdbfc1" stroke-width=".8" id="circle5517"/>
</svg>
