<?xml version="1.0" encoding="UTF-8" standalone="no"?>
<!-- Created with Fritzing (http://www.fritzing.org/) -->

<svg
   xmlns:dc="http://purl.org/dc/elements/1.1/"
   xmlns:cc="http://creativecommons.org/ns#"
   xmlns:rdf="http://www.w3.org/1999/02/22-rdf-syntax-ns#"
   xmlns:svg="http://www.w3.org/2000/svg"
   xmlns="http://www.w3.org/2000/svg"
   xmlns:sodipodi="http://sodipodi.sourceforge.net/DTD/sodipodi-0.dtd"
   xmlns:inkscape="http://www.inkscape.org/namespaces/inkscape"
   version="1.2"
   height="204.54568"
   width="454.63599"
   x="0in"
   viewBox="0 0 454.63599 204.54568"
   id="svg2"
   y="0in"
   gorn="0"
   sodipodi:docname="boardwireframe.svg"
   inkscape:version="0.92.1 r15371">
  <sodipodi:namedview
     pagecolor="#ffffff"
     bordercolor="#666666"
     borderopacity="1"
     objecttolerance="10"
     gridtolerance="10"
     guidetolerance="10"
     inkscape:pageopacity="0"
     inkscape:pageshadow="2"
     inkscape:window-width="1600"
     inkscape:window-height="837"
     id="namedview6479"
     showgrid="false"
     fit-margin-top="0"
     fit-margin-left="0"
     fit-margin-right="0"
     fit-margin-bottom="0"
     units="px"
     inkscape:zoom="2.8494829"
     inkscape:cx="191.53818"
     inkscape:cy="88.305531"
     inkscape:window-x="-8"
     inkscape:window-y="-8"
     inkscape:window-maximized="1"
     inkscape:current-layer="svg2" />
  <desc
     id="desc4485">
    <referenceFile>prefix0000_d267465b263bd137b3e1c48cc51aa319_1_breadboard.svg</referenceFile>
  </desc>
  <metadata
     id="metadata1510">
    <rdf:RDF>
      <cc:Work
         rdf:about="">
        <dc:title></dc:title>
      </cc:Work>
    </rdf:RDF>
  </metadata>
  <defs
     id="defs1508" />
  <desc
     id="desc4">Fritzing breadboard generated by brd2svg</desc>
  <path
     style="fill:none;stroke:#2b281d;stroke-width:2;stroke-opacity:1;stroke-miterlimit:4;stroke-dasharray:none"
     id="path8"
     d="M 22.816503,204.54569 A 22.727299,22.727299 0 0 1 0.08926773,181.81839 V 125.00014 L 4.6347275,120.45469 V 84.091007 L 0.08926773,79.545547 V 22.7273 A 22.727299,22.727299 0 0 1 22.816503,0 H 431.9087 a 22.727299,22.727299 0 0 1 22.7273,22.7273 v 159.09109 a 22.727299,22.727299 0 0 1 -22.7273,22.7273 H 22.816503 M 36.730219,84.824593 a 3.1317271,3.1317271 0 1 0 6.263454,0 3.1317271,3.1317271 0 1 0 -6.263454,0 z m 0,34.896507 a 3.1317271,3.1317271 0 1 0 6.263454,0 3.1317271,3.1317271 0 1 0 -6.263454,0 z M 420.54505,22.7273 a 11.36365,11.36365 0 1 0 22.7273,0 11.36365,11.36365 0 1 0 -22.7273,0 z m 0,159.09109 a 11.36365,11.36365 0 1 0 22.7273,0 11.36365,11.36365 0 1 0 -22.7273,0 z m -27.20016,11.36365 a 4.473885,4.473885 0 1 0 8.94777,0 4.473885,4.473885 0 1 0 -8.94777,0 z m -22.72729,0 a 4.4738845,4.4738845 0 1 0 8.94776,0 4.4738845,4.4738845 0 1 0 -8.94776,0 z m -22.7273,0 a 4.473885,4.473885 0 1 0 8.94777,0 4.473885,4.473885 0 1 0 -8.94777,0 z m -22.7273,0 a 4.473885,4.473885 0 1 0 8.94777,0 4.473885,4.473885 0 1 0 -8.94777,0 z m -22.72856,0 a 4.473885,4.473885 0 1 0 8.94777,0 4.473885,4.473885 0 1 0 -8.94777,0 z m -22.7273,0 a 4.473885,4.473885 0 1 0 8.94777,0 4.473885,4.473885 0 1 0 -8.94777,0 z m -22.7273,0 a 4.473885,4.473885 0 1 0 8.94777,0 4.473885,4.473885 0 1 0 -8.94777,0 z m -22.7273,0 a 4.473885,4.473885 0 1 0 8.94777,0 4.473885,4.473885 0 1 0 -8.94777,0 z m -22.72793,0 a 4.473885,4.473885 0 1 0 8.94777,0 4.473885,4.473885 0 1 0 -8.94777,0 z m -22.7273,0 a 4.473885,4.473885 0 1 0 8.94777,0 4.473885,4.473885 0 1 0 -8.94777,0 z m -22.7273,0 a 4.473885,4.473885 0 1 0 8.94777,0 4.473885,4.473885 0 1 0 -8.94777,0 z m -22.7273,0 a 4.473885,4.473885 0 1 0 8.94777,0 4.473885,4.473885 0 1 0 -8.94777,0 z m -22.72729,0 a 4.4738845,4.4738845 0 1 0 8.94776,0 4.4738845,4.4738845 0 1 0 -8.94776,0 z m -22.727303,0 a 4.4738865,4.4738865 0 1 0 8.947773,0 4.4738865,4.4738865 0 1 0 -8.947773,0 z m -22.727299,0 a 4.4738845,4.4738845 0 0 0 8.947769,0 4.4738845,4.4738845 0 1 0 -8.947769,0 z m -22.727298,0 a 4.4738845,4.4738845 0 0 0 8.947769,0 4.4738845,4.4738845 0 1 0 -8.947769,0 z M 143.34271,11.36365 a 4.473885,4.473885 0 1 0 8.94777,0 4.473885,4.473885 0 1 0 -8.94777,0 z m 22.7273,0 a 4.473885,4.473885 0 1 0 8.94777,0 4.473885,4.473885 0 1 0 -8.94777,0 z m 22.7273,0 a 4.473885,4.473885 0 1 0 8.94777,0 4.473885,4.473885 0 1 0 -8.94777,0 z m 22.7273,0 a 4.473885,4.473885 0 1 0 8.94777,0 4.473885,4.473885 0 1 0 -8.94777,0 z m 22.72793,0 a 4.473885,4.473885 0 1 0 8.94777,0 4.473885,4.473885 0 1 0 -8.94777,0 z m 22.7273,0 a 4.473885,4.473885 0 1 0 8.94777,0 4.473885,4.473885 0 1 0 -8.94777,0 z m 22.7273,0 a 4.473885,4.473885 0 1 0 8.94777,0 4.473885,4.473885 0 1 0 -8.94777,0 z m 22.7273,0 a 4.473885,4.473885 0 1 0 8.94777,0 4.473885,4.473885 0 1 0 -8.94777,0 z m 22.72856,0 a 4.473885,4.473885 0 1 0 8.94777,0 4.473885,4.473885 0 1 0 -8.94777,0 z m 22.7273,0 a 4.473885,4.473885 0 1 0 8.94777,0 4.473885,4.473885 0 1 0 -8.94777,0 z m 22.7273,0 a 4.4738845,4.4738845 0 1 0 8.94776,0 4.4738845,4.4738845 0 1 0 -8.94776,0 z m 22.72729,0 a 4.473885,4.473885 0 1 0 8.94777,0 4.473885,4.473885 0 1 0 -8.94777,0 z M 11.631895,22.7273 a 11.184703,11.184703 0 1 0 22.369375,0 11.184703,11.184703 0 1 0 -22.369375,0 z m 0,159.09109 a 11.184703,11.184703 0 1 0 22.369375,0 11.184703,11.184703 0 1 0 -22.369375,0 z M 44.335972,72.74535 a 3.579108,3.579108 0 1 0 7.158216,0 3.579108,3.579108 0 1 0 -7.158216,0 z m 0,59.05499 a 3.579108,3.579108 0 1 0 7.158216,0 3.579108,3.579108 0 1 0 -7.158216,0 z M 18.834902,70.061003 a 4.0264882,4.0264882 0 0 0 8.052976,0 4.0264882,4.0264882 0 1 0 -8.052976,0 z m 0,64.423687 a 4.0264882,4.0264882 0 0 0 8.052976,0 4.0264882,4.0264882 0 1 0 -8.052976,0 z M 336.07841,39.772774 a 4.92127,4.92127 0 0 0 9.84254,0 4.92127,4.92127 0 1 0 -9.84254,0 z m 22.7273,0 a 4.9212651,4.9212651 0 0 0 9.84253,0 4.9212651,4.9212651 0 1 0 -9.84253,0 z m 22.7273,0 a 4.9212651,4.9212651 0 0 0 9.84253,0 4.9212651,4.9212651 0 1 0 -9.84253,0 z m 22.7273,0 a 4.9212651,4.9212651 0 0 0 9.84253,0 4.9212651,4.9212651 0 1 0 -9.84253,0 z m -68.1819,125.000146 a 4.92127,4.92127 0 0 0 9.84254,0 4.92127,4.92127 0 1 0 -9.84254,0 z m 22.7273,0 a 4.9212651,4.9212651 0 0 0 9.84253,0 4.9212651,4.9212651 0 1 0 -9.84253,0 z m 22.7273,0 a 4.9212651,4.9212651 0 0 0 9.84253,0 4.9212651,4.9212651 0 1 0 -9.84253,0 z m 22.7273,0 a 4.9212651,4.9212651 0 0 0 9.84253,0 4.9212651,4.9212651 0 1 0 -9.84253,0 z M 438.35126,56.818248 a 4.9212651,4.9212651 0 0 0 9.84253,0 4.9212651,4.9212651 0 1 0 -9.84253,0 z m 0,22.727299 a 4.9212651,4.9212651 0 0 0 9.84253,0 4.9212651,4.9212651 0 1 0 -9.84253,0 z m 0,22.727303 a 4.9212651,4.9212651 0 0 0 9.84253,0 4.9212651,4.9212651 0 1 0 -9.84253,0 z m 0,22.72729 a 4.9212651,4.9212651 0 0 0 9.84253,0 4.9212651,4.9212651 0 1 0 -9.84253,0 z m 0,22.7273 a 4.9212651,4.9212651 0 0 0 9.84253,0 4.9212651,4.9212651 0 1 0 -9.84253,0 z m -22.7273,0 a 4.9212651,4.9212651 0 0 0 9.84253,0 4.9212651,4.9212651 0 1 0 -9.84253,0 z m -22.7273,0 a 4.9212651,4.9212651 0 1 0 9.84253,0 4.9212651,4.9212651 0 1 0 -9.84253,0 z m -22.7273,0 a 4.9212651,4.9212651 0 0 0 9.84253,0 4.9212651,4.9212651 0 1 0 -9.84253,0 z m -22.7273,0 a 4.9212651,4.9212651 0 0 0 9.84253,0 4.9212651,4.9212651 0 1 0 -9.84253,0 z m 0,-90.909192 a 4.9212651,4.9212651 0 0 0 9.84253,0 4.9212651,4.9212651 0 1 0 -9.84253,0 z m 22.7273,0 a 4.9212651,4.9212651 0 0 0 9.84253,0 4.9212651,4.9212651 0 1 0 -9.84253,0 z m 22.7273,0 a 4.9212651,4.9212651 0 1 0 9.84253,0 4.9212651,4.9212651 0 1 0 -9.84253,0 z m 22.7273,0 a 4.9212651,4.9212651 0 0 0 9.84253,0 4.9212651,4.9212651 0 1 0 -9.84253,0 z m 0,22.727299 a 4.9212651,4.9212651 0 0 0 9.84253,0 4.9212651,4.9212651 0 1 0 -9.84253,0 z m 0,22.727303 a 4.9212651,4.9212651 0 0 0 9.84253,0 4.9212651,4.9212651 0 1 0 -9.84253,0 z m -22.7273,0 a 4.9212651,4.9212651 0 1 0 9.84253,0 4.9212651,4.9212651 0 1 0 -9.84253,0 z m -45.4546,0 a 4.9212651,4.9212651 0 0 0 9.84253,0 4.9212651,4.9212651 0 1 0 -9.84253,0 z m 22.7273,0 a 4.9212651,4.9212651 0 0 0 9.84253,0 4.9212651,4.9212651 0 1 0 -9.84253,0 z m 0,22.72729 a 4.9212651,4.9212651 0 0 0 9.84253,0 4.9212651,4.9212651 0 1 0 -9.84253,0 z m -22.7273,0 a 4.9212651,4.9212651 0 0 0 9.84253,0 4.9212651,4.9212651 0 1 0 -9.84253,0 z m 45.4546,0 a 4.9212651,4.9212651 0 1 0 9.84253,0 4.9212651,4.9212651 0 1 0 -9.84253,0 z m 22.7273,0 a 4.9212651,4.9212651 0 0 0 9.84253,0 4.9212651,4.9212651 0 1 0 -9.84253,0 z m -22.7273,-45.454593 a 4.9212651,4.9212651 0 1 0 9.84253,0 4.9212651,4.9212651 0 1 0 -9.84253,0 z m -22.7273,0 a 4.9212651,4.9212651 0 0 0 9.84253,0 4.9212651,4.9212651 0 1 0 -9.84253,0 z m -22.7273,0 a 4.9212651,4.9212651 0 0 0 9.84253,0 4.9212651,4.9212651 0 1 0 -9.84253,0 z"
     gorn="0.4"
     inkscape:connector-curvature="0" />
  <g
     transform="matrix(3.1565693,0,0,3.1565693,-3.981949,-1.42871)"
     id="g4504">
    <g
       id="g4502">
      <g
         id="g4500">
        <g
           id="g26"
           gorn="0.11.0.0.0">
          <title
             id="title28">text:USB</title>
          <text
             style="font-size:3.34080005px;font-family:OCRA;text-anchor:middle;fill:#ffffff;stroke:none;stroke-width:0"
             font-size="3.3408"
             x="62.849701"
             id="text30"
             y="10.3104"
             gorn="0.11.0.0.0.1">USB</text>
        </g>
      </g>
    </g>
  </g>
  <g
     transform="matrix(3.1565693,0,0,3.1565693,-3.981949,-1.42871)"
     id="g4540">
    <g
       id="g4538">
      <g
         id="g4536">
        <g
           id="g86"
           gorn="0.21.0.0.0">
          <title
             id="title88">text:13</title>
          <text
             style="font-size:3.34080005px;font-family:OCRA;text-anchor:middle;fill:#ffffff;stroke:none;stroke-width:0"
             font-size="3.3408"
             x="69.689697"
             id="text90"
             y="10.3104"
             gorn="0.21.0.0.0.1">13</text>
        </g>
      </g>
    </g>
  </g>
  <g
     id="g98"
     gorn="0.23"
     transform="matrix(3.1565693,0,0,3.1565693,-3.981949,0)">
    <title
       id="title100">text:11</title>
    <text
       style="font-size:3.34080005px;font-family:OCRA;text-anchor:middle;fill:#ffffff;stroke:none;stroke-width:0"
       font-size="3.3408"
       x="84.449501"
       id="text102"
       y="10.3104"
       gorn="0.23.1">11</text>
  </g>
  <g
     id="g164"
     gorn="0.34"
     transform="matrix(3.1565693,0,0,3.1565693,-3.981949,0)">
    <title
       id="title166">text:12</title>
    <text
       style="font-size:3.34080005px;font-family:OCRA;text-anchor:middle;fill:#ffffff;stroke:none;stroke-width:0"
       font-size="3.3408"
       x="76.889503"
       id="text168"
       y="10.3104"
       gorn="0.34.1">12</text>
  </g>
  <g
     id="g182"
     gorn="0.37"
     transform="matrix(3.1565693,0,0,3.1565693,-3.981949,0)">
    <title
       id="title184">text:#13</title>
    <g
       transform="translate(18.0801,13.32)"
       id="g4601">
      <g
         id="g4599">
        <g
           id="g4597">
          <g
             id="g186"
             gorn="0.37.1.0.0.0">
            <g
               transform="rotate(-90)"
               id="g4594">
              <g
                 id="g4592">
                <g
                   id="g4590">
                  <g
                     id="g188"
                     gorn="0.37.1.0.0.0.0.0.0.0">
                    <text
                       style="font-size:3.34080005px;font-family:OCRA;text-anchor:middle;fill:#ffffff;stroke:none;stroke-width:0"
                       font-size="3.3408"
                       x="0"
                       id="text190"
                       y="0"
                       gorn="0.37.1.0.0.0.0.0.0.0.0">#13</text>
                  </g>
                </g>
              </g>
            </g>
          </g>
        </g>
      </g>
    </g>
  </g>
  <g
     id="g234"
     gorn="0.45"
     transform="matrix(3.1565693,0,0,3.1565693,-3.981949,0)">
    <title
       id="title236">text:Feather M0</title>
    <g
       transform="translate(86.1199,39.96)"
       id="g4669">
      <g
         id="g4667">
        <g
           id="g4665">
          <g
             id="g238"
             gorn="0.45.1.0.0.0">
            <g
               transform="rotate(-90)"
               id="g4662">
              <g
                 id="g4660">
                <g
                   id="g4658">
                  <g
                     id="g240"
                     gorn="0.45.1.0.0.0.0.0.0.0">
                    <text
                       style="font-size:3.34080005px;font-family:OCRA;text-anchor:middle;fill:#ffffff;stroke:none;stroke-width:0"
                       font-size="3.3408"
                       x="0"
                       id="text242"
                       y="0"
                       gorn="0.45.1.0.0.0.0.0.0.0.0">Feather M0</text>
                  </g>
                </g>
              </g>
            </g>
          </g>
        </g>
      </g>
    </g>
  </g>
  <g
     id="g254"
     gorn="0.47"
     transform="matrix(3.1565693,0,0,3.1565693,-3.981949,0)">
    <title
       id="title256">text:adafruit!</title>
    <text
       style="font-size:3.34080005px;font-family:OCRA;text-anchor:middle;fill:#ffffff;stroke:none;stroke-width:0"
       font-size="3.3408"
       x="78.689499"
       id="text258"
       y="14.9904"
       gorn="0.47.1">adafruit!</text>
  </g>
  <g
     id="g400"
     gorn="0.61"
     transform="matrix(3.1565693,0,0,3.1565693,-3.981949,0)">
    <title
       id="title402">element:JP1</title>
    <g
       id="g404"
       gorn="0.61.1">
      <title
         id="title406">package:1X16_ROUND</title>
    </g>
  </g>
  <g
     id="g408"
     gorn="0.62"
     transform="matrix(3.1565693,0,0,3.1565693,-3.981949,0)">
    <title
       id="title410">element:JP3</title>
    <g
       id="g412"
       gorn="0.62.1">
      <title
         id="title414">package:1X12_ROUND</title>
    </g>
  </g>
  <g
     id="g558"
     gorn="0.73"
     transform="matrix(3.1565693,0,0,3.1565693,-3.981949,0)">
    <title
       id="title560">element:TP1</title>
    <g
       id="g562"
       gorn="0.73.1">
      <title
         id="title564">package:TESTPOINT_ROUND_1.5MM</title>
    </g>
  </g>
  <g
     id="g566"
     gorn="0.74"
     transform="matrix(3.1565693,0,0,3.1565693,-3.981949,0)">
    <title
       id="title568">element:TP2</title>
    <g
       id="g570"
       gorn="0.74.1">
      <title
         id="title572">package:TESTPOINT_ROUND_1.5MM</title>
    </g>
  </g>
  <g
     id="g574"
     gorn="0.75"
     transform="matrix(3.1565693,0,0,3.1565693,-3.981949,0)">
    <title
       id="title576">element:U$4</title>
    <g
       id="g578"
       gorn="0.75.1">
      <title
         id="title580">package:TQFN48_7MM</title>
      <line
         style="stroke:#ffffff;stroke-width:0.36000001;stroke-linecap:round"
         x2="59.485001"
         y2="27.2353"
         x1="61.044102"
         y1="27.2353"
         id="line582"
         gorn="0.75.1.1" />
      <line
         style="stroke:#ffffff;stroke-width:0.36000001;stroke-linecap:round"
         x2="59.485001"
         y2="28.7943"
         x1="59.485001"
         y1="27.2353"
         id="line584"
         gorn="0.75.1.2" />
      <line
         style="stroke:#ffffff;stroke-width:0.36000001;stroke-linecap:round"
         x2="79.894798"
         y2="27.2353"
         x1="78.335297"
         y1="27.2353"
         id="line586"
         gorn="0.75.1.3" />
      <line
         style="stroke:#ffffff;stroke-width:0.36000001;stroke-linecap:round"
         x2="79.894798"
         y2="28.7943"
         x1="79.894798"
         y1="27.2353"
         id="line588"
         gorn="0.75.1.4" />
      <line
         style="stroke:#ffffff;stroke-width:0.36000001;stroke-linecap:round"
         x2="59.485001"
         y2="47.644699"
         x1="59.485001"
         y1="46.085701"
         id="line590"
         gorn="0.75.1.5" />
      <line
         style="stroke:#ffffff;stroke-width:0.36000001;stroke-linecap:round"
         x2="61.044102"
         y2="47.644699"
         x1="59.485001"
         y1="47.644699"
         id="line592"
         gorn="0.75.1.6" />
      <line
         style="stroke:#ffffff;stroke-width:0.36000001;stroke-linecap:round"
         x2="79.894798"
         y2="47.644699"
         x1="79.894798"
         y1="46.085701"
         id="line594"
         gorn="0.75.1.7" />
      <line
         style="stroke:#ffffff;stroke-width:0.36000001;stroke-linecap:round"
         x2="78.335297"
         y2="47.644699"
         x1="79.894798"
         y1="47.644699"
         id="line596"
         gorn="0.75.1.8" />
      <circle
         cx="58.696999"
         r="0.36000001"
         style="fill:none;stroke:#ffffff;stroke-width:1.15199995"
         id="circle598"
         cy="48.5858"
         gorn="0.75.1.9" />
    </g>
  </g>
  <g
     id="g600"
     gorn="0.76"
     transform="matrix(3.1565693,0,0,3.1565693,-3.981949,0)">
    <title
       id="title602">element:U$7</title>
    <g
       id="g604"
       gorn="0.76.1">
      <title
         id="title606">package:ADAFRUIT_3.5MM</title>
    </g>
  </g>
  <g
     id="g608"
     gorn="0.77"
     transform="matrix(3.1565693,0,0,3.1565693,-3.981949,0)">
    <title
       id="title610">element:U$9</title>
    <g
       id="g612"
       gorn="0.77.1">
      <title
         id="title614">package:FEATHERLOGO</title>
    </g>
  </g>
  <g
     id="g616"
     gorn="0.78"
     transform="matrix(3.1565693,0,0,3.1565693,-3.981949,0)">
    <title
       id="title618">element:U$12</title>
    <g
       id="g620"
       gorn="0.78.1">
      <title
         id="title622">package:ADAFRUIT_3.5MM</title>
    </g>
  </g>
  <g
     id="g624"
     gorn="0.79"
     transform="matrix(3.1565693,0,0,3.1565693,-3.981949,0)">
    <title
       id="title626">element:U$13</title>
    <g
       id="g628"
       gorn="0.79.1">
      <title
         id="title630">package:PCBFEAT-REV-040</title>
    </g>
  </g>
  <g
     id="g632"
     gorn="0.80"
     transform="matrix(3.1565693,0,0,3.1565693,-3.981949,0)">
    <title
       id="title634">element:U$31</title>
    <g
       id="g636"
       gorn="0.80.1">
      <title
         id="title638">package:MOUNTINGHOLE_2.5_PLATED</title>
      <circle
         cx="8.4897404"
         r="5.6692901"
         style="fill:none;stroke:#ffffff;stroke-width:0.57599998"
         id="circle640"
         cy="7.1999998"
         gorn="0.80.1.1" />
    </g>
  </g>
  <g
     id="g652"
     gorn="0.82"
     transform="matrix(3.1565693,0,0,3.1565693,-3.981949,0)">
    <title
       id="title654">element:U$34</title>
    <g
       id="g656"
       gorn="0.82.1">
      <title
         id="title658">package:FIDUCIAL_1MM</title>
    </g>
  </g>
  <g
     id="g660"
     gorn="0.83"
     transform="matrix(3.1565693,0,0,3.1565693,-3.981949,0)">
    <title
       id="title662">element:U$35</title>
    <g
       id="g664"
       gorn="0.83.1">
      <title
         id="title666">package:FIDUCIAL_1MM</title>
    </g>
  </g>
  <g
     transform="matrix(0,-3.1565693,3.1565693,0,42.116907,344.65001)"
     id="g5323">
    <g
       id="g5321">
      <g
         id="g5319">
        <g
           id="g948"
           gorn="0.168.0.0.0">
          <rect
             style="fill:#9a916c;stroke:none;stroke-width:0"
             height="0.70866102"
             width="2.1259899"
             x="60.831501"
             id="connector74pin"
             y="46.9361"
             gorn="0.168.0.0.0.0" />
        </g>
      </g>
    </g>
  </g>
  <g
     transform="matrix(0,-3.1565693,3.1565693,0,46.590713,349.12287)"
     id="g5331">
    <g
       id="g5329">
      <g
         id="g5327">
        <g
           id="g951"
           gorn="0.169.0.0.0">
          <rect
             style="fill:#9a916c;stroke:none;stroke-width:0"
             height="0.70866102"
             width="2.1259899"
             x="62.248798"
             id="connector75pin"
             y="46.9361"
             gorn="0.169.0.0.0.0" />
        </g>
      </g>
    </g>
  </g>
  <g
     transform="matrix(0,-3.1565693,3.1565693,0,51.064834,353.59889)"
     id="g5339">
    <g
       id="g5337">
      <g
         id="g5335">
        <g
           id="g954"
           gorn="0.170.0.0.0">
          <rect
             style="fill:#9a916c;stroke:none;stroke-width:0"
             height="0.70866102"
             width="2.1259899"
             x="63.6661"
             id="connector76pin"
             y="46.9361"
             gorn="0.170.0.0.0.0" />
        </g>
      </g>
    </g>
  </g>
  <g
     transform="matrix(0,-3.1565693,3.1565693,0,55.53864,358.07175)"
     id="g5347">
    <g
       id="g5345">
      <g
         id="g5343">
        <g
           id="g957"
           gorn="0.171.0.0.0">
          <rect
             style="fill:#9a916c;stroke:none;stroke-width:0"
             height="0.70866102"
             width="2.1259899"
             x="65.083504"
             id="connector77pin"
             y="46.9361"
             gorn="0.171.0.0.0.0" />
        </g>
      </g>
    </g>
  </g>
  <g
     transform="matrix(0,-3.1565693,3.1565693,0,60.012446,362.54461)"
     id="g5355">
    <g
       id="g5353">
      <g
         id="g5351">
        <g
           id="g960"
           gorn="0.172.0.0.0">
          <rect
             style="fill:#9a916c;stroke:none;stroke-width:0"
             height="0.70866102"
             width="2.1259899"
             x="66.500801"
             id="connector78pin"
             y="46.9361"
             gorn="0.172.0.0.0.0" />
        </g>
      </g>
    </g>
  </g>
  <g
     transform="matrix(0,-3.1565693,3.1565693,0,64.486251,367.01746)"
     id="g5363">
    <g
       id="g5361">
      <g
         id="g5359">
        <g
           id="g963"
           gorn="0.173.0.0.0">
          <rect
             style="fill:#9a916c;stroke:none;stroke-width:0"
             height="0.70866102"
             width="2.1259899"
             x="67.918098"
             id="connector79pin"
             y="46.9361"
             gorn="0.173.0.0.0.0" />
        </g>
      </g>
    </g>
  </g>
  <g
     transform="matrix(0,-3.1565693,3.1565693,0,68.960057,371.49348)"
     id="g5371">
    <g
       id="g5369">
      <g
         id="g5367">
        <g
           id="g966"
           gorn="0.174.0.0.0">
          <rect
             style="fill:#9a916c;stroke:none;stroke-width:0"
             height="0.70866102"
             width="2.1259899"
             x="69.335403"
             id="connector80pin"
             y="46.9361"
             gorn="0.174.0.0.0.0" />
        </g>
      </g>
    </g>
  </g>
  <g
     transform="matrix(0,-3.1565693,3.1565693,0,73.434178,375.96634)"
     id="g5379">
    <g
       id="g5377">
      <g
         id="g5375">
        <g
           id="g969"
           gorn="0.175.0.0.0">
          <rect
             style="fill:#9a916c;stroke:none;stroke-width:0"
             height="0.70866102"
             width="2.1259899"
             x="70.752701"
             id="connector81pin"
             y="46.9361"
             gorn="0.175.0.0.0.0" />
        </g>
      </g>
    </g>
  </g>
  <g
     transform="matrix(0,-3.1565693,3.1565693,0,77.907984,380.44235)"
     id="g5387">
    <g
       id="g5385">
      <g
         id="g5383">
        <g
           id="g972"
           gorn="0.176.0.0.0">
          <rect
             style="fill:#9a916c;stroke:none;stroke-width:0"
             height="0.70866102"
             width="2.1259899"
             x="72.169899"
             id="connector82pin"
             y="46.9361"
             gorn="0.176.0.0.0.0" />
        </g>
      </g>
    </g>
  </g>
  <g
     transform="matrix(0,-3.1565693,3.1565693,0,82.381789,384.91521)"
     id="g5395">
    <g
       id="g5393">
      <g
         id="g5391">
        <g
           id="g975"
           gorn="0.177.0.0.0">
          <rect
             style="fill:#9a916c;stroke:none;stroke-width:0"
             height="0.70866102"
             width="2.1259899"
             x="73.587601"
             id="connector83pin"
             y="46.9361"
             gorn="0.177.0.0.0.0" />
        </g>
      </g>
    </g>
  </g>
  <g
     transform="matrix(0,-3.1565693,3.1565693,0,86.855595,389.38807)"
     id="g5403">
    <g
       id="g5401">
      <g
         id="g5399">
        <g
           id="g978"
           gorn="0.178.0.0.0">
          <rect
             style="fill:#9a916c;stroke:none;stroke-width:0"
             height="0.70866102"
             width="2.1259899"
             x="75.004601"
             id="connector84pin"
             y="46.9361"
             gorn="0.178.0.0.0.0" />
        </g>
      </g>
    </g>
  </g>
  <g
     transform="matrix(0,-3.1565693,3.1565693,0,91.329401,393.86093)"
     id="g5411">
    <g
       id="g5409">
      <g
         id="g5407">
        <g
           id="g981"
           gorn="0.179.0.0.0">
          <rect
             style="fill:#9a916c;stroke:none;stroke-width:0"
             height="0.70866102"
             width="2.1259899"
             x="76.422203"
             id="connector85pin"
             y="46.9361"
             gorn="0.179.0.0.0.0" />
        </g>
      </g>
    </g>
  </g>
  <g
     transform="matrix(-3.1565693,0,0,-3.1565693,498.1651,285.57766)"
     id="g5419">
    <g
       id="g5417">
      <g
         id="g5415">
        <g
           id="g984"
           gorn="0.180.0.0.0">
          <rect
             style="fill:#9a916c;stroke:none;stroke-width:0"
             height="0.70866102"
             width="2.1259899"
             x="78.477097"
             id="connector86pin"
             y="44.880901"
             gorn="0.180.0.0.0.0" />
        </g>
      </g>
    </g>
  </g>
  <g
     transform="matrix(-3.1565693,0,0,-3.1565693,498.1651,276.62974)"
     id="g5427">
    <g
       id="g5425">
      <g
         id="g5423">
        <g
           id="g987"
           gorn="0.181.0.0.0">
          <rect
             style="fill:#9a916c;stroke:none;stroke-width:0"
             height="0.70866102"
             width="2.1259899"
             x="78.477097"
             id="connector87pin"
             y="43.4636"
             gorn="0.181.0.0.0.0" />
        </g>
      </g>
    </g>
  </g>
  <g
     transform="matrix(-3.1565693,0,0,-3.1565693,498.1651,267.68213)"
     id="g5435">
    <g
       id="g5433">
      <g
         id="g5431">
        <g
           id="g990"
           gorn="0.182.0.0.0">
          <rect
             style="fill:#9a916c;stroke:none;stroke-width:0"
             height="0.70866102"
             width="2.1259899"
             x="78.477097"
             id="connector88pin"
             y="42.046299"
             gorn="0.182.0.0.0.0" />
        </g>
      </g>
    </g>
  </g>
  <g
     transform="matrix(-3.1565693,0,0,-3.1565693,498.1651,258.73451)"
     id="g5443">
    <g
       id="g5441">
      <g
         id="g5439">
        <g
           id="g993"
           gorn="0.183.0.0.0">
          <rect
             style="fill:#9a916c;stroke:none;stroke-width:0"
             height="0.70866102"
             width="2.1259899"
             x="78.477097"
             id="connector89pin"
             y="40.629002"
             gorn="0.183.0.0.0.0" />
        </g>
      </g>
    </g>
  </g>
  <g
     transform="matrix(-3.1565693,0,0,-3.1565693,498.1651,249.78659)"
     id="g5451">
    <g
       id="g5449">
      <g
         id="g5447">
        <g
           id="g996"
           gorn="0.184.0.0.0">
          <rect
             style="fill:#9a916c;stroke:none;stroke-width:0"
             height="0.70866102"
             width="2.1259899"
             x="78.477097"
             id="connector90pin"
             y="39.211601"
             gorn="0.184.0.0.0.0" />
        </g>
      </g>
    </g>
  </g>
  <g
     transform="matrix(-3.1565693,0,0,-3.1565693,498.1651,240.83898)"
     id="g5459">
    <g
       id="g5457">
      <g
         id="g5455">
        <g
           id="g999"
           gorn="0.185.0.0.0">
          <rect
             style="fill:#9a916c;stroke:none;stroke-width:0"
             height="0.70866102"
             width="2.1259899"
             x="78.477097"
             id="connector91pin"
             y="37.7943"
             gorn="0.185.0.0.0.0" />
        </g>
      </g>
    </g>
  </g>
  <g
     transform="matrix(-3.1565693,0,0,-3.1565693,498.1651,231.88884)"
     id="g5467">
    <g
       id="g5465">
      <g
         id="g5463">
        <g
           id="g1002"
           gorn="0.186.0.0.0">
          <rect
             style="fill:#9a916c;stroke:none;stroke-width:0"
             height="0.70866102"
             width="2.1259899"
             x="78.477097"
             id="connector92pin"
             y="36.376999"
             gorn="0.186.0.0.0.0" />
        </g>
      </g>
    </g>
  </g>
  <g
     transform="matrix(-3.1565693,0,0,-3.1565693,498.1651,222.94218)"
     id="g5475">
    <g
       id="g5473">
      <g
         id="g5471">
        <g
           id="g1005"
           gorn="0.187.0.0.0">
          <rect
             style="fill:#9a916c;stroke:none;stroke-width:0"
             height="0.70866102"
             width="2.1259899"
             x="78.477097"
             id="connector93pin"
             y="34.959702"
             gorn="0.187.0.0.0.0" />
        </g>
      </g>
    </g>
  </g>
  <g
     transform="matrix(-3.1565693,0,0,-3.1565693,498.1651,213.99456)"
     id="g5483">
    <g
       id="g5481">
      <g
         id="g5479">
        <g
           id="g1008"
           gorn="0.188.0.0.0">
          <rect
             style="fill:#9a916c;stroke:none;stroke-width:0"
             height="0.70866102"
             width="2.1259899"
             x="78.477097"
             id="connector94pin"
             y="33.5424"
             gorn="0.188.0.0.0.0" />
        </g>
      </g>
    </g>
  </g>
  <g
     transform="matrix(-3.1565693,0,0,-3.1565693,498.1651,205.04695)"
     id="g5491">
    <g
       id="g5489">
      <g
         id="g5487">
        <g
           id="g1011"
           gorn="0.189.0.0.0">
          <rect
             style="fill:#9a916c;stroke:none;stroke-width:0"
             height="0.70866102"
             width="2.1259899"
             x="78.477097"
             id="connector95pin"
             y="32.125"
             gorn="0.189.0.0.0.0" />
        </g>
      </g>
    </g>
  </g>
  <g
     transform="matrix(-3.1565693,0,0,-3.1565693,498.1651,196.09903)"
     id="g5499">
    <g
       id="g5497">
      <g
         id="g5495">
        <g
           id="g1014"
           gorn="0.190.0.0.0">
          <rect
             style="fill:#9a916c;stroke:none;stroke-width:0"
             height="0.70866102"
             width="2.1259899"
             x="78.477097"
             id="connector96pin"
             y="30.707701"
             gorn="0.190.0.0.0.0" />
        </g>
      </g>
    </g>
  </g>
  <g
     transform="matrix(-3.1565693,0,0,-3.1565693,498.1651,187.15142)"
     id="g5507">
    <g
       id="g5505">
      <g
         id="g5503">
        <g
           id="g1017"
           gorn="0.191.0.0.0">
          <rect
             style="fill:#9a916c;stroke:none;stroke-width:0"
             height="0.70866102"
             width="2.1259899"
             x="78.477097"
             id="connector97pin"
             y="29.2904"
             gorn="0.191.0.0.0.0" />
        </g>
      </g>
    </g>
  </g>
  <g
     transform="matrix(0,3.1565693,-3.1565693,0,327.69457,-157.49829)"
     id="g5515">
    <g
       id="g5513">
      <g
         id="g5511">
        <g
           id="g1020"
           gorn="0.192.0.0.0">
          <rect
             style="fill:#9a916c;stroke:none;stroke-width:0"
             height="0.70866102"
             width="2.1259899"
             x="76.422203"
             id="connector98pin"
             y="27.2353"
             gorn="0.192.0.0.0.0" />
        </g>
      </g>
    </g>
  </g>
  <g
     transform="matrix(0,3.1565693,-3.1565693,0,323.22171,-153.02448)"
     id="g5523">
    <g
       id="g5521">
      <g
         id="g5519">
        <g
           id="g1023"
           gorn="0.193.0.0.0">
          <rect
             style="fill:#9a916c;stroke:none;stroke-width:0"
             height="0.70866102"
             width="2.1259899"
             x="75.004601"
             id="connector99pin"
             y="27.2353"
             gorn="0.193.0.0.0.0" />
        </g>
      </g>
    </g>
  </g>
  <g
     transform="matrix(0,3.1565693,-3.1565693,0,318.7457,-148.55068)"
     id="g5531">
    <g
       id="g5529">
      <g
         id="g5527">
        <g
           id="g1026"
           gorn="0.194.0.0.0">
          <rect
             style="fill:#9a916c;stroke:none;stroke-width:0"
             height="0.70866102"
             width="2.1259899"
             x="73.587601"
             id="connector100pin"
             y="27.2353"
             gorn="0.194.0.0.0.0" />
        </g>
      </g>
    </g>
  </g>
  <g
     transform="matrix(0,3.1565693,-3.1565693,0,314.26968,-144.07687)"
     id="g5539">
    <g
       id="g5537">
      <g
         id="g5535">
        <g
           id="g1029"
           gorn="0.195.0.0.0">
          <rect
             style="fill:#9a916c;stroke:none;stroke-width:0"
             height="0.70866102"
             width="2.1259899"
             x="72.169899"
             id="connector101pin"
             y="27.2353"
             gorn="0.195.0.0.0.0" />
        </g>
      </g>
    </g>
  </g>
  <g
     transform="matrix(0,3.1565693,-3.1565693,0,309.79808,-139.60275)"
     id="g5547">
    <g
       id="g5545">
      <g
         id="g5543">
        <g
           id="g1032"
           gorn="0.196.0.0.0">
          <rect
             style="fill:#9a916c;stroke:none;stroke-width:0"
             height="0.70866102"
             width="2.1259899"
             x="70.752701"
             id="connector102pin"
             y="27.2353"
             gorn="0.196.0.0.0.0" />
        </g>
      </g>
    </g>
  </g>
  <g
     transform="matrix(0,3.1565693,-3.1565693,0,305.32302,-135.12894)"
     id="g5555">
    <g
       id="g5553">
      <g
         id="g5551">
        <g
           id="g1035"
           gorn="0.197.0.0.0">
          <rect
             style="fill:#9a916c;stroke:none;stroke-width:0"
             height="0.70866102"
             width="2.1259899"
             x="69.335403"
             id="connector103pin"
             y="27.2353"
             gorn="0.197.0.0.0.0" />
        </g>
      </g>
    </g>
  </g>
  <g
     transform="matrix(0,3.1565693,-3.1565693,0,300.85016,-130.65514)"
     id="g5563">
    <g
       id="g5561">
      <g
         id="g5559">
        <g
           id="g1038"
           gorn="0.198.0.0.0">
          <rect
             style="fill:#9a916c;stroke:none;stroke-width:0"
             height="0.70866102"
             width="2.1259899"
             x="67.918098"
             id="connector104pin"
             y="27.2353"
             gorn="0.198.0.0.0.0" />
        </g>
      </g>
    </g>
  </g>
  <g
     transform="matrix(0,3.1565693,-3.1565693,0,296.37509,-126.18133)"
     id="g5571">
    <g
       id="g5569">
      <g
         id="g5567">
        <g
           id="g1041"
           gorn="0.199.0.0.0">
          <rect
             style="fill:#9a916c;stroke:none;stroke-width:0"
             height="0.70866102"
             width="2.1259899"
             x="66.500801"
             id="connector105pin"
             y="27.2353"
             gorn="0.199.0.0.0.0" />
        </g>
      </g>
    </g>
  </g>
  <g
     transform="matrix(0,3.1565693,-3.1565693,0,291.90255,-121.70753)"
     id="g5579">
    <g
       id="g5577">
      <g
         id="g5575">
        <g
           id="g1044"
           gorn="0.200.0.0.0">
          <rect
             style="fill:#9a916c;stroke:none;stroke-width:0"
             height="0.70866102"
             width="2.1259899"
             x="65.083504"
             id="connector106pin"
             y="27.2353"
             gorn="0.200.0.0.0.0" />
        </g>
      </g>
    </g>
  </g>
  <g
     transform="matrix(0,3.1565693,-3.1565693,0,287.42748,-117.23341)"
     id="g5587">
    <g
       id="g5585">
      <g
         id="g5583">
        <g
           id="g1047"
           gorn="0.201.0.0.0">
          <rect
             style="fill:#9a916c;stroke:none;stroke-width:0"
             height="0.70866102"
             width="2.1259899"
             x="63.6661"
             id="connector107pin"
             y="27.2353"
             gorn="0.201.0.0.0.0" />
        </g>
      </g>
    </g>
  </g>
  <g
     transform="matrix(0,3.1565693,-3.1565693,0,282.95462,-112.7596)"
     id="g5595">
    <g
       id="g5593">
      <g
         id="g5591">
        <g
           id="g1050"
           gorn="0.202.0.0.0">
          <rect
             style="fill:#9a916c;stroke:none;stroke-width:0"
             height="0.70866102"
             width="2.1259899"
             x="62.248798"
             id="connector108pin"
             y="27.2353"
             gorn="0.202.0.0.0.0" />
        </g>
      </g>
    </g>
  </g>
  <g
     transform="matrix(0,3.1565693,-3.1565693,0,278.47987,-108.28579)"
     id="g5603">
    <g
       id="g5601">
      <g
         id="g5599">
        <g
           id="g1053"
           gorn="0.203.0.0.0">
          <rect
             style="fill:#9a916c;stroke:none;stroke-width:0"
             height="0.70866102"
             width="2.1259899"
             x="60.831501"
             id="connector109pin"
             y="27.2353"
             gorn="0.203.0.0.0.0" />
        </g>
      </g>
    </g>
  </g>
  <rect
     style="fill:#9a916c;stroke:none;stroke-width:0"
     height="2.2369375"
     width="6.7108345"
     x="181.54984"
     id="connector110pin"
     y="92.457176"
     gorn="0.204" />
  <rect
     style="fill:#9a916c;stroke:none;stroke-width:0"
     height="2.2369375"
     width="6.7108345"
     x="181.54984"
     id="connector111pin"
     y="96.930984"
     gorn="0.205" />
  <rect
     style="fill:#9a916c;stroke:none;stroke-width:0"
     height="2.2369375"
     width="6.7108345"
     x="181.54984"
     id="connector112pin"
     y="101.40479"
     gorn="0.206" />
  <rect
     style="fill:#9a916c;stroke:none;stroke-width:0"
     height="2.2369375"
     width="6.7108345"
     x="181.54984"
     id="connector113pin"
     y="105.87891"
     gorn="0.207" />
  <rect
     style="fill:#9a916c;stroke:none;stroke-width:0"
     height="2.2369375"
     width="6.7108345"
     x="181.54984"
     id="connector114pin"
     y="110.35272"
     gorn="0.208" />
  <rect
     style="fill:#9a916c;stroke:none;stroke-width:0"
     height="2.2369375"
     width="6.7108345"
     x="181.54984"
     id="connector115pin"
     y="114.82652"
     gorn="0.209" />
  <rect
     style="fill:#9a916c;stroke:none;stroke-width:0"
     height="2.2369375"
     width="6.7108345"
     x="181.54984"
     id="connector116pin"
     y="119.30033"
     gorn="0.210" />
  <rect
     style="fill:#9a916c;stroke:none;stroke-width:0"
     height="2.2369375"
     width="6.7108345"
     x="181.54984"
     id="connector117pin"
     y="123.77414"
     gorn="0.211" />
  <rect
     style="fill:#9a916c;stroke:none;stroke-width:0"
     height="2.2369375"
     width="6.7108345"
     x="181.54984"
     id="connector118pin"
     y="128.24826"
     gorn="0.212" />
  <rect
     style="fill:#9a916c;stroke:none;stroke-width:0"
     height="2.2369375"
     width="6.7108345"
     x="181.54984"
     id="connector119pin"
     y="132.72206"
     gorn="0.213" />
  <rect
     style="fill:#9a916c;stroke:none;stroke-width:0"
     height="2.2369375"
     width="6.7108345"
     x="181.54984"
     id="connector120pin"
     y="137.19586"
     gorn="0.214" />
  <rect
     style="fill:#9a916c;stroke:none;stroke-width:0"
     height="2.2369375"
     width="6.7108345"
     x="181.54984"
     id="connector121pin"
     y="141.66968"
     gorn="0.215" />
  <rect
     style="fill:#9a916c;stroke:none;stroke-width:0"
     height="42.05434"
     width="42.05434"
     x="194.97156"
     id="connector122pin"
     y="97.154785"
     gorn="0.216" />
  <g
     transform="matrix(3.1565693,0,0,3.1565693,182.04131,86.97548)"
     id="g6216">
    <g
       id="g6214">
      <g
         id="g6212">
        <g
           id="tqfn48_7mm"
           gorn="0.315.0.0.0">
          <rect
             style="fill:#333333"
             x="0.802001"
             width="19.843"
             height="19.843"
             id="rect1376"
             y="0"
             gorn="0.315.0.0.0.0" />
        </g>
      </g>
    </g>
  </g>
  <g
     transform="matrix(3.1565693,0,0,3.1565693,202.83584,49.341914)"
     id="g6224">
    <g
       id="g6222">
      <g
         id="g6220">
        <g
           id="adafruit_3.5mm"
           gorn="0.316.0.0.0">
          <path
             style="fill:#dcdcdc"
             id="path1379"
             d="M 9.77299,4.306 C 9.74099,4.106 9.63199,4.049 9.36999,3.965 9.171,3.901 7.83698,3.476 7.83698,3.476 c 0,0 -0.930002,-0.351 -1.619,0.146 C 6.125,3.688 6.029,3.765 5.932,3.846 6.014,3.749 6.09,3.653 6.156,3.56 6.651,2.87 6.299,1.941 6.299,1.941 6.299,1.941 5.872,0.607 5.807,0.408 5.7219997,0.146 5.665,0.038 5.465,0.006 5.265,-0.026 5.177,0.06 5.016,0.283 4.894,0.453 4.077,1.59 4.077,1.59 c 0,0 -0.621,0.777 -0.361,1.586 C 3.75,3.285 3.793,3.4 3.841,3.517 3.774,3.409 3.706,3.308 3.638,3.215 3.135,2.531 2.142,2.579 2.142,2.579 c 0,0 -1.4,-0.006 -1.61,-0.006 C 0.257,2.572 0.136,2.593 0.044,2.774 -0.047,2.955 0.007,3.065 0.17,3.287 c 0.124,0.169 0.952999,1.297 0.952999,1.297 0,0 0.546,0.830002 1.395,0.833998 0.114,0 0.236,-0.005 0.362,-0.014 -0.122,0.03 -0.24,0.064 -0.348,0.1 C 1.726,5.771 1.465,6.73 1.465,6.73 c 0,0 -0.438,1.32997 -0.503001,1.52898 -0.085997,0.261 -0.102996,0.38304 0.040001,0.52603 0.144,0.143 0.265,0.126 0.526,0.04 0.199,-0.06499 1.528,-0.50599 1.528,-0.50599 0,0 0.958003,-0.263 1.224,-1.07 0.036,-0.108 0.069,-0.225 0.1,-0.348 C 4.371,7.027 4.366,7.149 4.367,7.263 c 0.005,0.849002 0.835999,1.394 0.835999,1.394 0,0 1.13,0.826999 1.298,0.950998 C 6.724,9.76997 6.834,9.82397 7.015,9.73202 c 0.181,-0.092 0.201,-0.213 0.2,-0.488 -10e-4,-0.21 -0.009,-1.61 -0.009,-1.61 0,0 0.047,-0.993002 -0.639,-1.495 C 6.475,6.072 6.373,6.004 6.266,5.937 6.383,5.984 6.498,6.027 6.606,6.061 7.416,6.319 8.19,5.697 8.19,5.697 c 0,0 1.136,-0.819 1.306,-0.940997 C 9.71899,4.595 9.80503,4.507 9.77299,4.306 Z M 4.951,3.275 C 5.103,3.299 5.179,3.624 5.12,4.001 5.061,4.378 4.889,4.663 4.736,4.639 4.583,4.615 4.507,4.29 4.567,3.914 4.626,3.537 4.798,3.251 4.951,3.275 Z M 2.995,4.274 C 3.065,4.136 3.397,4.164 3.737003,4.337 4.077,4.51 4.295,4.762 4.225,4.9 4.155,5.038 3.823,5.01 3.483,4.837 3.143,4.664 2.925,4.412 2.995,4.274 Z M 4.026,6.152 C 3.757,6.422 3.449,6.552 3.34,6.443 3.231,6.334 3.36,6.027 3.63,5.757 3.899,5.487 4.206,5.357 4.316,5.466 4.425,5.575 4.295,5.882 4.026,6.152 Z M 5.51,6.785 C 5.372,6.855 5.12,6.637 4.947,6.298 4.773,5.958 4.744,5.625 4.882,5.555003 c 0.138,-0.069997 0.39,0.148 0.563,0.487 C 5.618,6.382 5.647,6.714 5.51,6.785 Z M 5.867,5.212 C 5.49,5.272 5.166,5.197 5.141,5.044 5.117,4.891 5.403,4.719 5.779,4.659 6.156,4.599 6.48,4.674 6.504998,4.827 6.529,4.98 6.244,5.152 5.867,5.212 Z"
             gorn="0.316.0.0.0.0"
             inkscape:connector-curvature="0" />
        </g>
      </g>
    </g>
  </g>
</svg>
