<svg xmlns="http://www.w3.org/2000/svg" id="svg2" y="0" width="208.299" viewBox="0 0 208.299 118.42" x="0" height="118.42" version="1.2">
  <path d="M197.366 118.42H17.762l-5.92-5.92V86.84L0 75V19.737L13.816 5.92V0h183.55a9.868 9.868 0 019.869 9.868V37.5l-2.96 2.96v37.5l2.96 2.96v27.632a9.868 9.868 0 01-9.869 9.868m-23.684-46.777a2.72 2.72 0 100 5.439 2.72 2.72 0 100-5.44zm0-30.305a2.72 2.72 0 100 5.44 2.72 2.72 0 100-5.44zM156.906 3.295a8.547 8.547 0 000 17.094 8.547 8.547 0 100-17.094zm0 94.736a8.547 8.547 0 000 17.095 8.547 8.547 0 100-17.095zm9.783-16.287a3.108 3.108 0 100 6.216 3.108 3.108 0 100-6.216zm0-51.284a3.108 3.108 0 000 6.216 3.108 3.108 0 100-6.216zm21.757 53.227a3.497 3.497 0 100 6.993 3.497 3.497 0 100-6.993zm0-55.947a3.497 3.497 0 000 6.994 3.497 3.497 0 100-6.994zm-50.29-21.56a3.885 3.885 0 000 7.77 3.885 3.885 0 100-7.77zm-19.736 0a3.885 3.885 0 000 7.77 3.885 3.885 0 100-7.77zm-19.737 0a3.885 3.885 0 000 7.77 3.885 3.885 0 100-7.77zm-19.737 0a3.885 3.885 0 000 7.77 3.885 3.885 0 100-7.77zm-19.736 0a3.885 3.885 0 000 7.77 3.885 3.885 0 100-7.77zm0 98.487a3.885 3.885 0 100 7.77 3.885 3.885 0 100-7.77zm19.736 0a3.885 3.885 0 100 7.77 3.885 3.885 0 100-7.77zm19.737 0a3.885 3.885 0 100 7.77 3.885 3.885 0 100-7.77zm19.737 0a3.885 3.885 0 100 7.77 3.885 3.885 0 100-7.77zm19.736 0a3.885 3.885 0 100 7.77 3.885 3.885 0 100-7.77zM29.604 6.255a8.547 8.547 0 100 17.095 8.547 8.547 0 100-17.095zm0 88.815a8.547 8.547 0 000 17.095 8.547 8.547 0 100-17.095z" id="path8" fill="#000" stroke="none" stroke-width="0"/>
  <g id="g62" transform="matrix(0 2.7412 -2.7412 0 211.757 0)">
    <g id="g66" stroke="#fff" stroke-width=".36" stroke-linecap="round">
      <path id="line70" d="M28.687 17.008h-2.268"/>
      <path id="line72" d="M16.781 17.008h-2.268"/>
      <path id="line74" d="M32.372 4.252V1.701"/>
      <path id="line76" d="M32.372 1.701H10.828"/>
      <path id="line78" d="M10.828 1.701v2.551"/>
    </g>
  </g>
  <g id="g124" transform="matrix(0 2.7412 -2.7412 0 211.757 0)">
    <g id="g128" stroke="#fff" stroke-width=".36" stroke-linecap="round">
      <path id="line132" d="M16.985 35.006v1.701"/>
      <path id="line134" d="M16.985 36.707h1.701"/>
      <path id="line136" d="M16.985 23.1v-1.701"/>
      <path id="line138" d="M16.985 21.399h1.701"/>
      <path id="line140" d="M30.591 36.707h1.701"/>
      <path id="line142" d="M32.292 36.707v-1.701"/>
      <path id="line144" d="M30.591 21.399h1.701"/>
      <path id="line146" d="M32.292 21.399V23.1"/>
    </g>
  </g>
  <g id="g164" transform="matrix(0 2.7412 -2.7412 0 211.757 0)">
    <g id="g168">
      <g id="g172">
        <path id="path176" d="M37.26 8.886l-.72-.9h1.44l-.72.9m.662-.828h-1.324 1.324" fill="none" stroke="#fff" stroke-width=".432" stroke-linecap="round"/>
      </g>
      <g transform="rotate(180 18.63 4.533)" id="g4576">
        <g id="g4574">
          <g id="g178">
            <path id="rect180" fill="#fff" stroke="none" stroke-width="0" d="M-1.08-.18h2.16v.36h-2.16z"/>
          </g>
        </g>
      </g>
    </g>
  </g>
  <g id="g206" transform="matrix(0 2.7412 -2.7412 0 211.757 0)">
    <g id="g210">
      <g id="g214">
        <path id="path218" d="M5.94 8.886l-.72-.9h1.44l-.72.9m.662-.828H5.278h1.324" fill="none" stroke="#fff" stroke-width=".432" stroke-linecap="round"/>
      </g>
      <g transform="rotate(180 2.97 4.533)" id="g4601">
        <g id="g4599">
          <g id="g220">
            <path id="rect222" fill="#fff" stroke="none" stroke-width="0" d="M-1.08-.18h2.16v.36h-2.16z"/>
          </g>
        </g>
      </g>
    </g>
  </g>
  <g id="g224" transform="matrix(0 2.7412 -2.7412 0 211.757 0)">
    <g id="g228" stroke="#fff" stroke-width=".576" stroke-linecap="round">
      <path id="line232" d="M13.127 63.94h11.906"/>
      <path id="line234" d="M25.033 72.588H13.127"/>
    </g>
  </g>
  <g id="g288" transform="matrix(0 2.7412 -2.7412 0 211.757 0)">
    <g id="g292">
      <circle cy="66.45" id="circle296" cx="5.4" r="5.102" fill="none" stroke="#fff" stroke-width=".576"/>
    </g>
  </g>
  <g id="g298" transform="matrix(0 2.7412 -2.7412 0 211.757 0)">
    <g id="g302">
      <circle cy="66.45" id="circle306" cx="37.8" r="5.102" fill="none" stroke="#fff" stroke-width=".576"/>
    </g>
  </g>
  <g id="g4779" transform="rotate(-90 60.753 47.129) scale(2.7412)">
    <g id="g4777">
      <g id="g403">
        <path id="connector23pin" fill="#9a916c" stroke="none" stroke-width="0" d="M19.323 35.006h.709v2.268h-.709z"/>
      </g>
    </g>
  </g>
  <g id="g4785" transform="rotate(-90 64.638 51.014) scale(2.7412)">
    <g id="g4783">
      <g id="g406">
        <path id="connector24pin" fill="#9a916c" stroke="none" stroke-width="0" d="M20.741 35.006h.709v2.268h-.709z"/>
      </g>
    </g>
  </g>
  <g id="g4791" transform="rotate(-90 68.523 54.899) scale(2.7412)">
    <g id="g4789">
      <g id="g409">
        <path id="connector25pin" fill="#9a916c" stroke="none" stroke-width="0" d="M22.158 35.006h.709v2.268h-.709z"/>
      </g>
    </g>
  </g>
  <g id="g4797" transform="rotate(-90 72.409 58.785) scale(2.7412)">
    <g id="g4795">
      <g id="g412">
        <path id="connector26pin" fill="#9a916c" stroke="none" stroke-width="0" d="M23.575 35.006h.709v2.268h-.709z"/>
      </g>
    </g>
  </g>
  <g id="g4803" transform="rotate(-90 76.293 62.67) scale(2.7412)">
    <g id="g4801">
      <g id="g415">
        <path id="connector27pin" fill="#9a916c" stroke="none" stroke-width="0" d="M24.993 35.006h.709v2.268h-.709z"/>
      </g>
    </g>
  </g>
  <g id="g4809" transform="rotate(-90 80.179 66.555) scale(2.7412)">
    <g id="g4807">
      <g id="g418">
        <path id="connector28pin" fill="#9a916c" stroke="none" stroke-width="0" d="M26.41 35.006h.709v2.268h-.709z"/>
      </g>
    </g>
  </g>
  <g id="g4815" transform="rotate(-90 84.064 70.44) scale(2.7412)">
    <g id="g4813">
      <g id="g421">
        <path id="connector29pin" fill="#9a916c" stroke="none" stroke-width="0" d="M27.827 35.006h.709v2.268h-.709z"/>
      </g>
    </g>
  </g>
  <g id="g4821" transform="rotate(-90 87.949 74.325) scale(2.7412)">
    <g id="g4819">
      <g id="g424">
        <path id="connector30pin" fill="#9a916c" stroke="none" stroke-width="0" d="M29.245 35.006h.709v2.268h-.709z"/>
      </g>
    </g>
  </g>
  <g id="g4827" transform="rotate(180 102.742 90.102) scale(2.7412)">
    <g id="g4825">
      <g id="g427">
        <path id="connector31pin" fill="#9a916c" stroke="none" stroke-width="0" d="M31.371 32.88h.709v2.268h-.709z"/>
      </g>
    </g>
  </g>
  <g id="g4833" transform="rotate(180 104.684 88.159) scale(2.7412)">
    <g id="g4831">
      <g id="g430">
        <path id="connector32pin" fill="#9a916c" stroke="none" stroke-width="0" d="M31.371 31.462h.709v2.268h-.709z"/>
      </g>
    </g>
  </g>
  <g id="g4839" transform="rotate(180 106.627 86.216) scale(2.7412)">
    <g id="g4837">
      <g id="g433">
        <path id="connector33pin" fill="#9a916c" stroke="none" stroke-width="0" d="M31.371 30.045h.709v2.268h-.709z"/>
      </g>
    </g>
  </g>
  <g id="g4845" transform="rotate(180 108.57 84.274) scale(2.7412)">
    <g id="g4843">
      <g id="g436">
        <path id="connector34pin" fill="#9a916c" stroke="none" stroke-width="0" d="M31.371 28.628h.709v2.268h-.709z"/>
      </g>
    </g>
  </g>
  <g id="g4851" transform="rotate(180 110.512 82.331) scale(2.7412)">
    <g id="g4849">
      <g id="g439">
        <path id="connector35pin" fill="#9a916c" stroke="none" stroke-width="0" d="M31.371 27.211h.709v2.268h-.709z"/>
      </g>
    </g>
  </g>
  <g id="g4857" transform="rotate(180 112.455 80.388) scale(2.7412)">
    <g id="g4855">
      <g id="g442">
        <path id="connector36pin" fill="#9a916c" stroke="none" stroke-width="0" d="M31.371 25.793h.709v2.268h-.709z"/>
      </g>
    </g>
  </g>
  <g id="g4863" transform="rotate(180 114.397 78.446) scale(2.7412)">
    <g id="g4861">
      <g id="g445">
        <path id="connector37pin" fill="#9a916c" stroke="none" stroke-width="0" d="M31.371 24.376h.709v2.268h-.709z"/>
      </g>
    </g>
  </g>
  <g id="g4869" transform="rotate(180 116.34 76.504) scale(2.7412)">
    <g id="g4867">
      <g id="g448">
        <path id="connector38pin" fill="#9a916c" stroke="none" stroke-width="0" d="M31.371 22.959h.709v2.268h-.709z"/>
      </g>
    </g>
  </g>
  <path id="connector39pin" transform="rotate(90)" fill="#9a916c" stroke="none" stroke-width="0" d="M80.166-154.651h1.943v6.216h-1.943z"/>
  <path id="connector40pin" transform="rotate(90)" fill="#9a916c" stroke="none" stroke-width="0" d="M76.281-154.651h1.943v6.216h-1.943z"/>
  <path id="connector41pin" transform="rotate(90)" fill="#9a916c" stroke="none" stroke-width="0" d="M72.395-154.651h1.943v6.216h-1.943z"/>
  <path id="connector42pin" transform="rotate(90)" fill="#9a916c" stroke="none" stroke-width="0" d="M68.51-154.651h1.943v6.216H68.51z"/>
  <path id="connector43pin" transform="rotate(90)" fill="#9a916c" stroke="none" stroke-width="0" d="M64.625-154.651h1.943v6.216h-1.943z"/>
  <path id="connector44pin" transform="rotate(90)" fill="#9a916c" stroke="none" stroke-width="0" d="M60.74-154.651h1.943v6.216H60.74z"/>
  <path id="connector45pin" transform="rotate(90)" fill="#9a916c" stroke="none" stroke-width="0" d="M56.855-154.651h1.943v6.216h-1.943z"/>
  <path id="connector46pin" transform="rotate(90)" fill="#9a916c" stroke="none" stroke-width="0" d="M52.969-154.651h1.943v6.216h-1.943z"/>
  <g id="g4883" transform="translate(97.602 -17.929) scale(2.7412)">
    <g id="g4881">
      <g id="g459">
        <path id="connector47pin" fill="#9a916c" stroke="none" stroke-width="0" d="M17.198 22.959h.709v2.268h-.709z"/>
      </g>
    </g>
  </g>
  <g id="g4889" transform="translate(93.716 -21.814) scale(2.7412)">
    <g id="g4887">
      <g id="g462">
        <path id="connector48pin" fill="#9a916c" stroke="none" stroke-width="0" d="M17.198 24.376h.709v2.268h-.709z"/>
      </g>
    </g>
  </g>
  <g id="g4895" transform="translate(89.831 -25.7) scale(2.7412)">
    <g id="g4893">
      <g id="g465">
        <path id="connector49pin" fill="#9a916c" stroke="none" stroke-width="0" d="M17.198 25.793h.709v2.268h-.709z"/>
      </g>
    </g>
  </g>
  <g id="g4901" transform="translate(85.946 -29.584) scale(2.7412)">
    <g id="g4899">
      <g id="g468">
        <path id="connector50pin" fill="#9a916c" stroke="none" stroke-width="0" d="M17.198 27.211h.709v2.268h-.709z"/>
      </g>
    </g>
  </g>
  <g id="g4907" transform="translate(82.061 -33.47) scale(2.7412)">
    <g id="g4905">
      <g id="g471">
        <path id="connector51pin" fill="#9a916c" stroke="none" stroke-width="0" d="M17.198 28.628h.709v2.268h-.709z"/>
      </g>
    </g>
  </g>
  <g id="g4913" transform="translate(78.176 -37.355) scale(2.7412)">
    <g id="g4911">
      <g id="g474">
        <path id="connector52pin" fill="#9a916c" stroke="none" stroke-width="0" d="M17.198 30.045h.709v2.268h-.709z"/>
      </g>
    </g>
  </g>
  <g id="g4919" transform="translate(74.29 -41.24) scale(2.7412)">
    <g id="g4917">
      <g id="g477">
        <path id="connector53pin" fill="#9a916c" stroke="none" stroke-width="0" d="M17.198 31.462h.709v2.268h-.709z"/>
      </g>
    </g>
  </g>
  <g id="g4925" transform="translate(70.405 -45.125) scale(2.7412)">
    <g id="g4923">
      <g id="g480">
        <path id="connector54pin" fill="#9a916c" stroke="none" stroke-width="0" d="M17.198 32.88h.709v2.268h-.709z"/>
      </g>
    </g>
  </g>
  <g id="g4931" transform="translate(64.578 -12.101) scale(2.7412)">
    <g id="g4929">
      <g id="g483">
        <rect ry=".496" rx=".496" height="9.921" x="19.678" width="9.921" y="24.092" id="connector55pin" fill="#9a916c" stroke="none" stroke-width="0"/>
      </g>
    </g>
  </g>
  <circle r="5.693" cx="10.066" id="VBAT" cy="-138.156" transform="rotate(90)" fill="none" stroke="#9a916c" stroke-width="3.615"/>
  <circle r="5.693" cx="10.066" id="GND" cy="-118.42" transform="rotate(90)" fill="none" stroke="#9a916c" stroke-width="3.615"/>
  <circle r="5.693" cx="10.066" id="A4_D4_TX_MOSI" cy="-98.683" transform="rotate(90)" fill="none" stroke="#9a916c" stroke-width="3.615"/>
  <circle r="5.693" cx="10.066" id="A3_D3_RX_SCK" cy="-78.946" transform="rotate(90)" fill="none" stroke="#9a916c" stroke-width="3.615"/>
  <circle r="5.693" cx="10.066" id="connector60pin" cy="-59.21" transform="rotate(90)" fill="none" stroke="#9a916c" stroke-width="3.615"/>
  <circle r="5.693" cx="108.552" id="3V3" cy="-59.21" transform="rotate(90)" fill="none" stroke="#9a916c" stroke-width="3.615"/>
  <circle r="5.693" cx="108.552" id="A1_D2_SCL_MISO" cy="-78.946" transform="rotate(90)" fill="none" stroke="#9a916c" stroke-width="3.615"/>
  <circle r="5.693" cx="108.552" id="A0_D1" cy="-98.683" transform="rotate(90)" fill="none" stroke="#9a916c" stroke-width="3.615"/>
  <circle r="5.693" cx="108.552" id="A2_D0_SDA" cy="-118.42" transform="rotate(90)" fill="none" stroke="#9a916c" stroke-width="3.615"/>
  <circle r="5.693" cx="108.552" id="connector65pin" cy="-138.156" transform="rotate(90)" fill="none" stroke="#9a916c" stroke-width="3.615"/>
  <g id="g4947" transform="rotate(-90 190.568 13.706) scale(2.7412)">
    <g id="g4945">
      <g id="g496">
        <path id="connector66pin" fill="#9a916c" stroke="none" stroke-width="0" d="M36.126 5.23h2.268v2.268h-2.268z"/>
      </g>
    </g>
  </g>
  <g id="g4953" transform="rotate(-90 178.916 25.359) scale(2.7412)">
    <g id="g4951">
      <g id="g499">
        <path id="connector67pin" fill="#9a916c" stroke="none" stroke-width="0" d="M36.126 9.482h2.268v2.268h-2.268z"/>
      </g>
    </g>
  </g>
  <g id="g4995" transform="rotate(-90 104.717 -72.151) scale(2.7412)">
    <g id="g4993">
      <g id="g520">
        <path id="connector74pin" fill="#9a916c" stroke="none" stroke-width="0" d="M4.806 5.23h2.268v2.268H4.806z"/>
      </g>
    </g>
  </g>
  <g id="g5001" transform="rotate(-90 93.061 -60.495) scale(2.7412)">
    <g id="g4999">
      <g id="g523">
        <path id="connector75pin" fill="#9a916c" stroke="none" stroke-width="0" d="M4.806 9.482h2.268v2.268H4.806z"/>
      </g>
    </g>
  </g>
  <path id="connector76pin" transform="rotate(90)" fill="#9a916c" stroke="none" stroke-width="0" d="M64.735-34.343h6.993v6.993h-6.993z"/>
  <path id="connector77pin" transform="rotate(90)" fill="#9a916c" stroke="none" stroke-width="0" d="M32.876-34.343h6.993v6.993h-6.993z"/>
  <path id="connector78pin" transform="rotate(90)" fill="#9a916c" stroke="none" stroke-width="0" d="M64.735-21.911h6.993v6.993h-6.993z"/>
  <path id="connector79pin" transform="rotate(90)" fill="#9a916c" stroke="none" stroke-width="0" d="M32.876-21.911h6.993v6.993h-6.993z"/>
  <rect ry="3.885" rx="3.885" height="7.77" x="45.95" width="7.77" y="-27.569" id="connector84pin" transform="rotate(90)" fill="#9a916c" stroke="none" stroke-width="0"/>
  <circle r="10.521" cx="14.803" id="connector85pin" cy="-29.604" transform="rotate(90)" fill="none" stroke="#9a916c" stroke-width="3.947"/>
  <circle r="10.521" cx="103.618" id="connector86pin" cy="-29.604" transform="rotate(90)" fill="none" stroke="#9a916c" stroke-width="3.947"/>
  <g id="g5135" transform="rotate(90 90.085 118.214) scale(2.7412)">
    <g id="g5133">
      <g id="4uconn_20329_v2">
        <g id="g5130" transform="rotate(180 11.338 8.327)">
          <g id="g5128">
            <g id="g591">
              <g id="g593">
                <path id="rect595" fill="#b4b4b4" d="M0 7.157h22.677v3.969H0z"/>
                <path id="rect597" fill="#dcdcdc" d="M11.055 0h.567v3.402h-.567z"/>
                <path id="rect599" fill="#dcdcdc" d="M12.898 0h.567v3.402h-.567z"/>
                <path id="rect601" fill="#dcdcdc" d="M14.74 0h.567v3.402h-.567z"/>
                <path id="rect603" fill="#dcdcdc" d="M9.213 0h.567v3.402h-.567z"/>
                <path id="rect605" fill="#dcdcdc" d="M7.37 0h.567v3.402H7.37z"/>
                <path id="rect607" fill="#b4b4b4" d="M4.252 1.489h14.173v.709H4.252z"/>
                <path id="rect609" d="M4.252 1.771h14.173v2.976H4.252z"/>
                <path id="polygon611" fill="#dcdcdc" d="M17.008 3.473H14.74v.709h-1.417V1.63H9.354v2.552H7.937v-.709H5.669V1.347H.567v13.606H22.11V1.347h-5.102z"/>
                <path id="polygon613" d="M3.827 12.119l.283-4.252h1.417l.284 4.252z"/>
                <path id="polygon615" d="M16.866 12.119l.283-4.252h1.418l.283 4.252z"/>
                <path id="polygon617" fill="#f0f0f0" d="M1.701 16.653l-.567-1.7h20.409l-.567 1.701z"/>
                <path id="polygon619" fill="#b4b4b4" d="M0 16.653l.567-1.7h.567l-.567 1.7z"/>
                <path id="polygon621" fill="#b4b4b4" d="M22.11 16.654l-.567-1.701h.567l.567 1.701z"/>
              </g>
            </g>
          </g>
        </g>
      </g>
    </g>
  </g>
  <g id="g5179" transform="rotate(90 51.715 99.828) scale(2.7412)">
    <g id="g5177">
      <g id="qfn32_5mm">
        <g id="g5174" transform="rotate(-90 7.087 7.087)">
          <g id="g5172">
            <g id="g647">
              <g id="g5169" transform="scale(1.25)">
                <g id="g5167">
                  <g id="g3335">
                    <rect ry=".567" rx=".567" height="11.339" x="0" width="11.339" y="0" id="rect653" fill="#333"/>
                    <circle r=".538" cx="1.268" id="path3333" cy="1.321" fill="#666"/>
                  </g>
                </g>
              </g>
            </g>
          </g>
        </g>
      </g>
    </g>
  </g>
  <path d="M183.064 99.029h10.841c.439 0 .795.356.795.795v4.627a.796.796 0 01-.795.795h-10.841a.796.796 0 01-.795-.795v-4.624c0-.442.356-.798.795-.798z" id="path659" fill="#dcdcdc" stroke-width="2.741"/>
  <g id="LED" transform="rotate(180 95.797 54.177) scale(2.7412)">
    <g id="g5183">
      <path id="rect661" fill="red" d="M0 1.134h2.268v2.268H0z"/>
    </g>
  </g>
  <g id="g5227" transform="rotate(90 90.763 103.937) scale(2.7412)">
    <g id="g5225">
      <g id="0603-led-green">
        <g id="g5222" transform="rotate(180 1.134 2.268)">
          <g id="g5220">
            <g id="g677">
              <path d="M2.268.29v3.955c0 .16-.13.29-.29.29H.29a.29.29 0 01-.29-.29V.29C0 .13.13 0 .29 0h1.687a.29.29 0 01.291.29z" id="path679" fill="#dcdcdc"/>
              <g id="g5216" transform="rotate(-90 1.134 2.268)">
                <g id="g5214">
                  <path id="rect681" fill="#0f0" d="M0 1.134h2.268v2.268H0z"/>
                </g>
              </g>
              <circle r=".354" cx="1.134" id="circle683" cy="2.268" fill="#00b400"/>
            </g>
          </g>
        </g>
      </g>
    </g>
  </g>
  <path id="polygon688" transform="rotate(90 .733 35.553) scale(2.7412)" fill="#dcdcdc" d="M11.339 2.692h1.417V1.275h-1.417V0H1.417v1.275H0v1.417h1.417v3.119H0v1.417h1.417v1.276h9.922V7.228h1.417V5.811h-1.417z"/>
  <circle r="6.798" cx="52.302" id="RESET" cy="-24.631" transform="rotate(90)" fill="#1e1e1e" stroke-width="2.741"/>
  <path id="rect692" transform="rotate(90)" fill="#b4b4b4" stroke-width="2.741" d="M37.538-36.286h1.554v23.311h-1.554z"/>
  <path id="rect694" transform="rotate(90)" fill="#b4b4b4" stroke-width="2.741" d="M65.512-36.286h1.554v23.311h-1.554z"/>
  <g id="g5527" transform="matrix(0 2.7412 2.7412 0 -.03 -.304)">
    <g id="g5525">
      <g id="g8488">
        <g id="g8490">
          <g clip-path="url(#clipPath8494)" id="g8492">
            <g id="g5282" transform="translate(8.04 19.135)">
              <g id="g5280">
                <g id="g8498">
                  <path d="M0 0h-1.021v.533c0 .185.042.327.126.429.084.1.21.15.378.15h.009c.154 0 .278-.05.369-.15C-.046.86 0 .716 0 .524zm1.479 0H.441v.47a.085.085 0 01-.004.029l1.042.627v.562L.34.995a.966.966 0 01-.309.44c-.14.113-.325.169-.552.169h-.016c-.135 0-.257-.021-.366-.063a.823.823 0 01-.282-.181.893.893 0 01-.205-.334 1.342 1.342 0 01-.072-.451V-.487h2.941z" id="path8500" fill="#fff" fill-opacity="1" fill-rule="nonzero" stroke="none"/>
                </g>
              </g>
            </g>
            <g id="g5288" transform="translate(8.909 21.058)">
              <g id="g5286">
                <g id="g8502">
                  <path d="M0 0l.341-.223c.106.129.184.266.235.41.05.145.075.284.075.418a.959.959 0 01-.044.298.622.622 0 01-.631.462h-.005a.532.532 0 01-.406-.174A.995.995 0 01-.573 1 3.132 3.132 0 01-.692.761 3.063 3.063 0 00-.853.443C-.899.363-.96.324-1.033.324h-.008a.195.195 0 00-.155.073.312.312 0 00-.064.208c0 .09.019.179.057.269.038.09.085.177.141.261l-.349.201A1.36 1.36 0 01-1.587.99 1.174 1.174 0 01-1.65.613a.88.88 0 01.046-.289.704.704 0 01.13-.233.595.595 0 01.475-.212h.008c.093 0 .172.016.237.048a.577.577 0 01.175.132c.05.056.095.121.134.193.04.073.077.152.114.236a2.7 2.7 0 00.155.317c.048.08.111.119.189.119h.005A.22.22 0 00.191.843a.349.349 0 00.07-.23.76.76 0 00-.07-.304A1.336 1.336 0 000 0" id="path8504" fill="#fff" fill-opacity="1" fill-rule="nonzero" stroke="none"/>
                </g>
              </g>
            </g>
            <g id="g5294" transform="translate(7.292 23.788)">
              <g id="g5292">
                <g id="g8506">
                  <path d="M0 0v-.5h-.601v-.475H0v-.244h.407v.244h1.28c.11 0 .202.015.274.044.073.03.131.07.175.122a.48.48 0 01.093.183.82.82 0 01.03.227.806.806 0 01-.097.395h-.39a.558.558 0 00.063-.257.254.254 0 00-.057-.176C1.74-.479 1.678-.5 1.592-.5H.407V0z" id="path8508" fill="#fff" fill-opacity="1" fill-rule="nonzero" stroke="none"/>
                </g>
              </g>
            </g>
            <g id="g5300" transform="translate(9.764 29.378)">
              <g id="g5298">
                <g id="g8510">
                  <path d="M0 0c0 .139-.022.268-.067.386A.868.868 0 01-.548.89a.969.969 0 01-.376.071h-.013a.762.762 0 01-.577-.236.834.834 0 01-.155-.25A1.453 1.453 0 01-1.751.18l-.853.744h-.382V-.799h.441V.314l.851-.713.306.063v.147c0 .204.04.367.121.487.081.12.198.181.348.181h.013A.44.44 0 00-.566.34.494.494 0 00-.44-.005a.73.73 0 00-.086-.363 1.133 1.133 0 00-.221-.271l.344-.302c.121.109.217.242.292.396C-.037-.389 0-.208 0 0" id="path8512" fill="#fff" fill-opacity="1" fill-rule="nonzero" stroke="none"/>
                </g>
              </g>
            </g>
            <g id="g5306" transform="translate(8.672 34.788)">
              <g id="g5304">
                <g id="g8514">
                  <path d="M0 0l-1.18.832H0zm.407 1.66H0v-.366h-1.911V.861L.055-.537l.352.067V.832h.639v.462H.407z" id="path8516" fill="#fff" fill-opacity="1" fill-rule="nonzero" stroke="none"/>
                </g>
              </g>
            </g>
            <g id="g5312" transform="translate(6.962 39.675)">
              <g id="g5310">
                <g id="g8518">
                  <path d="M0 0a1.41 1.41 0 01.475-.279c.183-.066.382-.099.598-.099h.033c.227 0 .433.033.616.099s.341.157.47.275c.13.117.231.259.3.424.071.165.106.347.106.546 0 .21-.035.398-.106.565a1.847 1.847 0 01-.252.439H.922V.891h.429v.617H2a.767.767 0 00.114-.231.937.937 0 00-.029-.636.753.753 0 00-.208-.271 1.01 1.01 0 00-.335-.179 1.433 1.433 0 00-.446-.065h-.025C.92.126.78.147.652.189c-.128.042-.238.1-.33.174a.8.8 0 00-.217.265.736.736 0 00-.078.334c0 .151.026.276.076.376.05.099.113.191.189.275l-.387.29a1.537 1.537 0 01-.248-.414A1.455 1.455 0 01-.427.97c0-.199.038-.38.115-.544C-.237.263-.133.121 0 0" id="path8520" fill="#fff" fill-opacity="1" fill-rule="nonzero" stroke="none"/>
                </g>
              </g>
            </g>
            <g id="g5318" transform="translate(8.162 43.358)">
              <g id="g5316">
                <g id="g8522">
                  <path d="M0 0h1.356v.475H-.135c-.237 0-.427-.061-.566-.181-.141-.121-.21-.289-.21-.504 0-.151.037-.275.111-.372a.999.999 0 01.258-.237h-.327v-.474h2.225v.474H.008a.523.523 0 00-.361.115.392.392 0 00-.13.305c0 .126.042.224.124.294C-.276-.035-.157 0 0 0" id="path8524" fill="#fff" fill-opacity="1" fill-rule="nonzero" stroke="none"/>
                </g>
              </g>
            </g>
            <g id="g5324" transform="translate(7.72 45.327)">
              <g id="g5322">
                <g id="g8526">
                  <path d="M0 0a.538.538 0 00.143.171.693.693 0 00.225.116.975.975 0 00.296.042h.042a.975.975 0 00.296-.042.703.703 0 00.225-.116A.535.535 0 001.369 0a.427.427 0 000-.405.522.522 0 00-.142-.164.697.697 0 00-.225-.112 1.03 1.03 0 00-.301-.04H.668c-.227 0-.403.05-.529.15A.452.452 0 000 0m-.232.207A.745.745 0 01-.438-.11a.776.776 0 01.04-.546.77.77 0 01.211-.277c.094-.08.211-.144.353-.192.142-.047.306-.071.493-.071h.055c.188 0 .352.025.494.074.142.049.259.113.353.193.093.08.164.172.21.275a.808.808 0 01.038.54.686.686 0 01-.215.319c-.049.044-.1.082-.154.115h.358v.475h-3.032V.32h1.142a1.215 1.215 0 01-.14-.113" id="path8528" fill="#fff" fill-opacity="1" fill-rule="nonzero" stroke="none"/>
                </g>
              </g>
            </g>
            <g id="g5330" transform="translate(9.077 48.108)">
              <g id="g5328">
                <g id="g8530">
                  <path d="M0 0h-.835v.594c0 .186.036.327.11.424a.361.361 0 00.303.145h.009a.355.355 0 00.307-.147A.674.674 0 000 .615zm-1.243 0h-.815v.54c0 .16.034.283.101.369a.348.348 0 00.29.128h.009c.137 0 .24-.048.31-.143A.631.631 0 00-1.243.51zM.441.604c0 .157-.017.3-.052.429a.951.951 0 01-.155.33.733.733 0 01-.252.212.744.744 0 01-.341.075h-.017c-.196 0-.348-.052-.455-.157a1.006 1.006 0 01-.245-.401c-.028.056-.062.11-.1.161a.64.64 0 01-.321.236.74.74 0 01-.24.035h-.013a.675.675 0 01-.496-.197.806.806 0 01-.188-.317 1.38 1.38 0 01-.065-.435v-1.05h2.94z" id="path8532" fill="#fff" fill-opacity="1" fill-rule="nonzero" stroke="none"/>
                </g>
              </g>
            </g>
            <g id="g5336" transform="translate(8.49 51.088)">
              <g id="g5334">
                <g id="g8534">
                  <path d="M0 0c.016.068.035.131.058.187h.221A.41.41 0 00.593.046a.471.471 0 00.088-.153.56.56 0 00.031-.189.393.393 0 00-.094-.259C.558-.623.472-.657.359-.657H.352a.344.344 0 00-.276.113.475.475 0 00-.098.319c0 .081.007.156.022.225m-.346-.33c0-.235.06-.425.178-.571.119-.145.298-.219.536-.219h.021c.109 0 .206.019.29.055a.648.648 0 01.212.147.661.661 0 01.132.216.746.746 0 01.046.263.731.731 0 01-.086.37.722.722 0 01-.229.247h.273v.467H-.354C-.635.645-.849.57-.997.422c-.151-.146-.227-.364-.227-.655a1.515 1.515 0 01.176-.735l.378.134a2.325 2.325 0 00-.092.244.98.98 0 00-.042.294c0 .151.038.269.114.353.075.084.189.126.339.126h.093A2.285 2.285 0 01-.321-.05a1.367 1.367 0 01-.025-.28" id="path8536" fill="#fff" fill-opacity="1" fill-rule="nonzero" stroke="none"/>
                </g>
              </g>
            </g>
            <g id="g5342" transform="translate(7.292 51.934)">
              <g id="g5340">
                <g id="g8538">
                  <path d="M0 0h.407v.244h1.28c.11 0 .202.014.274.044a.425.425 0 01.268.304c.02.07.03.146.03.227a.798.798 0 01-.097.395h-.39a.554.554 0 00.063-.256.255.255 0 00-.057-.177c-.038-.042-.1-.063-.186-.063H.407v.5H0v-.5h-.601V.244H0z" id="path8540" fill="#fff" fill-opacity="1" fill-rule="nonzero" stroke="none"/>
                </g>
              </g>
            </g>
            <g id="g5348" transform="translate(36.245 20.609)">
              <g id="g5346">
                <g id="g8542">
                  <path d="M0 0a.838.838 0 01-.292.199.934.934 0 01-.376.072h-.013a.796.796 0 01-.336-.065.771.771 0 01-.241-.172.798.798 0 01-.155-.25 1.366 1.366 0 01-.082-.294l-.853.743h-.382v-1.721h.441v1.113l.851-.715.306.064v.147c0 .203.04.366.121.486a.392.392 0 00.348.181h.013A.437.437 0 00-.311-.35a.496.496 0 00.126-.345.723.723 0 00-.086-.364 1.12 1.12 0 00-.22-.27l.344-.302c.121.11.217.241.292.397.074.155.111.336.111.544 0 .139-.023.268-.068.385A.87.87 0 010 0" id="path8544" fill="#fff" fill-opacity="1" fill-rule="nonzero" stroke="none"/>
                </g>
              </g>
            </g>
            <g id="g5354" transform="translate(33.515 21.09)">
              <g id="g5352">
                <g id="g8546">
                  <path d="M0 0l2.957 1.021v.45L0 2.487v-.512l2.223-.723L0 .529z" id="path8548" fill="#fff" fill-opacity="1" fill-rule="nonzero" stroke="none"/>
                </g>
              </g>
            </g>
            <g id="g5360" transform="translate(33.612 29.035)">
              <g id="g5358">
                <g id="g8550">
                  <path d="M0 0a1.49 1.49 0 01.391-.409l.298.323C.563.013.469.104.405.193a.525.525 0 00-.093.309c0 .12.036.222.108.305.073.083.177.124.311.124A.583.583 0 00.903.905a.724.724 0 00.172-.078c.06-.035.122-.081.19-.139.067-.056.144-.126.23-.21l.962-.9h.387v1.86h-.442V.226l-.637.587a7.283 7.283 0 01-.29.275 1.812 1.812 0 01-.254.191.986.986 0 01-.524.148H.689a.855.855 0 01-.342-.067.729.729 0 01-.26-.181.826.826 0 01-.166-.28 1.037 1.037 0 01-.06-.355C-.139.331-.092.149 0 0" id="path8552" fill="#fff" fill-opacity="1" fill-rule="nonzero" stroke="none"/>
                </g>
              </g>
            </g>
            <g id="g5366" transform="translate(33.495 35.33)">
              <g id="g5364">
                <g id="g8554">
                  <path d="M0 0l.227-.681.419.08-.138.462h2.453v.484H0z" id="path8556" fill="#fff" fill-opacity="1" fill-rule="nonzero" stroke="none"/>
                </g>
              </g>
            </g>
            <g id="g5372" transform="translate(35.987 42.995)">
              <g id="g5370">
                <g id="g8558">
                  <path d="M0 0a.61.61 0 00-.211-.197 1.102 1.102 0 00-.333-.126 1.99 1.99 0 00-.444-.045h-.034c-.332 0-.59.056-.776.169-.185.112-.278.26-.278.445 0 .092.024.176.073.252.05.075.12.141.211.195.092.055.203.097.335.126.133.03.28.044.443.044h.034c.332 0 .59-.055.776-.166C-.019.586.074.439.074.254A.457.457 0 000 0m.102 1.059a1.491 1.491 0 01-.471.224 2.2 2.2 0 01-.611.08h-.046c-.224 0-.428-.027-.612-.08a1.475 1.475 0 01-.47-.224.971.971 0 01-.41-.805c0-.171.037-.325.11-.462a1.05 1.05 0 01.304-.351c.13-.096.288-.171.473-.224.185-.053.388-.08.609-.08h.046c.224 0 .428.026.611.078.183.052.341.126.47.222.13.097.232.213.303.349a.975.975 0 01.107.46.959.959 0 01-.11.462 1.047 1.047 0 01-.303.351" id="path8560" fill="#fff" fill-opacity="1" fill-rule="nonzero" stroke="none"/>
                </g>
              </g>
            </g>
            <g id="g5378" transform="translate(36.206 49.228)">
              <g id="g5376">
                <g id="g8562">
                  <path d="M0 0a1.03 1.03 0 01-.369.221c-.148.051-.32.077-.52.077H-2.69v-.483h1.832c.234 0 .411-.054.528-.164A.57.57 0 00-.153-.79a.566.566 0 00-.183-.447c-.122-.108-.302-.161-.54-.161H-2.69v-.488h1.819c.193 0 .362.026.508.078a.99.99 0 01.365.221.894.894 0 01.221.342c.048.133.073.282.073.447 0 .165-.025.316-.073.452A.88.88 0 010 0" id="path8564" fill="#fff" fill-opacity="1" fill-rule="nonzero" stroke="none"/>
                </g>
              </g>
            </g>
            <g id="g5384" transform="translate(33.708 50.172)">
              <g id="g5382">
                <g id="g8566">
                  <path d="M0 0a.787.787 0 01.593-.263h.008a.7.7 0 01.54.217c.068.071.13.159.184.264.055.105.109.228.162.368.042.118.082.213.119.286a.89.89 0 00.114.17.316.316 0 00.246.107h.004a.34.34 0 00.269-.124.506.506 0 00.105-.338.863.863 0 00-.101-.422 1.747 1.747 0 00-.248-.351L2.36-.38c.149.16.257.329.324.508s.101.364.101.555c0 .137-.02.263-.061.379a.913.913 0 01-.17.303.746.746 0 01-.267.199.83.83 0 01-.35.072h-.009a.77.77 0 01-.285-.049.668.668 0 01-.23-.147 1.037 1.037 0 01-.186-.247 2.926 2.926 0 01-.165-.355A2.657 2.657 0 00.931.531.947.947 0 00.812.347.306.306 0 00.693.254.364.364 0 00.555.229H.551a.307.307 0 00-.244.113.47.47 0 00-.097.315C.21.775.236.889.288 1c.052.11.118.216.199.317l-.374.277A1.357 1.357 0 01-.23.67c0-.137.02-.263.06-.376A.926.926 0 010 0" id="path8568" fill="#fff" fill-opacity="1" fill-rule="nonzero" stroke="none"/>
                </g>
              </g>
            </g>
            <g id="g5390" transform="translate(36.014 52.668)">
              <g id="g5388">
                <g id="g8570">
                  <path d="M0 0h-.835v.594c0 .186.036.327.11.424a.361.361 0 00.303.145h.009a.355.355 0 00.307-.147A.674.674 0 000 .615zm-1.243 0h-.815v.54c0 .16.034.283.101.369a.348.348 0 00.29.128h.009c.137 0 .24-.048.31-.143A.631.631 0 00-1.243.51zM.441.604c0 .157-.017.3-.052.429a.951.951 0 01-.155.33.733.733 0 01-.252.212.744.744 0 01-.341.075h-.017c-.196 0-.348-.052-.455-.157a1.006 1.006 0 01-.245-.401c-.028.056-.062.11-.1.161a.64.64 0 01-.321.236.74.74 0 01-.24.035h-.013a.675.675 0 01-.496-.197.806.806 0 01-.188-.317 1.38 1.38 0 01-.065-.435v-1.05h2.94z" id="path8572" fill="#fff" fill-opacity="1" fill-rule="nonzero" stroke="none"/>
                </g>
              </g>
            </g>
            <g id="g5396" transform="translate(6.062 61.768)">
              <g id="g5394">
                <g id="g8574">
                  <path d="M0 0a.677.677 0 00-.191-.227.927.927 0 00-.298-.15 1.293 1.293 0 00-.385-.054H-.9c-.142 0-.271.017-.386.052a.916.916 0 00-.295.147.664.664 0 00-.189.224.617.617 0 00-.067.285c0 .105.022.202.067.289a.678.678 0 00.191.227.92.92 0 00.299.148c.116.035.244.053.384.053h.026c.143 0 .271-.018.387-.053A.94.94 0 00-.189.795.677.677 0 000 .57.617.617 0 00.068.285.611.611 0 000 0m.37.75a1.08 1.08 0 01-.278.367c-.118.103-.26.183-.424.24a1.598 1.598 0 01-.538.087h-.037c-.195 0-.374-.028-.536-.085a1.233 1.233 0 01-.42-.238 1.078 1.078 0 01-.375-.836 1.09 1.09 0 01.376-.84c.119-.103.26-.183.424-.24.164-.058.343-.086.538-.086h.038c.195 0 .374.028.536.084.162.056.303.135.42.238a1.097 1.097 0 01.375.836C.469.45.436.607.37.75" id="path8576" fill="#fff" fill-opacity="1" fill-rule="nonzero" stroke="none"/>
                </g>
              </g>
            </g>
            <g id="g5402" transform="translate(4.795 63.89)">
              <g id="g5400">
                <g id="g8578">
                  <path d="M0 0h-.292v-.423h1.987V0H.491a.471.471 0 00-.323.104.345.345 0 00-.116.271c0 .113.037.2.111.263a.486.486 0 00.32.093h1.212v.424H.364c-.213 0-.382-.053-.507-.161A.563.563 0 01-.33.544.53.53 0 01-.231.212.876.876 0 010 0" id="path8580" fill="#fff" fill-opacity="1" fill-rule="nonzero" stroke="none"/>
                </g>
              </g>
            </g>
            <g id="g5408" transform="translate(36.3 62.792)">
              <g id="g5406">
                <g id="g8582">
                  <path d="M0 0l.202-.607.375.071-.123.412h2.19v.432H0z" id="path8584" fill="#fff" fill-opacity="1" fill-rule="nonzero" stroke="none"/>
                </g>
              </g>
            </g>
            <g id="g5414" transform="translate(38.756 64.838)">
              <g id="g5412">
                <g id="g8586">
                  <path d="M0 0a.748.748 0 01-.261.178.844.844 0 01-.335.064h-.011a.668.668 0 01-.655-.435 1.405 1.405 0 01-.073-.263l-.761.664h-.342v-1.537h.394v.994l.76-.638.273.056v.131c0 .183.036.328.109.435a.35.35 0 00.31.162h.012a.388.388 0 00.303-.124.44.44 0 00.112-.308.642.642 0 00-.076-.324 1.026 1.026 0 00-.197-.242l.307-.27c.108.098.194.216.261.354.066.139.099.301.099.486 0 .125-.02.24-.06.345A.797.797 0 010 0" id="path8588" fill="#fff" fill-opacity="1" fill-rule="nonzero" stroke="none"/>
                </g>
              </g>
            </g>
            <g id="g5420" transform="translate(28.604 34.436)">
              <g id="g5418">
                <g id="g8590">
                  <path d="M0 0c-.341-.174-.674-.202-.743-.064-.07.137.147.389.486.562C.084.672.416.7.486.563.557.426.339.174 0 0m.145-1.606c-.11-.11-.416.019-.686.29-.271.268-.4.576-.291.685.108.11.416-.02.686-.29.27-.268.4-.576.291-.685m-1.4 1.8c-.152-.023-.324.262-.385.638-.059.377.016.701.168.727.154.023.326-.261.386-.638S-1.102.22-1.255.194m-.206-1.658c-.174-.34-.426-.557-.563-.487-.138.069-.111.401.063.741.173.341.425.559.563.488.137-.07.11-.402-.063-.742M-2.385-.38c-.377.06-.663.232-.638.385.024.151.348.227.725.169.378-.06.662-.232.639-.385-.025-.152-.35-.228-.726-.169m5.33 2.649L1.336 2.26s-.993.047-1.495-.64a4.14 4.14 0 01-.202-.301c.047.118.09.233.124.34.258.811-.365 1.584-.365 1.584l-.94 1.306c-.161.223-.249.309-.45.277-.2-.032-.257-.14-.341-.403l-.489-1.532s-.352-.931.145-1.62c.067-.092.144-.189.225-.286a4.54 4.54 0 01-.286.224c-.691.495-1.619.144-1.619.144S-5.691.926-5.891.86c-.261-.085-.37-.141-.401-.341-.032-.201.054-.289.276-.45l1.308-.938s.776-.621 1.586-.361c.108.034.224.077.341.125a4.523 4.523 0 01-.302-.204c-.685-.503-.637-1.496-.637-1.496l-.006-1.61c-.001-.274.021-.396.202-.487.18-.091.291-.037.512.126l1.297.953s.83.546.834 1.394c0 .115-.005.237-.014.363.031-.122.065-.241.1-.349C-.527-3.221.432-3.481.432-3.481s1.33-.439 1.529-.503c.261-.086.383-.104.525.04.144.143.126.264.04.525-.064.199-.505 1.528-.505 1.528S1.758-.933.95-.667a5.235 5.235 0 01-.347.101 4.14 4.14 0 01.362-.013c.848.005 1.393.836 1.393.836l.952 1.298c.162.222.215.333.124.513-.092.181-.213.202-.489.201" id="path8592" fill="#fff" fill-opacity="1" fill-rule="nonzero" stroke="none"/>
                </g>
              </g>
            </g>
            <g id="g5426" transform="translate(15.143 42.744)">
              <g id="g5424">
                <g id="g8594">
                  <path d="M0 0c.014.062.031.118.051.169h.202A.37.37 0 00.536.042a.444.444 0 00.08-.139.507.507 0 00.028-.171.356.356 0 00-.085-.234.296.296 0 00-.234-.093H.317a.312.312 0 00-.249.103.426.426 0 00-.089.288c0 .074.007.142.021.204m-.313-.298c0-.213.053-.386.161-.517.108-.132.269-.198.485-.198h.019c.098 0 .186.016.262.05a.562.562 0 01.311.328.674.674 0 01.042.238.665.665 0 01-.078.334.654.654 0 01-.207.224h.247v.422h-1.25c-.253 0-.447-.067-.581-.201-.137-.132-.205-.33-.205-.593a1.37 1.37 0 01.159-.665l.342.122c-.03.066-.058.139-.083.22a.868.868 0 00-.039.266c0 .137.035.243.103.319.068.076.171.114.308.114h.084a1.25 1.25 0 01-.08-.463" id="path8596" fill="#fff" fill-opacity="1" fill-rule="nonzero" stroke="none"/>
                </g>
              </g>
            </g>
            <g id="g5432" transform="translate(14.446 44.75)">
              <g id="g5430">
                <g id="g8598">
                  <path d="M0 0c.03.059.074.11.129.155A.654.654 0 00.333.26a.89.89 0 00.268.038h.038A.887.887 0 00.906.26.654.654 0 001.11.155.486.486 0 001.239 0a.394.394 0 000-.366.477.477 0 00-.129-.149.628.628 0 00-.204-.101.936.936 0 00-.271-.036H.604c-.205 0-.365.045-.479.135A.41.41 0 000 0m-.321.06a.615.615 0 01-.104-.359.702.702 0 01.256-.545.943.943 0 01.319-.173c.128-.043.277-.065.447-.065h.049c.17 0 .319.022.447.067a.963.963 0 01.319.175.697.697 0 01.224.737.58.58 0 01-.078.16.782.782 0 01-.116.129.987.987 0 01-.139.104h.323v.43h-2.743V.29h1.034A1.179 1.179 0 01-.211.187.702.702 0 01-.321.06" id="path8600" fill="#fff" fill-opacity="1" fill-rule="nonzero" stroke="none"/>
                </g>
              </g>
            </g>
            <g id="g5438" transform="translate(15.143 46.818)">
              <g id="g5436">
                <g id="g8602">
                  <path d="M0 0c.014.062.031.118.051.169h.202A.37.37 0 00.536.042a.444.444 0 00.08-.139.507.507 0 00.028-.171.356.356 0 00-.085-.234.296.296 0 00-.234-.093H.317a.312.312 0 00-.249.103.426.426 0 00-.089.288c0 .074.007.142.021.204m-.313-.298c0-.213.053-.386.161-.517.108-.132.269-.198.485-.198h.019c.098 0 .186.016.262.05a.562.562 0 01.311.328.674.674 0 01.042.238.665.665 0 01-.078.334.654.654 0 01-.207.224h.247v.422h-1.25c-.253 0-.447-.067-.581-.201-.137-.132-.205-.33-.205-.593a1.37 1.37 0 01.159-.665l.342.122c-.03.066-.058.139-.083.22a.868.868 0 00-.039.266c0 .137.035.243.103.319.068.076.171.114.308.114h.084a1.25 1.25 0 01-.08-.463" id="path8604" fill="#fff" fill-opacity="1" fill-rule="nonzero" stroke="none"/>
                </g>
              </g>
            </g>
            <g id="g5444" transform="translate(13.915 47.894)">
              <g id="g5442">
                <g id="g8606">
                  <path d="M0 0h.156v-.224h.357V0h1.645v.429H.513V.87H.156V.425H.042c-.185 0-.278.08-.278.24 0 .038.004.073.01.106s.014.067.024.103h-.36A1.032 1.032 0 01-.604.57c0-.18.048-.32.144-.422C-.361.049-.208 0 0 0" id="path8608" fill="#fff" fill-opacity="1" fill-rule="nonzero" stroke="none"/>
                </g>
              </g>
            </g>
            <g id="g5450" transform="translate(14.059 49.007)">
              <g id="g5448">
                <g id="g8610">
                  <path d="M0 0h2.014v.429h-.889c-.23 0-.403.054-.517.162a.557.557 0 00-.171.424v.019H-.03A.534.534 0 01.078.657.775.775 0 01.396.429H0z" id="path8612" fill="#fff" fill-opacity="1" fill-rule="nonzero" stroke="none"/>
                </g>
              </g>
            </g>
            <g id="g5456" transform="translate(16.084 51.104)">
              <g id="g5454">
                <g id="g8614">
                  <path d="M0 0a.581.581 0 01-.177.268.858.858 0 01-.127.095h.293v.429h-2.014V.363h1.219c.14 0 .249-.035.327-.105a.347.347 0 00.118-.275.323.323 0 00-.112-.264.498.498 0 00-.325-.093h-1.227v-.43h1.349c.218 0 .389.054.515.162.125.107.188.26.188.458C.027-.116.018-.054 0 0" id="path8616" fill="#fff" fill-opacity="1" fill-rule="nonzero" stroke="none"/>
                </g>
              </g>
            </g>
            <path d="M16.073 52.784h-2.014v-.429h2.014z" id="path8618" fill="#fff" fill-opacity="1" fill-rule="nonzero" stroke="none"/>
            <path d="M13.766 52.796h-.422v-.456h.422z" id="path8620" fill="#fff" fill-opacity="1" fill-rule="nonzero" stroke="none"/>
            <g id="g5464" transform="translate(14.059 53.094)">
              <g id="g5462">
                <g id="g8622">
                  <path d="M0 0h.369v.22h1.159a.68.68 0 01.247.04.402.402 0 01.243.276.743.743 0 01.026.205.778.778 0 01-.022.196.754.754 0 01-.065.161h-.353a.5.5 0 00.057-.232.226.226 0 00-.052-.159C1.575.669 1.519.65 1.44.65H.369v.452H0V.65h-.543V.22H0z" id="path8624" fill="#fff" fill-opacity="1" fill-rule="nonzero" stroke="none"/>
                </g>
              </g>
            </g>
            <g id="g5470" transform="translate(9.362 4)">
              <g id="g5468">
                <g id="g8626">
                  <path d="M0 0h-2.565v-.54h.975V-3.5h.615v2.96H0z" id="path8628" fill="#fff" fill-opacity="1" fill-rule="nonzero" stroke="none"/>
                </g>
              </g>
            </g>
            <g id="g5476" transform="translate(9.584 2.63)">
              <g id="g5474">
                <g id="g8630">
                  <path d="M0 0v.521h-.599V-2.13H0v1.17c0 .304.075.53.226.681a.8.8 0 00.59.224h.027v.616A.79.79 0 01.318.418 1.015 1.015 0 010 0" id="path8632" fill="#fff" fill-opacity="1" fill-rule="nonzero" stroke="none"/>
                </g>
              </g>
            </g>
            <path d="M10.585 3.534h.636v.555h-.636z" id="path8634" fill="#fff" fill-opacity="1" fill-rule="nonzero" stroke="none"/>
            <path d="M10.607.499h.599v2.65h-.599z" id="path8636" fill="#fff" fill-opacity="1" fill-rule="nonzero" stroke="none"/>
            <g id="g5484" transform="translate(12.891 3.2)">
              <g id="g5482">
                <g id="g8638">
                  <path d="M0 0a.775.775 0 01-.469-.133 1.196 1.196 0 01-.3-.307v.39h-.598V-2.7h.598v1.605c0 .183.049.326.146.43a.507.507 0 00.385.155c.158 0 .282-.05.37-.147.089-.099.133-.241.133-.428V-2.7h.599v1.775c0 .283-.076.508-.228.675C.484-.083.272 0 0 0" id="path8640" fill="#fff" fill-opacity="1" fill-rule="nonzero" stroke="none"/>
                </g>
              </g>
            </g>
            <g id="g5490" transform="translate(16.304 3.15)">
              <g id="g5488">
                <g id="g8642">
                  <path d="M0 0h-.71l-.959-1.165V.96h-.599v-3.61h.599v.765l.323.369.679-1.134h.694l-.96 1.57z" id="path8644" fill="#fff" fill-opacity="1" fill-rule="nonzero" stroke="none"/>
                </g>
              </g>
            </g>
            <g id="g5496" transform="translate(16.734 2)">
              <g id="g5494">
                <g id="g8646">
                  <path d="M0 0c.021.227.085.404.192.533a.513.513 0 00.41.193.472.472 0 00.408-.205A1.04 1.04 0 001.182 0zm1.468.803a1.047 1.047 0 01-.869.397A1.13 1.13 0 01-.26.815a1.31 1.31 0 01-.249-.43 1.61 1.61 0 01-.09-.55v-.04c0-.206.033-.393.099-.56a1.22 1.22 0 01.685-.695c.156-.063.324-.095.504-.095.212 0 .397.037.557.112.158.074.301.174.429.302l-.313.351a1.192 1.192 0 00-.292-.205.796.796 0 00-.355-.074.685.685 0 00-.471.173C.113-.78.033-.611.005-.39h1.754c.004.04.006.078.006.116v.08c0 .199-.025.384-.075.554-.049.17-.123.318-.222.443" id="path8648" fill="#fff" fill-opacity="1" fill-rule="nonzero" stroke="none"/>
                </g>
              </g>
            </g>
            <g id="g5502" transform="translate(19.431 3.865)">
              <g id="g5500">
                <g id="g8650">
                  <path d="M0 0h-.599v-.715h-.307V-1.2h.307v-1.525c0-.13.018-.238.056-.325a.52.52 0 01.153-.208.615.615 0 01.231-.112c.088-.024.184-.035.286-.035a1.014 1.014 0 01.498.115v.465A.726.726 0 00.302-2.9c-.095 0-.17.022-.222.068-.054.045-.08.119-.08.222v1.41h.631v.485H0z" id="path8652" fill="#fff" fill-opacity="1" fill-rule="nonzero" stroke="none"/>
                </g>
              </g>
            </g>
            <g id="g5508" transform="translate(23.099 2.39)">
              <g id="g5506">
                <g id="g8654">
                  <path d="M0 0l-.954 1.609h-.641v-3.5h.599V.574l.98-1.609H0L.986.585v-2.476h.61v3.5H.949z" id="path8656" fill="#fff" fill-opacity="1" fill-rule="nonzero" stroke="none"/>
                </g>
              </g>
            </g>
            <g id="g5514" transform="translate(27.09 2.225)">
              <g id="g5512">
                <g id="g8658">
                  <path d="M0 0c0-.396-.07-.703-.21-.924-.14-.221-.325-.331-.559-.331a.607.607 0 00-.321.087.776.776 0 00-.249.251 1.327 1.327 0 00-.158.396 2.32 2.32 0 00-.056.531v.04c0 .394.071.703.212.924.141.22.328.331.562.331.116 0 .222-.03.318-.088A.788.788 0 00-.215.966c.069-.109.122-.242.159-.4A2.3 2.3 0 000 .04zm.246 1.342a1.277 1.277 0 01-.439.36 1.283 1.283 0 01-.576.128c-.215 0-.41-.044-.583-.131a1.286 1.286 0 01-.442-.362 1.684 1.684 0 01-.284-.563A2.474 2.474 0 01-2.179.05v-.055c0-.267.033-.51.099-.727.064-.219.158-.406.28-.561.122-.155.269-.274.441-.36.171-.085.364-.127.58-.127.216 0 .41.043.583.13.173.087.32.208.442.362.122.155.217.342.283.56.068.218.102.461.102.728v.055c0 .266-.034.508-.102.727a1.686 1.686 0 01-.283.56" id="path8660" fill="#fff" fill-opacity="1" fill-rule="nonzero" stroke="none"/>
                </g>
              </g>
            </g>
            <g id="g5520" transform="translate(34.038 36.84)">
              <g id="g5518">
                <g id="g8662">
                  <path d="M0 0c0-.385.521-.521 1.076-.667l.089.343C.922-.261.354-.111.354 0c0 .112.59.268.812.325.554.146 1.077.282 1.077.668 0 .385-.523.522-1.077.667a.177.177 0 11-.09-.343c.223-.058.814-.213.814-.324 0-.112-.591-.266-.814-.325C.522.522 0 .386 0 0" id="path8664" fill="#fff" fill-opacity="1" fill-rule="nonzero" stroke="none"/>
                </g>
              </g>
            </g>
          </g>
        </g>
      </g>
    </g>
  </g>
  <path id="NEOPIXEL" fill="#c5c5c5" fill-opacity="1" stroke="none" stroke-width="3.825" stroke-linecap="round" stroke-linejoin="round" stroke-miterlimit="4" stroke-dasharray="3.82488189,11.47464567" stroke-dashoffset="0" stroke-opacity="1" d="M92.021 38.393h11.121v10.031H92.021z"/>
</svg>
