<svg viewBox="0 0 77 47" xmlns="http://www.w3.org/2000/svg" fill-rule="evenodd" clip-rule="evenodd" stroke-linecap="round"><path d="M72 44.607H6.48l-2.16-2.16v-9.36L0 28.767V8.607l5.04-5.04v-2.16H72a3.6 3.6 0 0 1 3.6 3.6v10.08l-1.08 1.08v13.68l1.08 1.08v10.08a3.6 3.6 0 0 1-3.6 3.6m-8.64-17.065a.992.992 0 1 0 0 1.984.992.992 0 0 0 0-1.984zm0-11.055a.992.992 0 1 0 0 1.984.992.992 0 0 0 0-1.984zM57.24 2.609a3.118 3.118 0 1 0 0 6.236 3.118 3.118 0 0 0 0-6.236zm0 34.56a3.118 3.118 0 1 0 0 6.236 3.118 3.118 0 0 0 0-6.236zm3.569-5.942a1.134 1.134 0 1 0 0 2.267 1.134 1.134 0 0 0 0-2.267zm0-18.708a1.133 1.133 0 1 0-.002 2.266 1.133 1.133 0 0 0 .002-2.266zm7.937 19.417a1.276 1.276 0 1 0 0 2.551 1.276 1.276 0 0 0 0-2.551zm0-20.41a1.276 1.276 0 1 0 0 2.553 1.276 1.276 0 0 0 0-2.553zM50.4 3.661a1.418 1.418 0 1 0 0 2.836 1.418 1.418 0 0 0 0-2.836zm-7.2 0a1.418 1.418 0 1 0 0 2.836 1.418 1.418 0 0 0 0-2.836zm-7.2 0a1.418 1.418 0 1 0 0 2.836 1.418 1.418 0 0 0 0-2.836zm-7.2 0a1.418 1.418 0 1 0 0 2.836 1.418 1.418 0 0 0 0-2.836zm-7.2 0a1.418 1.418 0 1 0 0 2.836 1.418 1.418 0 0 0 0-2.836zm0 35.928a1.418 1.418 0 1 0 0 2.836 1.418 1.418 0 0 0 0-2.836zm7.2 0a1.418 1.418 0 1 0 0 2.836 1.418 1.418 0 0 0 0-2.836zm7.2 0a1.418 1.418 0 1 0 0 2.836 1.418 1.418 0 0 0 0-2.836zm7.2 0a1.418 1.418 0 1 0 0 2.836 1.418 1.418 0 0 0 0-2.836zm7.2 0a1.418 1.418 0 1 0 0 2.836 1.418 1.418 0 0 0 0-2.836zm-39.6-35.9a3.118 3.118 0 1 0 0 6.236 3.118 3.118 0 0 0 0-6.236zm0 32.4a3.118 3.118 0 1 0 0 6.236 3.118 3.118 0 0 0 0-6.236z" fill-rule="nonzero"/><path d="M19.26 30.207v-2.88M43.38 14.061v-2.268M52.02 11.793v2.268M9.54 32.187v-2.88" fill="none" stroke="#fff" stroke-width=".86"/><path d="M60.242 30.093v-2.267M60.242 18.188V15.92M72.998 33.778h2.551M75.549 33.778V12.235M75.549 12.235h-2.551" fill="none" stroke="#fff" stroke-width=".36"/><path d="M26.46 27.925l1.134 2.835M27.594 30.76h-2.268M25.326 30.76l1.134-2.835" fill="none" stroke="#fff" stroke-width=".43"/><path d="M28.798 25.516v7.654M28.798 33.17h-4.677M24.121 33.17v-7.654M24.121 25.516h4.677" fill="none" stroke="#fff" stroke-width=".36"/><path d="M26.46 18.304l-1.134-2.835M25.326 15.469h2.268M27.594 15.469l-1.134 2.835" fill="none" stroke="#fff" stroke-width=".43"/><path d="M24.121 20.714V13.06M24.121 13.06h4.677M28.798 13.06v7.654M28.798 20.714h-4.677M42.244 18.392h-1.701M40.543 18.392v1.7M54.149 18.392h1.701M55.85 18.392v1.7M40.543 31.998v1.701M40.543 33.699h1.701M55.85 31.998v1.701M55.85 33.699h-1.701" fill="none" stroke="#fff" stroke-width=".36"/><path d="M68.364 38.667l.9-.72v1.44l-.9-.72zm.828.662v-1.325 1.325z" fill="none" stroke="#fff" stroke-width=".43"/><path d="M68.004 39.747v-2.16h.36v2.16h-.36z" fill="#fff" fill-rule="nonzero"/><path d="M37.898 21.862h-5.669M37.898 15.626h-5.669M31.946 22.996h.85M32.796 22.996h.284M33.08 22.996l-.567-.567M32.513 22.429l-.567.567M31.946 22.996h.283M32.229 22.996l.284-.283" fill="none" stroke="#fff" stroke-width=".36"/><path d="M68.364 7.347l.9-.72v1.44l-.9-.72zm.828.662V6.684v1.325z" fill="none" stroke="#fff" stroke-width=".43"/><path d="M68.004 8.427v-2.16h.36v2.16h-.36z" fill="#fff" fill-rule="nonzero"/><path d="M13.309 14.534v11.905M4.661 26.439V14.534" fill="none" stroke="#fff" stroke-width=".58"/><path d="M68.328 43.221v-2.268M68.4 5.061V2.793" fill="none" stroke="#fff" stroke-width=".86"/><path d="M10.8 11.909a5.103 5.103 0 1 1 0-10.205 5.103 5.103 0 0 1 0 10.205zM10.8 44.309a5.103 5.103 0 1 1 0-10.205 5.103 5.103 0 0 1 0 10.205z" fill="none" stroke="#fff" stroke-width=".58" stroke-linecap="butt"/><path d="M23.397 20.774v-4.535M14.043 20.774v-4.535M19.854 21.483h-2.268" fill="none" stroke="#fff" stroke-width=".58"/><path d="M23.71 30.893h-3.515v-4.252h3.515v4.252zM18.324 30.892h-3.515V26.64h3.515v4.252zM47.313 14.344h-3.047v-2.835h3.047v2.835zM42.494 14.344h-3.047v-2.835h3.047v2.835zM48.087 11.509h3.047v2.835h-3.047v-2.835zM52.906 11.509h3.047v2.835h-3.047v-2.835zM13.99 32.873h-3.515v-4.252h3.515v4.252zM8.604 32.872H5.089V28.62h3.515v4.252zM71.864 26.55h-5.67v-2.835h5.67v2.835zM71.864 22.298h-5.67v-2.835h5.67v2.835zM59.25 23.574V22.44h3.826v1.134H59.25zM59.25 25.416v-1.134h3.826v1.134H59.25zM59.25 19.889v-1.134h3.826v1.134H59.25zM59.25 21.731v-1.134h3.826v1.134H59.25z" fill="#9a916c" fill-rule="nonzero"/><path d="M60.809 33.855a1.494 1.494 0 1 1 0-2.988 1.494 1.494 0 0 1 0 2.988z" fill="none" stroke="#9a916c" stroke-width=".72" stroke-linecap="butt"/><path d="M62.302 30.867v4.482h-2.987v-4.482h2.987m-1.493 0a1.494 1.494 0 1 0 0 2.988 1.494 1.494 0 0 0 0-2.988z" fill="#9a916c" fill-rule="nonzero"/><path d="M60.809 15.146a1.494 1.494 0 1 1 0-2.988 1.494 1.494 0 0 1 0 2.988z" fill="none" stroke="#9a916c" stroke-width=".72" stroke-linecap="butt"/><path d="M62.302 10.665v4.481h-2.987v-4.481h2.987m-1.493 1.494a1.493 1.493 0 1 0-.001 2.987 1.493 1.493 0 0 0 .001-2.987z" fill="#9a916c" fill-rule="nonzero"/><path d="M68.746 35.559a2.348 2.348 0 1 1 0-4.695 2.348 2.348 0 0 1 0 4.695z" fill="none" stroke="#9a916c" stroke-width="2.14" stroke-linecap="butt"/><path d="M71.093 30.864v4.695h-4.695v-4.695h4.695zM68.746 15.15a2.348 2.348 0 1 1 0-4.695 2.348 2.348 0 0 1 0 4.695z" fill="none" stroke="#9a916c" stroke-width="2.14" stroke-linecap="butt"/><path d="M71.093 10.454v4.696h-4.695v-4.696h4.695z" fill="none" stroke="#9a916c" stroke-width="2.14" stroke-linecap="butt"/><path d="M59.25 27.259v-1.134h3.826v1.134H59.25zM28.189 32.695v2.579h-3.458v-2.579h3.458zM28.189 23.411v2.58h-3.458v-2.58h3.458zM24.73 13.535v-2.58h3.458v2.58H24.73zM24.73 22.818v-2.579h3.458v2.579H24.73zM39.976 21.439v-.709h2.268v.709h-2.268zM39.976 22.856v-.709h2.268v.709h-2.268zM39.976 24.273v-.708h2.268v.708h-2.268zM39.976 25.691v-.709h2.268v.709h-2.268zM39.976 27.108v-.709h2.268v.709h-2.268zM39.976 28.526v-.709h2.268v.709h-2.268zM39.976 29.943v-.709h2.268v.709h-2.268zM39.976 31.36v-.709h2.268v.709h-2.268zM43.59 34.266h-.708v-2.268h.708v2.268zM45.008 34.266h-.709v-2.268h.709v2.268zM46.425 34.266h-.709v-2.268h.709v2.268zM47.842 34.266h-.708v-2.268h.708v2.268zM49.26 34.266h-.709v-2.268h.709v2.268zM50.677 34.266h-.709v-2.268h.709v2.268zM52.094 34.266h-.708v-2.268h.708v2.268zM53.511 34.266h-.708v-2.268h.708v2.268zM56.417 30.651v.709h-2.268v-.709h2.268zM56.417 29.234v.709h-2.268v-.709h2.268zM56.417 27.817v.708h-2.268v-.708h2.268zM56.417 26.399v.709h-2.268v-.709h2.268zM56.417 24.982v.709h-2.268v-.709h2.268zM56.417 23.565v.709h-2.268v-.709h2.268zM56.417 22.148v.708h-2.268v-.708h2.268zM56.417 20.73v.709h-2.268v-.709h2.268zM52.803 17.825h.708v2.267h-.708v-2.267zM51.386 17.825h.708v2.267h-.708v-2.267zM49.968 17.825h.709v2.267h-.709v-2.267zM48.551 17.825h.709v2.267h-.709v-2.267zM47.134 17.825h.708v2.267h-.708v-2.267zM45.716 17.825h.709v2.267h-.709v-2.267zM44.299 17.825h.709v2.267h-.709v-2.267zM42.882 17.825h.708v2.267h-.708v-2.267z" fill="#9a916c" fill-rule="nonzero"/><path d="M43.236 21.581c0-.274.222-.496.496-.496h8.929c.274 0 .496.222.496.496v8.929a.496.496 0 0 1-.496.496h-8.929a.496.496 0 0 1-.496-.496v-8.929z" fill="#9a916c"/><path d="M50.4 7.155a2.076 2.076 0 1 1-.001-4.153 2.076 2.076 0 0 1 .001 4.153zM43.2 7.155a2.076 2.076 0 1 1-.001-4.153 2.076 2.076 0 0 1 .001 4.153zM36 7.155a2.076 2.076 0 1 1-.001-4.153A2.076 2.076 0 0 1 36 7.155zM28.8 7.155a2.076 2.076 0 1 1-.001-4.153 2.076 2.076 0 0 1 .001 4.153zM21.6 7.155a2.076 2.076 0 1 1-.001-4.153 2.076 2.076 0 0 1 .001 4.153zM21.6 43.083a2.076 2.076 0 1 1-.001-4.153 2.076 2.076 0 0 1 .001 4.153zM28.8 43.083a2.076 2.076 0 1 1-.001-4.153 2.076 2.076 0 0 1 .001 4.153zM36 43.083a2.076 2.076 0 1 1-.001-4.153A2.076 2.076 0 0 1 36 43.083zM43.2 43.083a2.076 2.076 0 1 1-.001-4.153 2.076 2.076 0 0 1 .001 4.153zM50.4 43.083a2.076 2.076 0 1 1-.001-4.153 2.076 2.076 0 0 1 .001 4.153z" fill="none" stroke="#9a916c" stroke-width="1.32" stroke-linecap="butt"/><path d="M69.752 39.801v-2.268h2.268v2.268h-2.268zM65.5 39.801v-2.268h2.268v2.268H65.5zM33.363 21.366h-1.984v-.992h1.984v.992zM33.363 19.24h-1.984v-.992h1.984v.992zM33.363 17.114h-1.984v-.992h1.984v.992zM38.749 17.114h-1.984v-.992h1.984v.992zM38.749 19.24h-1.984v-.992h1.984v.992zM38.749 21.366h-1.984v-.992h1.984v.992zM69.752 8.481V6.213h2.268v2.268h-2.268zM65.5 8.481V6.213h2.268v2.268H65.5zM12.529 25.022v2.551H9.977v-2.551h2.552zM12.529 13.4v2.551H9.977V13.4h2.552zM7.993 25.022v2.551H5.442v-2.551h2.551zM7.993 13.4v2.551H5.442V13.4h2.551zM72.261 43.504h-3.047v-2.835h3.047v2.835zM67.442 43.504h-3.047v-2.835h3.047v2.835zM72.333 5.344h-3.047V2.509h3.047v2.835zM67.514 5.344h-3.047V2.509h3.047v2.835z" fill="#9a916c" fill-rule="nonzero"/><path d="M8.654 18.169c.775 0 1.403.629 1.403 1.404v.028c0 .775-.628 1.403-1.403 1.403h-.028a1.404 1.404 0 0 1-1.404-1.403v-.028c0-.775.629-1.404 1.404-1.404h.028z" fill="#9a916c"/><path d="M10.8 10.645a3.838 3.838 0 1 1 0-7.676 3.838 3.838 0 0 1 0 7.676zM10.8 43.045a3.838 3.838 0 1 1 0-7.676 3.838 3.838 0 0 1 0 7.676z" fill="none" stroke="#9a916c" stroke-width="1.44" stroke-linecap="butt"/><path d="M22.192 16.522h-1.559v-3.401h1.559v3.401zM19.499 16.522H17.94v-3.401h1.559v3.401zM16.806 16.522h-1.559v-3.401h1.559v3.401zM16.806 23.893h-1.559v-3.402h1.559v3.402zM22.192 23.893h-1.559v-3.402h1.559v3.402z" fill="#9a916c" fill-rule="nonzero"/><path d="M16.708 26.995h5.103c.156 0 .283.127.283.283v2.977a.283.283 0 0 1-.283.283h-5.102a.283.283 0 0 1-.283-.283v-2.977a.282.282 0 0 1 .282-.283z" fill="#dcdcdc" fill-rule="nonzero"/><path d="M21.031 30.538h-3.543v-3.543h3.543v3.543z" fill="#6e554b" fill-rule="nonzero"/><path d="M41.402 11.793h3.955c.16 0 .29.13.29.291v1.687c0 .16-.13.29-.29.29h-3.955a.29.29 0 0 1-.29-.29v-1.687a.29.29 0 0 1 .29-.291z" fill="#dcdcdc" fill-rule="nonzero"/><path d="M44.513 14.061h-2.268v-2.268h2.268v2.268z" fill="#6e554b" fill-rule="nonzero"/><path d="M53.997 14.061h-3.955a.29.29 0 0 1-.29-.291v-1.687c0-.16.13-.29.29-.29h3.955c.16 0 .29.13.29.29v1.687a.29.29 0 0 1-.29.291z" fill="#dcdcdc" fill-rule="nonzero"/><path d="M50.886 11.793h2.268v2.268h-2.268v-2.268z" fill="#6e554b" fill-rule="nonzero"/><path d="M6.988 28.975h5.103c.156 0 .283.127.283.283v2.977a.283.283 0 0 1-.283.283H6.989a.283.283 0 0 1-.283-.283v-2.977a.282.282 0 0 1 .282-.283z" fill="#dcdcdc" fill-rule="nonzero"/><path d="M11.311 32.518H7.768v-3.543h3.543v3.543z" fill="#6e554b" fill-rule="nonzero"/><path d="M66.491 34.345V11.668h3.969v22.677h-3.969z" fill="#b4b4b4" fill-rule="nonzero"/><path d="M59.334 23.29v-.567h3.402v.567h-3.402zM59.334 21.447v-.567h3.402v.567h-3.402zM59.334 19.605v-.567h3.402v.567h-3.402zM59.334 25.132v-.567h3.402v.567h-3.402zM59.334 26.975v-.567h3.402v.567h-3.402z" fill="#dcdcdc" fill-rule="nonzero"/><path d="M60.823 30.093V15.92h.709v14.173h-.709z" fill="#b4b4b4" fill-rule="nonzero"/><path d="M61.105 30.093V15.92h2.976v14.173h-2.976z" fill-rule="nonzero"/><path d="M62.807 19.605h.709v1.417h-2.552v3.969h2.552v1.417h-.709v2.268h-2.126v5.102h13.606V12.235H60.681v5.102h2.126v2.268z" fill="#dcdcdc" fill-rule="nonzero"/><path d="M67.201 30.235v-1.417l4.252-.284v1.984l-4.252-.283zM67.201 17.196v-1.418l4.252-.283v1.984l-4.252-.283z" fill-rule="nonzero"/><path d="M74.287 33.211V12.802l1.701.567-.001 19.275-1.7.567z" fill="#f0f0f0" fill-rule="nonzero"/><path d="M74.287 33.778v-.567l1.7.567v.567l-1.7-.567zM74.287 12.802v-.567l1.701-.567v.567l-1.701.567z" fill="#b4b4b4" fill-rule="nonzero"/><path d="M27.664 24.24v10.205h-2.409V24.24h2.409z" fill="#dcdcdc" fill-rule="nonzero"/><path d="M28.798 25.516v7.654h-4.677v-7.654h4.677z" fill="#303030" fill-rule="nonzero"/><path d="M28.791 26.296v1.352h-4.667v-1.352h4.667z" fill="#4d4d4d" fill-rule="nonzero"/><path d="M25.255 21.989V11.784h2.409v10.205h-2.409z" fill="#dcdcdc" fill-rule="nonzero"/><path d="M24.121 20.713v-7.654h4.677v7.654h-4.677z" fill="#303030" fill-rule="nonzero"/><path d="M24.128 19.934v-1.352h4.667v1.352h-4.667z" fill="#4d4d4d" fill-rule="nonzero"/><path d="M41.11 19.596c0-.352.286-.637.638-.637h12.897c.353 0 .638.285.638.637v12.898a.638.638 0 0 1-.638.638H41.748a.638.638 0 0 1-.638-.638V19.596z" fill="#333"/><path d="M43.368 20.61a.672.672 0 1 1-1.344 0 .672.672 0 0 1 1.344 0z" fill="#666"/><path d="M66.782 37.533h3.955c.16 0 .29.13.29.29v1.688c0 .16-.13.29-.29.29h-3.955a.29.29 0 0 1-.29-.29v-1.687a.29.29 0 0 1 .29-.291z" fill="#dcdcdc" fill-rule="nonzero"/><path d="M32.229 15.782h5.669v5.669h-5.669v-5.669z" fill="#9c8f6d" fill-rule="nonzero"/><path d="M32.654 16.619h4.754v4.147h-4.754v-4.147z" fill-rule="nonzero"/><path d="M66.782 6.213h3.955c.16 0 .29.13.29.29v1.688c0 .16-.13.29-.29.29h-3.955a.29.29 0 0 1-.29-.29V6.504a.29.29 0 0 1 .29-.291z" fill="#dcdcdc" fill-rule="nonzero"/><path d="M69.894 8.481h-2.268V6.213h2.268v2.268z" fill="#0f0" fill-rule="nonzero"/><path d="M68.76 6.993a.353.353 0 1 1 .001.707.353.353 0 0 1-.001-.707z" fill="#00b400"/><path d="M11.962 25.448h1.275v-9.922h-1.275v-1.417h-1.417v1.417H7.426v-1.417H6.009v1.417H4.733v9.922h1.276v1.417h1.417v-1.417h3.119v1.417h1.417v-1.417z" fill="#dcdcdc" fill-rule="nonzero"/><path d="M8.985 22.967a2.48 2.48 0 1 1 .002-4.962 2.48 2.48 0 0 1-.002 4.962z" fill="#1e1e1e"/><path d="M13.237 15.101v.567H4.733v-.567h8.504zM13.237 25.306v.567H4.733v-.567h8.504z" fill="#b4b4b4" fill-rule="nonzero"/><path d="M66.35 40.953h3.955c.16 0 .29.13.29.291v1.687c0 .16-.13.29-.29.29H66.35a.29.29 0 0 1-.29-.29v-1.687a.29.29 0 0 1 .29-.291z" fill="#dcdcdc" fill-rule="nonzero"/><path d="M69.461 43.221h-2.268v-2.268h2.268v2.268z" fill="#333" fill-rule="nonzero"/><path d="M66.422 2.793h3.955c.16 0 .29.13.29.291v1.687c0 .16-.13.29-.29.29h-3.955a.29.29 0 0 1-.29-.29V3.084a.29.29 0 0 1 .29-.291z" fill="#dcdcdc" fill-rule="nonzero"/><path d="M69.533 5.061h-2.268V2.793h2.268v2.268z" fill="#333" fill-rule="nonzero"/><path d="M21.98 22.334h-1.134V14.68h1.134v7.654zM16.594 22.334H15.46V14.68h1.134v7.654zM19.287 17.799h-1.134v-3.118h1.134v3.118z" fill="#dcdcdc" fill-rule="nonzero"/><path d="M22.83 20.775h-8.22V16.24h8.22v4.535z" fill="#303030" fill-rule="nonzero"/><path d="M19.124 9.335V8.314h.533c.185 0 .327.042.429.126.1.084.15.21.15.378v.009c0 .154-.05.278-.15.369-.102.093-.246.139-.438.139h-.524zm0 1.479V9.776h.47a.085.085 0 0 0 .029-.004l.627 1.042h.562l-.693-1.139a.966.966 0 0 0 .44-.309c.113-.14.169-.325.169-.552v-.016c0-.135-.021-.257-.063-.366a.823.823 0 0 0-.181-.282.893.893 0 0 0-.334-.205 1.342 1.342 0 0 0-.451-.072h-1.062v2.941h.487zM21.047 10.204l-.223.341c.129.106.266.184.41.235.145.05.284.075.418.075a.959.959 0 0 0 .298-.044.622.622 0 0 0 .462-.631v-.005a.532.532 0 0 0-.174-.406.995.995 0 0 0-.191-.138 3.132 3.132 0 0 0-.239-.119 3.063 3.063 0 0 1-.318-.161c-.08-.046-.119-.107-.119-.18v-.008c0-.062.024-.113.073-.155a.312.312 0 0 1 .208-.064c.09 0 .179.019.269.057.09.038.177.085.261.141l.201-.349a1.36 1.36 0 0 0-.346-.176 1.174 1.174 0 0 0-.377-.063.88.88 0 0 0-.289.046.704.704 0 0 0-.233.13.595.595 0 0 0-.212.475v.008c0 .093.016.172.048.237a.577.577 0 0 0 .132.175c.056.05.121.095.193.134.073.04.152.077.236.114a2.7 2.7 0 0 1 .317.155c.08.048.119.111.119.189v.005a.22.22 0 0 1-.081.173.349.349 0 0 1-.23.07.76.76 0 0 1-.304-.07 1.336 1.336 0 0 1-.309-.191zM23.777 8.588h-.5v-.601h-.475v.601h-.244v.407h.244v1.28c0 .11.015.202.044.274.03.073.07.131.122.175a.48.48 0 0 0 .183.093.82.82 0 0 0 .227.03.806.806 0 0 0 .395-.097v-.39a.558.558 0 0 1-.257.063.254.254 0 0 1-.176-.057c-.042-.038-.063-.1-.063-.186V8.995h.5v-.407zM29.367 11.06c.139 0 .268-.022.386-.067a.868.868 0 0 0 .504-.481.969.969 0 0 0 .071-.376v-.013a.762.762 0 0 0-.236-.577.834.834 0 0 0-.25-.155 1.453 1.453 0 0 0-.295-.082l.744-.853v-.382h-1.723v.441h1.113l-.713.851.063.306h.147c.204 0 .367.04.487.121.12.081.181.198.181.348v.013a.44.44 0 0 1-.139.34.494.494 0 0 1-.345.126.73.73 0 0 1-.363-.086 1.133 1.133 0 0 1-.271-.221l-.302.344c.109.121.242.217.396.292.156.074.337.111.545.111zM34.777 9.968l.832-1.18v1.18h-.832zm1.66.407v-.407h-.366V8.057h-.433l-1.398 1.966.067.352h1.302v.639h.462v-.639h.366zM39.664 8.258a1.41 1.41 0 0 0-.279.475 1.749 1.749 0 0 0-.099.598v.033c0 .227.033.433.099.616s.157.341.275.47c.117.13.259.231.424.3.165.071.347.106.546.106.21 0 .398-.035.565-.106.167-.069.313-.153.439-.252V9.18h-1.079v.429h.617v.649a.767.767 0 0 1-.231.114.937.937 0 0 1-.636-.029.753.753 0 0 1-.271-.208 1.01 1.01 0 0 1-.179-.335 1.433 1.433 0 0 1-.065-.446v-.025c0-.151.021-.291.063-.419.042-.128.1-.238.174-.33a.8.8 0 0 1 .265-.217.736.736 0 0 1 .334-.078c.151 0 .276.026.376.076.099.05.191.113.275.189l.29-.387a1.537 1.537 0 0 0-.414-.248 1.455 1.455 0 0 0-.519-.084c-.199 0-.38.038-.544.115a1.311 1.311 0 0 0-.426.312zM43.347 9.457v1.356h.475V9.322c0-.237-.061-.427-.181-.566-.121-.141-.289-.21-.504-.21a.596.596 0 0 0-.372.111.999.999 0 0 0-.237.258v-.327h-.474v2.225h.474V9.465c0-.154.038-.275.115-.361a.392.392 0 0 1 .305-.13c.126 0 .224.042.294.124.07.083.105.202.105.359zM45.316 9.016a.538.538 0 0 1 .171.143.693.693 0 0 1 .116.225.975.975 0 0 1 .042.296v.042a.975.975 0 0 1-.042.296.703.703 0 0 1-.116.225.535.535 0 0 1-.171.142.427.427 0 0 1-.405 0 .522.522 0 0 1-.164-.142.697.697 0 0 1-.112-.225 1.03 1.03 0 0 1-.04-.301v-.033c0-.227.05-.403.15-.529a.452.452 0 0 1 .571-.139m.207-.232a.745.745 0 0 0-.317-.206.776.776 0 0 0-.546.04.77.77 0 0 0-.277.211c-.08.094-.144.211-.192.353a1.567 1.567 0 0 0-.071.493v.055c0 .188.025.352.074.494.049.142.113.259.193.353.08.093.172.164.275.21a.808.808 0 0 0 .54.038.686.686 0 0 0 .319-.215c.044-.049.082-.1.115-.154v.358h.475V7.782h-.475v1.142a1.215 1.215 0 0 0-.113-.14zM48.097 10.372v-.835h.594c.186 0 .327.036.424.11a.361.361 0 0 1 .145.303v.009a.355.355 0 0 1-.147.307.674.674 0 0 1-.401.106h-.615zm0-1.243v-.815h.54c.16 0 .283.034.369.101a.348.348 0 0 1 .128.29v.009c0 .137-.048.24-.143.31a.631.631 0 0 1-.384.105h-.51zm.604 1.684c.157 0 .3-.017.429-.052a.951.951 0 0 0 .33-.155.733.733 0 0 0 .212-.252.744.744 0 0 0 .075-.341v-.017c0-.196-.052-.348-.157-.455a1.006 1.006 0 0 0-.401-.245c.056-.028.11-.062.161-.1a.64.64 0 0 0 .236-.321.74.74 0 0 0 .035-.24v-.013a.675.675 0 0 0-.197-.496.806.806 0 0 0-.317-.188 1.38 1.38 0 0 0-.435-.065h-1.05v2.94h1.079zM51.077 9.786c.068.016.131.035.187.058v.221a.41.41 0 0 1-.141.314.471.471 0 0 1-.153.088.56.56 0 0 1-.189.031.393.393 0 0 1-.259-.094c-.068-.06-.102-.146-.102-.259v-.007c0-.119.037-.21.113-.276a.475.475 0 0 1 .319-.098c.081 0 .156.007.225.022m-.33-.346c-.235 0-.425.06-.571.178-.145.119-.219.298-.219.536v.021c0 .109.019.206.055.29a.648.648 0 0 0 .147.212.661.661 0 0 0 .216.132.746.746 0 0 0 .263.046.731.731 0 0 0 .37-.086.722.722 0 0 0 .247-.229v.273h.467V9.432c0-.281-.075-.495-.223-.643-.146-.151-.364-.227-.655-.227a1.515 1.515 0 0 0-.735.176l.134.378c.073-.033.154-.063.244-.092a.98.98 0 0 1 .294-.042c.151 0 .269.038.353.114.084.075.126.189.126.339v.093a2.285 2.285 0 0 0-.233-.063 1.367 1.367 0 0 0-.28-.025M51.923 8.588v.407h.244v1.28c0 .11.014.202.044.274a.425.425 0 0 0 .304.268c.07.02.146.03.227.03a.798.798 0 0 0 .395-.097v-.39a.554.554 0 0 1-.256.063.255.255 0 0 1-.177-.057c-.042-.038-.063-.1-.063-.186V8.995h.5v-.407h-.5v-.601h-.474v.601h-.244zM20.598 37.541a.838.838 0 0 0 .199-.292.934.934 0 0 0 .072-.376v-.013a.796.796 0 0 0-.065-.336.771.771 0 0 0-.172-.241.798.798 0 0 0-.25-.155 1.366 1.366 0 0 0-.294-.082l.743-.853v-.382H19.11v.441h1.113l-.715.851.064.306h.147c.203 0 .366.04.486.121a.392.392 0 0 1 .181.348v.013a.437.437 0 0 1-.138.339.496.496 0 0 1-.345.126.723.723 0 0 1-.364-.086 1.12 1.12 0 0 1-.27-.22l-.302.344c.11.121.241.217.397.292.155.074.336.111.544.111.139 0 .268-.023.385-.068a.87.87 0 0 0 .305-.188zM21.078 34.811l1.021 2.957h.45l1.016-2.957h-.512l-.723 2.223-.723-2.223h-.529zM29.025 34.908a1.49 1.49 0 0 0-.409.391l.323.298c.099-.126.19-.22.279-.284a.525.525 0 0 1 .309-.093.45.45 0 0 1 .305.108c.083.073.124.177.124.311a.583.583 0 0 1-.026.172.724.724 0 0 1-.078.172c-.035.06-.081.122-.139.19a4.086 4.086 0 0 1-.21.23l-.9.962v.387h1.86v-.442h-1.212l.587-.637c.106-.107.198-.203.275-.29.077-.087.141-.172.191-.254a.986.986 0 0 0 .148-.524v-.008a.855.855 0 0 0-.067-.342.729.729 0 0 0-.181-.26.826.826 0 0 0-.28-.166 1.037 1.037 0 0 0-.355-.06c-.213 0-.395.047-.544.139zM35.319 34.79l-.681.227.08.419.462-.138v2.453h.484V34.79h-.345zM42.984 37.283a.61.61 0 0 1-.197-.211 1.102 1.102 0 0 1-.126-.333 1.99 1.99 0 0 1-.045-.444v-.034c0-.332.056-.59.169-.776.112-.185.26-.278.445-.278.092 0 .176.024.252.073.075.05.141.12.195.211.055.092.097.203.126.335.03.133.044.28.044.443v.034c0 .332-.055.59-.166.776-.111.185-.258.278-.443.278a.457.457 0 0 1-.254-.074zm1.059.102c.096-.131.171-.288.224-.471a2.2 2.2 0 0 0 .08-.611v-.046c0-.224-.027-.428-.08-.612a1.475 1.475 0 0 0-.224-.47.971.971 0 0 0-.805-.41.967.967 0 0 0-.462.11 1.05 1.05 0 0 0-.351.304c-.096.13-.171.288-.224.473-.053.185-.08.388-.08.609v.046c0 .224.026.428.078.611.052.183.126.341.222.47.097.13.213.232.349.303a.975.975 0 0 0 .46.107.959.959 0 0 0 .462-.11c.137-.072.254-.174.351-.303zM49.217 37.501c.095-.1.169-.223.221-.369.051-.148.077-.32.077-.52v-1.801h-.483v1.832c0 .234-.054.411-.164.528a.57.57 0 0 1-.441.177.566.566 0 0 1-.447-.183c-.108-.122-.161-.302-.161-.54v-1.814h-.488v1.819c0 .193.026.362.078.508a.99.99 0 0 0 .221.365.894.894 0 0 0 .342.221c.133.048.282.073.447.073.165 0 .316-.025.452-.073a.88.88 0 0 0 .346-.223zM50.161 35.004a.787.787 0 0 0-.263.593v.008a.7.7 0 0 0 .217.54c.071.068.159.13.264.184.105.055.228.109.368.162.118.042.213.082.286.119a.89.89 0 0 1 .17.114.316.316 0 0 1 .107.246v.004a.34.34 0 0 1-.124.269.506.506 0 0 1-.338.105.863.863 0 0 1-.422-.101 1.747 1.747 0 0 1-.351-.248l-.294.365c.16.149.329.257.508.324s.364.101.555.101c.137 0 .263-.02.379-.061a.913.913 0 0 0 .303-.17.746.746 0 0 0 .199-.267.83.83 0 0 0 .072-.35v-.009a.77.77 0 0 0-.049-.285.668.668 0 0 0-.147-.23 1.037 1.037 0 0 0-.247-.186 2.926 2.926 0 0 0-.355-.165 2.657 2.657 0 0 1-.307-.131.947.947 0 0 1-.184-.119.306.306 0 0 1-.093-.119.364.364 0 0 1-.025-.138v-.004c0-.099.038-.18.113-.244a.47.47 0 0 1 .315-.097c.118 0 .232.026.343.078.11.052.216.118.317.199l.277-.374a1.357 1.357 0 0 0-.924-.343c-.137 0-.263.02-.376.06a.926.926 0 0 0-.294.17zM52.657 37.31v-.835h.594c.186 0 .327.036.424.11a.361.361 0 0 1 .145.303v.009a.355.355 0 0 1-.147.307.674.674 0 0 1-.401.106h-.615zm0-1.243v-.815h.54c.16 0 .283.034.369.101a.348.348 0 0 1 .128.29v.009c0 .137-.048.24-.143.31a.631.631 0 0 1-.384.105h-.51zm.604 1.684c.157 0 .3-.017.429-.052a.951.951 0 0 0 .33-.155.733.733 0 0 0 .212-.252.744.744 0 0 0 .075-.341v-.017c0-.196-.052-.348-.157-.455a1.006 1.006 0 0 0-.401-.245c.056-.028.11-.062.161-.1a.64.64 0 0 0 .236-.321.74.74 0 0 0 .035-.24v-.013a.675.675 0 0 0-.197-.496.806.806 0 0 0-.317-.188 1.38 1.38 0 0 0-.435-.065h-1.05v2.94h1.079zM61.757 7.358a.677.677 0 0 1-.227-.191.927.927 0 0 1-.15-.298 1.293 1.293 0 0 1-.054-.385v-.026c0-.142.017-.271.052-.386a.916.916 0 0 1 .147-.295.664.664 0 0 1 .224-.189.617.617 0 0 1 .285-.067c.105 0 .202.022.289.067a.678.678 0 0 1 .227.191.92.92 0 0 1 .148.299c.035.116.053.244.053.384v.026c0 .143-.018.271-.053.387a.94.94 0 0 1-.146.294.677.677 0 0 1-.225.189.617.617 0 0 1-.285.068.611.611 0 0 1-.285-.068zm.75.37a1.08 1.08 0 0 0 .367-.278c.103-.118.183-.26.24-.424.058-.163.087-.343.087-.538v-.037c0-.195-.028-.374-.085-.536a1.233 1.233 0 0 0-.238-.42 1.078 1.078 0 0 0-.836-.375 1.09 1.09 0 0 0-.84.376c-.103.119-.183.26-.24.424a1.602 1.602 0 0 0-.086.538v.038c0 .195.028.374.084.536.056.162.135.303.238.42a1.097 1.097 0 0 0 .836.375c.173 0 .33-.033.473-.099M63.879 6.091v-.292h-.423v1.987h.423V6.582c0-.137.035-.245.104-.323a.345.345 0 0 1 .271-.116c.113 0 .2.037.263.111a.486.486 0 0 1 .093.32v1.212h.424V6.455c0-.213-.053-.382-.161-.507a.563.563 0 0 0-.45-.187.53.53 0 0 0-.332.099.876.876 0 0 0-.212.231zM62.781 37.596l-.607.202.071.375.412-.123v2.19h.432v-2.644h-.308zM64.827 40.052a.748.748 0 0 0 .178-.261.844.844 0 0 0 .064-.335v-.011a.668.668 0 0 0-.435-.655 1.405 1.405 0 0 0-.263-.073l.664-.761v-.342h-1.537v.394h.994l-.638.76.056.273h.131c.183 0 .328.036.435.109a.35.35 0 0 1 .162.31v.012a.388.388 0 0 1-.124.303.44.44 0 0 1-.308.112.642.642 0 0 1-.324-.076 1.026 1.026 0 0 1-.242-.197l-.27.307c.098.108.216.194.354.261.139.066.301.099.486.099.125 0 .24-.02.345-.06a.797.797 0 0 0 .272-.169zM34.425 29.9c-.174-.341-.202-.674-.064-.743.137-.07.389.147.562.486.174.341.202.673.065.743-.137.071-.389-.147-.563-.486zm-1.606.145c-.11-.11.019-.416.29-.686.268-.271.576-.4.685-.291.11.108-.02.416-.29.686-.268.27-.576.4-.685.291m1.8-1.4c-.023-.152.262-.324.638-.385.377-.059.701.016.727.168.023.154-.261.326-.638.386s-.701-.016-.727-.169m-1.658-.206c-.34-.174-.557-.426-.487-.563.069-.138.401-.111.741.063.341.173.559.425.488.563-.07.137-.402.11-.742-.063m1.084-.924c.06-.377.232-.663.385-.638.151.024.227.348.169.725-.06.378-.232.662-.385.639-.152-.025-.228-.35-.169-.726m2.649 5.33l-.009-1.609s.047-.993-.64-1.495a4.14 4.14 0 0 0-.301-.202c.118.047.233.09.34.124.811.258 1.584-.365 1.584-.365l1.306-.94c.223-.161.309-.249.277-.45-.032-.2-.14-.257-.403-.341l-1.532-.489s-.931-.352-1.62.145a5.577 5.577 0 0 0-.286.225 4.54 4.54 0 0 0 .224-.286c.495-.691.144-1.619.144-1.619s-.427-1.334-.493-1.534c-.085-.261-.141-.37-.341-.401-.201-.032-.289.054-.45.276l-.938 1.308s-.621.776-.361 1.586c.034.108.077.224.125.341a4.523 4.523 0 0 0-.204-.302c-.503-.685-1.496-.637-1.496-.637l-1.61-.006c-.274-.001-.396.021-.487.202-.091.18-.037.291.126.512l.953 1.297s.546.83 1.394.834c.115 0 .237-.005.363-.014a5.702 5.702 0 0 0-.349.1c-.806.268-1.066 1.227-1.066 1.227s-.439 1.33-.503 1.529c-.086.261-.104.383.04.525.143.144.264.126.525.04.199-.064 1.528-.505 1.528-.505s.958-.263 1.224-1.071c.036-.107.069-.224.101-.347a4.14 4.14 0 0 0-.013.362c.005.848.836 1.393.836 1.393l1.298.952c.222.162.333.215.513.124.181-.092.202-.213.201-.489M42.733 16.439c.062.014.118.031.169.051v.202a.37.37 0 0 1-.127.283.444.444 0 0 1-.139.08.507.507 0 0 1-.171.028.356.356 0 0 1-.234-.085.296.296 0 0 1-.093-.234v-.008c0-.106.034-.189.103-.249a.426.426 0 0 1 .288-.089c.074 0 .142.007.204.021m-.298-.313c-.213 0-.386.053-.517.161-.132.108-.198.269-.198.485v.019c0 .098.016.186.05.262a.562.562 0 0 0 .328.311.674.674 0 0 0 .238.042.665.665 0 0 0 .334-.078.654.654 0 0 0 .224-.207v.247h.422v-1.25c0-.253-.067-.447-.201-.581-.132-.137-.33-.205-.593-.205a1.37 1.37 0 0 0-.665.159l.122.342c.066-.03.139-.058.22-.083a.868.868 0 0 1 .266-.039c.137 0 .243.035.319.103.076.068.114.171.114.308v.084a1.25 1.25 0 0 0-.463-.08M44.74 15.742c.059.03.11.074.155.129a.654.654 0 0 1 .105.204.89.89 0 0 1 .038.268v.038a.887.887 0 0 1-.038.267.654.654 0 0 1-.105.204.486.486 0 0 1-.155.129.394.394 0 0 1-.366 0 .477.477 0 0 1-.149-.129.628.628 0 0 1-.101-.204.936.936 0 0 1-.036-.271v-.031c0-.205.045-.365.135-.479a.41.41 0 0 1 .517-.125m.06-.321a.615.615 0 0 0-.359-.104.702.702 0 0 0-.545.256.943.943 0 0 0-.173.319 1.404 1.404 0 0 0-.065.447v.049c0 .17.022.319.067.447a.963.963 0 0 0 .175.319.697.697 0 0 0 .737.224.58.58 0 0 0 .16-.078.782.782 0 0 0 .129-.116.987.987 0 0 0 .104-.139v.323h.43v-2.743h-.43v1.034a1.179 1.179 0 0 0-.103-.128.702.702 0 0 0-.127-.11zM46.807 16.439c.062.014.118.031.169.051v.202a.37.37 0 0 1-.127.283.444.444 0 0 1-.139.08.507.507 0 0 1-.171.028.356.356 0 0 1-.234-.085.296.296 0 0 1-.093-.234v-.008c0-.106.034-.189.103-.249a.426.426 0 0 1 .288-.089c.074 0 .142.007.204.021m-.298-.313c-.213 0-.386.053-.517.161-.132.108-.198.269-.198.485v.019c0 .098.016.186.05.262a.562.562 0 0 0 .328.311.674.674 0 0 0 .238.042.665.665 0 0 0 .334-.078.654.654 0 0 0 .224-.207v.247h.422v-1.25c0-.253-.067-.447-.201-.581-.132-.137-.33-.205-.593-.205a1.37 1.37 0 0 0-.665.159l.122.342c.066-.03.139-.058.22-.083a.868.868 0 0 1 .266-.039c.137 0 .243.035.319.103.076.068.114.171.114.308v.084a1.25 1.25 0 0 0-.463-.08M47.883 15.21v.156h-.224v.357h.224v1.645h.429v-1.645h.441v-.357h-.445v-.114c0-.185.08-.278.24-.278.038 0 .073.004.106.01s.067.014.103.024v-.36a1.032 1.032 0 0 0-.304-.042c-.18 0-.32.048-.422.144-.099.099-.148.252-.148.46zM48.996 15.354v2.014h.429v-.889c0-.23.054-.403.162-.517a.557.557 0 0 1 .424-.171h.019v-.467a.534.534 0 0 0-.377.108.775.775 0 0 0-.228.318v-.396h-.429zM51.093 17.38a.581.581 0 0 0 .268-.177.858.858 0 0 0 .095-.127v.293h.429v-2.014h-.429v1.219c0 .14-.035.249-.105.327a.347.347 0 0 1-.275.118.323.323 0 0 1-.264-.112.498.498 0 0 1-.093-.325v-1.227h-.43v1.349c0 .218.054.389.162.515.107.125.26.188.458.188.068 0 .13-.009.184-.027zM52.773 17.369v-2.014h-.429v2.014h.429zM52.785 15.062v-.422h-.456v.422h.456zM53.083 15.354v.369h.22v1.159a.68.68 0 0 0 .04.247.402.402 0 0 0 .276.243.743.743 0 0 0 .205.026.778.778 0 0 0 .196-.022.754.754 0 0 0 .161-.065v-.353a.5.5 0 0 1-.232.057.226.226 0 0 1-.159-.052c-.038-.034-.057-.09-.057-.169v-1.071h.452v-.369h-.452v-.543h-.43v.543h-.22zM3.988 10.658V8.093h-.54v.975H.488v.615h2.96v.975h.54z" fill="#fff" fill-rule="nonzero"/><path d="M2.618 10.88h.521v-.599H.488v.599h1.17c.304 0 .53.075.681.226a.8.8 0 0 1 .224.59v.027h.616a.79.79 0 0 0-.143-.525 1.015 1.015 0 0 0-.418-.318zM3.523 11.881v.636h.555v-.636h-.555zM.488 11.903v.599h2.65v-.599H.488zM3.189 14.187a.775.775 0 0 0-.133-.469 1.196 1.196 0 0 0-.307-.3h.39v-.598H.489v.598h1.605c.183 0 .326.049.43.146a.507.507 0 0 1 .155.385c0 .158-.05.282-.147.37-.099.089-.241.133-.428.133H.489v.599h1.775c.283 0 .508-.076.675-.228.167-.152.25-.364.25-.636zM3.139 17.6v-.71l-1.165-.959h2.125v-.599H.489v.599h.765l.369.323-1.134.679v.694l1.57-.96 1.08.933z" fill="#fff" fill-rule="nonzero"/><path d="M1.988 18.03c.227.021.404.085.533.192a.513.513 0 0 1 .193.41.472.472 0 0 1-.205.408 1.04 1.04 0 0 1-.521.172V18.03zm.803 1.468a1.047 1.047 0 0 0 .397-.869 1.13 1.13 0 0 0-.385-.859 1.31 1.31 0 0 0-.43-.249 1.61 1.61 0 0 0-.55-.09h-.04c-.206 0-.393.033-.56.099a1.22 1.22 0 0 0-.695.685 1.333 1.333 0 0 0-.095.504c0 .212.037.397.112.557.074.158.174.301.302.429l.351-.313a1.192 1.192 0 0 1-.205-.292.796.796 0 0 1-.074-.355c0-.183.057-.34.173-.471.116-.131.285-.211.506-.239v1.754c.04.004.078.006.116.006h.08c.199 0 .384-.025.554-.075.17-.049.318-.123.443-.222zM3.854 20.727v-.599h-.715v-.307h-.485v.307H1.129a.813.813 0 0 0-.325.056.52.52 0 0 0-.208.153.615.615 0 0 0-.112.231 1.088 1.088 0 0 0-.035.286 1.014 1.014 0 0 0 .115.498h.465a.726.726 0 0 1-.075-.323c0-.095.022-.17.068-.222.045-.054.119-.08.222-.08h1.41v.631h.485v-.631h.715zM2.379 24.395l1.609-.954V22.8h-3.5v.599h2.465l-1.609.98v.016l1.62.986H.488v.61h3.5v-.647l-1.609-.949zM2.214 28.386c-.396 0-.703-.07-.924-.21-.221-.14-.331-.325-.331-.559 0-.117.028-.223.087-.321a.776.776 0 0 1 .251-.249c.109-.068.241-.121.396-.158a2.32 2.32 0 0 1 .531-.056h.04c.394 0 .703.071.924.212.22.141.331.328.331.562 0 .116-.03.222-.088.318a.788.788 0 0 1-.251.246 1.296 1.296 0 0 1-.4.159 2.3 2.3 0 0 1-.526.056h-.04zm1.342.246c.155-.122.275-.268.36-.439.085-.172.128-.364.128-.576 0-.215-.044-.41-.131-.583a1.286 1.286 0 0 0-.362-.442 1.684 1.684 0 0 0-.563-.284 2.474 2.474 0 0 0-.724-.101h-.055c-.267 0-.51.033-.727.099a1.641 1.641 0 0 0-.561.28 1.286 1.286 0 0 0-.36.441 1.284 1.284 0 0 0-.127.58c0 .216.043.41.13.583.087.173.208.32.362.442.155.122.342.217.56.283.218.068.461.102.728.102h.055c.266 0 .508-.034.727-.102.218-.066.405-.161.56-.283zM36.829 35.334c-.385 0-.521.521-.667 1.076l.343.089c.063-.243.213-.811.324-.811.112 0 .268.59.325.812.146.554.282 1.077.668 1.077.385 0 .522-.523.667-1.077a.177.177 0 0 0-.343-.09c-.058.223-.213.814-.324.814-.112 0-.266-.591-.325-.814-.146-.554-.282-1.076-.668-1.076z" fill="#fff" fill-rule="nonzero"/></svg>