<svg id="Capa_2" data-name="Capa 2" xmlns="http://www.w3.org/2000/svg" xmlns:xlink="http://www.w3.org/1999/xlink" viewBox="0 0 524.47 827.97"><defs><style>.cls-1{fill:#5a5a5a;}.cls-2{fill:#d9edfc;}.cls-3{fill:#f3ea62;}.cls-4{fill:#dcd6e7;}.cls-5{fill:#696b5e;}.cls-6{fill:#fff4a7;}.cls-7{fill:#29292c;}.cls-8{fill:#dcd7e6;}.cls-36,.cls-40,.cls-42,.cls-43,.cls-44,.cls-9{fill:#fff;}.cls-10{fill:#1d893c;}.cls-11{opacity:0.8;}.cls-12{fill:none;stroke:#2b2b1a;stroke-miterlimit:10;stroke-width:2px;}.cls-13{fill:#333331;}.cls-14{fill:#99191d;}.cls-15{fill:#9b9990;}.cls-16{fill:#191a16;}.cls-17{fill:#e30613;}.cls-18{fill:#e6262e;}.cls-19{fill:#999;}.cls-20{fill:#cdcccc;}.cls-21{fill:#222249;}.cls-22{fill:#2d2e83;}.cls-23{fill:#404a99;}.cls-24{fill:#998619;}.cls-25{fill:#ccb802;}.cls-26{fill:#ffed00;}.cls-27{fill:#02672f;}.cls-28{fill:#00993d;}.cls-29{fill:#4baf52;}.cls-30{fill:#191919;}.cls-31{fill:#6bb651;}.cls-32{fill:#4f7f39;}.cls-33{fill:#63a549;}.cls-34{fill:#4b4c44;}.cls-35{fill:#c9b046;}.cls-36{font-size:16.19px;}.cls-36,.cls-40,.cls-42,.cls-43,.cls-44{font-family:Verdana;}.cls-36,.cls-40{font-weight:700;}.cls-37{fill:#dbdcdb;}.cls-38{fill:#adaca5;}.cls-39{fill:#4c4a4a;}.cls-40{font-size:18.57px;}.cls-41{font-size:13.5px;}.cls-42{font-size:13.42px;}.cls-43{font-size:20.13px;}.cls-44{font-size:16.78px;}.cls-45{fill:#5c5956;}.cls-46{fill:#ae9461;}.cls-47{fill:#fcf3bb;}.cls-48{fill:#fcfcf1;}.cls-49{fill:#1b1a19;}.cls-50{fill:#a6a59c;}.cls-51{fill:#676767;}</style><symbol id="Conq" data-name="Conq" viewBox="0 0 13.55 13.55"><path class="cls-5" d="M0,0H6.78a6.78,6.78,0,0,1,6.78,6.78v0a6.78,6.78,0,0,1-6.78,6.78H0a0,0,0,0,1,0,0V0A0,0,0,0,1,0,0Z"/><path class="cls-3" d="M0,4.3H7.5A1.16,1.16,0,0,1,8.67,5.46V8.09A1.16,1.16,0,0,1,7.5,9.25H0a0,0,0,0,1,0,0v-5A0,0,0,0,1,0,4.3Z"/></symbol><symbol id="Base" data-name="Base" viewBox="0 0 68.67 68.67"><rect class="cls-1" width="68.67" height="68.67" rx="5.67" ry="5.67"/><path class="cls-2" d="M65,49.36V19.31l1.77-.47V7.27A5.37,5.37,0,0,0,61.4,1.92H49.8L49.36,3.57H19.31L18.86,1.92H7.27A5.37,5.37,0,0,0,1.92,7.27V18.83l1.77,0.47V49.36l-1.77.47V61.4a5.37,5.37,0,0,0,5.35,5.35H18.83L19.31,65H49.36l0.47,1.77H61.4a5.37,5.37,0,0,0,5.35-5.35V49.83Z"/><circle class="cls-1" cx="9.38" cy="10.21" r="3.63"/><circle class="cls-1" cx="59.25" cy="10.21" r="3.63"/><circle class="cls-1" cx="9.38" cy="59.83" r="3.63"/><circle class="cls-1" cx="59.25" cy="59.83" r="3.63"/><circle class="cls-1" cx="34.33" cy="34.33" r="19.75"/></symbol><symbol id="R1" data-name="R1" viewBox="0 0 17.94 8.56"><path class="cls-7" d="M11.38,0V0.56H6.56V0H1.11A1.11,1.11,0,0,0,0,1.11V7.45A1.11,1.11,0,0,0,1.11,8.56H6.56V8h4.81V8.56h5.45a1.11,1.11,0,0,0,1.11-1.11V1.11A1.11,1.11,0,0,0,16.82,0H11.38Z"/><rect class="cls-8" x="13.63" y="1.14" width="2.13" height="6.28"/><rect class="cls-8" x="2.06" y="1.14" width="2.13" height="6.28"/></symbol><symbol id="Led" data-name="Led" viewBox="0 0 12.88 12.88"><circle class="cls-3" cx="6.44" cy="6.44" r="6.44"/><circle class="cls-6" cx="7.59" cy="5.35" r="2.04"/></symbol><symbol id="C1" data-name="C1" viewBox="0 0 16.5 7.17"><rect class="cls-3" x="2.95" y="0.23" width="10.6" height="6.71"/><path class="cls-4" d="M3,0V7.17H1a1,1,0,0,1-1-1V1A1,1,0,0,1,1,0H3Z"/><path class="cls-4" d="M16.5,1V6.17a1,1,0,0,1-1,1h-2V0h2A1,1,0,0,1,16.5,1Z"/></symbol><symbol id="conexxion" data-name="conexxion" viewBox="0 0 12.75 23.63"><path class="cls-5" d="M5.12,0h2.5a5.12,5.12,0,0,1,5.12,5.12v18.5a0,0,0,0,1,0,0H0a0,0,0,0,1,0,0V5.12A5.12,5.12,0,0,1,5.12,0Z"/><path class="cls-9" d="M6.44,5.28h0a5.13,5.13,0,0,1,5.13,5.13V23.63a0,0,0,0,1,0,0H1.31a0,0,0,0,1,0,0V10.4A5.13,5.13,0,0,1,6.44,5.28Z"/></symbol></defs><title>Makech</title><rect class="cls-10" x="5.27" width="514.19" height="827.97" rx="12" ry="12"/><g class="cls-11"><polyline class="cls-12" points="175.29 139.76 272.24 139.76 292.24 157.75 348.41 157.75"/><polyline class="cls-12" points="179.88 145.16 268.65 145.16 288.64 163.15 344.81 163.15"/><polyline class="cls-12" points="176.29 150.56 265.05 150.56 285.04 168.55 341.21 168.55"/><polyline class="cls-12" points="331.32 197.13 331.32 229.72 324.87 236.17 218.57 236.17 211.9 242.84 211.9 377.24"/><polyline class="cls-12" points="327.72 197.13 327.72 226.12 321.27 232.57 214.97 232.57 208.3 239.24 208.3 377.24"/><polyline class="cls-12" points="324.12 197.13 324.12 222.52 317.67 228.97 211.37 228.97 204.7 235.64 204.7 377.24"/><polyline class="cls-12" points="315.13 197.13 315.13 213.53 308.68 219.97 202.38 219.97 195.7 226.65 195.7 367.13"/><polyline class="cls-12" points="311.53 195.28 311.53 209.93 305.08 216.38 198.78 216.38 192.1 223.05 192.1 367.13"/><polyline class="cls-12" points="169.44 202.41 169.44 374.86 176.84 382.25 425.93 382.25 437.72 370.46 437.72 340.07"/><polyline class="cls-12" points="162.52 208.37 162.52 378.43 170.3 386.21 432.24 386.21 444.64 373.8 444.64 341.85"/><polyline class="cls-12" points="154.7 214.13 154.7 382.47 162.91 390.68 439.37 390.68 452.46 377.59 452.46 343.86"/><polyline class="cls-12" points="311.53 400.35 331.32 400.35 349.46 418.49 349.46 496.3 341.14 504.62 211.9 504.62 166.63 546.29"/><polyline class="cls-12" points="307.93 404.84 327.72 404.84 345.86 421.53 345.86 493.11 337.54 500.77 208.3 500.77 166.63 539.1"/><polyline class="cls-12" points="323.52 781.18 376 781.18 388.74 768.43 388.74 485.81 381.1 485.81 381.1 445.87"/><polyline class="cls-12" points="385.22 446.38 385.22 476.77 390.65 476.77 397.29 483.41 397.29 768.88 378.32 787.85 324.05 787.85"/><polyline class="cls-12" points="467.16 532.29 467.16 457.92 455.61 446.38 404.49 446.38"/><polyline class="cls-12" points="472.56 532.29 472.56 452.52 461.01 440.98 404.49 440.98"/><polyline class="cls-12" points="356.13 537.31 361.23 532.21 361.23 404.84 426.38 404.84 431.89 410.35 450.89 410.35 456.68 404.56 456.68 376.95 452.46 372.74"/><polyline class="cls-12" points="357.93 542.71 364.83 535.81 364.83 408.44 422.78 408.44 428.29 413.95 454.49 413.95 460.28 408.16 460.28 371.56 452.81 364.09"/><polyline class="cls-12" points="332.86 390.64 355.31 413.09 355.31 506.5 343.32 518.48 274.94 518.48"/><polyline class="cls-12" points="349.46 496.3 349.46 505.45 340.76 514.14 270.89 514.14"/><polyline class="cls-12" points="364.83 510.32 371.65 517.14 371.65 624.8 364.42 632.03 333.49 632.03 322.34 620.88"/><polyline class="cls-12" points="364.83 499.98 377.27 512.42 377.27 627.27 365.5 639.04 332.14 639.04 321.08 627.98"/><polyline class="cls-12" points="203.43 484.16 104.17 484.16 98.62 489.7 98.62 528.99"/><polyline class="cls-12" points="92.62 529.89 92.62 487.46 100.87 479.21 203.43 479.21"/><polyline class="cls-12" points="198.18 460.32 184.61 473.89 151.77 473.89 133.42 455.54"/><polyline class="cls-12" points="194.73 455.97 181.91 468.79 151.38 468.79 139.73 457.14"/><polyline class="cls-12" points="145.28 462.69 150.56 457.4 150.56 418.94 141.31 409.68"/><polyline class="cls-12" points="151.38 468.79 158.94 461.23 158.94 416.54 148.27 405.87 138.2 405.87"/><line class="cls-12" x1="313.03" y1="47.55" x2="358.36" y2="47.55"/><line class="cls-12" x1="313.03" y1="51.9" x2="357.25" y2="51.9"/><line class="cls-12" x1="313.03" y1="57.9" x2="357.25" y2="57.9"/><polyline class="cls-12" points="413.93 50.1 422.48 50.1 431.4 59.02 431.4 81.89 415.32 97.97 415.32 144.86 406.53 153.65 369.85 153.65"/><polyline class="cls-12" points="369.85 158.65 411.68 158.65 422.1 148.23 422.1 120.42 427.61 114.91 462.67 114.91"/><polyline class="cls-12" points="462.6 108.42 426.98 108.42 415.3 120.1"/><polyline class="cls-12" points="408 60.68 375.62 93.06 334.17 93.06 328.66 98.57 328.66 114.91 333.33 119.58 333.33 132.11"/><polyline class="cls-12" points="329.37 133.61 329.37 121.62 323.75 116 323.75 97.63 332.86 88.52 372.25 88.52 398.58 62.2"/><polyline class="cls-12" points="389.19 59.55 365.05 83.69 331.77 83.69 320 95.45 320 118.47 324.8 123.27 324.8 132.71"/><polyline class="cls-12" points="165.61 127.77 304.48 127.77 323.48 146.77"/><polyline class="cls-12" points="375.62 93.06 390.39 93.06 400.29 102.95 400.29 153.65"/><polyline class="cls-12" points="337.92 132.11 337.92 117.57 332.82 112.47 332.82 101.23 336.79 97.25 386.64 97.25 395.75 106.36 395.75 153.65"/><polyline class="cls-12" points="413.03 57.15 421.13 57.15 425.4 61.42 425.4 78.89 410 94.29 410 123.35 415.16 128.52"/><path class="cls-12" d="M513,208.72v33.91l4.27,4.27h15.26a3.41,3.41,0,0,1,3.41,3.41h0a3.41,3.41,0,0,1-3.41,3.41H513l-6.37-6.37V209.1" transform="translate(-39.42 -11.11)"/><path class="cls-12" d="M477.14,365.87s-6.57,4.15-6.57,6.57v9.92l-6,6H211.24" transform="translate(-39.42 -11.11)"/><polyline class="cls-12" points="169.44 367.13 245.26 367.13 251.44 360.95 251.44 314.72"/><polyline class="cls-12" points="154.7 272.6 148.7 266.6 97.87 266.6 97.87 207.47"/><path class="cls-12" d="M125.14,206v75.78h40.7a5.31,5.31,0,0,1,3.76,9.07H135.09a4.37,4.37,0,0,0-3.09,7.46h29.12l21.65,21.65" transform="translate(-39.42 -11.11)"/><polyline class="cls-12" points="48.54 220.55 69.98 220.55 79.59 230.16 79.59 284.33 91.26 296 115.86 296 124.07 304.2 124.07 322.98"/><polyline class="cls-12" points="28.36 515.26 38.12 525.01 78.53 525.01 88.46 515.08 88.46 443.08 97.97 433.57 81.38 416.99 64.29 416.99"/><path class="cls-12" d="M120.8,428.1h15.74L146.66,418V403.24a2.74,2.74,0,0,0-2.74-2.74h0a2.74,2.74,0,0,0-2.74,2.74V414.3l-7.87,7.87H104.15" transform="translate(-39.42 -11.11)"/><path class="cls-12" d="M59.17,414.3l7.95-7.95h39.43l9.47-9.47V322.08a3.59,3.59,0,0,1,3.59-3.59h0a3.59,3.59,0,0,1,3.59,3.59v76.78l-18.58,18.58" transform="translate(-39.42 -11.11)"/><path class="cls-12" d="M472.09,298.78H388.2L383,304v46.55a2.92,2.92,0,0,1-2.92,2.92h0a2.92,2.92,0,0,1-2.92-2.92V298.78l6.52-6.52h88.38" transform="translate(-39.42 -11.11)"/><polyline class="cls-12" points="344.29 281.15 333.27 281.15 327.12 287.3 327.12 377.24"/><path class="cls-12" d="M359,388.35V260.77l8.13-8.13h5.45a3.73,3.73,0,0,0,3.73-3.73V215.12" transform="translate(-39.42 -11.11)"/><polyline class="cls-12" points="319.55 259.33 332.82 272.6 401.04 272.6 411.91 261.73 411.91 217.73 403.7 209.52 365.35 209.52"/><polyline class="cls-12" points="352.91 210.53 352.91 248.16 361.53 256.78 361.53 263.15 366.7 263.15 366.7 253.71 358.01 245.01 358.01 210.53"/><path class="cls-12" d="M406.12,274.26h7.13a3.69,3.69,0,0,0,2.73-6.18l-13.05-14.31V221.64" transform="translate(-39.42 -11.11)"/><polyline class="cls-12" points="329.33 255.96 342.83 242.47 342.83 204.01"/><path class="cls-12" d="M412,263.73h12.53l9.68-9.68a1.24,1.24,0,0,1,2.11.88v16.76l8.08,8.08" transform="translate(-39.42 -11.11)"/><polyline class="cls-12" points="391.03 246.7 374.65 246.7 363.25 235.3"/><polyline class="cls-12" points="384.32 209.52 384.32 216.6 399.16 216.6 404.95 222.39 404.95 254.38 412.1 261.53"/><path class="cls-12" d="M448,276.21l-7.57-7.57v-22H422a1.84,1.84,0,0,0-1.84,1.84h0a1.84,1.84,0,0,0,1.84,1.84h14.3l0,4.61" transform="translate(-39.42 -11.11)"/><polyline class="cls-12" points="371.35 184.22 395.94 184.22 401.68 189.95 418.95 189.95 418.95 213.28"/><polyline class="cls-12" points="371.88 178.82 399.01 178.82 405.42 185.23 418.5 185.23 418.5 160.75 423.64 155.62 456.29 155.62"/><polyline class="cls-12" points="454.83 163.15 427.39 163.15 424.52 166.02 424.52 219.64"/></g><circle class="cls-13" cx="131.3" cy="165.36" r="56.06"/><use width="13.55" height="13.55" transform="translate(323.41 556.58) scale(1.13 1.8)" xlink:href="#Conq"/><use width="13.55" height="13.55" transform="translate(323.91 605.39) scale(1.09 1.8)" xlink:href="#Conq"/><use width="13.55" height="13.55" transform="translate(200.94 629.78) rotate(180) scale(1.07 1.8)" xlink:href="#Conq"/><use width="13.55" height="13.55" transform="translate(200.64 580.97) rotate(180) scale(1.04 1.8)" xlink:href="#Conq"/><use width="13.55" height="13.55" transform="translate(323.41 723.17) scale(1.13 1.8)" xlink:href="#Conq"/><use width="13.55" height="13.55" transform="translate(323.91 771.99) scale(1.09 1.8)" xlink:href="#Conq"/><use width="13.55" height="13.55" transform="translate(200.94 796.37) rotate(180) scale(1.07 1.8)" xlink:href="#Conq"/><use width="13.55" height="13.55" transform="translate(200.64 747.56) rotate(180) scale(1.04 1.8)" xlink:href="#Conq"/><use width="13.55" height="13.55" transform="matrix(0, 1.13, -1.8, 0, 488.72, 651.24)" xlink:href="#Conq"/><use width="13.55" height="13.55" transform="matrix(0, 1.09, -1.8, 0, 439.91, 651.74)" xlink:href="#Conq"/><use width="13.55" height="13.55" transform="matrix(0, -1.07, 1.8, 0, 415.52, 528.77)" xlink:href="#Conq"/><use width="13.55" height="13.55" transform="matrix(0, -1.04, 1.8, 0, 464.33, 528.47)" xlink:href="#Conq"/><use width="13.55" height="13.55" transform="matrix(0, 1.13, -1.8, 0, 111.71, 651.24)" xlink:href="#Conq"/><use width="13.55" height="13.55" transform="matrix(0, 1.09, -1.8, 0, 62.89, 651.74)" xlink:href="#Conq"/><use width="13.55" height="13.55" transform="matrix(0, -1.07, 1.8, 0, 38.51, 528.77)" xlink:href="#Conq"/><use width="13.55" height="13.55" transform="matrix(0, -1.04, 1.8, 0, 87.32, 528.47)" xlink:href="#Conq"/><use width="13.55" height="13.55" transform="translate(323.41 390.48) scale(1.13 1.8)" xlink:href="#Conq"/><use width="13.55" height="13.55" transform="translate(323.91 439.29) scale(1.09 1.8)" xlink:href="#Conq"/><use width="13.55" height="13.55" transform="translate(200.94 463.68) rotate(180) scale(1.07 1.8)" xlink:href="#Conq"/><use width="13.55" height="13.55" transform="translate(200.64 414.86) rotate(180) scale(1.04 1.8)" xlink:href="#Conq"/><use width="68.67" height="68.67" transform="translate(200.42 365.3) scale(1.8)" xlink:href="#Base"/><use width="68.67" height="68.67" transform="translate(200.42 528.8) scale(1.8)" xlink:href="#Base"/><use width="68.67" height="68.67" transform="translate(200.42 692.31) scale(1.8)" xlink:href="#Base"/><use width="68.67" height="68.67" transform="translate(390.35 528.65) scale(1.8)" xlink:href="#Base"/><use width="68.67" height="68.67" transform="translate(14.55 528.65) scale(1.8)" xlink:href="#Base"/><circle class="cls-14" cx="262.2" cy="426.11" r="46.63"/><polygon class="cls-5" points="170.89 37.18 170.89 92.96 156.53 92.96 156.53 89.11 144.62 89.11 144.62 92.96 76.32 92.96 76.32 89.11 167.22 89.11 167.22 41 53.78 41 53.78 89.11 64.39 89.11 64.39 92.96 50.04 92.96 50.04 37.18 170.89 37.18"/><rect class="cls-9" x="53.78" y="41" width="113.44" height="48.11"/><rect class="cls-15" x="57.8" y="61.14" width="7.87" height="7.87"/><rect class="cls-15" x="81.79" y="61.14" width="7.87" height="7.87"/><rect class="cls-15" x="105.78" y="61.14" width="7.87" height="7.87"/><rect class="cls-15" x="129.77" y="61.14" width="7.87" height="7.87"/><rect class="cls-15" x="153.76" y="61.14" width="7.87" height="7.87"/><rect class="cls-16" x="64.39" y="89.11" width="11.93" height="3.85"/><rect class="cls-16" x="144.62" y="89.11" width="11.91" height="3.86"/><polygon class="cls-5" points="316.93 37.18 316.93 92.96 302.57 92.96 302.57 89.11 290.66 89.11 290.66 92.96 222.36 92.96 222.36 89.11 313.25 89.11 313.25 41 199.81 41 199.81 89.11 210.43 89.11 210.43 92.96 196.07 92.96 196.07 37.18 316.93 37.18"/><rect class="cls-9" x="199.82" y="41" width="113.44" height="48.11"/><rect class="cls-15" x="203.83" y="61.14" width="7.87" height="7.87"/><rect class="cls-15" x="227.82" y="61.14" width="7.87" height="7.87"/><rect class="cls-15" x="251.81" y="61.14" width="7.87" height="7.87"/><rect class="cls-15" x="275.8" y="61.14" width="7.87" height="7.87"/><rect class="cls-15" x="299.79" y="61.14" width="7.87" height="7.87"/><rect class="cls-16" x="210.43" y="89.11" width="11.93" height="3.85"/><rect class="cls-16" x="290.65" y="89.11" width="11.91" height="3.86"/><rect class="cls-16" x="313.1" y="132.48" width="66.49" height="64.64"/><rect class="cls-5" x="315.87" y="117.02" width="4.06" height="8.26"/><rect class="cls-5" x="321.04" y="117.02" width="4.06" height="8.26"/><rect class="cls-5" x="326.21" y="117.02" width="4.06" height="8.26"/><rect class="cls-5" x="331.38" y="117.02" width="4.06" height="8.26"/><rect class="cls-5" x="336.56" y="117.02" width="4.06" height="8.26"/><rect class="cls-5" x="341.73" y="117.02" width="4.06" height="8.26"/><rect class="cls-5" x="346.9" y="117.02" width="4.06" height="8.26"/><rect class="cls-5" x="352.08" y="117.02" width="4.06" height="8.26"/><rect class="cls-5" x="357.25" y="117.02" width="4.06" height="8.26"/><rect class="cls-5" x="362.42" y="117.02" width="4.06" height="8.26"/><rect class="cls-5" x="367.59" y="117.02" width="4.06" height="8.26"/><rect class="cls-5" x="372.77" y="117.02" width="4.06" height="8.26"/><rect class="cls-9" x="315.87" y="124.22" width="4.06" height="8.26"/><rect class="cls-9" x="321.04" y="124.22" width="4.06" height="8.26"/><rect class="cls-9" x="326.21" y="124.22" width="4.06" height="8.26"/><rect class="cls-9" x="331.38" y="124.22" width="4.06" height="8.26"/><rect class="cls-9" x="336.56" y="124.22" width="4.06" height="8.26"/><rect class="cls-9" x="341.73" y="124.22" width="4.06" height="8.26"/><rect class="cls-9" x="346.9" y="124.22" width="4.06" height="8.26"/><rect class="cls-9" x="352.08" y="124.22" width="4.06" height="8.26"/><rect class="cls-9" x="357.25" y="124.22" width="4.06" height="8.26"/><rect class="cls-9" x="362.42" y="124.22" width="4.06" height="8.26"/><rect class="cls-9" x="367.59" y="124.22" width="4.06" height="8.26"/><rect class="cls-9" x="372.77" y="124.22" width="4.06" height="8.26"/><rect class="cls-5" x="372.77" y="204.32" width="4.06" height="8.26"/><rect class="cls-5" x="367.59" y="204.32" width="4.06" height="8.26"/><rect class="cls-5" x="362.42" y="204.32" width="4.06" height="8.26"/><rect class="cls-5" x="357.25" y="204.32" width="4.06" height="8.26"/><rect class="cls-5" x="352.08" y="204.32" width="4.06" height="8.26"/><rect class="cls-5" x="346.9" y="204.32" width="4.06" height="8.26"/><rect class="cls-5" x="341.73" y="204.32" width="4.06" height="8.26"/><rect class="cls-5" x="336.56" y="204.32" width="4.06" height="8.26"/><rect class="cls-5" x="331.38" y="204.32" width="4.06" height="8.26"/><rect class="cls-5" x="326.21" y="204.32" width="4.06" height="8.26"/><rect class="cls-5" x="321.04" y="204.32" width="4.06" height="8.26"/><rect class="cls-5" x="315.87" y="204.32" width="4.06" height="8.26"/><rect class="cls-9" x="372.77" y="197.13" width="4.06" height="8.26"/><rect class="cls-9" x="367.59" y="197.13" width="4.06" height="8.26"/><rect class="cls-9" x="362.42" y="197.13" width="4.06" height="8.26"/><rect class="cls-9" x="357.25" y="197.13" width="4.06" height="8.26"/><rect class="cls-9" x="352.08" y="197.13" width="4.06" height="8.26"/><rect class="cls-9" x="346.9" y="197.13" width="4.06" height="8.26"/><rect class="cls-9" x="341.73" y="197.13" width="4.06" height="8.26"/><rect class="cls-9" x="336.56" y="197.13" width="4.06" height="8.26"/><rect class="cls-9" x="331.38" y="197.13" width="4.06" height="8.26"/><rect class="cls-9" x="326.21" y="197.13" width="4.06" height="8.26"/><rect class="cls-9" x="321.04" y="197.13" width="4.06" height="8.26"/><rect class="cls-9" x="315.87" y="197.13" width="4.06" height="8.26"/><rect class="cls-5" x="386.79" y="134.32" width="8.26" height="4.06"/><rect class="cls-5" x="386.79" y="139.49" width="8.26" height="4.06"/><rect class="cls-5" x="386.79" y="144.67" width="8.26" height="4.06"/><rect class="cls-5" x="386.79" y="149.84" width="8.26" height="4.06"/><rect class="cls-5" x="386.79" y="155.01" width="8.26" height="4.06"/><rect class="cls-5" x="386.79" y="160.18" width="8.26" height="4.06"/><rect class="cls-5" x="386.79" y="165.36" width="8.26" height="4.06"/><rect class="cls-5" x="386.79" y="170.53" width="8.26" height="4.06"/><rect class="cls-5" x="386.79" y="175.7" width="8.26" height="4.06"/><rect class="cls-5" x="386.79" y="180.88" width="8.26" height="4.06"/><rect class="cls-5" x="386.79" y="186.05" width="8.26" height="4.06"/><rect class="cls-5" x="386.79" y="191.22" width="8.26" height="4.06"/><rect class="cls-9" x="379.59" y="134.32" width="8.26" height="4.06"/><rect class="cls-9" x="379.59" y="139.49" width="8.26" height="4.06"/><rect class="cls-9" x="379.59" y="144.67" width="8.26" height="4.06"/><rect class="cls-9" x="379.59" y="149.84" width="8.26" height="4.06"/><rect class="cls-9" x="379.59" y="155.01" width="8.26" height="4.06"/><rect class="cls-9" x="379.59" y="160.18" width="8.26" height="4.06"/><rect class="cls-9" x="379.59" y="165.36" width="8.26" height="4.06"/><rect class="cls-9" x="379.59" y="170.53" width="8.26" height="4.06"/><rect class="cls-9" x="379.59" y="175.7" width="8.26" height="4.06"/><rect class="cls-9" x="379.59" y="180.88" width="8.26" height="4.06"/><rect class="cls-9" x="379.59" y="186.05" width="8.26" height="4.06"/><rect class="cls-9" x="379.59" y="191.22" width="8.26" height="4.06"/><rect class="cls-5" x="297.64" y="191.22" width="8.26" height="4.06"/><rect class="cls-5" x="297.64" y="186.05" width="8.26" height="4.06"/><rect class="cls-5" x="297.64" y="180.88" width="8.26" height="4.06"/><rect class="cls-5" x="297.64" y="175.7" width="8.26" height="4.06"/><rect class="cls-5" x="297.64" y="170.53" width="8.26" height="4.06"/><rect class="cls-5" x="297.64" y="165.36" width="8.26" height="4.06"/><rect class="cls-5" x="297.64" y="160.18" width="8.26" height="4.06"/><rect class="cls-5" x="297.64" y="155.01" width="8.26" height="4.06"/><rect class="cls-5" x="297.64" y="149.84" width="8.26" height="4.06"/><rect class="cls-5" x="297.64" y="144.67" width="8.26" height="4.06"/><rect class="cls-5" x="297.64" y="139.49" width="8.26" height="4.06"/><rect class="cls-5" x="297.64" y="134.32" width="8.26" height="4.06"/><rect class="cls-9" x="304.84" y="191.22" width="8.26" height="4.06"/><rect class="cls-9" x="304.84" y="186.05" width="8.26" height="4.06"/><rect class="cls-9" x="304.84" y="180.88" width="8.26" height="4.06"/><rect class="cls-9" x="304.84" y="175.7" width="8.26" height="4.06"/><rect class="cls-9" x="304.84" y="170.53" width="8.26" height="4.06"/><rect class="cls-9" x="304.84" y="165.36" width="8.26" height="4.06"/><rect class="cls-9" x="304.84" y="160.18" width="8.26" height="4.06"/><rect class="cls-9" x="304.84" y="155.01" width="8.26" height="4.06"/><rect class="cls-9" x="304.84" y="149.84" width="8.26" height="4.06"/><rect class="cls-9" x="304.84" y="144.67" width="8.26" height="4.06"/><rect class="cls-9" x="304.84" y="139.49" width="8.26" height="4.06"/><rect class="cls-9" x="304.84" y="134.32" width="8.26" height="4.06"/><circle class="cls-17" cx="262.2" cy="426.11" r="42.58"/><path class="cls-18" d="M341,437.22a39.43,39.43,0,1,1-39.43-39.43A39.45,39.45,0,0,1,341,437.22Z" transform="translate(-39.42 -11.11)"/><circle class="cls-19" cx="262.2" cy="590.58" r="46.63"/><circle class="cls-20" cx="262.2" cy="590.58" r="42.58"/><path class="cls-9" d="M341,601.69a39.43,39.43,0,1,1-39.43-39.43A39.45,39.45,0,0,1,341,601.69Z" transform="translate(-39.42 -11.11)"/><circle class="cls-21" cx="76.32" cy="590.58" r="46.63"/><circle class="cls-22" cx="76.32" cy="590.58" r="42.58"/><path class="cls-23" d="M155.17,601.69a39.43,39.43,0,1,1-39.43-39.43A39.45,39.45,0,0,1,155.17,601.69Z" transform="translate(-39.42 -11.11)"/><circle class="cls-24" cx="452.12" cy="590.58" r="46.63"/><circle class="cls-25" cx="452.12" cy="590.58" r="42.58"/><path class="cls-26" d="M531,601.69a39.43,39.43,0,1,1-39.43-39.43A39.45,39.45,0,0,1,531,601.69Z" transform="translate(-39.42 -11.11)"/><circle class="cls-27" cx="262.2" cy="755.04" r="46.63"/><circle class="cls-28" cx="262.2" cy="755.04" r="42.58"/><path class="cls-29" d="M341,766.15a39.43,39.43,0,1,1-39.43-39.43A39.45,39.45,0,0,1,341,766.15Z" transform="translate(-39.42 -11.11)"/><path class="cls-9" d="M163.65,748.76c0.24,0,.45,0,0.66.05h1.24l1.82,0,1.65,0,1.8,0a0.37,0.37,0,0,1,.12,0,0.25,0.25,0,0,0,.32-0.14,2.38,2.38,0,0,1,.84-0.72,2.28,2.28,0,1,1,1.3,4.31,2.17,2.17,0,0,1-2.2-1,0.39,0.39,0,0,0-.37-0.2h-1.14l-1.82,0-1.68,0-1.8-.05L163,751a0.31,0.31,0,0,0-.32.19c-0.16.32-.35,0.62-0.52,0.94l-0.11.22,0.19,0.11,3.67,1.74,3.68,1.73a0.29,0.29,0,0,0,.31,0,2.28,2.28,0,1,1-1.06,2.42,0.51,0.51,0,0,0-.32-0.41l-4.6-2.17-3-1.41-0.11-.05a0.21,0.21,0,0,0-.3.06c-0.15.18-.31,0.35-0.47,0.52a19.84,19.84,0,0,1-4.49,3.39,24.14,24.14,0,0,1-4.49,1.92,26.69,26.69,0,0,1-4,.93q-1.36.2-2.73,0.29a29,29,0,0,1-3.26,0,27,27,0,0,1-9.62-2.21,20.93,20.93,0,0,1-5.37-3.36,15.51,15.51,0,0,1-1.52-1.5c-0.12-.14-0.13-0.14-0.31-0.06l-1.43.67-4,1.91L116.51,758a0.4,0.4,0,0,0-.25.32,2.17,2.17,0,0,1-1.68,1.82,2.23,2.23,0,0,1-2.75-1.72,2.28,2.28,0,0,1,1.89-2.75,2.19,2.19,0,0,1,1.45.29,0.36,0.36,0,0,0,.38,0l4.36-2.06,3-1.42,0.11-.07a1.48,1.48,0,0,0-.07-0.16c-0.19-.34-0.39-0.68-0.57-1a0.28,0.28,0,0,0-.29-0.17l-1.31,0-1.07,0-2.16.05-1.41,0-2,0a0.29,0.29,0,0,0-.26.18,2.22,2.22,0,0,1-1.37,1,2.27,2.27,0,0,1-2.76-1.78,2.3,2.3,0,0,1,1.51-2.6,2.25,2.25,0,0,1,2.51.8,0.37,0.37,0,0,0,.4.17c0.35,0,.7,0,1,0l2.19,0,1.6,0,1.87-.05c0.17,0,.34,0,0.51-0.06a0.61,0.61,0,0,0,0-.12c-0.08-.42-0.16-0.84-0.23-1.27a0.42,0.42,0,0,0-.27-0.34l-3.26-1.53-2.16-1a0.35,0.35,0,0,0-.36,0,2.16,2.16,0,0,1-2.43-.1,2.27,2.27,0,1,1,2.81-3.56,2,2,0,0,1,.68,1.21,0.54,0.54,0,0,0,.34.44l3.52,1.66,0.77,0.36,0.29,0.12c0-.21.07-0.39,0.1-0.57a12.11,12.11,0,0,1,1.89-4.83,0.87,0.87,0,0,0,.14-0.66c-0.18-1.15-.35-2.31-0.52-3.46-0.13-.87-0.26-1.73-0.37-2.6-0.09-.71-0.15-1.42-0.22-2.13a26.11,26.11,0,0,1-.14-3,11.32,11.32,0,0,1,.25-2.44,3.65,3.65,0,0,1,.58-1.38,1.69,1.69,0,0,1,1.39-.71,4.5,4.5,0,0,1,1.88.42,14,14,0,0,1,2.57,1.48,29.06,29.06,0,0,1,3.39,2.77c0.82,0.78,1.62,1.59,2.42,2.39,0.31,0.32.6,0.66,0.89,1a0.34,0.34,0,0,0,.39.13,23.1,23.1,0,0,1,3.4-.59c0.59-.06,1.18-0.12,1.77-0.14,0.94,0,1.88-.07,2.82,0a26.61,26.61,0,0,1,5.46.76,0.38,0.38,0,0,0,.44-0.14,32.47,32.47,0,0,1,2.24-2.37,34.38,34.38,0,0,1,5.07-4.13,12.41,12.41,0,0,1,2.37-1.24,4.25,4.25,0,0,1,1.61-.3,1.66,1.66,0,0,1,1.4.74,4,4,0,0,1,.6,1.63,9.94,9.94,0,0,1,.15,2c0,0.49,0,1,0,1.48,0,0.67-.1,1.34-0.17,2s-0.13,1.19-.21,1.79c-0.14,1-.3,2.07-0.46,3.1s-0.33,2.15-.5,3.22a0.45,0.45,0,0,0,.11.33,13.26,13.26,0,0,1,1,1.81,11.89,11.89,0,0,1,1,3.59,0.86,0.86,0,0,0,0,.12l0.74-.34,3.79-1.78,0.18-.08a0.32,0.32,0,0,0,.2-0.28,2.2,2.2,0,0,1,1-1.51,2.25,2.25,0,0,1,3.29.89A2.28,2.28,0,0,1,171,744.8a2.16,2.16,0,0,1-1-.3,0.36,0.36,0,0,0-.38,0l-3.94,1.86-1.43.67a0.44,0.44,0,0,0-.31.41c0,0.37-.13.73-0.2,1.1Zm-17.12.67c0,0.24,0,.49,0,0.73s0,0.25.26,0.26a14.38,14.38,0,0,0,2.74-.15,9.9,9.9,0,0,0,3.12-1,6.38,6.38,0,0,0,1.68-1.23A7.48,7.48,0,0,0,156,745a11.57,11.57,0,0,0,.44-2.31,10.15,10.15,0,0,0,0-2.08c0-.25,0-0.26-0.27-0.26-0.64,0-1.28,0-1.92,0a10.34,10.34,0,0,0-3,.65,7.16,7.16,0,0,0-2.18,1.25,6.93,6.93,0,0,0-2,3A12.29,12.29,0,0,0,146.53,749.43Zm-16.88-9.11H128.8c-0.22,0-.23,0-0.24.24a15.42,15.42,0,0,0,.08,2.38,10.9,10.9,0,0,0,.84,3.18,6.53,6.53,0,0,0,1.55,2.19,7.87,7.87,0,0,0,3.53,1.77,13.54,13.54,0,0,0,3.74.34c0.22,0,.25,0,0.26-0.26a6.47,6.47,0,0,0,0-1.26c0-.43-0.06-0.86-0.11-1.28a10.22,10.22,0,0,0-.78-2.93,6.91,6.91,0,0,0-1.24-1.94,6.75,6.75,0,0,0-2.49-1.66A11.39,11.39,0,0,0,129.65,740.31Zm-16.91,9.85a0.75,0.75,0,0,0-.75-0.73,0.74,0.74,0,0,0,0,1.48A0.74,0.74,0,0,0,112.74,750.16Zm58.35,8.45a0.72,0.72,0,0,0,.73-0.72,0.74,0.74,0,1,0-1.47,0A0.72,0.72,0,0,0,171.09,758.61Zm-56.34-16.08a0.71,0.71,0,0,0-.73-0.74,0.74,0.74,0,0,0,0,1.48A0.71,0.71,0,0,0,114.75,742.53Zm56.35-.74a0.74,0.74,0,1,0,0,1.48A0.74,0.74,0,0,0,171.1,741.78Zm2.73,8.4a0.73,0.73,0,0,0-.73-0.76,0.75,0.75,0,0,0-.73.73,0.73,0.73,0,0,0,.73.75A0.72,0.72,0,0,0,173.83,750.19Zm-59.08,7.69a0.71,0.71,0,0,0-.73-0.74,0.74,0.74,0,0,0-.71.75,0.73,0.73,0,0,0,.74.73A0.72,0.72,0,0,0,114.75,757.87Z" transform="translate(-39.42 -11.11)"/><path class="cls-9" d="M131.81,774.28l0.31,0h9.62a1.94,1.94,0,0,1,.92.21,1.51,1.51,0,0,1,.8,1.36,2.85,2.85,0,0,1-.21,1.16c-0.32.87-.64,1.74-1,2.59-0.82,1.93-1.55,3.89-2.31,5.84a1.08,1.08,0,0,0,0,.11,0.26,0.26,0,0,1-.31.2h-3l-0.22,0a2.65,2.65,0,0,1,.07-0.26l1-2.56,0.56-1.43c0-.07,0-0.15.08-0.26H135c-0.38,0-.36-0.07-0.53.35-0.34.81-.66,1.62-1,2.43l-0.6,1.49a0.38,0.38,0,0,1-.4.27h-2.82l-0.27,0c0-.12.06-0.21,0.09-0.3L132,779c0.29-.72.58-1.43,0.88-2.14a0.4,0.4,0,0,0,0-.37c-0.31-.63-0.61-1.26-0.9-1.89C131.91,774.55,131.88,774.44,131.81,774.28Zm3.85,4.33,0.1,0H139a0.25,0.25,0,0,0,.26-0.18c0.14-.37.28-0.74,0.4-1.12a0.41,0.41,0,0,0-.38-0.53h-2.65a0.33,0.33,0,0,0-.35.23l-0.59,1.47A0.66,0.66,0,0,0,135.66,778.61Z" transform="translate(-39.42 -11.11)"/><path class="cls-9" d="M167.16,774.25c0,0.11,0,.18-0.08.26l-0.81,2c-0.08.21-.08,0.21-0.32,0.21h-4.21a1,1,0,0,0-.22,0,0.38,0.38,0,0,0-.25.65,7.28,7.28,0,0,0,.76.79,18.16,18.16,0,0,1,2.11,2.18,3.24,3.24,0,0,1,.65,1.72,4.13,4.13,0,0,1-.15,1.63,2.59,2.59,0,0,1-1.9,1.81,5,5,0,0,1-1.44.2h-7l-0.38,0c0-.15.08-0.27,0.12-0.38l0.82-2.13c0.1-.25.1-0.25,0.37-0.25h5.06c0.23,0,.45,0,0.68-0.05a0.63,0.63,0,0,0,.19-0.05,0.36,0.36,0,0,0,.2-0.57,2,2,0,0,0-.34-0.44c-0.5-.49-1-0.95-1.52-1.44s-1.16-1.13-1.69-1.75a2.71,2.71,0,0,1-.72-1.94,3.11,3.11,0,0,1,.3-1.32,2.14,2.14,0,0,1,1.71-1.11,6,6,0,0,1,.87-0.06h7.21Z" transform="translate(-39.42 -11.11)"/><path class="cls-9" d="M127.63,785.7l-0.29,0h-8a1.38,1.38,0,0,1-1.38-1.35,3,3,0,0,1,.18-1.19q0.46-1.23.94-2.45c0.45-1.15.9-2.3,1.36-3.44,0.23-.56.48-1.1,0.73-1.64a2.68,2.68,0,0,1,1.11-1.16,1.64,1.64,0,0,1,.84-0.23h7.13l0.27,0a1.42,1.42,0,0,1,0,.22l-0.79,2a0.41,0.41,0,0,1-.44.29c-1.4,0-2.81,0-4.21,0a1.18,1.18,0,0,0-1.08.58,4.46,4.46,0,0,0-.35.72c-0.29.71-.56,1.43-0.85,2.15l-1,2.44c0,0.07,0,.15-0.08.26h4.39a0.39,0.39,0,0,1,.43.26c0.33,0.74.68,1.47,1,2.21C127.58,785.5,127.6,785.59,127.63,785.7Z" transform="translate(-39.42 -11.11)"/><path class="cls-9" d="M144.9,785.73c0.06-.18.11-0.32,0.16-0.46l3.29-8.25c0-.07,0-0.15.08-0.26h-3.8a1.19,1.19,0,0,1,0-.23l0.78-2.12a0.21,0.21,0,0,1,.23-0.16h10.57c0,0.11,0,.2-0.08.28l-0.77,2c-0.09.22-.09,0.22-0.34,0.22h-2.78a0.37,0.37,0,0,0-.41.26c-0.19.48-.38,1-0.58,1.45-0.42,1-.85,2.09-1.27,3.14-0.52,1.3-1,2.59-1.54,3.89-0.11.27-.11,0.27-0.41,0.27h-2.87Z" transform="translate(-39.42 -11.11)"/><path class="cls-9" d="M155.79,772.9h-2.31a1.88,1.88,0,0,1-.39,0,1,1,0,0,1-.8-0.95,2.34,2.34,0,0,1,.17-1q0.37-1,.76-1.95,0.58-1.43,1.17-2.86a4.45,4.45,0,0,1,.39-0.73,1.56,1.56,0,0,1,1.37-.74h4.43a2.76,2.76,0,0,1,.72.1A1,1,0,0,1,162,766a12.61,12.61,0,0,1-.47,1.41c-0.44,1.12-.89,2.23-1.34,3.34-0.15.36-.32,0.71-0.5,1.06a2.52,2.52,0,0,1-.64.79,1.42,1.42,0,0,1-.94.33h-2.34Zm0.43-2a3.83,3.83,0,0,0,.46,0,4.79,4.79,0,0,0,.67-0.12,0.74,0.74,0,0,0,.51-0.49c0.08-.2.17-0.41,0.25-0.61,0.34-.87.69-1.73,1-2.6a0.35,0.35,0,0,0-.38-0.54h-1.41a0.79,0.79,0,0,0-.72.38,4.26,4.26,0,0,0-.3.61c-0.09.21-.16,0.43-0.24,0.64-0.28.72-.58,1.45-0.85,2.17-0.14.37,0,.51,0.35,0.56h0.63Z" transform="translate(-39.42 -11.11)"/><path class="cls-9" d="M165.84,772.84c0-.13.08-0.23,0.11-0.32l2.14-5.38a1.56,1.56,0,0,0,.08-0.35,0.21,0.21,0,0,0-.16-0.24,1.22,1.22,0,0,0-.33-0.06H166a0.32,0.32,0,0,0-.35.23l-0.7,1.71-1.68,4.2c-0.11.27-.11,0.27-0.41,0.28h-1.85l-0.32,0c0-.11,0-0.2.08-0.28l1.06-2.69q0.65-1.63,1.31-3.25a0.46,0.46,0,0,0,0-.41c-0.21-.42-0.4-0.85-0.6-1.28,0-.07-0.06-0.15-0.09-0.24a0.85,0.85,0,0,1,.17-0.06h7a3.79,3.79,0,0,1,.39,0,1.1,1.1,0,0,1,.93,1.46c-0.13.44-.28,0.88-0.45,1.31-0.69,1.72-1.38,3.43-2.08,5.14l-0.06.14a0.23,0.23,0,0,1-.24.16H166A1,1,0,0,1,165.84,772.84Z" transform="translate(-39.42 -11.11)"/><path class="cls-9" d="M151.25,768.95a0.15,0.15,0,0,0,0,0,1.12,1.12,0,0,1,.39,1.13c-0.09.74-.18,1.48-0.28,2.22,0,0.08,0,.16,0,0.24,0,0.28,0,.28-0.32.28h-2.17a3.37,3.37,0,0,1,0-.34c0.13-.75.27-1.5,0.4-2.25a0.85,0.85,0,0,0,0-.24,0.45,0.45,0,0,0-.48-0.42H148.1c-0.28,0-.57,0-0.85,0a0.3,0.3,0,0,0-.33.21c-0.15.38-.3,0.75-0.45,1.13l-0.7,1.76a0.2,0.2,0,0,1-.21.16h-2.19l-0.1,0a2.43,2.43,0,0,1,.08-0.29l1.39-3.5c0.13-.33.27-0.66,0.39-1a0.31,0.31,0,0,1,.34-0.23h4a2.21,2.21,0,0,0,.59-0.11,0.51,0.51,0,0,0,.33-0.34c0.06-.17.12-0.34,0.17-0.51a0.22,0.22,0,0,0-.14-0.31,1,1,0,0,0-.33-0.06h-4a0.33,0.33,0,0,1-.34-0.21c-0.21-.47-0.43-0.93-0.65-1.39,0,0,0-.09-0.06-0.15a0.85,0.85,0,0,1,.16-0.06h6.94a1.87,1.87,0,0,1,.43,0,1,1,0,0,1,.83,1.32,7.47,7.47,0,0,1-.37,1.11c-0.12.32-.26,0.63-0.39,0.95a0.93,0.93,0,0,1-.5.54C151.83,768.73,151.55,768.83,151.25,768.95Z" transform="translate(-39.42 -11.11)"/><path class="cls-9" d="M104.63,764.68c0.35-.06,8.19,0,8.39,0,0,0.09,0,.18-0.08.27l-0.49,1.25c-0.1.27-.1,0.27-0.38,0.27-1.27,0-2.53,0-3.8,0a0.44,0.44,0,0,0-.49.32c-0.11.29-.23,0.57-0.34,0.86a1.05,1.05,0,0,0,0,.15h3.42a2.35,2.35,0,0,1-.06.24l-0.48,1.25c-0.09.24-.1,0.24-0.36,0.24H107a1,1,0,0,0-.22,0,0.25,0.25,0,0,0-.15.09,10.15,10.15,0,0,0-.47,1.18l0.32,0H110a0.23,0.23,0,0,1,.23.14l0.75,1.64a1.25,1.25,0,0,1,.05.22l-0.27,0h-7.9a2.6,2.6,0,0,1,.07-0.29q1.18-3,2.37-5.92a0.49,0.49,0,0,0,0-.44c-0.2-.41-0.39-0.82-0.58-1.23A3,3,0,0,1,104.63,764.68Z" transform="translate(-39.42 -11.11)"/><path class="cls-9" d="M123.09,767.81h3.41a2.16,2.16,0,0,1-.05.23c-0.16.42-.33,0.85-0.48,1.27a0.31,0.31,0,0,1-.35.23h-2.9a0.84,0.84,0,0,0-.22,0,0.28,0.28,0,0,0-.17.11c-0.16.37-.31,0.74-0.48,1.16l0.32,0h3.48a0.26,0.26,0,0,1,.28.18c0.2,0.45.41,0.9,0.62,1.35,0.05,0.11.1,0.22,0.14,0.33a0.34,0.34,0,0,1,0,.11c-0.19.05-7.85,0.06-8.13,0a2.36,2.36,0,0,1,.07-0.27c0.3-.78.61-1.56,0.92-2.33q0.71-1.77,1.43-3.54a0.55,0.55,0,0,0,0-.51c-0.21-.4-0.39-0.82-0.58-1.23a2.5,2.5,0,0,1-.09-0.28c0.59,0,1.14,0,1.7,0h5c0.56,0,1.12,0,1.71,0,0,0.13-.06.23-0.1,0.33l-0.49,1.27c-0.09.23-.09,0.23-0.33,0.23-1.27,0-2.55,0-3.82,0a0.44,0.44,0,0,0-.49.31c-0.1.29-.23,0.57-0.34,0.86A0.9,0.9,0,0,0,123.09,767.81Z" transform="translate(-39.42 -11.11)"/><path class="cls-9" d="M134,772.83l-0.28,0h-5.55a1,1,0,0,1-1-.76,1.8,1.8,0,0,1,0-.74,7.29,7.29,0,0,1,.35-1.09q0.77-1.95,1.56-3.88a3.92,3.92,0,0,1,.59-1.11,1.61,1.61,0,0,1,1.29-.62h4.77l0.36,0a1.77,1.77,0,0,1-.05.24c-0.17.44-.34,0.87-0.51,1.31a0.35,0.35,0,0,1-.38.26c-1,0-1.91,0-2.87,0a0.93,0.93,0,0,0-.93.57c-0.11.24-.2,0.49-0.3,0.74l-1.13,2.82c0,0.06,0,.12-0.07.21h3.15a0.23,0.23,0,0,1,.23.14l0.78,1.7A0.71,0.71,0,0,1,134,772.83Z" transform="translate(-39.42 -11.11)"/><path class="cls-9" d="M182.25,764.69c-0.1.28-.18,0.51-0.27,0.73s-0.23.56-.33,0.84a0.32,0.32,0,0,1-.35.23c-1,0-1.92,0-2.87,0a1,1,0,0,0-1,.57,1.92,1.92,0,0,0-.1.22l-1.22,3.1c-0.06.14-.1,0.29-0.17,0.47h3a0.4,0.4,0,0,1,.43.27c0.21,0.49.45,1,.67,1.46,0,0.07.05,0.15,0.09,0.25a2.13,2.13,0,0,1-.26,0H174.3a1.05,1.05,0,0,1-1-1.29,5.81,5.81,0,0,1,.32-1.09c0.37-1,.76-1.93,1.15-2.89q0.39-1,.82-1.92a1.85,1.85,0,0,1,.76-0.8,1.26,1.26,0,0,1,.67-0.19h5Z" transform="translate(-39.42 -11.11)"/><path class="cls-9" d="M136.22,772.83c0.82-2.13,1.68-4.21,2.52-6.35H136a2.58,2.58,0,0,1,.07-0.29c0.17-.46.35-0.93,0.52-1.39a0.21,0.21,0,0,1,.23-0.16h7.47a2,2,0,0,1-.06.26c-0.17.46-.36,0.92-0.53,1.39a0.27,0.27,0,0,1-.3.18h-1.87a0.33,0.33,0,0,0-.37.24c-0.07.2-.16,0.39-0.24,0.58l-1.8,4.52-0.34.86a0.24,0.24,0,0,1-.25.19h-2.17Z" transform="translate(-39.42 -11.11)"/><path class="cls-9" d="M111.72,772.86c0-.14.06-0.23,0.1-0.32l1.84-4.64,1.22-3c0.1-.24.1-0.24,0.35-0.24h1.95l0.27,0c0,0.11-.05.2-0.08,0.28l-1.18,3-1.07,2.71c0,0.07,0,.13-0.07.23h1.75c0.57,0,1.15,0,1.75,0,0,0.12-.06.21-0.09,0.3l-0.59,1.47a0.26,0.26,0,0,1-.34.24H112Z" transform="translate(-39.42 -11.11)"/><path class="cls-9" d="M175,764.66c0,0.12-.05.22-0.09,0.32l-2,5q-0.51,1.29-1,2.57c-0.13.33-.09,0.29-0.44,0.29h-2.15c0-.13.06-0.24,0.1-0.34l2.34-5.87c0.23-.59.48-1.17,0.71-1.76a0.31,0.31,0,0,1,.34-0.23h2Z" transform="translate(-39.42 -11.11)"/><circle class="cls-13" cx="131.3" cy="165.36" r="50.89"/><path class="cls-30" d="M221.61,176.47l-0.17,3.59c0,0.58,0,1.24-.13,2L221,184.33c-0.14.84-.23,1.75-0.44,2.7l-0.77,3a49.51,49.51,0,0,1-6.43,14.33,51,51,0,0,1-36.81,22.86c-1.06.17-2.16,0.15-3.24,0.24l-1.64.09-0.82,0c-0.3,0-.56,0-0.84,0a52.71,52.71,0,0,1-20-4.28l-3.21-1.53c-1.07-.52-2.05-1.2-3.09-1.8l-1.54-.93c-0.49-.34-1-0.71-1.46-1.07-1-.73-2-1.41-2.89-2.19a51.27,51.27,0,0,1-16.21-24.42,50.68,50.68,0,0,1,0-29.78,51.3,51.3,0,0,1,16.21-24.42c0.93-.78,1.94-1.46,2.89-2.19,0.49-.36,1-0.72,1.46-1.07l1.54-.93c1-.6,2-1.28,3.09-1.8l3.21-1.53a52.72,52.72,0,0,1,20-4.28c0.28,0,.54,0,0.84,0l0.82,0,1.63,0.09c1.08,0.09,2.17.06,3.23,0.24a51,51,0,0,1,36.82,22.87,49.51,49.51,0,0,1,6.43,14.33l0.77,3c0.21,1,.3,1.86.44,2.7l0.35,2.33c0.1,0.71.09,1.37,0.13,2Zm0,0-0.19-3.59c0-.58,0-1.24-0.14-2l-0.36-2.33c-0.14-.84-0.24-1.75-0.45-2.69l-0.78-3a49.43,49.43,0,0,0-6.47-14.28,51.09,51.09,0,0,0-14.3-14.38,52,52,0,0,0-22.46-8.1c-1.05-.16-2.15-0.13-3.23-0.2l-1.63-.07-0.82,0c-0.25,0-.54,0-0.81,0a52.12,52.12,0,0,0-19.73,4.41l-3.15,1.53c-1,.53-2,1.2-3,1.8l-1.51.93c-0.48.34-.95,0.71-1.42,1.07-0.94.73-1.92,1.4-2.83,2.18a54.75,54.75,0,0,0-9.61,10.78,54,54,0,0,0-6.23,13.27,50.9,50.9,0,0,0,0,29.23,54,54,0,0,0,6.23,13.27,54.89,54.89,0,0,0,9.61,10.78c0.9,0.78,1.89,1.45,2.83,2.18,0.48,0.35.94,0.72,1.42,1.07l1.51,0.93c1,0.6,2,1.28,3,1.8l3.15,1.53A52.12,52.12,0,0,0,170,227.07c0.27,0,.56,0,0.81,0l0.82,0,1.63-.07c1.08-.07,2.16,0,3.22-0.2a51.94,51.94,0,0,0,22.47-8.1,51.1,51.1,0,0,0,14.3-14.38A49.43,49.43,0,0,0,219.71,190l0.78-3c0.21-.95.3-1.86,0.45-2.69l0.36-2.33c0.11-.71.09-1.37,0.14-2Z" transform="translate(-39.42 -11.11)"/><circle class="cls-13" cx="131.3" cy="165.36" r="9.45"/><path class="cls-30" d="M180.17,176.47l0,0.67a5.36,5.36,0,0,1-.09.8,7,7,0,0,1-.22,1.06,9.64,9.64,0,0,1-1.18,2.67,10,10,0,0,1-2.62,2.75,9.83,9.83,0,0,1-4.21,1.66c-0.41,0-.81.08-1.25,0.09a9.39,9.39,0,0,1-1.26-.07,9.52,9.52,0,0,1-2.56-.67,10.25,10.25,0,0,1-2.36-1.4,10.41,10.41,0,0,1-1.92-2.08,10,10,0,0,1-1.25-2.6,9.63,9.63,0,0,1,0-5.76,10,10,0,0,1,1.25-2.6,10.51,10.51,0,0,1,1.92-2.08,10.25,10.25,0,0,1,2.37-1.4,9.68,9.68,0,0,1,9.28,1,10,10,0,0,1,2.62,2.75,9.65,9.65,0,0,1,1.18,2.67,7,7,0,0,1,.22,1.06,5.36,5.36,0,0,1,.09.8Zm0,0,0-.67A5.35,5.35,0,0,0,180,175a7,7,0,0,0-.23-1.06,8.75,8.75,0,0,0-1.22-2.64,9.2,9.2,0,0,0-2.68-2.61,9.51,9.51,0,0,0-4.13-1.4,9.28,9.28,0,0,0-4.74.85,9.42,9.42,0,0,0-3.8,3.34,10.26,10.26,0,0,0-1.09,2.37,9.24,9.24,0,0,0,0,5.2,10.28,10.28,0,0,0,1.09,2.37,9.42,9.42,0,0,0,3.8,3.35,9.41,9.41,0,0,0,3.56.87c0.38,0,.79,0,1.17,0a9.5,9.5,0,0,0,4.14-1.4,9.21,9.21,0,0,0,2.68-2.61,8.76,8.76,0,0,0,1.22-2.64,7,7,0,0,0,.23-1.06,5.35,5.35,0,0,0,.09-0.79Z" transform="translate(-39.42 -11.11)"/><use width="17.94" height="8.56" transform="translate(112.21 395.87) scale(1.8)" xlink:href="#R1"/><use width="17.94" height="8.56" transform="translate(112.21 419.37) scale(1.8)" xlink:href="#R1"/><use width="17.94" height="8.56" transform="translate(379.09 407.86) scale(1.8)" xlink:href="#R1"/><use width="17.94" height="8.56" transform="translate(379.09 431.36) scale(1.8)" xlink:href="#R1"/><use width="17.94" height="8.56" transform="translate(112.21 442.88) scale(1.8)" xlink:href="#R1"/><use width="17.94" height="8.56" transform="translate(112.21 466.38) scale(1.8)" xlink:href="#R1"/><use width="17.94" height="8.56" transform="translate(176.06 530.85) rotate(90) scale(1.8)" xlink:href="#R1"/><use width="17.94" height="8.56" transform="translate(364.86 530.85) rotate(90) scale(1.8)" xlink:href="#R1"/><use width="17.94" height="8.56" transform="translate(298.55 502.17) scale(1.8)" xlink:href="#R1"/><use width="17.94" height="8.56" transform="translate(197.79 668.71) scale(1.8)" xlink:href="#R1"/><rect class="cls-31" x="433.8" y="249.64" width="57.57" height="96.48"/><rect class="cls-32" x="428.17" y="252.56" width="5.62" height="90.63"/><rect class="cls-33" x="491.37" y="249.64" width="6.3" height="96.48"/><circle class="cls-5" cx="462.58" cy="272.6" r="16.12"/><polygon class="cls-34" points="473.14 281.65 464.15 272.66 472.46 264.34 470.83 262.72 462.52 271.03 453.53 262.04 452.02 263.54 461.02 272.53 452.7 280.85 454.33 282.48 462.64 274.16 471.64 283.15 473.14 281.65"/><circle class="cls-5" cx="462.58" cy="321.38" r="16.12"/><polygon class="cls-34" points="473.14 330.44 464.15 321.44 472.46 313.13 470.83 311.5 462.52 319.81 453.53 310.82 452.02 312.33 461.02 321.32 452.7 329.63 454.33 331.26 462.64 322.95 471.64 331.94 473.14 330.44"/><path class="cls-34" d="M315.51,329.42H292.35a6.59,6.59,0,0,1-4.66-1.93l-7.84-7.84a6.59,6.59,0,0,1-1.93-4.66V291.82a6.59,6.59,0,0,1,1.93-4.66l7.84-7.84a6.59,6.59,0,0,1,4.66-1.93h23.16a6.59,6.59,0,0,1,4.66,1.93l7.84,7.84a6.59,6.59,0,0,1,1.93,4.66V315a6.59,6.59,0,0,1-1.93,4.66l-7.84,7.84A6.59,6.59,0,0,1,315.51,329.42Z" transform="translate(-39.42 -11.11)"/><path class="cls-5" d="M313.91,325.83h-20a5.68,5.68,0,0,1-4-1.66l-6.76-6.76a5.68,5.68,0,0,1-1.66-4v-20a5.68,5.68,0,0,1,1.66-4l6.76-6.76a5.68,5.68,0,0,1,4-1.66h20a5.68,5.68,0,0,1,4,1.66l6.76,6.76a5.68,5.68,0,0,1,1.66,4v20a5.68,5.68,0,0,1-1.66,4l-6.76,6.76A5.68,5.68,0,0,1,313.91,325.83Z" transform="translate(-39.42 -11.11)"/><circle class="cls-35" cx="264.51" cy="291.92" r="9"/><use width="12.87" height="12.88" transform="translate(246.69 492.18) scale(2.5)" xlink:href="#Led"/><use width="12.87" height="12.88" transform="translate(246.69 656.61) scale(2.5)" xlink:href="#Led"/><use width="12.87" height="12.88" transform="translate(341.08 577.05) scale(2.5)" xlink:href="#Led"/><use width="12.87" height="12.88" transform="translate(151.15 577.05) scale(2.5)" xlink:href="#Led"/><text class="cls-36" transform="translate(109.09 309.76)">Diseñado<tspan x="30.92" y="19.43">en</tspan><tspan x="10.51" y="38.86">México</tspan></text><use width="16.5" height="7.17" transform="translate(228.78 157.04) scale(1.8)" xlink:href="#C1"/><use width="16.5" height="7.17" transform="translate(323.75 246.11) scale(1.8)" xlink:href="#C1"/><use width="16.5" height="7.17" transform="translate(416.14 208.45) scale(1.8)" xlink:href="#C1"/><path class="cls-37" d="M468.24,25.67H396.94a3.43,3.43,0,0,0-3.43,3.43v49a3.43,3.43,0,0,0,3.43,3.43h4.24V75.94H464v5.62h4.24a3.43,3.43,0,0,0,3.43-3.43v-49A3.43,3.43,0,0,0,468.24,25.67Z" transform="translate(-39.42 -11.11)"/><path class="cls-38" d="M465.77,13.86H399.41a3.32,3.32,0,0,0-3.19,3.43v8.38H469V17.29A3.32,3.32,0,0,0,465.77,13.86Z" transform="translate(-39.42 -11.11)"/><path class="cls-39" d="M368.41,14.56h6.52a0,0,0,0,1,0,0V25.2a1.17,1.17,0,0,1-1.17,1.17h-4.18a1.17,1.17,0,0,1-1.17-1.17V14.56A0,0,0,0,1,368.41,14.56Z"/><path class="cls-39" d="M411.42,14.56h6.52a0,0,0,0,1,0,0V25.2a1.17,1.17,0,0,1-1.17,1.17h-4.18a1.17,1.17,0,0,1-1.17-1.17V14.56A0,0,0,0,1,411.42,14.56Z"/><path class="cls-9" d="M466.08,474.35a0.59,0.59,0,0,1,0,.56v-0.56Z" transform="translate(-39.42 -11.11)"/><path class="cls-9" d="M466.08,474.35a0.4,0.4,0,0,1,0,.44v-0.44Z" transform="translate(-39.42 -11.11)"/><path class="cls-9" d="M504,415.86h7.38a0.46,0.46,0,0,1,.39.42c0.41,2.21.85,4.41,1.22,6.62a1.51,1.51,0,0,0,1.08,1.36c1.43,0.52,2.83,1.14,4.24,1.72a0.86,0.86,0,0,0,.9-0.1l5.81-4c0.4-.27.49-0.27,0.83,0.07l4.91,4.91c0.33,0.33.34,0.43,0.07,0.83-1.3,1.9-2.6,3.8-3.91,5.68a0.88,0.88,0,0,0-.1,1q1,2.37,2,4.75a0.91,0.91,0,0,0,.75.6l6.77,1.25a0.43,0.43,0,0,1,.45.55q0,3.53,0,7.06a0.47,0.47,0,0,1-.49.58l-6.68,1.24a0.69,0.69,0,0,0-.57.46c-0.7,1.76-1.41,3.53-2.12,5.29a0.79,0.79,0,0,0,.13.81l3.71,5.4c0.3,0.43.29,0.51-.08,0.88l-4.86,4.86c-0.35.35-.46,0.35-0.85,0.08-1.75-1.2-3.5-2.4-5.24-3.61a0.84,0.84,0,0,0-1-.05c-0.7.41-1.43,0.77-2.14,1.15-0.32.17-.44,0.13-0.58-0.2l-5.08-12.26a0.46,0.46,0,0,1,.24-0.64,10.38,10.38,0,0,0,3.33-3,8.15,8.15,0,1,0-11.55,2.17c0.43,0.3.83,0.62,1.29,0.88a0.42,0.42,0,0,1,.19.61l-5.08,12.26c-0.14.33-.25,0.37-0.58,0.2-0.73-.38-1.46-0.76-2.17-1.16a0.81,0.81,0,0,0-1,.05c-1.75,1.22-3.51,2.42-5.27,3.63-0.4.28-.51,0.26-0.85-0.08l-4.88-4.88c-0.34-.34-0.35-0.43-0.08-0.83,1.24-1.8,2.47-3.61,3.71-5.4a0.88,0.88,0,0,0,.11-0.93c-0.7-1.71-1.38-3.43-2.06-5.15a0.77,0.77,0,0,0-.62-0.53L479,449.13a0.49,0.49,0,0,1-.52-0.62q0-3.48,0-7c0-.47.05-0.53,0.51-0.61l6.77-1.26a0.82,0.82,0,0,0,.67-0.53q1-2.44,2.08-4.87a0.79,0.79,0,0,0-.08-0.84q-2-2.85-3.93-5.71c-0.3-.43-0.29-0.51.07-0.88l4.86-4.86c0.37-.37.44-0.37,0.88-0.07,1.91,1.31,3.82,2.61,5.71,3.93a1,1,0,0,0,1.07.12q2.25-1,4.53-1.85a1,1,0,0,0,.63-0.83c0.42-2.33.87-4.66,1.29-7A0.46,0.46,0,0,1,504,415.86Z" transform="translate(-39.42 -11.11)"/><path class="cls-9" d="M527.88,476.65l-1,3.19c-0.21.7-.42,1.39-0.62,2.09a0.27,0.27,0,0,1-.32.24c-0.3,0-.6,0-0.91,0a0.25,0.25,0,0,1-.29-0.2q-1.18-3.73-2.37-7.45l0-.16h1.51c0.21,0,.18.18,0.21,0.29,0.45,1.62.89,3.24,1.33,4.87l0.08,0.28a0.64,0.64,0,0,0,.16-0.36q0.78-2.4,1.55-4.8a0.32,0.32,0,0,1,.36-0.28c0.87,0,.87,0,1.14.84l1.44,4.44,0.07,0.21c0.05-.15.09-0.23,0.11-0.32,0.44-1.62.89-3.25,1.32-4.87a0.31,0.31,0,0,1,.38-0.29,10.49,10.49,0,0,0,1.09,0c0.23,0,.26.05,0.19,0.27-0.51,1.56-1,3.12-1.5,4.69-0.27.86-.56,1.72-0.82,2.58a0.32,0.32,0,0,1-.39.28,4,4,0,0,0-.72,0,0.38,0.38,0,0,1-.47-0.34c-0.47-1.62-1-3.23-1.44-4.84Z" transform="translate(-39.42 -11.11)"/><path class="cls-9" d="M486.45,475.28a2.7,2.7,0,0,1,3.25-.65,2.5,2.5,0,0,1,1.42,2.26c0,1.72,0,3.44,0,5.15a0.17,0.17,0,0,1-.21.21c-0.36,0-.73,0-1.09,0s-0.27-.08-0.27-0.28q0-2.2,0-4.4a1.56,1.56,0,1,0-3.11,0c0,1.44,0,2.87,0,4.31,0,0.26,0,.37-0.33.35a8.51,8.51,0,0,0-1,0c-0.17,0-.21-0.05-0.21-0.22q0-3.7,0-7.4c0-.14,0-0.21.19-0.2h1.19a0.16,0.16,0,0,1,.19.2C486.44,474.83,486.45,475,486.45,475.28Z" transform="translate(-39.42 -11.11)"/><path class="cls-9" d="M543.13,475.23a2.64,2.64,0,0,1,1.68-.94,2.61,2.61,0,0,1,1.86.45c0.14,0.1.14,0.16,0,.29-0.3.34-.59,0.7-0.88,1.05a0.16,0.16,0,0,1-.25.05,1.52,1.52,0,0,0-2.44,1.44c0,1.35,0,2.71,0,4.06,0,0.54,0,.54-0.54.54-0.25,0-.5,0-0.75,0s-0.28-.08-0.27-0.29q0-3.61,0-7.22c0-.22,0-0.32.29-0.3s0.69,0,1,0c0.19,0,.27,0,0.25.24S543.13,475,543.13,475.23Z" transform="translate(-39.42 -11.11)"/><path class="cls-9" d="M511.53,475.22a2.62,2.62,0,0,1,1.73-.93,2.57,2.57,0,0,1,1.8.46c0.11,0.08.16,0.14,0,.26q-0.46.53-.9,1.08c-0.1.12-.17,0.09-0.28,0a1.49,1.49,0,0,0-2.38,1.28c0,1.48,0,3,0,4.44,0,0.26,0,.38-0.34.35a9,9,0,0,0-1,0,0.19,0.19,0,0,1-.23-0.23q0-3.67,0-7.34a0.19,0.19,0,0,1,.23-0.23c0.36,0,.73,0,1.09,0a0.2,0.2,0,0,1,.24.26C511.52,474.79,511.53,475,511.53,475.22Z" transform="translate(-39.42 -11.11)"/><path class="cls-9" d="M468.39,477.27a3,3,0,0,0-3.1-2.92,3.07,3.07,0,0,0-3.14,2.29,1.59,1.59,0,0,1-.15.62v0.38a0.66,0.66,0,0,1,0,.44v0.44a1.1,1.1,0,0,1,0,.56v0.38a0.76,0.76,0,0,1,.12.43,2.77,2.77,0,0,0,.4,1,3.13,3.13,0,0,0,3,1.42,3,3,0,0,0,2.75-2.21A8.27,8.27,0,0,0,468.39,477.27Zm-1.63,2.38a1.61,1.61,0,0,1-3.13-.24,8,8,0,0,1,0-2.15,1.61,1.61,0,0,1,3.19,0,6.57,6.57,0,0,1,.06,1.09A4.4,4.4,0,0,1,466.76,479.65Z" transform="translate(-39.42 -11.11)"/><path class="cls-9" d="M471.3,484.48v-3a4.82,4.82,0,0,0,.82.59,2.55,2.55,0,0,0,3.73-1.83,16.26,16.26,0,0,0,0-3.62,2.45,2.45,0,0,0-2-2.2,2.79,2.79,0,0,0-2.55.85c0-.24,0-0.41,0-0.57s-0.06-.25-0.25-0.24c-0.34,0-.69,0-1,0s-0.3,0-.3.29q0,4.88,0,9.76m1.71-7.51a1.29,1.29,0,0,1,1.47-1.05,1.32,1.32,0,0,1,1.4,1.16,8.65,8.65,0,0,1,0,2.54,1.32,1.32,0,0,1-1.37,1.15,1.29,1.29,0,0,1-1.5-1.05A5.89,5.89,0,0,1,471.41,477Z" transform="translate(-39.42 -11.11)"/><path class="cls-9" d="M521.5,471.54a1.35,1.35,0,0,1,0-.16c0-.15,0-0.2-0.2-0.19-0.36,0-.73,0-1.09,0s-0.28.05-.28,0.28c0,1.11,0,2.23,0,3.34v0.38a4.16,4.16,0,0,0-.91-0.65,2.53,2.53,0,0,0-3.67,1.94,15.68,15.68,0,0,0,0,3.61,2.53,2.53,0,0,0,2.93,2.15,3.08,3.08,0,0,0,1.65-.87,4.85,4.85,0,0,1,0,.49c0,0.24,0,.34.3,0.32a6.18,6.18,0,0,1,.91,0c0.28,0,.37-0.06.37-0.35C521.49,478.4,521.5,475,521.5,471.54Zm-1.7,8.08a1.31,1.31,0,0,1-1.52,1.07,1.33,1.33,0,0,1-1.36-1.17,8,8,0,0,1,0-2.51,1.34,1.34,0,0,1,1.39-1.18,1.31,1.31,0,0,1,1.49,1.08A5.92,5.92,0,0,1,519.8,479.62Z" transform="translate(-39.42 -11.11)"/><path class="cls-9" d="M508.21,476.68a2.13,2.13,0,0,0-1.64-2.2,5.4,5.4,0,0,0-2-.2,2.84,2.84,0,0,0-2,.93c-0.11.13-.16,0.21,0,0.33a9,9,0,0,1,.79.6c0.16,0.13.28,0.22,0.43,0a0.84,0.84,0,0,1,.53-0.3,3.83,3.83,0,0,1,1.49,0,0.91,0.91,0,0,1,.9,1.09c0,0.15,0,.29,0,0.44s-0.07.26-.27,0.26c-0.71,0-1.42,0-2.12,0a2.26,2.26,0,0,0-2.33,2.1,2.29,2.29,0,0,0,1.8,2.46,2.62,2.62,0,0,0,.52.1,2.47,2.47,0,0,0,2.4-.79c0,0.23,0,.37,0,0.51a0.16,0.16,0,0,0,.19.2H508c0.16,0,.19-0.07.19-0.21C508.22,480.2,508.25,478.44,508.21,476.68Zm-1.59,3.2a0.85,0.85,0,0,1-.81.85,3.9,3.9,0,0,1-1.64,0,0.91,0.91,0,0,1,.13-1.8,6.82,6.82,0,0,1,1.08,0h1c0.17,0,.25,0,0.24.23A7.24,7.24,0,0,1,506.62,479.88Z" transform="translate(-39.42 -11.11)"/><path class="cls-9" d="M539.8,476.53a2.05,2.05,0,0,0-1.53-2,5.26,5.26,0,0,0-2.68-.15,2.56,2.56,0,0,0-1.51.87c-0.1.12-.12,0.19,0,0.3,0.31,0.22.62,0.46,0.92,0.7,0.12,0.1.18,0.07,0.27,0a1,1,0,0,1,.63-0.37,3.9,3.9,0,0,1,1.46,0,0.9,0.9,0,0,1,.89,1.06,3,3,0,0,0,0,.37c0,0.28-.08.34-0.35,0.34a15.58,15.58,0,0,0-2.53.06,2.16,2.16,0,0,0-1.79,1.73,2.27,2.27,0,0,0,1,2.45,2.72,2.72,0,0,0,1.32.43,2.42,2.42,0,0,0,2.36-.78c0,0.2,0,.31,0,0.42a0.22,0.22,0,0,0,.27.29c0.35,0,.71,0,1.06,0a0.19,0.19,0,0,0,.23-0.24C539.82,480.13,539.84,478.33,539.8,476.53Zm-1.54,2.5a8.5,8.5,0,0,1-.05,1,0.89,0.89,0,0,1-.93.76l-0.62,0a3,3,0,0,1-.9-0.09,0.92,0.92,0,0,1-.74-0.95,0.87,0.87,0,0,1,.82-0.84,16.46,16.46,0,0,1,2.27-.06A0.14,0.14,0,0,1,538.27,479Z" transform="translate(-39.42 -11.11)"/><path class="cls-9" d="M479,478.94h4.34c0.19,0,.28,0,0.27-0.25,0-.48,0-1,0-1.44a3.12,3.12,0,0,0-2.64-2.87,3,3,0,0,0-3.43,1.94,6.27,6.27,0,0,0-.31,2.71,3.21,3.21,0,0,0,3.4,3.3,3.61,3.61,0,0,0,2.68-1.06c0.14-.14.17-0.22,0-0.35s-0.55-.45-0.81-0.69a0.17,0.17,0,0,0-.28,0,2.35,2.35,0,0,1-1,.55,1.8,1.8,0,0,1-2.43-1.59C478.76,479,478.81,478.93,479,478.94Zm-0.25-1.54a1.61,1.61,0,0,1,1.71-1.57,1.64,1.64,0,0,1,1.57,1.65c0,0.19-.1.17-0.21,0.17h-1.4c-0.48,0-1,0-1.43,0C478.8,477.65,478.76,477.58,478.77,477.39Z" transform="translate(-39.42 -11.11)"/><path class="cls-9" d="M553.31,478.66a15.1,15.1,0,0,0-.06-1.74,3.13,3.13,0,0,0-2.9-2.65,3,3,0,0,0-3.17,2.06,6.42,6.42,0,0,0-.27,2.77,3.16,3.16,0,0,0,3,3.13,3.58,3.58,0,0,0,3.08-1c0.14-.14.18-0.22,0-0.36s-0.53-.43-0.79-0.67a0.2,0.2,0,0,0-.33,0,2.12,2.12,0,0,1-.66.41,1.86,1.86,0,0,1-2.75-1.46c0-.21,0-0.3.25-0.29,0.72,0,1.44,0,2.16,0h2.22C553.2,478.85,553.32,478.86,553.31,478.66Zm-1.78-1.09h-2.87c-0.11,0-.24,0-0.22-0.17a1.63,1.63,0,0,1,2.18-1.58,1.67,1.67,0,0,1,1.11,1.57C551.76,477.58,551.65,477.57,551.53,477.57Z" transform="translate(-39.42 -11.11)"/><path class="cls-9" d="M494.68,472.16q0,4.92,0,9.84c0,0.21,0,.31.27,0.29s0.46,0,.69,0c0.61,0,.6,0,0.61-0.61,0-1.44,0-2.88,0-4.31a1.46,1.46,0,0,1,1.4-1.42,1.49,1.49,0,0,1,1.61,1.14,2.63,2.63,0,0,1,.06.71c0,1.4,0,2.79,0,4.19,0,0.22,0,.32.29,0.31s0.71,0,1.06,0a0.18,0.18,0,0,0,.22-0.21c0-1.77,0-3.54,0-5.31a2.58,2.58,0,0,0-3-2.35,2.79,2.79,0,0,0-1.64.86v-3.1h-1.59Z" transform="translate(-39.42 -11.11)"/><path class="cls-9" d="M461.91,730.41s30.75,1.4,39.06,13.38a5.44,5.44,0,0,1-.68,7c-3.34,3.31-9.74,7.69-27.51,5.54C453,753.9,446,741.66,446.86,731.67c1.15-13.6,29.75-38.44,51.7-24.58a5,5,0,0,1,1.32,7C497,718.26,488,724.42,461.91,730.41Z" transform="translate(-39.42 -11.11)"/><circle class="cls-9" cx="441.23" cy="749.75" r="1.95"/><circle class="cls-9" cx="431.1" cy="749.75" r="1.95"/><rect class="cls-9" x="406.67" y="753.24" width="58.98" height="2.43"/><rect class="cls-9" x="406.67" y="686.98" width="58.98" height="2.43"/><rect class="cls-9" x="426.57" y="731.74" width="27.11" height="2.43" transform="translate(1133.67 281.72) rotate(90)"/><rect class="cls-9" x="494.71" y="731.74" width="27.11" height="2.43" transform="translate(1201.81 213.58) rotate(90)"/><text class="cls-40" transform="translate(376.57 784.76)">Escornabot<tspan x="18.74" y="22.28">Makech</tspan><tspan class="cls-41"><tspan x="27.27" y="38.49">Rev. 0.3</tspan></tspan></text><text class="cls-42" transform="translate(360.23 419.19)">R6</text><text class="cls-42" transform="translate(147.24 407.44)">R1</text><text class="cls-42" transform="translate(147.24 433.45)">R2</text><text class="cls-42" transform="translate(147.24 453.58)">R3</text><text class="cls-42" transform="translate(147.24 480.11)">R4</text><text class="cls-42" transform="translate(157.69 560.65) rotate(-90)">R10</text><text class="cls-42" transform="translate(199.88 664.89)">R11</text><text class="cls-42" transform="translate(299.71 686.5)">S3</text><text class="cls-42" transform="translate(31.57 684.1) rotate(-90)">S2</text><text class="cls-42" transform="translate(389.23 599.87) rotate(-90)">S4</text><text class="cls-42" transform="translate(360.92 655.66) rotate(-90)">LED4</text><text class="cls-42" transform="translate(288.57 669.7)">LED3</text><text class="cls-42" transform="translate(172.59 653.56) rotate(-90)">LED2</text><text class="cls-42" transform="translate(198.2 513.23)">LED1</text><text class="cls-42" transform="translate(306.63 498.29)">R9</text><text class="cls-42" transform="translate(347.22 560.65) rotate(-90)">R12</text><text class="cls-42" transform="translate(194.84 529.75)">S5</text><text class="cls-42" transform="translate(253.87 364.66)">S1</text><text class="cls-42" transform="translate(223.47 263.43)">SW1</text><text class="cls-42" transform="translate(80.6 345) rotate(-90)">SW2</text><text class="cls-42" transform="translate(302.29 257.14)">C2</text><text class="cls-42" transform="translate(99.49 35.53)">XH2</text><text class="cls-42" transform="translate(242.11 35.53)">XH1</text><text class="cls-42" transform="translate(234.02 182.97)">C1</text><text class="cls-42" transform="translate(294.13 176.54) rotate(-90)">U1</text><text class="cls-42" transform="translate(420.47 236.13)">C3</text><text class="cls-42" transform="translate(413.19 307.79) rotate(-90)">X1</text><text class="cls-42" transform="translate(317.14 23.37)">J2</text><text class="cls-42" transform="translate(360.23 443.46)">R5</text><text class="cls-43" transform="translate(64.78 386.31)">OFF</text><text class="cls-43" transform="translate(64.78 278.52)">ON</text><text class="cls-44" transform="translate(519.38 334.4) rotate(-90)">Max. 6V</text><path class="cls-45" d="M61.19,408.46a3.56,3.56,0,0,1-.73-0.08V426a3.55,3.55,0,1,1,0,7v17.63a3.55,3.55,0,1,1,0,7v17.63a3.55,3.55,0,1,1,0,7v17.63a3.55,3.55,0,1,1,0,7v17.63A3.54,3.54,0,0,1,64.65,527h43.8a2.37,2.37,0,0,1,1.67-1.27v-20a2.38,2.38,0,0,1,0-4.67v-20a2.38,2.38,0,0,1,0-4.67v-20a2.38,2.38,0,0,1,0-4.67v-20a2.38,2.38,0,0,1,0-4.67v-20a2.37,2.37,0,0,1-1.93-2.26H64.74A3.55,3.55,0,0,1,61.19,408.46Z" transform="translate(-39.42 -11.11)"/><rect class="cls-46" x="55.86" y="402.47" width="7.25" height="7.25" rx="0.71" ry="0.71"/><rect class="cls-46" x="30.71" y="402.47" width="7.25" height="7.25" rx="0.71" ry="0.71"/><rect class="cls-46" x="55.86" y="427.62" width="7.25" height="7.25" rx="0.71" ry="0.71"/><rect class="cls-46" x="30.71" y="427.62" width="7.25" height="7.25" rx="0.71" ry="0.71"/><rect class="cls-46" x="55.86" y="452.76" width="7.25" height="7.25" rx="0.71" ry="0.71"/><rect class="cls-46" x="30.71" y="452.76" width="7.25" height="7.25" rx="0.71" ry="0.71"/><rect class="cls-46" x="55.86" y="477.91" width="7.25" height="7.25" rx="0.71" ry="0.71"/><rect class="cls-46" x="30.71" y="477.91" width="7.25" height="7.25" rx="0.71" ry="0.71"/><rect class="cls-46" x="55.86" y="503.06" width="7.25" height="7.25" rx="0.71" ry="0.71"/><rect class="cls-46" x="30.71" y="503.06" width="7.25" height="7.25" rx="0.71" ry="0.71"/><rect class="cls-47" x="57.81" y="404.24" width="3.69" height="3.69" rx="0.28" ry="0.28"/><rect class="cls-47" x="32.4" y="404.24" width="3.69" height="3.69" rx="0.28" ry="0.28"/><rect class="cls-47" x="57.81" y="429.39" width="3.69" height="3.69" rx="0.28" ry="0.28"/><rect class="cls-47" x="32.4" y="429.39" width="3.69" height="3.69" rx="0.28" ry="0.28"/><rect class="cls-47" x="57.81" y="454.54" width="3.69" height="3.69" rx="0.28" ry="0.28"/><rect class="cls-47" x="32.4" y="454.54" width="3.69" height="3.69" rx="0.28" ry="0.28"/><rect class="cls-47" x="57.81" y="479.69" width="3.69" height="3.69" rx="0.28" ry="0.28"/><rect class="cls-47" x="32.4" y="479.69" width="3.69" height="3.69" rx="0.28" ry="0.28"/><rect class="cls-47" x="57.81" y="504.83" width="3.69" height="3.69" rx="0.28" ry="0.28"/><rect class="cls-47" x="32.4" y="504.83" width="3.69" height="3.69" rx="0.28" ry="0.28"/><path class="cls-45" d="M66.63,183.46a1,1,0,0,1-.34-0.06v14a1,1,0,0,1,.34-0.06c0.92,0,1.66,1.26,1.66,2.82S67.54,203,66.63,203a1,1,0,0,1-.34-0.06v14a1,1,0,0,1,.34-0.06c0.92,0,1.66,1.26,1.66,2.82s-0.74,2.82-1.66,2.82a1,1,0,0,1-.34-0.06v14a1,1,0,0,1,.34-0.06c0.92,0,1.66,1.26,1.66,2.82S67.54,242,66.63,242a1,1,0,0,1-.34-0.06v14a1,1,0,0,1,.34-0.06c0.92,0,1.66,1.26,1.66,2.82s-0.74,2.82-1.66,2.82a1,1,0,0,1-.34-0.06v14a1,1,0,0,1,.34-0.06c0.79,0,1.45.94,1.61,2.2H88.68a1.42,1.42,0,0,1,.78-1V260.66a2.35,2.35,0,0,1,0-3.71V241.11a2.35,2.35,0,0,1,0-3.71V221.55a2.35,2.35,0,0,1,0-3.71V202a2.35,2.35,0,0,1,0-3.71V182.44a1.86,1.86,0,0,1-.9-1.8H68.28C68.28,182.2,67.54,183.46,66.63,183.46Z" transform="translate(-39.42 -11.11)"/><rect class="cls-46" x="34.84" y="179.4" width="7.25" height="7.25" rx="0.71" ry="0.71"/><rect class="cls-47" x="36.79" y="181.17" width="3.69" height="3.69" rx="0.28" ry="0.28"/><rect class="cls-46" x="34.84" y="202.7" width="7.25" height="7.25" rx="0.71" ry="0.71"/><rect class="cls-47" x="36.79" y="204.47" width="3.69" height="3.69" rx="0.28" ry="0.28"/><rect class="cls-46" x="34.84" y="226" width="7.25" height="7.25" rx="0.71" ry="0.71"/><rect class="cls-47" x="36.79" y="227.78" width="3.69" height="3.69" rx="0.28" ry="0.28"/><rect class="cls-46" x="34.84" y="249.3" width="7.25" height="7.25" rx="0.71" ry="0.71"/><rect class="cls-47" x="36.79" y="251.08" width="3.69" height="3.69" rx="0.28" ry="0.28"/><use width="13.55" height="13.55" transform="matrix(0, -1.08, 2.14, 0, 28.85, 290.77)" xlink:href="#Conq"/><use width="13.55" height="13.55" transform="matrix(0, 1.08, -2.14, 0, 57.85, 368.79)" xlink:href="#Conq"/><rect class="cls-48" x="19.23" y="284.76" width="38.46" height="89.51"/><rect class="cls-39" y="311.74" width="19.23" height="14.84"/><polygon class="cls-39" points="53.9 284.76 50.72 284.76 50.72 288.95 53.9 288.95 53.9 297.58 57.69 297.58 57.69 288.95 57.69 284.76 53.9 284.76"/><polygon class="cls-39" points="23.02 284.76 26.2 284.76 26.2 288.95 23.02 288.95 23.02 297.58 19.23 297.58 19.23 288.95 19.23 284.76 23.02 284.76"/><polygon class="cls-39" points="23.02 374.27 26.2 374.27 26.2 370.07 23.02 370.07 23.02 361.45 19.23 361.45 19.23 370.07 19.23 374.27 23.02 374.27"/><polygon class="cls-39" points="53.9 374.27 50.72 374.27 50.72 370.07 53.9 370.07 53.9 361.45 57.69 361.45 57.69 370.07 57.69 374.27 53.9 374.27"/><use width="12.75" height="23.63" transform="matrix(0, -0.86, 0.62, 0, 441.34, 68.13)" xlink:href="#conexxion"/><use width="12.75" height="23.63" transform="matrix(0, -0.86, 0.62, 0, 441.34, 93.09)" xlink:href="#conexxion"/><use width="12.75" height="23.63" transform="matrix(0, -0.86, 0.62, 0, 441.34, 118.05)" xlink:href="#conexxion"/><use width="12.75" height="23.63" transform="matrix(0, -0.86, 0.62, 0, 441.34, 143.02)" xlink:href="#conexxion"/><use width="12.75" height="23.63" transform="matrix(0, -0.86, 0.62, 0, 441.34, 167.98)" xlink:href="#conexxion"/><use width="12.75" height="23.63" transform="matrix(0, -0.86, 0.62, 0, 441.34, 192.94)" xlink:href="#conexxion"/><use width="12.75" height="23.63" transform="matrix(0, -0.86, -0.62, 0, 519.07, 68.13)" xlink:href="#conexxion"/><use width="12.75" height="23.63" transform="matrix(0, -0.86, -0.62, 0, 519.07, 93.09)" xlink:href="#conexxion"/><use width="12.75" height="23.63" transform="matrix(0, -0.86, -0.62, 0, 519.07, 118.05)" xlink:href="#conexxion"/><use width="12.75" height="23.63" transform="matrix(0, -0.86, -0.62, 0, 519.07, 143.02)" xlink:href="#conexxion"/><use width="12.75" height="23.63" transform="matrix(0, -0.86, -0.62, 0, 519.07, 167.98)" xlink:href="#conexxion"/><use width="12.75" height="23.63" transform="matrix(0, -0.86, -0.62, 0, 519.07, 192.94)" xlink:href="#conexxion"/><rect class="cls-39" x="454.84" y="51.36" width="50.6" height="147.76"/><path class="cls-49" d="M486.92,57h11.52a0,0,0,0,1,0,0V68.93a0,0,0,0,1,0,0H486.92a0.36,0.36,0,0,1-.36-0.36V57.41A0.36,0.36,0,0,1,486.92,57Z"/><path class="cls-35" d="M537.18,79.57h-9.73a0.85,0.85,0,0,1-.87-0.82v-9.3a0.85,0.85,0,0,1,.87-0.82h9.73V70h-8.7a0.85,0.85,0,0,0-.87.82v6.52a0.85,0.85,0,0,0,.87.82h8.7v1.37Z" transform="translate(-39.42 -11.11)"/><path class="cls-49" d="M486.89,82H498.4a0,0,0,0,1,0,0V93.89a0,0,0,0,1,0,0H486.89a0.36,0.36,0,0,1-.36-0.36V82.37A0.36,0.36,0,0,1,486.89,82Z"/><path class="cls-35" d="M537.15,104.53h-9.73a0.85,0.85,0,0,1-.87-0.82v-9.3a0.85,0.85,0,0,1,.87-0.82h9.73V95h-8.7a0.85,0.85,0,0,0-.87.82v6.52a0.85,0.85,0,0,0,.87.82h8.7v1.37Z" transform="translate(-39.42 -11.11)"/><path class="cls-49" d="M486.85,107h11.52a0,0,0,0,1,0,0v11.88a0,0,0,0,1,0,0H486.85a0.36,0.36,0,0,1-.36-0.36V107.34A0.36,0.36,0,0,1,486.85,107Z"/><path class="cls-35" d="M537.12,129.5h-9.73a0.85,0.85,0,0,1-.87-0.82v-9.3a0.85,0.85,0,0,1,.87-0.82h9.73V120h-8.7a0.85,0.85,0,0,0-.87.82v6.52a0.85,0.85,0,0,0,.87.82h8.7v1.37Z" transform="translate(-39.42 -11.11)"/><path class="cls-49" d="M486.82,131.94h11.52a0,0,0,0,1,0,0v11.88a0,0,0,0,1,0,0H486.82a0.36,0.36,0,0,1-.36-0.36V132.3A0.36,0.36,0,0,1,486.82,131.94Z"/><path class="cls-35" d="M537.09,154.46h-9.73a0.85,0.85,0,0,1-.87-0.82v-9.3a0.85,0.85,0,0,1,.87-0.82h9.73v1.4h-8.7a0.85,0.85,0,0,0-.87.82v6.52a0.85,0.85,0,0,0,.87.82h8.7v1.37Z" transform="translate(-39.42 -11.11)"/><path class="cls-49" d="M486.79,156.9h11.52a0,0,0,0,1,0,0v11.88a0,0,0,0,1,0,0H486.79a0.36,0.36,0,0,1-.36-0.36V157.27A0.36,0.36,0,0,1,486.79,156.9Z"/><path class="cls-35" d="M537.05,179.42h-9.73a0.85,0.85,0,0,1-.87-0.82v-9.3a0.85,0.85,0,0,1,.87-0.82h9.73v1.4h-8.7a0.85,0.85,0,0,0-.87.82v6.52a0.85,0.85,0,0,0,.87.82h8.7v1.37Z" transform="translate(-39.42 -11.11)"/><path class="cls-49" d="M486.76,181.86h11.52a0,0,0,0,1,0,0v11.88a0,0,0,0,1,0,0H486.76a0.36,0.36,0,0,1-.36-0.36V182.23A0.36,0.36,0,0,1,486.76,181.86Z"/><path class="cls-35" d="M537,204.39h-9.73a0.85,0.85,0,0,1-.87-0.82v-9.3a0.85,0.85,0,0,1,.87-0.82H537v1.4h-8.7a0.85,0.85,0,0,0-.87.82v6.52a0.85,0.85,0,0,0,.87.82H537v1.37Z" transform="translate(-39.42 -11.11)"/><path class="cls-49" d="M501.62,192.65h11.52a0,0,0,0,1,0,0v11.88a0,0,0,0,1,0,0H501.62a0.36,0.36,0,0,1-.36-0.36V193A0.36,0.36,0,0,1,501.62,192.65Z" transform="translate(974.97 386.08) rotate(180)"/><path class="cls-35" d="M501.93,193.12h9.73a0.85,0.85,0,0,1,.87.82v9.3a0.85,0.85,0,0,1-.87.82h-9.73v-1.4h8.7a0.85,0.85,0,0,0,.87-0.82v-6.52a0.85,0.85,0,0,0-.87-0.82h-8.7v-1.37Z" transform="translate(-39.42 -11.11)"/><path class="cls-49" d="M501.65,167.69h11.52a0,0,0,0,1,0,0v11.88a0,0,0,0,1,0,0H501.65a0.36,0.36,0,0,1-.36-0.36V168.06A0.36,0.36,0,0,1,501.65,167.69Z" transform="translate(975.04 336.16) rotate(180)"/><path class="cls-35" d="M502,168.16h9.73a0.85,0.85,0,0,1,.87.82v9.3a0.85,0.85,0,0,1-.87.82H502v-1.4h8.7a0.85,0.85,0,0,0,.87-0.82v-6.52a0.85,0.85,0,0,0-.87-0.82H502v-1.37Z" transform="translate(-39.42 -11.11)"/><path class="cls-49" d="M501.68,142.73H513.2a0,0,0,0,1,0,0v11.88a0,0,0,0,1,0,0H501.68a0.36,0.36,0,0,1-.36-0.36V143.09A0.36,0.36,0,0,1,501.68,142.73Z" transform="translate(975.1 286.23) rotate(180)"/><path class="cls-35" d="M502,143.19h9.73a0.85,0.85,0,0,1,.87.82v9.3a0.85,0.85,0,0,1-.87.82H502v-1.4h8.7a0.85,0.85,0,0,0,.87-0.82v-6.52a0.85,0.85,0,0,0-.87-0.82H502v-1.37Z" transform="translate(-39.42 -11.11)"/><path class="cls-49" d="M501.71,117.76h11.52a0,0,0,0,1,0,0v11.88a0,0,0,0,1,0,0H501.71a0.36,0.36,0,0,1-.36-0.36V118.13A0.36,0.36,0,0,1,501.71,117.76Z" transform="translate(975.17 236.3) rotate(180)"/><path class="cls-35" d="M502,118.23h9.73a0.85,0.85,0,0,1,.87.82v9.3a0.85,0.85,0,0,1-.87.82H502v-1.4h8.7a0.85,0.85,0,0,0,.87-0.82v-6.52a0.85,0.85,0,0,0-.87-0.82H502v-1.37Z" transform="translate(-39.42 -11.11)"/><path class="cls-49" d="M501.75,92.8h11.52a0,0,0,0,1,0,0v11.88a0,0,0,0,1,0,0H501.75a0.36,0.36,0,0,1-.36-0.36V93.16A0.36,0.36,0,0,1,501.75,92.8Z" transform="translate(975.23 186.37) rotate(180)"/><path class="cls-35" d="M502.05,93.27h9.73a0.85,0.85,0,0,1,.87.82v9.3a0.85,0.85,0,0,1-.87.82h-9.73v-1.4h8.7a0.85,0.85,0,0,0,.87-0.82V95.46a0.85,0.85,0,0,0-.87-0.82h-8.7V93.27Z" transform="translate(-39.42 -11.11)"/><path class="cls-49" d="M501.78,67.84H513.3a0,0,0,0,1,0,0V79.72a0,0,0,0,1,0,0H501.78a0.36,0.36,0,0,1-.36-0.36V68.2A0.36,0.36,0,0,1,501.78,67.84Z" transform="translate(975.29 136.44) rotate(180)"/><path class="cls-35" d="M502.09,68.3h9.73a0.85,0.85,0,0,1,.87.82v9.3a0.85,0.85,0,0,1-.87.82h-9.73v-1.4h8.7a0.85,0.85,0,0,0,.87-0.82V70.5a0.85,0.85,0,0,0-.87-0.82h-8.7V68.3Z" transform="translate(-39.42 -11.11)"/><path class="cls-50" d="M87.3,136.91v5H84.6v-5H81.79a7.53,7.53,0,0,0-7.53,7.53V145a7.53,7.53,0,0,0,7.53,7.53H84.6v-5h2.7v5h2.81A7.53,7.53,0,0,0,97.64,145v-0.56a7.53,7.53,0,0,0-7.53-7.53H87.3Z" transform="translate(-39.42 -11.11)"/><path class="cls-51" d="M87.3,136.91l0.06,5V142H87.3l-2.7,0H84.51v-0.09l0-5L84.6,137H82.73a15.25,15.25,0,0,0-1.85.07,7.25,7.25,0,0,0-1.76.45,7.06,7.06,0,0,0-1.6.87,7.42,7.42,0,0,0-2.92,4.47,10.18,10.18,0,0,0,0,3.63A7.39,7.39,0,0,0,77.56,151a7,7,0,0,0,1.59.85,7.15,7.15,0,0,0,1.75.43,15.22,15.22,0,0,0,1.83.05H84.6l-0.25.25,0-5V147.3h3.15v0.22l0,5-0.2-.2h1.87a15.22,15.22,0,0,0,1.85-.05,7.22,7.22,0,0,0,1.75-.43,7,7,0,0,0,1.6-.85,7.44,7.44,0,0,0,3-4.46,10.23,10.23,0,0,0,0-3.65,7.62,7.62,0,0,0-2.93-4.52,7.14,7.14,0,0,0-1.61-.89A7.33,7.33,0,0,0,91,137a15.37,15.37,0,0,0-1.86-.08Zm0,0,1.87,0a15.43,15.43,0,0,1,1.87,0,7.44,7.44,0,0,1,1.82.44,7.29,7.29,0,0,1,1.66.87,7.73,7.73,0,0,1,1.4,1.26A7.35,7.35,0,0,1,97,141.06a7.68,7.68,0,0,1,.63,1.78,10.51,10.51,0,0,1,0,3.77,7.75,7.75,0,0,1-3.06,4.67,7.39,7.39,0,0,1-1.67.91,7.55,7.55,0,0,1-1.85.47,15.62,15.62,0,0,1-1.88.07H87.1v-0.2l0-5,0.22,0.22H84.6l0.23-.23,0,5v0.25H82.73a15.65,15.65,0,0,1-1.89-.07,7.62,7.62,0,0,1-1.86-.47,7.44,7.44,0,0,1-1.68-.91,7.8,7.8,0,0,1-3.07-4.7,10.56,10.56,0,0,1,0-3.79,7.77,7.77,0,0,1,3.09-4.66,7.37,7.37,0,0,1,1.68-.89,7.53,7.53,0,0,1,1.85-.46,15.56,15.56,0,0,1,1.87-.05h2v0.13l0,5-0.09-.09,2.7,0-0.06.06Z" transform="translate(-39.42 -11.11)"/></svg>