<svg version="1.1" xmlns="http://www.w3.org/2000/svg" xmlns:xlink="http://www.w3.org/1999/xlink" stroke-linecap="round" stroke-linejoin="round" stroke-width="0" fill-rule="evenodd" width="1.545in" height="1.335in" viewBox="-769 -12 1545 1335" id="MfsijADsC8p4kvW08JMH"><g transform="translate(0,1311) scale(1,-1)" fill="currentColor" stroke="currentColor"><path d="M -671 441 -671 441 -670 441 -669 442 -669 442 -668 443 -668 444 -667 444 -667 445 -666 446 -666 446 -666 447 -665 448 -665 449 -665 450 -665 450 -665 451 -665 452 -665 453 -665 454 -666 454 -666 455 -666 456 -667 457 -667 457 -668 458 -668 459 -669 459 -669 460 -670 460 -671 461 -671 461 -672 462 -673 462 -674 462 -674 462 -675 462 -676 463 -677 463 -678 463 -679 462 -679 462 -680 462 -681 462 -682 462 -682 461 -683 461 -684 460 -684 460 -685 459 -686 459 -686 458 -687 458 -712 458 -714 458 -716 459 -718 459 -720 460 -721 461 -723 462 -725 463 -726 464 -727 465 -729 467 -730 468 -731 470 -732 471 -733 473 -734 475 -734 476 -735 478 -735 480 -735 482 -736 484 -736 486 -735 488 -735 488 -735 833 -725 842 -714 850 -704 859 -693 868 -682 876 -682 876 -681 879 -680 881 -680 884 -680 887 -680 889 -680 892 -680 895 -680 898 -681 900 -682 903 -683 906 -684 908 -685 909 -765 1047 -765 1048 -766 1050 -767 1052 -768 1054 -768 1056 -769 1059 -769 1061 -769 1063 -769 1065 -769 1067 -768 1070 -768 1072 -767 1074 -766 1076 -765 1078 -764 1080 -763 1082 -761 1083 -760 1085 -758 1086 -757 1088 -755 1089 -753 1090 -753 1090 -585 1188 -584 1188 -582 1189 -580 1190 -578 1191 -575 1191 -573 1191 -571 1192 -569 1192 -567 1192 -565 1191 -562 1191 -560 1191 -558 1190 -556 1189 -554 1188 -552 1187 -550 1186 -549 1184 -547 1183 -546 1181 -544 1180 -543 1178 -542 1176 -542 1176 -462 1038 -462 1038 -460 1036 -459 1033 -457 1031 -455 1029 -453 1027 -451 1026 -449 1024 -446 1023 -444 1022 -441 1021 -439 1020 -436 1019 -379 1041 -304 1065 -227 1084 -149 1097 -149 1097 -147 1099 -145 1100 -143 1102 -141 1104 -139 1106 -137 1108 -135 1110 -134 1112 -132 1115 -131 1117 -130 1120 -129 1122 -129 1125 -128 1128 -128 1131 -128 1132 -128 1292 -128 1293 -128 1295 -128 1297 -127 1299 -127 1301 -126 1304 -125 1306 -124 1307 -123 1309 -122 1311 -120 1313 -119 1314 -117 1316 -115 1317 -113 1318 -112 1320 -110 1321 -108 1321 -105 1322 -103 1323 -101 1323 -99 1323 -97 1323 -97 1323 97 1323 98 1323 100 1323 102 1323 104 1322 106 1322 109 1321 111 1320 112 1319 114 1318 116 1317 118 1315 119 1314 121 1312 122 1310 123 1308 125 1307 126 1305 126 1303 127 1300 128 1298 128 1296 128 1294 128 1292 128 1292 128 1132 128 1132 128 1130 129 1127 129 1124 130 1121 131 1119 132 1116 133 1114 134 1111 136 1109 137 1107 139 1105 141 1103 143 1101 146 1100 146 1099 204 1090 281 1073 357 1051 431 1024 431 1024 434 1024 437 1024 439 1024 442 1024 445 1025 447 1026 450 1027 453 1028 455 1029 457 1031 459 1032 461 1034 463 1036 465 1038 467 1040 468 1043 469 1043 548 1181 549 1182 550 1184 552 1186 553 1187 555 1189 556 1190 558 1192 560 1193 562 1194 564 1195 566 1195 568 1196 570 1197 572 1197 575 1197 577 1197 579 1197 581 1197 583 1196 585 1195 588 1195 590 1194 591 1193 591 1193 760 1096 761 1095 763 1094 764 1092 766 1091 768 1089 769 1088 770 1086 771 1084 772 1082 773 1080 774 1078 775 1076 775 1074 775 1072 776 1069 776 1067 775 1065 775 1063 775 1061 774 1059 773 1056 772 1054 771 1053 771 1053 692 914 692 914 690 912 689 910 688 907 688 904 687 902 687 899 686 896 686 893 687 891 687 888 688 885 688 883 689 880 690 878 692 875 693 873 694 872 703 865 713 857 722 849 732 841 741 833 741 833 741 49 741 46 741 42 740 38 739 34 738 29 737 25 735 21 733 18 731 14 728 10 725 7 722 4 719 1 716 0 712 -3 708 -5 704 -7 700 -9 696 -10 692 -11 688 -12 684 -12 679 -12 679 -12 -674 -12 -676 -12 -680 -12 -684 -11 -689 -10 -693 -9 -697 -8 -701 -6 -704 -4 -708 -2 -712 0 -715 3 -718 6 -721 9 -724 12 -726 16 -728 20 -730 23 -732 27 -733 32 -734 36 -735 40 -735 44 -735 49 -735 49 -735 227 -735 228 -736 230 -736 232 -735 234 -735 235 -735 237 -734 239 -733 241 -732 242 -732 244 -731 246 -729 247 -728 249 -727 250 -725 251 -724 252 -722 253 -721 254 -719 255 -717 256 -715 256 -713 257 -712 257 -712 257 -686 257 -686 257 -686 256 -685 256 -685 255 -684 255 -683 254 -683 254 -682 253 -681 253 -681 253 -680 252 -679 252 -678 252 -677 252 -676 252 -676 252 -675 252 -674 252 -673 252 -672 253 -672 253 -671 253 -670 254 -670 254 -669 255 -668 255 -668 256 -667 257 -667 257 -666 258 -666 259 -666 259 -665 260 -665 261 -665 262 -665 263 -665 263 -665 264 -665 265 -665 266 -665 267 -665 268 -666 268 -666 269 -667 270 -667 270 -667 271 -668 272 -669 272 -669 273 -670 273 -670 274 -670 441 M -712 458 -712 458" fill="none" stroke-width="3.94"/></g></svg>