<svg xmlns="http://www.w3.org/2000/svg" id="Layer_1" viewBox="0 0 163 152.5">
  <style id="style4485">
    .st2{fill:#404040}.st3{fill:#fff}.st4{fill:#737373}.st4,.st5,.st6,.st7{opacity:.14;enable-background:new}.st5{fill:#8c8c8c}.st6{fill:#2b2b2b}.st7{fill:#444}.st8{fill:#bdbbbb}.st9{fill:#9a916c}.st10{fill:#8c8c8c}.st13{fill:#63686e}.st14{fill:none}.st15{fill:#7a7879}.st16{fill:#f9ffff}.st17{fill:#231f20}.st19{fill:#4d535e}.st21{fill:#bbb1a5}.st22{fill:#766c60}
  </style>
  <linearGradient id="SVGID_1_" gradientUnits="userSpaceOnUse" x1="137.08" y1="54.584" x2="137.542" y2="53.429" gradientTransform="matrix(1 0 0 -1 0 155.9)">
    <stop offset="0" stop-color="#cc2725" id="stop4489"/>
    <stop offset=".243" stop-color="#e22426" id="stop4491"/>
    <stop offset=".758" stop-color="#e22426" id="stop4493"/>
    <stop offset="1" stop-color="#cf2625" id="stop4495"/>
  </linearGradient>
  <g id="g5526" transform="translate(-3.9 4.5)">
    <path id="path4487" d="M157.9 32.9V.1l-4-4.6H9.8V148h149v-9.5l6.1-6.3V40zM19.6-.6c2.5 0 4.5 2.1 4.5 4.6.1 2.5-1.9 4.5-4.3 4.6-2.5.1-4.5-1.9-4.6-4.3V4c-.1-2.5 1.9-4.6 4.4-4.6zm-3.3 144.1c-2.5-.1-4.5-2.2-4.5-4.7.1-2.4 2-4.4 4.5-4.5 2.5.1 4.5 2.2 4.5 4.7-.1 2.4-2.1 4.4-4.5 4.5zM158.1 130c-2.5.1-4.7-1.9-4.7-4.5s1.9-4.7 4.5-4.7c2.5-.1 4.7 1.9 4.7 4.5v.1c0 2.5-2 4.6-4.5 4.6zm0-78.2c-2.5.1-4.7-1.9-4.7-4.5-.1-2.5 1.9-4.7 4.5-4.7s4.7 1.9 4.7 4.5v.1c0 2.5-2 4.6-4.5 4.6z" fill="#e72d2f"/>
    <circle r=".7" id="ellipse4498" cy="101.9" cx="137.3" fill="url(#SVGID_1_)"/>
    <path id="path4500" d="M50.8 135.9h55.4c.2 0 .4.2.4.4v6c0 .2-.2.4-.4.4H50.8c-.2 0-.4-.2-.4-.4v-6c-.1-.2.1-.4.4-.4zm62.1 0h41.5c.2 0 .4.2.4.4v6c0 .2-.2.4-.4.4h-41.5c-.2 0-.4-.2-.4-.4v-6c0-.2.2-.4.4-.4z" class="st2" fill="#404040"/>
    <path id="path4502" d="M32.5 98.4h.4v2.9h-.4zm-.8-3.5c-.2 0-.3-.1-.3-.3 0-.2.1-.3.3-.3h.8v-.8c0-.2.1-.3.3-.3.2 0 .3.1.3.3v.8h.8c.2 0 .3.1.3.3 0 .2-.1.3-.3.3h-.8v.8c0 .2-.1.3-.3.3-.2 0-.3-.1-.3-.3v-.8z" class="st3" fill="#fff"/>
    <path id="path4504" d="M53.6 139.4l2.6 2.7v-5.3z" class="st4" opacity=".14" fill="#737373"/>
    <path id="path4506" d="M50.9 142.1h5.3l-2.6-2.7z" class="st5" opacity=".14" fill="#8c8c8c"/>
    <path id="path4508" d="M56.2 136.8h-5.3l2.7 2.6z" class="st6" opacity=".14" fill="#2b2b2b"/>
    <path id="path4510" d="M50.9 136.8v5.3l2.7-2.7z" class="st7" opacity=".14" fill="#444"/>
    <path id="path4512" d="M52.2 138.1h2.6v2.6h-2.6z"/>
    <path id="path4514" d="M60.7 139.4l2.6 2.7v-5.3z" class="st4" opacity=".14" fill="#737373"/>
    <path id="path4516" d="M58 142.1h5.3l-2.6-2.7z" class="st5" opacity=".14" fill="#8c8c8c"/>
    <path id="path4518" d="M63.3 136.8H58l2.7 2.6z" class="st6" opacity=".14" fill="#2b2b2b"/>
    <path id="path4520" d="M58 136.8v5.3l2.7-2.7z" class="st7" opacity=".14" fill="#444"/>
    <path id="path4522" d="M59.4 138.1H62v2.6h-2.6z"/>
    <path id="path4524" d="M67.8 139.4l2.6 2.7v-5.3z" class="st4" opacity=".14" fill="#737373"/>
    <path id="path4526" d="M65.1 142.1h5.3l-2.6-2.7z" class="st5" opacity=".14" fill="#8c8c8c"/>
    <path id="path4528" d="M70.4 136.8h-5.3l2.7 2.6z" class="st6" opacity=".14" fill="#2b2b2b"/>
    <path id="path4530" d="M65.1 136.8v5.3l2.7-2.7z" class="st7" opacity=".14" fill="#444"/>
    <path id="path4532" d="M66.5 138.1h2.6v2.6h-2.6z"/>
    <path id="path4534" d="M74.9 139.4l2.7 2.7v-5.3z" class="st4" opacity=".14" fill="#737373"/>
    <path id="path4536" d="M72.3 142.1h5.3l-2.7-2.7z" class="st5" opacity=".14" fill="#8c8c8c"/>
    <path id="path4538" d="M77.6 136.8h-5.3l2.6 2.6z" class="st6" opacity=".14" fill="#2b2b2b"/>
    <path id="path4540" d="M72.3 136.8v5.3l2.6-2.7z" class="st7" opacity=".14" fill="#444"/>
    <path id="path4542" d="M73.6 138.1h2.6v2.6h-2.6z"/>
    <path id="path4544" d="M82 139.4l2.7 2.7v-5.3z" class="st4" opacity=".14" fill="#737373"/>
    <path id="path4546" d="M79.4 142.1h5.3l-2.7-2.7z" class="st5" opacity=".14" fill="#8c8c8c"/>
    <path id="path4548" d="M84.7 136.8h-5.3l2.6 2.6z" class="st6" opacity=".14" fill="#2b2b2b"/>
    <path id="path4550" d="M79.4 136.8v5.3l2.6-2.7z" class="st7" opacity=".14" fill="#444"/>
    <path id="path4552" d="M80.7 138.1h2.6v2.6h-2.6z"/>
    <path id="path4554" d="M89.1 139.4l2.7 2.7v-5.3z" class="st4" opacity=".14" fill="#737373"/>
    <path id="path4556" d="M86.5 142.1h5.3l-2.7-2.7z" class="st5" opacity=".14" fill="#8c8c8c"/>
    <path id="path4558" d="M91.8 136.8h-5.3l2.6 2.6z" class="st6" opacity=".14" fill="#2b2b2b"/>
    <path id="path4560" d="M86.5 136.8v5.3l2.6-2.7z" class="st7" opacity=".14" fill="#444"/>
    <path id="path4562" d="M87.8 138.1h2.6v2.6h-2.6z"/>
    <path id="path4564" d="M96.2 139.4l2.7 2.7v-5.3z" class="st4" opacity=".14" fill="#737373"/>
    <path id="path4566" d="M93.6 142.1h5.3l-2.7-2.7z" class="st5" opacity=".14" fill="#8c8c8c"/>
    <path id="path4568" d="M98.9 136.8h-5.3l2.6 2.6z" class="st6" opacity=".14" fill="#2b2b2b"/>
    <path id="path4570" d="M93.6 136.8v5.3l2.6-2.7z" class="st7" opacity=".14" fill="#444"/>
    <path id="path4572" d="M94.9 138.1h2.6v2.6h-2.6z"/>
    <path id="path4574" d="M103.4 139.4l2.6 2.7v-5.3z" class="st4" opacity=".14" fill="#737373"/>
    <path id="path4576" d="M100.7 142.1h5.3l-2.6-2.7z" class="st5" opacity=".14" fill="#8c8c8c"/>
    <path id="path4578" d="M106 136.8h-5.3l2.7 2.6z" class="st6" opacity=".14" fill="#2b2b2b"/>
    <path id="path4580" d="M100.7 136.8v5.3l2.7-2.7z" class="st7" opacity=".14" fill="#444"/>
    <path id="path4582" d="M102 138.1h2.6v2.6H102z"/>
    <path id="path4584" d="M115.9 139.4l2.7 2.7v-5.3z" class="st4" opacity=".14" fill="#737373"/>
    <path id="path4586" d="M113.2 142.1h5.4l-2.7-2.7z" class="st5" opacity=".14" fill="#8c8c8c"/>
    <path id="path4588" d="M118.6 136.8h-5.4l2.7 2.6z" class="st6" opacity=".14" fill="#2b2b2b"/>
    <path id="path4590" d="M113.2 136.8v5.3l2.7-2.7z" class="st7" opacity=".14" fill="#444"/>
    <path id="path4592" d="M114.6 138.1h2.6v2.6h-2.6z"/>
    <path id="path4594" d="M123 139.4l2.7 2.7v-5.3z" class="st4" opacity=".14" fill="#737373"/>
    <path id="path4596" d="M120.4 142.1h5.3l-2.7-2.7z" class="st5" opacity=".14" fill="#8c8c8c"/>
    <path id="path4598" d="M125.7 136.8h-5.3l2.6 2.6z" class="st6" opacity=".14" fill="#2b2b2b"/>
    <path id="path4600" d="M120.4 136.8v5.3l2.6-2.7z" class="st7" opacity=".14" fill="#444"/>
    <path id="path4602" d="M121.7 138.1h2.6v2.6h-2.6z"/>
    <g transform="translate(0 -12.1)" id="g4614">
      <path id="path4604" d="M130.1 151.5l2.7 2.7v-5.3z" class="st4" opacity=".14" fill="#737373"/>
      <path id="path4606" d="M127.5 154.2h5.3l-2.7-2.7z" class="st5" opacity=".14" fill="#8c8c8c"/>
      <path id="path4608" d="M132.8 148.9h-5.3l2.6 2.6z" class="st6" opacity=".14" fill="#2b2b2b"/>
      <path id="path4610" d="M127.5 148.9v5.3l2.6-2.7z" class="st7" opacity=".14" fill="#444"/>
      <path id="path4612" d="M128.8 150.2h2.6v2.6h-2.6z"/>
    </g>
    <g transform="translate(0 -12.1)" id="g4626">
      <path id="path4616" d="M137.2 151.5l2.7 2.7v-5.3z" class="st4" opacity=".14" fill="#737373"/>
      <path id="path4618" d="M134.6 154.2h5.3l-2.7-2.7z" class="st5" opacity=".14" fill="#8c8c8c"/>
      <path id="path4620" d="M139.9 148.9h-5.3l2.6 2.6z" class="st6" opacity=".14" fill="#2b2b2b"/>
      <path id="path4622" d="M134.6 148.9v5.3l2.6-2.7z" class="st7" opacity=".14" fill="#444"/>
      <path id="path4624" d="M135.9 150.2h2.6v2.6h-2.6z"/>
    </g>
    <g transform="translate(0 -12.1)" id="g4638">
      <path id="path4628" d="M144.3 151.5l2.7 2.7v-5.3z" class="st4" opacity=".14" fill="#737373"/>
      <path id="path4630" d="M141.7 154.2h5.3l-2.7-2.7z" class="st5" opacity=".14" fill="#8c8c8c"/>
      <path id="path4632" d="M147 148.9h-5.3l2.6 2.6z" class="st6" opacity=".14" fill="#2b2b2b"/>
      <path id="path4634" d="M141.7 148.9v5.3l2.6-2.7z" class="st7" opacity=".14" fill="#444"/>
      <path id="path4636" d="M143 150.2h2.6v2.6H143z"/>
    </g>
    <g transform="translate(0 -12.1)" id="g4650">
      <path id="path4640" d="M151.5 151.5l2.6 2.7v-5.3z" class="st4" opacity=".14" fill="#737373"/>
      <path id="path4642" d="M148.8 154.2h5.3l-2.6-2.7z" class="st5" opacity=".14" fill="#8c8c8c"/>
      <path id="path4644" d="M154.1 148.9h-5.3l2.7 2.6z" class="st6" opacity=".14" fill="#2b2b2b"/>
      <path id="path4646" d="M148.8 148.9v5.3l2.7-2.7z" class="st7" opacity=".14" fill="#444"/>
      <path id="path4648" d="M150.1 150.2h2.6v2.6h-2.6z"/>
    </g>
    <g transform="translate(0 -12.1)" id="g4862">
      <path id="path4652" d="M26.8 13.9h69.7c.2 0 .4.2.4.4v6c0 .2-.2.4-.4.4H26.8c-.2 0-.4-.2-.4-.4v-6c-.1-.2.1-.4.4-.4zm73.5 0h55.4c.2 0 .4.2.4.4v6c0 .2-.2.4-.4.4h-55.4c-.2 0-.4-.2-.4-.4v-6c0-.2.2-.4.4-.4z" class="st2" fill="#404040"/>
      <path id="path4654" d="M29.5 17.3l2.7 2.7v-5.3z" class="st4" opacity=".14" fill="#737373"/>
      <path id="path4656" d="M26.9 20h5.3l-2.7-2.7z" class="st5" opacity=".14" fill="#8c8c8c"/>
      <path id="path4658" d="M32.2 14.7h-5.3l2.6 2.6z" class="st6" opacity=".14" fill="#2b2b2b"/>
      <path id="path4660" d="M26.9 14.7V20l2.6-2.7z" class="st7" opacity=".14" fill="#444"/>
      <path id="path4662" d="M28.2 16h2.6v2.6h-2.6z"/>
      <path id="path4664" d="M36.7 17.3l2.6 2.7v-5.3z" class="st4" opacity=".14" fill="#737373"/>
      <path id="path4666" d="M34 20h5.3l-2.6-2.7z" class="st5" opacity=".14" fill="#8c8c8c"/>
      <path id="path4668" d="M39.3 14.7H34l2.7 2.6z" class="st6" opacity=".14" fill="#2b2b2b"/>
      <path id="path4670" d="M34 14.7V20l2.7-2.7z" class="st7" opacity=".14" fill="#444"/>
      <path id="path4672" d="M35.3 16h2.6v2.6h-2.6z"/>
      <path id="path4674" d="M43.8 17.3l2.6 2.7v-5.3z" class="st4" opacity=".14" fill="#737373"/>
      <path id="path4676" d="M41.1 20h5.3l-2.6-2.7z" class="st5" opacity=".14" fill="#8c8c8c"/>
      <path id="path4678" d="M46.4 14.7h-5.3l2.7 2.6z" class="st6" opacity=".14" fill="#2b2b2b"/>
      <path id="path4680" d="M41.1 14.7V20l2.7-2.7z" class="st7" opacity=".14" fill="#444"/>
      <path id="path4682" d="M42.5 16h2.6v2.6h-2.6z"/>
      <path id="path4684" d="M50.9 17.3l2.6 2.7v-5.3z" class="st4" opacity=".14" fill="#737373"/>
      <path id="path4686" d="M48.2 20h5.3l-2.6-2.7z" class="st5" opacity=".14" fill="#8c8c8c"/>
      <path id="path4688" d="M53.5 14.7h-5.3l2.7 2.6z" class="st6" opacity=".14" fill="#2b2b2b"/>
      <path id="path4690" d="M48.2 14.7V20l2.7-2.7z" class="st7" opacity=".14" fill="#444"/>
      <path id="path4692" d="M49.6 16h2.6v2.6h-2.6z"/>
      <g id="g4704">
        <path id="path4694" d="M58 17.3l2.7 2.7v-5.3z" class="st4" opacity=".14" fill="#737373"/>
        <path id="path4696" d="M55.4 20h5.3L58 17.3z" class="st5" opacity=".14" fill="#8c8c8c"/>
        <path id="path4698" d="M60.7 14.7h-5.3l2.6 2.6z" class="st6" opacity=".14" fill="#2b2b2b"/>
        <path id="path4700" d="M55.4 14.7V20l2.6-2.7z" class="st7" opacity=".14" fill="#444"/>
        <path id="path4702" d="M56.7 16h2.6v2.6h-2.6z"/>
      </g>
      <g id="g4716">
        <path id="path4706" d="M65.1 17.3l2.7 2.7v-5.3z" class="st4" opacity=".14" fill="#737373"/>
        <path id="path4708" d="M62.5 20h5.3l-2.7-2.7z" class="st5" opacity=".14" fill="#8c8c8c"/>
        <path id="path4710" d="M67.8 14.7h-5.3l2.6 2.6z" class="st6" opacity=".14" fill="#2b2b2b"/>
        <path id="path4712" d="M62.5 14.7V20l2.6-2.7z" class="st7" opacity=".14" fill="#444"/>
        <path id="path4714" d="M63.8 16h2.6v2.6h-2.6z"/>
      </g>
      <g id="g4728">
        <path id="path4718" d="M72.2 17.3l2.7 2.7v-5.3z" class="st4" opacity=".14" fill="#737373"/>
        <path id="path4720" d="M69.6 20h5.3l-2.7-2.7z" class="st5" opacity=".14" fill="#8c8c8c"/>
        <path id="path4722" d="M74.9 14.7h-5.3l2.6 2.6z" class="st6" opacity=".14" fill="#2b2b2b"/>
        <path id="path4724" d="M69.6 14.7V20l2.6-2.7z" class="st7" opacity=".14" fill="#444"/>
        <path id="path4726" d="M70.9 16h2.6v2.6h-2.6z"/>
      </g>
      <g id="g4740">
        <path id="path4730" d="M79.4 17.3L82 20v-5.3z" class="st4" opacity=".14" fill="#737373"/>
        <path id="path4732" d="M76.7 20H82l-2.6-2.7z" class="st5" opacity=".14" fill="#8c8c8c"/>
        <path id="path4734" d="M82 14.7h-5.3l2.7 2.6z" class="st6" opacity=".14" fill="#2b2b2b"/>
        <path id="path4736" d="M76.7 14.7V20l2.7-2.7z" class="st7" opacity=".14" fill="#444"/>
        <path id="path4738" d="M78 16h2.6v2.6H78z"/>
      </g>
      <g id="g4752">
        <path id="path4742" d="M86.5 17.3l2.6 2.7v-5.3z" class="st4" opacity=".14" fill="#737373"/>
        <path id="path4744" d="M83.8 20h5.3l-2.6-2.7z" class="st5" opacity=".14" fill="#8c8c8c"/>
        <path id="path4746" d="M89.1 14.7h-5.3l2.7 2.6z" class="st6" opacity=".14" fill="#2b2b2b"/>
        <path id="path4748" d="M83.8 14.7V20l2.7-2.7z" class="st7" opacity=".14" fill="#444"/>
        <path id="path4750" d="M85.2 16h2.6v2.6h-2.6z"/>
      </g>
      <g id="g4764">
        <path id="path4754" d="M93.6 17.3l2.6 2.7v-5.3z" class="st4" opacity=".14" fill="#737373"/>
        <path id="path4756" d="M90.9 20h5.3l-2.6-2.7z" class="st5" opacity=".14" fill="#8c8c8c"/>
        <path id="path4758" d="M96.2 14.7h-5.3l2.7 2.6z" class="st6" opacity=".14" fill="#2b2b2b"/>
        <path id="path4760" d="M90.9 14.7V20l2.7-2.7z" class="st7" opacity=".14" fill="#444"/>
        <path id="path4762" d="M92.3 16h2.6v2.6h-2.6z"/>
      </g>
      <g id="g4776">
        <path id="path4766" d="M103.1 17.3l2.6 2.7v-5.3z" class="st4" opacity=".14" fill="#737373"/>
        <path id="path4768" d="M100.4 20h5.3l-2.6-2.7z" class="st5" opacity=".14" fill="#8c8c8c"/>
        <path id="path4770" d="M105.7 14.7h-5.3l2.7 2.6z" class="st6" opacity=".14" fill="#2b2b2b"/>
        <path id="path4772" d="M100.4 14.7V20l2.7-2.7z" class="st7" opacity=".14" fill="#444"/>
        <path id="path4774" d="M101.7 16h2.6v2.6h-2.6z"/>
      </g>
      <g id="g4788">
        <path id="path4778" d="M110.2 17.3l2.6 2.7v-5.3z" class="st4" opacity=".14" fill="#737373"/>
        <path id="path4780" d="M107.5 20h5.3l-2.6-2.7z" class="st5" opacity=".14" fill="#8c8c8c"/>
        <path id="path4782" d="M112.8 14.7h-5.3l2.7 2.6z" class="st6" opacity=".14" fill="#2b2b2b"/>
        <path id="path4784" d="M107.5 14.7V20l2.7-2.7z" class="st7" opacity=".14" fill="#444"/>
        <path id="path4786" d="M108.9 16h2.6v2.6h-2.6z"/>
      </g>
      <g id="g4800">
        <path id="path4790" d="M117.3 17.3l2.6 2.7v-5.3z" class="st4" opacity=".14" fill="#737373"/>
        <path id="path4792" d="M114.6 20h5.3l-2.6-2.7z" class="st5" opacity=".14" fill="#8c8c8c"/>
        <path id="path4794" d="M119.9 14.7h-5.3l2.7 2.6z" class="st6" opacity=".14" fill="#2b2b2b"/>
        <path id="path4796" d="M114.6 14.7V20l2.7-2.7z" class="st7" opacity=".14" fill="#444"/>
        <path id="path4798" d="M116 16h2.6v2.6H116z"/>
      </g>
      <g id="g4812">
        <path id="path4802" d="M124.4 17.3L127 20v-5.3z" class="st4" opacity=".14" fill="#737373"/>
        <path id="path4804" d="M121.7 20h5.3l-2.6-2.7z" class="st5" opacity=".14" fill="#8c8c8c"/>
        <path id="path4806" d="M127 14.7h-5.3l2.7 2.6z" class="st6" opacity=".14" fill="#2b2b2b"/>
        <path id="path4808" d="M121.7 14.7V20l2.7-2.7z" class="st7" opacity=".14" fill="#444"/>
        <path id="path4810" d="M123.1 16h2.6v2.6h-2.6z"/>
      </g>
      <g id="g4824">
        <path id="path4814" d="M131.5 17.3l2.7 2.7v-5.3z" class="st4" opacity=".14" fill="#737373"/>
        <path id="path4816" d="M128.9 20h5.3l-2.7-2.7z" class="st5" opacity=".14" fill="#8c8c8c"/>
        <path id="path4818" d="M134.2 14.7h-5.3l2.6 2.6z" class="st6" opacity=".14" fill="#2b2b2b"/>
        <path id="path4820" d="M128.9 14.7V20l2.6-2.7z" class="st7" opacity=".14" fill="#444"/>
        <path id="path4822" d="M130.2 16h2.6v2.6h-2.6z"/>
      </g>
      <g id="g4836">
        <path id="path4826" d="M138.6 17.3l2.7 2.7v-5.3z" class="st4" opacity=".14" fill="#737373"/>
        <path id="path4828" d="M136 20h5.3l-2.7-2.7z" class="st5" opacity=".14" fill="#8c8c8c"/>
        <path id="path4830" d="M141.3 14.7H136l2.6 2.6z" class="st6" opacity=".14" fill="#2b2b2b"/>
        <path id="path4832" d="M136 14.7V20l2.6-2.7z" class="st7" opacity=".14" fill="#444"/>
        <path id="path4834" d="M137.3 16h2.6v2.6h-2.6z"/>
      </g>
      <g id="g4848">
        <path id="path4838" d="M145.7 17.3l2.7 2.7v-5.3z" class="st4" opacity=".14" fill="#737373"/>
        <path id="path4840" d="M143.1 20h5.3l-2.7-2.7z" class="st5" opacity=".14" fill="#8c8c8c"/>
        <path id="path4842" d="M148.4 14.7h-5.3l2.6 2.6z" class="st6" opacity=".14" fill="#2b2b2b"/>
        <path id="path4844" d="M143.1 14.7V20l2.6-2.7z" class="st7" opacity=".14" fill="#444"/>
        <path id="path4846" d="M144.4 16h2.6v2.6h-2.6z"/>
      </g>
      <g id="g4860">
        <path id="path4850" d="M152.8 17.3l2.7 2.7v-5.3z" class="st4" opacity=".14" fill="#737373"/>
        <path id="path4852" d="M150.2 20h5.3l-2.7-2.7z" class="st5" opacity=".14" fill="#8c8c8c"/>
        <path id="path4854" d="M155.5 14.7h-5.3l2.6 2.6z" class="st6" opacity=".14" fill="#2b2b2b"/>
        <path id="path4856" d="M150.2 14.7V20l2.6-2.7z" class="st7" opacity=".14" fill="#444"/>
        <path id="path4858" d="M151.5 16h2.6v2.6h-2.6z"/>
      </g>
    </g>
    <g transform="translate(0 -12.1)" id="g4866">
      <path id="path4864" d="M19.3 68.2h1.2c.6 0 1.1.4 1.1 1v.4c0 .5-.5 1-1.1 1h-1.2c-.6 0-1.1-.4-1.1-1v-.4c-.1-.5.4-1 1.1-1zm-4.3 0h1.2c.6 0 1.1.4 1.1 1v.4c0 .5-.5 1-1.1 1H15c-.6 0-1.1-.4-1.1-1v-.4c0-.5.5-1 1.1-1zm4.3-7.9h1.2c.6 0 1.1.4 1.1 1v.4c0 .5-.5 1-1.1 1h-1.2c-.6 0-1.1-.4-1.1-1v-.4c-.1-.5.4-1 1.1-1zm-4.3 0h1.2c.6 0 1.1.4 1.1 1v.4c0 .5-.5 1-1.1 1H15c-.6 0-1.1-.4-1.1-1v-.4c0-.5.5-1 1.1-1z" class="st8" fill="#bdbbbb"/>
    </g>
    <g transform="translate(0 -12.1)" id="g4870">
      <path id="path4868" d="M28.1 111.1c.7 0 1.3.6 1.3 1.3 0 .7-.6 1.3-1.3 1.3-.7 0-1.3-.6-1.3-1.3 0-.7.6-1.3 1.3-1.3m0-1.1c-1.3 0-2.4 1.1-2.4 2.4 0 1.3 1.1 2.4 2.4 2.4 1.3 0 2.4-1.1 2.4-2.4 0-1.3-1.1-2.4-2.4-2.4zm0-4.2c.7 0 1.3.6 1.3 1.3 0 .7-.6 1.3-1.3 1.3-.7 0-1.3-.6-1.3-1.3 0-.7.6-1.3 1.3-1.3m0-1c-1.3 0-2.4 1.1-2.4 2.4 0 1.3 1.1 2.4 2.4 2.4 1.3 0 2.4-1.1 2.4-2.4 0-1.4-1.1-2.4-2.4-2.4z" class="st9" fill="#9a916c"/>
    </g>
    <g transform="translate(0 -12.1)" id="g4874">
      <path id="path4872" d="M19.3 83.6h1.2c.6 0 1.1.4 1.1 1v.4c0 .5-.5 1-1.1 1h-1.2c-.6 0-1.1-.4-1.1-1v-.4c-.1-.6.4-1 1.1-1zm-4.3 0h1.2c.6 0 1.1.4 1.1 1v.4c0 .5-.5 1-1.1 1H15c-.6 0-1.1-.4-1.1-1v-.4c0-.6.5-1 1.1-1zm4.3-7.9h1.2c.6 0 1.1.4 1.1 1v.4c0 .5-.5 1-1.1 1h-1.2c-.6 0-1.1-.4-1.1-1v-.4c-.1-.6.4-1 1.1-1zm-4.3 0h1.2c.6 0 1.1.4 1.1 1v.4c0 .5-.5 1-1.1 1H15c-.6 0-1.1-.4-1.1-1v-.4c0-.6.5-1 1.1-1z" class="st8" fill="#bdbbbb"/>
    </g>
    <path id="path4876" d="M18.9 93.8h8.7c.5 0 .9.4.9.8v1c0 .5-.4.8-.9.8h-8.7c-.5 0-.9-.4-.9-.8v-1c0-.5.4-.8.9-.8zm0 5h8.7c.5 0 .9.4.9.8v1c0 .5-.4.8-.9.8h-8.7c-.5 0-.9-.4-.9-.8v-1c0-.4.4-.8.9-.8zm.4-20h1.2c.6 0 1.1.4 1.1 1v.4c0 .5-.5 1-1.1 1h-1.2c-.6 0-1.1-.4-1.1-1v-.4c-.1-.6.4-1 1.1-1zm-4.3 0h1.2c.6 0 1.1.4 1.1 1v.4c0 .5-.5 1-1.1 1H15c-.6 0-1.1-.4-1.1-1v-.4c0-.6.5-1 1.1-1z" class="st8" fill="#bdbbbb"/>
    <g transform="translate(0 -12.1)" id="g4892">
      <path id="path4878" d="M106.8 66.3v-4.9c0-.2.1-.3.2-.3h.6c.1 0 .2.1.2.3v4.9zm1.3 0v-4.9c0-.2.1-.3.2-.3h.6c.1 0 .2.1.2.3v4.9zm1.4 0v-4.9c0-.2.1-.3.2-.3h.6c.1 0 .2.1.2.3v4.9zm1.4 0v-4.9c0-.2.1-.3.2-.3h.6c.1 0 .2.1.2.3v4.9zm1.4 0v-4.9c0-.2.1-.3.2-.3h.6c.1 0 .2.1.2.3v4.9zm1.3 0v-4.9c0-.2.1-.3.2-.3h.6c.1 0 .2.1.2.3v4.9zm1.4 0v-4.9c0-.2.1-.3.2-.3h.6c.1 0 .2.1.2.3v4.9zm1.4 0v-4.9c0-.2.1-.3.2-.3h.6c.1 0 .2.1.2.3v4.9zm1.3 0v-4.9c0-.2.1-.3.2-.3h.6c.1 0 .2.1.2.3v4.9zm1.4 0v-4.9c0-.2.1-.3.2-.3h.6c.1 0 .2.1.2.3v4.9zm1.4 0v-4.9c0-.2.1-.3.2-.3h.6c.1 0 .2.1.2.3v4.9zm1.4 0v-4.9c0-.2.1-.3.2-.3h.6c.1 0 .2.1.2.3v4.9z" class="st10" fill="#8c8c8c"/>
      <g id="g4882">
        <path id="path4880" d="M106.8 84.4v4.9c0 .2.1.3.2.3h.6c.1 0 .2-.1.2-.3v-4.9zm1.3 0v4.9c0 .2.1.3.2.3h.6c.1 0 .2-.1.2-.3v-4.9zm1.4 0v4.9c0 .2.1.3.2.3h.6c.1 0 .2-.1.2-.3v-4.9zm1.4 0v4.9c0 .2.1.3.2.3h.6c.1 0 .2-.1.2-.3v-4.9zm1.4 0v4.9c0 .2.1.3.2.3h.6c.1 0 .2-.1.2-.3v-4.9zm1.3 0v4.9c0 .2.1.3.2.3h.6c.1 0 .2-.1.2-.3v-4.9zm1.4 0v4.9c0 .2.1.3.2.3h.6c.1 0 .2-.1.2-.3v-4.9zm1.4 0v4.9c0 .2.1.3.2.3h.6c.1 0 .2-.1.2-.3v-4.9zm1.3 0v4.9c0 .2.1.3.2.3h.6c.1 0 .2-.1.2-.3v-4.9zm1.4 0v4.9c0 .2.1.3.2.3h.6c.1 0 .2-.1.2-.3v-4.9zm1.4 0v4.9c0 .2.1.3.2.3h.6c.1 0 .2-.1.2-.3v-4.9zm1.4 0v4.9c0 .2.1.3.2.3h.6c.1 0 .2-.1.2-.3v-4.9z" class="st10" fill="#8c8c8c"/>
      </g>
      <g id="g4886">
        <path id="path4884" d="M123.9 67.3h4.9c.2 0 .3.1.3.2v.6c0 .1-.1.2-.3.2h-4.9zm0 1.3h4.9c.2 0 .3.1.3.2v.6c0 .1-.1.2-.3.2h-4.9zm0 1.4h4.9c.2 0 .3.1.3.2v.6c0 .1-.1.2-.3.2h-4.9zm0 1.4h4.9c.2 0 .3.1.3.2v.6c0 .1-.1.2-.3.2h-4.9zm0 1.3h4.9c.2 0 .3.1.3.2v.6c0 .1-.1.2-.3.2h-4.9zm0 1.4h4.9c.2 0 .3.1.3.2v.7c0 .1-.1.2-.3.2h-4.9zm0 1.4h4.9c.2 0 .3.1.3.2v.6c0 .1-.1.2-.3.2h-4.9zm0 1.4h4.9c.2 0 .3.1.3.2v.6c0 .1-.1.2-.3.2h-4.9zm0 1.3h4.9c.2 0 .3.1.3.2v.6c0 .1-.1.2-.3.2h-4.9zm0 1.4h4.9c.2 0 .3.1.3.2v.6c0 .1-.1.2-.3.2h-4.9zm0 1.4h4.9c.2 0 .3.1.3.2v.6c0 .1-.1.2-.3.2h-4.9zm0 1.3h4.9c.2 0 .3.1.3.2v.6c0 .1-.1.2-.3.2h-4.9z" class="st10" fill="#8c8c8c"/>
      </g>
      <g id="g4890">
        <path id="path4888" d="M105.8 67.3h-4.9c-.2 0-.3.1-.3.2v.6c0 .1.1.2.3.2h4.9zm0 1.3h-4.9c-.2 0-.3.1-.3.2v.6c0 .1.1.2.3.2h4.9zm0 1.4h-4.9c-.2 0-.3.1-.3.2v.6c0 .1.1.2.3.2h4.9zm0 1.4h-4.9c-.2 0-.3.1-.3.2v.6c0 .1.1.2.3.2h4.9zm0 1.3h-4.9c-.2 0-.3.1-.3.2v.6c0 .1.1.2.3.2h4.9zm0 1.4h-4.9c-.2 0-.3.1-.3.2v.7c0 .1.1.2.3.2h4.9zm0 1.4h-4.9c-.2 0-.3.1-.3.2v.6c0 .1.1.2.3.2h4.9zm0 1.4h-4.9c-.2 0-.3.1-.3.2v.6c0 .1.1.2.3.2h4.9zm0 1.3h-4.9c-.2 0-.3.1-.3.2v.6c0 .1.1.2.3.2h4.9zm0 1.4h-4.9c-.2 0-.3.1-.3.2v.6c0 .1.1.2.3.2h4.9zm0 1.4h-4.9c-.2 0-.3.1-.3.2v.6c0 .1.1.2.3.2h4.9zm0 1.3h-4.9c-.2 0-.3.1-.3.2v.6c0 .1.1.2.3.2h4.9z" class="st10" fill="#8c8c8c"/>
      </g>
    </g>
    <path id="path4894" d="M105.3 53.4h18.3c.2 0 .4.2.4.4v19.1c0 .2-.2.4-.4.4h-18.3c-.2 0-.4-.2-.4-.4V53.8c-.1-.2.1-.4.4-.4z" fill="#4c4d51"/>
    <g transform="translate(0 -12.1)" id="g4902">
      <path id="path4896" d="M111.4 106.2c.4 0 .7.3.7.7 0 .4-.3.7-.7.7-.4 0-.7-.3-.7-.7 0-.4.3-.7.7-.7m0-.5c-.7 0-1.2.5-1.2 1.2s.5 1.2 1.2 1.2 1.2-.5 1.2-1.2-.5-1.2-1.2-1.2zm3.3.5c.4 0 .7.3.7.7 0 .4-.3.7-.7.7-.4 0-.7-.3-.7-.7 0-.4.3-.7.7-.7m0-.5c-.7 0-1.2.5-1.2 1.2s.5 1.2 1.2 1.2 1.2-.5 1.2-1.2-.6-1.2-1.2-1.2zm-3.3 4c.4 0 .7.3.7.7 0 .4-.3.7-.7.7-.4 0-.7-.3-.7-.7 0-.4.3-.7.7-.7m0-.5c-.7 0-1.2.5-1.2 1.2s.5 1.2 1.2 1.2 1.2-.5 1.2-1.2-.5-1.2-1.2-1.2zm3.3.5c.4 0 .7.3.7.7 0 .4-.3.7-.7.7-.4 0-.7-.3-.7-.7 0-.4.3-.7.7-.7m0-.5c-.7 0-1.2.5-1.2 1.2s.5 1.2 1.2 1.2 1.2-.5 1.2-1.2-.6-1.2-1.2-1.2zm-3.3 4c.4 0 .7.3.7.7 0 .4-.3.7-.7.7-.4 0-.7-.3-.7-.7 0-.4.3-.7.7-.7m0-.5c-.7 0-1.2.5-1.2 1.2s.5 1.2 1.2 1.2 1.2-.5 1.2-1.2-.5-1.2-1.2-1.2zm3.3.5c.4 0 .7.3.7.7 0 .4-.3.7-.7.7-.4 0-.7-.3-.7-.7 0-.4.3-.7.7-.7m0-.5c-.7 0-1.2.5-1.2 1.2s.5 1.2 1.2 1.2 1.2-.5 1.2-1.2-.6-1.2-1.2-1.2zm-3.3 4c.4 0 .7.3.7.7 0 .4-.3.7-.7.7-.4 0-.7-.3-.7-.7 0-.4.3-.7.7-.7m0-.5c-.7 0-1.2.5-1.2 1.2s.5 1.2 1.2 1.2 1.2-.5 1.2-1.2-.5-1.2-1.2-1.2zm3.3.5c.4 0 .7.3.7.7 0 .4-.3.7-.7.7-.4 0-.7-.3-.7-.7 0-.4.3-.7.7-.7m0-.5c-.7 0-1.2.5-1.2 1.2s.5 1.2 1.2 1.2 1.2-.5 1.2-1.2-.6-1.2-1.2-1.2zm-3.3 4c.4 0 .7.3.7.7 0 .4-.3.7-.7.7-.4 0-.7-.3-.7-.7 0-.4.3-.7.7-.7m0-.5c-.7 0-1.2.5-1.2 1.2s.5 1.2 1.2 1.2 1.2-.5 1.2-1.2-.5-1.2-1.2-1.2zm3.3.5c.4 0 .7.3.7.7 0 .4-.3.7-.7.7-.4 0-.7-.3-.7-.7 0-.4.3-.7.7-.7m0-.5c-.7 0-1.2.5-1.2 1.2s.5 1.2 1.2 1.2 1.2-.5 1.2-1.2-.6-1.2-1.2-1.2zm-90.2 8.8c2.3 0 4.2 1.9 4.2 4.2 0 2.3-1.9 4.3-4.2 4.3-2.3 0-4.2-1.9-4.2-4.3 0-2.3 1.9-4.2 4.2-4.2m0-1.2c-3 0-5.5 2.5-5.5 5.5s2.5 5.5 5.5 5.5 5.5-2.5 5.5-5.5c0-3.1-2.5-5.5-5.5-5.5z" class="st9" fill="#9a916c"/>
      <path id="path4898" d="M40.6 127.3c-3 0-5.5 2.5-5.5 5.5s2.5 5.5 5.5 5.5 5.5-2.5 5.5-5.5c0-3.1-2.4-5.5-5.5-5.5zm-8 13c-3 0-5.5 2.5-5.5 5.5s2.5 5.5 5.5 5.5 5.5-2.5 5.5-5.5c0-3.1-2.4-5.5-5.5-5.5z" class="st8" fill="#bdbbbb"/>
      <path id="path4900" d="M14.9 127.5c.8 0 1.5.7 1.5 1.5s-.7 1.5-1.5 1.5-1.5-.7-1.5-1.5.7-1.5 1.5-1.5m0-1.2c-1.5 0-2.7 1.2-2.7 2.7 0 1.5 1.2 2.7 2.7 2.7 1.5 0 2.7-1.2 2.7-2.7.1-1.5-1.1-2.7-2.7-2.7zm0 8.4c.8 0 1.5.7 1.5 1.5s-.7 1.5-1.5 1.5-1.5-.7-1.5-1.5.7-1.5 1.5-1.5m0-1.2c-1.5 0-2.7 1.2-2.7 2.7 0 1.5 1.2 2.7 2.7 2.7 1.5 0 2.7-1.2 2.7-2.7.1-1.5-1.1-2.7-2.7-2.7zm136.5-61.6c.8 0 1.5.7 1.5 1.5s-.7 1.5-1.5 1.5-1.5-.7-1.5-1.5.7-1.5 1.5-1.5m0-1.3c-1.5 0-2.7 1.2-2.7 2.7 0 1.5 1.2 2.7 2.7 2.7 1.5 0 2.7-1.2 2.7-2.7 0-1.4-1.2-2.7-2.7-2.7zm6.9 1.3c.8 0 1.5.7 1.5 1.5s-.7 1.5-1.5 1.5-1.5-.7-1.5-1.5.7-1.5 1.5-1.5m0-1.3c-1.5 0-2.7 1.2-2.7 2.7 0 1.5 1.2 2.7 2.7 2.7 1.5 0 2.7-1.2 2.7-2.7 0-1.4-1.2-2.7-2.7-2.7zm-6.9 8.3c.8 0 1.5.7 1.5 1.5s-.7 1.5-1.5 1.5-1.5-.7-1.5-1.5.7-1.5 1.5-1.5m0-1.2c-1.5 0-2.7 1.2-2.7 2.7 0 1.5 1.2 2.7 2.7 2.7 1.5 0 2.7-1.2 2.7-2.7 0-1.5-1.2-2.7-2.7-2.7zm6.9 1.2c.8 0 1.5.7 1.5 1.5s-.7 1.5-1.5 1.5-1.5-.7-1.5-1.5.7-1.5 1.5-1.5m0-1.2c-1.5 0-2.7 1.2-2.7 2.7 0 1.5 1.2 2.7 2.7 2.7 1.5 0 2.7-1.2 2.7-2.7 0-1.5-1.2-2.7-2.7-2.7zm-6.9 8.3c.8 0 1.5.7 1.5 1.5s-.7 1.5-1.5 1.5-1.5-.7-1.5-1.5.7-1.5 1.5-1.5m0-1.2c-1.5 0-2.7 1.2-2.7 2.7 0 1.5 1.2 2.7 2.7 2.7 1.5 0 2.7-1.2 2.7-2.7 0-1.5-1.2-2.7-2.7-2.7zm6.9 1.2c.8 0 1.5.7 1.5 1.5s-.7 1.5-1.5 1.5-1.5-.7-1.5-1.5.7-1.5 1.5-1.5m0-1.2c-1.5 0-2.7 1.2-2.7 2.7 0 1.5 1.2 2.7 2.7 2.7 1.5 0 2.7-1.2 2.7-2.7 0-1.5-1.2-2.7-2.7-2.7z" class="st9" fill="#9a916c"/>
    </g>
    <path id="path4904" d="M15.6 48.5h4v2.1h-4zm0 7.8h4v2.1h-4zm0 7.5h4v2.1h-4zm0 7.8h4v2.1h-4zm0 7.3h4V81h-4z" fill="#fff46e"/>
    <g transform="translate(0 -12.1)" id="g4944">
      <path id="path4906" d="M11.4 52.3v4.5c0 .1.3.3.6.3h1.6c.3 0 .6-.1.6-.3v-4.5zm0-14.4v-4.5c0-.1.3-.3.6-.3h1.6c.3 0 .6.1.6.3v4.5z" class="st10" fill="#8c8c8c"/>
      <g id="g4942">
        <path id="path4908" d="M4.9 45.4h1.3v8.4H4.9z" class="st13" fill="#63686e"/>
        <path id="path4910" d="M6.2 45.4v8.4" class="st14" fill="none"/>
        <path id="path4912" d="M5.4 56.5l-.5-.6 1.3-1 .3.7z" class="st13" fill="#63686e"/>
        <path id="path4914" d="M6.5 55.6l-.3-.7" class="st14" fill="none"/>
        <path id="path4916" d="M17.5 49.8h2.3v2.8h-2.3z"/>
        <g id="g4922">
          <path id="path4918" d="M19.8 52v3.1h-.9l-.8-.6H6.2v-9.1h13.6v5.2h-1.7V52z" class="st15" fill="#7a7879"/>
          <path id="path4920" d="M18.9 55.1h.9v.2c0 .2-.2.4-.4.4H6.5l-.3-.7v-.4h11.9z" class="st16" fill="#f9ffff"/>
        </g>
        <g id="g4940">
          <path id="path4924" d="M4.9 36.7h1.3v9H4.9z" class="st13" fill="#63686e"/>
          <path id="path4926" d="M6.2 45.1v-8.4" class="st14" fill="none"/>
          <path id="path4928" d="M5.4 34l-.5.6 1.3 1 .3-.7z" class="st13" fill="#63686e"/>
          <path id="path4930" d="M6.5 34.9l-.3.7" class="st14" fill="none"/>
          <path id="path4932" d="M17.5 37.9h2.3v2.8h-2.3z"/>
          <g id="g4938">
            <path id="path4934" d="M19.8 38.5v-3.1h-.9l-.8.6H6.2v9.7h13.6v-5.8h-1.7v-1.4z" class="st15" fill="#7a7879"/>
            <path id="path4936" d="M18.9 35.4h.9v-.2c0-.2-.2-.4-.4-.4H6.5l-.3.7v.5h11.9z" class="st16" fill="#f9ffff"/>
          </g>
        </g>
      </g>
    </g>
    <circle id="circle4946" r="1.4" cy="12.4" cx="12.8" class="st3" fill="#fff"/>
    <g transform="translate(0 -12.1)" id="g4952">
      <path id="path4948" d="M82.8 62.9s.2.8-.4.9c-.6 0-1.1-.3-1.5-.8-.4-.3-.4-.9-.1-1.3l.1-.1c.4-.3.9-.5 1.4-.3-.9-.8-2.2-.9-3.3-.3-1.5 1-1.1 2.4.3 3.6 1.2 1.1.2 2.3-1 2.1-.8-.1-1.2-.8-1-1.2.2-.3.5-.5.8-.6-.5-.2-1-.2-1.5 0-.7.3-1.3.9-1.3 2.4v7s.7-.9 1.6-1.9c1-1.1 1.4-1.8 2.5-1.7 1.7.1 3.3-.7 4.2-2.1 1.8-2.4.4-5.3-.8-5.7m-30.2 13c-.9 0-1.8.4-2.3 1.2v-1l-2 .4v10l2.1 1.9v-5.5c.5.7 1.4 1.2 2.3 1.2 2.3 0 3.4-1.9 3.4-4 0-2.3-1.1-4.2-3.5-4.2zm-.4 6.5c-1.4 0-1.8-1.2-1.8-2.4s.4-2.5 1.8-2.5S54 78.7 54 80c0 1.2-.4 2.4-1.8 2.4zM45 79.2c-1.2-.3-2.4-.4-2.4-1.1 0-.6.7-.7 1.2-.7.8 0 1.4.2 1.4 1h2c-.2-1.9-1.7-2.5-3.4-2.5s-3.3.5-3.3 2.5c0 1.4 1.2 1.8 2.4 2.1 1.5.3 2.4.6 2.4 1.2 0 .7-.8 1-1.4 1-.8 0-1.6-.4-1.6-1.3h-2c.1 2 1.8 2.7 3.6 2.7 1.7 0 3.5-.7 3.5-2.7.1-1.5-1.1-1.9-2.4-2.2zm19-1.1c0-1.8-1.8-2.2-3.4-2.2-1.7 0-3.5.6-3.6 2.6h2.1c.1-.8.6-1.2 1.4-1.2.7 0 1.4.1 1.4 1 .1 1.7-5.1-.1-5.1 3.3 0 1.6 1.1 2.3 2.6 2.3 1 .1 1.9-.3 2.6-.9 0 .3.1.5.2.7h2.1c-.2-.5-.3-1.1-.3-1.7zm-2.2 2.7c.1.9-.5 1.6-1.3 1.8h-.4c-.7 0-1.3-.2-1.3-1s.6-1 1.3-1.1c.6 0 1.2-.2 1.8-.4zm5.4-3.3v-1.4l-2 .4v7.3h2.1v-3.5c0-1.4.5-2.5 2.1-2.5.3 0 .5 0 .8.1v-2c-.1 0-.3-.1-.5-.1-1.1.1-2.1.8-2.5 1.7zm11-1.4h-2.5L73 78.9v-5.7l-2.1 1.1v9.5H73v-2.7l.8-.7 2.2 3.4h2.5l-3.2-4.9z" class="st3" fill="#fff"/>
      <path id="path4950" d="M79.8 75.5v.6h-.6l-1.4 1.4h2.1v6.3H82v-6.3h1.5v-1.4H82v-.5c0-.6.2-.9.8-.9h.8v-1.6c-.4 0-.7-.1-1.1-.1-1.2-.2-2.4.7-2.6 1.9-.1.3-.1.5-.1.6zm9.2 4.6c0 1.6-.5 2.2-1.6 2.2-1 0-1.4-.6-1.4-1.9v-4.3h-2v4.7c0 1.9.6 3.2 2.8 3.2 1 0 1.8-.5 2.3-1.3v1.1h2v-7.7H89zm7.7-4.2c-1 0-1.8.5-2.3 1.3v-1.1h-2v7.7h2.1v-4c0-1.6.5-2.2 1.6-2.2 1 0 1.4.6 1.4 1.9v4.3h2.1v-4.7c-.1-1.9-.6-3.2-2.9-3.2z" class="st3" fill="#fff"/>
    </g>
    <g transform="translate(0 -12.1)" id="g4956">
      <path id="path4954" d="M159.5 76.7h-9.3l-2.5-1.9v-3.6l2.5-1.8h9.3l2.5 1.8v3.6zm0 7.2h-9.3l-2.5-1.8v-3.6l2.5-1.8h9.3l2.5 1.8v3.6zm0 7.3h-9.3l-2.5-1.8v-3.6l2.5-1.9h9.3l2.5 1.9v3.6z" class="st17" fill="#231f20"/>
    </g>
    <path id="path4958" d="M17.5 44.2H21v-3.3m-3.5-18.8H21v3.3" fill="none" stroke="#fff" stroke-width=".5" stroke-miterlimit="10"/>
    <g transform="translate(0 -12.1)" id="g4974">
      <path id="path4960" d="M154.6 108.2h-4c-.1 0-.2.2-.2.4v1.1c0 .2.1.4.2.4h4zM91.8 52.7v-4c0-.1-.2-.2-.4-.2h-1.1c-.2 0-.4.1-.4.2v4zm10.7 0v-4c0-.1-.2-.2-.4-.2H101c-.2 0-.4.1-.4.2v4zM91.8 36.6v-4c0-.1-.2-.2-.4-.2h-1.1c-.2 0-.4.1-.4.2v4zm10.7 0v-4c0-.1-.2-.2-.4-.2H101c-.2 0-.4.1-.4.2v4zm52.1 74.8h-4c-.1 0-.2.2-.2.4v1.1c0 .2.1.4.2.4h4zm0 3.1h-4c-.1 0-.2.2-.2.4v1.1c0 .2.1.4.2.4h4zm0 3.2h-4c-.1 0-.2.2-.2.4v1.1c0 .2.1.4.2.4h4z" class="st10" fill="#8c8c8c"/>
      <path id="path4962" d="M166.9 113.8v-7.5m-.2-1.7l.2.7" class="st14" fill="none"/>
      <path id="path4964" d="M154.1 107.9v-.9h.8l.8-1.3h11.2v8.1h-12.8v-4.7z" class="st17" fill="#231f20"/>
      <path id="path4966" d="M154.9 107h-.9v-2c0-.2.2-.3.4-.3h12.3l.2.6v.4h-11.3z" class="st19" fill="#4d535e"/>
      <g id="g4972">
        <path id="path4968" d="M154.1 119.7v.9h.8l.8 1.3h11.2v-8.1h-12.8v4.6z" class="st17" fill="#231f20"/>
        <path id="path4970" d="M154.9 120.6h-.9v2c0 .2.2.3.4.3h12.3l.2-.6v-.4h-11.3z" class="st19" fill="#4d535e"/>
      </g>
    </g>
    <path id="path4976" d="M156.2 91.9h-3.3v3m3.3 16.9h-3.3v-3" fill="none" stroke="#fff" stroke-width=".461" stroke-miterlimit="10"/>
    <g transform="translate(0 -12.1)" id="g4988">
      <path id="path4978" d="M7.4 109.3H24v9.4H7.4l-.1-1.9h.1z" class="st21" fill="#bbb1a5"/>
      <path id="path4980" d="M24 116.8h6.2v1.8H24zm0-7.5h1.5v7.5H24z" class="st22" fill="#766c60"/>
      <g id="g4986">
        <path id="path4982" d="M7.4 110.2H24v-9.3H7.4l-.1 1.9h.1z" class="st21" fill="#bbb1a5"/>
        <path id="path4984" d="M24 100.9h6.2v1.8H24zm0 1.8h1.5v7.5H24zm-11.3.6h5.6v2.7h-5.6zm0 9.7h5.6v2.7h-5.6z" class="st22" fill="#766c60"/>
      </g>
    </g>
    <path id="path4990" d="M3.9 110.5H37c2.1 0 3.8 1.7 3.8 3.8V127c0 2.1-1.7 3.8-3.8 3.8H3.9z" class="st17" fill="#231f20"/>
    <path id="path4992" d="M3.9 108.9h7.9v23.4H3.9z" class="st19" fill="#4d535e"/>
    <path id="path4994" d="M8.9 126.1l18.1-.2c2.9 0 5.2-2.4 5.2-5.2 0-2.9-2.4-5.2-5.2-5.2l-18.2.2" class="st19" fill="#4d535e"/>
    <path id="path4996" d="M88.8 23.1h14.6v14.6H88.8z" fill="#d6cbb8"/>
    <g transform="translate(0 -12.1)" id="g5000">
      <path id="path4998" d="M52.6 95.4c0 .2-.1.3-.3.3-.2 0-.3-.1-.3-.3v-4.3h1.8c.4 0 .9.3.9.9v.4c0 .6-.4.8-.9.8h-.5l1.2 1.9c.1.1.1.2.1.3 0 .2-.1.3-.3.3-.1 0-.2-.1-.2-.2l-1.5-2.3h-.1v2.2zm0-2.8h1.2c.2 0 .4 0 .4-.2V92c0-.2-.2-.3-.4-.3h-1.2zm4.3 3.1c-.2 0-.3 0-.5-.2l-.2-.2c-.1-.2-.2-.3-.2-.6v-1.1c0-.3 0-.5.3-.7l.2-.2c.2-.2.4-.2.6-.2h.5c.3 0 .4 0 .6.2l.2.2c.2.2.3.4.3.7v.5c0 .3 0 .4-.4.4h-1.7v.2c0 .1 0 .1.1.2l.1.2c.1.1.2.1.3.1h1.1c.2 0 .4 0 .4.3 0 .2-.2.3-.4.3h-1.3zm-.4-1.8H58v-.3c0-.1 0-.2-.1-.3l-.2-.2c-.1-.1-.2-.1-.2-.1h-.4c-.1 0-.2 0-.3.1l-.2.1c-.1.1-.1.1-.1.3zm4.8-1.4c.2 0 .3.1.5.3l.1.1v-1.2c0-.2 0-.4.3-.4s.3.2.3.4v3.6c0 .2 0 .4-.3.4-.2 0-.3-.2-.3-.4l-.1.1c-.2.2-.3.3-.5.3h-.5c-.2 0-.4-.1-.4-.2l-.2-.2c-.2-.2-.3-.4-.3-.7v-1.1c0-.3.1-.5.3-.7l.2-.2c.2-.2.3-.2.5-.2h.4zm-.9 1.9c0 .2 0 .4.1.4l.2.1c.1.1.1.1.2.1h.4c.1 0 .2 0 .3-.1l.3-.3c.1-.1.2-.1.2-.2v-.7c0-.1-.1-.2-.2-.2l-.3-.3c-.1-.1-.2-.1-.3-.1h-.4c-.1 0-.1.1-.2.1l-.2.1c-.1.1-.1.3-.1.4zm3.3-3.3h1.5c.8 0 1.2.5 1.2 1.4 0 .3-.1.7-.4.9.3.3.4.6.4 1.1 0 .8-.5 1.2-1.2 1.2h-1.5zm.5 2h1c.4 0 .6-.2.6-.6 0-.5-.1-.8-.6-.8h-1zm0 2h1c.4 0 .6-.2.6-.6 0-.5-.1-.8-.6-.8h-1zm3.4-1.6c0-.4.1-.5.3-.7.3-.2.4-.3.7-.3h.4c.4 0 .5.1.7.3.3.2.3.4.3.7v1.1c0 .4-.1.5-.4.8-.3.3-.4.3-.7.3h-.4c-.3 0-.4 0-.7-.3-.3-.2-.4-.4-.4-.8v-1.1zm.5 1.1c0 .1 0 .2.2.3.1.1.2.2.4.2h.4c.2 0 .2 0 .4-.2.2-.1.2-.2.2-.3v-1.1c0-.1 0-.2-.2-.3-.1-.1-.2-.2-.4-.2h-.4c-.2 0-.2 0-.4.2-.2.1-.2.2-.2.3zm4.3-1.5c-.2 0-.4 0-.4-.3 0-.2.2-.3.4-.3h.7c.3 0 .5 0 .7.3.2.2.2.4.2.7l.1 1.9c0 .2-.1.3-.2.3s-.3-.1-.3-.3l-.4.2c-.1.1-.2.1-.3.1h-.5c-.2 0-.4 0-.6-.2-.2-.2-.3-.4-.3-.7v-.2c0-.3.1-.4.3-.6.2-.2.4-.2.6-.2h1.1v-.1c0-.4-.1-.5-.5-.5h-.6zm0 1.2c-.1 0-.3 0-.3.2v.4c0 .2.2.2.3.2h.6l.6-.3v-.1c0-.3-.1-.4-.4-.4zm3-1.4c0-.2 0-.4.3-.4.2 0 .3.2.3.4v.2l.4-.4c.1-.1.3-.2.5-.2h.4c.2 0 .4.1.5.2.2.2.2.4.2.6 0 .2 0 .4-.3.4-.2 0-.3-.2-.3-.3 0-.1 0-.2-.1-.2-.1-.1-.2-.1-.3-.1h-.2c-.1 0-.2.1-.3.1l-.7.7v1.4c0 .2 0 .4-.3.4s-.3-.2-.3-.4v-2.4zm5-.4c.2 0 .3.1.5.3l.1.1v-1.2c0-.2 0-.4.3-.4s.3.2.3.4v3.6c0 .2 0 .4-.3.4-.2 0-.3-.2-.3-.4l-.1.1c-.2.2-.3.3-.5.3h-.5c-.2 0-.4-.1-.4-.2l-.2-.2c-.2-.2-.3-.3-.3-.6v-1.1c0-.3.1-.5.3-.7l.2-.2c.2-.2.3-.2.5-.2zm-.9 1.9c0 .2 0 .4.1.4l.2.1c.1.1.1.1.2.1h.4c.1 0 .2 0 .3-.1l.3-.3c.1-.1.2-.1.2-.2v-.7c0-.1-.1-.2-.2-.2l-.3-.3c-.1-.1-.2-.1-.3-.1H80c-.1 0-.1.1-.2.1l-.2.1c-.1.1-.1.3-.1.4zm7.8-2.7v.2c0 .2-.1.3-.3.3-.2 0-.3-.1-.3-.3v-.8h2.7v.8c0 .2-.1.3-.3.3-.2 0-.3-.1-.3-.3v-.2h-.5v3.7c0 .2-.1.3-.3.3-.2 0-.3-.1-.3-.3v-3.7zm5.9 3.6c0 .1 0 .4-.3.4-.2 0-.3-.2-.3-.4v-.1l-.4.3c-.2.1-.3.2-.4.2h-.4c-.1 0-.3 0-.5-.2s-.2-.5-.2-.8l-.1-1.8c0-.2 0-.4.3-.4.2 0 .2.2.3.4l.1 1.7c0 .1 0 .3.1.4.1.1.2.1.3.1h.2c.1 0 .1 0 .2-.1l.8-.5v-1.7c0-.2 0-.4.3-.4s.3.2.3.4v2.5zm1.3-2.4c0-.2 0-.4.3-.4.2 0 .3.2.3.4v.2l.4-.4c.1-.1.3-.2.5-.2h.4c.2 0 .4.1.5.2.2.2.2.4.2.6 0 .2 0 .4-.3.4-.2 0-.3-.2-.3-.3 0-.1 0-.2-.1-.2-.1-.1-.2-.1-.3-.1H96c-.1 0-.2.1-.3.1l-.7.7v1.4c0 .2 0 .4-.3.4s-.3-.2-.3-.4v-2.4zm4.4 0l.1-.1c.2-.2.3-.3.5-.3h.6c.1 0 .3.1.4.2l.2.2c.2.2.3.4.3.7v1.1c0 .3-.1.5-.3.7l-.2.2c-.1.1-.3.2-.4.2h-.5c-.2 0-.4-.1-.5-.3l-.1-.1c0 .2-.1.4-.3.4-.2 0-.3-.2-.3-.4v-3.6c0-.2 0-.4.3-.4s.3.2.3.4v1.1zm0 1.4c0 .2 0 .3.2.4l.3.3c.1.1.1.1.2.1h.4c.1 0 .1 0 .2-.1l.2-.2c.1-.1.1-.2.1-.3v-1c0-.1 0-.2-.1-.2l-.2-.2h-.5c-.1 0-.2 0-.2.1l-.3.3c-.1.1-.2.2-.2.3v.5zm3.4-.8c0-.4.1-.5.3-.7.3-.2.4-.3.7-.3h.4c.4 0 .5.1.7.3.3.2.3.4.3.7v1.1c0 .4-.1.5-.4.8-.3.3-.4.3-.7.3h-.4c-.3 0-.4 0-.7-.3-.3-.2-.4-.4-.4-.8v-1.1zm.5 1.1c0 .1 0 .2.2.3.1.1.2.2.4.2h.4c.2 0 .2 0 .4-.2.2-.1.2-.2.2-.3v-1.1c0-.1 0-.2-.2-.3-.1-.1-.2-.2-.4-.2h-.4c-.2 0-.2 0-.4.2-.2.1-.2.2-.2.3z" fill="#fff" stroke="#fff" stroke-width=".25" stroke-miterlimit="10"/>
    </g>
    <path id="path5002" d="M134.3 115.4h10.2v8.2h-10.2z" stroke-miterlimit="10" fill="#bdbbbb" stroke="#65656a"/>
    <ellipse id="ellipse5004" ry="2.1" rx="3.1" cy="119.5" cx="139.4" class="st17" fill="#231f20"/>
    <circle id="circle5006" r="5.1" cy="30.4" cx="96" fill="#fff9e2"/>
    <path id="path5008" d="M7.4 96.4h12.3v1.9H7.4z" class="st22" fill="#766c60"/>
    <path id="path5010" d="M150.8 59.9h2.1V62h-2.1z" class="st9" fill="#9a916c"/>
    <path id="path5012" d="M158.906 61.93h-2.1v-2.1h2.1z" class="st9" fill="#9a916c"/>
    <path id="path5014" d="M150.8 67.3h2.1v2.1h-2.1z" class="st9" fill="#9a916c"/>
    <path id="path5016" d="M158.906 69.368h-2.1v-2.1h2.1z" class="st9" fill="#9a916c"/>
    <path id="path5018" d="M150.8 74.7h2.1v2.1h-2.1z" class="st9" fill="#9a916c"/>
    <path id="path5020" d="M158.906 76.808h-2.1v-2.1h2.1z" class="st9" fill="#9a916c"/>
    <g transform="translate(0 -12.1)" id="g5024">
      <path id="path5022" d="M25.7 61.4c0 .6-.4 1-1.1 1H24v.8h-.5v-2.8h1.1c.7.1 1.1.4 1.1 1zm-.4 0c0-.4-.2-.5-.7-.5H24V62h.6c.4 0 .7-.2.7-.6zm4 .5c0 .8-.6 1.4-1.5 1.4s-1.5-.6-1.5-1.4c0-.8.6-1.4 1.5-1.4s1.5.6 1.5 1.4zm-2.5 0c0 .6.5 1 1 1s1-.4 1-1-.4-1-1-1c-.5 0-1 .4-1 1zm3.5-1.4l.7 2.3.7-2.3h.5l.7 2.3.7-2.3h.4l-.9 2.8h-.5l-.7-2.2-.7 2.2h-.5l-.9-2.8zm6.4 0v.4h-1.5v.8h1.4v.4h-1.4v.8h1.6v.4h-2v-2.8zm2.8 2.8l-.5-.9h-.8v.8h-.5v-2.8h1.1c.7 0 1.1.3 1.1 1 0 .4-.2.8-.6.9l.6.9h-.4zm-.6-1.3c.4 0 .7-.2.7-.6 0-.4-.2-.5-.7-.5h-.7V62z" class="st3" fill="#fff"/>
    </g>
    <g transform="translate(0 -12.1)" id="g5028">
      <path id="path5026" d="M28.5 30c0 .3.1.5.3.5.6 0 .3-1.5 1.3-1.5.5 0 .8.4.8 1.1 0 .4-.2.9-.4 1.1l-.5-.3c.3-.3.4-.6.4-.9 0-.3-.1-.5-.3-.5-.6 0-.3 1.5-1.3 1.5-.5 0-.8-.4-.8-1 0-.4.1-.7.3-1l.4.2c-.1.3-.2.6-.2.8zm0-3.3c0 .6.4 1 1 1s1-.4 1-1c0-.3-.1-.6-.3-.8l.3-.3c.3.3.5.7.5 1.1 0 .8-.6 1.5-1.4 1.5-.8 0-1.4-.6-1.4-1.5 0-.4.2-.8.4-1.1l.3.3c-.3.2-.4.5-.4.8zm-.4-2.4h2.4v-1.2h.4v1.7h-2.8z" class="st3" fill="#fff"/>
    </g>
    <g transform="translate(0 -12.1)" id="g5032">
      <path id="path5030" d="M35.6 31c0 .3.1.5.3.5.6 0 .3-1.5 1.3-1.5.5 0 .8.4.8 1.1 0 .4-.2.9-.4 1.1l-.5-.2c.3-.3.4-.6.4-.9 0-.3-.1-.5-.3-.5-.6 0-.3 1.5-1.3 1.5-.5 0-.8-.4-.8-1 0-.4.1-.7.3-1l.4.2c-.1.2-.2.5-.2.7zm1-4.6c.8 0 1.4.6 1.4 1.5V29h-2.8v-1.1c0-.9.6-1.5 1.4-1.5zm0 .5c-.6 0-1 .4-1 1v.7h2v-.7c-.1-.6-.5-1-1-1zm.7-3.1v1.4l.6.3v.5l-2.8-1.2v-.5L38 23v.5zm-.4.2l-1.2.5 1.2.5z" class="st3" fill="#fff"/>
    </g>
    <g transform="translate(0 -12.1)" id="g5036">
      <path id="path5034" d="M44.5 32.8v1.4l.6.3v.5l-2.8-1.2v-.5l2.8-1.2v.5zm-.5.2l-1.2.5 1.2.5zm1.1-3.5l-.9.5v.8h.8v.5h-2.8v-1.1c0-.7.3-1.1 1-1.1.4 0 .8.2.9.6l.9-.6v.4zm-1.3.6c0-.4-.2-.7-.6-.7-.4 0-.5.2-.5.7v.7h1.1zM42.3 26h.4v1.5h.8v-1.4h.4v1.4h.8v-1.6h.4v2h-2.8zm0-2.9h.4v1.4h.8v-1.3h.4v1.3H45v.5h-2.8v-1.9z" class="st3" fill="#fff"/>
    </g>
    <g transform="translate(0 -12.1)" id="g5040">
      <path id="path5038" d="M50.8 41.2v-.4h1c.2.3.4.7.4 1.1 0 .8-.6 1.5-1.4 1.5-.8 0-1.4-.7-1.4-1.5 0-.4.2-.8.4-1.1l.3.3c-.2.2-.3.5-.3.8 0 .6.4 1 1 1s1-.5 1-1c0-.2-.1-.4-.2-.6h-.8zm1.4-3.3l-.8.5v.8h.8v.5h-2.8v-1.1c0-.7.3-1.1 1-1.1.4 0 .8.2.9.6l.9-.6zm-1.3.7c0-.4-.2-.7-.6-.7-.4 0-.5.2-.5.7v.7h1.1zm-.1-4.9c.8 0 1.4.6 1.4 1.5s-.6 1.5-1.4 1.5c-.8 0-1.4-.6-1.4-1.5s.6-1.5 1.4-1.5zm0 2.5c.6 0 1-.5 1-1s-.4-1-1-1-1 .4-1 1c0 .5.5 1 1 1zm1-4.6c0-.5-.3-.7-.8-.7h-1.6v-.5H51c.7 0 1.2.5 1.2 1.2 0 .8-.4 1.2-1.2 1.2h-1.6v-.5H51c.5.1.8-.2.8-.7zm-2.4-2.8l2-1.5h-2v-.5h2.8v.5l-2 1.5h2v.5h-2.8zm1.4-5.7c.8 0 1.4.6 1.4 1.5v1.1h-2.8v-1.1c0-.8.6-1.5 1.4-1.5zm0 .5c-.6 0-1 .4-1 1v.7h2v-.7c0-.6-.4-1-1-1z" class="st3" fill="#fff"/>
    </g>
    <g transform="translate(0 -12.1)" id="g5044">
      <path id="path5042" d="M57.9 28.9c.8 0 1.4.6 1.4 1.5v1.1h-2.8v-1.1c0-.9.6-1.5 1.4-1.5zm0 .5c-.6 0-1 .4-1 1v.6h2v-.7c0-.5-.4-.9-1-.9zm-1.4-2.6h2.8v.5h-2.4v.6h-.4zm2-3.5c.5 0 .9.4.9 1.1 0 .4-.1.8-.3 1l-.4-.2c.2-.2.3-.5.3-.8 0-.4-.2-.7-.5-.7s-.5.3-.5.7v.4h-.3l-.8-.8v1.2h-.4v-1.8h.3l.9.9v-.2c0-.5.3-.8.8-.8z" class="st3" fill="#fff"/>
    </g>
    <g transform="translate(0 -12.1)" id="g5048">
      <path id="path5046" d="M65 28.9c.8 0 1.4.6 1.4 1.5v1.1h-2.8v-1.1c0-.9.6-1.5 1.4-1.5zm0 .5c-.6 0-1 .4-1 1v.6h2v-.7c0-.5-.4-.9-1-.9zm-1.4-2.6h2.8v.5H64v.6h-.4zm.8-3c-.2 0-.4.2-.4.5s.1.5.3.8l-.3.2c-.2-.3-.4-.7-.4-1 0-.5.3-.9.7-.9.3 0 .6.2.9.5l.8.8v-1.4h.4v2.1h-.3L65 24.2c-.2-.2-.4-.4-.6-.4z" class="st3" fill="#fff"/>
    </g>
    <g transform="translate(0 -12.1)" id="g5052">
      <path id="path5050" d="M72.2 28.9c.8 0 1.4.6 1.4 1.5v1.1h-2.8v-1.1c0-.9.5-1.5 1.4-1.5zm0 .5c-.6 0-1 .4-1 1v.6h2v-.7c-.1-.5-.5-.9-1-.9zm-1.4-2.6h2.8v.5h-2.4v.6h-.4zm0-2.8h2.8v.5h-2.4v.6h-.4z" class="st3" fill="#fff"/>
    </g>
    <g transform="translate(0 -12.1)" id="g5056">
      <path id="path5054" d="M79.3 28.9c.8 0 1.4.6 1.4 1.5v1.1h-2.8v-1.1c0-.9.6-1.5 1.4-1.5zm0 .5c-.6 0-1 .4-1 1v.6h2v-.7c0-.5-.5-.9-1-.9zm-1.4-2.6h2.8v.5h-2.4v.6h-.4zm1.4-3.6c.9 0 1.4.4 1.4 1.1 0 .7-.5 1.1-1.4 1.1-.9 0-1.4-.4-1.4-1.1 0-.7.5-1.1 1.4-1.1zm0 1.6c.7 0 1-.2 1-.6 0-.4-.3-.6-1-.6s-1 .2-1 .6c-.1.4.3.6 1 .6z" class="st3" fill="#fff"/>
    </g>
    <g transform="translate(0 -12.1)" id="g5060">
      <path id="path5058" d="M86.4 26c.8 0 1.4.6 1.4 1.5v1.1H85v-1.1c0-.9.6-1.5 1.4-1.5zm0 .5c-.6 0-1 .4-1 1v.7h2v-.7c0-.6-.4-1-1-1zm1-2.1c0-.5-.4-.8-1-.8.3.1.4.4.4.8 0 .6-.4.9-.9.9-.6 0-.9-.4-.9-1 0-.7.5-1.1 1.4-1.1.9 0 1.5.5 1.5 1.2 0 .3-.1.6-.2.8l-.4-.2c.1-.1.1-.4.1-.6zm-1.5.5c.3 0 .5-.2.5-.5 0-.4-.2-.6-.5-.6-.2 0-.5.2-.5.6 0 .2.2.5.5.5z" class="st3" fill="#fff"/>
    </g>
    <g transform="translate(0 -12.1)" id="g5064">
      <path id="path5062" d="M93.5 26c.8 0 1.4.6 1.4 1.5v1.1h-2.8v-1.1c0-.9.6-1.5 1.4-1.5zm0 .5c-.6 0-1 .4-1 1v.7h2v-.7c0-.6-.4-1-1-1zm-.7-3.2c.3 0 .5.2.6.4.1-.3.4-.5.7-.5.5 0 .8.4.8 1.1 0 .7-.3 1.1-.8 1.1-.3 0-.6-.2-.7-.6-.1.3-.3.4-.6.4-.4 0-.7-.4-.7-.9 0-.6.3-1 .7-1zm0 1.5c.3 0 .4-.2.4-.5s-.2-.5-.4-.5-.4.2-.4.5.2.5.4.5zm1.3.1c.3 0 .5-.2.5-.6 0-.4-.2-.6-.5-.6s-.5.2-.5.6c0 .3.2.6.5.6z" class="st3" fill="#fff"/>
    </g>
    <g transform="translate(0 -12.1)" id="g5068">
      <path id="path5066" d="M103 26c.8 0 1.4.6 1.4 1.5v1.1h-2.8v-1.1c0-.9.6-1.5 1.4-1.5zm0 .5c-.6 0-1 .4-1 1v.7h2v-.7c0-.6-.5-1-1-1zm-1.4-3.3h.4l2.4 1.2v.5l-2.4-1.2v1.2h.4v.4h-.8z" class="st3" fill="#fff"/>
    </g>
    <g transform="translate(0 -12.1)" id="g5072">
      <path id="path5070" d="M110.1 26c.8 0 1.4.6 1.4 1.5v1.1h-2.8v-1.1c0-.9.6-1.5 1.4-1.5zm0 .5c-.6 0-1 .4-1 1v.7h2v-.7c0-.6-.4-1-1-1zm-1-2.5c0 .5.4.8 1 .8-.3-.1-.4-.4-.4-.8 0-.6.3-.9.9-.9.6 0 .9.4.9 1 0 .7-.5 1.1-1.4 1.1-.9 0-1.5-.5-1.5-1.2 0-.3.1-.6.2-.8l.4.2c-.1.2-.1.4-.1.6zm1.5.7c.2 0 .5-.2.5-.6 0-.3-.2-.6-.5-.6s-.5.2-.5.6c-.1.4.2.7.5.6z" class="st3" fill="#fff"/>
    </g>
    <g transform="translate(0 -12.1)" id="g5076">
      <path id="path5074" d="M117.2 26c.8 0 1.4.6 1.4 1.5v1.1h-2.8v-1.1c0-.9.6-1.5 1.4-1.5zm0 .5c-.6 0-1 .4-1 1v.7h2v-.7c0-.6-.4-1-1-1zm-.4-2.2c0-.6.4-1 .8-1 .6 0 .9.4.9 1.1 0 .3-.1.7-.3 1l-.4-.2c.2-.2.3-.5.3-.8 0-.4-.2-.6-.5-.6s-.5.2-.5.6v.8h-1.5v-1.8h.4v1.3h.6c.2-.1.2-.3.2-.4z" class="st3" fill="#fff"/>
    </g>
    <g transform="translate(0 -12.1)" id="g5080">
      <path id="path5078" d="M124.3 26c.8 0 1.4.6 1.4 1.5v1.1h-2.8v-1.1c0-.9.6-1.5 1.4-1.5zm0 .5c-.6 0-1 .4-1 1v.7h2v-.7c0-.6-.4-1-1-1zm-1.4-2.6l1.7.9V24h-.7v-.4h.7v-.4h.4v.4h.7v.4h-.7v1.4h-.4l-1.8-1v-.5z" class="st3" fill="#fff"/>
    </g>
    <g transform="translate(0 -12.1)" id="g5084">
      <path id="path5082" d="M131.4 26c.8 0 1.4.6 1.4 1.5v1.1H130v-1.1c0-.9.6-1.5 1.4-1.5zm0 .5c-.6 0-1 .4-1 1v.7h2v-.7c0-.6-.4-1-1-1zm.6-3.2c.5 0 .9.4.9 1.1 0 .4-.1.8-.3 1l-.4-.2c.2-.2.3-.5.3-.8 0-.4-.2-.7-.5-.7s-.5.3-.5.7v.4h-.3l-.8-.8v1.2h-.4v-1.8h.3l.9.9v-.2c0-.5.3-.8.8-.8z" class="st3" fill="#fff"/>
    </g>
    <g transform="translate(0 -12.1)" id="g5088">
      <path id="path5086" d="M138.5 26c.8 0 1.4.6 1.4 1.5v1.1h-2.8v-1.1c0-.9.6-1.5 1.4-1.5zm0 .5c-.6 0-1 .4-1 1v.7h2v-.7c0-.6-.4-1-1-1zm-.6-2.7c-.2 0-.4.2-.4.5s.1.5.3.8l-.4.2c-.2-.3-.4-.7-.4-1 0-.5.3-.9.7-.9.3 0 .6.2.9.5l.8.8v-1.4h.4v2.1h-.3l-1.1-1.1c-.1-.3-.4-.5-.5-.5z" class="st3" fill="#fff"/>
    </g>
    <g transform="translate(0 -12.1)" id="g5092">
      <path id="path5090" d="M144.2 34.3h.4v.9h2.4v.5h-2.4v.9h-.4zm0-1.1l1-.7-1-.7v-.6l1.3.9 1.5-1v.6l-1.1.8 1.1.8v.6l-1.4-1-1.4.9zm-.4-4.1l3.7 1.3v.4l-3.7-1.3zm1.8-3.1c.8 0 1.4.6 1.4 1.5v1.1h-2.8v-1.1c0-.9.6-1.5 1.4-1.5zm.1.5c-.6 0-1 .4-1 1v.7h2v-.7c-.1-.6-.5-1-1-1zm-1.5-2.5h2.8v.5h-2.4v.6h-.4z" class="st3" fill="#fff"/>
    </g>
    <g transform="translate(0 -12.1)" id="g5096">
      <path id="path5094" d="M154.2 33.9l-.8.5v.8h.8v.5h-2.8v-1.1c0-.7.3-1.1 1-1.1.4 0 .8.2.9.6l.9-.6zm-1.3.6c0-.4-.2-.7-.6-.7-.4 0-.5.2-.5.7v.7h1.1zm-1.5-2.4l1-.7-1-.7v-.6l1.3.9 1.5-1v.6l-1.1.8 1.1.8v.6l-1.4-1-1.4.9zm-.5-4.1l3.7 1.3v.4l-3.7-1.3zm.5-1h2.8v.5h-2.8zm1.4-3.8c.8 0 1.4.6 1.4 1.5s-.6 1.5-1.4 1.5c-.8 0-1.4-.6-1.4-1.5s.6-1.5 1.4-1.5zm0 2.4c.6 0 1-.5 1-1s-.4-1-1-1-1 .4-1 1 .4 1 1 1z" class="st3" fill="#fff"/>
    </g>
    <g transform="translate(0 -12.1)" id="g5100">
      <path id="path5098" d="M148.4 117.7c.2.2.3.5.3.8 0 .4-.2.7-.6.9 0 .8-.6 1.5-1.4 1.5-.8 0-1.4-.6-1.4-1.5s.6-1.5 1.4-1.5c.6 0 1.2.4 1.3 1 .2-.2.3-.3.3-.5 0-.1-.1-.3-.2-.5zm-.7 1.7c0-.5-.4-1-1-1s-1 .4-1 1 .4 1 1 1 1-.5 1-1zm-2.4-2.6l2.3-.7-2.3-.7v-.4l2.3-.7-2.3-.7v-.5l2.8.9v.5l-2.2.7 2.2.7v.5l-2.8.9zm0-4.8h2.8v.5h-2.8zm0-1.6h2.8v.5h-2.8zm.4-2.4c0 .6.4 1 1 1s1-.4 1-1c0-.3-.1-.6-.3-.8l.3-.3c.3.3.5.7.5 1.1 0 .8-.6 1.5-1.4 1.5-.8 0-1.4-.6-1.4-1.5 0-.4.2-.8.4-1.1l.3.3c-.3.2-.4.5-.4.8z" class="st3" fill="#fff"/>
    </g>
    <g transform="translate(0 -12.1)" id="g5104">
      <path id="path5102" d="M105.3 44l1.7.9V44h-.7v-.4h.7v-.4h.4v.4h.7v.4h-.7v1.4h-.4l-1.8-1V44zm1.4-3.1c.9 0 1.4.4 1.4 1.1 0 .7-.5 1.1-1.4 1.1-.9 0-1.4-.4-1.4-1.1 0-.8.5-1.1 1.4-1.1zm0 1.6c.7 0 1-.2 1-.6 0-.4-.3-.6-1-.6s-1 .2-1 .6c0 .4.3.6 1 .6z" class="st3" fill="#fff"/>
    </g>
    <g transform="translate(0 -12.1)" id="g5108">
      <path id="path5106" d="M135.7 125.9l-.4-.6h-.6v.6h-.4v-2.1h.9c.5 0 .9.3.9.7 0 .3-.2.6-.4.7l.5.7zm-.4-1c.3 0 .5-.1.5-.4 0-.3-.2-.4-.5-.4h-.5v.8zm3.1-1.1v.3h-1.2v.6h1v.3h-1v.6h1.2v.3h-1.5v-2.1zm1.4.3c-.2 0-.3.1-.3.2 0 .5 1.1.2 1.1 1 0 .4-.3.6-.8.6-.3 0-.6-.1-.9-.3l.2-.3c.2.2.5.3.7.3.2 0 .4-.1.4-.3 0-.5-1.1-.2-1.1-1 0-.4.3-.6.8-.6.3 0 .5.1.7.2l-.1.3c-.3 0-.5-.1-.7-.1zm3-.3v.3h-1.2v.6h1v.3h-1v.6h1.2v.3h-1.5v-2.1zm2.3 0v.3h-.7v1.8h-.4v-1.8h-.7v-.3z" class="st3" fill="#fff"/>
    </g>
    <g transform="translate(0 -12.1)" id="g5112">
      <path id="path5110" d="M26.1 69c0 .8-.6 1.4-1.5 1.4h-1.1v-2.8h1.1c.9 0 1.5.6 1.5 1.4zm-.5 0c0-.6-.4-1-1-1H24v2h.7c.5 0 .9-.4.9-1zm2.5-1.4v2.8h-.5V68H27v-.4zm3.6 2c0 .5-.4.9-1.1.9-.4 0-.8-.1-1-.3l.2-.4c.2.2.5.3.8.3.4 0 .7-.2.7-.5s-.3-.5-.7-.5h-.4v-.3l.8-.8h-1.2v-.4h1.8v.3l-.9.9h.2c.4.1.8.3.8.8z" class="st3" fill="#fff"/>
    </g>
    <g transform="translate(0 -12.1)" id="g5116">
      <path id="path5114" d="M25.4 75.5v.4h-.9v2.4H24v-2.4h-.9v-.4zm1.1 0l.7 1 .7-1h.6l-.9 1.3 1 1.5H28l-.8-1.1-.8 1.1h-.6l1-1.4-.8-1.4z" class="st3" fill="#fff"/>
    </g>
    <g transform="translate(0 -12.1)" id="g5120">
      <path id="path5118" d="M25.3 86.2l-.5-.8H24v.8h-.5v-2.8h1.1c.7 0 1.1.3 1.1 1 0 .4-.2.8-.6.9l.6.9zm-.7-1.2c.4 0 .7-.2.7-.6 0-.4-.2-.5-.7-.5H24V85zm2.5-1.6l.7 1 .7-1h.5l-.9 1.3 1 1.5h-.6l-.8-1.1-.7 1.1h-.6l1-1.4-.9-1.4z" class="st3" fill="#fff"/>
    </g>
    <g transform="translate(0 -12.1)" id="g5124">
      <path id="path5122" d="M24.7 91.4c-.6 0-1 .4-1 1s.4 1 1 1c.3 0 .6-.1.8-.3l.3.3c-.3.3-.7.5-1.1.5-.8 0-1.5-.6-1.5-1.4 0-.8.6-1.4 1.5-1.4.4 0 .8.2 1.1.4l-.3.3c-.2-.3-.5-.4-.8-.4zm2.5-.4v1.2h1.5V91h.5v2.8h-.5v-1.2h-1.5v1.2h-.5V91zm5 1.4h.4v1c-.3.2-.7.4-1.1.4-.8 0-1.5-.6-1.5-1.4 0-.8.7-1.4 1.5-1.4.4 0 .8.2 1.1.4l-.3.3c-.2-.2-.5-.3-.8-.3-.6 0-1 .4-1 1s.5 1 1 1c.2 0 .4-.1.6-.2v-.8z" class="st3" fill="#fff"/>
    </g>
    <g transform="translate(0 -12.1)" id="g5128">
      <path id="path5126" d="M62 144.7l-.8.5v.8h.8v.5h-2.8v-1.1c0-.7.3-1.1 1-1.1.4 0 .8.2.9.6l.9-.6zm-1.3.7c0-.4-.2-.7-.6-.7-.4 0-.5.2-.5.7v.7h1.1zm-1.5-4.2h.4v1.5h.8v-1.4h.4v1.4h.8v-1.6h.4v2h-2.8zm0-2.9h.4v1.4h.8v-1.3h.4v1.3H62v.5h-2.8z" class="st3" fill="#fff"/>
    </g>
    <g transform="translate(0 -12.1)" id="g5132">
      <path id="path5130" d="M69.1 144.7l-.8.5v.8h.8v.5h-2.8v-1.1c0-.7.3-1.1 1-1.1.4 0 .8.2.9.6l.9-.6zm-1.3.7c0-.4-.2-.7-.6-.7-.4 0-.5.2-.5.7v.7h1.1zm-1.5-4.2h.4v1.5h.8v-1.4h.4v1.4h.8v-1.6h.4v2h-2.8zm.4-1.9c0 .3.1.5.3.5.6 0 .3-1.5 1.3-1.5.5 0 .8.4.8 1.1 0 .4-.2.9-.4 1.1l-.4-.2c.3-.3.4-.6.4-.9 0-.3-.1-.5-.3-.5-.6 0-.3 1.5-1.3 1.5-.5 0-.8-.4-.8-1 0-.4.1-.7.3-1l.4.2c-.2.2-.3.5-.3.7zm-.4-4h.4v1.5h.8v-1.4h.4v1.4h.8v-1.6h.4v2h-2.8zm0-2.9h.4v.9h2.4v.5h-2.4v.9h-.4z" class="st3" fill="#fff"/>
    </g>
    <g transform="translate(0 -12.1)" id="g5136">
      <path id="path5134" d="M75.4 144.7c.5 0 .9.4.9 1.1 0 .4-.1.8-.3 1l-.4-.2c.2-.2.3-.5.3-.8 0-.4-.2-.7-.5-.7s-.5.3-.5.7v.4h-.3l-.8-.8v1.2h-.4v-1.8h.3l.9.9v-.2c0-.5.3-.8.8-.8zm.6-1.4c.2 0 .3.1.3.3 0 .2-.1.3-.3.3-.2 0-.3-.1-.3-.3 0-.2.1-.3.3-.3zm-.6-2.8c.5 0 .9.4.9 1.1 0 .4-.1.8-.3 1l-.4-.2c.2-.2.3-.5.3-.8 0-.4-.2-.7-.5-.7s-.5.3-.5.7v.4h-.3l-.8-.8v1.2h-.4v-1.8h.3l.9.9v-.2c0-.4.3-.8.8-.8zm-2-1.2l2.3-.9-2.3-.9v-.5l2.8 1.1v.5l-2.8 1.1z" class="st3" fill="#fff"/>
    </g>
    <g transform="translate(0 -12.1)" id="g5140">
      <path id="path5138" d="M81.6 145.7c0-.6.4-1 .8-1 .6 0 .9.4.9 1.1 0 .3-.1.7-.3 1l-.4-.2c.2-.2.3-.5.3-.8 0-.4-.2-.6-.5-.6s-.5.2-.5.6v.8h-1.5v-1.8h.6v1.3h.6zm-1.1-2.2l2.3-.9-2.3-.9v-.5l2.8 1.1v.5l-2.8 1.1z" class="st3" fill="#fff"/>
    </g>
    <g transform="translate(0 -12.1)" id="g5144">
      <path id="path5142" d="M89.1 144.6v-.4h1c.2.3.4.7.4 1.1 0 .8-.6 1.5-1.4 1.5-.8 0-1.4-.7-1.4-1.5 0-.4.2-.8.4-1.1l.3.3c-.2.2-.3.5-.3.8 0 .6.4 1 1 1s1-.5 1-1c0-.2-.1-.4-.2-.6h-.8zm1.3-3.3l-.8.5v.8h.8v.5h-2.8V142c0-.7.3-1.1 1-1.1.4 0 .8.2.9.6l.9-.6zm-1.2.7c0-.4-.2-.7-.6-.7-.4 0-.5.2-.5.7v.7h1.1zm-.2-4.9c.8 0 1.4.6 1.4 1.5 0 .8-.6 1.5-1.4 1.5-.8 0-1.4-.6-1.4-1.5s.6-1.5 1.4-1.5zm0 2.5c.6 0 1-.5 1-1s-.4-1-1-1-1 .4-1 1c.1.5.5 1 1 1zm1-4.6c0-.5-.3-.7-.8-.7h-1.6v-.5h1.6c.7 0 1.2.5 1.2 1.2s-.4 1.2-1.2 1.2h-1.6v-.5h1.6c.6.1.8-.2.8-.7zm-2.4-2.8l2-1.5h-2v-.5h2.8v.5l-2 1.5h2v.5h-2.8zm1.4-5.6c.8 0 1.4.6 1.4 1.5v1.1h-2.8V128c0-.8.6-1.4 1.4-1.4zm0 .4c-.6 0-1 .4-1 1v.7h2v-.7c0-.6-.4-1-1-1z" class="st3" fill="#fff"/>
    </g>
    <g transform="translate(0 -12.1)" id="g5148">
      <path id="path5146" d="M96.2 144.6v-.4h1c.2.3.4.7.4 1.1 0 .8-.6 1.5-1.4 1.5-.8 0-1.4-.7-1.4-1.5 0-.4.2-.8.4-1.1l.3.3c-.2.2-.3.5-.3.8 0 .6.4 1 1 1s1-.5 1-1c0-.2-.1-.4-.2-.6h-.8zm1.4-3.3l-.8.5v.8h.8v.5h-2.8V142c0-.7.3-1.1 1-1.1.4 0 .8.2.9.6l.9-.6zm-1.3.7c0-.4-.2-.7-.6-.7-.4 0-.5.2-.5.7v.7h1.1zm-.1-4.9c.8 0 1.4.6 1.4 1.5 0 .8-.6 1.5-1.4 1.5-.8 0-1.4-.6-1.4-1.5-.1-.9.6-1.5 1.4-1.5zm0 2.5c.6 0 1-.5 1-1s-.4-1-1-1-1 .4-1 1c0 .5.4 1 1 1zm1-4.6c0-.5-.3-.7-.8-.7h-1.6v-.5h1.6c.7 0 1.2.5 1.2 1.2s-.4 1.2-1.2 1.2h-1.6v-.5h1.6c.5.1.8-.2.8-.7zm-2.4-2.8l2-1.5h-2v-.5h2.8v.5l-2 1.5h2v.5h-2.8zm1.4-5.6c.8 0 1.4.6 1.4 1.5v1.1h-2.8V128c0-.8.5-1.4 1.4-1.4zm0 .4c-.6 0-1 .4-1 1v.7h2v-.7c-.1-.6-.5-1-1-1z" class="st3" fill="#fff"/>
    </g>
    <g transform="translate(0 -12.1)" id="g5152">
      <path id="path5150" d="M101.9 146.3l2.3-.9-2.3-.9v-.5l2.8 1.1v.5l-2.8 1.1zm0-3.4h2.8v.5h-2.8zm0-1.6l2-1.5h-2v-.5h2.8v.5l-2 1.5h2v.5h-2.8z" class="st3" fill="#fff"/>
    </g>
    <g transform="translate(0 -12.1)" id="g5156">
      <path id="path5154" d="M116.6 144.7v1.4l.6.3v.5l-2.8-1.2v-.5l2.8-1.2v.5zm-.4.2l-1.2.5 1.2.5zm-.4-3.7c.9 0 1.4.4 1.4 1.1 0 .7-.5 1.1-1.4 1.1-.9 0-1.4-.4-1.4-1.1 0-.7.5-1.1 1.4-1.1zm0 1.7c.7 0 1-.2 1-.6 0-.4-.3-.6-1-.6s-1 .2-1 .6c0 .4.3.6 1 .6z" class="st3" fill="#fff"/>
    </g>
    <g transform="translate(0 -12.1)" id="g5160">
      <path id="path5158" d="M123.7 144.7v1.4l.6.3v.5l-2.8-1.2v-.5l2.8-1.2v.5zm-.4.2l-1.2.5 1.2.5zm-1.8-2.9h2.8v.5h-2.4v.6h-.4z" class="st3" fill="#fff"/>
    </g>
    <g transform="translate(0 -12.1)" id="g5164">
      <path id="path5162" d="M130.8 144.7v1.4l.6.3v.5l-2.8-1.2v-.5l2.8-1.2v.5zm-.4.2l-1.2.5 1.2.5zm-1-3c-.2 0-.4.2-.4.5s.1.5.3.8l-.4.2c-.2-.3-.4-.7-.4-1 0-.5.3-.9.7-.9.3 0 .6.2.9.5l.8.8v-1.4h.4v2.1h-.3l-1.1-1.1c-.1-.4-.3-.5-.5-.5z" class="st3" fill="#fff"/>
    </g>
    <g transform="translate(0 -12.1)" id="g5168">
      <path id="path5166" d="M137.9 144.7v1.4l.6.3v.5l-2.8-1.2v-.5l2.8-1.2v.5zm-.4.2l-1.2.5 1.2.5zm.2-3.6c.5 0 .9.4.9 1.1 0 .4-.1.8-.3 1l-.4-.2c.2-.2.3-.5.3-.8 0-.4-.2-.7-.5-.7s-.5.3-.5.7v.4h-.2l-.8-.8v1.2h-.4v-1.8h.3l.9.9v-.2c0-.4.2-.8.7-.8z" class="st3" fill="#fff"/>
    </g>
    <g transform="translate(0 -12.1)" id="g5172">
      <path id="path5170" d="M145 144.7v1.4l.6.3v.5l-2.8-1.2v-.5l2.8-1.2v.5zm-.4.2l-1.2.5 1.2.5zm-1.7-3l1.7.9v-.8h-.7v-.4h.7v-.4h.4v.4h.7v.4h-.7v1.4h-.4l-1.8-1v-.5z" class="st3" fill="#fff"/>
    </g>
    <g transform="translate(0 -12.1)" id="g5176">
      <path id="path5174" d="M152.1 144.7v1.4l.6.3v.5l-2.8-1.2v-.5l2.8-1.2v.5zm-.4.2l-1.2.5 1.2.5zm-.7-2.6c0-.6.4-1 .8-1 .6 0 .9.4.9 1.1 0 .3-.1.7-.3 1l-.4-.2c.2-.2.3-.5.3-.8 0-.4-.2-.6-.5-.6s-.5.2-.5.6v.8H150v-1.8h.4v1.3h.6z" class="st3" fill="#fff"/>
    </g>
  </g>
</svg>
