<?xml version="1.0" encoding="utf-8"?>
<svg viewBox="-5 -1 53 112" xmlns="http://www.w3.org/2000/svg" xmlns:bx="https://boxy-svg.com">
  <rect x="2.5" width="38" height="100" style="fill: rgb(68, 68, 68);"/>
  <rect x="11.748" y="3.2" width="1.391" height="2.553" style="fill: none; stroke-linejoin: round; stroke-width: 3; stroke: rgb(165, 103, 52);"/>
  <rect x="20.75" y="3.2" width="1.391" height="2.553" style="fill: none; stroke-linejoin: round; stroke-width: 3; stroke: rgb(165, 103, 52);"/>
  <rect x="29.75" y="3.2" width="1.391" height="2.553" style="fill: none; stroke-linejoin: round; stroke-width: 3; stroke: rgb(165, 103, 52);"/>
  <g>
    <rect x="9" y="16.562" width="25" height="3.238" style="fill: rgb(216, 216, 216);"/>
    <rect x="9" y="22.562" width="25" height="3.238" style="fill: rgb(216, 216, 216);"/>
    <rect x="9" y="28.563" width="25" height="3.238" style="fill: rgb(216, 216, 216);"/>
    <rect x="11.607" y="14.833" width="19.787" height="18.697" style="fill: rgb(0, 0, 0);"/>
    <ellipse style="fill: rgb(216, 216, 216);" cx="21.5" cy="24.181" rx="7" ry="7"/>
  </g>
  <path d="M -7.25 -103.2 L -2.5 -100.003 L -12 -100.003 L -7.25 -103.2 Z" style="fill: rgb(68, 68, 68);" transform="matrix(-1, 0, 0, -1, 0, 0)" bx:shape="triangle -12 -103.2 9.5 3.197 0.5 0 1@ad6f5cac"/>
  <path d="M -16.75 -103.197 L -12 -100 L -21.5 -100 L -16.75 -103.197 Z" style="fill: rgb(68, 68, 68);" transform="matrix(-1, 0, 0, -1, 0, 0)" bx:shape="triangle -21.5 -103.197 9.5 3.197 0.5 0 1@07d73149"/>
  <path d="M -26.25 -103.2 L -21.5 -100.003 L -31 -100.003 L -26.25 -103.2 Z" style="fill: rgb(68, 68, 68);" transform="matrix(-1, 0, 0, -1, 0, 0)" bx:shape="triangle -31 -103.2 9.5 3.197 0.5 0 1@54403e2d"/>
  <path d="M -35.75 -103.197 L -31 -100 L -40.5 -100 L -35.75 -103.197 Z" style="fill: rgb(68, 68, 68);" transform="matrix(-1, 0, 0, -1, 0, 0)" bx:shape="triangle -40.5 -103.197 9.5 3.197 0.5 0 1@21c9b772"/>
  <g transform="matrix(1, 0, 0, 1, 0.000002, 29.999994)">
    <rect x="9" y="16.562" width="25" height="3.238" style="fill: rgb(216, 216, 216);"/>
    <rect x="9" y="22.562" width="25" height="3.238" style="fill: rgb(216, 216, 216);"/>
    <rect x="9" y="28.563" width="25" height="3.238" style="fill: rgb(216, 216, 216);"/>
    <rect x="11.607" y="14.833" width="19.787" height="18.697" style="fill: rgb(0, 0, 0);"/>
    <ellipse style="fill: rgb(216, 216, 216);" cx="21.5" cy="24.181" rx="7" ry="7"/>
  </g>
  <g transform="matrix(1, 0, 0, 1, 0.000005, 59.999992)">
    <rect x="9" y="16.562" width="25" height="3.238" style="fill: rgb(216, 216, 216);"/>
    <rect x="9" y="22.562" width="25" height="3.238" style="fill: rgb(216, 216, 216);"/>
    <rect x="9" y="28.563" width="25" height="3.238" style="fill: rgb(216, 216, 216);"/>
    <rect x="11.607" y="14.833" width="19.787" height="18.697" style="fill: rgb(0, 0, 0);"/>
    <ellipse style="fill: rgb(216, 216, 216);" cx="21.5" cy="24.181" rx="7" ry="7"/>
  </g>
</svg>