<?xml version='1.0' encoding='UTF-8' standalone='no'?>
<!-- Created with Fritzing (http://www.fritzing.org/) -->
<svg xmlns:svg='http://www.w3.org/2000/svg' xmlns='http://www.w3.org/2000/svg' version='1.2' baseProfile='tiny' x='0in' y='0in' width='1.9685in' height='1.9685in' viewBox='0 0 141.732 141.732' >
<g partID='854129790'><g  id="breadboard">
 <g  id="breadboard">
  <g  id="icon">
   <circle  cx="10.062" cy="62.119" stroke-width="0.864" id="connector10pin" fill="none" r="2.986" stroke="#9A916C"/>
   <circle  cx="108.149" cy="72.95" stroke-width="0.864" id="connector22pin" fill="none" r="1.872" stroke="#9A916C"/>
   <circle  cx="101.594" cy="72.95" stroke-width="0.864" id="connector21pin" fill="none" r="1.872" stroke="#9A916C"/>
   <circle  cx="108.149" cy="66.634" stroke-width="0.864" id="connector20pin" fill="none" r="1.872" stroke="#9A916C"/>
   <circle  cx="101.594" cy="66.634" stroke-width="0.864" id="connector19pin" fill="none" r="1.872" stroke="#9A916C"/>
   <circle  cx="108.149" cy="60.437" stroke-width="0.864" id="connector18pin" fill="none" r="1.872" stroke="#9A916C"/>
   <circle  cx="101.594" cy="60.437" stroke-width="0.864" id="connector17pin" fill="none" r="1.872" stroke="#9A916C"/>
   <circle  cx="131.67" cy="79.613" stroke-width="0.864" id="connector31pin" fill="none" r="2.986" stroke="#9A916C"/>
   <circle  cx="131.67" cy="62.119" stroke-width="0.864" id="connector32pin" fill="none" r="2.986" stroke="#9A916C"/>
   <circle  cx="126.829" cy="45.276" stroke-width="0.864" id="connector33pin" fill="none" r="2.986" stroke="#9A916C"/>
   <circle  cx="117.29" cy="30.642" stroke-width="0.864" id="connector34pin" fill="none" r="2.986" stroke="#9A916C"/>
   <circle  cx="104.099" cy="19.177" stroke-width="0.864" id="connector35pin" fill="none" r="2.986" stroke="#9A916C"/>
   <circle  cx="88.162" cy="11.902" stroke-width="0.864" id="connector36pin" fill="none" r="2.986" stroke="#9A916C"/>
   <circle  cx="53.57" cy="129.829" stroke-width="0.864" id="connector37pin" fill="none" r="2.986" stroke="#9A916C"/>
   <circle  cx="70.866" cy="132.292" stroke-width="0.864" id="connector38pin" fill="none" r="2.986" stroke="#9A916C"/>
   <circle  cx="88.162" cy="129.829" stroke-width="0.864" id="connector39pin" fill="none" r="2.986" stroke="#9A916C"/>
   <circle  cx="104.156" cy="122.613" stroke-width="0.864" id="connector40pin" fill="none" r="2.986" stroke="#9A916C"/>
   <circle  cx="117.29" cy="111.091" stroke-width="0.864" id="connector41pin" fill="none" r="2.986" stroke="#9A916C"/>
   <circle  cx="126.744" cy="96.399" stroke-width="0.864" id="connector42pin" fill="none" r="2.986" stroke="#9A916C"/>
   <circle  cx="24.442" cy="111.091" stroke-width="0.864" id="connector43pin" fill="none" r="2.986" stroke="#9A916C"/>
   <circle  cx="14.904" cy="96.428" stroke-width="0.864" id="connector44pin" fill="none" r="2.986" stroke="#9A916C"/>
   <circle  cx="14.904" cy="45.305" stroke-width="0.864" id="connector45pin" fill="none" r="2.986" stroke="#9A916C"/>
   <circle  cx="24.442" cy="30.642" stroke-width="0.864" id="connector46pin" fill="none" r="2.986" stroke="#9A916C"/>
   <circle  cx="37.662" cy="19.177" stroke-width="0.864" id="connector47pin" fill="none" r="2.986" stroke="#9A916C"/>
   <circle  cx="53.513" cy="11.732" stroke-width="0.864" id="connector48pin" fill="none" r="2.986" stroke="#9A916C"/>
   <circle  cx="70.866" cy="9.439" stroke-width="0.864" id="connector49pin" fill="none" r="2.986" stroke="#9A916C"/>
   <circle  cx="37.634" cy="122.556" stroke-width="0.864" id="connector50pin" fill="none" r="2.986" stroke="#9A916C"/>
   <circle  cx="9.949" cy="79.641" stroke-width="0.864" id="connector51pin" fill="none" r="2.986" stroke="#9A916C"/>
  </g>
 </g>
 <path  d="M70.866,1.802c-38.137,0,-69.052,30.915,-69.052,69.052c0,38.138,30.915,69.054,69.052,69.054c38.136,0,69.053,-30.916,69.053,-69.054C139.919,32.718,109.002,1.802,70.866,1.802zM7.802,61.792c0.18,-1.225,1.313,-2.075,2.538,-1.896c1.225,0.174,2.071,1.309,1.896,2.534c-0.177,1.219,-1.31,2.07,-2.535,1.895C8.476,64.147,7.628,63.012,7.802,61.792zM10.384,81.802c-1.225,0.176,-2.357,-0.673,-2.534,-1.891c-0.176,-1.223,0.673,-2.361,1.896,-2.539c1.226,-0.177,2.358,0.673,2.535,1.897C12.456,80.496,11.609,81.631,10.384,81.802zM12.945,44.406c0.516,-1.125,1.841,-1.619,2.968,-1.107c1.126,0.516,1.62,1.842,1.105,2.966c-0.513,1.127,-1.84,1.619,-2.967,1.106C12.93,46.858,12.434,45.528,12.945,44.406zM15.912,98.41c-1.124,0.515,-2.45,0.021,-2.966,-1.104c-0.513,-1.122,-0.02,-2.45,1.107,-2.969c1.123,-0.515,2.451,-0.014,2.965,1.109C17.532,96.566,17.038,97.892,15.912,98.41zM102.207,17.935c0.669,-1.042,2.055,-1.343,3.097,-0.678c1.032,0.667,1.34,2.055,0.67,3.096c-0.668,1.043,-2.052,1.343,-3.093,0.673C101.841,20.36,101.541,18.977,102.207,17.935zM101.531,58.661c1.011,0,1.829,0.819,1.829,1.831s-0.818,1.832,-1.829,1.832c-1.015,0,-1.833,-0.82,-1.833,-1.832S100.516,58.661,101.531,58.661zM101.531,64.868c1.011,0,1.829,0.821,1.829,1.833s-0.818,1.832,-1.829,1.832c-1.015,0,-1.833,-0.82,-1.833,-1.832S100.516,64.868,101.531,64.868zM25.875,112.802c-0.936,0.813,-2.349,0.712,-3.158,-0.219c-0.81,-0.938,-0.71,-2.354,0.227,-3.163c0.935,-0.809,2.348,-0.708,3.16,0.227C26.909,110.58,26.807,111.993,25.875,112.802zM26.1,32.063c-0.812,0.932,-2.223,1.036,-3.158,0.227c-0.937,-0.813,-1.035,-2.225,-0.229,-3.156c0.813,-0.935,2.223,-1.037,3.16,-0.228C26.808,29.716,26.909,31.131,26.1,32.063zM36.417,17.26c1.041,-0.668,2.425,-0.365,3.095,0.675c0.67,1.041,0.366,2.426,-0.674,3.096c-1.038,0.667,-2.424,0.365,-3.093,-0.674C35.076,19.315,35.38,17.931,36.417,17.26zM39.524,123.771c-0.668,1.038,-2.053,1.34,-3.093,0.68c-1.038,-0.674,-1.343,-2.055,-0.676,-3.103c0.669,-1.036,2.056,-1.337,3.098,-0.67C39.889,121.344,40.192,122.734,39.524,123.771zM55.69,130.457c-0.35,1.186,-1.593,1.865,-2.776,1.521c-1.186,-0.354,-1.865,-1.595,-1.518,-2.783c0.349,-1.187,1.595,-1.863,2.777,-1.513C55.358,128.028,56.038,129.272,55.69,130.457zM54.194,14.096c-1.187,0.349,-2.431,-0.328,-2.775,-1.518c-0.351,-1.186,0.328,-2.428,1.517,-2.778c1.185,-0.349,2.43,0.331,2.774,1.517C56.06,12.509,55.381,13.75,54.194,14.096zM70.866,134.567c-1.235,-0.003,-2.237,-1.006,-2.239,-2.24c0,-1.236,1.004,-2.24,2.242,-2.24c1.233,0,2.234,1.004,2.234,2.24C73.105,133.561,72.102,134.564,70.866,134.567zM70.865,11.618c-1.235,0,-2.237,-1.001,-2.237,-2.237c0,-1.235,1.002,-2.237,2.237,-2.237c1.238,0,2.239,1.002,2.239,2.237C73.104,10.617,72.102,11.618,70.865,11.618zM86.04,11.253c0.35,-1.188,1.594,-1.868,2.778,-1.521c1.183,0.351,1.864,1.593,1.516,2.781c-0.347,1.188,-1.591,1.866,-2.775,1.516C86.373,13.681,85.692,12.44,86.04,11.253zM88.82,131.977c-1.188,0.345,-2.431,-0.336,-2.78,-1.521c-0.348,-1.185,0.336,-2.429,1.521,-2.776c1.184,-0.35,2.429,0.328,2.772,1.519C90.685,130.384,90.005,131.625,88.82,131.977zM99.698,72.909c0,-1.012,0.818,-1.831,1.833,-1.831c1.011,0,1.829,0.819,1.829,1.831c0,1.011,-0.818,1.832,-1.829,1.832C100.516,74.741,99.698,73.92,99.698,72.909zM105.281,124.424c-1.043,0.663,-2.427,0.364,-3.098,-0.674c-0.666,-1.037,-0.362,-2.428,0.677,-3.095c1.036,-0.665,2.421,-0.364,3.088,0.672C106.621,122.369,106.316,123.756,105.281,124.424zM108.139,74.741c-1.014,0,-1.832,-0.821,-1.832,-1.834c0,-1.01,0.818,-1.831,1.832,-1.831c1.013,0,1.834,0.821,1.834,1.831C109.973,73.92,109.152,74.741,108.139,74.741zM108.139,68.532c-1.013,0,-1.831,-0.82,-1.831,-1.832s0.818,-1.833,1.831,-1.833s1.834,0.821,1.834,1.833S109.152,68.532,108.139,68.532zM108.139,62.324c-1.013,0,-1.831,-0.82,-1.831,-1.832s0.818,-1.831,1.831,-1.831s1.834,0.819,1.834,1.831S109.152,62.324,108.139,62.324zM115.854,28.906c0.935,-0.813,2.352,-0.707,3.163,0.224c0.804,0.933,0.705,2.347,-0.229,3.159c-0.937,0.812,-2.351,0.705,-3.158,-0.229C114.821,31.132,114.925,29.716,115.854,28.906zM119.017,112.577c-0.813,0.93,-2.223,1.033,-3.161,0.225c-0.933,-0.809,-1.034,-2.225,-0.223,-3.155c0.805,-0.935,2.219,-1.034,3.154,-0.227C119.723,110.226,119.824,111.641,119.017,112.577zM131.391,59.891c1.224,-0.177,2.36,0.675,2.539,1.896c0.173,1.222,-0.676,2.358,-1.898,2.536c-1.225,0.177,-2.359,-0.676,-2.533,-1.898C129.318,61.205,130.172,60.068,131.391,59.891zM125.815,43.309c1.125,-0.516,2.454,-0.019,2.971,1.104c0.509,1.12,0.021,2.45,-1.106,2.967c-1.131,0.514,-2.455,0.018,-2.969,-1.108C124.198,45.154,124.694,43.824,125.815,43.309zM128.823,97.313c-0.52,1.121,-1.843,1.619,-2.971,1.104c-1.124,-0.515,-1.62,-1.841,-1.107,-2.965c0.513,-1.121,1.838,-1.619,2.966,-1.104C128.84,94.861,129.329,96.191,128.823,97.313zM133.93,79.921c-0.179,1.219,-1.312,2.065,-2.536,1.895c-1.224,-0.179,-2.076,-1.313,-1.896,-2.535c0.174,-1.219,1.31,-2.068,2.531,-1.896C133.254,77.559,134.102,78.696,133.93,79.921z" fill="#B0938F"/>
 <g >
  <path  d="M70.911,2.287c-3.937,0,-7.132,3.193,-7.132,7.131c0.001,0.545,7.087,61.439,7.087,61.439s7.176,-60.889,7.176,-61.44C78.042,5.481,74.848,2.287,70.911,2.287zM70.865,11.618c-1.235,0,-2.237,-1.001,-2.237,-2.237c0,-1.235,1.002,-2.237,2.237,-2.237c1.238,0,2.239,1.002,2.239,2.237C73.104,10.617,72.102,11.618,70.865,11.618z" fill="#E8E8E8"/>
  <path  d="M51.592,5.052c-3.777,1.109,-5.941,5.073,-4.833,8.853c0.154,0.521,24.107,56.954,24.107,56.954S60.597,10.414,60.442,9.885C59.333,6.107,55.369,3.943,51.592,5.052zM54.195,14.096c-1.186,0.35,-2.431,-0.328,-2.775,-1.518c-0.351,-1.187,0.328,-2.43,1.516,-2.778c1.186,-0.348,2.43,0.331,2.776,1.517C56.06,12.509,55.381,13.748,54.195,14.096z" fill="#E8E8E8"/>
  <path  d="M33.835,13.149c-3.313,2.127,-4.271,6.541,-2.144,9.852c0.294,0.459,39.174,47.857,39.174,47.857s-26.881,-55.104,-27.18,-55.566C41.558,11.979,37.147,11.019,33.835,13.149zM38.838,21.029c-1.038,0.667,-2.424,0.365,-3.093,-0.674c-0.669,-1.04,-0.365,-2.426,0.672,-3.097c1.041,-0.668,2.425,-0.365,3.095,0.675C40.18,18.976,39.878,20.359,38.838,21.029z" fill="#E8E8E8"/>
  <path  d="M19.077,25.92c-2.58,2.977,-2.258,7.48,0.718,10.058c0.413,0.356,51.071,34.881,51.071,34.881S29.55,25.561,29.133,25.199C26.158,22.621,21.655,22.943,19.077,25.92zM26.099,32.063c-0.812,0.932,-2.223,1.036,-3.158,0.227c-0.936,-0.811,-1.036,-2.225,-0.229,-3.156c0.813,-0.935,2.223,-1.037,3.159,-0.228C26.807,29.716,26.909,31.132,26.099,32.063z" fill="#E8E8E8"/>
  <path  d="M8.515,42.33c-1.639,3.582,-0.061,7.813,3.522,9.447c0.495,0.228,58.828,19.081,58.828,19.081S18.463,39.035,17.961,38.805C14.381,37.17,10.149,38.749,8.515,42.33zM17.019,46.263c-0.514,1.127,-1.839,1.619,-2.965,1.106c-1.124,-0.514,-1.62,-1.843,-1.108,-2.965c0.517,-1.125,1.841,-1.619,2.968,-1.107C17.038,43.813,17.532,45.139,17.019,46.263z" fill="#E8E8E8"/>
  <path  d="M3.004,61.052c-0.563,3.898,2.145,7.515,6.041,8.072c0.54,0.079,61.821,1.735,61.821,1.735S11.621,55.089,11.074,55.009C7.177,54.449,3.564,57.154,3.004,61.052zM12.236,62.427c-0.177,1.22,-1.31,2.071,-2.535,1.896c-1.225,-0.176,-2.073,-1.311,-1.899,-2.531c0.18,-1.225,1.313,-2.075,2.538,-1.896C11.563,60.068,12.411,61.203,12.236,62.427z" fill="#E8E8E8"/>
  <path  d="M2.991,80.569c0.558,3.899,4.176,6.603,8.071,6.043c0.539,-0.078,59.804,-15.754,59.804,-15.754s-61.288,1.56,-61.834,1.637C5.135,73.058,2.43,76.674,2.991,80.569zM12.281,79.27c0.175,1.226,-0.672,2.359,-1.897,2.535c-1.225,0.175,-2.357,-0.674,-2.534,-1.892c-0.176,-1.226,0.673,-2.364,1.896,-2.542C10.97,77.199,12.104,78.046,12.281,79.27z" fill="#E8E8E8"/>
  <path  d="M8.477,99.299c1.633,3.582,5.865,5.161,9.445,3.521c0.496,-0.222,52.943,-31.962,52.943,-31.962S12.502,89.623,11.999,89.849C8.418,91.486,6.841,95.716,8.477,99.299zM14.055,94.338c1.125,-0.518,2.45,-0.017,2.966,1.109c0.513,1.119,0.019,2.445,-1.107,2.96c-1.124,0.515,-2.45,0.022,-2.965,-1.102C12.435,96.18,12.93,94.855,14.055,94.338z" fill="#E8E8E8"/>
  <path  d="M19.017,115.72c2.578,2.98,7.083,3.3,10.055,0.721c0.415,-0.354,41.794,-45.583,41.794,-45.583s-50.714,34.445,-51.131,34.809C16.76,108.243,16.439,112.748,19.017,115.72zM22.943,109.42c0.935,-0.809,2.348,-0.708,3.16,0.227c0.808,0.935,0.705,2.348,-0.229,3.155c-0.936,0.813,-2.349,0.712,-3.158,-0.219C21.908,111.641,22.007,110.229,22.943,109.42z" fill="#E8E8E8"/>
  <path  d="M33.76,128.51c3.313,2.135,7.726,1.171,9.85,-2.141c0.297,-0.459,27.257,-55.513,27.257,-55.513s-38.955,47.339,-39.253,47.803C29.486,121.975,30.446,126.385,33.76,128.51zM35.757,121.348c0.669,-1.036,2.056,-1.338,3.098,-0.67c1.036,0.664,1.339,2.056,0.671,3.096c-0.668,1.035,-2.053,1.337,-3.093,0.677C35.393,123.777,35.09,122.396,35.757,121.348z" fill="#E8E8E8"/>
  <path  d="M51.505,136.632c3.78,1.11,7.741,-1.055,8.848,-4.83c0.157,-0.523,10.514,-60.942,10.514,-60.942s-24.04,56.396,-24.196,56.923C45.563,131.561,47.727,135.524,51.505,136.632zM51.396,129.194c0.349,-1.187,1.595,-1.863,2.777,-1.513c1.185,0.347,1.863,1.591,1.517,2.774c-0.35,1.186,-1.593,1.865,-2.776,1.521C51.728,131.625,51.049,130.384,51.396,129.194z" fill="#E8E8E8"/>
  <path  d="M70.822,139.419c3.938,0.004,7.132,-3.19,7.128,-7.126c0.002,-0.544,-7.084,-61.435,-7.084,-61.435s-7.176,60.885,-7.178,61.435C63.69,136.231,66.884,139.423,70.822,139.419zM70.869,130.087c1.233,0,2.234,1.004,2.234,2.24c0.002,1.234,-1.001,2.237,-2.237,2.24c-1.235,-0.003,-2.237,-1.006,-2.239,-2.24C68.628,131.091,69.633,130.087,70.869,130.087z" fill="#E8E8E8"/>
  <path  d="M90.14,136.656c3.777,-1.106,5.941,-5.071,4.831,-8.848c-0.151,-0.523,-24.105,-56.95,-24.105,-56.95s10.268,60.439,10.422,60.966C82.398,135.604,86.364,137.767,90.14,136.656zM87.558,127.679c1.185,-0.35,2.429,0.328,2.774,1.519c0.352,1.186,-0.329,2.427,-1.514,2.779c-1.188,0.345,-2.432,-0.333,-2.782,-1.521C85.692,129.272,86.376,128.028,87.558,127.679z" fill="#E8E8E8"/>
  <path  d="M107.898,128.56c3.313,-2.127,4.271,-6.54,2.142,-9.85c-0.292,-0.462,-39.174,-47.854,-39.174,-47.854s26.88,55.097,27.177,55.563C100.174,129.73,104.588,130.69,107.898,128.56zM102.861,120.657c1.035,-0.667,2.421,-0.366,3.089,0.67c0.672,1.042,0.366,2.429,-0.668,3.1c-1.041,0.66,-2.427,0.361,-3.098,-0.674C101.518,122.713,101.821,121.322,102.861,120.657z" fill="#E8E8E8"/>
  <path  d="M122.656,115.791c2.579,-2.977,2.256,-7.479,-0.721,-10.054c-0.409,-0.359,-51.069,-34.879,-51.069,-34.879s41.314,45.293,41.73,45.656C115.576,119.09,120.076,118.764,122.656,115.791zM115.635,109.645c0.805,-0.935,2.219,-1.034,3.154,-0.227s1.035,2.223,0.229,3.157c-0.813,0.93,-2.223,1.033,-3.161,0.225C114.925,111.993,114.822,110.577,115.635,109.645z" fill="#E8E8E8"/>
  <path  d="M133.218,99.38c1.638,-3.582,0.058,-7.813,-3.522,-9.443c-0.494,-0.23,-58.828,-19.077,-58.828,-19.077s52.401,31.817,52.904,32.046C127.352,104.538,131.583,102.961,133.218,99.38zM124.745,95.456c0.513,-1.121,1.838,-1.619,2.966,-1.106c1.129,0.513,1.618,1.846,1.112,2.965c-0.52,1.121,-1.843,1.622,-2.971,1.106C124.728,97.903,124.232,96.577,124.745,95.456z" fill="#E8E8E8"/>
  <path  d="M132.686,72.589c-0.224,-0.032,-10.725,-0.332,-23.008,-0.672c0.185,0.286,0.295,0.625,0.295,0.99c0,1.013,-0.821,1.834,-1.834,1.834c-1.014,0,-1.832,-0.821,-1.832,-1.834c0,-0.402,0.134,-0.771,0.354,-1.073c-1.239,-0.034,-2.488,-0.068,-3.741,-0.104c0.271,0.318,0.439,0.728,0.439,1.179c0,1.011,-0.818,1.832,-1.829,1.832c-1.015,0,-1.833,-0.821,-1.833,-1.832c0,-0.486,0.192,-0.926,0.502,-1.253c-14.913,-0.409,-29.334,-0.798,-29.334,-0.798s59.245,15.767,59.791,15.845c3.896,0.56,7.511,-2.148,8.071,-6.044C139.289,76.76,136.582,73.146,132.686,72.589zM133.93,79.921c-0.179,1.219,-1.312,2.065,-2.536,1.895c-1.224,-0.179,-2.076,-1.313,-1.896,-2.535c0.174,-1.219,1.31,-2.068,2.531,-1.896C133.254,77.559,134.102,78.696,133.93,79.921z" fill="#E8E8E8"/>
  <path  d="M138.739,61.142c-0.558,-3.896,-4.175,-6.605,-8.068,-6.041c-0.212,0.028,-9.504,2.472,-20.7,5.425c-0.019,0.996,-0.829,1.798,-1.83,1.798c-0.67,0,-1.25,-0.364,-1.569,-0.901c-16.611,4.384,-35.704,9.437,-35.704,9.437s61.288,-1.565,61.834,-1.641C136.596,68.654,139.3,65.038,138.739,61.142zM101.531,68.532c-1.015,0,-1.833,-0.82,-1.833,-1.832s0.818,-1.833,1.833,-1.833c1.011,0,1.829,0.821,1.829,1.833S102.542,68.532,101.531,68.532zM108.139,68.532c-1.013,0,-1.831,-0.82,-1.831,-1.832s0.818,-1.833,1.831,-1.833s1.834,0.821,1.834,1.833S109.152,68.532,108.139,68.532zM132.032,64.323c-1.226,0.177,-2.359,-0.676,-2.533,-1.898c-0.181,-1.22,0.673,-2.355,1.894,-2.532c1.224,-0.177,2.36,0.675,2.539,1.896C134.103,63.009,133.256,64.145,132.032,64.323z" fill="#E8E8E8"/>
  <path  d="M133.253,42.411c-1.633,-3.58,-5.864,-5.159,-9.443,-3.519c-0.496,0.222,-52.942,31.966,-52.942,31.966s14.513,-4.667,29.127,-9.374c-0.185,-0.286,-0.295,-0.626,-0.295,-0.992c0,-1.012,0.818,-1.831,1.833,-1.831c0.98,0,1.772,0.772,1.82,1.741c1.143,-0.368,2.279,-0.735,3.402,-1.097c0.336,-0.393,0.828,-0.646,1.386,-0.646c0.149,0,0.295,0.023,0.436,0.058c11.375,-3.667,20.956,-6.764,21.158,-6.855C133.311,50.224,134.889,45.992,133.253,42.411zM127.678,47.382c-1.131,0.514,-2.455,0.018,-2.969,-1.108c-0.513,-1.118,-0.017,-2.448,1.104,-2.963c1.125,-0.516,2.454,-0.019,2.971,1.104C129.295,45.535,128.805,46.867,127.678,47.382z" fill="#E8E8E8"/>
  <path  d="M122.714,25.988c-2.577,-2.976,-7.082,-3.297,-10.054,-0.717c-0.414,0.354,-41.794,45.588,-41.794,45.588s50.714,-34.451,51.133,-34.813C124.971,33.469,125.292,28.961,122.714,25.988zM118.789,32.29c-0.936,0.813,-2.351,0.705,-3.157,-0.229c-0.811,-0.93,-0.707,-2.346,0.224,-3.154c0.935,-0.813,2.352,-0.707,3.163,0.224C119.822,30.062,119.723,31.475,118.789,32.29z" fill="#E8E8E8"/>
  <path  d="M107.971,13.197c-3.312,-2.127,-7.725,-1.168,-9.849,2.146c-0.297,0.455,-27.258,55.516,-27.258,55.516s38.954,-47.343,39.255,-47.807C112.246,19.739,111.284,15.325,107.971,13.197zM105.97,20.353c-0.667,1.043,-2.053,1.343,-3.092,0.673c-1.039,-0.666,-1.34,-2.049,-0.674,-3.091c0.668,-1.042,2.055,-1.343,3.095,-0.678C106.336,17.927,106.64,19.313,105.97,20.353z" fill="#E8E8E8"/>
  <path  d="M90.224,5.079c-3.776,-1.109,-7.742,1.055,-8.846,4.834c-0.156,0.521,-10.514,60.945,-10.514,60.945s24.04,-56.4,24.196,-56.931C96.169,10.152,94.002,6.187,90.224,5.079zM90.334,12.51c-0.347,1.188,-1.591,1.867,-2.775,1.517c-1.186,-0.346,-1.865,-1.589,-1.519,-2.774c0.35,-1.188,1.594,-1.868,2.778,-1.521C90.001,10.081,90.682,11.323,90.334,12.51z" fill="#E8E8E8"/>
 </g>
 <path  d="M118.781,70.901c2.917,-1.197,4.768,-4.249,4.298,-7.51c-0.467,-3.257,-3.098,-5.66,-6.228,-5.991c2.463,-1.968,3.377,-5.42,2.011,-8.415c-1.365,-2.995,-4.566,-4.562,-7.662,-3.998c1.807,-2.584,1.712,-6.153,-0.446,-8.64c-2.152,-2.488,-5.665,-3.088,-8.478,-1.674c1.008,-2.987,-0.086,-6.388,-2.858,-8.168c-2.769,-1.777,-6.306,-1.364,-8.604,0.782c0.123,-3.152,-1.884,-6.103,-5.045,-7.03c-3.156,-0.928,-6.438,0.468,-8.039,3.176c-0.77,-3.058,-3.525,-5.323,-6.821,-5.323c-3.291,0,-6.045,2.259,-6.817,5.309c-1.599,-2.716,-4.883,-4.112,-8.044,-3.184c-3.157,0.927,-5.163,3.871,-5.046,7.015c-2.298,-2.156,-5.844,-2.57,-8.613,-0.79c-2.769,1.778,-3.864,5.169,-2.866,8.151c-2.814,-1.419,-6.332,-0.818,-8.487,1.669c-2.155,2.486,-2.252,6.05,-0.453,8.63c-3.1,-0.569,-6.307,0.997,-7.674,3.994c-1.369,2.993,-0.457,6.438,1.997,8.407c-3.135,0.327,-5.771,2.733,-6.238,5.994c-0.469,3.256,1.375,6.303,4.284,7.504c-2.916,1.192,-4.766,4.245,-4.295,7.506c0.467,3.258,3.097,5.664,6.225,5.995c-2.46,1.969,-3.376,5.417,-2.006,8.413c1.365,2.993,4.565,4.561,7.662,3.995c-1.808,2.581,-1.714,6.151,0.444,8.642c2.152,2.488,5.665,3.09,8.476,1.677c-1.006,2.984,0.089,6.384,2.861,8.164c2.769,1.777,6.306,1.368,8.605,-0.779c-0.125,3.147,1.885,6.104,5.043,7.026c3.158,0.93,6.438,-0.463,8.039,-3.173c0.769,3.056,3.527,5.322,6.819,5.322c3.291,0,6.044,-2.262,6.819,-5.312c1.598,2.72,4.882,4.116,8.043,3.186c3.156,-0.927,5.162,-3.871,5.046,-7.016c2.296,2.155,5.843,2.572,8.615,0.79c2.77,-1.777,3.861,-5.169,2.863,-8.15c2.815,1.419,6.332,0.818,8.489,-1.672c2.155,-2.482,2.25,-6.047,0.452,-8.629c3.1,0.572,6.309,-0.994,7.675,-3.991c1.369,-2.993,0.455,-6.438,-1.998,-8.41c3.136,-0.322,5.774,-2.729,6.242,-5.991C123.538,75.148,121.692,72.101,118.781,70.901zM101.531,74.741c-1.015,0,-1.833,-0.821,-1.833,-1.832c0,-1.012,0.818,-1.831,1.833,-1.831c1.011,0,1.829,0.819,1.829,1.831C103.36,73.92,102.542,74.741,101.531,74.741zM101.531,68.532c-1.015,0,-1.833,-0.82,-1.833,-1.832s0.818,-1.833,1.833,-1.833c1.011,0,1.829,0.821,1.829,1.833S102.542,68.532,101.531,68.532zM101.531,62.324c-1.015,0,-1.833,-0.82,-1.833,-1.832s0.818,-1.831,1.833,-1.831c1.011,0,1.829,0.819,1.829,1.831S102.542,62.324,101.531,62.324zM108.139,74.741c-1.014,0,-1.832,-0.821,-1.832,-1.834c0,-1.01,0.818,-1.831,1.832,-1.831c1.013,0,1.834,0.821,1.834,1.831C109.973,73.92,109.152,74.741,108.139,74.741zM108.139,68.532c-1.013,0,-1.831,-0.82,-1.831,-1.832s0.818,-1.833,1.831,-1.833s1.834,0.821,1.834,1.833S109.152,68.532,108.139,68.532zM108.139,62.324c-1.013,0,-1.831,-0.82,-1.831,-1.832s0.818,-1.831,1.831,-1.831s1.834,0.819,1.834,1.831S109.152,62.324,108.139,62.324z" fill="#672E58"/>
 <rect  y="58.661" width="21.016" fill="#1A1A1A" x="60.358" height="21.016"/>
 <g transform="matrix(1, 0, 0, 1, 43.9246, 32.7)">
  <text  fill="#DDDDDD" font-size="4.7996" font-family="'OCRA'">2</text>
 </g>
 <g transform="matrix(1, 0, 0, 1, 33.5339, 41.4617)">
  <text  fill="#DDDDDD" font-size="4.7996" font-family="'OCRA'">3</text>
 </g>
 <g transform="matrix(1, 0, 0, 1, 26.2371, 52.5623)">
  <text  fill="#DDDDDD" font-size="4.7996" font-family="'OCRA'">4</text>
 </g>
 <g transform="matrix(1, 0, 0, 1, 22.6902, 65.6687)">
  <text  fill="#DDDDDD" font-size="4.7996" font-family="'OCRA'">-</text>
 </g>
 <g transform="matrix(1, 0, 0, 1, 22.6902, 79.6042)">
  <text  fill="#DDDDDD" font-size="4.7996" font-family="'OCRA'">+</text>
 </g>
 <g transform="matrix(1, 0, 0, 1, 26.2371, 92.0427)">
  <text  fill="#DDDDDD" font-size="4.7996" font-family="'OCRA'">5</text>
 </g>
 <g transform="matrix(1, 0, 0, 1, 33.5339, 103.471)">
  <text  fill="#DDDDDD" font-size="4.7996" font-family="'OCRA'">6</text>
 </g>
 <g transform="matrix(1, 0, 0, 1, 43.9246, 111.941)">
  <text  fill="#DDDDDD" font-size="4.7996" font-family="'OCRA'">7</text>
 </g>
 <g transform="matrix(1, 0, 0, 1, 55.5945, 117.639)">
  <text  fill="#DDDDDD" font-size="4.7996" font-family="'OCRA'">8</text>
 </g>
 <g transform="matrix(1, 0, 0, 1, 69.1833, 120.417)">
  <text  fill="#DDDDDD" font-size="4.7996" font-family="'OCRA'">9</text>
 </g>
 <g transform="matrix(1, 0, 0, 1, 81.2205, 118.251)">
  <text  fill="#DDDDDD" font-size="4.7996" font-family="'OCRA'">10</text>
 </g>
 <g transform="matrix(1, 0, 0, 1, 93.3152, 112.701)">
  <text  fill="#DDDDDD" font-size="4.7996" font-family="'OCRA'">11</text>
 </g>
 <g transform="matrix(1, 0, 0, 1, 103.575, 103.469)">
  <text  fill="#DDDDDD" font-size="4.7996" font-family="'OCRA'">12</text>
 </g>
 <g transform="matrix(1, 0, 0, 1, 110.723, 93.1882)">
  <text  fill="#DDDDDD" font-size="4.7996" font-family="'OCRA'">13</text>
 </g>
 <g transform="matrix(1, 0, 0, 1, 113.858, 79.3474)">
  <text  fill="#DDDDDD" font-size="4.7996" font-family="'OCRA'">a0</text>
 </g>
 <g transform="matrix(1, 0, 0, 1, 113.858, 64.7615)">
  <text  fill="#DDDDDD" font-size="4.7996" font-family="'OCRA'">a1</text>
 </g>
 <g transform="matrix(1, 0, 0, 1, 110.723, 51.908)">
  <text  fill="#DDDDDD" font-size="4.7996" font-family="'OCRA'">a2</text>
 </g>
 <g transform="matrix(1, 0, 0, 1, 103.467, 40.0271)">
  <text  fill="#DDDDDD" font-size="4.7996" font-family="'OCRA'">a3</text>
 </g>
 <g transform="matrix(1, 0, 0, 1, 92.8132, 31.6609)">
  <text  fill="#DDDDDD" font-size="4.7996" font-family="'OCRA'">a4</text>
 </g>
 <g transform="matrix(1, 0, 0, 1, 80.7273, 25.9587)">
  <text  fill="#DDDDDD" font-size="4.7996" font-family="'OCRA'">a5</text>
 </g>
 <g >
  <g >
   <path  d="M47.773,98.087c0.186,-0.22,0.052,-0.485,0.091,-0.727c0.125,-0.753,0.898,-1.5,1.678,-1.631c0.333,-0.059,0.951,-0.021,1.179,0.137c0.423,0.291,0.475,1.108,0.227,1.63c-0.407,0.856,-1.429,1.214,-2.721,1.134c-0.1,0.873,0.021,1.52,-0.227,2.178c-0.133,0.354,-0.441,0.627,-0.454,0.905c-0.031,0.79,0.97,1.105,1.77,0.952c0.515,-0.098,1.19,-0.62,1.314,-0.997c0.151,-0.461,-0.146,-0.955,0.181,-1.357c0.38,0.211,0.103,0.835,0.181,1.312c0.085,0.517,0.501,1.03,0.997,1.044c0.497,0.017,1.06,-0.525,1.179,-1.044c0.151,-0.656,0,-1.675,0,-2.583c0,-0.459,0,-0.915,0,-1.358c0,-0.428,-0.068,-0.888,0.092,-1.226c0.384,0.101,0.227,0.662,0.227,0.998c0,1.117,0.04,2.567,0.045,3.628c0.002,0.313,-0.043,0.617,0.092,0.906c0.451,0.975,2.018,0.788,2.221,-0.273c0.059,-0.297,0,-0.705,0,-1.043c0,-0.262,-0.104,-0.639,0.137,-0.858c0.313,0.144,0.181,0.592,0.181,0.858c0,0.375,-0.021,0.832,0.045,1.092c0.109,0.409,0.485,0.84,0.953,0.903c0.632,0.09,1.24,-0.366,1.36,-0.952c0.063,-0.297,0,-0.692,0,-1.043c0,-0.258,-0.104,-0.641,0.138,-0.858c0.315,0.172,0.18,0.643,0.18,0.951c0,1.011,0.112,2.347,0,3.354c-0.03,0.282,-0.259,0.618,-0.226,0.858c0.022,0.185,0.262,0.346,0.408,0.546c0.27,0.373,0.441,0.818,0.543,1.315c0.038,0.185,0.213,0.483,-0.045,0.68c-0.226,-0.07,-0.221,-0.359,-0.271,-0.543c-0.15,-0.56,-0.338,-1.203,-0.816,-1.496c-0.289,0.125,-0.381,0.469,-0.636,0.724c-0.457,0.458,-1.308,0.956,-2.04,1.044c-0.603,0.072,-1.361,0.004,-1.724,-0.271c-0.353,-0.271,-0.667,-0.811,-0.587,-1.452c0.063,-0.544,0.541,-1.199,1.041,-1.404c0.417,-0.17,1.146,-0.152,1.633,-0.139c0.859,0.024,1.602,0.4,2.131,0.728c0.343,-0.405,0.312,-1.405,0.229,-2.086c-0.3,0.031,-0.502,0.309,-0.816,0.362c-0.723,0.124,-1.313,-0.276,-1.633,-0.68c-0.274,0.149,-0.392,0.453,-0.726,0.588c-0.782,0.315,-1.597,-0.103,-1.95,-0.634c-0.454,0.235,-0.784,0.755,-1.405,0.726c-0.539,-0.025,-0.826,-0.429,-1.134,-0.817c-0.371,0.104,-0.503,0.498,-0.906,0.682c-0.723,0.332,-1.733,0.31,-2.267,-0.182c-0.176,-0.16,-0.188,-0.411,-0.409,-0.544c-0.751,0.326,-1.459,1.063,-2.766,0.861c-0.625,-0.096,-1.058,-0.842,-1.044,-1.451c0.021,-0.813,0.746,-1.549,1.68,-1.585c0.495,-0.021,1.164,0.077,1.587,0.406c0.304,0.235,0.302,0.553,0.725,0.816c0.403,-0.597,0.481,-1.515,0.454,-2.54c-0.276,-0.283,-0.68,-0.313,-0.997,-0.497c-0.986,-0.57,-1.771,-1.632,-1.813,-3.22c0.034,-0.039,0.124,-0.027,0.135,-0.09c0.038,0.023,0.073,0.047,0.137,0.045C45.515,96.565,46.253,97.716,47.773,98.087zM50.766,96.544c-0.137,-0.587,-1.106,-0.581,-1.679,-0.318c-0.613,0.281,-1.047,1.144,-0.861,1.998C49.505,98.608,51.021,97.643,50.766,96.544zM44.372,100.445c-0.808,0.421,-0.85,2.025,0.228,2.22c0.475,0.084,1.05,-0.08,1.405,-0.226c0.458,-0.188,0.873,-0.547,1.088,-0.908C46.775,100.534,45.374,99.921,44.372,100.445zM56.026,104.297c-1.289,-0.034,-2.348,0.391,-2.221,1.633c0.077,0.762,0.814,1.111,1.769,0.997c1.163,-0.141,2.183,-0.882,2.54,-1.812C57.632,104.723,56.947,104.322,56.026,104.297z" fill="#FFFFFF"/>
   <path  d="M61.24,98.993c0.073,-0.299,0.434,-0.171,0.59,-0.183c0.413,-0.023,0.729,0,0.997,-0.182c0.836,-0.563,0.562,-2.147,-0.317,-2.491c-0.941,-0.371,-1.964,0.239,-2.086,1.043c-0.109,0.724,0,1.892,0,2.945c0,0.753,0.035,1.468,0,2.222c-0.01,0.21,0.081,0.491,-0.135,0.59c-0.287,-0.052,-0.175,-0.417,-0.182,-0.59c-0.034,-0.716,0,-1.46,0,-2.267c0,-1.025,-0.153,-2.209,0,-3.039c0.174,-0.955,1.354,-1.681,2.537,-1.224c1.294,0.5,1.421,3.04,-0.182,3.312c-0.171,0.027,-0.448,0.013,-0.679,0C61.616,99.121,61.327,99.207,61.24,98.993z" fill="#FFFFFF"/>
   <path  d="M78.379,99.263c0.318,0.132,0.284,0.5,0.455,0.729c0.378,0.498,0.954,0.544,1.813,0.585c0.184,0.782,-0.26,2.006,0.542,2.088c1.053,0.107,0.406,-1.228,0.817,-1.995c0.412,-0.765,1.298,-0.896,2.133,-0.316c0.164,-0.555,0.092,-1.32,0.092,-2.04c0,-0.369,0,-0.739,0,-1.088c0,-0.302,-0.102,-0.708,0.136,-0.907c0.311,0.156,0.181,0.673,0.181,1.043c0,1.099,-0.05,2.507,0,3.628c0.025,0.631,-0.126,1.542,0.317,1.677c0.247,0.074,0.5,-0.049,0.68,-0.18c0.069,-0.307,0.044,-0.723,0.044,-1.134c0,-0.392,-0.096,-0.851,0.139,-1.044c0.31,0.126,0.18,0.53,0.18,0.771c0.006,0.739,-0.041,1.438,0.59,1.587c1.159,0.276,1.194,-0.728,1.225,-1.722c0.006,-0.189,-0.091,-0.506,0.138,-0.636c0.31,0.134,0.181,0.592,0.181,0.859c0,0.709,-0.004,1.489,0.68,1.497c0.595,0.006,0.59,-0.579,0.59,-1.269c0,-0.398,-0.101,-0.866,0.139,-1.089c0.298,0.087,0.175,0.443,0.18,0.636c0.024,0.823,0.019,1.846,0.997,1.722c0.966,-0.121,0.304,-1.793,0.635,-2.63c0.275,-0.063,0.158,0.264,0.317,0.317c0.941,-0.26,1.75,-0.065,1.904,0.543c0.122,0.484,-0.161,1.15,0.044,1.542c0.113,0.21,0.49,0.298,0.727,0.181c0.347,-0.171,0.183,-0.644,0.228,-1.087c0.159,-1.62,2.758,-1.744,2.811,0c0.644,0.021,0.605,-0.636,0.771,-1.088c0.5,0.17,0.129,0.99,-0.045,1.176c-0.203,0.222,-0.523,0.264,-0.728,0.365c-0.251,0.743,-0.718,1.274,-1.858,1.134c-0.25,-0.13,-0.45,-0.306,-0.68,-0.455c-0.28,0.206,-0.573,0.396,-1.134,0.319c-0.811,-0.307,-0.196,-1.558,-0.546,-2.132c-0.143,-0.239,-0.614,-0.43,-1.133,-0.229c-0.669,0.261,-0.255,0.892,-0.454,1.68c-0.201,0.801,-1.434,0.869,-1.903,0.271c-0.271,0.041,-0.371,0.354,-0.68,0.409c-0.441,0.074,-0.769,-0.176,-1.043,-0.409c-0.326,0.176,-0.673,0.489,-1.179,0.454c-0.313,-0.021,-0.559,-0.187,-0.772,-0.364c-0.382,0.421,-1.272,0.463,-1.586,-0.045c-0.427,0.482,-1.66,0.667,-2.176,0c-0.351,0.167,-0.565,0.464,-1.18,0.364c-0.723,-0.187,-0.555,-1.262,-0.637,-2.087c-0.71,0.052,-1.265,-0.178,-1.676,-0.543c-0.245,0.632,0.101,1.852,-0.319,2.311c-0.496,0.507,-1.619,0.415,-2.039,-0.178c-0.403,-0.579,-0.106,-1.631,-0.316,-2.452c-0.477,-0.097,-1.163,0.016,-1.539,-0.18c-0.288,0.291,-0.201,0.714,-0.274,1.042c-0.071,0.328,-0.18,0.655,-0.316,0.954c-0.723,1.57,-2,2.774,-3.898,3.266c-0.181,0.043,-0.42,0.121,-0.635,0.135c-0.171,0.008,-0.479,0.087,-0.589,-0.135c0.054,-0.315,0.546,-0.221,0.86,-0.274c2.084,-0.379,3.72,-1.878,4.217,-3.989c0.082,-0.354,0.229,-0.846,0.182,-1.042c-0.066,-0.278,-0.833,-0.683,-1.044,-0.906c-0.256,-0.272,-0.508,-0.664,-0.681,-1.09c-0.076,-0.188,-0.218,-0.491,-0.046,-0.68c0.357,0.019,0.368,0.632,0.544,0.951c0.266,0.48,0.666,0.869,1.136,1.089c0.234,-0.924,-0.027,-2.335,0.136,-3.355c0.034,-0.041,0.082,-0.066,0.136,-0.09c0.666,-0.021,1.08,0.112,1.407,0.408c0.694,0.631,0.619,1.938,0.725,3.399c0.095,1.307,-0.119,2.792,0.727,3.084c0.588,0.202,1.125,-0.1,1.225,-0.589c0.11,-0.549,-0.028,-1.511,0,-2.178C78.253,99.653,78.161,99.362,78.379,99.263zM74.388,96.092c-0.063,0.011,-0.053,0.1,-0.093,0.134c0.028,1.062,-0.058,2.235,0.047,3.222c0.383,0.182,1.039,0.308,1.586,0.182C75.885,98.164,76.116,96.027,74.388,96.092zM84.093,102.347c0.422,-0.607,0.056,-1.768,-0.634,-1.947c-0.847,-0.229,-1.44,0.389,-1.27,1.631C82.375,102.753,83.677,102.943,84.093,102.347zM95.609,100.67c0.096,0.606,0.622,1.002,1.269,0.907C96.945,100.825,96.215,100.453,95.609,100.67zM95.2,100.895c-0.345,0.204,-0.404,0.761,-0.362,1.046c0.152,1.02,1.835,1.26,1.996,0.09C95.961,101.933,95.566,101.396,95.2,100.895z" fill="#FFFFFF"/>
   <path  d="M68.223,96.452c0.157,0.375,0.091,1.027,0.091,1.633c0,1.108,0,2.079,0,3.354c0,0.563,-0.104,1.32,0.316,1.36c0.424,0.041,0.271,-0.5,0.681,-0.498c0.268,0.788,-0.93,1.058,-1.27,0.498c-0.61,0.541,-1.782,0.492,-2.267,-0.093c-0.413,0.418,-1.298,0.37,-1.632,-0.09c-0.642,0.62,-2.076,0.401,-2.449,-0.315c-0.181,-0.35,-0.218,-1.086,-0.045,-1.5c0.146,-0.352,0.664,-0.745,0.996,-0.813c0.98,-0.203,1.369,0.379,1.679,0.951c-0.023,0.884,-0.098,1.722,0.68,1.722c0.191,0,0.509,-0.133,0.591,-0.407c0.111,-0.383,-0.053,-0.778,0,-1.09c0.094,-0.571,0.729,-1.216,1.403,-1.176c0.413,0.02,0.482,0.244,0.906,0.406c0.165,-0.529,0.092,-1.209,0.092,-1.858c0,-0.665,0,-1.327,0,-1.952c0.017,-0.06,0.079,-0.07,0.09,-0.136C68.131,96.452,68.178,96.452,68.223,96.452zM62.057,102.212c0.332,0.566,1.405,0.661,1.769,0.182c0.296,-0.396,0.216,-1.369,0,-1.679c-0.224,-0.313,-0.674,-0.428,-1.043,-0.361C62.046,100.482,61.597,101.431,62.057,102.212zM67.861,102.439c0.384,-0.58,0.127,-1.581,-0.316,-1.905c-0.862,-0.625,-1.924,0.255,-1.633,1.633C66.122,102.931,67.453,103.052,67.861,102.439z" fill="#FFFFFF"/>
   <path  d="M50.993,99.672c-0.06,0.019,-0.07,0.08,-0.136,0.093C50.363,99.672,51.039,99.09,50.993,99.672z" fill="#FFFFFF"/>
   <path  d="M89.624,99.672c-0.061,0.019,-0.069,0.08,-0.137,0.093C88.993,99.672,89.67,99.09,89.624,99.672z" fill="#FFFFFF"/>
  </g>
 </g>
 <g transform="matrix(1, 0, 0, 1, 55.3696, 25.1885)">
  <g >
   <g transform="matrix(1, 0, 0, 1, -0.4543, 0.7722)">
    <text  fill="#DDDDDD" font-size="4.7996" font-family="'OCRA'">1</text>
   </g>
   <g transform="matrix(1, 0, 0, 1, -0.4543, 7.6765)">
    <text  fill="#DDDDDD" font-size="4.7996" font-family="'OCRA'">tx</text>
   </g>
  </g>
 </g>
 <g transform="matrix(1, 0, 0, 1, 69.6533, 23.5156)">
  <g >
   <g transform="matrix(1, 0, 0, 1, -1.0398, 0.8396)">
    <text  fill="#DDDDDD" font-size="4.7996" font-family="'OCRA'">0</text>
   </g>
   <g transform="matrix(1, 0, 0, 1, -1.0398, 7.7459)">
    <text  fill="#DDDDDD" font-size="4.7996" font-family="'OCRA'">rx</text>
   </g>
  </g>
 </g>
 <g >
  <polyline  points="91.583,35.727,50.149,35.727,50.149,41.436,91.583,41.436"/>
  <g >
   <polygon  points="59.403,17.071,59.94,14.821,61.072,14.821,61.607,17.071,61.607,37.101,59.403,37.101" fill="#B8AF82"/>
   <polygon  points="59.94,14.821,59.789,15.452,61.221,15.452,61.072,14.821" fill="#E2D6A1"/>
  </g>
  <g >
   <polygon  points="66.309,17.071,66.844,14.821,67.976,14.821,68.511,17.071,68.511,37.101,66.309,37.101" fill="#B8AF82"/>
   <polygon  points="66.844,14.821,66.693,15.452,68.126,15.452,67.976,14.821" fill="#E2D6A1"/>
  </g>
  <g >
   <polygon  points="73.215,17.071,73.749,14.821,74.883,14.821,75.419,17.071,75.419,37.101,73.215,37.101" fill="#B8AF82"/>
   <polygon  points="73.749,14.821,73.599,15.452,75.031,15.452,74.883,14.821" fill="#E2D6A1"/>
  </g>
  <g >
   <polygon  points="80.118,17.071,80.654,14.821,81.786,14.821,82.321,17.071,82.321,37.101,80.118,37.101" fill="#B8AF82"/>
   <polygon  points="80.654,14.821,80.503,15.452,81.936,15.452,81.786,14.821" fill="#E2D6A1"/>
  </g>
  <g >
   <polygon  points="87.028,17.071,87.565,14.821,88.696,14.821,89.232,17.071,89.232,37.101,87.028,37.101" fill="#B8AF82"/>
   <polygon  points="87.565,14.821,87.412,15.452,88.846,15.452,88.696,14.821" fill="#E2D6A1"/>
  </g>
  <g >
   <g >
    <g >
     <path  d="M82.659,52.353" fill="#373737"/>
    </g>
   </g>
   <polygon  points="59.403,52.353,61.607,52.353,61.607,39.399,59.403,39.399" fill="#B8AF82"/>
   <polygon  points="66.309,52.353,68.511,52.353,68.511,39.399,66.309,39.399" fill="#B8AF82"/>
   <polygon  points="73.215,52.353,75.419,52.353,75.419,39.399,73.215,39.399" fill="#B8AF82"/>
   <polygon  points="80.118,52.353,82.321,52.353,82.321,39.399,80.118,39.399" fill="#B8AF82"/>
   <polygon  points="59.403,52.353,61.607,52.353,61.607,51.931,59.403,51.931" fill="#9A916C"/>
   <polygon  points="66.309,52.353,68.511,52.353,68.511,51.931,66.309,51.931" fill="#9A916C"/>
   <polygon  points="73.215,52.353,75.419,52.353,75.419,51.931,73.215,51.931" fill="#9A916C"/>
   <polygon  points="80.118,52.353,82.321,52.353,82.321,51.931,80.118,51.931" fill="#9A916C"/>
   <polygon  points="59.403,51.915,61.607,51.915,61.607,51.282,59.403,51.282" fill="#E2D6A1"/>
   <polygon  points="66.309,51.915,68.511,51.915,68.511,51.282,66.309,51.282" fill="#E2D6A1"/>
   <polygon  points="73.215,51.915,75.419,51.915,75.419,51.282,73.215,51.282" fill="#E2D6A1"/>
   <polygon  points="80.118,51.915,82.321,51.915,82.321,51.282,80.118,51.282" fill="#E2D6A1"/>
   <polygon  points="87.028,52.353,89.232,52.353,89.232,39.399,87.028,39.399" fill="#B8AF82"/>
   <polygon  points="87.028,52.353,89.232,52.353,89.232,51.931,87.028,51.931" fill="#9A916C"/>
   <polygon  points="87.028,51.915,89.232,51.915,89.232,51.282,87.028,51.282" fill="#E2D6A1"/>
   <g >
    <polygon  points="91.583,41.436,91.583,35.727,57.052,35.727,57.052,41.436"/>
    <g >
     <rect  y="35.727" width="4.941" fill="#404040" x="78.749" height="5.709"/>
     <polygon  points="78.749,35.727,77.768,35.727,77.768,41.436,78.749,41.436" fill="#474747"/>
     <polygon  points="83.691,41.436,84.672,41.436,84.672,35.727,83.691,35.727" fill="#373737"/>
    </g>
    <g >
     <rect  y="35.727" width="4.943" fill="#404040" x="58.033" height="5.709"/>
     <polygon  points="58.033,35.727,57.052,35.727,57.052,41.436,58.033,41.436" fill="#474747"/>
     <polygon  points="62.977,41.436,63.958,41.436,63.958,35.727,62.977,35.727" fill="#373737"/>
    </g>
    <g >
     <polygon  points="52.499,17.071,53.034,14.821,54.166,14.821,54.702,17.071,54.702,37.101,52.499,37.101" fill="#B8AF82"/>
     <polygon  points="53.034,14.821,52.884,15.452,54.317,15.452,54.166,14.821" fill="#E2D6A1"/>
    </g>
    <polygon  points="52.499,52.353,54.702,52.353,54.702,39.399,52.499,39.399" fill="#B8AF82"/>
    <polygon  points="52.499,52.353,54.702,52.353,54.702,51.931,52.499,51.931" fill="#9A916C"/>
    <polygon  points="52.499,51.915,54.702,51.915,54.702,51.282,52.499,51.282" fill="#E2D6A1"/>
    <g >
     <rect  y="35.727" width="4.942" fill="#404040" x="51.129" height="5.709"/>
     <polygon  points="51.129,35.727,50.149,35.727,50.149,41.436,51.129,41.436" fill="#474747"/>
     <polygon  points="56.072,41.436,57.052,41.436,57.052,35.727,56.072,35.727" fill="#373737"/>
    </g>
    <g >
     <rect  y="35.727" width="4.941" fill="#404040" x="64.939" height="5.709"/>
     <polygon  points="64.939,35.727,63.958,35.727,63.958,41.436,64.939,41.436" fill="#474747"/>
     <polygon  points="69.882,41.436,70.863,41.436,70.863,35.727,69.882,35.727" fill="#373737"/>
    </g>
    <g >
     <rect  y="35.727" width="4.942" fill="#404040" x="71.844" height="5.709"/>
     <polygon  points="71.844,35.727,70.863,35.727,70.863,41.436,71.844,41.436" fill="#474747"/>
     <polygon  points="76.787,41.436,77.768,41.436,77.768,35.727,76.787,35.727" fill="#373737"/>
    </g>
    <g >
     <rect  y="35.727" width="4.941" fill="#404040" x="85.659" height="5.709"/>
     <polygon  points="85.659,35.727,84.677,35.727,84.677,41.436,85.659,41.436" fill="#474747"/>
     <polygon  points="90.602,41.436,91.583,41.436,91.583,35.727,90.602,35.727" fill="#373737"/>
    </g>
   </g>
  </g>
 </g>
 <g transform="matrix(1, 0, 0, 1, 23.408, 56.5474)">
  <g  id="tactile_switch_smd_2_">
   <g transform="matrix(0, 1, -1, 0, 15.103, -0.001008)">
    <g >
     <g transform="matrix(1, 0, 0, 1, 17.004, 77.8536)">
      <g  id="tactile_switch_smd">
       <g transform="matrix(-1, 0, 0, -1, 16.392, 16.373)">
        <g >
         <g transform="matrix(1, 0, 0, 1, 17.021, 74.628)">
          <g  id="tactile_switch_smd">
           <g transform="matrix(-1, 0, 0, -1, 16.392, 16.392)">
            <g >
             <polygon  points="5.007,1.699,7.1,3.797,15.913,3.797,18.006,1.699,18.006,-7.111,15.913,-9.203,7.1,-9.203,5.007,-7.111" fill="#6D6D6D"/>
             <g transform="matrix(2.57889e-06, 1, -1, 2.57889e-06, 8.8033, -14.2087)">
              <rect  y="-7.109" width="15.103" fill="#6D6D6D" x="3.955" height="8.813"/>
             </g>
             <g transform="matrix(2.57889e-06, 1, -1, 2.57889e-06, 8.8004, -14.2107)">
              <rect  y="-10.257" width="8.813" fill="#6D6D6D" x="7.099" height="15.104"/>
             </g>
             <polygon  points="5.639,1.272,7.528,3.164,15.483,3.164,17.376,1.272,17.376,-6.683,15.483,-8.572,7.528,-8.572,5.639,-6.683" fill="#7F7F7F"/>
             <polyline  points="7.737,-8.266,5.946,-6.475,5.946,1.065,7.737,2.857,15.274,2.857" stroke-width="0.2183" fill="none" stroke="#FFFFFF" stroke-miterlimit="10" enable-background="new    " opacity="0.2"/>
             <polyline  points="15.276,2.857,17.067,1.066,17.067,-6.474,15.276,-8.266,7.738,-8.266" stroke-width="0.2183" fill="none" stroke="#606060" stroke-miterlimit="10" enable-background="new    " opacity="0.2"/>
             <g >
              <path  d="M11.507,0.731c-1.894,0,-3.435,-1.541,-3.435,-3.438c0,-1.893,1.541,-3.435,3.435,-3.435s3.436,1.541,3.436,3.435C14.937,-0.811,13.398,0.731,11.507,0.731z" fill="#BCA16A"/>
              <path  d="M11.507,-5.906c1.771,0,3.204,1.437,3.204,3.203c0,1.771,-1.437,3.205,-3.204,3.205c-1.77,0,-3.203,-1.436,-3.203,-3.205C8.303,-4.475,9.737,-5.906,11.507,-5.906M11.507,-6.367c-2.021,0,-3.665,1.645,-3.665,3.664c0,2.021,1.644,3.666,3.665,3.666c2.021,0,3.665,-1.646,3.665,-3.666C15.17,-4.726,13.525,-6.367,11.507,-6.367L11.507,-6.367z" fill="#606060"/>
             </g>
             <path  d="M13.527,-0.685c-1.115,1.116,-2.928,1.116,-4.044,0c-1.116,-1.117,-1.116,-2.928,0,-4.044" stroke-width="0.4887" fill="#BCA16A" stroke="#FFFFFF" stroke-miterlimit="10" enable-background="new    " opacity="0.2"/>
             <path  d="M9.483,-4.728c1.116,-1.116,2.929,-1.116,4.045,0s1.116,2.927,0,4.044" stroke-width="0.4887" fill="#BCA16A" stroke="#606060" stroke-miterlimit="10" enable-background="new    " opacity="0.2"/>
            </g>
           </g>
          </g>
         </g>
        </g>
       </g>
      </g>
     </g>
    </g>
   </g>
  </g>
 </g>
</g>
</g></svg>