<svg xmlns="http://www.w3.org/2000/svg" version="1.2" height="204.509" width="454.552" viewBox="0 0 454.552 204.509" id="svg5401">
  <path d="M22.812 204.509A22.723 22.723 0 0 1 .088 181.785v-56.807l4.545-4.545V84.076L.088 79.53V22.723A22.723 22.723 0 0 1 22.812 0h409.017a22.723 22.723 0 0 1 22.723 22.723v159.062a22.723 22.723 0 0 1-22.723 22.724H22.812M36.723 84.808a3.13 3.13 0 1 0 6.262 0 3.13 3.13 0 1 0-6.262 0zm0 34.893a3.13 3.13 0 1 0 6.262 0 3.13 3.13 0 1 0-6.262 0zm383.744-96.978a11.362 11.362 0 1 0 22.723 0 11.362 11.362 0 1 0-22.723 0zm0 159.062a11.362 11.362 0 1 0 22.723 0 11.362 11.362 0 1 0-22.723 0zm-27.195 11.362a4.474 4.474 0 1 0 8.947 0 4.474 4.474 0 1 0-8.947 0zm-22.723 0a4.474 4.474 0 1 0 8.947 0 4.474 4.474 0 1 0-8.947 0zm-22.723 0a4.474 4.474 0 1 0 8.947 0 4.474 4.474 0 1 0-8.947 0zm-22.724 0a4.474 4.474 0 1 0 8.948 0 4.474 4.474 0 1 0-8.948 0zm-22.723 0a4.472 4.472 0 1 0 8.944 0 4.472 4.472 0 1 0-8.944 0zm-22.723 0a4.472 4.472 0 1 0 8.944 0 4.472 4.472 0 1 0-8.944 0zm-22.723 0a4.472 4.472 0 1 0 8.944 0 4.472 4.472 0 1 0-8.944 0zm-22.723 0a4.472 4.472 0 1 0 8.944 0 4.472 4.472 0 1 0-8.944 0zm-22.723 0a4.472 4.472 0 1 0 8.944 0 4.474 4.474 0 1 0-8.948 0zm-22.724 0a4.472 4.472 0 1 0 8.944 0 4.474 4.474 0 1 0-8.947 0zm-22.723 0a4.472 4.472 0 1 0 8.944 0 4.474 4.474 0 1 0-8.947 0zm-22.723 0a4.472 4.472 0 1 0 8.944 0 4.474 4.474 0 1 0-8.947 0zm-22.723 0a4.472 4.472 0 1 0 8.944 0 4.474 4.474 0 1 0-8.947 0zm-22.723 0a4.472 4.472 0 1 0 8.944 0 4.474 4.474 0 1 0-8.948 0zm-22.724 0a4.472 4.472 0 0 0 8.945 0 4.474 4.474 0 1 0-8.948 0zm-22.723 0a4.472 4.472 0 0 0 8.944 0 4.474 4.474 0 1 0-8.947 0zm90.893-181.785a4.472 4.472 0 1 0 8.944 0 4.474 4.474 0 1 0-8.947 0zm22.723 0a4.472 4.472 0 1 0 8.944 0 4.474 4.474 0 1 0-8.947 0zm22.723 0a4.472 4.472 0 1 0 8.944 0 4.474 4.474 0 1 0-8.947 0zm22.724 0a4.472 4.472 0 1 0 8.944 0 4.474 4.474 0 1 0-8.948 0zm22.723 0a4.472 4.472 0 1 0 8.944 0 4.472 4.472 0 1 0-8.944 0zm22.723 0a4.472 4.472 0 1 0 8.944 0 4.472 4.472 0 1 0-8.944 0zm22.723 0a4.472 4.472 0 1 0 8.944 0 4.472 4.472 0 1 0-8.944 0zm22.723 0a4.472 4.472 0 1 0 8.944 0 4.472 4.472 0 1 0-8.944 0zm22.723 0a4.474 4.474 0 1 0 8.948 0 4.474 4.474 0 1 0-8.948 0zm22.724 0a4.474 4.474 0 1 0 8.947 0 4.474 4.474 0 1 0-8.947 0zm22.723 0a4.474 4.474 0 1 0 8.947 0 4.474 4.474 0 1 0-8.947 0zm22.723 0a4.474 4.474 0 1 0 8.947 0 4.474 4.474 0 1 0-8.947 0zM11.627 22.723a11.183 11.183 0 1 0 22.366 0 11.183 11.183 0 1 0-22.366 0zm0 159.062a11.183 11.183 0 1 0 22.366 0 11.183 11.183 0 1 0-22.366 0zM44.326 72.733a3.579 3.579 0 1 0 7.158 0 3.579 3.579 0 1 0-7.158 0zm0 59.043a3.579 3.579 0 1 0 7.158 0 3.579 3.579 0 1 0-7.158 0zM18.829 70.047a4.027 4.027 0 0 0 8.054 0 4.027 4.027 0 1 0-8.054 0zm0 64.414a4.027 4.027 0 0 0 8.054 0 4.027 4.027 0 1 0-8.054 0zm317.187-94.695a4.923 4.923 0 0 0 9.84 0 4.923 4.923 0 1 0-9.84 0zm22.723 0a4.923 4.923 0 0 0 9.84 0 4.923 4.923 0 1 0-9.84 0zm22.723 0a4.923 4.923 0 0 0 9.84 0 4.923 4.923 0 1 0-9.84 0zm22.723 0a4.923 4.923 0 0 0 9.84 0 4.923 4.923 0 1 0-9.84 0zm-68.17 124.977a4.923 4.923 0 0 0 9.841 0 4.923 4.923 0 1 0-9.84 0zm22.724 0a4.923 4.923 0 0 0 9.84 0 4.923 4.923 0 1 0-9.84 0zm22.723 0a4.923 4.923 0 0 0 9.84 0 4.923 4.923 0 1 0-9.84 0zm22.723 0a4.923 4.923 0 0 0 9.84 0 4.923 4.923 0 1 0-9.84 0zM438.27 56.808a4.923 4.923 0 0 0 9.84 0 4.923 4.923 0 1 0-9.84 0zm0 22.723a4.923 4.923 0 0 0 9.84 0 4.923 4.923 0 1 0-9.84 0zm0 22.723a4.923 4.923 0 0 0 9.84 0 4.923 4.923 0 1 0-9.84 0zm0 22.724a4.923 4.923 0 0 0 9.84 0 4.923 4.923 0 1 0-9.84 0zm0 22.723a4.923 4.923 0 0 0 9.84 0 4.923 4.923 0 1 0-9.84 0zm-22.723 0a4.923 4.923 0 0 0 9.84 0 4.923 4.923 0 1 0-9.84 0zm-22.723 0a4.923 4.923 0 1 0 9.84 0 4.923 4.923 0 1 0-9.84 0zm-22.723 0a4.923 4.923 0 0 0 9.84 0 4.923 4.923 0 1 0-9.84 0zm-22.724 0a4.923 4.923 0 0 0 9.84 0 4.923 4.923 0 1 0-9.84 0zm0-90.893a4.923 4.923 0 0 0 9.84 0 4.923 4.923 0 1 0-9.84 0zm22.724 0a4.923 4.923 0 0 0 9.84 0 4.923 4.923 0 1 0-9.84 0zm22.723 0a4.923 4.923 0 1 0 9.84 0 4.923 4.923 0 1 0-9.84 0zm22.723 0a4.923 4.923 0 0 0 9.84 0 4.923 4.923 0 1 0-9.84 0zm0 22.723a4.923 4.923 0 0 0 9.84 0 4.923 4.923 0 1 0-9.84 0zm0 22.723a4.923 4.923 0 0 0 9.84 0 4.923 4.923 0 1 0-9.84 0zm-22.723 0a4.923 4.923 0 1 0 9.84 0 4.923 4.923 0 1 0-9.84 0zm-45.447 0a4.923 4.923 0 0 0 9.84 0 4.923 4.923 0 1 0-9.84 0zm22.724 0a4.923 4.923 0 0 0 9.84 0 4.923 4.923 0 1 0-9.84 0zm0 22.724a4.923 4.923 0 0 0 9.84 0 4.923 4.923 0 1 0-9.84 0zm-22.724 0a4.923 4.923 0 0 0 9.84 0 4.923 4.923 0 1 0-9.84 0zm45.447 0a4.923 4.923 0 1 0 9.84 0 4.923 4.923 0 1 0-9.84 0zm22.723 0a4.923 4.923 0 0 0 9.84 0 4.923 4.923 0 1 0-9.84 0zM392.824 79.53a4.923 4.923 0 1 0 9.84 0 4.923 4.923 0 1 0-9.84 0zm-22.723 0a4.923 4.923 0 0 0 9.84 0 4.923 4.923 0 1 0-9.84 0zm-22.724 0a4.923 4.923 0 0 0 9.84 0 4.923 4.923 0 1 0-9.84 0z" id="path4485" stroke-width="3.156"/>
  <path d="M350.025 39.766h4.545m18.179 0h4.544m18.179 0h4.544m-49.99 124.977h4.544m18.179 0h4.544m18.179 0h4.544" id="path4487" stroke="#fff" stroke-width="9.089" stroke-linecap="round"/>
  <g transform="translate(-3.983 -1.43) scale(3.156)" id="g4491">
    <text font-size="3.341" x="62.85" y="10.31" id="text4489" font-family="OCRA" text-anchor="middle" fill="#fff" stroke-width="0">
      USB
    </text>
  </g>
  <text font-size="10.544" x="58.032" y="182.511" id="text4493" font-family="OCRA" text-anchor="middle" fill="#fff" stroke-width="0">
    RST
  </text>
  <text font-size="10.544" x="102.343" y="182.511" id="text4495" font-family="OCRA" text-anchor="middle" fill="#fff" stroke-width="0">
    ARf
  </text>
  <text font-size="10.544" x="80.756" y="182.511" id="text4497" font-family="OCRA" text-anchor="middle" fill="#fff" stroke-width="0">
    3V
  </text>
  <text font-size="10.544" x="261.405" y="182.511" id="text4499" font-family="OCRA" text-anchor="middle" fill="#fff" stroke-width="0">
    A5
  </text>
  <text font-size="10.544" x="238.682" y="182.511" id="text4501" font-family="OCRA" text-anchor="middle" fill="#fff" stroke-width="0">
    A4
  </text>
  <text font-size="10.544" x="215.959" y="182.511" id="text4503" font-family="OCRA" text-anchor="middle" fill="#fff" stroke-width="0">
    A3
  </text>
  <text font-size="10.544" x="193.235" y="182.511" id="text4505" font-family="OCRA" text-anchor="middle" fill="#fff" stroke-width="0">
    A2
  </text>
  <text font-size="10.544" x="172.785" y="182.511" id="text4507" font-family="OCRA" text-anchor="middle" fill="#fff" stroke-width="0">
    A1
  </text>
  <text font-size="10.544" x="150.061" y="182.511" id="text4509" font-family="OCRA" text-anchor="middle" fill="#fff" stroke-width="0">
    A0
  </text>
  <g transform="translate(-3.983 -1.43) scale(3.156)" id="g4513">
    <text font-size="3.341" x="69.69" y="10.31" id="text4511" font-family="OCRA" text-anchor="middle" fill="#fff" stroke-width="0">
      13
    </text>
  </g>
  <text font-size="10.544" x="351.032" y="32.538" id="text4515" font-family="OCRA" text-anchor="middle" fill="#fff" stroke-width="0">
    5
  </text>
  <text font-size="10.544" x="262.541" y="32.538" id="text4517" font-family="OCRA" text-anchor="middle" fill="#fff" stroke-width="0">
    11
  </text>
  <text font-size="10.544" x="284.125" y="32.538" id="text4519" font-family="OCRA" text-anchor="middle" fill="#fff" stroke-width="0">
    10
  </text>
  <text font-size="10.544" x="306.851" y="32.538" id="text4521" font-family="OCRA" text-anchor="middle" fill="#fff" stroke-width="0">
    9
  </text>
  <text font-size="10.544" x="284.125" y="182.511" id="text4523" font-family="OCRA" text-anchor="middle" fill="#fff" stroke-width="0">
    SCK
  </text>
  <text font-size="9.225" x="306.851" y="181.855" id="text4525" font-family="OCRA" text-anchor="middle" fill="#fff" stroke-width="0">
    MO
  </text>
  <text font-size="9.225" x="330.711" y="181.855" id="text4527" font-family="OCRA" text-anchor="middle" fill="#fff" stroke-width="0">
    MI
  </text>
  <text font-size="10.544" x="376.157" y="31.402" id="text4529" font-family="OCRA" text-anchor="middle" fill="#fff" stroke-width="0">
    SCL
  </text>
  <text font-size="10.544" x="400.016" y="31.402" id="text4531" font-family="OCRA" text-anchor="middle" fill="#fff" stroke-width="0">
    SDA
  </text>
  <text font-size="10.544" x="353.434" y="182.511" id="text4533" font-family="OCRA" text-anchor="middle" fill="#fff" stroke-width="0">
    RX
  </text>
  <text font-size="10.544" x="376.157" y="182.511" id="text4535" font-family="OCRA" text-anchor="middle" fill="#fff" stroke-width="0">
    TX
  </text>
  <text font-size="10.544" x="150.061" y="30.266" id="text4537" font-family="OCRA" text-anchor="middle" fill="#fff" stroke-width="0">
    BAT
  </text>
  <text font-size="10.544" x="238.682" y="32.538" id="text4539" font-family="OCRA" text-anchor="middle" fill="#fff" stroke-width="0">
    12
  </text>
  <text font-size="10.544" x="329.574" y="32.538" id="text4541" font-family="OCRA" text-anchor="middle" fill="#fff" stroke-width="0">
    6
  </text>
  <text font-size="10.544" x="127.338" y="182.511" id="text4543" font-family="OCRA" text-anchor="middle" fill="#fff" stroke-width="0">
    GND
  </text>
  <text font-size="10.544" transform="rotate(-90)" id="text4545" x="-42.038" y="53.078" font-family="OCRA" text-anchor="middle" fill="#fff" stroke-width="0">
    #13
  </text>
  <text font-size="10.544" x="171.648" y="30.266" id="text4547" font-family="OCRA" text-anchor="middle" fill="#fff" stroke-width="0">
    En
  </text>
  <text font-size="10.544" x="400.016" y="183.647" id="text4549" font-family="OCRA" text-anchor="middle" fill="#fff" stroke-width="0">
    GND
  </text>
  <g transform="translate(-14.518 -6.249) scale(3.156)" id="g4553">
    <text font-size="3.341" x="94.53" y="9.95" id="text4551" font-family="OCRA" text-anchor="middle" fill="#fff" stroke-width="0">
      ~
    </text>
  </g>
  <g transform="translate(-10.768 -7.499) scale(3.156)" id="g4557">
    <text font-size="3.341" x="100.65" y="10.31" id="text4555" font-family="OCRA" text-anchor="middle" fill="#fff" stroke-width="0">
      ~
    </text>
  </g>
  <g transform="translate(-4.74 -1.767) scale(3.156)" id="g4561">
    <text font-size="3.341" x="27.93" y="41.99" id="text4559" font-family="OCRA" text-anchor="middle" fill="#fff" stroke-width="0">
      Reset
    </text>
  </g>
  <g transform="translate(-13.981 -6.429) scale(3.156)" id="g4569">
    <text font-size="3.341" x="87.329" y="9.95" id="text4567" font-family="OCRA" text-anchor="middle" fill="#fff" stroke-width="0">
      ~
    </text>
  </g>
  <text font-size="10.544" x="244.359" y="47.308" id="text4575" font-family="OCRA" text-anchor="middle" fill="#fff" stroke-width="0">
    adafruit!
  </text>
  <text font-size="10.544" x="428.42" y="46.172" id="text4577" font-family="OCRA" text-anchor="middle" fill="#fff" stroke-width="0">
    3V
  </text>
  <text font-size="10.544" x="432.965" y="168.877" id="text4579" font-family="OCRA" text-anchor="middle" fill="#fff" stroke-width="0">
    GND
  </text>
  <path d="M23.948 154.518l-4.545 3.408v-6.817l4.545 3.409m-3.636-2.727v5.453-5.453m1.363 1.022v3.409-3.409" id="path4599" fill="none" stroke="#fff" stroke-width="1.363" stroke-linecap="round"/>
  <path d="M21.477 49.211l4.544-3.408v6.817l-4.544-3.409m3.635 2.727v-5.45 5.453M23.75 50.92v-3.41 3.409" id="path4605" fill="none" stroke="#fff" stroke-width="1.363" stroke-linecap="round"/>
  <path d="M285.308 40.223v-2.686m0 0h33.997m0 0v2.686m-33.997 28.625v2.686m0 0h33.997m0 0v-2.686" id="path4607" stroke="#fff" stroke-width="1.136" stroke-linecap="round"/>
  <path d="M285.264 37.493h6.817l-3.408 3.409h-3.409v-3.409m0 3.409h3.409-3.409m0-1.136h4.545-4.545" id="path4609" fill="none" stroke="#fff" stroke-width="1.136" stroke-linecap="round"/>
  <path d="M102.952 159.09H65.376m0 0v-25.052m0 0h37.576m0 0v25.053" id="path4625" stroke="#fff" stroke-width="1.136" stroke-linecap="round"/>
  <path d="M94.005 144.775a5.365 5.365 0 0 0-5.366-5.365" id="path4627" fill="none" stroke="#fff" stroke-width="1.136"/>
  <path d="M94.005 144.775v3.579" id="path4629" stroke="#fff" stroke-width="1.136" stroke-linecap="round"/>
  <path d="M88.636 153.722a5.365 5.365 0 0 0 5.365-5.368" id="path4631" fill="none" stroke="#fff" stroke-width="1.136"/>
  <path d="M88.636 153.722H79.69" id="path4633" stroke="#fff" stroke-width="1.136" stroke-linecap="round"/>
  <path d="M74.324 148.354a5.365 5.365 0 0 0 5.365 5.365" id="path4635" fill="none" stroke="#fff" stroke-width="1.136"/>
  <path d="M74.324 148.354v-3.579" id="path4637" stroke="#fff" stroke-width="1.136" stroke-linecap="round"/>
  <path d="M79.689 139.407a5.365 5.365 0 0 0-5.365 5.368" id="path4639" fill="none" stroke="#fff" stroke-width="1.136"/>
  <path d="M79.689 139.407h8.947" id="path4641" stroke="#fff" stroke-width="1.136" stroke-linecap="round"/>
  <path d="M188.672 85.954h-4.92m0 0v4.92m59.49-4.92h4.924m0 0v4.92m-64.414 54.573v4.92m0 0h4.92m59.494-4.92v4.92m0 0h-4.924" id="path4643" stroke="#fff" stroke-width="1.136" stroke-linecap="round"/>
  <circle cx="181.265" r="1.136" cy="153.337" id="circle4645" fill="none" stroke="#fff" stroke-width="3.636"/>
  <circle cx="22.812" r="17.891" cy="22.723" id="circle4647" fill="none" stroke="#fff" stroke-width="1.818"/>
  <circle cx="22.812" r="17.891" cy="181.785" id="circle4649" fill="none" stroke="#fff" stroke-width="1.818"/>
  <path d="M324.913 112.524v33.996m-42.94 0v-33.996" id="path4651" stroke="#fff" stroke-width="1.818" stroke-linecap="round"/>
  <circle cx="320.712" r="2.272" cy="121.569" id="circle4653" fill="none" stroke="#fff" stroke-width="1.818"/>
  <path d="M76.533 4.974h40.258m15.654 31.31V72.07m0 0h-7.603m0 0V49.704m0 0h-12.526m-31.311 0H68.482m0 0V72.07m0 0h-7.606m0 0V36.285" id="path4659" stroke="#fff" stroke-width="1.818" stroke-linecap="round"/>
  <path d="M49.694 79.888v7.158m0 30.417v7.158M9.436 68.258h-8.05m0 0v67.993m0 0h8.05" id="path4691" stroke="#fff" stroke-width="1.136" stroke-linecap="round"/>
  <circle r="5.987" cx="397.744" cy="193.147" id="GND2" fill="none" stroke="#9a916c" stroke-width="3.027"/>
  <circle r="5.987" cx="375.021" cy="193.147" id="TX" fill="none" stroke="#9a916c" stroke-width="3.027"/>
  <circle r="5.987" cx="352.298" cy="193.147" id="RX" fill="none" stroke="#9a916c" stroke-width="3.027"/>
  <circle r="5.987" cx="329.574" cy="193.147" id="MISO" fill="none" stroke="#9a916c" stroke-width="3.027"/>
  <circle r="5.987" cx="306.851" cy="193.147" id="MOSI" fill="none" stroke="#9a916c" stroke-width="3.027"/>
  <circle r="5.987" cx="284.125" cy="193.147" id="SCK" fill="none" stroke="#9a916c" stroke-width="3.027"/>
  <circle r="5.987" cx="261.405" cy="193.147" id="A5" fill="none" stroke="#9a916c" stroke-width="3.027"/>
  <circle r="5.987" cx="238.682" cy="193.147" id="A4" fill="none" stroke="#9a916c" stroke-width="3.027"/>
  <circle r="5.987" cx="215.959" cy="193.147" id="A3" fill="none" stroke="#9a916c" stroke-width="3.027"/>
  <circle r="5.987" cx="193.235" cy="193.147" id="A2" fill="none" stroke="#9a916c" stroke-width="3.027"/>
  <circle r="5.987" cx="170.512" cy="193.147" id="A1" fill="none" stroke="#9a916c" stroke-width="3.027"/>
  <circle r="5.987" cx="147.789" cy="193.147" id="A0" fill="none" stroke="#9a916c" stroke-width="3.027"/>
  <circle r="5.987" cx="125.066" cy="193.147" id="GND" fill="none" stroke="#9a916c" stroke-width="3.027"/>
  <circle r="5.987" cx="102.343" cy="193.147" id="AREF" fill="none" stroke="#9a916c" stroke-width="3.027"/>
  <circle r="5.987" cx="79.619" cy="193.147" id="3V" fill="none" stroke="#9a916c" stroke-width="3.027"/>
  <circle r="5.987" cx="56.896" cy="193.147" id="RESET" fill="none" stroke="#9a916c" stroke-width="3.027"/>
  <circle r="5.987" cx="147.789" cy="11.362" id="BAT" fill="none" stroke="#9a916c" stroke-width="3.027"/>
  <circle r="5.987" cx="170.512" cy="11.362" id="EN" fill="none" stroke="#9a916c" stroke-width="3.027"/>
  <path d="M172.071 10.822h.032v.031h-.032z" id="path4731" fill="none" stroke-width="3.156"/>
  <circle r="5.987" cx="193.235" cy="11.362" id="USB" fill="none" stroke="#9a916c" stroke-width="3.027"/>
  <circle r="5.987" cx="215.959" cy="11.362" id="D13" fill="none" stroke="#9a916c" stroke-width="3.027"/>
  <circle r="5.987" cx="238.682" cy="11.362" id="D12" fill="none" stroke="#9a916c" stroke-width="3.027"/>
  <circle r="5.987" cx="261.405" cy="11.362" id="D11" fill="none" stroke="#9a916c" stroke-width="3.027"/>
  <circle r="5.987" cx="284.125" cy="11.362" id="D10" fill="none" stroke="#9a916c" stroke-width="3.027"/>
  <path d="M285.687 11.346h.032v.031h-.032z" id="path4743" fill="none" stroke-width="3.156"/>
  <circle r="5.987" cx="306.851" cy="11.362" id="D9" fill="none" stroke="#9a916c" stroke-width="3.027"/>
  <circle r="5.987" cx="329.574" cy="11.362" id="D6" fill="none" stroke="#9a916c" stroke-width="3.027"/>
  <path d="M331.137 11.346h.031v.031h-.031z" id="path4749" fill="none" stroke-width="3.156"/>
  <circle r="5.987" cx="352.298" cy="11.362" id="D5" fill="none" stroke="#9a916c" stroke-width="3.027"/>
  <circle r="5.987" cx="375.021" cy="11.362" id="SCL" fill="none" stroke="#9a916c" stroke-width="3.027"/>
  <path d="M377.107 10.295h.032v.031h-.032z" id="path4755" fill="none" stroke-width="3.156"/>
  <circle r="5.987" cx="397.744" cy="11.362" id="SDA" fill="none" stroke="#9a916c" stroke-width="3.027"/>
  <g id="g4795" transform="translate(-3.983) scale(3.156)">
    <path d="M23.678 50.125h-2.835V47.29h2.835z" id="path4793" fill="#9a916c"/>
  </g>
  <g id="g4799" transform="translate(-3.983) scale(3.156)">
    <path d="M23.678 45.59h-2.835v-2.835h2.835z" id="path4797" fill="#9a916c"/>
  </g>
  <g id="g4803" transform="translate(-3.983) scale(3.156)">
    <path d="M35.016 50.125h-2.835V47.29h2.835z" id="path4801" fill="#9a916c"/>
  </g>
  <g id="g4807" transform="translate(-3.983) scale(3.156)">
    <path d="M35.016 45.59h-2.835v-2.835h2.835z" id="path4805" fill="#9a916c"/>
  </g>
  <g id="g4811" transform="translate(-3.983) scale(3.156)">
    <path d="M61.54 48.353v-2.126h.71v2.126z" id="path4809" fill="#9a916c"/>
  </g>
  <g id="g4815" transform="translate(-3.983) scale(3.156)">
    <path d="M62.957 48.353v-2.126h.71v2.126z" id="path4813" fill="#9a916c"/>
  </g>
  <g id="g4819" transform="translate(-3.983) scale(3.156)">
    <path d="M64.375 48.354v-2.126h.709v2.126z" id="path4817" fill="#9a916c"/>
  </g>
  <g id="g4823" transform="translate(-3.983) scale(3.156)">
    <path d="M65.792 48.353v-2.126h.71v2.126z" id="path4821" fill="#9a916c"/>
  </g>
  <g id="g4827" transform="translate(-3.983) scale(3.156)">
    <path d="M67.21 48.353v-2.126h.708v2.126z" id="path4825" fill="#9a916c"/>
  </g>
  <g id="g4831" transform="translate(-3.983) scale(3.156)">
    <path d="M68.627 48.353v-2.126h.709v2.126z" id="path4829" fill="#9a916c"/>
  </g>
  <g id="g4835" transform="translate(-3.983) scale(3.156)">
    <path d="M70.044 48.354v-2.126h.709v2.126z" id="path4833" fill="#9a916c"/>
  </g>
  <g id="g4839" transform="translate(-3.983) scale(3.156)">
    <path d="M71.461 48.353v-2.126h.71v2.126z" id="path4837" fill="#9a916c"/>
  </g>
  <g id="g4843" transform="translate(-3.983) scale(3.156)">
    <path d="M72.879 48.354v-2.126h.709v2.126z" id="path4841" fill="#9a916c"/>
  </g>
  <g id="g4847" transform="translate(-3.983) scale(3.156)">
    <path d="M74.296 48.353v-2.126h.709v2.126z" id="path4845" fill="#9a916c"/>
  </g>
  <g id="g4851" transform="translate(-3.983) scale(3.156)">
    <path d="M75.713 48.353v-2.126h.71v2.126z" id="path4849" fill="#9a916c"/>
  </g>
  <g id="g4855" transform="translate(-3.983) scale(3.156)">
    <path d="M77.13 48.353v-2.126h.71v2.126z" id="path4853" fill="#9a916c"/>
  </g>
  <g id="g4859" transform="translate(-3.983) scale(3.156)">
    <path d="M80.603 45.59h-2.126v-.71h2.126z" id="path4857" fill="#9a916c"/>
  </g>
  <g id="g4863" transform="translate(-3.983) scale(3.156)">
    <path d="M80.603 44.172h-2.126v-.709h2.126z" id="path4861" fill="#9a916c"/>
  </g>
  <g id="g4867" transform="translate(-3.983) scale(3.156)">
    <path d="M80.603 42.756h-2.126v-.71h2.126z" id="path4865" fill="#9a916c"/>
  </g>
  <g id="g4871" transform="translate(-3.983) scale(3.156)">
    <path d="M80.603 41.338h-2.126v-.709h2.126z" id="path4869" fill="#9a916c"/>
  </g>
  <g id="g4875" transform="translate(-3.983) scale(3.156)">
    <path d="M80.603 39.92h-2.126v-.709h2.126z" id="path4873" fill="#9a916c"/>
  </g>
  <g id="g4879" transform="translate(-3.983) scale(3.156)">
    <path d="M80.603 38.504h-2.126v-.71h2.126z" id="path4877" fill="#9a916c"/>
  </g>
  <g id="g4883" transform="translate(-3.983) scale(3.156)">
    <path d="M80.603 37.085h-2.126v-.709h2.126z" id="path4881" fill="#9a916c"/>
  </g>
  <g id="g4887" transform="translate(-3.983) scale(3.156)">
    <path d="M80.603 35.668h-2.126v-.709h2.126z" id="path4885" fill="#9a916c"/>
  </g>
  <g id="g4891" transform="translate(-3.983) scale(3.156)">
    <path d="M80.603 34.251h-2.126v-.709h2.126z" id="path4889" fill="#9a916c"/>
  </g>
  <g id="g4895" transform="translate(-3.983) scale(3.156)">
    <path d="M80.603 32.834h-2.126v-.71h2.126z" id="path4893" fill="#9a916c"/>
  </g>
  <g id="g4899" transform="translate(-3.983) scale(3.156)">
    <path d="M80.603 31.416h-2.126v-.709h2.126z" id="path4897" fill="#9a916c"/>
  </g>
  <g id="g4903" transform="translate(-3.983) scale(3.156)">
    <path d="M80.603 30h-2.126v-.71h2.126z" id="path4901" fill="#9a916c"/>
  </g>
  <g id="g4907" transform="translate(-3.983) scale(3.156)">
    <path d="M77.84 26.527v2.126h-.709v-2.126z" id="path4905" fill="#9a916c"/>
  </g>
  <g id="g4911" transform="translate(-3.983) scale(3.156)">
    <path d="M76.423 26.527v2.126h-.709v-2.126z" id="path4909" fill="#9a916c"/>
  </g>
  <g id="g4915" transform="translate(-3.983) scale(3.156)">
    <path d="M75.005 26.527v2.126h-.709v-2.126z" id="path4913" fill="#9a916c"/>
  </g>
  <g id="g4919" transform="translate(-3.983) scale(3.156)">
    <path d="M73.587 26.526v2.127h-.709v-2.127z" id="path4917" fill="#9a916c"/>
  </g>
  <g id="g4923" transform="translate(-3.983) scale(3.156)">
    <path d="M72.17 26.527v2.126h-.709v-2.126z" id="path4921" fill="#9a916c"/>
  </g>
  <g id="g4927" transform="translate(-3.983) scale(3.156)">
    <path d="M70.753 26.526v2.126h-.71v-2.126z" id="path4925" fill="#9a916c"/>
  </g>
  <g id="g4931" transform="translate(-3.983) scale(3.156)">
    <path d="M69.336 26.527v2.126h-.71v-2.126z" id="path4929" fill="#9a916c"/>
  </g>
  <g id="g4935" transform="translate(-3.983) scale(3.156)">
    <path d="M67.918 26.527v2.126h-.709v-2.126z" id="path4933" fill="#9a916c"/>
  </g>
  <g id="g4939" transform="translate(-3.983) scale(3.156)">
    <path d="M66.501 26.527v2.126h-.709v-2.126z" id="path4937" fill="#9a916c"/>
  </g>
  <g id="g4943" transform="translate(-3.983) scale(3.156)">
    <path d="M65.083 26.526v2.127h-.709v-2.127z" id="path4941" fill="#9a916c"/>
  </g>
  <g id="g4947" transform="translate(-3.983) scale(3.156)">
    <path d="M63.666 26.527v2.126h-.709v-2.126z" id="path4945" fill="#9a916c"/>
  </g>
  <g id="g4951" transform="translate(-3.983) scale(3.156)">
    <path d="M62.249 26.527v2.126h-.71v-2.126z" id="path4949" fill="#9a916c"/>
  </g>
  <path d="M181.514 92.44h6.71v2.237h-6.71zm0 4.474h6.71v2.238h-6.71zm0 4.472h6.71v2.238h-6.71zm0 4.472h6.71v2.238h-6.71zm0 4.476h6.71v2.237h-6.71zm0 4.472h6.71v2.237h-6.71zm0 4.472h6.71v2.237h-6.71zm0 4.475h6.71v2.238h-6.71zm0 4.472h6.71v2.238h-6.71zm0 4.472h6.71v2.238h-6.71zm0 4.475h6.71v2.238h-6.71zm0 4.472h6.71v2.238h-6.71zm13.42-44.506h42.047v42.048h-42.048z" id="path4953" fill="#9a916c" stroke-width="3.156"/>
  <circle r="13.454" cx="22.812" cy="22.723" id="circle4955" fill="none" stroke="#9a916c" stroke-width="4.545"/>
  <circle r="13.454" cx="22.812" cy="181.785" id="circle4957" fill="none" stroke="#9a916c" stroke-width="4.545"/>
  <g id="g4961" transform="translate(-3.983) scale(3.156)">
    <rect height="2.835" width="2.835" x="30.472" rx="1.417" y="6.503" ry="1.417" transform="rotate(90 31.89 7.92)" id="rect4959" fill="#9a916c"/>
  </g>
  <g id="g4965" transform="translate(-3.983) scale(3.156)">
    <rect height="2.835" width="2.835" x="131.406" rx="1.417" y="61.203" ry="1.417" transform="rotate(90 132.824 62.62)" id="rect4963" fill="#9a916c"/>
  </g>
  <g id="g4969" transform="translate(-3.983) scale(3.156)">
    <path d="M103.661 34.761h-1.701v-6.236h1.701z" id="path4967" fill="#9a916c"/>
  </g>
  <g id="g4973" transform="translate(-3.983) scale(3.156)">
    <path d="M100.061 34.761H98.36v-6.236h1.701z" id="path4971" fill="#9a916c"/>
  </g>
  <g id="g4977" transform="translate(-3.983) scale(3.156)">
    <path d="M96.461 34.761H94.76v-6.236h1.701z" id="path4975" fill="#9a916c"/>
  </g>
  <g id="g4981" transform="translate(-3.983) scale(3.156)">
    <path d="M92.861 34.761H91.16v-6.236h1.701z" id="path4979" fill="#9a916c"/>
  </g>
  <g id="g4985" transform="translate(-3.983) scale(3.156)">
    <path d="M92.861 53.554H91.16v-6.236h1.701z" id="path4983" fill="#9a916c"/>
  </g>
  <g id="g4989" transform="translate(-3.983) scale(3.156)">
    <path d="M96.461 53.554H94.76v-6.236h1.701z" id="path4987" fill="#9a916c"/>
  </g>
  <g id="g4993" transform="translate(-3.983) scale(3.156)">
    <path d="M100.061 53.554H98.36v-6.236h1.701z" id="path4991" fill="#9a916c"/>
  </g>
  <g id="g4997" transform="translate(-3.983) scale(3.156)">
    <path d="M103.661 53.554h-1.701v-6.236h1.701z" id="path4995" fill="#9a916c"/>
  </g>
  <path d="M83.243 44.339h8.947v41.15h-8.947zm17.89 0h8.948v41.15h-8.947z" id="path5039" fill="#9a916c" stroke-width="3.156"/>
  <g id="g5043" transform="translate(-3.983) scale(3.156)">
    <path d="M19.984 10.647V1.009h4.535v9.638z" id="path5041" fill="#9a916c"/>
  </g>
  <g id="g5047" transform="translate(-3.983) scale(3.156)">
    <path d="M39.26 10.647V1.009h4.535v9.638z" id="path5045" fill="#9a916c"/>
  </g>
  <path d="M13.015 91.073h17.892v8.947H13.015zm0 13.419h17.892v8.947H13.015z" id="path5055" fill="#9a916c" stroke-width="3.156"/>
  <g id="g5059" transform="translate(-3.983) scale(3.156)">
    <path d="M18 31.833v1.134h-3.827v-1.134z" id="path5057" fill="#9a916c"/>
  </g>
  <g id="g5063" transform="translate(-3.983) scale(3.156)">
    <path d="M18 29.99v1.135h-3.827V29.99z" id="path5061" fill="#9a916c"/>
  </g>
  <g id="g5067" transform="translate(-3.983) scale(3.156)">
    <path d="M18 35.518v1.134h-3.827v-1.134z" id="path5065" fill="#9a916c"/>
  </g>
  <g id="g5071" transform="translate(-3.983) scale(3.156)">
    <path d="M18 33.676v1.134h-3.827v-1.134z" id="path5069" fill="#9a916c"/>
  </g>
  <circle r="4.715" cx="47.905" cy="72.733" id="circle5073" fill="none" stroke="#9a916c" stroke-width="2.272"/>
  <path d="M43.19 63.303h9.43v14.145h-9.43V63.303m0 9.43a4.715 4.715 0 1 0 9.43 0 4.715 4.715 0 1 0-9.43 0z" id="path5075" fill="#9a916c" stroke-width="3.156"/>
  <circle r="4.715" cx="47.905" cy="131.776" id="circle5077" fill="none" stroke="#9a916c" stroke-width="2.272"/>
  <path d="M43.19 127.06h9.43v14.146h-9.43v-14.142m0 4.712a4.715 4.715 0 1 0 9.43 0 4.715 4.715 0 1 0-9.43 0z" id="path5079" fill="#9a916c" stroke-width="3.156"/>
  <circle r="7.603" cx="22.856" cy="70.047" id="circle5081" fill="none" stroke="#9a916c" stroke-width="7.158"/>
  <path d="M15.25 62.445h15.209v15.208h-15.21z" id="path5083" fill="none" stroke="#9a916c" stroke-width="7.158"/>
  <circle r="7.603" cx="22.856" cy="134.461" id="circle5085" fill="none" stroke="#9a916c" stroke-width="7.158"/>
  <path d="M15.25 126.855h15.209v15.21h-15.21z" id="path5087" fill="none" stroke="#9a916c" stroke-width="7.158"/>
  <g id="g5091" transform="translate(-3.983) scale(3.156)">
    <path d="M18 28.148v1.134h-3.827v-1.134z" id="path5089" fill="#9a916c"/>
  </g>
  <circle r="6.779" cx="340.936" cy="39.766" id="circle5093" fill="none" stroke="#9a916c" stroke-width="3.715"/>
  <path d="M341.444 39.223h.035v.034h-.035z" id="path5095" fill="none" stroke-width="3.156"/>
  <circle r="6.779" cx="363.659" cy="39.766" id="circle5097" fill="none" stroke="#9a916c" stroke-width="3.715"/>
  <circle r="6.779" cx="386.382" cy="39.766" id="circle5099" fill="none" stroke="#9a916c" stroke-width="3.715"/>
  <circle r="6.779" cx="409.106" cy="39.766" id="circle5101" fill="none" stroke="#9a916c" stroke-width="3.715"/>
  <circle r="6.779" cx="340.936" cy="164.743" id="circle5103" fill="none" stroke="#9a916c" stroke-width="3.715"/>
  <circle r="6.779" cx="363.659" cy="164.743" id="circle5105" fill="none" stroke="#9a916c" stroke-width="3.715"/>
  <circle r="6.779" cx="386.382" cy="164.743" id="circle5107" fill="none" stroke="#9a916c" stroke-width="3.715"/>
  <circle r="6.779" cx="409.106" cy="164.743" id="circle5109" fill="none" stroke="#9a916c" stroke-width="3.715"/>
  <circle r="6.438" cx="443.19" cy="56.808" id="circle5111" fill="none" stroke="#9a916c" stroke-width="3.033"/>
  <circle r="6.438" cx="443.19" cy="79.531" id="circle5113" fill="none" stroke="#9a916c" stroke-width="3.033"/>
  <circle r="6.438" cx="443.19" cy="102.254" id="circle5115" fill="none" stroke="#9a916c" stroke-width="3.033"/>
  <circle r="6.438" cx="443.19" cy="124.977" id="circle5117" fill="none" stroke="#9a916c" stroke-width="3.033"/>
  <circle r="6.438" cx="443.19" cy="147.701" id="circle5119" fill="none" stroke="#9a916c" stroke-width="3.033"/>
  <circle r="6.438" cx="420.467" cy="147.701" id="circle5121" fill="none" stroke="#9a916c" stroke-width="3.033"/>
  <circle r="6.438" cx="397.744" cy="147.701" id="circle5123" fill="none" stroke="#9a916c" stroke-width="3.033"/>
  <circle r="6.438" cx="375.021" cy="147.701" id="circle5125" fill="none" stroke="#9a916c" stroke-width="3.033"/>
  <circle r="6.438" cx="352.298" cy="147.701" id="circle5127" fill="none" stroke="#9a916c" stroke-width="3.033"/>
  <circle r="6.438" cx="352.298" cy="56.808" id="circle5129" fill="none" stroke="#9a916c" stroke-width="3.033"/>
  <circle r="6.438" cx="375.021" cy="56.808" id="circle5131" fill="none" stroke="#9a916c" stroke-width="3.033"/>
  <circle r="6.438" cx="397.744" cy="56.808" id="circle5133" fill="none" stroke="#9a916c" stroke-width="3.033"/>
  <circle r="6.438" cx="420.467" cy="56.808" id="circle5135" fill="none" stroke="#9a916c" stroke-width="3.033"/>
  <circle r="6.438" cx="420.467" cy="79.531" id="circle5137" fill="none" stroke="#9a916c" stroke-width="3.033"/>
  <circle r="6.438" cx="420.467" cy="102.254" id="circle5139" fill="none" stroke="#9a916c" stroke-width="3.033"/>
  <circle r="6.438" cx="397.744" cy="102.254" id="circle5141" fill="none" stroke="#9a916c" stroke-width="3.033"/>
  <circle r="6.438" cx="352.298" cy="102.254" id="circle5143" fill="none" stroke="#9a916c" stroke-width="3.033"/>
  <circle r="6.438" cx="375.021" cy="102.254" id="circle5145" fill="none" stroke="#9a916c" stroke-width="3.033"/>
  <circle r="6.438" cx="375.021" cy="124.977" id="circle5147" fill="none" stroke="#9a916c" stroke-width="3.033"/>
  <circle r="6.438" cx="352.298" cy="124.977" id="circle5149" fill="none" stroke="#9a916c" stroke-width="3.033"/>
  <circle r="6.438" cx="397.744" cy="124.977" id="circle5151" fill="none" stroke="#9a916c" stroke-width="3.033"/>
  <circle r="6.438" cx="420.467" cy="124.977" id="circle5153" fill="none" stroke="#9a916c" stroke-width="3.033"/>
  <circle r="6.438" cx="397.744" cy="79.531" id="circle5155" fill="none" stroke="#9a916c" stroke-width="3.033"/>
  <circle r="6.438" cx="375.021" cy="79.531" id="circle5157" fill="none" stroke="#9a916c" stroke-width="3.033"/>
  <circle r="6.438" cx="352.298" cy="79.531" id="circle5159" fill="none" stroke="#9a916c" stroke-width="3.033"/>
  <g id="g5223" transform="translate(-3.983) scale(3.156)">
    <g transform="rotate(90 -18.112 29.076)" id="g5221">
      <path d="M3.543.282v5.103a.283.283 0 0 1-.283.283H.283A.283.283 0 0 1 0 5.385V.283C0 .126.127 0 .283 0H3.26a.282.282 0 0 1 .283.282z" id="path5215" fill="#dcdcdc"/>
      <path d="M0 1.062h3.543v3.543H0z" id="path5217" fill="#ff0"/>
      <circle cx="1.772" r=".567" cy="2.833" id="circle5219" fill="#b4b400"/>
    </g>
  </g>
  <path d="M15.698 43.625h16.105a.893.893 0 0 1 .893.893v9.396a.893.893 0 0 1-.893.893H15.701a.892.892 0 0 1-.893-.893v-9.396a.89.89 0 0 1 .89-.893z" id="path5233" fill="#dcdcdc" stroke-width="3.156"/>
  <path d="M18.16 54.807V43.625h11.18v11.182z" id="LED" fill="red" stroke-width="3.156"/>
  <g id="NEOPIXEL" transform="translate(-3.983) scale(3.156)">
    <g transform="translate(92.09 12.312)" id="g5253">
      <path d="M0 0h2.835v2.835H0z" id="path5243" fill="#fff"/>
      <path d="M9.921 9.921H0V1.417L1.417 0h8.504z" id="path5245"/>
      <circle cx="4.961" r="4.252" cy="4.961" id="circle5247" fill="#c8c8c8"/>
      <path d="M3.257 3.827V1.069c-.42.184-.798.442-1.134.745v2.012H.881a4.216 4.216 0 0 0-.172 1.135h4.819v4.195c.397-.053.78-.147 1.134-.302V4.961h2.551a4.21 4.21 0 0 0-.172-1.134z" id="path5249" fill="#fff"/>
      <path d="M3.54 1.843h2.268v1.701H3.54z" id="path5251" fill="#1e1432"/>
    </g>
  </g>
  <path d="M68.507 155.96v4.024h31.314v-4.024h4.472v-4.472h-4.472v-9.844h4.472v-4.472h-4.472v-4.027H68.507v4.027h-4.472v4.472h4.472v9.844h-4.472v4.472z" id="path5299" fill="#dcdcdc" stroke-width="3.156"/>
  <circle cx="-84.164" r="7.827" cy="-146.565" id="RESETBTN" transform="scale(-1)" fill="#1e1e1e" stroke-width="3.156"/>
  <path d="M101.162 159.984h-1.79v-26.839h1.79zm-32.207 0h-1.79v-26.839h1.79z" id="path5303" fill="#b4b4b4" stroke-width="3.156"/>
  <g id="g5311" transform="translate(-3.983) scale(3.156)">
    <path d="M59.734 27.554h19.843v19.843H59.734z" id="path5309" fill="#333"/>
  </g>
  <g id="g5315" transform="translate(-3.983) scale(3.156)">
    <path d="M75.293 19.938c-.032-.2-.141-.257-.403-.341-.2-.065-1.533-.49-1.533-.49s-.93-.35-1.62.146a4.713 4.713 0 0 0-.285.224c.082-.097.158-.193.224-.286.495-.69.143-1.619.143-1.619s-.427-1.334-.492-1.533c-.085-.262-.142-.37-.342-.402-.2-.032-.288.054-.45.277l-.938 1.307s-.621.777-.361 1.586c.034.11.077.224.125.341a4.797 4.797 0 0 0-.203-.302c-.503-.684-1.496-.636-1.496-.636l-1.61-.006c-.275 0-.396.02-.488.201-.091.181-.037.291.126.513l.953 1.297s.546.83 1.395.834c.114 0 .236-.005.362-.014-.122.03-.24.064-.348.1-.806.267-1.067 1.226-1.067 1.226l-.503 1.53c-.086.26-.103.383.04.526.144.143.265.126.526.04a992.46 992.46 0 0 0 1.528-.506s.958-.263 1.224-1.07c.036-.108.069-.225.1-.348a4.572 4.572 0 0 0-.013.361c.005.85.836 1.394.836 1.394l1.298.951c.223.162.333.216.514.125.18-.092.2-.213.2-.488l-.01-1.61s.048-.993-.638-1.495a5.228 5.228 0 0 0-.301-.203c.117.047.232.09.34.124.81.258 1.584-.364 1.584-.364s1.136-.819 1.306-.94c.223-.162.309-.25.277-.45zm-4.822-1.031c.152.024.228.349.169.726-.06.377-.231.662-.384.638-.153-.025-.23-.35-.17-.726.06-.377.232-.663.385-.639zm-1.956.999c.07-.138.402-.11.742.063.34.172.558.424.488.562-.07.139-.402.11-.742-.062-.34-.174-.558-.426-.488-.564zm1.03 1.878c-.268.27-.576.4-.685.29-.11-.109.02-.416.29-.686.269-.27.576-.4.686-.29.109.109-.021.416-.29.686zm1.485.633c-.138.07-.39-.149-.563-.488-.174-.34-.203-.673-.065-.742.138-.07.39.148.563.487.173.34.202.671.065.742zm.357-1.574c-.377.06-.701-.015-.726-.168-.024-.153.262-.325.638-.385.377-.06.7.016.726.169.024.153-.261.325-.638.385z" id="path5313" fill="#dcdcdc"/>
  </g>
  <g id="g5337" transform="translate(-3.983) scale(3.156)">
    <g id="g5319" fill="#b3b3b3">
      <path d="M92.529 33.542h-1.134v-3.118h1.134zm3.6 0h-1.134v-3.118h1.134zm3.6 0h-1.134v-3.118h1.134zm3.6 0h-1.134v-3.118h1.134z" id="path5317"/>
    </g>
    <g id="g5323" fill="#b3b3b3">
      <path d="M92.535 51.66H91.4v-3.12h1.134zm3.6 0H95v-3.12h1.134zm3.6 0H98.6v-3.12h1.134zm3.6 0H102.2v-3.12h1.134z" id="path5321"/>
    </g>
    <g transform="rotate(180 201.283 231.5)" id="g5335">
      <path d="M298.069 414.439h14.173v15.024h-14.173z" id="path5325" fill="#303030"/>
      <ellipse cx="300.355" rx=".762" ry=".759" cy="427.186" id="ellipse5327" fill="#1f1f1f"/>
      <path d="M298.074 414.439h.74v15.024h-.74z" id="path5329"/>
      <path d="M311.473 414.457h.749v15.006h-.749z" id="path5331" fill="#4d4d4d"/>
      <path d="M298.831 428.703l-.762.76h14.173l-.762-.76zm-.761-14.254h14.172l-.762.758h-12.649z" id="path5333" fill="#1f1f1f"/>
    </g>
  </g>
  <g id="g5359" transform="translate(-3.983) scale(3.156)">
    <path d="M23.386 3.419h-2.835V18.3h22.677V3.419h-2.834V1.293H23.386z" id="path5351" fill="#666"/>
    <path d="M24.803 6.962h2.835v8.504h-2.835zm11.339 0h2.835v8.504h-2.835z" id="path5353"/>
    <path d="M24.803 15.466h2.835V18.3h-2.835zm11.339 0h2.835V18.3h-2.835zM20.551 18.3h2.268v4.253h-2.268zm20.409 0h2.268v4.253H40.96z" id="path5355" fill="#333"/>
    <path d="M28.063 18.3h1.984v7.088h-1.984zm5.669 0h1.984v7.088h-1.984z" id="path5357" fill="#dcdcdc"/>
  </g>
  <g id="g5393" transform="translate(-3.983) scale(3.156)">
    <path d="M10.758 21.062v22.677H6.79V21.062z" id="path5377" fill="#b4b4b4"/>
    <path d="M17.915 32.117v.567h-3.402v-.567zm0 1.843v.567h-3.402v-.567zm0 1.842v.567h-3.402v-.567zm0-5.527v.567h-3.402v-.567zm0-1.843v.567h-3.402v-.567z" id="path5379" fill="#dcdcdc"/>
    <path d="M16.426 25.314v14.173h-.709V25.314z" id="path5381" fill="#b4b4b4"/>
    <path d="M16.144 25.314v14.173h-2.976V25.314z" id="path5383"/>
    <path d="M14.442 35.802h-.709v-1.417h2.552v-3.97h-2.552V29h.71v-2.27h2.125v-5.102H2.962v21.543h13.606V38.07h-2.126z" id="path5385" fill="#dcdcdc"/>
    <path d="M10.048 25.172v1.417l-4.252.284v-1.984zm0 13.038v1.419l-4.252.283v-1.984z" id="path5387"/>
    <path d="M2.962 22.196v20.409l-1.7-.567V22.763z" id="path5389" fill="#f0f0f0"/>
    <path d="M2.962 21.629v.567l-1.7-.567v-.567zm0 20.976v.567l-1.7.567v-.567z" id="path5391" fill="#b4b4b4"/>
  </g>
  <g id="g5399" transform="translate(-3.983) scale(3.156)">
    <g transform="translate(12.153 -2.603)" id="g5397">
      <text font-size="3.341" x="100.65" y="10.31" id="text5395" font-family="OCRA" text-anchor="middle" fill="#fff" stroke-width="0">
        ~
      </text>
    </g>
  </g>
</svg>
