<?xml version="1.0" encoding="UTF-8" standalone="no"?><!DOCTYPE svg PUBLIC "-//W3C//DTD SVG 1.1//EN" "http://www.w3.org/Graphics/SVG/1.1/DTD/svg11.dtd"><svg width="100%" height="100%" viewBox="0 0 325 163" version="1.1" xmlns="http://www.w3.org/2000/svg" xmlns:xlink="http://www.w3.org/1999/xlink" xml:space="preserve" xmlns:serif="http://www.serif.com/" style="fill-rule:evenodd;clip-rule:evenodd;stroke-linejoin:round;stroke-miterlimit:2;"><path d="M282.403,162.977c3.598,0 6.519,-2.921 6.519,-6.519l-0,-149.939c-0,-3.598 -2.921,-6.519 -6.519,-6.519l-267.564,0c-3.598,0 -6.519,2.921 -6.519,6.519l-0,149.939c-0,3.598 2.921,6.519 6.519,6.519l267.564,0Z" style="fill:#2d2d2d;"/><g><path d="M324.459,134.082l0,-104.952l-184.001,-0l0,104.952l184.001,0Z"/><path d="M302.013,76.811l17.743,0l-0,-7.984l-17.743,0l-0,-19.827l17.743,-0l-0,-8.37l-22.811,-0l-0,-4.678l27.489,0l-0,17.725l-17.744,0l0,10.472l17.744,0l-0,17.34l-17.744,-0l0,10.472l17.744,-0l-0,29.976l-35.659,0l-0,-4.677l30.981,-0l-0,-8.364l-30.981,-0l-0,-4.678l30.981,-0l-0,-7.58l-17.743,0l-0,-19.827Z" style="fill:#d09600;"/><g><path d="M144.27,35.464l140.55,-0l0,61.951l-22.337,0l-0,31.241l-118.213,-0l-0,-93.192Z" style="fill:#c7c7c7;"/><path d="M246.725,39.493l5.658,-0l-0,2.805l-0.668,0l0,-2.292l-1.733,0l0,2.146l-0.663,0l-0,-2.146l-1.926,0l-0,2.382l-0.668,-0l0,-2.895Z" style="fill-rule:nonzero;"/><path d="M248.543,42.923l0.062,0.484c-0.283,0.023 -0.515,0.076 -0.697,0.16c-0.181,0.084 -0.328,0.214 -0.44,0.39c-0.112,0.177 -0.168,0.375 -0.168,0.596c0,0.196 0.043,0.368 0.128,0.518c0.085,0.15 0.201,0.262 0.349,0.335c0.148,0.073 0.309,0.11 0.484,0.11c0.178,0 0.333,-0.035 0.465,-0.106c0.133,-0.07 0.244,-0.187 0.334,-0.349c0.059,-0.104 0.151,-0.334 0.276,-0.691c0.125,-0.356 0.243,-0.606 0.353,-0.749c0.142,-0.185 0.317,-0.323 0.527,-0.414c0.21,-0.091 0.444,-0.136 0.704,-0.136c0.286,-0 0.553,0.055 0.801,0.166c0.248,0.112 0.437,0.274 0.565,0.487c0.129,0.214 0.193,0.451 0.193,0.712c0,0.288 -0.067,0.541 -0.202,0.761c-0.135,0.22 -0.334,0.389 -0.597,0.507c-0.262,0.118 -0.559,0.182 -0.891,0.19l-0.054,-0.492c0.358,-0.026 0.628,-0.116 0.81,-0.268c0.183,-0.153 0.274,-0.378 0.274,-0.677c0,-0.31 -0.083,-0.536 -0.249,-0.678c-0.165,-0.142 -0.365,-0.213 -0.6,-0.213c-0.203,-0 -0.37,0.05 -0.501,0.15c-0.132,0.099 -0.266,0.357 -0.404,0.775c-0.137,0.417 -0.257,0.703 -0.36,0.858c-0.152,0.226 -0.345,0.393 -0.577,0.5c-0.233,0.108 -0.501,0.162 -0.805,0.162c-0.301,-0 -0.585,-0.059 -0.851,-0.177c-0.266,-0.119 -0.473,-0.288 -0.621,-0.51c-0.148,-0.221 -0.222,-0.47 -0.222,-0.747c-0,-0.352 0.074,-0.646 0.224,-0.883c0.149,-0.237 0.373,-0.423 0.673,-0.558c0.3,-0.135 0.639,-0.206 1.017,-0.213Z" style="fill-rule:nonzero;"/><path d="M246.725,46.712l5.658,0l-0,1.464c-0,0.257 -0.018,0.454 -0.054,0.59c-0.047,0.19 -0.135,0.35 -0.265,0.479c-0.129,0.129 -0.311,0.232 -0.546,0.311c-0.234,0.078 -0.491,0.118 -0.771,0.118c-0.482,-0 -0.889,-0.105 -1.222,-0.315c-0.333,-0.21 -0.5,-0.59 -0.5,-1.138l0,-0.995l-2.3,-0l0,-0.514Zm2.968,0.514l0,1.003c0,0.331 0.09,0.567 0.27,0.706c0.18,0.14 0.434,0.209 0.76,0.209c0.237,0 0.44,-0.041 0.608,-0.123c0.169,-0.082 0.28,-0.19 0.334,-0.324c0.033,-0.086 0.05,-0.246 0.05,-0.479l0,-0.992l-2.022,-0Z" style="fill-rule:nonzero;"/><path d="M248.219,50.137l0.092,0.476c-0.393,0.055 -0.677,0.148 -0.85,0.279c-0.174,0.132 -0.261,0.292 -0.261,0.481c0,0.224 0.113,0.413 0.34,0.567c0.226,0.155 0.506,0.232 0.841,0.232c0.319,-0 0.582,-0.072 0.789,-0.215c0.207,-0.143 0.311,-0.324 0.311,-0.545c-0,-0.09 -0.026,-0.202 -0.077,-0.336l0.609,0.053c-0.005,0.032 -0.007,0.057 -0.007,0.077c-0,0.203 0.077,0.385 0.231,0.548c0.155,0.162 0.393,0.243 0.714,0.243c0.255,0 0.466,-0.059 0.633,-0.177c0.167,-0.118 0.251,-0.271 0.251,-0.458c-0,-0.185 -0.085,-0.34 -0.255,-0.463c-0.17,-0.124 -0.424,-0.203 -0.764,-0.238l0.124,-0.477c0.465,0.059 0.826,0.191 1.082,0.397c0.256,0.207 0.384,0.463 0.384,0.77c-0,0.212 -0.066,0.407 -0.199,0.585c-0.132,0.178 -0.313,0.315 -0.542,0.409c-0.229,0.094 -0.472,0.142 -0.729,0.142c-0.245,-0 -0.467,-0.045 -0.668,-0.135c-0.201,-0.09 -0.36,-0.223 -0.478,-0.4c-0.078,0.229 -0.238,0.408 -0.481,0.535c-0.243,0.127 -0.547,0.19 -0.913,0.19c-0.494,0 -0.912,-0.123 -1.256,-0.37c-0.343,-0.247 -0.515,-0.56 -0.515,-0.937c0,-0.341 0.148,-0.623 0.444,-0.848c0.296,-0.225 0.679,-0.354 1.15,-0.385Z" style="fill-rule:nonzero;"/><path d="M247.393,55.652l-0.668,-0l0,-2.565c0.168,-0.003 0.328,0.015 0.483,0.056c0.254,0.065 0.505,0.17 0.752,0.314c0.247,0.143 0.533,0.351 0.857,0.623c0.504,0.421 0.904,0.706 1.198,0.855c0.295,0.148 0.573,0.222 0.836,0.222c0.275,-0 0.507,-0.068 0.696,-0.203c0.189,-0.135 0.284,-0.311 0.284,-0.528c-0,-0.229 -0.1,-0.412 -0.301,-0.55c-0.201,-0.138 -0.479,-0.207 -0.834,-0.209l0.074,-0.49c0.532,0.034 0.938,0.16 1.217,0.379c0.279,0.219 0.419,0.512 0.419,0.881c-0,0.372 -0.151,0.667 -0.452,0.884c-0.301,0.217 -0.674,0.325 -1.119,0.325c-0.226,0 -0.449,-0.031 -0.667,-0.095c-0.219,-0.063 -0.449,-0.169 -0.691,-0.316c-0.242,-0.147 -0.574,-0.392 -0.996,-0.734c-0.35,-0.286 -0.587,-0.47 -0.712,-0.551c-0.125,-0.081 -0.25,-0.148 -0.376,-0.201l-0,1.903Z" style="fill-rule:nonzero;"/><path d="M248.423,56.11l0.699,-0l-0,1.463l-0.699,0l0,-1.463Z" style="fill-rule:nonzero;"/><path d="M246.725,58.838l5.658,-1.029l-0,0.526l-3.709,0.59c-0.388,0.064 -0.774,0.119 -1.158,0.164c0.605,0.099 0.954,0.157 1.046,0.175l3.821,0.738l-0,0.62l-2.864,0.555c-0.71,0.14 -1.377,0.24 -2.003,0.302c0.358,0.05 0.768,0.114 1.232,0.193l3.635,0.609l-0,0.516l-5.658,-1.064l0,-0.495l4.311,-0.817c0.36,-0.069 0.581,-0.11 0.664,-0.122c-0.26,-0.041 -0.481,-0.079 -0.664,-0.114l-4.311,-0.823l0,-0.524Z" style="fill-rule:nonzero;"/><path d="M246.725,63.284l5.658,0l-0,1.72c-0,0.346 -0.051,0.609 -0.153,0.789c-0.101,0.18 -0.281,0.324 -0.538,0.431c-0.257,0.108 -0.542,0.162 -0.853,0.162c-0.401,-0 -0.739,-0.089 -1.015,-0.268c-0.275,-0.178 -0.45,-0.453 -0.525,-0.825c-0.095,0.135 -0.189,0.239 -0.281,0.309c-0.201,0.15 -0.452,0.292 -0.753,0.426l-1.54,0.675l0,-0.646l1.177,-0.513c0.34,-0.15 0.6,-0.273 0.78,-0.37c0.18,-0.097 0.306,-0.184 0.378,-0.261c0.072,-0.077 0.122,-0.155 0.151,-0.234c0.018,-0.059 0.027,-0.154 0.027,-0.286l-0,-0.596l-2.513,0l0,-0.513Zm3.161,0.513l-0,1.104c-0,0.235 0.035,0.418 0.106,0.55c0.071,0.133 0.184,0.233 0.34,0.302c0.155,0.069 0.325,0.103 0.507,0.103c0.268,0 0.488,-0.066 0.66,-0.199c0.172,-0.134 0.259,-0.344 0.259,-0.632l-0,-1.228l-1.872,0Z" style="fill-rule:nonzero;"/><path d="M249.481,67.034c0.939,-0 1.674,0.173 2.205,0.519c0.532,0.345 0.797,0.792 0.797,1.339c0,0.358 -0.125,0.681 -0.374,0.968c-0.25,0.288 -0.598,0.507 -1.044,0.658c-0.446,0.151 -0.953,0.226 -1.519,0.226c-0.573,0 -1.087,-0.079 -1.539,-0.238c-0.453,-0.159 -0.796,-0.384 -1.029,-0.675c-0.233,-0.291 -0.349,-0.605 -0.349,-0.942c-0,-0.365 0.129,-0.691 0.386,-0.979c0.257,-0.288 0.608,-0.506 1.053,-0.654c0.445,-0.148 0.916,-0.222 1.413,-0.222Zm-0.012,0.529c-0.682,0 -1.219,0.126 -1.611,0.377c-0.392,0.252 -0.588,0.567 -0.588,0.946c-0,0.387 0.198,0.705 0.594,0.954c0.396,0.25 0.958,0.375 1.686,0.375c0.461,-0 0.863,-0.053 1.206,-0.16c0.344,-0.107 0.61,-0.263 0.799,-0.469c0.189,-0.205 0.284,-0.436 0.284,-0.692c-0,-0.363 -0.182,-0.676 -0.546,-0.938c-0.364,-0.262 -0.972,-0.393 -1.824,-0.393Z" style="fill-rule:nonzero;"/><path d="M246.725,72.515l5.658,-1.503l-0,0.555l-4.11,1.009c-0.329,0.081 -0.638,0.149 -0.926,0.203c0.308,0.06 0.617,0.13 0.926,0.209l4.11,1.048l-0,0.524l-5.658,-1.519l0,-0.526Z" style="fill-rule:nonzero;"/><path d="M246.725,75.031l5.658,0l-0,2.806l-0.668,-0l0,-2.292l-1.733,-0l0,2.146l-0.663,0l-0,-2.146l-1.926,-0l-0,2.382l-0.668,-0l0,-2.896Z" style="fill-rule:nonzero;"/><path d="M246.725,78.644l5.658,-0l-0,1.72c-0,0.346 -0.051,0.609 -0.153,0.789c-0.101,0.18 -0.281,0.323 -0.538,0.431c-0.257,0.108 -0.542,0.161 -0.853,0.161c-0.401,0 -0.739,-0.089 -1.015,-0.267c-0.275,-0.178 -0.45,-0.453 -0.525,-0.826c-0.095,0.136 -0.189,0.239 -0.281,0.31c-0.201,0.15 -0.452,0.292 -0.753,0.426l-1.54,0.675l0,-0.646l1.177,-0.513c0.34,-0.15 0.6,-0.274 0.78,-0.371c0.18,-0.097 0.306,-0.184 0.378,-0.26c0.072,-0.077 0.122,-0.155 0.151,-0.235c0.018,-0.058 0.027,-0.153 0.027,-0.285l-0,-0.596l-2.513,0l0,-0.513Zm3.161,0.513l-0,1.104c-0,0.234 0.035,0.418 0.106,0.55c0.071,0.132 0.184,0.233 0.34,0.302c0.155,0.069 0.325,0.103 0.507,0.103c0.268,0 0.488,-0.067 0.66,-0.2c0.172,-0.133 0.259,-0.343 0.259,-0.631l-0,-1.228l-1.872,0Z" style="fill-rule:nonzero;"/><path d="M248.423,82.304l0.699,-0l-0,1.463l-0.699,0l0,-1.463Z" style="fill-rule:nonzero;"/><path d="M246.725,84.365l5.658,0l-0,2.805l-0.668,0l0,-2.291l-1.733,-0l0,2.146l-0.663,-0l-0,-2.146l-1.926,-0l-0,2.381l-0.668,0l0,-2.895Z" style="fill-rule:nonzero;"/><path d="M268.666,51.568l7.201,0l0,3.571l-0.85,-0l0,-2.917l-2.205,-0l-0,2.731l-0.845,0l-0,-2.731l-2.451,-0l-0,3.031l-0.85,0l-0,-3.685Z" style="fill-rule:nonzero;"/><path d="M270.979,55.934l0.079,0.616c-0.36,0.029 -0.656,0.097 -0.887,0.204c-0.23,0.107 -0.417,0.272 -0.56,0.497c-0.142,0.224 -0.213,0.477 -0.213,0.758c-0,0.249 0.054,0.469 0.162,0.66c0.108,0.191 0.256,0.333 0.444,0.426c0.189,0.093 0.394,0.14 0.617,0.14c0.226,-0 0.423,-0.045 0.592,-0.135c0.168,-0.09 0.31,-0.238 0.425,-0.445c0.075,-0.132 0.192,-0.425 0.351,-0.879c0.159,-0.453 0.309,-0.771 0.449,-0.953c0.18,-0.236 0.404,-0.412 0.671,-0.527c0.267,-0.116 0.566,-0.174 0.896,-0.174c0.364,0 0.704,0.071 1.02,0.212c0.316,0.142 0.555,0.349 0.719,0.62c0.164,0.272 0.246,0.574 0.246,0.906c-0,0.366 -0.086,0.689 -0.258,0.969c-0.172,0.279 -0.425,0.494 -0.759,0.645c-0.334,0.15 -0.712,0.231 -1.135,0.242l-0.068,-0.626c0.455,-0.034 0.799,-0.148 1.031,-0.342c0.233,-0.194 0.349,-0.481 0.349,-0.861c-0,-0.395 -0.106,-0.683 -0.317,-0.864c-0.211,-0.18 -0.466,-0.271 -0.764,-0.271c-0.259,0 -0.471,0.064 -0.638,0.192c-0.167,0.126 -0.338,0.454 -0.514,0.985c-0.175,0.532 -0.328,0.896 -0.459,1.094c-0.193,0.287 -0.438,0.499 -0.734,0.636c-0.297,0.137 -0.638,0.206 -1.025,0.206c-0.383,-0 -0.744,-0.076 -1.083,-0.226c-0.339,-0.15 -0.602,-0.367 -0.79,-0.648c-0.189,-0.282 -0.283,-0.6 -0.283,-0.952c0,-0.447 0.095,-0.821 0.285,-1.123c0.19,-0.303 0.476,-0.539 0.857,-0.711c0.382,-0.172 0.813,-0.262 1.294,-0.271Z" style="fill-rule:nonzero;"/><path d="M268.666,60.757l7.201,0l0,1.863c0,0.328 -0.023,0.578 -0.069,0.751c-0.059,0.243 -0.171,0.446 -0.336,0.61c-0.166,0.164 -0.397,0.296 -0.695,0.396c-0.298,0.1 -0.626,0.15 -0.983,0.15c-0.612,-0 -1.13,-0.134 -1.554,-0.401c-0.424,-0.267 -0.636,-0.75 -0.636,-1.449l-0,-1.266l-2.928,-0l-0,-0.654Zm3.777,0.654l0,1.276c0,0.423 0.115,0.722 0.344,0.9c0.229,0.177 0.552,0.266 0.968,0.266c0.301,-0 0.559,-0.052 0.773,-0.157c0.215,-0.104 0.357,-0.242 0.425,-0.412c0.043,-0.11 0.064,-0.314 0.064,-0.61l0,-1.263l-2.574,-0Z" style="fill-rule:nonzero;"/><path d="M268.666,65.369l7.201,-0l0,2.189c0,0.44 -0.065,0.775 -0.194,1.004c-0.129,0.229 -0.358,0.412 -0.685,0.549c-0.328,0.137 -0.69,0.206 -1.086,0.206c-0.511,-0 -0.941,-0.114 -1.292,-0.341c-0.35,-0.226 -0.573,-0.577 -0.668,-1.051c-0.121,0.173 -0.24,0.305 -0.358,0.395c-0.256,0.19 -0.575,0.371 -0.958,0.542l-1.96,0.859l-0,-0.822l1.498,-0.654c0.432,-0.19 0.763,-0.348 0.992,-0.471c0.23,-0.124 0.39,-0.234 0.482,-0.332c0.091,-0.098 0.155,-0.197 0.191,-0.298c0.023,-0.074 0.035,-0.195 0.035,-0.364l-0,-0.758l-3.198,0l-0,-0.653Zm4.023,0.653l-0,1.405c-0,0.299 0.045,0.532 0.135,0.701c0.09,0.168 0.234,0.296 0.432,0.384c0.198,0.087 0.414,0.131 0.646,0.131c0.341,-0 0.621,-0.085 0.84,-0.254c0.22,-0.17 0.329,-0.438 0.329,-0.804l0,-1.563l-2.382,0Z" style="fill-rule:nonzero;"/><path d="M268.666,70.354l7.201,0l0,3.571l-0.85,-0l0,-2.917l-2.205,-0l-0,2.732l-0.845,-0l-0,-2.732l-2.451,-0l-0,3.031l-0.85,0l-0,-3.685Z" style="fill-rule:nonzero;"/><path d="M270.979,74.72l0.079,0.616c-0.36,0.029 -0.656,0.097 -0.887,0.204c-0.23,0.107 -0.417,0.272 -0.56,0.497c-0.142,0.224 -0.213,0.477 -0.213,0.758c-0,0.249 0.054,0.469 0.162,0.66c0.108,0.191 0.256,0.333 0.444,0.426c0.189,0.093 0.394,0.14 0.617,0.14c0.226,-0 0.423,-0.045 0.592,-0.135c0.168,-0.09 0.31,-0.238 0.425,-0.445c0.075,-0.132 0.192,-0.425 0.351,-0.879c0.159,-0.453 0.309,-0.771 0.449,-0.953c0.18,-0.236 0.404,-0.411 0.671,-0.527c0.267,-0.116 0.566,-0.174 0.896,-0.174c0.364,0 0.704,0.071 1.02,0.213c0.316,0.141 0.555,0.348 0.719,0.619c0.164,0.272 0.246,0.574 0.246,0.907c-0,0.366 -0.086,0.688 -0.258,0.968c-0.172,0.28 -0.425,0.495 -0.759,0.645c-0.334,0.15 -0.712,0.231 -1.135,0.243l-0.068,-0.627c0.455,-0.034 0.799,-0.148 1.031,-0.342c0.233,-0.194 0.349,-0.481 0.349,-0.861c-0,-0.395 -0.106,-0.683 -0.317,-0.864c-0.211,-0.18 -0.466,-0.271 -0.764,-0.271c-0.259,0 -0.471,0.064 -0.638,0.192c-0.167,0.126 -0.338,0.454 -0.514,0.986c-0.175,0.531 -0.328,0.895 -0.459,1.093c-0.193,0.287 -0.438,0.499 -0.734,0.636c-0.297,0.137 -0.638,0.206 -1.025,0.206c-0.383,-0 -0.744,-0.075 -1.083,-0.226c-0.339,-0.15 -0.602,-0.367 -0.79,-0.648c-0.189,-0.282 -0.283,-0.599 -0.283,-0.952c0,-0.447 0.095,-0.821 0.285,-1.123c0.19,-0.302 0.476,-0.539 0.857,-0.711c0.382,-0.172 0.813,-0.262 1.294,-0.271Z" style="fill-rule:nonzero;"/><path d="M270.979,79.321l0.079,0.617c-0.36,0.029 -0.656,0.097 -0.887,0.203c-0.23,0.107 -0.417,0.273 -0.56,0.497c-0.142,0.225 -0.213,0.477 -0.213,0.758c-0,0.249 0.054,0.469 0.162,0.66c0.108,0.191 0.256,0.333 0.444,0.426c0.189,0.094 0.394,0.14 0.617,0.14c0.226,0 0.423,-0.045 0.592,-0.134c0.168,-0.09 0.31,-0.239 0.425,-0.445c0.075,-0.133 0.192,-0.426 0.351,-0.879c0.159,-0.454 0.309,-0.772 0.449,-0.954c0.18,-0.235 0.404,-0.411 0.671,-0.527c0.267,-0.115 0.566,-0.173 0.896,-0.173c0.364,-0 0.704,0.07 1.02,0.212c0.316,0.141 0.555,0.348 0.719,0.62c0.164,0.271 0.246,0.574 0.246,0.906c-0,0.366 -0.086,0.689 -0.258,0.968c-0.172,0.28 -0.425,0.495 -0.759,0.645c-0.334,0.151 -0.712,0.232 -1.135,0.243l-0.068,-0.627c0.455,-0.033 0.799,-0.147 1.031,-0.342c0.233,-0.194 0.349,-0.481 0.349,-0.86c-0,-0.395 -0.106,-0.683 -0.317,-0.864c-0.211,-0.181 -0.466,-0.271 -0.764,-0.271c-0.259,-0 -0.471,0.064 -0.638,0.192c-0.167,0.125 -0.338,0.454 -0.514,0.985c-0.175,0.531 -0.328,0.895 -0.459,1.093c-0.193,0.287 -0.438,0.5 -0.734,0.637c-0.297,0.137 -0.638,0.205 -1.025,0.205c-0.383,0 -0.744,-0.075 -1.083,-0.226c-0.339,-0.15 -0.602,-0.366 -0.79,-0.648c-0.189,-0.282 -0.283,-0.599 -0.283,-0.952c0,-0.446 0.095,-0.821 0.285,-1.123c0.19,-0.302 0.476,-0.539 0.857,-0.711c0.382,-0.172 0.813,-0.262 1.294,-0.271Z" style="fill-rule:nonzero;"/><path d="M268.666,84.256l7.201,-0l0,0.653l-7.201,0l-0,-0.653Z" style="fill-rule:nonzero;"/><path d="M268.666,86.095l7.201,0l0,3.332l-0.85,-0l0,-2.678l-2.23,-0l0,2.317l-0.85,0l0,-2.317l-3.271,-0l-0,-0.654Z" style="fill-rule:nonzero;"/><path d="M215.21,48.507l-0.561,1.525c-1.825,-0.32 -3.217,-0.895 -4.176,-1.725c-0.958,-0.83 -1.437,-1.845 -1.437,-3.044c-0,-1.241 0.368,-2.251 1.105,-3.028c0.737,-0.778 1.804,-1.37 3.202,-1.776c1.398,-0.406 2.898,-0.609 4.502,-0.609c1.749,0 3.275,0.229 4.577,0.688c1.302,0.458 2.291,1.11 2.967,1.956c0.676,0.846 1.014,1.777 1.014,2.793c-0,1.152 -0.428,2.121 -1.283,2.906c-0.856,0.786 -2.059,1.333 -3.609,1.642l-0.516,-1.5c1.222,-0.267 2.112,-0.655 2.67,-1.163c0.557,-0.508 0.836,-1.147 0.836,-1.917c-0,-0.885 -0.309,-1.625 -0.928,-2.219c-0.619,-0.595 -1.449,-1.012 -2.492,-1.253c-1.042,-0.241 -2.117,-0.362 -3.224,-0.362c-1.429,0 -2.675,0.143 -3.741,0.429c-1.065,0.285 -1.861,0.729 -2.388,1.331c-0.527,0.602 -0.791,1.255 -0.791,1.956c0,0.854 0.359,1.577 1.077,2.169c0.718,0.591 1.783,0.992 3.196,1.201Z" style="fill-rule:nonzero;"/><path d="M209.322,51.94l16.794,0l0,8.328l-1.982,-0l0,-6.803l-5.143,-0l-0,6.371l-1.971,-0l0,-6.371l-5.716,-0l-0,7.07l-1.982,-0l0,-8.595Z" style="fill-rule:nonzero;"/></g></g><g><path id="_3V" serif:id="3V" d="M284.82,8.559l0,-3.272l-3.272,-0l-0,3.272l3.272,-0Z" style="fill:#d09600;"/><path id="EN" d="M269.882,8.559l0,-3.272l-3.272,-0l0,3.272l3.272,-0Z" style="fill:#d09600;"/><path id="VP" d="M254.944,8.559l0,-3.272l-3.272,-0l0,3.272l3.272,-0Z" style="fill:#d09600;"/><path id="VN" d="M240.007,8.559l-0,-3.272l-3.273,-0l0,3.272l3.273,-0Z" style="fill:#d09600;"/><path id="P34" d="M225.069,8.559l-0,-3.272l-3.273,-0l0,3.272l3.273,-0Z" style="fill:#d09600;"/><path id="P35" d="M210.131,8.559l-0,-3.272l-3.272,-0l-0,3.272l3.272,-0Z" style="fill:#d09600;"/><path id="P32" d="M195.193,8.559l-0,-3.272l-3.272,-0l-0,3.272l3.272,-0Z" style="fill:#d09600;"/><path id="P33" d="M180.255,8.559l-0,-3.272l-3.272,-0l-0,3.272l3.272,-0Z" style="fill:#d09600;"/><path id="P25" d="M165.317,8.559l0,-3.272l-3.272,-0l-0,3.272l3.272,-0Z" style="fill:#d09600;"/><path id="P26" d="M150.379,8.559l0,-3.272l-3.272,-0l0,3.272l3.272,-0Z" style="fill:#d09600;"/><path id="P27" d="M135.441,8.559l0,-3.272l-3.272,-0l0,3.272l3.272,-0Z" style="fill:#d09600;"/><path id="P14" d="M120.503,8.559l0,-3.272l-3.272,-0l0,3.272l3.272,-0Z" style="fill:#d09600;"/><path id="P12" d="M105.566,8.559l-0,-3.272l-3.273,-0l0,3.272l3.273,-0Z" style="fill:#d09600;"/><path id="GND" d="M90.628,8.559l-0,-3.272l-3.273,-0l0,3.272l3.273,-0Z" style="fill:#d09600;"/><path id="P13" d="M75.69,8.559l-0,-3.272l-3.272,-0l-0,3.272l3.272,-0Z" style="fill:#d09600;"/><path id="D2" d="M60.752,8.559l-0,-3.272l-3.272,-0l-0,3.272l3.272,-0Z" style="fill:#d09600;"/><path id="D3" d="M45.814,8.559l0,-3.272l-3.272,-0l-0,3.272l3.272,-0Z" style="fill:#d09600;"/><path id="CMD" d="M30.876,8.559l0,-3.272l-3.272,-0l-0,3.272l3.272,-0Z" style="fill:#d09600;"/><path id="_5V" serif:id="5V" d="M15.938,8.559l0,-3.272l-3.272,-0l0,3.272l3.272,-0Z" style="fill:#d09600;fill-opacity:0.5;"/></g><g><path id="GND3" d="M285.101,157.776l0,-3.272l-3.272,-0l-0,3.272l3.272,-0Z" style="fill:#d09600;"/><path id="P23" d="M270.163,157.776l0,-3.272l-3.272,-0l-0,3.272l3.272,-0Z" style="fill:#d09600;"/><path id="P22" d="M255.225,157.776l0,-3.272l-3.272,-0l0,3.272l3.272,-0Z" style="fill:#d09600;"/><path id="TX" d="M240.287,157.776l0,-3.272l-3.272,-0l0,3.272l3.272,-0Z" style="fill:#d09600;"/><path id="RX" d="M225.349,157.776l0,-3.272l-3.272,-0l0,3.272l3.272,-0Z" style="fill:#d09600;"/><path id="P21" d="M210.412,157.776l-0,-3.272l-3.273,-0l0,3.272l3.273,-0Z" style="fill:#d09600;"/><path id="GND2" d="M195.474,157.776l-0,-3.272l-3.272,-0l-0,3.272l3.272,-0Z" style="fill:#d09600;"/><path id="P19" d="M180.536,157.776l-0,-3.272l-3.272,-0l-0,3.272l3.272,-0Z" style="fill:#d09600;"/><path id="P18" d="M165.598,157.776l-0,-3.272l-3.272,-0l-0,3.272l3.272,-0Z" style="fill:#d09600;"/><path id="P5" d="M150.66,157.776l0,-3.272l-3.272,-0l-0,3.272l3.272,-0Z" style="fill:#d09600;"/><path id="P17" d="M135.722,157.776l0,-3.272l-3.272,-0l-0,3.272l3.272,-0Z" style="fill:#d09600;"/><path id="P16" d="M120.784,157.776l0,-3.272l-3.272,-0l0,3.272l3.272,-0Z" style="fill:#d09600;"/><path id="P4" d="M105.846,157.776l0,-3.272l-3.272,-0l0,3.272l3.272,-0Z" style="fill:#d09600;"/><path id="P0" d="M90.909,157.776l-0,-3.272l-3.273,-0l0,3.272l3.273,-0Z" style="fill:#d09600;"/><path id="P2" d="M75.971,157.776l-0,-3.272l-3.273,-0l0,3.272l3.273,-0Z" style="fill:#d09600;"/><path id="P15" d="M61.033,157.776l-0,-3.272l-3.272,-0l-0,3.272l3.272,-0Z" style="fill:#d09600;"/><path id="D1" d="M46.095,157.776l-0,-3.272l-3.272,-0l-0,3.272l3.272,-0Z" style="fill:#d09600;"/><path id="D0" d="M31.157,157.776l-0,-3.272l-3.272,-0l-0,3.272l3.272,-0Z" style="fill:#d09600;"/><path id="CLK" d="M16.219,157.776l0,-3.272l-3.272,-0l-0,3.272l3.272,-0Z" style="fill:#d09600;"/></g><path d="M38.53,104.409l0,-43.874l-38.53,-0l0,43.874l38.53,-0Z" style="fill:#c7c7c7;"/><g><path d="M50.056,39.109l0,-8.983l-40.319,0l0,8.983l40.319,-0Z" style="fill:#c7c7c7;"/><path id="BTN_RESET" d="M40.685,43.061l-0,-16.887l-24.026,0l-0,16.887l24.026,-0Z" style="fill:#969696;"/><path d="M35.262,34.617c-0,2.962 -2.404,5.366 -5.365,5.366c-2.961,-0 -5.366,-2.404 -5.366,-5.366c0,-2.961 2.405,-5.365 5.366,-5.365c2.961,0 5.365,2.404 5.365,5.365Z"/></g><g><path d="M50.056,133.266l0,-8.982l-40.319,-0l0,8.982l40.319,0Z" style="fill:#c7c7c7;"/><path id="BTN_BOOT" d="M40.685,137.218l-0,-16.886l-24.026,-0l-0,16.886l24.026,0Z" style="fill:#969696;"/><path d="M35.262,128.775c-0,2.961 -2.404,5.365 -5.365,5.365c-2.961,0 -5.366,-2.404 -5.366,-5.365c0,-2.961 2.405,-5.365 5.366,-5.365c2.961,-0 5.365,2.404 5.365,5.365Z"/></g><g><g><path d="M88.101,98.514l0,-2.038l-1.413,-0l0,2.038l1.413,-0Z" style="fill:#adadad;"/><path d="M85.217,98.514l0,-2.038l-1.413,-0l-0,2.038l1.413,-0Z" style="fill:#adadad;"/><path d="M82.333,98.514l-0,-2.038l-1.413,-0l-0,2.038l1.413,-0Z" style="fill:#adadad;"/><path d="M79.449,98.514l-0,-2.038l-1.414,-0l0,2.038l1.414,-0Z" style="fill:#adadad;"/><path d="M76.565,98.514l-0,-2.038l-1.414,-0l0,2.038l1.414,-0Z" style="fill:#adadad;"/><path d="M73.68,98.514l0,-2.038l-1.413,-0l0,2.038l1.413,-0Z" style="fill:#adadad;"/><path d="M70.796,98.514l0,-2.038l-1.413,-0l-0,2.038l1.413,-0Z" style="fill:#adadad;"/></g><g><path d="M88.502,66.646l0,-2.038l-1.413,0l-0,2.038l1.413,0Z" style="fill:#adadad;"/><path d="M85.618,66.646l-0,-2.038l-1.413,0l-0,2.038l1.413,0Z" style="fill:#adadad;"/><path d="M82.734,66.646l-0,-2.038l-1.414,0l0,2.038l1.414,0Z" style="fill:#adadad;"/><path d="M79.85,66.646l-0,-2.038l-1.414,0l0,2.038l1.414,0Z" style="fill:#adadad;"/><path d="M76.965,66.646l0,-2.038l-1.413,0l-0,2.038l1.413,0Z" style="fill:#adadad;"/><path d="M74.081,66.646l0,-2.038l-1.413,0l-0,2.038l1.413,0Z" style="fill:#adadad;"/><path d="M71.197,66.646l-0,-2.038l-1.413,0l-0,2.038l1.413,0Z" style="fill:#adadad;"/></g><g><rect x="62.125" y="72.202" width="2.038" height="1.413" style="fill:#adadad;"/><rect x="62.125" y="75.086" width="2.038" height="1.413" style="fill:#adadad;"/><rect x="62.125" y="77.97" width="2.038" height="1.413" style="fill:#adadad;"/><rect x="62.125" y="80.854" width="2.038" height="1.413" style="fill:#adadad;"/><rect x="62.125" y="83.739" width="2.038" height="1.413" style="fill:#adadad;"/><rect x="62.125" y="86.623" width="2.038" height="1.413" style="fill:#adadad;"/><rect x="62.125" y="89.507" width="2.038" height="1.413" style="fill:#adadad;"/></g><g><rect x="93.321" y="72.202" width="2.038" height="1.413" style="fill:#adadad;"/><rect x="93.321" y="75.086" width="2.038" height="1.413" style="fill:#adadad;"/><rect x="93.321" y="77.97" width="2.038" height="1.413" style="fill:#adadad;"/><rect x="93.321" y="80.854" width="2.038" height="1.413" style="fill:#adadad;"/><rect x="93.321" y="83.739" width="2.038" height="1.413" style="fill:#adadad;"/><rect x="93.321" y="86.623" width="2.038" height="1.413" style="fill:#adadad;"/><rect x="93.321" y="89.507" width="2.038" height="1.413" style="fill:#adadad;"/></g><g><path d="M88.101,66.646l0,-2.038l-1.413,0l0,2.038l1.413,0Z" style="fill:#adadad;"/><path d="M85.217,66.646l0,-2.038l-1.413,0l-0,2.038l1.413,0Z" style="fill:#adadad;"/><path d="M82.333,66.646l-0,-2.038l-1.413,0l-0,2.038l1.413,0Z" style="fill:#adadad;"/><path d="M79.449,66.646l-0,-2.038l-1.414,0l0,2.038l1.414,0Z" style="fill:#adadad;"/><path d="M76.565,66.646l-0,-2.038l-1.414,0l0,2.038l1.414,0Z" style="fill:#adadad;"/><path d="M73.68,66.646l0,-2.038l-1.413,0l0,2.038l1.413,0Z" style="fill:#adadad;"/><path d="M70.796,66.646l0,-2.038l-1.413,0l-0,2.038l1.413,0Z" style="fill:#adadad;"/></g><path d="M93.321,96.476l0,-29.83l-29.158,0l-0,29.83l29.158,-0Z"/></g><path d="M290.06,15.422l-1.124,0.13c-0.036,-0.273 -0.133,-0.481 -0.29,-0.625c-0.157,-0.144 -0.347,-0.216 -0.571,-0.216c-0.24,-0 -0.441,0.086 -0.606,0.259c-0.164,0.173 -0.246,0.406 -0.246,0.7c0,0.277 0.079,0.497 0.236,0.66c0.157,0.162 0.349,0.243 0.575,0.243c0.149,0 0.327,-0.027 0.533,-0.082l-0.128,0.9c-0.314,-0.008 -0.554,0.057 -0.719,0.194c-0.166,0.138 -0.248,0.321 -0.248,0.549c-0,0.193 0.06,0.348 0.182,0.463c0.121,0.116 0.282,0.173 0.483,0.173c0.199,0 0.368,-0.065 0.509,-0.196c0.141,-0.131 0.226,-0.323 0.256,-0.574l1.072,0.173c-0.075,0.348 -0.187,0.627 -0.338,0.835c-0.15,0.208 -0.359,0.372 -0.628,0.491c-0.269,0.119 -0.57,0.179 -0.904,0.179c-0.57,-0 -1.028,-0.173 -1.373,-0.519c-0.284,-0.283 -0.426,-0.602 -0.426,-0.959c0,-0.505 0.291,-0.909 0.873,-1.21c-0.347,-0.071 -0.625,-0.229 -0.833,-0.476c-0.209,-0.246 -0.313,-0.543 -0.313,-0.892c0,-0.505 0.195,-0.936 0.584,-1.292c0.388,-0.357 0.872,-0.535 1.451,-0.535c0.549,0 1.004,0.15 1.365,0.45c0.361,0.3 0.57,0.692 0.628,1.177Z" style="fill:#fff;fill-rule:nonzero;"/><path d="M283.506,13.893l2.167,5.761l-1.328,0l-1.534,-4.263l-1.485,4.263l-1.298,0l2.171,-5.761l1.307,0Z" style="fill:#fff;fill-rule:nonzero;"/><path d="M279.701,15.422l-1.125,0.13c-0.036,-0.273 -0.132,-0.481 -0.289,-0.625c-0.157,-0.144 -0.348,-0.216 -0.571,-0.216c-0.24,-0 -0.442,0.086 -0.606,0.259c-0.164,0.173 -0.246,0.406 -0.246,0.7c0,0.277 0.079,0.497 0.236,0.66c0.157,0.162 0.349,0.243 0.575,0.243c0.149,0 0.326,-0.027 0.533,-0.082l-0.128,0.9c-0.314,-0.008 -0.554,0.057 -0.72,0.194c-0.165,0.138 -0.248,0.321 -0.248,0.549c0,0.193 0.061,0.348 0.182,0.463c0.122,0.116 0.283,0.173 0.484,0.173c0.199,0 0.368,-0.065 0.509,-0.196c0.14,-0.131 0.226,-0.323 0.256,-0.574l1.071,0.173c-0.074,0.348 -0.187,0.627 -0.337,0.835c-0.15,0.208 -0.36,0.372 -0.628,0.491c-0.269,0.119 -0.57,0.179 -0.904,0.179c-0.571,-0 -1.028,-0.173 -1.373,-0.519c-0.284,-0.283 -0.426,-0.602 -0.426,-0.959c0,-0.505 0.291,-0.909 0.873,-1.21c-0.348,-0.071 -0.626,-0.229 -0.834,-0.476c-0.208,-0.246 -0.312,-0.543 -0.312,-0.892c0,-0.505 0.194,-0.936 0.583,-1.292c0.389,-0.357 0.873,-0.535 1.452,-0.535c0.548,0 1.003,0.15 1.364,0.45c0.362,0.3 0.571,0.692 0.629,1.177Z" style="fill:#fff;fill-rule:nonzero;"/><path d="M272.34,13.893l-0,5.761l-4.495,0l-0,-0.974l3.271,-0l-0,-1.277l-3.044,-0l0,-0.971l3.044,-0l-0,-1.568l-3.387,-0l-0,-0.971l4.611,0Z" style="fill:#fff;fill-rule:nonzero;"/><path d="M266.678,13.893l0,5.761l-1.191,0l-2.481,-3.847l0,3.847l-1.137,0l-0,-5.761l1.228,0l2.444,3.757l0,-3.757l1.137,0Z" style="fill:#fff;fill-rule:nonzero;"/><path d="M256.675,13.893l2.167,5.761l-1.328,0l-1.534,-4.263l-1.485,4.263l-1.298,0l2.171,-5.761l1.307,0Z" style="fill:#fff;fill-rule:nonzero;"/><path d="M252.572,13.893l0,5.761l-1.964,0c-0.744,0 -1.229,-0.028 -1.456,-0.086c-0.347,-0.087 -0.638,-0.275 -0.872,-0.564c-0.234,-0.29 -0.352,-0.664 -0.352,-1.122c0,-0.354 0.068,-0.651 0.203,-0.892c0.135,-0.241 0.307,-0.43 0.515,-0.568c0.208,-0.137 0.42,-0.228 0.635,-0.273c0.292,-0.055 0.715,-0.083 1.269,-0.083l0.798,0l0,-2.173l1.224,0Zm-1.224,4.787l0,-1.635l-0.67,-0c-0.482,-0 -0.805,0.03 -0.967,0.09c-0.163,0.061 -0.29,0.155 -0.383,0.283c-0.092,0.129 -0.138,0.278 -0.138,0.448c-0,0.21 0.064,0.383 0.194,0.519c0.13,0.136 0.294,0.221 0.492,0.255c0.146,0.027 0.44,0.04 0.881,0.04l0.591,-0Z" style="fill:#fff;fill-rule:nonzero;"/><path d="M243.177,13.893l2.167,5.761l-1.328,0l-1.534,-4.263l-1.485,4.263l-1.298,0l2.171,-5.761l1.307,0Z" style="fill:#fff;fill-rule:nonzero;"/><path d="M239.062,13.893l-0,5.761l-1.191,0l-2.481,-3.847l-0,3.847l-1.138,0l0,-5.761l1.229,0l2.444,3.757l-0,-3.757l1.137,0Z" style="fill:#fff;fill-rule:nonzero;"/><path d="M226.197,15.422l-1.125,0.13c-0.036,-0.273 -0.133,-0.481 -0.29,-0.625c-0.157,-0.144 -0.347,-0.216 -0.57,-0.216c-0.24,-0 -0.442,0.086 -0.606,0.259c-0.164,0.173 -0.246,0.406 -0.246,0.7c-0,0.277 0.078,0.497 0.235,0.66c0.157,0.162 0.349,0.243 0.575,0.243c0.149,0 0.327,-0.027 0.534,-0.082l-0.129,0.9c-0.314,-0.008 -0.554,0.057 -0.719,0.194c-0.166,0.138 -0.248,0.321 -0.248,0.549c-0,0.193 0.06,0.348 0.182,0.463c0.121,0.116 0.282,0.173 0.484,0.173c0.198,0 0.368,-0.065 0.508,-0.196c0.141,-0.131 0.226,-0.323 0.257,-0.574l1.071,0.173c-0.075,0.348 -0.187,0.627 -0.337,0.835c-0.151,0.208 -0.36,0.372 -0.629,0.491c-0.269,0.119 -0.57,0.179 -0.904,0.179c-0.57,-0 -1.028,-0.173 -1.372,-0.519c-0.284,-0.283 -0.426,-0.602 -0.426,-0.959c-0,-0.505 0.29,-0.909 0.872,-1.21c-0.347,-0.071 -0.625,-0.229 -0.833,-0.476c-0.208,-0.246 -0.312,-0.543 -0.312,-0.892c-0,-0.505 0.194,-0.936 0.583,-1.292c0.388,-0.357 0.872,-0.535 1.451,-0.535c0.549,0 1.004,0.15 1.365,0.45c0.361,0.3 0.571,0.692 0.629,1.177Z" style="fill:#fff;fill-rule:nonzero;"/><path d="M219.166,13.893l0,1.16l2.482,-0l-0,0.966l-2.631,3.659l-0.976,-0l0,-3.655l-0.752,0l-0,-0.97l0.752,-0l0,-1.16l1.125,0Zm0,2.13l0,1.969l1.394,-1.969l-1.394,0Z" style="fill:#fff;fill-rule:nonzero;"/><path d="M212.07,15.422l-1.125,0.13c-0.036,-0.273 -0.132,-0.481 -0.289,-0.625c-0.158,-0.144 -0.348,-0.216 -0.571,-0.216c-0.24,-0 -0.442,0.086 -0.606,0.259c-0.164,0.173 -0.246,0.406 -0.246,0.7c-0,0.277 0.078,0.497 0.236,0.66c0.157,0.162 0.348,0.243 0.574,0.243c0.149,0 0.327,-0.027 0.534,-0.082l-0.128,0.9c-0.315,-0.008 -0.554,0.057 -0.72,0.194c-0.165,0.138 -0.248,0.321 -0.248,0.549c0,0.193 0.061,0.348 0.182,0.463c0.121,0.116 0.283,0.173 0.484,0.173c0.198,0 0.368,-0.065 0.509,-0.196c0.14,-0.131 0.226,-0.323 0.256,-0.574l1.071,0.173c-0.074,0.348 -0.187,0.627 -0.337,0.835c-0.15,0.208 -0.36,0.372 -0.629,0.491c-0.268,0.119 -0.57,0.179 -0.903,0.179c-0.571,-0 -1.029,-0.173 -1.373,-0.519c-0.284,-0.283 -0.426,-0.602 -0.426,-0.959c-0,-0.505 0.291,-0.909 0.872,-1.21c-0.347,-0.071 -0.625,-0.229 -0.833,-0.476c-0.208,-0.246 -0.312,-0.543 -0.312,-0.892c-0,-0.505 0.194,-0.936 0.583,-1.292c0.389,-0.357 0.873,-0.535 1.452,-0.535c0.548,0 1.003,0.15 1.364,0.45c0.361,0.3 0.571,0.692 0.629,1.177Z" style="fill:#fff;fill-rule:nonzero;"/><path d="M207.302,15.375l-1.158,0.114c-0.033,-0.249 -0.131,-0.446 -0.294,-0.592c-0.163,-0.145 -0.35,-0.218 -0.562,-0.218c-0.243,0 -0.448,0.094 -0.616,0.281c-0.169,0.188 -0.253,0.47 -0.253,0.847c0,0.354 0.084,0.619 0.25,0.796c0.167,0.177 0.384,0.265 0.652,0.265c0.333,0 0.633,-0.14 0.897,-0.42l0.943,0.129l-0.595,2.999l-3.073,-0l-0,-1.034l2.192,0l0.182,-0.978c-0.259,0.123 -0.524,0.184 -0.794,0.184c-0.516,0 -0.953,-0.178 -1.311,-0.534c-0.359,-0.356 -0.538,-0.819 -0.538,-1.387c0,-0.474 0.145,-0.898 0.434,-1.27c0.395,-0.508 0.942,-0.762 1.642,-0.762c0.56,0 1.016,0.143 1.369,0.428c0.353,0.286 0.564,0.67 0.633,1.152Z" style="fill:#fff;fill-rule:nonzero;"/><path d="M197.943,15.422l-1.125,0.13c-0.036,-0.273 -0.132,-0.481 -0.289,-0.625c-0.157,-0.144 -0.348,-0.216 -0.571,-0.216c-0.24,-0 -0.442,0.086 -0.606,0.259c-0.164,0.173 -0.246,0.406 -0.246,0.7c0,0.277 0.079,0.497 0.236,0.66c0.157,0.162 0.349,0.243 0.575,0.243c0.149,0 0.326,-0.027 0.533,-0.082l-0.128,0.9c-0.314,-0.008 -0.554,0.057 -0.72,0.194c-0.165,0.138 -0.248,0.321 -0.248,0.549c0,0.193 0.061,0.348 0.182,0.463c0.122,0.116 0.283,0.173 0.484,0.173c0.199,0 0.368,-0.065 0.509,-0.196c0.14,-0.131 0.226,-0.323 0.256,-0.574l1.071,0.173c-0.074,0.348 -0.186,0.627 -0.337,0.835c-0.15,0.208 -0.36,0.372 -0.628,0.491c-0.269,0.119 -0.57,0.179 -0.904,0.179c-0.571,-0 -1.028,-0.173 -1.373,-0.519c-0.284,-0.283 -0.426,-0.602 -0.426,-0.959c0,-0.505 0.291,-0.909 0.873,-1.21c-0.348,-0.071 -0.625,-0.229 -0.834,-0.476c-0.208,-0.246 -0.312,-0.543 -0.312,-0.892c0,-0.505 0.195,-0.936 0.583,-1.292c0.389,-0.357 0.873,-0.535 1.452,-0.535c0.548,0 1.003,0.15 1.365,0.45c0.361,0.3 0.57,0.692 0.628,1.177Z" style="fill:#fff;fill-rule:nonzero;"/><path d="M189.267,14.919l-0,-1.026l4.073,0c-0.044,0.388 -0.176,0.755 -0.397,1.103c-0.22,0.347 -0.656,0.807 -1.306,1.381c-0.524,0.464 -0.845,0.778 -0.964,0.943c-0.16,0.228 -0.24,0.453 -0.24,0.676c0,0.246 0.07,0.436 0.209,0.568c0.139,0.132 0.332,0.198 0.577,0.198c0.243,0 0.435,-0.069 0.579,-0.208c0.143,-0.139 0.226,-0.369 0.248,-0.692l1.158,0.11c-0.069,0.608 -0.285,1.044 -0.649,1.309c-0.364,0.265 -0.819,0.397 -1.365,0.397c-0.598,-0 -1.068,-0.153 -1.41,-0.46c-0.342,-0.306 -0.513,-0.688 -0.513,-1.143c-0,-0.26 0.049,-0.507 0.147,-0.741c0.098,-0.235 0.253,-0.48 0.465,-0.737c0.141,-0.17 0.394,-0.415 0.761,-0.735c0.367,-0.32 0.599,-0.532 0.697,-0.637c0.098,-0.104 0.177,-0.206 0.238,-0.306l-2.308,-0Z" style="fill:#fff;fill-rule:nonzero;"/><path d="M183.816,15.422l-1.124,0.13c-0.036,-0.273 -0.133,-0.481 -0.29,-0.625c-0.157,-0.144 -0.347,-0.216 -0.571,-0.216c-0.239,-0 -0.441,0.086 -0.605,0.259c-0.164,0.173 -0.246,0.406 -0.246,0.7c-0,0.277 0.078,0.497 0.235,0.66c0.157,0.162 0.349,0.243 0.575,0.243c0.149,0 0.327,-0.027 0.534,-0.082l-0.129,0.9c-0.314,-0.008 -0.554,0.057 -0.719,0.194c-0.166,0.138 -0.248,0.321 -0.248,0.549c-0,0.193 0.06,0.348 0.182,0.463c0.121,0.116 0.282,0.173 0.483,0.173c0.199,0 0.368,-0.065 0.509,-0.196c0.141,-0.131 0.226,-0.323 0.257,-0.574l1.071,0.173c-0.075,0.348 -0.187,0.627 -0.337,0.835c-0.151,0.208 -0.36,0.372 -0.629,0.491c-0.269,0.119 -0.57,0.179 -0.904,0.179c-0.57,-0 -1.028,-0.173 -1.373,-0.519c-0.284,-0.283 -0.426,-0.602 -0.426,-0.959c0,-0.505 0.291,-0.909 0.873,-1.21c-0.347,-0.071 -0.625,-0.229 -0.833,-0.476c-0.208,-0.246 -0.313,-0.543 -0.313,-0.892c0,-0.505 0.195,-0.936 0.584,-1.292c0.388,-0.357 0.872,-0.535 1.451,-0.535c0.549,0 1.004,0.15 1.365,0.45c0.361,0.3 0.571,0.692 0.628,1.177Z" style="fill:#fff;fill-rule:nonzero;"/><path d="M179.106,15.422l-1.125,0.13c-0.036,-0.273 -0.132,-0.481 -0.289,-0.625c-0.157,-0.144 -0.348,-0.216 -0.571,-0.216c-0.24,-0 -0.442,0.086 -0.606,0.259c-0.164,0.173 -0.246,0.406 -0.246,0.7c0,0.277 0.079,0.497 0.236,0.66c0.157,0.162 0.349,0.243 0.575,0.243c0.149,0 0.326,-0.027 0.533,-0.082l-0.128,0.9c-0.314,-0.008 -0.554,0.057 -0.72,0.194c-0.165,0.138 -0.248,0.321 -0.248,0.549c0,0.193 0.061,0.348 0.182,0.463c0.122,0.116 0.283,0.173 0.484,0.173c0.199,0 0.368,-0.065 0.509,-0.196c0.14,-0.131 0.226,-0.323 0.256,-0.574l1.071,0.173c-0.074,0.348 -0.186,0.627 -0.337,0.835c-0.15,0.208 -0.36,0.372 -0.628,0.491c-0.269,0.119 -0.57,0.179 -0.904,0.179c-0.571,-0 -1.028,-0.173 -1.373,-0.519c-0.284,-0.283 -0.426,-0.602 -0.426,-0.959c0,-0.505 0.291,-0.909 0.873,-1.21c-0.348,-0.071 -0.625,-0.229 -0.834,-0.476c-0.208,-0.246 -0.312,-0.543 -0.312,-0.892c0,-0.505 0.195,-0.936 0.583,-1.292c0.389,-0.357 0.873,-0.535 1.452,-0.535c0.548,0 1.003,0.15 1.365,0.45c0.361,0.3 0.57,0.692 0.628,1.177Z" style="fill:#fff;fill-rule:nonzero;"/><path d="M165.724,14.919l-0,-1.026l4.073,0c-0.044,0.388 -0.176,0.755 -0.397,1.103c-0.22,0.347 -0.656,0.807 -1.307,1.381c-0.523,0.464 -0.845,0.778 -0.963,0.943c-0.16,0.228 -0.24,0.453 -0.24,0.676c0,0.246 0.07,0.436 0.209,0.568c0.139,0.132 0.331,0.198 0.577,0.198c0.242,0 0.435,-0.069 0.579,-0.208c0.143,-0.139 0.226,-0.369 0.248,-0.692l1.158,0.11c-0.069,0.608 -0.286,1.044 -0.649,1.309c-0.364,0.265 -0.819,0.397 -1.365,0.397c-0.598,-0 -1.069,-0.153 -1.41,-0.46c-0.342,-0.306 -0.513,-0.688 -0.513,-1.143c-0,-0.26 0.049,-0.507 0.147,-0.741c0.098,-0.235 0.253,-0.48 0.465,-0.737c0.14,-0.17 0.394,-0.415 0.761,-0.735c0.366,-0.32 0.599,-0.532 0.697,-0.637c0.097,-0.104 0.177,-0.206 0.237,-0.306l-2.307,-0Z" style="fill:#fff;fill-rule:nonzero;"/><path d="M164.922,15.375l-1.158,0.114c-0.033,-0.249 -0.131,-0.446 -0.294,-0.592c-0.163,-0.145 -0.35,-0.218 -0.562,-0.218c-0.243,0 -0.448,0.094 -0.617,0.281c-0.168,0.188 -0.252,0.47 -0.252,0.847c0,0.354 0.084,0.619 0.25,0.796c0.167,0.177 0.384,0.265 0.652,0.265c0.333,0 0.632,-0.14 0.897,-0.42l0.943,0.129l-0.596,2.999l-3.072,-0l-0,-1.034l2.192,0l0.182,-0.978c-0.26,0.123 -0.524,0.184 -0.794,0.184c-0.516,0 -0.953,-0.178 -1.311,-0.534c-0.359,-0.356 -0.538,-0.819 -0.538,-1.387c-0,-0.474 0.145,-0.898 0.434,-1.27c0.394,-0.508 0.942,-0.762 1.642,-0.762c0.56,0 1.016,0.143 1.369,0.428c0.353,0.286 0.564,0.67 0.633,1.152Z" style="fill:#fff;fill-rule:nonzero;"/><path d="M149.244,14.919l0,-1.026l4.073,0c-0.044,0.388 -0.176,0.755 -0.397,1.103c-0.22,0.347 -0.656,0.807 -1.306,1.381c-0.524,0.464 -0.845,0.778 -0.964,0.943c-0.16,0.228 -0.24,0.453 -0.24,0.676c0,0.246 0.07,0.436 0.209,0.568c0.139,0.132 0.332,0.198 0.577,0.198c0.243,0 0.436,-0.069 0.579,-0.208c0.143,-0.139 0.226,-0.369 0.248,-0.692l1.158,0.11c-0.069,0.608 -0.285,1.044 -0.649,1.309c-0.364,0.265 -0.819,0.397 -1.365,0.397c-0.598,-0 -1.068,-0.153 -1.41,-0.46c-0.342,-0.306 -0.513,-0.688 -0.513,-1.143c0,-0.26 0.049,-0.507 0.147,-0.741c0.098,-0.235 0.253,-0.48 0.465,-0.737c0.141,-0.17 0.394,-0.415 0.761,-0.735c0.367,-0.32 0.599,-0.532 0.697,-0.637c0.098,-0.104 0.177,-0.206 0.238,-0.306l-2.308,-0Z" style="fill:#fff;fill-rule:nonzero;"/><path d="M144.521,18.244l1.125,-0.118c0.028,0.22 0.099,0.382 0.215,0.487c0.116,0.105 0.266,0.157 0.451,0.157c0.245,0 0.453,-0.105 0.622,-0.314c0.17,-0.21 0.277,-0.646 0.321,-1.309c-0.29,0.325 -0.649,0.487 -1.079,0.487c-0.486,0 -0.901,-0.175 -1.247,-0.526c-0.346,-0.351 -0.519,-0.804 -0.519,-1.36c-0,-0.589 0.182,-1.062 0.546,-1.418c0.363,-0.357 0.831,-0.535 1.401,-0.535c0.613,0 1.116,0.226 1.51,0.678c0.394,0.452 0.591,1.193 0.591,2.222c0,1.056 -0.205,1.817 -0.616,2.283c-0.411,0.467 -0.944,0.7 -1.6,0.7c-0.461,-0 -0.842,-0.123 -1.144,-0.368c-0.302,-0.244 -0.494,-0.6 -0.577,-1.066Zm2.635,-2.409c-0,-0.359 -0.087,-0.636 -0.261,-0.832c-0.174,-0.195 -0.372,-0.292 -0.595,-0.292c-0.215,-0 -0.395,0.08 -0.538,0.239c-0.143,0.16 -0.215,0.422 -0.215,0.786c-0,0.375 0.077,0.649 0.232,0.824c0.154,0.174 0.347,0.261 0.578,0.261c0.224,-0 0.413,-0.083 0.567,-0.25c0.154,-0.166 0.232,-0.412 0.232,-0.736Z" style="fill:#fff;fill-rule:nonzero;"/><path d="M132.764,14.919l0,-1.026l4.074,0c-0.044,0.388 -0.177,0.755 -0.397,1.103c-0.221,0.347 -0.656,0.807 -1.307,1.381c-0.524,0.464 -0.845,0.778 -0.964,0.943c-0.16,0.228 -0.24,0.453 -0.24,0.676c0,0.246 0.07,0.436 0.209,0.568c0.14,0.132 0.332,0.198 0.577,0.198c0.243,0 0.436,-0.069 0.579,-0.208c0.144,-0.139 0.226,-0.369 0.248,-0.692l1.158,0.11c-0.069,0.608 -0.285,1.044 -0.649,1.309c-0.364,0.265 -0.819,0.397 -1.365,0.397c-0.598,-0 -1.068,-0.153 -1.41,-0.46c-0.342,-0.306 -0.513,-0.688 -0.513,-1.143c0,-0.26 0.049,-0.507 0.147,-0.741c0.098,-0.235 0.253,-0.48 0.465,-0.737c0.141,-0.17 0.395,-0.415 0.761,-0.735c0.367,-0.32 0.599,-0.532 0.697,-0.637c0.098,-0.104 0.177,-0.206 0.238,-0.306l-2.308,-0Z" style="fill:#fff;fill-rule:nonzero;"/><path d="M131.979,18.55l-0,1.026l-3.975,-0l0,-0.802c0.328,-0.306 0.662,-0.747 1.001,-1.32c0.339,-0.574 0.598,-1.184 0.776,-1.83c0.177,-0.645 0.265,-1.222 0.262,-1.731l1.121,0c-0.019,0.797 -0.192,1.609 -0.519,2.437c-0.327,0.828 -0.763,1.568 -1.309,2.22l2.643,0Z" style="fill:#fff;fill-rule:nonzero;"/><path d="M121.942,13.893l1.162,0l-0,4.162c0.424,-0.377 0.925,-0.656 1.501,-0.837l0,1.002c-0.303,0.094 -0.633,0.273 -0.988,0.536c-0.356,0.264 -0.6,0.571 -0.732,0.922l-0.943,-0l-0,-5.785Z" style="fill:#fff;fill-rule:nonzero;"/><path d="M117.926,13.893l0,1.16l2.482,-0l-0,0.966l-2.631,3.659l-0.976,-0l0,-3.655l-0.752,0l-0,-0.97l0.752,-0l0,-1.16l1.125,0Zm0,2.13l0,1.969l1.394,-1.969l-1.394,0Z" style="fill:#fff;fill-rule:nonzero;"/><path d="M107.815,13.893l1.162,0l0,4.162c0.425,-0.377 0.925,-0.656 1.501,-0.837l0,1.002c-0.303,0.094 -0.632,0.273 -0.988,0.536c-0.356,0.264 -0.6,0.571 -0.732,0.922l-0.943,-0l0,-5.785Z" style="fill:#fff;fill-rule:nonzero;"/><path d="M102.154,14.919l-0,-1.026l4.073,0c-0.044,0.388 -0.176,0.755 -0.397,1.103c-0.221,0.347 -0.656,0.807 -1.307,1.381c-0.524,0.464 -0.845,0.778 -0.963,0.943c-0.16,0.228 -0.24,0.453 -0.24,0.676c-0,0.246 0.069,0.436 0.209,0.568c0.139,0.132 0.331,0.198 0.577,0.198c0.242,0 0.435,-0.069 0.579,-0.208c0.143,-0.139 0.226,-0.369 0.248,-0.692l1.158,0.11c-0.069,0.608 -0.286,1.044 -0.65,1.309c-0.364,0.265 -0.818,0.397 -1.364,0.397c-0.599,-0 -1.069,-0.153 -1.411,-0.46c-0.341,-0.306 -0.512,-0.688 -0.512,-1.143c-0,-0.26 0.049,-0.507 0.146,-0.741c0.098,-0.235 0.253,-0.48 0.466,-0.737c0.14,-0.17 0.394,-0.415 0.761,-0.735c0.366,-0.32 0.599,-0.532 0.696,-0.637c0.098,-0.104 0.178,-0.206 0.238,-0.306l-2.307,-0Z" style="fill:#fff;fill-rule:nonzero;"/><path d="M95.938,16.011l0,0.971l-2.638,0l-0,-2.295c0.256,-0.236 0.628,-0.443 1.114,-0.623c0.487,-0.179 0.98,-0.269 1.479,-0.269c0.634,0 1.186,0.126 1.658,0.379c0.471,0.253 0.826,0.615 1.063,1.085c0.237,0.47 0.355,0.982 0.355,1.534c0,0.6 -0.132,1.134 -0.397,1.6c-0.264,0.466 -0.652,0.824 -1.162,1.073c-0.388,0.191 -0.872,0.287 -1.451,0.287c-0.753,-0 -1.341,-0.15 -1.764,-0.45c-0.423,-0.3 -0.695,-0.715 -0.817,-1.244l1.216,-0.216c0.085,0.283 0.246,0.506 0.482,0.67c0.236,0.163 0.53,0.245 0.883,0.245c0.535,0 0.96,-0.161 1.276,-0.483c0.315,-0.322 0.473,-0.8 0.473,-1.434c0,-0.684 -0.16,-1.197 -0.48,-1.539c-0.319,-0.342 -0.739,-0.513 -1.257,-0.513c-0.256,0 -0.513,0.048 -0.771,0.144c-0.258,0.095 -0.479,0.211 -0.664,0.348l0,0.73l1.402,0Z" style="fill:#fff;fill-rule:nonzero;"/><path d="M92.158,13.893l0,5.761l-1.191,0l-2.481,-3.847l-0,3.847l-1.137,0l-0,-5.761l1.228,0l2.444,3.757l-0,-3.757l1.137,0Z" style="fill:#fff;fill-rule:nonzero;"/><path d="M86.058,19.654l-2.237,0c-0.504,0 -0.889,-0.036 -1.154,-0.11c-0.355,-0.099 -0.66,-0.276 -0.914,-0.53c-0.253,-0.254 -0.446,-0.565 -0.579,-0.934c-0.132,-0.368 -0.198,-0.822 -0.198,-1.361c-0,-0.474 0.062,-0.883 0.186,-1.226c0.152,-0.419 0.368,-0.759 0.649,-1.018c0.213,-0.197 0.499,-0.35 0.861,-0.46c0.27,-0.081 0.631,-0.122 1.083,-0.122l2.303,0l0,5.761Zm-1.224,-0.974l0,-3.816l-0.914,-0c-0.341,-0 -0.588,0.018 -0.74,0.055c-0.198,0.047 -0.363,0.127 -0.494,0.24c-0.131,0.112 -0.238,0.298 -0.321,0.556c-0.082,0.258 -0.124,0.61 -0.124,1.055c0,0.445 0.042,0.787 0.124,1.026c0.083,0.238 0.199,0.424 0.348,0.558c0.149,0.133 0.338,0.224 0.566,0.271c0.171,0.036 0.506,0.055 1.005,0.055l0.55,-0Z" style="fill:#fff;fill-rule:nonzero;"/><path d="M74.868,13.893l1.162,0l-0,4.162c0.425,-0.377 0.925,-0.656 1.501,-0.837l0,1.002c-0.303,0.094 -0.633,0.273 -0.988,0.536c-0.356,0.264 -0.6,0.571 -0.732,0.922l-0.943,-0l-0,-5.785Z" style="fill:#fff;fill-rule:nonzero;"/><path d="M73.172,15.422l-1.124,0.13c-0.036,-0.273 -0.133,-0.481 -0.29,-0.625c-0.157,-0.144 -0.347,-0.216 -0.571,-0.216c-0.239,-0 -0.441,0.086 -0.605,0.259c-0.165,0.173 -0.247,0.406 -0.247,0.7c0,0.277 0.079,0.497 0.236,0.66c0.157,0.162 0.349,0.243 0.575,0.243c0.149,0 0.327,-0.027 0.533,-0.082l-0.128,0.9c-0.314,-0.008 -0.554,0.057 -0.719,0.194c-0.166,0.138 -0.248,0.321 -0.248,0.549c-0,0.193 0.06,0.348 0.182,0.463c0.121,0.116 0.282,0.173 0.483,0.173c0.199,0 0.368,-0.065 0.509,-0.196c0.141,-0.131 0.226,-0.323 0.256,-0.574l1.072,0.173c-0.075,0.348 -0.187,0.627 -0.337,0.835c-0.151,0.208 -0.36,0.372 -0.629,0.491c-0.269,0.119 -0.57,0.179 -0.904,0.179c-0.57,-0 -1.028,-0.173 -1.373,-0.519c-0.284,-0.283 -0.426,-0.602 -0.426,-0.959c0,-0.505 0.291,-0.909 0.873,-1.21c-0.347,-0.071 -0.625,-0.229 -0.833,-0.476c-0.208,-0.246 -0.313,-0.543 -0.313,-0.892c0,-0.505 0.195,-0.936 0.584,-1.292c0.388,-0.357 0.872,-0.535 1.451,-0.535c0.549,0 1.004,0.15 1.365,0.45c0.361,0.3 0.57,0.692 0.628,1.177Z" style="fill:#fff;fill-rule:nonzero;"/><path d="M65.815,19.654l-2.237,0c-0.504,0 -0.889,-0.036 -1.154,-0.11c-0.355,-0.099 -0.66,-0.276 -0.914,-0.53c-0.253,-0.254 -0.446,-0.565 -0.579,-0.934c-0.132,-0.368 -0.198,-0.822 -0.198,-1.361c-0,-0.474 0.062,-0.883 0.186,-1.226c0.152,-0.419 0.368,-0.759 0.649,-1.018c0.213,-0.197 0.499,-0.35 0.86,-0.46c0.271,-0.081 0.632,-0.122 1.084,-0.122l2.303,0l0,5.761Zm-1.224,-0.974l0,-3.816l-0.914,-0c-0.341,-0 -0.588,0.018 -0.74,0.055c-0.198,0.047 -0.363,0.127 -0.494,0.24c-0.131,0.112 -0.238,0.298 -0.321,0.556c-0.082,0.258 -0.124,0.61 -0.124,1.055c0,0.445 0.042,0.787 0.124,1.026c0.083,0.238 0.199,0.424 0.348,0.558c0.149,0.133 0.338,0.224 0.566,0.271c0.171,0.036 0.506,0.055 1.005,0.055l0.55,-0Z" style="fill:#fff;fill-rule:nonzero;"/><path d="M56.027,14.919l-0,-1.026l4.073,0c-0.044,0.388 -0.176,0.755 -0.397,1.103c-0.22,0.347 -0.656,0.807 -1.307,1.381c-0.523,0.464 -0.845,0.778 -0.963,0.943c-0.16,0.228 -0.24,0.453 -0.24,0.676c-0,0.246 0.07,0.436 0.209,0.568c0.139,0.132 0.331,0.198 0.577,0.198c0.242,0 0.435,-0.069 0.579,-0.208c0.143,-0.139 0.226,-0.369 0.248,-0.692l1.158,0.11c-0.069,0.608 -0.286,1.044 -0.65,1.309c-0.363,0.265 -0.818,0.397 -1.364,0.397c-0.598,-0 -1.069,-0.153 -1.41,-0.46c-0.342,-0.306 -0.513,-0.688 -0.513,-1.143c-0,-0.26 0.049,-0.507 0.147,-0.741c0.097,-0.235 0.253,-0.48 0.465,-0.737c0.14,-0.17 0.394,-0.415 0.761,-0.735c0.366,-0.32 0.599,-0.532 0.697,-0.637c0.097,-0.104 0.177,-0.206 0.237,-0.306l-2.307,-0Z" style="fill:#fff;fill-rule:nonzero;"/><path d="M52.636,19.654l-2.238,0c-0.504,0 -0.889,-0.036 -1.153,-0.11c-0.356,-0.099 -0.661,-0.276 -0.914,-0.53c-0.254,-0.254 -0.447,-0.565 -0.579,-0.934c-0.133,-0.368 -0.199,-0.822 -0.199,-1.361c0,-0.474 0.062,-0.883 0.186,-1.226c0.152,-0.419 0.368,-0.759 0.65,-1.018c0.212,-0.197 0.499,-0.35 0.86,-0.46c0.27,-0.081 0.631,-0.122 1.083,-0.122l2.304,0l-0,5.761Zm-1.224,-0.974l-0,-3.816l-0.914,-0c-0.342,-0 -0.589,0.018 -0.741,0.055c-0.198,0.047 -0.363,0.127 -0.494,0.24c-0.131,0.112 -0.238,0.298 -0.32,0.556c-0.083,0.258 -0.124,0.61 -0.124,1.055c-0,0.445 0.041,0.787 0.124,1.026c0.082,0.238 0.198,0.424 0.347,0.558c0.149,0.133 0.338,0.224 0.567,0.271c0.171,0.036 0.506,0.055 1.005,0.055l0.55,-0Z" style="fill:#fff;fill-rule:nonzero;"/><path d="M46.813,15.422l-1.125,0.13c-0.036,-0.273 -0.132,-0.481 -0.289,-0.625c-0.157,-0.144 -0.348,-0.216 -0.571,-0.216c-0.24,-0 -0.442,0.086 -0.606,0.259c-0.164,0.173 -0.246,0.406 -0.246,0.7c0,0.277 0.079,0.497 0.236,0.66c0.157,0.162 0.349,0.243 0.575,0.243c0.149,0 0.326,-0.027 0.533,-0.082l-0.128,0.9c-0.314,-0.008 -0.554,0.057 -0.72,0.194c-0.165,0.138 -0.248,0.321 -0.248,0.549c0,0.193 0.061,0.348 0.182,0.463c0.121,0.116 0.283,0.173 0.484,0.173c0.199,0 0.368,-0.065 0.509,-0.196c0.14,-0.131 0.226,-0.323 0.256,-0.574l1.071,0.173c-0.074,0.348 -0.187,0.627 -0.337,0.835c-0.15,0.208 -0.36,0.372 -0.628,0.491c-0.269,0.119 -0.57,0.179 -0.904,0.179c-0.571,-0 -1.028,-0.173 -1.373,-0.519c-0.284,-0.283 -0.426,-0.602 -0.426,-0.959c0,-0.505 0.291,-0.909 0.873,-1.21c-0.348,-0.071 -0.626,-0.229 -0.834,-0.476c-0.208,-0.246 -0.312,-0.543 -0.312,-0.892c0,-0.505 0.194,-0.936 0.583,-1.292c0.389,-0.357 0.873,-0.535 1.452,-0.535c0.548,0 1.003,0.15 1.364,0.45c0.362,0.3 0.571,0.692 0.629,1.177Z" style="fill:#fff;fill-rule:nonzero;"/><path d="M35.573,16.011l-1.187,-0.357c0.182,-0.629 0.485,-1.096 0.908,-1.401c0.423,-0.305 0.96,-0.458 1.61,-0.458c0.805,0 1.467,0.261 1.985,0.784c0.519,0.523 0.778,1.237 0.778,2.144c-0,0.959 -0.261,1.703 -0.782,2.234c-0.521,0.53 -1.206,0.796 -2.055,0.796c-0.742,-0 -1.344,-0.209 -1.807,-0.625c-0.276,-0.247 -0.483,-0.6 -0.62,-1.061l1.211,-0.275c0.072,0.298 0.221,0.534 0.449,0.707c0.227,0.173 0.504,0.259 0.829,0.259c0.449,0 0.814,-0.153 1.094,-0.459c0.28,-0.307 0.42,-0.803 0.42,-1.49c-0,-0.728 -0.138,-1.247 -0.414,-1.556c-0.276,-0.309 -0.634,-0.464 -1.075,-0.464c-0.325,0 -0.605,0.099 -0.84,0.295c-0.234,0.197 -0.402,0.506 -0.504,0.927Z" style="fill:#fff;fill-rule:nonzero;"/><path d="M33.352,13.893l0,5.761l-1.832,0l-1.1,-3.929l-1.088,3.929l-1.836,0l0,-5.761l1.138,0l-0,4.535l1.203,-4.535l1.179,0l1.199,4.535l-0,-4.535l1.137,0Z" style="fill:#fff;fill-rule:nonzero;"/><path d="M26.285,19.654l-2.238,0c-0.504,0 -0.889,-0.036 -1.153,-0.11c-0.356,-0.099 -0.661,-0.276 -0.914,-0.53c-0.254,-0.254 -0.447,-0.565 -0.579,-0.934c-0.133,-0.368 -0.199,-0.822 -0.199,-1.361c0,-0.474 0.062,-0.883 0.186,-1.226c0.152,-0.419 0.368,-0.759 0.65,-1.018c0.212,-0.197 0.499,-0.35 0.86,-0.46c0.27,-0.081 0.631,-0.122 1.083,-0.122l2.304,0l-0,5.761Zm-1.224,-0.974l-0,-3.816l-0.914,-0c-0.342,-0 -0.589,0.018 -0.741,0.055c-0.198,0.047 -0.363,0.127 -0.494,0.24c-0.131,0.112 -0.238,0.298 -0.32,0.556c-0.083,0.258 -0.124,0.61 -0.124,1.055c-0,0.445 0.041,0.787 0.124,1.026c0.082,0.238 0.198,0.424 0.347,0.558c0.149,0.133 0.338,0.224 0.567,0.271c0.171,0.036 0.505,0.055 1.005,0.055l0.55,-0Z" style="fill:#fff;fill-rule:nonzero;"/><path d="M18.051,15.375l-1.158,0.114c-0.033,-0.249 -0.131,-0.446 -0.294,-0.592c-0.162,-0.145 -0.35,-0.218 -0.562,-0.218c-0.243,0 -0.448,0.094 -0.616,0.281c-0.168,0.188 -0.252,0.47 -0.252,0.847c-0,0.354 0.083,0.619 0.25,0.796c0.167,0.177 0.384,0.265 0.651,0.265c0.334,0 0.633,-0.14 0.897,-0.42l0.943,0.129l-0.595,2.999l-3.073,-0l0,-1.034l2.192,0l0.182,-0.978c-0.259,0.123 -0.524,0.184 -0.794,0.184c-0.516,0 -0.953,-0.178 -1.311,-0.534c-0.358,-0.356 -0.538,-0.819 -0.538,-1.387c0,-0.474 0.145,-0.898 0.435,-1.27c0.394,-0.508 0.941,-0.762 1.641,-0.762c0.56,0 1.016,0.143 1.369,0.428c0.353,0.286 0.564,0.67 0.633,1.152Z" style="fill:#fff;fill-rule:nonzero;"/><path d="M11.554,13.893l2.167,5.761l-1.327,0l-1.535,-4.263l-1.484,4.263l-1.299,0l2.171,-5.761l1.307,0Z" style="fill:#fff;fill-rule:nonzero;"/><path d="M53.573,30.228l5.761,0l0,4.496l-0.974,-0l-0,-3.272l-1.277,0l-0,3.044l-0.971,0l-0,-3.044l-1.568,0l-0,3.387l-0.971,0l0,-4.611Z" style="fill:#fff;fill-rule:nonzero;"/><path d="M53.573,35.89l5.761,-0l0,1.191l-3.847,2.481l3.847,0l0,1.137l-5.761,0l0,-1.228l3.757,-2.444l-3.757,0l0,-1.137Z" style="fill:#fff;fill-rule:nonzero;"/><path d="M60.586,117.926l0,2.423c0,0.48 -0.019,0.837 -0.057,1.073c-0.038,0.236 -0.117,0.447 -0.237,0.633c-0.121,0.186 -0.281,0.341 -0.482,0.465c-0.2,0.124 -0.425,0.186 -0.674,0.186c-0.27,0 -0.517,-0.076 -0.743,-0.229c-0.225,-0.153 -0.394,-0.361 -0.506,-0.623c-0.103,0.37 -0.277,0.654 -0.523,0.852c-0.246,0.199 -0.536,0.298 -0.869,0.298c-0.262,-0 -0.516,-0.064 -0.764,-0.192c-0.248,-0.129 -0.445,-0.304 -0.593,-0.526c-0.148,-0.221 -0.239,-0.495 -0.273,-0.82c-0.021,-0.204 -0.035,-0.697 -0.04,-1.477l0,-2.063l5.761,-0Zm-0.959,1.224l-1.332,-0l0,0.802c0,0.477 0.007,0.773 0.02,0.889c0.023,0.21 0.092,0.374 0.206,0.494c0.114,0.12 0.264,0.18 0.45,0.18c0.178,0 0.323,-0.052 0.434,-0.155c0.112,-0.103 0.179,-0.257 0.203,-0.461c0.013,-0.121 0.019,-0.47 0.019,-1.046l0,-0.703Zm-2.291,-0l-1.54,-0l-0,1.133c-0,0.441 0.012,0.721 0.035,0.839c0.032,0.182 0.108,0.33 0.23,0.445c0.122,0.114 0.285,0.171 0.489,0.171c0.173,0 0.32,-0.044 0.441,-0.132c0.12,-0.088 0.208,-0.216 0.263,-0.382c0.055,-0.167 0.082,-0.529 0.082,-1.086l0,-0.988Z" style="fill:#c6c6c6;fill-rule:nonzero;"/><path d="M56.971,123.761c0.367,-0 0.722,0.095 1.065,0.285c0.343,0.19 0.605,0.46 0.786,0.809c0.181,0.348 0.271,0.738 0.271,1.168c-0,0.664 -0.205,1.209 -0.615,1.633c-0.41,0.425 -0.928,0.637 -1.554,0.637c-0.632,0 -1.155,-0.214 -1.57,-0.643c-0.415,-0.429 -0.623,-0.968 -0.623,-1.619c-0,-0.402 0.086,-0.786 0.259,-1.152c0.173,-0.365 0.427,-0.643 0.761,-0.833c0.334,-0.19 0.74,-0.285 1.22,-0.285Zm-0.059,1.191c-0.414,-0 -0.731,0.103 -0.951,0.31c-0.22,0.207 -0.33,0.462 -0.33,0.765c-0,0.303 0.11,0.558 0.33,0.763c0.22,0.205 0.54,0.308 0.959,0.308c0.408,0 0.723,-0.103 0.943,-0.308c0.22,-0.205 0.33,-0.46 0.33,-0.763c0,-0.303 -0.11,-0.558 -0.33,-0.765c-0.22,-0.207 -0.537,-0.31 -0.951,-0.31Z" style="fill:#c6c6c6;fill-rule:nonzero;"/><path d="M56.971,128.934c0.367,0 0.722,0.095 1.065,0.286c0.343,0.19 0.605,0.459 0.786,0.808c0.181,0.349 0.271,0.738 0.271,1.168c-0,0.665 -0.205,1.209 -0.615,1.634c-0.41,0.424 -0.928,0.637 -1.554,0.637c-0.632,-0 -1.155,-0.215 -1.57,-0.643c-0.415,-0.429 -0.623,-0.969 -0.623,-1.619c-0,-0.403 0.086,-0.787 0.259,-1.152c0.173,-0.365 0.427,-0.643 0.761,-0.833c0.334,-0.191 0.74,-0.286 1.22,-0.286Zm-0.059,1.191c-0.414,0 -0.731,0.104 -0.951,0.31c-0.22,0.207 -0.33,0.462 -0.33,0.765c-0,0.304 0.11,0.558 0.33,0.763c0.22,0.206 0.54,0.308 0.959,0.308c0.408,0 0.723,-0.102 0.943,-0.308c0.22,-0.205 0.33,-0.459 0.33,-0.763c0,-0.303 -0.11,-0.558 -0.33,-0.765c-0.22,-0.206 -0.537,-0.31 -0.951,-0.31Z" style="fill:#c6c6c6;fill-rule:nonzero;"/><path d="M58.999,136.39l-0.881,0l0,-0.794l-1.682,0c-0.34,0 -0.539,0.008 -0.595,0.023c-0.056,0.015 -0.103,0.05 -0.139,0.104c-0.037,0.053 -0.055,0.119 -0.055,0.196c-0,0.107 0.035,0.263 0.106,0.467l-0.857,0.1c-0.11,-0.271 -0.165,-0.577 -0.165,-0.919c-0,-0.209 0.033,-0.398 0.1,-0.566c0.067,-0.168 0.153,-0.292 0.259,-0.37c0.107,-0.079 0.25,-0.133 0.431,-0.164c0.128,-0.024 0.388,-0.037 0.778,-0.037l1.819,0l0,-0.533l0.881,-0l-0,0.533l0.829,0l0.644,1.166l-1.473,0l-0,0.794Z" style="fill:#c6c6c6;fill-rule:nonzero;"/><g><path d="M134.901,72.69l0,-11.565l-4.721,-0l0,11.565l4.721,0Z" style="fill:#adadad;"/><path d="M128.381,102.06l-0,-11.566l-17.948,0l0,11.566l17.948,-0Z" style="fill:#adadad;"/><path d="M121.674,72.69l-0,-11.565l-4.721,-0l-0,11.565l4.721,0Z" style="fill:#adadad;"/><path d="M108.617,72.69l0,-11.565l-4.721,-0l0,11.565l4.721,0Z" style="fill:#adadad;"/><path d="M136.708,90.494l0,-17.804l-34.79,0l-0,17.804l34.79,0Z" style="fill:#100b00;"/></g><path d="M11.578,146.932l1.186,0.358c-0.182,0.629 -0.484,1.096 -0.907,1.401c-0.423,0.305 -0.96,0.458 -1.611,0.458c-0.805,-0 -1.467,-0.262 -1.985,-0.784c-0.518,-0.523 -0.778,-1.237 -0.778,-2.144c0,-0.959 0.261,-1.703 0.782,-2.234c0.521,-0.53 1.206,-0.796 2.055,-0.796c0.742,0 1.344,0.209 1.808,0.625c0.275,0.246 0.482,0.6 0.62,1.061l-1.212,0.275c-0.071,-0.298 -0.221,-0.534 -0.448,-0.707c-0.228,-0.173 -0.504,-0.26 -0.83,-0.26c-0.449,0 -0.814,0.154 -1.093,0.46c-0.28,0.307 -0.42,0.803 -0.42,1.49c-0,0.728 0.138,1.247 0.413,1.556c0.276,0.309 0.634,0.464 1.076,0.464c0.325,-0 0.605,-0.099 0.839,-0.295c0.234,-0.197 0.403,-0.506 0.505,-0.928Z" style="fill:#fff;fill-rule:nonzero;"/><path d="M13.848,149.051l-0,-5.714l1.224,-0l0,4.743l3.044,-0l-0,0.971l-4.268,-0Z" style="fill:#fff;fill-rule:nonzero;"/><path d="M19.005,149.051l-0,-5.761l1.224,-0l-0,2.558l2.473,-2.558l1.646,-0l-2.283,2.243l2.407,3.518l-1.584,-0l-1.667,-2.704l-0.992,0.963l-0,1.741l-1.224,-0Z" style="fill:#fff;fill-rule:nonzero;"/><path d="M27.454,143.29l2.237,-0c0.504,-0 0.889,0.036 1.154,0.11c0.355,0.099 0.66,0.276 0.914,0.53c0.253,0.254 0.446,0.565 0.579,0.933c0.132,0.368 0.198,0.822 0.198,1.362c0,0.474 -0.062,0.883 -0.186,1.226c-0.152,0.419 -0.368,0.759 -0.649,1.018c-0.213,0.196 -0.499,0.35 -0.86,0.46c-0.271,0.081 -0.632,0.122 -1.084,0.122l-2.303,-0l-0,-5.761Zm1.224,0.974l-0,3.816l0.914,-0c0.341,-0 0.588,-0.018 0.74,-0.055c0.198,-0.047 0.363,-0.127 0.494,-0.24c0.131,-0.112 0.238,-0.298 0.321,-0.556c0.082,-0.258 0.124,-0.61 0.124,-1.055c-0,-0.445 -0.042,-0.787 -0.124,-1.026c-0.083,-0.238 -0.199,-0.424 -0.348,-0.558c-0.149,-0.133 -0.338,-0.224 -0.566,-0.271c-0.171,-0.037 -0.506,-0.055 -1.005,-0.055l-0.55,0Z" style="fill:#fff;fill-rule:nonzero;"/><path d="M35.282,143.266c0.587,-0 1.046,0.199 1.377,0.597c0.394,0.472 0.591,1.254 0.591,2.346c0,1.09 -0.198,1.874 -0.595,2.35c-0.328,0.393 -0.786,0.59 -1.373,0.59c-0.59,-0 -1.066,-0.216 -1.427,-0.647c-0.361,-0.431 -0.541,-1.199 -0.541,-2.304c-0,-1.085 0.198,-1.866 0.595,-2.343c0.328,-0.393 0.786,-0.589 1.373,-0.589Zm-0,0.916c-0.141,-0 -0.266,0.042 -0.376,0.127c-0.111,0.085 -0.196,0.238 -0.257,0.458c-0.08,0.286 -0.12,0.766 -0.12,1.442c0,0.676 0.036,1.141 0.108,1.393c0.072,0.253 0.162,0.422 0.271,0.505c0.109,0.084 0.233,0.126 0.374,0.126c0.141,0 0.266,-0.042 0.376,-0.128c0.111,-0.085 0.196,-0.237 0.257,-0.457c0.08,-0.283 0.12,-0.763 0.12,-1.439c-0,-0.676 -0.036,-1.14 -0.108,-1.393c-0.072,-0.253 -0.162,-0.422 -0.271,-0.507c-0.109,-0.085 -0.233,-0.127 -0.374,-0.127Z" style="fill:#fff;fill-rule:nonzero;"/><path d="M40.633,143.29l2.238,-0c0.504,-0 0.889,0.036 1.153,0.11c0.356,0.099 0.661,0.276 0.914,0.53c0.254,0.254 0.447,0.565 0.579,0.933c0.133,0.368 0.199,0.822 0.199,1.362c-0,0.474 -0.062,0.883 -0.186,1.226c-0.152,0.419 -0.368,0.759 -0.65,1.018c-0.212,0.196 -0.499,0.35 -0.86,0.46c-0.27,0.081 -0.631,0.122 -1.083,0.122l-2.304,-0l0,-5.761Zm1.224,0.974l0,3.816l0.914,-0c0.342,-0 0.589,-0.018 0.741,-0.055c0.198,-0.047 0.363,-0.127 0.494,-0.24c0.131,-0.112 0.238,-0.298 0.32,-0.556c0.083,-0.258 0.124,-0.61 0.124,-1.055c0,-0.445 -0.041,-0.787 -0.124,-1.026c-0.082,-0.238 -0.198,-0.424 -0.347,-0.558c-0.149,-0.133 -0.338,-0.224 -0.567,-0.271c-0.171,-0.037 -0.506,-0.055 -1.005,-0.055l-0.55,0Z" style="fill:#fff;fill-rule:nonzero;"/><path d="M49.471,149.051l-1.162,-0l-0,-4.162c-0.425,0.377 -0.925,0.656 -1.502,0.837l0,-1.002c0.304,-0.094 0.633,-0.273 0.989,-0.537c0.356,-0.263 0.6,-0.57 0.732,-0.921l0.943,-0l-0,5.785Z" style="fill:#fff;fill-rule:nonzero;"/><path d="M58.887,149.051l-1.162,-0l0,-4.162c-0.424,0.377 -0.925,0.656 -1.501,0.837l-0,-1.002c0.303,-0.094 0.633,-0.273 0.988,-0.537c0.356,-0.263 0.6,-0.57 0.732,-0.921l0.943,-0l0,5.785Z" style="fill:#fff;fill-rule:nonzero;"/><path d="M60.641,147.569l1.158,-0.114c0.033,0.249 0.13,0.446 0.293,0.591c0.163,0.146 0.35,0.219 0.563,0.219c0.242,-0 0.448,-0.094 0.616,-0.281c0.168,-0.188 0.252,-0.47 0.252,-0.847c-0,-0.354 -0.083,-0.619 -0.25,-0.796c-0.167,-0.177 -0.384,-0.265 -0.652,-0.265c-0.333,-0 -0.632,0.14 -0.897,0.42l-0.943,-0.129l0.596,-2.999l3.072,0l0,1.034l-2.191,-0l-0.182,0.978c0.259,-0.123 0.523,-0.185 0.794,-0.185c0.515,0 0.952,0.179 1.311,0.535c0.358,0.356 0.537,0.819 0.537,1.387c0,0.474 -0.145,0.897 -0.434,1.269c-0.394,0.509 -0.942,0.763 -1.642,0.763c-0.56,-0 -1.016,-0.143 -1.369,-0.429c-0.353,-0.285 -0.563,-0.669 -0.632,-1.151Z" style="fill:#fff;fill-rule:nonzero;"/><path d="M76.318,148.025l0,1.026l-4.073,-0c0.044,-0.388 0.176,-0.756 0.397,-1.103c0.22,-0.347 0.656,-0.807 1.306,-1.381c0.524,-0.464 0.845,-0.778 0.964,-0.943c0.16,-0.228 0.24,-0.453 0.24,-0.676c-0,-0.246 -0.07,-0.436 -0.209,-0.568c-0.139,-0.132 -0.331,-0.198 -0.577,-0.198c-0.242,-0 -0.435,0.069 -0.579,0.208c-0.143,0.139 -0.226,0.369 -0.248,0.691l-1.158,-0.11c0.069,-0.607 0.285,-1.044 0.649,-1.308c0.364,-0.265 0.819,-0.397 1.365,-0.397c0.598,-0 1.068,0.153 1.41,0.46c0.342,0.306 0.513,0.687 0.513,1.143c0,0.26 -0.049,0.507 -0.147,0.741c-0.098,0.235 -0.253,0.48 -0.465,0.737c-0.141,0.17 -0.394,0.415 -0.761,0.735c-0.367,0.319 -0.599,0.532 -0.697,0.636c-0.098,0.105 -0.177,0.207 -0.237,0.307l2.307,-0Z" style="fill:#fff;fill-rule:nonzero;"/><path d="M88.48,143.266c0.588,-0 1.047,0.199 1.378,0.597c0.394,0.472 0.591,1.254 0.591,2.346c-0,1.09 -0.199,1.874 -0.596,2.35c-0.328,0.393 -0.785,0.59 -1.373,0.59c-0.59,-0 -1.065,-0.216 -1.426,-0.647c-0.361,-0.431 -0.542,-1.199 -0.542,-2.304c-0,-1.085 0.198,-1.866 0.595,-2.343c0.329,-0.393 0.786,-0.589 1.373,-0.589Zm0,0.916c-0.14,-0 -0.266,0.042 -0.376,0.127c-0.11,0.085 -0.196,0.238 -0.256,0.458c-0.08,0.286 -0.12,0.766 -0.12,1.442c-0,0.676 0.036,1.141 0.107,1.393c0.072,0.253 0.162,0.422 0.271,0.505c0.109,0.084 0.234,0.126 0.374,0.126c0.141,0 0.267,-0.042 0.377,-0.128c0.11,-0.085 0.196,-0.237 0.256,-0.457c0.08,-0.283 0.12,-0.763 0.12,-1.439c0,-0.676 -0.036,-1.14 -0.107,-1.393c-0.072,-0.253 -0.162,-0.422 -0.271,-0.507c-0.109,-0.085 -0.234,-0.127 -0.375,-0.127Z" style="fill:#fff;fill-rule:nonzero;"/><path d="M102.917,149.051l0,-1.16l-2.481,0l0,-0.966l2.63,-3.659l0.976,-0l0,3.655l0.753,-0l-0,0.97l-0.753,0l0,1.16l-1.125,-0Zm0,-2.13l0,-1.969l-1.393,1.969l1.393,-0Z" style="fill:#fff;fill-rule:nonzero;"/><path d="M117.735,149.051l-1.162,-0l-0,-4.162c-0.425,0.377 -0.925,0.656 -1.502,0.837l0,-1.002c0.304,-0.094 0.633,-0.273 0.989,-0.537c0.355,-0.263 0.599,-0.57 0.732,-0.921l0.943,-0l-0,5.785Z" style="fill:#fff;fill-rule:nonzero;"/><path d="M123.408,144.7l-1.124,0.118c-0.028,-0.22 -0.1,-0.382 -0.215,-0.487c-0.116,-0.105 -0.266,-0.157 -0.451,-0.157c-0.246,-0 -0.453,0.105 -0.623,0.314c-0.169,0.21 -0.276,0.646 -0.32,1.309c0.289,-0.325 0.649,-0.488 1.079,-0.488c0.486,0 0.901,0.176 1.247,0.527c0.346,0.351 0.519,0.804 0.519,1.36c0,0.589 -0.182,1.062 -0.546,1.418c-0.364,0.357 -0.831,0.535 -1.402,0.535c-0.612,-0 -1.115,-0.226 -1.509,-0.678c-0.394,-0.452 -0.591,-1.193 -0.591,-2.222c-0,-1.056 0.205,-1.817 0.616,-2.284c0.411,-0.466 0.944,-0.699 1.6,-0.699c0.461,-0 0.842,0.122 1.144,0.367c0.301,0.245 0.494,0.601 0.576,1.067Zm-2.634,2.409c0,0.359 0.087,0.636 0.261,0.831c0.173,0.196 0.372,0.293 0.595,0.293c0.215,0 0.394,-0.08 0.538,-0.24c0.143,-0.159 0.215,-0.421 0.215,-0.786c-0,-0.374 -0.077,-0.649 -0.232,-0.823c-0.154,-0.174 -0.347,-0.261 -0.579,-0.261c-0.223,-0 -0.412,0.083 -0.566,0.249c-0.155,0.167 -0.232,0.412 -0.232,0.737Z" style="fill:#fff;fill-rule:nonzero;"/><path d="M131.861,149.051l-1.162,-0l0,-4.162c-0.424,0.377 -0.925,0.656 -1.501,0.837l0,-1.002c0.303,-0.094 0.633,-0.273 0.988,-0.537c0.356,-0.263 0.6,-0.57 0.732,-0.921l0.943,-0l0,5.785Z" style="fill:#fff;fill-rule:nonzero;"/><path d="M133.598,144.394l0,-1.026l3.974,0l0,0.802c-0.328,0.306 -0.661,0.746 -1,1.32c-0.339,0.574 -0.598,1.184 -0.776,1.829c-0.178,0.646 -0.265,1.223 -0.262,1.732l-1.121,-0c0.019,-0.797 0.192,-1.609 0.519,-2.437c0.327,-0.828 0.763,-1.568 1.309,-2.22l-2.643,-0Z" style="fill:#fff;fill-rule:nonzero;"/><path d="M145.384,147.569l1.158,-0.114c0.033,0.249 0.131,0.446 0.294,0.591c0.162,0.146 0.35,0.219 0.562,0.219c0.243,-0 0.448,-0.094 0.616,-0.281c0.169,-0.188 0.253,-0.47 0.253,-0.847c-0,-0.354 -0.084,-0.619 -0.25,-0.796c-0.167,-0.177 -0.384,-0.265 -0.652,-0.265c-0.333,-0 -0.633,0.14 -0.897,0.42l-0.943,-0.129l0.595,-2.999l3.073,0l0,1.034l-2.192,-0l-0.182,0.978c0.259,-0.123 0.524,-0.185 0.794,-0.185c0.516,0 0.953,0.179 1.311,0.535c0.359,0.356 0.538,0.819 0.538,1.387c-0,0.474 -0.145,0.897 -0.434,1.269c-0.395,0.509 -0.942,0.763 -1.642,0.763c-0.56,-0 -1.016,-0.143 -1.369,-0.429c-0.353,-0.285 -0.564,-0.669 -0.633,-1.151Z" style="fill:#fff;fill-rule:nonzero;"/><path d="M162.464,149.051l-1.162,-0l-0,-4.162c-0.425,0.377 -0.925,0.656 -1.502,0.837l0,-1.002c0.304,-0.094 0.633,-0.273 0.989,-0.537c0.355,-0.263 0.599,-0.57 0.732,-0.921l0.943,-0l-0,5.785Z" style="fill:#fff;fill-rule:nonzero;"/><path d="M165.197,145.942c-0.3,-0.12 -0.519,-0.286 -0.655,-0.497c-0.137,-0.211 -0.205,-0.442 -0.205,-0.694c0,-0.429 0.158,-0.784 0.474,-1.065c0.315,-0.28 0.764,-0.42 1.346,-0.42c0.576,-0 1.023,0.14 1.342,0.42c0.318,0.281 0.477,0.636 0.477,1.065c0,0.268 -0.073,0.505 -0.219,0.714c-0.146,0.208 -0.351,0.367 -0.616,0.477c0.336,0.128 0.592,0.316 0.767,0.562c0.175,0.246 0.263,0.531 0.263,0.853c-0,0.532 -0.179,0.964 -0.536,1.297c-0.357,0.332 -0.832,0.499 -1.425,0.499c-0.551,-0 -1.01,-0.138 -1.377,-0.413c-0.433,-0.325 -0.649,-0.77 -0.649,-1.336c0,-0.312 0.081,-0.598 0.244,-0.859c0.163,-0.26 0.419,-0.461 0.769,-0.603Zm0.24,-1.112c0,0.22 0.066,0.392 0.197,0.515c0.13,0.123 0.305,0.184 0.523,0.184c0.22,0 0.397,-0.062 0.529,-0.186c0.132,-0.125 0.199,-0.297 0.199,-0.517c-0,-0.207 -0.066,-0.373 -0.197,-0.497c-0.131,-0.125 -0.304,-0.187 -0.519,-0.187c-0.223,0 -0.401,0.063 -0.533,0.189c-0.133,0.126 -0.199,0.292 -0.199,0.499Zm-0.107,2.468c-0,0.304 0.082,0.541 0.246,0.711c0.164,0.17 0.368,0.256 0.614,0.256c0.24,-0 0.438,-0.082 0.595,-0.246c0.157,-0.164 0.236,-0.4 0.236,-0.709c-0,-0.27 -0.08,-0.487 -0.24,-0.651c-0.16,-0.163 -0.362,-0.245 -0.608,-0.245c-0.284,-0 -0.495,0.093 -0.635,0.279c-0.139,0.186 -0.208,0.387 -0.208,0.605Z" style="fill:#fff;fill-rule:nonzero;"/><path d="M176.59,149.051l-1.162,-0l0,-4.162c-0.424,0.377 -0.925,0.656 -1.501,0.837l0,-1.002c0.303,-0.094 0.633,-0.273 0.989,-0.537c0.355,-0.263 0.599,-0.57 0.732,-0.921l0.942,-0l0,5.785Z" style="fill:#fff;fill-rule:nonzero;"/><path d="M178.352,147.718l1.125,-0.118c0.028,0.218 0.099,0.379 0.215,0.484c0.116,0.105 0.269,0.157 0.459,0.157c0.24,0 0.444,-0.105 0.612,-0.314c0.168,-0.21 0.276,-0.645 0.323,-1.305c-0.293,0.322 -0.658,0.483 -1.096,0.483c-0.477,0 -0.889,-0.175 -1.235,-0.524c-0.346,-0.35 -0.519,-0.805 -0.519,-1.366c0,-0.584 0.183,-1.055 0.548,-1.413c0.366,-0.357 0.831,-0.536 1.396,-0.536c0.615,-0 1.119,0.226 1.514,0.678c0.394,0.452 0.591,1.195 0.591,2.23c-0,1.053 -0.205,1.813 -0.616,2.279c-0.411,0.467 -0.946,0.7 -1.605,0.7c-0.474,-0 -0.857,-0.12 -1.149,-0.36c-0.293,-0.24 -0.48,-0.598 -0.563,-1.075Zm2.63,-2.413c0,-0.356 -0.086,-0.632 -0.258,-0.829c-0.173,-0.196 -0.372,-0.294 -0.598,-0.294c-0.215,-0 -0.393,0.08 -0.535,0.241c-0.142,0.161 -0.213,0.425 -0.213,0.792c-0,0.372 0.077,0.645 0.231,0.819c0.155,0.175 0.348,0.262 0.579,0.262c0.224,-0 0.412,-0.084 0.565,-0.252c0.153,-0.167 0.229,-0.414 0.229,-0.739Z" style="fill:#fff;fill-rule:nonzero;"/><path d="M188.467,146.932l0,-0.97l2.639,-0l-0,2.295c-0.257,0.236 -0.628,0.443 -1.115,0.623c-0.486,0.179 -0.979,0.269 -1.478,0.269c-0.634,-0 -1.187,-0.127 -1.658,-0.379c-0.472,-0.253 -0.826,-0.615 -1.063,-1.085c-0.237,-0.47 -0.356,-0.982 -0.356,-1.535c0,-0.6 0.132,-1.133 0.397,-1.599c0.265,-0.466 0.652,-0.824 1.162,-1.073c0.389,-0.191 0.873,-0.287 1.452,-0.287c0.752,0 1.34,0.15 1.764,0.45c0.423,0.3 0.695,0.715 0.816,1.244l-1.216,0.216c-0.085,-0.283 -0.246,-0.506 -0.481,-0.67c-0.236,-0.164 -0.53,-0.246 -0.883,-0.246c-0.535,0 -0.96,0.162 -1.276,0.484c-0.316,0.322 -0.474,0.8 -0.474,1.434c0,0.684 0.16,1.197 0.48,1.539c0.32,0.342 0.739,0.513 1.257,0.513c0.257,-0 0.514,-0.048 0.772,-0.144c0.257,-0.096 0.479,-0.211 0.663,-0.348l0,-0.731l-1.402,0Z" style="fill:#fff;fill-rule:nonzero;"/><path d="M192.247,149.051l0,-5.761l1.191,-0l2.482,3.847l-0,-3.847l1.137,-0l-0,5.761l-1.228,-0l-2.445,-3.757l0,3.757l-1.137,-0Z" style="fill:#fff;fill-rule:nonzero;"/><path d="M198.347,143.29l2.237,-0c0.505,-0 0.889,0.036 1.154,0.11c0.356,0.099 0.66,0.276 0.914,0.53c0.254,0.254 0.447,0.565 0.579,0.933c0.132,0.368 0.199,0.822 0.199,1.362c-0,0.474 -0.063,0.883 -0.187,1.226c-0.151,0.419 -0.368,0.759 -0.649,1.018c-0.212,0.196 -0.499,0.35 -0.86,0.46c-0.27,0.081 -0.631,0.122 -1.084,0.122l-2.303,-0l0,-5.761Zm1.224,0.974l0,3.816l0.914,-0c0.342,-0 0.589,-0.018 0.74,-0.055c0.199,-0.047 0.364,-0.127 0.494,-0.24c0.131,-0.112 0.238,-0.298 0.321,-0.556c0.083,-0.258 0.124,-0.61 0.124,-1.055c0,-0.445 -0.041,-0.787 -0.124,-1.026c-0.083,-0.238 -0.199,-0.424 -0.347,-0.558c-0.149,-0.133 -0.338,-0.224 -0.567,-0.271c-0.171,-0.037 -0.506,-0.055 -1.005,-0.055l-0.55,0Z" style="fill:#fff;fill-rule:nonzero;"/><path d="M210.489,148.025l-0,1.026l-4.074,-0c0.044,-0.388 0.177,-0.756 0.397,-1.103c0.221,-0.347 0.656,-0.807 1.307,-1.381c0.524,-0.464 0.845,-0.778 0.964,-0.943c0.16,-0.228 0.24,-0.453 0.24,-0.676c-0,-0.246 -0.07,-0.436 -0.209,-0.568c-0.14,-0.132 -0.332,-0.198 -0.577,-0.198c-0.243,-0 -0.436,0.069 -0.579,0.208c-0.144,0.139 -0.226,0.369 -0.248,0.691l-1.158,-0.11c0.069,-0.607 0.285,-1.044 0.649,-1.308c0.364,-0.265 0.819,-0.397 1.365,-0.397c0.598,-0 1.068,0.153 1.41,0.46c0.342,0.306 0.513,0.687 0.513,1.143c-0,0.26 -0.049,0.507 -0.147,0.741c-0.098,0.235 -0.253,0.48 -0.465,0.737c-0.141,0.17 -0.395,0.415 -0.761,0.735c-0.367,0.319 -0.599,0.532 -0.697,0.636c-0.098,0.105 -0.177,0.207 -0.238,0.307l2.308,-0Z" style="fill:#fff;fill-rule:nonzero;"/><path d="M214.248,149.051l-1.162,-0l-0,-4.162c-0.425,0.377 -0.925,0.656 -1.501,0.837l-0,-1.002c0.303,-0.094 0.632,-0.273 0.988,-0.537c0.356,-0.263 0.6,-0.57 0.732,-0.921l0.943,-0l-0,5.785Z" style="fill:#fff;fill-rule:nonzero;"/><path d="M218.598,149.051l0,-5.761l2.577,-0c0.648,-0 1.118,0.051 1.412,0.155c0.294,0.103 0.529,0.287 0.705,0.552c0.177,0.264 0.265,0.567 0.265,0.908c-0,0.432 -0.134,0.789 -0.401,1.071c-0.268,0.281 -0.668,0.459 -1.2,0.532c0.265,0.147 0.483,0.308 0.656,0.483c0.172,0.176 0.404,0.488 0.697,0.936l0.74,1.124l-1.464,-0l-0.885,-1.254c-0.314,-0.448 -0.529,-0.73 -0.645,-0.847c-0.116,-0.116 -0.239,-0.196 -0.368,-0.24c-0.13,-0.043 -0.335,-0.064 -0.616,-0.064l-0.249,-0l0,2.405l-1.224,-0Zm1.224,-3.325l0.906,-0c0.587,-0 0.954,-0.024 1.1,-0.071c0.146,-0.047 0.261,-0.128 0.343,-0.243c0.083,-0.116 0.124,-0.26 0.124,-0.433c0,-0.194 -0.054,-0.35 -0.163,-0.469c-0.109,-0.12 -0.263,-0.195 -0.461,-0.226c-0.099,-0.013 -0.397,-0.02 -0.893,-0.02l-0.956,0l0,1.462Z" style="fill:#fff;fill-rule:nonzero;"/><path d="M224.094,149.051l2.072,-3.007l-1.877,-2.754l1.431,-0l1.215,1.85l1.191,-1.85l1.419,-0l-1.886,2.798l2.072,2.963l-1.476,-0l-1.344,-1.993l-1.349,1.993l-1.468,-0Z" style="fill:#fff;fill-rule:nonzero;"/><path d="M234.077,149.051l0,-4.787l-1.799,0l0,-0.974l4.818,-0l0,0.974l-1.795,0l0,4.787l-1.224,-0Z" style="fill:#fff;fill-rule:nonzero;"/><path d="M237.27,149.051l2.072,-3.007l-1.878,-2.754l1.431,-0l1.216,1.85l1.191,-1.85l1.418,-0l-1.885,2.798l2.072,2.963l-1.477,-0l-1.344,-1.993l-1.348,1.993l-1.468,-0Z" style="fill:#fff;fill-rule:nonzero;"/><path d="M251.909,148.025l0,1.026l-4.073,-0c0.044,-0.388 0.176,-0.756 0.397,-1.103c0.221,-0.347 0.656,-0.807 1.307,-1.381c0.524,-0.464 0.845,-0.778 0.963,-0.943c0.16,-0.228 0.24,-0.453 0.24,-0.676c0,-0.246 -0.069,-0.436 -0.209,-0.568c-0.139,-0.132 -0.331,-0.198 -0.577,-0.198c-0.242,-0 -0.435,0.069 -0.578,0.208c-0.144,0.139 -0.227,0.369 -0.249,0.691l-1.158,-0.11c0.069,-0.607 0.286,-1.044 0.65,-1.308c0.364,-0.265 0.819,-0.397 1.364,-0.397c0.599,-0 1.069,0.153 1.411,0.46c0.341,0.306 0.512,0.687 0.512,1.143c0,0.26 -0.049,0.507 -0.146,0.741c-0.098,0.235 -0.253,0.48 -0.466,0.737c-0.14,0.17 -0.394,0.415 -0.761,0.735c-0.366,0.319 -0.599,0.532 -0.696,0.636c-0.098,0.105 -0.178,0.207 -0.238,0.307l2.307,-0Z" style="fill:#fff;fill-rule:nonzero;"/><path d="M256.62,148.025l-0,1.026l-4.074,-0c0.044,-0.388 0.177,-0.756 0.397,-1.103c0.221,-0.347 0.656,-0.807 1.307,-1.381c0.524,-0.464 0.845,-0.778 0.964,-0.943c0.16,-0.228 0.24,-0.453 0.24,-0.676c-0,-0.246 -0.07,-0.436 -0.209,-0.568c-0.14,-0.132 -0.332,-0.198 -0.577,-0.198c-0.243,-0 -0.436,0.069 -0.579,0.208c-0.144,0.139 -0.226,0.369 -0.248,0.691l-1.158,-0.11c0.069,-0.607 0.285,-1.044 0.649,-1.308c0.364,-0.265 0.819,-0.397 1.365,-0.397c0.598,-0 1.068,0.153 1.41,0.46c0.342,0.306 0.513,0.687 0.513,1.143c-0,0.26 -0.049,0.507 -0.147,0.741c-0.098,0.235 -0.253,0.48 -0.465,0.737c-0.141,0.17 -0.395,0.415 -0.761,0.735c-0.367,0.319 -0.599,0.532 -0.697,0.636c-0.098,0.105 -0.177,0.207 -0.238,0.307l2.308,-0Z" style="fill:#fff;fill-rule:nonzero;"/><path d="M266.036,148.025l0,1.026l-4.073,-0c0.044,-0.388 0.176,-0.756 0.397,-1.103c0.22,-0.347 0.656,-0.807 1.307,-1.381c0.523,-0.464 0.845,-0.778 0.963,-0.943c0.16,-0.228 0.24,-0.453 0.24,-0.676c-0,-0.246 -0.07,-0.436 -0.209,-0.568c-0.139,-0.132 -0.331,-0.198 -0.577,-0.198c-0.242,-0 -0.435,0.069 -0.579,0.208c-0.143,0.139 -0.226,0.369 -0.248,0.691l-1.158,-0.11c0.069,-0.607 0.286,-1.044 0.649,-1.308c0.364,-0.265 0.819,-0.397 1.365,-0.397c0.598,-0 1.068,0.153 1.41,0.46c0.342,0.306 0.513,0.687 0.513,1.143c0,0.26 -0.049,0.507 -0.147,0.741c-0.098,0.235 -0.253,0.48 -0.465,0.737c-0.141,0.17 -0.394,0.415 -0.761,0.735c-0.367,0.319 -0.599,0.532 -0.697,0.636c-0.098,0.105 -0.177,0.207 -0.237,0.307l2.307,-0Z" style="fill:#fff;fill-rule:nonzero;"/><path d="M266.781,147.522l1.124,-0.13c0.036,0.273 0.133,0.481 0.29,0.625c0.157,0.144 0.347,0.216 0.571,0.216c0.239,0 0.441,-0.086 0.605,-0.259c0.164,-0.173 0.246,-0.406 0.246,-0.7c0,-0.277 -0.078,-0.497 -0.235,-0.66c-0.157,-0.162 -0.349,-0.244 -0.575,-0.244c-0.149,0 -0.327,0.028 -0.534,0.083l0.129,-0.9c0.314,0.008 0.554,-0.057 0.719,-0.194c0.166,-0.138 0.248,-0.321 0.248,-0.549c0,-0.194 -0.06,-0.348 -0.182,-0.463c-0.121,-0.116 -0.282,-0.173 -0.484,-0.173c-0.198,-0 -0.368,0.065 -0.508,0.196c-0.141,0.131 -0.226,0.322 -0.257,0.574l-1.071,-0.173c0.075,-0.348 0.187,-0.627 0.337,-0.835c0.151,-0.208 0.36,-0.372 0.629,-0.491c0.269,-0.119 0.57,-0.179 0.904,-0.179c0.57,-0 1.028,0.173 1.373,0.519c0.284,0.283 0.425,0.602 0.425,0.959c0,0.505 -0.29,0.909 -0.872,1.21c0.347,0.071 0.625,0.229 0.833,0.475c0.208,0.247 0.312,0.544 0.312,0.892c0,0.506 -0.194,0.937 -0.583,1.293c-0.388,0.357 -0.872,0.535 -1.451,0.535c-0.549,-0 -1.004,-0.15 -1.365,-0.45c-0.361,-0.3 -0.571,-0.692 -0.628,-1.177Z" style="fill:#fff;fill-rule:nonzero;"/><path d="M276.962,146.932l-0,-0.97l2.638,-0l0,2.295c-0.256,0.236 -0.627,0.443 -1.114,0.623c-0.487,0.179 -0.98,0.269 -1.479,0.269c-0.634,-0 -1.186,-0.127 -1.658,-0.379c-0.471,-0.253 -0.826,-0.615 -1.063,-1.085c-0.237,-0.47 -0.355,-0.982 -0.355,-1.535c-0,-0.6 0.132,-1.133 0.397,-1.599c0.264,-0.466 0.652,-0.824 1.162,-1.073c0.389,-0.191 0.872,-0.287 1.451,-0.287c0.753,0 1.341,0.15 1.764,0.45c0.423,0.3 0.696,0.715 0.817,1.244l-1.216,0.216c-0.085,-0.283 -0.246,-0.506 -0.482,-0.67c-0.235,-0.164 -0.53,-0.246 -0.883,-0.246c-0.535,0 -0.96,0.162 -1.275,0.484c-0.316,0.322 -0.474,0.8 -0.474,1.434c0,0.684 0.16,1.197 0.48,1.539c0.32,0.342 0.739,0.513 1.257,0.513c0.256,-0 0.513,-0.048 0.771,-0.144c0.258,-0.096 0.479,-0.211 0.664,-0.348l-0,-0.731l-1.402,0Z" style="fill:#fff;fill-rule:nonzero;"/><path d="M280.742,149.051l-0,-5.761l1.191,-0l2.481,3.847l0,-3.847l1.137,-0l0,5.761l-1.228,-0l-2.444,-3.757l0,3.757l-1.137,-0Z" style="fill:#fff;fill-rule:nonzero;"/><path d="M286.842,143.29l2.237,-0c0.504,-0 0.889,0.036 1.154,0.11c0.355,0.099 0.66,0.276 0.914,0.53c0.253,0.254 0.446,0.565 0.579,0.933c0.132,0.368 0.198,0.822 0.198,1.362c0,0.474 -0.062,0.883 -0.186,1.226c-0.152,0.419 -0.368,0.759 -0.649,1.018c-0.213,0.196 -0.499,0.35 -0.86,0.46c-0.271,0.081 -0.632,0.122 -1.084,0.122l-2.303,-0l-0,-5.761Zm1.224,0.974l-0,3.816l0.914,-0c0.341,-0 0.588,-0.018 0.74,-0.055c0.198,-0.047 0.363,-0.127 0.494,-0.24c0.131,-0.112 0.238,-0.298 0.321,-0.556c0.082,-0.258 0.124,-0.61 0.124,-1.055c-0,-0.445 -0.042,-0.787 -0.124,-1.026c-0.083,-0.238 -0.199,-0.424 -0.348,-0.558c-0.149,-0.133 -0.338,-0.224 -0.566,-0.271c-0.171,-0.037 -0.506,-0.055 -1.005,-0.055l-0.55,0Z" style="fill:#fff;fill-rule:nonzero;"/><path id="LED" d="M87.21,38.79l0,-5.122l-7.406,-0l-0,5.122l7.406,-0Z" style="fill:#ff000c;"/></svg>