<svg viewBox="0 0 281 182" xmlns="http://www.w3.org/2000/svg" fill-rule="evenodd" clip-rule="evenodd" stroke-linecap="round" stroke-linejoin="round"><path d="M39.042 154.463c.016-3.072 2.538-5.595 5.61-5.606h7.283c3.07.014 5.593 2.536 5.609 5.606v22.712c.011 2.453 2.024 4.468 4.477 4.48H89.73c2.453-.012 4.468-2.027 4.48-4.48v-22.712c.016-3.07 2.538-5.59 5.608-5.606 3.077 0 5.61 2.534 5.61 5.608v15.975c0 6.15 5.063 11.213 11.215 11.217h115.824c6.15 0 11.212-5.062 11.212-11.217V11.564c0-6.152-5.062-11.214-11.212-11.214H116.642c-6.152.002-11.212 5.065-11.214 11.214V27.54c0 3.075-2.534 5.604-5.611 5.604-3.07-.016-5.59-2.533-5.608-5.604V4.825C94.197 2.372 92.184.357 89.73.345h-27.71c-2.457 0-4.477 2.023-4.477 4.48V27.54c0 3.075-2.534 5.604-5.609 5.604h-7.282c-3.07-.011-5.595-2.533-5.611-5.604V4.825c-.012-2.453-2.027-4.468-4.48-4.48H6.854c-2.457 0-4.48 2.023-4.48 4.48v172.35c.012 2.453 2.027 4.468 4.48 4.48h27.708c2.453-.012 4.468-2.027 4.48-4.48v-22.712zm-32.88 15.005h-.34c-.964 0-1.75-.967-1.75-2.16v-4.583c0-1.191.786-2.158 1.75-2.158h.34c.964 0 1.75.967 1.75 2.158v4.583c0 1.193-.786 2.16-1.75 2.16zm.57-155.476h.339c.965 0 1.75.967 1.75 2.158v4.583c0 1.191-.785 2.159-1.75 2.159h-.339c-.967 0-1.75-.968-1.75-2.159V16.15c0-1.19.783-2.158 1.75-2.158zm8.154 139.027l.002-.065a1.858 1.858 0 00-1.85-1.847 1.857 1.857 0 00-1.847 1.847l.003.065a1.855 1.855 0 001.845 1.783c.99 0 1.812-.795 1.847-1.783zM11.938 30.442l-.003.064c0 1.013.836 1.847 1.85 1.847a1.857 1.857 0 001.847-1.847l-.002-.064a1.855 1.855 0 00-1.845-1.783c-.99 0-1.813.794-1.847 1.783zm10.067 122.577a1.855 1.855 0 00-1.847-1.845 1.856 1.856 0 00-1.847 1.847v.002a1.855 1.855 0 001.847 1.845 1.856 1.856 0 001.847-1.847v-.002zM19.057 30.442a1.86 1.86 0 001.85 1.847 1.858 1.858 0 001.847-1.85v-.002a1.855 1.855 0 00-1.848-1.845 1.856 1.856 0 00-1.847 1.847v.003h-.002zm10.07 122.577v-.065a1.856 1.856 0 00-1.848-1.847 1.857 1.857 0 00-1.847 1.847l.002.065a1.855 1.855 0 001.845 1.783c.99 0 1.813-.795 1.848-1.783zM26.178 30.442l-.002.064c0 1.013.836 1.847 1.847 1.847 1.014 0 1.85-.834 1.85-1.847l-.003-.064a1.856 1.856 0 00-1.847-1.783c-.988 0-1.81.794-1.845 1.783zm8.154 139.026h-.339c-.967 0-1.75-.967-1.75-2.16v-4.583c0-1.191.783-2.158 1.75-2.158h.339c.967 0 1.75.967 1.75 2.158v4.583c0 1.193-.783 2.16-1.75 2.16zm.571-155.476h.339c.965 0 1.75.967 1.75 2.158v4.583c0 1.191-.785 2.159-1.75 2.159h-.339c-.967 0-1.75-.968-1.75-2.159V16.15c0-1.19.783-2.158 1.75-2.158zM62.166 169.47h-.338c-.968 0-1.75-.968-1.75-2.16v-4.584c0-1.19.782-2.158 1.75-2.158h.338c.965 0 1.75.967 1.75 2.158v4.583c0 1.193-.785 2.16-1.75 2.16zm-.338-155.81h.338c.965 0 1.75.967 1.75 2.16v4.583c0 1.189-.785 2.156-1.75 2.156h-.338c-.968 0-1.75-.967-1.75-2.158v-4.584c0-1.19.782-2.158 1.75-2.158zm5.205 16.449c0 1.013.834 1.847 1.85 1.847a1.856 1.856 0 001.847-1.847 1.856 1.856 0 00-1.848-1.847c-1.015 0-1.85.833-1.85 1.847zM70.89 153.02a1.855 1.855 0 00-1.847-1.845 1.856 1.856 0 00-1.848 1.847v.003a1.855 1.855 0 001.848 1.845 1.856 1.856 0 001.847-1.848v-.002zM74.155 30.11c0 1.013.833 1.847 1.847 1.847 1.015 0 1.85-.834 1.85-1.847 0-1.014-.835-1.85-1.85-1.85a1.858 1.858 0 00-1.847 1.85zM78.01 153.02l.002-.064a1.857 1.857 0 00-1.847-1.847 1.856 1.856 0 00-1.847 1.847v.064a1.856 1.856 0 001.847 1.783c.988 0 1.81-.795 1.845-1.783zM81.274 30.11c0 1.013.834 1.847 1.847 1.847 1.016 0 1.85-.834 1.85-1.847 0-1.014-.834-1.85-1.85-1.85a1.858 1.858 0 00-1.847 1.85zm3.858 122.911a1.855 1.855 0 00-1.848-1.845 1.856 1.856 0 00-1.847 1.847v.003a1.855 1.855 0 001.847 1.845 1.856 1.856 0 001.848-1.848v-.002zm5.205 16.45H90c-.968 0-1.75-.968-1.75-2.16v-4.584c0-1.19.782-2.158 1.75-2.158h.336c.967 0 1.75.967 1.75 2.158v4.583c0 1.193-.783 2.16-1.75 2.16zM90 13.66h.336c.967 0 1.75.967 1.75 2.16v4.583c0 1.189-.783 2.156-1.75 2.156H90c-.968 0-1.75-.967-1.75-2.158v-4.584c0-1.19.782-2.158 1.75-2.158zm21.475-1.908c.085 2.868 2.467 5.18 5.334 5.18 2.868 0 5.25-2.312 5.334-5.18 0-2.927-2.406-5.334-5.334-5.334-2.927 0-5.334 2.407-5.334 5.334zm.087 158.895c.086 2.867 2.467 5.18 5.335 5.18 2.867 0 5.249-2.313 5.334-5.18-.085-2.868-2.467-5.18-5.334-5.18-2.868 0-5.25 2.312-5.335 5.18zm26.36-6.57v.075a2.387 2.387 0 01-2.376 2.377 2.387 2.387 0 01-2.375-2.377v-.074a2.386 2.386 0 012.375-2.303 2.386 2.386 0 012.377 2.303zm0 9.398v.074a2.387 2.387 0 01-2.376 2.377 2.387 2.387 0 01-2.375-2.377v-.074a2.386 2.386 0 012.375-2.303 2.386 2.386 0 012.377 2.303zm7.122-9.397a2.389 2.389 0 01-2.377 2.377 2.389 2.389 0 01-2.377-2.377 2.389 2.389 0 012.377-2.377 2.389 2.389 0 012.377 2.377zm0 9.397a2.389 2.389 0 01-2.377 2.377 2.389 2.389 0 01-2.377-2.377 2.389 2.389 0 012.377-2.377 2.389 2.389 0 012.377 2.377zm7.12 0l.002.074a2.39 2.39 0 01-2.38 2.377 2.389 2.389 0 01-2.376-2.377l.002-.074a2.386 2.386 0 012.375-2.303 2.386 2.386 0 012.377 2.303zm0-9.53a2.39 2.39 0 01-2.377 2.379 2.391 2.391 0 01-2.38-2.38 2.39 2.39 0 012.38-2.377 2.389 2.389 0 012.377 2.377zm7.197 9.53a2.389 2.389 0 01-2.377 2.377 2.389 2.389 0 01-2.377-2.377 2.389 2.389 0 012.377-2.377 2.389 2.389 0 012.377 2.377zm10.558-9.397a2.39 2.39 0 01-2.38 2.377 2.39 2.39 0 01-2.376-2.38v-.002a2.39 2.39 0 012.377-2.377 2.391 2.391 0 012.38 2.38v.002zm0 9.397a2.39 2.39 0 01-2.38 2.377 2.39 2.39 0 01-2.376-2.38v-.002a2.39 2.39 0 012.377-2.376 2.391 2.391 0 012.38 2.379v.002zm7.12-9.4v.077a2.391 2.391 0 01-2.38 2.379 2.393 2.393 0 01-2.38-2.38l.003-.075a2.39 2.39 0 012.38-2.306 2.39 2.39 0 012.376 2.306zm0 9.4a2.388 2.388 0 01-2.378 2.375 2.389 2.389 0 01-2.377-2.377v-.003a2.388 2.388 0 012.377-2.374 2.389 2.389 0 012.377 2.377v.002zm7.12 0a2.39 2.39 0 01-2.378 2.377 2.39 2.39 0 01-2.377-2.38v-.002a2.39 2.39 0 012.377-2.376 2.391 2.391 0 012.379 2.379v.002zm43.23-161.822c.002 2.925 2.407 5.332 5.332 5.334 2.867-.085 5.18-2.466 5.18-5.334 0-2.867-2.313-5.249-5.18-5.334-2.925.002-5.33 2.41-5.332 5.334zm0 158.991c0 2.926 2.41 5.335 5.334 5.335 2.928 0 5.335-2.41 5.335-5.335v-.002c-.003-2.925-2.41-5.332-5.335-5.332-2.927 0-5.334 2.407-5.334 5.334v.003-.003z" fill="#007001"/><path d="M11.09 46.147a.28.28 0 00.002-.56.283.283 0 00-.283.281.282.282 0 00.281.28.28.28 0 00.002-.56.283.283 0 00-.283.28.282.282 0 00.281.28m180.107-42.89v4.485m-28.21 144.516v4.003l.268.804.534.53.8.269h.533l.802-.267.534-.532.268-.804v-4.003m5.817 5.606l-2.137-5.606-2.133 5.606m.8-1.868h2.671m2.105-3.738v5.606m0-5.606h2.405l.8.267.269.267.265.535v.534l-.265.532-.27.267-.8.267h-2.404m1.87 0l1.866 2.937m3.126-5.606v5.606m-1.868-5.606h3.736m-45.45 0v4.272l-.267.8-.267.267-.535.267h-.534l-.534-.267-.267-.267-.268-.8v-.534m5.98-3.738v5.606m-1.868-5.606h3.738m4.938 5.606l-2.138-5.606-2.135 5.606m.802-1.868h2.672m6.11-2.402l-.265-.535-.534-.534-.534-.267h-1.07l-.533.267-.535.534-.267.535-.265.799v1.336l.265.801.267.535.535.53.534.269h1.069l.534-.267.534-.532.265-.535v-.804m-1.336 0h1.336m53.011-8.137h-5.606m5.606 0v2.402l-.267.8-.267.27-.535.264h-.534l-.532-.265-.267-.27-.267-.799v-2.402m0 1.868l-2.937 1.866m4.802 4.995l.535-.534.267-.801v-1.067l-.267-.801-.535-.535h-.534l-.532.267-.267.268-.268.534-.534 1.6-.267.535-.267.267-.535.267h-.799l-.534-.534-.267-.801v-1.067l.267-.801.534-.535m4.805 6.862h-5.606m5.606-1.868v3.735M223.85 7.97h-5.325m5.325 0v2.282l-.253.763-.254.253-.506.254h-.507l-.51-.254-.253-.253-.253-.76m0-2.285v2.282l-.253.763-.254.253-.506.254h-.76l-.507-.254-.253-.253-.254-.76V7.969m5.323 6.265l-.253-.507-.507-.507-.507-.253-.762-.256h-1.267l-.76.254-.507.253-.506.509-.254.507v1.013l.254.507.506.507.507.255.76.254h1.267l.76-.254.509-.253.507-.507.253-.507v-1.015m0 5.3l-.253-.507-.507-.507-.507-.253-.762-.254h-1.267l-.76.254-.507.253-.506.507-.254.506v1.014l.254.507.506.506.507.254.76.253h1.267l.76-.253.509-.254.507-.506.253-.507v-1.014m0 5.551h-5.325m5.325-1.773v3.551" fill="none" stroke="#fff" stroke-width=".5527728"/><path d="M220.72 166.831s.145-.467.23-.695a12.638 12.638 0 012.188-3.794 12.703 12.703 0 018.564-4.459c1.02-.087 2.895-.384 3.526.719a1.419 1.419 0 01-.85 2.06c-.882.239-1.932-.059-2.854.063a9.878 9.878 0 00-5.659 2.79 9.866 9.866 0 00-2.826 5.979c-.115 1.165.707 3.832-1.207 4-1.92.169-1.69-2.634-1.623-3.777.06-.979.23-1.946.51-2.886" fill="#fff"/><path d="M162.554 2.893v10.93h7.569V2.894h-7.569zm-31.397 0v10.93h7.573V2.894h-7.573z" fill="gray"/><path d="M131.157 2.893v10.93h7.573V2.894h-7.573zm31.397 0v10.93h7.569V2.894h-7.569zm-5.606 22.426v9.53h4.204v-9.53h-4.204zm-5.608 0v9.53h4.206v-9.53h-4.206zm-5.608 0v9.53h4.205v-9.53h-4.205zm-5.604 0v9.53h4.203v-9.53h-4.203z" fill="gray"/><path d="M145.732 25.32v9.53h4.205v-9.53h-4.205zm5.608 0v9.53h4.206v-9.53h-4.206zm5.608 0v9.53h4.204v-9.53h-4.204zM41.456 71.01v2.244h8.687V71.01h-8.687zm0 4.487v2.243h8.687v-2.243h-8.687zm0 7.568v2.244h8.687v-2.244h-8.687zm0 16.82v2.242h8.687v-2.241h-8.687zm0 4.764v2.243h8.687v-2.243h-8.687zm0-7.568v2.243h8.687V97.08h-8.687zm0-8.407v2.24h8.687v-2.242l-8.687.002zm0-8.412v2.242h8.687v-2.242h-8.687zm.032 5.607v2.243h8.688v-2.243h-8.688zm-.032 5.606v2.243h8.687v-2.243h-8.687zm0 2.803v2.243h8.687v-2.243h-8.687z" fill="gray"/><path d="M41.456 102.968v2.243h8.687v-2.243h-8.687zm0-30.276v2.243h8.687v-2.243h-8.687zm0 4.486v2.244h8.687v-2.244h-8.687zm0 30.276v2.244h8.687v-2.244h-8.687z" fill="gray"/><path fill="gray" d="M50.143 109.136v2.243h-8.687v-2.243zM22.417 66.664v.62a3.19 3.19 0 01-3.192 3.192h-3.982a3.193 3.193 0 01-3.195-3.192v-.622a3.214 3.214 0 013.195-3.192h3.982a3.196 3.196 0 013.195 3.194h-.003zM22.417 115.106v.617a3.193 3.193 0 01-3.192 3.194h-3.982a3.195 3.195 0 01-3.195-3.194v-.617a3.213 3.213 0 013.195-3.197h3.982a3.197 3.197 0 013.195 3.197h-.003zM47.257 66.664v.62a3.195 3.195 0 01-3.196 3.192h-6.783a3.194 3.194 0 01-3.195-3.192v-.622a3.214 3.214 0 013.195-3.192h6.785a3.198 3.198 0 013.194 3.194zM47.257 115.106v.617a3.197 3.197 0 01-3.196 3.194h-6.783a3.196 3.196 0 01-3.195-3.194v-.617a3.213 3.213 0 013.195-3.197h6.785a3.198 3.198 0 013.194 3.197zM38.12 74.571v.843h-.842v-.843z"/><path fill="gray" d="M38.12 74.571v.843h-.842v-.843z"/><circle cx="46.119" cy=".283" r=".213" fill="gray" transform="matrix(0 1.97784 1.97784 0 37.138 16.182)"/><path d="M213.57 150.34v3.925h3.644v-3.925h-3.643zm-5.605 0v3.925h3.643v-3.925h-3.643zm-105.737-23.68v5.888h9.255v-5.887h-9.255zm0-8.408v5.885h9.255v-5.885h-9.255zm0-8.412v5.887h9.255v-5.884l-9.255-.003zm0-8.406v5.884h9.255v-5.887l-9.255.003zm0-8.412v5.887h9.255v-5.887h-9.255zm0-8.409v5.885h9.255v-5.885h-9.255zm0-8.411v5.887h9.255v-5.887h-9.255zm0-8.41v5.888h9.255v-5.887h-9.255zm0-8.408v5.887h9.255v-5.887h-9.255zm0-8.41v5.885h9.255v-5.884h-9.255zm5.887 85.22v9.25h5.888v-9.25h-5.888zm8.41 0v9.25h5.884v-9.25h-5.884zm8.409 0v9.25h5.887v-9.25h-5.887zm8.409 0v9.25h5.887v-9.25h-5.887zm8.411 0v9.25h5.89v-9.25h-5.89zm8.41 0v9.25h5.886v-9.25h-5.887zm8.41 0v9.25h5.883v-9.25h-5.883zm8.41 0v9.25h5.887v-9.25h-5.888zm8.409 0v9.25h5.887v-9.25h-5.887zm8.41 0v9.25h5.886v-9.25h-5.885zm8.408 0v9.25h5.887v-9.25h-5.887zm8.411 0v9.25h5.887v-9.25h-5.887zm8.411 0v9.25h5.885v-9.25h-5.885zm8.41 0v9.25h5.884v-9.25h-5.885zm8.408 0v9.25h5.888v-9.25h-5.888zm8.41 0v9.25h5.887v-9.25h-5.887zM108.115 38.079v9.252h5.888v-9.252h-5.888zm8.41 0v9.252h5.884v-9.252h-5.884zm8.409 0v9.252h5.887v-9.252h-5.887zm8.409 0v9.252h5.887v-9.252h-5.887zm8.411 0v9.252h5.89v-9.252h-5.89zm8.41 0v9.252h5.886v-9.252h-5.887zm8.41 0v9.252h5.883v-9.252h-5.883zm8.41 0v9.252h5.887v-9.252h-5.888zm8.409 0v9.252h5.887v-9.252h-5.887zm8.41 0v9.252h5.886v-9.252h-5.885zm8.408 0v9.252h5.887v-9.252h-5.887zm8.411 0v9.252h5.887v-9.252h-5.887zm8.411 0v9.252h5.885v-9.252h-5.885zm8.41 0v9.252h5.884v-9.252h-5.885zm8.408 0v9.252h5.888v-9.252h-5.888zm8.41 0v9.252h5.887v-9.252h-5.887zm-132.735 49.91h-.002a.43.43 0 01-.429-.428.43.43 0 01.429-.428.43.43 0 01.428.428.427.427 0 01-.426.429zM200.958 26.02v6.725h4.487v-6.726h-4.487zm0-23.268v6.726h4.487V2.752h-4.487zm12.053 23.267v6.726h4.489v-6.726h-4.489zm0-23.267v6.726h4.489V2.752h-4.489zM212.31 173.47v4.484h6.726v-4.485h-6.725zm-23.264 0v4.484h6.725v-4.485h-6.725zm23.265-12.054v4.485h6.725v-4.485h-6.725zm-23.265 0v4.485h6.725v-4.485h-6.725z" fill="gray"/><path d="M10.546 155.034v19.198c0 1.077.89 1.966 1.967 1.966h1.11c1.08 0 1.968-.886 1.97-1.966v-19.198c.384-.532.592-1.17.592-1.826a3.128 3.128 0 00-3.114-3.114 3.128 3.128 0 00-3.114 3.114c0 .656.207 1.294.592 1.826h-.003zm5.788-126.608V6.481l.003-.055a1.975 1.975 0 00-1.963-1.967h-1.117c-1.084 0-1.967.88-1.967 1.967v22a3.115 3.115 0 00-.592 1.827 3.128 3.128 0 003.114 3.114 3.128 3.128 0 003.114-3.114c0-.657-.207-1.295-.592-1.827zM14.916 153.02l.002-.065a1.857 1.857 0 00-1.847-1.847c-1.014 0-1.85.834-1.85 1.847l.003.065a1.856 1.856 0 001.847 1.783c.988 0 1.81-.795 1.845-1.783zM11.968 30.442a1.855 1.855 0 001.847 1.844 1.856 1.856 0 001.847-1.847v-.002a1.859 1.859 0 00-1.847-1.847c-1.016 0-1.85.836-1.85 1.85v.002h.003zm5.695 124.592v21.998a1.97 1.97 0 001.963 1.97h1.12a1.978 1.978 0 001.966-1.967l-.002-.056v-21.945c.384-.532.592-1.17.592-1.826a3.128 3.128 0 00-3.114-3.114 3.128 3.128 0 00-3.114 3.114c0 .656.207 1.294.592 1.826h-.003zm5.795-126.608v-22a1.978 1.978 0 00-1.96-1.967h-1.12c-1.084 0-1.966.88-1.966 1.967v22a3.115 3.115 0 00-.592 1.827 3.128 3.128 0 003.114 3.114 3.128 3.128 0 003.114-3.114c0-.657-.207-1.295-.592-1.827h.002zM22.033 153.02l.002-.065a1.857 1.857 0 00-1.847-1.847 1.856 1.856 0 00-1.847 1.912 1.856 1.856 0 001.847 1.783c.988 0 1.81-.795 1.845-1.783zM19.089 30.442l-.002.064c0 1.013.836 1.847 1.847 1.847 1.013 0 1.85-.834 1.85-1.847l-.003-.064a1.856 1.856 0 00-1.847-1.783c-.988 0-1.81.794-1.845 1.783zm5.698 124.592v21.998c0 1.085.876 1.967 1.96 1.97h1.117c1.08 0 1.97-.89 1.97-1.97v-21.998c.384-.532.592-1.17.592-1.826a3.128 3.128 0 00-3.114-3.114 3.128 3.128 0 00-3.114 3.114c0 .656.207 1.294.592 1.826h-.003zm5.788-126.608V9.282l.003-.053a1.978 1.978 0 00-1.967-1.967h-1.113c-1.087 0-1.97.88-1.97 1.967v19.197a3.115 3.115 0 00-.591 1.827 3.128 3.128 0 003.114 3.114 3.128 3.128 0 003.114-3.114c0-.657-.207-1.295-.592-1.827h.002zM29.156 153.02l.003-.065a1.858 1.858 0 00-1.85-1.847 1.857 1.857 0 00-1.847 1.847l.002.065a1.855 1.855 0 001.845 1.783c.99 0 1.813-.795 1.847-1.783zM26.208 30.442a1.855 1.855 0 001.848 1.844 1.856 1.856 0 001.847-1.847v-.002a1.859 1.859 0 00-1.847-1.847c-1.016 0-1.85.836-1.85 1.85v.002h.002zm45.224-2.35v-22a1.978 1.978 0 00-1.962-1.967h-1.115a1.97 1.97 0 00-1.972 1.967l.003.055v21.945a3.115 3.115 0 00-.592 1.827 3.128 3.128 0 003.114 3.114 3.128 3.128 0 003.114-3.114c0-.657-.208-1.295-.592-1.827h.002zm-4.88 126.942v19.198c0 1.077.889 1.966 1.967 1.966h1.112a1.978 1.978 0 001.967-1.966v-19.198c.385-.532.592-1.17.592-1.826a3.128 3.128 0 00-3.114-3.114 3.128 3.128 0 00-3.114 3.114c0 .656.207 1.294.592 1.826h-.002zm.51-124.926c0 1.013.835 1.847 1.848 1.847a1.856 1.856 0 001.847-1.847 1.856 1.856 0 00-1.847-1.848 1.856 1.856 0 00-1.847 1.848zm3.856 122.91l.003-.064a1.857 1.857 0 00-1.847-1.847c-1.014 0-1.85.834-1.85 1.847l.002.065a1.856 1.856 0 001.848 1.783c.988 0 1.81-.795 1.844-1.783zm7.636-124.926v-22a1.978 1.978 0 00-1.963-1.967h-1.117a1.969 1.969 0 00-1.967 1.967v22a3.115 3.115 0 00-.592 1.827 3.128 3.128 0 003.114 3.114 3.128 3.128 0 003.114-3.114c0-.657-.207-1.295-.592-1.827h.003zM73.67 155.034v21.998c0 1.085.877 1.967 1.958 1.97h1.121a1.978 1.978 0 001.967-1.967v-22.001c.385-.532.592-1.17.592-1.826a3.128 3.128 0 00-3.114-3.114 3.128 3.128 0 00-3.114 3.114c0 .656.207 1.294.592 1.826h-.002zm.513-124.926c0 1.013.834 1.847 1.848 1.847 1.015 0 1.85-.834 1.85-1.847 0-1.014-.835-1.85-1.85-1.85a1.858 1.858 0 00-1.848 1.85zm3.856 122.91a1.856 1.856 0 00-1.847-1.846 1.856 1.856 0 00-1.847 1.847c0 1.013.833 1.847 1.847 1.847a1.856 1.856 0 001.847-1.847zm7.633-124.926V8.895a1.978 1.978 0 00-1.97-1.967h-1.11a1.97 1.97 0 00-1.969 1.967l.003.053v19.144a3.115 3.115 0 00-.592 1.827 3.128 3.128 0 003.114 3.114 3.128 3.128 0 003.114-3.114c0-.657-.208-1.295-.592-1.827h.002zm-4.88 126.942v21.998c0 1.085.875 1.967 1.96 1.97h1.119a1.978 1.978 0 001.967-1.967v-22.001c.384-.532.592-1.17.592-1.826a3.128 3.128 0 00-3.114-3.114 3.128 3.128 0 00-3.114 3.114c0 .656.207 1.294.592 1.826h-.003zm.51-124.926c0 1.013.834 1.847 1.848 1.847a1.856 1.856 0 001.847-1.847 1.856 1.856 0 00-1.847-1.848 1.856 1.856 0 00-1.847 1.848zm3.856 122.91l.003-.064a1.857 1.857 0 00-1.848-1.847 1.856 1.856 0 00-1.847 1.912 1.856 1.856 0 001.847 1.783c.988 0 1.81-.795 1.845-1.783zM108.235 11.75c.003 4.769 3.925 8.689 8.693 8.69 4.765-.001 8.687-3.924 8.69-8.69-.109-4.69-3.996-8.491-8.69-8.491-4.694 0-8.582 3.8-8.69 8.492h-.003zm0 158.895c.076 4.715 3.976 8.552 8.69 8.552 4.717 0 8.617-3.837 8.693-8.552-.003-4.767-3.923-8.69-8.69-8.692-4.768.002-8.688 3.925-8.69 8.692h-.003zm3.27-158.894c.104 2.854 2.48 5.145 5.333 5.145 2.856 0 5.23-2.291 5.334-5.145-.085-2.868-2.467-5.18-5.334-5.18-2.868 0-5.25 2.312-5.334 5.18h.002zm.088 158.894c.086 2.868 2.467 5.18 5.335 5.18 2.867 0 5.249-2.312 5.334-5.18-.085-2.867-2.467-5.18-5.334-5.18-2.868 0-5.25 2.313-5.335 5.18zM224.06 11.751c.002 4.768 3.924 8.688 8.692 8.69 4.765-.002 8.688-3.925 8.69-8.69-.108-4.692-3.996-8.492-8.69-8.492-4.694 0-8.582 3.8-8.69 8.492h-.002zm0 158.894c.076 4.715 3.975 8.552 8.69 8.552 4.717 0 8.616-3.837 8.692-8.552-.002-4.767-3.922-8.69-8.69-8.692-4.768.002-8.688 3.925-8.69 8.692h-.002zm3.358-158.993v.004c0 2.928 2.409 5.337 5.336 5.337 2.928 0 5.337-2.41 5.337-5.337 0-2.927-2.41-5.336-5.337-5.336h-.002c-2.925.002-5.33 2.407-5.334 5.332zm0 158.993c.085 2.868 2.466 5.18 5.334 5.18 2.867 0 5.249-2.312 5.334-5.18-.085-2.867-2.467-5.18-5.334-5.18-2.868 0-5.25 2.313-5.334 5.18zM164.01 177.01v-7.065h7.064v7.064h-7.064zm0-12.931a3.55 3.55 0 003.533 3.379 3.55 3.55 0 003.531-3.38 3.55 3.55 0 00-3.53-3.442 3.55 3.55 0 00-3.534 3.443zm5.91 0a2.39 2.39 0 01-2.38 2.377 2.39 2.39 0 01-2.376-2.38v-.002a2.39 2.39 0 012.377-2.377 2.391 2.391 0 012.38 2.38v.002zm0 9.397a2.39 2.39 0 01-2.38 2.377 2.39 2.39 0 01-2.376-2.38v-.002a2.39 2.39 0 012.377-2.376 2.391 2.391 0 012.38 2.379v.002zm1.212 0a3.55 3.55 0 003.533 3.379 3.55 3.55 0 003.53-3.379 3.55 3.55 0 00-3.53-3.443 3.55 3.55 0 00-3.533 3.443zm0-9.397a3.55 3.55 0 003.533 3.379 3.55 3.55 0 003.53-3.38 3.55 3.55 0 00-3.53-3.442 3.55 3.55 0 00-3.533 3.443zm5.907-.002v.076a2.391 2.391 0 01-2.379 2.379 2.393 2.393 0 01-2.38-2.38l.003-.075a2.39 2.39 0 012.38-2.306 2.39 2.39 0 012.376 2.306zm0 9.4a2.388 2.388 0 01-2.377 2.374 2.389 2.389 0 01-2.377-2.377v-.003a2.388 2.388 0 012.377-2.374 2.389 2.389 0 012.377 2.377v.002zm1.212 0a3.55 3.55 0 003.533 3.378 3.55 3.55 0 003.53-3.379 3.55 3.55 0 00-3.53-3.443 3.55 3.55 0 00-3.533 3.443zm5.91 0a2.39 2.39 0 01-2.38 2.376 2.39 2.39 0 01-2.376-2.38v-.002a2.39 2.39 0 012.377-2.376 2.391 2.391 0 012.379 2.379v.002zM132.016 177.01v-7.065h7.066v7.064h-7.066zm0-12.931a3.552 3.552 0 003.533 3.409 3.552 3.552 0 003.533-3.41 3.552 3.552 0 00-3.533-3.408 3.552 3.552 0 00-3.533 3.409zm5.908 0v.074a2.387 2.387 0 01-2.377 2.377 2.387 2.387 0 01-2.375-2.377v-.074a2.386 2.386 0 012.375-2.303 2.386 2.386 0 012.377 2.303zm0 9.397v.074a2.387 2.387 0 01-2.377 2.377 2.387 2.387 0 01-2.375-2.377v-.074a2.386 2.386 0 012.375-2.303 2.386 2.386 0 012.377 2.303zm1.214 0a3.55 3.55 0 003.53 3.379 3.55 3.55 0 003.534-3.379 3.55 3.55 0 00-3.534-3.379 3.55 3.55 0 00-3.53 3.38zm0-9.397a3.55 3.55 0 003.53 3.379 3.55 3.55 0 003.534-3.38 3.55 3.55 0 00-3.534-3.378 3.55 3.55 0 00-3.53 3.379zm5.907 0a2.389 2.389 0 01-2.377 2.377 2.389 2.389 0 01-2.377-2.377 2.389 2.389 0 012.377-2.377 2.389 2.389 0 012.377 2.377zm0 9.397a2.389 2.389 0 01-2.377 2.377 2.389 2.389 0 01-2.377-2.377 2.389 2.389 0 012.377-2.377 2.389 2.389 0 012.377 2.377zm1.212-9.397a3.552 3.552 0 003.533 3.533 3.55 3.55 0 003.533-3.533v-.002a3.549 3.549 0 00-3.533-3.533 3.549 3.549 0 00-3.533 3.533v.002zm0 9.397a3.552 3.552 0 003.533 3.409 3.552 3.552 0 003.533-3.409 3.552 3.552 0 00-3.533-3.409 3.552 3.552 0 00-3.533 3.41zm5.908 0v.074a2.387 2.387 0 01-2.377 2.377 2.389 2.389 0 01-2.377-2.377l.002-.074a2.386 2.386 0 012.375-2.303 2.386 2.386 0 012.377 2.303zm0-9.53a2.391 2.391 0 01-2.38 2.379 2.39 2.39 0 01-2.377-2.38 2.389 2.389 0 012.377-2.377 2.39 2.39 0 012.38 2.377zm1.213 9.53a3.55 3.55 0 003.531 3.379 3.55 3.55 0 003.533-3.379 3.55 3.55 0 00-3.533-3.379 3.55 3.55 0 00-3.53 3.38zm5.984 0a2.389 2.389 0 01-2.377 2.377 2.389 2.389 0 01-2.377-2.377 2.389 2.389 0 012.377-2.377 2.389 2.389 0 012.377 2.377z" fill="#ffca1d"/><path d="M281 42.727v99.462H106.623V42.727z"/><path d="M259.727 87.914h16.816v-7.566H259.73v-18.79h16.813v-7.932h-21.618v-4.434h26.052v16.797h-16.814v9.927h16.814v16.431h-16.814v9.925h16.814v28.408h-33.79v-4.431h29.356v-7.928h-29.36v-4.434h29.36v-7.184H259.73v-18.79h-.003z" fill="#d09600"/><path d="M110.239 48.731h133.195v58.71h-21.166v29.607H110.239V48.731z" fill="#c7c7c7"/><path d="M207.334 52.548h5.361v2.66h-.633v-2.172h-1.642v2.034h-.629v-2.034h-1.826v2.257h-.631v-2.745zm1.722 3.252l.058.458a1.984 1.984 0 00-.661.152c-.355.175-.58.54-.576.935 0 .185.042.346.122.489a.745.745 0 00.33.318 1.031 1.031 0 00.898.004.789.789 0 00.318-.332c.103-.211.19-.43.262-.654.118-.336.23-.575.334-.709.13-.17.302-.306.5-.392a1.84 1.84 0 011.428.028c.221.095.408.256.534.46.122.203.187.438.185.676 0 .274-.067.513-.194.72a1.247 1.247 0 01-.566.482 2.172 2.172 0 01-.843.18l-.053-.466a1.32 1.32 0 00.769-.253c.173-.148.26-.36.26-.645 0-.293-.08-.507-.237-.64a.846.846 0 00-.569-.203.75.75 0 00-.474.143c-.125.092-.254.338-.383.735-.131.393-.244.667-.34.813-.137.207-.325.37-.549.474-.24.106-.5.157-.762.152-.286 0-.553-.055-.806-.168a1.345 1.345 0 01-.59-.484 1.247 1.247 0 01-.21-.707 1.526 1.526 0 01.212-.836c.155-.237.378-.421.638-.53.304-.13.634-.2.965-.2zm-1.722 3.59h5.361v1.387c0 .244-.018.43-.052.56a.933.933 0 01-.252.454 1.329 1.329 0 01-.515.294 2.325 2.325 0 01-.733.111 2.144 2.144 0 01-1.156-.3c-.316-.197-.475-.557-.475-1.075v-.944h-2.178v-.486zm2.81.487v.95c0 .314.087.538.257.669.212.145.466.214.721.198.198.007.397-.035.576-.115.14-.06.254-.17.316-.309.039-.147.055-.302.046-.454v-.94h-1.916zm-1.396 2.759l.087.451c-.373.051-.64.139-.806.265-.163.125-.246.277-.246.454 0 .214.106.392.322.539.237.152.516.23.797.219.302 0 .553-.07.749-.203.195-.138.294-.309.294-.516a.902.902 0 00-.073-.32l.576.05a.744.744 0 00.211.593c.148.154.374.23.678.23.211.01.421-.05.598-.168a.512.512 0 00-.002-.87 1.492 1.492 0 00-.723-.227l.115-.453c.37.03.726.159 1.027.377a.904.904 0 01.175 1.286 1.185 1.185 0 01-.513.384 1.82 1.82 0 01-.691.136c-.23 0-.442-.044-.634-.129a1.046 1.046 0 01-.451-.378.882.882 0 01-.456.507c-.23.12-.518.18-.866.18-.468 0-.864-.115-1.19-.35a1.055 1.055 0 01-.49-.89c0-.32.157-.621.422-.803a1.99 1.99 0 011.09-.364zm-.783 5.226h-.631v-2.428c.154-.004.306.014.456.053.25.065.49.166.714.297.232.136.504.332.81.59.48.4.857.668 1.136.81.244.132.516.203.792.21.235.01.468-.06.661-.19.168-.111.27-.3.267-.5a.603.603 0 00-.283-.523 1.407 1.407 0 00-.792-.198l.069-.463c.507.032.891.152 1.156.359.258.198.408.509.396.834a.98.98 0 01-.428.838c-.286.207-.638.309-1.06.309-.214 0-.428-.033-.633-.092a2.588 2.588 0 01-.654-.3 9.015 9.015 0 01-.944-.693 9.255 9.255 0 00-.675-.523 2.31 2.31 0 00-.357-.191v1.803-.002zm.976.435h.664v1.387h-.664v-1.387zm-1.607 2.584l5.361-.974v.498l-3.517.56c-.368.06-.732.112-1.096.154l.99.166 3.623.7v.587l-2.715.525c-.673.134-1.304.23-1.898.288.339.046.728.108 1.168.184l3.445.576v.488l-5.361-1.008v-.468l4.083-.776c.21-.042.42-.08.631-.115-.212-.033-.421-.07-.63-.109l-4.084-.778v-.498zm0 4.213h5.361v1.63c0 .33-.048.577-.145.75a.994.994 0 01-.51.407 2.1 2.1 0 01-.807.154 1.731 1.731 0 01-.963-.253 1.152 1.152 0 01-.497-.783c-.092.129-.18.226-.267.292a3.7 3.7 0 01-.714.403l-1.458.64v-.612l1.114-.484c.251-.108.496-.225.737-.352.132-.065.254-.147.36-.246a.673.673 0 00.142-.224c.021-.087.03-.18.028-.27v-.564h-2.381v-.488zm2.994.488v1.046c-.01.18.025.357.101.52a.65.65 0 00.323.286c.152.067.313.1.479.1.253 0 .463-.063.626-.19.161-.126.244-.327.244-.599v-1.163h-1.773zm-.383 3.066c.89 0 1.585.166 2.09.493.504.327.755.75.755 1.267 0 .34-.12.647-.355.92a2.22 2.22 0 01-.99.623 4.483 4.483 0 01-1.44.214c-.543 0-1.03-.076-1.458-.226a2.103 2.103 0 01-.974-.64 1.36 1.36 0 01.035-1.82c.271-.292.615-.506.997-.621.433-.141.884-.212 1.34-.208v-.002zm-.011.502c-.647 0-1.156.12-1.527.357-.373.24-.557.537-.557.898 0 .366.186.668.561.903.376.237.908.355 1.599.355.438 0 .818-.05 1.142-.152a1.69 1.69 0 00.758-.445.952.952 0 00.27-.654c0-.345-.173-.64-.519-.889-.345-.249-.92-.373-1.727-.373zm-2.6 4.694l5.361-1.426v.528l-3.897.956c-.31.076-.603.14-.875.19.293.058.585.125.875.199l3.897.992v.498l-5.361-1.44v-.497zm0 2.384h5.361v2.658h-.633v-2.172h-1.642v2.034h-.629v-2.034h-1.826v2.257h-.631v-2.743zm0 3.422h5.361v1.631c0 .33-.048.576-.145.749a.994.994 0 01-.51.407c-.257.104-.53.157-.807.152a1.731 1.731 0 01-.963-.253 1.152 1.152 0 01-.497-.783c-.092.131-.18.23-.267.295a3.825 3.825 0 01-.714.405l-1.458.638v-.613l1.114-.483c.251-.109.496-.226.737-.353.132-.064.254-.147.36-.246a.673.673 0 00.142-.224c.021-.087.03-.18.028-.269v-.564h-2.381v-.489zm2.994.489v1.045c-.01.18.025.357.101.52a.65.65 0 00.323.286c.152.067.313.1.479.1a.995.995 0 00.626-.192c.161-.124.244-.322.244-.599v-1.16h-1.773zm-1.387 2.98h.664v1.387h-.664v-1.387zm-1.607 1.953h5.361v2.66h-.633V95.56h-1.642v2.034h-.629V95.56h-1.826v2.258h-.631v-2.746zm20.79-31.08h6.825v3.386h-.806v-2.766h-2.089v2.589h-.8v-2.589h-2.323v2.872h-.806v-3.491zm2.193 4.137l.076.585c-.34.028-.621.092-.84.194a1.231 1.231 0 00-.53.47 1.32 1.32 0 00-.203.718 1.26 1.26 0 00.152.627.963.963 0 00.422.403c.182.087.382.133.585.13.193.005.387-.038.56-.126.172-.099.313-.244.403-.421.13-.27.241-.548.334-.834.096-.32.24-.624.423-.903a1.58 1.58 0 01.638-.5 2.34 2.34 0 011.815.037c.284.12.52.325.682.587.157.26.237.558.233.86a1.586 1.586 0 01-.963 1.529c-.318.14-.675.219-1.076.23l-.064-.594c.43-.032.755-.14.976-.325.221-.184.33-.456.33-.815 0-.376-.1-.647-.3-.82a1.079 1.079 0 00-.723-.256c-.246 0-.447.06-.606.182-.159.12-.32.43-.486.933-.165.504-.31.85-.437 1.036-.17.263-.41.47-.693.604a2.28 2.28 0 01-.972.196c-.364 0-.705-.074-1.028-.214a1.698 1.698 0 01-.748-.615 1.595 1.595 0 01-.267-.903c-.014-.373.08-.742.27-1.064.197-.3.48-.535.812-.673a3.117 3.117 0 011.225-.258zm-2.192 4.572h6.824v1.764c0 .311-.023.548-.064.714-.056.23-.162.422-.318.576a1.71 1.71 0 01-.659.375 2.935 2.935 0 01-.933.143c-.58 0-1.07-.126-1.474-.38-.4-.253-.599-.711-.599-1.372v-1.2h-2.777v-.622.002zm3.581.62v1.209c0 .4.109.684.325.852.217.168.523.253.917.253.253.007.502-.043.732-.15a.753.753 0 00.403-.391c.05-.187.072-.382.062-.576v-1.197h-2.441.002zm-3.581 3.75h6.824v2.074c0 .417-.06.735-.184.952-.122.216-.339.391-.647.52-.311.13-.654.196-1.03.196-.483 0-.891-.108-1.225-.323a1.47 1.47 0 01-.634-.997c-.115.164-.225.29-.338.376-.242.18-.546.35-.908.513l-1.858.813v-.778l1.42-.622c.319-.136.632-.286.94-.445.166-.083.32-.188.457-.315a.844.844 0 00.182-.281c.025-.113.036-.23.032-.346v-.718h-3.031v-.62zm3.814.619v1.331c-.012.228.032.456.127.666a.831.831 0 00.41.364c.193.082.403.124.612.122.283.011.564-.074.795-.24.21-.161.313-.414.313-.76V77.69h-2.257zm-3.814 4.104h6.824v3.386h-.806v-2.764h-2.089v2.589h-.8v-2.589h-2.323v2.872h-.806v-3.494zm2.192 4.139l.076.583c-.34.027-.621.092-.84.193a1.236 1.236 0 00-.53.472 1.32 1.32 0 00-.203.719c-.004.219.049.433.152.624a.956.956 0 00.422.405c.182.088.382.134.585.132.193.004.387-.04.56-.127.172-.099.313-.244.403-.421.13-.27.241-.549.334-.834.096-.32.24-.624.423-.903a1.58 1.58 0 01.638-.5 2.33 2.33 0 011.815.037c.284.12.52.325.682.587.157.26.237.558.233.86a1.572 1.572 0 01-.963 1.529c-.318.14-.675.219-1.076.23l-.064-.596c.43-.03.755-.139.976-.323.221-.184.33-.456.33-.815 0-.376-.1-.65-.3-.82a1.077 1.077 0 00-.723-.258.963.963 0 00-.606.184c-.159.118-.32.429-.486.933-.165.504-.31.848-.437 1.036-.17.263-.41.47-.693.604-.307.133-.638.2-.972.193-.364 0-.705-.069-1.028-.214a1.693 1.693 0 01-.748-.613 1.577 1.577 0 01-.267-.902c-.014-.374.08-.742.27-1.065.197-.301.48-.536.812-.674a3.075 3.075 0 011.225-.256zm0 4.36l.076.585a2.56 2.56 0 00-.84.191 1.251 1.251 0 00-.53.472 1.32 1.32 0 00-.203.719c-.004.219.049.433.152.624a.956.956 0 00.422.405c.182.09.382.134.585.132.193.004.387-.04.56-.127.172-.099.313-.244.403-.421.13-.27.241-.549.334-.834.096-.32.24-.624.423-.903a1.58 1.58 0 01.638-.5c.27-.113.558-.168.848-.163.345 0 .668.066.967.2.284.12.52.325.682.587.157.26.237.558.233.86a1.572 1.572 0 01-.963 1.529 2.791 2.791 0 01-1.076.23l-.064-.594c.43-.032.755-.138.976-.325.221-.184.33-.456.33-.815 0-.373-.1-.647-.3-.818a1.065 1.065 0 00-.723-.258c-.246 0-.447.06-.606.182-.159.118-.32.43-.486.933-.165.504-.31.85-.437 1.036-.17.263-.41.47-.693.604a2.28 2.28 0 01-.972.196c-.364 0-.705-.072-1.028-.215a1.698 1.698 0 01-.748-.615 1.577 1.577 0 01-.267-.902c-.014-.374.08-.742.27-1.065.197-.299.48-.534.812-.672a3.117 3.117 0 011.225-.258zm-2.192 4.678h6.824v.617h-6.824v-.617zm0 1.741h6.824v3.158h-.806v-2.536h-2.112v2.197h-.806v-2.197h-3.1v-.622zm-50.66-35.622l-.53 1.447c-1.729-.304-3.049-.85-3.959-1.635-.907-.788-1.36-1.75-1.36-2.886 0-1.175.347-2.133 1.047-2.868.698-.737 1.71-1.299 3.034-1.683a15.171 15.171 0 014.265-.576c1.658 0 3.105.214 4.34.65 1.232.435 2.169 1.052 2.81 1.853.619.744.96 1.682.962 2.649 0 1.09-.405 2.008-1.216 2.752-.81.744-1.95 1.265-3.42 1.557l-.489-1.423c1.157-.253 2.002-.62 2.53-1.101a2.354 2.354 0 00.792-1.817c0-.839-.293-1.539-.88-2.103-.585-.564-1.373-.958-2.361-1.186a13.414 13.414 0 00-3.056-.346c-1.355 0-2.534.138-3.545.408-1.009.27-1.764.69-2.262 1.262-.5.569-.75 1.189-.75 1.854 0 .809.34 1.493 1.02 2.055.681.56 1.69.94 3.028 1.137zm-5.578 3.255h15.915v7.89h-1.88V65.79h-4.873v6.04h-1.868v-6.04h-5.417v6.702h-1.877v-8.146z" fill-rule="nonzero"/><path fill="#c7c7c7" d="M45.8 65.045v51.431H1v-51.43zM216.65 4.73v25.712h-14.28V4.73z"/><path d="M209.508 24.962a4.156 4.156 0 004.157-4.155v-6.442a4.175 4.175 0 00-4.155-4.02 4.175 4.175 0 00-4.155 4.02v6.442a4.156 4.156 0 004.155 4.155h-.002z" fill="#607bff"/><path d="M191.492 162.522h25.709v14.28H191.49l.002-14.28z" fill="#c7c7c7"/><path d="M211.724 169.662a4.156 4.156 0 00-4.155-4.155h-6.445a4.175 4.175 0 00-4.019 4.155 4.175 4.175 0 004.02 4.155h6.444a4.156 4.156 0 004.155-4.155z" fill="#607bff"/><path d="M166.286.345v27.13h-31.647V.343l31.647.002z" fill="#fff7c9"/></svg>