<svg viewBox="0 0 185 71" xmlns="http://www.w3.org/2000/svg" fill-rule="evenodd" clip-rule="evenodd"><path d="M4.639 64.346V6.52C4.639 2.934 7.572 0 11.158 0h161.291c3.586 0 6.52 2.933 6.52 6.52v57.826c0 3.586-2.934 6.521-6.52 6.521H11.158c-3.586 0-6.519-2.934-6.519-6.521zm156.227-1.696c.855 0 1.559.704 1.559 1.559s-.704 1.559-1.559 1.559a1.573 1.573 0 0 1-1.559-1.559c0-.855.704-1.559 1.559-1.559zm-7.2 0c.855 0 1.559.704 1.559 1.559s-.704 1.559-1.559 1.559a1.573 1.573 0 0 1-1.559-1.559c0-.855.704-1.559 1.559-1.559zm-7.2 0c.855 0 1.559.704 1.559 1.559s-.704 1.559-1.559 1.559a1.573 1.573 0 0 1-1.559-1.559c0-.855.704-1.559 1.559-1.559zm-7.2 0h.001c.854 0 1.558.704 1.558 1.558 0 .855-.703 1.559-1.558 1.559a1.573 1.573 0 0 1-1.559-1.559c0-.854.703-1.558 1.558-1.558zm-7.199 0c.855 0 1.559.704 1.559 1.559s-.704 1.559-1.559 1.559a1.573 1.573 0 0 1-1.559-1.559c0-.855.704-1.559 1.559-1.559zm-7.2 0c.855 0 1.559.704 1.559 1.559s-.704 1.559-1.559 1.559a1.573 1.573 0 0 1-1.559-1.559c0-.855.704-1.559 1.559-1.559zm-7.2 0c.855 0 1.559.704 1.559 1.559s-.704 1.559-1.559 1.559a1.573 1.573 0 0 1-1.559-1.559c0-.855.704-1.559 1.559-1.559zm-7.2 0c.855 0 1.559.704 1.559 1.559s-.704 1.559-1.559 1.559a1.573 1.573 0 0 1-1.559-1.559c0-.855.704-1.559 1.559-1.559zm-7.2 0c.855 0 1.559.704 1.559 1.559s-.704 1.559-1.559 1.559a1.573 1.573 0 0 1-1.559-1.559c0-.855.704-1.559 1.559-1.559zm-7.2 0c.855 0 1.559.704 1.559 1.559s-.704 1.559-1.559 1.559a1.573 1.573 0 0 1-1.559-1.559c0-.855.704-1.559 1.559-1.559zm-7.2 0c.855 0 1.559.704 1.559 1.559s-.704 1.559-1.559 1.559a1.573 1.573 0 0 1-1.559-1.559c0-.855.704-1.559 1.559-1.559zm-7.2 0h.001c.854 0 1.558.704 1.558 1.558 0 .855-.703 1.559-1.558 1.559a1.573 1.573 0 0 1-1.559-1.559c0-.854.703-1.558 1.558-1.558zm-7.2 0l.057-.001c.856 0 1.56.704 1.56 1.56 0 .856-.704 1.56-1.56 1.56l-.055-.001a1.573 1.573 0 0 1-1.505-1.559c0-.834.669-1.529 1.503-1.559zm-7.199 0c.855 0 1.559.704 1.559 1.559s-.704 1.559-1.559 1.559a1.573 1.573 0 0 1-1.559-1.559c0-.855.704-1.559 1.559-1.559zm93.599-57.6c.855 0 1.559.704 1.559 1.559s-.704 1.559-1.559 1.559a1.573 1.573 0 0 1-1.559-1.559c0-.855.704-1.559 1.559-1.559zm-7.2 0h.001c.854 0 1.558.704 1.558 1.558 0 .855-.703 1.559-1.558 1.559a1.573 1.573 0 0 1-1.559-1.559c0-.854.703-1.558 1.558-1.558zm-7.199 0c.855 0 1.559.704 1.559 1.559s-.704 1.559-1.559 1.559a1.573 1.573 0 0 1-1.559-1.559c0-.855.704-1.559 1.559-1.559zm-7.2 0c.855 0 1.559.704 1.559 1.559s-.704 1.559-1.559 1.559a1.573 1.573 0 0 1-1.559-1.559c0-.855.704-1.559 1.559-1.559zm-7.2 0c.855 0 1.559.704 1.559 1.559s-.704 1.559-1.559 1.559a1.573 1.573 0 0 1-1.559-1.559c0-.855.704-1.559 1.559-1.559zm-7.2 0c.855 0 1.559.704 1.559 1.559s-.704 1.559-1.559 1.559a1.573 1.573 0 0 1-1.559-1.559c0-.855.704-1.559 1.559-1.559zm-7.2 0c.855 0 1.559.704 1.559 1.559s-.704 1.559-1.559 1.559a1.573 1.573 0 0 1-1.559-1.559c0-.855.704-1.559 1.559-1.559zm-7.2 0c.855 0 1.559.704 1.559 1.559s-.704 1.559-1.559 1.559a1.573 1.573 0 0 1-1.559-1.559c0-.855.704-1.559 1.559-1.559zm-7.2 0c.855 0 1.559.704 1.559 1.559s-.704 1.559-1.559 1.559a1.573 1.573 0 0 1-1.559-1.559c0-.855.704-1.559 1.559-1.559zm-7.2 0h.001c.854 0 1.558.704 1.558 1.558 0 .855-.703 1.559-1.558 1.559a1.573 1.573 0 0 1-1.559-1.559c0-.854.703-1.558 1.558-1.558zm-7.2 0l.057-.001c.856 0 1.56.704 1.56 1.56 0 .856-.704 1.56-1.56 1.56l-.055-.001a1.573 1.573 0 0 1-1.505-1.559c0-.834.669-1.529 1.503-1.559zm-7.199 0c.855 0 1.559.704 1.559 1.559s-.704 1.559-1.559 1.559a1.573 1.573 0 0 1-1.559-1.559c0-.855.704-1.559 1.559-1.559zm-7.2 0c.855 0 1.559.704 1.559 1.559s-.704 1.559-1.559 1.559a1.573 1.573 0 0 1-1.559-1.559c0-.855.704-1.559 1.559-1.559zm-7.2 0c.855 0 1.559.704 1.559 1.559s-.704 1.559-1.559 1.559a1.573 1.573 0 0 1-1.559-1.559c0-.855.704-1.559 1.559-1.559zm105.128 56.041a3.15 3.15 0 0 1 3.118 3.118 3.15 3.15 0 0 1-3.118 3.118 3.15 3.15 0 0 1-3.118-3.118 3.15 3.15 0 0 1 3.118-3.118zm0-57.6a3.15 3.15 0 0 1 3.118 3.118 3.15 3.15 0 0 1-3.118 3.118 3.15 3.15 0 0 1-3.118-3.118 3.15 3.15 0 0 1 3.118-3.118zm-161.096 57.6a3.15 3.15 0 0 1 3.118 3.118 3.15 3.15 0 0 1-3.118 3.118 3.15 3.15 0 0 1-3.118-3.118 3.15 3.15 0 0 1 3.118-3.118zm0-57.6a3.15 3.15 0 0 1 3.118 3.118 3.15 3.15 0 0 1-3.118 3.118 3.15 3.15 0 0 1-3.118-3.118 3.15 3.15 0 0 1 3.118-3.118z" fill="#0f7391" fill-rule="nonzero"/><path fill="#0f7391" stroke="#0b4557" stroke-width=".72" d="M88.138 14.362h96.378v42.259H88.138z"/><path fill="#a9abae" d="M89.839 16.046h75.163V54.82H89.839z"/><path fill="#e6e7e8" d="M91.328 17.451h72.186v35.964H91.328z"/><path d="M184.184 35.961v-7.875h-7.687v-5.5h7.687v-7.934H171.43l.003 1.71 11.187-.062v4.723h-7.749v8.625h7.749v4.75h-7.749v8.69h7.749v4.435h-17.618v-.308h4.743V14.362h14.77v42.259h-.331v-15.16h-7.687v-5.5h7.687m-19.182 13.25h17.618v3.843h-12.875v-3.557h-4.743v-.286z" fill="#0b4557" fill-rule="nonzero"/><path d="M89.839 16.046h75.163l-1.489 1.405H91.328l-1.489-1.405zM40.359 2.223l.196.684h.986l.198-.684h.611l-.929 2.868h-.74l-.934-2.868h.612zm.337 1.189l.184.625.035.115.05.177c.018.064.034.129.05.193.016.066.027.121.033.167l.02-.102.03-.124.035-.132c.018-.077.039-.153.061-.229l.018-.066.182-.625h-.698v.001zm-1.912.384h-.166c-.171 0-.294.034-.368.101-.074.068-.111.168-.111.3 0 .137.04.234.119.292.08.058.202.086.37.086h.156v-.779zm0-.48V2.224h.606V5.08h-.782c-.367 0-.638-.071-.812-.213-.175-.142-.262-.356-.262-.645a.806.806 0 0 1 .294-.641c.057-.046.116-.085.179-.117l-.531-.847-.124-.199-.09-.14-.033-.055h.672l.618 1.092h.266l-.001.001zm-4.122.363c0-.241.033-.452.099-.634.065-.181.161-.333.285-.456.124-.121.276-.212.457-.273.18-.062.385-.092.616-.092h.751V5.08h-.835c-.21 0-.398-.03-.567-.09a1.165 1.165 0 0 1-.433-.267 1.175 1.175 0 0 1-.275-.438 1.737 1.737 0 0 1-.097-.606h-.001zm.606-.017c0 .157.016.294.048.408.026.103.074.2.14.284.06.075.135.131.224.168a.79.79 0 0 0 .304.054h.281V2.728h-.225c-.256 0-.45.077-.578.232-.13.156-.194.39-.194.702zm-3.362 1.417V3.231c0-.149.023-.287.067-.414a.893.893 0 0 1 .55-.553c.138-.054.3-.08.487-.08.175 0 .33.025.465.075.255.09.456.292.545.547.046.129.07.274.07.433V5.08h-.606V3.281c0-.106-.011-.197-.031-.271a.479.479 0 0 0-.093-.184.343.343 0 0 0-.152-.105.647.647 0 0 0-.214-.033c-.171 0-.293.049-.369.148-.076.1-.114.249-.114.449V5.08h-.605v-.001zm-1.769-2.856h1.301v.344l-.347.16v1.848l.347.16v.344h-1.301v-.344l.348-.16V2.727l-.348-.16v-.344zm-2.899 0h.763l1.129 2.161h.017l-.019-.298a7.448 7.448 0 0 1-.018-.518V2.224h.539V5.08h-.761l-1.127-2.14h-.012l.014.294.005.128c.005.086.007.171.008.257l.001.109V5.08h-.54V2.224l.001-.001zm-3.152 1.432c0-.221.025-.422.077-.602.051-.182.129-.336.235-.465.105-.129.239-.229.4-.3.16-.069.349-.105.568-.105.219 0 .409.036.57.105.16.071.293.171.398.3.104.129.183.284.234.465.051.182.078.383.078.605 0 .221-.026.422-.078.603-.051.18-.129.334-.235.462-.108.129-.244.23-.399.296-.161.07-.351.104-.571.104-.219 0-.409-.034-.569-.104a1.04 1.04 0 0 1-.397-.297 1.285 1.285 0 0 1-.235-.463 2.24 2.24 0 0 1-.077-.604h.001zm1.936-.002c0-.151-.013-.286-.039-.405a.902.902 0 0 0-.12-.303.558.558 0 0 0-.498-.258.617.617 0 0 0-.298.067.518.518 0 0 0-.203.191.896.896 0 0 0-.117.303c-.027.133-.04.269-.038.405 0 .15.013.285.038.404.021.107.061.21.117.304a.532.532 0 0 0 .202.192.616.616 0 0 0 .295.066.55.55 0 0 0 .502-.258.92.92 0 0 0 .12-.304c.026-.119.039-.254.039-.404zm-2.277-1.15a.397.397 0 0 1-.026.156.274.274 0 0 1-.073.102.29.29 0 0 1-.11.057.497.497 0 0 1-.265 0 .276.276 0 0 1-.182-.159.399.399 0 0 1-.028-.156c0-.058.01-.108.028-.15a.295.295 0 0 1 .074-.104.292.292 0 0 1 .108-.059.409.409 0 0 1 .13-.018c.048 0 .093.005.135.018a.274.274 0 0 1 .183.163.368.368 0 0 1 .026.15zM21.38 4.615a.685.685 0 0 0 .308-.067.608.608 0 0 0 .225-.193.913.913 0 0 0 .137-.307c.032-.121.047-.256.047-.405 0-.153-.014-.288-.043-.407a.837.837 0 0 0-.128-.299.545.545 0 0 0-.223-.186.763.763 0 0 0-.323-.063c-.115 0-.232.012-.348.039a3.12 3.12 0 0 0-.38.111V2.33c.062-.026.125-.048.185-.067a1.99 1.99 0 0 1 .599-.079c.221 0 .412.035.573.105.162.071.295.169.4.297.105.128.184.282.234.461.051.18.077.38.077.6 0 .216-.03.414-.088.595-.059.18-.145.335-.258.466-.113.13-.253.231-.42.303a1.43 1.43 0 0 1-.574.108c-.142 0-.284-.017-.426-.053a2.127 2.127 0 0 1-.409-.148l.195-.492c.106.05.214.095.322.133a.929.929 0 0 0 .317.056h.001zm-2.468 0c.21.01.411-.088.532-.26a.935.935 0 0 0 .138-.307c.031-.121.046-.256.046-.405a1.742 1.742 0 0 0-.042-.407.839.839 0 0 0-.129-.299.549.549 0 0 0-.222-.186.768.768 0 0 0-.324-.063c-.115 0-.232.012-.348.039-.129.03-.256.067-.38.111V2.33c.063-.026.125-.048.185-.067.195-.056.397-.083.6-.079.221 0 .411.035.573.105.161.071.294.169.4.297.105.128.184.282.234.461.051.18.076.38.076.6 0 .216-.029.414-.088.595-.059.18-.144.335-.257.466-.113.13-.253.231-.42.303a1.43 1.43 0 0 1-.574.108c-.142 0-.285-.017-.427-.053a2.127 2.127 0 0 1-.409-.148l.195-.492c.107.05.214.095.322.133.102.037.21.056.318.056h.001zm43.4 64.324l-2.24.512v.014l.347-.015c.049-.002.099-.005.149-.006l.151-.005.142-.002.123-.001h1.328v.439h-2.856v-.67l2.184-.504v-.01l-2.184-.535v-.671h2.856v.46h-1.351l-.116-.001-.136-.002-.147-.005-.144-.003c-.11-.005-.223-.009-.342-.011v.012l2.236.551v.454-.001zm0-3.818v.561l-1.188.536.168.184h1.02v.494h-2.856v-.494h1.375l-.404-.195-.971-.532v-.548l1.287.744 1.569-.751v.001zm-1.573-.786v-.136c0-.139-.034-.239-.101-.299-.068-.061-.167-.091-.299-.091-.137 0-.234.033-.292.097-.058.065-.087.165-.087.301v.128h.779zm.481 0h1.092v.494h-2.856v-.638c0-.299.071-.52.213-.662.141-.142.357-.213.644-.213.099 0 .187.01.267.032.079.021.15.049.212.085a.745.745 0 0 1 .162.123.744.744 0 0 1 .117.145l.62-.316c.077-.04.153-.08.227-.117l.199-.101c.058-.03.106-.054.14-.073l.055-.027v.548l-1.092.504v.217-.001zm1.092-2.57v.494h-1.653l-.122-.001-.148-.003a8.125 8.125 0 0 1-.156-.005l-.142-.004.035.027.052.043.057.049.053.05.264.267-.363.239-.733-.75v-.406h2.856zm-1.427-2.19c.23 0 .436.015.617.045.181.028.335.075.461.139a.736.736 0 0 1 .29.249c.069.11.103.238.099.367a.623.623 0 0 1-.099.351.767.767 0 0 1-.29.249c-.126.066-.28.115-.461.147-.204.034-.41.051-.617.049-.231 0-.437-.015-.619-.044a1.606 1.606 0 0 1-.464-.14.64.64 0 0 1-.39-.612c0-.134.033-.251.099-.35a.778.778 0 0 1 .29-.25c.127-.067.28-.117.463-.15.182-.033.389-.049.621-.049v-.001zm-.001 1.102c.325 0 .57-.023.734-.067.164-.045.246-.124.246-.235 0-.108-.082-.187-.245-.234-.162-.048-.407-.072-.736-.072-.326 0-.572.024-.736.072-.165.047-.247.126-.247.234 0 .056.021.103.063.141.041.038.103.07.185.094.082.024.184.041.307.051.123.011.266.016.428.016h.001zm.001-2.898c.23 0 .436.014.617.044.181.029.335.075.461.14a.733.733 0 0 1 .29.248c.069.11.103.238.099.367a.626.626 0 0 1-.099.352.764.764 0 0 1-.29.248c-.126.066-.28.115-.461.148a3.54 3.54 0 0 1-.617.048c-.231 0-.437-.014-.619-.044a1.574 1.574 0 0 1-.464-.139.743.743 0 0 1-.289-.247.641.641 0 0 1-.101-.366.62.62 0 0 1 .099-.35.778.778 0 0 1 .29-.25c.127-.067.28-.117.463-.149.205-.036.413-.052.621-.05zm-.001 1.101c.325 0 .57-.023.734-.067.164-.045.246-.123.246-.234 0-.109-.082-.187-.245-.235-.162-.048-.407-.071-.736-.071-.326 0-.572.023-.736.071-.165.048-.247.126-.247.235 0 .055.021.103.063.141a.462.462 0 0 0 .185.093c.082.024.184.042.307.052.123.01.266.016.428.016l.001-.001zm.001-2.898c.23 0 .436.015.617.044.181.029.335.076.461.14a.733.733 0 0 1 .29.248.66.66 0 0 1 .099.367.626.626 0 0 1-.099.352.767.767 0 0 1-.29.249c-.126.065-.28.114-.461.147-.204.034-.41.051-.617.049-.231 0-.437-.015-.619-.044a1.606 1.606 0 0 1-.464-.14.713.713 0 0 1-.289-.247.638.638 0 0 1-.101-.365c0-.134.033-.251.099-.351a.786.786 0 0 1 .29-.25c.127-.067.28-.116.463-.149.182-.033.389-.05.621-.05zm-.001 1.102c.325 0 .57-.023.734-.068.164-.045.246-.123.246-.234 0-.108-.082-.187-.245-.234-.162-.048-.407-.072-.736-.072-.326 0-.572.024-.736.072-.165.047-.247.125-.247.234 0 .056.021.103.063.141a.464.464 0 0 0 .185.094c.082.023.184.041.307.051.123.011.266.016.428.016h.001zm-44.313.529c0 .092.023.173.067.244a.552.552 0 0 0 .194.178c.083.048.185.084.306.109.121.025.256.037.406.037.152 0 .288-.011.406-.033a.969.969 0 0 0 .3-.102.51.51 0 0 0 .186-.177.499.499 0 0 0 .063-.256.995.995 0 0 0-.039-.276 2.31 2.31 0 0 0-.111-.301h.507c.049.093.087.192.112.295.023.107.035.217.035.327a.93.93 0 0 1-.105.454.88.88 0 0 1-.298.317 1.396 1.396 0 0 1-.46.186 2.686 2.686 0 0 1-.6.061c-.2.002-.4-.022-.595-.07a1.504 1.504 0 0 1-.466-.204.926.926 0 0 1-.412-.789c0-.112.018-.225.054-.338.036-.113.085-.221.148-.324l.492.154c-.051.085-.096.17-.133.256a.61.61 0 0 0-.057.252zm2.392-2.788v.479h-1.232v.769h1.232v.48h-2.856v-.48h1.12v-.769h-1.12v-.479h2.856zm-1.572-1.052v-.132c0-.135-.034-.232-.102-.291-.067-.059-.167-.089-.299-.089-.137 0-.234.032-.292.095-.058.063-.087.16-.087.293v.124h.78zm.48 0h1.092v.48h-2.856v-.62c0-.29.071-.505.213-.644.141-.138.356-.207.645-.207.098 0 .187.01.266.031.14.035.269.105.375.202.044.043.084.09.117.142l.619-.308.228-.113.198-.099c.059-.029.106-.052.14-.071l.055-.026v.533l-1.092.49v.211-.001zm-.511-2.377v-.897h1.481a2.094 2.094 0 0 1 .162.805c0 .169-.031.319-.095.45a.88.88 0 0 1-.281.33c-.14.096-.296.165-.461.203a2.606 2.606 0 0 1-.634.07c-.224 0-.426-.026-.608-.078a1.308 1.308 0 0 1-.462-.229.99.99 0 0 1-.292-.371 1.187 1.187 0 0 1-.103-.505c0-.121.016-.24.049-.355.03-.11.073-.217.127-.318l.484.16c-.044.07-.081.149-.111.238a.851.851 0 0 0-.044.278.582.582 0 0 0 .265.5c.084.06.187.106.307.138.119.032.253.047.4.047.14 0 .269-.011.386-.033.117-.022.217-.057.302-.104a.495.495 0 0 0 .267-.452 1.047 1.047 0 0 0-.039-.305h-.597v.428h-.504.001zm45.592-14.322v-.167c0-.171-.034-.293-.101-.367-.069-.074-.168-.112-.3-.112-.137 0-.234.04-.292.12-.058.079-.086.202-.086.369v.157h.779zm.48 0h1.092v.605h-2.856v-.782c0-.367.071-.637.213-.812.142-.175.356-.262.645-.262a.806.806 0 0 1 .641.294c.046.057.085.116.117.179l.619-.388.228-.143.199-.124.14-.09.055-.033v.672l-1.092.618v.266h-.001zm.3-3.479a.867.867 0 0 1 .345.065c.101.043.19.109.262.192a.85.85 0 0 1 .166.309c.04.121.059.261.059.418 0 .139-.013.272-.042.4a1.429 1.429 0 0 1-.13.357h-.562a6.49 6.49 0 0 0 .086-.19c.053-.127.095-.258.125-.392.013-.065.02-.131.02-.196a.618.618 0 0 0-.022-.171.3.3 0 0 0-.062-.115.229.229 0 0 0-.095-.064.332.332 0 0 0-.262.013.482.482 0 0 0-.115.096 1.01 1.01 0 0 0-.104.148c-.034.059-.07.123-.108.194-.031.06-.069.128-.114.202a1.08 1.08 0 0 1-.164.21.77.77 0 0 1-.573.232.915.915 0 0 1-.343-.063.7.7 0 0 1-.256-.181.804.804 0 0 1-.16-.285 1.214 1.214 0 0 1-.054-.374 1.49 1.49 0 0 1 .052-.398 2.69 2.69 0 0 1 .149-.395l.471.195-.073.164a1.468 1.468 0 0 0-.084.291.92.92 0 0 0-.011.139c0 .102.027.179.081.234a.294.294 0 0 0 .216.081.313.313 0 0 0 .128-.024.323.323 0 0 0 .104-.079.762.762 0 0 0 .099-.139c.035-.056.073-.125.116-.206.052-.098.105-.188.159-.269.054-.082.114-.153.18-.212a.735.735 0 0 1 .517-.187h-.001zm.792-1.573v.605h-2.352v.716h-.504v-2.036h.504v.715h2.352zM20.833 70.093c-.292 0-.537-.036-.737-.107a1.37 1.37 0 0 1-.393-.216.94.94 0 0 1-.258-.299 1.06 1.06 0 0 1-.113-.501c0-.342.131-.615.393-.821.263-.205.627-.308 1.095-.308.463 0 .825.103 1.087.306a.983.983 0 0 1 .393.817.991.991 0 0 1-.391.823c-.26.204-.619.306-1.076.306zm-.02-.483c.325 0 .571-.061.739-.183a.55.55 0 0 0 .002-.923c-.167-.12-.416-.18-.749-.18-.329 0-.574.058-.735.175a.548.548 0 0 0-.243.466.55.55 0 0 0 .245.467c.164.119.411.178.74.178h.001zm1.434-2.248h-2.864v-.454l1.92-.955h-1.92v-.434h2.864v.469l-1.882.94h1.882v.434zM85.368 0h7v10.25h-7V0zm3.499 4.058c1.4 0 2.552 1.152 2.552 2.552a2.576 2.576 0 0 1-2.552 2.553 2.576 2.576 0 0 1-2.552-2.552 2.576 2.576 0 0 1 2.552-2.553z" fill="#fefefe" fill-rule="nonzero"/><circle cx="141.029" cy="39.273" r="2.268" fill="#727376"/><circle cx="148.729" cy="39.273" r="2.268" fill="#727376"/><circle cx="141.029" cy="30.448" r="2.268" fill="#727376"/><circle cx="148.729" cy="30.448" r="2.268" fill="#727376"/><path d="M87.348 44.668a.304.304 0 0 0-.299-.299h-2.964a.304.304 0 0 0-.299.299v7.901c0 .164.135.299.299.3h2.964a.303.303 0 0 0 .299-.3v-7.901z" fill="#bdbfc1" stroke="#a98f71" stroke-width=".5"/><path fill="#303030" d="M64.137 46.629H69.4v11.233h-5.263z"/><path d="M69.797 58.323v.017l-.41-.478V46.63l.41-.478v12.171z" fill="#3d3e3d" fill-rule="nonzero"/><path d="M64.147 57.862l-.41.48v-12.19l.41.478v11.232z" fill-rule="nonzero"/><path d="M63.737 58.342l.41-.48h5.24l.41.48h-6.06zm.41-11.712l-.41-.478h6.06l-.41.478h-5.24z" fill="#1e1f1f" fill-rule="nonzero"/><path fill="#bdbfc1" d="M69.797 47.501h2.616v1.413h-2.616z"/><path fill="#666766" d="M70.839 47.501h.78v1.413h-.78z"/><path fill="#bdbfc1" d="M60.507 49.668h3.231v5.61h-3.231z"/><path fill="#666766" d="M61.415 49.668h.787v5.61h-.787z"/><path fill="#bdbfc1" d="M69.797 51.618h2.616v1.413h-2.616z"/><path fill="#666766" d="M70.839 51.618h.78v1.413h-.78z"/><path fill="#bdbfc1" d="M69.797 55.937h2.616v1.413h-2.616z"/><path fill="#666766" d="M70.839 55.937h.78v1.413h-.78z"/><path fill="#666" d="M17.608 31.54h1.215v.973h-1.215z"/><path fill="#999" d="M17.745 31.54h1.078v.088h-1.078z"/><path fill="#666" d="M17.608 33.354h1.215v.973h-1.215z"/><path fill="#999" d="M17.745 33.353h1.078v.088h-1.078z"/><path fill="#666" d="M17.608 35.163h1.215v.973h-1.215z"/><path fill="#999" d="M17.745 35.163h1.078v.087h-1.078z"/><path fill="#666" d="M17.608 36.975h1.215v.973h-1.215z"/><path fill="#999" d="M17.745 36.975h1.078v.086h-1.078z"/><path fill="#666" d="M17.608 38.786h1.215v.972h-1.215z"/><path fill="#999" d="M17.745 38.786h1.078v.086h-1.078z"/><path d="M1.169 44.926v-18.52h16.718v18.521l-16.718-.001z" fill="#b3b3b3" fill-rule="nonzero"/><path d="M8.398 45.127h2.989v.978H8.398v-.978zm0-19.935h2.989v.986H8.398v-.986z" fill="#666"/><path fill="#ccc" d="M17.759 26.406h.128v18.522h-.128z"/><path fill="#333" d="M2.54 30.594h15.347v10.113H2.54z"/><path d="M1.532 26.178h-.468L0 25.55v-.358l1.532.986z" fill="#b3b3b3" fill-rule="nonzero"/><path d="M1.064 26.178v.001l-.53-.001L0 25.55l1.064.628z" fill="#ccc" fill-rule="nonzero"/><path d="M0 46.109v-.358l1.064-.628h.468L0 46.109z" fill="#b3b3b3" fill-rule="nonzero"/><path d="M0 45.751l.534-.628.53-.001v.001L0 45.751z" fill="#ccc" fill-rule="nonzero"/><path d="M1.534 39.517h.637v.47h-.637v-.47zm0-2.051h.637v.471h-.637v-.471zm0-2.048h.637v.469h-.637v-.469zm0-2.051h.637v.469h-.637v-.469zm0-2.049h.637v.469h-.637v-.469z" fill="#f2f2f2"/><path d="M1.534 31.318h.637v.094h-.637v-.094zm0 2.049h.637v.096h-.637v-.096zm0 2.051h.637v.096h-.637v-.096zm0 2.049h.637v.096h-.637v-.096zm0 2.051h.637v.096h-.637v-.096z" fill="gray"/><path d="M1.352 30.814v.506h.39v.469h-.39v1.581l.39-.001v.469h-.39v1.581h.39v.468h-.39v1.58h.39v.471h-.39v1.579h.39v.47h-.39v.584c0 .076.062.142.144.142h1.048a.143.143 0 0 0 .141-.141v-9.834a.147.147 0 0 0-.143-.143H1.496a.147.147 0 0 0-.144.143v.076z" fill="#4d4d4d" fill-rule="nonzero"/><path d="M17.329 26.178l.557.225v2.491s-.11-2.264-.277-2.344c-.167-.081-.28.107-.28.107v-.479zm0 18.945l.556-.225v-2.491s-.111 2.263-.277 2.343c-.168.081-.279-.106-.279-.106v.479z" fill="#ccc" fill-rule="nonzero"/><path d="M17.887 41.792h-1.608v-1.576h1.608v-.454h-.556v-8.219h.556v-.514h-1.608v-1.578l1.608.001v-3.268L1.17 26.183v18.942h16.717v-3.333zM4.267 31.025h-.799v-1.566h.866c.272-.42.747-.696 1.285-.696.587 0 1.086.216 1.345.696h4.402v1.565H6.963c.118.221.18.468.18.718 0 .838-.69 1.527-1.527 1.527a1.542 1.542 0 0 1-1.527-1.527c0-.249.061-.495.178-.716v-.001zm0 10.702h-.799v-1.565h.866c.272-.42.747-.695 1.285-.695.587 0 1.086.213 1.345.695h4.402v1.564l-4.403.001a1.53 1.53 0 0 1-1.348.809 1.53 1.53 0 0 1-1.348-.809z" fill="#e6e6e6" fill-rule="nonzero"/><path d="M1.169 26.578v-.4h16.16v1.505l-16.16-1.105z" fill="#f2f2f2" fill-rule="nonzero"/><path d="M1.169 45.123l10.791-.561 5.369-.556v1.117H1.169z" fill="#999" fill-rule="nonzero"/><path d="M11.237 29.46h.129v1.566h-.129V29.46zm0 10.704h.129v1.564h-.129v-1.564z" fill="#ccc"/><path d="M1.368 27.108h.649v17.089h-.649V27.108z" fill="#b3b3b3"/><path fill="#ccc" d="M1.169 27.108h.308v17.089h-.308z"/><path d="M51 43.929h-1.578v9.974H51v-9.974zm-6.581 0h-1.575v9.974h1.575v-9.974z" fill="#b7b7b7" fill-rule="nonzero"/><path fill="#ad9e73" d="M35.752 51.892h22.553v14.339H35.752z"/><path d="M40.263 54.985h1.793v.928h9.885v-.928h1.667v-3.091H40.263v3.091z" fill="#c2b990" fill-rule="nonzero"/><path fill="#f1f3e6" d="M38.532 66.231h16.993v2.654H38.532z"/><path d="M53.608 54.988h-1.667v.93h-9.885v-.93h-1.793v2.632h13.345v-2.632z" fill="#a0916b" fill-opacity=".502" fill-rule="nonzero"/><path d="M53.609 59.062H40.262v4.789H53.61l-.001-4.789z" fill="#fff" fill-opacity=".102" fill-rule="nonzero"/><path d="M53.609 60.995H40.26v4.788h13.349v-4.788z" fill="#fff" fill-opacity=".102" fill-rule="nonzero"/><path d="M58.304 51.894v-4.496h-2.779v4.496h2.779zm-19.771 0v-4.496h-2.781v4.496h2.781zM58.304 66.23V51.894h-4.696v11.493h-2.779V51.894h-7.784v11.493h-2.782V51.894h-4.511V66.23h22.552z" fill="#f1f3e6" fill-rule="nonzero"/><path d="M38.532 51.602h-2.779v.292h2.779v-.292zm19.772 0h-2.779v.293h2.779v-.293z" fill="#c2b990" fill-opacity=".4" fill-rule="nonzero"/><path d="M53.609 66.23h-2.78v2.655h2.78V66.23zm-10.565.002h-2.781v2.655h2.781v-2.655z" fill="#ad9e73" fill-opacity=".4" fill-rule="nonzero"/><path fill="#d2d3d5" d="M43.092 38.98h.609v1.134h-.609z"/><path fill="#666766" d="M43.092 39.316h.609v.287h-.609z"/><path fill="#d2d3d5" d="M45.053 38.98h.609v1.134h-.609z"/><path fill="#666766" d="M45.053 39.316h.609v.287h-.609z"/><path fill="#d2d3d5" d="M47.024 38.98h.609v1.134h-.609z"/><path fill="#666766" d="M47.024 39.316h.609v.287h-.609z"/><path fill="#d2d3d5" d="M47.082 32.448h.609v1.133h-.609z"/><path fill="#666766" d="M47.082 32.959h.609v.287h-.609z"/><path fill="#d2d3d5" d="M45.133 32.448h.609v1.133h-.609z"/><path fill="#666766" d="M45.133 32.959h.609v.287h-.609z"/><path fill="#d2d3d5" d="M43.092 32.448h.609v1.133h-.609z"/><path fill="#666766" d="M43.092 32.96h.609v.287h-.609z"/><path fill="#2d2d2d" d="M42.659 33.581h5.289v5.399h-5.289z"/><circle cx="43.555" cy="37.768" r=".4" fill="#232323"/><path d="M47.948 38.784h-5.122l-.167.196h5.456l-.167-.196z" fill="#191919" fill-rule="nonzero"/><path d="M47.948 38.784l.167.196v-5.399l-.167.207v4.996z" fill="#3d3d3d" fill-rule="nonzero"/><path d="M42.659 38.98l.167-.196v-4.996l-.167-.207v5.399z" fill="#232323" fill-rule="nonzero"/><path d="M47.948 33.788h-5.122l-.167-.207h5.456l-.167.207z" fill="#191919" fill-rule="nonzero"/><path fill="#d2d3d5" d="M41.134 21.507h1.133v.61h-1.133z"/><path fill="#666766" d="M41.47 21.507h.286v.61h-.286z"/><path fill="#d2d3d5" d="M41.134 19.546h1.133v.61h-1.133z"/><path fill="#666766" d="M41.47 19.546h.286v.61h-.286z"/><path fill="#d2d3d5" d="M41.134 17.574h1.133v.61h-1.133z"/><path fill="#666766" d="M41.47 17.574h.286v.61h-.286z"/><path fill="#d2d3d5" d="M34.602 17.516h1.133v.61h-1.133z"/><path fill="#666766" d="M35.113 17.516h.286v.61h-.286z"/><path fill="#d2d3d5" d="M34.602 19.465h1.133v.61h-1.133z"/><path fill="#666766" d="M35.113 19.465h.286v.61h-.286z"/><path fill="#d2d3d5" d="M34.602 21.507h1.133v.61h-1.133z"/><path fill="#666766" d="M35.114 21.507h.286v.61h-.286z"/><path fill="#2d2d2d" d="M35.735 17.26h5.399v5.29h-5.399z"/><circle r=".666" fill="#232323" transform="rotate(-90 30.787 -9.134) scale(.6012)"/><path d="M40.938 17.26v5.123l.196.166v-5.455l-.196.166z" fill="#191919" fill-rule="nonzero"/><path d="M40.938 17.26l.196-.166h-5.399l.207.166h4.996z" fill="#3d3d3d" fill-rule="nonzero"/><path d="M41.134 22.549l-.196-.166h-4.996l-.207.166h5.399z" fill="#232323" fill-rule="nonzero"/><path d="M35.942 17.26v5.123l-.207.166v-5.455l.207.166z" fill="#191919" fill-rule="nonzero"/><path fill="#d2d3d5" d="M54.395 18.393h1.133v.61h-1.133z"/><path fill="#666766" d="M54.73 18.393h.287v.61h-.287z"/><path fill="#d2d3d5" d="M54.395 16.432h1.133v.61h-1.133z"/><path fill="#666766" d="M54.73 16.432h.287v.61h-.287z"/><path fill="#d2d3d5" d="M54.395 14.46h1.133v.61h-1.133z"/><path fill="#666766" d="M54.73 14.46h.287v.61h-.287z"/><path fill="#d2d3d5" d="M47.862 14.402h1.133v.61h-1.133z"/><path fill="#666766" d="M48.373 14.402h.287v.61h-.287z"/><path d="M47.862 16.96v-.609h1.133v.61l-1.133-.001z" fill="#d2d3d5"/><path d="M48.373 16.96v-.609h.287v.61l-.287-.001z" fill="#666766"/><path fill="#d2d3d5" d="M47.863 18.393h1.133v.61h-1.133z"/><path fill="#666766" d="M48.374 18.393h.287v.61h-.287z"/><path fill="#2d2d2d" d="M48.996 14.145h5.399v5.29h-5.399z"/><circle r=".666" fill="#232323" transform="matrix(0 -.6012 .6012 0 53.182 18.54)"/><path d="M54.199 14.146v5.123l.196.166V13.98l-.196.166z" fill="#191919" fill-rule="nonzero"/><path d="M54.199 14.146l.196-.166h-5.399l.207.166h4.996z" fill="#3d3d3d" fill-rule="nonzero"/><path d="M54.395 19.435l-.196-.166h-4.996l-.207.166h5.399z" fill="#232323" fill-rule="nonzero"/><path d="M49.203 14.146v5.123l-.207.166V13.98l.207.166z" fill="#191919" fill-rule="nonzero"/><path fill="#bdbfc1" d="M44.579 12.577h2.268v.61h-2.268z"/><path fill="#666766" d="M45.251 12.577h.573v.61h-.573z"/><path fill="#bdbfc1" d="M44.579 10.616h2.268v.61h-2.268z"/><path fill="#666766" d="M45.251 10.616h.573v.61h-.573z"/><path fill="#bdbfc1" d="M44.579 8.644h2.268v.61h-2.268z"/><path fill="#666766" d="M45.251 8.644h.573v.61h-.573z"/><path fill="#bdbfc1" d="M38.592 8.586h2.267v.61h-2.267z"/><path fill="#666766" d="M39.615 8.586h.572v.61h-.572z"/><path fill="#bdbfc1" d="M38.592 10.535h2.267v.61h-2.267z"/><path fill="#666766" d="M39.615 10.535h.572v.61h-.572z"/><path fill="#bdbfc1" d="M38.594 12.577h2.266v.61h-2.266z"/><path fill="#666766" d="M39.616 12.577h.573v.61h-.573z"/><path d="M41.067 13.62V8.33h3.512v5.29h-3.512z" fill="#2d2d2d"/><circle r=".666" fill="#232323" transform="matrix(0 -.6012 .6012 0 43.367 12.723)"/><path d="M44.383 8.33v5.123l.196.166V8.164l-.196.166z" fill="#191919" fill-rule="nonzero"/><path d="M44.383 8.33l.196-.166H40.86l.207.166h3.316z" fill="#3d3d3d" fill-rule="nonzero"/><path d="M44.579 13.619l-.196-.166h-3.316l-.207.166h3.719z" fill="#232323" fill-rule="nonzero"/><path d="M41.067 8.33v5.123l-.207.166V8.164l.207.166z" fill="#191919" fill-rule="nonzero"/><path fill="#bdbfc1" d="M28.015 13.655h2.268v.61h-2.268z"/><path fill="#666766" d="M28.687 13.655h.573v.61h-.573z"/><path d="M28.015 12.304v-.609h2.268v.61l-2.268-.001z" fill="#bdbfc1"/><path d="M28.687 12.304v-.609h.573v.61l-.573-.001z" fill="#666766"/><path fill="#bdbfc1" d="M28.015 9.723h2.268v.61h-2.268z"/><path fill="#666766" d="M28.687 9.723h.573v.61h-.573z"/><path d="M22.029 10.275v-.61h2.266v.61h-2.266z" fill="#bdbfc1"/><path fill="#666766" d="M23.05 9.665h.574v.61h-.574z"/><path d="M22.029 12.224v-.61h2.266v.61h-2.266z" fill="#bdbfc1"/><path fill="#666766" d="M23.05 11.614h.574v.61h-.574z"/><path fill="#bdbfc1" d="M22.03 13.655h2.266v.61H22.03z"/><path fill="#666766" d="M23.052 13.655h.573v.61h-.573z"/><path fill="#2d2d2d" d="M24.503 9.408h3.512v5.29h-3.512z"/><circle r=".666" fill="#232323" transform="rotate(-90 20.303 -6.5) scale(.6012)"/><path d="M27.819 9.409v5.122l.196.167V9.242l-.196.167z" fill="#191919" fill-rule="nonzero"/><path d="M27.819 9.409l.196-.167h-3.719l.207.167h3.316z" fill="#3d3d3d" fill-rule="nonzero"/><path d="M28.015 14.698l-.196-.167h-3.316l-.207.167h3.719z" fill="#232323" fill-rule="nonzero"/><path d="M24.503 9.409v5.122l-.207.167V9.242l.207.167z" fill="#191919" fill-rule="nonzero"/><path fill="#bdbfc1" d="M75.734 18.684h.609v2.268h-.609z"/><path fill="#666766" d="M75.734 19.357h.609v.573h-.609z"/><path fill="#bdbfc1" d="M77.695 18.684h.609v2.268h-.609z"/><path fill="#666766" d="M77.695 19.357h.609v.573h-.609z"/><path fill="#bdbfc1" d="M79.666 18.684h.609v2.268h-.609z"/><path fill="#666766" d="M79.666 19.357h.609v.573h-.609z"/><path fill="#bdbfc1" d="M79.724 12.698h.609v2.266h-.609z"/><path fill="#666766" d="M79.724 13.72h.609v.573h-.609z"/><path fill="#bdbfc1" d="M77.775 12.698h.609v2.266h-.609z"/><path fill="#666766" d="M77.775 13.72h.609v.573h-.609z"/><path fill="#bdbfc1" d="M75.734 12.699h.609v2.266h-.609z"/><path fill="#666766" d="M75.734 13.721h.609v.573h-.609z"/><path fill="#2d2d2d" d="M75.301 15.172h5.289v3.512h-5.289z"/><circle cx="76.197" cy="17.472" r=".4" fill="#232323"/><path d="M80.59 18.489h-5.122l-.167.195h5.455l-.166-.195z" fill="#191919" fill-rule="nonzero"/><path d="M80.59 18.489l.166.195v-3.719l-.166.207v3.317z" fill="#3d3d3d" fill-rule="nonzero"/><path d="M75.301 18.684l.167-.195v-3.317l-.167-.207v3.719z" fill="#232323" fill-rule="nonzero"/><path d="M80.59 15.172h-5.122l-.167-.207h5.455l-.166.207z" fill="#191919" fill-rule="nonzero"/><path d="M28.608 54.378h.609v1.134h-.609v-1.134z" fill="#d2d3d5"/><path d="M28.608 54.713h.609V55h-.609v-.287z" fill="#666766"/><path fill="#d2d3d5" d="M30.57 54.378h.609v1.134h-.609z"/><path fill="#666766" d="M30.57 54.713h.609V55h-.609z"/><path fill="#d2d3d5" d="M32.541 54.378h.609v1.134h-.609z"/><path fill="#666766" d="M32.541 54.713h.609V55h-.609z"/><path fill="#d2d3d5" d="M32.599 47.846h.609v1.133h-.609z"/><path fill="#666766" d="M32.599 48.357h.609v.287h-.609z"/><path fill="#d2d3d5" d="M30.65 47.846h.609v1.133h-.609z"/><path fill="#666766" d="M30.65 48.357h.609v.287h-.609z"/><path d="M28.608 47.846h.609v1.133h-.609v-1.133z" fill="#d2d3d5"/><path d="M28.608 48.357h.609v.287h-.609v-.287z" fill="#666766"/><path d="M28.176 48.979h5.289v5.399h-5.289v-5.399z" fill="#2d2d2d"/><circle cx="29.072" cy="53.166" r=".4" fill="#232323"/><path d="M33.465 54.182h-5.122l-.167.196h5.455l-.166-.196z" fill="#191919" fill-rule="nonzero"/><path d="M33.465 54.182l.166.196v-5.399l-.166.207v4.996z" fill="#3d3d3d" fill-rule="nonzero"/><path d="M28.176 54.378l.167-.196v-4.996l-.167-.207v5.399z" fill="#232323" fill-rule="nonzero"/><path d="M33.465 49.186h-5.122l-.167-.207h5.455l-.166.207z" fill="#191919" fill-rule="nonzero"/><path d="M79.919 36.568v-7.78l-.744-.744h-2.162l-.742.744v7.78l.742.744h2.162l.744-.744z" fill="#373435" fill-rule="nonzero"/><path d="M79.805 35.433v-5.512l-.744-.744h-1.934l-.743.744v5.512l.743.745h1.934l.744-.745z" fill="#4b4b4d" fill-rule="nonzero"/><path d="M77.595 30.362h1.131v1.13h-1.131v-1.13zm0 3.542h1.131v1.13h-1.131v-1.13z" fill="#8d8c8c"/><path fill="#fefefe" d="M77.867 34.179h.584v.584h-.584z"/><path d="M78.725 33.904l-.274.275v.581l.274.275v-1.131z" fill="#b8af82" fill-rule="nonzero"/><path d="M77.868 34.76h.583l.274.275h-1.13l.273-.275z" fill="#80795b" fill-rule="nonzero"/><path d="M77.868 34.179v.581l-.273.275v-1.131l.273.275z" fill="#5e5b43" fill-rule="nonzero"/><path d="M78.725 33.904l-.274.275h-.583l-.273-.275h1.13z" fill="#9a916c" fill-rule="nonzero"/><path fill="#fefefe" d="M77.867 30.636h.584v.583h-.584z"/><path d="M78.725 30.363l-.274.274v.581l.274.275v-1.13z" fill="#b8af82" fill-rule="nonzero"/><path d="M77.868 31.218h.583l.274.275h-1.13l.273-.275z" fill="#80795b" fill-rule="nonzero"/><path d="M77.868 30.637v.581l-.273.275v-1.13l.273.274z" fill="#5e5b43" fill-rule="nonzero"/><path d="M78.725 30.363l-.274.274h-.583l-.273-.274h1.13z" fill="#9a916c" fill-rule="nonzero"/><path fill="#d2d3d5" d="M77.53 25.21h1.127v2.834H77.53z"/><path fill="#666766" d="M77.53 26.339h1.127v.845H77.53z"/><path fill="#d2d3d5" d="M77.53 37.312h1.127v2.835H77.53z"/><path fill="#666766" d="M77.53 38.172h1.127v.846H77.53z"/><path d="M83.566 36.568v-7.78l-.744-.744h-2.161l-.742.744v7.78l.742.744h2.161l.744-.744z" fill="#373435" fill-rule="nonzero"/><path d="M83.453 35.433v-5.512l-.744-.744h-1.935l-.742.744v5.512l.742.745h1.935l.744-.745z" fill="#4b4b4d" fill-rule="nonzero"/><path d="M81.242 30.362h1.131v1.13h-1.131v-1.13zm.001 3.542h1.131v1.13h-1.131v-1.13z" fill="#8d8c8c"/><path fill="#fefefe" d="M81.514 34.179h.584v.584h-.584z"/><path d="M82.373 33.904l-.275.275v.581l.275.275v-1.131z" fill="#b8af82" fill-rule="nonzero"/><path d="M81.516 34.76h.582l.275.275h-1.131l.274-.275z" fill="#80795b" fill-rule="nonzero"/><path d="M81.516 34.179v.581l-.274.275v-1.131l.274.275z" fill="#5e5b43" fill-rule="nonzero"/><path d="M82.373 33.904l-.275.275h-.582l-.274-.275h1.131z" fill="#9a916c" fill-rule="nonzero"/><path fill="#fefefe" d="M81.515 30.636h.584v.583h-.584z"/><path d="M82.373 30.363l-.275.274v.581l.275.275v-1.13z" fill="#b8af82" fill-rule="nonzero"/><path d="M81.516 31.218h.582l.275.275h-1.131l.274-.275z" fill="#80795b" fill-rule="nonzero"/><path d="M81.516 30.637v.581l-.274.275v-1.13l.274.274z" fill="#5e5b43" fill-rule="nonzero"/><path d="M82.373 30.363l-.275.274h-.582l-.274-.274h1.131z" fill="#9a916c" fill-rule="nonzero"/><path fill="#d2d3d5" d="M81.178 25.21h1.127v2.834h-1.127z"/><path fill="#666766" d="M81.178 26.339h1.127v.845h-1.127z"/><path fill="#d2d3d5" d="M81.178 37.312h1.127v2.835h-1.127z"/><path fill="#666766" d="M81.178 38.172h1.127v.846h-1.127z"/><path d="M76.271 36.568v-7.78l-.744-.744h-2.161l-.743.744v7.78l.743.744h2.161l.744-.744z" fill="#373435" fill-rule="nonzero"/><path d="M76.157 35.433v-5.512l-.743-.744h-1.935l-.742.744v5.512l.742.745h1.935l.743-.745z" fill="#4b4b4d" fill-rule="nonzero"/><path d="M73.947 30.362h1.131v1.13h-1.131v-1.13zm.001 3.542h1.131v1.13h-1.131v-1.13z" fill="#8d8c8c"/><path fill="#fefefe" d="M74.219 34.179h.584v.584h-.584z"/><path d="M75.078 33.904l-.275.275v.581l.275.275v-1.131z" fill="#b8af82" fill-rule="nonzero"/><path d="M74.221 34.76h.582l.275.275h-1.131l.274-.275z" fill="#80795b" fill-rule="nonzero"/><path d="M74.221 34.179v.581l-.274.275v-1.131l.274.275z" fill="#5e5b43" fill-rule="nonzero"/><path d="M75.078 33.904l-.275.275h-.582l-.274-.275h1.131z" fill="#9a916c" fill-rule="nonzero"/><path fill="#fefefe" d="M74.22 30.636h.584v.583h-.584z"/><path d="M75.078 30.363l-.275.274v.581l.275.275v-1.13z" fill="#b8af82" fill-rule="nonzero"/><path d="M74.221 31.218h.582l.275.275h-1.131l.274-.275z" fill="#80795b" fill-rule="nonzero"/><path d="M74.221 30.637v.581l-.274.275v-1.13l.274.274z" fill="#5e5b43" fill-rule="nonzero"/><path d="M75.078 30.363l-.275.274h-.582l-.274-.274h1.131z" fill="#9a916c" fill-rule="nonzero"/><path fill="#d2d3d5" d="M73.883 25.21h1.127v2.834h-1.127z"/><path fill="#666766" d="M73.883 26.339h1.127v.845h-1.127z"/><path fill="#d2d3d5" d="M73.883 37.312h1.127v2.835h-1.127z"/><path fill="#666766" d="M73.883 38.172h1.127v.846h-1.127z"/><path d="M72.623 36.568v-7.78l-.744-.744h-2.161l-.742.744v7.78l.742.744h2.161l.744-.744z" fill="#373435" fill-rule="nonzero"/><path d="M72.51 35.433v-5.512l-.744-.744h-1.935l-.742.744v5.512l.742.745h1.935l.744-.745z" fill="#4b4b4d" fill-rule="nonzero"/><path d="M70.299 30.362h1.131v1.13h-1.131v-1.13zm.001 3.542h1.131v1.13H70.3v-1.13z" fill="#8d8c8c"/><path fill="#fefefe" d="M70.572 34.179h.584v.584h-.584z"/><path d="M71.43 33.904l-.275.275v.581l.275.275v-1.131z" fill="#b8af82" fill-rule="nonzero"/><path d="M70.573 34.76h.582l.275.275H70.3l.273-.275z" fill="#80795b" fill-rule="nonzero"/><path d="M70.573 34.179v.581l-.273.275v-1.131l.273.275z" fill="#5e5b43" fill-rule="nonzero"/><path d="M71.43 33.904l-.275.275h-.582l-.273-.275h1.13z" fill="#9a916c" fill-rule="nonzero"/><path fill="#fefefe" d="M70.572 30.636h.584v.583h-.584z"/><path d="M71.43 30.363l-.275.274v.581l.275.275v-1.13z" fill="#b8af82" fill-rule="nonzero"/><path d="M70.573 31.218h.582l.275.275H70.3l.273-.275z" fill="#80795b" fill-rule="nonzero"/><path d="M70.573 30.637v.581l-.273.275v-1.13l.273.274z" fill="#5e5b43" fill-rule="nonzero"/><path d="M71.43 30.363l-.275.274h-.582l-.273-.274h1.13z" fill="#9a916c" fill-rule="nonzero"/><path fill="#d2d3d5" d="M70.235 25.21h1.127v2.834h-1.127z"/><path fill="#666766" d="M70.235 26.339h1.127v.845h-1.127z"/><path fill="#d2d3d5" d="M70.235 37.312h1.127v2.835h-1.127z"/><path fill="#666766" d="M70.235 38.172h1.127v.846h-1.127z"/><g><path d="M68.976 36.568v-7.78l-.744-.744h-2.161l-.743.744v7.78l.743.744h2.161l.744-.744z" fill="#373435" fill-rule="nonzero"/><path d="M68.862 35.433v-5.512l-.744-.744h-1.934l-.743.744v5.512l.743.745h1.934l.744-.745z" fill="#4b4b4d" fill-rule="nonzero"/><path d="M66.652 30.362h1.131v1.13h-1.131v-1.13zm0 3.542h1.131v1.13h-1.131v-1.13z" fill="#8d8c8c"/><path fill="#fefefe" d="M66.924 34.179h.584v.584h-.584z"/><path d="M67.783 33.904l-.275.275v.581l.275.275v-1.131z" fill="#b8af82" fill-rule="nonzero"/><path d="M66.926 34.76h.582l.275.275h-1.131l.274-.275z" fill="#80795b" fill-rule="nonzero"/><path d="M66.926 34.179v.581l-.274.275v-1.131l.274.275z" fill="#5e5b43" fill-rule="nonzero"/><path d="M67.783 33.904l-.275.275h-.582l-.274-.275h1.131z" fill="#9a916c" fill-rule="nonzero"/><path fill="#fefefe" d="M66.924 30.636h.584v.583h-.584z"/><path d="M67.783 30.363l-.275.274v.581l.275.275v-1.13z" fill="#b8af82" fill-rule="nonzero"/><path d="M66.926 31.218h.582l.275.275h-1.131l.274-.275z" fill="#80795b" fill-rule="nonzero"/><path d="M66.926 30.637v.581l-.274.275v-1.13l.274.274z" fill="#5e5b43" fill-rule="nonzero"/><path d="M67.783 30.363l-.275.274h-.582l-.274-.274h1.131z" fill="#9a916c" fill-rule="nonzero"/><path fill="#d2d3d5" d="M66.588 25.21h1.127v2.834h-1.127z"/><path fill="#666766" d="M66.588 26.339h1.127v.845h-1.127z"/><path fill="#d2d3d5" d="M66.588 37.312h1.127v2.835h-1.127z"/><path fill="#666766" d="M66.588 38.172h1.127v.846h-1.127z"/></g><g><path fill="#303030" d="M22.439 33.33h7.428v3.48h-7.428z"/><path d="M30.171 33.067h.012l-.316.272h-7.428l-.316-.272h8.048z" fill="#3d3e3d" fill-rule="nonzero"/><path d="M29.867 36.804l.316.27h-8.06l.316-.27h7.428z" fill-rule="nonzero"/><path d="M30.183 37.074l-.316-.27v-3.465l.316-.272v4.007zm-7.744-.27l-.316.27v-4.007l.316.272v3.465z" fill="#1e1f1f" fill-rule="nonzero"/><path fill="#d2d3d5" d="M23.015 37.075h2.206v2.323h-2.206z"/><path fill="#666766" d="M23.015 37.78h2.206v.692h-2.206z"/><path fill="#d2d3d5" d="M28.594 37.075h.934v2.323h-.934z"/><path fill="#666766" d="M28.594 37.78h.934v.692h-.934z"/><path fill="#d2d3d5" d="M23.015 30.744h.935v2.323h-.935z"/><path d="M23.015 31.67v.692h.935v-.693l-.935.001z" fill="#666766"/><path fill="#d2d3d5" d="M28.594 30.744h.934v2.323h-.934z"/><path d="M28.594 31.67v.692h.934v-.693l-.934.001z" fill="#666766"/></g><g><path d="M52.453 42.9V30.893h2V42.9h-2zm4.945 0V30.893h1.774V42.9h-1.774z" fill="#e6e6e6"/><path fill="#ccc" d="M52.099 32.316h7.428v9.164h-7.428z"/><path fill="#b3b3b3" d="M52.099 32.316h.096v9.164h-.096z"/><path d="M52.453 42.9v-1.42h.096v1.42h-.096zm0-10.584v-1.422h.096v1.422h-.096zM57.398 42.9v-1.42h.096v1.42h-.096zm0-10.584v-1.422h.096v1.422h-.096z" fill="#f2f2f2"/><circle r="2.5" fill="#f2f2f2" transform="rotate(-90 46.356 -9.456) scale(1.12948)"/><path fill="#b3b3b3" d="M59.457 32.316h.069v9.164h-.069z"/><path d="M59.103 42.9v-1.42h.07v1.42h-.07zm0-10.584v-1.422h.07v1.422h-.07zM54.384 42.9v-1.42h.069v1.42h-.069zm0-10.584v-1.422h.069v1.422h-.069z" fill="#ccc"/><path d="M55.715 34.074a2.851 2.851 0 0 1 2.825 2.825 2.851 2.851 0 0 1-2.825 2.825h.098a2.852 2.852 0 0 0 2.824-2.824v-.005a2.847 2.847 0 0 0-2.821-2.821h-.101z" fill="#b3b3b3" fill-rule="nonzero"/><path d="M55.896 39.722a2.854 2.854 0 0 1-2.824-2.825v-.001c0-1.56 1.26-2.826 2.824-2.826h-.085a2.852 2.852 0 0 0-2.824 2.824v.005a2.85 2.85 0 0 0 2.823 2.823h.086z" fill="#fefefe" fill-rule="nonzero"/></g><g><path fill="#e6e7e8" d="M35.719 42.87h4.375v2.375h-4.375z"/><path fill="#4b4b4d" d="M37.031 43.776h1.75v.563h-1.75z"/></g><g><path fill="#020202" d="M26.891 63.652h4.804v2.473h-4.804z"/><path d="M31.14 63.652h.555v2.473h-.555v-2.473zm-4.249 0h.571v2.473h-.571v-2.473z" fill="#c6c6c5"/></g><g><path d="M19.563 6.072h2.88v1.44h-2.88v-1.44z" fill="#c6c6c5"/><path d="M20.128 6.072h1.75v1.44h-1.75v-1.44z" fill="#020202"/></g><g><path d="M26.438 6.072h2.88v1.44h-2.88v-1.44z" fill="#c6c6c5"/><path d="M27.004 6.072h1.75v1.44h-1.75v-1.44z" fill="#020202"/></g><g><path d="M48.563 4.947h2.88v1.44h-2.88v-1.44z" fill="#c6c6c5"/><path d="M49.128 4.947h1.75v1.44h-1.75v-1.44z" fill="#020202"/></g><g><path fill="#c6c6c5" d="M48.563 8.852h2.88v1.44h-2.88z"/><path fill="#020202" d="M49.128 8.852h1.75v1.44h-1.75z"/></g><g><path fill="#c6c6c5" d="M66.814 12.572h2.88v1.44h-2.88z"/><path fill="#020202" d="M67.379 12.572h1.75v1.44h-1.75z"/></g><g><path fill="#c6c6c5" d="M32.564 12.572h2.88v1.44h-2.88z"/><path fill="#020202" d="M33.128 12.572h1.75v1.44h-1.75z"/></g><g><path fill="#c6c6c5" d="M22.813 20.322h2.88v1.44h-2.88z"/><path fill="#020202" d="M23.379 20.322h1.75v1.44h-1.75z"/></g><g><path fill="#c6c6c5" d="M29.313 20.322h2.88v1.44h-2.88z"/><path fill="#020202" d="M29.878 20.322h1.75v1.44h-1.75z"/></g><g><path fill="#c6c6c5" d="M24.688 56.543h2.88v1.44h-2.88z"/><path fill="#020202" d="M25.253 56.543h1.75v1.44h-1.75z"/></g><g><path fill="#c6c6c5" d="M24.688 59.698h2.88v1.44h-2.88z"/><path fill="#020202" d="M25.253 59.698h1.75v1.44h-1.75z"/></g><g><path fill="#c6c6c5" d="M82.44 14.023h1.44v2.88h-1.44z"/><path fill="#020202" d="M82.44 14.588h1.44v1.75h-1.44z"/></g><g><path fill="#c6c6c5" d="M57.345 17.29h1.44v2.88h-1.44z"/><path fill="#020202" d="M57.345 17.854h1.44v1.75h-1.44z"/></g><g><path fill="#c6c6c5" d="M61.47 24.414h1.44v2.88h-1.44z"/><path fill="#020202" d="M61.47 24.98h1.44v1.75h-1.44z"/></g><g><path fill="#c6c6c5" d="M45.72 24.414h1.44v2.88h-1.44z"/><path fill="#020202" d="M45.72 24.98h1.44v1.75h-1.44z"/></g><g><path fill="#c6c6c5" d="M55.187 24.414h1.44v2.88h-1.44z"/><path fill="#020202" d="M55.187 24.98h1.44v1.75h-1.44z"/></g><g><path fill="#c6c6c5" d="M38.249 25.634h2.88v1.44h-2.88z"/><path fill="#b7a283" d="M38.815 25.634h1.75v1.44h-1.75z"/></g><g><path d="M42.875 4.947h2.88v1.44h-2.88v-1.44z" fill="#c6c6c5"/><path d="M43.44 4.947h1.75v1.44h-1.75v-1.44z" fill="#b7a283"/></g><g><path fill="#c6c6c5" d="M22.875 16.759h2.88v1.44h-2.88z"/><path fill="#b7a283" d="M23.44 16.759h1.75v1.44h-1.75z"/></g><g><path fill="#999" stroke="#999" stroke-width=".22" d="M0 0h4.054v2.282H0z" transform="matrix(0 -.71039 .63106 0 79.906 53.231)"/><path fill="#efefef" d="M79.906 50.916h1.44v1.75h-1.44z"/></g><g><path fill="#c6c6c5" d="M51.561 24.414h1.44v2.88h-1.44z"/><path fill="#b7a283" d="M51.561 24.98h1.44v1.75h-1.44z"/></g><g><path fill="#c6c6c5" d="M22.47 24.539h1.44v2.88h-1.44z"/><path fill="#b7a283" d="M22.47 25.104h1.44v1.75h-1.44z"/></g><g><path fill="#c6c6c5" d="M85.72 14.023h1.44v2.88h-1.44z"/><path fill="#b7a283" d="M85.72 14.588h1.44v1.75h-1.44z"/></g><g><path fill="#c6c6c5" d="M16.984 14.444h2.16v4.32h-2.16z"/><path fill="#b7a283" d="M16.984 15.292h2.16v2.624h-2.16z"/></g><g><path d="M54.984 11.014v-4.32h2.16v4.32h-2.16z" fill="#c6c6c5"/><path d="M54.984 10.166V7.542h2.16v2.625l-2.16-.001z" fill="#b7a283"/></g><g><path fill="#c6c6c5" d="M95.125 57.634h2.88v1.44h-2.88z"/><path fill="#b7a283" d="M95.69 57.634h1.75v1.44h-1.75z"/></g><g><path fill="#c6c6c5" d="M83.31 55.603h2.88v1.44h-2.88z"/><path fill="#b7a283" d="M83.875 55.603h1.75v1.44h-1.75z"/></g><g><path fill="#c6c6c5" d="M75.844 53.914h1.44v2.88h-1.44z"/><path fill="#b7a283" d="M75.844 54.48h1.44v1.75h-1.44z"/></g><g><path fill="#c6c6c5" d="M75.844 47.79h1.44v2.88h-1.44z"/><path fill="#b7a283" d="M75.844 48.354h1.44v1.75h-1.44z"/></g><g><path fill="#c6c6c5" d="M141.062 11.821h2.88v1.44h-2.88z"/><path fill="#b7a283" d="M141.627 11.821h1.75v1.44h-1.75z"/></g><g><path fill="#c6c6c5" d="M28.25 43.884h2.88v1.44h-2.88z"/><path fill="#b7a283" d="M28.815 43.884h1.75v1.44h-1.75z"/></g><g><path fill="#999" stroke="#999" stroke-width=".22" d="M0 0h4.054v2.282H0z" transform="matrix(0 -.71039 .63106 0 79.906 47.106)"/><path fill="#efefef" d="M79.906 44.792h1.44v1.75h-1.44z"/></g><g><path fill="#c6c6c5" d="M24.844 51.164h1.44v2.88h-1.44z"/><path fill="#b7a283" d="M24.844 51.73h1.44v1.75h-1.44z"/></g><g><path fill="#c6c6c5" d="M27.554 25.15h4.32v2.16h-4.32z"/><path fill="#020202" d="M28.401 25.15h2.625v2.16h-2.625z"/></g><g><path fill="#efefef" stroke="#b7b7b7" stroke-width=".01" d="M19.672 60.598h2.1v3.948h-2.1z"/><path d="M19.672 61.486v-.89h2.1v.89h-2.1zm-.002 3.06v-.89h2.102v.89H19.67z" fill="#999"/><circle cx="20.722" cy="62.572" r=".312" fill="#d2e28b"/></g><g><path fill="#efefef" stroke="#b7b7b7" stroke-width=".01" d="M19.672 52.488h2.1v3.948h-2.1z"/><path d="M19.672 53.376v-.889h2.1v.89l-2.1-.001zm-.002 3.06v-.889h2.102v.89l-2.102-.001z" fill="#999"/><circle cx="20.722" cy="54.462" r=".312" fill="#f6afce"/></g><path fill="none" stroke="#bdbfc1" stroke-width=".85" d="M65.283 62.226h3.968v3.968h-3.968z"/><circle cx="67.266" cy="64.209" r="1.984" fill="none" stroke="#bdbfc1" stroke-width=".85"/><circle cx="74.468" cy="64.209" r="1.984" fill="none" stroke="#bdbfc1" stroke-width=".85"/><circle cx="81.67" cy="64.209" r="1.984" fill="none" stroke="#bdbfc1" stroke-width=".85"/><circle cx="88.872" cy="64.209" r="1.984" fill="none" stroke="#bdbfc1" stroke-width=".85"/><circle cx="96.073" cy="64.209" r="1.984" fill="none" stroke="#bdbfc1" stroke-width=".85"/><circle cx="103.275" cy="64.209" r="1.984" fill="none" stroke="#bdbfc1" stroke-width=".85"/><circle cx="110.477" cy="64.209" r="1.984" fill="none" stroke="#bdbfc1" stroke-width=".85"/><circle cx="117.678" cy="64.209" r="1.984" fill="none" stroke="#bdbfc1" stroke-width=".85"/><circle cx="124.88" cy="64.209" r="1.984" fill="none" stroke="#bdbfc1" stroke-width=".85"/><circle cx="132.082" cy="64.209" r="1.984" fill="none" stroke="#bdbfc1" stroke-width=".85"/><circle cx="139.282" cy="64.209" r="1.984" fill="none" stroke="#bdbfc1" stroke-width=".85"/><circle cx="146.482" cy="64.209" r="1.984" fill="none" stroke="#bdbfc1" stroke-width=".85"/><circle cx="153.682" cy="64.209" r="1.984" fill="none" stroke="#bdbfc1" stroke-width=".85"/><circle cx="160.882" cy="64.209" r="1.984" fill="none" stroke="#bdbfc1" stroke-width=".85"/><path fill="none" stroke="#bdbfc1" stroke-width=".85" d="M158.897 4.626h3.968v3.968h-3.968z"/><circle cx="160.882" cy="6.609" r="1.984" fill="none" stroke="#bdbfc1" stroke-width=".85"/><circle cx="153.68" cy="6.609" r="1.984" fill="none" stroke="#bdbfc1" stroke-width=".85"/><circle cx="146.478" cy="6.609" r="1.984" fill="none" stroke="#bdbfc1" stroke-width=".85"/><circle cx="139.277" cy="6.609" r="1.984" fill="none" stroke="#bdbfc1" stroke-width=".85"/><circle cx="132.075" cy="6.609" r="1.984" fill="none" stroke="#bdbfc1" stroke-width=".85"/><circle cx="124.873" cy="6.609" r="1.984" fill="none" stroke="#bdbfc1" stroke-width=".85"/><circle cx="117.672" cy="6.609" r="1.984" fill="none" stroke="#bdbfc1" stroke-width=".85"/><circle cx="110.47" cy="6.609" r="1.984" fill="none" stroke="#bdbfc1" stroke-width=".85"/><circle cx="103.268" cy="6.609" r="1.984" fill="none" stroke="#bdbfc1" stroke-width=".85"/><circle cx="96.067" cy="6.609" r="1.984" fill="none" stroke="#bdbfc1" stroke-width=".85"/><circle cx="88.866" cy="6.609" r="1.984" fill="none" stroke="#bdbfc1" stroke-width=".85"/><circle cx="81.667" cy="6.609" r="1.984" fill="none" stroke="#bdbfc1" stroke-width=".85"/><circle cx="74.467" cy="6.609" r="1.984" fill="none" stroke="#bdbfc1" stroke-width=".85"/><circle cx="67.266" cy="6.609" r="1.984" fill="none" stroke="#bdbfc1" stroke-width=".85"/><g><path fill="#feff7a" d="M105.92 8.343l7.253 12.564L107.817 24l-7.254-12.564z"/><g font-family="'Arial-BoldMT','Arial',sans-serif" font-weight="700" font-size="3.9"><text fill="none" transform="matrix(.81677 1.41468 -1.24832 .72072 102.022 12.275)">D14</text><text transform="matrix(.81677 1.41468 -1.24832 .72072 102.022 12.275)">D14</text></g><path fill="#feff7a" d="M68.874 8.343l7.253 12.564L70.771 24l-7.254-12.564z"/><g font-family="'Arial-BoldMT','Arial',sans-serif" font-weight="700" font-size="3.9"><text fill="none" transform="matrix(.81677 1.41468 -1.24832 .72072 64.977 12.274)">5V</text><text transform="matrix(.81677 1.41468 -1.24832 .72072 64.977 12.274)">5V</text></g><path fill="#feff7a" d="M76.283 8.343l7.253 12.564L78.18 24l-7.254-12.564z"/><g font-family="'Arial-BoldMT','Arial',sans-serif" font-weight="700" font-size="3.9"><text fill="none" transform="matrix(.81677 1.41468 -1.24832 .72072 72.386 12.274)">VIN</text><text transform="matrix(.81677 1.41468 -1.24832 .72072 72.386 12.274)">VIN</text></g><path fill="#feff7a" d="M83.692 8.343l7.95 13.772-5.356 3.092-7.95-13.771z"/><g font-family="'Arial-BoldMT','Arial',sans-serif" font-weight="700" font-size="3.9"><text fill="none" transform="matrix(.81677 1.41468 -1.24832 .72072 79.795 12.274)">VCC</text><text transform="matrix(.81677 1.41468 -1.24832 .72072 79.795 12.274)">VCC</text></g><path fill="#feff7a" d="M91.101 8.344l8.16 14.132-5.357 3.092-8.16-14.132z"/><g font-family="'Arial-BoldMT','Arial',sans-serif" font-weight="700" font-size="3.9"><text fill="none" transform="matrix(.81677 1.41468 -1.24832 .72072 87.204 12.274)">GND</text><text transform="matrix(.81677 1.41468 -1.24832 .72072 87.204 12.274)">GND</text></g><path fill="#feff7a" d="M98.51 8.343l7.254 12.564L100.407 24l-7.253-12.564z"/><g font-family="'Arial-BoldMT','Arial',sans-serif" font-weight="700" font-size="3.9"><text fill="none" transform="matrix(.81677 1.41468 -1.24832 .72072 94.614 12.274)">RST</text><text transform="matrix(.81677 1.41468 -1.24832 .72072 94.614 12.274)">RST</text></g><path fill="#feff7a" d="M113.328 8.343l7.254 12.564L115.226 24l-7.254-12.564z"/><g font-family="'Arial-BoldMT','Arial',sans-serif" font-weight="700" font-size="3.9"><text fill="none" transform="matrix(.81677 1.41468 -1.24832 .72072 109.432 12.274)">D13</text><text transform="matrix(.81677 1.41468 -1.24832 .72072 109.432 12.274)">D13</text></g><g><path fill="#feff7a" d="M120.737 8.343l7.254 12.564L122.635 24l-7.254-12.564z"/><g font-family="'Arial-BoldMT','Arial',sans-serif" font-weight="700" font-size="3.9"><text fill="none" transform="matrix(.81677 1.41468 -1.24832 .72072 116.84 12.275)">D12</text><text transform="matrix(.81677 1.41468 -1.24832 .72072 116.84 12.275)">D12</text></g></g><g><path fill="#feff7a" d="M128.146 8.343l7.254 12.564L130.044 24l-7.254-12.564z"/><g font-family="'Arial-BoldMT','Arial',sans-serif" font-weight="700" font-size="3.9"><text fill="none" transform="matrix(.81677 1.41468 -1.24832 .72072 124.25 12.274)">D1<tspan x="4.77" y="0">1</tspan></text><text transform="matrix(.81677 1.41468 -1.24832 .72072 124.25 12.274)">D1<tspan x="4.77" y="0">1</tspan></text></g></g><g><path fill="#feff7a" d="M135.556 8.343l7.253 12.564L137.453 24l-7.254-12.564z"/><g font-family="'Arial-BoldMT','Arial',sans-serif" font-weight="700" font-size="3.9"><text fill="none" transform="matrix(.81677 1.41468 -1.24832 .72072 131.659 12.274)">D10</text><text transform="matrix(.81677 1.41468 -1.24832 .72072 131.659 12.274)">D10</text></g></g><g><path fill="#feff7a" d="M142.965 8.343l7.253 12.564L144.862 24l-7.254-12.564z"/><g font-family="'Arial-BoldMT','Arial',sans-serif" font-weight="700" font-size="3.9"><text fill="none" transform="matrix(.81677 1.41468 -1.24832 .72072 139.068 12.275)">D9</text><text transform="matrix(.81677 1.41468 -1.24832 .72072 139.068 12.275)">D9</text></g></g><g><path fill="#feff7a" d="M150.374 8.343l7.254 12.564L152.27 24l-7.254-12.564z"/><g font-family="'Arial-BoldMT','Arial',sans-serif" font-weight="700" font-size="3.9"><text fill="none" transform="matrix(.81677 1.41468 -1.24832 .72072 146.477 12.274)">D8</text><text transform="matrix(.81677 1.41468 -1.24832 .72072 146.477 12.274)">D8</text></g></g><g><path fill="#feff7a" d="M157.783 8.343l7.254 12.564L159.68 24l-7.254-12.564z"/><g font-family="'Arial-BoldMT','Arial',sans-serif" font-weight="700" font-size="3.9"><text fill="none" transform="matrix(.81677 1.41468 -1.24832 .72072 153.887 12.275)">D7</text><text transform="matrix(.81677 1.41468 -1.24832 .72072 153.887 12.275)">D7</text></g></g><g><path fill="#feff7a" d="M165.192 8.343l7.254 12.564L167.089 24l-7.254-12.564z"/><g font-family="'Arial-BoldMT','Arial',sans-serif" font-weight="700" font-size="3.9"><text fill="none" transform="matrix(.81677 1.41468 -1.24832 .72072 161.295 12.274)">D6</text><text transform="matrix(.81677 1.41468 -1.24832 .72072 161.295 12.274)">D6</text></g></g></g><g><path fill="#feff7a" d="M59.94 43.344l9.487 16.431-5.356 3.093-9.487-16.432z"/><g font-family="'Arial-BoldMT','Arial',sans-serif" font-weight="700" font-size="3.9"><text x="-5.631" fill="none" transform="matrix(.81677 1.41468 -1.24832 .72072 60.534 54.524)">AREF</text><text x="-5.631" transform="matrix(.81677 1.41468 -1.24832 .72072 60.534 54.524)">AREF</text></g><path fill="#feff7a" d="M69.489 47.21l7.254 12.565-5.357 3.092-7.254-12.564z"/><g font-family="'Arial-BoldMT','Arial',sans-serif" font-weight="700" font-size="3.9"><text fill="none" transform="matrix(.81677 1.41468 -1.24832 .72072 67.85 54.525)">A0</text><text transform="matrix(.81677 1.41468 -1.24832 .72072 67.85 54.525)">A0</text></g><path fill="#feff7a" d="M98.752 47.21l7.253 12.565-5.356 3.092-7.254-12.564z"/><g font-family="'Arial-BoldMT','Arial',sans-serif" font-weight="700" font-size="3.9"><text fill="none" transform="matrix(.81677 1.41468 -1.24832 .72072 97.113 54.524)">A4</text><text transform="matrix(.81677 1.41468 -1.24832 .72072 97.113 54.524)">A4</text></g><path fill="#feff7a" d="M120.699 47.21l7.254 12.565-5.357 3.092-7.254-12.564z"/><g font-family="'Arial-BoldMT','Arial',sans-serif" font-weight="700" font-size="3.9"><text fill="none" transform="matrix(.81677 1.41468 -1.24832 .72072 119.059 54.524)">D0</text><text transform="matrix(.81677 1.41468 -1.24832 .72072 119.059 54.524)">D0</text></g><path fill="#feff7a" d="M157.277 47.21l7.254 12.565-5.357 3.092-7.254-12.564z"/><g font-family="'Arial-BoldMT','Arial',sans-serif" font-weight="700" font-size="3.9"><text fill="none" transform="matrix(.81677 1.41468 -1.24832 .72072 155.638 54.524)">D5</text><text transform="matrix(.81677 1.41468 -1.24832 .72072 155.638 54.524)">D5</text></g><path fill="#feff7a" d="M149.962 47.21l7.253 12.565-5.356 3.092-7.254-12.564z"/><g font-family="'Arial-BoldMT','Arial',sans-serif" font-weight="700" font-size="3.9"><text fill="none" transform="matrix(.81677 1.41468 -1.24832 .72072 148.322 54.524)">D4</text><text transform="matrix(.81677 1.41468 -1.24832 .72072 148.322 54.524)">D4</text></g><path fill="#feff7a" d="M142.646 47.21l7.254 12.565-5.357 3.092-7.254-12.564z"/><g font-family="'Arial-BoldMT','Arial',sans-serif" font-weight="700" font-size="3.9"><text fill="none" transform="matrix(.81677 1.41468 -1.24832 .72072 141.006 54.524)">D3</text><text transform="matrix(.81677 1.41468 -1.24832 .72072 141.006 54.524)">D3</text></g><g><path fill="#feff7a" d="M135.33 47.21l7.254 12.565-5.356 3.092-7.254-12.564z"/><g font-family="'Arial-BoldMT','Arial',sans-serif" font-weight="700" font-size="3.9"><text fill="none" transform="matrix(.81677 1.41468 -1.24832 .72072 133.691 54.524)">D2</text><text transform="matrix(.81677 1.41468 -1.24832 .72072 133.691 54.524)">D2</text></g></g><g><path fill="#feff7a" d="M128.014 47.21l7.254 12.565-5.356 3.092-7.254-12.564z"/><g font-family="'Arial-BoldMT','Arial',sans-serif" font-weight="700" font-size="3.9"><text fill="none" transform="matrix(.81677 1.41468 -1.24832 .72072 126.375 54.524)">D1</text><text transform="matrix(.81677 1.41468 -1.24832 .72072 126.375 54.524)">D1</text></g></g><g><path fill="#feff7a" d="M113.383 47.21l7.254 12.565-5.357 3.092-7.253-12.564z"/><g font-family="'Arial-BoldMT','Arial',sans-serif" font-weight="700" font-size="3.9"><text fill="none" transform="matrix(.81677 1.41468 -1.24832 .72072 111.744 54.524)">A6</text><text transform="matrix(.81677 1.41468 -1.24832 .72072 111.744 54.524)">A6</text></g></g><g><path fill="#feff7a" d="M106.067 47.21l7.254 12.565-5.356 3.092-7.254-12.564z"/><g font-family="'Arial-BoldMT','Arial',sans-serif" font-weight="700" font-size="3.9"><text fill="none" transform="matrix(.81677 1.41468 -1.24832 .72072 104.429 54.524)">A5</text><text transform="matrix(.81677 1.41468 -1.24832 .72072 104.429 54.524)">A5</text></g></g><g><path fill="#feff7a" d="M91.436 47.21l7.254 12.565-5.357 3.092-7.254-12.564z"/><g font-family="'Arial-BoldMT','Arial',sans-serif" font-weight="700" font-size="3.9"><text fill="none" transform="matrix(.81677 1.41468 -1.24832 .72072 89.796 54.524)">A3</text><text transform="matrix(.81677 1.41468 -1.24832 .72072 89.796 54.524)">A3</text></g></g><g><path fill="#feff7a" d="M84.12 47.21l7.254 12.565-5.356 3.092-7.254-12.564z"/><g font-family="'Arial-BoldMT','Arial',sans-serif" font-weight="700" font-size="3.9"><text fill="none" transform="matrix(.81677 1.41468 -1.24832 .72072 82.481 54.524)">A2</text><text transform="matrix(.81677 1.41468 -1.24832 .72072 82.481 54.524)">A2</text></g></g><g><path fill="#feff7a" d="M76.805 47.21l7.253 12.565-5.356 3.092-7.254-12.564z"/><g font-family="'Arial-BoldMT','Arial',sans-serif" font-weight="700" font-size="3.9"><text fill="none" transform="matrix(.81677 1.41468 -1.24832 .72072 75.165 54.524)">A1</text><text transform="matrix(.81677 1.41468 -1.24832 .72072 75.165 54.524)">A1</text></g></g></g></svg>