<?xml version="1.0" encoding="UTF-8" standalone="no"?>
<!-- Created with Fritzing (http://www.fritzing.org/) -->

<svg
   xmlns:dc="http://purl.org/dc/elements/1.1/"
   xmlns:cc="http://creativecommons.org/ns#"
   xmlns:rdf="http://www.w3.org/1999/02/22-rdf-syntax-ns#"
   xmlns:svg="http://www.w3.org/2000/svg"
   xmlns="http://www.w3.org/2000/svg"
   xmlns:sodipodi="http://sodipodi.sourceforge.net/DTD/sodipodi-0.dtd"
   xmlns:inkscape="http://www.inkscape.org/namespaces/inkscape"
   id="svg2"
   viewBox="0 0 144.07469 143.38344"
   x="0in"
   height="1.9914306in"
   width="2.0010417in"
   y="0in"
   gorn="0"
   version="1.2"
   inkscape:version="0.92.1 r15371"
   sodipodi:docname="boardwireframe.svg">
  <sodipodi:namedview
     pagecolor="#ffffff"
     bordercolor="#666666"
     borderopacity="1"
     objecttolerance="10"
     gridtolerance="10"
     guidetolerance="10"
     inkscape:pageopacity="0"
     inkscape:pageshadow="2"
     inkscape:window-width="1591"
     inkscape:window-height="775"
     id="namedview813"
     showgrid="false"
     inkscape:zoom="6.0642267"
     inkscape:cx="97.008068"
     inkscape:cy="146.13095"
     inkscape:window-x="0"
     inkscape:window-y="0"
     inkscape:window-maximized="0"
     inkscape:current-layer="g24691"
     inkscape:measure-start="132.461,172.106"
     inkscape:measure-end="147.036,172.223" />
  <desc
     id="desc3">
    <referenceFile>circuitplay rev G_breadboard.svg</referenceFile>
  </desc>
  <metadata
     id="metadata2435">
    <rdf:RDF>
      <cc:Work
         rdf:about="">
        <dc:title />
        <dc:format>image/svg+xml</dc:format>
        <dc:type
           rdf:resource="http://purl.org/dc/dcmitype/StillImage" />
      </cc:Work>
    </rdf:RDF>
  </metadata>
  <defs
     id="defs2433">
    <clipPath
       id="clipPath19921"
       clipPathUnits="userSpaceOnUse">
      <path
         id="path19923"
         d="m 0,143.383 144.075,0 L 144.075,0 0,0 0,143.383 Z"
         gorn="0.1.0.0" />
    </clipPath>
    <clipPath
       id="clipPath20169"
       clipPathUnits="userSpaceOnUse">
      <path
         id="path20171"
         d="m 0,143.383 144.075,0 L 144.075,0 0,0 0,143.383 Z"
         gorn="0.1.1.0" />
    </clipPath>
    <clipPath
       id="clipPath24695"
       clipPathUnits="userSpaceOnUse">
      <path
         id="path24697"
         d="m 0,143.383 144.075,0 L 144.075,0 0,0 0,143.383 Z"
         gorn="0.1.2.0" />
    </clipPath>
    <clipPath
       id="clipPath24721"
       clipPathUnits="userSpaceOnUse">
      <path
         id="path24723"
         d="m 0,143.383 144.075,0 L 144.075,0 0,0 0,143.383 Z"
         gorn="0.1.3.0" />
    </clipPath>
    <clipPath
       id="clipPath25025"
       clipPathUnits="userSpaceOnUse">
      <path
         id="path25027"
         d="m 0,143.383 144.075,0 L 144.075,0 0,0 0,143.383 Z"
         gorn="0.1.4.0" />
    </clipPath>
  </defs>
  <desc
     id="desc4">Fritzing breadboard generated by brd2svg</desc>
  <g
     transform="matrix(1.000003,0,0,-1.000003,-3.7231555e-4,143.38343)"
     id="g18">
    <g
       id="g24689"
       gorn="0.3.0">
      <g
         id="g24691"
         gorn="0.3.0.0">
        <g
           gorn="0.3.0.0.0.4"
           id="g24707"
           style="fill:none;stroke:#000000;stroke-opacity:1"
           sodipodi:insensitive="true">
          <g
             gorn="0.3.0.0.0.4.0"
             clip-path="url(#clipPath24711)"
             id="g24709"
             style="fill:none;stroke:#000000;stroke-opacity:1">
            <path
               inkscape:connector-curvature="0"
               gorn="0.3.0.0.0.4.0.0"
               d="m 142.273,72.087 c -0.004,-2.505 -2.038,-4.531 -4.544,-4.526 -2.504,0.003 -4.53,2.038 -4.526,4.543 v 0.014 c 0.004,2.506 2.038,4.532 4.543,4.528 2.505,-0.004 4.532,-2.038 4.527,-4.542 z m -3.866,-22.451 c -0.005,-2.506 -2.039,-4.532 -4.543,-4.529 -2.507,0.004 -4.532,2.039 -4.528,4.543 v 0.016 c 0.004,2.505 2.039,4.532 4.543,4.527 2.504,-0.003 4.532,-2.038 4.528,-4.543 z m -11.41,64.777 c -0.004,-2.505 -2.038,-4.533 -4.543,-4.528 -2.505,0.004 -4.533,2.038 -4.529,4.543 v 0.016 c 0.005,2.505 2.039,4.532 4.544,4.527 2.505,-0.004 4.532,-2.038 4.528,-4.543 z m 0,-84.65 c -0.004,-2.506 -2.038,-4.533 -4.543,-4.529 -2.505,0.004 -4.533,2.039 -4.529,4.543 v 0.016 c 0.005,2.505 2.039,4.532 4.544,4.527 2.505,-0.004 4.532,-2.038 4.528,-4.543 z m -17.663,99.371 c -0.004,-2.505 -2.039,-4.531 -4.543,-4.527 -2.505,0.004 -4.533,2.039 -4.529,4.542 v 0.017 c 0.005,2.504 2.039,4.531 4.544,4.527 2.505,-0.004 4.531,-2.039 4.528,-4.544 z m 0,-114.094 c -0.004,-2.505 -2.039,-4.531 -4.543,-4.527 -2.505,0.005 -4.533,2.039 -4.529,4.544 v 0.014 c 0.005,2.505 2.039,4.533 4.544,4.529 2.505,-0.005 4.531,-2.038 4.528,-4.543 z M 83.518,136.525 c -0.001,-0.704 -0.572,-1.274 -1.277,-1.274 -0.704,0.001 -1.275,0.573 -1.274,1.277 v 0.003 c 0,0.705 0.573,1.275 1.277,1.275 0.705,-0.001 1.275,-0.573 1.274,-1.278 z m -2.126,-9.067 c -0.626,0 -1.134,0.507 -1.134,1.133 0,0.627 0.508,1.134 1.134,1.134 0.626,0 1.134,-0.507 1.134,-1.134 0,-0.626 -0.508,-1.133 -1.134,-1.133 m -3.827,2.692 c -0.547,0 -0.991,0.445 -0.991,0.994 0,0.547 0.444,0.991 0.991,0.991 0.549,0 0.993,-0.444 0.993,-0.991 0,-0.549 -0.444,-0.994 -0.993,-0.994 m 0.142,-83.611 c -10e-4,-0.782 -0.636,-1.416 -1.419,-1.415 -0.783,10e-4 -1.416,0.637 -1.416,1.419 v 0.003 c 0.001,0.783 0.636,1.417 1.42,1.416 0.782,-0.001 1.416,-0.637 1.415,-1.419 z m 51.629,48.032 c 0.004,2.504 2.039,4.533 4.543,4.527 2.504,-0.004 4.532,-2.037 4.528,-4.543 v -0.016 c -0.005,-2.504 -2.039,-4.532 -4.543,-4.527 -2.507,0.004 -4.532,2.038 -4.528,4.543 z M 69.203,46.539 c -0.001,-0.782 -0.636,-1.416 -1.419,-1.415 -0.782,10e-4 -1.416,0.637 -1.416,1.419 v 0.003 c 0.001,0.783 0.636,1.417 1.42,1.416 0.782,-0.001 1.416,-0.637 1.415,-1.419 z m -3.685,84.605 c 0,0.547 0.444,0.991 0.992,0.991 0.548,0 0.993,-0.444 0.993,-0.991 0,-0.549 -0.445,-0.994 -0.993,-0.994 -0.548,0 -0.992,0.445 -0.992,0.994 m -1.701,-2.555 c 0,-0.626 -0.508,-1.133 -1.134,-1.131 -0.627,0 -1.134,0.507 -1.134,1.133 v 0.002 c 10e-4,0.626 0.509,1.135 1.135,1.133 0.627,0 1.134,-0.508 1.133,-1.135 z m -3.259,7.939 v 0.003 c 0,0.705 0.572,1.275 1.277,1.275 0.704,-0.001 1.274,-0.573 1.274,-1.278 v -0.003 c -0.001,-0.704 -0.573,-1.274 -1.277,-1.274 -0.705,0.001 -1.275,0.573 -1.274,1.277 M 43.813,15.042 c -0.003,-2.505 -2.037,-4.531 -4.542,-4.528 -2.505,0.004 -4.532,2.038 -4.529,4.543 v 0.011 c 0.004,2.505 2.037,4.534 4.542,4.531 2.505,-0.004 4.533,-2.037 4.529,-4.542 z m -9.251,113.941 c 0.004,2.505 2.038,4.532 4.543,4.529 2.504,-0.004 4.532,-2.037 4.528,-4.542 v -0.014 c -0.004,-2.504 -2.037,-4.532 -4.542,-4.529 -2.505,0.004 -4.532,2.038 -4.529,4.543 z M 26.87,29.044 c -0.004,-2.505 -2.037,-4.531 -4.542,-4.527 -2.505,0.003 -4.533,2.037 -4.529,4.542 v 0.011 c 0.004,2.505 2.037,4.534 4.542,4.531 2.505,-0.004 4.533,-2.038 4.529,-4.542 z m -9.791,85.217 c 0.004,2.505 2.037,4.533 4.542,4.53 2.505,-0.004 4.533,-2.038 4.529,-4.542 v -0.014 c -0.003,-2.505 -2.037,-4.533 -4.542,-4.529 -2.505,0.004 -4.532,2.037 -4.529,4.543 z M 14.92,48.917 c -0.003,-2.505 -2.037,-4.531 -4.542,-4.528 -2.505,0.004 -4.533,2.038 -4.529,4.543 v 0.011 c 0.004,2.505 2.037,4.534 4.542,4.531 2.505,-0.004 4.533,-2.037 4.529,-4.542 z M 1.802,72.104 v 0.012 c 0.004,2.505 2.037,4.533 4.542,4.53 2.505,-0.005 4.533,-2.038 4.529,-4.542 V 72.089 C 10.87,69.584 8.836,67.558 6.331,67.562 3.826,67.565 1.798,69.599 1.802,72.104 m 3.867,22.464 c 0.004,2.505 2.038,4.533 4.543,4.529 2.504,-0.004 4.532,-2.036 4.528,-4.542 V 94.542 C 14.736,92.037 12.703,90.009 10.198,90.013 7.693,90.017 5.666,92.05 5.669,94.555 Z m 137.714,-12.63 c -4.429,31.92 -29.524,57.015 -61.445,61.444 h -19.8 C 22.735,137.916 -4.775,101.541 0.692,62.139 6.16,22.734 42.535,-4.774 81.938,0.692 121.34,6.159 148.85,42.534 143.383,81.938"
               style="fill:none;fill-opacity:1;fill-rule:nonzero;stroke:#000000;stroke-opacity:1"
               id="path24715" />
          </g>
        </g>
        <path
           inkscape:connector-curvature="0"
           gorn="0.3.0.0.0.6"
           d="M 78.415,2.399 H 65.66"
           style="fill:none;stroke:#ffffff;stroke-width:0.57599998;stroke-linecap:round;stroke-linejoin:miter;stroke-miterlimit:4;stroke-dasharray:none;stroke-opacity:1"
           id="path24915" />
        <path
           inkscape:connector-curvature="0"
           gorn="0.3.0.0.0.10"
           d="m 63.108,16.572 h 3.97"
           style="fill:none;stroke:#ffffff;stroke-width:0.57599998;stroke-linecap:round;stroke-linejoin:miter;stroke-miterlimit:4;stroke-dasharray:none;stroke-opacity:1"
           id="path24923" />
        <g
           gorn="0.3.0.0.0.26"
           id="g24955">
          <g
             gorn="0.3.0.0.0.26.0"
             clip-path="url(#clipPath24959)"
             id="g24957">
            <path
               inkscape:connector-curvature="0"
               gorn="0.3.0.0.0.26.0.0"
               d="m 82.81,140.781 v 2.551"
               style="fill:none;stroke:#ffffff;stroke-width:0.36000001;stroke-linecap:round;stroke-linejoin:miter;stroke-miterlimit:4;stroke-dasharray:none;stroke-opacity:1"
               id="path24963" />
            <path
               inkscape:connector-curvature="0"
               gorn="0.3.0.0.0.26.0.1"
               d="M 82.81,143.332 H 61.266"
               style="fill:none;stroke:#ffffff;stroke-width:0.36000001;stroke-linecap:round;stroke-linejoin:miter;stroke-miterlimit:4;stroke-dasharray:none;stroke-opacity:1"
               id="path24965" />
            <path
               inkscape:connector-curvature="0"
               gorn="0.3.0.0.0.26.0.2"
               d="m 61.266,143.332 v -2.551"
               style="fill:none;stroke:#ffffff;stroke-width:0.36000001;stroke-linecap:round;stroke-linejoin:miter;stroke-miterlimit:4;stroke-dasharray:none;stroke-opacity:1"
               id="path24967" />
          </g>
        </g>
        <path
           inkscape:connector-curvature="0"
           gorn="0.3.0.0.0.53.0.15"
           d="m 107.521,47.092 5.385,9.328"
           style="fill:none;stroke:#ffffff;stroke-width:0.36000001;stroke-linecap:round;stroke-linejoin:miter;stroke-miterlimit:4;stroke-dasharray:none;stroke-opacity:1"
           id="path25059" />
        <path
           inkscape:connector-curvature="0"
           gorn="0.3.0.0.0.53.0.31"
           d="m 125.174,65.996 h 0.85"
           style="fill:none;stroke:#ffffff;stroke-width:0.36000001;stroke-linecap:round;stroke-linejoin:miter;stroke-miterlimit:4;stroke-dasharray:none;stroke-opacity:1"
           id="path25091" />
        <path
           inkscape:connector-curvature="0"
           gorn="0.3.0.0.0.53.0.32"
           d="M 126.023,65.996 V 76.769"
           style="fill:none;stroke:#ffffff;stroke-width:0.36000001;stroke-linecap:round;stroke-linejoin:miter;stroke-miterlimit:4;stroke-dasharray:none;stroke-opacity:1"
           id="path25093" />
        <path
           inkscape:connector-curvature="0"
           gorn="0.3.0.0.0.53.0.33"
           d="m 126.023,76.769 h -0.85"
           style="fill:none;stroke:#ffffff;stroke-width:0.36000001;stroke-linecap:round;stroke-linejoin:miter;stroke-miterlimit:4;stroke-dasharray:none;stroke-opacity:1"
           id="path25095" />
        <path
           inkscape:connector-curvature="0"
           gorn="0.3.0.0.0.53.0.39"
           d="m 121.874,93.532 -5.386,9.329"
           style="fill:none;stroke:#ffffff;stroke-width:0.36000001;stroke-linecap:round;stroke-linejoin:miter;stroke-miterlimit:4;stroke-dasharray:none;stroke-opacity:1"
           id="path25107" />
        <path
           inkscape:connector-curvature="0"
           gorn="0.3.0.0.0.53.0.102"
           d="m 51.238,51.988 h 2.268"
           style="fill:none;stroke:#ffffff;stroke-width:0.36000001;stroke-linecap:round;stroke-linejoin:miter;stroke-miterlimit:4;stroke-dasharray:none;stroke-opacity:1"
           id="path25233" />
        <path
           inkscape:connector-curvature="0"
           gorn="0.3.0.0.0.53.0.103"
           d="M 52.373,53.121 V 50.854"
           style="fill:none;stroke:#ffffff;stroke-width:0.36000001;stroke-linecap:round;stroke-linejoin:miter;stroke-miterlimit:4;stroke-dasharray:none;stroke-opacity:1"
           id="path25235" />
        <path
           inkscape:connector-curvature="0"
           gorn="0.3.0.0.0.53.0.104"
           d="M 38.908,59.5 V 49.153"
           style="fill:none;stroke:#ffffff;stroke-width:0.36000001;stroke-linecap:round;stroke-linejoin:miter;stroke-miterlimit:4;stroke-dasharray:none;stroke-opacity:1"
           id="path25237" />
        <path
           inkscape:connector-curvature="0"
           gorn="0.3.0.0.0.53.0.105"
           d="M 43.868,44.192 H 54.073"
           style="fill:none;stroke:#ffffff;stroke-width:0.36000001;stroke-linecap:round;stroke-linejoin:miter;stroke-miterlimit:4;stroke-dasharray:none;stroke-opacity:1"
           id="path25239" />
        <path
           inkscape:connector-curvature="0"
           gorn="0.3.0.0.0.53.0.106"
           d="m 60.167,50.287 v 9.071"
           style="fill:none;stroke:#ffffff;stroke-width:0.36000001;stroke-linecap:round;stroke-linejoin:miter;stroke-miterlimit:4;stroke-dasharray:none;stroke-opacity:1"
           id="path25241" />
        <path
           inkscape:connector-curvature="0"
           gorn="0.3.0.0.0.53.0.108"
           d="m 51.238,57.657 h 2.268"
           style="fill:none;stroke:#ffffff;stroke-width:0.36000001;stroke-linecap:round;stroke-linejoin:miter;stroke-miterlimit:4;stroke-dasharray:none;stroke-opacity:1"
           id="path25245" />
        <path
           inkscape:connector-curvature="0"
           gorn="0.3.0.0.0.53.0.109"
           d="m 52.373,53.992 c 1.106,0 2.003,-0.896 2.003,-2.004 0,-1.106 -0.897,-2.005 -2.003,-2.005 -1.107,0 -2.004,0.899 -2.004,2.005 0,1.108 0.897,2.004 2.004,2.004 z"
           style="fill:none;stroke:#ffffff;stroke-width:0.36000001;stroke-linecap:butt;stroke-linejoin:miter;stroke-miterlimit:4;stroke-dasharray:none;stroke-opacity:1"
           id="path25247" />
        <path
           inkscape:connector-curvature="0"
           gorn="0.3.0.0.0.53.0.110"
           d="m 52.373,59.662 c 1.106,0 2.003,-0.896 2.003,-2.005 0,-1.105 -0.897,-2.004 -2.003,-2.004 -1.107,0 -2.004,0.899 -2.004,2.004 0,1.109 0.897,2.005 2.004,2.005 z"
           style="fill:none;stroke:#ffffff;stroke-width:0.36000001;stroke-linecap:butt;stroke-linejoin:miter;stroke-miterlimit:4;stroke-dasharray:none;stroke-opacity:1"
           id="path25249" />
        <path
           inkscape:connector-curvature="0"
           gorn="0.3.0.0.0.53.0.133"
           d="M 63.392,109.128 H 61.833"
           style="fill:none;stroke:#ffffff;stroke-width:0.36000001;stroke-linecap:round;stroke-linejoin:miter;stroke-miterlimit:4;stroke-dasharray:none;stroke-opacity:1"
           id="path25295" />
        <path
           inkscape:connector-curvature="0"
           gorn="0.3.0.0.0.53.0.134"
           d="m 61.833,109.128 v -1.559"
           style="fill:none;stroke:#ffffff;stroke-width:0.36000001;stroke-linecap:round;stroke-linejoin:miter;stroke-miterlimit:4;stroke-dasharray:none;stroke-opacity:1"
           id="path25297" />
        <path
           inkscape:connector-curvature="0"
           gorn="0.3.0.0.0.53.0.135"
           d="m 80.683,109.128 h 1.56"
           style="fill:none;stroke:#ffffff;stroke-width:0.36000001;stroke-linecap:round;stroke-linejoin:miter;stroke-miterlimit:4;stroke-dasharray:none;stroke-opacity:1"
           id="path25299" />
        <path
           inkscape:connector-curvature="0"
           gorn="0.3.0.0.0.53.0.136"
           d="m 82.243,109.128 v -1.559"
           style="fill:none;stroke:#ffffff;stroke-width:0.36000001;stroke-linecap:round;stroke-linejoin:miter;stroke-miterlimit:4;stroke-dasharray:none;stroke-opacity:1"
           id="path25301" />
        <path
           inkscape:connector-curvature="0"
           gorn="0.3.0.0.0.53.0.137"
           d="M 82.243,90.277 V 88.718"
           style="fill:none;stroke:#ffffff;stroke-width:0.36000001;stroke-linecap:round;stroke-linejoin:miter;stroke-miterlimit:4;stroke-dasharray:none;stroke-opacity:1"
           id="path25303" />
        <path
           inkscape:connector-curvature="0"
           gorn="0.3.0.0.0.53.0.138"
           d="m 82.243,88.718 h -1.56"
           style="fill:none;stroke:#ffffff;stroke-width:0.36000001;stroke-linecap:round;stroke-linejoin:miter;stroke-miterlimit:4;stroke-dasharray:none;stroke-opacity:1"
           id="path25305" />
        <path
           inkscape:connector-curvature="0"
           gorn="0.3.0.0.0.53.0.139"
           d="m 61.526,89.563 h 0.648 -0.648 m 0,-0.36 h 1.008 -1.008 m 0,-0.36 h 1.368 -1.368 m 0,-0.36 h 1.728 -1.728 m 1.872,-0.144 h -1.872 v 1.872 l 1.872,-1.872"
           style="fill:none;stroke:#ffffff;stroke-width:0.36000001;stroke-linecap:round;stroke-linejoin:miter;stroke-miterlimit:4;stroke-dasharray:none;stroke-opacity:1"
           id="path25307" />
        <path
           inkscape:connector-curvature="0"
           gorn="0.3.0.0.0.53.0.164"
           d="M 76.291,14.871 H 73.456 V 27.91 h 2.835 z"
           style="fill:#9a916c;fill-opacity:1;fill-rule:nonzero;stroke:none"
           id="path25357" />
        <path
           inkscape:connector-curvature="0"
           gorn="0.3.0.0.0.53.0.165"
           d="M 70.621,14.871 H 67.787 V 27.91 h 2.834 z"
           style="fill:#9a916c;fill-opacity:1;fill-rule:nonzero;stroke:none"
           id="path25359" />
        <path
           inkscape:connector-curvature="0"
           gorn="0.3.0.0.0.53.0.322"
           d="m 54.64,49.72 h 5.669 V 44.051 H 54.64 Z"
           style="fill:#9a916c;fill-opacity:1;fill-rule:nonzero;stroke:none"
           id="path25673" />
        <path
           inkscape:connector-curvature="0"
           gorn="0.3.0.0.0.53.0.323"
           d="m 54.64,65.594 h 5.669 V 59.925 H 54.64 Z"
           style="fill:#9a916c;fill-opacity:1;fill-rule:nonzero;stroke:none"
           id="path25675" />
        <path
           inkscape:connector-curvature="0"
           gorn="0.3.0.0.0.53.0.324"
           d="m 42.036,43.313 -4.009,4.009 2.005,2.004 4.008,-4.009 z"
           style="fill:#9a916c;fill-opacity:1;fill-rule:nonzero;stroke:none"
           id="path25677" />
        <path
           inkscape:connector-curvature="0"
           gorn="0.3.0.0.0.53.0.325"
           d="m 38.766,65.594 h 5.669 v -5.669 h -5.669 z"
           style="fill:#9a916c;fill-opacity:1;fill-rule:nonzero;stroke:none"
           id="path25679" />
        <path
           inkscape:connector-curvature="0"
           gorn="0.3.0.0.0.53.0.345"
           d="m 63.888,90.136 h 0.708 V 88.01 h -0.708 z"
           style="fill:#9a916c;fill-opacity:1;fill-rule:nonzero;stroke:none"
           id="path25719" />
        <path
           inkscape:connector-curvature="0"
           gorn="0.3.0.0.0.53.0.346"
           d="m 65.305,90.135 h 0.709 v -2.126 h -0.709 z"
           style="fill:#9a916c;fill-opacity:1;fill-rule:nonzero;stroke:none"
           id="path25721" />
        <path
           inkscape:connector-curvature="0"
           gorn="0.3.0.0.0.53.0.347"
           d="m 66.723,90.135 h 0.708 v -2.126 h -0.708 z"
           style="fill:#9a916c;fill-opacity:1;fill-rule:nonzero;stroke:none"
           id="path25723" />
        <path
           inkscape:connector-curvature="0"
           gorn="0.3.0.0.0.53.0.348"
           d="m 68.14,90.135 h 0.708 V 88.009 H 68.14 Z"
           style="fill:#9a916c;fill-opacity:1;fill-rule:nonzero;stroke:none"
           id="path25725" />
        <path
           inkscape:connector-curvature="0"
           gorn="0.3.0.0.0.53.0.349"
           d="m 69.558,90.136 h 0.708 V 88.01 h -0.708 z"
           style="fill:#9a916c;fill-opacity:1;fill-rule:nonzero;stroke:none"
           id="path25727" />
        <path
           inkscape:connector-curvature="0"
           gorn="0.3.0.0.0.53.0.350"
           d="m 70.975,90.135 h 0.708 v -2.126 h -0.708 z"
           style="fill:#9a916c;fill-opacity:1;fill-rule:nonzero;stroke:none"
           id="path25729" />
        <path
           inkscape:connector-curvature="0"
           gorn="0.3.0.0.0.53.0.351"
           d="M 72.392,90.135 H 73.1 v -2.126 h -0.708 z"
           style="fill:#9a916c;fill-opacity:1;fill-rule:nonzero;stroke:none"
           id="path25731" />
        <path
           inkscape:connector-curvature="0"
           gorn="0.3.0.0.0.53.0.352"
           d="m 73.809,90.135 h 0.709 v -2.126 h -0.709 z"
           style="fill:#9a916c;fill-opacity:1;fill-rule:nonzero;stroke:none"
           id="path25733" />
        <path
           inkscape:connector-curvature="0"
           gorn="0.3.0.0.0.53.0.353"
           d="m 75.227,90.136 h 0.708 V 88.01 h -0.708 z"
           style="fill:#9a916c;fill-opacity:1;fill-rule:nonzero;stroke:none"
           id="path25735" />
        <path
           inkscape:connector-curvature="0"
           gorn="0.3.0.0.0.53.0.354"
           d="m 76.644,90.136 h 0.709 V 88.01 h -0.709 z"
           style="fill:#9a916c;fill-opacity:1;fill-rule:nonzero;stroke:none"
           id="path25737" />
        <path
           inkscape:connector-curvature="0"
           gorn="0.3.0.0.0.53.0.355"
           d="M 78.061,90.136 H 78.77 V 88.01 h -0.709 z"
           style="fill:#9a916c;fill-opacity:1;fill-rule:nonzero;stroke:none"
           id="path25739" />
        <path
           inkscape:connector-curvature="0"
           gorn="0.3.0.0.0.53.0.356"
           d="m 79.479,90.135 h 0.708 v -2.126 h -0.708 z"
           style="fill:#9a916c;fill-opacity:1;fill-rule:nonzero;stroke:none"
           id="path25741" />
        <path
           inkscape:connector-curvature="0"
           gorn="0.3.0.0.0.53.0.357"
           d="m 82.952,90.773 h -2.126 v 0.708 h 2.126 z"
           style="fill:#9a916c;fill-opacity:1;fill-rule:nonzero;stroke:none"
           id="path25743" />
        <path
           inkscape:connector-curvature="0"
           gorn="0.3.0.0.0.53.0.358"
           d="M 82.952,92.191 H 80.826 V 92.9 h 2.126 z"
           style="fill:#9a916c;fill-opacity:1;fill-rule:nonzero;stroke:none"
           id="path25745" />
        <path
           inkscape:connector-curvature="0"
           gorn="0.3.0.0.0.53.0.359"
           d="m 82.952,93.608 h -2.126 v 0.708 h 2.126 z"
           style="fill:#9a916c;fill-opacity:1;fill-rule:nonzero;stroke:none"
           id="path25747" />
        <path
           inkscape:connector-curvature="0"
           gorn="0.3.0.0.0.53.0.360"
           d="m 82.952,95.025 h -2.126 v 0.709 h 2.126 z"
           style="fill:#9a916c;fill-opacity:1;fill-rule:nonzero;stroke:none"
           id="path25749" />
        <path
           inkscape:connector-curvature="0"
           gorn="0.3.0.0.0.53.0.361"
           d="m 82.952,96.443 h -2.126 v 0.708 h 2.126 z"
           style="fill:#9a916c;fill-opacity:1;fill-rule:nonzero;stroke:none"
           id="path25751" />
        <path
           inkscape:connector-curvature="0"
           gorn="0.3.0.0.0.53.0.362"
           d="m 82.952,97.86 h -2.126 v 0.708 h 2.126 z"
           style="fill:#9a916c;fill-opacity:1;fill-rule:nonzero;stroke:none"
           id="path25753" />
        <path
           inkscape:connector-curvature="0"
           gorn="0.3.0.0.0.53.0.363"
           d="m 82.952,99.277 h -2.126 v 0.708 h 2.126 z"
           style="fill:#9a916c;fill-opacity:1;fill-rule:nonzero;stroke:none"
           id="path25755" />
        <path
           inkscape:connector-curvature="0"
           gorn="0.3.0.0.0.53.0.364"
           d="m 82.952,100.695 h -2.126 v 0.708 h 2.126 z"
           style="fill:#9a916c;fill-opacity:1;fill-rule:nonzero;stroke:none"
           id="path25757" />
        <path
           inkscape:connector-curvature="0"
           gorn="0.3.0.0.0.53.0.365"
           d="m 82.952,102.112 h -2.126 v 0.708 h 2.126 z"
           style="fill:#9a916c;fill-opacity:1;fill-rule:nonzero;stroke:none"
           id="path25759" />
        <path
           inkscape:connector-curvature="0"
           gorn="0.3.0.0.0.53.0.366"
           d="m 82.952,103.529 h -2.126 v 0.708 h 2.126 z"
           style="fill:#9a916c;fill-opacity:1;fill-rule:nonzero;stroke:none"
           id="path25761" />
        <path
           inkscape:connector-curvature="0"
           gorn="0.3.0.0.0.53.0.367"
           d="m 82.952,104.947 h -2.126 v 0.708 h 2.126 z"
           style="fill:#9a916c;fill-opacity:1;fill-rule:nonzero;stroke:none"
           id="path25763" />
        <path
           inkscape:connector-curvature="0"
           gorn="0.3.0.0.0.53.0.368"
           d="m 82.952,106.364 h -2.126 v 0.709 h 2.126 z"
           style="fill:#9a916c;fill-opacity:1;fill-rule:nonzero;stroke:none"
           id="path25765" />
        <path
           inkscape:connector-curvature="0"
           gorn="0.3.0.0.0.53.0.369"
           d="m 80.187,107.71 h -0.709 v 2.126 h 0.709 z"
           style="fill:#9a916c;fill-opacity:1;fill-rule:nonzero;stroke:none"
           id="path25767" />
        <path
           inkscape:connector-curvature="0"
           gorn="0.3.0.0.0.53.0.370"
           d="m 78.77,107.71 h -0.709 v 2.126 h 0.709 z"
           style="fill:#9a916c;fill-opacity:1;fill-rule:nonzero;stroke:none"
           id="path25769" />
        <path
           inkscape:connector-curvature="0"
           gorn="0.3.0.0.0.53.0.371"
           d="m 77.353,107.71 h -0.709 v 2.126 h 0.709 z"
           style="fill:#9a916c;fill-opacity:1;fill-rule:nonzero;stroke:none"
           id="path25771" />
        <path
           inkscape:connector-curvature="0"
           gorn="0.3.0.0.0.53.0.372"
           d="m 75.936,107.71 h -0.709 v 2.126 h 0.709 z"
           style="fill:#9a916c;fill-opacity:1;fill-rule:nonzero;stroke:none"
           id="path25773" />
        <path
           inkscape:connector-curvature="0"
           gorn="0.3.0.0.0.53.0.373"
           d="m 74.518,107.71 h -0.709 v 2.126 h 0.709 z"
           style="fill:#9a916c;fill-opacity:1;fill-rule:nonzero;stroke:none"
           id="path25775" />
        <path
           inkscape:connector-curvature="0"
           gorn="0.3.0.0.0.53.0.374"
           d="m 73.101,107.71 h -0.708 v 2.126 h 0.708 z"
           style="fill:#9a916c;fill-opacity:1;fill-rule:nonzero;stroke:none"
           id="path25777" />
        <path
           inkscape:connector-curvature="0"
           gorn="0.3.0.0.0.53.0.375"
           d="m 71.684,107.71 h -0.708 v 2.126 h 0.708 z"
           style="fill:#9a916c;fill-opacity:1;fill-rule:nonzero;stroke:none"
           id="path25779" />
        <path
           inkscape:connector-curvature="0"
           gorn="0.3.0.0.0.53.0.376"
           d="m 70.267,107.71 h -0.708 v 2.126 h 0.708 z"
           style="fill:#9a916c;fill-opacity:1;fill-rule:nonzero;stroke:none"
           id="path25781" />
        <path
           inkscape:connector-curvature="0"
           gorn="0.3.0.0.0.53.0.377"
           d="m 68.849,107.71 h -0.708 v 2.126 h 0.708 z"
           style="fill:#9a916c;fill-opacity:1;fill-rule:nonzero;stroke:none"
           id="path25783" />
        <path
           inkscape:connector-curvature="0"
           gorn="0.3.0.0.0.53.0.378"
           d="m 67.432,107.71 h -0.708 v 2.126 h 0.708 z"
           style="fill:#9a916c;fill-opacity:1;fill-rule:nonzero;stroke:none"
           id="path25785" />
        <path
           inkscape:connector-curvature="0"
           gorn="0.3.0.0.0.53.0.379"
           d="m 66.014,107.71 h -0.708 v 2.126 h 0.708 z"
           style="fill:#9a916c;fill-opacity:1;fill-rule:nonzero;stroke:none"
           id="path25787" />
        <path
           inkscape:connector-curvature="0"
           gorn="0.3.0.0.0.53.0.380"
           d="m 64.597,107.71 h -0.708 v 2.126 h 0.708 z"
           style="fill:#9a916c;fill-opacity:1;fill-rule:nonzero;stroke:none"
           id="path25789" />
        <path
           inkscape:connector-curvature="0"
           gorn="0.3.0.0.0.53.0.381"
           d="m 61.125,107.073 h 2.126 v -0.709 h -2.126 z"
           style="fill:#9a916c;fill-opacity:1;fill-rule:nonzero;stroke:none"
           id="path25791" />
        <path
           inkscape:connector-curvature="0"
           gorn="0.3.0.0.0.53.0.382"
           d="m 61.125,105.655 h 2.126 v -0.708 h -2.126 z"
           style="fill:#9a916c;fill-opacity:1;fill-rule:nonzero;stroke:none"
           id="path25793" />
        <path
           inkscape:connector-curvature="0"
           gorn="0.3.0.0.0.53.0.383"
           d="m 61.125,104.238 h 2.126 v -0.708 h -2.126 z"
           style="fill:#9a916c;fill-opacity:1;fill-rule:nonzero;stroke:none"
           id="path25795" />
        <path
           inkscape:connector-curvature="0"
           gorn="0.3.0.0.0.53.0.384"
           d="m 61.125,102.82 h 2.126 v -0.708 h -2.126 z"
           style="fill:#9a916c;fill-opacity:1;fill-rule:nonzero;stroke:none"
           id="path25797" />
        <path
           inkscape:connector-curvature="0"
           gorn="0.3.0.0.0.53.0.385"
           d="m 61.125,101.403 h 2.126 v -0.709 h -2.126 z"
           style="fill:#9a916c;fill-opacity:1;fill-rule:nonzero;stroke:none"
           id="path25799" />
        <path
           inkscape:connector-curvature="0"
           gorn="0.3.0.0.0.53.0.386"
           d="m 61.125,99.986 h 2.126 v -0.708 h -2.126 z"
           style="fill:#9a916c;fill-opacity:1;fill-rule:nonzero;stroke:none"
           id="path25801" />
        <path
           inkscape:connector-curvature="0"
           gorn="0.3.0.0.0.53.0.387"
           d="m 61.125,98.569 h 2.126 V 97.86 h -2.126 z"
           style="fill:#9a916c;fill-opacity:1;fill-rule:nonzero;stroke:none"
           id="path25803" />
        <path
           inkscape:connector-curvature="0"
           gorn="0.3.0.0.0.53.0.388"
           d="m 61.125,97.151 h 2.126 v -0.708 h -2.126 z"
           style="fill:#9a916c;fill-opacity:1;fill-rule:nonzero;stroke:none"
           id="path25805" />
        <path
           inkscape:connector-curvature="0"
           gorn="0.3.0.0.0.53.0.389"
           d="m 61.125,95.734 h 2.126 v -0.708 h -2.126 z"
           style="fill:#9a916c;fill-opacity:1;fill-rule:nonzero;stroke:none"
           id="path25807" />
        <path
           inkscape:connector-curvature="0"
           gorn="0.3.0.0.0.53.0.390"
           d="m 61.125,94.316 h 2.126 v -0.708 h -2.126 z"
           style="fill:#9a916c;fill-opacity:1;fill-rule:nonzero;stroke:none"
           id="path25809" />
        <path
           inkscape:connector-curvature="0"
           gorn="0.3.0.0.0.53.0.391"
           d="m 61.125,92.899 h 2.126 V 92.19 h -2.126 z"
           style="fill:#9a916c;fill-opacity:1;fill-rule:nonzero;stroke:none"
           id="path25811" />
        <path
           inkscape:connector-curvature="0"
           gorn="0.3.0.0.0.53.0.392"
           d="m 61.125,91.482 h 2.126 v -0.708 h -2.126 z"
           style="fill:#9a916c;fill-opacity:1;fill-rule:nonzero;stroke:none"
           id="path25813" />
        <path
           inkscape:connector-curvature="0"
           gorn="0.3.0.0.0.53.0.393"
           d="M 65.376,105.584 H 78.698 V 92.261 H 65.376 Z"
           style="fill:#9a916c;fill-opacity:1;fill-rule:nonzero;stroke:none"
           id="path25815" />
        <path
           inkscape:connector-curvature="0"
           gorn="0.3.0.0.0.53.0.422"
           d="m 80.541,4.241 h 2.836 V 19.124 H 60.7 V 4.241 h 2.834 V 2.115 h 17.007 z"
           style="fill:#666666;fill-opacity:1;fill-rule:nonzero;stroke:none"
           id="path25873" />
        <path
           inkscape:connector-curvature="0"
           gorn="0.3.0.0.0.53.0.429"
           d="m 75.864,19.123 h -1.983 v 7.087 h 1.983 z"
           style="fill:#dcdcdc;fill-opacity:1;fill-rule:nonzero;stroke:none"
           id="path25887" />
        <path
           inkscape:connector-curvature="0"
           gorn="0.3.0.0.0.53.0.430"
           d="m 70.195,19.123 h -1.984 v 7.087 h 1.984 z"
           style="fill:#dcdcdc;fill-opacity:1;fill-rule:nonzero;stroke:none"
           id="path25889" />
        <path
           inkscape:connector-curvature="0"
           gorn="0.3.0.0.0.53.0.449"
           d="M 83.376,134.274 H 60.699 v 3.969 h 22.677 z"
           style="fill:#b4b4b4;fill-opacity:1;fill-rule:nonzero;stroke:none"
           id="path25927" />
        <path
           inkscape:connector-curvature="0"
           gorn="0.3.0.0.0.53.0.457"
           d="m 68.636,130.59 v 0.709 h 1.417 v -2.552 h 3.969 v 2.552 h 1.417 v -0.709 h 2.268 v -2.126 H 82.81 V 142.07 H 61.266 v -13.606 h 5.102 v 2.126 z"
           style="fill:#dcdcdc;fill-opacity:1;fill-rule:nonzero;stroke:none"
           id="path25943" />
        <path
           inkscape:connector-curvature="0"
           gorn="0.3.0.0.0.53.0.460"
           d="M 82.242,142.07 H 61.833 l 0.568,1.701 19.275,-10e-4 z"
           style="fill:#f0f0f0;fill-opacity:1;fill-rule:nonzero;stroke:none"
           id="path25949" />
        <path
           inkscape:connector-curvature="0"
           gorn="0.3.0.0.0.53.0.461"
           d="m 82.81,142.07 h -0.568 l 0.568,1.7 h 0.566 z"
           style="fill:#b4b4b4;fill-opacity:1;fill-rule:nonzero;stroke:none"
           id="path25951" />
        <path
           inkscape:connector-curvature="0"
           gorn="0.3.0.0.0.53.0.462"
           d="m 61.833,142.07 h -0.567 l -0.567,1.701 h 0.567 z"
           style="fill:#b4b4b4;fill-opacity:1;fill-rule:nonzero;stroke:none"
           id="path25953" />
        <path
           inkscape:connector-curvature="0"
           gorn="0.3.0.0.0.53.0.579"
           d="M 59.986,44.011 H 42.978 l -4.252,4.252 v 17.008 h 21.26 z"
           style="fill:#dcdcdc;fill-opacity:1;fill-rule:nonzero;stroke:none"
           id="path26187" />
        <path
           inkscape:connector-curvature="0"
           gorn="0.3.0.0.0.53.0.580"
           d="m 59.986,54.953 h -2.147 v 1.134 h 2.147 z"
           style="fill:#dcdcdc;fill-opacity:1;fill-rule:nonzero;stroke:none"
           id="path26189" />
        <path
           inkscape:connector-curvature="0"
           gorn="0.3.0.0.0.53.0.581"
           d="m 42.269,65.271 h 14.173 l 3.544,-3.543 V 47.554 L 56.442,44.011 H 42.269 l -3.543,3.543 v 14.174 z"
           style="fill:#333333;fill-opacity:1;fill-rule:nonzero;stroke:none"
           id="path26191" />
        <path
           inkscape:connector-curvature="0"
           gorn="0.3.0.0.0.53.0.582"
           d="m 39.279,54.316 1.781,1.077 1.781,1.076 0.041,-2.08 0.042,-2.08 -1.823,1.004 z"
           style="fill:#4d4d4d;fill-opacity:1;fill-rule:nonzero;stroke:none"
           id="path26193" />
        <path
           inkscape:connector-curvature="0"
           gorn="0.3.0.0.0.53.0.583"
           d="m 56.097,46.118 c -1.088,0 -1.971,0.883 -1.971,1.971 0,1.088 0.883,1.969 1.971,1.969 1.088,0 1.97,-0.881 1.97,-1.969 0,-1.088 -0.882,-1.971 -1.97,-1.971"
           style="fill:#666666;fill-opacity:1;fill-rule:nonzero;stroke:none"
           id="path26195" />
        <path
           inkscape:connector-curvature="0"
           gorn="0.3.0.0.0.53.0.584"
           d="m 56.281,49.294 v -1.088 h 1.088 v -0.332 h -1.088 v -1.088 h -0.328 v 1.088 h -1.088 v 0.332 h 1.088 v 1.088 z"
           style="fill:#000000;fill-opacity:1;fill-rule:nonzero;stroke:none"
           id="path26197" />
        <path
           inkscape:connector-curvature="0"
           gorn="0.3.0.0.0.53.0.607"
           d="M 61.866,108.887 H 81.709 V 89.044 H 61.866 Z"
           style="fill:#333333;fill-opacity:1;fill-rule:nonzero;stroke:none"
           id="path26243" />
      </g>
    </g>
  </g>
</svg>
