<svg xmlns="http://www.w3.org/2000/svg" viewBox="0 0 249.8 249.3" id="svg442"><style id="style230">.st0{fill:#333}.st1{fill:#fff;stroke:#7f7f7f;stroke-miterlimit:10}.st2{fill:#7f7f7f}.st3{stroke-linecap:round}.st3,.st4{fill:none;stroke:#fff;stroke-width:.9988}.st5{fill:#9a916c}.st6{fill:#dcdcdc}.st8{fill:#b4b4b4}.st9{stroke:#fff;stroke-width:.5;stroke-miterlimit:10}.st10{font-family:&apos;HelveticaNeue-UltraLight&apos;}.st11{font-size:6px}.st12{fill:#fff}.st13{font-family:&apos;HelveticaNeue-Bold&apos;}.st15,.st16,.st20{fill:none;stroke:#fff}.st15{stroke-miterlimit:10}.st16,.st20{stroke-width:.7491;stroke-linecap:round}.st20{stroke-width:.6243}</style><g id="svg2"><path id="A5" transform="rotate(-134.999 56.194 193.22)" class="st0" d="M45.8 186.3h20.7v13.8H45.8z"/><path id="A4" transform="rotate(-45.001 195.637 195.533)" class="st0" d="M185.3 188.6H206v13.8h-20.7z"/><path id="A2" transform="rotate(45.001 193.608 56.08)" class="st0" d="M183.3 49.2H204V63h-20.7z"/><path id="A7" transform="rotate(-45.001 56.572 56.46)" class="st0" d="M46.2 49.5h20.7v13.8H46.2z"/><path id="A1" transform="rotate(-90 29.407 124.65)" class="st0" d="M19.1 117.7h20.7v13.8H19.1z"/><path id="A3" transform="rotate(-90 222.914 124.65)" class="st0" d="M212.6 117.7h20.7v13.8h-20.7z"/><path id="A6" class="st0" d="M114.5 22.3h20.7v13.8h-20.7z"/><circle cx="126.2" cy="125.9" r="96.8" id="circle239"/><circle id="SWDIO" class="st1" cx="165.1" cy="49.3" r="5"/><circle id="SWCLK" class="st1" cx="154.3" cy="61" r="5"/><path class="st2" id="rect243" d="M108.5 185.8h35.3v37.7h-35.3z"/><circle id="_x33_V" class="st1" cx="95.9" cy="61" r="5"/><circle id="GND" class="st1" cx="83.4" cy="49.3" r="5"/><path id="path25263" class="st3" d="M117.4 168.5h-16.2"/><path id="path25265" class="st3" d="M101.2 157.4h16.2"/><path id="path25267" class="st3" d="M117.4 160.7v4.4"/><path id="path25269" class="st3" d="M101.2 165.2v-4.4"/><path id="path25271" class="st4" d="M109.3 160.2c2 0 3.7 1.2 3.7 2.8 0 1.5-1.7 2.8-3.7 2.8s-3.7-1.2-3.7-2.8c0-1.6 1.7-2.8 3.7-2.8z"/><path id="path25273" class="st4" d="M109.3 161.1c1.4 0 2.5.8 2.5 1.8s-1.1 1.8-2.5 1.8-2.5-.8-2.5-1.8c.1-1 1.2-1.8 2.5-1.8z"/><path id="path25689" class="st5" d="M119.4 160.4h-4.9v-2.2h4.9v2.2z"/><path id="path25691" class="st5" d="M104.2 160.4h-4.9v-2.2h4.9v2.2z"/><path id="path25693" class="st5" d="M119.4 167.7h-4.9v-2.2h4.9v2.2z"/><path id="path25695" class="st5" d="M104.2 167.7h-4.9v-2.2h4.9v2.2z"/><path id="path26207" class="st6" d="M101.5 167.2v1.3h15.7v-1.3h1.5v-1.1h-1.5v-6.3h1.5v-1.1h-1.5v-1.3h-15.7v1.3H100v1.1h1.5v6.3H100v1.1h1.5z"/><path id="BTN_B" d="M109.3 165.7c-2 0-3.7-1.2-3.7-2.8 0-1.5 1.7-2.8 3.7-2.8s3.7 1.2 3.7 2.8c0 1.6-1.6 2.8-3.7 2.8" fill="#1e1e1e"/><path id="path26211" class="st8" d="M117.4 168.5h-.5v-11.1h.5v11.1z"/><path id="path26213" class="st8" d="M101.7 168.5h-.5v-11.1h.5v11.1z"/><circle id="MISO" class="st1" cx="61.5" cy="100.8" r="5"/><circle id="MOSI" class="st1" cx="46" cy="93.5" r="5"/><circle id="CS" class="st1" cx="63.8" cy="160.9" r="5"/><circle id="SCK" class="st1" cx="47.1" cy="165" r="5"/><text transform="translate(110.934 84.021)" class="st9 st10 st11" id="text265">LED2</text><text transform="translate(129.656 84.021)" class="st9 st10 st11" id="text267">LED1</text><text transform="rotate(43.164 14.936 241.316)" class="st9 st10 st11" id="text269">SWDIO</text><text transform="rotate(43.164 -5.308 233.7)" class="st9 st10 st11" id="text271">SWCLK</text><text transform="rotate(-46.835 109.019 -49.909)" class="st9 st10 st11" id="text273">GND</text><text transform="rotate(-46.835 128.423 -61.298)" class="st9 st10 st11" id="text275">3V3</text><text transform="rotate(-55.264 109.864 -4.467)" class="st9 st10 st11" id="text277">MOSI</text><text transform="rotate(-53.028 129.326 -18.692)" class="st9 st10 st11" id="text279">MISO</text><text transform="scale(-1) rotate(52.64 151.222 -150.542)" class="st9 st10 st11" id="text281">SCK</text><text transform="rotate(-128.083 79.074 67.487)" class="st9 st10 st11" id="text283">CS</text><text transform="rotate(-90 150.027 -50.117)" class="st12 st13 st11" id="text285">X</text><text transform="rotate(-90 150.543 -34.801)" class="st12 st13 st11" id="text287">Y</text><text transform="translate(193.444 124.48)" class="st10 st11" id="text289">z</text><text transform="translate(204.105 115.494)" class="st12 st13 st11" id="text291">Z</text><circle cx="197.5" cy="113" r="1.9" id="circle293" stroke="#fff" stroke-miterlimit="10"/><path class="st15" id="line295" d="M197.5 111.2v-6.9"/><path class="st15" id="line297" d="M195.6 113h-6.9"/><path class="st15" id="line299" d="M188.7 113l2.9-1.8"/><path class="st15" id="line301" d="M188.7 113l2.4 1.9"/><path class="st15" id="line303" d="M197.5 104.3l-1.9 3"/><path class="st15" id="line305" d="M197.5 104.3l1.9 2.9"/><path transform="rotate(-90 189.1 166.631)" class="st0" id="rect307" d="M186.3 162.8h5.6v7.7h-5.6z"/><path id="path26207_1_" class="st6" d="M181.1 150.1h-1.3v21.3h1.3v2h1.1v-2h6.3v2h1.1v-2h1.3v-21.3h-1.3v-2h-1.1v2h-6.3v-2h-1.1v2z"/><text transform="translate(165.315 154.213)" class="st12 st13 st11" id="text310">OFF</text><text transform="translate(167.985 171.676)" class="st12 st13 st11" id="text312">ON</text></g><g id="Layer_3"><path id="path25197" class="st16" d="M117.7 71.9v1.9-1.9m-.8-.6v3-3m2 1.5l-2.5 1.9V71l2.5 1.8"/><path id="path25609" class="st5" d="M115.5 69.9v5.9h-5.9v-5.9h5.9z"/><path id="path25611" class="st5" d="M125.8 69.9v5.9h-5.9v-5.9h5.9z"/><path id="path26119" class="st6" d="M122.1 75.9h-8.8c-.3 0-.5-.2-.5-.5v-5.2c0-.3.2-.5.5-.5h8.8c.3 0 .5.2.5.5v5.2c0 .3-.2.5-.5.5"/><path id="path26121" d="M120.7 69.7v6.1h-6.1v-6.1h6.1z" fill="#0f0"/><path id="path26123" d="M118.7 72.8c0 .5-.4 1-1 1s-1-.4-1-1c0-.5.4-1 1-1s1 .5 1 1" fill="#00b400"/><path id="path25055" class="st16" d="M136.6 71.9v1.9-1.9m-.8-.6v3-3m2 1.5l-2.5 1.9V71l2.5 1.8"/><path id="path25525" class="st5" d="M134.3 69.9v5.9h-5.9v-5.9h5.9z"/><path id="path25527" class="st5" d="M144.7 69.9v5.9h-5.9v-5.9h5.9z"/><path id="path26013" class="st6" d="M141 75.9h-8.8c-.3 0-.5-.2-.5-.5v-5.2c0-.3.2-.5.5-.5h8.8c.3 0 .5.2.5.5v5.2c0 .3-.3.5-.5.5"/><path id="LED" d="M139.6 69.7v6.1h-6.1v-6.1h6.1z" fill="red"/></g><g id="Layer_2"><path id="path25295" class="st20" d="M94.3 105.2h-2.7"/><path id="path25297" class="st20" d="M91.6 105.2v2.7"/><path id="path25299" class="st20" d="M124.3 105.2h2.7"/><path id="path25301" class="st20" d="M127 105.2v2.7"/><path id="path25303" class="st20" d="M127 137.8v2.7"/><path id="path25305" class="st20" d="M127 140.5h-2.7"/><path id="path25307" class="st20" d="M91.1 139.1h1.1-1.1m0 .6h1.7-1.7m0 .6h2.4-2.4m0 .7h3-3m3.2.2h-3.2V138l3.2 3.2"/><path id="path25719" class="st2" d="M95.2 138.1h1.2v3.7h-1.2v-3.7z"/><path id="path25721" class="st2" d="M97.7 138.1h1.2v3.7h-1.2v-3.7z"/><path id="path25723" class="st2" d="M100.1 138.1h1.2v3.7h-1.2v-3.7z"/><path id="path25725" class="st2" d="M102.6 138.1h1.2v3.7h-1.2v-3.7z"/><path id="path25727" class="st2" d="M105 138.1h1.2v3.7H105v-3.7z"/><path id="path25729" class="st2" d="M107.5 138.1h1.2v3.7h-1.2v-3.7z"/><path id="path25731" class="st2" d="M109.9 138.1h1.2v3.7h-1.2v-3.7z"/><path id="path25733" class="st2" d="M112.4 138.1h1.2v3.7h-1.2v-3.7z"/><path id="path25735" class="st2" d="M114.9 138.1h1.2v3.7h-1.2v-3.7z"/><path id="path25737" class="st2" d="M117.3 138.1h1.2v3.7h-1.2v-3.7z"/><path id="path25739" class="st2" d="M119.8 138.1h1.2v3.7h-1.2v-3.7z"/><path id="path25741" class="st2" d="M122.2 138.1h1.2v3.7h-1.2v-3.7z"/><path id="path25743" class="st2" d="M128.3 137h-3.7v-1.2h3.7v1.2z"/><path id="path25745" class="st2" d="M128.3 134.5h-3.7v-1.2h3.7v1.2z"/><path id="path25747" class="st2" d="M128.3 132.1h-3.7v-1.2h3.7v1.2z"/><path id="path25749" class="st2" d="M128.3 129.6h-3.7v-1.2h3.7v1.2z"/><path id="path25751" class="st2" d="M128.3 127.2h-3.7V126h3.7v1.2z"/><path id="path25753" class="st2" d="M128.3 124.7h-3.7v-1.2h3.7v1.2z"/><path id="path25755" class="st2" d="M128.3 122.2h-3.7V121h3.7v1.2z"/><path id="path25757" class="st2" d="M128.3 119.8h-3.7v-1.2h3.7v1.2z"/><path id="path25759" class="st2" d="M128.3 117.3h-3.7v-1.2h3.7v1.2z"/><path id="path25761" class="st2" d="M128.3 114.9h-3.7v-1.2h3.7v1.2z"/><path id="path25763" class="st2" d="M128.3 112.4h-3.7v-1.2h3.7v1.2z"/><path id="path25765" class="st2" d="M128.3 109.9h-3.7v-1.2h3.7v1.2z"/><path id="path25767" class="st2" d="M123.5 107.6h-1.2v-3.7h1.2v3.7z"/><path id="path25769" class="st2" d="M121 107.6h-1.2v-3.7h1.2v3.7z"/><path id="path25771" class="st2" d="M118.5 107.6h-1.2v-3.7h1.2v3.7z"/><path id="path25773" class="st2" d="M116.1 107.6h-1.2v-3.7h1.2v3.7z"/><path id="path25775" class="st2" d="M113.6 107.6h-1.2v-3.7h1.2v3.7z"/><path id="path25777" class="st2" d="M111.2 107.6H110v-3.7h1.2v3.7z"/><path id="path25779" class="st2" d="M108.7 107.6h-1.2v-3.7h1.2v3.7z"/><path id="path25781" class="st2" d="M106.3 107.6H105v-3.7h1.2v3.7z"/><path id="path25783" class="st2" d="M103.8 107.6h-1.2v-3.7h1.2v3.7z"/><path id="path25785" class="st2" d="M101.3 107.6h-1.2v-3.7h1.2v3.7z"/><path id="path25787" class="st2" d="M98.9 107.6h-1.2v-3.7h1.2v3.7z"/><path id="path25789" class="st2" d="M96.4 107.6h-1.2v-3.7h1.2v3.7z"/><path id="path25791" class="st2" d="M90.4 108.7h3.7v1.2h-3.7v-1.2z"/><path id="path25793" class="st2" d="M90.4 111.2h3.7v1.2h-3.7v-1.2z"/><path id="path25795" class="st2" d="M90.4 113.6h3.7v1.2h-3.7v-1.2z"/><path id="path25797" class="st2" d="M90.4 116.1h3.7v1.2h-3.7v-1.2z"/><path id="path25799" class="st2" d="M90.4 118.6h3.7v1.2h-3.7v-1.2z"/><path id="path25801" class="st2" d="M90.4 121h3.7v1.2h-3.7V121z"/><path id="path25803" class="st2" d="M90.4 123.5h3.7v1.2h-3.7v-1.2z"/><path id="path25805" class="st2" d="M90.4 125.9h3.7v1.2h-3.7v-1.2z"/><path id="path25807" class="st2" d="M90.4 128.4h3.7v1.2h-3.7v-1.2z"/><path id="path25809" class="st2" d="M90.4 130.8h3.7v1.2h-3.7v-1.2z"/><path id="path25811" class="st2" d="M90.4 133.3h3.7v1.2h-3.7v-1.2z"/><path id="path25813" class="st2" d="M90.4 135.8h3.7v1.2h-3.7v-1.2z"/><path id="path25815" class="st2" d="M97.8 111.3h23.1v23.1H97.8v-23.1z"/><path id="path26243" class="st0" d="M92.1 105.2h34.4v34.4H92.1v-34.4z"/><path id="path25295_1_" class="st20" d="M159.7 115.1h-.9"/><path id="path25297_1_" class="st20" d="M158.8 115.1v1.6"/><path id="path25299_1_" class="st20" d="M169.6 115.1h.9"/><path id="path25301_1_" class="st20" d="M170.5 115.1v1.6"/><path id="path25303_1_" class="st20" d="M170.5 134.1v1.6"/><path id="path25305_1_" class="st20" d="M170.5 135.7h-.9"/><path id="path25307_1_" class="st20" d="M158.7 134.9h.4-.4m0 .3h.6-.6m0 .4h.8-.8m0 .3h1-1m1 .2h-1.1v-1.9l1.1 1.9"/><path id="path25719_1_" class="st2" d="M160 134.3h.4v2.1h-.4v-2.1z"/><path id="path25721_1_" class="st2" d="M160.8 134.3h.4v2.1h-.4v-2.1z"/><path id="path25723_1_" class="st2" d="M161.6 134.3h.4v2.1h-.4v-2.1z"/><path id="path25725_1_" class="st2" d="M162.4 134.3h.4v2.1h-.4v-2.1z"/><path id="path25727_1_" class="st2" d="M163.3 134.3h.4v2.1h-.4v-2.1z"/><path id="path25729_1_" class="st2" d="M164.1 134.3h.4v2.1h-.4v-2.1z"/><path id="path25731_1_" class="st2" d="M164.9 134.3h.4v2.1h-.4v-2.1z"/><path id="path25733_1_" class="st2" d="M165.7 134.3h.4v2.1h-.4v-2.1z"/><path id="path25735_1_" class="st2" d="M166.5 134.3h.4v2.1h-.4v-2.1z"/><path id="path25737_1_" class="st2" d="M167.3 134.3h.4v2.1h-.4v-2.1z"/><path id="path25739_1_" class="st2" d="M168.1 134.3h.4v2.1h-.4v-2.1z"/><path id="path25741_1_" class="st2" d="M168.9 134.3h.4v2.1h-.4v-2.1z"/><path id="path25743_1_" class="st2" d="M170.9 133.6h-1.2v-.7h1.2v.7z"/><path id="path25745_1_" class="st2" d="M170.9 132.2h-1.2v-.7h1.2v.7z"/><path id="path25747_1_" class="st2" d="M170.9 130.8h-1.2v-.7h1.2v.7z"/><path id="path25749_1_" class="st2" d="M170.9 129.3h-1.2v-.7h1.2v.7z"/><path id="path25751_1_" class="st2" d="M170.9 127.9h-1.2v-.7h1.2v.7z"/><path id="path25753_1_" class="st2" d="M170.9 126.5h-1.2v-.7h1.2v.7z"/><path id="path25755_1_" class="st2" d="M170.9 125.1h-1.2v-.7h1.2v.7z"/><path id="path25757_1_" class="st2" d="M170.9 123.6h-1.2v-.7h1.2v.7z"/><path id="path25759_1_" class="st2" d="M170.9 122.2h-1.2v-.7h1.2v.7z"/><path id="path25761_1_" class="st2" d="M170.9 120.8h-1.2v-.7h1.2v.7z"/><path id="path25763_1_" class="st2" d="M170.9 119.3h-1.2v-.7h1.2v.7z"/><path id="path25765_1_" class="st2" d="M170.9 117.9h-1.2v-.7h1.2v.7z"/><path id="path25767_1_" class="st2" d="M169.3 116.6h-.4v-2.1h.4v2.1z"/><path id="path25769_1_" class="st2" d="M168.5 116.6h-.4v-2.1h.4v2.1z"/><path id="path25771_1_" class="st2" d="M167.7 116.6h-.4v-2.1h.4v2.1z"/><path id="path25773_1_" class="st2" d="M166.9 116.6h-.4v-2.1h.4v2.1z"/><path id="path25775_1_" class="st2" d="M166.1 116.6h-.4v-2.1h.4v2.1z"/><path id="path25777_1_" class="st2" d="M165.3 116.6h-.4v-2.1h.4v2.1z"/><path id="path25779_1_" class="st2" d="M164.5 116.6h-.4v-2.1h.4v2.1z"/><path id="path25781_1_" class="st2" d="M163.7 116.6h-.4v-2.1h.4v2.1z"/><path id="path25783_1_" class="st2" d="M162.9 116.6h-.4v-2.1h.4v2.1z"/><path id="path25785_1_" class="st2" d="M162 116.6h-.4v-2.1h.4v2.1z"/><path id="path25787_1_" class="st2" d="M161.2 116.6h-.4v-2.1h.4v2.1z"/><path id="path25789_1_" class="st2" d="M160.4 116.6h-.4v-2.1h.4v2.1z"/><path id="path25791_1_" class="st2" d="M158.4 117.2h1.2v.7h-1.2v-.7z"/><path id="path25793_1_" class="st2" d="M158.4 118.6h1.2v.7h-1.2v-.7z"/><path id="path25795_1_" class="st2" d="M158.4 120.1h1.2v.7h-1.2v-.7z"/><path id="path25797_1_" class="st2" d="M158.4 121.5h1.2v.7h-1.2v-.7z"/><path id="path25799_1_" class="st2" d="M158.4 122.9h1.2v.7h-1.2v-.7z"/><path id="path25801_1_" class="st2" d="M158.4 124.3h1.2v.7h-1.2v-.7z"/><path id="path25803_1_" class="st2" d="M158.4 125.8h1.2v.7h-1.2v-.7z"/><path id="path25805_1_" class="st2" d="M158.4 127.2h1.2v.7h-1.2v-.7z"/><path id="path25807_1_" class="st2" d="M158.4 128.6h1.2v.7h-1.2v-.7z"/><path id="path25809_1_" class="st2" d="M158.4 130.1h1.2v.7h-1.2v-.7z"/><path id="path25811_1_" class="st2" d="M158.4 131.5h1.2v.7h-1.2v-.7z"/><path id="path25813_1_" class="st2" d="M158.4 132.9h1.2v.7h-1.2v-.7z"/><path id="path25815_1_" class="st2" d="M160.9 118.7h7.6v13.4h-7.6v-13.4z"/><path id="path26243_1_" class="st0" d="M159 115.1h11.3v20H159v-20z"/></g></svg>