<svg xmlns="http://www.w3.org/2000/svg" version="1.1" id="Layer_1" x="0" y="0" viewBox="0 0 243 254" xml:space="preserve">
  <style type="text/css" id="style4485">
    .st0{fill:#333}.st1{fill:none;stroke:#fff;stroke-width:.6243;stroke-linecap:round}.st2{fill:#7f7f7f}.st3,.st4{fill:none}.st4{stroke:#fff;stroke-width:2;stroke-miterlimit:10}.st5{fill:#fff}.st7{font-family:&apos;OCRAStd&apos;}.st8{font-size:6.2594px}.st9{fill:#fff;stroke:#7f7f7f;stroke-miterlimit:10}.st10{font-size:7px}.st11{fill:none;stroke:#fff;stroke-width:.432;stroke-linecap:round}.st12{fill:#9a916c}.st13{fill:#dcdcdc}.st15{font-family:&apos;HelveticaNeue-Bold&apos;}.st16{font-size:6px}.st18,.st19{stroke:#fff;stroke-width:1.1362}.st18{stroke-linecap:round}.st19{fill:none}
  </style>
  <path id="A1" class="st0" d="M44.7 212.5L30 197.8l9.8-9.8 14.6 14.6-9.7 9.9z"/>
  <path id="A7" class="st0" d="M184.4 203.9l14.6-14.6 9.8 9.8-14.6 14.6-9.8-9.8z"/>
  <path id="A5" class="st0" d="M192.2 35.9l14.6 14.6-9.8 9.8-14.6-14.6 9.8-9.8z"/>
  <path id="A3" class="st0" d="M31.3 51.9L46 37.2l9.8 9.8-14.7 14.6-9.8-9.7z"/>
  <path id="A2" class="st0" d="M6.5 134v-20.7h13.8V134H6.5z"/>
  <path id="A6" class="st0" d="M219 134v-20.7h13.8V134H219z"/>
  <path id="A4" class="st0" d="M108.5 11.3h20.7v13.8h-20.7V11.3z"/>
  <g id="g4496">
    <circle cx="119.5" cy="125.5" r="107.5" id="circle4494"/>
  </g>
  <g id="g4555">
    <path id="path25295" class="st1" d="M86.7 95.4h-3.1"/>
    <path id="path25297" class="st1" d="M83.6 95.4v3.1"/>
    <path id="path25299" class="st1" d="M121.6 95.4h3.1"/>
    <path id="path25301" class="st1" d="M124.8 95.4v3.1"/>
    <path id="path25303" class="st1" d="M124.8 133.3v3.1"/>
    <path id="path25305" class="st1" d="M124.8 136.5h-3.1"/>
    <path id="path25307" class="st1" d="M83 134.9h1.3H83m0 .7h2-2m0 .7h2.8H83m0 .8h3.5H83m3.7.2H83v-3.7l3.7 3.7"/>
    <path id="path25719" class="st2" d="M87.8 133.7h1.4v4.3h-1.4v-4.3z"/>
    <path id="path25721" class="st2" d="M90.7 133.7h1.4v4.3h-1.4v-4.3z"/>
    <path id="path25723" class="st2" d="M93.5 133.7h1.4v4.3h-1.4v-4.3z"/>
    <path id="path25725" class="st2" d="M96.4 133.7h1.4v4.3h-1.4v-4.3z"/>
    <path id="path25727" class="st2" d="M99.2 133.7h1.4v4.3h-1.4v-4.3z"/>
    <path id="path25729" class="st2" d="M102.1 133.7h1.4v4.3h-1.4v-4.3z"/>
    <path id="path25731" class="st2" d="M104.9 133.7h1.4v4.3h-1.4v-4.3z"/>
    <path id="path25733" class="st2" d="M107.8 133.7h1.4v4.3h-1.4v-4.3z"/>
    <path id="path25735" class="st2" d="M110.7 133.7h1.4v4.3h-1.4v-4.3z"/>
    <path id="path25737" class="st2" d="M113.5 133.7h1.4v4.3h-1.4v-4.3z"/>
    <path id="path25739" class="st2" d="M116.4 133.7h1.4v4.3h-1.4v-4.3z"/>
    <path id="path25741" class="st2" d="M119.2 133.7h1.4v4.3h-1.4v-4.3z"/>
    <path id="path25743" class="st2" d="M126.3 132.4H122V131h4.3v1.4z"/>
    <path id="path25745" class="st2" d="M126.3 129.5H122v-1.4h4.3v1.4z"/>
    <path id="path25747" class="st2" d="M126.3 126.7H122v-1.4h4.3v1.4z"/>
    <path id="path25749" class="st2" d="M126.3 123.8H122v-1.4h4.3v1.4z"/>
    <path id="path25751" class="st2" d="M126.3 121H122v-1.4h4.3v1.4z"/>
    <path id="path25753" class="st2" d="M126.3 118.1H122v-1.4h4.3v1.4z"/>
    <path id="path25755" class="st2" d="M126.3 115.2H122v-1.4h4.3v1.4z"/>
    <path id="path25757" class="st2" d="M126.3 112.4H122V111h4.3v1.4z"/>
    <path id="path25759" class="st2" d="M126.3 109.5H122v-1.4h4.3v1.4z"/>
    <path id="path25761" class="st2" d="M126.3 106.7H122v-1.4h4.3v1.4z"/>
    <path id="path25763" class="st2" d="M126.3 103.8H122v-1.4h4.3v1.4z"/>
    <path id="path25765" class="st2" d="M126.3 100.9H122v-1.4h4.3v1.4z"/>
    <path id="path25767" class="st2" d="M120.7 98.2h-1.4v-4.3h1.4v4.3z"/>
    <path id="path25769" class="st2" d="M117.8 98.2h-1.4v-4.3h1.4v4.3z"/>
    <path id="path25771" class="st2" d="M114.9 98.2h-1.4v-4.3h1.4v4.3z"/>
    <path id="path25773" class="st2" d="M112.1 98.2h-1.4v-4.3h1.4v4.3z"/>
    <path id="path25775" class="st2" d="M109.2 98.2h-1.4v-4.3h1.4v4.3z"/>
    <path id="path25777" class="st2" d="M106.4 98.2H105v-4.3h1.4v4.3z"/>
    <path id="path25779" class="st2" d="M103.5 98.2h-1.4v-4.3h1.4v4.3z"/>
    <path id="path25781" class="st2" d="M100.7 98.2h-1.5v-4.3h1.4l.1 4.3z"/>
    <path id="path25783" class="st2" d="M97.8 98.2h-1.4v-4.3h1.4v4.3z"/>
    <path id="path25785" class="st2" d="M94.9 98.2h-1.4v-4.3h1.4v4.3z"/>
    <path id="path25787" class="st2" d="M92.1 98.2h-1.4v-4.3h1.4v4.3z"/>
    <path id="path25789" class="st2" d="M89.2 98.2h-1.4v-4.3h1.4v4.3z"/>
    <path id="path25791" class="st2" d="M82.2 99.5h4.3v1.4h-4.3v-1.4z"/>
    <path id="path25793" class="st2" d="M82.2 102.4h4.3v1.4h-4.3v-1.4z"/>
    <path id="path25795" class="st2" d="M82.2 105.2h4.3v1.4h-4.3v-1.4z"/>
    <path id="path25797" class="st2" d="M82.2 108.1h4.3v1.4h-4.3v-1.4z"/>
    <path id="path25799" class="st2" d="M82.2 111h4.3v1.4h-4.3V111z"/>
    <path id="path25801" class="st2" d="M82.2 113.8h4.3v1.4h-4.3v-1.4z"/>
    <path id="path25803" class="st2" d="M82.2 116.7h4.3v1.4h-4.3v-1.4z"/>
    <path id="path25805" class="st2" d="M82.2 119.5h4.3v1.4h-4.3v-1.4z"/>
    <path id="path25807" class="st2" d="M82.2 122.4h4.3v1.4h-4.3v-1.4z"/>
    <path id="path25809" class="st2" d="M82.2 125.2h4.3v1.4h-4.3v-1.4z"/>
    <path id="path25811" class="st2" d="M82.2 128.1h4.3v1.4h-4.3v-1.4z"/>
    <path id="path25813" class="st2" d="M82.2 131h4.3v1.4h-4.3V131z"/>
    <path id="path25815" class="st2" d="M90.8 102.5h26.9v26.9H90.8v-26.9z"/>
    <path id="path26243" class="st0" d="M84.2 95.4h40v40h-40v-40z"/>
  </g>
  <g id="g4614">
    <path id="path25295_1_" class="st1" d="M142.1 106.1h-1.2"/>
    <path id="path25297_1_" class="st1" d="M140.9 106.1v1.6"/>
    <path id="path25299_1_" class="st1" d="M155.3 106.1h1.2"/>
    <path id="path25301_1_" class="st1" d="M156.5 106.1v1.6"/>
    <path id="path25303_1_" class="st1" d="M156.5 125.1v1.6"/>
    <path id="path25305_1_" class="st1" d="M156.5 126.7h-1.2"/>
    <path id="path25307_1_" class="st1" d="M140.8 125.9h.5-.5m0 .3h.8-.8m0 .4h1.1-1.1m0 .3h1.3-1.3m1.3.2h-1.5v-1.9l1.5 1.9"/>
    <path id="path25719_1_" class="st2" d="M142.5 125.3h.5v2.1h-.5v-2.1z"/>
    <path id="path25721_1_" class="st2" d="M143.6 125.3h.5v2.1h-.5v-2.1z"/>
    <path id="path25723_1_" class="st2" d="M144.6 125.3h.5v2.1h-.5v-2.1z"/>
    <path id="path25725_1_" class="st2" d="M145.7 125.3h.5v2.1h-.5v-2.1z"/>
    <path id="path25727_1_" class="st2" d="M146.9 125.3h.5v2.1h-.5v-2.1z"/>
    <path id="path25729_1_" class="st2" d="M148 125.3h.5v2.1h-.5v-2.1z"/>
    <path id="path25731_1_" class="st2" d="M149 125.3h.5v2.1h-.5v-2.1z"/>
    <path id="path25733_1_" class="st2" d="M150.1 125.3h.5v2.1h-.5v-2.1z"/>
    <path id="path25735_1_" class="st2" d="M151.2 125.3h.5v2.1h-.5v-2.1z"/>
    <path id="path25737_1_" class="st2" d="M152.2 125.3h.5v2.1h-.5v-2.1z"/>
    <path id="path25739_1_" class="st2" d="M153.3 125.3h.5v2.1h-.5v-2.1z"/>
    <path id="path25741_1_" class="st2" d="M154.3 125.3h.5v2.1h-.5v-2.1z"/>
    <path id="path25743_1_" class="st2" d="M157 124.6h-1.6v-.7h1.6v.7z"/>
    <path id="path25745_1_" class="st2" d="M157 123.2h-1.6v-.7h1.6v.7z"/>
    <path id="path25747_1_" class="st2" d="M157 121.8h-1.6v-.7h1.6v.7z"/>
    <path id="path25749_1_" class="st2" d="M157 120.3h-1.6v-.7h1.6v.7z"/>
    <path id="path25751_1_" class="st2" d="M157 118.9h-1.6v-.7h1.6v.7z"/>
    <path id="path25753_1_" class="st2" d="M157 117.5h-1.6v-.7h1.6v.7z"/>
    <path id="path25755_1_" class="st2" d="M157 116.1h-1.6v-.7h1.6v.7z"/>
    <path id="path25757_1_" class="st2" d="M157 114.6h-1.6v-.7h1.6v.7z"/>
    <path id="path25759_1_" class="st2" d="M157 113.2h-1.6v-.7h1.6v.7z"/>
    <path id="path25761_1_" class="st2" d="M157 111.8h-1.6v-.7h1.6v.7z"/>
    <path id="path25763_1_" class="st2" d="M157 110.3h-1.6v-.7h1.6v.7z"/>
    <path id="path25765_1_" class="st2" d="M157 108.9h-1.6v-.7h1.6v.7z"/>
    <path id="path25767_1_" class="st2" d="M154.9 107.6h-.5v-2.1h.5v2.1z"/>
    <path id="path25769_1_" class="st2" d="M153.8 107.6h-.5v-2.1h.5v2.1z"/>
    <path id="path25771_1_" class="st2" d="M152.8 107.6h-.5v-2.1h.5v2.1z"/>
    <path id="path25773_1_" class="st2" d="M151.7 107.6h-.5v-2.1h.5v2.1z"/>
    <path id="path25775_1_" class="st2" d="M150.6 107.6h-.5v-2.1h.5v2.1z"/>
    <path id="path25777_1_" class="st2" d="M149.6 107.6h-.6v-2.1h.5v2.1h.1z"/>
    <path id="path25779_1_" class="st2" d="M148.5 107.6h-.5v-2.1h.5v2.1z"/>
    <path id="path25781_1_" class="st2" d="M147.4 107.6h-.5v-2.1h.5v2.1z"/>
    <path id="path25783_1_" class="st2" d="M146.4 107.6h-.5v-2.1h.5v2.1z"/>
    <path id="path25785_1_" class="st2" d="M145.2 107.6h-.5v-2.1h.5v2.1z"/>
    <path id="path25787_1_" class="st2" d="M144.1 107.6h-.5v-2.1h.5v2.1z"/>
    <path id="path25789_1_" class="st2" d="M143.1 107.6h-.5v-2.1h.5v2.1z"/>
    <path id="path25791_1_" class="st2" d="M140.4 108.2h1.6v.7h-1.6v-.7z"/>
    <path id="path25793_1_" class="st2" d="M140.4 109.6h1.6v.7h-1.6v-.7z"/>
    <path id="path25795_1_" class="st2" d="M140.4 111.1h1.6v.7h-1.6v-.7z"/>
    <path id="path25797_1_" class="st2" d="M140.4 112.5h1.6v.7h-1.6v-.7z"/>
    <path id="path25799_1_" class="st2" d="M140.4 113.9h1.6v.7h-1.6v-.7z"/>
    <path id="path25801_1_" class="st2" d="M140.4 115.3h1.6v.7h-1.6v-.7z"/>
    <path id="path25803_1_" class="st2" d="M140.4 116.8h1.6v.7h-1.6v-.7z"/>
    <path id="path25805_1_" class="st2" d="M140.4 118.2h1.6v.7h-1.6v-.7z"/>
    <path id="path25807_1_" class="st2" d="M140.4 119.6h1.6v.7h-1.6v-.7z"/>
    <path id="path25809_1_" class="st2" d="M140.4 121.1h1.6v.7h-1.6v-.7z"/>
    <path id="path25811_1_" class="st2" d="M140.4 122.5h1.6v.7h-1.6v-.7z"/>
    <path id="path25813_1_" class="st2" d="M140.4 123.9h1.6v.7h-1.6v-.7z"/>
    <path id="path25815_1_" class="st2" d="M143.7 109.7h10.1v13.4h-10.1v-13.4z"/>
    <path id="path26243_1_" class="st0" d="M141.2 106.1h15v20h-15v-20z"/>
  </g>
  <path id="rect243" class="st2" d="M97.5 205.8H142v37.7H97.5v-37.7z"/>
  <g id="g4653">
    <g id="g4645">
      <g id="g4627">
        <path class="st3" id="line4617" d="M192.6 114.7h-13.5"/>
        <g id="g4625">
          <path class="st4" id="line4619" d="M192.6 114.7h-8.8"/>
          <g id="g4623">
            <path class="st5" d="M179.1 114.7c2.2-.8 5-2.2 6.7-3.7l-1.3 3.7 1.3 3.7c-1.7-1.5-4.5-2.9-6.7-3.7z" id="path4621"/>
          </g>
        </g>
      </g>
      <g id="g4639">
        <path class="st3" id="line4629" d="M196.3 110.9V97.4"/>
        <g id="g4637">
          <path class="st4" id="line4631" d="M196.3 110.9v-8.8"/>
          <g id="g4635">
            <path class="st5" d="M196.3 97.4c.8 2.2 2.2 5 3.7 6.7l-3.7-1.3-3.7 1.3c1.5-1.7 2.9-4.4 3.7-6.7z" id="path4633"/>
          </g>
        </g>
      </g>
      <circle cx="196.3" cy="114.7" r="1.3" id="circle4641" fill="#fff" stroke="#fff" stroke-width="2" stroke-miterlimit="10"/>
      <circle class="st4" cx="196.3" cy="114.7" r="3.8" id="circle4643"/>
    </g>
    <text transform="rotate(180 99.281 45.698)" class="st5 st7 st8" id="text4647">
      X
    </text>
    <text transform="rotate(180 89.558 56.242)" class="st5 st7 st8" id="text4649">
      Y
    </text>
    <text transform="rotate(180 102.9 56.242)" class="st5 st7 st8" id="text4651">
      Z
    </text>
  </g>
  <circle id="CS" class="st9" cx="54.3" cy="167.7" r="5"/>
  <circle id="SCK" class="st9" cx="42.6" cy="180.2" r="5"/>
  <circle id="GND" class="st9" cx="73.9" cy="39.3" r="5"/>
  <circle id="3V3" class="st9" cx="85" cy="52.6" r="5"/>
  <circle id="SWCLK" class="st9" cx="150.1" cy="49.4" r="5"/>
  <circle id="SWDIO" class="st9" cx="164.8" cy="40.5" r="5"/>
  <circle id="MISO" class="st9" cx="40.8" cy="113.9" r="5"/>
  <circle id="MOSI" class="st9" cx="24.1" cy="110" r="5"/>
  <text id="led2t" transform="translate(97.156 78.395)" class="st5 st7 st10">
    LED2
  </text>
  <text id="led1t" transform="translate(122.327 78.395)" class="st5 st7 st10">
    LED1
  </text>
  <g id="led1">
    <g id="g164" transform="matrix(0 2.7412 -2.7412 0 211.757 0)">
      <g id="g168">
        <g id="g172">
          <path id="path176" class="st11" d="M23.8 29.9l-.7-.9h1.4l-.7.9m.7-.9h-1.3 1.3"/>
        </g>
        <g id="g4576" transform="rotate(180 18.63 4.533)">
          <g id="g4574">
            <g id="g178">
              <path id="rect180" class="st5" d="M12.4-21.2h2.2v.4h-2.2v-.4z"/>
            </g>
          </g>
        </g>
      </g>
    </g>
    <g id="g4947" transform="rotate(-90 190.568 13.706) scale(2.7412)">
      <g id="g4945">
        <g id="g496">
          <path id="connector66pin_1_" class="st12" d="M49.6-15.8h2.3v2.3h-2.3v-2.3z"/>
        </g>
      </g>
    </g>
    <g id="g4953" transform="rotate(-90 178.916 25.359) scale(2.7412)">
      <g id="g4951">
        <g id="g499">
          <path id="connector67pin_1_" class="st12" d="M49.6-11.5h2.3v2.3h-2.3v-2.3z"/>
        </g>
      </g>
    </g>
    <path id="path659" class="st13" d="M125.6 62h10.8c.4 0 .8.4.8.8v4.6c0 .4-.4.8-.8.8h-10.8c-.4 0-.8-.4-.8-.8v-4.6c0-.4.4-.8.8-.8z"/>
    <g id="LED1" transform="rotate(180 95.797 54.177) scale(2.7412)">
      <g id="g5183">
        <path id="rect661" d="M21 14.6h2.3v2.3H21v-2.3z" fill="red"/>
      </g>
    </g>
  </g>
  <path id="rect307" class="st0" d="M180.3 175.4v-5.6h7.7v5.6h-7.7z"/>
  <path id="path26207_1_" class="st13" d="M176.1 156.1h-1.3v21.3h1.3v2h1.1v-2h6.3v2h1.1v-2h1.3v-21.3h-1.3v-2h-1.1v2h-6.3v-2h-1.1v2z"/>
  <text id="text310" transform="translate(160.315 160.213)" class="st5 st15 st16">
    OFF
  </text>
  <text id="text312" transform="translate(162.985 177.676)" class="st5 st15 st16">
    ON
  </text>
  <g id="led2">
    <g id="g164_1_" transform="matrix(0 2.7412 -2.7412 0 211.757 0)">
      <g id="g168_1_">
        <g id="g172_1_">
          <path id="path176_1_" class="st11" d="M23.8 38.6l-.7-.9h1.4l-.7.9m.7-.9h-1.3 1.3"/>
        </g>
        <g id="g4576_1_" transform="rotate(180 18.63 4.533)">
          <g id="g4574_1_">
            <g id="g178_1_">
              <path id="rect180_1_" class="st5" d="M12.4-29.9h2.2v.4h-2.2v-.4z"/>
            </g>
          </g>
        </g>
      </g>
    </g>
    <g id="g4947_1_" transform="rotate(-90 190.568 13.706) scale(2.7412)">
      <g id="g4945_1_">
        <g id="g496_1_">
          <path id="connector66pin_2_" class="st12" d="M49.6-24.5h2.3v2.3h-2.3v-2.3z"/>
        </g>
      </g>
    </g>
    <g id="g4953_1_" transform="rotate(-90 178.916 25.359) scale(2.7412)">
      <g id="g4951_1_">
        <g id="g499_1_">
          <path id="connector67pin_2_" class="st12" d="M49.6-20.2h2.3v2.3h-2.3v-2.3z"/>
        </g>
      </g>
    </g>
    <path id="path659_1_" class="st13" d="M101.6 62h10.8c.4 0 .8.4.8.8v4.6c0 .4-.4.8-.8.8h-10.8c-.4 0-.8-.4-.8-.8v-4.6c0-.4.4-.8.8-.8z"/>
    <g id="LED2" transform="rotate(180 95.797 54.177) scale(2.7412)">
      <g id="g5183_1_">
        <path id="rect661_1_" d="M29.7 14.6H32v2.3h-2.3v-2.3z" fill="#2f2ff7"/>
      </g>
    </g>
  </g>
  <g id="g4732">
    <path id="path4625" class="st18" d="M106 191.8H82.5m0 0V176m0 0h23.7m-.2 0v15.7"/>
    <path id="path4627" class="st19" d="M100.4 182.7c0-1.9-1.5-3.3-3.3-3.3"/>
    <path id="path4629" class="st18" d="M100.4 182.7v2.3"/>
    <path id="path4631" class="st19" d="M97.1 188.4c1.9 0 3.3-1.5 3.3-3.3"/>
    <path id="path4715" class="st18" d="M97.1 188.4h-5.6"/>
    <path id="path4635" class="st19" d="M88.1 185c0 1.9 1.5 3.3 3.3 3.3"/>
    <path id="path4637" class="st18" d="M88.1 185v-2.3"/>
    <path id="path4639" class="st19" d="M91.4 179.4c-1.9 0-3.3 1.5-3.3 3.3"/>
    <path id="path4641" class="st18" d="M91.4 179.4H97"/>
    <g id="g4795" transform="translate(-3.983) scale(3.156)">
      <path id="path4793" class="st12" d="M28.4 60.6h-1.8v-1.8h1.8v1.8z"/>
    </g>
    <g id="g4799" transform="translate(-3.983) scale(3.156)">
      <path id="path4797" class="st12" d="M28.4 57.8h-1.8V56h1.8v1.8z"/>
    </g>
    <g id="g4803" transform="translate(-3.983) scale(3.156)">
      <path id="path4801" class="st12" d="M35.6 60.6h-1.8v-1.8h1.8v1.8z"/>
    </g>
    <g id="g4807" transform="translate(-3.983) scale(3.156)">
      <path id="path4805" class="st12" d="M35.6 57.8h-1.8V56h1.8v1.8z"/>
    </g>
    <path id="path5299" class="st13" d="M84.4 189.8v2.6h19.7v-2.6h2.8V187h-2.8v-6.1h2.8V178h-2.8v-2.6H84.4v2.6h-2.8v2.8h2.8v6.1h-2.8v2.8h2.8z"/>
    <circle id="RESETBTN_1_" cx="94.3" cy="183.9" r="5" fill="#1e1e1e"/>
    <path id="path5303" d="M105 192.3h-1.2v-16.9h1.2v16.9zm-20.3 0h-1.2v-16.9h1.2v16.9z" fill="#b4b4b4"/>
  </g>
</svg>
