<svg width="684" height="509" xmlns="http://www.w3.org/2000/svg"><g transform="rotate(90 341.5 342)" fill="none" fill-rule="evenodd"><path d="M234 682.67c-12.36-1.77-24.83-3.12-37.1-5.51-59.65-11.33-111-37.41-148.19-87.71-23.59-32-36.27-68.69-43.13-107.56-12.75-72.75-1.73-142.69 25.8-210.44C58.3 205 95.09 144.56 137.07 87c11.85-16.31 24.32-32.11 36.58-48.11 16.53-21.33 38.25-33.38 64.54-37.64 1.14-.31 2.39-.83 3.74-1.25h23.8c5.51 1.35 11.12 2.49 16.52 4 18.5 5.3 34.19 15.17 46.46 30.14 39.59 48.53 76.38 99.14 107.14 153.8C464.33 238.5 488.33 291.3 500 349c13.2 65.47 9.77 130-14.75 192.36-25.36 64.44-73 105-137.49 126.37a289.14 289.14 0 01-68.39 13.62 28.48 28.48 0 00-5.71 1.24c-13.23.08-26.43.08-39.66.08z" fill="#036" fill-rule="nonzero"/><path fill="#F9F9F9" fill-rule="nonzero" d="M314.89 525.64v-14.76l1.45-.41 9.87 10.53 1-.1v-9.77h1.46v15.38L317.8 515h-1.15v10.39zM312.39 518.37c0 6.75-2.7 9.14-9.35 8.21a8.5 8.5 0 01-3.74-1.58c-2.39-1.77-3.74-11.23-1.15-12.58a20.91 20.91 0 019.77-1.66c1.67.1 3.22 2.7 4.37 4.26.52.98.1 2.2.1 3.35zm-2.7-2.19c.21-2.28-.42-3.94-4.47-3.94-3.74 0-6.34.62-6.34 3.74 0 1.76-.83 3.74.21 5.19a9.9 9.9 0 006 3.64c3.43.52 4.78-1.46 4.67-3.85"/><path d="M67.13 300.44l.11-.1-.11.1z" fill="#000" fill-rule="nonzero"/><path fill="#666" fill-rule="nonzero" d="M306.26 290.36h46.56v35.85h-46.56z"/><path d="M330.37 303.87c2.91 0 5.82-.1 8.73 0 1.56.1 4 4.78 3.43 6.65-.94 2.7-1.66 5.92-6 5.09-1.66-.31-3.53.94-5.19.83a52.22 52.22 0 01-11.34-1.55c-1-.21-1.56-2.81-2-4.47-.72-2.81 2.5-6.55 5.41-6.65 2.28-.11 4.57-.21 7-.42l-.04.52z" fill="#000" fill-rule="nonzero"/><path d="M273 659.39c.1 5.4.2 10.18.1 15a3.31 3.31 0 01-2.39 2.29c-3.904.33-7.826.4-11.74.21a3.74 3.74 0 01-2.39-2.6 70.44 70.44 0 01-.32-11.43c0-1 1.25-2.91 2.08-3 4.66-.47 9.47-.47 14.66-.47zM250.56 659.91c.21 5.2.21 9.77.52 14.24.1 2.28-.83 3-3 3-4.26 0-8.52 0-13.4.1-.21-5.09-.42-10.08-.52-15.06 0-.73.93-2.08 1.45-2.08 4.97-.11 9.96-.11 14.95-.2zM276.75 677c-.21-5.09-.32-9.87-.52-14.65-.11-2 .93-2.39 2.7-2.6a50.94 50.94 0 007.9-1.35c4.36-1 9.35.73 11.64 4.57 2.18 3.64 1.76 7.28-.52 10.81-2.5 3.95-5.93 5.09-10.92 4a42.4 42.4 0 00-5.09-.72 40 40 0 00-5.19-.06zm6.75-6.23a6.913 6.913 0 0012.89-5 7 7 0 00-8.94-4 6.82 6.82 0 00-3.95 8.94v.06zM229.57 677.26c-4.37.84-8.42 1.67-12.58 2.19a9 9 0 01-9.77-5.1 9.7 9.7 0 011.15-11.35c2.91-3.43 6.44-3.95 10.7-2.91 2.49.62 5.09.41 7.59.83 1 .21 2.7 1.25 2.7 2 .21 4.78.1 9.56.21 14.34zm-11-1.35a6.67 6.67 0 003.43-8.83V667a6.4 6.4 0 00-8.31-4 .78.78 0 00-.42.2 7.37 7.37 0 00-4.05 9.15 7.48 7.48 0 009.35 3.53v.03zM228 646.09a7.38 7.38 0 01-9.67-4.06.1.1 0 00-.1-.1 7.92 7.92 0 014.15-10.18c3.64-1.35 8.63.72 10 4.15a8.13 8.13 0 01-4.38 10.19zm-.63-2a5.78 5.78 0 002.81-7.17 5.35 5.35 0 00-7-2.91 5.45 5.45 0 004.15 10.08h.04zM283.29 644.94a7.8 7.8 0 01-10-3.94c-1.67-3.64.41-8.84 4.05-10.4a8.34 8.34 0 0110 4.16 7.71 7.71 0 01-4 10.08l-.05.1zm-8-5c.94 2.39 4.68 4 7.17 3.11 2.49-.89 4.06-4.78 3.12-7.17a5.47 5.47 0 00-7.27-2.7 5.65 5.65 0 00-3 6.76h-.02zM264.9 645.88c0-4.68-.21-9 0-13.3.1-.83 2.08-1.56 3.22-2.29.62.94 1.66 1.77 1.66 2.7.21 3.947.21 7.903 0 11.85 0 .83-1 2.39-1.56 2.39-1.14 0-2.28-.83-3.32-1.35zM248.69 646.4l-5.41.1c0-4.57-.1-9 .21-13.3.1-.83 1.77-1.77 2.91-2.18.31-.11 1.87 1.25 1.87 2.08.21 4.26.21 8.62.42 13.3zM236.53 647.75c-.31-5.4-.63-9.77-.63-14.13 0-.83 1.46-2.08 2.5-2.5.52-.21 2.29 1 2.29 1.77a83.75 83.75 0 01.2 12.47c0 .73-2.39 1.35-4.36 2.39zM255.55 645.88c-3.75 1.25-5.41.62-5.1-3.22.21-2.6-.52-5.41-.1-8 .21-1.46 1.87-2.6 2.91-3.95.73 1.24 1.87 2.49 2 3.84.31 3.768.406 7.55.29 11.33zM257.83 646c0-4.78-.1-9.35-.21-13.92 4.58-1.25 4.78-1.15 5 3.22.11 2.29.21 4.68.21 7 .3 4.1.09 4.31-5 3.7z" fill="#D8D7D6" fill-rule="nonzero"/><path d="M227.38 644.11c-2.39 1-6.13-.52-7.17-2.91a5.76 5.76 0 012.91-7.06 5.34 5.34 0 017 2.91 5.63 5.63 0 01-2.74 7.06zM275.29 640a5.49 5.49 0 0110.19-4.06c.93 2.39-.73 6.24-3.12 7.17-2.39.93-6.13-.76-7.07-3.11z" fill="#D8D7D6" fill-rule="nonzero"/><path d="M285.06 634.14c-30.76-.32-32.42 1.35-62.67 1.14-.1 15.48-14.86 26.71-15 42.09l91.24.83c.15-15.48-13.63-28.68-13.57-44.06z" fill="#CCC" fill-rule="nonzero"/><text fill="#FFF" font-family="Helvetica" font-size="10.39"><tspan x="311.48" y="286.31">RESET</tspan></text><path d="M177.92 129.59l-2.08 3L125 103.2l2.08-2.91 32 18.49c-2.08-1.76-4.16-3.63-6.24-5.61-20.58-18.7-21-19.12-19.43-21.93l2.8-3.53c.73-1.45-1.76 3.74 19 22.66 10.96 10.08 22.5 19.12 22.71 19.22z" fill="#FFF" fill-rule="nonzero"/><path d="M176.05 133.33c-.11-.1-13.83-5.61-27.86-10.08-26.81-8.62-34.19-3.63-34.19-3.53l2-3.53c1.66-2.81 6.86-5 33.36 3.53 14.13 4.57 27.95 10.08 28.06 10.18l-1.37 3.43z" fill="#FFF" fill-rule="nonzero"/><text fill="#FFF" font-family="Helvetica" font-size="10.39"><tspan x="295.51" y="506.63">P</tspan></text><text fill="#FFF" font-family="Helvetica" font-size="10.39"><tspan x="302.98" y="506.63">O</tspan></text><text fill="#FFF" font-family="Helvetica" font-size="10.39"><tspan x="311.48" y="506.63">W</tspan></text><text fill="#FFF" font-family="Helvetica" font-size="10.39"><tspan x="322.87" y="506.63">ER</tspan></text><path d="M245.67 412c0-3.95.11-8 0-11.95 0-2.29.94-3.22 3.33-3.12 8.21.1 16.52.1 24.73 0 2.5 0 3.64.83 3.54 3.33-.11 8-.11 15.9 0 23.9 0 2.39-1 3.43-3.54 3.43H249c-2.29 0-3.33-.94-3.33-3.22V412z" fill="#000" fill-rule="nonzero"/><path fill="#CCC" fill-rule="nonzero" d="M205.14 95.25h97.84v111.31h-97.84z"/><path d="M148.35 397.45c2.6.1 5.19.1 7.69 0 3-.32 3.84 2 3.84 3.74a3.54 3.54 0 01-3.12 3.74h-.83a203.954 203.954 0 00-15.9 0c-2.91.1-3.11-1.46-3.11-3.74 0-2.28.31-3.85 3.22-3.64 2.91.21 5.51-.1 8.21-.1zM148.14 420.93c2.49 0 5-.1 7.38.11 1.14.1 3.22.72 3.32 1.35a9.91 9.91 0 01-.62 5.19c-.21.52-2.29.32-3.53.32-4.58 0-9.15-.32-13.72-.11-3.54.21-4.47-1.45-3.85-4.36a3.65 3.65 0 012.5-2.29 78.8 78.8 0 018.52-.21z" fill="#D8D7D6" fill-rule="nonzero"/><path fill="#000" fill-rule="nonzero" d="M138.16 399.94h20.68v23.69h-20.68z"/><path d="M227.64 434.41h-2.48c-3.64 0-3.64 0-3.64-3.35 0-3.78 0-3.78 4.08-3.78h6.4c1.75 0 2.19.58 2.33 2.18.3 4.95.3 4.95-6.69 4.95zM183.66 435.87h-2.77c-4.08 0-4.08 0-4.08-4.08 0-4.51 0-4.51 4.66-4.51 2.33 0 4.81.14 7.14 0 1.89 0 2.47.72 2.62 2.62.15 5.97.15 5.97-7.57 5.97zM183.66 410h-2.77c-4.08 0-4.08 0-4.08-4.08 0-4.52 0-4.52 4.66-4.52h7.14c1.89 0 2.47.73 2.62 2.63.15 5.97.15 5.97-7.57 5.97zM227.64 408.78h-2.77c-4.08 0-4.08 0-4.08-4.08 0-4.51 0-4.51 4.66-4.51h7.14c1.89 0 2.47.73 2.62 2.62.14 5.97.14 5.97-7.57 5.97z" fill="#D8D7D6" fill-rule="nonzero"/><path fill="#FCFCFC" fill-rule="nonzero" d="M180.89 392.18h48.49v47.62h-48.49z"/><path d="M455.49 226.45c10.08 20.16 19.64 42.09 25.67 63.39-1.14.21-20.78 7.9-21.51 8-10.08 1.56-20.16 0-30.24-2.6-8.63-2.28-17.88-8.62-19.75-19-.2-9.67 2.29-15.9 7.69-22.87 9.15-11 11.23-11.84 20.06-18.81 5.82-3.12 17.04-7.49 18.08-8.11zm-34 47.18c1 7.17 9.67 12.47 17.56 10.6 7.38-1.77 12.37-10.39 10.5-17.77-2.2-7.668-9.978-12.307-17.77-10.6-7.28 1.87-13 10.7-10.29 17.77zM497 341.91c4.88 21.92 8.83 45.62 9.56 67.75-1.14-.1-22.14 2.6-22.76 2.6-10.08-.83-19.54-4.88-28.68-9.87-7.9-4.26-15.28-12.68-14.55-23.18 2.08-9.35 6-14.86 13-20.36 11.53-8.53 13.82-8.84 24.11-13.41 6.18-1.77 18.14-3.22 19.32-3.53zm-44.48 37.51c-.73 7.17 6.34 14.45 14.44 14.55 7.59.1 14.55-7.07 14.45-14.76-.1-7.69-7-14.65-14.65-14.55-7.49.11-15.18 7.28-14.24 14.76zM24.42 289.74c7.07-21.31 15.9-43.65 26.71-63 .94.73 20.26 9.14 20.89 9.46 8.21 5.92 14.24 14.23 19.54 23.17 4.57 7.69 6.54 18.81.52 27.33-6.66 7-12.79 9.56-21.62 10.71-14.24 1.35-16.32.41-27.54-.94-6.34-1.54-17.35-6.42-18.5-6.73zm57.37-9.36c4.36-5.82 2-15.69-4.89-19.85-6.44-4-16.11-1.45-20 5.2-3.89 6.65-1.51 16.11 5.1 20.06 6.49 3.74 16.67 1.56 19.79-5.41zM392.31 119.51c13.61 17.88 27 37.83 36.89 57.68-1.14.41-19 11.64-19.64 11.85-9.56 3.42-19.85 3.74-30.14 3-8.94-.62-19.12-5.2-22.86-15.07-2-9.35-.62-16 3.32-23.9 7-12.47 8.84-13.72 16.32-22.24 4.99-4.25 15.17-10.59 16.11-11.32zm-24.74 52.69c2.29 6.86 11.75 10.5 19.13 7.17 7-3.12 10.28-12.47 7-19.43-3.537-7.182-12.105-10.3-19.43-7.07-6.7 3.13-10.64 12.78-6.7 19.33zM503.82 470c-3.74 22.14-9 45.52-16.84 66.31-1-.52-21.41-5.93-22-6.24-9-4.68-16.32-12-22.86-19.95-5.61-7-9.36-17.57-4.68-27 5.51-7.9 11.22-11.43 19.64-13.93 13.93-3.43 16.11-2.91 27.33-3.32 6.59.95 18.26 3.96 19.41 4.13zm-55.29 18c-3.43 6.44.42 15.8 7.9 18.91 7.07 2.91 16.11-1 18.91-8.2 2.8-7.2-.93-16.11-8.1-19-7-2.81-16.73.93-18.71 8.31V488z" fill="#999" fill-rule="nonzero"/><path d="M363.43 161.9c-1.45-12 11-23.27 23.11-23.27 12.723.38 22.977 10.55 23.46 23.27 0 12.28-11.15 23.43-23.43 23.27-13.12-.17-24.43-11.79-23.14-23.27z" stroke="#CCC" stroke-width="2" fill="#FFF" fill-rule="nonzero"/><path d="M28.89 347.62c10.29 4.68 12.47 5 24.11 13.41 6.86 5.51 10.91 10.91 13 20.37.73 10.49-6.65 18.91-14.55 23.17-9.14 5-18.6 8.94-28.68 9.87-.73.11-21.62-2.7-22.76-2.59.72-22.14 4.56-45.85 9.55-67.76 1.14.21 13.1 1.76 19.33 3.53zm10.91 19.12c-7.99.19-14.451 6.564-14.75 14.55-.11 7.69 6.85 14.86 14.44 14.76 8.11-.1 15.17-7.28 14.45-14.55.93-7.5-6.76-14.65-14.14-14.76zM21.93 468.17c11.22.42 13.51-.1 27.33 3.33 8.42 2.49 14.24 6 19.64 13.92 4.57 9.46.94 20.06-4.68 27-6.54 8-13.82 15.28-22.86 20-.62.31-21 5.71-22 6.23-7.69-20.78-13-44.17-16.84-66.3 1.22-.35 12.86-3.45 19.41-4.18zm17.25 13.72c-7.264 3.23-10.803 11.52-8.11 19 2.81 7.17 12 11.22 18.92 8.21 7.48-3.12 11.32-12.47 7.89-18.92-2-7.38-11.74-11.12-18.7-8.31v.02zM462.46 582.59a151.28 151.28 0 01-18.92 25.67c-8.42 9.46-18.39 16.63-27.54 24.63-.62-1-16-15.38-16.42-16-5.71-8.42-8.62-18.19-10.6-28.38-1.66-8.83.21-19.84 8.73-26 8.63-4.36 15.28-4.67 23.9-2.8 13.93 3.53 15.59 5.09 25.67 10.08 5.51 3.86 14.24 12.07 15.18 12.8zm-57.16-10.5c-6 3.95-7.17 14-2.08 20.37 4.78 5.93 14.65 6.76 20.58 1.87 6.037-5.23 6.917-14.275 2-20.57-4.88-5.82-15.28-7.17-20.47-1.67h-.03zM63.7 574.9c10.09-5 11.75-6.55 25.67-10.08 8.63-1.87 15.38-1.46 23.91 2.91 8.52 6 10.39 17.15 8.73 26-2 10.18-4.89 20.06-10.6 28.37-.42.52-13.1 14.24-13.83 15.28-9-7.9-21.82-16.11-30.13-25.46-7.07-7.9-13.72-16.11-20.06-24.22.93-.85 10.91-9.06 16.31-12.8zm21.72 3.74c-4.892 6.306-4.015 15.334 2 20.58 5.92 5 15.8 4.16 20.58-1.87 5.09-6.34 3.94-16.42-2.08-20.37-5.3-5.41-15.7-4.05-20.48 1.66h-.02zM130.22 131.05c7.48 8.52 9.35 9.77 16.31 22.24 3.95 7.89 5.3 14.44 3.33 23.9-3.74 9.77-13.93 14.44-22.87 15.07-10.39.72-20.57.41-30.13-3-.63-.2-18.5-11.43-19.65-11.84 9.88-19.85 23.28-39.7 36.9-57.68.83.71 11.01 7.05 16.11 11.31zM132 153c-7-3.22-16.11.11-19.43 7.07-3.32 6.96 0 16.32 7 19.43 7.38 3.33 16.84-.31 19.23-7.17 3.89-6.47-.06-16.13-6.8-19.33z" fill="#999" fill-rule="nonzero"/><path d="M291.09 496.44a.33.33 0 00.31-.31.27.27 0 00-.31-.31" stroke="#5B5B5B" stroke-linecap="round" stroke-linejoin="round" stroke-width=".5"/><path d="M291.09 496.13v37.41" stroke="#5B5B5B" stroke-linecap="round" stroke-linejoin="round" stroke-width=".99"/><path d="M290.78 533.54c0 .21.2.31.41.31.21 0 .21-.1.31-.31M291.4 496.13c0-.21-.1-.42-.31-.42s-.42.11-.42.31v.11" stroke="#5B5B5B" stroke-linecap="round" stroke-linejoin="round" stroke-width=".5"/><path d="M291.09 534c.21 0 .31-.2.31-.41 0-.21-.1-.21-.31-.31" stroke="#5B5B5B" stroke-linecap="round" stroke-linejoin="round" stroke-width=".5"/><path d="M362.38 398.75a.27.27 0 00.31-.31.27.27 0 00-.31-.31M296.08 398.13a.31.31 0 000 .62" fill="#D8D7D6" fill-rule="nonzero"/><path d="M362.59 398.13a.35.35 0 00-.52.1.31.31 0 000 .42M296.39 398.44a.28.28 0 00-.31-.31.28.28 0 00-.32.31M343.05 419.85a5.43 5.43 0 005.4-5.41 5.41 5.41 0 00-10.81 0 5.51 5.51 0 005.41 5.41M370.69 407.17a.374.374 0 00.62-.42.1.1 0 00-.1-.1M349.28 452a.28.28 0 00.32.31.28.28 0 00.31-.31" fill="#D8D7D6" fill-rule="nonzero"/><path d="M371.21 407a.27.27 0 00-.31-.31.27.27 0 00-.31.31M296.08 451.54a.29.29 0 00-.32.32.28.28 0 00.32.31M349.6 452.27a.31.31 0 000-.62" fill="#D8D7D6" fill-rule="nonzero"/><path d="M295.76 452a.28.28 0 00.32.31.28.28 0 00.31-.31" fill="#D8D7D6" fill-rule="nonzero"/><g fill="#D8D7D6" fill-rule="nonzero"><path d="M334.53 433.77h-14.24v-9.45z"/><path d="M334.53 433.77l-14.24-9.45h14.24z"/></g><g fill="#D8D7D6" fill-rule="nonzero"><path d="M382.85 433.77h-14.13v-9.45z"/><path d="M382.85 433.77l-14.13-9.45h14.13z"/></g><g fill="#D8D7D6" fill-rule="nonzero"><path d="M334.53 401.56h-14.24v-9.46z"/><path d="M334.53 401.56l-14.24-9.46h14.24z"/></g><path d="M266.77 362.57l-2.7.93c-1.25 5.3 1 8.42 5.82 10.08.72.21 1.87-.52 3.32-.93l4.47 8.31-10.29.31 1.15-3.53-7.07-2.6c-.73 2.39-5.51 2.7-3.12 7.07l-9.87 2.91c1-4.26 1.66-7.28 2.39-10.6l3.12 1.35c1.66-1.67 3.74-3.12 5.09-5.2 1.35-2.08-.52-6.44-2.81-8.1l4.58-7.8 5.92 7.8z" stroke="#FFF" fill="#FFF" fill-rule="nonzero"/><path d="M207.33 374h-2.81c0 3.12-.1 6.14 0 9 .1 2.18-.83 2.7-3 2.07V374l-5.1-.2v-3.43c2.39.2 2.39-1.35 2.39-3.12a35.52 35.52 0 01.42-5.72c.62-4.47 3.53-7.17 7.27-7 3.74.17 7.07 3.85 7.38 7.9.11 1.45-.1 2.91 0 4.36.1 1.45-.72 3 1.46 3.85.41.1.21 1.87.31 3.12l-5 .2c-.41 2.5-.73 4.89-1.14 7.28-.69.1-1.39.1-2.08 0l-.1-7.24z" fill="#F9F9F9" fill-rule="nonzero"/><path d="M321.54 160.87a.28.28 0 00.31-.31h0a.28.28 0 00-.31-.31" stroke="#5B5B5B" stroke-linecap="round" stroke-linejoin="round" stroke-width=".5"/><path d="M191.43 257.31a.33.33 0 00.31-.31h0a.34.34 0 00-.31-.31h0" stroke="#5B5B5B" stroke-linecap="round" stroke-linejoin="round" stroke-width=".4"/><path d="M294.83 621.15a.28.28 0 00.31-.32.28.28 0 00-.31-.31h0" stroke="#900" stroke-linecap="round" stroke-linejoin="round" stroke-width=".5"/><path d="M295.14 620.83a.28.28 0 00-.31-.31h0a.28.28 0 00-.31.31" stroke="#900" stroke-linecap="round" stroke-linejoin="round" stroke-width=".5"/><path d="M241.62 432.11a.1.1 0 00.1.1l.11-.1" stroke="#900" stroke-linecap="round" stroke-linejoin="round" stroke-width=".2"/><path d="M241.83 432a.1.1 0 00-.11.1l.11.1h0M278.72 400.62a.1.1 0 00-.1-.1h0a.1.1 0 00-.11.1" stroke="#900" stroke-linecap="round" stroke-linejoin="round" stroke-width=".2"/><path d="M197.56 46.35c0-.1-.11-.1-.11-.1l-.1.1h0" stroke="#5B5B5B" stroke-linecap="round" stroke-linejoin="round" stroke-width=".2"/><path d="M197.56 46.25c0-.11-.11-.11-.21 0-.1.11-.1.1 0 .2M202.65 46.45v-.2h-.21M202.34 53.94a.1.1 0 00.1.1l.11-.1" stroke="#5B5B5B" stroke-linecap="round" stroke-linejoin="round" stroke-width=".2"/><path d="M202.65 46.35a.1.1 0 00-.1-.1l-.11.1h0M208.16 46.45c.1 0 .1-.1.1-.2s-.1-.11-.21-.11h0M208 53.94a.1.1 0 00.1.1l.11-.1" stroke="#5B5B5B" stroke-linecap="round" stroke-linejoin="round" stroke-width=".2"/><path d="M208.16 46.35c0-.1-.11-.1-.11-.1l-.1.1h0M210.13 54.14c.11 0 .11 0 .11-.1h0c0-.1-.11-.1-.11-.1h0" stroke="#5B5B5B" stroke-linecap="round" stroke-linejoin="round" stroke-width=".2"/><path d="M215.33 81.58a.21.21 0 10-.42 0M215.33 81.58a.4.4 0 00-.31-.1.36.36 0 00-.11.31M219.59 81.58a.23.23 0 00-.21-.21h0a.23.23 0 00-.21.21h0M270.72 81.58a.23.23 0 00-.21-.21h0a.23.23 0 00-.21.21h0M295.66 81.58a.23.23 0 00-.21-.21h0a.23.23 0 00-.21.21h0" stroke="#900" stroke-linecap="round" stroke-linejoin="round" stroke-width=".3"/><circle stroke="#FFF" stroke-width="2" stroke-linecap="round" stroke-linejoin="round" cx="83.99" cy="391.68" r="14.24"/><text fill="#FFF" font-family="Helvetica" font-size="24.94"><tspan x="76.76" y="400.26">+</tspan></text><circle stroke="#FFF" stroke-width="2" stroke-linecap="round" stroke-linejoin="round" cx="351.57" cy="199.12" r="14.24"/><circle stroke="#FFF" stroke-width="2" stroke-linecap="round" stroke-linejoin="round" cx="157.34" cy="199.12" r="14.24"/><circle stroke="#FFF" stroke-width="2" stroke-linecap="round" stroke-linejoin="round" cx="392.1" cy="287.6" r="14.24"/><circle stroke="#FFF" stroke-width="2" stroke-linecap="round" stroke-linejoin="round" cx="112.13" cy="286.31" r="14.24"/><text fill="#FFF" font-family="Helvetica" font-size="24.94"><tspan x="347.62" y="206.74">-</tspan></text><text fill="#FFF" font-family="Helvetica" font-size="24.94"><tspan x="153.19" y="206.33">-</tspan></text><text fill="#FFF" font-family="Helvetica" font-size="18.71"><tspan x="108.78" y="292.43">1</tspan></text><text fill="#FFF" font-family="Helvetica" font-size="18.71"><tspan x="385.33" y="293.84">4</tspan></text><circle stroke="#FFF" stroke-width="2" stroke-linecap="round" stroke-linejoin="round" cx="134.16" cy="555.57" r="14.24"/><text fill="#FFF" font-family="Helvetica" font-size="24.94"><tspan x="130.03" y="562.72">-</tspan></text><circle stroke="#FFF" stroke-width="2" stroke-linecap="round" stroke-linejoin="round" cx="377.35" cy="555.57" r="14.24"/><text fill="#FFF" font-family="Helvetica" font-size="24.94"><tspan x="373.21" y="562.72">-</tspan></text><circle stroke="#FFF" stroke-width="2" stroke-linecap="round" stroke-linejoin="round" cx="91.19" cy="482.31" r="14.24"/><text fill="#FFF" font-family="Helvetica" font-size="18.71"><tspan x="86.66" y="487.45">2</tspan></text><circle stroke="#FFF" stroke-width="2" stroke-linecap="round" stroke-linejoin="round" cx="416.73" cy="482.31" r="14.24"/><text fill="#FFF" font-family="Helvetica" font-size="18.71"><tspan x="411.35" y="489.43">3</tspan></text><circle fill="#FFF" fill-rule="nonzero" cx="175.11" cy="300.13" r="8.63"/><circle stroke="#FFF" fill="#D8D7D6" fill-rule="nonzero" cx="175.11" cy="300.13" r="8.63"/><circle fill="#FFF" fill-rule="nonzero" cx="175.01" cy="320.08" r="8.63"/><circle stroke="#FFF" fill="#D8D7D6" fill-rule="nonzero" cx="175.01" cy="320.08" r="8.63"/><path fill="#FFF" fill-rule="nonzero" d="M148.5 361.62h12.06v22.55H148.5z"/><circle stroke="#FFF" stroke-width="2" stroke-linecap="round" stroke-linejoin="round" cx="148.5" cy="372.46" r="10.29"/><circle stroke="#FFF" stroke-width="2" stroke-linecap="round" stroke-linejoin="round" cx="419.54" cy="391.68" r="14.24"/><text fill="#FFF" font-family="Helvetica" font-size="24.94"><tspan x="412.33" y="399.25">+</tspan></text><path fill="#666" fill-rule="nonzero" d="M202.34 493.94h89.79v40.63h-89.79z"/><path d="M280.7 498.1v.83c0 9.67-.32 9.88-21.31 8.63-2.39-.11-6.23-1.87-6.34-2.91a52 52 0 01-.1-13.3c.1-.94 2.6-2.5 4.26-2.6 6.34-.31 12.78-.31 19.12 0 1.56.1 3.74 1.66 4.05 2.6.63 2.18.21 4.47.32 6.75zM375.78 437.62v-39.8l-7.58-7.59h-39.91v47.39z" fill="#000" fill-rule="nonzero"/><path d="M179.79 298.15c-.52-2.59-3.85-4.15-6.34-3.32a5.13 5.13 0 003.11 9.77h0c2.6-.94 4.27-4.16 3.23-6.45zM179.79 318.52c-.52-2.59-3.85-4.15-6.34-3.32a5.13 5.13 0 003.11 9.77c2.6-.97 4.27-4.16 3.23-6.45z" stroke="#FFF" fill="#D8D7D6" fill-rule="nonzero"/><g transform="translate(187 291)" fill="#D8D7D6" fill-rule="nonzero" stroke="#FFF"><circle cx="95.05" cy="29.08" r="8.63"/><path d="M99.83 27.52c-.52-2.59-3.85-4.15-6.34-3.32a5.13 5.13 0 103.12 9.77h0c2.7-.97 4.26-4.16 3.22-6.45z"/><circle cx="95.05" cy="9.13" r="8.63"/><path d="M99.83 7.57c-.52-2.6-3.85-4.16-6.34-3.33a5.13 5.13 0 103.12 9.77h0c2.7-.93 4.26-4.15 3.22-6.44z"/><circle cx="72.5" cy="8.92" r="8.63"/><path d="M77.28 7.47c-.52-2.6-3.85-4.16-6.34-3.33a5.13 5.13 0 003.11 9.77h0c2.6-1.04 4.26-4.16 3.23-6.44z"/><circle cx="72.7" cy="29.08" r="8.63"/><path d="M77.48 27.52c-.52-2.59-3.84-4.15-6.23-3.32a5.13 5.13 0 103.12 9.77c2.49-.97 4.05-4.16 3.11-6.45z"/><circle cx="52.02" cy="8.71" r="8.63"/><path d="M56.7 7.15c-.52-2.59-3.85-4.15-6.24-3.32a5.13 5.13 0 003.12 9.77h0c2.6-.94 4.16-4.16 3.12-6.45z"/><circle cx="51.92" cy="29.08" r="8.63"/><path d="M56.7 27.52c-.52-2.59-3.85-4.15-6.24-3.32a5.13 5.13 0 003.12 9.77c2.5-.97 4.16-4.16 3.12-6.45z"/><circle cx="29.99" cy="9.13" r="8.63"/><path d="M34.77 7.57c-.52-2.6-3.84-4.16-6.23-3.33a5.13 5.13 0 103.11 9.77c2.5-.93 4.06-4.15 3.12-6.44z"/><circle cx="29.89" cy="29.08" r="8.63"/><path d="M34.67 27.52c-.52-2.59-3.85-4.15-6.24-3.32a5.13 5.13 0 003.12 9.77c2.6-.97 4.16-4.16 3.12-6.45z"/><circle cx="9.31" cy="9.13" r="8.63"/><path d="M14.09 7.57c-.52-2.6-3.84-4.16-6.34-3.33a5.13 5.13 0 003.12 9.77h0c2.7-.93 4.26-4.15 3.22-6.44z"/><circle cx="9" cy="29.08" r="8.63"/><path d="M13.67 27.52c-.51-2.59-3.84-4.15-6.23-3.32a5.13 5.13 0 103.12 9.77c2.6-.97 4.15-4.16 3.11-6.45z"/></g><path d="M119.1 222.08l-1.67 3.22-54.14-22.75 1.77-3.23 34.08 14.35-6.86-4.67c-22.76-16-23.28-16.32-22-19.23l2.39-3.84c.63-1.56-1.35 4 21.72 20.16 11.92 8.41 24.5 15.99 24.71 15.99z" fill="#FFF" fill-rule="nonzero"/><path d="M117.74 226c-.1 0-14.44-3.74-28.89-6.44-27.64-5.09-34.39.73-34.39.83l1.45-3.74c1.25-3 6.24-5.82 33.57-.73 14.65 2.7 29 6.44 29.1 6.55l-.84 3.53zM73.37 325.38l-.94 3.54-57.67-11 1-3.53 36.37 7c-2.6-1-5.09-2.08-7.69-3.22-25.53-10.97-26.15-11.17-25.53-14.3l1.46-4.26c.21-1.66-.42 4.16 25.46 15.17 13.51 5.82 27.44 10.6 27.54 10.6z" fill="#FFF" fill-rule="nonzero"/><path d="M73 329.54c-.1 0-14.86-.73-29.61-.31-28.17.72-33.47 7.79-33.47 8l.73-4c.62-3.22 4.88-7 32.74-7.69 14.86-.42 29.72.31 29.82.31l-.21 3.69zM59 431.28l.31 3.64-58 9-.21-3.64 36.58-5.72c-2.7-.1-5.5-.2-8.31-.41C1.66 432.53 1 432.53.52 429.41v-4.47c-.31-1.66.94 4.05 29.1 5.72 14.55.83 29.3.62 29.38.62z" fill="#FFF" fill-rule="nonzero"/><path d="M60 435.33c-.1 0-14.23 4.37-27.95 9.67-26.33 10.08-28.93 18.6-28.83 18.7l-.73-3.95c-.52-3.22 2.29-8.21 28.27-18.18 13.82-5.3 28.06-9.67 28.16-9.77l1.08 3.53zM81.06 529.9l1.77 3.22-48.95 32.53-1.66-3.22L63 542c-2.5 1-5.09 2.08-7.8 3.11-25.87 10.09-26.39 10.4-28.26 7.69l-1.87-4c-.94-1.35 2.59 3.22 28.78-7 13.8-5.45 27.15-11.8 27.21-11.9z" fill="#FFF" fill-rule="nonzero"/><path d="M83.66 533.12c-.11.11-11.12 9.88-21.41 20.48-19.64 20.16-18.39 29-18.29 29.09l-2.29-3.32c-1.76-2.7-1.35-8.42 18-28.37 10.33-10.71 21.39-20.58 21.49-20.68l2.5 2.8zM156 603.58l3.32 1.46-18.18 55.8-3.33-1.45 11.43-35.23c-1.35 2.39-2.7 4.78-4.15 7.27-14 24-14.24 24.53-17.36 23.59l-4-2c-1.56-.42 4 .94 18.18-23.38 7.53-12.64 13.97-25.85 14.09-26.06z" fill="#FFF" fill-rule="nonzero"/><path d="M159.94 604.62c0 .11-2.6 14.66-4.06 29.31-2.8 28 3.54 34.19 3.75 34.19l-3.85-1.12c-3.12-1-6.24-5.72-3.53-33.36 1.45-14.76 4.05-29.41 4.05-29.52l3.64.5zM350.64 111.3c20.78-18.91 18.29-24.11 19-22.65l2.81 3.53C374 95 373.6 95.4 353 114.11l-6.24 5.61 32-18.5 2.08 2.91-50.82 29.41-2.08-3c.14-.22 11.78-9.26 22.7-19.24z" fill="#FFF" fill-rule="nonzero"/><path d="M328.4 130.73c.1-.1 13.92-5.61 28.06-10.18 26.5-8.52 31.8-6.34 33.35-3.53l2 3.53c0-.1-7.38-5.09-34.19 3.53-14 4.47-27.75 10-27.85 10.08l-1.37-3.43zM411.64 206.91c23.07-16.21 21.09-21.62 21.72-20.16l2.39 3.84c1.25 3 .73 3.33-22 19.23-2.293 1.66-4.58 3.22-6.86 4.68l34.08-14.34 1.77 3.22-54.14 22.76-1.67-3.23s12.65-7.58 24.71-16z" fill="#FFF" fill-rule="nonzero"/><path d="M387.22 223.33c.1 0 14.55-3.85 29.09-6.55 27.34-5.09 32.32-2.28 33.57.73l1.46 3.74c0-.1-6.65-6-34.4-.83-14.45 2.7-28.79 6.44-28.89 6.44l-.83-3.53zM460.07 315.61c25.87-11 25.15-16.83 25.46-15.17l1.47 4.26c.63 3.22 0 3.33-25.56 14.24-2.6 1.14-5.2 2.18-7.69 3.22l36.37-7 1 3.53-57.68 11-.93-3.54c.12.06 14.05-4.72 27.56-10.54z" fill="#FFF" fill-rule="nonzero"/><path d="M432.73 326.73c.11 0 15-.72 29.83-.31 27.85.73 32.11 4.47 32.74 7.69l.72 3.95c0-.1-5.3-7.27-33.46-8-14.76-.42-29.41.31-29.62.31l-.21-3.64zM476.38 431.38c28.06-1.66 29.41-7.38 29.1-5.71v4.47c-.52 3.22-1.14 3.22-28.89 4.78-2.81.2-5.61.31-8.31.41l36.58 5.72-.21 3.64-58-9.05.35-3.64c0 .11 14.73.32 29.38-.62z" fill="#FFF" fill-rule="nonzero"/><path d="M447 432.63c.11 0 14.34 4.36 28.16 9.77 26 10 28.69 15 28.27 18.19l-.73 3.94c.11-.1-2.59-8.62-28.78-18.7-13.72-5.3-27.85-9.56-28-9.67l1.08-3.53zM363.83 630.6c14.24 24.32 19.85 22.87 18.17 23.4l-4 2c-3.12.94-3.33.42-17.36-23.59-1.45-2.39-2.8-4.88-4.15-7.27l11.43 35.22-3.33 1.46L346.37 606l3.33-1.45c.3.07 6.76 13.27 14.13 26.05z" fill="#FFF" fill-rule="nonzero"/><path d="M349.49 604.83c0 .1 2.6 14.76 4.06 29.51 2.8 27.65-.42 32.43-3.54 33.36l-3.84 1.15c.1 0 6.54-6.13 3.74-34.19-1.46-14.66-4-29.21-4.06-29.31l3.64-.52z" fill="#FFF" fill-rule="nonzero"/><path d="M417.27 268.57c-1.46-12 11-23.27 23.11-23.27 12.713.39 22.952 10.56 23.43 23.27 0 12.28-11.15 23.43-23.43 23.27-13.09-.17-24.38-11.84-23.11-23.27zM446.34 380.48c-1.45-12 11-23.27 23.11-23.27 12.713.39 22.952 10.56 23.43 23.27 0 12.28-11.15 23.43-23.43 23.27-13.09-.16-24.4-11.75-23.11-23.27zM443.68 496.55c-1.46-11.95 11-23.26 23.1-23.26 12.714.38 22.957 10.55 23.43 23.26 0 12.28-11.15 23.43-23.43 23.27-13.09-.16-24.4-11.82-23.1-23.27zM395.52 587.79c-1.45-12 11-23.27 23.11-23.27 12.711.395 22.947 10.562 23.43 23.27 0 12.28-11.15 23.43-23.43 23.27-13.09-.16-24.4-11.8-23.11-23.27zM117.81 187.43c-12.28.17-23.43-11-23.43-23.26.478-12.71 10.717-22.88 23.43-23.27 12.12 0 24.56 11.31 23.11 23.27 1.29 11.47-10.02 23.1-23.11 23.26zM64 294.1c-12.28.16-23.43-11-23.43-23.27.483-12.708 10.719-22.875 23.43-23.27 12.12 0 24.57 11.31 23.11 23.27C88.37 282.3 77.06 293.94 64 294.1zM34.9 406c-12.28.16-23.43-11-23.43-23.27.478-12.707 10.72-22.87 23.43-23.25 12.12 0 24.56 11.31 23.11 23.27C59.3 394.22 48 405.85 34.9 406zM37.57 522.09c-12.28.16-23.43-11-23.43-23.27.468-12.714 10.713-22.89 23.43-23.27 12.12 0 24.56 11.31 23.1 23.27 1.33 11.47-10.01 23.1-23.1 23.27zM93.72 614.32c-12.28.16-23.43-11-23.43-23.27.483-12.708 10.719-22.875 23.43-23.27 12.12 0 24.56 11.31 23.11 23.27 1.29 11.48-10.02 23.11-23.11 23.27z" stroke="#CCC" stroke-width="2" fill="#FFF" fill-rule="nonzero"/><path d="M204.11 435.37c-10.22.13-19.5-9.15-19.5-19.37.4-10.578 8.92-19.041 19.5-19.37 10.09 0 20.45 9.42 19.24 19.37 1.07 9.55-8.35 19.23-19.24 19.37z" fill="#D8D7D6" fill-rule="nonzero"/><path fill="#999" fill-rule="nonzero" d="M212.02 103.22h83.04v94.47h-83.04z"/><path d="M221.62 79.64c-12.28.17-23.43-11-23.43-23.26.468-12.714 10.713-22.89 23.43-23.27 12.12 0 24.56 11.31 23.1 23.27 1.28 11.47-10.01 23.1-23.1 23.26zM290.93 79.64c-12.28.17-23.43-11-23.43-23.26.468-12.714 10.713-22.89 23.43-23.27 12.12 0 24.56 11.31 23.11 23.27 1.29 11.47-10.04 23.1-23.11 23.26z" fill="#FFF" fill-rule="nonzero"/><path d="M301.56 357.59c.62-.003 1.23.155 1.77.46.509.285.93.704 1.22 1.21A3.58 3.58 0 01305 361v12.02a5.28 5.28 0 11-6.84 0V361a3.58 3.58 0 01.45-1.77 3.22 3.22 0 011.22-1.21 3.562 3.562 0 011.73-.43h0z" stroke="#F9F9F9" stroke-width="2"/></g></svg>
